<svg width="110" height="110" viewBox="0 0 110 110" xmlns="http://www.w3.org/2000/svg" xmlns:xlink="http://www.w3.org/1999/xlink"><defs><path id="a" d="M0 0h62v62H0z"/><mask id="c" maskContentUnits="userSpaceOnUse" maskUnits="objectBoundingBox" x="0" y="0" width="62" height="62" fill="#fff"><use xlink:href="#a"/></mask><path id="b" d="M0 0h62v62H0z"/><mask id="d" maskContentUnits="userSpaceOnUse" maskUnits="objectBoundingBox" x="0" y="0" width="62" height="62" fill="#fff"><use xlink:href="#b"/></mask></defs><g fill="none" fill-rule="evenodd"><rect fill-opacity=".15" fill="#84D2E8" x="15" y="15" width="80" height="80" rx="40"/><g transform="translate(24 24)"><use stroke="#0AA6D2" mask="url(#c)" stroke-width="4" fill="#FFF" xlink:href="#a"/><path d="M10.5 1.5v60.01m10-60.01v60.01m10-60.01v60.01m10-60.01v60.01m10-60.01v60.01m10-50.01H.49m60.01 10H.49m60.01 10H.49m60.01 10H.49m60.01 10H.49" stroke="#54C1DF" stroke-linecap="square"/><path fill="#54C1DF" opacity=".617" d="M30 11h10v11H30zm-19 0h10v11H11zm39 0h10v11H50z"/><path fill="#54C1DF" opacity=".617" d="M30 21h10v11H30zM11 31h10v11H11z"/><path fill="#54C1DF" opacity=".617" d="M10 41h10v11H10zm11 0h10v11H21zm19 0h10v11H40zm1-20h10v11H41z"/><use stroke="#0AA6D2" mask="url(#d)" stroke-width="4" xlink:href="#b"/></g></g></svg>