<svg width="100" height="100" viewBox="0 0 100 100" xmlns="http://www.w3.org/2000/svg" xmlns:xlink="http://www.w3.org/1999/xlink"><defs><path id="a" d="M3 57h60l-10 47H13z"/><mask id="f" maskContentUnits="userSpaceOnUse" maskUnits="objectBoundingBox" x="0" y="0" width="60" height="47" fill="#fff"><use xlink:href="#a"/></mask><path id="b" d="M0 54h66l-2 12H2z"/><mask id="g" maskContentUnits="userSpaceOnUse" maskUnits="objectBoundingBox" x="0" y="0" width="66" height="12" fill="#fff"><use xlink:href="#b"/></mask><path d="M44.698 36c5.356 0 6.972-6.5 9.698-6.5 2.725 0-4.342-6.5-9.698-6.5C39.342 23 35 25.91 35 29.5s4.342 6.5 9.698 6.5z" id="c"/><mask id="h" maskContentUnits="userSpaceOnUse" maskUnits="objectBoundingBox" x="0" y="0" width="20" height="13" fill="#fff"><use xlink:href="#c"/></mask><path d="M22.698 41c5.356 0 6.972-6.5 9.698-6.5 2.725 0-4.342-6.5-9.698-6.5C17.342 28 13 30.91 13 34.5s4.342 6.5 9.698 6.5z" id="d"/><mask id="i" maskContentUnits="userSpaceOnUse" maskUnits="objectBoundingBox" x="0" y="0" width="20" height="13" fill="#fff"><use xlink:href="#d"/></mask><path d="M28.698 19c5.356 0 6.972-6.5 9.698-6.5 2.725 0-4.342-6.5-9.698-6.5C23.342 6 19 8.91 19 12.5s4.342 6.5 9.698 6.5z" id="e"/><mask id="j" maskContentUnits="userSpaceOnUse" maskUnits="objectBoundingBox" x="0" y="0" width="20" height="13" fill="#fff"><use xlink:href="#e"/></mask></defs><g transform="translate(0 -4)" fill="none" fill-rule="evenodd"><rect fill="#ECF9E9" y="4" width="100" height="100" rx="50"/><g transform="translate(17)"><use stroke="#6FD350" mask="url(#f)" stroke-width="4" fill="#FFF" xlink:href="#a"/><use stroke="#6FD350" mask="url(#g)" stroke-width="4" fill="#FFF" xlink:href="#b"/><path fill="#6FD350" d="M32 20h3v34h-3z"/><use stroke="#6FD350" mask="url(#h)" stroke-width="4" fill="#9AE084" xlink:href="#c"/><path d="M36.5 29.5l16-1" stroke="#6FD350" stroke-linecap="square"/><use stroke="#6FD350" mask="url(#i)" stroke-width="4" fill="#9AE084" transform="rotate(-160 23 34.5)" xlink:href="#d"/><path d="M30.987 37.407L15.61 32.875" stroke="#6FD350" stroke-linecap="square"/><use stroke="#6FD350" mask="url(#j)" stroke-width="4" fill="#9AE084" transform="rotate(-122 29 12.5)" xlink:href="#e"/><path d="M33.504 19.708L24.178 6.67" stroke="#6FD350" stroke-linecap="square"/></g></g></svg>