<svg width="110" height="110" viewBox="0 0 110 110" xmlns="http://www.w3.org/2000/svg"><g fill="none" fill-rule="evenodd"><rect fill-opacity=".15" fill="#84D2E8" x="15" y="15" width="80" height="80" rx="40"/><path d="M58.882 76c-1.208-.502-2.353-.994-3.529-.958-1.099.017-2.218.35-3.402.7-2.265.672-4.833 1.434-7.965.202-3.996-1.57-5.852-3.425-7.882-6.297-6.618-9.369-6.835-23.604-.449-29.286 2.945-2.625 6.894-3.756 10.827-3.112 2.455.405 5.665 1.134 8.164 2.408 1.388.704 2.035 0 2.035 0s2.201-.687 5.874-1.564c1.378-.333 2.752-.573 3.97-.633 2.896-.14 5.981.903 8.457 2.859 6.166 4.87 5.875 20.22-.555 29.328-2.33 3.302-3.803 5.119-9.278 7.09a6.042 6.042 0 0 1-2.074.368c-1.544 0-2.928-.576-4.193-1.104z" stroke="#0AA6D2" stroke-width="2" fill="#84D2E8"/><path d="M60.349 31.526c-2.435 2.539-3.177 3.958-3.349 7.077 3.333-1.697 5.638-4.587 6.937-6.746.765-1.27 1.048-1.995 1.345-2.857-1.69.348-3.538 1.072-4.933 2.526z" stroke="#0AA6D2" stroke-width="2" stroke-linecap="round" stroke-linejoin="round" fill="#84D2E8"/><path d="M46.5 27.5C54.634 32.55 56 39 56 39" stroke="#0AA6D2" stroke-width="2" stroke-linecap="round" stroke-linejoin="round"/><path d="M36.917 50.282h-.051a.997.997 0 0 1-.947-1.045c.12-2.467 1.08-4.61 2.708-6.041 1.401-1.23 3.179-1.823 4.996-1.675a.997.997 0 1 1-.16 1.99c-1.28-.108-2.53.317-3.518 1.184-1.217 1.069-1.939 2.716-2.03 4.637-.03.534-.47.95-.998.95z" fill="#FFF"/><path d="M82.832 70.19c7.025-5.894 8.68-15.764 4.322-23.235-.498-.853-2.093-1.032-3.32-1.015-9.417 7.9-13.274 11.1-25.414 21.283-.332.278-.707 1.783-.374 2.12 6.539 6.626 17.338 7.097 24.786.847z" stroke="#0AA6D2" stroke-width="2" stroke-linejoin="round" fill="#FFF"/><path d="M75.18 62.325c2.388-2.003 2.95-5.358 1.47-7.897-.17-.29-.712-.351-1.13-.345-3.2 2.685-4.51 3.773-8.637 7.234-.113.094-.24.606-.127.72 2.222 2.252 5.893 2.412 8.424.288z" fill-opacity=".411" fill="#84D2E8"/><path d="M72.58 59.212c.215.8.81 1.336 1.329 1.197.52-.139.767-.9.552-1.7-.214-.8-1.036-1.988-1.412-1.84-.375.148-.683 1.543-.469 2.343z" fill="#0AA6D2"/></g></svg>