<svg width="100" height="100" viewBox="0 0 100 100" xmlns="http://www.w3.org/2000/svg" xmlns:xlink="http://www.w3.org/1999/xlink"><defs><mask id="h" maskContentUnits="userSpaceOnUse" maskUnits="objectBoundingBox" x="0" y="0" width="41.661" height="41.661" fill="#fff"><use xlink:href="#a"/></mask><mask id="i" maskContentUnits="userSpaceOnUse" maskUnits="objectBoundingBox" x="0" y="0" width="10.964" height="10.964" fill="#fff"><use xlink:href="#b"/></mask><mask id="j" maskContentUnits="userSpaceOnUse" maskUnits="objectBoundingBox" x="0" y="0" width="8.771" height="8.771" fill="#fff"><use xlink:href="#c"/></mask><mask id="k" maskContentUnits="userSpaceOnUse" maskUnits="objectBoundingBox" x="0" y="0" width="5.196" height="5.196" fill="#fff"><use xlink:href="#d"/></mask><mask id="l" maskContentUnits="userSpaceOnUse" maskUnits="objectBoundingBox" x="0" y="0" width="6.791" height="6.668" fill="#fff"><use xlink:href="#e"/></mask><mask id="m" maskContentUnits="userSpaceOnUse" maskUnits="objectBoundingBox" x="0" y="0" width="12.06" height="6.578" fill="#fff"><use xlink:href="#f"/></mask><mask id="n" maskContentUnits="userSpaceOnUse" maskUnits="objectBoundingBox" x="0" y="0" width="9.648" height="5.482" fill="#fff"><use xlink:href="#g"/></mask><rect id="a" x="0" y=".385" width="41.661" height="41.661" rx="20.831"/><rect id="b" x="10.964" y="21.216" width="10.964" height="10.964" rx="5.482"/><rect id="c" x="28.294" y="18.507" width="8.771" height="8.771" rx="4.385"/><rect id="d" x="17.17" y="9.775" width="5.196" height="5.196" rx="2.598"/><ellipse id="f" cx="21.379" cy="40.95" rx="6.03" ry="3.289"/><ellipse id="g" cx="6.259" cy="4.685" rx="4.824" ry="2.741"/><path d="M5.27 10.082a3.922 3.922 0 105.67-5.421" id="e"/></defs><g transform="translate(-9 -9)" fill="none" fill-rule="evenodd"><rect fill="#FFEDEC" x="9" y="9" width="100" height="100" rx="50"/><g transform="rotate(-44 107.712 42.835)" stroke="#F15242"><use mask="url(#h)" stroke-width="4" fill="#FFF" xlink:href="#a"/><use mask="url(#i)" stroke-width="4" xlink:href="#b"/><use mask="url(#j)" stroke-width="4" xlink:href="#c"/><use mask="url(#k)" stroke-width="4" xlink:href="#d"/><path d="M47.113 5.369h29.621M47.113 38.26h13.156m-8.192-11.562h20.83m14.253 0h36.621M52.077 16.83h55.914" stroke-width="2" stroke-linecap="round"/><use mask="url(#l)" stroke-width="4" xlink:href="#e"/><use mask="url(#m)" stroke-width="4" fill="#FFF" xlink:href="#f"/><path d="M26.312 40.95l1.097-4.385M16.445 40.95l-1.358-4.385" stroke-width="2" stroke-linecap="round"/><g transform="rotate(29 14.905 62.292)"><use mask="url(#n)" stroke-width="4" fill="#FFF" transform="rotate(-162 6.26 4.685)" xlink:href="#g"/><path d="M2.528 3.409L.565 6.614m9.471-.647L9.94 9.778" stroke-width="2" stroke-linecap="round"/></g></g></g></svg>