<svg width="110" height="110" viewBox="0 0 110 110" xmlns="http://www.w3.org/2000/svg" xmlns:xlink="http://www.w3.org/1999/xlink"><defs><ellipse id="a" cx="38.868" cy="35.746" rx="32.226" ry="31.983"/><mask id="g" maskContentUnits="userSpaceOnUse" maskUnits="objectBoundingBox" x="0" y="0" width="64.452" height="63.966" fill="#fff"><use xlink:href="#a"/></mask><ellipse id="b" cx="38.868" cy="35.746" rx="32.226" ry="31.983"/><mask id="h" maskContentUnits="userSpaceOnUse" maskUnits="objectBoundingBox" x="0" y="0" width="64.452" height="63.966" fill="#fff"><use xlink:href="#b"/></mask><path d="M5.687 16.305c1.042 0 5.687-7.446 5.687-10.598C11.374 2.555 8.828 0 5.687 0 2.547 0 0 2.555 0 5.707c0 3.152 4.645 10.598 5.687 10.598z" id="c"/><mask id="i" maskContentUnits="userSpaceOnUse" maskUnits="objectBoundingBox" x="0" y="0" width="11.374" height="16.305" fill="#fff"><use xlink:href="#c"/></mask><path d="M5.687 16.305c1.042 0 5.687-7.446 5.687-10.598C11.374 2.555 8.828 0 5.687 0 2.547 0 0 2.555 0 5.707c0 3.152 4.645 10.598 5.687 10.598z" id="d"/><mask id="j" maskContentUnits="userSpaceOnUse" maskUnits="objectBoundingBox" x="0" y="0" width="11.374" height="16.305" fill="#fff"><use xlink:href="#d"/></mask><path d="M5.687 16.305c1.042 0 5.687-7.446 5.687-10.598C11.374 2.555 8.828 0 5.687 0 2.547 0 0 2.555 0 5.707c0 3.152 4.645 10.598 5.687 10.598z" id="e"/><mask id="k" maskContentUnits="userSpaceOnUse" maskUnits="objectBoundingBox" x="0" y="0" width="11.374" height="16.305" fill="#fff"><use xlink:href="#e"/></mask><path d="M5.687 16.305c1.042 0 5.687-7.446 5.687-10.598C11.374 2.555 8.828 0 5.687 0 2.547 0 0 2.555 0 5.707c0 3.152 4.645 10.598 5.687 10.598z" id="f"/><mask id="l" maskContentUnits="userSpaceOnUse" maskUnits="objectBoundingBox" x="0" y="0" width="11.374" height="16.305" fill="#fff"><use xlink:href="#f"/></mask></defs><g fill="none" fill-rule="evenodd"><rect fill-opacity=".15" fill="#84D2E8" x="15" y="15" width="80" height="80" rx="40"/><g transform="translate(16 19)" stroke="#0AA6D2"><use mask="url(#g)" stroke-width="4" fill-opacity=".401" fill="#84D2E8" xlink:href="#a"/><path d="M40.656 5.02s6.977 6.143 6.977 8.815c0 1.448-3.044 5.703-3.148 8.09-.088 2.017 2.714 4.049 3.148 4.049 2.305 0 3.38-1.5 5.684-1.5 1.58 0 5.97 1.5 5.97 1.5s-3.003 3.701-5.97 5.092c-2.966 1.39-6 4.208-6 7.111 0 2.903-2.402 5.874.316 7.822 2.718 1.947 1.564 3.978 5.037 3.978 3.472 0 6.26-2.018 6.26 1.825 0 3.844 1.291 6.583 1.291 6.583l7.688-10.611 2.415-12.576-2.046-9.224-2.986-6.245-6.005-7.407s-6.848-4.427-9.39-5.424c-3.668-1.437-9.24-1.879-9.24-1.879z" stroke-linejoin="round" fill="#FFF"/><path stroke-linejoin="round" fill="#FFF" d="M35.935 11.844v3.843l2.472 2.806 3.885-.968 1.634-3.338-3.557-1.498-3.872-4.387-3.322-.314zM25.153 8.488l-1.872 11.09-2.329 9.447 2.329 8.666-2.329 2.993s-1.735-4.181-2.94-6.004c-.85-1.287-2.35-3.765-2.35-3.765l-7.62 3.765s.48-3.634.911-5.655c.329-1.544 1.368-5.041 1.368-5.041l5.34-8.475 9.492-7.02zM14.225 41.39l6.384 2.247-1.497 2.345z"/><path d="M13.326 52.497h10.366c2.494 0 8.786 3.773 8.786 3.773v5.682l4.49 4.13h-2.965l-8.472-2.562-4.448-3.012-7.757-8.011z" fill="#FFF"/><use mask="url(#h)" stroke-width="4" xlink:href="#b"/><g transform="rotate(120 26.437 45.007)"><use mask="url(#i)" stroke-width="2" fill="#84D2E8" xlink:href="#c"/><ellipse fill="#FFF" cx="5.687" cy="5.644" rx="1.896" ry="1.881"/></g><g transform="rotate(30 28.168 109.562)"><use mask="url(#j)" stroke-width="2" fill="#84D2E8" xlink:href="#d"/><ellipse fill="#FFF" cx="5.687" cy="5.644" rx="1.896" ry="1.881"/></g><g transform="rotate(-60 16.941 9.357)"><use mask="url(#k)" stroke-width="2" fill="#84D2E8" xlink:href="#e"/><ellipse fill="#FFF" cx="5.687" cy="5.644" rx="1.896" ry="1.881"/></g><g transform="rotate(-150 21.953 33.456)"><use mask="url(#l)" stroke-width="2" fill="#84D2E8" xlink:href="#f"/><ellipse fill="#FFF" cx="5.687" cy="5.644" rx="1.896" ry="1.881"/></g></g></g></svg>