<svg width="110" height="110" viewBox="0 0 110 110" xmlns="http://www.w3.org/2000/svg" xmlns:xlink="http://www.w3.org/1999/xlink"><defs><path id="a" d="M18 4h39l6 6-6 5H18z"/><path id="b" d="M45 28H6l-6-6 6-5h39z"/><path id="c" d="M18 30h39l6 6-6 5H18z"/><mask id="d" maskContentUnits="userSpaceOnUse" maskUnits="objectBoundingBox" x="0" y="0" width="45" height="11" fill="#fff"><use xlink:href="#a"/></mask><mask id="e" maskContentUnits="userSpaceOnUse" maskUnits="objectBoundingBox" x="0" y="0" width="45" height="11" fill="#fff"><use xlink:href="#b"/></mask><mask id="f" maskContentUnits="userSpaceOnUse" maskUnits="objectBoundingBox" x="0" y="0" width="45" height="11" fill="#fff"><use xlink:href="#c"/></mask></defs><g fill="none" fill-rule="evenodd"><rect fill-opacity=".15" fill="#84D2E8" x="15" y="15" width="80" height="80" rx="40"/><g transform="translate(24 13)" stroke="#0AA6D2" fill="#FFF"><path d="M30 0h4v76s-.7.282-1 0c-.839-.583-1.307-.226-2 0-.247-.226-1 0-1 0V0z" stroke-width="2" stroke-linecap="round" stroke-linejoin="round"/><use mask="url(#d)" stroke-width="4" xlink:href="#a"/><use mask="url(#e)" stroke-width="4" xlink:href="#b"/><use mask="url(#f)" stroke-width="4" xlink:href="#c"/></g></g></svg>