<svg width="100" height="100" viewBox="0 0 100 100" xmlns="http://www.w3.org/2000/svg" xmlns:xlink="http://www.w3.org/1999/xlink"><defs><path id="a" d="M.037 19.717L37.742.211l37.705 19.506V64.36L37.742 84 .037 64.36z"/><mask id="b" maskContentUnits="userSpaceOnUse" maskUnits="objectBoundingBox" x="0" y="0" width="75.411" height="83.789" fill="#fff"><use xlink:href="#a"/></mask></defs><g fill="none" fill-rule="evenodd"><rect fill="#E8F7FB" width="100" height="100" rx="50"/><g transform="translate(12 8.396)" stroke="#0AA6D2"><use mask="url(#b)" stroke-width="4" fill="#FFF" xlink:href="#a"/><path d="M37.742 39.567v42.36M25.37 33.693v41.904M12.998 27.232V69.31m37.116-35.617v41.988m12.372-48.449v42.06M37.705 39.298L1.916 20.594m48.162 12.242l-35.966-18.73M62.45 26.375L26.634 7.703m11.071 46.28L1.533 35.13m36.172 33.539L1.661 49.892m36.081-10.537l36.047-18.779M25.37 32.894L61.142 14.22M12.998 26.432L48.802 7.784m-11.06 46.39l36.14-18.938m-36.14 33.732L73.93 49.934" stroke-width="2" stroke-linecap="square"/></g><path fill-opacity=".15" fill="#0AA6D2" d="M25.245 50.092l12.345 6.28-.483 14.024-12.015-6.29z"/><path fill-opacity=".201" fill="#0AA6D2" d="M25.152 35l12.346 6.279-.483 14.025L25 49.014z"/><path fill-opacity=".3" fill="#0AA6D2" d="M13.152 44l12.346 6.279-.483 14.025L13 58.014zm24-3l12.346 6.279-.483 14.025L37 55.014z"/><path fill-opacity=".201" fill="#0AA6D2" d="M37.245 71.092l12.345 6.28-.483 14.024-12.015-6.29z"/><path fill-opacity=".4" fill="#0AA6D2" d="M61.63 29l12.405 6.561-12.406 6.051L50 35.561zm12.722 20.737v14.73l-11.808 6.344-.716-14.697z"/><path fill-opacity=".149" fill="#0AA6D2" d="M86.523 58v14.73l-11.807 6.344L74 64.377zm-24-1v14.73l-11.807 6.344L50 63.377zm12-22v14.73l-11.807 6.344L62 41.377z"/><path fill-opacity=".146" fill="#0AA6D2" d="M49.63 22.425l12.405 6.561-12.406 6.051L38 28.986zm0-13l12.405 6.561-12.406 6.051L38 15.986z"/><path fill-opacity=".4" fill="#0AA6D2" d="M25.63 22l12.405 6.561-12.406 6.051L14 28.561zm36-6l12.405 6.561-12.406 6.051L50 22.561z"/></g></svg>