<svg width="110" height="110" viewBox="0 0 110 110" xmlns="http://www.w3.org/2000/svg" xmlns:xlink="http://www.w3.org/1999/xlink"><defs><path d="M40.007 26.13c4.256-.74 9.666-1.674 13.123-2.238A19.87 19.87 0 0 0 35.508 7.549c-.215 1.981-.888 8.843-1.381 13.916 1.262-.13 2.616-.37 2.616-.37s4.258-1.14 4.599 0c-.518 1.294-.982 3.266-1.335 5.036z" id="a"/><mask id="b" maskContentUnits="userSpaceOnUse" maskUnits="objectBoundingBox" x="-2" y="-2" width="23.003" height="22.582"><path fill="#fff" d="M32.127 5.549H55.13v22.582H32.127z"/><use xlink:href="#a"/></mask></defs><g fill="none" fill-rule="evenodd"><rect fill-opacity=".15" fill="#84D2E8" x="15" y="15" width="80" height="80" rx="40"/><g transform="translate(28 3)"><path d="M32.586 77.472c-3.837-4.115-3.299-14.58.664-17.399 4.783-2.24 8.112-7.199 8.112-12.81a13.81 13.81 0 0 0-1.547-6.371c-.854-2.643-1.947-6.448-1.947-8.614 0-4.13 2.345-11.528 2.345-11.528s-.239-.096-.685-.25c.444-.235.685-.487.685-.75 0-1.273-5.659-2.306-12.639-2.306-6.98 0-12.638 1.033-12.638 2.306 0 .168.099.332.285.49-.217.3-.285.51-.285.51s2.04 7.666 2.04 11.528c0 2.441-1.08 6.464-1.86 9.054a13.818 13.818 0 0 0-1.329 5.932c0 5.632 3.355 10.608 8.168 12.835 3.929 2.856 4.461 13.265.642 17.37-4.505.44-7.66 1.46-7.66 2.65 0 1.59 5.658 2.881 12.637 2.881 6.98 0 12.639-1.29 12.639-2.882 0-1.186-3.14-2.204-7.627-2.646z" fill="#FFF"/><path d="M17.234 32.494s5.668 1.775 8.503 1.775c2.14 0 4.912-1.386 7.688-1.775 3.481-.487 4.502 0 4.502 0l.88 5.932 1.992 4.151.73 4.115-.593 3.8-1.766 4.878-3.233 3.1-3.42 1.329s-5.719 1.74-10.012 0-5.401-3.658-5.401-3.658L14.6 52.084l-1.173-5.861 1.734-4.928 1.916-5.873" stroke="#0AA6D2" stroke-linecap="square" fill="#E0F4F9"/><path d="M32.586 77.472c-3.837-4.115-3.299-14.58.664-17.399 4.783-2.24 8.112-7.199 8.112-12.81a13.81 13.81 0 0 0-1.547-6.371c-.854-2.643-1.947-6.448-1.947-8.614 0-3.667 1.849-9.911 2.263-11.264a.688.688 0 0 1-.007.01l.089-.274s-2.159-.576-4.855-1.153c4.855-.12-.804-1.153-7.784-1.153a70.657 70.657 0 0 0-.506.002c-6.745.049-12.132 1.062-12.132 2.304.003.01 2.04 7.669 2.04 11.528 0 2.441-1.08 6.464-1.86 9.054a13.818 13.818 0 0 0-1.329 5.932c0 5.632 3.355 10.608 8.168 12.835 3.929 2.856 4.461 13.265.642 17.37-4.505.44-7.66 1.46-7.66 2.65 0 1.59 5.658 2.881 12.637 2.881 6.98 0 12.639-1.29 12.639-2.882 0-1.186-3.14-2.204-7.627-2.646z" stroke="#0AA6D2" stroke-width="2" stroke-linecap="round" stroke-linejoin="round"/><path stroke="#0AA6D2" stroke-width="2" stroke-linecap="round" stroke-linejoin="round" d="M19.913 22.579L16.839 8.352.794.539"/><path d="M25.556 48.694L19.948 22.74" stroke="#48BDDE" stroke-width="2" stroke-linecap="round" stroke-linejoin="round"/><ellipse stroke="#0AA6D2" stroke-width="2" cx="27.574" cy="20.75" rx="12.638" ry="2.306"/><use fill="#84D2E8" xlink:href="#a"/><use stroke="#0AA6D2" mask="url(#b)" stroke-width="4" xlink:href="#a"/><path d="M40.787 8.646l-.902 2.086m7.795 1.372l-2.297 2.306m6.894 2.305l-3.447 2.306" stroke="#0AA6D2" stroke-linecap="round"/></g></g></svg>