<svg xmlns="http://www.w3.org/2000/svg" xmlns:xlink="http://www.w3.org/1999/xlink" width="352" height="352" viewBox="0 0 352 352"><defs><path id="a" d="M73.445.005A9.867 9.867 0 0073.13 0H10.112c-.06 0-.121 0-.182.002A9.138 9.138 0 009.75 0C4.326 0 0 4.345 0 9.794c0 1.223.233 2.396.658 3.476a9.9 9.9 0 00.787 1.784l31.51 54.777a9.888 9.888 0 001.604 2.088A9.772 9.772 0 0041.712 75c2.372 0 4.556-.89 6.238-2.35a9.824 9.824 0 002.43-2.82l31.509-54.776a9.83 9.83 0 00.774-1.748c.432-1.09.67-2.276.67-3.512 0-5.45-4.325-9.794-9.57-9.794-.107 0-.213.002-.318.005zM44.782 51.51L69.7 8.071c.09-.123.148-.216.18-.272a4.317 4.317 0 013.883-2.358c2.255 0 4.153 1.91 4.153 4.353 0 .835-.274 1.656-.722 2.358a.245.245 0 00-.09.182L49.657 60.036l-4.875-8.525zM10.112 5.44h54.893l-4.875 8.525H10.112c-.085 0-.169-.003-.27 0-.063-.003-.145 0-.272 0-2.344 0-4.243-1.908-4.243-4.172 0-2.444 1.9-4.353 4.243-4.353.127 0 .209.003.271 0l.097.001h.174zm16.212 13.966H57.01L41.667 46.08 26.324 19.407zM37.739 67.29c.006-.064-.024-.114-.09-.181L10.292 19.407h9.751l25.01 43.44c.033.12.087.224.18.363.383.64.632 1.444.632 2.358 0 2.264-1.897 4.172-4.153 4.172a4.408 4.408 0 01-3.973-2.449z"/></defs><g fill="none" fill-rule="evenodd" transform="translate(1 1)"><path stroke="#01B2D0" stroke-dasharray="3 8" stroke-linecap="round" stroke-linejoin="round" stroke-width="2" d="M175 350c96.65 0 175-78.35 175-175S271.65 0 175 0 0 78.35 0 175s78.35 175 175 175z"/><circle cx="175" cy="175" r="145" fill="#84D2E8" opacity=".2"/><circle cx="175" cy="175" r="115" fill="#84D2E8" opacity=".2"/><circle cx="175" cy="175" r="85" fill="#84D2E8"/><use fill="#FFF" transform="translate(133 144)" xlink:href="#a"/></g></svg>