<svg xmlns="http://www.w3.org/2000/svg" width="120" height="50" viewBox="0 0 120 50">
  <path fill-rule="evenodd" d="M7.2279795,6.54918898 L15.7166165,6.54918898 L15.7166165,0 L7.2279795,0 L7.2279795,6.54918898 Z M104.726436,16.3608792 C104.726436,16.3608792 103.67182,16.1394376 103.024037,16.0034552 C102.376516,15.8674729 101.97572,15.5264421 101.97572,14.9540263 C101.97572,14.2862079 102.559197,13.7852769 103.374438,13.7852769 C104.51777,13.7852769 104.971323,14.3899415 105.081562,15.0961897 L107.754324,15.0961897 C107.732538,13.4893944 106.485267,11.3765621 103.420108,11.3765621 C100.950763,11.3765621 99.1339253,13.1177272 99.1339253,15.2163163 C99.1339253,16.8620789 100.135784,18.2213648 102.348431,18.7222958 L103.934293,19.0802572 C104.819614,19.2710625 105.168965,19.6999712 105.168965,20.22482 C105.168965,20.8448028 104.608061,21.3933007 103.582841,21.3933007 C102.346069,21.3933007 101.675713,20.6738842 101.517442,19.8386409 L98.763051,19.8383722 C98.9165977,21.5913619 100.158882,23.8262021 103.606464,23.8262021 C106.611254,23.8262021 108.127298,21.8703138 108.127298,19.96253 C108.127298,18.2452827 106.985803,16.8381611 104.726436,16.3608792 L104.726436,16.3608792 Z M115.74085,11.4249352 C114.646075,11.424129 113.38778,11.8046646 112.64157,12.7103177 L112.646557,6.55886361 L109.548326,6.55886361 L109.535727,23.4644784 L112.633695,23.466897 L112.638682,16.5739898 C112.709813,15.2861887 113.478858,14.2851329 114.783349,14.2862079 C116.274457,14.2872828 116.902293,15.3133314 116.901505,16.6250504 L116.896518,23.4701219 L119.994749,23.4722718 L120,16.0789711 C120.001835,13.5031001 118.652462,11.4273539 115.74085,11.4249352 L115.74085,11.4249352 Z M81.0020329,23.4685095 L84.1002633,23.4685095 L84.1002633,6.55886361 L81.0020329,6.55886361 L81.0020329,23.4685095 Z M94.303111,17.6013821 C94.303111,15.5264421 93.0219807,14.3101257 91.4379565,14.3101257 C89.8539324,14.3101257 88.5961621,15.5264421 88.5961621,17.6013821 C88.5961621,19.6999712 89.8539324,20.9165563 91.4379565,20.9165563 C93.0219807,20.9165563 94.303111,19.6763221 94.303111,17.6013821 L94.303111,17.6013821 Z M94.3495687,11.7342547 L97.3543588,11.7342547 L97.3543588,23.4685095 L94.2563908,23.4685095 L94.2563908,22.0417698 C93.7267205,22.9820904 92.5327311,23.7544486 90.948707,23.7544486 C87.7111034,23.7544486 85.5446519,21.1310107 85.5446519,17.5774642 C85.5446519,14.0954026 87.4780275,11.4719647 90.832169,11.4719647 C92.5560912,11.4719647 93.8025751,12.2900086 94.3495687,13.189212 L94.3495687,11.7342547 Z M76.5061341,17.6013821 C76.5061341,15.5264421 75.2483638,14.3101257 73.6643397,14.3101257 C72.0803156,14.3101257 70.7991852,15.5264421 70.7991852,17.6013821 C70.7991852,19.6763221 72.0803156,20.9165563 73.6643397,20.9165563 C75.2483638,20.9165563 76.5061341,19.6999712 76.5061341,17.6013821 L76.5061341,17.6013821 Z M79.5576444,17.5774642 C79.5576444,21.1310107 77.3914553,23.7544486 74.1535893,23.7544486 C72.5695651,23.7544486 71.4049727,23.1108168 70.8459054,22.3236779 L70.8459054,28 L67.747675,28 L67.747675,11.7342547 L70.7527275,11.7342547 L70.7527275,13.189212 C71.2650747,12.2827527 72.546205,11.4719647 74.2701272,11.4719647 C77.6242688,11.4719647 79.5576444,14.0954026 79.5576444,17.5774642 L79.5576444,17.5774642 Z M62.9746048,16.3608792 C62.9746048,16.3608792 61.9197261,16.1394376 61.2719429,16.0034552 C60.6241597,15.8674729 60.2238885,15.5264421 60.2238885,14.9540263 C60.2238885,14.2862079 60.8071033,13.7852769 61.6223442,13.7852769 C62.7656763,13.7852769 63.219492,14.3899415 63.3297306,15.0961897 L66.0024925,15.0961897 C65.9804447,13.4893944 64.7334359,11.3765621 61.6680145,11.3765621 C59.1989317,11.3765621 57.3818316,13.1177272 57.3818316,15.2163163 C57.3818316,16.8620789 58.3834283,18.2213648 60.5963376,18.7222958 L62.1824615,19.0802572 C63.0675202,19.2710625 63.4168716,19.6999712 63.4168716,20.22482 C63.4168716,20.8448028 62.8557045,21.3933007 61.8310102,21.3933007 C60.5942378,21.3933007 59.9236194,20.6738842 59.7653483,19.8386409 L57.0109574,19.8383722 C57.164504,21.5913619 58.4067884,23.8262021 61.8543703,23.8262021 C64.8591604,23.8262021 66.375204,21.8703138 66.375204,19.96253 C66.375204,18.2452827 65.2337093,16.8381611 62.9746048,16.3608792 L62.9746048,16.3608792 Z M51.6063773,11.424129 C50.3717046,11.424129 48.9973964,11.9726269 48.298431,13.189212 L48.298431,11.7342547 L45.2936409,11.7342547 L45.2936409,23.4685095 L48.3916089,23.4685095 L48.3916089,16.7188406 C48.3916089,15.3592859 49.1837522,14.2862079 50.5347003,14.2862079 C52.0255466,14.2862079 52.6544317,15.311719 52.6544317,16.6237067 L52.6544317,23.4685095 L55.7523997,23.4685095 L55.7523997,16.07494 C55.7523997,13.499069 54.4481717,11.424129 51.6063773,11.424129 L51.6063773,11.424129 Z M40.134998,17.1017948 C40.134998,19.3199731 38.7060953,20.6300797 36.7493596,20.6300797 C34.8393441,20.6300797 33.3870814,19.3199731 33.3870814,17.1017948 L33.3870814,6.55886361 L30.1725755,6.55886361 L30.1725755,17.0762645 C30.1725755,21.2261445 33.0482289,23.85012 36.7493596,23.85012 C40.4793624,23.85012 43.3495039,21.2261445 43.3495039,17.0762645 L43.3495039,6.55886361 L40.134998,6.55886361 L40.134998,17.1017948 Z M15.7166165,10.3900182 L22.944596,10.3900182 L22.944596,23.4883962 L0,23.4883962 L0,10.3900182 L7.2279795,10.3900182 L7.2279795,16.9392072 L15.7166165,16.9392072 L15.7166165,10.3900182 Z" transform="translate(0 10)"/>
</svg>
