<svg xmlns="http://www.w3.org/2000/svg" xmlns:xlink="http://www.w3.org/1999/xlink" width="465" height="350" viewBox="0 0 465 350"><defs><rect id="b" width="240" height="194" x="0" y="0" rx="8"/><filter id="a" width="109.2%" height="111.3%" x="-4.6%" y="-4.6%" filterUnits="objectBoundingBox"><feMorphology in="SourceAlpha" operator="dilate" radius="1" result="shadowSpreadOuter1"/><feOffset dy="2" in="shadowSpreadOuter1" result="shadowOffsetOuter1"/><feGaussianBlur in="shadowOffsetOuter1" result="shadowBlurOuter1" stdDeviation="3"/><feComposite in="shadowBlurOuter1" in2="SourceAlpha" operator="out" result="shadowBlurOuter1"/><feColorMatrix in="shadowBlurOuter1" values="0 0 0 0 0.207843137 0 0 0 0 0.258823529 0 0 0 0 0.329411765 0 0 0 0.101137908 0"/></filter><rect id="d" width="240" height="196" x="0" y="0" rx="8"/><filter id="c" width="109.2%" height="111.2%" x="-4.6%" y="-4.6%" filterUnits="objectBoundingBox"><feMorphology in="SourceAlpha" operator="dilate" radius="1" result="shadowSpreadOuter1"/><feOffset dy="2" in="shadowSpreadOuter1" result="shadowOffsetOuter1"/><feGaussianBlur in="shadowOffsetOuter1" result="shadowBlurOuter1" stdDeviation="3"/><feComposite in="shadowBlurOuter1" in2="SourceAlpha" operator="out" result="shadowBlurOuter1"/><feColorMatrix in="shadowBlurOuter1" values="0 0 0 0 0.207843137 0 0 0 0 0.258823529 0 0 0 0 0.329411765 0 0 0 0.101137908 0"/></filter></defs><g fill="none" fill-rule="evenodd"><g transform="translate(3 8)"><use fill="#000" filter="url(#a)" xlink:href="#b"/><rect width="241" height="195" x="-.5" y="-.5" fill="#FFF" stroke="#E1E1E1" rx="8"/><g fill="#F1F1F1" transform="translate(20 20)"><rect width="104" height="120" rx="4"/><rect width="30" height="30" y="127" rx="4"/><rect width="30" height="30" x="37" y="127" rx="4"/><rect width="30" height="30" x="74" y="127" rx="4"/></g><rect width="76" height="22" x="141" y="105" fill="#6FD350" rx="11"/><rect width="40" height="6" x="159" y="30" fill="#1B2E5B" rx="3"/><rect width="24" height="4" x="167" y="40" fill="#F1F1F1" rx="2"/><rect width="80" height="2" x="139" y="56" fill="#F1F1F1" rx="1"/><rect width="70" height="2" x="144" y="64" fill="#F1F1F1" rx="1"/><rect width="60" height="2" x="149" y="72" fill="#F1F1F1" rx="1"/><rect width="60" height="2" x="149" y="80" fill="#F1F1F1" rx="1"/></g><path fill="#01B2D0" fill-rule="nonzero" d="M341.833 88.57c.375-.391.078-1.012-.484-1.012h-4.185l1.945-5.765c.21-.623-.637-1.074-1.104-.587l-8.838 9.224c-.375.391-.078 1.012.484 1.012h4.182l-1.942 5.765c-.21.623.637 1.074 1.104.587l8.838-9.224z"/><path fill="#E1E1E1" d="M353 88h106a2 2 0 0 1 0 4H353a2 2 0 1 1 0-4z"/><g fill="#E1E1E1"><path fill-rule="nonzero" d="M341.833 113.57c.375-.391.078-1.012-.484-1.012h-4.185l1.945-5.765c.21-.623-.637-1.074-1.104-.587l-8.838 9.224c-.375.391-.078 1.012.484 1.012h4.182l-1.942 5.765c-.21.623.637 1.074 1.104.587l8.838-9.224z"/><path d="M353 113h106a2 2 0 0 1 0 4H353a2 2 0 1 1 0-4z"/></g><g fill="#E1E1E1"><path fill-rule="nonzero" d="M341.833 138.57c.375-.391.078-1.012-.484-1.012h-4.185l1.945-5.765c.21-.623-.637-1.074-1.104-.587l-8.838 9.224c-.375.391-.078 1.012.484 1.012h4.182l-1.942 5.765c-.21.623.637 1.074 1.104.587l8.838-9.224z"/><path d="M353 138h106a2 2 0 0 1 0 4H353a2 2 0 1 1 0-4z"/></g><g fill="#E1E1E1"><path fill-rule="nonzero" d="M341.833 163.57c.375-.391.078-1.012-.484-1.012h-4.185l1.945-5.765c.21-.623-.637-1.074-1.104-.587l-8.838 9.224c-.375.391-.078 1.012.484 1.012h4.182l-1.942 5.765c-.21.623.637 1.074 1.104.587l8.838-9.224z"/><path d="M353 163h106a2 2 0 0 1 0 4H353a2 2 0 1 1 0-4z"/></g><g fill="#E1E1E1"><path fill-rule="nonzero" d="M341.833 188.57c.375-.391.078-1.012-.484-1.012h-4.185l1.945-5.765c.21-.623-.637-1.074-1.104-.587l-8.838 9.224c-.375.391-.078 1.012.484 1.012h4.182l-1.942 5.765c-.21.623.637 1.074 1.104.587l8.838-9.224z"/><path d="M353 188h106a2 2 0 0 1 0 4H353a2 2 0 1 1 0-4z"/></g><g fill="#E1E1E1"><path fill-rule="nonzero" d="M341.833 213.57c.375-.391.078-1.012-.484-1.012h-4.185l1.945-5.765c.21-.623-.637-1.074-1.104-.587l-8.838 9.224c-.375.391-.078 1.012.484 1.012h4.182l-1.942 5.765c-.21.623.637 1.074 1.104.587l8.838-9.224z"/><path d="M353 213h106a2 2 0 0 1 0 4H353a2 2 0 1 1 0-4z"/></g><g fill="#E1E1E1"><path fill-rule="nonzero" d="M341.833 238.57c.375-.391.078-1.012-.484-1.012h-4.185l1.945-5.765c.21-.623-.637-1.074-1.104-.587l-8.838 9.224c-.375.391-.078 1.012.484 1.012h4.182l-1.942 5.765c-.21.623.637 1.074 1.104.587l8.838-9.224z"/><path d="M353 238h106a2 2 0 0 1 0 4H353a2 2 0 1 1 0-4z"/></g><path fill="#01B2D0" fill-rule="nonzero" d="M341.833 263.57c.375-.391.078-1.012-.484-1.012h-4.185l1.945-5.765c.21-.623-.637-1.074-1.104-.587l-8.838 9.224c-.375.391-.078 1.012.484 1.012h4.182l-1.942 5.765c-.21.623.637 1.074 1.104.587l8.838-9.224z"/><path fill="#E1E1E1" d="M353 263h106a2 2 0 0 1 0 4H353a2 2 0 1 1 0-4z"/><g transform="translate(26 148)"><use fill="#000" filter="url(#c)" xlink:href="#d"/><rect width="241" height="197" x="-.5" y="-.5" fill="#FFF" stroke="#E1E1E1" rx="8"/><rect width="60" height="4" x="20" y="20" fill="#1B2E5B" rx="2"/><g transform="translate(20 38)"><rect width="40" height="40" fill="#F1F1F1" rx="4"/><rect width="40" height="4" x="48" y="4" fill="#1B2E5B" rx="2"/><rect width="24" height="4" x="48" y="14" fill="#F1F1F1" rx="2"/><rect width="40" height="4" x="160" y="5" fill="#F1F1F1" rx="2"/></g><g transform="translate(20 86)"><rect width="40" height="40" fill="#F1F1F1" rx="4"/><rect width="40" height="4" x="48" y="4" fill="#1B2E5B" rx="2"/><rect width="24" height="4" x="48" y="14" fill="#F1F1F1" rx="2"/><rect width="40" height="4" x="160" y="5" fill="#F1F1F1" rx="2"/></g><rect width="55" height="16" x="165" y="160" fill="#6FD350" rx="8"/></g><g fill="#01B2D0" fill-rule="nonzero" transform="translate(194 108)"><circle cx="16" cy="16" r="16" fill-opacity=".4"/><circle cx="16" cy="16" r="3"/></g><g fill="#01B2D0" fill-rule="nonzero" transform="translate(223 300)"><circle cx="16" cy="16" r="16" fill-opacity=".4"/><circle cx="16" cy="16" r="3"/></g><path stroke="#01B2D0" stroke-linecap="round" stroke-linejoin="round" stroke-width="2" d="M210.5 124h60.057a8.5 8.5 0 0 0 0-17H263a9 9 0 1 1 0-18h52"/><circle cx="315" cy="89" r="3" fill="#01B2D0" fill-rule="nonzero"/><path stroke="#01B2D0" stroke-linecap="round" stroke-linejoin="round" stroke-width="2" d="M239 316h35a8 8 0 0 0 8-8v-35a8 8 0 0 1 8-8h25"/><circle cx="315" cy="265" r="3" fill="#01B2D0" fill-rule="nonzero"/></g></svg>