<svg xmlns="http://www.w3.org/2000/svg" xmlns:xlink="http://www.w3.org/1999/xlink" width="465" height="350" viewBox="0 0 465 350"><defs><rect id="b" width="240" height="194" x="0" y="0" rx="8"/><filter id="a" width="109.2%" height="111.3%" x="-4.6%" y="-4.6%" filterUnits="objectBoundingBox"><feMorphology in="SourceAlpha" operator="dilate" radius="1" result="shadowSpreadOuter1"/><feOffset dy="2" in="shadowSpreadOuter1" result="shadowOffsetOuter1"/><feGaussianBlur in="shadowOffsetOuter1" result="shadowBlurOuter1" stdDeviation="3"/><feComposite in="shadowBlurOuter1" in2="SourceAlpha" operator="out" result="shadowBlurOuter1"/><feColorMatrix in="shadowBlurOuter1" values="0 0 0 0 0.207843137 0 0 0 0 0.258823529 0 0 0 0 0.329411765 0 0 0 0.101137908 0"/></filter><rect id="d" width="200" height="250" x="0" y="0" rx="8"/><filter id="c" width="111%" height="108.8%" x="-5.5%" y="-3.6%" filterUnits="objectBoundingBox"><feMorphology in="SourceAlpha" operator="dilate" radius="1" result="shadowSpreadOuter1"/><feOffset dy="2" in="shadowSpreadOuter1" result="shadowOffsetOuter1"/><feGaussianBlur in="shadowOffsetOuter1" result="shadowBlurOuter1" stdDeviation="3"/><feComposite in="shadowBlurOuter1" in2="SourceAlpha" operator="out" result="shadowBlurOuter1"/><feColorMatrix in="shadowBlurOuter1" values="0 0 0 0 0.207843137 0 0 0 0 0.258823529 0 0 0 0 0.329411765 0 0 0 0.101137908 0"/></filter><rect id="f" width="240" height="196" x="0" y="0" rx="8"/><filter id="e" width="109.2%" height="111.2%" x="-4.6%" y="-4.6%" filterUnits="objectBoundingBox"><feMorphology in="SourceAlpha" operator="dilate" radius="1" result="shadowSpreadOuter1"/><feOffset dy="2" in="shadowSpreadOuter1" result="shadowOffsetOuter1"/><feGaussianBlur in="shadowOffsetOuter1" result="shadowBlurOuter1" stdDeviation="3"/><feComposite in="shadowBlurOuter1" in2="SourceAlpha" operator="out" result="shadowBlurOuter1"/><feColorMatrix in="shadowBlurOuter1" values="0 0 0 0 0.207843137 0 0 0 0 0.258823529 0 0 0 0 0.329411765 0 0 0 0.101137908 0"/></filter></defs><g fill="none" fill-rule="evenodd"><g stroke="#E1E1E1" stroke-dasharray="1 8" stroke-linecap="round" stroke-linejoin="round" stroke-width="2"><path d="M259 341c87.813 0 159-71.187 159-159S346.813 23 259 23 100 94.187 100 182s71.187 159 159 159z"/><path d="M259 316c74.006 0 134-59.994 134-134S333.006 48 259 48s-134 59.994-134 134 59.994 134 134 134z"/><path d="M259 291c60.199 0 109-48.801 109-109S319.199 73 259 73s-109 48.801-109 109 48.801 109 109 109z"/><path d="M258 266c46.392 0 84-37.608 84-84s-37.608-84-84-84-84 37.608-84 84 37.608 84 84 84z"/></g><g transform="translate(3 8)"><use fill="#000" filter="url(#a)" xlink:href="#b"/><rect width="241" height="195" x="-.5" y="-.5" fill="#FFF" stroke="#E1E1E1" rx="8"/><g fill="#F1F1F1" transform="translate(20 20)"><rect width="104" height="120" rx="4"/><rect width="30" height="30" y="127" rx="4"/><rect width="30" height="30" x="37" y="127" rx="4"/><rect width="30" height="30" x="74" y="127" rx="4"/></g><rect width="76" height="22" x="141" y="105" fill="#6FD350" rx="11"/><rect width="40" height="6" x="159" y="30" fill="#1B2E5B" rx="3"/><rect width="24" height="4" x="167" y="40" fill="#F1F1F1" rx="2"/><rect width="80" height="2" x="139" y="56" fill="#F1F1F1" rx="1"/><rect width="70" height="2" x="144" y="64" fill="#F1F1F1" rx="1"/><rect width="60" height="2" x="149" y="72" fill="#F1F1F1" rx="1"/><rect width="60" height="2" x="149" y="80" fill="#F1F1F1" rx="1"/></g><g transform="translate(250 42)"><use fill="#000" filter="url(#c)" xlink:href="#d"/><rect width="201" height="251" x="-.5" y="-.5" fill="#FFF" stroke="#E1E1E1" rx="8"/><g transform="translate(50 39)"><path fill="#01B2D0" fill-rule="nonzero" d="M12.833 7.57c.375-.391.078-1.012-.484-1.012H8.164L10.11.793C10.32.17 9.472-.281 9.005.206L.167 9.43c-.375.391-.078 1.012.484 1.012h4.182L2.89 16.207c-.21.623.637 1.074 1.104.587l8.838-9.224z"/><rect width="113" height="4" x="21" y="7" fill="#E1E1E1" rx="2"/></g><g fill="#F1F1F1" transform="translate(50 64)"><path fill-rule="nonzero" d="M12.833 7.57c.375-.391.078-1.012-.484-1.012H8.164L10.11.793C10.32.17 9.472-.281 9.005.206L.167 9.43c-.375.391-.078 1.012.484 1.012h4.182L2.89 16.207c-.21.623.637 1.074 1.104.587l8.838-9.224z"/><rect width="113" height="4" x="21" y="7" rx="2"/></g><g fill="#F1F1F1" transform="translate(50 14)"><path fill-rule="nonzero" d="M12.833 7.57c.375-.391.078-1.012-.484-1.012H8.164L10.11.793C10.32.17 9.472-.281 9.005.206L.167 9.43c-.375.391-.078 1.012.484 1.012h4.182L2.89 16.207c-.21.623.637 1.074 1.104.587l8.838-9.224z"/><rect width="113" height="4" x="21" y="7" rx="2"/></g><g fill="#F1F1F1" transform="translate(50 89)"><path fill-rule="nonzero" d="M12.833 7.57c.375-.391.078-1.012-.484-1.012H8.164L10.11.793C10.32.17 9.472-.281 9.005.206L.167 9.43c-.375.391-.078 1.012.484 1.012h4.182L2.89 16.207c-.21.623.637 1.074 1.104.587l8.838-9.224z"/><rect width="113" height="4" x="21" y="7" rx="2"/></g><g fill="#F1F1F1" transform="translate(50 114)"><path fill-rule="nonzero" d="M12.833 7.57c.375-.391.078-1.012-.484-1.012H8.164L10.11.793C10.32.17 9.472-.281 9.005.206L.167 9.43c-.375.391-.078 1.012.484 1.012h4.182L2.89 16.207c-.21.623.637 1.074 1.104.587l8.838-9.224z"/><rect width="113" height="4" x="21" y="7" rx="2"/></g><g fill="#F1F1F1" transform="translate(50 139)"><path fill-rule="nonzero" d="M12.833 7.57c.375-.391.078-1.012-.484-1.012H8.164L10.11.793C10.32.17 9.472-.281 9.005.206L.167 9.43c-.375.391-.078 1.012.484 1.012h4.182L2.89 16.207c-.21.623.637 1.074 1.104.587l8.838-9.224z"/><rect width="113" height="4" x="21" y="7" rx="2"/></g><g fill="#F1F1F1" transform="translate(50 164)"><path fill-rule="nonzero" d="M12.833 7.57c.375-.391.078-1.012-.484-1.012H8.164L10.11.793C10.32.17 9.472-.281 9.005.206L.167 9.43c-.375.391-.078 1.012.484 1.012h4.182L2.89 16.207c-.21.623.637 1.074 1.104.587l8.838-9.224z"/><rect width="113" height="4" x="21" y="7" rx="2"/></g><g fill="#F1F1F1" transform="translate(50 189)"><path fill-rule="nonzero" d="M12.833 7.57c.375-.391.078-1.012-.484-1.012H8.164L10.11.793C10.32.17 9.472-.281 9.005.206L.167 9.43c-.375.391-.078 1.012.484 1.012h4.182L2.89 16.207c-.21.623.637 1.074 1.104.587l8.838-9.224z"/><rect width="113" height="4" x="21" y="7" rx="2"/></g><g transform="translate(50 214)"><path fill="#01B2D0" fill-rule="nonzero" d="M12.833 7.57c.375-.391.078-1.012-.484-1.012H8.164L10.11.793C10.32.17 9.472-.281 9.005.206L.167 9.43c-.375.391-.078 1.012.484 1.012h4.182L2.89 16.207c-.21.623.637 1.074 1.104.587l8.838-9.224z"/><rect width="113" height="4" x="21" y="7" fill="#E1E1E1" rx="2"/></g></g><g transform="translate(26 145)"><use fill="#000" filter="url(#e)" xlink:href="#f"/><rect width="241" height="197" x="-.5" y="-.5" fill="#FFF" stroke="#E1E1E1" rx="8"/><rect width="60" height="4" x="20" y="20" fill="#1B2E5B" rx="2"/><g transform="translate(20 38)"><rect width="40" height="40" fill="#F1F1F1" rx="4"/><rect width="40" height="4" x="48" y="4" fill="#1B2E5B" rx="2"/><rect width="24" height="4" x="48" y="14" fill="#F1F1F1" rx="2"/><rect width="40" height="4" x="160" y="5" fill="#F1F1F1" rx="2"/></g><g transform="translate(20 86)"><rect width="40" height="40" fill="#F1F1F1" rx="4"/><rect width="40" height="4" x="48" y="4" fill="#1B2E5B" rx="2"/><rect width="24" height="4" x="48" y="14" fill="#F1F1F1" rx="2"/><rect width="40" height="4" x="160" y="5" fill="#F1F1F1" rx="2"/></g><rect width="55" height="16" x="165" y="160" fill="#6FD350" rx="8"/></g><g fill="#01B2D0" fill-rule="nonzero" transform="translate(274 73)"><circle cx="16" cy="16" r="16" fill-opacity=".4"/><circle cx="16" cy="16" r="3"/></g><g fill="#01B2D0" fill-rule="nonzero" transform="translate(274 249)"><circle cx="16" cy="16" r="16" fill-opacity=".4"/><circle cx="16" cy="16" r="3"/></g><path stroke="#01B2D0" stroke-linecap="round" stroke-linejoin="round" stroke-width="2" d="M223.5 124h47.057a8.5 8.5 0 1 0 0-17H263a9 9 0 0 1 0-18h27m-40 223h32a8 8 0 0 0 8-8v-39h0"/></g></svg>