<svg xmlns="http://www.w3.org/2000/svg" xmlns:xlink="http://www.w3.org/1999/xlink" width="465" height="350" viewBox="0 0 465 350"><defs><rect id="b" width="240" height="194" x="0" y="0" rx="8"/><filter id="a" width="109.2%" height="111.3%" x="-4.6%" y="-4.6%" filterUnits="objectBoundingBox"><feMorphology in="SourceAlpha" operator="dilate" radius="1" result="shadowSpreadOuter1"/><feOffset dy="2" in="shadowSpreadOuter1" result="shadowOffsetOuter1"/><feGaussianBlur in="shadowOffsetOuter1" result="shadowBlurOuter1" stdDeviation="3"/><feComposite in="shadowBlurOuter1" in2="SourceAlpha" operator="out" result="shadowBlurOuter1"/><feColorMatrix in="shadowBlurOuter1" values="0 0 0 0 0.207843137 0 0 0 0 0.258823529 0 0 0 0 0.329411765 0 0 0 0.101137908 0"/></filter><rect id="d" width="152" height="228" x="0" y="0" rx="8"/><filter id="c" width="114.5%" height="109.6%" x="-7.2%" y="-3.9%" filterUnits="objectBoundingBox"><feMorphology in="SourceAlpha" operator="dilate" radius="1" result="shadowSpreadOuter1"/><feOffset dy="2" in="shadowSpreadOuter1" result="shadowOffsetOuter1"/><feGaussianBlur in="shadowOffsetOuter1" result="shadowBlurOuter1" stdDeviation="3"/><feComposite in="shadowBlurOuter1" in2="SourceAlpha" operator="out" result="shadowBlurOuter1"/><feColorMatrix in="shadowBlurOuter1" values="0 0 0 0 0.207843137 0 0 0 0 0.258823529 0 0 0 0 0.329411765 0 0 0 0.101137908 0"/></filter><rect id="f" width="240" height="176" x="0" y="0" rx="8"/><filter id="e" width="109.2%" height="112.5%" x="-4.6%" y="-5.1%" filterUnits="objectBoundingBox"><feMorphology in="SourceAlpha" operator="dilate" radius="1" result="shadowSpreadOuter1"/><feOffset dy="2" in="shadowSpreadOuter1" result="shadowOffsetOuter1"/><feGaussianBlur in="shadowOffsetOuter1" result="shadowBlurOuter1" stdDeviation="3"/><feComposite in="shadowBlurOuter1" in2="SourceAlpha" operator="out" result="shadowBlurOuter1"/><feColorMatrix in="shadowBlurOuter1" values="0 0 0 0 0.207843137 0 0 0 0 0.258823529 0 0 0 0 0.329411765 0 0 0 0.101137908 0"/></filter></defs><g fill="none" fill-rule="evenodd"><g transform="translate(3 8)"><use fill="#000" filter="url(#a)" xlink:href="#b"/><rect width="241" height="195" x="-.5" y="-.5" fill="#FFF" stroke="#E1E1E1" rx="8"/><path d="M20 20h104v120H20zm0 127h30v30H20zm37 0h30v30H57zm37 0h30v30H94z" fill="#F1F1F1"/><rect width="76" height="22" x="141" y="105" fill="#6FD350" rx="11"/><rect width="40" height="6" x="159" y="30" fill="#1B2E5B" rx="3"/><rect width="24" height="4" x="167" y="40" fill="#F1F1F1" rx="2"/><rect width="80" height="4" x="139" y="54" fill="#F1F1F1" rx="2"/><rect width="70" height="4" x="144" y="64" fill="#F1F1F1" rx="2"/><rect width="60" height="4" x="149" y="74" fill="#F1F1F1" rx="2"/><rect width="60" height="4" x="149" y="84" fill="#F1F1F1" rx="2"/></g><g transform="translate(309 63)"><use fill="#000" filter="url(#c)" xlink:href="#d"/><rect width="153" height="229" x="-.5" y="-.5" fill="#FFF" stroke="#E1E1E1" rx="8"/><path fill="#01B2D0" fill-rule="nonzero" d="M32.833 25.57c.375-.391.078-1.012-.484-1.012h-4.185l1.945-5.765c.21-.623-.637-1.074-1.104-.587l-8.838 9.224c-.375.391-.078 1.012.484 1.012h4.182l-1.942 5.765c-.21.623.637 1.074 1.104.587l8.838-9.224z"/><path fill="#E1E1E1" d="M54 25h76a2 2 0 0 1 0 4H54a2 2 0 1 1 0-4z"/><g fill="#F1F1F1"><path fill-rule="nonzero" d="M32.833 50.57c.375-.391.078-1.012-.484-1.012h-4.185l1.945-5.765c.21-.623-.637-1.074-1.104-.587l-8.838 9.224c-.375.391-.078 1.012.484 1.012h4.182l-1.942 5.765c-.21.623.637 1.074 1.104.587l8.838-9.224z"/><path d="M54 50h76a2 2 0 0 1 0 4H54a2 2 0 1 1 0-4z"/></g><g fill="#F1F1F1"><path fill-rule="nonzero" d="M32.833 75.57c.375-.391.078-1.012-.484-1.012h-4.185l1.945-5.765c.21-.623-.637-1.074-1.104-.587l-8.838 9.224c-.375.391-.078 1.012.484 1.012h4.182l-1.942 5.765c-.21.623.637 1.074 1.104.587l8.838-9.224z"/><path d="M54 75h76a2 2 0 0 1 0 4H54a2 2 0 1 1 0-4z"/></g><g fill="#F1F1F1"><path fill-rule="nonzero" d="M32.833 100.57c.375-.391.078-1.012-.484-1.012h-4.185l1.945-5.765c.21-.623-.637-1.074-1.104-.587l-8.838 9.224c-.375.391-.078 1.012.484 1.012h4.182l-1.942 5.765c-.21.623.637 1.074 1.104.587l8.838-9.224z"/><path d="M54 100h76a2 2 0 0 1 0 4H54a2 2 0 1 1 0-4z"/></g><g fill="#F1F1F1"><path fill-rule="nonzero" d="M32.833 125.57c.375-.391.078-1.012-.484-1.012h-4.185l1.945-5.765c.21-.623-.637-1.074-1.104-.587l-8.838 9.224c-.375.391-.078 1.012.484 1.012h4.182l-1.942 5.765c-.21.623.637 1.074 1.104.587l8.838-9.224z"/><path d="M54 125h76a2 2 0 0 1 0 4H54a2 2 0 1 1 0-4z"/></g><g fill="#F1F1F1"><path fill-rule="nonzero" d="M32.833 150.57c.375-.391.078-1.012-.484-1.012h-4.185l1.945-5.765c.21-.623-.637-1.074-1.104-.587l-8.838 9.224c-.375.391-.078 1.012.484 1.012h4.182l-1.942 5.765c-.21.623.637 1.074 1.104.587l8.838-9.224z"/><path d="M54 150h76a2 2 0 0 1 0 4H54a2 2 0 1 1 0-4z"/></g><g fill="#F1F1F1"><path fill-rule="nonzero" d="M32.833 175.57c.375-.391.078-1.012-.484-1.012h-4.185l1.945-5.765c.21-.623-.637-1.074-1.104-.587l-8.838 9.224c-.375.391-.078 1.012.484 1.012h4.182l-1.942 5.765c-.21.623.637 1.074 1.104.587l8.838-9.224z"/><path d="M54 175h76a2 2 0 0 1 0 4H54a2 2 0 1 1 0-4z"/></g><path fill="#01B2D0" fill-rule="nonzero" d="M32.833 200.57c.375-.391.078-1.012-.484-1.012h-4.185l1.945-5.765c.21-.623-.637-1.074-1.104-.587l-8.838 9.224c-.375.391-.078 1.012.484 1.012h4.182l-1.942 5.765c-.21.623.637 1.074 1.104.587l8.838-9.224z"/><path fill="#E1E1E1" d="M54 200h76a2 2 0 0 1 0 4H54a2 2 0 1 1 0-4z"/></g><g transform="translate(44 168)"><use fill="#000" filter="url(#e)" xlink:href="#f"/><rect width="241" height="177" x="-.5" y="-.5" fill="#FFF" stroke="#E1E1E1" rx="8"/><rect width="60" height="4" x="20" y="20" fill="#1B2E5B" rx="2"/><g transform="translate(20 38)"><path fill="#F1F1F1" d="M0 0h40v40H0z"/><rect width="40" height="4" x="48" y="4" fill="#1B2E5B" rx="2"/><rect width="24" height="4" x="48" y="14" fill="#F1F1F1" rx="2"/><rect width="40" height="4" x="160" y="5" fill="#F1F1F1" rx="2"/></g><g transform="translate(20 86)"><path fill="#F1F1F1" d="M0 0h40v40H0z"/><rect width="40" height="4" x="48" y="4" fill="#1B2E5B" rx="2"/><rect width="24" height="4" x="48" y="14" fill="#F1F1F1" rx="2"/><rect width="40" height="4" x="160" y="5" fill="#F1F1F1" rx="2"/></g><rect width="55" height="16" x="165" y="140" fill="#6FD350" rx="8"/></g><g fill="#01B2D0" fill-rule="nonzero" transform="translate(194 108)"><circle cx="16" cy="16" r="16" fill-opacity=".4"/><circle cx="16" cy="16" r="3"/></g><g fill="#01B2D0" fill-rule="nonzero" transform="translate(239 300)"><circle cx="16" cy="16" r="16" fill-opacity=".4"/><circle cx="16" cy="16" r="3"/></g><path stroke="#01B2D0" stroke-linecap="round" stroke-linejoin="round" stroke-width="2" d="M210.5 124h60.557a8 8 0 0 0 8-8V97a8 8 0 0 1 8-8H314m-56 227h26a8 8 0 0 0 8-8v-35a8 8 0 0 1 8-8h17"/><path fill="#01B2D0" d="M312.724 260.362l8.382 4.19a.5.5 0 0 1 0 .895l-8.382 4.191a.5.5 0 0 1-.724-.447v-8.382a.5.5 0 0 1 .724-.447zm-1-176l8.382 4.19a.5.5 0 0 1 0 .895l-8.382 4.191a.5.5 0 0 1-.724-.447v-8.382a.5.5 0 0 1 .724-.447z"/></g></svg>