<svg xmlns="http://www.w3.org/2000/svg" xmlns:xlink="http://www.w3.org/1999/xlink" width="465" height="350" viewBox="0 0 465 350"><defs><rect id="b" width="240" height="194" x="0" y="0" rx="8"/><filter id="a" width="109.2%" height="111.3%" x="-4.6%" y="-4.6%" filterUnits="objectBoundingBox"><feMorphology in="SourceAlpha" operator="dilate" radius="1" result="shadowSpreadOuter1"/><feOffset dy="2" in="shadowSpreadOuter1" result="shadowOffsetOuter1"/><feGaussianBlur in="shadowOffsetOuter1" result="shadowBlurOuter1" stdDeviation="3"/><feComposite in="shadowBlurOuter1" in2="SourceAlpha" operator="out" result="shadowBlurOuter1"/><feColorMatrix in="shadowBlurOuter1" values="0 0 0 0 0.207843137 0 0 0 0 0.258823529 0 0 0 0 0.329411765 0 0 0 0.101137908 0"/></filter><rect id="d" width="240" height="196" x="0" y="0" rx="8"/><filter id="c" width="109.2%" height="111.2%" x="-4.6%" y="-4.6%" filterUnits="objectBoundingBox"><feMorphology in="SourceAlpha" operator="dilate" radius="1" result="shadowSpreadOuter1"/><feOffset dy="2" in="shadowSpreadOuter1" result="shadowOffsetOuter1"/><feGaussianBlur in="shadowOffsetOuter1" result="shadowBlurOuter1" stdDeviation="3"/><feComposite in="shadowBlurOuter1" in2="SourceAlpha" operator="out" result="shadowBlurOuter1"/><feColorMatrix in="shadowBlurOuter1" values="0 0 0 0 0.207843137 0 0 0 0 0.258823529 0 0 0 0 0.329411765 0 0 0 0.101137908 0"/></filter></defs><g fill="none" fill-rule="evenodd"><g stroke="#E1E1E1" stroke-dasharray="1 8" stroke-linecap="round" stroke-linejoin="round" stroke-width="2"><path d="M259 341c87.813 0 159-71.187 159-159S346.813 23 259 23 100 94.187 100 182s71.187 159 159 159z"/><path d="M259 316c74.006 0 134-59.994 134-134S333.006 48 259 48s-134 59.994-134 134 59.994 134 134 134z"/><path d="M259 291c60.199 0 109-48.801 109-109S319.199 73 259 73s-109 48.801-109 109 48.801 109 109 109z"/><path d="M258 266c46.392 0 84-37.608 84-84s-37.608-84-84-84-84 37.608-84 84 37.608 84 84 84z"/></g><g transform="translate(3 8)"><use fill="#000" filter="url(#a)" xlink:href="#b"/><rect width="241" height="195" x="-.5" y="-.5" fill="#FFF" stroke="#E1E1E1" rx="8"/><g fill="#F1F1F1" transform="translate(20 20)"><rect width="104" height="120" rx="4"/><rect width="30" height="30" y="127" rx="4"/><rect width="30" height="30" x="37" y="127" rx="4"/><rect width="30" height="30" x="74" y="127" rx="4"/></g><rect width="76" height="22" x="141" y="105" fill="#6FD350" rx="11"/><rect width="40" height="6" x="159" y="30" fill="#1B2E5B" rx="3"/><rect width="24" height="4" x="167" y="40" fill="#F1F1F1" rx="2"/><rect width="80" height="2" x="139" y="56" fill="#F1F1F1" rx="1"/><rect width="70" height="2" x="144" y="64" fill="#F1F1F1" rx="1"/><rect width="60" height="2" x="149" y="72" fill="#F1F1F1" rx="1"/><rect width="60" height="2" x="149" y="80" fill="#F1F1F1" rx="1"/></g><g transform="translate(201 145)"><use fill="#000" filter="url(#c)" xlink:href="#d"/><rect width="241" height="197" x="-.5" y="-.5" fill="#FFF" stroke="#E1E1E1" rx="8"/><rect width="60" height="4" x="20" y="20" fill="#1B2E5B" rx="2"/><g transform="translate(20 38)"><rect width="40" height="40" fill="#F1F1F1" rx="4"/><rect width="40" height="4" x="48" y="4" fill="#1B2E5B" rx="2"/><rect width="24" height="4" x="48" y="14" fill="#F1F1F1" rx="2"/><rect width="40" height="4" x="160" y="5" fill="#F1F1F1" rx="2"/></g><g transform="translate(20 86)"><rect width="40" height="40" fill="#F1F1F1" rx="4"/><rect width="40" height="4" x="48" y="4" fill="#1B2E5B" rx="2"/><rect width="24" height="4" x="48" y="14" fill="#F1F1F1" rx="2"/><rect width="40" height="4" x="160" y="5" fill="#F1F1F1" rx="2"/></g><rect width="55" height="16" x="165" y="160" fill="#6FD350" rx="8"/></g><g fill="#01B2D0" fill-rule="nonzero" transform="translate(194 108)"><circle cx="16" cy="16" r="16" fill-opacity=".4"/><circle cx="16" cy="16" r="3"/><path d="M201 16c12.15 0 22 9.85 22 22 0 12.029-9.654 21.803-21.636 21.997L201 60h-93.5c-9.941 0-18 8.059-18 18 0 9.83 7.88 17.82 17.67 17.997l.33.003H160c13.669 0 24.776 10.97 24.997 24.587L185 121v70.777h5.165c.426 0 .777.32.828.731l.007.105c0 .13-.03.257-.088.373l-6.165 12.33a.835.835 0 0 1-1.494 0l-6.165-12.33a.835.835 0 0 1 .747-1.208l5.165-.001V121c0-12.576-10.093-22.794-22.62-22.997L160 98h-52.5c-11.046 0-20-8.954-20-20 0-10.93 8.769-19.813 19.656-19.997L107.5 58H201c11.046 0 20-8.954 20-20 0-10.93-8.769-19.813-19.656-19.997L201 18H16a1 1 0 0 1-.117-1.993L16 16h185z"/></g></g></svg>