<svg xmlns="http://www.w3.org/2000/svg" xmlns:xlink="http://www.w3.org/1999/xlink" width="465" height="350" viewBox="0 0 465 350"><defs><rect id="b" width="260" height="276" x="0" y="0" rx="8"/><filter id="a" width="108.5%" height="108%" x="-4.2%" y="-3.3%" filterUnits="objectBoundingBox"><feMorphology in="SourceAlpha" operator="dilate" radius="1" result="shadowSpreadOuter1"/><feOffset dy="2" in="shadowSpreadOuter1" result="shadowOffsetOuter1"/><feGaussianBlur in="shadowOffsetOuter1" result="shadowBlurOuter1" stdDeviation="3"/><feComposite in="shadowBlurOuter1" in2="SourceAlpha" operator="out" result="shadowBlurOuter1"/><feColorMatrix in="shadowBlurOuter1" values="0 0 0 0 0.207843137 0 0 0 0 0.258823529 0 0 0 0 0.329411765 0 0 0 0.101137908 0"/></filter></defs><g fill="none" fill-rule="evenodd"><g transform="translate(5 48)"><use fill="#000" filter="url(#a)" xlink:href="#b"/><rect width="261" height="277" x="-.5" y="-.5" fill="#FFF" stroke="#E1E1E1" rx="8"/><g transform="translate(102 39)"><path fill="#384254" fill-rule="nonzero" d="M2.976 15.192c2.064 0 3.6-1.152 3.6-3.584v-7.28H4.704v7.264c0 1.152-.736 1.936-1.872 1.936-.816 0-1.408-.416-1.824-.896l-.88 1.424c.768.8 1.744 1.136 2.848 1.136zm8.32 0a3.696 3.696 0 0 0 2.72-1.216V15h1.68V7.272h-1.68v5.424c-.384.512-1.12 1.008-1.968 1.008-.96 0-1.568-.384-1.568-1.584V7.272H8.8v5.472c0 1.568.832 2.448 2.496 2.448zm9.232 0c2.08 0 3.216-1.04 3.216-2.416 0-3.072-4.672-2.048-4.672-3.408 0-.544.544-.96 1.424-.96.976 0 1.824.416 2.288.928l.704-1.184c-.688-.608-1.68-1.072-2.992-1.072-1.952 0-3.04 1.072-3.04 2.336 0 2.976 4.672 1.888 4.672 3.408 0 .608-.528 1.024-1.536 1.024-.992 0-2.064-.512-2.608-1.072l-.768 1.2c.8.784 1.984 1.216 3.312 1.216zm7.232 0c.768 0 1.264-.224 1.568-.496l-.4-1.28c-.128.144-.416.288-.736.288-.48 0-.736-.4-.736-.928V8.728h1.568V7.272h-1.568V5.16h-1.68v2.112h-1.28v1.456h1.28v4.464c0 1.296.672 2 1.984 2zm3.616-8.864c.576 0 1.04-.464 1.04-1.04 0-.576-.464-1.04-1.04-1.04-.576 0-1.04.464-1.04 1.04 0 .576.464 1.04 1.04 1.04zM32.208 15V7.272h-1.68V15h1.68zm3.856 0V9.592c.4-.512 1.136-1.024 1.984-1.024.944 0 1.568.384 1.568 1.6V15h1.68V9.56c0-1.584-.832-2.48-2.496-2.48-1.216 0-2.224.624-2.736 1.232v-1.04h-1.68V15h1.68zm10.992.192c1.216 0 2.352-.4 3.136-1.136l-.768-1.104c-.56.56-1.44.864-2.208.864-1.456 0-2.32-.976-2.448-2.128h5.952v-.416c0-2.432-1.472-4.192-3.792-4.192-2.288 0-3.92 1.808-3.92 4.048 0 2.448 1.712 4.064 4.048 4.064zm2.048-4.704h-4.352c.064-.928.736-2.032 2.16-2.032 1.52 0 2.144 1.12 2.192 2.032zM58.432 15V6.76l3.28 8.24h.8l3.264-8.24V15h1.872V4.328h-2.64l-2.896 7.328L59.2 4.328h-2.64V15h1.872zm13.664.192c1.024 0 1.936-.368 2.512-1.04V15h1.68V9.864c0-2.064-1.504-2.784-3.232-2.784-1.232 0-2.352.384-3.248 1.248l.704 1.168c.656-.672 1.424-.992 2.288-.992 1.056 0 1.808.544 1.808 1.44v1.152c-.576-.656-1.456-.992-2.512-.992-1.264 0-2.672.736-2.672 2.528 0 1.696 1.424 2.56 2.672 2.56zm.672-1.152c-.944 0-1.664-.544-1.664-1.392 0-.832.72-1.392 1.664-1.392.72 0 1.44.272 1.84.8v1.184c-.4.528-1.12.8-1.84.8zm7.376.96V9.736c.336-.56 1.28-1.04 2-1.04.208 0 .368.016.512.048V7.08c-.992 0-1.92.576-2.512 1.312v-1.12h-1.68V15h1.68zm6.528.192c2.08 0 3.216-1.04 3.216-2.416 0-3.072-4.672-2.048-4.672-3.408 0-.544.544-.96 1.424-.96.976 0 1.824.416 2.288.928l.704-1.184c-.688-.608-1.68-1.072-2.992-1.072-1.952 0-3.04 1.072-3.04 2.336 0 2.976 4.672 1.888 4.672 3.408 0 .608-.528 1.024-1.536 1.024-.992 0-2.064-.512-2.608-1.072l-.768 1.2c.8.784 1.984 1.216 3.312 1.216zM93.264 15V9.592c.384-.512 1.12-1.024 1.984-1.024.944 0 1.552.352 1.552 1.568V15h1.68V9.528c0-1.584-.832-2.448-2.496-2.448-1.216 0-2.208.624-2.72 1.232V4.328h-1.68V15h1.68zm9.616.192c1.024 0 1.936-.368 2.512-1.04V15h1.68V9.864c0-2.064-1.504-2.784-3.232-2.784-1.232 0-2.352.384-3.248 1.248l.704 1.168c.656-.672 1.424-.992 2.288-.992 1.056 0 1.808.544 1.808 1.44v1.152c-.576-.656-1.456-.992-2.512-.992-1.264 0-2.672.736-2.672 2.528 0 1.696 1.424 2.56 2.672 2.56zm.672-1.152c-.944 0-1.664-.544-1.664-1.392 0-.832.72-1.392 1.664-1.392.72 0 1.44.272 1.84.8v1.184c-.4.528-1.12.8-1.84.8zm7.376.96V4.328h-1.68V15h1.68zm3.856 0V4.328h-1.68V15h1.68z"/><rect width="50" height="2" y="30" fill="#F1F1F1" rx="1"/><rect width="32" height="2" x="58" y="30" fill="#F1F1F1" rx="1"/></g><g fill-rule="nonzero" transform="translate(204 193)"><circle cx="16" cy="16" r="16" fill="#E1FAFF"/><circle cx="16" cy="16" r="4" fill="#01B2D0"/></g><g fill-rule="nonzero" transform="translate(204 129)"><circle cx="16" cy="16" r="16" fill="#EDE1FF"/><circle cx="16" cy="16" r="4" fill="#6F0DFB"/></g><g fill-rule="nonzero" transform="translate(224 161)"><circle cx="16" cy="16" r="16" fill="#FFF2CC"/><circle cx="16" cy="16" r="4" fill="#FFC111"/></g><g fill-rule="nonzero" transform="translate(224 225)"><circle cx="16" cy="16" r="16" fill="#DDF5D6"/><circle cx="16" cy="16" r="4" fill="#6FD350"/></g><circle cx="240" cy="241" r="4" fill="#6FD350"/><path fill="#384254" fill-rule="nonzero" d="M22.394 149v-5.838h1.372v-.924h-1.372v-.518c0-.868.378-1.33 1.078-1.33.252 0 .434.056.602.154l.266-.798c-.28-.154-.63-.224-1.036-.224-1.162 0-1.96.798-1.96 2.198v.518h-1.12v.924h1.12V149h1.05zm3.164-7.728c.392 0 .7-.308.7-.7a.705.705 0 0 0-.7-.714.717.717 0 0 0-.714.714c0 .392.322.7.714.7zm.518 7.728v-6.762h-1.05V149h1.05zm3.15 0v-4.788c.308-.546 1.19-1.078 1.848-1.078.154 0 .28.014.406.028v-1.078c-.924 0-1.708.532-2.254 1.232v-1.078h-1.05V149h1.05zm5.726.168c1.736 0 2.646-.91 2.646-2.044 0-2.632-4.186-1.666-4.186-3.136 0-.602.574-1.064 1.498-1.064.882 0 1.61.364 2.016.854l.49-.728c-.532-.546-1.344-.98-2.506-.98-1.61 0-2.506.882-2.506 1.946 0 2.506 4.186 1.498 4.186 3.136 0 .672-.574 1.162-1.61 1.162-.924 0-1.778-.448-2.226-.966l-.532.756c.686.714 1.61 1.064 2.73 1.064zm6.076 0c.602 0 .98-.182 1.246-.434l-.308-.798a.994.994 0 0 1-.714.294c-.448 0-.672-.364-.672-.868v-4.2h1.372v-.924H40.58v-1.848h-1.064v1.848h-1.12v.924h1.12v4.424c0 1.008.504 1.582 1.512 1.582zm9.282 1.162v-.77h-7.98v.77h7.98zm2.058-1.33v-4.942c.406-.546 1.176-1.05 2.002-1.05.91 0 1.526.364 1.526 1.568V149h1.036v-4.746c0-1.47-.742-2.184-2.142-2.184-1.022 0-1.946.574-2.422 1.148v-.98h-1.05V149h1.05zm8.666.168c.91 0 1.694-.322 2.24-.938v.77h1.05v-4.648c0-1.638-1.176-2.282-2.618-2.282-1.106 0-1.974.364-2.702 1.12l.49.728c.602-.658 1.26-.938 2.072-.938.98 0 1.708.518 1.708 1.414v1.218c-.546-.616-1.316-.91-2.24-.91-1.148 0-2.352.7-2.352 2.226 0 1.47 1.218 2.24 2.352 2.24zm.392-.756c-.994 0-1.68-.616-1.68-1.484 0-.854.686-1.47 1.68-1.47.728 0 1.442.28 1.848.826v1.288c-.406.56-1.12.84-1.848.84zm6.062.588v-4.942c.364-.546 1.092-1.05 1.778-1.05.896 0 1.246.546 1.246 1.4V149h1.05v-4.956c.35-.546 1.092-1.036 1.792-1.036.882 0 1.246.546 1.246 1.4V149h1.05v-4.886c0-1.358-.658-2.044-1.89-2.044-.98 0-1.89.644-2.268 1.26-.196-.7-.784-1.26-1.806-1.26-1.008 0-1.904.714-2.198 1.148v-.98h-1.05V149h1.05zm13.328.168c1.092 0 2.002-.378 2.688-1.05l-.504-.686a2.943 2.943 0 0 1-2.1.868c-1.456 0-2.338-1.064-2.422-2.338h5.46v-.266c0-2.03-1.204-3.626-3.248-3.626-1.932 0-3.332 1.582-3.332 3.542 0 2.114 1.442 3.556 3.458 3.556zm2.086-3.99h-4.438c.056-1.022.77-2.24 2.212-2.24 1.54 0 2.212 1.246 2.226 2.24zM22.632 119v-3.5h2.478c1.946 0 3.038-1.33 3.038-2.912 0-1.596-1.078-2.926-3.038-2.926h-4.116V119h1.638zm2.254-4.942h-2.254v-2.954h2.254c.924 0 1.582.588 1.582 1.484 0 .882-.658 1.47-1.582 1.47zM31.158 119v-3.486h1.638L34.854 119h1.904l-2.296-3.668c1.134-.182 2.226-1.092 2.226-2.744 0-1.736-1.218-2.926-3.066-2.926H29.52V119h1.638zm2.254-4.928h-2.254v-2.968h2.254c.924 0 1.596.574 1.596 1.47 0 .91-.672 1.498-1.596 1.498zm9.282 5.096c2.786 0 4.774-2.044 4.774-4.83s-1.988-4.83-4.774-4.83c-2.8 0-4.774 2.044-4.774 4.83s1.974 4.83 4.774 4.83zm0-1.456c-1.89 0-3.094-1.456-3.094-3.374 0-1.932 1.204-3.374 3.094-3.374 1.876 0 3.094 1.442 3.094 3.374 0 1.918-1.218 3.374-3.094 3.374zm7.98 1.288v-3.5h2.478c1.946 0 3.038-1.33 3.038-2.912 0-1.596-1.078-2.926-3.038-2.926h-4.116V119h1.638zm2.254-4.942h-2.254v-2.954h2.254c.924 0 1.582.588 1.582 1.484 0 .882-.658 1.47-1.582 1.47zM63.96 119v-1.442H59.2v-2.604h4.662v-1.442H59.2v-2.408h4.76v-1.442h-6.398V119h6.398zm3.318 0v-3.486h1.638L70.974 119h1.904l-2.296-3.668c1.134-.182 2.226-1.092 2.226-2.744 0-1.736-1.218-2.926-3.066-2.926H65.64V119h1.638zm2.254-4.928h-2.254v-2.968h2.254c.924 0 1.596.574 1.596 1.47 0 .91-.672 1.498-1.596 1.498zM78.17 119v-7.896h2.828v-1.442h-7.294v1.442h2.828V119h1.638zm5.852 0v-9.338h-1.638V119h1.638zm8.386 0v-1.442h-4.76v-2.604h4.662v-1.442h-4.662v-2.408h4.76v-1.442H86.01V119h6.398zm4.886.168c2.506 0 3.612-1.344 3.612-2.898 0-3.472-5.432-2.394-5.432-4.144 0-.686.616-1.162 1.568-1.162.98 0 1.974.336 2.716 1.078l.924-1.218c-.854-.84-2.044-1.316-3.486-1.316-2.058 0-3.402 1.19-3.402 2.744 0 3.43 5.432 2.212 5.432 4.172 0 .63-.518 1.288-1.862 1.288a4.012 4.012 0 0 1-2.954-1.302l-.924 1.274c.84.868 2.086 1.484 3.808 1.484zM22.1 181v-9.338h-1.05V181h1.05zm4.088.168c.91 0 1.694-.322 2.24-.938v.77h1.05v-4.648c0-1.638-1.176-2.282-2.618-2.282-1.106 0-1.974.364-2.702 1.12l.49.728c.602-.658 1.26-.938 2.072-.938.98 0 1.708.518 1.708 1.414v1.218c-.546-.616-1.316-.91-2.24-.91-1.148 0-2.352.7-2.352 2.226 0 1.47 1.218 2.24 2.352 2.24zm.392-.756c-.994 0-1.68-.616-1.68-1.484 0-.854.686-1.47 1.68-1.47.728 0 1.442.28 1.848.826v1.288c-.406.56-1.12.84-1.848.84zm7.168.756c1.736 0 2.646-.91 2.646-2.044 0-2.632-4.186-1.666-4.186-3.136 0-.602.574-1.064 1.498-1.064.882 0 1.61.364 2.016.854l.49-.728c-.532-.546-1.344-.98-2.506-.98-1.61 0-2.506.882-2.506 1.946 0 2.506 4.186 1.498 4.186 3.136 0 .672-.574 1.162-1.61 1.162-.924 0-1.778-.448-2.226-.966l-.532.756c.686.714 1.61 1.064 2.73 1.064zm6.076 0c.602 0 .98-.182 1.246-.434l-.308-.798a.994.994 0 0 1-.714.294c-.448 0-.672-.364-.672-.868v-4.2h1.372v-.924h-1.372v-1.848h-1.064v1.848h-1.12v.924h1.12v4.424c0 1.008.504 1.582 1.512 1.582zm9.282 1.162v-.77h-7.98v.77h7.98zm2.058-1.33v-4.942c.406-.546 1.176-1.05 2.002-1.05.91 0 1.526.364 1.526 1.568V181h1.036v-4.746c0-1.47-.742-2.184-2.142-2.184-1.022 0-1.946.574-2.422 1.148v-.98h-1.05V181h1.05zm8.666.168c.91 0 1.694-.322 2.24-.938v.77h1.05v-4.648c0-1.638-1.176-2.282-2.618-2.282-1.106 0-1.974.364-2.702 1.12l.49.728c.602-.658 1.26-.938 2.072-.938.98 0 1.708.518 1.708 1.414v1.218c-.546-.616-1.316-.91-2.24-.91-1.148 0-2.352.7-2.352 2.226 0 1.47 1.218 2.24 2.352 2.24zm.392-.756c-.994 0-1.68-.616-1.68-1.484 0-.854.686-1.47 1.68-1.47.728 0 1.442.28 1.848.826v1.288c-.406.56-1.12.84-1.848.84zm6.062.588v-4.942c.364-.546 1.092-1.05 1.778-1.05.896 0 1.246.546 1.246 1.4V181h1.05v-4.956c.35-.546 1.092-1.036 1.792-1.036.882 0 1.246.546 1.246 1.4V181h1.05v-4.886c0-1.358-.658-2.044-1.89-2.044-.98 0-1.89.644-2.268 1.26-.196-.7-.784-1.26-1.806-1.26-1.008 0-1.904.714-2.198 1.148v-.98h-1.05V181h1.05zm13.328.168c1.092 0 2.002-.378 2.688-1.05l-.504-.686a2.943 2.943 0 0 1-2.1.868c-1.456 0-2.338-1.064-2.422-2.338h5.46v-.266c0-2.03-1.204-3.626-3.248-3.626-1.932 0-3.332 1.582-3.332 3.542 0 2.114 1.442 3.556 3.458 3.556zm2.086-3.99H77.26c.056-1.022.77-2.24 2.212-2.24 1.54 0 2.212 1.246 2.226 2.24zm-58.66 35.99c.91 0 1.694-.322 2.24-.938v.77h1.05v-4.648c0-1.638-1.176-2.282-2.618-2.282-1.106 0-1.974.364-2.702 1.12l.49.728c.602-.658 1.26-.938 2.072-.938.98 0 1.708.518 1.708 1.414v1.218c-.546-.616-1.316-.91-2.24-.91-1.148 0-2.352.7-2.352 2.226 0 1.47 1.218 2.24 2.352 2.24zm.392-.756c-.994 0-1.68-.616-1.68-1.484 0-.854.686-1.47 1.68-1.47.728 0 1.442.28 1.848.826v1.288c-.406.56-1.12.84-1.848.84zm7.994.756c1.232 0 1.96-.504 2.478-1.176l-.7-.644c-.448.602-1.022.882-1.722.882-1.428 0-2.338-1.12-2.338-2.618 0-1.498.91-2.604 2.338-2.604.7 0 1.274.252 1.722.868l.7-.63c-.518-.672-1.246-1.176-2.478-1.176-2.016 0-3.374 1.54-3.374 3.542s1.358 3.556 3.374 3.556zm6.944 0c1.232 0 1.96-.504 2.478-1.176l-.7-.644c-.448.602-1.022.882-1.722.882-1.428 0-2.338-1.12-2.338-2.618 0-1.498.91-2.604 2.338-2.604.7 0 1.274.252 1.722.868l.7-.63c-.518-.672-1.246-1.176-2.478-1.176-2.016 0-3.374 1.54-3.374 3.542s1.358 3.556 3.374 3.556zm6.916 0c2.058 0 3.346-1.596 3.346-3.556s-1.288-3.542-3.346-3.542-3.346 1.582-3.346 3.542c0 1.96 1.288 3.556 3.346 3.556zm0-.938c-1.442 0-2.24-1.232-2.24-2.618 0-1.372.798-2.604 2.24-2.604 1.442 0 2.24 1.232 2.24 2.604 0 1.386-.798 2.618-2.24 2.618zm7.21.938c1.008 0 1.89-.532 2.408-1.12V213h1.05v-6.762h-1.05v4.97c-.392.546-1.176 1.022-1.988 1.022-.924 0-1.526-.35-1.526-1.54v-4.452h-1.05v4.774c0 1.456.742 2.156 2.156 2.156zm6.608-.168v-4.942c.406-.546 1.176-1.05 2.002-1.05.91 0 1.526.364 1.526 1.568V213h1.036v-4.746c0-1.47-.742-2.184-2.142-2.184-1.022 0-1.946.574-2.422 1.148v-.98h-1.05V213h1.05zm8.4.168c.602 0 .98-.182 1.246-.434l-.308-.798a.994.994 0 0 1-.714.294c-.448 0-.672-.364-.672-.868v-4.2h1.372v-.924h-1.372v-1.848H65.99v1.848h-1.12v.924h1.12v4.424c0 1.008.504 1.582 1.512 1.582zm9.282 1.162v-.77h-7.98v.77h7.98zm3.164-1.162c1.736 0 2.646-.91 2.646-2.044 0-2.632-4.186-1.666-4.186-3.136 0-.602.574-1.064 1.498-1.064.882 0 1.61.364 2.016.854l.49-.728c-.532-.546-1.344-.98-2.506-.98-1.61 0-2.506.882-2.506 1.946 0 2.506 4.186 1.498 4.186 3.136 0 .672-.574 1.162-1.61 1.162-.924 0-1.778-.448-2.226-.966l-.532.756c.686.714 1.61 1.064 2.73 1.064zm6.076 0c.602 0 .98-.182 1.246-.434l-.308-.798a.994.994 0 0 1-.714.294c-.448 0-.672-.364-.672-.868v-4.2h1.372v-.924h-1.372v-1.848h-1.064v1.848h-1.12v.924h1.12v4.424c0 1.008.504 1.582 1.512 1.582zm4.382 0c.91 0 1.694-.322 2.24-.938v.77h1.05v-4.648c0-1.638-1.176-2.282-2.618-2.282-1.106 0-1.974.364-2.702 1.12l.49.728c.602-.658 1.26-.938 2.072-.938.98 0 1.708.518 1.708 1.414v1.218c-.546-.616-1.316-.91-2.24-.91-1.148 0-2.352.7-2.352 2.226 0 1.47 1.218 2.24 2.352 2.24zm.392-.756c-.994 0-1.68-.616-1.68-1.484 0-.854.686-1.47 1.68-1.47.728 0 1.442.28 1.848.826v1.288c-.406.56-1.12.84-1.848.84zm6.734.756c.602 0 .98-.182 1.246-.434l-.308-.798a.994.994 0 0 1-.714.294c-.448 0-.672-.364-.672-.868v-4.2h1.372v-.924h-1.372v-1.848H96.02v1.848H94.9v.924h1.12v4.424c0 1.008.504 1.582 1.512 1.582zm4.55 0c1.008 0 1.89-.532 2.408-1.12V213h1.05v-6.762h-1.05v4.97c-.392.546-1.176 1.022-1.988 1.022-.924 0-1.526-.35-1.526-1.54v-4.452h-1.05v4.774c0 1.456.742 2.156 2.156 2.156zm7.714 0c1.736 0 2.646-.91 2.646-2.044 0-2.632-4.186-1.666-4.186-3.136 0-.602.574-1.064 1.498-1.064.882 0 1.61.364 2.016.854l.49-.728c-.532-.546-1.344-.98-2.506-.98-1.61 0-2.506.882-2.506 1.946 0 2.506 4.186 1.498 4.186 3.136 0 .672-.574 1.162-1.61 1.162-.924 0-1.778-.448-2.226-.966l-.532.756c.686.714 1.61 1.064 2.73 1.064zm-87.024 32c.602 0 .98-.182 1.246-.434l-.308-.798a.994.994 0 0 1-.714.294c-.448 0-.672-.364-.672-.868v-4.2h1.372v-.924h-1.372v-1.848H21.26v1.848h-1.12v.924h1.12v4.424c0 1.008.504 1.582 1.512 1.582zm2.926-7.896c.392 0 .7-.308.7-.7a.705.705 0 0 0-.7-.714.717.717 0 0 0-.714.714c0 .392.322.7.714.7zm.518 7.728v-6.762h-1.05V245h1.05zm3.15 0v-4.942c.364-.546 1.092-1.05 1.778-1.05.896 0 1.246.546 1.246 1.4V245h1.05v-4.956c.35-.546 1.092-1.036 1.792-1.036.882 0 1.246.546 1.246 1.4V245h1.05v-4.886c0-1.358-.658-2.044-1.89-2.044-.98 0-1.89.644-2.268 1.26-.196-.7-.784-1.26-1.806-1.26-1.008 0-1.904.714-2.198 1.148v-.98h-1.05V245h1.05zm13.328.168c1.092 0 2.002-.378 2.688-1.05l-.504-.686a2.943 2.943 0 0 1-2.1.868c-1.456 0-2.338-1.064-2.422-2.338h5.46v-.266c0-2.03-1.204-3.626-3.248-3.626-1.932 0-3.332 1.582-3.332 3.542 0 2.114 1.442 3.556 3.458 3.556zm2.086-3.99h-4.438c.056-1.022.77-2.24 2.212-2.24 1.54 0 2.212 1.246 2.226 2.24zM52.34 245v-.924h-3.808l3.752-5.04v-.798h-5.096v.924h3.724l-3.724 5.012V245h5.152zm4.732.168c2.058 0 3.346-1.596 3.346-3.556s-1.288-3.542-3.346-3.542-3.346 1.582-3.346 3.542c0 1.96 1.288 3.556 3.346 3.556zm0-.938c-1.442 0-2.24-1.232-2.24-2.618 0-1.372.798-2.604 2.24-2.604 1.442 0 2.24 1.232 2.24 2.604 0 1.386-.798 2.618-2.24 2.618zm6.104.77v-4.942c.406-.546 1.176-1.05 2.002-1.05.91 0 1.526.364 1.526 1.568V245h1.036v-4.746c0-1.47-.742-2.184-2.142-2.184-1.022 0-1.946.574-2.422 1.148v-.98h-1.05V245h1.05zm9.744.168c1.092 0 2.002-.378 2.688-1.05l-.504-.686a2.943 2.943 0 0 1-2.1.868c-1.456 0-2.338-1.064-2.422-2.338h5.46v-.266c0-2.03-1.204-3.626-3.248-3.626-1.932 0-3.332 1.582-3.332 3.542 0 2.114 1.442 3.556 3.458 3.556zm2.086-3.99h-4.438c.056-1.022.77-2.24 2.212-2.24 1.54 0 2.212 1.246 2.226 2.24zm78.584-92.01c1.666 0 2.968-.966 2.968-2.982v-6.524h-1.162v6.51c0 1.162-.728 1.96-1.876 1.96-.812 0-1.358-.434-1.75-.924l-.616.882c.644.756 1.456 1.078 2.436 1.078zm7.266 0c1.008 0 1.89-.532 2.408-1.12V149h1.05v-6.762h-1.05v4.97c-.392.546-1.176 1.022-1.988 1.022-.924 0-1.526-.35-1.526-1.54v-4.452h-1.05v4.774c0 1.456.742 2.156 2.156 2.156zm7.714 0c1.736 0 2.646-.91 2.646-2.044 0-2.632-4.186-1.666-4.186-3.136 0-.602.574-1.064 1.498-1.064.882 0 1.61.364 2.016.854l.49-.728c-.532-.546-1.344-.98-2.506-.98-1.61 0-2.506.882-2.506 1.946 0 2.506 4.186 1.498 4.186 3.136 0 .672-.574 1.162-1.61 1.162-.924 0-1.778-.448-2.226-.966l-.532.756c.686.714 1.61 1.064 2.73 1.064zm6.076 0c.602 0 .98-.182 1.246-.434l-.308-.798a.994.994 0 0 1-.714.294c-.448 0-.672-.364-.672-.868v-4.2h1.372v-.924h-1.372v-1.848h-1.064v1.848h-1.12v.924h1.12v4.424c0 1.008.504 1.582 1.512 1.582zm2.926-7.896c.392 0 .7-.308.7-.7a.705.705 0 0 0-.7-.714.717.717 0 0 0-.714.714c0 .392.322.7.714.7zm.518 7.728v-6.762h-1.05V149h1.05zm3.15 0v-4.942c.406-.546 1.176-1.05 2.002-1.05.91 0 1.526.364 1.526 1.568V149h1.036v-4.746c0-1.47-.742-2.184-2.142-2.184-1.022 0-1.946.574-2.422 1.148v-.98h-1.05V149h1.05zm9.744.168c1.092 0 2.002-.378 2.688-1.05l-.504-.686a2.943 2.943 0 0 1-2.1.868c-1.456 0-2.338-1.064-2.422-2.338h5.46v-.266c0-2.03-1.204-3.626-3.248-3.626-1.932 0-3.332 1.582-3.332 3.542 0 2.114 1.442 3.556 3.458 3.556zm2.086-3.99h-4.438c.056-1.022.77-2.24 2.212-2.24 1.54 0 2.212 1.246 2.226 2.24zM153.254 181v-7.854l3.178 7.854h.476l3.164-7.854V181h1.162v-9.338h-1.666l-2.898 7.196-2.912-7.196h-1.666V181h1.162zm12.11.168c.91 0 1.694-.322 2.24-.938v.77h1.05v-4.648c0-1.638-1.176-2.282-2.618-2.282-1.106 0-1.974.364-2.702 1.12l.49.728c.602-.658 1.26-.938 2.072-.938.98 0 1.708.518 1.708 1.414v1.218c-.546-.616-1.316-.91-2.24-.91-1.148 0-2.352.7-2.352 2.226 0 1.47 1.218 2.24 2.352 2.24zm.392-.756c-.994 0-1.68-.616-1.68-1.484 0-.854.686-1.47 1.68-1.47.728 0 1.442.28 1.848.826v1.288c-.406.56-1.12.84-1.848.84zm6.062.588v-4.788c.308-.546 1.19-1.078 1.848-1.078.154 0 .28.014.406.028v-1.078c-.924 0-1.708.532-2.254 1.232v-1.078h-1.05V181h1.05zm5.726.168c1.736 0 2.646-.91 2.646-2.044 0-2.632-4.186-1.666-4.186-3.136 0-.602.574-1.064 1.498-1.064.882 0 1.61.364 2.016.854l.49-.728c-.532-.546-1.344-.98-2.506-.98-1.61 0-2.506.882-2.506 1.946 0 2.506 4.186 1.498 4.186 3.136 0 .672-.574 1.162-1.61 1.162-.924 0-1.778-.448-2.226-.966l-.532.756c.686.714 1.61 1.064 2.73 1.064zm5.418-.168v-4.942c.392-.546 1.176-1.05 1.988-1.05.924 0 1.526.336 1.526 1.54V181h1.05v-4.774c0-1.47-.742-2.156-2.156-2.156-1.022 0-1.946.574-2.408 1.148v-3.556h-1.05V181h1.05zm8.652.168c.91 0 1.694-.322 2.24-.938v.77h1.05v-4.648c0-1.638-1.176-2.282-2.618-2.282-1.106 0-1.974.364-2.702 1.12l.49.728c.602-.658 1.26-.938 2.072-.938.98 0 1.708.518 1.708 1.414v1.218c-.546-.616-1.316-.91-2.24-.91-1.148 0-2.352.7-2.352 2.226 0 1.47 1.218 2.24 2.352 2.24zm.392-.756c-.994 0-1.68-.616-1.68-1.484 0-.854.686-1.47 1.68-1.47.728 0 1.442.28 1.848.826v1.288c-.406.56-1.12.84-1.848.84zm6.062.588v-9.338h-1.05V181h1.05zm3.15 0v-9.338h-1.05V181h1.05zm-47.964 32v-3.71h2.59c1.862 0 2.926-1.288 2.926-2.814s-1.05-2.814-2.926-2.814h-3.752V213h1.162zm2.45-4.746h-2.45v-3.556h2.45c1.106 0 1.862.728 1.862 1.778s-.756 1.778-1.862 1.778zm6.272 4.914c.91 0 1.694-.322 2.24-.938v.77h1.05v-4.648c0-1.638-1.176-2.282-2.618-2.282-1.106 0-1.974.364-2.702 1.12l.49.728c.602-.658 1.26-.938 2.072-.938.98 0 1.708.518 1.708 1.414v1.218c-.546-.616-1.316-.91-2.24-.91-1.148 0-2.352.7-2.352 2.226 0 1.47 1.218 2.24 2.352 2.24zm.392-.756c-.994 0-1.68-.616-1.68-1.484 0-.854.686-1.47 1.68-1.47.728 0 1.442.28 1.848.826v1.288c-.406.56-1.12.84-1.848.84zm5.544-7.14c.392 0 .7-.308.7-.7a.705.705 0 0 0-.7-.714.717.717 0 0 0-.714.714c0 .392.322.7.714.7zm.518 7.728v-6.762h-1.05V213h1.05zm4.718.168c.952 0 1.778-.49 2.282-1.176V213h1.05v-9.338h-1.05v3.598c-.546-.742-1.372-1.19-2.282-1.19-1.764 0-3.01 1.386-3.01 3.556 0 2.198 1.246 3.542 3.01 3.542zm.266-.938c-1.372 0-2.184-1.106-2.184-2.604s.812-2.618 2.184-2.618c.826 0 1.652.504 2.016 1.092v3.052c-.364.588-1.19 1.078-2.016 1.078zm-18.34 32.938c1.834 0 3.346-.952 3.346-2.534 0-1.246-1.064-2.1-2.226-2.45 1.078-.308 2.086-1.022 2.086-2.24 0-1.68-1.666-2.422-3.206-2.422-1.554 0-3.192.742-3.192 2.422 0 1.218.994 1.932 2.072 2.24-1.162.35-2.226 1.204-2.226 2.45 0 1.596 1.498 2.534 3.346 2.534zm0-5.46c-.56-.098-2.016-.476-2.016-1.61 0-.966.882-1.54 2.016-1.54 1.12 0 2.03.574 2.03 1.54 0 1.134-1.456 1.512-2.03 1.61zm0 4.424c-1.162 0-2.17-.616-2.17-1.624 0-1.218 1.596-1.736 2.17-1.806.574.07 2.17.588 2.17 1.806 0 1.008-1.022 1.624-2.17 1.624z"/><g transform="translate(20 20)"><circle cx="35" cy="35" r="35" fill="#1B2E5B"/><path fill="#FFF" fill-rule="nonzero" d="M23.66 42.288c3.096 0 5.4-1.728 5.4-5.376v-10.92h-2.808v10.896c0 1.728-1.104 2.904-2.808 2.904-1.224 0-2.112-.624-2.736-1.344l-1.32 2.136c1.152 1.2 2.616 1.704 4.272 1.704zM35.276 42V29.64L40.196 42h1.2l4.896-12.36V42H49.1V25.992h-3.96l-4.344 10.992-4.368-10.992h-3.96V42h2.808z"/></g></g><g transform="translate(350 291)"><rect width="82" height="46" x="1" y="1" fill="#FFF" stroke="#6FD350" stroke-width="2" rx="8"/><path fill="#6FD350" d="M25.714 12.414l9.672 9.672a2 2 0 0 1 0 2.828l-9.672 9.672a2 2 0 0 1-2.828 0l-9.672-9.672a2 2 0 0 1 0-2.828l9.672-9.672a2 2 0 0 1 2.828 0zm35.2 0l9.672 9.672a2 2 0 0 1 0 2.828l-9.672 9.672a2 2 0 0 1-2.828 0l-9.672-9.672a2 2 0 0 1 0-2.828l9.672-9.672a2 2 0 0 1 2.828 0z"/></g><g transform="translate(340 22)"><rect width="82" height="46" x="1" y="1" fill="#FFF" stroke="#6F0DFB" stroke-width="2" rx="8"/><circle cx="16" cy="16" r="12" fill="#6F0DFB" transform="translate(9 8)"/><circle cx="16" cy="16" r="12" fill="#6F0DFB" transform="translate(43 8)"/></g><g transform="translate(350 106)"><rect width="82" height="46" x="1" y="1" fill="#FFF" stroke="#FFC111" stroke-width="2" rx="8"/><rect width="22" height="22" x="5" y="5" fill="#FFC111" rx="4" transform="translate(9 8)"/><rect width="22" height="22" x="5" y="4" fill="#FFC111" rx="4" transform="translate(43 8)"/></g><g transform="translate(340 210)"><rect width="82" height="46" x="1" y="1" fill="#FFF" stroke="#01B2D0" stroke-width="2" rx="8"/><path fill="#01B2D0" d="M26.559 15.247l9.642 17.8A2 2 0 0 1 34.442 36H15.158a2 2 0 0 1-1.759-2.953l9.642-17.8a2 2 0 0 1 3.518 0zm35.2 0l9.642 17.8A2 2 0 0 1 69.642 36H50.358a2 2 0 0 1-1.759-2.953l9.642-17.8a2 2 0 0 1 3.518 0z"/></g><g transform="translate(225 42)"><circle cx="116" cy="4" r="4" fill="#6F0DFB"/><path stroke="#6F0DFB" stroke-linecap="round" stroke-linejoin="round" stroke-width="2" d="M0 151h74a8 8 0 0 0 8-8V12a8 8 0 0 1 8-8h24"/></g><g transform="translate(225 230)"><circle cx="116" cy="4" r="4" fill="#01B2D0"/><path stroke="#01B2D0" stroke-linecap="round" stroke-linejoin="round" stroke-width="2" d="M0 27h72c5.523 0 10-4.477 10-10v-3.002c0-5.523 4.477-10 10-10h22"/></g><g transform="translate(245 126)"><circle cx="106" cy="4" r="4" fill="#FFC111"/><path stroke="#FFC111" stroke-linecap="round" stroke-linejoin="round" stroke-width="2" d="M0 99h71a8 8 0 0 0 8-8V11.998a8 8 0 0 1 8-8h17"/></g><g transform="translate(245 289)"><circle cx="106" cy="26" r="4" fill="#6FD350"/><path stroke="#6FD350" stroke-linecap="round" stroke-linejoin="round" stroke-width="2" d="M0 0h71a8 8 0 0 1 8 8v9.998a8 8 0 0 0 8 8h17"/></g></g></svg>