<svg xmlns="http://www.w3.org/2000/svg" xmlns:xlink="http://www.w3.org/1999/xlink" width="465" height="350" viewBox="0 0 465 350"><defs><filter id="b" width="110%" height="107%" x="-5%" y="-2.8%" filterUnits="objectBoundingBox"><feMorphology in="SourceAlpha" operator="dilate" radius="1" result="shadowSpreadOuter1"/><feOffset dy="2" in="shadowSpreadOuter1" result="shadowOffsetOuter1"/><feGaussianBlur in="shadowOffsetOuter1" result="shadowBlurOuter1" stdDeviation="3"/><feComposite in="shadowBlurOuter1" in2="SourceAlpha" operator="out" result="shadowBlurOuter1"/><feColorMatrix in="shadowBlurOuter1" values="0 0 0 0 0.207843137 0 0 0 0 0.258823529 0 0 0 0 0.329411765 0 0 0 0.101137908 0"/></filter><filter id="d" width="110%" height="200%" x="-5%" y="-40.9%" filterUnits="objectBoundingBox"><feMorphology in="SourceAlpha" operator="dilate" radius="1" result="shadowSpreadOuter1"/><feOffset dy="2" in="shadowSpreadOuter1" result="shadowOffsetOuter1"/><feGaussianBlur in="shadowOffsetOuter1" result="shadowBlurOuter1" stdDeviation="3"/><feComposite in="shadowBlurOuter1" in2="SourceAlpha" operator="out" result="shadowBlurOuter1"/><feColorMatrix in="shadowBlurOuter1" values="0 0 0 0 0.207843137 0 0 0 0 0.258823529 0 0 0 0 0.329411765 0 0 0 0.101137908 0"/></filter><filter id="f" width="137.9%" height="118.6%" x="-19%" y="-7.6%" filterUnits="objectBoundingBox"><feMorphology in="SourceAlpha" operator="dilate" radius="1" result="shadowSpreadOuter1"/><feOffset dy="2" in="shadowSpreadOuter1" result="shadowOffsetOuter1"/><feGaussianBlur in="shadowOffsetOuter1" result="shadowBlurOuter1" stdDeviation="3"/><feComposite in="shadowBlurOuter1" in2="SourceAlpha" operator="out" result="shadowBlurOuter1"/><feColorMatrix in="shadowBlurOuter1" values="0 0 0 0 0.207843137 0 0 0 0 0.258823529 0 0 0 0 0.329411765 0 0 0 0.101137908 0"/></filter><filter id="h" width="137.9%" height="118.6%" x="-19%" y="-7.6%" filterUnits="objectBoundingBox"><feMorphology in="SourceAlpha" operator="dilate" radius="1" result="shadowSpreadOuter1"/><feOffset dy="2" in="shadowSpreadOuter1" result="shadowOffsetOuter1"/><feGaussianBlur in="shadowOffsetOuter1" result="shadowBlurOuter1" stdDeviation="3"/><feComposite in="shadowBlurOuter1" in2="SourceAlpha" operator="out" result="shadowBlurOuter1"/><feColorMatrix in="shadowBlurOuter1" values="0 0 0 0 0.207843137 0 0 0 0 0.258823529 0 0 0 0 0.329411765 0 0 0 0.101137908 0"/></filter><rect id="a" width="220" height="316" x="0" y="0" rx="8"/><rect id="g" width="58" height="118" x="0" y="0" rx="4"/><rect id="i" width="58" height="118" x="0" y="0" rx="4"/><path id="e" d="M8 0h204a8 8 0 018 8v14H0V8a8 8 0 018-8z"/></defs><g fill="none" fill-rule="evenodd"><g transform="translate(123 21)"><mask id="c" fill="#fff"><use xlink:href="#a"/></mask><use fill="#000" filter="url(#b)" xlink:href="#a"/><rect width="221" height="317" x="-.5" y="-.5" fill="#FFF" stroke="#E1E1E1" rx="8"/><path fill="#E1E1E1" mask="url(#c)" d="M0 50h220v1H0z"/><g mask="url(#c)"><use fill="#000" filter="url(#d)" xlink:href="#e"/><path fill="#FFF" stroke="#E1E1E1" d="M220.5 22.5H-.5V8a8.47 8.47 0 012.49-6.01A8.473 8.473 0 018-.5h204a8.47 8.47 0 016.01 2.49A8.473 8.473 0 01220.5 8v14.5z"/></g><rect width="94" height="4" x="16" y="34" fill="#F1F1F1" mask="url(#c)" rx="2"/><circle cx="11" cy="11" r="4" fill="#F15242" mask="url(#c)"/><circle cx="35" cy="11" r="4" fill="#6FD350" mask="url(#c)"/><circle cx="23" cy="11" r="4" fill="#FFC111" mask="url(#c)"/><rect width="50" height="4" x="40" y="72" fill="#F1F1F1" mask="url(#c)" rx="2"/><rect width="140" height="4" x="40" y="84" fill="#F1F1F1" mask="url(#c)" rx="2"/><rect width="140" height="4" x="40" y="96" fill="#F1F1F1" mask="url(#c)" rx="2"/><rect width="140" height="4" x="40" y="184" fill="#F1F1F1" mask="url(#c)" rx="2"/><rect width="140" height="4" x="40" y="196" fill="#F1F1F1" mask="url(#c)" rx="2"/><rect width="140" height="4" x="40" y="208" fill="#F1F1F1" mask="url(#c)" rx="2"/><rect width="140" height="4" x="40" y="220" fill="#F1F1F1" mask="url(#c)" rx="2"/><rect width="140" height="4" x="40" y="232" fill="#F1F1F1" mask="url(#c)" rx="2"/><path fill="#FFC111" fill-opacity=".2" stroke="#FFC111" mask="url(#c)" d="M40.5 110.5h139v63h-139z"/><path fill="#01B2D0" fill-opacity=".2" stroke="#01B2D0" mask="url(#c)" d="M40.5 246.5h139v75h-139z"/></g><path stroke="#FFC111" stroke-linecap="round" stroke-linejoin="round" stroke-width="2" d="M75.892 116h63.565a8 8 0 018 8v31a8 8 0 008 8H183"/><path fill="#FFC111" d="M179.724 158.362l8.382 4.19a.5.5 0 010 .895l-8.382 4.191a.5.5 0 01-.724-.447v-8.382a.5.5 0 01.724-.447z"/><path stroke="#01B2D0" stroke-linecap="round" stroke-linejoin="round" stroke-width="2" d="M389 247h-61.031a7.994 7.994 0 00-8 7.996c0 .001 0 .003.004.004l.023 43.5a7.994 7.994 0 01-7.992 8.004c-.001 0-.003 0-.004-.004h-28.5 0"/><path fill="#01B2D0" d="M286.276 301.862l-8.382 4.19a.5.5 0 000 .895l8.382 4.191a.5.5 0 00.724-.447v-8.382a.5.5 0 00-.724-.447z"/><g transform="translate(10 57)"><use fill="#000" filter="url(#f)" xlink:href="#g"/><rect width="59" height="119" x="-.5" y="-.5" fill="#FFF" stroke="#E1E1E1" rx="4"/><rect width="24" height="24" x="17" y="12" fill="#6FD350" rx="4"/><path fill="#FFAD3B" d="M30.759 85.247l9.642 17.8A2 2 0 0138.642 106H19.358a2 2 0 01-1.759-2.953l9.642-17.8a2 2 0 013.518 0z"/><circle cx="29" cy="62" r="12" fill="#6F0DFB"/></g><g transform="translate(397 188)"><use fill="#000" filter="url(#h)" xlink:href="#i"/><rect width="59" height="119" x="-.5" y="-.5" fill="#FFF" stroke="#E1E1E1" rx="4"/><rect width="24" height="24" x="17" y="82" fill="#F15242" rx="4"/><path fill="#01B2D0" d="M30.759 47.247l9.642 17.8A2 2 0 0138.642 68H19.358a2 2 0 01-1.759-2.953l9.642-17.8a2 2 0 013.518 0z"/><circle cx="29" cy="24" r="12" fill="#FFC111"/></g><g fill="#FFC111" fill-rule="nonzero" transform="translate(60 100)"><circle cx="16" cy="16" r="16" fill-opacity=".4"/><circle cx="16" cy="16" r="3"/></g><g fill="#01B2D0" fill-rule="nonzero" transform="translate(373 231)"><circle cx="16" cy="16" r="16" fill-opacity=".4"/><circle cx="16" cy="16" r="3"/></g></g></svg>