<svg xmlns="http://www.w3.org/2000/svg" xmlns:xlink="http://www.w3.org/1999/xlink" width="465" height="350" viewBox="0 0 465 350"><defs><rect id="b" width="220" height="316" x="0" y="0" rx="8"/><filter id="a" width="110%" height="107%" x="-5%" y="-2.8%" filterUnits="objectBoundingBox"><feMorphology in="SourceAlpha" operator="dilate" radius="1" result="shadowSpreadOuter1"/><feOffset dy="2" in="shadowSpreadOuter1" result="shadowOffsetOuter1"/><feGaussianBlur in="shadowOffsetOuter1" result="shadowBlurOuter1" stdDeviation="3"/><feComposite in="shadowBlurOuter1" in2="SourceAlpha" operator="out" result="shadowBlurOuter1"/><feColorMatrix in="shadowBlurOuter1" values="0 0 0 0 0.207843137 0 0 0 0 0.258823529 0 0 0 0 0.329411765 0 0 0 0.101137908 0"/></filter><path id="d" d="M8 0h204a8 8 0 0 1 8 8v14H0V8a8 8 0 0 1 8-8z"/><filter id="c" width="110%" height="200%" x="-5%" y="-40.9%" filterUnits="objectBoundingBox"><feMorphology in="SourceAlpha" operator="dilate" radius="1" result="shadowSpreadOuter1"/><feOffset dy="2" in="shadowSpreadOuter1" result="shadowOffsetOuter1"/><feGaussianBlur in="shadowOffsetOuter1" result="shadowBlurOuter1" stdDeviation="3"/><feComposite in="shadowBlurOuter1" in2="SourceAlpha" operator="out" result="shadowBlurOuter1"/><feColorMatrix in="shadowBlurOuter1" values="0 0 0 0 0.207843137 0 0 0 0 0.258823529 0 0 0 0 0.329411765 0 0 0 0.101137908 0"/></filter><rect id="f" width="58" height="118" x="0" y="0" rx="8"/><filter id="e" width="137.9%" height="118.6%" x="-19%" y="-7.6%" filterUnits="objectBoundingBox"><feMorphology in="SourceAlpha" operator="dilate" radius="1" result="shadowSpreadOuter1"/><feOffset dy="2" in="shadowSpreadOuter1" result="shadowOffsetOuter1"/><feGaussianBlur in="shadowOffsetOuter1" result="shadowBlurOuter1" stdDeviation="3"/><feComposite in="shadowBlurOuter1" in2="SourceAlpha" operator="out" result="shadowBlurOuter1"/><feColorMatrix in="shadowBlurOuter1" values="0 0 0 0 0.207843137 0 0 0 0 0.258823529 0 0 0 0 0.329411765 0 0 0 0.101137908 0"/></filter><rect id="h" width="58" height="118" x="0" y="0" rx="8"/><filter id="g" width="137.9%" height="118.6%" x="-19%" y="-7.6%" filterUnits="objectBoundingBox"><feMorphology in="SourceAlpha" operator="dilate" radius="1" result="shadowSpreadOuter1"/><feOffset dy="2" in="shadowSpreadOuter1" result="shadowOffsetOuter1"/><feGaussianBlur in="shadowOffsetOuter1" result="shadowBlurOuter1" stdDeviation="3"/><feComposite in="shadowBlurOuter1" in2="SourceAlpha" operator="out" result="shadowBlurOuter1"/><feColorMatrix in="shadowBlurOuter1" values="0 0 0 0 0.207843137 0 0 0 0 0.258823529 0 0 0 0 0.329411765 0 0 0 0.101137908 0"/></filter></defs><g fill="none" fill-rule="evenodd"><g transform="translate(6 21)"><use fill="#000" filter="url(#a)" xlink:href="#b"/><rect width="221" height="317" x="-.5" y="-.5" fill="#FFF" stroke="#E1E1E1" rx="8"/><path fill="#E1E1E1" d="M0 50h220v1H0z"/><use fill="#000" filter="url(#c)" xlink:href="#d"/><path fill="#FFF" stroke="#E1E1E1" d="M8-.5h204a8.5 8.5 0 0 1 8.5 8.5v14.5H-.5V8A8.5 8.5 0 0 1 8-.5z"/><rect width="94" height="4" x="16" y="34" fill="#F1F1F1" rx="2"/><circle cx="11" cy="11" r="4" fill="#F15242"/><circle cx="35" cy="11" r="4" fill="#6FD350"/><circle cx="23" cy="11" r="4" fill="#FFC111"/><rect width="94" height="4" x="110" y="68" fill="#F1F1F1" rx="2"/><rect width="94" height="4" x="110" y="82" fill="#F1F1F1" rx="2"/><rect width="94" height="4" x="110" y="96" fill="#F1F1F1" rx="2"/><rect width="94" height="4" x="110" y="110" fill="#F1F1F1" rx="2"/><rect width="94" height="4" x="110" y="124" fill="#F1F1F1" rx="2"/><rect width="94" height="4" x="110" y="138" fill="#F1F1F1" rx="2"/><rect width="188" height="4" x="16" y="167" fill="#F1F1F1" rx="2"/><rect width="188" height="4" x="16" y="181" fill="#F1F1F1" rx="2"/><rect width="188" height="4" x="16" y="195" fill="#F1F1F1" rx="2"/><rect width="77" height="87" x="16.5" y="67.5" fill="#FFC111" fill-opacity=".2" stroke="#FFC111" rx="4"/><g fill="#FFC111" fill-rule="nonzero" transform="translate(39 95)"><circle cx="16" cy="16" r="16" fill-opacity=".4"/><circle cx="16" cy="16" r="3"/></g><rect width="187" height="89" x="16.5" y="211.5" fill="#01B2D0" fill-opacity=".2" stroke="#01B2D0" rx="4"/><g fill="#01B2D0" fill-rule="nonzero" transform="translate(94 240)"><circle cx="16" cy="16" r="16" fill-opacity=".4"/><circle cx="16" cy="16" r="3"/></g></g><path stroke="#FFC111" stroke-linecap="round" stroke-linejoin="round" stroke-width="2" d="M303 81H169.014c-6.906 0-12.504 5.598-12.504 12.504 0 .166.003.33.01.496.288 7.262 6.258 13 13.525 13h75.912c6.904 0 12.5 5.596 12.5 12.5s-5.596 12.5-12.5 12.5H61.031h0"/><path stroke="#01B2D0" stroke-linecap="round" stroke-linejoin="round" stroke-width="2" d="M380 217H262.016c-8.56 0-15.5 6.94-15.5 15.5 0 8.56 6.94 15.5 15.5 15.5h96.338c8.074 0 14.622 6.54 14.63 14.615.009 8.063-6.52 14.607-14.584 14.615H117.031h0"/><g transform="translate(313 22)"><use fill="#000" filter="url(#e)" xlink:href="#f"/><rect width="59" height="119" x="-.5" y="-.5" fill="#FFF" stroke="#E1E1E1" rx="8"/><rect width="24" height="24" x="17" y="12" fill="#6FD350" rx="4"/><path fill="#FFAD3B" d="M30.759 85.247l9.642 17.8A2 2 0 0 1 38.642 106H19.358a2 2 0 0 1-1.759-2.953l9.642-17.8a2 2 0 0 1 3.518 0z"/><circle cx="29" cy="62" r="12" fill="#6F0DFB"/></g><g transform="translate(389 158)"><use fill="#000" filter="url(#g)" xlink:href="#h"/><rect width="59" height="119" x="-.5" y="-.5" fill="#FFF" stroke="#E1E1E1" rx="8"/><rect width="24" height="24" x="17" y="82" fill="#F15242" rx="4"/><path fill="#01B2D0" d="M30.759 47.247l9.642 17.8A2 2 0 0 1 38.642 68H19.358a2 2 0 0 1-1.759-2.953l9.642-17.8a2 2 0 0 1 3.518 0z"/><circle cx="29" cy="24" r="12" fill="#FFC111"/></g></g></svg>