<svg xmlns="http://www.w3.org/2000/svg" xmlns:xlink="http://www.w3.org/1999/xlink" width="465" height="350" viewBox="0 0 465 350"><defs><rect id="b" width="367" height="252" x="0" y="0" rx="8"/><filter id="a" width="106%" height="108.7%" x="-3%" y="-3.6%" filterUnits="objectBoundingBox"><feMorphology in="SourceAlpha" operator="dilate" radius="1" result="shadowSpreadOuter1"/><feOffset dy="2" in="shadowSpreadOuter1" result="shadowOffsetOuter1"/><feGaussianBlur in="shadowOffsetOuter1" result="shadowBlurOuter1" stdDeviation="3"/><feComposite in="shadowBlurOuter1" in2="SourceAlpha" operator="out" result="shadowBlurOuter1"/><feColorMatrix in="shadowBlurOuter1" values="0 0 0 0 0.207843137 0 0 0 0 0.258823529 0 0 0 0 0.329411765 0 0 0 0.101137908 0"/></filter><rect id="d" width="32" height="32" x="0" y="0" rx="2"/><filter id="c" width="168.8%" height="168.8%" x="-34.4%" y="-28.1%" filterUnits="objectBoundingBox"><feMorphology in="SourceAlpha" operator="dilate" radius="1" result="shadowSpreadOuter1"/><feOffset dy="2" in="shadowSpreadOuter1" result="shadowOffsetOuter1"/><feGaussianBlur in="shadowOffsetOuter1" result="shadowBlurOuter1" stdDeviation="3"/><feComposite in="shadowBlurOuter1" in2="SourceAlpha" operator="out" result="shadowBlurOuter1"/><feColorMatrix in="shadowBlurOuter1" values="0 0 0 0 0.207843137 0 0 0 0 0.258823529 0 0 0 0 0.329411765 0 0 0 0.101137908 0"/></filter></defs><g fill="none" fill-rule="evenodd"><g stroke="#E1E1E1" stroke-dasharray="1 8" stroke-linecap="round" stroke-linejoin="round" stroke-width="2"><path d="M210 330c88.366 0 160-71.634 160-160S298.366 10 210 10 50 81.634 50 170s71.634 160 160 160z"/><path d="M210 304c74.006 0 134-59.994 134-134S284.006 36 210 36 76 95.994 76 170s59.994 134 134 134z"/><path d="M210 278c59.647 0 108-48.353 108-108S269.647 62 210 62s-108 48.353-108 108 48.353 108 108 108z"/><path d="M210 252c45.287 0 82-36.713 82-82s-36.713-82-82-82-82 36.713-82 82 36.713 82 82 82z"/></g><rect width="263" height="229" x="174" y="28" stroke="#E1E1E1" stroke-width="2" rx="8"/><circle cx="174" cy="28" r="8" fill="#FFF" stroke="#E1E1E1" stroke-width="2"/><circle cx="437" cy="257" r="8" fill="#FFF" stroke="#E1E1E1" stroke-width="2"/><g transform="translate(18 78)"><use fill="#000" filter="url(#a)" xlink:href="#b"/><rect width="368" height="253" x="-.5" y="-.5" fill="#FFF" stroke="#E1E1E1" rx="8"/><rect width="97" height="35" x="16.5" y="16.5" fill="#F15242" fill-opacity=".2" stroke="#F15242" rx="4"/><rect width="97" height="35" x="16.5" y="62.5" fill="#01B2D0" fill-opacity=".2" stroke="#01B2D0" rx="4"/><path fill="#F1F1F1" d="M130 16h2v220h-2z"/><rect width="97" height="35" x="16.5" y="108.5" fill="#FFC111" fill-opacity=".2" stroke="#FFC111" rx="4"/><rect width="97" height="35" x="16.5" y="154.5" fill="#6FD350" fill-opacity=".2" stroke="#6FD350" rx="4"/><rect width="97" height="35" x="16.5" y="200.5" fill="#6F0DFB" fill-opacity=".2" stroke="#6F0DFB" rx="4"/><g transform="translate(94 36)"><use fill="#000" filter="url(#c)" xlink:href="#d"/><rect width="33" height="33" x="-.5" y="-.5" fill="#FFF" stroke="#E1E1E1" rx="2"/><g fill="#F1F1F1"><path d="M15 10h2v14h-2zm1-7l4 7h-8z"/><path d="M16 29l4-7h-8z"/></g><g fill="#F1F1F1"><path d="M22 15v2H8v-2zm7 1l-7 4v-8z"/><path d="M3 16l7 4v-8z"/></g></g><g fill="#F1F1F1" transform="translate(184 25)"><rect width="120" height="80" rx="4"/><rect width="54" height="43" y="154" rx="4"/><rect width="54" height="43" x="66" y="154" rx="4"/><rect width="120" height="2" y="102" rx="1"/><rect width="120" height="2" y="92" rx="1"/><rect width="120" height="2" y="112" rx="1"/><rect width="120" height="2" y="122" rx="1"/><rect width="120" height="2" y="142" rx="1"/><rect width="120" height="2" y="132" rx="1"/></g></g></g></svg>