<svg xmlns="http://www.w3.org/2000/svg" xmlns:xlink="http://www.w3.org/1999/xlink" width="465" height="350" viewBox="0 0 465 350"><defs><filter id="a" width="106.2%" height="109.7%" x="-3.1%" y="-4%" filterUnits="objectBoundingBox"><feMorphology in="SourceAlpha" operator="dilate" radius="1" result="shadowSpreadOuter1"/><feOffset dy="2" in="shadowSpreadOuter1" result="shadowOffsetOuter1"/><feGaussianBlur in="shadowOffsetOuter1" result="shadowBlurOuter1" stdDeviation="3"/><feComposite in="shadowBlurOuter1" in2="SourceAlpha" operator="out" result="shadowBlurOuter1"/><feColorMatrix in="shadowBlurOuter1" values="0 0 0 0 0.207843137 0 0 0 0 0.258823529 0 0 0 0 0.329411765 0 0 0 0.101137908 0"/></filter><filter id="c" width="103.1%" height="126.3%" x="-1.6%" y="-10.5%" filterUnits="objectBoundingBox"><feOffset dy="1" in="SourceAlpha" result="shadowOffsetOuter1"/><feGaussianBlur in="shadowOffsetOuter1" result="shadowBlurOuter1" stdDeviation="1.5"/><feComposite in="shadowBlurOuter1" in2="SourceAlpha" operator="out" result="shadowBlurOuter1"/><feColorMatrix in="shadowBlurOuter1" values="0 0 0 0 0.207843137 0 0 0 0 0.258823529 0 0 0 0 0.329411765 0 0 0 0.12 0"/></filter><filter id="e" width="103.1%" height="110.4%" x="-1.6%" y="-4.2%" filterUnits="objectBoundingBox"><feOffset dy="1" in="SourceAlpha" result="shadowOffsetOuter1"/><feGaussianBlur in="shadowOffsetOuter1" result="shadowBlurOuter1" stdDeviation="1.5"/><feComposite in="shadowBlurOuter1" in2="SourceAlpha" operator="out" result="shadowBlurOuter1"/><feColorMatrix in="shadowBlurOuter1" values="0 0 0 0 0.207843137 0 0 0 0 0.258823529 0 0 0 0 0.329411765 0 0 0 0.12 0"/></filter><filter id="g" width="108.1%" height="120.4%" x="-4%" y="-8.3%" filterUnits="objectBoundingBox"><feMorphology in="SourceAlpha" operator="dilate" radius="1" result="shadowSpreadOuter1"/><feOffset dy="2" in="shadowSpreadOuter1" result="shadowOffsetOuter1"/><feGaussianBlur in="shadowOffsetOuter1" result="shadowBlurOuter1" stdDeviation="3"/><feComposite in="shadowBlurOuter1" in2="SourceAlpha" operator="out" result="shadowBlurOuter1"/><feColorMatrix in="shadowBlurOuter1" values="0 0 0 0 0.207843137 0 0 0 0 0.258823529 0 0 0 0 0.329411765 0 0 0 0.101137908 0"/></filter><rect id="b" width="352" height="226" x="0" y="0" rx="8"/><rect id="d" width="320" height="38" x="0" y="0" rx="4"/><rect id="f" width="320" height="96" x="0" y="0" rx="4"/><rect id="h" width="272" height="108" x="0" y="0" rx="12"/><linearGradient id="i" x1="50%" x2="50%" y1="0%" y2="100%"><stop offset="0%" stop-color="#A81EFD"/><stop offset="100%" stop-color="#6F0DFB"/></linearGradient></defs><g fill="none" fill-rule="evenodd"><g transform="translate(47 28)"><use fill="#000" filter="url(#a)" xlink:href="#b"/><rect width="353" height="227" x="-.5" y="-.5" fill="#FFF" stroke="#E1E1E1" rx="8"/><g transform="translate(16 38)"><use fill="#000" filter="url(#c)" xlink:href="#d"/><rect width="319" height="37" x=".5" y=".5" fill="#FFF" stroke="#E1E1E1" stroke-linejoin="square" rx="4"/><path fill="#384254" fill-rule="nonzero" d="M13.64 25.66v-1.008h-.854c-.49 0-.91-.448-.91-1.078V20.83c0-.588-.168-1.05-.63-1.246.462-.196.63-.658.63-1.246V15.58c0-.644.42-1.064.91-1.064h.854v-1.008h-.854c-1.022 0-1.988.798-1.988 2.086v2.604c0 .518-.238.952-.728.952v.868c.49 0 .728.434.728.952v2.618c0 1.288.966 2.072 1.988 2.072h.854zm3.878 0v-1.008h-.854c-.49 0-.91-.448-.91-1.078V20.83c0-.588-.168-1.05-.63-1.246.462-.196.63-.658.63-1.246V15.58c0-.644.42-1.064.91-1.064h.854v-1.008h-.854c-1.022 0-1.988.798-1.988 2.086v2.604c0 .518-.238.952-.728.952v.868c.49 0 .728.434.728.952v2.618c0 1.288.966 2.072 1.988 2.072h.854zm3.374-2.492a3.234 3.234 0 002.38-1.064V23h1.47v-6.762h-1.47v4.746c-.336.448-.98.882-1.722.882-.84 0-1.372-.336-1.372-1.386v-4.242h-1.47v4.788c0 1.372.728 2.142 2.184 2.142zm8.078 0c1.82 0 2.814-.91 2.814-2.114 0-2.688-4.088-1.792-4.088-2.982 0-.476.476-.84 1.246-.84.854 0 1.596.364 2.002.812l.616-1.036c-.602-.532-1.47-.938-2.618-.938-1.708 0-2.66.938-2.66 2.044 0 2.604 4.088 1.652 4.088 2.982 0 .532-.462.896-1.344.896-.868 0-1.806-.448-2.282-.938l-.672 1.05c.7.686 1.736 1.064 2.898 1.064zm7.42 0c1.064 0 2.058-.35 2.744-.994l-.672-.966c-.49.49-1.26.756-1.932.756-1.274 0-2.03-.854-2.142-1.862h5.208v-.364c0-2.128-1.288-3.668-3.318-3.668-2.002 0-3.43 1.582-3.43 3.542 0 2.142 1.498 3.556 3.542 3.556zm1.792-4.116h-3.808c.056-.812.644-1.778 1.89-1.778 1.33 0 1.876.98 1.918 1.778zM42.522 23v-4.606c.294-.49 1.12-.91 1.75-.91.182 0 .322.014.448.042V16.07c-.868 0-1.68.504-2.198 1.148v-.98h-1.47V23h1.47zm2.968.154c.532 0 .98-.462.98-.994 0-.518-.448-.966-.98-.966s-.98.448-.98.966c0 .532.448.994.98.994zM49.648 23v-5.488h1.372v-1.274h-1.372v-.378c0-.756.35-1.134.938-1.134.238 0 .434.056.588.154l.322-1.106c-.308-.168-.714-.252-1.19-.252-1.232 0-2.128.826-2.128 2.338v.378h-1.12v1.274h1.12V23h1.47zm3.234-7.588c.504 0 .91-.406.91-.91a.908.908 0 00-.91-.91.908.908 0 00-.91.91c0 .504.406.91.91.91zM53.61 23v-6.762h-1.47V23h1.47zm3.374 0v-4.606c.294-.49 1.12-.91 1.75-.91.182 0 .322.014.448.042V16.07c-.868 0-1.68.504-2.198 1.148v-.98h-1.47V23h1.47zm5.712.168c1.82 0 2.814-.91 2.814-2.114 0-2.688-4.088-1.792-4.088-2.982 0-.476.476-.84 1.246-.84.854 0 1.596.364 2.002.812l.616-1.036c-.602-.532-1.47-.938-2.618-.938-1.708 0-2.66.938-2.66 2.044 0 2.604 4.088 1.652 4.088 2.982 0 .532-.462.896-1.344.896-.868 0-1.806-.448-2.282-.938l-.672 1.05c.7.686 1.736 1.064 2.898 1.064zm6.328 0c.672 0 1.106-.196 1.372-.434l-.35-1.12c-.112.126-.364.252-.644.252-.42 0-.644-.35-.644-.812v-3.542h1.372v-1.274h-1.372V14.39h-1.47v1.848h-1.12v1.274h1.12v3.906c0 1.134.588 1.75 1.736 1.75zM72.916 23v-4.732c.35-.448.994-.896 1.736-.896.826 0 1.372.336 1.372 1.4V23h1.47v-4.76c0-1.386-.728-2.17-2.184-2.17-1.064 0-1.946.546-2.394 1.078v-.91h-1.47V23h1.47zm8.428.168c.896 0 1.694-.322 2.198-.91V23h1.47v-4.494c0-1.806-1.316-2.436-2.828-2.436-1.078 0-2.058.336-2.842 1.092l.616 1.022c.574-.588 1.246-.868 2.002-.868.924 0 1.582.476 1.582 1.26v1.008c-.504-.574-1.274-.868-2.198-.868-1.106 0-2.338.644-2.338 2.212 0 1.484 1.246 2.24 2.338 2.24zm.588-1.008c-.826 0-1.456-.476-1.456-1.218 0-.728.63-1.218 1.456-1.218.63 0 1.26.238 1.61.7v1.036c-.35.462-.98.7-1.61.7zm6.454.84v-4.732c.308-.434.91-.896 1.568-.896.798 0 1.106.49 1.106 1.218V23h1.47v-4.732c.294-.448.91-.896 1.568-.896.798 0 1.12.49 1.12 1.218V23h1.47v-4.886c0-1.372-.714-2.044-1.946-2.044-1.022 0-1.918.63-2.296 1.232-.224-.728-.84-1.232-1.848-1.232-1.036 0-1.918.672-2.212 1.078v-.91h-1.47V23h1.47zm13.342.168c1.064 0 2.058-.35 2.744-.994l-.672-.966c-.49.49-1.26.756-1.932.756-1.274 0-2.03-.854-2.142-1.862h5.208v-.364c0-2.128-1.288-3.668-3.318-3.668-2.002 0-3.43 1.582-3.43 3.542 0 2.142 1.498 3.556 3.542 3.556zm1.792-4.116h-3.808c.056-.812.644-1.778 1.89-1.778 1.33 0 1.876.98 1.918 1.778zm3.01 6.608c1.022 0 1.988-.784 1.988-2.072V20.97c0-.518.238-.952.728-.952v-.868c-.49 0-.728-.434-.728-.952v-2.604c0-1.288-.966-2.086-1.988-2.086h-.854v1.008h.854c.49 0 .91.42.91 1.064v2.758c0 .588.168 1.05.63 1.246-.462.196-.63.658-.63 1.246v2.744c0 .63-.42 1.078-.91 1.078h-.854v1.008h.854zm3.878 0c1.022 0 1.988-.784 1.988-2.072V20.97c0-.518.238-.952.728-.952v-.868c-.49 0-.728-.434-.728-.952v-2.604c0-1.288-.966-2.086-1.988-2.086h-.854v1.008h.854c.49 0 .91.42.91 1.064v2.758c0 .588.168 1.05.63 1.246-.462.196-.63.658-.63 1.246v2.744c0 .63-.42 1.078-.91 1.078h-.854v1.008h.854zm4.256-.798c.77-.546 1.302-1.428 1.302-2.394 0-.812-.504-1.274-1.078-1.274a.953.953 0 00-.952.952c0 .518.364.896.826.896.098 0 .21-.028.238-.042-.084.476-.56 1.05-1.008 1.316l.672.546zm9.282.882c1.652 0 3.472-.658 3.472-3.094v-6.412h-1.47v.938c-.546-.728-1.316-1.106-2.17-1.106-1.75 0-2.996 1.274-2.996 3.472 0 2.226 1.274 3.472 2.996 3.472.882 0 1.652-.448 2.17-1.134v.77c0 1.442-1.036 1.89-2.002 1.89-.896 0-1.596-.238-2.156-.868l-.686 1.064c.84.756 1.694 1.008 2.842 1.008zm.266-4.046c-1.176 0-1.918-.854-1.918-2.156s.742-2.17 1.918-2.17c.686 0 1.4.406 1.736.896v2.534c-.336.49-1.05.896-1.736.896zm8.246 1.47c1.064 0 2.058-.35 2.744-.994l-.672-.966c-.49.49-1.26.756-1.932.756-1.274 0-2.03-.854-2.142-1.862h5.208v-.364c0-2.128-1.288-3.668-3.318-3.668-2.002 0-3.43 1.582-3.43 3.542 0 2.142 1.498 3.556 3.542 3.556zm1.792-4.116h-3.808c.056-.812.644-1.778 1.89-1.778 1.33 0 1.876.98 1.918 1.778zm4.914 4.116c.672 0 1.106-.196 1.372-.434l-.35-1.12c-.112.126-.364.252-.644.252-.42 0-.644-.35-.644-.812v-3.542h1.372v-1.274h-1.372V14.39h-1.47v1.848h-1.12v1.274h1.12v3.906c0 1.134.588 1.75 1.736 1.75zm8.218 0a3.234 3.234 0 002.38-1.064V23h1.47v-6.762h-1.47v4.746c-.336.448-.98.882-1.722.882-.84 0-1.372-.336-1.372-1.386v-4.242h-1.47v4.788c0 1.372.728 2.142 2.184 2.142zm7.224 2.408v-3.514c.56.714 1.316 1.106 2.17 1.106 1.75 0 2.996-1.33 2.996-3.556s-1.246-3.542-2.996-3.542c-.882 0-1.666.42-2.17 1.092v-.924h-1.47v9.338h1.47zm1.736-3.71c-.686 0-1.414-.42-1.736-.924v-2.674c.336-.504 1.05-.896 1.736-.896 1.162 0 1.918.924 1.918 2.24 0 1.316-.756 2.254-1.918 2.254zm10.556 1.302c.672 0 1.106-.196 1.372-.434l-.35-1.12c-.112.126-.364.252-.644.252-.42 0-.644-.35-.644-.812v-3.542h1.372v-1.274h-1.372V14.39h-1.47v1.848h-1.12v1.274h1.12v3.906c0 1.134.588 1.75 1.736 1.75zm5.488 0c2.156 0 3.472-1.624 3.472-3.556 0-1.946-1.316-3.542-3.472-3.542-2.156 0-3.472 1.596-3.472 3.542 0 1.932 1.316 3.556 3.472 3.556zm0-1.302c-1.246 0-1.946-1.05-1.946-2.254 0-1.19.7-2.24 1.946-2.24 1.26 0 1.946 1.05 1.946 2.24 0 1.204-.686 2.254-1.946 2.254zm11.27 3.794v-1.008h-.854c-.49 0-.91-.448-.91-1.078V20.83c0-.588-.168-1.05-.63-1.246.462-.196.63-.658.63-1.246V15.58c0-.644.42-1.064.91-1.064h.854v-1.008h-.854c-1.022 0-1.988.798-1.988 2.086v2.604c0 .518-.238.952-.728.952v.868c.49 0 .728.434.728.952v2.618c0 1.288.966 2.072 1.988 2.072h.854zm3.878 0v-1.008h-.854c-.49 0-.91-.448-.91-1.078V20.83c0-.588-.168-1.05-.63-1.246.462-.196.63-.658.63-1.246V15.58c0-.644.42-1.064.91-1.064h.854v-1.008h-.854c-1.022 0-1.988.798-1.988 2.086v2.604c0 .518-.238.952-.728.952v.868c.49 0 .728.434.728.952v2.618c0 1.288.966 2.072 1.988 2.072h.854zm4.326-2.492c1.064 0 2.058-.35 2.744-.994l-.672-.966c-.49.49-1.26.756-1.932.756-1.274 0-2.03-.854-2.142-1.862h5.208v-.364c0-2.128-1.288-3.668-3.318-3.668-2.002 0-3.43 1.582-3.43 3.542 0 2.142 1.498 3.556 3.542 3.556zm1.792-4.116h-3.808c.056-.812.644-1.778 1.89-1.778 1.33 0 1.876.98 1.918 1.778zm6.23 3.948l2.758-6.762h-1.568l-1.974 5.068-1.974-5.068h-1.582L198.3 23h1.582zm6.818.168c1.064 0 2.058-.35 2.744-.994l-.672-.966c-.49.49-1.26.756-1.932.756-1.274 0-2.03-.854-2.142-1.862h5.208v-.364c0-2.128-1.288-3.668-3.318-3.668-2.002 0-3.43 1.582-3.43 3.542 0 2.142 1.498 3.556 3.542 3.556zm1.792-4.116h-3.808c.056-.812.644-1.778 1.89-1.778 1.33 0 1.876.98 1.918 1.778zm4.34 3.948v-4.732c.35-.448.994-.896 1.736-.896.826 0 1.372.336 1.372 1.4V23h1.47v-4.76c0-1.386-.728-2.17-2.184-2.17-1.064 0-1.946.546-2.394 1.078v-.91h-1.47V23h1.47zm8.526.168c.672 0 1.106-.196 1.372-.434l-.35-1.12c-.112.126-.364.252-.644.252-.42 0-.644-.35-.644-.812v-3.542h1.372v-1.274h-1.372V14.39h-1.47v1.848h-1.12v1.274h1.12v3.906c0 1.134.588 1.75 1.736 1.75zm3.192-.014c.532 0 .98-.462.98-.994 0-.518-.448-.966-.98-.966s-.98.448-.98.966c0 .532.448.994.98.994zm4.144-.154v-4.732c.308-.434.91-.896 1.568-.896.798 0 1.106.49 1.106 1.218V23h1.47v-4.732c.294-.448.91-.896 1.568-.896.798 0 1.12.49 1.12 1.218V23h1.47v-4.886c0-1.372-.714-2.044-1.946-2.044-1.022 0-1.918.63-2.296 1.232-.224-.728-.84-1.232-1.848-1.232-1.036 0-1.918.672-2.212 1.078v-.91h-1.47V23h1.47zm12.152.168c.896 0 1.694-.322 2.198-.91V23h1.47v-4.494c0-1.806-1.316-2.436-2.828-2.436-1.078 0-2.058.336-2.842 1.092l.616 1.022c.574-.588 1.246-.868 2.002-.868.924 0 1.582.476 1.582 1.26v1.008c-.504-.574-1.274-.868-2.198-.868-1.106 0-2.338.644-2.338 2.212 0 1.484 1.246 2.24 2.338 2.24zm.588-1.008c-.826 0-1.456-.476-1.456-1.218 0-.728.63-1.218 1.456-1.218.63 0 1.26.238 1.61.7v1.036c-.35.462-.98.7-1.61.7zm5.754.84l1.764-2.492 1.75 2.492h1.652l-2.492-3.472 2.338-3.29h-1.652l-1.61 2.282-1.596-2.282h-1.652l2.338 3.29L245.536 23h1.652zm13.174 1.568V23.56h-7.98v1.008h7.98zm3.976-1.4c2.156 0 3.472-1.624 3.472-3.556 0-1.946-1.316-3.542-3.472-3.542-2.156 0-3.472 1.596-3.472 3.542 0 1.932 1.316 3.556 3.472 3.556zm0-1.302c-1.246 0-1.946-1.05-1.946-2.254 0-1.19.7-2.24 1.946-2.24 1.26 0 1.946 1.05 1.946 2.24 0 1.204-.686 2.254-1.946 2.254zM271.142 23v-5.488h1.372v-1.274h-1.372v-.378c0-.756.35-1.134.938-1.134.322 0 .574.112.77.294l.574-.91c-.406-.434-1.008-.588-1.624-.588-1.274 0-2.128.868-2.128 2.338v.378h-1.12v1.274h1.12V23h1.47zm4.326 0v-5.488h1.372v-1.274h-1.372v-.378c0-.756.35-1.134.938-1.134.322 0 .574.112.77.294l.574-.91c-.406-.434-1.008-.588-1.624-.588-1.274 0-2.128.868-2.128 2.338v.378h-1.12v1.274h1.12V23h1.47zm3.598 2.66c1.022 0 1.988-.784 1.988-2.072V20.97c0-.518.238-.952.728-.952v-.868c-.49 0-.728-.434-.728-.952v-2.604c0-1.288-.966-2.086-1.988-2.086h-.854v1.008h.854c.49 0 .91.42.91 1.064v2.758c0 .588.168 1.05.63 1.246-.462.196-.63.658-.63 1.246v2.744c0 .63-.42 1.078-.91 1.078h-.854v1.008h.854zm3.878 0c1.022 0 1.988-.784 1.988-2.072V20.97c0-.518.238-.952.728-.952v-.868c-.49 0-.728-.434-.728-.952v-2.604c0-1.288-.966-2.086-1.988-2.086h-.854v1.008h.854c.49 0 .91.42.91 1.064v2.758c0 .588.168 1.05.63 1.246-.462.196-.63.658-.63 1.246v2.744c0 .63-.42 1.078-.91 1.078h-.854v1.008h.854zm10.416-2.492c2.156 0 3.472-1.624 3.472-3.556 0-1.946-1.316-3.542-3.472-3.542-2.156 0-3.472 1.596-3.472 3.542 0 1.932 1.316 3.556 3.472 3.556zm0-1.302c-1.246 0-1.946-1.05-1.946-2.254 0-1.19.7-2.24 1.946-2.24 1.26 0 1.946 1.05 1.946 2.24 0 1.204-.686 2.254-1.946 2.254zM300.164 23v-5.488h1.372v-1.274h-1.372v-.378c0-.756.35-1.134.938-1.134.322 0 .574.112.77.294l.574-.91c-.406-.434-1.008-.588-1.624-.588-1.274 0-2.128.868-2.128 2.338v.378h-1.12v1.274h1.12V23h1.47zm4.326 0v-5.488h1.372v-1.274h-1.372v-.378c0-.756.35-1.134.938-1.134.322 0 .574.112.77.294l.574-.91c-.406-.434-1.008-.588-1.624-.588-1.274 0-2.128.868-2.128 2.338v.378h-1.12v1.274h1.12V23h1.47zm2.618.154c.532 0 .98-.462.98-.994 0-.518-.448-.966-.98-.966s-.98.448-.98.966c0 .532.448.994.98.994z"/></g><path fill="#384254" fill-rule="nonzero" d="M20.858 29v-7.896h2.828v-1.442h-7.294v1.442h2.828V29h1.638zm4.914-7.588c.504 0 .91-.406.91-.91a.908.908 0 00-.91-.91.908.908 0 00-.91.91c0 .504.406.91.91.91zM26.5 29v-6.762h-1.47V29h1.47zm3.948.168c.672 0 1.106-.196 1.372-.434l-.35-1.12c-.112.126-.364.252-.644.252-.42 0-.644-.35-.644-.812v-3.542h1.372v-1.274h-1.372V20.39h-1.47v1.848h-1.12v1.274h1.12v3.906c0 1.134.588 1.75 1.736 1.75zM34.34 29v-9.338h-1.47V29h1.47zm5.04.168c1.064 0 2.058-.35 2.744-.994l-.672-.966c-.49.49-1.26.756-1.932.756-1.274 0-2.03-.854-2.142-1.862h5.208v-.364c0-2.128-1.288-3.668-3.318-3.668-2.002 0-3.43 1.582-3.43 3.542 0 2.142 1.498 3.556 3.542 3.556zm1.792-4.116h-3.808c.056-.812.644-1.778 1.89-1.778 1.33 0 1.876.98 1.918 1.778z"/><g transform="translate(16 114)"><use fill="#000" filter="url(#e)" xlink:href="#f"/><rect width="319" height="95" x=".5" y=".5" fill="#FFF" stroke="#E1E1E1" stroke-linejoin="square" rx="4"/><path fill="#384254" fill-rule="nonzero" d="M12.254 23v-3.71h2.59c1.862 0 2.926-1.288 2.926-2.814s-1.05-2.814-2.926-2.814h-3.752V23h1.162zm2.45-4.746h-2.45v-3.556h2.45c1.106 0 1.862.728 1.862 1.778s-.756 1.778-1.862 1.778zm6.72 4.914c1.008 0 1.89-.532 2.408-1.12V23h1.05v-6.762h-1.05v4.97c-.392.546-1.176 1.022-1.988 1.022-.924 0-1.526-.35-1.526-1.54v-4.452h-1.05v4.774c0 1.456.742 2.156 2.156 2.156zM28.032 23v-4.788c.308-.546 1.19-1.078 1.848-1.078.154 0 .28.014.406.028v-1.078c-.924 0-1.708.532-2.254 1.232v-1.078h-1.05V23h1.05zm6.552.168c1.232 0 1.96-.504 2.478-1.176l-.7-.644c-.448.602-1.022.882-1.722.882-1.428 0-2.338-1.12-2.338-2.618 0-1.498.91-2.604 2.338-2.604.7 0 1.274.252 1.722.868l.7-.63c-.518-.672-1.246-1.176-2.478-1.176-2.016 0-3.374 1.54-3.374 3.542s1.358 3.556 3.374 3.556zM39.61 23v-4.942c.392-.546 1.176-1.05 1.988-1.05.924 0 1.526.336 1.526 1.54V23h1.05v-4.774c0-1.47-.742-2.156-2.156-2.156-1.022 0-1.946.574-2.408 1.148v-3.556h-1.05V23h1.05zm8.652.168c.91 0 1.694-.322 2.24-.938V23h1.05v-4.648c0-1.638-1.176-2.282-2.618-2.282-1.106 0-1.974.364-2.702 1.12l.49.728c.602-.658 1.26-.938 2.072-.938.98 0 1.708.518 1.708 1.414v1.218c-.546-.616-1.316-.91-2.24-.91-1.148 0-2.352.7-2.352 2.226 0 1.47 1.218 2.24 2.352 2.24zm.392-.756c-.994 0-1.68-.616-1.68-1.484 0-.854.686-1.47 1.68-1.47.728 0 1.442.28 1.848.826v1.288c-.406.56-1.12.84-1.848.84zm7.168.756c1.736 0 2.646-.91 2.646-2.044 0-2.632-4.186-1.666-4.186-3.136 0-.602.574-1.064 1.498-1.064.882 0 1.61.364 2.016.854l.49-.728c-.532-.546-1.344-.98-2.506-.98-1.61 0-2.506.882-2.506 1.946 0 2.506 4.186 1.498 4.186 3.136 0 .672-.574 1.162-1.61 1.162-.924 0-1.778-.448-2.226-.966l-.532.756c.686.714 1.61 1.064 2.73 1.064zm7.42 0c1.092 0 2.002-.378 2.688-1.05l-.504-.686a2.943 2.943 0 01-2.1.868c-1.456 0-2.338-1.064-2.422-2.338h5.46v-.266c0-2.03-1.204-3.626-3.248-3.626-1.932 0-3.332 1.582-3.332 3.542 0 2.114 1.442 3.556 3.458 3.556zm2.086-3.99H60.89c.056-1.022.77-2.24 2.212-2.24 1.54 0 2.212 1.246 2.226 2.24zm8.344 3.99c.91 0 1.694-.322 2.24-.938V23h1.05v-4.648c0-1.638-1.176-2.282-2.618-2.282-1.106 0-1.974.364-2.702 1.12l.49.728c.602-.658 1.26-.938 2.072-.938.98 0 1.708.518 1.708 1.414v1.218c-.546-.616-1.316-.91-2.24-.91-1.148 0-2.352.7-2.352 2.226 0 1.47 1.218 2.24 2.352 2.24zm.392-.756c-.994 0-1.68-.616-1.68-1.484 0-.854.686-1.47 1.68-1.47.728 0 1.442.28 1.848.826v1.288c-.406.56-1.12.84-1.848.84zm11.004 3.248v-.77H84.2c-.49 0-.924-.476-.924-1.12v-2.954c0-.588-.168-1.036-.63-1.232.462-.196.63-.644.63-1.232v-2.968c0-.658.434-1.106.924-1.106h.868v-.77H84.2c-.882 0-1.736.728-1.736 1.89v2.87c0 .518-.238.966-.742.966v.7c.504 0 .742.448.742.966v2.884c0 1.148.854 1.876 1.736 1.876h.868zm3.654 0v-.77h-.868c-.49 0-.924-.476-.924-1.12v-2.954c0-.588-.168-1.036-.63-1.232.462-.196.63-.644.63-1.232v-2.968c0-.658.434-1.106.924-1.106h.868v-.77h-.868c-.882 0-1.736.728-1.736 1.89v2.87c0 .518-.238.966-.742.966v.7c.504 0 .742.448.742.966v2.884c0 1.148.854 1.876 1.736 1.876h.868zm4.354-2.492c1.092 0 2.002-.378 2.688-1.05l-.504-.686a2.943 2.943 0 01-2.1.868c-1.456 0-2.338-1.064-2.422-2.338h5.46v-.266c0-2.03-1.204-3.626-3.248-3.626-1.932 0-3.332 1.582-3.332 3.542 0 2.114 1.442 3.556 3.458 3.556zm2.086-3.99h-4.438c.056-1.022.77-2.24 2.212-2.24 1.54 0 2.212 1.246 2.226 2.24zM100.846 23l2.814-6.762h-1.134l-2.254 5.544-2.24-5.544h-1.148L99.698 23h1.148zm6.972.168c1.092 0 2.002-.378 2.688-1.05l-.504-.686a2.943 2.943 0 01-2.1.868c-1.456 0-2.338-1.064-2.422-2.338h5.46v-.266c0-2.03-1.204-3.626-3.248-3.626-1.932 0-3.332 1.582-3.332 3.542 0 2.114 1.442 3.556 3.458 3.556zm2.086-3.99h-4.438c.056-1.022.77-2.24 2.212-2.24 1.54 0 2.212 1.246 2.226 2.24zm3.78 3.822v-4.942c.406-.546 1.176-1.05 2.002-1.05.91 0 1.526.364 1.526 1.568V23h1.036v-4.746c0-1.47-.742-2.184-2.142-2.184-1.022 0-1.946.574-2.422 1.148v-.98h-1.05V23h1.05zm8.4.168c.602 0 .98-.182 1.246-.434l-.308-.798a.994.994 0 01-.714.294c-.448 0-.672-.364-.672-.868v-4.2h1.372v-.924h-1.372V14.39h-1.064v1.848h-1.12v.924h1.12v4.424c0 1.008.504 1.582 1.512 1.582zm2.954-.028c.42 0 .77-.35.77-.77 0-.42-.35-.77-.77-.77-.42 0-.77.35-.77.77 0 .42.35.77.77.77zm3.724 2.436v-3.598c.56.742 1.358 1.19 2.282 1.19 1.778 0 3.01-1.372 3.01-3.556 0-2.198-1.232-3.542-3.01-3.542-.952 0-1.792.49-2.282 1.176v-1.008h-1.05v9.338h1.05zm2.016-3.346c-.826 0-1.652-.504-2.016-1.092v-3.052c.364-.588 1.19-1.078 2.016-1.078 1.358 0 2.17 1.106 2.17 2.604s-.812 2.618-2.17 2.618zm5.992.77v-4.788c.308-.546 1.19-1.078 1.848-1.078.154 0 .28.014.406.028v-1.078c-.924 0-1.708.532-2.254 1.232v-1.078h-1.05V23h1.05zm6.524.168c2.058 0 3.346-1.596 3.346-3.556s-1.288-3.542-3.346-3.542-3.346 1.582-3.346 3.542c0 1.96 1.288 3.556 3.346 3.556zm0-.938c-1.442 0-2.24-1.232-2.24-2.618 0-1.372.798-2.604 2.24-2.604 1.442 0 2.24 1.232 2.24 2.604 0 1.386-.798 2.618-2.24 2.618zm7.672.938c.952 0 1.778-.49 2.282-1.176V23h1.05v-9.338h-1.05v3.598c-.546-.742-1.372-1.19-2.282-1.19-1.764 0-3.01 1.386-3.01 3.556 0 2.198 1.246 3.542 3.01 3.542zm.266-.938c-1.372 0-2.184-1.106-2.184-2.604s.812-2.618 2.184-2.618c.826 0 1.652.504 2.016 1.092v3.052c-.364.588-1.19 1.078-2.016 1.078zm7.322.938c1.008 0 1.89-.532 2.408-1.12V23h1.05v-6.762h-1.05v4.97c-.392.546-1.176 1.022-1.988 1.022-.924 0-1.526-.35-1.526-1.54v-4.452h-1.05v4.774c0 1.456.742 2.156 2.156 2.156zm8.54 0c1.232 0 1.96-.504 2.478-1.176l-.7-.644c-.448.602-1.022.882-1.722.882-1.428 0-2.338-1.12-2.338-2.618 0-1.498.91-2.604 2.338-2.604.7 0 1.274.252 1.722.868l.7-.63c-.518-.672-1.246-1.176-2.478-1.176-2.016 0-3.374 1.54-3.374 3.542s1.358 3.556 3.374 3.556zm5.684 0c.602 0 .98-.182 1.246-.434l-.308-.798a.994.994 0 01-.714.294c-.448 0-.672-.364-.672-.868v-4.2h1.372v-.924h-1.372V14.39h-1.064v1.848h-1.12v.924h1.12v4.424c0 1.008.504 1.582 1.512 1.582zm9.282 1.162v-.77h-7.98v.77h7.98zm2.058-1.33v-4.942c.406-.546 1.176-1.05 2.002-1.05.91 0 1.526.364 1.526 1.568V23h1.036v-4.746c0-1.47-.742-2.184-2.142-2.184-1.022 0-1.946.574-2.422 1.148v-.98h-1.05V23h1.05zm8.666.168c.91 0 1.694-.322 2.24-.938V23h1.05v-4.648c0-1.638-1.176-2.282-2.618-2.282-1.106 0-1.974.364-2.702 1.12l.49.728c.602-.658 1.26-.938 2.072-.938.98 0 1.708.518 1.708 1.414v1.218c-.546-.616-1.316-.91-2.24-.91-1.148 0-2.352.7-2.352 2.226 0 1.47 1.218 2.24 2.352 2.24zm.392-.756c-.994 0-1.68-.616-1.68-1.484 0-.854.686-1.47 1.68-1.47.728 0 1.442.28 1.848.826v1.288c-.406.56-1.12.84-1.848.84zm6.062.588v-4.942c.364-.546 1.092-1.05 1.778-1.05.896 0 1.246.546 1.246 1.4V23h1.05v-4.956c.35-.546 1.092-1.036 1.792-1.036.882 0 1.246.546 1.246 1.4V23h1.05v-4.886c0-1.358-.658-2.044-1.89-2.044-.98 0-1.89.644-2.268 1.26-.196-.7-.784-1.26-1.806-1.26-1.008 0-1.904.714-2.198 1.148v-.98h-1.05V23h1.05zm13.328.168c1.092 0 2.002-.378 2.688-1.05l-.504-.686a2.943 2.943 0 01-2.1.868c-1.456 0-2.338-1.064-2.422-2.338h5.46v-.266c0-2.03-1.204-3.626-3.248-3.626-1.932 0-3.332 1.582-3.332 3.542 0 2.114 1.442 3.556 3.458 3.556zm2.086-3.99h-4.438c.056-1.022.77-2.24 2.212-2.24 1.54 0 2.212 1.246 2.226 2.24zm2.772 6.482c.896 0 1.75-.728 1.75-1.876V20.9c0-.518.238-.966.728-.966v-.7c-.49 0-.728-.448-.728-.966v-2.87c0-1.162-.854-1.89-1.75-1.89h-.854v.77h.854c.504 0 .938.448.938 1.106v2.968c0 .588.168 1.036.63 1.232-.462.196-.63.644-.63 1.232v2.954c0 .644-.434 1.12-.938 1.12h-.854v.77h.854zm3.654 0c.896 0 1.75-.728 1.75-1.876V20.9c0-.518.238-.966.728-.966v-.7c-.49 0-.728-.448-.728-.966v-2.87c0-1.162-.854-1.89-1.75-1.89h-.854v.77h.854c.504 0 .938.448.938 1.106v2.968c0 .588.168 1.036.63 1.232-.462.196-.63.644-.63 1.232v2.954c0 .644-.434 1.12-.938 1.12h-.854v.77h.854zm9.226-2.492c.91 0 1.694-.322 2.24-.938V23h1.05v-4.648c0-1.638-1.176-2.282-2.618-2.282-1.106 0-1.974.364-2.702 1.12l.49.728c.602-.658 1.26-.938 2.072-.938.98 0 1.708.518 1.708 1.414v1.218c-.546-.616-1.316-.91-2.24-.91-1.148 0-2.352.7-2.352 2.226 0 1.47 1.218 2.24 2.352 2.24zm.392-.756c-.994 0-1.68-.616-1.68-1.484 0-.854.686-1.47 1.68-1.47.728 0 1.442.28 1.848.826v1.288c-.406.56-1.12.84-1.848.84zm6.062.588v-4.942c.406-.546 1.176-1.05 2.002-1.05.91 0 1.526.364 1.526 1.568V23h1.036v-4.746c0-1.47-.742-2.184-2.142-2.184-1.022 0-1.946.574-2.422 1.148v-.98h-1.05V23h1.05zm9.296.168c.952 0 1.778-.49 2.282-1.176V23h1.05v-9.338h-1.05v3.598c-.546-.742-1.372-1.19-2.282-1.19-1.764 0-3.01 1.386-3.01 3.556 0 2.198 1.246 3.542 3.01 3.542zm.266-.938c-1.372 0-2.184-1.106-2.184-2.604s.812-2.618 2.184-2.618c.826 0 1.652.504 2.016 1.092v3.052c-.364.588-1.19 1.078-2.016 1.078zm10.948.938c1.736 0 2.646-.91 2.646-2.044 0-2.632-4.186-1.666-4.186-3.136 0-.602.574-1.064 1.498-1.064.882 0 1.61.364 2.016.854l.49-.728c-.532-.546-1.344-.98-2.506-.98-1.61 0-2.506.882-2.506 1.946 0 2.506 4.186 1.498 4.186 3.136 0 .672-.574 1.162-1.61 1.162-.924 0-1.778-.448-2.226-.966l-.532.756c.686.714 1.61 1.064 2.73 1.064zm6.342 0c.91 0 1.694-.322 2.24-.938V23h1.05v-4.648c0-1.638-1.176-2.282-2.618-2.282-1.106 0-1.974.364-2.702 1.12l.49.728c.602-.658 1.26-.938 2.072-.938.98 0 1.708.518 1.708 1.414v1.218c-.546-.616-1.316-.91-2.24-.91-1.148 0-2.352.7-2.352 2.226 0 1.47 1.218 2.24 2.352 2.24zm.392-.756c-.994 0-1.68-.616-1.68-1.484 0-.854.686-1.47 1.68-1.47.728 0 1.442.28 1.848.826v1.288c-.406.56-1.12.84-1.848.84zm7.966.588l2.814-6.762h-1.134l-2.254 5.544-2.24-5.544h-1.148L270.82 23h1.148zm6.972.168c1.092 0 2.002-.378 2.688-1.05l-.504-.686a2.943 2.943 0 01-2.1.868c-1.456 0-2.338-1.064-2.422-2.338h5.46v-.266c0-2.03-1.204-3.626-3.248-3.626-1.932 0-3.332 1.582-3.332 3.542 0 2.114 1.442 3.556 3.458 3.556zm2.086-3.99h-4.438c.056-1.022.77-2.24 2.212-2.24 1.54 0 2.212 1.246 2.226 2.24zm8.512 3.99c1.008 0 1.89-.532 2.408-1.12V23h1.05v-6.762h-1.05v4.97c-.392.546-1.176 1.022-1.988 1.022-.924 0-1.526-.35-1.526-1.54v-4.452h-1.05v4.774c0 1.456.742 2.156 2.156 2.156zm6.608 2.408v-3.598c.56.742 1.358 1.19 2.282 1.19 1.778 0 3.01-1.372 3.01-3.556 0-2.198-1.232-3.542-3.01-3.542-.952 0-1.792.49-2.282 1.176v-1.008h-1.05v9.338h1.05zm2.016-3.346c-.826 0-1.652-.504-2.016-1.092v-3.052c.364-.588 1.19-1.078 2.016-1.078 1.358 0 2.17 1.106 2.17 2.604s-.812 2.618-2.17 2.618zM12.772 41.168c.602 0 .98-.182 1.246-.434l-.308-.798a.994.994 0 01-.714.294c-.448 0-.672-.364-.672-.868v-4.2h1.372v-.924h-1.372V32.39H11.26v1.848h-1.12v.924h1.12v4.424c0 1.008.504 1.582 1.512 1.582zm5.348 0c2.058 0 3.346-1.596 3.346-3.556s-1.288-3.542-3.346-3.542-3.346 1.582-3.346 3.542c0 1.96 1.288 3.556 3.346 3.556zm0-.938c-1.442 0-2.24-1.232-2.24-2.618 0-1.372.798-2.604 2.24-2.604 1.442 0 2.24 1.232 2.24 2.604 0 1.386-.798 2.618-2.24 2.618zm11.046 3.43v-.77h-.868c-.49 0-.924-.476-.924-1.12v-2.954c0-.588-.168-1.036-.63-1.232.462-.196.63-.644.63-1.232v-2.968c0-.658.434-1.106.924-1.106h.868v-.77h-.868c-.882 0-1.736.728-1.736 1.89v2.87c0 .518-.238.966-.742.966v.7c.504 0 .742.448.742.966v2.884c0 1.148.854 1.876 1.736 1.876h.868zm3.654 0v-.77h-.868c-.49 0-.924-.476-.924-1.12v-2.954c0-.588-.168-1.036-.63-1.232.462-.196.63-.644.63-1.232v-2.968c0-.658.434-1.106.924-1.106h.868v-.77h-.868c-.882 0-1.736.728-1.736 1.89v2.87c0 .518-.238.966-.742.966v.7c.504 0 .742.448.742.966v2.884c0 1.148.854 1.876 1.736 1.876h.868zm4.354-2.492c1.092 0 2.002-.378 2.688-1.05l-.504-.686a2.943 2.943 0 01-2.1.868c-1.456 0-2.338-1.064-2.422-2.338h5.46v-.266c0-2.03-1.204-3.626-3.248-3.626-1.932 0-3.332 1.582-3.332 3.542 0 2.114 1.442 3.556 3.458 3.556zm2.086-3.99h-4.438c.056-1.022.77-2.24 2.212-2.24 1.54 0 2.212 1.246 2.226 2.24zM44.944 41l2.814-6.762h-1.134l-2.254 5.544-2.24-5.544h-1.148L43.796 41h1.148zm6.972.168c1.092 0 2.002-.378 2.688-1.05l-.504-.686a2.943 2.943 0 01-2.1.868c-1.456 0-2.338-1.064-2.422-2.338h5.46v-.266c0-2.03-1.204-3.626-3.248-3.626-1.932 0-3.332 1.582-3.332 3.542 0 2.114 1.442 3.556 3.458 3.556zm2.086-3.99h-4.438c.056-1.022.77-2.24 2.212-2.24 1.54 0 2.212 1.246 2.226 2.24zM57.782 41v-4.942c.406-.546 1.176-1.05 2.002-1.05.91 0 1.526.364 1.526 1.568V41h1.036v-4.746c0-1.47-.742-2.184-2.142-2.184-1.022 0-1.946.574-2.422 1.148v-.98h-1.05V41h1.05zm8.4.168c.602 0 .98-.182 1.246-.434l-.308-.798a.994.994 0 01-.714.294c-.448 0-.672-.364-.672-.868v-4.2h1.372v-.924h-1.372V32.39H64.67v1.848h-1.12v.924h1.12v4.424c0 1.008.504 1.582 1.512 1.582zm2.954-.028c.42 0 .77-.35.77-.77 0-.42-.35-.77-.77-.77-.42 0-.77.35-.77.77 0 .42.35.77.77.77zM72.86 41v-4.942c.364-.546 1.092-1.05 1.778-1.05.896 0 1.246.546 1.246 1.4V41h1.05v-4.956c.35-.546 1.092-1.036 1.792-1.036.882 0 1.246.546 1.246 1.4V41h1.05v-4.886c0-1.358-.658-2.044-1.89-2.044-.98 0-1.89.644-2.268 1.26-.196-.7-.784-1.26-1.806-1.26-1.008 0-1.904.714-2.198 1.148v-.98h-1.05V41h1.05zm12.25.168c.91 0 1.694-.322 2.24-.938V41h1.05v-4.648c0-1.638-1.176-2.282-2.618-2.282-1.106 0-1.974.364-2.702 1.12l.49.728c.602-.658 1.26-.938 2.072-.938.98 0 1.708.518 1.708 1.414v1.218c-.546-.616-1.316-.91-2.24-.91-1.148 0-2.352.7-2.352 2.226 0 1.47 1.218 2.24 2.352 2.24zm.392-.756c-.994 0-1.68-.616-1.68-1.484 0-.854.686-1.47 1.68-1.47.728 0 1.442.28 1.848.826v1.288c-.406.56-1.12.84-1.848.84zm5.334.588l2.03-2.772L94.91 41h1.204l-2.604-3.472 2.45-3.29h-1.204l-1.89 2.576-1.876-2.576h-1.218l2.45 3.29L89.632 41h1.204zm13.384 1.33v-.77h-7.98v.77h7.98zm3.962-1.162c2.058 0 3.346-1.596 3.346-3.556s-1.288-3.542-3.346-3.542-3.346 1.582-3.346 3.542c0 1.96 1.288 3.556 3.346 3.556zm0-.938c-1.442 0-2.24-1.232-2.24-2.618 0-1.372.798-2.604 2.24-2.604 1.442 0 2.24 1.232 2.24 2.604 0 1.386-.798 2.618-2.24 2.618zm6.398.77v-5.838h1.372v-.924h-1.372v-.518c0-.868.378-1.33 1.078-1.33.336 0 .602.126.826.322l.434-.672c-.42-.392-.882-.518-1.428-.518-1.19 0-1.96.812-1.96 2.198v.518h-1.12v.924h1.12V41h1.05zm3.976 0v-5.838h1.372v-.924h-1.372v-.518c0-.868.378-1.33 1.078-1.33.336 0 .602.126.826.322l.434-.672c-.42-.392-.882-.518-1.428-.518-1.19 0-1.96.812-1.96 2.198v.518h-1.12v.924h1.12V41h1.05zm3.696 2.66c.896 0 1.75-.728 1.75-1.876V38.9c0-.518.238-.966.728-.966v-.7c-.49 0-.728-.448-.728-.966v-2.87c0-1.162-.854-1.89-1.75-1.89h-.854v.77h.854c.504 0 .938.448.938 1.106v2.968c0 .588.168 1.036.63 1.232-.462.196-.63.644-.63 1.232v2.954c0 .644-.434 1.12-.938 1.12h-.854v.77h.854zm3.654 0c.896 0 1.75-.728 1.75-1.876V38.9c0-.518.238-.966.728-.966v-.7c-.49 0-.728-.448-.728-.966v-2.87c0-1.162-.854-1.89-1.75-1.89h-.854v.77h.854c.504 0 .938.448.938 1.106v2.968c0 .588.168 1.036.63 1.232-.462.196-.63.644-.63 1.232v2.954c0 .644-.434 1.12-.938 1.12h-.854v.77h.854zm4.172-2.52c.42 0 .77-.35.77-.77 0-.42-.35-.77-.77-.77-.42 0-.77.35-.77.77 0 .42.35.77.77.77zm7.504-.14v-4.284h5.46V41h1.162v-9.338h-1.162v4.018h-5.46v-4.018h-1.162V41h1.162zm10.92.168c1.008 0 1.89-.532 2.408-1.12V41h1.05v-6.762h-1.05v4.97c-.392.546-1.176 1.022-1.988 1.022-.924 0-1.526-.35-1.526-1.54v-4.452h-1.05v4.774c0 1.456.742 2.156 2.156 2.156zM155.11 41v-4.788c.308-.546 1.19-1.078 1.848-1.078.154 0 .28.014.406.028v-1.078c-.924 0-1.708.532-2.254 1.232v-1.078h-1.05V41h1.05zm4.62 0v-4.788c.308-.546 1.19-1.078 1.848-1.078.154 0 .28.014.406.028v-1.078c-.924 0-1.708.532-2.254 1.232v-1.078h-1.05V41h1.05zm3.962 2.744c.896-.014 1.582-.392 1.988-1.372l3.388-8.134h-1.134l-2.254 5.544-2.24-5.544h-1.148l2.828 6.832-.448 1.022c-.238.56-.546.714-1.008.714a1.61 1.61 0 01-.574-.112l-.154.952c.182.056.532.098.756.098zm13.426-2.576c1.764 0 3.01-1.344 3.01-3.542 0-2.17-1.232-3.556-3.01-3.556-.91 0-1.736.448-2.282 1.19v-3.598h-1.05V41h1.05v-1.008c.504.686 1.33 1.176 2.282 1.176zm-.252-.938c-.84 0-1.666-.476-2.03-1.064V36.1c.364-.588 1.19-1.092 2.03-1.092 1.358 0 2.17 1.12 2.17 2.618 0 1.498-.812 2.604-2.17 2.604zm8.036.938c1.092 0 2.002-.378 2.688-1.05l-.504-.686a2.943 2.943 0 01-2.1.868c-1.456 0-2.338-1.064-2.422-2.338h5.46v-.266c0-2.03-1.204-3.626-3.248-3.626-1.932 0-3.332 1.582-3.332 3.542 0 2.114 1.442 3.556 3.458 3.556zm2.086-3.99h-4.438c.056-1.022.77-2.24 2.212-2.24 1.54 0 2.212 1.246 2.226 2.24zM191.062 41v-5.838h1.372v-.924h-1.372v-.518c0-.868.378-1.33 1.078-1.33.336 0 .602.126.826.322l.434-.672c-.42-.392-.882-.518-1.428-.518-1.19 0-1.96.812-1.96 2.198v.518h-1.12v.924h1.12V41h1.05zm5.586.168c2.058 0 3.346-1.596 3.346-3.556s-1.288-3.542-3.346-3.542-3.346 1.582-3.346 3.542c0 1.96 1.288 3.556 3.346 3.556zm0-.938c-1.442 0-2.24-1.232-2.24-2.618 0-1.372.798-2.604 2.24-2.604 1.442 0 2.24 1.232 2.24 2.604 0 1.386-.798 2.618-2.24 2.618zm6.104.77v-4.788c.308-.546 1.19-1.078 1.848-1.078.154 0 .28.014.406.028v-1.078c-.924 0-1.708.532-2.254 1.232v-1.078h-1.05V41h1.05zm6.636.168c1.092 0 2.002-.378 2.688-1.05l-.504-.686a2.943 2.943 0 01-2.1.868c-1.456 0-2.338-1.064-2.422-2.338h5.46v-.266c0-2.03-1.204-3.626-3.248-3.626-1.932 0-3.332 1.582-3.332 3.542 0 2.114 1.442 3.556 3.458 3.556zm2.086-3.99h-4.438c.056-1.022.77-2.24 2.212-2.24 1.54 0 2.212 1.246 2.226 2.24zm8.078 3.99c.602 0 .98-.182 1.246-.434l-.308-.798a.994.994 0 01-.714.294c-.448 0-.672-.364-.672-.868v-4.2h1.372v-.924h-1.372V32.39h-1.064v1.848h-1.12v.924h1.12v4.424c0 1.008.504 1.582 1.512 1.582zM223.01 41v-4.942c.392-.546 1.176-1.05 1.988-1.05.924 0 1.526.336 1.526 1.54V41h1.05v-4.774c0-1.47-.742-2.156-2.156-2.156-1.022 0-1.946.574-2.408 1.148v-3.556h-1.05V41h1.05zm9.73.168c1.092 0 2.002-.378 2.688-1.05l-.504-.686a2.943 2.943 0 01-2.1.868c-1.456 0-2.338-1.064-2.422-2.338h5.46v-.266c0-2.03-1.204-3.626-3.248-3.626-1.932 0-3.332 1.582-3.332 3.542 0 2.114 1.442 3.556 3.458 3.556zm2.086-3.99h-4.438c.056-1.022.77-2.24 2.212-2.24 1.54 0 2.212 1.246 2.226 2.24zm3.122 6.566c.896-.014 1.582-.392 1.988-1.372l3.388-8.134h-1.134l-2.254 5.544-2.24-5.544h-1.148l2.828 6.832-.448 1.022c-.238.56-.546.714-1.008.714a1.61 1.61 0 01-.574-.112l-.154.952c.182.056.532.098.756.098zm12.81 0c1.652 0 3.234-.7 3.234-2.842v-6.664h-1.05v1.022c-.546-.742-1.372-1.19-2.282-1.19-1.778 0-3.01 1.344-3.01 3.514 0 2.184 1.246 3.5 3.01 3.5.952 0 1.778-.518 2.282-1.204v1.022c0 1.428-1.064 1.974-2.184 1.974-.966 0-1.638-.252-2.198-.91l-.532.756c.812.798 1.596 1.022 2.73 1.022zm.168-3.598c-1.372 0-2.184-1.078-2.184-2.562 0-1.498.812-2.576 2.184-2.576.826 0 1.638.504 2.016 1.078v2.968c-.378.588-1.19 1.092-2.016 1.092zm8.12 1.022c2.058 0 3.346-1.596 3.346-3.556s-1.288-3.542-3.346-3.542-3.346 1.582-3.346 3.542c0 1.96 1.288 3.556 3.346 3.556zm0-.938c-1.442 0-2.24-1.232-2.24-2.618 0-1.372.798-2.604 2.24-2.604 1.442 0 2.24 1.232 2.24 2.604 0 1.386-.798 2.618-2.24 2.618z"/></g><path fill="#384254" fill-rule="nonzero" d="M18.632 105v-7.21l2.87 7.21h.7l2.856-7.21V105h1.638v-9.338h-2.31l-2.534 6.412-2.548-6.412h-2.31V105h1.638zm13.146.168c1.064 0 2.058-.35 2.744-.994l-.672-.966c-.49.49-1.26.756-1.932.756-1.274 0-2.03-.854-2.142-1.862h5.208v-.364c0-2.128-1.288-3.668-3.318-3.668-2.002 0-3.43 1.582-3.43 3.542 0 2.142 1.498 3.556 3.542 3.556zm1.792-4.116h-3.808c.056-.812.644-1.778 1.89-1.778 1.33 0 1.876.98 1.918 1.778zm5.194 4.116c1.82 0 2.814-.91 2.814-2.114 0-2.688-4.088-1.792-4.088-2.982 0-.476.476-.84 1.246-.84.854 0 1.596.364 2.002.812l.616-1.036c-.602-.532-1.47-.938-2.618-.938-1.708 0-2.66.938-2.66 2.044 0 2.604 4.088 1.652 4.088 2.982 0 .532-.462.896-1.344.896-.868 0-1.806-.448-2.282-.938l-.672 1.05c.7.686 1.736 1.064 2.898 1.064zm6.608 0c1.82 0 2.814-.91 2.814-2.114 0-2.688-4.088-1.792-4.088-2.982 0-.476.476-.84 1.246-.84.854 0 1.596.364 2.002.812l.616-1.036c-.602-.532-1.47-.938-2.618-.938-1.708 0-2.66.938-2.66 2.044 0 2.604 4.088 1.652 4.088 2.982 0 .532-.462.896-1.344.896-.868 0-1.806-.448-2.282-.938l-.672 1.05c.7.686 1.736 1.064 2.898 1.064zm6.23 0c.896 0 1.694-.322 2.198-.91V105h1.47v-4.494c0-1.806-1.316-2.436-2.828-2.436-1.078 0-2.058.336-2.842 1.092l.616 1.022c.574-.588 1.246-.868 2.002-.868.924 0 1.582.476 1.582 1.26v1.008c-.504-.574-1.274-.868-2.198-.868-1.106 0-2.338.644-2.338 2.212 0 1.484 1.246 2.24 2.338 2.24zm.588-1.008c-.826 0-1.456-.476-1.456-1.218 0-.728.63-1.218 1.456-1.218.63 0 1.26.238 1.61.7v1.036c-.35.462-.98.7-1.61.7zm7.742 3.584c1.652 0 3.472-.658 3.472-3.094v-6.412h-1.47v.938c-.546-.728-1.316-1.106-2.17-1.106-1.75 0-2.996 1.274-2.996 3.472 0 2.226 1.274 3.472 2.996 3.472.882 0 1.652-.448 2.17-1.134v.77c0 1.442-1.036 1.89-2.002 1.89-.896 0-1.596-.238-2.156-.868l-.686 1.064c.84.756 1.694 1.008 2.842 1.008zm.266-4.046c-1.176 0-1.918-.854-1.918-2.156s.742-2.17 1.918-2.17c.686 0 1.4.406 1.736.896v2.534c-.336.49-1.05.896-1.736.896zm8.246 1.47c1.064 0 2.058-.35 2.744-.994l-.672-.966c-.49.49-1.26.756-1.932.756-1.274 0-2.03-.854-2.142-1.862h5.208v-.364c0-2.128-1.288-3.668-3.318-3.668-2.002 0-3.43 1.582-3.43 3.542 0 2.142 1.498 3.556 3.542 3.556zm1.792-4.116h-3.808c.056-.812.644-1.778 1.89-1.778 1.33 0 1.876.98 1.918 1.778z"/></g><g transform="translate(183 229)"><use fill="#000" filter="url(#g)" xlink:href="#h"/><rect width="273" height="109" x="-.5" y="-.5" fill="#FFF" stroke="#E1E1E1" rx="12"/><path fill="#384254" fill-rule="nonzero" d="M14.604 53.168c1.806 0 3.15-1.008 3.15-3.136v-6.37h-1.638v6.356c0 1.008-.644 1.694-1.638 1.694-.714 0-1.232-.364-1.596-.784l-.77 1.246c.672.7 1.526.994 2.492.994zm8.162 0c2.156 0 3.472-1.624 3.472-3.556 0-1.946-1.316-3.542-3.472-3.542-2.156 0-3.472 1.596-3.472 3.542 0 1.932 1.316 3.556 3.472 3.556zm0-1.302c-1.246 0-1.946-1.05-1.946-2.254 0-1.19.7-2.24 1.946-2.24 1.26 0 1.946 1.05 1.946 2.24 0 1.204-.686 2.254-1.946 2.254zm8.106 1.302c1.064 0 2.058-.35 2.744-.994l-.672-.966c-.49.49-1.26.756-1.932.756-1.274 0-2.03-.854-2.142-1.862h5.208v-.364c0-2.128-1.288-3.668-3.318-3.668-2.002 0-3.43 1.582-3.43 3.542 0 2.142 1.498 3.556 3.542 3.556zm1.792-4.116h-3.808c.056-.812.644-1.778 1.89-1.778 1.33 0 1.876.98 1.918 1.778zM43.906 53c1.764 0 2.716-1.078 2.716-2.534 0-1.134-.798-2.128-1.806-2.282.868-.182 1.624-.98 1.624-2.142 0-1.316-.938-2.38-2.66-2.38h-4.592V53h4.718zm-.448-5.488h-2.632v-2.408h2.632c.826 0 1.302.518 1.302 1.204 0 .714-.476 1.204-1.302 1.204zm.07 4.046h-2.702v-2.604h2.702c.924 0 1.414.602 1.414 1.302 0 .812-.532 1.302-1.414 1.302zM49.702 53v-9.338h-1.47V53h1.47zm4.97.168c2.156 0 3.472-1.624 3.472-3.556 0-1.946-1.316-3.542-3.472-3.542-2.156 0-3.472 1.596-3.472 3.542 0 1.932 1.316 3.556 3.472 3.556zm0-1.302c-1.246 0-1.946-1.05-1.946-2.254 0-1.19.7-2.24 1.946-2.24 1.26 0 1.946 1.05 1.946 2.24 0 1.204-.686 2.254-1.946 2.254zm7.728 3.878c1.652 0 3.472-.658 3.472-3.094v-6.412h-1.47v.938c-.546-.728-1.316-1.106-2.17-1.106-1.75 0-2.996 1.274-2.996 3.472 0 2.226 1.274 3.472 2.996 3.472.882 0 1.652-.448 2.17-1.134v.77c0 1.442-1.036 1.89-2.002 1.89-.896 0-1.596-.238-2.156-.868l-.686 1.064c.84.756 1.694 1.008 2.842 1.008zm.266-4.046c-1.176 0-1.918-.854-1.918-2.156s.742-2.17 1.918-2.17c.686 0 1.4.406 1.736.896v2.534c-.336.49-1.05.896-1.736.896zm7.868 4.046c1.652 0 3.472-.658 3.472-3.094v-6.412h-1.47v.938c-.546-.728-1.316-1.106-2.17-1.106-1.75 0-2.996 1.274-2.996 3.472 0 2.226 1.274 3.472 2.996 3.472.882 0 1.652-.448 2.17-1.134v.77c0 1.442-1.036 1.89-2.002 1.89-.896 0-1.596-.238-2.156-.868l-.686 1.064c.84.756 1.694 1.008 2.842 1.008zm.266-4.046c-1.176 0-1.918-.854-1.918-2.156s.742-2.17 1.918-2.17c.686 0 1.4.406 1.736.896v2.534c-.336.49-1.05.896-1.736.896zm7.434 1.47c1.82 0 2.814-.91 2.814-2.114 0-2.688-4.088-1.792-4.088-2.982 0-.476.476-.84 1.246-.84.854 0 1.596.364 2.002.812l.616-1.036c-.602-.532-1.47-.938-2.618-.938-1.708 0-2.66.938-2.66 2.044 0 2.604 4.088 1.652 4.088 2.982 0 .532-.462.896-1.344.896-.868 0-1.806-.448-2.282-.938l-.672 1.05c.7.686 1.736 1.064 2.898 1.064zm4.802 1.694c.77-.546 1.302-1.428 1.302-2.394 0-.812-.504-1.274-1.078-1.274a.953.953 0 00-.952.952c0 .518.364.896.826.896.098 0 .21-.028.238-.042-.084.476-.56 1.05-1.008 1.316l.672.546zm9.282.882c1.652 0 3.472-.658 3.472-3.094v-6.412h-1.47v.938c-.546-.728-1.316-1.106-2.17-1.106-1.75 0-2.996 1.274-2.996 3.472 0 2.226 1.274 3.472 2.996 3.472.882 0 1.652-.448 2.17-1.134v.77c0 1.442-1.036 1.89-2.002 1.89-.896 0-1.596-.238-2.156-.868l-.686 1.064c.84.756 1.694 1.008 2.842 1.008zm.266-4.046c-1.176 0-1.918-.854-1.918-2.156s.742-2.17 1.918-2.17c.686 0 1.4.406 1.736.896v2.534c-.336.49-1.05.896-1.736.896zm8.246 1.47c1.064 0 2.058-.35 2.744-.994l-.672-.966c-.49.49-1.26.756-1.932.756-1.274 0-2.03-.854-2.142-1.862h5.208v-.364c0-2.128-1.288-3.668-3.318-3.668-2.002 0-3.43 1.582-3.43 3.542 0 2.142 1.498 3.556 3.542 3.556zm1.792-4.116h-3.808c.056-.812.644-1.778 1.89-1.778 1.33 0 1.876.98 1.918 1.778zm4.914 4.116c.672 0 1.106-.196 1.372-.434l-.35-1.12c-.112.126-.364.252-.644.252-.42 0-.644-.35-.644-.812v-3.542h1.372v-1.274h-1.372V44.39h-1.47v1.848h-1.12v1.274h1.12v3.906c0 1.134.588 1.75 1.736 1.75zm8.218 0a3.234 3.234 0 002.38-1.064V53h1.47v-6.762h-1.47v4.746c-.336.448-.98.882-1.722.882-.84 0-1.372-.336-1.372-1.386v-4.242h-1.47v4.788c0 1.372.728 2.142 2.184 2.142zm7.224 2.408v-3.514c.56.714 1.316 1.106 2.17 1.106 1.75 0 2.996-1.33 2.996-3.556s-1.246-3.542-2.996-3.542c-.882 0-1.666.42-2.17 1.092v-.924h-1.47v9.338h1.47zm1.736-3.71c-.686 0-1.414-.42-1.736-.924v-2.674c.336-.504 1.05-.896 1.736-.896 1.162 0 1.918.924 1.918 2.24 0 1.316-.756 2.254-1.918 2.254zm10.556 1.302c.672 0 1.106-.196 1.372-.434l-.35-1.12c-.112.126-.364.252-.644.252-.42 0-.644-.35-.644-.812v-3.542h1.372v-1.274h-1.372V44.39h-1.47v1.848h-1.12v1.274h1.12v3.906c0 1.134.588 1.75 1.736 1.75zm5.488 0c2.156 0 3.472-1.624 3.472-3.556 0-1.946-1.316-3.542-3.472-3.542-2.156 0-3.472 1.596-3.472 3.542 0 1.932 1.316 3.556 3.472 3.556zm0-1.302c-1.246 0-1.946-1.05-1.946-2.254 0-1.19.7-2.24 1.946-2.24 1.26 0 1.946 1.05 1.946 2.24 0 1.204-.686 2.254-1.946 2.254zM155.85 53v-1.442h-4.13c2.492-1.89 4.074-3.43 4.074-5.166 0-1.862-1.568-2.87-3.374-2.87-1.316 0-2.632.49-3.458 1.498l.952 1.064c.602-.672 1.428-1.106 2.52-1.106.854 0 1.708.434 1.708 1.414 0 1.358-1.428 2.562-5.054 5.306V53h6.762zm5.194.168c2.618 0 3.724-2.492 3.724-4.83 0-2.352-1.106-4.816-3.724-4.816-2.632 0-3.738 2.464-3.738 4.816 0 2.338 1.106 4.83 3.738 4.83zm0-1.456c-1.526 0-2.072-1.596-2.072-3.374 0-1.792.546-3.36 2.072-3.36s2.058 1.568 2.058 3.36c0 1.778-.546 3.374-2.058 3.374zm7.028-3.556c1.4 0 2.324-1.008 2.324-2.31 0-1.316-.924-2.324-2.324-2.324-1.386 0-2.324 1.008-2.324 2.324 0 1.302.938 2.31 2.324 2.31zM168.1 53l5.978-9.338h-.952L167.162 53h.938zm-.028-5.782c-.714 0-1.232-.56-1.232-1.372 0-.826.518-1.4 1.232-1.4.728 0 1.246.574 1.246 1.4 0 .812-.518 1.372-1.246 1.372zm5.026 5.95c1.386 0 2.324-1.008 2.324-2.31 0-1.316-.938-2.324-2.324-2.324s-2.324 1.008-2.324 2.324c0 1.302.938 2.31 2.324 2.31zm0-.938c-.728 0-1.246-.56-1.246-1.372 0-.826.518-1.4 1.246-1.4s1.246.574 1.246 1.4c0 .812-.518 1.372-1.246 1.372zm10.346.938c2.156 0 3.472-1.624 3.472-3.556 0-1.946-1.316-3.542-3.472-3.542-2.156 0-3.472 1.596-3.472 3.542 0 1.932 1.316 3.556 3.472 3.556zm0-1.302c-1.246 0-1.946-1.05-1.946-2.254 0-1.19.7-2.24 1.946-2.24 1.26 0 1.946 1.05 1.946 2.24 0 1.204-.686 2.254-1.946 2.254zM190.248 53v-5.488h1.372v-1.274h-1.372v-.378c0-.756.35-1.134.938-1.134.322 0 .574.112.77.294l.574-.91c-.406-.434-1.008-.588-1.624-.588-1.274 0-2.128.868-2.128 2.338v.378h-1.12v1.274h1.12V53h1.47zm4.326 0v-5.488h1.372v-1.274h-1.372v-.378c0-.756.35-1.134.938-1.134.322 0 .574.112.77.294l.574-.91c-.406-.434-1.008-.588-1.624-.588-1.274 0-2.128.868-2.128 2.338v.378h-1.12v1.274h1.12V53h1.47zm2.618.154c.532 0 .98-.462.98-.994 0-.518-.448-.966-.98-.966s-.98.448-.98.966c0 .532.448.994.98.994z"/><g transform="translate(12 12)"><rect width="20" height="20" fill="url(#i)" rx="4"/><path fill="#FFF" fill-rule="nonzero" d="M8.745 14v-.154H7.734V6.322h.396c.27 0 .513.027.725.082.213.056.404.15.572.287.17.135.32.324.452.566.132.242.253.55.363.924h.142V6.168H3.487v2.013h.143c.11-.374.232-.682.364-.924.131-.242.282-.43.45-.566.17-.136.36-.231.572-.287a2.96 2.96 0 01.726-.082h.396v7.524H5.127V14h3.619zm4.935.154a3.41 3.41 0 001.237-.214c.37-.143.69-.336.957-.578a2.56 2.56 0 00.621-.847 2.44 2.44 0 00.22-1.023c0-.367-.067-.675-.203-.924a2.084 2.084 0 00-.534-.638 2.977 2.977 0 00-.753-.434 12.805 12.805 0 00-.869-.314 128.89 128.89 0 00-.869-.275 4.084 4.084 0 01-.754-.313 1.764 1.764 0 01-.533-.435.985.985 0 01-.204-.638c0-.169.04-.334.121-.495.081-.161.198-.308.352-.44.155-.132.343-.238.567-.319a2.28 2.28 0 01.776-.121c.359 0 .656.062.89.187.235.125.43.288.584.49.154.201.28.427.379.676.099.25.193.502.28.759h.143v-2.09h-.176a.588.588 0 01-.104.181c-.033.034-.1.05-.204.05a.77.77 0 01-.291-.066 5.409 5.409 0 00-.853-.275 2.752 2.752 0 00-.638-.066 2.875 2.875 0 00-1.902.699 2.3 2.3 0 00-.55.72 1.914 1.914 0 00-.198.847c0 .396.064.726.192.99s.299.486.511.666c.213.18.455.326.726.44.272.113.55.212.836.296l.837.248c.27.08.513.18.726.297.212.117.383.264.511.44s.193.4.193.671c0 .147-.03.317-.088.512a1.65 1.65 0 01-.303.555c-.143.176-.34.325-.588.446-.25.12-.569.181-.957.181-.11 0-.23-.002-.358-.005a1.678 1.678 0 01-.407-.066 2.107 2.107 0 01-.94-.578 2.402 2.402 0 01-.391-.479 3.731 3.731 0 01-.264-.505 3.313 3.313 0 01-.16-.463 4.335 4.335 0 01-.076-.346h-.165V14h.175a.449.449 0 01.121-.204c.044-.032.118-.049.22-.049.074 0 .186.022.336.066a13.91 13.91 0 001.144.275c.224.044.45.066.677.066z"/></g><path fill="#384254" fill-rule="nonzero" d="M41.912 25v-7.116h2.544v-.888h-6.072v.888h2.532V25h.996zm4.86 0v-3.18h1.608L50.408 25h1.176l-2.16-3.264c1.092-.096 2.088-.888 2.088-2.328 0-1.476-1.056-2.412-2.52-2.412h-3.216V25h.996zm2.1-4.056h-2.1v-3.06h2.1c.948 0 1.608.612 1.608 1.524 0 .9-.66 1.536-1.608 1.536zm7.476 4.2c2.172 0 3.276-1.272 3.276-3.264v-4.884h-1.008v4.872c0 1.464-.792 2.388-2.268 2.388-1.476 0-2.256-.924-2.256-2.388v-4.872h-1.008v4.896c0 1.968 1.104 3.252 3.264 3.252zM66.74 25v-.888h-4.248v-2.76h4.164v-.888h-4.164v-2.58h4.248v-.888h-5.244V25h5.244zm7.284.144c2.16 0 2.952-1.2 2.952-2.352 0-2.988-4.74-1.956-4.74-3.756 0-.756.696-1.272 1.644-1.272.876 0 1.716.288 2.316.96l.6-.732c-.672-.708-1.62-1.128-2.832-1.128-1.584 0-2.76.912-2.76 2.232 0 2.856 4.74 1.704 4.74 3.768 0 .624-.456 1.392-1.884 1.392a3.301 3.301 0 01-2.508-1.152l-.6.768c.66.744 1.692 1.272 3.072 1.272zM81.368 25v-7.116h2.544v-.888H77.84v.888h2.532V25h.996zm7.188.144c2.364 0 3.984-1.776 3.984-4.14s-1.62-4.14-3.984-4.14-3.972 1.776-3.972 4.14 1.608 4.14 3.972 4.14zm0-.888c-1.8 0-2.94-1.392-2.94-3.252 0-1.872 1.14-3.252 2.94-3.252 1.788 0 2.952 1.38 2.952 3.252 0 1.86-1.164 3.252-2.952 3.252zm6.528.744v-3.18h1.608L98.72 25h1.176l-2.16-3.264c1.092-.096 2.088-.888 2.088-2.328 0-1.476-1.056-2.412-2.52-2.412h-3.216V25h.996zm2.1-4.056h-2.1v-3.06h2.1c.948 0 1.608.612 1.608 1.524 0 .9-.66 1.536-1.608 1.536zM104.528 25v-3.384l3.144-4.62h-1.164l-2.484 3.72-2.484-3.72h-1.164l3.156 4.62V25h.996z" opacity=".5"/><path fill="#384254" fill-rule="nonzero" d="M14.254 73v-3.71h2.59c1.862 0 2.926-1.288 2.926-2.814s-1.05-2.814-2.926-2.814h-3.752V73h1.162zm2.45-4.746h-2.45v-3.556h2.45c1.106 0 1.862.728 1.862 1.778s-.756 1.778-1.862 1.778zm6.72 4.914c1.008 0 1.89-.532 2.408-1.12V73h1.05v-6.762h-1.05v4.97c-.392.546-1.176 1.022-1.988 1.022-.924 0-1.526-.35-1.526-1.54v-4.452h-1.05v4.774c0 1.456.742 2.156 2.156 2.156zM30.032 73v-4.788c.308-.546 1.19-1.078 1.848-1.078.154 0 .28.014.406.028v-1.078c-.924 0-1.708.532-2.254 1.232v-1.078h-1.05V73h1.05zm6.552.168c1.232 0 1.96-.504 2.478-1.176l-.7-.644c-.448.602-1.022.882-1.722.882-1.428 0-2.338-1.12-2.338-2.618 0-1.498.91-2.604 2.338-2.604.7 0 1.274.252 1.722.868l.7-.63c-.518-.672-1.246-1.176-2.478-1.176-2.016 0-3.374 1.54-3.374 3.542s1.358 3.556 3.374 3.556zM41.61 73v-4.942c.392-.546 1.176-1.05 1.988-1.05.924 0 1.526.336 1.526 1.54V73h1.05v-4.774c0-1.47-.742-2.156-2.156-2.156-1.022 0-1.946.574-2.408 1.148v-3.556h-1.05V73h1.05zm8.652.168c.91 0 1.694-.322 2.24-.938V73h1.05v-4.648c0-1.638-1.176-2.282-2.618-2.282-1.106 0-1.974.364-2.702 1.12l.49.728c.602-.658 1.26-.938 2.072-.938.98 0 1.708.518 1.708 1.414v1.218c-.546-.616-1.316-.91-2.24-.91-1.148 0-2.352.7-2.352 2.226 0 1.47 1.218 2.24 2.352 2.24zm.392-.756c-.994 0-1.68-.616-1.68-1.484 0-.854.686-1.47 1.68-1.47.728 0 1.442.28 1.848.826v1.288c-.406.56-1.12.84-1.848.84zm7.168.756c1.736 0 2.646-.91 2.646-2.044 0-2.632-4.186-1.666-4.186-3.136 0-.602.574-1.064 1.498-1.064.882 0 1.61.364 2.016.854l.49-.728c-.532-.546-1.344-.98-2.506-.98-1.61 0-2.506.882-2.506 1.946 0 2.506 4.186 1.498 4.186 3.136 0 .672-.574 1.162-1.61 1.162-.924 0-1.778-.448-2.226-.966l-.532.756c.686.714 1.61 1.064 2.73 1.064zm7.42 0c1.092 0 2.002-.378 2.688-1.05l-.504-.686a2.943 2.943 0 01-2.1.868c-1.456 0-2.338-1.064-2.422-2.338h5.46v-.266c0-2.03-1.204-3.626-3.248-3.626-1.932 0-3.332 1.582-3.332 3.542 0 2.114 1.442 3.556 3.458 3.556zm2.086-3.99H62.89c.056-1.022.77-2.24 2.212-2.24 1.54 0 2.212 1.246 2.226 2.24zm8.344 3.99c.91 0 1.694-.322 2.24-.938V73h1.05v-4.648c0-1.638-1.176-2.282-2.618-2.282-1.106 0-1.974.364-2.702 1.12l.49.728c.602-.658 1.26-.938 2.072-.938.98 0 1.708.518 1.708 1.414v1.218c-.546-.616-1.316-.91-2.24-.91-1.148 0-2.352.7-2.352 2.226 0 1.47 1.218 2.24 2.352 2.24zm.392-.756c-.994 0-1.68-.616-1.68-1.484 0-.854.686-1.47 1.68-1.47.728 0 1.442.28 1.848.826v1.288c-.406.56-1.12.84-1.848.84zm9.688.588v-4.942c.364-.546 1.092-1.05 1.778-1.05.896 0 1.246.546 1.246 1.4V73h1.05v-4.956c.35-.546 1.092-1.036 1.792-1.036.882 0 1.246.546 1.246 1.4V73h1.05v-4.886c0-1.358-.658-2.044-1.89-2.044-.98 0-1.89.644-2.268 1.26-.196-.7-.784-1.26-1.806-1.26-1.008 0-1.904.714-2.198 1.148v-.98h-1.05V73h1.05zm12.418.168c1.008 0 1.89-.532 2.408-1.12V73h1.05v-6.762h-1.05v4.97c-.392.546-1.176 1.022-1.988 1.022-.924 0-1.526-.35-1.526-1.54v-4.452h-1.05v4.774c0 1.456.742 2.156 2.156 2.156zm8.274 2.576c1.652 0 3.234-.7 3.234-2.842v-6.664h-1.05v1.022c-.546-.742-1.372-1.19-2.282-1.19-1.778 0-3.01 1.344-3.01 3.514 0 2.184 1.246 3.5 3.01 3.5.952 0 1.778-.518 2.282-1.204v1.022c0 1.428-1.064 1.974-2.184 1.974-.966 0-1.638-.252-2.198-.91l-.532.756c.812.798 1.596 1.022 2.73 1.022zm.168-3.598c-1.372 0-2.184-1.078-2.184-2.562 0-1.498.812-2.576 2.184-2.576.826 0 1.638.504 2.016 1.078v2.968c-.378.588-1.19 1.092-2.016 1.092zm10.78 1.022c.91 0 1.694-.322 2.24-.938V73h1.05v-4.648c0-1.638-1.176-2.282-2.618-2.282-1.106 0-1.974.364-2.702 1.12l.49.728c.602-.658 1.26-.938 2.072-.938.98 0 1.708.518 1.708 1.414v1.218c-.546-.616-1.316-.91-2.24-.91-1.148 0-2.352.7-2.352 2.226 0 1.47 1.218 2.24 2.352 2.24zm.392-.756c-.994 0-1.68-.616-1.68-1.484 0-.854.686-1.47 1.68-1.47.728 0 1.442.28 1.848.826v1.288c-.406.56-1.12.84-1.848.84zm6.062.588v-4.942c.406-.546 1.176-1.05 2.002-1.05.91 0 1.526.364 1.526 1.568V73h1.036v-4.746c0-1.47-.742-2.184-2.142-2.184-1.022 0-1.946.574-2.422 1.148v-.98h-1.05V73h1.05zm9.296.168c.952 0 1.778-.49 2.282-1.176V73h1.05v-9.338h-1.05v3.598c-.546-.742-1.372-1.19-2.282-1.19-1.764 0-3.01 1.386-3.01 3.556 0 2.198 1.246 3.542 3.01 3.542zm.266-.938c-1.372 0-2.184-1.106-2.184-2.604s.812-2.618 2.184-2.618c.826 0 1.652.504 2.016 1.092v3.052c-.364.588-1.19 1.078-2.016 1.078zm10.948.938c1.736 0 2.646-.91 2.646-2.044 0-2.632-4.186-1.666-4.186-3.136 0-.602.574-1.064 1.498-1.064.882 0 1.61.364 2.016.854l.49-.728c-.532-.546-1.344-.98-2.506-.98-1.61 0-2.506.882-2.506 1.946 0 2.506 4.186 1.498 4.186 3.136 0 .672-.574 1.162-1.61 1.162-.924 0-1.778-.448-2.226-.966l-.532.756c.686.714 1.61 1.064 2.73 1.064zm6.342 0c.91 0 1.694-.322 2.24-.938V73h1.05v-4.648c0-1.638-1.176-2.282-2.618-2.282-1.106 0-1.974.364-2.702 1.12l.49.728c.602-.658 1.26-.938 2.072-.938.98 0 1.708.518 1.708 1.414v1.218c-.546-.616-1.316-.91-2.24-.91-1.148 0-2.352.7-2.352 2.226 0 1.47 1.218 2.24 2.352 2.24zm.392-.756c-.994 0-1.68-.616-1.68-1.484 0-.854.686-1.47 1.68-1.47.728 0 1.442.28 1.848.826v1.288c-.406.56-1.12.84-1.848.84zm7.966.588l2.814-6.762h-1.134l-2.254 5.544-2.24-5.544h-1.148L157.908 73h1.148zm6.972.168c1.092 0 2.002-.378 2.688-1.05l-.504-.686a2.943 2.943 0 01-2.1.868c-1.456 0-2.338-1.064-2.422-2.338h5.46v-.266c0-2.03-1.204-3.626-3.248-3.626-1.932 0-3.332 1.582-3.332 3.542 0 2.114 1.442 3.556 3.458 3.556zm2.086-3.99h-4.438c.056-1.022.77-2.24 2.212-2.24 1.54 0 2.212 1.246 2.226 2.24zm8.512 3.99c1.008 0 1.89-.532 2.408-1.12V73h1.05v-6.762h-1.05v4.97c-.392.546-1.176 1.022-1.988 1.022-.924 0-1.526-.35-1.526-1.54v-4.452h-1.05v4.774c0 1.456.742 2.156 2.156 2.156zm6.608 2.408v-3.598c.56.742 1.358 1.19 2.282 1.19 1.778 0 3.01-1.372 3.01-3.556 0-2.198-1.232-3.542-3.01-3.542-.952 0-1.792.49-2.282 1.176v-1.008h-1.05v9.338h1.05zm2.016-3.346c-.826 0-1.652-.504-2.016-1.092v-3.052c.364-.588 1.19-1.078 2.016-1.078 1.358 0 2.17 1.106 2.17 2.604s-.812 2.618-2.17 2.618zm10.29.938c.602 0 .98-.182 1.246-.434l-.308-.798a.994.994 0 01-.714.294c-.448 0-.672-.364-.672-.868v-4.2h1.372v-.924h-1.372V64.39h-1.064v1.848h-1.12v.924h1.12v4.424c0 1.008.504 1.582 1.512 1.582zm5.348 0c2.058 0 3.346-1.596 3.346-3.556s-1.288-3.542-3.346-3.542-3.346 1.582-3.346 3.542c0 1.96 1.288 3.556 3.346 3.556zm0-.938c-1.442 0-2.24-1.232-2.24-2.618 0-1.372.798-2.604 2.24-2.604 1.442 0 2.24 1.232 2.24 2.604 0 1.386-.798 2.618-2.24 2.618zm14.798.77v-1.036h-4.578c2.604-2.058 4.536-3.794 4.536-5.698 0-1.862-1.582-2.744-3.136-2.744-1.316 0-2.534.518-3.248 1.47l.714.742c.546-.7 1.414-1.176 2.534-1.176.966 0 1.96.504 1.96 1.708 0 1.61-1.834 3.164-5.194 5.796V73h6.412zm5.348.168c2.548 0 3.57-2.562 3.57-4.83 0-2.282-1.022-4.816-3.57-4.816-2.562 0-3.57 2.534-3.57 4.816 0 2.268 1.008 4.83 3.57 4.83zm0-1.036c-1.778 0-2.38-1.932-2.38-3.794s.602-3.78 2.38-3.78 2.38 1.918 2.38 3.78c0 1.862-.602 3.794-2.38 3.794zm6.972-4.004c1.344 0 2.254-.994 2.254-2.282 0-1.33-.91-2.324-2.254-2.324-1.33 0-2.254.994-2.254 2.324 0 1.288.924 2.282 2.254 2.282zM227.88 73l5.978-9.338h-.784L227.11 73h.77zm.126-5.586c-.826 0-1.414-.686-1.414-1.568 0-.924.588-1.61 1.414-1.61.84 0 1.414.686 1.414 1.61 0 .882-.574 1.568-1.414 1.568zm4.872 5.754c1.33 0 2.24-.994 2.24-2.296 0-1.302-.91-2.31-2.24-2.31s-2.254 1.008-2.254 2.31.924 2.296 2.254 2.296zm0-.714c-.854 0-1.428-.686-1.428-1.582 0-.91.574-1.596 1.428-1.596.84 0 1.414.686 1.414 1.596 0 .896-.574 1.582-1.414 1.582zm4.298.686c.42 0 .77-.35.77-.77 0-.42-.35-.77-.77-.77-.42 0-.77.35-.77.77 0 .42.35.77.77.77zM14.254 91v-4.284h5.46V91h1.162v-9.338h-1.162v4.018h-5.46v-4.018h-1.162V91h1.162zm10.92.168c1.008 0 1.89-.532 2.408-1.12V91h1.05v-6.762h-1.05v4.97c-.392.546-1.176 1.022-1.988 1.022-.924 0-1.526-.35-1.526-1.54v-4.452h-1.05v4.774c0 1.456.742 2.156 2.156 2.156zM31.782 91v-4.788c.308-.546 1.19-1.078 1.848-1.078.154 0 .28.014.406.028v-1.078c-.924 0-1.708.532-2.254 1.232v-1.078h-1.05V91h1.05zm4.62 0v-4.788c.308-.546 1.19-1.078 1.848-1.078.154 0 .28.014.406.028v-1.078c-.924 0-1.708.532-2.254 1.232v-1.078h-1.05V91h1.05zm3.962 2.744c.896-.014 1.582-.392 1.988-1.372l3.388-8.134h-1.134l-2.254 5.544-2.24-5.544h-1.148l2.828 6.832-.448 1.022c-.238.56-.546.714-1.008.714a1.61 1.61 0 01-.574-.112l-.154.952c.182.056.532.098.756.098zm13.426-2.576c1.764 0 3.01-1.344 3.01-3.542 0-2.17-1.232-3.556-3.01-3.556-.91 0-1.736.448-2.282 1.19v-3.598h-1.05V91h1.05v-1.008c.504.686 1.33 1.176 2.282 1.176zm-.252-.938c-.84 0-1.666-.476-2.03-1.064V86.1c.364-.588 1.19-1.092 2.03-1.092 1.358 0 2.17 1.12 2.17 2.618 0 1.498-.812 2.604-2.17 2.604zm8.036.938c1.092 0 2.002-.378 2.688-1.05l-.504-.686a2.943 2.943 0 01-2.1.868c-1.456 0-2.338-1.064-2.422-2.338h5.46v-.266c0-2.03-1.204-3.626-3.248-3.626-1.932 0-3.332 1.582-3.332 3.542 0 2.114 1.442 3.556 3.458 3.556zm2.086-3.99h-4.438c.056-1.022.77-2.24 2.212-2.24 1.54 0 2.212 1.246 2.226 2.24zM67.734 91v-5.838h1.372v-.924h-1.372v-.518c0-.868.378-1.33 1.078-1.33.336 0 .602.126.826.322l.434-.672c-.42-.392-.882-.518-1.428-.518-1.19 0-1.96.812-1.96 2.198v.518h-1.12v.924h1.12V91h1.05zm5.586.168c2.058 0 3.346-1.596 3.346-3.556s-1.288-3.542-3.346-3.542-3.346 1.582-3.346 3.542c0 1.96 1.288 3.556 3.346 3.556zm0-.938c-1.442 0-2.24-1.232-2.24-2.618 0-1.372.798-2.604 2.24-2.604 1.442 0 2.24 1.232 2.24 2.604 0 1.386-.798 2.618-2.24 2.618zm6.104.77v-4.788c.308-.546 1.19-1.078 1.848-1.078.154 0 .28.014.406.028v-1.078c-.924 0-1.708.532-2.254 1.232v-1.078h-1.05V91h1.05zm6.636.168c1.092 0 2.002-.378 2.688-1.05l-.504-.686a2.943 2.943 0 01-2.1.868c-1.456 0-2.338-1.064-2.422-2.338h5.46v-.266c0-2.03-1.204-3.626-3.248-3.626-1.932 0-3.332 1.582-3.332 3.542 0 2.114 1.442 3.556 3.458 3.556zm2.086-3.99h-4.438c.056-1.022.77-2.24 2.212-2.24 1.54 0 2.212 1.246 2.226 2.24zm8.078 3.99c.602 0 .98-.182 1.246-.434l-.308-.798a.994.994 0 01-.714.294c-.448 0-.672-.364-.672-.868v-4.2h1.372v-.924h-1.372V82.39h-1.064v1.848h-1.12v.924h1.12v4.424c0 1.008.504 1.582 1.512 1.582zM99.682 91v-4.942c.392-.546 1.176-1.05 1.988-1.05.924 0 1.526.336 1.526 1.54V91h1.05v-4.774c0-1.47-.742-2.156-2.156-2.156-1.022 0-1.946.574-2.408 1.148v-3.556h-1.05V91h1.05zm9.73.168c1.092 0 2.002-.378 2.688-1.05l-.504-.686a2.943 2.943 0 01-2.1.868c-1.456 0-2.338-1.064-2.422-2.338h5.46v-.266c0-2.03-1.204-3.626-3.248-3.626-1.932 0-3.332 1.582-3.332 3.542 0 2.114 1.442 3.556 3.458 3.556zm2.086-3.99h-4.438c.056-1.022.77-2.24 2.212-2.24 1.54 0 2.212 1.246 2.226 2.24zm3.122 6.566c.896-.014 1.582-.392 1.988-1.372l3.388-8.134h-1.134l-2.254 5.544-2.24-5.544h-1.148l2.828 6.832-.448 1.022c-.238.56-.546.714-1.008.714a1.61 1.61 0 01-.574-.112l-.154.952c.182.056.532.098.756.098zm12.81 0c1.652 0 3.234-.7 3.234-2.842v-6.664h-1.05v1.022c-.546-.742-1.372-1.19-2.282-1.19-1.778 0-3.01 1.344-3.01 3.514 0 2.184 1.246 3.5 3.01 3.5.952 0 1.778-.518 2.282-1.204v1.022c0 1.428-1.064 1.974-2.184 1.974-.966 0-1.638-.252-2.198-.91l-.532.756c.812.798 1.596 1.022 2.73 1.022zm.168-3.598c-1.372 0-2.184-1.078-2.184-2.562 0-1.498.812-2.576 2.184-2.576.826 0 1.638.504 2.016 1.078v2.968c-.378.588-1.19 1.092-2.016 1.092zm8.12 1.022c2.058 0 3.346-1.596 3.346-3.556s-1.288-3.542-3.346-3.542-3.346 1.582-3.346 3.542c0 1.96 1.288 3.556 3.346 3.556zm0-.938c-1.442 0-2.24-1.232-2.24-2.618 0-1.372.798-2.604 2.24-2.604 1.442 0 2.24 1.232 2.24 2.604 0 1.386-.798 2.618-2.24 2.618zm5.516.91c.42 0 .77-.35.77-.77 0-.42-.35-.77-.77-.77-.42 0-.77.35-.77.77 0 .42.35.77.77.77z"/></g><path stroke="#6F0DFB" stroke-linecap="round" stroke-linejoin="round" stroke-width="2" d="M393 277.156l37.028-.128a8 8 0 007.972-8V91.274a8 8 0 00-8-8h-39.723 0"/><path stroke="#F15242" stroke-linecap="round" stroke-linejoin="round" stroke-width="2" d="M186.398 297.998H30.155a8 8 0 01-8-7.99L22.01 168.01a8 8 0 018-8.01h27.385"/><g fill="#F15242" fill-rule="nonzero" transform="translate(170 282)"><circle cx="16" cy="16" r="16" fill-opacity=".4"/><circle cx="16" cy="16" r="3"/></g><g fill="#6F0DFB" fill-rule="nonzero" transform="translate(376 261)"><circle cx="16" cy="16" r="16" fill-opacity=".4"/><circle cx="16" cy="16" r="3"/></g></g></svg>