<svg xmlns="http://www.w3.org/2000/svg" xmlns:xlink="http://www.w3.org/1999/xlink" width="465" height="350" viewBox="0 0 465 350"><defs><filter id="a" width="113.3%" height="106.7%" x="-6.7%" y="-2.7%" filterUnits="objectBoundingBox"><feOffset dy="2" in="SourceAlpha" result="shadowOffsetOuter1"/><feGaussianBlur in="shadowOffsetOuter1" result="shadowBlurOuter1" stdDeviation="3"/><feComposite in="shadowBlurOuter1" in2="SourceAlpha" operator="out" result="shadowBlurOuter1"/><feColorMatrix in="shadowBlurOuter1" values="0 0 0 0 0.207843137 0 0 0 0 0.258823529 0 0 0 0 0.329411765 0 0 0 0.101137908 0"/></filter><filter id="c" width="110.5%" height="128.2%" x="-5.2%" y="-11.5%" filterUnits="objectBoundingBox"><feMorphology in="SourceAlpha" operator="dilate" radius="1" result="shadowSpreadOuter1"/><feOffset dy="2" in="shadowSpreadOuter1" result="shadowOffsetOuter1"/><feGaussianBlur in="shadowOffsetOuter1" result="shadowBlurOuter1" stdDeviation="3"/><feComposite in="shadowBlurOuter1" in2="SourceAlpha" operator="out" result="shadowBlurOuter1"/><feColorMatrix in="shadowBlurOuter1" values="0 0 0 0 0.207843137 0 0 0 0 0.258823529 0 0 0 0 0.329411765 0 0 0 0.101137908 0"/></filter><filter id="e" width="110.5%" height="128.2%" x="-5.2%" y="-11.5%" filterUnits="objectBoundingBox"><feMorphology in="SourceAlpha" operator="dilate" radius="1" result="shadowSpreadOuter1"/><feOffset dy="2" in="shadowSpreadOuter1" result="shadowOffsetOuter1"/><feGaussianBlur in="shadowOffsetOuter1" result="shadowBlurOuter1" stdDeviation="3"/><feComposite in="shadowBlurOuter1" in2="SourceAlpha" operator="out" result="shadowBlurOuter1"/><feColorMatrix in="shadowBlurOuter1" values="0 0 0 0 0.207843137 0 0 0 0 0.258823529 0 0 0 0 0.329411765 0 0 0 0.101137908 0"/></filter><filter id="g" width="110.5%" height="128.2%" x="-5.2%" y="-11.5%" filterUnits="objectBoundingBox"><feMorphology in="SourceAlpha" operator="dilate" radius="1" result="shadowSpreadOuter1"/><feOffset dy="2" in="shadowSpreadOuter1" result="shadowOffsetOuter1"/><feGaussianBlur in="shadowOffsetOuter1" result="shadowBlurOuter1" stdDeviation="3"/><feComposite in="shadowBlurOuter1" in2="SourceAlpha" operator="out" result="shadowBlurOuter1"/><feColorMatrix in="shadowBlurOuter1" values="0 0 0 0 0.207843137 0 0 0 0 0.258823529 0 0 0 0 0.329411765 0 0 0 0.101137908 0"/></filter><rect id="b" width="150" height="300" x="0" y="0" rx="26"/><rect id="d" width="210" height="78" x="0" y="0" rx="12"/><rect id="f" width="210" height="78" x="0" y="0" rx="12"/><rect id="h" width="210" height="78" x="0" y="0" rx="12"/></defs><g fill="none" fill-rule="evenodd"><g transform="translate(300 25)"><rect width="150" height="300" fill="#FFF" rx="26"/><use fill="#000" filter="url(#a)" xlink:href="#b"/><rect width="147" height="297" x="1.5" y="1.5" fill="#FFF" stroke="#F1F1F1" stroke-linejoin="square" stroke-width="3" rx="26"/><rect width="149" height="299" x=".5" y=".5" stroke="#E1E1E1" stroke-linejoin="square" rx="26"/><g transform="translate(15 91)"><rect width="120" height="36" fill="#F1F1F1" rx="6"/><rect width="100" height="2" x="10" y="21" fill="#FFF" rx="1"/><rect width="40" height="2" x="10" y="13" fill="#FFF" rx="1"/></g><g transform="translate(21 137)"><rect width="108" height="32.4" fill="#F1F1F1" rx="5.4"/><rect width="90" height="1.8" x="9" y="18.9" fill="#FFF" rx=".9"/><rect width="43.2" height="1.8" x="9" y="11.7" fill="#FFF" rx=".9"/></g><g transform="translate(27 180)"><rect width="96" height="28.8" fill="#F1F1F1" rx="4.8"/><rect width="80" height="1.6" x="8" y="16.8" fill="#FFF" rx=".8"/><rect width="25.6" height="1.6" x="8" y="10.4" fill="#FFF" rx=".8"/></g><rect width="64" height="4" x="43" y="53" fill="#F1F1F1" rx="2"/><path fill="#F1F1F1" d="M105 3v7.5a8.5 8.5 0 01-8.5 8.5h-43a8.5 8.5 0 01-8.5-8.5V3h60zM95 9a2 2 0 100 4 2 2 0 000-4zM83 9H55a2 2 0 100 4h28a2 2 0 100-4z"/></g><path stroke="#01B2D0" stroke-dasharray="3 6" stroke-linecap="round" stroke-linejoin="round" stroke-width="2" d="M164 53H34.754c-16.292 0-29.5 13.208-29.5 29.5s13.208 29.5 29.5 29.5h283.348C335.166 112 349 125.834 349 142.898c0 17.065-13.834 30.899-30.898 30.899h-230c-16.073 0-29.102 13.03-29.102 29.101C59 218.971 72.03 232 88.102 232H258.5c16.292 0 29.5 13.208 29.5 29.5S274.792 291 258.5 291H111h0"/><g transform="translate(39 14)"><use fill="#000" filter="url(#c)" xlink:href="#d"/><rect width="211" height="79" x="-.5" y="-.5" fill="#FFF" stroke="#E1E1E1" rx="12"/><rect width="48" height="4" x="12" y="41" fill="#F1F1F1" rx="2"/><rect width="80" height="2" x="12" y="64" fill="#F1F1F1" rx="1"/><rect width="125" height="2" x="12" y="54" fill="#F1F1F1" rx="1"/><rect width="32" height="4" x="40" y="19" fill="#F1F1F1" rx="2"/><rect width="24" height="2" x="174" y="20" fill="#F1F1F1" rx="1"/><rect width="20" height="20" x="12" y="12" fill="#01B2D0" rx="4"/></g><g transform="translate(99 132)"><use fill="#000" filter="url(#e)" xlink:href="#f"/><rect width="211" height="79" x="-.5" y="-.5" fill="#FFF" stroke="#E1E1E1" rx="12"/><rect width="40" height="4" x="12" y="41" fill="#F1F1F1" rx="2"/><rect width="140" height="2" x="12" y="64" fill="#F1F1F1" rx="1"/><rect width="100" height="2" x="12" y="54" fill="#F1F1F1" rx="1"/><rect width="60" height="4" x="40" y="19" fill="#F1F1F1" rx="2"/><rect width="24" height="2" x="174" y="20" fill="#F1F1F1" rx="1"/><rect width="20" height="20" x="12" y="12" fill="#6FD350" rx="4"/></g><g transform="translate(22 251)"><use fill="#000" filter="url(#g)" xlink:href="#h"/><rect width="211" height="79" x="-.5" y="-.5" fill="#FFF" stroke="#E1E1E1" rx="12"/><rect width="48" height="4" x="12" y="41" fill="#F1F1F1" rx="2"/><rect width="140" height="2" x="12" y="64" fill="#F1F1F1" rx="1"/><rect width="125" height="2" x="12" y="54" fill="#F1F1F1" rx="1"/><rect width="32" height="4" x="40" y="19" fill="#F1F1F1" rx="2"/><rect width="24" height="2" x="174" y="20" fill="#F1F1F1" rx="1"/><rect width="20" height="20" x="12" y="12" fill="#FFC111" rx="4"/></g></g></svg>