<svg xmlns="http://www.w3.org/2000/svg" xmlns:xlink="http://www.w3.org/1999/xlink" width="465" height="350" viewBox="0 0 465 350"><defs><rect id="b" width="308" height="224" x="0" y="0" rx="8"/><filter id="a" width="107.1%" height="109.8%" x="-3.6%" y="-4%" filterUnits="objectBoundingBox"><feMorphology in="SourceAlpha" operator="dilate" radius="1" result="shadowSpreadOuter1"/><feOffset dy="2" in="shadowSpreadOuter1" result="shadowOffsetOuter1"/><feGaussianBlur in="shadowOffsetOuter1" result="shadowBlurOuter1" stdDeviation="3"/><feComposite in="shadowBlurOuter1" in2="SourceAlpha" operator="out" result="shadowBlurOuter1"/><feColorMatrix in="shadowBlurOuter1" values="0 0 0 0 0.207843137 0 0 0 0 0.258823529 0 0 0 0 0.329411765 0 0 0 0.101137908 0"/></filter><path id="d" d="M8 0h292a8 8 0 0 1 8 8v10H0V8a8 8 0 0 1 8-8z"/><filter id="c" width="107.1%" height="222.2%" x="-3.6%" y="-50%" filterUnits="objectBoundingBox"><feMorphology in="SourceAlpha" operator="dilate" radius="1" result="shadowSpreadOuter1"/><feOffset dy="2" in="shadowSpreadOuter1" result="shadowOffsetOuter1"/><feGaussianBlur in="shadowOffsetOuter1" result="shadowBlurOuter1" stdDeviation="3"/><feComposite in="shadowBlurOuter1" in2="SourceAlpha" operator="out" result="shadowBlurOuter1"/><feColorMatrix in="shadowBlurOuter1" values="0 0 0 0 0.207843137 0 0 0 0 0.258823529 0 0 0 0 0.329411765 0 0 0 0.101137908 0"/></filter><rect id="f" width="190" height="280" x="0" y="0" rx="8"/><filter id="e" width="111.6%" height="107.9%" x="-5.8%" y="-3.2%" filterUnits="objectBoundingBox"><feMorphology in="SourceAlpha" operator="dilate" radius="1" result="shadowSpreadOuter1"/><feOffset dy="2" in="shadowSpreadOuter1" result="shadowOffsetOuter1"/><feGaussianBlur in="shadowOffsetOuter1" result="shadowBlurOuter1" stdDeviation="3"/><feComposite in="shadowBlurOuter1" in2="SourceAlpha" operator="out" result="shadowBlurOuter1"/><feColorMatrix in="shadowBlurOuter1" values="0 0 0 0 0.207843137 0 0 0 0 0.258823529 0 0 0 0 0.329411765 0 0 0 0.101137908 0"/></filter><path id="h" d="M0 0h190v10a8 8 0 0 1-8 8H8a8 8 0 0 1-8-8V0z"/><filter id="g" width="111.6%" height="222.2%" x="-5.8%" y="-50%" filterUnits="objectBoundingBox"><feMorphology in="SourceAlpha" operator="dilate" radius="1" result="shadowSpreadOuter1"/><feOffset dy="2" in="shadowSpreadOuter1" result="shadowOffsetOuter1"/><feGaussianBlur in="shadowOffsetOuter1" result="shadowBlurOuter1" stdDeviation="3"/><feComposite in="shadowBlurOuter1" in2="SourceAlpha" operator="out" result="shadowBlurOuter1"/><feColorMatrix in="shadowBlurOuter1" values="0 0 0 0 0.207843137 0 0 0 0 0.258823529 0 0 0 0 0.329411765 0 0 0 0.101137908 0"/></filter><circle id="j" cx="32" cy="32" r="32"/><filter id="i" width="134.4%" height="134.4%" x="-17.2%" y="-14.1%" filterUnits="objectBoundingBox"><feMorphology in="SourceAlpha" operator="dilate" radius="1" result="shadowSpreadOuter1"/><feOffset dy="2" in="shadowSpreadOuter1" result="shadowOffsetOuter1"/><feGaussianBlur in="shadowOffsetOuter1" result="shadowBlurOuter1" stdDeviation="3"/><feComposite in="shadowBlurOuter1" in2="SourceAlpha" operator="out" result="shadowBlurOuter1"/><feColorMatrix in="shadowBlurOuter1" values="0 0 0 0 0.207843137 0 0 0 0 0.258823529 0 0 0 0 0.329411765 0 0 0 0.101137908 0"/></filter></defs><g fill="none" fill-rule="evenodd"><g transform="translate(21 69)"><use fill="#000" filter="url(#a)" xlink:href="#b"/><rect width="309" height="225" x="-.5" y="-.5" fill="#FFF" stroke="#E1E1E1" rx="8"/><rect width="64" height="4" x="8" y="32" fill="#F1F1F1" rx="1"/><use fill="#000" filter="url(#c)" xlink:href="#d"/><path fill="#FFF" stroke="#E1E1E1" d="M8-.5h292a8.5 8.5 0 0 1 8.5 8.5v10.5H-.5V8A8.5 8.5 0 0 1 8-.5z"/><circle cx="9" cy="9" r="3" fill="#F15242"/><circle cx="25" cy="9" r="3" fill="#6FD350"/><circle cx="17" cy="9" r="3" fill="#FFC111"/><g transform="translate(92 50)"><g transform="translate(42)"><rect width="40" height="40" fill="#F7F7F7" rx="4"/><circle cx="20" cy="20" r="15" fill="#6FD350"/><path stroke="#FFF" stroke-linecap="round" stroke-linejoin="round" stroke-width="4" d="M13.233 20.692l5.183 4.856 8.817-10"/></g><rect width="40" height="40" fill="#F7F7F7" rx="4"/><circle cx="20" cy="20" r="15" fill="#6FD350"/><path stroke="#FFF" stroke-linecap="round" stroke-linejoin="round" stroke-width="4" d="M13.233 20.692l5.183 4.856 8.817-10"/><g transform="translate(84)"><rect width="40" height="40" fill="#F7F7F7" rx="4"/><circle cx="20" cy="20" r="15" fill="#6FD350"/><path stroke="#FFF" stroke-linecap="round" stroke-linejoin="round" stroke-width="4" d="M13.233 20.692l5.183 4.856 8.817-10"/></g><g transform="translate(126)"><rect width="40" height="40" fill="#F7F7F7" rx="4"/><circle cx="20" cy="20" r="15" fill="#6FD350"/><path stroke="#FFF" stroke-linecap="round" stroke-linejoin="round" stroke-width="4" d="M13.233 20.692l5.183 4.856 8.817-10"/></g><g transform="translate(168)"><rect width="40" height="40" fill="#F7F7F7" rx="4"/><circle cx="20" cy="20" r="15" fill="#6FD350"/><path stroke="#FFF" stroke-linecap="round" stroke-linejoin="round" stroke-width="4" d="M13.233 20.692l5.183 4.856 8.817-10"/></g></g><g transform="translate(8 92)"><g transform="translate(42)"><rect width="40" height="40" fill="#F1F1F1" rx="4"/><circle cx="20" cy="20" r="15" fill="#6FD350"/><path stroke="#FFF" stroke-linecap="round" stroke-linejoin="round" stroke-width="4" d="M13.233 20.692l5.183 4.856 8.817-10"/></g><rect width="40" height="40" fill="#F1F1F1" rx="4"/><circle cx="20" cy="20" r="15" fill="#6FD350"/><path stroke="#FFF" stroke-linecap="round" stroke-linejoin="round" stroke-width="4" d="M13.233 20.692l5.183 4.856 8.817-10"/><rect width="40" height="40" x="210" fill="#F7F7F7" rx="4"/><rect width="40" height="40" x="252" fill="#F7F7F7" rx="4"/><g transform="translate(84)"><rect width="40" height="40" fill="#F7F7F7" rx="4"/><circle cx="20" cy="20" r="15" fill="#6FD350"/><path stroke="#FFF" stroke-linecap="round" stroke-linejoin="round" stroke-width="4" d="M13.233 20.692l5.183 4.856 8.817-10"/></g><g transform="translate(126)"><rect width="40" height="40" fill="#F7F7F7" rx="4"/><circle cx="20" cy="20" r="15" fill="#FFC111"/><g fill="#FFF" transform="translate(5 5)"><rect width="4" height="16" x="13" y="7" rx="2"/><rect width="16" height="4" x="7" y="13" rx="2"/></g></g><rect width="40" height="40" x="168" fill="#F7F7F7" rx="4"/></g><g transform="translate(8 134)"><rect width="40" height="40" x="42" fill="#F1F1F1" rx="4"/><rect width="40" height="40" fill="#F1F1F1" rx="4"/><rect width="40" height="40" x="210" fill="#F7F7F7" rx="4"/><rect width="40" height="40" x="252" fill="#F7F7F7" rx="4"/><rect width="40" height="40" x="84" fill="#F7F7F7" rx="4"/><rect width="40" height="40" x="126" fill="#F7F7F7" rx="4"/><rect width="40" height="40" x="168" fill="#F7F7F7" rx="4"/></g><g transform="translate(8 176)"><rect width="40" height="40" x="42" fill="#F1F1F1" rx="4"/><rect width="40" height="40" fill="#F1F1F1" rx="4"/><rect width="40" height="40" x="84" fill="#F7F7F7" rx="4"/><rect width="40" height="40" x="126" fill="#F7F7F7" rx="4"/></g></g><g transform="translate(225 24)"><use fill="#000" filter="url(#e)" xlink:href="#f"/><rect width="191" height="281" x="-.5" y="-.5" fill="#FFF" stroke="#E1E1E1" rx="8"/><rect width="120" height="76" x="35" y="49" fill="#F1F1F1" rx="2"/><rect width="120" height="2" x="35" y="157" fill="#F1F1F1" rx="1"/><rect width="120" height="2" x="35" y="169" fill="#F1F1F1" rx="1"/><rect width="120" height="2" x="35" y="145" fill="#F1F1F1" rx="1"/><rect width="120" height="2" x="35" y="181" fill="#F1F1F1" rx="1"/><rect width="120" height="2" x="35" y="193" fill="#F1F1F1" rx="1"/><rect width="120" height="2" x="35" y="205" fill="#F1F1F1" rx="1"/><rect width="120" height="2" x="35" y="217" fill="#F1F1F1" rx="1"/><rect width="120" height="2" x="35" y="229" fill="#F1F1F1" rx="1"/><g transform="matrix(1 0 0 -1 0 18)"><use fill="#000" filter="url(#g)" xlink:href="#h"/><path fill="#FFF" stroke="#E1E1E1" d="M-.5-.5h191V10a8.5 8.5 0 0 1-8.5 8.5H8A8.5 8.5 0 0 1-.5 10V-.5z"/></g><circle cx="8" cy="9" r="3" fill="#F15242"/><circle cx="24" cy="9" r="3" fill="#6FD350"/><circle cx="16" cy="9" r="3" fill="#FFC111"/></g><g transform="translate(373 272)"><use fill="#000" filter="url(#i)" xlink:href="#j"/><circle cx="32" cy="32" r="32.5" fill="#FFF" stroke="#E1E1E1"/><rect width="2" height="26" x="35.495" y="6.874" fill="#1B2E5B" rx="1" transform="rotate(22 36.495 19.874)"/><rect width="20" height="2" x="31" y="30" fill="#1B2E5B" rx="1"/><rect width="6" height="2" x="56" y="30" fill="#F1F1F1" rx="1"/><rect width="6" height="2" x="2" y="30" fill="#F1F1F1" rx="1"/><rect width="2" height="6" x="31" y="2" fill="#F1F1F1" rx="1"/><rect width="2" height="6" x="31" y="56" fill="#F1F1F1" rx="1"/><circle cx="32" cy="31" r="3" fill="#1B2E5B"/></g></g></svg>