<svg xmlns="http://www.w3.org/2000/svg" xmlns:xlink="http://www.w3.org/1999/xlink" width="465" height="350" viewBox="0 0 465 350"><defs><rect id="b" width="180" height="250" x="0" y="0" rx="8"/><filter id="a" width="112.2%" height="108.8%" x="-6.1%" y="-3.6%" filterUnits="objectBoundingBox"><feMorphology in="SourceAlpha" operator="dilate" radius="1" result="shadowSpreadOuter1"/><feOffset dy="2" in="shadowSpreadOuter1" result="shadowOffsetOuter1"/><feGaussianBlur in="shadowOffsetOuter1" result="shadowBlurOuter1" stdDeviation="3"/><feComposite in="shadowBlurOuter1" in2="SourceAlpha" operator="out" result="shadowBlurOuter1"/><feColorMatrix in="shadowBlurOuter1" values="0 0 0 0 0.207843137 0 0 0 0 0.258823529 0 0 0 0 0.329411765 0 0 0 0.101137908 0"/></filter><path id="d" d="M0 0h180v10a8 8 0 0 1-8 8H8a8 8 0 0 1-8-8V0z"/><filter id="c" width="112.2%" height="222.2%" x="-6.1%" y="-50%" filterUnits="objectBoundingBox"><feMorphology in="SourceAlpha" operator="dilate" radius="1" result="shadowSpreadOuter1"/><feOffset dy="2" in="shadowSpreadOuter1" result="shadowOffsetOuter1"/><feGaussianBlur in="shadowOffsetOuter1" result="shadowBlurOuter1" stdDeviation="3"/><feComposite in="shadowBlurOuter1" in2="SourceAlpha" operator="out" result="shadowBlurOuter1"/><feColorMatrix in="shadowBlurOuter1" values="0 0 0 0 0.207843137 0 0 0 0 0.258823529 0 0 0 0 0.329411765 0 0 0 0.101137908 0"/></filter><rect id="f" width="180" height="250" x="0" y="0" rx="8"/><filter id="e" width="112.2%" height="108.8%" x="-6.1%" y="-3.6%" filterUnits="objectBoundingBox"><feMorphology in="SourceAlpha" operator="dilate" radius="1" result="shadowSpreadOuter1"/><feOffset dy="2" in="shadowSpreadOuter1" result="shadowOffsetOuter1"/><feGaussianBlur in="shadowOffsetOuter1" result="shadowBlurOuter1" stdDeviation="3"/><feComposite in="shadowBlurOuter1" in2="SourceAlpha" operator="out" result="shadowBlurOuter1"/><feColorMatrix in="shadowBlurOuter1" values="0 0 0 0 0.207843137 0 0 0 0 0.258823529 0 0 0 0 0.329411765 0 0 0 0.101137908 0"/></filter><path id="h" d="M0 0h180v10a8 8 0 0 1-8 8H8a8 8 0 0 1-8-8V0z"/><filter id="g" width="112.2%" height="222.2%" x="-6.1%" y="-50%" filterUnits="objectBoundingBox"><feMorphology in="SourceAlpha" operator="dilate" radius="1" result="shadowSpreadOuter1"/><feOffset dy="2" in="shadowSpreadOuter1" result="shadowOffsetOuter1"/><feGaussianBlur in="shadowOffsetOuter1" result="shadowBlurOuter1" stdDeviation="3"/><feComposite in="shadowBlurOuter1" in2="SourceAlpha" operator="out" result="shadowBlurOuter1"/><feColorMatrix in="shadowBlurOuter1" values="0 0 0 0 0.207843137 0 0 0 0 0.258823529 0 0 0 0 0.329411765 0 0 0 0.101137908 0"/></filter><rect id="j" width="180" height="250" x="0" y="0" rx="8"/><filter id="i" width="112.2%" height="108.8%" x="-6.1%" y="-3.6%" filterUnits="objectBoundingBox"><feMorphology in="SourceAlpha" operator="dilate" radius="1" result="shadowSpreadOuter1"/><feOffset dy="2" in="shadowSpreadOuter1" result="shadowOffsetOuter1"/><feGaussianBlur in="shadowOffsetOuter1" result="shadowBlurOuter1" stdDeviation="3"/><feComposite in="shadowBlurOuter1" in2="SourceAlpha" operator="out" result="shadowBlurOuter1"/><feColorMatrix in="shadowBlurOuter1" values="0 0 0 0 0.207843137 0 0 0 0 0.258823529 0 0 0 0 0.329411765 0 0 0 0.101137908 0"/></filter><path id="l" d="M0 0h180v10a8 8 0 0 1-8 8H8a8 8 0 0 1-8-8V0z"/><filter id="k" width="112.2%" height="222.2%" x="-6.1%" y="-50%" filterUnits="objectBoundingBox"><feMorphology in="SourceAlpha" operator="dilate" radius="1" result="shadowSpreadOuter1"/><feOffset dy="2" in="shadowSpreadOuter1" result="shadowOffsetOuter1"/><feGaussianBlur in="shadowOffsetOuter1" result="shadowBlurOuter1" stdDeviation="3"/><feComposite in="shadowBlurOuter1" in2="SourceAlpha" operator="out" result="shadowBlurOuter1"/><feColorMatrix in="shadowBlurOuter1" values="0 0 0 0 0.207843137 0 0 0 0 0.258823529 0 0 0 0 0.329411765 0 0 0 0.101137908 0"/></filter><rect id="n" width="180" height="250" x="0" y="0" rx="8"/><filter id="m" width="112.2%" height="108.8%" x="-6.1%" y="-3.6%" filterUnits="objectBoundingBox"><feMorphology in="SourceAlpha" operator="dilate" radius="1" result="shadowSpreadOuter1"/><feOffset dy="2" in="shadowSpreadOuter1" result="shadowOffsetOuter1"/><feGaussianBlur in="shadowOffsetOuter1" result="shadowBlurOuter1" stdDeviation="3"/><feComposite in="shadowBlurOuter1" in2="SourceAlpha" operator="out" result="shadowBlurOuter1"/><feColorMatrix in="shadowBlurOuter1" values="0 0 0 0 0.207843137 0 0 0 0 0.258823529 0 0 0 0 0.329411765 0 0 0 0.101137908 0"/></filter><path id="p" d="M0 0h180v10a8 8 0 0 1-8 8H8a8 8 0 0 1-8-8V0z"/><filter id="o" width="112.2%" height="222.2%" x="-6.1%" y="-50%" filterUnits="objectBoundingBox"><feMorphology in="SourceAlpha" operator="dilate" radius="1" result="shadowSpreadOuter1"/><feOffset dy="2" in="shadowSpreadOuter1" result="shadowOffsetOuter1"/><feGaussianBlur in="shadowOffsetOuter1" result="shadowBlurOuter1" stdDeviation="3"/><feComposite in="shadowBlurOuter1" in2="SourceAlpha" operator="out" result="shadowBlurOuter1"/><feColorMatrix in="shadowBlurOuter1" values="0 0 0 0 0.207843137 0 0 0 0 0.258823529 0 0 0 0 0.329411765 0 0 0 0.101137908 0"/></filter><rect id="r" width="52" height="52" x="6" y="6" rx="4"/><filter id="q" width="146.2%" height="146.2%" x="-23.1%" y="-19.2%" filterUnits="objectBoundingBox"><feMorphology in="SourceAlpha" operator="dilate" radius="2" result="shadowSpreadOuter1"/><feOffset dy="2" in="shadowSpreadOuter1" result="shadowOffsetOuter1"/><feGaussianBlur in="shadowOffsetOuter1" result="shadowBlurOuter1" stdDeviation="3"/><feComposite in="shadowBlurOuter1" in2="SourceAlpha" operator="out" result="shadowBlurOuter1"/><feColorMatrix in="shadowBlurOuter1" values="0 0 0 0 0.207843137 0 0 0 0 0.258823529 0 0 0 0 0.329411765 0 0 0 0.101137908 0"/></filter><rect id="t" width="52" height="52" x="0" y="0" rx="4"/><filter id="s" width="142.3%" height="142.3%" x="-21.2%" y="-17.3%" filterUnits="objectBoundingBox"><feMorphology in="SourceAlpha" operator="dilate" radius="1" result="shadowSpreadOuter1"/><feOffset dy="2" in="shadowSpreadOuter1" result="shadowOffsetOuter1"/><feGaussianBlur in="shadowOffsetOuter1" result="shadowBlurOuter1" stdDeviation="3"/><feComposite in="shadowBlurOuter1" in2="SourceAlpha" operator="out" result="shadowBlurOuter1"/><feColorMatrix in="shadowBlurOuter1" values="0 0 0 0 0.207843137 0 0 0 0 0.258823529 0 0 0 0 0.329411765 0 0 0 0.101137908 0"/></filter><rect id="v" width="52" height="52" x="0" y="0" rx="4"/><filter id="u" width="142.3%" height="142.3%" x="-21.2%" y="-17.3%" filterUnits="objectBoundingBox"><feMorphology in="SourceAlpha" operator="dilate" radius="1" result="shadowSpreadOuter1"/><feOffset dy="2" in="shadowSpreadOuter1" result="shadowOffsetOuter1"/><feGaussianBlur in="shadowOffsetOuter1" result="shadowBlurOuter1" stdDeviation="3"/><feComposite in="shadowBlurOuter1" in2="SourceAlpha" operator="out" result="shadowBlurOuter1"/><feColorMatrix in="shadowBlurOuter1" values="0 0 0 0 0.207843137 0 0 0 0 0.258823529 0 0 0 0 0.329411765 0 0 0 0.101137908 0"/></filter><rect id="x" width="52" height="52" x="0" y="0" rx="4"/><filter id="w" width="142.3%" height="142.3%" x="-21.2%" y="-17.3%" filterUnits="objectBoundingBox"><feMorphology in="SourceAlpha" operator="dilate" radius="1" result="shadowSpreadOuter1"/><feOffset dy="2" in="shadowSpreadOuter1" result="shadowOffsetOuter1"/><feGaussianBlur in="shadowOffsetOuter1" result="shadowBlurOuter1" stdDeviation="3"/><feComposite in="shadowBlurOuter1" in2="SourceAlpha" operator="out" result="shadowBlurOuter1"/><feColorMatrix in="shadowBlurOuter1" values="0 0 0 0 0.207843137 0 0 0 0 0.258823529 0 0 0 0 0.329411765 0 0 0 0.101137908 0"/></filter><rect id="z" width="54" height="70" x="0" y=".5" rx="2"/><filter id="y" width="140.7%" height="131.4%" x="-20.4%" y="-12.9%" filterUnits="objectBoundingBox"><feMorphology in="SourceAlpha" operator="dilate" radius="1" result="shadowSpreadOuter1"/><feOffset dy="2" in="shadowSpreadOuter1" result="shadowOffsetOuter1"/><feGaussianBlur in="shadowOffsetOuter1" result="shadowBlurOuter1" stdDeviation="3"/><feComposite in="shadowBlurOuter1" in2="SourceAlpha" operator="out" result="shadowBlurOuter1"/><feColorMatrix in="shadowBlurOuter1" values="0 0 0 0 0.207843137 0 0 0 0 0.258823529 0 0 0 0 0.329411765 0 0 0 0.101137908 0"/></filter><rect id="B" width="54" height="70" x="0" y=".5" rx="2"/><filter id="A" width="140.7%" height="131.4%" x="-20.4%" y="-12.9%" filterUnits="objectBoundingBox"><feMorphology in="SourceAlpha" operator="dilate" radius="1" result="shadowSpreadOuter1"/><feOffset dy="2" in="shadowSpreadOuter1" result="shadowOffsetOuter1"/><feGaussianBlur in="shadowOffsetOuter1" result="shadowBlurOuter1" stdDeviation="3"/><feComposite in="shadowBlurOuter1" in2="SourceAlpha" operator="out" result="shadowBlurOuter1"/><feColorMatrix in="shadowBlurOuter1" values="0 0 0 0 0.207843137 0 0 0 0 0.258823529 0 0 0 0 0.329411765 0 0 0 0.101137908 0"/></filter><rect id="D" width="54" height="70" x="0" y="0" rx="2"/><filter id="C" width="140.7%" height="131.4%" x="-20.4%" y="-12.9%" filterUnits="objectBoundingBox"><feMorphology in="SourceAlpha" operator="dilate" radius="1" result="shadowSpreadOuter1"/><feOffset dy="2" in="shadowSpreadOuter1" result="shadowOffsetOuter1"/><feGaussianBlur in="shadowOffsetOuter1" result="shadowBlurOuter1" stdDeviation="3"/><feComposite in="shadowBlurOuter1" in2="SourceAlpha" operator="out" result="shadowBlurOuter1"/><feColorMatrix in="shadowBlurOuter1" values="0 0 0 0 0.207843137 0 0 0 0 0.258823529 0 0 0 0 0.329411765 0 0 0 0.101137908 0"/></filter></defs><g fill="none" fill-rule="evenodd"><g transform="translate(56 34)"><use fill="#000" filter="url(#a)" xlink:href="#b"/><rect width="181" height="251" x="-.5" y="-.5" fill="#FFF" stroke="#E1E1E1" rx="8"/><g transform="matrix(1 0 0 -1 0 18)"><use fill="#000" filter="url(#c)" xlink:href="#d"/><path fill="#FFF" stroke="#E1E1E1" d="M-.5-.5h181V10a8.5 8.5 0 0 1-8.5 8.5H8A8.5 8.5 0 0 1-.5 10V-.5z"/></g><circle cx="11" cy="9" r="3" fill="#F15242"/><circle cx="31" cy="9" r="3" fill="#6FD350"/><circle cx="21" cy="9" r="3" fill="#FFC111"/></g><g transform="translate(40 50)"><use fill="#000" filter="url(#e)" xlink:href="#f"/><rect width="181" height="251" x="-.5" y="-.5" fill="#FFF" stroke="#E1E1E1" rx="8"/><g transform="matrix(1 0 0 -1 0 18)"><use fill="#000" filter="url(#g)" xlink:href="#h"/><path fill="#FFF" stroke="#E1E1E1" d="M-.5-.5h181V10a8.5 8.5 0 0 1-8.5 8.5H8A8.5 8.5 0 0 1-.5 10V-.5z"/></g><circle cx="11" cy="9" r="3" fill="#F15242"/><circle cx="31" cy="9" r="3" fill="#6FD350"/><circle cx="21" cy="9" r="3" fill="#FFC111"/></g><g transform="translate(24 66)"><use fill="#000" filter="url(#i)" xlink:href="#j"/><rect width="181" height="251" x="-.5" y="-.5" fill="#FFF" stroke="#E1E1E1" rx="8"/><g transform="matrix(1 0 0 -1 0 18)"><use fill="#000" filter="url(#k)" xlink:href="#l"/><path fill="#FFF" stroke="#E1E1E1" d="M-.5-.5h181V10a8.5 8.5 0 0 1-8.5 8.5H8A8.5 8.5 0 0 1-.5 10V-.5z"/></g><circle cx="11" cy="9" r="3" fill="#F15242"/><circle cx="31" cy="9" r="3" fill="#6FD350"/><circle cx="21" cy="9" r="3" fill="#FFC111"/></g><g transform="translate(8 82)"><use fill="#000" filter="url(#m)" xlink:href="#n"/><rect width="181" height="251" x="-.5" y="-.5" fill="#FFF" stroke="#E1E1E1" rx="8"/><rect width="120" height="76" x="30" y="36" fill="#F1F1F1" rx="2"/><rect width="120" height="2" x="30" y="144" fill="#F1F1F1" rx="1"/><rect width="120" height="2" x="30" y="156" fill="#F1F1F1" rx="1"/><rect width="120" height="2" x="30" y="132" fill="#F1F1F1" rx="1"/><rect width="120" height="2" x="30" y="168" fill="#F1F1F1" rx="1"/><rect width="120" height="2" x="30" y="180" fill="#F1F1F1" rx="1"/><rect width="120" height="2" x="30" y="192" fill="#F1F1F1" rx="1"/><rect width="120" height="2" x="30" y="204" fill="#F1F1F1" rx="1"/><rect width="120" height="2" x="30" y="216" fill="#F1F1F1" rx="1"/><g transform="matrix(1 0 0 -1 0 18)"><use fill="#000" filter="url(#o)" xlink:href="#p"/><path fill="#FFF" stroke="#E1E1E1" d="M-.5-.5h181V10a8.5 8.5 0 0 1-8.5 8.5H8A8.5 8.5 0 0 1-.5 10V-.5z"/></g><circle cx="11" cy="9" r="3" fill="#F15242"/><circle cx="31" cy="9" r="3" fill="#6FD350"/><circle cx="21" cy="9" r="3" fill="#FFC111"/></g><g transform="translate(294 157)"><use fill="#000" filter="url(#q)" xlink:href="#r"/><rect width="54" height="54" x="5" y="5" fill="#FFF" stroke="#1B2E5B" stroke-width="2" rx="4"/><rect width="2" height="10" x="31" fill="#1B2E5B" rx="1"/><rect width="2" height="10" x="31" y="54" fill="#1B2E5B" rx="1"/><rect width="10" height="2" y="31" fill="#1B2E5B" rx="1"/><rect width="10" height="2" x="54" y="31" fill="#1B2E5B" rx="1"/><path fill="#1B2E5B" fill-opacity=".2" d="M40.49 37.734c-3.474-.803-6.708-1.506-5.141-4.462 4.766-8.998 1.263-13.81-3.77-13.81-5.133 0-8.549 4.997-3.77 13.811 1.613 2.973-1.742 3.676-5.141 4.462-2.809.648-3.17 1.973-3.206 4.215-.015.963.781 1.745 1.743 1.745H41.95c.963 0 1.76-.783 1.744-1.745-.034-2.243-.396-3.568-3.204-4.216z"/><g transform="translate(10 70)"><use fill="#000" filter="url(#s)" xlink:href="#t"/><rect width="53" height="53" x="-.5" y="-.5" fill="#FFF" stroke="#E1E1E1" rx="4"/><path fill="#1B2E5B" fill-opacity=".2" d="M34.49 31.734c-3.474-.803-6.708-1.506-5.141-4.462 4.766-8.998 1.263-13.81-3.77-13.81-5.133 0-8.549 4.997-3.77 13.811 1.613 2.973-1.742 3.676-5.141 4.462-2.809.648-3.17 1.973-3.206 4.215-.015.963.781 1.745 1.743 1.745H35.95c.963 0 1.76-.783 1.744-1.745-.034-2.243-.396-3.568-3.204-4.216z"/></g><g transform="translate(70 70)"><use fill="#000" filter="url(#u)" xlink:href="#v"/><rect width="53" height="53" x="-.5" y="-.5" fill="#FFF" stroke="#E1E1E1" rx="4"/><path fill="#1B2E5B" fill-opacity=".2" d="M34.49 31.734c-3.474-.803-6.708-1.506-5.141-4.462 4.766-8.998 1.263-13.81-3.77-13.81-5.133 0-8.549 4.997-3.77 13.811 1.613 2.973-1.742 3.676-5.141 4.462-2.809.648-3.17 1.973-3.206 4.215-.015.963.781 1.745 1.743 1.745H35.95c.963 0 1.76-.783 1.744-1.745-.034-2.243-.396-3.568-3.204-4.216z"/></g><g transform="translate(70 10)"><use fill="#000" filter="url(#w)" xlink:href="#x"/><rect width="53" height="53" x="-.5" y="-.5" fill="#FFF" stroke="#E1E1E1" rx="4"/><path fill="#1B2E5B" fill-opacity=".2" d="M34.49 31.734c-3.474-.803-6.708-1.506-5.141-4.462 4.766-8.998 1.263-13.81-3.77-13.81-5.133 0-8.549 4.997-3.77 13.811 1.613 2.973-1.742 3.676-5.141 4.462-2.809.648-3.17 1.973-3.206 4.215-.015.963.781 1.745 1.743 1.745H35.95c.963 0 1.76-.783 1.744-1.745-.034-2.243-.396-3.568-3.204-4.216z"/></g></g><g transform="translate(274 16)"><use fill="#000" filter="url(#y)" xlink:href="#z"/><rect width="55" height="71" x="-.5" fill="#FFF" stroke="#E1E1E1" rx="2"/><rect width="24" height="24" x="15" y="24" fill="#F15242" rx="4"/></g><g transform="translate(340 16)"><use fill="#000" filter="url(#A)" xlink:href="#B"/><rect width="55" height="71" x="-.5" fill="#FFF" stroke="#E1E1E1" rx="2"/><path fill="#01B2D0" d="M28.759 27.247l9.642 17.8A2 2 0 0 1 36.642 48H17.358a2 2 0 0 1-1.759-2.953l9.642-17.8a2 2 0 0 1 3.518 0z"/></g><g transform="translate(406 16)"><use fill="#000" filter="url(#C)" xlink:href="#D"/><rect width="55" height="71" x="-.5" y="-.5" fill="#FFF" stroke="#E1E1E1" rx="2"/><ellipse cx="27" cy="35.482" fill="#FFC111" rx="12" ry="11.566"/></g></g></svg>