<svg xmlns="http://www.w3.org/2000/svg" xmlns:xlink="http://www.w3.org/1999/xlink" width="465" height="350" viewBox="0 0 465 350"><defs><filter id="b" width="107.1%" height="109.6%" x="-3.5%" y="-3.9%" filterUnits="objectBoundingBox"><feMorphology in="SourceAlpha" operator="dilate" radius="1" result="shadowSpreadOuter1"/><feOffset dy="2" in="shadowSpreadOuter1" result="shadowOffsetOuter1"/><feGaussianBlur in="shadowOffsetOuter1" result="shadowBlurOuter1" stdDeviation="3"/><feComposite in="shadowBlurOuter1" in2="SourceAlpha" operator="out" result="shadowBlurOuter1"/><feColorMatrix in="shadowBlurOuter1" values="0 0 0 0 0.207843137 0 0 0 0 0.258823529 0 0 0 0 0.329411765 0 0 0 0.101137908 0"/></filter><filter id="d" width="107.1%" height="222.2%" x="-3.5%" y="-50%" filterUnits="objectBoundingBox"><feMorphology in="SourceAlpha" operator="dilate" radius="1" result="shadowSpreadOuter1"/><feOffset dy="2" in="shadowSpreadOuter1" result="shadowOffsetOuter1"/><feGaussianBlur in="shadowOffsetOuter1" result="shadowBlurOuter1" stdDeviation="3"/><feComposite in="shadowBlurOuter1" in2="SourceAlpha" operator="out" result="shadowBlurOuter1"/><feColorMatrix in="shadowBlurOuter1" values="0 0 0 0 0.207843137 0 0 0 0 0.258823529 0 0 0 0 0.329411765 0 0 0 0.101137908 0"/></filter><filter id="g" width="111.6%" height="108%" x="-5.8%" y="-3.3%" filterUnits="objectBoundingBox"><feMorphology in="SourceAlpha" operator="dilate" radius="1" result="shadowSpreadOuter1"/><feOffset dy="2" in="shadowSpreadOuter1" result="shadowOffsetOuter1"/><feGaussianBlur in="shadowOffsetOuter1" result="shadowBlurOuter1" stdDeviation="3"/><feComposite in="shadowBlurOuter1" in2="SourceAlpha" operator="out" result="shadowBlurOuter1"/><feColorMatrix in="shadowBlurOuter1" values="0 0 0 0 0.207843137 0 0 0 0 0.258823529 0 0 0 0 0.329411765 0 0 0 0.101137908 0"/></filter><filter id="i" width="111.6%" height="222.2%" x="-5.8%" y="-50%" filterUnits="objectBoundingBox"><feMorphology in="SourceAlpha" operator="dilate" radius="1" result="shadowSpreadOuter1"/><feOffset dy="2" in="shadowSpreadOuter1" result="shadowOffsetOuter1"/><feGaussianBlur in="shadowOffsetOuter1" result="shadowBlurOuter1" stdDeviation="3"/><feComposite in="shadowBlurOuter1" in2="SourceAlpha" operator="out" result="shadowBlurOuter1"/><feColorMatrix in="shadowBlurOuter1" values="0 0 0 0 0.207843137 0 0 0 0 0.258823529 0 0 0 0 0.329411765 0 0 0 0.101137908 0"/></filter><filter id="k" width="139.3%" height="139.3%" x="-19.6%" y="-16.1%" filterUnits="objectBoundingBox"><feMorphology in="SourceAlpha" operator="dilate" radius="1" result="shadowSpreadOuter1"/><feOffset dy="2" in="shadowSpreadOuter1" result="shadowOffsetOuter1"/><feGaussianBlur in="shadowOffsetOuter1" result="shadowBlurOuter1" stdDeviation="3"/><feComposite in="shadowBlurOuter1" in2="SourceAlpha" operator="out" result="shadowBlurOuter1"/><feColorMatrix in="shadowBlurOuter1" values="0 0 0 0 0.207843137 0 0 0 0 0.258823529 0 0 0 0 0.329411765 0 0 0 0.101137908 0"/></filter><rect id="a" width="312" height="228" x="0" y="0" rx="8"/><rect id="f" width="190" height="274" x="0" y="0" rx="8"/><path id="e" d="M0 0h312v10a8 8 0 01-8 8H8a8 8 0 01-8-8V0z"/><path id="j" d="M0 0h190v10a8 8 0 01-8 8H8a8 8 0 01-8-8V0z"/><circle id="l" cx="28" cy="28" r="28"/></defs><g fill="none" fill-rule="evenodd"><g transform="translate(23 101)"><mask id="c" fill="#fff"><use xlink:href="#a"/></mask><use fill="#000" filter="url(#b)" xlink:href="#a"/><rect width="313" height="229" x="-.5" y="-.5" fill="#FFF" stroke="#E1E1E1" rx="8"/><g fill="#F1F1F1" mask="url(#c)"><g transform="translate(10 28)"><rect width="64" height="4" rx="2"/><rect width="80" height="4" y="10" rx="2"/></g></g><g mask="url(#c)"><g transform="translate(93 52)"><g transform="translate(42)"><rect width="40" height="40" fill="#F7F7F7" rx="4"/><path stroke="#6FD350" stroke-linecap="round" stroke-linejoin="round" stroke-width="4" d="M13.233 20.692l5.183 4.856 8.817-10"/></g><rect width="40" height="40" fill="#F7F7F7" rx="4"/><path stroke="#6FD350" stroke-linecap="round" stroke-linejoin="round" stroke-width="4" d="M13.233 20.692l5.183 4.856 8.817-10"/><g transform="translate(84)"><rect width="40" height="40" fill="#F7F7F7" rx="4"/><path stroke="#6FD350" stroke-linecap="round" stroke-linejoin="round" stroke-width="4" d="M13.233 20.692l5.183 4.856 8.817-10"/></g><g transform="translate(126)"><rect width="40" height="40" fill="#F7F7F7" rx="4"/><path stroke="#6FD350" stroke-linecap="round" stroke-linejoin="round" stroke-width="4" d="M13.233 20.692l5.183 4.856 8.817-10"/></g><g transform="translate(168)"><rect width="40" height="40" fill="#F7F7F7" rx="4"/><path stroke="#6FD350" stroke-linecap="round" stroke-linejoin="round" stroke-width="4" d="M13.233 20.692l5.183 4.856 8.817-10"/></g></g></g><g mask="url(#c)"><g transform="translate(10 94)"><g transform="translate(42)"><rect width="40" height="40" fill="#F7F7F7" rx="4"/><path stroke="#6FD350" stroke-linecap="round" stroke-linejoin="round" stroke-width="4" d="M13.233 20.692l5.183 4.856 8.817-10"/></g><g transform="translate(84)"><rect width="40" height="40" fill="#F7F7F7" rx="4"/><path stroke="#6FD350" stroke-linecap="round" stroke-linejoin="round" stroke-width="4" d="M13.233 20.692l5.183 4.856 8.817-10"/></g><g transform="translate(126)"><rect width="40" height="40" fill="#F7F7F7" rx="4"/><path stroke="#6FD350" stroke-linecap="round" stroke-linejoin="round" stroke-width="4" d="M13.233 20.692l5.183 4.856 8.817-10"/></g><g transform="translate(168)"><rect width="40" height="40" fill="#F7F7F7" rx="4"/><path stroke="#6FD350" stroke-linecap="round" stroke-linejoin="round" stroke-width="4" d="M13.233 20.692l5.183 4.856 8.817-10"/></g><rect width="40" height="40" fill="#F7F7F7" rx="4"/><path stroke="#6FD350" stroke-linecap="round" stroke-linejoin="round" stroke-width="4" d="M13.233 20.692l5.183 4.856 8.817-10"/><rect width="40" height="40" x="210" fill="#F7F7F7" rx="4"/><rect width="40" height="40" x="252" fill="#F7F7F7" rx="4"/></g></g><g mask="url(#c)"><g transform="translate(10 136)"><rect width="40" height="40" fill="#F7F7F7" rx="4"/><path stroke="#6FD350" stroke-linecap="round" stroke-linejoin="round" stroke-width="4" d="M13.233 20.692l5.183 4.856 8.817-10"/><g transform="translate(42)"><rect width="40" height="40" fill="#F7F7F7" rx="4"/><path stroke="#6FD350" stroke-linecap="round" stroke-linejoin="round" stroke-width="4" d="M13.233 20.692l5.183 4.856 8.817-10"/></g><rect width="40" height="40" x="210" fill="#F7F7F7" rx="4"/><rect width="40" height="40" x="252" fill="#F7F7F7" rx="4"/><rect width="40" height="40" x="84" fill="#F7F7F7" rx="4"/><rect width="40" height="40" x="126" fill="#F7F7F7" rx="4"/><rect width="40" height="40" x="168" fill="#F7F7F7" rx="4"/></g></g><g fill="#F7F7F7" mask="url(#c)"><g transform="translate(10 178)"><rect width="40" height="40" x="42" rx="4"/><rect width="40" height="40" rx="4"/><rect width="40" height="40" x="84" rx="4"/><rect width="40" height="40" x="126" rx="4"/></g></g><g mask="url(#c)"><g transform="matrix(1 0 0 -1 0 18)"><use fill="#000" filter="url(#d)" xlink:href="#e"/><path fill="#FFF" stroke="#E1E1E1" d="M304 18.5H8a8.473 8.473 0 01-6.01-2.49A8.473 8.473 0 01-.5 10V-.5h313V10a8.473 8.473 0 01-2.49 6.01A8.473 8.473 0 01304 18.5z"/></g><circle cx="9" cy="9" r="3" fill="#F15242"/><circle cx="25" cy="9" r="3" fill="#6FD350"/><circle cx="17" cy="9" r="3" fill="#FFC111"/></g></g><g transform="translate(246 29)"><mask id="h" fill="#fff"><use xlink:href="#f"/></mask><use fill="#000" filter="url(#g)" xlink:href="#f"/><rect width="191" height="275" x="-.5" y="-.5" fill="#FFF" stroke="#E1E1E1" rx="8"/><path fill="#E1E1E1" mask="url(#h)" d="M0 38h190v1H0z"/><path fill="#F1F1F1" mask="url(#h)" d="M35 59h120v76H35z"/><rect width="120" height="2" x="35" y="163" fill="#F1F1F1" mask="url(#h)" rx="1"/><rect width="120" height="2" x="35" y="175" fill="#F1F1F1" mask="url(#h)" rx="1"/><rect width="120" height="2" x="35" y="151" fill="#F1F1F1" mask="url(#h)" rx="1"/><rect width="120" height="2" x="35" y="187" fill="#F1F1F1" mask="url(#h)" rx="1"/><rect width="120" height="2" x="35" y="199" fill="#F1F1F1" mask="url(#h)" rx="1"/><rect width="120" height="2" x="35" y="211" fill="#F1F1F1" mask="url(#h)" rx="1"/><rect width="120" height="2" x="35" y="223" fill="#F1F1F1" mask="url(#h)" rx="1"/><rect width="120" height="2" x="35" y="235" fill="#F1F1F1" mask="url(#h)" rx="1"/><g mask="url(#h)"><g transform="matrix(1 0 0 -1 0 18)"><use fill="#000" filter="url(#i)" xlink:href="#j"/><path fill="#FFF" stroke="#E1E1E1" d="M182 18.5H8a8.473 8.473 0 01-6.01-2.49A8.473 8.473 0 01-.5 10V-.5h191V10a8.473 8.473 0 01-2.49 6.01A8.473 8.473 0 01182 18.5z"/></g><rect width="58" height="4" x="8" y="26" fill="#F1F1F1" rx="2"/><circle cx="9" cy="9" r="3" fill="#F15242"/><circle cx="25" cy="9" r="3" fill="#6FD350"/><circle cx="17" cy="9" r="3" fill="#FFC111"/></g></g><g transform="translate(404 265)"><use fill="#000" filter="url(#k)" xlink:href="#l"/><circle cx="28" cy="28" r="28.5" fill="#FFF" stroke="#E1E1E1"/><path fill="#01B2D0" d="M40.915 12.143a.5.5 0 01.144.35V21.7a.5.5 0 01-.5.5h-9.347a.5.5 0 01-.351-.857l3.448-3.397a12.156 12.156 0 00-6.211-1.692c-6.668 0-12.074 5.324-12.074 11.891s5.406 11.891 12.074 11.891c5.805 0 10.653-4.035 11.81-9.413H44C42.792 38.203 36.132 44 28.098 44 19.208 44 12 36.902 12 28.145c0-8.756 7.207-15.855 16.098-15.855 3.387 0 6.53 1.03 9.122 2.79l2.988-2.943a.5.5 0 01.707.006z"/></g></g></svg>