<svg xmlns="http://www.w3.org/2000/svg" xmlns:xlink="http://www.w3.org/1999/xlink" width="465" height="350" viewBox="0 0 465 350"><defs><rect id="b" width="356" height="222" x="0" y="0" rx="8"/><filter id="a" width="106.2%" height="109.9%" x="-3.1%" y="-4.1%" filterUnits="objectBoundingBox"><feMorphology in="SourceAlpha" operator="dilate" radius="1" result="shadowSpreadOuter1"/><feOffset dy="2" in="shadowSpreadOuter1" result="shadowOffsetOuter1"/><feGaussianBlur in="shadowOffsetOuter1" result="shadowBlurOuter1" stdDeviation="3"/><feComposite in="shadowBlurOuter1" in2="SourceAlpha" operator="out" result="shadowBlurOuter1"/><feColorMatrix in="shadowBlurOuter1" values="0 0 0 0 0.207843137 0 0 0 0 0.258823529 0 0 0 0 0.329411765 0 0 0 0.101137908 0"/></filter><rect id="d" width="369" height="68" x="0" y="0" rx="8"/><filter id="c" width="106%" height="132.4%" x="-3%" y="-13.2%" filterUnits="objectBoundingBox"><feMorphology in="SourceAlpha" operator="dilate" radius="1" result="shadowSpreadOuter1"/><feOffset dy="2" in="shadowSpreadOuter1" result="shadowOffsetOuter1"/><feGaussianBlur in="shadowOffsetOuter1" result="shadowBlurOuter1" stdDeviation="3"/><feComposite in="shadowBlurOuter1" in2="SourceAlpha" operator="out" result="shadowBlurOuter1"/><feColorMatrix in="shadowBlurOuter1" values="0 0 0 0 0.207843137 0 0 0 0 0.258823529 0 0 0 0 0.329411765 0 0 0 0.101137908 0"/></filter></defs><g fill="none" fill-rule="evenodd"><g stroke="#E1E1E1" stroke-dasharray="1 8" stroke-linecap="round" stroke-linejoin="round" stroke-width="2"><path d="M283 334c88.366 0 160-71.634 160-160S371.366 14 283 14 123 85.634 123 174s71.634 160 160 160z"/><path d="M283 308c74.006 0 134-59.994 134-134S357.006 40 283 40 149 99.994 149 174s59.994 134 134 134z"/><path d="M283 282c59.647 0 108-48.353 108-108S342.647 66 283 66s-108 48.353-108 108 48.353 108 108 108z"/><path d="M283 256c45.287 0 82-36.713 82-82s-36.713-82-82-82-82 36.713-82 82 36.713 82 82 82z"/></g><g transform="translate(53 114)"><use fill="#000" filter="url(#a)" xlink:href="#b"/><rect width="357" height="223" x="-.5" y="-.5" fill="#FFF" stroke="#E1E1E1" rx="8"/><path fill="#F1F1F1" d="M16 195h324v1H16z"/><g fill="#F1F1F1" transform="translate(30 204)"><rect width="16" height="2" rx="1"/><rect width="16" height="2" x="56" rx="1"/><rect width="16" height="2" x="112" rx="1"/><rect width="16" height="2" x="168" rx="1"/><rect width="16" height="2" x="224" rx="1"/><rect width="16" height="2" x="280" rx="1"/></g><rect width="60" height="44" x="12" y="12" fill="#F9F9F9" rx="4"/><rect width="32" height="4" x="22" y="22" fill="#384254" rx="2"/><rect width="60" height="44" x="80" y="12" fill="#F9F9F9" rx="4"/><rect width="32" height="4" x="90" y="22" fill="#01B2D0" rx="2"/><rect width="60" height="44" x="148" y="12" fill="#F9F9F9" rx="4"/><rect width="32" height="4" x="158" y="22" fill="#6F0DFB" rx="2"/><rect width="60" height="44" x="216" y="12" fill="#F9F9F9" rx="4"/><rect width="32" height="4" x="226" y="22" fill="#01B2D0" rx="2"/><rect width="60" height="44" x="284" y="12" fill="#F9F9F9" rx="4"/><rect width="32" height="4" x="294" y="22" fill="#FFC111" rx="2"/><g stroke-linecap="round" stroke-linejoin="round" stroke-width="2"><path stroke="#01B2D0" d="M28 186.612l60-10.962 60 10.962 60-10.962h60l60-23.077"/><path stroke="#FFC111" d="M28 186.612l60-34.039 60 10.962 60-10.962 60-11.538 60 23.077"/><path stroke="#6F0DFB" d="M28 186.612l60-57.115 60 34.038 60-10.962 60 11.539 60-46.154"/><path stroke="#1B2E5B" d="M28 186.612l60-46.626 60-7.92 60-10.961 60 1.049L328 76"/><path stroke="#6FD350" d="M28 186.612l60-6.346 60-16.731 60-15.041 60 15.618 60-69.231"/></g></g><g transform="translate(16 30)"><use fill="#000" filter="url(#c)" xlink:href="#d"/><rect width="370" height="69" x="-.5" y="-.5" fill="#FFF" stroke="#E1E1E1" rx="8"/><path fill="#384254" fill-rule="nonzero" d="M51.092 29.216c2.124 0 3.564-1.008 4.572-2.394l-1.26-.684a4.084 4.084 0 0 1-3.312 1.746c-2.628 0-4.626-2.034-4.626-4.878 0-2.88 1.998-4.878 4.626-4.878 1.368 0 2.628.72 3.312 1.746l1.242-.702c-.954-1.368-2.43-2.376-4.554-2.376-3.456 0-6.174 2.52-6.174 6.21s2.718 6.21 6.174 6.21zm9.198 0c1.296 0 2.43-.684 3.096-1.44V29h1.35v-8.694h-1.35v6.39c-.504.702-1.512 1.314-2.556 1.314-1.188 0-1.962-.45-1.962-1.98v-5.724h-1.35v6.138c0 1.872.954 2.772 2.772 2.772zm9.918 0c2.232 0 3.402-1.17 3.402-2.628 0-3.384-5.382-2.142-5.382-4.032 0-.774.738-1.368 1.926-1.368 1.134 0 2.07.468 2.592 1.098l.63-.936c-.684-.702-1.728-1.26-3.222-1.26-2.07 0-3.222 1.134-3.222 2.502 0 3.222 5.382 1.926 5.382 4.032 0 .864-.738 1.494-2.07 1.494-1.188 0-2.286-.576-2.862-1.242l-.684.972c.882.918 2.07 1.368 3.51 1.368zm7.812 0c.774 0 1.26-.234 1.602-.558l-.396-1.026c-.18.198-.522.378-.918.378-.576 0-.864-.468-.864-1.116v-5.4h1.764v-1.188h-1.764V17.93h-1.368v2.376h-1.44v1.188h1.44v5.688c0 1.296.648 2.034 1.944 2.034zm6.876 0c2.646 0 4.302-2.052 4.302-4.572s-1.656-4.554-4.302-4.554-4.302 2.034-4.302 4.554c0 2.52 1.656 4.572 4.302 4.572zm0-1.206c-1.854 0-2.88-1.584-2.88-3.366 0-1.764 1.026-3.348 2.88-3.348 1.854 0 2.88 1.584 2.88 3.348 0 1.782-1.026 3.366-2.88 3.366zm7.848.99v-6.354c.468-.702 1.404-1.35 2.286-1.35 1.152 0 1.602.702 1.602 1.8V29h1.35v-6.372c.45-.702 1.404-1.332 2.304-1.332 1.134 0 1.602.702 1.602 1.8V29h1.35v-6.282c0-1.746-.846-2.628-2.43-2.628-1.26 0-2.43.828-2.916 1.62-.252-.9-1.008-1.62-2.322-1.62-1.296 0-2.448.918-2.826 1.476v-1.26h-1.35V29h1.35zm17.136.216c1.404 0 2.574-.486 3.456-1.35l-.648-.882c-.702.72-1.692 1.116-2.7 1.116-1.872 0-3.006-1.368-3.114-3.006h7.02v-.342c0-2.61-1.548-4.662-4.176-4.662-2.484 0-4.284 2.034-4.284 4.554 0 2.718 1.854 4.572 4.446 4.572zm2.682-5.13h-5.706c.072-1.314.99-2.88 2.844-2.88 1.98 0 2.844 1.602 2.862 2.88zm4.86 4.914v-6.156c.396-.702 1.53-1.386 2.376-1.386.198 0 .36.018.522.036v-1.386c-1.188 0-2.196.684-2.898 1.584v-1.386h-1.35V29h1.35zm14.778.216c3.546 0 5.976-2.664 5.976-6.21s-2.43-6.21-5.976-6.21-5.958 2.664-5.958 6.21 2.412 6.21 5.958 6.21zm0-1.332c-2.7 0-4.41-2.088-4.41-4.878 0-2.808 1.71-4.878 4.41-4.878 2.682 0 4.428 2.07 4.428 4.878 0 2.79-1.746 4.878-4.428 4.878zM141.794 29v-6.354c.522-.702 1.512-1.35 2.574-1.35 1.17 0 1.962.468 1.962 2.016V29h1.332v-6.102c0-1.89-.954-2.808-2.754-2.808-1.314 0-2.502.738-3.114 1.476v-1.26h-1.35V29h1.35zm12.87.216c2.268 0 3.87-1.728 3.87-4.554 0-2.79-1.584-4.572-3.87-4.572-1.17 0-2.232.576-2.934 1.53v-4.626h-1.35V29h1.35v-1.296c.648.882 1.71 1.512 2.934 1.512zm-.324-1.206c-1.08 0-2.142-.612-2.61-1.368V22.7c.468-.756 1.53-1.404 2.61-1.404 1.746 0 2.79 1.44 2.79 3.366 0 1.926-1.044 3.348-2.79 3.348zm10.188 1.206c2.646 0 4.302-2.052 4.302-4.572s-1.656-4.554-4.302-4.554-4.302 2.034-4.302 4.554c0 2.52 1.656 4.572 4.302 4.572zm0-1.206c-1.854 0-2.88-1.584-2.88-3.366 0-1.764 1.026-3.348 2.88-3.348 1.854 0 2.88 1.584 2.88 3.348 0 1.782-1.026 3.366-2.88 3.366zm9.054 1.206c1.17 0 2.178-.414 2.88-1.206V29h1.35v-5.976c0-2.106-1.512-2.934-3.366-2.934-1.422 0-2.538.468-3.474 1.44l.63.936c.774-.846 1.62-1.206 2.664-1.206 1.26 0 2.196.666 2.196 1.818v1.566c-.702-.792-1.692-1.17-2.88-1.17-1.476 0-3.024.9-3.024 2.862 0 1.89 1.566 2.88 3.024 2.88zm.504-.972c-1.278 0-2.16-.792-2.16-1.908 0-1.098.882-1.89 2.16-1.89.936 0 1.854.36 2.376 1.062v1.656c-.522.72-1.44 1.08-2.376 1.08zm7.794.756v-6.156c.396-.702 1.53-1.386 2.376-1.386.198 0 .36.018.522.036v-1.386c-1.188 0-2.196.684-2.898 1.584v-1.386h-1.35V29h1.35zm7.956.216c1.224 0 2.286-.63 2.934-1.512V29h1.35V16.994h-1.35v4.626c-.702-.954-1.764-1.53-2.934-1.53-2.268 0-3.87 1.782-3.87 4.572 0 2.826 1.602 4.554 3.87 4.554zm.342-1.206c-1.764 0-2.808-1.422-2.808-3.348s1.044-3.366 2.808-3.366c1.062 0 2.124.648 2.592 1.404v3.924c-.468.756-1.53 1.386-2.592 1.386zm7.326-8.946c.504 0 .9-.396.9-.9a.907.907 0 0 0-.9-.918.922.922 0 0 0-.918.918c0 .504.414.9.918.9zM198.17 29v-8.694h-1.35V29h1.35zm4.05 0v-6.354c.522-.702 1.512-1.35 2.574-1.35 1.17 0 1.962.468 1.962 2.016V29h1.332v-6.102c0-1.89-.954-2.808-2.754-2.808-1.314 0-2.502.738-3.114 1.476v-1.26h-1.35V29h1.35zm12.078 3.528c2.124 0 4.158-.9 4.158-3.654v-8.568h-1.35v1.314c-.702-.954-1.764-1.53-2.934-1.53-2.286 0-3.87 1.728-3.87 4.518 0 2.808 1.602 4.5 3.87 4.5 1.224 0 2.286-.666 2.934-1.548v1.314c0 1.836-1.368 2.538-2.808 2.538-1.242 0-2.106-.324-2.826-1.17l-.684.972c1.044 1.026 2.052 1.314 3.51 1.314zm.216-4.626c-1.764 0-2.808-1.386-2.808-3.294 0-1.926 1.044-3.312 2.808-3.312 1.062 0 2.106.648 2.592 1.386v3.816c-.486.756-1.53 1.404-2.592 1.404z"/><rect width="60" height="2" x="44" y="46" fill="#F1F1F1" rx="1"/><rect width="32" height="4" x="325" y="22" fill="#F1F1F1" rx="2"/><rect width="80" height="2" x="44" y="54" fill="#F1F1F1" rx="1"/><rect width="3" height="6" x="15" y="27" fill="#01B2D0" rx="1.5"/><rect width="3" height="10" x="20" y="23" fill="#01B2D0" rx="1.5"/><rect width="3" height="14" x="25" y="19" fill="#01B2D0" rx="1.5"/><rect width="3" height="18" x="30" y="15" fill="#01B2D0" rx="1.5"/></g></g></svg>