<svg xmlns="http://www.w3.org/2000/svg" xmlns:xlink="http://www.w3.org/1999/xlink" width="465" height="350" viewBox="0 0 465 350"><defs><rect id="b" width="356" height="222" x="0" y="0" rx="8"/><filter id="a" width="106.2%" height="109.9%" x="-3.1%" y="-4.1%" filterUnits="objectBoundingBox"><feMorphology in="SourceAlpha" operator="dilate" radius="1" result="shadowSpreadOuter1"/><feOffset dy="2" in="shadowSpreadOuter1" result="shadowOffsetOuter1"/><feGaussianBlur in="shadowOffsetOuter1" result="shadowBlurOuter1" stdDeviation="3"/><feComposite in="shadowBlurOuter1" in2="SourceAlpha" operator="out" result="shadowBlurOuter1"/><feColorMatrix in="shadowBlurOuter1" values="0 0 0 0 0.207843137 0 0 0 0 0.258823529 0 0 0 0 0.329411765 0 0 0 0.101137908 0"/></filter><rect id="d" width="369" height="68" x="0" y="0" rx="8"/><filter id="c" width="106%" height="132.4%" x="-3%" y="-13.2%" filterUnits="objectBoundingBox"><feMorphology in="SourceAlpha" operator="dilate" radius="1" result="shadowSpreadOuter1"/><feOffset dy="2" in="shadowSpreadOuter1" result="shadowOffsetOuter1"/><feGaussianBlur in="shadowOffsetOuter1" result="shadowBlurOuter1" stdDeviation="3"/><feComposite in="shadowBlurOuter1" in2="SourceAlpha" operator="out" result="shadowBlurOuter1"/><feColorMatrix in="shadowBlurOuter1" values="0 0 0 0 0.207843137 0 0 0 0 0.258823529 0 0 0 0 0.329411765 0 0 0 0.101137908 0"/></filter></defs><g fill="none" fill-rule="evenodd"><g transform="translate(53 114)"><use fill="#000" filter="url(#a)" xlink:href="#b"/><rect width="357" height="223" x="-.5" y="-.5" fill="#FFF" stroke="#E1E1E1" rx="8"/><path fill="#F1F1F1" d="M16 195h324v1H16z"/><g fill="#F1F1F1" transform="translate(30 204)"><rect width="16" height="2" rx="1"/><rect width="16" height="2" x="56" rx="1"/><rect width="16" height="2" x="112" rx="1"/><rect width="16" height="2" x="168" rx="1"/><rect width="16" height="2" x="224" rx="1"/><rect width="16" height="2" x="280" rx="1"/></g><rect width="60" height="44" x="12" y="12" fill="#F9F9F9" rx="4"/><rect width="32" height="4" x="22" y="22" fill="#384254" rx="2"/><rect width="60" height="44" x="80" y="12" fill="#F9F9F9" rx="4"/><rect width="32" height="4" x="90" y="22" fill="#01B2D0" rx="2"/><rect width="60" height="44" x="148" y="12" fill="#F9F9F9" rx="4"/><rect width="32" height="4" x="158" y="22" fill="#6F0DFB" rx="2"/><rect width="60" height="44" x="216" y="12" fill="#F9F9F9" rx="4"/><rect width="32" height="4" x="226" y="22" fill="#01B2D0" rx="2"/><rect width="60" height="44" x="284" y="12" fill="#F9F9F9" rx="4"/><rect width="32" height="4" x="294" y="22" fill="#FFC111" rx="2"/><g stroke-linecap="round" stroke-linejoin="round" stroke-width="2"><path stroke="#01B2D0" d="M28 186.612l60-10.962 60 10.962 60-10.962h60l60-23.077"/><path stroke="#FFC111" d="M28 186.612l60-34.039 60 10.962 60-10.962 60-11.538 60 23.077"/><path stroke="#6F0DFB" d="M28 186.612l60-57.115 60 34.038 60-10.962 60 11.539 60-46.154"/><path stroke="#1B2E5B" d="M28 186.612l60-46.626 60-7.92 60-10.961 60 1.049L328 76"/><path stroke="#6FD350" d="M28 186.612l60-6.346 60-16.731 60-15.041 60 15.618 60-69.231"/></g></g><g transform="translate(16 30)"><use fill="#000" filter="url(#c)" xlink:href="#d"/><rect width="370" height="69" x="-.5" y="-.5" fill="#FFF" stroke="#E1E1E1" rx="8"/><text fill="#384254" font-family="ProximaNova-Regular, Proxima Nova" font-size="18"><tspan x="44" y="30">Customer Onboarding</tspan></text><rect width="60" height="2" x="44" y="46" fill="#F1F1F1" rx="1"/><rect width="32" height="4" x="325" y="22" fill="#F1F1F1" rx="2"/><rect width="80" height="2" x="44" y="54" fill="#F1F1F1" rx="1"/><rect width="3" height="6" x="15" y="27" fill="#01B2D0" rx="1.5"/><rect width="3" height="10" x="20" y="23" fill="#01B2D0" rx="1.5"/><rect width="3" height="14" x="25" y="19" fill="#01B2D0" rx="1.5"/><rect width="3" height="18" x="30" y="15" fill="#01B2D0" rx="1.5"/></g></g></svg>