<svg xmlns="http://www.w3.org/2000/svg" xmlns:xlink="http://www.w3.org/1999/xlink" width="465" height="350" viewBox="0 0 465 350"><defs><filter id="a" width="105.7%" height="113.8%" x="-2.9%" y="-5.6%" filterUnits="objectBoundingBox"><feMorphology in="SourceAlpha" operator="dilate" radius="1" result="shadowSpreadOuter1"/><feOffset dy="2" in="shadowSpreadOuter1" result="shadowOffsetOuter1"/><feGaussianBlur in="shadowOffsetOuter1" result="shadowBlurOuter1" stdDeviation="3"/><feComposite in="shadowBlurOuter1" in2="SourceAlpha" operator="out" result="shadowBlurOuter1"/><feColorMatrix in="shadowBlurOuter1" values="0 0 0 0 0.207843137 0 0 0 0 0.258823529 0 0 0 0 0.329411765 0 0 0 0.101137908 0"/></filter><filter id="c" width="105.4%" height="127.8%" x="-2.7%" y="-11.1%" filterUnits="objectBoundingBox"><feOffset dy="1" in="SourceAlpha" result="shadowOffsetOuter1"/><feGaussianBlur in="shadowOffsetOuter1" result="shadowBlurOuter1" stdDeviation="1.5"/><feComposite in="shadowBlurOuter1" in2="SourceAlpha" operator="out" result="shadowBlurOuter1"/><feColorMatrix in="shadowBlurOuter1" values="0 0 0 0 0.207843137 0 0 0 0 0.258823529 0 0 0 0 0.329411765 0 0 0 0.12 0"/></filter><filter id="e" width="114.3%" height="127.8%" x="-7.1%" y="-11.1%" filterUnits="objectBoundingBox"><feOffset dy="1" in="SourceAlpha" result="shadowOffsetOuter1"/><feGaussianBlur in="shadowOffsetOuter1" result="shadowBlurOuter1" stdDeviation="1.5"/><feComposite in="shadowBlurOuter1" in2="SourceAlpha" operator="out" result="shadowBlurOuter1"/><feColorMatrix in="shadowBlurOuter1" values="0 0 0 0 0.207843137 0 0 0 0 0.258823529 0 0 0 0 0.329411765 0 0 0 0.12 0"/></filter><filter id="g" width="114.3%" height="127.8%" x="-7.1%" y="-11.1%" filterUnits="objectBoundingBox"><feOffset dy="1" in="SourceAlpha" result="shadowOffsetOuter1"/><feGaussianBlur in="shadowOffsetOuter1" result="shadowBlurOuter1" stdDeviation="1.5"/><feComposite in="shadowBlurOuter1" in2="SourceAlpha" operator="out" result="shadowBlurOuter1"/><feColorMatrix in="shadowBlurOuter1" values="0 0 0 0 0.207843137 0 0 0 0 0.258823529 0 0 0 0 0.329411765 0 0 0 0.12 0"/></filter><filter id="i" width="105.4%" height="127.8%" x="-2.7%" y="-11.1%" filterUnits="objectBoundingBox"><feOffset dy="1" in="SourceAlpha" result="shadowOffsetOuter1"/><feGaussianBlur in="shadowOffsetOuter1" result="shadowBlurOuter1" stdDeviation="1.5"/><feComposite in="shadowBlurOuter1" in2="SourceAlpha" operator="out" result="shadowBlurOuter1"/><feColorMatrix in="shadowBlurOuter1" values="0 0 0 0 0.207843137 0 0 0 0 0.258823529 0 0 0 0 0.329411765 0 0 0 0.12 0"/></filter><filter id="k" width="106.7%" height="127.8%" x="-3.3%" y="-11.1%" filterUnits="objectBoundingBox"><feOffset dy="1" in="SourceAlpha" result="shadowOffsetOuter1"/><feGaussianBlur in="shadowOffsetOuter1" result="shadowBlurOuter1" stdDeviation="1.5"/><feComposite in="shadowBlurOuter1" in2="SourceAlpha" operator="out" result="shadowBlurOuter1"/><feColorMatrix in="shadowBlurOuter1" values="0 0 0 0 0.207843137 0 0 0 0 0.258823529 0 0 0 0 0.329411765 0 0 0 0.12 0"/></filter><filter id="n" width="105.9%" height="115.3%" x="-2.9%" y="-6.2%" filterUnits="objectBoundingBox"><feMorphology in="SourceAlpha" operator="dilate" radius="1" result="shadowSpreadOuter1"/><feOffset dy="2" in="shadowSpreadOuter1" result="shadowOffsetOuter1"/><feGaussianBlur in="shadowOffsetOuter1" result="shadowBlurOuter1" stdDeviation="3"/><feComposite in="shadowBlurOuter1" in2="SourceAlpha" operator="out" result="shadowBlurOuter1"/><feColorMatrix in="shadowBlurOuter1" values="0 0 0 0 0.207843137 0 0 0 0 0.258823529 0 0 0 0 0.329411765 0 0 0 0.101137908 0"/></filter><rect id="b" width="384" height="160" x="0" y="0" rx="8"/><rect id="d" width="184" height="36" x="0" y="0" rx="4"/><rect id="f" width="70" height="36" x="0" y="0" rx="4"/><rect id="h" width="70" height="36" x="0" y="0" rx="4"/><rect id="j" width="184" height="36" x="0" y="0" rx="4"/><rect id="l" width="150" height="36" x="0" y="0" rx="4"/><rect id="m" width="374" height="144" x="0" y="0" rx="8"/></defs><g fill="none" fill-rule="evenodd"><g stroke="#E1E1E1" stroke-dasharray="1 8" stroke-linecap="round" stroke-linejoin="round" stroke-width="2"><path d="M293 336c88.366 0 160-71.634 160-160S381.366 16 293 16 133 87.634 133 176s71.634 160 160 160z"/><path d="M293 310c74.006 0 134-59.994 134-134S367.006 42 293 42s-134 59.994-134 134 59.994 134 134 134z"/><path d="M293 284c59.647 0 108-48.353 108-108S352.647 68 293 68s-108 48.353-108 108 48.353 108 108 108z"/><path d="M293 258c45.287 0 82-36.713 82-82s-36.713-82-82-82-82 36.713-82 82 36.713 82 82 82z"/></g><g transform="translate(48 25)"><use fill="#000" filter="url(#a)" xlink:href="#b"/><rect width="385" height="161" x="-.5" y="-.5" fill="#FFF" stroke="#E1E1E1" rx="8"/><g transform="translate(20 90)"><use fill="#000" filter="url(#c)" xlink:href="#d"/><rect width="183" height="35" x=".5" y=".5" fill="#FFF" stroke="#E1E1E1" stroke-linejoin="square" rx="4"/><path fill="#384254" fill-rule="nonzero" d="M33.114 21.338v-4.942c.392-.546 1.176-1.05 1.988-1.05.924 0 1.526.336 1.526 1.54v4.452h1.05v-4.774c0-1.47-.742-2.156-2.156-2.156-1.022 0-1.946.574-2.408 1.148V12h-1.05v9.338h1.05zm8.652.168c.91 0 1.694-.322 2.24-.938v.77h1.05V16.69c0-1.638-1.176-2.282-2.618-2.282-1.106 0-1.974.364-2.702 1.12l.49.728c.602-.658 1.26-.938 2.072-.938.98 0 1.708.518 1.708 1.414v1.218c-.546-.616-1.316-.91-2.24-.91-1.148 0-2.352.7-2.352 2.226 0 1.47 1.218 2.24 2.352 2.24zm.392-.756c-.994 0-1.68-.616-1.68-1.484 0-.854.686-1.47 1.68-1.47.728 0 1.442.28 1.848.826v1.288c-.406.56-1.12.84-1.848.84zm7.168.756c1.736 0 2.646-.91 2.646-2.044 0-2.632-4.186-1.666-4.186-3.136 0-.602.574-1.064 1.498-1.064.882 0 1.61.364 2.016.854l.49-.728c-.532-.546-1.344-.98-2.506-.98-1.61 0-2.506.882-2.506 1.946 0 2.506 4.186 1.498 4.186 3.136 0 .672-.574 1.162-1.61 1.162-.924 0-1.778-.448-2.226-.966l-.532.756c.686.714 1.61 1.064 2.73 1.064zm9.702 0c.602 0 .98-.182 1.246-.434l-.308-.798a.994.994 0 01-.714.294c-.448 0-.672-.364-.672-.868v-4.2h1.372v-.924H58.58v-1.848h-1.064v1.848h-1.12v.924h1.12v4.424c0 1.008.504 1.582 1.512 1.582zm3.444-.168V16.55c.308-.546 1.19-1.078 1.848-1.078.154 0 .28.014.406.028v-1.078c-.924 0-1.708.532-2.254 1.232v-1.078h-1.05v6.762h1.05zm4.102-7.728c.392 0 .7-.308.7-.7a.705.705 0 00-.7-.714.717.717 0 00-.714.714c0 .392.322.7.714.7zm.518 7.728v-6.762h-1.05v6.762h1.05zm4.816 2.744c1.652 0 3.234-.7 3.234-2.842v-6.664h-1.05v1.022c-.546-.742-1.372-1.19-2.282-1.19-1.778 0-3.01 1.344-3.01 3.514 0 2.184 1.246 3.5 3.01 3.5.952 0 1.778-.518 2.282-1.204v1.022c0 1.428-1.064 1.974-2.184 1.974-.966 0-1.638-.252-2.198-.91l-.532.756c.812.798 1.596 1.022 2.73 1.022zm.168-3.598c-1.372 0-2.184-1.078-2.184-2.562 0-1.498.812-2.576 2.184-2.576.826 0 1.638.504 2.016 1.078v2.968c-.378.588-1.19 1.092-2.016 1.092zm7.882 3.598c1.652 0 3.234-.7 3.234-2.842v-6.664h-1.05v1.022c-.546-.742-1.372-1.19-2.282-1.19-1.778 0-3.01 1.344-3.01 3.514 0 2.184 1.246 3.5 3.01 3.5.952 0 1.778-.518 2.282-1.204v1.022c0 1.428-1.064 1.974-2.184 1.974-.966 0-1.638-.252-2.198-.91l-.532.756c.812.798 1.596 1.022 2.73 1.022zm.168-3.598c-1.372 0-2.184-1.078-2.184-2.562 0-1.498.812-2.576 2.184-2.576.826 0 1.638.504 2.016 1.078v2.968c-.378.588-1.19 1.092-2.016 1.092zm8.232 1.022c1.092 0 2.002-.378 2.688-1.05l-.504-.686a2.943 2.943 0 01-2.1.868c-1.456 0-2.338-1.064-2.422-2.338h5.46v-.266c0-2.03-1.204-3.626-3.248-3.626-1.932 0-3.332 1.582-3.332 3.542 0 2.114 1.442 3.556 3.458 3.556zm2.086-3.99h-4.438c.056-1.022.77-2.24 2.212-2.24 1.54 0 2.212 1.246 2.226 2.24zm3.78 3.822V16.55c.308-.546 1.19-1.078 1.848-1.078.154 0 .28.014.406.028v-1.078c-.924 0-1.708.532-2.254 1.232v-1.078h-1.05v6.762h1.05zm6.636.168c1.092 0 2.002-.378 2.688-1.05l-.504-.686a2.943 2.943 0 01-2.1.868c-1.456 0-2.338-1.064-2.422-2.338h5.46v-.266c0-2.03-1.204-3.626-3.248-3.626-1.932 0-3.332 1.582-3.332 3.542 0 2.114 1.442 3.556 3.458 3.556zm2.086-3.99h-4.438c.056-1.022.77-2.24 2.212-2.24 1.54 0 2.212 1.246 2.226 2.24zm5.348 3.99c.952 0 1.778-.49 2.282-1.176v1.008h1.05V12h-1.05v3.598c-.546-.742-1.372-1.19-2.282-1.19-1.764 0-3.01 1.386-3.01 3.556 0 2.198 1.246 3.542 3.01 3.542zm.266-.938c-1.372 0-2.184-1.106-2.184-2.604s.812-2.618 2.184-2.618c.826 0 1.652.504 2.016 1.092v3.052c-.364.588-1.19 1.078-2.016 1.078zm11.858.938c1.092 0 2.002-.378 2.688-1.05l-.504-.686a2.943 2.943 0 01-2.1.868c-1.456 0-2.338-1.064-2.422-2.338h5.46v-.266c0-2.03-1.204-3.626-3.248-3.626-1.932 0-3.332 1.582-3.332 3.542 0 2.114 1.442 3.556 3.458 3.556zm2.086-3.99h-4.438c.056-1.022.77-2.24 2.212-2.24 1.54 0 2.212 1.246 2.226 2.24zm5.684 3.822l2.814-6.762h-1.134l-2.254 5.544-2.24-5.544h-1.148l2.814 6.762h1.148zm6.972.168c1.092 0 2.002-.378 2.688-1.05l-.504-.686a2.943 2.943 0 01-2.1.868c-1.456 0-2.338-1.064-2.422-2.338h5.46v-.266c0-2.03-1.204-3.626-3.248-3.626-1.932 0-3.332 1.582-3.332 3.542 0 2.114 1.442 3.556 3.458 3.556zm2.086-3.99h-4.438c.056-1.022.77-2.24 2.212-2.24 1.54 0 2.212 1.246 2.226 2.24zm3.78 3.822v-4.942c.406-.546 1.176-1.05 2.002-1.05.91 0 1.526.364 1.526 1.568v4.424h1.036v-4.746c0-1.47-.742-2.184-2.142-2.184-1.022 0-1.946.574-2.422 1.148v-.98h-1.05v6.762h1.05zm8.4.168c.602 0 .98-.182 1.246-.434l-.308-.798a.994.994 0 01-.714.294c-.448 0-.672-.364-.672-.868v-4.2h1.372v-.924h-1.372v-1.848h-1.064v1.848h-1.12v.924h1.12v4.424c0 1.008.504 1.582 1.512 1.582z"/><path d="M10 9h18v18H10z"/><path fill="#9AA0A9" fill-rule="nonzero" d="M24.077 17.222c.3-.327.062-.845-.388-.845h-3.355l1.56-4.82c.168-.52-.512-.897-.886-.49l-7.085 7.71c-.3.328-.062.846.388.846h3.353l-1.557 4.82c-.169.52.511.897.885.49l7.085-7.71z"/><path d="M170 12l4 4h-8zm4 8l-4 4-4-4z" fill="#000"/><g transform="translate(194)"><use fill="#000" filter="url(#e)" xlink:href="#f"/><rect width="69" height="35" x=".5" y=".5" fill="#FFF" stroke="#E1E1E1" stroke-linejoin="square" rx="4"/><rect width="28" height="4" x="10" y="16" fill="#F1F1F1" rx="2"/><path d="M58 12l4 4h-8zm4 8l-4 4-4-4z" fill="#000"/></g><g transform="translate(274)"><use fill="#000" filter="url(#g)" xlink:href="#h"/><rect width="69" height="35" x=".5" y=".5" fill="#FFF" stroke="#E1E1E1" stroke-linejoin="square" rx="4"/><rect width="28" height="4" x="10" y="16" fill="#F1F1F1" rx="2"/><path d="M58 12l4 4h-8zm4 8l-4 4-4-4z" fill="#000"/></g><rect width="60" height="4" fill="#01B2D0" rx="2" transform="translate(0 50)"/></g><g transform="translate(20 20)"><use fill="#000" filter="url(#i)" xlink:href="#j"/><rect width="183" height="35" x=".5" y=".5" fill="#FFF" stroke="#E1E1E1" stroke-linejoin="square" rx="4"/><path fill="#384254" fill-rule="nonzero" d="M32.582 13.414c.392 0 .7-.308.7-.7a.705.705 0 00-.7-.714.717.717 0 00-.714.714c0 .392.322.7.714.7zm.518 7.728V14.38h-1.05v6.762h1.05zm4.256.168c1.736 0 2.646-.91 2.646-2.044 0-2.632-4.186-1.666-4.186-3.136 0-.602.574-1.064 1.498-1.064.882 0 1.61.364 2.016.854l.49-.728c-.532-.546-1.344-.98-2.506-.98-1.61 0-2.506.882-2.506 1.946 0 2.506 4.186 1.498 4.186 3.136 0 .672-.574 1.162-1.61 1.162-.924 0-1.778-.448-2.226-.966l-.532.756c.686.714 1.61 1.064 2.73 1.064zm8.512-7.896c.392 0 .7-.308.7-.7a.705.705 0 00-.7-.714.717.717 0 00-.714.714c0 .392.322.7.714.7zm.518 7.728V14.38h-1.05v6.762h1.05zm3.15 0V16.2c.406-.546 1.176-1.05 2.002-1.05.91 0 1.526.364 1.526 1.568v4.424H54.1v-4.746c0-1.47-.742-2.184-2.142-2.184-1.022 0-1.946.574-2.422 1.148v-.98h-1.05v6.762h1.05zm12.46.168c1.736 0 2.646-.91 2.646-2.044 0-2.632-4.186-1.666-4.186-3.136 0-.602.574-1.064 1.498-1.064.882 0 1.61.364 2.016.854l.49-.728c-.532-.546-1.344-.98-2.506-.98-1.61 0-2.506.882-2.506 1.946 0 2.506 4.186 1.498 4.186 3.136 0 .672-.574 1.162-1.61 1.162-.924 0-1.778-.448-2.226-.966l-.532.756c.686.714 1.61 1.064 2.73 1.064zm7.42 0c1.092 0 2.002-.378 2.688-1.05l-.504-.686a2.943 2.943 0 01-2.1.868c-1.456 0-2.338-1.064-2.422-2.338h5.46v-.266c0-2.03-1.204-3.626-3.248-3.626-1.932 0-3.332 1.582-3.332 3.542 0 2.114 1.442 3.556 3.458 3.556zm2.086-3.99h-4.438c.056-1.022.77-2.24 2.212-2.24 1.54 0 2.212 1.246 2.226 2.24zm5.446 6.566c1.652 0 3.234-.7 3.234-2.842V14.38h-1.05v1.022c-.546-.742-1.372-1.19-2.282-1.19-1.778 0-3.01 1.344-3.01 3.514 0 2.184 1.246 3.5 3.01 3.5.952 0 1.778-.518 2.282-1.204v1.022c0 1.428-1.064 1.974-2.184 1.974-.966 0-1.638-.252-2.198-.91l-.532.756c.812.798 1.596 1.022 2.73 1.022zm.168-3.598c-1.372 0-2.184-1.078-2.184-2.562 0-1.498.812-2.576 2.184-2.576.826 0 1.638.504 2.016 1.078v2.968c-.378.588-1.19 1.092-2.016 1.092zm6.216.854V16.2c.364-.546 1.092-1.05 1.778-1.05.896 0 1.246.546 1.246 1.4v4.592h1.05v-4.956c.35-.546 1.092-1.036 1.792-1.036.882 0 1.246.546 1.246 1.4v4.592h1.05v-4.886c0-1.358-.658-2.044-1.89-2.044-.98 0-1.89.644-2.268 1.26-.196-.7-.784-1.26-1.806-1.26-1.008 0-1.904.714-2.198 1.148v-.98h-1.05v6.762h1.05zm13.328.168c1.092 0 2.002-.378 2.688-1.05l-.504-.686a2.943 2.943 0 01-2.1.868c-1.456 0-2.338-1.064-2.422-2.338h5.46v-.266c0-2.03-1.204-3.626-3.248-3.626-1.932 0-3.332 1.582-3.332 3.542 0 2.114 1.442 3.556 3.458 3.556zm2.086-3.99h-4.438c.056-1.022.77-2.24 2.212-2.24 1.54 0 2.212 1.246 2.226 2.24zm3.78 3.822V16.2c.406-.546 1.176-1.05 2.002-1.05.91 0 1.526.364 1.526 1.568v4.424h1.036v-4.746c0-1.47-.742-2.184-2.142-2.184-1.022 0-1.946.574-2.422 1.148v-.98h-1.05v6.762h1.05zm8.4.168c.602 0 .98-.182 1.246-.434l-.308-.798a.994.994 0 01-.714.294c-.448 0-.672-.364-.672-.868v-4.2h1.372v-.924h-1.372v-1.848h-1.064v1.848h-1.12v.924h1.12v4.424c0 1.008.504 1.582 1.512 1.582z"/><path fill="#9AA0A9" d="M19.643 12.14c2.991.204 5.357 2.778 5.357 5.923C25 21.343 22.43 24 19.26 24c-2.064 0-3.874-1.126-4.885-2.817l5.268-2.723v-6.32zm-1.28-.14v5.504L13.341 20.1A5.011 5.011 0 0113 18.296c0-3.408 2.209-5.943 5.363-6.296z"/><path d="M170 12l4 4h-8zm4 8l-4 4-4-4z" fill="#000"/><rect width="60" height="4" fill="#01B2D0" rx="2" transform="translate(0 50)"/><g transform="translate(194)"><use fill="#000" filter="url(#k)" xlink:href="#l"/><rect width="149" height="35" x=".5" y=".5" fill="#FFF" stroke="#E1E1E1" stroke-linejoin="square" rx="4"/><rect width="40" height="4" x="10" y="16" fill="#F1F1F1" rx="2"/><path d="M136 12l4 4h-8zm4 8l-4 4-4-4z" fill="#000"/></g></g></g><g transform="translate(13 181)"><mask id="o" fill="#fff"><use xlink:href="#m"/></mask><use fill="#000" filter="url(#n)" xlink:href="#m"/><rect width="375" height="145" x="-.5" y="-.5" fill="#FFF" stroke="#E1E1E1" rx="8"/><g mask="url(#o)"><g transform="translate(20 48)"><rect width="80" height="4" x="31" y="8" fill="#01B2D0" rx="2"/><rect width="100" height="4" x="178" y="8" fill="#F1F1F1" rx="2"/><rect width="40" height="4" x="294" y="8" fill="#F1F1F1" rx="2"/><path fill="#F1F1F1" d="M15.807 14.01c-2.264-.522-4.37-.98-3.35-2.906C15.562 5.24 13.28 2.105 10 2.105c-3.344 0-5.57 3.257-2.456 9 1.05 1.937-1.135 2.394-3.35 2.907-1.83.422-2.066 1.285-2.089 2.746a1.13 1.13 0 001.136 1.137h13.517c.628 0 1.146-.51 1.137-1.137-.023-1.462-.259-2.325-2.088-2.747z"/></g></g><g mask="url(#o)"><g transform="translate(20 76)"><rect width="60" height="4" x="31" y="8" fill="#01B2D0" rx="2"/><rect width="100" height="4" x="178" y="8" fill="#F1F1F1" rx="2"/><rect width="40" height="4" x="294" y="8" fill="#F1F1F1" rx="2"/><path fill="#F1F1F1" d="M15.807 14.01c-2.264-.522-4.37-.98-3.35-2.906C15.562 5.24 13.28 2.105 10 2.105c-3.344 0-5.57 3.257-2.456 9 1.05 1.937-1.135 2.394-3.35 2.907-1.83.422-2.066 1.285-2.089 2.746a1.13 1.13 0 001.136 1.137h13.517c.628 0 1.146-.51 1.137-1.137-.023-1.462-.259-2.325-2.088-2.747z"/></g></g><g mask="url(#o)"><g transform="translate(20 104)"><rect width="60" height="4" x="31" y="8" fill="#01B2D0" rx="2"/><rect width="100" height="4" x="178" y="8" fill="#F1F1F1" rx="2"/><rect width="40" height="4" x="294" y="8" fill="#F1F1F1" rx="2"/><path fill="#F1F1F1" d="M15.807 14.01c-2.264-.522-4.37-.98-3.35-2.906C15.562 5.24 13.28 2.105 10 2.105c-3.344 0-5.57 3.257-2.456 9 1.05 1.937-1.135 2.394-3.35 2.907-1.83.422-2.066 1.285-2.089 2.746a1.13 1.13 0 001.136 1.137h13.517c.628 0 1.146-.51 1.137-1.137-.023-1.462-.259-2.325-2.088-2.747z"/></g></g><g mask="url(#o)"><g transform="translate(20 132)"><rect width="72" height="4" x="31" y="8" fill="#01B2D0" rx="2"/><rect width="100" height="4" x="178" y="8" fill="#F1F1F1" rx="2"/><rect width="40" height="4" x="294" y="8" fill="#F1F1F1" rx="2"/><path fill="#F1F1F1" d="M15.807 14.01c-2.264-.522-4.37-.98-3.35-2.906C15.562 5.24 13.28 2.105 10 2.105c-3.344 0-5.57 3.257-2.456 9 1.05 1.937-1.135 2.394-3.35 2.907-1.83.422-2.066 1.285-2.089 2.746a1.13 1.13 0 001.136 1.137h13.517c.628 0 1.146-.51 1.137-1.137-.023-1.462-.259-2.325-2.088-2.747z"/></g></g><path fill="#384254" fill-rule="nonzero" d="M24.83 34v-9.338h-1.736l-2.94 2.954 1.134 1.19 1.554-1.582V34h1.988zm2.492 1.918c.868-.616 1.442-1.554 1.442-2.604 0-.91-.588-1.428-1.246-1.428a1.12 1.12 0 00-1.106 1.12c0 .588.42 1.008.952 1.008a.948.948 0 00.266-.042c-.112.49-.63 1.078-1.078 1.316l.77.63zM37.01 34v-1.75h-3.808c2.422-1.764 3.738-3.15 3.738-4.746 0-1.862-1.568-2.982-3.57-2.982-1.302 0-2.688.476-3.598 1.526l1.134 1.316c.63-.658 1.442-1.078 2.506-1.078.77 0 1.512.392 1.512 1.218 0 1.148-1.12 2.1-4.942 4.928V34h7.028zm4.592 0l3.472-7.952v-1.386H38.06v1.75h4.704L39.418 34h2.184zm7.63 0l3.472-7.952v-1.386H45.69v1.75h4.704L47.048 34h2.184zm12.81.168c2.044 0 3.234-1.134 3.892-2.296l-1.708-.826c-.392.756-1.232 1.358-2.184 1.358-1.708 0-2.94-1.302-2.94-3.066 0-1.764 1.232-3.066 2.94-3.066.952 0 1.792.602 2.184 1.358l1.708-.84c-.658-1.176-1.848-2.282-3.892-2.282-2.814 0-4.984 1.946-4.984 4.83 0 2.87 2.17 4.83 4.984 4.83zm7.224 0a3.216 3.216 0 002.38-1.022V34h1.778v-6.762h-1.778v4.578c-.308.392-.854.77-1.54.77-.756 0-1.246-.308-1.246-1.246v-4.102h-1.778v4.802c0 1.316.7 2.128 2.184 2.128zm8.358 0c1.876 0 2.94-.91 2.94-2.156 0-2.73-4.018-1.89-4.018-2.884 0-.378.42-.658 1.064-.658.826 0 1.596.364 2.002.784l.714-1.26a4.308 4.308 0 00-2.716-.924c-1.792 0-2.772.994-2.772 2.128 0 2.66 4.004 1.75 4.004 2.856 0 .42-.364.714-1.134.714-.84 0-1.834-.462-2.338-.938l-.77 1.288c.714.658 1.848 1.05 3.024 1.05zm6.51 0c.742 0 1.218-.196 1.484-.434l-.378-1.358c-.098.112-.35.21-.616.21-.392 0-.616-.322-.616-.756v-3.038h1.372v-1.554h-1.372V25.39H82.23v1.848h-1.12v1.554h1.12v3.514c0 1.218.658 1.862 1.904 1.862zm5.6 0c2.24 0 3.584-1.638 3.584-3.556 0-1.918-1.344-3.542-3.584-3.542-2.226 0-3.57 1.624-3.57 3.542 0 1.918 1.344 3.556 3.57 3.556zm0-1.582c-1.106 0-1.722-.91-1.722-1.974 0-1.05.616-1.96 1.722-1.96 1.12 0 1.736.91 1.736 1.96 0 1.064-.616 1.974-1.736 1.974zM96.426 34v-4.564c.266-.364.784-.784 1.4-.784.728 0 1.008.448 1.008 1.078V34h1.792v-4.564c.252-.364.77-.784 1.4-.784.728 0 1.008.448 1.008 1.078V34h1.792v-4.886c0-1.386-.742-2.044-1.988-2.044-1.036 0-1.932.616-2.324 1.218-.238-.756-.882-1.218-1.876-1.218-1.036 0-1.918.644-2.212 1.036v-.868h-1.778V34h1.778zm13.342.168c1.05 0 2.114-.322 2.786-.938l-.798-1.176c-.434.42-1.218.658-1.792.658-1.148 0-1.82-.686-1.946-1.512h5.026v-.42c0-2.198-1.358-3.71-3.388-3.71-2.044 0-3.5 1.582-3.5 3.542 0 2.17 1.554 3.556 3.612 3.556zm1.568-4.2h-3.332c.07-.672.546-1.442 1.652-1.442 1.176 0 1.624.798 1.68 1.442zM116.11 34v-4.466c.294-.434 1.078-.77 1.666-.77.21 0 .364.014.49.042V27.07c-.84 0-1.666.49-2.156 1.078v-.91h-1.778V34h1.778zm5.698.168c1.876 0 2.94-.91 2.94-2.156 0-2.73-4.018-1.89-4.018-2.884 0-.378.42-.658 1.064-.658.826 0 1.596.364 2.002.784l.714-1.26a4.308 4.308 0 00-2.716-.924c-1.792 0-2.772.994-2.772 2.128 0 2.66 4.004 1.75 4.004 2.856 0 .42-.364.714-1.134.714-.84 0-1.834-.462-2.338-.938l-.77 1.288c.714.658 1.848 1.05 3.024 1.05z" mask="url(#o)"/></g></g></svg>