<svg xmlns="http://www.w3.org/2000/svg" xmlns:xlink="http://www.w3.org/1999/xlink" width="465" height="350" viewBox="0 0 465 350">
  <defs>
    <rect id="segment-b" width="384" height="160" x="0" y="0" rx="8"/>
    <filter id="segment-a" width="105.7%" height="113.8%" x="-2.9%" y="-5.6%" filterUnits="objectBoundingBox">
      <feMorphology in="SourceAlpha" operator="dilate" radius="1" result="shadowSpreadOuter1"/>
      <feOffset dy="2" in="shadowSpreadOuter1" result="shadowOffsetOuter1"/>
      <feGaussianBlur in="shadowOffsetOuter1" result="shadowBlurOuter1" stdDeviation="3"/>
      <feComposite in="shadowBlurOuter1" in2="SourceAlpha" operator="out" result="shadowBlurOuter1"/>
      <feColorMatrix in="shadowBlurOuter1" values="0 0 0 0 0.207843137   0 0 0 0 0.258823529   0 0 0 0 0.329411765  0 0 0 0.101137908 0"/>
    </filter>
    <rect id="segment-d" width="184" height="36" x="0" y="0" rx="4"/>
    <filter id="segment-c" width="105.4%" height="127.8%" x="-2.7%" y="-11.1%" filterUnits="objectBoundingBox">
      <feOffset dy="1" in="SourceAlpha" result="shadowOffsetOuter1"/>
      <feGaussianBlur in="shadowOffsetOuter1" result="shadowBlurOuter1" stdDeviation="1.5"/>
      <feComposite in="shadowBlurOuter1" in2="SourceAlpha" operator="out" result="shadowBlurOuter1"/>
      <feColorMatrix in="shadowBlurOuter1" values="0 0 0 0 0.207843137   0 0 0 0 0.258823529   0 0 0 0 0.329411765  0 0 0 0.12 0"/>
    </filter>
    <rect id="segment-f" width="70" height="36" x="0" y="0" rx="4"/>
    <filter id="segment-e" width="114.3%" height="127.8%" x="-7.1%" y="-11.1%" filterUnits="objectBoundingBox">
      <feOffset dy="1" in="SourceAlpha" result="shadowOffsetOuter1"/>
      <feGaussianBlur in="shadowOffsetOuter1" result="shadowBlurOuter1" stdDeviation="1.5"/>
      <feComposite in="shadowBlurOuter1" in2="SourceAlpha" operator="out" result="shadowBlurOuter1"/>
      <feColorMatrix in="shadowBlurOuter1" values="0 0 0 0 0.207843137   0 0 0 0 0.258823529   0 0 0 0 0.329411765  0 0 0 0.12 0"/>
    </filter>
    <rect id="segment-h" width="70" height="36" x="0" y="0" rx="4"/>
    <filter id="segment-g" width="114.3%" height="127.8%" x="-7.1%" y="-11.1%" filterUnits="objectBoundingBox">
      <feOffset dy="1" in="SourceAlpha" result="shadowOffsetOuter1"/>
      <feGaussianBlur in="shadowOffsetOuter1" result="shadowBlurOuter1" stdDeviation="1.5"/>
      <feComposite in="shadowBlurOuter1" in2="SourceAlpha" operator="out" result="shadowBlurOuter1"/>
      <feColorMatrix in="shadowBlurOuter1" values="0 0 0 0 0.207843137   0 0 0 0 0.258823529   0 0 0 0 0.329411765  0 0 0 0.12 0"/>
    </filter>
    <rect id="segment-j" width="184" height="36" x="0" y="0" rx="4"/>
    <filter id="segment-i" width="105.4%" height="127.8%" x="-2.7%" y="-11.1%" filterUnits="objectBoundingBox">
      <feOffset dy="1" in="SourceAlpha" result="shadowOffsetOuter1"/>
      <feGaussianBlur in="shadowOffsetOuter1" result="shadowBlurOuter1" stdDeviation="1.5"/>
      <feComposite in="shadowBlurOuter1" in2="SourceAlpha" operator="out" result="shadowBlurOuter1"/>
      <feColorMatrix in="shadowBlurOuter1" values="0 0 0 0 0.207843137   0 0 0 0 0.258823529   0 0 0 0 0.329411765  0 0 0 0.12 0"/>
    </filter>
    <rect id="segment-l" width="150" height="36" x="0" y="0" rx="4"/>
    <filter id="segment-k" width="106.7%" height="127.8%" x="-3.3%" y="-11.1%" filterUnits="objectBoundingBox">
      <feOffset dy="1" in="SourceAlpha" result="shadowOffsetOuter1"/>
      <feGaussianBlur in="shadowOffsetOuter1" result="shadowBlurOuter1" stdDeviation="1.5"/>
      <feComposite in="shadowBlurOuter1" in2="SourceAlpha" operator="out" result="shadowBlurOuter1"/>
      <feColorMatrix in="shadowBlurOuter1" values="0 0 0 0 0.207843137   0 0 0 0 0.258823529   0 0 0 0 0.329411765  0 0 0 0.12 0"/>
    </filter>
    <rect id="segment-m" width="374" height="144" x="0" y="0" rx="8"/>
    <filter id="segment-n" width="105.9%" height="115.3%" x="-2.9%" y="-6.2%" filterUnits="objectBoundingBox">
      <feMorphology in="SourceAlpha" operator="dilate" radius="1" result="shadowSpreadOuter1"/>
      <feOffset dy="2" in="shadowSpreadOuter1" result="shadowOffsetOuter1"/>
      <feGaussianBlur in="shadowOffsetOuter1" result="shadowBlurOuter1" stdDeviation="3"/>
      <feComposite in="shadowBlurOuter1" in2="SourceAlpha" operator="out" result="shadowBlurOuter1"/>
      <feColorMatrix in="shadowBlurOuter1" values="0 0 0 0 0.207843137   0 0 0 0 0.258823529   0 0 0 0 0.329411765  0 0 0 0.101137908 0"/>
    </filter>
  </defs>
  <g fill="none" fill-rule="evenodd">
    <g stroke="#E1E1E1" stroke-dasharray="1 8" stroke-linecap="round" stroke-linejoin="round" stroke-width="2" transform="translate(133 16)">
      <path d="M160,320 C248.36556,320 320,248.36556 320,160 C320,71.63444 248.36556,0 160,0 C71.63444,0 0,71.63444 0,160 C0,248.36556 71.63444,320 160,320 Z"/>
      <path d="M160,294 C234.006156,294 294,234.006156 294,160 C294,85.9938435 234.006156,26 160,26 C85.9938435,26 26,85.9938435 26,160 C26,234.006156 85.9938435,294 160,294 Z"/>
      <path d="M160,268 C219.646753,268 268,219.646753 268,160 C268,100.353247 219.646753,52 160,52 C100.353247,52 52,100.353247 52,160 C52,219.646753 100.353247,268 160,268 Z"/>
      <path d="M160,242 C205.287349,242 242,205.287349 242,160 C242,114.712651 205.287349,78 160,78 C114.712651,78 78,114.712651 78,160 C78,205.287349 114.712651,242 160,242 Z"/>
    </g>
    <g transform="translate(48 25)">
      <use fill="#000" filter="url(#segment-a)" xlink:href="#segment-b"/>
      <rect width="385" height="161" x="-.5" y="-.5" fill="#FFF" stroke="#E1E1E1" rx="8"/>
      <g transform="translate(20 90)">
        <use fill="#000" filter="url(#segment-c)" xlink:href="#segment-d"/>
        <rect width="183" height="35" x=".5" y=".5" fill="#FFF" stroke="#E1E1E1" stroke-linejoin="square" rx="4"/>
        <path fill="#384254" fill-rule="nonzero" d="M33.114,21.338 L33.114,16.396 C33.506,15.85 34.29,15.346 35.102,15.346 C36.026,15.346 36.628,15.682 36.628,16.886 L36.628,21.338 L37.678,21.338 L37.678,16.564 C37.678,15.094 36.936,14.408 35.522,14.408 C34.5,14.408 33.576,14.982 33.114,15.556 L33.114,12 L32.064,12 L32.064,21.338 L33.114,21.338 Z M41.766,21.506 C42.676,21.506 43.46,21.184 44.006,20.568 L44.006,21.338 L45.056,21.338 L45.056,16.69 C45.056,15.052 43.88,14.408 42.438,14.408 C41.332,14.408 40.464,14.772 39.736,15.528 L40.226,16.256 C40.828,15.598 41.486,15.318 42.298,15.318 C43.278,15.318 44.006,15.836 44.006,16.732 L44.006,17.95 C43.46,17.334 42.69,17.04 41.766,17.04 C40.618,17.04 39.414,17.74 39.414,19.266 C39.414,20.736 40.632,21.506 41.766,21.506 Z M42.158,20.75 C41.164,20.75 40.478,20.134 40.478,19.266 C40.478,18.412 41.164,17.796 42.158,17.796 C42.886,17.796 43.6,18.076 44.006,18.622 L44.006,19.91 C43.6,20.47 42.886,20.75 42.158,20.75 Z M49.326,21.506 C51.062,21.506 51.972,20.596 51.972,19.462 C51.972,16.83 47.786,17.796 47.786,16.326 C47.786,15.724 48.36,15.262 49.284,15.262 C50.166,15.262 50.894,15.626 51.3,16.116 L51.79,15.388 C51.258,14.842 50.446,14.408 49.284,14.408 C47.674,14.408 46.778,15.29 46.778,16.354 C46.778,18.86 50.964,17.852 50.964,19.49 C50.964,20.162 50.39,20.652 49.354,20.652 C48.43,20.652 47.576,20.204 47.128,19.686 L46.596,20.442 C47.282,21.156 48.206,21.506 49.326,21.506 Z M59.028,21.506 C59.63,21.506 60.008,21.324 60.274,21.072 L59.966,20.274 C59.826,20.428 59.56,20.568 59.252,20.568 C58.804,20.568 58.58,20.204 58.58,19.7 L58.58,15.5 L59.952,15.5 L59.952,14.576 L58.58,14.576 L58.58,12.728 L57.516,12.728 L57.516,14.576 L56.396,14.576 L56.396,15.5 L57.516,15.5 L57.516,19.924 C57.516,20.932 58.02,21.506 59.028,21.506 Z M62.472,21.338 L62.472,16.55 C62.78,16.004 63.662,15.472 64.32,15.472 C64.474,15.472 64.6,15.486 64.726,15.5 L64.726,14.422 C63.802,14.422 63.018,14.954 62.472,15.654 L62.472,14.576 L61.422,14.576 L61.422,21.338 L62.472,21.338 Z M66.574,13.61 C66.966,13.61 67.274,13.302 67.274,12.91 C67.274,12.518 66.966,12.196 66.574,12.196 C66.182,12.196 65.86,12.518 65.86,12.91 C65.86,13.302 66.182,13.61 66.574,13.61 Z M67.092,21.338 L67.092,14.576 L66.042,14.576 L66.042,21.338 L67.092,21.338 Z M71.908,24.082 C73.56,24.082 75.142,23.382 75.142,21.24 L75.142,14.576 L74.092,14.576 L74.092,15.598 C73.546,14.856 72.72,14.408 71.81,14.408 C70.032,14.408 68.8,15.752 68.8,17.922 C68.8,20.106 70.046,21.422 71.81,21.422 C72.762,21.422 73.588,20.904 74.092,20.218 L74.092,21.24 C74.092,22.668 73.028,23.214 71.908,23.214 C70.942,23.214 70.27,22.962 69.71,22.304 L69.178,23.06 C69.99,23.858 70.774,24.082 71.908,24.082 Z M72.076,20.484 C70.704,20.484 69.892,19.406 69.892,17.922 C69.892,16.424 70.704,15.346 72.076,15.346 C72.902,15.346 73.714,15.85 74.092,16.424 L74.092,19.392 C73.714,19.98 72.902,20.484 72.076,20.484 Z M79.958,24.082 C81.61,24.082 83.192,23.382 83.192,21.24 L83.192,14.576 L82.142,14.576 L82.142,15.598 C81.596,14.856 80.77,14.408 79.86,14.408 C78.082,14.408 76.85,15.752 76.85,17.922 C76.85,20.106 78.096,21.422 79.86,21.422 C80.812,21.422 81.638,20.904 82.142,20.218 L82.142,21.24 C82.142,22.668 81.078,23.214 79.958,23.214 C78.992,23.214 78.32,22.962 77.76,22.304 L77.228,23.06 C78.04,23.858 78.824,24.082 79.958,24.082 Z M80.126,20.484 C78.754,20.484 77.942,19.406 77.942,17.922 C77.942,16.424 78.754,15.346 80.126,15.346 C80.952,15.346 81.764,15.85 82.142,16.424 L82.142,19.392 C81.764,19.98 80.952,20.484 80.126,20.484 Z M88.358,21.506 C89.45,21.506 90.36,21.128 91.046,20.456 L90.542,19.77 C89.996,20.33 89.226,20.638 88.442,20.638 C86.986,20.638 86.104,19.574 86.02,18.3 L91.48,18.3 L91.48,18.034 C91.48,16.004 90.276,14.408 88.232,14.408 C86.3,14.408 84.9,15.99 84.9,17.95 C84.9,20.064 86.342,21.506 88.358,21.506 Z M90.444,17.516 L86.006,17.516 C86.062,16.494 86.776,15.276 88.218,15.276 C89.758,15.276 90.43,16.522 90.444,17.516 Z M94.224,21.338 L94.224,16.55 C94.532,16.004 95.414,15.472 96.072,15.472 C96.226,15.472 96.352,15.486 96.478,15.5 L96.478,14.422 C95.554,14.422 94.77,14.954 94.224,15.654 L94.224,14.576 L93.174,14.576 L93.174,21.338 L94.224,21.338 Z M100.86,21.506 C101.952,21.506 102.862,21.128 103.548,20.456 L103.044,19.77 C102.498,20.33 101.728,20.638 100.944,20.638 C99.488,20.638 98.606,19.574 98.522,18.3 L103.982,18.3 L103.982,18.034 C103.982,16.004 102.778,14.408 100.734,14.408 C98.802,14.408 97.402,15.99 97.402,17.95 C97.402,20.064 98.844,21.506 100.86,21.506 Z M102.946,17.516 L98.508,17.516 C98.564,16.494 99.278,15.276 100.72,15.276 C102.26,15.276 102.932,16.522 102.946,17.516 Z M108.294,21.506 C109.246,21.506 110.072,21.016 110.576,20.33 L110.576,21.338 L111.626,21.338 L111.626,12 L110.576,12 L110.576,15.598 C110.03,14.856 109.204,14.408 108.294,14.408 C106.53,14.408 105.284,15.794 105.284,17.964 C105.284,20.162 106.53,21.506 108.294,21.506 Z M108.56,20.568 C107.188,20.568 106.376,19.462 106.376,17.964 C106.376,16.466 107.188,15.346 108.56,15.346 C109.386,15.346 110.212,15.85 110.576,16.438 L110.576,19.49 C110.212,20.078 109.386,20.568 108.56,20.568 Z M120.418,21.506 C121.51,21.506 122.42,21.128 123.106,20.456 L122.602,19.77 C122.056,20.33 121.286,20.638 120.502,20.638 C119.046,20.638 118.164,19.574 118.08,18.3 L123.54,18.3 L123.54,18.034 C123.54,16.004 122.336,14.408 120.292,14.408 C118.36,14.408 116.96,15.99 116.96,17.95 C116.96,20.064 118.402,21.506 120.418,21.506 Z M122.504,17.516 L118.066,17.516 C118.122,16.494 118.836,15.276 120.278,15.276 C121.818,15.276 122.49,16.522 122.504,17.516 Z M128.188,21.338 L131.002,14.576 L129.868,14.576 L127.614,20.12 L125.374,14.576 L124.226,14.576 L127.04,21.338 L128.188,21.338 Z M135.16,21.506 C136.252,21.506 137.162,21.128 137.848,20.456 L137.344,19.77 C136.798,20.33 136.028,20.638 135.244,20.638 C133.788,20.638 132.906,19.574 132.822,18.3 L138.282,18.3 L138.282,18.034 C138.282,16.004 137.078,14.408 135.034,14.408 C133.102,14.408 131.702,15.99 131.702,17.95 C131.702,20.064 133.144,21.506 135.16,21.506 Z M137.246,17.516 L132.808,17.516 C132.864,16.494 133.578,15.276 135.02,15.276 C136.56,15.276 137.232,16.522 137.246,17.516 Z M141.026,21.338 L141.026,16.396 C141.432,15.85 142.202,15.346 143.028,15.346 C143.938,15.346 144.554,15.71 144.554,16.914 L144.554,21.338 L145.59,21.338 L145.59,16.592 C145.59,15.122 144.848,14.408 143.448,14.408 C142.426,14.408 141.502,14.982 141.026,15.556 L141.026,14.576 L139.976,14.576 L139.976,21.338 L141.026,21.338 Z M149.426,21.506 C150.028,21.506 150.406,21.324 150.672,21.072 L150.364,20.274 C150.224,20.428 149.958,20.568 149.65,20.568 C149.202,20.568 148.978,20.204 148.978,19.7 L148.978,15.5 L150.35,15.5 L150.35,14.576 L148.978,14.576 L148.978,12.728 L147.914,12.728 L147.914,14.576 L146.794,14.576 L146.794,15.5 L147.914,15.5 L147.914,19.924 C147.914,20.932 148.418,21.506 149.426,21.506 Z"/>
        <g transform="translate(10 9)">
          <rect width="18" height="18"/>
          <path fill="#9AA0A9" fill-rule="nonzero" d="M14.0767889,8.22219134 C14.3770496,7.89539346 14.1388595,7.37661141 13.688555,7.37661141 L10.3342489,7.37661139 L11.8932809,2.55732157 C12.0616648,2.03646098 11.3820409,1.6597651 11.0081387,2.06671288 L3.92321111,9.77780866 C3.62295038,10.1046065 3.86114047,10.6233886 4.31144499,10.6233886 L7.66353789,10.623389 L6.10671914,15.4426784 C5.93833521,15.963539 6.61795914,16.3402349 6.99186132,15.9332871 L14.0767889,8.22219134 Z"/>
        </g>
        <g fill="#000" transform="translate(166 12)">
          <polygon points="4 0 8 4 0 4"/>
          <polygon points="8 8 4 12 0 8"/>
        </g>
        <g transform="translate(194)">
          <use fill="#000" filter="url(#segment-e)" xlink:href="#segment-f"/>
          <rect width="69" height="35" x=".5" y=".5" fill="#FFF" stroke="#E1E1E1" stroke-linejoin="square" rx="4"/>
          <rect width="28" height="4" x="10" y="16" fill="#F1F1F1" rx="2"/>
          <g fill="#000" transform="translate(54 12)">
            <polygon points="4 0 8 4 0 4"/>
            <polygon points="8 8 4 12 0 8"/>
          </g>
        </g>
        <g transform="translate(274)">
          <use fill="#000" filter="url(#segment-g)" xlink:href="#segment-h"/>
          <rect width="69" height="35" x=".5" y=".5" fill="#FFF" stroke="#E1E1E1" stroke-linejoin="square" rx="4"/>
          <rect width="28" height="4" x="10" y="16" fill="#F1F1F1" rx="2"/>
          <g fill="#000" transform="translate(54 12)">
            <polygon points="4 0 8 4 0 4"/>
            <polygon points="8 8 4 12 0 8"/>
          </g>
        </g>
        <rect width="60" height="4" fill="#01B2D0" rx="2" transform="translate(0 50)"/>
      </g>
      <g transform="translate(20 20)">
        <use fill="#000" filter="url(#segment-i)" xlink:href="#segment-j"/>
        <rect width="183" height="35" x=".5" y=".5" fill="#FFF" stroke="#E1E1E1" stroke-linejoin="square" rx="4"/>
        <path fill="#384254" fill-rule="nonzero" d="M32.582,13.414 C32.974,13.414 33.282,13.106 33.282,12.714 C33.282,12.322 32.974,12 32.582,12 C32.19,12 31.868,12.322 31.868,12.714 C31.868,13.106 32.19,13.414 32.582,13.414 Z M33.1,21.142 L33.1,14.38 L32.05,14.38 L32.05,21.142 L33.1,21.142 Z M37.356,21.31 C39.092,21.31 40.002,20.4 40.002,19.266 C40.002,16.634 35.816,17.6 35.816,16.13 C35.816,15.528 36.39,15.066 37.314,15.066 C38.196,15.066 38.924,15.43 39.33,15.92 L39.82,15.192 C39.288,14.646 38.476,14.212 37.314,14.212 C35.704,14.212 34.808,15.094 34.808,16.158 C34.808,18.664 38.994,17.656 38.994,19.294 C38.994,19.966 38.42,20.456 37.384,20.456 C36.46,20.456 35.606,20.008 35.158,19.49 L34.626,20.246 C35.312,20.96 36.236,21.31 37.356,21.31 Z M45.868,13.414 C46.26,13.414 46.568,13.106 46.568,12.714 C46.568,12.322 46.26,12 45.868,12 C45.476,12 45.154,12.322 45.154,12.714 C45.154,13.106 45.476,13.414 45.868,13.414 Z M46.386,21.142 L46.386,14.38 L45.336,14.38 L45.336,21.142 L46.386,21.142 Z M49.536,21.142 L49.536,16.2 C49.942,15.654 50.712,15.15 51.538,15.15 C52.448,15.15 53.064,15.514 53.064,16.718 L53.064,21.142 L54.1,21.142 L54.1,16.396 C54.1,14.926 53.358,14.212 51.958,14.212 C50.936,14.212 50.012,14.786 49.536,15.36 L49.536,14.38 L48.486,14.38 L48.486,21.142 L49.536,21.142 Z M61.996,21.31 C63.732,21.31 64.642,20.4 64.642,19.266 C64.642,16.634 60.456,17.6 60.456,16.13 C60.456,15.528 61.03,15.066 61.954,15.066 C62.836,15.066 63.564,15.43 63.97,15.92 L64.46,15.192 C63.928,14.646 63.116,14.212 61.954,14.212 C60.344,14.212 59.448,15.094 59.448,16.158 C59.448,18.664 63.634,17.656 63.634,19.294 C63.634,19.966 63.06,20.456 62.024,20.456 C61.1,20.456 60.246,20.008 59.798,19.49 L59.266,20.246 C59.952,20.96 60.876,21.31 61.996,21.31 Z M69.416,21.31 C70.508,21.31 71.418,20.932 72.104,20.26 L71.6,19.574 C71.054,20.134 70.284,20.442 69.5,20.442 C68.044,20.442 67.162,19.378 67.078,18.104 L72.538,18.104 L72.538,17.838 C72.538,15.808 71.334,14.212 69.29,14.212 C67.358,14.212 65.958,15.794 65.958,17.754 C65.958,19.868 67.4,21.31 69.416,21.31 Z M71.502,17.32 L67.064,17.32 C67.12,16.298 67.834,15.08 69.276,15.08 C70.816,15.08 71.488,16.326 71.502,17.32 Z M76.948,23.886 C78.6,23.886 80.182,23.186 80.182,21.044 L80.182,14.38 L79.132,14.38 L79.132,15.402 C78.586,14.66 77.76,14.212 76.85,14.212 C75.072,14.212 73.84,15.556 73.84,17.726 C73.84,19.91 75.086,21.226 76.85,21.226 C77.802,21.226 78.628,20.708 79.132,20.022 L79.132,21.044 C79.132,22.472 78.068,23.018 76.948,23.018 C75.982,23.018 75.31,22.766 74.75,22.108 L74.218,22.864 C75.03,23.662 75.814,23.886 76.948,23.886 Z M77.116,20.288 C75.744,20.288 74.932,19.21 74.932,17.726 C74.932,16.228 75.744,15.15 77.116,15.15 C77.942,15.15 78.754,15.654 79.132,16.228 L79.132,19.196 C78.754,19.784 77.942,20.288 77.116,20.288 Z M83.332,21.142 L83.332,16.2 C83.696,15.654 84.424,15.15 85.11,15.15 C86.006,15.15 86.356,15.696 86.356,16.55 L86.356,21.142 L87.406,21.142 L87.406,16.186 C87.756,15.64 88.498,15.15 89.198,15.15 C90.08,15.15 90.444,15.696 90.444,16.55 L90.444,21.142 L91.494,21.142 L91.494,16.256 C91.494,14.898 90.836,14.212 89.604,14.212 C88.624,14.212 87.714,14.856 87.336,15.472 C87.14,14.772 86.552,14.212 85.53,14.212 C84.522,14.212 83.626,14.926 83.332,15.36 L83.332,14.38 L82.282,14.38 L82.282,21.142 L83.332,21.142 Z M96.66,21.31 C97.752,21.31 98.662,20.932 99.348,20.26 L98.844,19.574 C98.298,20.134 97.528,20.442 96.744,20.442 C95.288,20.442 94.406,19.378 94.322,18.104 L99.782,18.104 L99.782,17.838 C99.782,15.808 98.578,14.212 96.534,14.212 C94.602,14.212 93.202,15.794 93.202,17.754 C93.202,19.868 94.644,21.31 96.66,21.31 Z M98.746,17.32 L94.308,17.32 C94.364,16.298 95.078,15.08 96.52,15.08 C98.06,15.08 98.732,16.326 98.746,17.32 Z M102.526,21.142 L102.526,16.2 C102.932,15.654 103.702,15.15 104.528,15.15 C105.438,15.15 106.054,15.514 106.054,16.718 L106.054,21.142 L107.09,21.142 L107.09,16.396 C107.09,14.926 106.348,14.212 104.948,14.212 C103.926,14.212 103.002,14.786 102.526,15.36 L102.526,14.38 L101.476,14.38 L101.476,21.142 L102.526,21.142 Z M110.926,21.31 C111.528,21.31 111.906,21.128 112.172,20.876 L111.864,20.078 C111.724,20.232 111.458,20.372 111.15,20.372 C110.702,20.372 110.478,20.008 110.478,19.504 L110.478,15.304 L111.85,15.304 L111.85,14.38 L110.478,14.38 L110.478,12.532 L109.414,12.532 L109.414,14.38 L108.294,14.38 L108.294,15.304 L109.414,15.304 L109.414,19.728 C109.414,20.736 109.918,21.31 110.926,21.31 Z"/>
        <path fill="#9AA0A9" d="M9.64250357,3.13993266 C12.6343264,3.34377667 15,5.91792214 15,9.06346224 C15,12.3421215 12.4298591,15 9.25942955,15 C7.19574942,15 5.38640576,13.8738826 4.37465705,12.1834515 L9.64250357,9.45961336 L9.64250357,3.13993266 Z M8.36303636,3 L8.36303636,8.50381882 L3.34052814,11.1008003 C3.11876189,10.5257406 3,9.91612954 3,9.29612107 C3,5.88793855 5.20904276,3.35348335 8.36303636,3 L8.36303636,3 Z" transform="translate(10 9)"/>
        <g fill="#000" transform="translate(166 12)">
          <polygon points="4 0 8 4 0 4"/>
          <polygon points="8 8 4 12 0 8"/>
        </g>
        <rect width="60" height="4" fill="#01B2D0" rx="2" transform="translate(0 50)"/>
        <g transform="translate(194)">
          <use fill="#000" filter="url(#segment-k)" xlink:href="#segment-l"/>
          <rect width="149" height="35" x=".5" y=".5" fill="#FFF" stroke="#E1E1E1" stroke-linejoin="square" rx="4"/>
          <rect width="40" height="4" x="10" y="16" fill="#F1F1F1" rx="2"/>
          <g fill="#000" transform="translate(132 12)">
            <polygon points="4 0 8 4 0 4"/>
            <polygon points="8 8 4 12 0 8"/>
          </g>
        </g>
      </g>
    </g>
    <g transform="translate(13 181)">
      <mask id="segment-o" fill="#fff">
        <use xlink:href="#segment-m"/>
      </mask>
      <use fill="#000" filter="url(#segment-n)" xlink:href="#segment-m"/>
      <rect width="375" height="145" x="-.5" y="-.5" fill="#FFF" stroke="#E1E1E1" rx="8"/>
      <g mask="url(#segment-o)">
        <g transform="translate(20 48)">
          <rect width="80" height="4" x="31" y="8" fill="#01B2D0" rx="2"/>
          <rect width="100" height="4" x="178" y="8" fill="#F1F1F1" rx="2"/>
          <rect width="40" height="4" x="294" y="8" fill="#F1F1F1" rx="2"/>
          <path fill="#F1F1F1" d="M15.8065231,14.0107245 C13.5432844,13.4878524 11.4362618,13.0299176 12.4569298,11.1035132 C15.5623038,5.24059849 13.2801171,2.10526316 10.0004211,2.10526316 C6.65567008,2.10526316 4.43032747,5.36161809 7.54391231,11.1043566 C8.5948972,13.0415135 6.40892442,13.4994483 4.19431904,14.0115678 C2.36435897,14.4340823 2.12835055,15.297243 2.10540236,16.7583333 C2.09550727,17.3857798 2.61447317,17.8947368 3.24123238,17.8947368 L16.758136,17.8947368 C17.3855268,17.8947368 17.9044927,17.3849365 17.8945976,16.7583333 C17.8724916,15.2963996 17.6364832,14.4332389 15.8065231,14.0107245 L15.8065231,14.0107245 Z"/>
        </g>
      </g>
      <g mask="url(#segment-o)">
        <g transform="translate(20 76)">
          <rect width="60" height="4" x="31" y="8" fill="#01B2D0" rx="2"/>
          <rect width="100" height="4" x="178" y="8" fill="#F1F1F1" rx="2"/>
          <rect width="40" height="4" x="294" y="8" fill="#F1F1F1" rx="2"/>
          <path fill="#F1F1F1" d="M15.8065231,14.0107245 C13.5432844,13.4878524 11.4362618,13.0299176 12.4569298,11.1035132 C15.5623038,5.24059849 13.2801171,2.10526316 10.0004211,2.10526316 C6.65567008,2.10526316 4.43032747,5.36161809 7.54391231,11.1043566 C8.5948972,13.0415135 6.40892442,13.4994483 4.19431904,14.0115678 C2.36435897,14.4340823 2.12835055,15.297243 2.10540236,16.7583333 C2.09550727,17.3857798 2.61447317,17.8947368 3.24123238,17.8947368 L16.758136,17.8947368 C17.3855268,17.8947368 17.9044927,17.3849365 17.8945976,16.7583333 C17.8724916,15.2963996 17.6364832,14.4332389 15.8065231,14.0107245 L15.8065231,14.0107245 Z"/>
        </g>
      </g>
      <g mask="url(#segment-o)">
        <g transform="translate(20 104)">
          <rect width="60" height="4" x="31" y="8" fill="#01B2D0" rx="2"/>
          <rect width="100" height="4" x="178" y="8" fill="#F1F1F1" rx="2"/>
          <rect width="40" height="4" x="294" y="8" fill="#F1F1F1" rx="2"/>
          <path fill="#F1F1F1" d="M15.8065231,14.0107245 C13.5432844,13.4878524 11.4362618,13.0299176 12.4569298,11.1035132 C15.5623038,5.24059849 13.2801171,2.10526316 10.0004211,2.10526316 C6.65567008,2.10526316 4.43032747,5.36161809 7.54391231,11.1043566 C8.5948972,13.0415135 6.40892442,13.4994483 4.19431904,14.0115678 C2.36435897,14.4340823 2.12835055,15.297243 2.10540236,16.7583333 C2.09550727,17.3857798 2.61447317,17.8947368 3.24123238,17.8947368 L16.758136,17.8947368 C17.3855268,17.8947368 17.9044927,17.3849365 17.8945976,16.7583333 C17.8724916,15.2963996 17.6364832,14.4332389 15.8065231,14.0107245 L15.8065231,14.0107245 Z"/>
        </g>
      </g>
      <g mask="url(#segment-o)">
        <g transform="translate(20 132)">
          <rect width="72" height="4" x="31" y="8" fill="#01B2D0" rx="2"/>
          <rect width="100" height="4" x="178" y="8" fill="#F1F1F1" rx="2"/>
          <rect width="40" height="4" x="294" y="8" fill="#F1F1F1" rx="2"/>
          <path fill="#F1F1F1" d="M15.8065231,14.0107245 C13.5432844,13.4878524 11.4362618,13.0299176 12.4569298,11.1035132 C15.5623038,5.24059849 13.2801171,2.10526316 10.0004211,2.10526316 C6.65567008,2.10526316 4.43032747,5.36161809 7.54391231,11.1043566 C8.5948972,13.0415135 6.40892442,13.4994483 4.19431904,14.0115678 C2.36435897,14.4340823 2.12835055,15.297243 2.10540236,16.7583333 C2.09550727,17.3857798 2.61447317,17.8947368 3.24123238,17.8947368 L16.758136,17.8947368 C17.3855268,17.8947368 17.9044927,17.3849365 17.8945976,16.7583333 C17.8724916,15.2963996 17.6364832,14.4332389 15.8065231,14.0107245 L15.8065231,14.0107245 Z"/>
        </g>
      </g>
      <path fill="#384254" fill-rule="nonzero" d="M24.83,34 L24.83,24.662 L23.094,24.662 L20.154,27.616 L21.288,28.806 L22.842,27.224 L22.842,34 L24.83,34 Z M27.322,35.918 C28.19,35.302 28.764,34.364 28.764,33.314 C28.764,32.404 28.176,31.886 27.518,31.886 C26.916,31.886 26.412,32.39 26.412,33.006 C26.412,33.594 26.832,34.014 27.364,34.014 C27.476,34.014 27.588,33.986 27.63,33.972 C27.518,34.462 27,35.05 26.552,35.288 L27.322,35.918 Z M37.01,34 L37.01,32.25 L33.202,32.25 C35.624,30.486 36.94,29.1 36.94,27.504 C36.94,25.642 35.372,24.522 33.37,24.522 C32.068,24.522 30.682,24.998 29.772,26.048 L30.906,27.364 C31.536,26.706 32.348,26.286 33.412,26.286 C34.182,26.286 34.924,26.678 34.924,27.504 C34.924,28.652 33.804,29.604 29.982,32.432 L29.982,34 L37.01,34 Z M41.602,34 L45.074,26.048 L45.074,24.662 L38.06,24.662 L38.06,26.412 L42.764,26.412 L39.418,34 L41.602,34 Z M49.232,34 L52.704,26.048 L52.704,24.662 L45.69,24.662 L45.69,26.412 L50.394,26.412 L47.048,34 L49.232,34 Z M62.042,34.168 C64.086,34.168 65.276,33.034 65.934,31.872 L64.226,31.046 C63.834,31.802 62.994,32.404 62.042,32.404 C60.334,32.404 59.102,31.102 59.102,29.338 C59.102,27.574 60.334,26.272 62.042,26.272 C62.994,26.272 63.834,26.874 64.226,27.63 L65.934,26.79 C65.276,25.614 64.086,24.508 62.042,24.508 C59.228,24.508 57.058,26.454 57.058,29.338 C57.058,32.208 59.228,34.168 62.042,34.168 Z M69.266,34.168 C70.372,34.168 71.184,33.65 71.646,33.146 L71.646,34 L73.424,34 L73.424,27.238 L71.646,27.238 L71.646,31.816 C71.338,32.208 70.792,32.586 70.106,32.586 C69.35,32.586 68.86,32.278 68.86,31.34 L68.86,27.238 L67.082,27.238 L67.082,32.04 C67.082,33.356 67.782,34.168 69.266,34.168 Z M77.624,34.168 C79.5,34.168 80.564,33.258 80.564,32.012 C80.564,29.282 76.546,30.122 76.546,29.128 C76.546,28.75 76.966,28.47 77.61,28.47 C78.436,28.47 79.206,28.834 79.612,29.254 L80.326,27.994 C79.654,27.462 78.744,27.07 77.61,27.07 C75.818,27.07 74.838,28.064 74.838,29.198 C74.838,31.858 78.842,30.948 78.842,32.054 C78.842,32.474 78.478,32.768 77.708,32.768 C76.868,32.768 75.874,32.306 75.37,31.83 L74.6,33.118 C75.314,33.776 76.448,34.168 77.624,34.168 Z M84.134,34.168 C84.876,34.168 85.352,33.972 85.618,33.734 L85.24,32.376 C85.142,32.488 84.89,32.586 84.624,32.586 C84.232,32.586 84.008,32.264 84.008,31.83 L84.008,28.792 L85.38,28.792 L85.38,27.238 L84.008,27.238 L84.008,25.39 L82.23,25.39 L82.23,27.238 L81.11,27.238 L81.11,28.792 L82.23,28.792 L82.23,32.306 C82.23,33.524 82.888,34.168 84.134,34.168 Z M89.734,34.168 C91.974,34.168 93.318,32.53 93.318,30.612 C93.318,28.694 91.974,27.07 89.734,27.07 C87.508,27.07 86.164,28.694 86.164,30.612 C86.164,32.53 87.508,34.168 89.734,34.168 Z M89.734,32.586 C88.628,32.586 88.012,31.676 88.012,30.612 C88.012,29.562 88.628,28.652 89.734,28.652 C90.854,28.652 91.47,29.562 91.47,30.612 C91.47,31.676 90.854,32.586 89.734,32.586 Z M96.426,34 L96.426,29.436 C96.692,29.072 97.21,28.652 97.826,28.652 C98.554,28.652 98.834,29.1 98.834,29.73 L98.834,34 L100.626,34 L100.626,29.436 C100.878,29.072 101.396,28.652 102.026,28.652 C102.754,28.652 103.034,29.1 103.034,29.73 L103.034,34 L104.826,34 L104.826,29.114 C104.826,27.728 104.084,27.07 102.838,27.07 C101.802,27.07 100.906,27.686 100.514,28.288 C100.276,27.532 99.632,27.07 98.638,27.07 C97.602,27.07 96.72,27.714 96.426,28.106 L96.426,27.238 L94.648,27.238 L94.648,34 L96.426,34 Z M109.768,34.168 C110.818,34.168 111.882,33.846 112.554,33.23 L111.756,32.054 C111.322,32.474 110.538,32.712 109.964,32.712 C108.816,32.712 108.144,32.026 108.018,31.2 L113.044,31.2 L113.044,30.78 C113.044,28.582 111.686,27.07 109.656,27.07 C107.612,27.07 106.156,28.652 106.156,30.612 C106.156,32.782 107.71,34.168 109.768,34.168 Z M111.336,29.968 L108.004,29.968 C108.074,29.296 108.55,28.526 109.656,28.526 C110.832,28.526 111.28,29.324 111.336,29.968 Z M116.11,34 L116.11,29.534 C116.404,29.1 117.188,28.764 117.776,28.764 C117.986,28.764 118.14,28.778 118.266,28.806 L118.266,27.07 C117.426,27.07 116.6,27.56 116.11,28.148 L116.11,27.238 L114.332,27.238 L114.332,34 L116.11,34 Z M121.808,34.168 C123.684,34.168 124.748,33.258 124.748,32.012 C124.748,29.282 120.73,30.122 120.73,29.128 C120.73,28.75 121.15,28.47 121.794,28.47 C122.62,28.47 123.39,28.834 123.796,29.254 L124.51,27.994 C123.838,27.462 122.928,27.07 121.794,27.07 C120.002,27.07 119.022,28.064 119.022,29.198 C119.022,31.858 123.026,30.948 123.026,32.054 C123.026,32.474 122.662,32.768 121.892,32.768 C121.052,32.768 120.058,32.306 119.554,31.83 L118.784,33.118 C119.498,33.776 120.632,34.168 121.808,34.168 Z" mask="url(#segment-o)"/>
    </g>
  </g>
</svg>
