<svg xmlns="http://www.w3.org/2000/svg" xmlns:xlink="http://www.w3.org/1999/xlink" width="465" height="350" viewBox="0 0 465 350"><defs><rect id="b" width="312" height="228" x="0" y="0" rx="8"/><filter id="a" width="107.1%" height="109.6%" x="-3.5%" y="-3.9%" filterUnits="objectBoundingBox"><feMorphology in="SourceAlpha" operator="dilate" radius="1" result="shadowSpreadOuter1"/><feOffset dy="2" in="shadowSpreadOuter1" result="shadowOffsetOuter1"/><feGaussianBlur in="shadowOffsetOuter1" result="shadowBlurOuter1" stdDeviation="3"/><feComposite in="shadowBlurOuter1" in2="SourceAlpha" operator="out" result="shadowBlurOuter1"/><feColorMatrix in="shadowBlurOuter1" values="0 0 0 0 0.207843137 0 0 0 0 0.258823529 0 0 0 0 0.329411765 0 0 0 0.101137908 0"/></filter><rect id="d" width="312" height="228" x="0" y="0" rx="8"/><filter id="c" width="107.1%" height="109.6%" x="-3.5%" y="-3.9%" filterUnits="objectBoundingBox"><feMorphology in="SourceAlpha" operator="dilate" radius="1" result="shadowSpreadOuter1"/><feOffset dy="2" in="shadowSpreadOuter1" result="shadowOffsetOuter1"/><feGaussianBlur in="shadowOffsetOuter1" result="shadowBlurOuter1" stdDeviation="3"/><feComposite in="shadowBlurOuter1" in2="SourceAlpha" operator="out" result="shadowBlurOuter1"/><feColorMatrix in="shadowBlurOuter1" values="0 0 0 0 0.207843137 0 0 0 0 0.258823529 0 0 0 0 0.329411765 0 0 0 0.101137908 0"/></filter></defs><g fill="none" fill-rule="evenodd"><g stroke="#E1E1E1" stroke-dasharray="1 8" stroke-linecap="round" stroke-linejoin="round" stroke-width="2"><path d="M213 352c87.813 0 159-71.187 159-159S300.813 34 213 34 54 105.187 54 193s71.187 159 159 159z"/><path d="M213 327c74.006 0 134-59.994 134-134S287.006 59 213 59 79 118.994 79 193s59.994 134 134 134z"/><path d="M213 302c60.199 0 109-48.801 109-109S273.199 84 213 84s-109 48.801-109 109 48.801 109 109 109z"/></g><g transform="translate(143 10)"><use fill="#000" filter="url(#a)" xlink:href="#b"/><rect width="313" height="229" x="-.5" y="-.5" fill="#FFF" stroke="#E1E1E1" rx="8"/><rect width="30" height="4" x="16" y="16" fill="#F1F1F1" rx="2"/><rect width="44" height="4" x="54" y="16" fill="#FFC111" rx="2"/><rect width="24" height="4" x="16" y="24" fill="#01B2D0" rx="2"/><rect width="60" height="4" x="48" y="24" fill="#F1F1F1" rx="2"/><rect width="88" height="4" x="28" y="32" fill="#F15242" rx="2"/><rect width="24" height="4" x="16" y="40" fill="#F1F1F1" rx="2"/><rect width="60" height="4" x="48" y="40" fill="#F1F1F1" rx="2"/><rect width="24" height="4" x="16" y="48" fill="#6FD350" rx="2"/><rect width="40" height="4" x="48" y="48" fill="#F1F1F1" rx="2"/><rect width="16" height="4" x="16" y="56" fill="#F1F1F1" rx="2"/><rect width="40" height="4" x="40" y="56" fill="#F15242" rx="2"/><rect width="16" height="4" x="16" y="64" fill="#6F0DFB" rx="2"/><rect width="70" height="4" x="40" y="64" fill="#F1F1F1" rx="2"/><rect width="16" height="4" x="16" y="72" fill="#01B2D0" rx="2"/><rect width="70" height="4" x="40" y="72" fill="#F1F1F1" rx="2"/><rect width="40" height="4" x="16" y="80" fill="#F1F1F1" rx="2"/><rect width="40" height="4" x="64" y="80" fill="#6F0DFB" rx="2"/><rect width="24" height="4" x="16" y="88" fill="#F1F1F1" rx="2"/><rect width="40" height="4" x="48" y="88" fill="#6FD350" rx="2"/><rect width="97" height="35" x="16.5" y="176.5" fill="#F15242" fill-opacity=".2" stroke="#F15242" rx="4"/><rect width="97" height="35" x="16.5" y="136.5" fill="#6F0DFB" fill-opacity=".2" stroke="#6F0DFB" rx="4"/><path fill="#F1F1F1" d="M145 16h2v196h-2z"/><g fill="#F1F1F1" transform="translate(178 32)"><rect width="104" height="78" rx="4"/><rect width="50" height="42" y="90" rx="4"/><rect width="45" height="2" x="59" y="100" rx="1"/><rect width="45" height="2" x="59" y="90" rx="1"/><rect width="104" height="2" y="140" rx="1"/><rect width="104" height="2" y="150" rx="1"/><rect width="104" height="2" y="160" rx="1"/><rect width="104" height="2" y="170" rx="1"/><rect width="45" height="2" x="59" y="110" rx="1"/><rect width="45" height="2" x="59" y="120" rx="1"/><rect width="45" height="2" x="59" y="130" rx="1"/></g></g><g transform="translate(10 112)"><use fill="#000" filter="url(#c)" xlink:href="#d"/><rect width="313" height="229" x="-.5" y="-.5" fill="#FFF" stroke="#E1E1E1" rx="8"/><rect width="97" height="35" x="16.5" y="16.5" fill="#F15242" fill-opacity=".2" stroke="#F15242" rx="4"/><rect width="97" height="35" x="16.5" y="136.5" fill="#01B2D0" fill-opacity=".2" stroke="#01B2D0" rx="4"/><path fill="#F1F1F1" d="M130 16h2v196h-2z"/><rect width="97" height="35" x="16.5" y="176.5" fill="#FFC111" fill-opacity=".2" stroke="#FFC111" rx="4"/><rect width="97" height="35" x="16.5" y="56.5" fill="#6FD350" fill-opacity=".2" stroke="#6FD350" rx="4"/><rect width="97" height="35" x="16.5" y="96.5" fill="#6F0DFB" fill-opacity=".2" stroke="#6F0DFB" rx="4"/><g fill="#F1F1F1" transform="translate(162 24)"><rect width="120" height="80" rx="4"/><rect width="54" height="43" y="136" rx="4"/><rect width="54" height="43" x="66" y="136" rx="4"/><rect width="120" height="2" y="102" rx="1"/><rect width="120" height="2" y="92" rx="1"/><rect width="120" height="2" y="112" rx="1"/><rect width="120" height="2" y="122" rx="1"/></g></g></g></svg>