<svg xmlns="http://www.w3.org/2000/svg" xmlns:xlink="http://www.w3.org/1999/xlink" width="465" height="350" viewBox="0 0 465 350"><defs><rect id="b" width="180" height="260" x="0" y="0" rx="8"/><filter id="a" width="112.2%" height="108.5%" x="-6.1%" y="-3.5%" filterUnits="objectBoundingBox"><feMorphology in="SourceAlpha" operator="dilate" radius="1" result="shadowSpreadOuter1"/><feOffset dy="2" in="shadowSpreadOuter1" result="shadowOffsetOuter1"/><feGaussianBlur in="shadowOffsetOuter1" result="shadowBlurOuter1" stdDeviation="3"/><feComposite in="shadowBlurOuter1" in2="SourceAlpha" operator="out" result="shadowBlurOuter1"/><feColorMatrix in="shadowBlurOuter1" values="0 0 0 0 0.207843137 0 0 0 0 0.258823529 0 0 0 0 0.329411765 0 0 0 0.101137908 0"/></filter><path id="d" d="M8 0h164a8 8 0 0 1 8 8v12H0V8a8 8 0 0 1 8-8z"/><filter id="c" width="112.2%" height="210%" x="-6.1%" y="-45%" filterUnits="objectBoundingBox"><feMorphology in="SourceAlpha" operator="dilate" radius="1" result="shadowSpreadOuter1"/><feOffset dy="2" in="shadowSpreadOuter1" result="shadowOffsetOuter1"/><feGaussianBlur in="shadowOffsetOuter1" result="shadowBlurOuter1" stdDeviation="3"/><feComposite in="shadowBlurOuter1" in2="SourceAlpha" operator="out" result="shadowBlurOuter1"/><feColorMatrix in="shadowBlurOuter1" values="0 0 0 0 0.207843137 0 0 0 0 0.258823529 0 0 0 0 0.329411765 0 0 0 0.101137908 0"/></filter><rect id="f" width="180" height="260" x="0" y="0" rx="8"/><filter id="e" width="112.2%" height="108.5%" x="-6.1%" y="-3.5%" filterUnits="objectBoundingBox"><feMorphology in="SourceAlpha" operator="dilate" radius="1" result="shadowSpreadOuter1"/><feOffset dy="2" in="shadowSpreadOuter1" result="shadowOffsetOuter1"/><feGaussianBlur in="shadowOffsetOuter1" result="shadowBlurOuter1" stdDeviation="3"/><feComposite in="shadowBlurOuter1" in2="SourceAlpha" operator="out" result="shadowBlurOuter1"/><feColorMatrix in="shadowBlurOuter1" values="0 0 0 0 0.207843137 0 0 0 0 0.258823529 0 0 0 0 0.329411765 0 0 0 0.101137908 0"/></filter><path id="h" d="M8 0h164a8 8 0 0 1 8 8v12H0V8a8 8 0 0 1 8-8z"/><filter id="g" width="112.2%" height="210%" x="-6.1%" y="-45%" filterUnits="objectBoundingBox"><feMorphology in="SourceAlpha" operator="dilate" radius="1" result="shadowSpreadOuter1"/><feOffset dy="2" in="shadowSpreadOuter1" result="shadowOffsetOuter1"/><feGaussianBlur in="shadowOffsetOuter1" result="shadowBlurOuter1" stdDeviation="3"/><feComposite in="shadowBlurOuter1" in2="SourceAlpha" operator="out" result="shadowBlurOuter1"/><feColorMatrix in="shadowBlurOuter1" values="0 0 0 0 0.207843137 0 0 0 0 0.258823529 0 0 0 0 0.329411765 0 0 0 0.101137908 0"/></filter><rect id="j" width="180" height="260" x="0" y="0" rx="8"/><filter id="i" width="112.2%" height="108.5%" x="-6.1%" y="-3.5%" filterUnits="objectBoundingBox"><feMorphology in="SourceAlpha" operator="dilate" radius="1" result="shadowSpreadOuter1"/><feOffset dy="2" in="shadowSpreadOuter1" result="shadowOffsetOuter1"/><feGaussianBlur in="shadowOffsetOuter1" result="shadowBlurOuter1" stdDeviation="3"/><feComposite in="shadowBlurOuter1" in2="SourceAlpha" operator="out" result="shadowBlurOuter1"/><feColorMatrix in="shadowBlurOuter1" values="0 0 0 0 0.207843137 0 0 0 0 0.258823529 0 0 0 0 0.329411765 0 0 0 0.101137908 0"/></filter><path id="l" d="M8 0h164a8 8 0 0 1 8 8v12H0V8a8 8 0 0 1 8-8z"/><filter id="k" width="112.2%" height="210%" x="-6.1%" y="-45%" filterUnits="objectBoundingBox"><feMorphology in="SourceAlpha" operator="dilate" radius="1" result="shadowSpreadOuter1"/><feOffset dy="2" in="shadowSpreadOuter1" result="shadowOffsetOuter1"/><feGaussianBlur in="shadowOffsetOuter1" result="shadowBlurOuter1" stdDeviation="3"/><feComposite in="shadowBlurOuter1" in2="SourceAlpha" operator="out" result="shadowBlurOuter1"/><feColorMatrix in="shadowBlurOuter1" values="0 0 0 0 0.207843137 0 0 0 0 0.258823529 0 0 0 0 0.329411765 0 0 0 0.101137908 0"/></filter></defs><g fill="none" fill-rule="evenodd"><g stroke="#E1E1E1" stroke-dasharray="1 8" stroke-linecap="round" stroke-linejoin="round" stroke-width="2"><path d="M293 332c87.813 0 159-71.187 159-159S380.813 14 293 14 134 85.187 134 173s71.187 159 159 159z"/><path d="M293 307c74.006 0 134-59.994 134-134S367.006 39 293 39 159 98.994 159 173s59.994 134 134 134z"/><path d="M293 282c60.199 0 109-48.801 109-109S353.199 64 293 64s-109 48.801-109 109 48.801 109 109 109z"/></g><g transform="translate(207 34)"><use fill="#000" filter="url(#a)" xlink:href="#b"/><rect width="181" height="261" x="-.5" y="-.5" fill="#FFF" stroke="#E1E1E1" rx="8"/><path fill="#E1E1E1" d="M0 44h180v1H0z"/><use fill="#000" filter="url(#c)" xlink:href="#d"/><path fill="#FFF" stroke="#E1E1E1" d="M8-.5h164a8.5 8.5 0 0 1 8.5 8.5v12.5H-.5V8A8.5 8.5 0 0 1 8-.5z"/><circle cx="10" cy="10" r="3" fill="#F15242"/><circle cx="20" cy="10" r="3" fill="#FFC111"/><circle cx="30" cy="10" r="3" fill="#6FD350"/><rect width="118" height="88" x="31" y="66" fill="#6F0DFB" fill-opacity=".2" stroke="#6F0DFB" stroke-width="2" rx="4"/><rect width="118" height="70" x="31" y="166" fill="#6F0DFB" fill-opacity=".2" stroke="#6F0DFB" stroke-width="2" rx="4"/></g><g transform="translate(107 54)"><use fill="#000" filter="url(#e)" xlink:href="#f"/><rect width="181" height="261" x="-.5" y="-.5" fill="#FFF" stroke="#E1E1E1" rx="8"/><path fill="#E1E1E1" d="M0 44h180v1H0z"/><use fill="#000" filter="url(#g)" xlink:href="#h"/><path fill="#FFF" stroke="#E1E1E1" d="M8-.5h164a8.5 8.5 0 0 1 8.5 8.5v12.5H-.5V8A8.5 8.5 0 0 1 8-.5z"/><circle cx="10" cy="10" r="3" fill="#F15242"/><circle cx="20" cy="10" r="3" fill="#FFC111"/><circle cx="30" cy="10" r="3" fill="#6FD350"/><rect width="78" height="101" x="31" y="66" fill="#F15242" fill-opacity=".2" stroke="#F15242" stroke-width="2" rx="4"/><rect width="28" height="101" x="121" y="66" fill="#F15242" fill-opacity=".2" stroke="#F15242" stroke-width="2" rx="4"/><rect width="118" height="57" x="31" y="179" fill="#F15242" fill-opacity=".2" stroke="#F15242" stroke-width="2" rx="4"/></g><g transform="translate(7 74)"><use fill="#000" filter="url(#i)" xlink:href="#j"/><rect width="181" height="261" x="-.5" y="-.5" fill="#FFF" stroke="#E1E1E1" rx="8"/><path fill="#E1E1E1" d="M0 44h180v1H0z"/><use fill="#000" filter="url(#k)" xlink:href="#l"/><path fill="#FFF" stroke="#E1E1E1" d="M8-.5h164a8.5 8.5 0 0 1 8.5 8.5v12.5H-.5V8A8.5 8.5 0 0 1 8-.5z"/><circle cx="10" cy="10" r="3" fill="#F15242"/><circle cx="20" cy="10" r="3" fill="#FFC111"/><circle cx="30" cy="10" r="3" fill="#6FD350"/><path fill="#FFC111" fill-opacity=".2" stroke="#FFC111" stroke-dasharray="4 6" stroke-width="2" d="M34 65h112a4 4 0 0 1 4 4v56a4 4 0 0 1-4 4H34a4 4 0 0 1-4-4V69a4 4 0 0 1 4-4z"/><rect width="53" height="96" x="31" y="140" fill="#FFC111" fill-opacity=".2" stroke="#FFC111" stroke-width="2" rx="4"/><rect width="53" height="96" x="96" y="140" fill="#FFC111" fill-opacity=".2" stroke="#FFC111" stroke-width="2" rx="4"/></g></g></svg>