<svg xmlns="http://www.w3.org/2000/svg" xmlns:xlink="http://www.w3.org/1999/xlink" width="465" height="350" viewBox="0 0 465 350"><defs><filter id="b" width="107.1%" height="109.6%" x="-3.5%" y="-3.9%" filterUnits="objectBoundingBox"><feMorphology in="SourceAlpha" operator="dilate" radius="1" result="shadowSpreadOuter1"/><feOffset dy="2" in="shadowSpreadOuter1" result="shadowOffsetOuter1"/><feGaussianBlur in="shadowOffsetOuter1" result="shadowBlurOuter1" stdDeviation="3"/><feComposite in="shadowBlurOuter1" in2="SourceAlpha" operator="out" result="shadowBlurOuter1"/><feColorMatrix in="shadowBlurOuter1" values="0 0 0 0 0.207843137 0 0 0 0 0.258823529 0 0 0 0 0.329411765 0 0 0 0.101137908 0"/></filter><filter id="d" width="107.1%" height="222.2%" x="-3.5%" y="-50%" filterUnits="objectBoundingBox"><feMorphology in="SourceAlpha" operator="dilate" radius="1" result="shadowSpreadOuter1"/><feOffset dy="2" in="shadowSpreadOuter1" result="shadowOffsetOuter1"/><feGaussianBlur in="shadowOffsetOuter1" result="shadowBlurOuter1" stdDeviation="3"/><feComposite in="shadowBlurOuter1" in2="SourceAlpha" operator="out" result="shadowBlurOuter1"/><feColorMatrix in="shadowBlurOuter1" values="0 0 0 0 0.207843137 0 0 0 0 0.258823529 0 0 0 0 0.329411765 0 0 0 0.101137908 0"/></filter><filter id="f" width="107.1%" height="109.6%" x="-3.5%" y="-3.9%" filterUnits="objectBoundingBox"><feMorphology in="SourceAlpha" operator="dilate" radius="1" result="shadowSpreadOuter1"/><feOffset dy="2" in="shadowSpreadOuter1" result="shadowOffsetOuter1"/><feGaussianBlur in="shadowOffsetOuter1" result="shadowBlurOuter1" stdDeviation="3"/><feComposite in="shadowBlurOuter1" in2="SourceAlpha" operator="out" result="shadowBlurOuter1"/><feColorMatrix in="shadowBlurOuter1" values="0 0 0 0 0.207843137 0 0 0 0 0.258823529 0 0 0 0 0.329411765 0 0 0 0.101137908 0"/></filter><filter id="h" width="107.1%" height="222.2%" x="-3.5%" y="-50%" filterUnits="objectBoundingBox"><feMorphology in="SourceAlpha" operator="dilate" radius="1" result="shadowSpreadOuter1"/><feOffset dy="2" in="shadowSpreadOuter1" result="shadowOffsetOuter1"/><feGaussianBlur in="shadowOffsetOuter1" result="shadowBlurOuter1" stdDeviation="3"/><feComposite in="shadowBlurOuter1" in2="SourceAlpha" operator="out" result="shadowBlurOuter1"/><feColorMatrix in="shadowBlurOuter1" values="0 0 0 0 0.207843137 0 0 0 0 0.258823529 0 0 0 0 0.329411765 0 0 0 0.101137908 0"/></filter><filter id="j" width="147.8%" height="257.1%" x="-23.9%" y="-64.3%" filterUnits="objectBoundingBox"><feMorphology in="SourceAlpha" operator="dilate" radius="1" result="shadowSpreadOuter1"/><feOffset dy="2" in="shadowSpreadOuter1" result="shadowOffsetOuter1"/><feGaussianBlur in="shadowOffsetOuter1" result="shadowBlurOuter1" stdDeviation="3"/><feComposite in="shadowBlurOuter1" in2="SourceAlpha" operator="out" result="shadowBlurOuter1"/><feColorMatrix in="shadowBlurOuter1" values="0 0 0 0 0.207843137 0 0 0 0 0.258823529 0 0 0 0 0.329411765 0 0 0 0.101137908 0"/></filter><filter id="l" width="155%" height="257.1%" x="-27.5%" y="-64.3%" filterUnits="objectBoundingBox"><feMorphology in="SourceAlpha" operator="dilate" radius="1" result="shadowSpreadOuter1"/><feOffset dy="2" in="shadowSpreadOuter1" result="shadowOffsetOuter1"/><feGaussianBlur in="shadowOffsetOuter1" result="shadowBlurOuter1" stdDeviation="3"/><feComposite in="shadowBlurOuter1" in2="SourceAlpha" operator="out" result="shadowBlurOuter1"/><feColorMatrix in="shadowBlurOuter1" values="0 0 0 0 0.207843137 0 0 0 0 0.258823529 0 0 0 0 0.329411765 0 0 0 0.101137908 0"/></filter><filter id="n" width="155%" height="257.1%" x="-27.5%" y="-64.3%" filterUnits="objectBoundingBox"><feMorphology in="SourceAlpha" operator="dilate" radius="1" result="shadowSpreadOuter1"/><feOffset dy="2" in="shadowSpreadOuter1" result="shadowOffsetOuter1"/><feGaussianBlur in="shadowOffsetOuter1" result="shadowBlurOuter1" stdDeviation="3"/><feComposite in="shadowBlurOuter1" in2="SourceAlpha" operator="out" result="shadowBlurOuter1"/><feColorMatrix in="shadowBlurOuter1" values="0 0 0 0 0.207843137 0 0 0 0 0.258823529 0 0 0 0 0.329411765 0 0 0 0.101137908 0"/></filter><filter id="p" width="155%" height="257.1%" x="-27.5%" y="-64.3%" filterUnits="objectBoundingBox"><feMorphology in="SourceAlpha" operator="dilate" radius="1" result="shadowSpreadOuter1"/><feOffset dy="2" in="shadowSpreadOuter1" result="shadowOffsetOuter1"/><feGaussianBlur in="shadowOffsetOuter1" result="shadowBlurOuter1" stdDeviation="3"/><feComposite in="shadowBlurOuter1" in2="SourceAlpha" operator="out" result="shadowBlurOuter1"/><feColorMatrix in="shadowBlurOuter1" values="0 0 0 0 0.207843137 0 0 0 0 0.258823529 0 0 0 0 0.329411765 0 0 0 0.101137908 0"/></filter><filter id="r" width="146.8%" height="184.6%" x="-23.4%" y="-34.6%" filterUnits="objectBoundingBox"><feMorphology in="SourceAlpha" operator="dilate" radius="1" result="shadowSpreadOuter1"/><feOffset dy="2" in="shadowSpreadOuter1" result="shadowOffsetOuter1"/><feGaussianBlur in="shadowOffsetOuter1" result="shadowBlurOuter1" stdDeviation="3"/><feComposite in="shadowBlurOuter1" in2="SourceAlpha" operator="out" result="shadowBlurOuter1"/><feColorMatrix in="shadowBlurOuter1" values="0 0 0 0 0.207843137 0 0 0 0 0.258823529 0 0 0 0 0.329411765 0 0 0 0.101137908 0"/></filter><filter id="t" width="146.8%" height="184.6%" x="-23.4%" y="-34.6%" filterUnits="objectBoundingBox"><feMorphology in="SourceAlpha" operator="dilate" radius="1" result="shadowSpreadOuter1"/><feOffset dy="2" in="shadowSpreadOuter1" result="shadowOffsetOuter1"/><feGaussianBlur in="shadowOffsetOuter1" result="shadowBlurOuter1" stdDeviation="3"/><feComposite in="shadowBlurOuter1" in2="SourceAlpha" operator="out" result="shadowBlurOuter1"/><feColorMatrix in="shadowBlurOuter1" values="0 0 0 0 0.207843137 0 0 0 0 0.258823529 0 0 0 0 0.329411765 0 0 0 0.101137908 0"/></filter><filter id="v" width="146.8%" height="184.6%" x="-23.4%" y="-34.6%" filterUnits="objectBoundingBox"><feMorphology in="SourceAlpha" operator="dilate" radius="1" result="shadowSpreadOuter1"/><feOffset dy="2" in="shadowSpreadOuter1" result="shadowOffsetOuter1"/><feGaussianBlur in="shadowOffsetOuter1" result="shadowBlurOuter1" stdDeviation="3"/><feComposite in="shadowBlurOuter1" in2="SourceAlpha" operator="out" result="shadowBlurOuter1"/><feColorMatrix in="shadowBlurOuter1" values="0 0 0 0 0.207843137 0 0 0 0 0.258823529 0 0 0 0 0.329411765 0 0 0 0.101137908 0"/></filter><filter id="x" width="146.8%" height="184.6%" x="-23.4%" y="-34.6%" filterUnits="objectBoundingBox"><feMorphology in="SourceAlpha" operator="dilate" radius="1" result="shadowSpreadOuter1"/><feOffset dy="2" in="shadowSpreadOuter1" result="shadowOffsetOuter1"/><feGaussianBlur in="shadowOffsetOuter1" result="shadowBlurOuter1" stdDeviation="3"/><feComposite in="shadowBlurOuter1" in2="SourceAlpha" operator="out" result="shadowBlurOuter1"/><feColorMatrix in="shadowBlurOuter1" values="0 0 0 0 0.207843137 0 0 0 0 0.258823529 0 0 0 0 0.329411765 0 0 0 0.101137908 0"/></filter><rect id="a" width="312" height="228" x="0" y="0" rx="8"/><rect id="g" width="312" height="228" x="0" y="0" rx="8"/><rect id="k" width="46" height="14" x="54" y="0" rx="2"/><rect id="m" width="40" height="14" x="60" y="0" rx="2"/><rect id="o" width="40" height="14" x="60" y="0" rx="2"/><rect id="q" width="40" height="14" x="60" y="0" rx="2"/><rect id="s" width="47" height="26" x="0" y="0" rx="2"/><rect id="u" width="47" height="26" x="0" y="0" rx="2"/><rect id="w" width="47" height="26" x="0" y="0" rx="2"/><rect id="y" width="47" height="26" x="0" y="0" rx="2"/><path id="e" d="M151 10h296a8 8 0 018 8v10H143V18a8 8 0 018-8z"/><path id="i" d="M8 0h296a8 8 0 018 8v10H0V8a8 8 0 018-8z"/></defs><g fill="none" fill-rule="evenodd"><g stroke="#E1E1E1" stroke-dasharray="1 8" stroke-linecap="round" stroke-linejoin="round" stroke-width="2"><path d="M213 352c87.813 0 159-71.187 159-159S300.813 34 213 34 54 105.187 54 193s71.187 159 159 159z"/><path d="M213 327c74.006 0 134-59.994 134-134S287.006 59 213 59 79 118.994 79 193s59.994 134 134 134z"/><path d="M213 302c60.199 0 109-48.801 109-109S273.199 84 213 84s-109 48.801-109 109 48.801 109 109 109z"/></g><g transform="translate(143 10)"><mask id="c" fill="#fff"><use xlink:href="#a"/></mask><use fill="#000" filter="url(#b)" xlink:href="#a"/><rect width="313" height="229" x="-.5" y="-.5" fill="#FFF" stroke="#E1E1E1" rx="8"/><path fill="#1B2E5B" mask="url(#c)" d="M0 0h147v228H0z"/><rect width="44" height="4" x="51" y="32" fill="#FFC111" mask="url(#c)" rx="2"/><rect width="24" height="4" x="13" y="42" fill="#01B2D0" mask="url(#c)" rx="2"/><rect width="60" height="4" x="45" y="42" fill="#F1F1F1" mask="url(#c)" rx="2"/><rect width="88" height="4" x="25" y="52" fill="#F15242" mask="url(#c)" rx="2"/><rect width="60" height="4" x="37" y="62" fill="#F1F1F1" mask="url(#c)" rx="2"/><rect width="24" height="4" x="13" y="72" fill="#6FD350" mask="url(#c)" rx="2"/><rect width="40" height="4" x="45" y="72" fill="#F1F1F1" mask="url(#c)" rx="2"/><rect width="16" height="4" x="13" y="82" fill="#6F0DFB" mask="url(#c)" rx="2"/><rect width="24" height="4" x="37" y="82" fill="#6F0DFB" mask="url(#c)" rx="2"/><rect width="50" height="4" x="27" y="92" fill="#01B2D0" mask="url(#c)" rx="2"/><rect width="40" height="4" x="79" y="102" fill="#6F0DFB" mask="url(#c)" rx="2"/><rect width="24" height="4" x="47" y="102" fill="#01B2D0" mask="url(#c)" rx="2"/><rect width="24" height="4" x="13" y="112" fill="#F1F1F1" mask="url(#c)" rx="2"/><rect width="40" height="4" x="45" y="112" fill="#6FD350" mask="url(#c)" rx="2"/><rect width="97" height="35" x="16.5" y="176.5" fill="#F15242" fill-opacity=".2" stroke="#F15242" mask="url(#c)" rx="4"/><rect width="97" height="35" x="16.5" y="136.5" fill="#6F0DFB" fill-opacity=".2" stroke="#6F0DFB" mask="url(#c)" rx="4"/><g fill="#F1F1F1" mask="url(#c)"><g transform="translate(178 37)"><path d="M0 0h104v78H0zm0 90h50v42H0z"/><rect width="45" height="2" x="59" y="100" rx="1"/><rect width="45" height="2" x="59" y="90" rx="1"/><rect width="104" height="2" y="140" rx="1"/><rect width="104" height="2" y="150" rx="1"/><rect width="104" height="2" y="160" rx="1"/><rect width="104" height="2" y="170" rx="1"/><rect width="45" height="2" x="59" y="110" rx="1"/><rect width="45" height="2" x="59" y="120" rx="1"/><rect width="45" height="2" x="59" y="130" rx="1"/></g></g></g><use fill="#000" filter="url(#d)" xlink:href="#e"/><path fill="#FFF" stroke="#E1E1E1" d="M455.5 28.5h-313V18a8.47 8.47 0 012.49-6.01A8.473 8.473 0 01151 9.5h296a8.47 8.47 0 016.01 2.49A8.473 8.473 0 01455.5 18v10.5z"/><g transform="translate(10 112)"><use fill="#000" filter="url(#f)" xlink:href="#g"/><rect width="313" height="229" x="-.5" y="-.5" fill="#FFF" stroke="#E1E1E1" rx="8"/><use fill="#000" filter="url(#h)" xlink:href="#i"/><path fill="#FFF" stroke="#E1E1E1" d="M312.5 18.5H-.5V8a8.47 8.47 0 012.49-6.01A8.473 8.473 0 018-.5h296a8.47 8.47 0 016.01 2.49A8.473 8.473 0 01312.5 8v10.5z"/><path fill="#F1F1F1" d="M14 102h100v2H14z"/><g transform="translate(14 116)"><use fill="#000" filter="url(#j)" xlink:href="#k"/><rect width="47" height="15" x="53.5" y="-.5" fill="#FFF" stroke="#E1E1E1" rx="2"/><rect width="38" height="4" y="5" fill="#F1F1F1" rx="2"/></g><g transform="translate(14 136)"><use fill="#000" filter="url(#l)" xlink:href="#m"/><rect width="41" height="15" x="59.5" y="-.5" fill="#FFF" stroke="#E1E1E1" rx="2"/><rect width="24" height="4" y="5" fill="#F1F1F1" rx="2"/></g><g transform="translate(14 156)"><use fill="#000" filter="url(#n)" xlink:href="#o"/><rect width="41" height="15" x="59.5" y="-.5" fill="#FFF" stroke="#E1E1E1" rx="2"/><rect width="24" height="4" y="5" fill="#F1F1F1" rx="2"/></g><g transform="translate(14 176)"><use fill="#000" filter="url(#p)" xlink:href="#q"/><rect width="41" height="15" x="59.5" y="-.5" fill="#FFF" stroke="#E1E1E1" rx="2"/><rect width="24" height="4" y="5" fill="#F1F1F1" rx="2"/></g><path fill="#F1F1F1" d="M130 18h2v210h-2z"/><g transform="translate(14 32)"><use fill="#000" filter="url(#r)" xlink:href="#s"/><rect width="48" height="27" x="-.5" y="-.5" fill="#FFF" stroke="#E1E1E1" rx="2"/><rect width="16" height="4" x="15" y="11" fill="#01B2D0" rx="2"/></g><g transform="translate(67 64)"><use fill="#000" filter="url(#t)" xlink:href="#u"/><rect width="48" height="27" x="-.5" y="-.5" fill="#FFF" stroke="#E1E1E1" rx="2"/><rect width="16" height="4" x="15" y="11" fill="#6F0DFB" rx="2"/></g><g transform="translate(67 32)"><use fill="#000" filter="url(#v)" xlink:href="#w"/><rect width="48" height="27" x="-.5" y="-.5" fill="#FFF" stroke="#E1E1E1" rx="2"/><rect width="16" height="4" x="15" y="11" fill="#F15242" rx="2"/></g><g transform="translate(14 64)"><use fill="#000" filter="url(#x)" xlink:href="#y"/><rect width="48" height="27" x="-.5" y="-.5" fill="#FFF" stroke="#E1E1E1" rx="2"/><rect width="16" height="4" x="15" y="11" fill="#6FD350" rx="2"/></g><g fill="#F1F1F1" transform="translate(162 38)"><path d="M0 0h120v80H0zm0 136h54v34H0zm66 0h54v34H66z"/><rect width="120" height="2" y="102" rx="1"/><rect width="120" height="2" y="92" rx="1"/><rect width="120" height="2" y="112" rx="1"/><rect width="120" height="2" y="122" rx="1"/></g></g></g></svg>