<svg xmlns="http://www.w3.org/2000/svg" xmlns:xlink="http://www.w3.org/1999/xlink" width="465" height="350" viewBox="0 0 465 350"><defs><rect id="b" width="140" height="80" x="244" y="30" rx="8"/><filter id="a" width="115.7%" height="127.5%" x="-7.9%" y="-11.2%" filterUnits="objectBoundingBox"><feMorphology in="SourceAlpha" operator="dilate" radius="1" result="shadowSpreadOuter1"/><feOffset dy="2" in="shadowSpreadOuter1" result="shadowOffsetOuter1"/><feGaussianBlur in="shadowOffsetOuter1" result="shadowBlurOuter1" stdDeviation="3"/><feComposite in="shadowBlurOuter1" in2="SourceAlpha" operator="out" result="shadowBlurOuter1"/><feColorMatrix in="shadowBlurOuter1" values="0 0 0 0 0.207843137 0 0 0 0 0.258823529 0 0 0 0 0.329411765 0 0 0 0.101137908 0"/></filter><rect id="d" width="140" height="80" x="0" y="0" rx="8"/><filter id="c" width="115.7%" height="127.5%" x="-7.9%" y="-11.2%" filterUnits="objectBoundingBox"><feMorphology in="SourceAlpha" operator="dilate" radius="1" result="shadowSpreadOuter1"/><feOffset dy="2" in="shadowSpreadOuter1" result="shadowOffsetOuter1"/><feGaussianBlur in="shadowOffsetOuter1" result="shadowBlurOuter1" stdDeviation="3"/><feComposite in="shadowBlurOuter1" in2="SourceAlpha" operator="out" result="shadowBlurOuter1"/><feColorMatrix in="shadowBlurOuter1" values="0 0 0 0 0.207843137 0 0 0 0 0.258823529 0 0 0 0 0.329411765 0 0 0 0.101137908 0"/></filter><rect id="f" width="140" height="80" x="0" y="0" rx="8"/><filter id="e" width="115.7%" height="127.5%" x="-7.9%" y="-11.2%" filterUnits="objectBoundingBox"><feMorphology in="SourceAlpha" operator="dilate" radius="1" result="shadowSpreadOuter1"/><feOffset dy="2" in="shadowSpreadOuter1" result="shadowOffsetOuter1"/><feGaussianBlur in="shadowOffsetOuter1" result="shadowBlurOuter1" stdDeviation="3"/><feComposite in="shadowBlurOuter1" in2="SourceAlpha" operator="out" result="shadowBlurOuter1"/><feColorMatrix in="shadowBlurOuter1" values="0 0 0 0 0.207843137 0 0 0 0 0.258823529 0 0 0 0 0.329411765 0 0 0 0.101137908 0"/></filter><rect id="h" width="140" height="80" x="0" y="0" rx="8"/><filter id="g" width="115.7%" height="127.5%" x="-7.9%" y="-11.2%" filterUnits="objectBoundingBox"><feMorphology in="SourceAlpha" operator="dilate" radius="1" result="shadowSpreadOuter1"/><feOffset dy="2" in="shadowSpreadOuter1" result="shadowOffsetOuter1"/><feGaussianBlur in="shadowOffsetOuter1" result="shadowBlurOuter1" stdDeviation="3"/><feComposite in="shadowBlurOuter1" in2="SourceAlpha" operator="out" result="shadowBlurOuter1"/><feColorMatrix in="shadowBlurOuter1" values="0 0 0 0 0.207843137 0 0 0 0 0.258823529 0 0 0 0 0.329411765 0 0 0 0.101137908 0"/></filter><rect id="j" width="184" height="94" x="0" y="0" rx="8"/><filter id="i" width="112%" height="123.4%" x="-6%" y="-9.6%" filterUnits="objectBoundingBox"><feMorphology in="SourceAlpha" operator="dilate" radius="1" result="shadowSpreadOuter1"/><feOffset dy="2" in="shadowSpreadOuter1" result="shadowOffsetOuter1"/><feGaussianBlur in="shadowOffsetOuter1" result="shadowBlurOuter1" stdDeviation="3"/><feComposite in="shadowBlurOuter1" in2="SourceAlpha" operator="out" result="shadowBlurOuter1"/><feColorMatrix in="shadowBlurOuter1" values="0 0 0 0 0.207843137 0 0 0 0 0.258823529 0 0 0 0 0.329411765 0 0 0 0.101137908 0"/></filter></defs><g fill="none" fill-rule="evenodd"><g stroke="#E1E1E1" stroke-dasharray="1 8" stroke-linecap="round" stroke-linejoin="round" stroke-width="2"><path d="M228 336c87.813 0 159-71.187 159-159S315.813 18 228 18 69 89.187 69 177s71.187 159 159 159z"/><path d="M228 311c74.006 0 134-59.994 134-134S302.006 43 228 43 94 102.994 94 177s59.994 134 134 134z"/><path d="M228 286c60.199 0 109-48.801 109-109S288.199 68 228 68s-109 48.801-109 109 48.801 109 109 109z"/></g><path stroke="#B97ED7" stroke-dasharray="2 4" stroke-linecap="round" stroke-linejoin="round" stroke-width="2" d="M314 79v94"/><path stroke="#DEBE63" stroke-dasharray="2 4" stroke-linecap="round" stroke-linejoin="round" stroke-width="2" d="M280.756 210v8.639a8 8 0 0 1-8 8H176a8 8 0 0 0-8 8V239h0m183-29v8.639a8 8 0 0 0 8 8h18.756a8 8 0 0 1 8 8V239h0"/><use fill="#000" filter="url(#a)" xlink:href="#b"/><rect width="141" height="81" x="243.5" y="29.5" fill="#FFF" stroke="#E1E1E1" rx="8"/><g transform="translate(256 40)"><path fill="#354254" fill-rule="nonzero" d="M31.48 16c2.912 0 4.872-1.918 4.872-4.676 0-2.73-1.96-4.662-4.886-4.662h-3.472V16h3.486zm-.014-1.442h-1.834V8.104h1.848c2.072 0 3.192 1.428 3.192 3.22 0 1.778-1.176 3.234-3.206 3.234zm9.562 1.61c1.064 0 2.058-.35 2.744-.994l-.672-.966c-.49.49-1.26.756-1.932.756-1.274 0-2.03-.854-2.142-1.862h5.208v-.364c0-2.128-1.288-3.668-3.318-3.668-2.002 0-3.43 1.582-3.43 3.542 0 2.142 1.498 3.556 3.542 3.556zm1.792-4.116h-3.808c.056-.812.644-1.778 1.89-1.778 1.33 0 1.876.98 1.918 1.778zM47.16 16V6.662h-1.47V16h1.47zm7.518 0v-4.494c0-1.806-1.316-2.436-2.828-2.436-1.078 0-2.058.336-2.842 1.092l.616 1.022c.574-.588 1.246-.868 2.002-.868.924 0 1.582.476 1.582 1.26v1.008c-.504-.574-1.274-.868-2.198-.868-1.106 0-2.338.644-2.338 2.212 0 1.484 1.246 2.24 2.338 2.24.896 0 1.694-.322 2.198-.91V16h1.47zm-3.08-.84c-.826 0-1.456-.476-1.456-1.218 0-.728.63-1.218 1.456-1.218.63 0 1.26.238 1.61.7v1.036c-.35.462-.98.7-1.61.7zm4.704 3.486l.21-1.316c.154.07.392.112.56.112.476 0 .784-.14.98-.588l.336-.77-2.786-6.846h1.582l1.974 5.068 1.974-5.068H62.7l-3.262 7.98c-.462 1.148-1.26 1.512-2.31 1.526-.21 0-.63-.042-.826-.098z"/><path fill="#B97ED7" fill-rule="nonzero" d="M11.515 0c.39 0 .705.28.705.627 0 .346-.316.626-.705.626h-1.41v1.593a9.363 9.363 0 0 1 5.942 2.727 9.4 9.4 0 1 1-13.294 0 9.363 9.363 0 0 1 5.943-2.727l-.001-1.593h-1.41c-.39 0-.705-.28-.705-.626S6.896 0 7.285 0h4.23zM9.4 5.64c-.26 0-.47.303-.47.678v5.088a.941.941 0 0 0-.195 1.479.94.94 0 1 0 1.136-1.479L9.87 6.318c0-.375-.21-.678-.47-.678z"/><rect width="80" height="4" y="40" fill="#F1F1F1" rx="2"/><rect width="106" height="4" y="54" fill="#F1F1F1" rx="2"/></g><g transform="translate(244 134)"><use fill="#000" filter="url(#c)" xlink:href="#d"/><rect width="141" height="81" x="-.5" y="-.5" fill="#FFF" stroke="#E1E1E1" rx="8"/><path fill="#354254" fill-rule="nonzero" d="M44.712 26c1.764 0 2.716-1.078 2.716-2.534 0-1.134-.798-2.128-1.806-2.282.868-.182 1.624-.98 1.624-2.142 0-1.316-.938-2.38-2.66-2.38h-4.592V26h4.718zm-.448-5.488h-2.632v-2.408h2.632c.826 0 1.302.518 1.302 1.204 0 .714-.476 1.204-1.302 1.204zm.07 4.046h-2.702v-2.604h2.702c.924 0 1.414.602 1.414 1.302 0 .812-.532 1.302-1.414 1.302zM50.508 26v-4.606c.294-.49 1.12-.91 1.75-.91.182 0 .322.014.448.042V19.07c-.868 0-1.68.504-2.198 1.148v-.98h-1.47V26h1.47zm9.002 0v-4.494c0-1.806-1.316-2.436-2.828-2.436-1.078 0-2.058.336-2.842 1.092l.616 1.022c.574-.588 1.246-.868 2.002-.868.924 0 1.582.476 1.582 1.26v1.008c-.504-.574-1.274-.868-2.198-.868-1.106 0-2.338.644-2.338 2.212 0 1.484 1.246 2.24 2.338 2.24.896 0 1.694-.322 2.198-.91V26h1.47zm-3.08-.84c-.826 0-1.456-.476-1.456-1.218 0-.728.63-1.218 1.456-1.218.63 0 1.26.238 1.61.7v1.036c-.35.462-.98.7-1.61.7zm11.032.84v-4.76c0-1.386-.728-2.17-2.184-2.17-1.064 0-1.946.546-2.394 1.078v-.91h-1.47V26h1.47v-4.732c.35-.448.994-.896 1.736-.896.826 0 1.372.336 1.372 1.4V26h1.47zm4.984.168c1.33 0 2.114-.574 2.59-1.204l-.966-.91c-.378.532-.896.812-1.554.812-1.218 0-2.044-.938-2.044-2.254s.826-2.24 2.044-2.24c.658 0 1.176.252 1.554.784l.966-.882c-.476-.644-1.26-1.204-2.59-1.204-2.044 0-3.486 1.498-3.486 3.542 0 2.044 1.442 3.556 3.486 3.556zm9.94-.168h-1.47v-4.256c0-1.064-.532-1.372-1.358-1.372-.756 0-1.4.448-1.736.896V26h-1.47v-9.338h1.47v3.486c.448-.532 1.316-1.078 2.38-1.078 1.456 0 2.184.756 2.184 2.142V26z"/><path fill="#DEBE63" d="M23.139 11c.39 0 .705.316.705.705v4.935h.002v1.058c0 .221.105.43.282.564l5.076 3.806a.705.705 0 0 1 .282.564v1.058h-.002v2.82h1.264a.705.705 0 0 1 .53 1.17l-3.381 3.864a.705.705 0 0 1-1.061 0l-3.382-3.865a.705.705 0 0 1 .531-1.169h1.269v-2.492l-.006-.085a.705.705 0 0 0-.274-.454l-3.244-2.434-3.244 2.433a.705.705 0 0 0-.273.455l-.009.11v2.467h1.264a.705.705 0 0 1 .53 1.17l-3.381 3.864a.705.705 0 0 1-1.061 0l-3.382-3.865a.705.705 0 0 1 .531-1.169h1.269v-3.878c0-.184.073-.36.2-.49l.082-.073 5.076-3.807a.705.705 0 0 0 .282-.564v-5.993c0-.39.316-.705.705-.705h2.82z"/><rect width="80" height="4" x="12" y="50" fill="#F1F1F1" rx="2"/><rect width="116" height="4" x="12" y="64" fill="#F1F1F1" rx="2"/></g><g transform="translate(94 238)"><use fill="#000" filter="url(#e)" xlink:href="#f"/><rect width="141" height="81" x="-.5" y="-.5" fill="#FFF" stroke="#E1E1E1" rx="8"/><path fill="#354254" fill-rule="nonzero" d="M35.632 26v-3.5h2.478c1.946 0 3.038-1.33 3.038-2.912 0-1.596-1.078-2.926-3.038-2.926h-4.116V26h1.638zm2.254-4.942h-2.254v-2.954h2.254c.924 0 1.582.588 1.582 1.484 0 .882-.658 1.47-1.582 1.47zM48.512 26v-6.762h-1.47v4.746c-.336.448-.98.882-1.722.882-.84 0-1.372-.336-1.372-1.386v-4.242h-1.47v4.788c0 1.372.728 2.142 2.184 2.142a3.234 3.234 0 0 0 2.38-1.064V26h1.47zm4.228.168c1.82 0 2.814-.91 2.814-2.114 0-2.688-4.088-1.792-4.088-2.982 0-.476.476-.84 1.246-.84.854 0 1.596.364 2.002.812l.616-1.036c-.602-.532-1.47-.938-2.618-.938-1.708 0-2.66.938-2.66 2.044 0 2.604 4.088 1.652 4.088 2.982 0 .532-.462.896-1.344.896-.868 0-1.806-.448-2.282-.938l-.672 1.05c.7.686 1.736 1.064 2.898 1.064zM63.072 26h-1.47v-4.256c0-1.064-.532-1.372-1.358-1.372-.756 0-1.4.448-1.736.896V26h-1.47v-9.338h1.47v3.486c.448-.532 1.316-1.078 2.38-1.078 1.456 0 2.184.756 2.184 2.142V26z"/><path fill="#96C775" d="M22.716 11a2.444 2.444 0 0 1 2.444 2.444v13.912a2.444 2.444 0 0 1-2.444 2.444h-8.272A2.444 2.444 0 0 1 12 27.356V13.444A2.444 2.444 0 0 1 14.444 11h8.272zm-6.529 1.879l-1.17.001c-.675 0-1.222.547-1.222 1.222v12.596c0 .675.547 1.222 1.222 1.222h7.126c.675 0 1.222-.547 1.222-1.222V14.102c0-.675-.547-1.222-1.222-1.222l-1.171-.001v.643a.611.611 0 0 1-.61.611h-3.564a.611.611 0 0 1-.61-.61l-.001-.644zM21.4 18.52c.52 0 .94.42.94.94v2.82c0 .52-.42.94-.94.94h-5.64a.94.94 0 0 1-.94-.94v-2.82c0-.52.42-.94.94-.94h5.64z"/><rect width="106" height="4" x="12" y="50" fill="#F1F1F1" rx="2"/><rect width="60" height="4" x="12" y="64" fill="#F1F1F1" rx="2"/></g><g transform="translate(314 238)"><use fill="#000" filter="url(#g)" xlink:href="#h"/><rect width="141" height="81" x="-.5" y="-.5" fill="#FFF" stroke="#E1E1E1" rx="8"/><path fill="#354254" fill-rule="nonzero" d="M46.392 26v-1.442h-4.76v-2.604h4.662v-1.442h-4.662v-2.408h4.76v-1.442h-6.398V26h6.398zm11.41 0v-4.886c0-1.372-.714-2.044-1.946-2.044-1.022 0-1.918.63-2.296 1.232-.224-.728-.84-1.232-1.848-1.232-1.036 0-1.918.672-2.212 1.078v-.91h-1.47V26h1.47v-4.732c.308-.434.91-.896 1.568-.896.798 0 1.106.49 1.106 1.218V26h1.47v-4.732c.294-.448.91-.896 1.568-.896.798 0 1.12.49 1.12 1.218V26h1.47zm7.518 0v-4.494c0-1.806-1.316-2.436-2.828-2.436-1.078 0-2.058.336-2.842 1.092l.616 1.022c.574-.588 1.246-.868 2.002-.868.924 0 1.582.476 1.582 1.26v1.008c-.504-.574-1.274-.868-2.198-.868-1.106 0-2.338.644-2.338 2.212 0 1.484 1.246 2.24 2.338 2.24.896 0 1.694-.322 2.198-.91V26h1.47zm-3.08-.84c-.826 0-1.456-.476-1.456-1.218 0-.728.63-1.218 1.456-1.218.63 0 1.26.238 1.61.7v1.036c-.35.462-.98.7-1.61.7zm5.726-6.748c.504 0 .91-.406.91-.91a.908.908 0 0 0-.91-.91.908.908 0 0 0-.91.91c0 .504.406.91.91.91zM68.694 26v-6.762h-1.47V26h1.47zm3.374 0h-1.47v-9.338h1.47V26z"/><path fill="#6BC0CF" d="M28.356 15a2.444 2.444 0 0 1 2.444 2.444v8.272a2.444 2.444 0 0 1-2.444 2.444H14.444A2.444 2.444 0 0 1 12 25.716v-8.272A2.444 2.444 0 0 1 14.444 15h13.912zM14.95 17.05a.664.664 0 0 0-.886 0 .547.547 0 0 0 0 .817l6.893 6.364a.664.664 0 0 0 .886 0l6.894-6.364a.547.547 0 0 0 0-.818.664.664 0 0 0-.887 0l-6.45 5.955z"/><rect width="80" height="4" x="12" y="50" fill="#F1F1F1" rx="2"/><rect width="110" height="4" x="12" y="64" fill="#F1F1F1" rx="2"/></g><g transform="translate(9 91)"><use fill="#000" filter="url(#i)" xlink:href="#j"/><rect width="185" height="95" x="-.5" y="-.5" fill="#FFF" stroke="#E1E1E1" rx="8"/><rect width="160" height="44" x="12" y="38" fill="#01B2D0" fill-opacity=".1" stroke="#01B2D0" rx="4"/><path fill="#01B2D0" fill-rule="nonzero" d="M37.919 58.79a.705.705 0 0 0-.525-1.175h-4.539l2.11-6.695c.228-.723-.692-1.246-1.198-.681L24.181 60.95a.705.705 0 0 0 .525 1.175h4.536l-2.107 6.695c-.228.723.692 1.246 1.198.681l9.586-10.711z"/><path fill="#384254" fill-rule="nonzero" d="M19.91 25v-1.568h-5.054v-2.8h4.55v-1.484h-4.55v-2.52h4.802v-1.54h-6.566V25h6.818zm3.318 0v-3.696c0-.224.033-.446.098-.665.065-.22.161-.413.287-.581.126-.168.287-.306.483-.413.196-.107.43-.161.7-.161.27 0 .488.056.651.168.163.112.292.254.385.427.093.173.154.366.182.581.028.215.042.42.042.616V25h1.68v-4.2c0-.345-.047-.681-.14-1.008a2.464 2.464 0 0 0-.441-.868 2.222 2.222 0 0 0-.77-.609c-.313-.154-.688-.231-1.127-.231-.504 0-.94.128-1.309.385s-.628.553-.777.889h-.028V18.28h-1.596V25h1.68zm8.862.14a3.7 3.7 0 0 0 .588-.049c.205-.033.383-.077.532-.133l-.056-1.316c-.103.047-.22.082-.35.105a2.08 2.08 0 0 1-.364.035c-.373 0-.614-.098-.721-.294-.107-.196-.161-.443-.161-.742v-3.122h1.68V18.28h-1.68v-1.946h-1.652v1.946H28.73v1.344h1.176v3.136c0 .327.03.632.091.917.06.285.173.537.336.756.163.22.385.392.665.518s.644.189 1.092.189zm4.046-.14v-3.598c0-.121.023-.285.07-.49.047-.205.135-.406.266-.602a1.68 1.68 0 0 1 .546-.504c.233-.14.541-.21.924-.21a1.977 1.977 0 0 1 .518.07v-1.54a.775.775 0 0 0-.196-.035 3.378 3.378 0 0 0-.21-.007c-.448 0-.84.121-1.176.364a2.45 2.45 0 0 0-.784.952h-.028v-1.12h-1.61V25h1.68zM40 28.36c.373 0 .693-.042.959-.126.266-.084.497-.208.693-.371.196-.163.364-.364.504-.602s.27-.511.392-.819l3.178-8.162h-1.75l-1.666 4.886h-.028l-1.876-4.886h-1.862L41.428 25l-.336.854a7.903 7.903 0 0 1-.21.462c-.065.13-.14.24-.224.329a.759.759 0 0 1-.308.196c-.121.042-.27.063-.448.063-.093 0-.194-.007-.301-.021a1.76 1.76 0 0 1-.329-.077l-.14 1.456c.15.037.296.063.441.077.145.014.287.021.427.021z"/><rect width="87" height="4" x="53" y="58" fill="#01B2D0" rx="2"/></g></g></svg>