<svg xmlns="http://www.w3.org/2000/svg" xmlns:xlink="http://www.w3.org/1999/xlink" width="646" height="202" viewBox="0 0 646 202">
  <defs>
    <rect id="language-templates-a" width="660" height="202" x="0" y="0"/>
    <filter id="language-templates-b" width="125.6%" height="150.3%" x="-12.8%" y="-25.2%" filterUnits="objectBoundingBox">
      <feGaussianBlur in="SourceGraphic" stdDeviation="24"/>
    </filter>
    <filter id="language-templates-d" width="118%" height="113.7%" x="-9%" y="-6.8%" filterUnits="objectBoundingBox">
      <feOffset in="SourceAlpha" result="shadowOffsetOuter1"/>
      <feGaussianBlur in="shadowOffsetOuter1" result="shadowBlurOuter1" stdDeviation="4"/>
      <feColorMatrix in="shadowBlurOuter1" result="shadowMatrixOuter1" values="0 0 0 0 0   0 0 0 0 0   0 0 0 0 0  0 0 0 0.0972599638 0"/>
      <feMerge>
        <feMergeNode in="shadowMatrixOuter1"/>
        <feMergeNode in="SourceGraphic"/>
      </feMerge>
    </filter>
    <filter id="language-templates-e" width="118%" height="113.7%" x="-9%" y="-6.8%" filterUnits="objectBoundingBox">
      <feOffset in="SourceAlpha" result="shadowOffsetOuter1"/>
      <feGaussianBlur in="shadowOffsetOuter1" result="shadowBlurOuter1" stdDeviation="4"/>
      <feColorMatrix in="shadowBlurOuter1" result="shadowMatrixOuter1" values="0 0 0 0 0   0 0 0 0 0   0 0 0 0 0  0 0 0 0.0972599638 0"/>
      <feMerge>
        <feMergeNode in="shadowMatrixOuter1"/>
        <feMergeNode in="SourceGraphic"/>
      </feMerge>
    </filter>
    <filter id="language-templates-f" width="118%" height="113.7%" x="-9%" y="-6.8%" filterUnits="objectBoundingBox">
      <feOffset in="SourceAlpha" result="shadowOffsetOuter1"/>
      <feGaussianBlur in="shadowOffsetOuter1" result="shadowBlurOuter1" stdDeviation="4"/>
      <feColorMatrix in="shadowBlurOuter1" result="shadowMatrixOuter1" values="0 0 0 0 0   0 0 0 0 0   0 0 0 0 0  0 0 0 0.0972599638 0"/>
      <feMerge>
        <feMergeNode in="shadowMatrixOuter1"/>
        <feMergeNode in="SourceGraphic"/>
      </feMerge>
    </filter>
  </defs>
  <g fill="none" fill-rule="evenodd" transform="translate(-7)">
    <mask id="language-templates-c" fill="#fff">
      <use xlink:href="#language-templates-a"/>
    </mask>
    <use fill="#FFF" fill-opacity="0" xlink:href="#language-templates-a"/>
    <ellipse cx="330" cy="181" fill="#384254" fill-opacity=".08" filter="url(#language-templates-b)" mask="url(#language-templates-c)" rx="281" ry="143"/>
    <g filter="url(#language-templates-d)" mask="url(#language-templates-c)">
      <g transform="translate(433 30)">
        <path fill="#FFF" stroke="#F15242" stroke-width="4" d="M170.00591,2 C171.661009,2 173.159341,2.67156717 174.243881,3.75745382 C175.329114,4.84403369 176,6.34533703 176,8.00401486 L176,8.00401486 L176,225.995985 C176,227.654576 175.329423,229.156332 174.243931,230.243172 C173.159776,231.328673 171.661769,232 170.00591,232 L170.00591,232 L7.99409019,232 C6.33899134,232 4.84065886,231.328433 3.75611867,230.242546 C2.67088612,229.155966 2,227.654663 2,225.995985 L2,225.995985 L2,8.00401486 C2,6.34542406 2.67057688,4.84366781 3.75606897,3.75682808 C4.84022442,2.67132664 6.33823055,2 7.99409019,2 L7.99409019,2 Z"/>
        <circle cx="15" cy="15" r="3" fill="#F15242"/>
        <circle cx="25" cy="15" r="3" fill="#FFC111"/>
        <circle cx="35" cy="15" r="3" fill="#6FD350"/>
        <rect width="129.25" height="67.25" x="24.375" y="32.375" fill="#FFF" stroke="#E1E1E1" stroke-width=".75" rx="4"/>
        <path fill="#F15242" d="M24,119 C24,117.343146 25.3373792,116 26.9965324,116 L71.0034676,116 C72.6584067,116 74,117.346517 74,119 L74,119 C74,120.656854 72.6626208,122 71.0034676,122 L26.9965324,122 C25.3415933,122 24,120.653483 24,119 L24,119 Z"/>
        <path fill="#F15242" fill-opacity=".2" d="M24 134.631687C24 133.178247 25.1836696 132 26.6261765 132L151.373823 132C152.824221 132 154 133.171104 154 134.631687L154 135.368313C154 136.821753 152.81633 138 151.373823 138L26.6261765 138C25.1757793 138 24 136.828896 24 135.368313L24 134.631687zM24 150.631687C24 149.178247 25.1836696 148 26.6261765 148L151.373823 148C152.824221 148 154 149.171104 154 150.631687L154 151.368313C154 152.821753 152.81633 154 151.373823 154L26.6261765 154C25.1757793 154 24 152.828896 24 151.368313L24 150.631687zM24 167C24 165.343146 25.3504188 164 26.9907061 164L151.009294 164C152.661015 164 154 165.346517 154 167L154 167C154 168.656854 152.649581 170 151.009294 170L26.9907061 170C25.3389847 170 24 168.653483 24 167L24 167z"/>
        <path fill="#354254" fill-rule="nonzero" d="M58.516,82.4 L58.516,59.756 C59.876,57.376 60.998,54.826 61.882,52.14 L59.604,51.052 C57.938,56.424 55.252,61.218 51.58,65.366 L52.362,67.95 C53.688,66.556 54.912,65.094 56.068,63.53 L56.068,82.4 L58.516,82.4 Z M62.494,64.958 C63.922,62.782 65.18,60.402 66.268,57.75 L79.154,57.75 C78.644,59.518 77.998,61.082 77.216,62.51 L79.562,63.19 C80.412,61.15 81.092,59.076 81.636,56.968 L81.636,55.37 L67.152,55.37 C67.56,54.18 67.968,52.922 68.308,51.596 L65.996,51.12 C64.84,55.71 62.97,59.892 60.386,63.666 L62.494,64.958 Z M70.518,82.162 C72.388,82.162 73.34,81.21 73.34,79.306 L73.34,60.606 L70.96,60.606 L70.96,78.694 C70.96,79.578 70.518,80.02 69.668,80.02 C68.376,80.02 66.982,79.952 65.554,79.85 L66.064,82.162 L70.518,82.162 Z M80.344,78.66 L82.486,77.708 C81.194,73.084 79.698,68.766 77.964,64.754 L75.788,65.468 C77.454,69.276 78.984,73.696 80.344,78.66 Z M62.834,78.082 C64.806,74.512 66.404,70.364 67.628,65.638 L65.418,65.026 C64.024,69.99 62.392,74.07 60.556,77.266 L62.834,78.082 Z M87.756,82.536 C90.374,80.53 92.55,78.116 94.25,75.294 C95.95,76.722 97.412,78.014 98.568,79.238 L100.234,77.3 C98.976,76.076 97.378,74.682 95.406,73.152 C97.31,69.174 98.432,64.482 98.738,59.11 L98.738,57.716 L92.856,57.716 C93.264,55.676 93.672,53.432 94.08,51.052 L91.666,50.848 C91.292,53.194 90.884,55.472 90.408,57.716 L86.294,57.716 L86.294,60.062 L89.898,60.062 C89.082,63.53 88.164,66.76 87.11,69.752 C89.014,71.146 90.782,72.472 92.346,73.73 C90.748,76.382 88.674,78.626 86.09,80.496 L87.756,82.536 Z M107.374,82.026 C109.142,82.026 110.06,80.938 110.06,78.762 L110.06,67.882 L116.996,67.882 L116.996,65.502 L110.06,65.502 L110.06,61.966 C112.1,59.926 113.97,57.716 115.602,55.37 L115.602,52.99 L100.88,52.99 L100.88,55.37 L112.814,55.37 C111.148,57.682 109.414,59.62 107.578,61.218 L107.578,65.502 L99.894,65.502 L99.894,67.882 L107.578,67.882 L107.578,78.014 C107.578,79.17 107.17,79.748 106.388,79.748 C104.756,79.748 103.226,79.714 101.832,79.714 L102.478,82.026 L107.374,82.026 Z M93.434,71.656 C92.312,70.84 91.088,69.956 89.796,69.038 C90.68,66.658 91.53,63.666 92.346,60.062 L96.324,60.062 C96.018,64.414 95.066,68.29 93.434,71.656 Z M125.224,72.472 L125.224,54.928 L122.776,54.928 L122.776,72.472 L125.224,72.472 Z M124,79.204 C124.544,79.204 124.986,79.017 125.326,78.643 C125.666,78.269 125.836,77.844 125.836,77.368 C125.836,76.892 125.666,76.467 125.326,76.093 C124.986,75.719 124.544,75.532 124,75.532 C123.456,75.532 123.014,75.719 122.674,76.093 C122.334,76.467 122.164,76.892 122.164,77.368 C122.164,77.844 122.334,78.269 122.674,78.643 C123.014,79.017 123.456,79.204 124,79.204 Z"/>
      </g>
    </g>
    <g filter="url(#language-templates-e)" mask="url(#language-templates-c)">
      <g transform="translate(241)">
        <rect width="174" height="230" x="2" y="2" fill="#FFF" stroke="#FFC111" stroke-width="4" rx="8"/>
        <circle cx="15.75" cy="15" r="3" fill="#F15242"/>
        <circle cx="25.75" cy="15" r="3" fill="#FFC111"/>
        <circle cx="35.75" cy="15" r="3" fill="#6FD350"/>
        <rect width="129.25" height="67.25" x="24.375" y="32.375" fill="#FFF" stroke="#E1E1E1" stroke-width=".75" rx="4"/>
        <rect width="50" height="6" x="24" y="116" fill="#FFC111" rx="3"/>
        <rect width="130" height="6" x="24" y="132" fill="#FFC111" fill-opacity=".2" rx="3"/>
        <rect width="130" height="6" x="24" y="148" fill="#FFC111" fill-opacity=".2" rx="3"/>
        <rect width="130" height="6" x="24" y="164" fill="#FFC111" fill-opacity=".2" rx="3"/>
        <rect width="130" height="6" x="24" y="180" fill="#FFC111" fill-opacity=".2" rx="3"/>
        <rect width="130" height="6" x="24" y="196" fill="#FFC111" fill-opacity=".2" rx="3"/>
        <path fill="#354254" fill-rule="nonzero" d="M47.969,64.182 C48.513,64.182 48.955,63.995 49.295,63.621 C49.635,63.247 49.805,62.822 49.805,62.346 C49.805,61.87 49.635,61.445 49.295,61.071 C48.955,60.697 48.513,60.51 47.969,60.51 C47.425,60.51 46.983,60.697 46.643,61.071 C46.303,61.445 46.133,61.87 46.133,62.346 C46.133,62.822 46.303,63.247 46.643,63.621 C46.983,63.995 47.425,64.182 47.969,64.182 Z M49.193,84.786 L49.193,67.242 L46.745,67.242 L46.745,84.786 L49.193,84.786 Z M59.189,77 L59.189,65.61 L72.313,65.61 L72.313,77 L74.761,77 L74.761,52.928 L72.313,52.928 L72.313,63.366 L59.189,63.366 L59.189,52.928 L56.741,52.928 L56.741,77 L59.189,77 Z M88.327,77.408 C89.5736667,77.408 90.7183333,77.1983333 91.761,76.779 C92.8036667,76.3596667 93.699,75.776 94.447,75.028 C95.195,74.28 95.7786667,73.396 96.198,72.376 C96.6173333,71.356 96.827,70.2453333 96.827,69.044 C96.827,67.8426667 96.6173333,66.732 96.198,65.712 C95.7786667,64.692 95.195,63.808 94.447,63.06 C93.699,62.312 92.8036667,61.7283333 91.761,61.309 C90.7183333,60.8896667 89.5736667,60.68 88.327,60.68 C87.103,60.68 85.9696667,60.8896667 84.927,61.309 C83.8843333,61.7283333 82.989,62.312 82.241,63.06 C81.493,63.808 80.9093333,64.692 80.49,65.712 C80.0706667,66.732 79.861,67.8426667 79.861,69.044 C79.861,70.2453333 80.0706667,71.356 80.49,72.376 C80.9093333,73.396 81.493,74.28 82.241,75.028 C82.989,75.776 83.8843333,76.3596667 84.927,76.779 C85.9696667,77.1983333 87.103,77.408 88.327,77.408 Z M88.327,75.436 C87.3976667,75.436 86.5646667,75.2716667 85.828,74.943 C85.0913333,74.6143333 84.4623333,74.161 83.941,73.583 C83.4196667,73.005 83.0173333,72.325 82.734,71.543 C82.4506667,70.761 82.309,69.928 82.309,69.044 C82.309,68.16 82.4506667,67.327 82.734,66.545 C83.0173333,65.763 83.4196667,65.083 83.941,64.505 C84.4623333,63.927 85.0913333,63.468 85.828,63.128 C86.5646667,62.788 87.3976667,62.618 88.327,62.618 C89.2563333,62.618 90.095,62.788 90.843,63.128 C91.591,63.468 92.2256667,63.927 92.747,64.505 C93.2683333,65.083 93.6706667,65.763 93.954,66.545 C94.2373333,67.327 94.379,68.16 94.379,69.044 C94.379,69.928 94.2373333,70.761 93.954,71.543 C93.6706667,72.325 93.2683333,73.005 92.747,73.583 C92.2256667,74.161 91.591,74.6143333 90.843,74.943 C90.095,75.2716667 89.2563333,75.436 88.327,75.436 Z M104.171,77 L104.171,51.296 L101.859,51.296 L101.859,77 L104.171,77 Z M114.677,77.408 C115.969,77.408 117.074,77.1756667 117.992,76.711 C118.91,76.2463333 119.731667,75.4813333 120.457,74.416 L120.457,74.416 L120.525,74.416 C120.525,74.8466667 120.547667,75.2886667 120.593,75.742 C120.638333,76.1953333 120.695,76.6146667 120.763,77 L120.763,77 L122.837,77 C122.746333,76.5466667 122.678333,75.9913333 122.633,75.334 C122.587667,74.6766667 122.565,74.042 122.565,73.43 L122.565,73.43 L122.565,66.46 C122.565,65.4853333 122.406333,64.6353333 122.089,63.91 C121.771667,63.1846667 121.329667,62.584 120.763,62.108 C120.196333,61.632 119.539,61.275 118.791,61.037 C118.043,60.799 117.238333,60.68 116.377,60.68 C115.017,60.68 113.798667,60.8953333 112.722,61.326 C111.645333,61.7566667 110.778333,62.3006667 110.121,62.958 L110.121,62.958 L111.413,64.488 C111.979667,63.9213333 112.671,63.468 113.487,63.128 C114.303,62.788 115.187,62.618 116.139,62.618 C117.521667,62.618 118.575667,62.958 119.301,63.638 C120.026333,64.318 120.389,65.3493333 120.389,66.732 L120.389,66.732 L120.389,67.242 C118.938333,67.242 117.538667,67.293 116.19,67.395 C114.841333,67.497 113.645667,67.7236667 112.603,68.075 C111.560333,68.4263333 110.727333,68.959 110.104,69.673 C109.480667,70.387 109.169,71.356 109.169,72.58 C109.169,73.464 109.344667,74.212 109.696,74.824 C110.047333,75.436 110.489333,75.9346667 111.022,76.32 C111.554667,76.7053333 112.144,76.983 112.79,77.153 C113.436,77.323 114.065,77.408 114.677,77.408 Z M115.289,75.504 C114.835667,75.504 114.388,75.453 113.946,75.351 C113.504,75.249 113.101667,75.079 112.739,74.841 C112.376333,74.603 112.087333,74.2913333 111.872,73.906 C111.656667,73.5206667 111.549,73.0446667 111.549,72.478 C111.549,71.73 111.798333,71.1293333 112.297,70.676 C112.795667,70.2226667 113.436,69.877 114.218,69.639 C115,69.401 115.872667,69.2423333 116.836,69.163 C117.799333,69.0836667 118.757,69.044 119.709,69.044 L119.709,69.044 L120.389,69.044 L120.389,70.234 C120.389,70.9366667 120.275667,71.6053333 120.049,72.24 C119.822333,72.8746667 119.493667,73.4356667 119.063,73.923 C118.632333,74.4103333 118.099667,74.7956667 117.465,75.079 C116.830333,75.3623333 116.105,75.504 115.289,75.504 Z M132.255,70.472 L132.255,52.928 L129.807,52.928 L129.807,70.472 L132.255,70.472 Z M131.031,77.204 C131.575,77.204 132.017,77.017 132.357,76.643 C132.697,76.269 132.867,75.844 132.867,75.368 C132.867,74.892 132.697,74.467 132.357,74.093 C132.017,73.719 131.575,73.532 131.031,73.532 C130.487,73.532 130.045,73.719 129.705,74.093 C129.365,74.467 129.195,74.892 129.195,75.368 C129.195,75.844 129.365,76.269 129.705,76.643 C130.045,77.017 130.487,77.204 131.031,77.204 Z"/>
      </g>
    </g>
    <g filter="url(#language-templates-f)" mask="url(#language-templates-c)">
      <g transform="translate(49 30)">
        <rect width="174" height="230" x="2" y="2" fill="#FFF" stroke="#01B2D0" stroke-width="4" rx="8"/>
        <circle cx="15" cy="15" r="3" fill="#F15242"/>
        <circle cx="25" cy="15" r="3" fill="#FFC111"/>
        <circle cx="35" cy="15" r="3" fill="#6FD350"/>
        <rect width="50" height="6" x="24" y="116" fill="#01B2D0" rx="3"/>
        <rect width="130" height="6" x="24" y="132" fill="#01B2D0" fill-opacity=".2" rx="3"/>
        <rect width="130" height="6" x="24" y="148" fill="#01B2D0" fill-opacity=".2" rx="3"/>
        <rect width="130" height="6" x="24" y="164" fill="#01B2D0" fill-opacity=".2" rx="3"/>
        <g transform="translate(24 32)">
          <rect width="129.25" height="67.25" x=".375" y=".375" fill="#FFF" stroke="#E1E1E1" stroke-width=".75" rx="4"/>
          <path fill="#354254" fill-rule="nonzero" d="M25.683,46.75 L25.683,35.36 L38.807,35.36 L38.807,46.75 L41.255,46.75 L41.255,22.678 L38.807,22.678 L38.807,33.116 L25.683,33.116 L25.683,22.678 L23.235,22.678 L23.235,46.75 L25.683,46.75 Z M54.583,47.158 C55.8976667,47.158 57.1273333,46.8973333 58.272,46.376 C59.4166667,45.8546667 60.465,44.9933333 61.417,43.792 L61.417,43.792 L59.683,42.432 C59.2296667,43.1573333 58.5666667,43.7976667 57.694,44.353 C56.8213333,44.9083333 55.7843333,45.186 54.583,45.186 C53.767,45.186 53.0076667,45.033 52.305,44.727 C51.6023333,44.421 50.9903333,44.0073333 50.469,43.486 C49.9476667,42.9646667 49.5396667,42.3526667 49.245,41.65 C48.9503333,40.9473333 48.7916667,40.1993333 48.769,39.406 L48.769,39.406 L61.961,39.406 C61.9836667,39.202 61.995,39.0093333 61.995,38.828 L61.995,38.828 L61.995,38.318 C61.995,37.23 61.8306667,36.21 61.502,35.258 C61.1733333,34.306 60.6916667,33.473 60.057,32.759 C59.4223333,32.045 58.629,31.4783333 57.677,31.059 C56.725,30.6396667 55.6256667,30.43 54.379,30.43 C53.2456667,30.43 52.1916667,30.6396667 51.217,31.059 C50.2423333,31.4783333 49.3923333,32.062 48.667,32.81 C47.9416667,33.558 47.375,34.442 46.967,35.462 C46.559,36.482 46.355,37.5926667 46.355,38.794 C46.355,39.9953333 46.5646667,41.106 46.984,42.126 C47.4033333,43.146 47.9756667,44.03 48.701,44.778 C49.4263333,45.526 50.2933333,46.1096667 51.302,46.529 C52.3106667,46.9483333 53.4043333,47.158 54.583,47.158 Z M59.649,37.57 L48.803,37.57 C48.8483333,36.89 49.0183333,36.2383333 49.313,35.615 C49.6076667,34.9916667 50.0043333,34.4363333 50.503,33.949 C51.0016667,33.4616667 51.5796667,33.0763333 52.237,32.793 C52.8943333,32.5096667 53.6083333,32.368 54.379,32.368 C56.0336667,32.368 57.3086667,32.861 58.204,33.847 C59.0993333,34.833 59.581,36.074 59.649,37.57 L59.649,37.57 Z M69.339,46.75 L69.339,21.046 L67.027,21.046 L67.027,46.75 L69.339,46.75 Z M77.907,46.75 L77.907,21.046 L75.595,21.046 L75.595,46.75 L77.907,46.75 Z M91.405,47.158 C92.6516667,47.158 93.7963333,46.9483333 94.839,46.529 C95.8816667,46.1096667 96.777,45.526 97.525,44.778 C98.273,44.03 98.8566667,43.146 99.276,42.126 C99.6953333,41.106 99.905,39.9953333 99.905,38.794 C99.905,37.5926667 99.6953333,36.482 99.276,35.462 C98.8566667,34.442 98.273,33.558 97.525,32.81 C96.777,32.062 95.8816667,31.4783333 94.839,31.059 C93.7963333,30.6396667 92.6516667,30.43 91.405,30.43 C90.181,30.43 89.0476667,30.6396667 88.005,31.059 C86.9623333,31.4783333 86.067,32.062 85.319,32.81 C84.571,33.558 83.9873333,34.442 83.568,35.462 C83.1486667,36.482 82.939,37.5926667 82.939,38.794 C82.939,39.9953333 83.1486667,41.106 83.568,42.126 C83.9873333,43.146 84.571,44.03 85.319,44.778 C86.067,45.526 86.9623333,46.1096667 88.005,46.529 C89.0476667,46.9483333 90.181,47.158 91.405,47.158 Z M91.405,45.186 C90.4756667,45.186 89.6426667,45.0216667 88.906,44.693 C88.1693333,44.3643333 87.5403333,43.911 87.019,43.333 C86.4976667,42.755 86.0953333,42.075 85.812,41.293 C85.5286667,40.511 85.387,39.678 85.387,38.794 C85.387,37.91 85.5286667,37.077 85.812,36.295 C86.0953333,35.513 86.4976667,34.833 87.019,34.255 C87.5403333,33.677 88.1693333,33.218 88.906,32.878 C89.6426667,32.538 90.4756667,32.368 91.405,32.368 C92.3343333,32.368 93.173,32.538 93.921,32.878 C94.669,33.218 95.3036667,33.677 95.825,34.255 C96.3463333,34.833 96.7486667,35.513 97.032,36.295 C97.3153333,37.077 97.457,37.91 97.457,38.794 C97.457,39.678 97.3153333,40.511 97.032,41.293 C96.7486667,42.075 96.3463333,42.755 95.825,43.333 C95.3036667,43.911 94.669,44.3643333 93.921,44.693 C93.173,45.0216667 92.3343333,45.186 91.405,45.186 Z M108.609,40.222 L108.609,22.678 L106.161,22.678 L106.161,40.222 L108.609,40.222 Z M107.385,46.954 C107.929,46.954 108.371,46.767 108.711,46.393 C109.051,46.019 109.221,45.594 109.221,45.118 C109.221,44.642 109.051,44.217 108.711,43.843 C108.371,43.469 107.929,43.282 107.385,43.282 C106.841,43.282 106.399,43.469 106.059,43.843 C105.719,44.217 105.549,44.642 105.549,45.118 C105.549,45.594 105.719,46.019 106.059,46.393 C106.399,46.767 106.841,46.954 107.385,46.954 Z"/>
        </g>
      </g>
    </g>
  </g>
</svg>
