<?xml version="1.0" encoding="UTF-8"?>
<svg width="644px" height="432px" viewBox="0 0 644 432" version="1.1" xmlns="http://www.w3.org/2000/svg" xmlns:xlink="http://www.w3.org/1999/xlink">
    <!-- Generator: Sketch 40.3 (33839) - http://www.bohemiancoding.com/sketch -->
    <title>fusion-hero</title>
    <desc>Created with Sketch.</desc>
    <defs>
        <path d="M0,2.99676618 C0,1.34169792 1.34016708,0 2.99653173,0 L204.735863,0 C206.390801,0 207.732394,1.34639589 207.732394,2.99676618 L207.732394,255.874202 C207.732394,257.52927 206.392227,258.870968 204.735863,258.870968 L2.99653173,258.870968 C1.34159295,258.870968 0,257.524572 0,255.874202 L0,2.99676618 Z" id="path-1"></path>
        <mask id="mask-2" maskContentUnits="userSpaceOnUse" maskUnits="objectBoundingBox" x="0" y="0" width="207.732394" height="258.870968" fill="white">
            <use xlink:href="#path-1"></use>
        </mask>
        <path d="M0,2.99676618 C0,1.34169792 1.34016708,0 2.99653173,0 L204.735863,0 C206.390801,0 207.732394,1.34639589 207.732394,2.99676618 L207.732394,255.874202 C207.732394,257.52927 206.392227,258.870968 204.735863,258.870968 L2.99653173,258.870968 C1.34159295,258.870968 0,257.524572 0,255.874202 L0,2.99676618 Z" id="path-3"></path>
        <mask id="mask-4" maskContentUnits="userSpaceOnUse" maskUnits="objectBoundingBox" x="0" y="0" width="207.732394" height="258.870968" fill="white">
            <use xlink:href="#path-3"></use>
        </mask>
        <path d="M0,2.99676618 C0,1.34169792 1.34016708,0 2.99653173,0 L204.735863,0 C206.390801,0 207.732394,1.34639589 207.732394,2.99676618 L207.732394,255.874202 C207.732394,257.52927 206.392227,258.870968 204.735863,258.870968 L2.99653173,258.870968 C1.34159295,258.870968 0,257.524572 0,255.874202 L0,2.99676618 Z" id="path-5"></path>
        <mask id="mask-6" maskContentUnits="userSpaceOnUse" maskUnits="objectBoundingBox" x="0" y="0" width="207.732394" height="258.870968" fill="white">
            <use xlink:href="#path-5"></use>
        </mask>
    </defs>
    <g id="Page-2" stroke="none" stroke-width="1" fill="none" fill-rule="evenodd">
        <g id="Blue-Version" transform="translate(-398.000000, -500.000000)">
            <g id="fusion-hero" transform="translate(398.000000, 500.000000)">
                <polyline id="Path-6" stroke="#BAE9AC" stroke-width="3" stroke-dasharray="6,4" points="371.628906 386.578125 540.236315 386.578125 540.236315 297.193015"></polyline>
                <polyline id="Path-6" stroke="#F7ADA5" stroke-width="3" stroke-dasharray="6,4" transform="translate(182.932611, 341.885570) scale(-1, 1) translate(-182.932611, -341.885570) " points="94.6289062 386.578125 271.236315 386.578125 271.236315 297.193015"></polyline>
                <g id="Group-2">
                    <g id="Group-23" transform="translate(436.000000, 25.000000)">
                        <use id="Rectangle" stroke="#0AA6D2" mask="url(#mask-2)" stroke-width="4" fill="#E2F5FA" xlink:href="#path-1"></use>
                        <rect id="Rectangle" fill="#09A5D1" opacity="0.145550272" x="13.1325077" y="167.997095" width="58.4993524" height="53.2090442" rx="2"></rect>
                        <rect id="Rectangle" fill="#09A5D1" opacity="0.145550272" x="75.2134531" y="167.997095" width="58.4993524" height="53.2090442" rx="2"></rect>
                        <rect id="Rectangle" fill="#09A5D1" opacity="0.145550272" x="136.697466" y="167.997095" width="58.4993524" height="53.2090442" rx="2"></rect>
                        <rect id="Rectangle-16" fill="#09A5D1" opacity="0.251528533" x="0" y="0" width="207.732394" height="22.1206139" rx="3"></rect>
                        <path d="M104.164663,99.8416896 C95.7700172,99.8416896 88.942893,93.0040175 88.942893,84.5964017 C88.942893,76.1887859 95.7700172,69.3511138 104.164663,69.3511138 C112.559309,69.3511138 119.386434,76.1887859 119.386434,84.5964017 C119.386434,93.0040175 112.559309,99.8416896 104.164663,99.8416896 L104.164663,99.8416896 Z" id="Fill-1" fill="#09A5D1" opacity="0.1"></path>
                        <path d="M108.719792,85.3064946 C108.831891,84.9211647 108.91105,84.5085279 108.960459,84.2000617 C109.313755,84.0402661 109.585235,83.7636578 109.734523,83.4162541 C109.944375,82.9120888 110.058599,81.8319513 110.060724,81.7864399 C110.149978,80.9293084 109.834402,80.4372795 109.805182,80.4114897 C110.172822,76.9409918 109.006148,76.2552866 108.229959,76.1329114 C107.954229,76.0894228 107.53718,75.9908147 107.350172,75.7930929 C106.916654,75.3369675 106.723271,74.8292624 105.972052,74.8687056 C105.694196,74.8843818 105.318587,74.8014499 105.105015,74.6300236 C104.81866,74.4004438 104.421799,74.1339492 104.127474,74.1339492 C103.838993,74.1339492 103.475603,74.3908358 103.209967,74.6158645 C103.002771,74.7938646 102.63513,74.8828647 102.357275,74.8666829 C101.606056,74.8252169 101.412672,75.3349447 100.979154,75.7910702 C100.792146,75.988792 100.372972,76.0874 100.099367,76.1308887 C99.3231783,76.2532638 98.1570355,76.9389691 98.5241447,80.4094669 C98.4927996,80.4393022 98.181474,80.9348709 98.2686027,81.7844172 C98.2728529,81.8299286 98.3849513,82.9120888 98.5948039,83.4142313 C98.7419664,83.7616351 99.0161029,84.0382433 99.3688677,84.1980389 C99.4182761,84.5085279 99.4995607,84.919142 99.6095341,85.3044719 C99.7880416,85.9229214 100.369254,86.9636156 101.213445,87.7990028 C101.097628,91.8485069 93.5971249,90.6257671 92.524486,95.2482093 C95.3157909,98.4183318 99.4974356,100.439544 104.166788,100.439544 C108.836141,100.439544 113.019911,98.4183318 115.804841,95.250232 C114.740171,90.6161591 107.256668,91.7994558 107.138726,87.7595596 C107.970698,86.9302406 108.54766,85.9087623 108.719792,85.3064946 Z" id="Fill-2" fill="#09A5D1" opacity="0.4"></path>
                        <rect id="Rectangle-14" fill="#09A5D1" opacity="0.399999976" x="38.8005909" y="46.034791" width="40.5913874" height="10.7613797" rx="3"></rect>
                        <rect id="Rectangle-14" fill="#09A5D1" opacity="0.399999976" x="84.1674356" y="46.034791" width="28.6527441" height="10.7613797" rx="3"></rect>
                        <rect id="Rectangle-14" fill="#09A5D1" opacity="0.399999976" x="116.998705" y="46.034791" width="51.9330986" height="10.7613797" rx="3"></rect>
                        <rect id="Rectangle-14" fill="#09A5D1" opacity="0.399999976" x="73.4226566" y="109.407361" width="31.6374049" height="9.56567086" rx="3"></rect>
                        <rect id="Rectangle-14" fill="#09A5D1" opacity="0.399999976" x="109.238587" y="109.407361" width="25.6680832" height="9.56567086" rx="3"></rect>
                        <rect id="Rectangle-14" fill="#09A5D1" opacity="0.399999976" x="13.1325077" y="153.050734" width="31.6374049" height="7.17425315" rx="3"></rect>
                        <rect id="Rectangle-14" fill="#09A5D1" opacity="0.399999976" x="13.1325077" y="225.988974" width="31.6374049" height="7.17425315" rx="3"></rect>
                        <rect id="Rectangle-14" fill="#09A5D1" opacity="0.399999976" x="75.2134531" y="225.988974" width="31.6374049" height="7.17425315" rx="3"></rect>
                        <rect id="Rectangle-14" fill="#09A5D1" opacity="0.399999976" x="136.697466" y="225.988974" width="31.6374049" height="7.17425315" rx="3"></rect>
                        <rect id="Rectangle-14" fill="#09A5D1" opacity="0.149037567" x="13.1325077" y="236.152499" width="19.1018294" height="5.97854429" rx="2.98927214"></rect>
                        <rect id="Rectangle-14" fill="#09A5D1" opacity="0.149037567" x="75.2134531" y="236.152499" width="19.1018294" height="5.97854429" rx="2.98927214"></rect>
                        <rect id="Rectangle-14" fill="#09A5D1" opacity="0.149037567" x="136.697466" y="236.152499" width="19.1018294" height="5.97854429" rx="2.98927214"></rect>
                        <rect id="Rectangle-14" fill="#09A5D1" opacity="0.149264016" x="63.8717419" y="124.951576" width="31.6374049" height="7.17425315" rx="3"></rect>
                        <rect id="Rectangle-14" fill="#09A5D1" opacity="0.399999976" x="26.8619475" y="5.97854429" width="31.6374049" height="3.58712657" rx="1"></rect>
                        <rect id="Rectangle-14" fill="#09A5D1" opacity="0.399999976" x="26.8619475" y="12.554943" width="67.453335" height="3.58712657" rx="1"></rect>
                        <rect id="Rectangle-14" fill="#09A5D1" opacity="0.149264016" x="102.075401" y="124.951576" width="41.7852517" height="7.17425315" rx="3"></rect>
                        <path d="M6.56625384,8.97296611 C6.56625384,7.3191926 7.91691801,5.97854429 9.56825552,5.97854429 L18.4875564,5.97854429 C20.1455161,5.97854429 21.489558,7.32818198 21.489558,8.97296611 L21.489558,13.1476478 C21.489558,14.8014213 20.1388939,16.1420696 18.4875564,16.1420696 L9.56825552,16.1420696 C7.91029578,16.1420696 6.56625384,14.7924319 6.56625384,13.1476478 L6.56625384,8.97296611 Z M9.24968924,9.12410063 C8.04365924,8.15778597 8.31389007,7.37443316 9.85023228,7.37443316 L18.2056733,7.37443316 C19.7433741,7.37443316 20.0218942,8.15005578 18.8062164,9.12410063 L16.2116633,11.20295 C15.0056333,12.1692646 13.0599201,12.1769948 11.8442423,11.20295 L9.24968924,9.12410063 Z" id="Combined-Shape" fill="#09A5D1" opacity="0.495335121"></path>
                    </g>
                    <g id="Group-23" transform="translate(218.000000, 0.000000)">
                        <use id="Rectangle" stroke="#0AA6D2" mask="url(#mask-4)" stroke-width="4" fill="#E1EFF7" xlink:href="#path-3"></use>
                        <rect id="Rectangle" fill="#027AB6" opacity="0.145550272" x="13.1325077" y="167.997095" width="58.4993524" height="53.2090442" rx="2"></rect>
                        <rect id="Rectangle" fill="#027AB6" opacity="0.145550272" x="75.2134531" y="167.997095" width="58.4993524" height="53.2090442" rx="2"></rect>
                        <rect id="Rectangle" fill="#027AB6" opacity="0.145550272" x="136.697466" y="167.997095" width="58.4993524" height="53.2090442" rx="2"></rect>
                        <rect id="Rectangle-16" fill="#027AB6" opacity="0.251528533" x="0" y="0" width="207.732394" height="22.1206139" rx="3"></rect>
                        <path d="M104.164663,99.8416896 C95.7700172,99.8416896 88.942893,93.0040175 88.942893,84.5964017 C88.942893,76.1887859 95.7700172,69.3511138 104.164663,69.3511138 C112.559309,69.3511138 119.386434,76.1887859 119.386434,84.5964017 C119.386434,93.0040175 112.559309,99.8416896 104.164663,99.8416896 L104.164663,99.8416896 Z" id="Fill-1" fill="#027AB6" opacity="0.1"></path>
                        <path d="M108.719792,85.3064946 C108.831891,84.9211647 108.91105,84.5085279 108.960459,84.2000617 C109.313755,84.0402661 109.585235,83.7636578 109.734523,83.4162541 C109.944375,82.9120888 110.058599,81.8319513 110.060724,81.7864399 C110.149978,80.9293084 109.834402,80.4372795 109.805182,80.4114897 C110.172822,76.9409918 109.006148,76.2552866 108.229959,76.1329114 C107.954229,76.0894228 107.53718,75.9908147 107.350172,75.7930929 C106.916654,75.3369675 106.723271,74.8292624 105.972052,74.8687056 C105.694196,74.8843818 105.318587,74.8014499 105.105015,74.6300236 C104.81866,74.4004438 104.421799,74.1339492 104.127474,74.1339492 C103.838993,74.1339492 103.475603,74.3908358 103.209967,74.6158645 C103.002771,74.7938646 102.63513,74.8828647 102.357275,74.8666829 C101.606056,74.8252169 101.412672,75.3349447 100.979154,75.7910702 C100.792146,75.988792 100.372972,76.0874 100.099367,76.1308887 C99.3231783,76.2532638 98.1570355,76.9389691 98.5241447,80.4094669 C98.4927996,80.4393022 98.181474,80.9348709 98.2686027,81.7844172 C98.2728529,81.8299286 98.3849513,82.9120888 98.5948039,83.4142313 C98.7419664,83.7616351 99.0161029,84.0382433 99.3688677,84.1980389 C99.4182761,84.5085279 99.4995607,84.919142 99.6095341,85.3044719 C99.7880416,85.9229214 100.369254,86.9636156 101.213445,87.7990028 C101.097628,91.8485069 93.5971249,90.6257671 92.524486,95.2482093 C95.3157909,98.4183318 99.4974356,100.439544 104.166788,100.439544 C108.836141,100.439544 113.019911,98.4183318 115.804841,95.250232 C114.740171,90.6161591 107.256668,91.7994558 107.138726,87.7595596 C107.970698,86.9302406 108.54766,85.9087623 108.719792,85.3064946 Z" id="Fill-2" fill="#027AB6" opacity="0.4"></path>
                        <rect id="Rectangle-14" fill="#027AB6" opacity="0.399999976" x="38.8005909" y="46.034791" width="40.5913874" height="10.7613797" rx="3"></rect>
                        <rect id="Rectangle-14" fill="#027AB6" opacity="0.399999976" x="84.1674356" y="46.034791" width="28.6527441" height="10.7613797" rx="3"></rect>
                        <rect id="Rectangle-14" fill="#027AB6" opacity="0.399999976" x="116.998705" y="46.034791" width="51.9330986" height="10.7613797" rx="3"></rect>
                        <rect id="Rectangle-14" fill="#027AB6" opacity="0.399999976" x="73.4226566" y="109.407361" width="31.6374049" height="9.56567086" rx="3"></rect>
                        <rect id="Rectangle-14" fill="#027AB6" opacity="0.399999976" x="109.238587" y="109.407361" width="25.6680832" height="9.56567086" rx="3"></rect>
                        <rect id="Rectangle-14" fill="#027AB6" opacity="0.399999976" x="13.1325077" y="153.050734" width="31.6374049" height="7.17425315" rx="3"></rect>
                        <rect id="Rectangle-14" fill="#027AB6" opacity="0.399999976" x="13.1325077" y="225.988974" width="31.6374049" height="7.17425315" rx="3"></rect>
                        <rect id="Rectangle-14" fill="#027AB6" opacity="0.399999976" x="75.2134531" y="225.988974" width="31.6374049" height="7.17425315" rx="3"></rect>
                        <rect id="Rectangle-14" fill="#027AB6" opacity="0.399999976" x="136.697466" y="225.988974" width="31.6374049" height="7.17425315" rx="3"></rect>
                        <rect id="Rectangle-14" fill="#027AB6" opacity="0.149037567" x="13.1325077" y="236.152499" width="19.1018294" height="5.97854429" rx="2.98927214"></rect>
                        <rect id="Rectangle-14" fill="#027AB6" opacity="0.149037567" x="75.2134531" y="236.152499" width="19.1018294" height="5.97854429" rx="2.98927214"></rect>
                        <rect id="Rectangle-14" fill="#027AB6" opacity="0.149037567" x="136.697466" y="236.152499" width="19.1018294" height="5.97854429" rx="2.98927214"></rect>
                        <rect id="Rectangle-14" fill="#027AB6" opacity="0.149264016" x="63.8717419" y="124.951576" width="31.6374049" height="7.17425315" rx="3"></rect>
                        <rect id="Rectangle-14" fill="#027AB6" opacity="0.399999976" x="26.8619475" y="5.97854429" width="31.6374049" height="3.58712657" rx="1"></rect>
                        <rect id="Rectangle-14" fill="#027AB6" opacity="0.399999976" x="26.8619475" y="12.554943" width="67.453335" height="3.58712657" rx="1"></rect>
                        <rect id="Rectangle-14" fill="#027AB6" opacity="0.149264016" x="102.075401" y="124.951576" width="41.7852517" height="7.17425315" rx="3"></rect>
                        <path d="M6.56625384,8.97296611 C6.56625384,7.3191926 7.91691801,5.97854429 9.56825552,5.97854429 L18.4875564,5.97854429 C20.1455161,5.97854429 21.489558,7.32818198 21.489558,8.97296611 L21.489558,13.1476478 C21.489558,14.8014213 20.1388939,16.1420696 18.4875564,16.1420696 L9.56825552,16.1420696 C7.91029578,16.1420696 6.56625384,14.7924319 6.56625384,13.1476478 L6.56625384,8.97296611 Z M9.24968924,9.12410063 C8.04365924,8.15778597 8.31389007,7.37443316 9.85023228,7.37443316 L18.2056733,7.37443316 C19.7433741,7.37443316 20.0218942,8.15005578 18.8062164,9.12410063 L16.2116633,11.20295 C15.0056333,12.1692646 13.0599201,12.1769948 11.8442423,11.20295 L9.24968924,9.12410063 Z" id="Combined-Shape" fill="#027AB6" opacity="0.495335121"></path>
                    </g>
                    <g id="Group-23" transform="translate(0.478873, 25.000000)">
                        <use id="Rectangle" stroke="#0AA6D2" mask="url(#mask-6)" stroke-width="4" fill="#E9F7FB" xlink:href="#path-5"></use>
                        <rect id="Rectangle" fill="#47BCDD" opacity="0.145550272" x="13.1325077" y="167.997095" width="58.4993524" height="53.2090442" rx="2"></rect>
                        <rect id="Rectangle" fill="#47BCDD" opacity="0.145550272" x="75.2134531" y="167.997095" width="58.4993524" height="53.2090442" rx="2"></rect>
                        <rect id="Rectangle" fill="#47BCDD" opacity="0.145550272" x="136.697466" y="167.997095" width="58.4993524" height="53.2090442" rx="2"></rect>
                        <rect id="Rectangle-16" fill="#47BCDD" opacity="0.251528533" x="0" y="0" width="207.732394" height="22.1206139" rx="3"></rect>
                        <path d="M104.164663,99.8416896 C95.7700172,99.8416896 88.942893,93.0040175 88.942893,84.5964017 C88.942893,76.1887859 95.7700172,69.3511138 104.164663,69.3511138 C112.559309,69.3511138 119.386434,76.1887859 119.386434,84.5964017 C119.386434,93.0040175 112.559309,99.8416896 104.164663,99.8416896 L104.164663,99.8416896 Z" id="Fill-1" fill="#47BCDD" opacity="0.151437953"></path>
                        <path d="M107.138726,87.7595596 C107.970698,86.9302406 108.54766,85.9087623 108.719792,85.3064946 C108.831891,84.9211647 108.91105,84.5085279 108.960459,84.2000617 C109.313755,84.0402661 109.585235,83.7636578 109.734523,83.4162541 C109.944375,82.9120888 110.058599,81.8319513 110.060724,81.7864399 C110.149978,80.9293084 109.834402,80.4372795 109.805182,80.4114897 C110.172822,76.9409918 109.006148,76.2552866 108.229959,76.1329114 C107.954229,76.0894228 107.53718,75.9908147 107.350172,75.7930929 C106.916654,75.3369675 106.723271,74.8292624 105.972052,74.8687056 C105.694196,74.8843818 105.318587,74.8014499 105.105015,74.6300236 C104.81866,74.4004438 104.421799,74.1339492 104.127474,74.1339492 C103.838993,74.1339492 103.475603,74.3908358 103.209967,74.6158645 C103.002771,74.7938646 102.63513,74.8828647 102.357275,74.8666829 C101.606056,74.8252169 101.412672,75.3349447 100.979154,75.7910702 C100.792146,75.988792 100.372972,76.0874 100.099367,76.1308887 C99.3231783,76.2532638 98.1570355,76.9389691 98.5241447,80.4094669 C98.4927996,80.4393022 98.181474,80.9348709 98.2686027,81.7844172 C98.2728529,81.8299286 98.3849513,82.9120888 98.5948039,83.4142313 C98.7419664,83.7616351 99.0161029,84.0382433 99.3688677,84.1980389 C99.4182761,84.5085279 99.4995607,84.919142 99.6095341,85.3044719 C99.7880416,85.9229214 100.369254,86.9636156 101.213445,87.7990028 L101.196976,87.7990028 C101.097628,91.8485069 93.5971249,90.6257671 92.524486,95.2482093 C95.3157909,98.4183318 99.4974356,100.439544 104.166788,100.439544 C108.836141,100.439544 113.019911,98.4183318 115.804841,95.250232 C114.740171,90.6161591 107.256668,91.7994558 107.138726,87.7595596 L107.138726,87.7595596 Z" id="Fill-2" fill="#47BCDD" opacity="0.3984375"></path>
                        <rect id="Rectangle-14" fill="#47BCDD" opacity="0.399999976" x="38.8005909" y="46.034791" width="40.5913874" height="10.7613797" rx="3"></rect>
                        <rect id="Rectangle-14" fill="#47BCDD" opacity="0.399999976" x="84.1674356" y="46.034791" width="28.6527441" height="10.7613797" rx="3"></rect>
                        <rect id="Rectangle-14" fill="#47BCDD" opacity="0.399999976" x="116.998705" y="46.034791" width="51.9330986" height="10.7613797" rx="3"></rect>
                        <rect id="Rectangle-14" fill="#47BCDD" opacity="0.399999976" x="73.4226566" y="109.407361" width="31.6374049" height="9.56567086" rx="3"></rect>
                        <rect id="Rectangle-14" fill="#47BCDD" opacity="0.399999976" x="109.238587" y="109.407361" width="25.6680832" height="9.56567086" rx="3"></rect>
                        <rect id="Rectangle-14" fill="#47BCDD" opacity="0.399999976" x="13.1325077" y="153.050734" width="31.6374049" height="7.17425315" rx="3"></rect>
                        <rect id="Rectangle-14" fill="#47BCDD" opacity="0.399999976" x="13.1325077" y="225.988974" width="31.6374049" height="7.17425315" rx="3"></rect>
                        <rect id="Rectangle-14" fill="#47BCDD" opacity="0.399999976" x="75.2134531" y="225.988974" width="31.6374049" height="7.17425315" rx="3"></rect>
                        <rect id="Rectangle-14" fill="#47BCDD" opacity="0.399999976" x="136.697466" y="225.988974" width="31.6374049" height="7.17425315" rx="3"></rect>
                        <rect id="Rectangle-14" fill="#47BCDD" opacity="0.149037567" x="13.1325077" y="236.152499" width="19.1018294" height="5.97854429" rx="2.98927214"></rect>
                        <rect id="Rectangle-14" fill="#47BCDD" opacity="0.149037567" x="75.2134531" y="236.152499" width="19.1018294" height="5.97854429" rx="2.98927214"></rect>
                        <rect id="Rectangle-14" fill="#47BCDD" opacity="0.149037567" x="136.697466" y="236.152499" width="19.1018294" height="5.97854429" rx="2.98927214"></rect>
                        <rect id="Rectangle-14" fill="#47BCDD" opacity="0.149264016" x="63.8717419" y="124.951576" width="31.6374049" height="7.17425315" rx="3"></rect>
                        <rect id="Rectangle-14" fill="#47BCDD" opacity="0.399999976" x="26.8619475" y="5.97854429" width="31.6374049" height="3.58712657" rx="1"></rect>
                        <rect id="Rectangle-14" fill="#47BCDD" opacity="0.399999976" x="26.8619475" y="12.554943" width="67.453335" height="3.58712657" rx="1"></rect>
                        <rect id="Rectangle-14" fill="#47BCDD" opacity="0.149264016" x="102.075401" y="124.951576" width="41.7852517" height="7.17425315" rx="3"></rect>
                        <path d="M6.56625384,8.97296611 C6.56625384,7.3191926 7.91691801,5.97854429 9.56825552,5.97854429 L18.4875564,5.97854429 C20.1455161,5.97854429 21.489558,7.32818198 21.489558,8.97296611 L21.489558,13.1476478 C21.489558,14.8014213 20.1388939,16.1420696 18.4875564,16.1420696 L9.56825552,16.1420696 C7.91029578,16.1420696 6.56625384,14.7924319 6.56625384,13.1476478 L6.56625384,8.97296611 Z M9.24968924,9.12410063 C8.04365924,8.15778597 8.31389007,7.37443316 9.85023228,7.37443316 L18.2056733,7.37443316 C19.7433741,7.37443316 20.0218942,8.15005578 18.8062164,9.12410063 L16.2116633,11.20295 C15.0056333,12.1692646 13.0599201,12.1769948 11.8442423,11.20295 L9.24968924,9.12410063 Z" id="Combined-Shape" fill="#47BCDD" opacity="0.495335121"></path>
                    </g>
                </g>
                <path d="M321.5,334.5 L321.5,266.493151" id="Line" stroke="#B3E2F1" stroke-width="3" stroke-linecap="square" stroke-dasharray="6,8"></path>
                <rect id="Rectangle-27" fill="#CEEDF6" transform="translate(321.298881, 386.298881) rotate(-315.000000) translate(-321.298881, -386.298881) " x="288.160383" y="353.010027" width="66.2769949" height="66.5777072" rx="5"></rect>
                <text id="API" font-family="AvenirNext-DemiBold, Avenir Next" font-size="22" font-weight="500" fill="#0AA6D2">
                    <tspan x="304" y="394">API</tspan>
                </text>
            </g>
        </g>
    </g>
</svg>