<?xml version="1.0" encoding="UTF-8"?>
<svg width="649px" height="436px" viewBox="0 0 649 436" version="1.1" xmlns="http://www.w3.org/2000/svg" xmlns:xlink="http://www.w3.org/1999/xlink">
    <!-- Generator: Sketch 41 (35326) - http://www.bohemiancoding.com/sketch -->
    <title>fusion-hero</title>
    <desc>Created with Sketch.</desc>
    <defs>
        <path d="M436,27.9967662 C436,26.3416979 437.340167,25 438.996532,25 L640.735863,25 C642.390801,25 643.732394,26.3463959 643.732394,27.9967662 L643.732394,280.874202 C643.732394,282.52927 642.392227,283.870968 640.735863,283.870968 L438.996532,283.870968 C437.341593,283.870968 436,282.524572 436,280.874202 L436,27.9967662 Z" id="path-1"></path>
        <mask id="mask-2" maskContentUnits="userSpaceOnUse" maskUnits="objectBoundingBox" x="0" y="0" width="207.732394" height="258.870968" fill="white">
            <use xlink:href="#path-1"></use>
        </mask>
        <path d="M218,2.99676618 C218,1.34169792 219.340167,0 220.996532,0 L422.735863,0 C424.390801,0 425.732394,1.34639589 425.732394,2.99676618 L425.732394,255.874202 C425.732394,257.52927 424.392227,258.870968 422.735863,258.870968 L220.996532,258.870968 C219.341593,258.870968 218,257.524572 218,255.874202 L218,2.99676618 Z" id="path-3"></path>
        <mask id="mask-4" maskContentUnits="userSpaceOnUse" maskUnits="objectBoundingBox" x="0" y="0" width="207.732394" height="258.870968" fill="white">
            <use xlink:href="#path-3"></use>
        </mask>
        <path d="M0.478873239,27.9967662 C0.478873239,26.3416979 1.81904032,25 3.47540497,25 L205.214736,25 C206.869675,25 208.211268,26.3463959 208.211268,27.9967662 L208.211268,280.874202 C208.211268,282.52927 206.871101,283.870968 205.214736,283.870968 L3.47540497,283.870968 C1.82046619,283.870968 0.478873239,282.524572 0.478873239,280.874202 L0.478873239,27.9967662 Z" id="path-5"></path>
        <mask id="mask-6" maskContentUnits="userSpaceOnUse" maskUnits="objectBoundingBox" x="0" y="0" width="207.732394" height="258.870968" fill="white">
            <use xlink:href="#path-5"></use>
        </mask>
    </defs>
    <g id="Page-2" stroke="none" stroke-width="1" fill="none" fill-rule="evenodd">
        <g id="Ext-Attributes" transform="translate(-398.000000, -500.000000)">
            <g id="fusion-hero" transform="translate(398.000000, 500.000000)">
                <g>
                    <polyline id="Path-6" stroke="#BAE9AC" stroke-width="3" stroke-dasharray="6,4" points="371.628906 386.578125 540.236315 386.578125 540.236315 297.193015"></polyline>
                    <polyline id="Path-6" stroke="#F7ADA5" stroke-width="3" stroke-dasharray="6,4" transform="translate(182.932611, 341.885570) scale(-1, 1) translate(-182.932611, -341.885570) " points="94.6289062 386.578125 271.236315 386.578125 271.236315 297.193015"></polyline>
                    <path d="M441,32.9967662 C441,31.3416979 442.340167,30 443.996532,30 L645.735863,30 C647.390801,30 648.732394,31.3463959 648.732394,32.9967662 L648.732394,285.874202 C648.732394,287.52927 647.392227,288.870968 645.735863,288.870968 L443.996532,288.870968 C442.341593,288.870968 441,287.524572 441,285.874202 L441,32.9967662 Z" id="Rectangle" fill-opacity="0.198822464" fill="#84D2E8"></path>
                    <use id="Rectangle" stroke="#0AA6D2" mask="url(#mask-2)" stroke-width="4" fill="#E2F5FA" xlink:href="#path-1"></use>
                    <rect id="Rectangle" fill="#09A5D1" opacity="0.145550272" x="449.132508" y="192.997095" width="58.4993524" height="53.2090442" rx="2"></rect>
                    <rect id="Rectangle" fill="#09A5D1" opacity="0.145550272" x="511.213453" y="192.997095" width="58.4993524" height="53.2090442" rx="2"></rect>
                    <rect id="Rectangle" fill="#09A5D1" opacity="0.145550272" x="572.697466" y="192.997095" width="58.4993524" height="53.2090442" rx="2"></rect>
                    <rect id="Rectangle-16" fill="#09A5D1" opacity="0.251528533" x="436" y="25" width="207.732394" height="22.1206139" rx="3"></rect>
                    <path d="M540.164663,124.84169 C531.770017,124.84169 524.942893,118.004017 524.942893,109.596402 C524.942893,101.188786 531.770017,94.3511138 540.164663,94.3511138 C548.559309,94.3511138 555.386434,101.188786 555.386434,109.596402 C555.386434,118.004017 548.559309,124.84169 540.164663,124.84169 L540.164663,124.84169 Z" id="Fill-1" fill="#09A5D1" opacity="0.1"></path>
                    <path d="M544.719792,110.306495 C544.831891,109.921165 544.91105,109.508528 544.960459,109.200062 C545.313755,109.040266 545.585235,108.763658 545.734523,108.416254 C545.944375,107.912089 546.058599,106.831951 546.060724,106.78644 C546.149978,105.929308 545.834402,105.437279 545.805182,105.41149 C546.172822,101.940992 545.006148,101.255287 544.229959,101.132911 C543.954229,101.089423 543.53718,100.990815 543.350172,100.793093 C542.916654,100.336967 542.723271,99.8292624 541.972052,99.8687056 C541.694196,99.8843818 541.318587,99.8014499 541.105015,99.6300236 C540.81866,99.4004438 540.421799,99.1339492 540.127474,99.1339492 C539.838993,99.1339492 539.475603,99.3908358 539.209967,99.6158645 C539.002771,99.7938646 538.63513,99.8828647 538.357275,99.8666829 C537.606056,99.8252169 537.412672,100.334945 536.979154,100.79107 C536.792146,100.988792 536.372972,101.0874 536.099367,101.130889 C535.323178,101.253264 534.157035,101.938969 534.524145,105.409467 C534.4928,105.439302 534.181474,105.934871 534.268603,106.784417 C534.272853,106.829929 534.384951,107.912089 534.594804,108.414231 C534.741966,108.761635 535.016103,109.038243 535.368868,109.198039 C535.418276,109.508528 535.499561,109.919142 535.609534,110.304472 C535.788042,110.922921 536.369254,111.963616 537.213445,112.799003 C537.097628,116.848507 529.597125,115.625767 528.524486,120.248209 C531.315791,123.418332 535.497436,125.439544 540.166788,125.439544 C544.836141,125.439544 549.019911,123.418332 551.804841,120.250232 C550.740171,115.616159 543.256668,116.799456 543.138726,112.75956 C543.970698,111.930241 544.54766,110.908762 544.719792,110.306495 Z" id="Fill-2" fill="#09A5D1" opacity="0.4"></path>
                    <rect id="Rectangle-14" fill="#09A5D1" opacity="0.399999976" x="474.800591" y="71.034791" width="40.5913874" height="10.7613797" rx="3"></rect>
                    <rect id="Rectangle-14" fill="#09A5D1" opacity="0.399999976" x="520.167436" y="71.034791" width="28.6527441" height="10.7613797" rx="3"></rect>
                    <rect id="Rectangle-14" fill="#09A5D1" opacity="0.399999976" x="552.998705" y="71.034791" width="51.9330986" height="10.7613797" rx="3"></rect>
                    <rect id="Rectangle-14" fill="#09A5D1" opacity="0.399999976" x="509.422657" y="134.407361" width="31.6374049" height="9.56567086" rx="3"></rect>
                    <rect id="Rectangle-14" fill="#09A5D1" opacity="0.399999976" x="545.238587" y="134.407361" width="25.6680832" height="9.56567086" rx="3"></rect>
                    <rect id="Rectangle-14" fill="#09A5D1" opacity="0.399999976" x="449.132508" y="178.050734" width="31.6374049" height="7.17425315" rx="3"></rect>
                    <rect id="Rectangle-14" fill="#09A5D1" opacity="0.399999976" x="449.132508" y="250.988974" width="31.6374049" height="7.17425315" rx="3"></rect>
                    <rect id="Rectangle-14" fill="#09A5D1" opacity="0.399999976" x="511.213453" y="250.988974" width="31.6374049" height="7.17425315" rx="3"></rect>
                    <rect id="Rectangle-14" fill="#09A5D1" opacity="0.399999976" x="572.697466" y="250.988974" width="31.6374049" height="7.17425315" rx="3"></rect>
                    <rect id="Rectangle-14" fill="#09A5D1" opacity="0.149037567" x="449.132508" y="261.152499" width="19.1018294" height="5.97854429" rx="2.98927214"></rect>
                    <rect id="Rectangle-14" fill="#09A5D1" opacity="0.149037567" x="511.213453" y="261.152499" width="19.1018294" height="5.97854429" rx="2.98927214"></rect>
                    <rect id="Rectangle-14" fill="#09A5D1" opacity="0.149037567" x="572.697466" y="261.152499" width="19.1018294" height="5.97854429" rx="2.98927214"></rect>
                    <rect id="Rectangle-14" fill="#09A5D1" opacity="0.149264016" x="499.871742" y="149.951576" width="31.6374049" height="7.17425315" rx="3"></rect>
                    <rect id="Rectangle-14" fill="#09A5D1" opacity="0.399999976" x="462.861948" y="30.9785443" width="31.6374049" height="3.58712657" rx="1"></rect>
                    <rect id="Rectangle-14" fill="#09A5D1" opacity="0.399999976" x="462.861948" y="37.554943" width="67.453335" height="3.58712657" rx="1"></rect>
                    <rect id="Rectangle-14" fill="#09A5D1" opacity="0.149264016" x="538.075401" y="149.951576" width="41.7852517" height="7.17425315" rx="3"></rect>
                    <path d="M442.566254,33.9729661 C442.566254,32.3191926 443.916918,30.9785443 445.568256,30.9785443 L454.487556,30.9785443 C456.145516,30.9785443 457.489558,32.328182 457.489558,33.9729661 L457.489558,38.1476478 C457.489558,39.8014213 456.138894,41.1420696 454.487556,41.1420696 L445.568256,41.1420696 C443.910296,41.1420696 442.566254,39.7924319 442.566254,38.1476478 L442.566254,33.9729661 Z M445.249689,34.1241006 C444.043659,33.157786 444.31389,32.3744332 445.850232,32.3744332 L454.205673,32.3744332 C455.743374,32.3744332 456.021894,33.1500558 454.806216,34.1241006 L452.211663,36.20295 C451.005633,37.1692646 449.05992,37.1769948 447.844242,36.20295 L445.249689,34.1241006 Z" id="Combined-Shape" fill="#09A5D1" opacity="0.495335121"></path>
                    <path d="M223,7.99676618 C223,6.34169792 224.340167,5 225.996532,5 L427.735863,5 C429.390801,5 430.732394,6.34639589 430.732394,7.99676618 L430.732394,260.874202 C430.732394,262.52927 429.392227,263.870968 427.735863,263.870968 L225.996532,263.870968 C224.341593,263.870968 223,262.524572 223,260.874202 L223,7.99676618 Z" id="Rectangle" fill-opacity="0.198822464" fill="#84D2E8"></path>
                    <use id="Rectangle" stroke="#0AA6D2" mask="url(#mask-4)" stroke-width="4" fill="#E1EFF7" xlink:href="#path-3"></use>
                    <rect id="Rectangle" fill="#027AB6" opacity="0.145550272" x="231.132508" y="167.997095" width="58.4993524" height="53.2090442" rx="2"></rect>
                    <rect id="Rectangle" fill="#027AB6" opacity="0.145550272" x="293.213453" y="167.997095" width="58.4993524" height="53.2090442" rx="2"></rect>
                    <rect id="Rectangle" fill="#027AB6" opacity="0.145550272" x="354.697466" y="167.997095" width="58.4993524" height="53.2090442" rx="2"></rect>
                    <rect id="Rectangle-16" fill="#027AB6" opacity="0.251528533" x="218" y="0" width="207.732394" height="22.1206139" rx="3"></rect>
                    <path d="M322.164663,99.8416896 C313.770017,99.8416896 306.942893,93.0040175 306.942893,84.5964017 C306.942893,76.1887859 313.770017,69.3511138 322.164663,69.3511138 C330.559309,69.3511138 337.386434,76.1887859 337.386434,84.5964017 C337.386434,93.0040175 330.559309,99.8416896 322.164663,99.8416896 L322.164663,99.8416896 Z" id="Fill-1" fill="#027AB6" opacity="0.1"></path>
                    <path d="M326.719792,85.3064946 C326.831891,84.9211647 326.91105,84.5085279 326.960459,84.2000617 C327.313755,84.0402661 327.585235,83.7636578 327.734523,83.4162541 C327.944375,82.9120888 328.058599,81.8319513 328.060724,81.7864399 C328.149978,80.9293084 327.834402,80.4372795 327.805182,80.4114897 C328.172822,76.9409918 327.006148,76.2552866 326.229959,76.1329114 C325.954229,76.0894228 325.53718,75.9908147 325.350172,75.7930929 C324.916654,75.3369675 324.723271,74.8292624 323.972052,74.8687056 C323.694196,74.8843818 323.318587,74.8014499 323.105015,74.6300236 C322.81866,74.4004438 322.421799,74.1339492 322.127474,74.1339492 C321.838993,74.1339492 321.475603,74.3908358 321.209967,74.6158645 C321.002771,74.7938646 320.63513,74.8828647 320.357275,74.8666829 C319.606056,74.8252169 319.412672,75.3349447 318.979154,75.7910702 C318.792146,75.988792 318.372972,76.0874 318.099367,76.1308887 C317.323178,76.2532638 316.157035,76.9389691 316.524145,80.4094669 C316.4928,80.4393022 316.181474,80.9348709 316.268603,81.7844172 C316.272853,81.8299286 316.384951,82.9120888 316.594804,83.4142313 C316.741966,83.7616351 317.016103,84.0382433 317.368868,84.1980389 C317.418276,84.5085279 317.499561,84.919142 317.609534,85.3044719 C317.788042,85.9229214 318.369254,86.9636156 319.213445,87.7990028 C319.097628,91.8485069 311.597125,90.6257671 310.524486,95.2482093 C313.315791,98.4183318 317.497436,100.439544 322.166788,100.439544 C326.836141,100.439544 331.019911,98.4183318 333.804841,95.250232 C332.740171,90.6161591 325.256668,91.7994558 325.138726,87.7595596 C325.970698,86.9302406 326.54766,85.9087623 326.719792,85.3064946 Z" id="Fill-2" fill="#027AB6" opacity="0.4"></path>
                    <rect id="Rectangle-14" fill="#027AB6" opacity="0.399999976" x="256.800591" y="46.034791" width="40.5913874" height="10.7613797" rx="3"></rect>
                    <rect id="Rectangle-14" fill="#027AB6" opacity="0.399999976" x="302.167436" y="46.034791" width="28.6527441" height="10.7613797" rx="3"></rect>
                    <rect id="Rectangle-14" fill="#027AB6" opacity="0.399999976" x="334.998705" y="46.034791" width="51.9330986" height="10.7613797" rx="3"></rect>
                    <rect id="Rectangle-14" fill="#027AB6" opacity="0.399999976" x="291.422657" y="109.407361" width="31.6374049" height="9.56567086" rx="3"></rect>
                    <rect id="Rectangle-14" fill="#027AB6" opacity="0.399999976" x="327.238587" y="109.407361" width="25.6680832" height="9.56567086" rx="3"></rect>
                    <rect id="Rectangle-14" fill="#027AB6" opacity="0.399999976" x="231.132508" y="153.050734" width="31.6374049" height="7.17425315" rx="3"></rect>
                    <rect id="Rectangle-14" fill="#027AB6" opacity="0.399999976" x="231.132508" y="225.988974" width="31.6374049" height="7.17425315" rx="3"></rect>
                    <rect id="Rectangle-14" fill="#027AB6" opacity="0.399999976" x="293.213453" y="225.988974" width="31.6374049" height="7.17425315" rx="3"></rect>
                    <rect id="Rectangle-14" fill="#027AB6" opacity="0.399999976" x="354.697466" y="225.988974" width="31.6374049" height="7.17425315" rx="3"></rect>
                    <rect id="Rectangle-14" fill="#027AB6" opacity="0.149037567" x="231.132508" y="236.152499" width="19.1018294" height="5.97854429" rx="2.98927214"></rect>
                    <rect id="Rectangle-14" fill="#027AB6" opacity="0.149037567" x="293.213453" y="236.152499" width="19.1018294" height="5.97854429" rx="2.98927214"></rect>
                    <rect id="Rectangle-14" fill="#027AB6" opacity="0.149037567" x="354.697466" y="236.152499" width="19.1018294" height="5.97854429" rx="2.98927214"></rect>
                    <rect id="Rectangle-14" fill="#027AB6" opacity="0.149264016" x="281.871742" y="124.951576" width="31.6374049" height="7.17425315" rx="3"></rect>
                    <rect id="Rectangle-14" fill="#027AB6" opacity="0.399999976" x="244.861948" y="5.97854429" width="31.6374049" height="3.58712657" rx="1"></rect>
                    <rect id="Rectangle-14" fill="#027AB6" opacity="0.399999976" x="244.861948" y="12.554943" width="67.453335" height="3.58712657" rx="1"></rect>
                    <rect id="Rectangle-14" fill="#027AB6" opacity="0.149264016" x="320.075401" y="124.951576" width="41.7852517" height="7.17425315" rx="3"></rect>
                    <path d="M224.566254,8.97296611 C224.566254,7.3191926 225.916918,5.97854429 227.568256,5.97854429 L236.487556,5.97854429 C238.145516,5.97854429 239.489558,7.32818198 239.489558,8.97296611 L239.489558,13.1476478 C239.489558,14.8014213 238.138894,16.1420696 236.487556,16.1420696 L227.568256,16.1420696 C225.910296,16.1420696 224.566254,14.7924319 224.566254,13.1476478 L224.566254,8.97296611 Z M227.249689,9.12410063 C226.043659,8.15778597 226.31389,7.37443316 227.850232,7.37443316 L236.205673,7.37443316 C237.743374,7.37443316 238.021894,8.15005578 236.806216,9.12410063 L234.211663,11.20295 C233.005633,12.1692646 231.05992,12.1769948 229.844242,11.20295 L227.249689,9.12410063 Z" id="Combined-Shape" fill="#027AB6" opacity="0.495335121"></path>
                    <path d="M5.47887324,33.9967662 C5.47887324,32.3416979 6.81904032,31 8.47540497,31 L210.214736,31 C211.869675,31 213.211268,32.3463959 213.211268,33.9967662 L213.211268,286.874202 C213.211268,288.52927 211.871101,289.870968 210.214736,289.870968 L8.47540497,289.870968 C6.82046619,289.870968 5.47887324,288.524572 5.47887324,286.874202 L5.47887324,33.9967662 Z" id="Rectangle" fill-opacity="0.198822464" fill="#84D2E8"></path>
                    <use id="Rectangle" stroke="#0AA6D2" mask="url(#mask-6)" stroke-width="4" fill="#E9F7FB" xlink:href="#path-5"></use>
                    <rect id="Rectangle" fill="#47BCDD" opacity="0.145550272" x="13.6113809" y="192.997095" width="58.4993524" height="53.2090442" rx="2"></rect>
                    <rect id="Rectangle" fill="#47BCDD" opacity="0.145550272" x="75.6923264" y="192.997095" width="58.4993524" height="53.2090442" rx="2"></rect>
                    <rect id="Rectangle" fill="#47BCDD" opacity="0.145550272" x="137.17634" y="192.997095" width="58.4993524" height="53.2090442" rx="2"></rect>
                    <rect id="Rectangle-16" fill="#47BCDD" opacity="0.251528533" x="0.478873239" y="25" width="207.732394" height="22.1206139" rx="3"></rect>
                    <path d="M104.643537,124.84169 C96.2488905,124.84169 89.4217662,118.004017 89.4217662,109.596402 C89.4217662,101.188786 96.2488905,94.3511138 104.643537,94.3511138 C113.038183,94.3511138 119.865307,101.188786 119.865307,109.596402 C119.865307,118.004017 113.038183,124.84169 104.643537,124.84169 L104.643537,124.84169 Z" id="Fill-1" fill="#47BCDD" opacity="0.151437953"></path>
                    <path d="M107.617599,112.75956 C108.449572,111.930241 109.026533,110.908762 109.198666,110.306495 C109.310764,109.921165 109.389924,109.508528 109.439332,109.200062 C109.792628,109.040266 110.064108,108.763658 110.213396,108.416254 C110.423248,107.912089 110.537472,106.831951 110.539597,106.78644 C110.628851,105.929308 110.313275,105.437279 110.284055,105.41149 C110.651696,101.940992 109.485021,101.255287 108.708833,101.132911 C108.433102,101.089423 108.016053,100.990815 107.829046,100.793093 C107.395527,100.336967 107.202144,99.8292624 106.450925,99.8687056 C106.17307,99.8843818 105.79746,99.8014499 105.583889,99.6300236 C105.297533,99.4004438 104.900672,99.1339492 104.606347,99.1339492 C104.317867,99.1339492 103.954476,99.3908358 103.68884,99.6158645 C103.481644,99.7938646 103.114003,99.8828647 102.836148,99.8666829 C102.084929,99.8252169 101.891546,100.334945 101.458027,100.79107 C101.27102,100.988792 100.851846,101.0874 100.57824,101.130889 C99.8020515,101.253264 98.6359087,101.938969 99.0030179,105.409467 C98.9716729,105.439302 98.6603473,105.934871 98.7474759,106.784417 C98.7517261,106.829929 98.8638246,107.912089 99.0736771,108.414231 C99.2208396,108.761635 99.4949761,109.038243 99.847741,109.198039 C99.8971493,109.508528 99.978434,109.919142 100.088407,110.304472 C100.266915,110.922921 100.848127,111.963616 101.692319,112.799003 L101.675849,112.799003 C101.576501,116.848507 94.0759981,115.625767 93.0033592,120.248209 C95.7946642,123.418332 99.9763089,125.439544 104.645662,125.439544 C109.315014,125.439544 113.498784,123.418332 116.283714,120.250232 C115.219044,115.616159 107.735542,116.799456 107.617599,112.75956 L107.617599,112.75956 Z" id="Fill-2" fill="#47BCDD" opacity="0.3984375"></path>
                    <rect id="Rectangle-14" fill="#47BCDD" opacity="0.399999976" x="39.2794641" y="71.034791" width="40.5913874" height="10.7613797" rx="3"></rect>
                    <rect id="Rectangle-14" fill="#47BCDD" opacity="0.399999976" x="84.6463089" y="71.034791" width="28.6527441" height="10.7613797" rx="3"></rect>
                    <rect id="Rectangle-14" fill="#47BCDD" opacity="0.399999976" x="117.477578" y="71.034791" width="51.9330986" height="10.7613797" rx="3"></rect>
                    <rect id="Rectangle-14" fill="#47BCDD" opacity="0.399999976" x="73.9015299" y="134.407361" width="31.6374049" height="9.56567086" rx="3"></rect>
                    <rect id="Rectangle-14" fill="#47BCDD" opacity="0.399999976" x="109.71746" y="134.407361" width="25.6680832" height="9.56567086" rx="3"></rect>
                    <rect id="Rectangle-14" fill="#47BCDD" opacity="0.399999976" x="13.6113809" y="178.050734" width="31.6374049" height="7.17425315" rx="3"></rect>
                    <rect id="Rectangle-14" fill="#47BCDD" opacity="0.399999976" x="13.6113809" y="250.988974" width="31.6374049" height="7.17425315" rx="3"></rect>
                    <rect id="Rectangle-14" fill="#47BCDD" opacity="0.399999976" x="75.6923264" y="250.988974" width="31.6374049" height="7.17425315" rx="3"></rect>
                    <rect id="Rectangle-14" fill="#47BCDD" opacity="0.399999976" x="137.17634" y="250.988974" width="31.6374049" height="7.17425315" rx="3"></rect>
                    <rect id="Rectangle-14" fill="#47BCDD" opacity="0.149037567" x="13.6113809" y="261.152499" width="19.1018294" height="5.97854429" rx="2.98927214"></rect>
                    <rect id="Rectangle-14" fill="#47BCDD" opacity="0.149037567" x="75.6923264" y="261.152499" width="19.1018294" height="5.97854429" rx="2.98927214"></rect>
                    <rect id="Rectangle-14" fill="#47BCDD" opacity="0.149037567" x="137.17634" y="261.152499" width="19.1018294" height="5.97854429" rx="2.98927214"></rect>
                    <rect id="Rectangle-14" fill="#47BCDD" opacity="0.149264016" x="64.3506152" y="149.951576" width="31.6374049" height="7.17425315" rx="3"></rect>
                    <rect id="Rectangle-14" fill="#47BCDD" opacity="0.399999976" x="27.3408208" y="30.9785443" width="31.6374049" height="3.58712657" rx="1"></rect>
                    <rect id="Rectangle-14" fill="#47BCDD" opacity="0.399999976" x="27.3408208" y="37.554943" width="67.453335" height="3.58712657" rx="1"></rect>
                    <rect id="Rectangle-14" fill="#47BCDD" opacity="0.149264016" x="102.554274" y="149.951576" width="41.7852517" height="7.17425315" rx="3"></rect>
                    <path d="M7.04512708,33.9729661 C7.04512708,32.3191926 8.39579125,30.9785443 10.0471288,30.9785443 L18.9664296,30.9785443 C20.6243893,30.9785443 21.9684313,32.328182 21.9684313,33.9729661 L21.9684313,38.1476478 C21.9684313,39.8014213 20.6177671,41.1420696 18.9664296,41.1420696 L10.0471288,41.1420696 C8.38916902,41.1420696 7.04512708,39.7924319 7.04512708,38.1476478 L7.04512708,33.9729661 Z M9.72856248,34.1241006 C8.52253248,33.157786 8.79276331,32.3744332 10.3291055,32.3744332 L18.6845466,32.3744332 C20.2222473,32.3744332 20.5007674,33.1500558 19.2850896,34.1241006 L16.6905365,36.20295 C15.4845065,37.1692646 13.5387934,37.1769948 12.3231156,36.20295 L9.72856248,34.1241006 Z" id="Combined-Shape" fill="#47BCDD" opacity="0.495335121"></path>
                    <path d="M321.5,334.5 L321.5,266.493151" id="Line" stroke="#B3E2F1" stroke-width="3" stroke-linecap="square" stroke-dasharray="6,8"></path>
                    <rect id="Rectangle-27" fill="#CEEDF6" transform="translate(321.298881, 386.298881) rotate(-315.000000) translate(-321.298881, -386.298881) " x="288.160383" y="353.010027" width="66.2769949" height="66.5777072" rx="5"></rect>
                    <rect id="Rectangle-27" fill="#CEEDF6" opacity="0.318670743" transform="translate(325.298881, 390.298881) rotate(-315.000000) translate(-325.298881, -390.298881) " x="292.160383" y="357.010027" width="66.2769949" height="66.5777072" rx="5"></rect>
                    <text id="API" font-family="AvenirNext-DemiBold, Avenir Next" font-size="22" font-weight="500" fill="#0AA6D2">
                        <tspan x="304" y="394">API</tspan>
                    </text>
                </g>
            </g>
        </g>
    </g>
</svg>