<svg xmlns="http://www.w3.org/2000/svg" xmlns:xlink="http://www.w3.org/1999/xlink" width="64" height="64" viewBox="0 0 64 64"><defs><rect id="b" width="32" height="18" x="0" y="0" rx="2"/><filter id="a" width="140.6%" height="172.2%" x="-20.3%" y="-30.6%" filterUnits="objectBoundingBox"><feOffset dy="1" in="SourceAlpha" result="shadowOffsetOuter1"/><feGaussianBlur in="shadowOffsetOuter1" result="shadowBlurOuter1" stdDeviation="2"/><feComposite in="shadowBlurOuter1" in2="SourceAlpha" operator="out" result="shadowBlurOuter1"/><feColorMatrix in="shadowBlurOuter1" values="0 0 0 0 0.219607843 0 0 0 0 0.258823529 0 0 0 0 0.329411765 0 0 0 0.1 0"/></filter><rect id="d" width="28" height="18" x="0" y="0" rx="2"/><filter id="c" width="146.4%" height="172.2%" x="-23.2%" y="-30.6%" filterUnits="objectBoundingBox"><feOffset dy="1" in="SourceAlpha" result="shadowOffsetOuter1"/><feGaussianBlur in="shadowOffsetOuter1" result="shadowBlurOuter1" stdDeviation="2"/><feComposite in="shadowBlurOuter1" in2="SourceAlpha" operator="out" result="shadowBlurOuter1"/><feColorMatrix in="shadowBlurOuter1" values="0 0 0 0 0.219607843 0 0 0 0 0.258823529 0 0 0 0 0.329411765 0 0 0 0.1 0"/></filter><rect id="f" width="20" height="18" x="0" y="0" rx="2"/><filter id="e" width="165%" height="172.2%" x="-32.5%" y="-30.6%" filterUnits="objectBoundingBox"><feOffset dy="1" in="SourceAlpha" result="shadowOffsetOuter1"/><feGaussianBlur in="shadowOffsetOuter1" result="shadowBlurOuter1" stdDeviation="2"/><feComposite in="shadowBlurOuter1" in2="SourceAlpha" operator="out" result="shadowBlurOuter1"/><feColorMatrix in="shadowBlurOuter1" values="0 0 0 0 0.219607843 0 0 0 0 0.258823529 0 0 0 0 0.329411765 0 0 0 0.1 0"/></filter><rect id="h" width="24" height="18" x="0" y="0" rx="2"/><filter id="g" width="154.2%" height="172.2%" x="-27.1%" y="-30.6%" filterUnits="objectBoundingBox"><feOffset dy="1" in="SourceAlpha" result="shadowOffsetOuter1"/><feGaussianBlur in="shadowOffsetOuter1" result="shadowBlurOuter1" stdDeviation="2"/><feComposite in="shadowBlurOuter1" in2="SourceAlpha" operator="out" result="shadowBlurOuter1"/><feColorMatrix in="shadowBlurOuter1" values="0 0 0 0 0.219607843 0 0 0 0 0.258823529 0 0 0 0 0.329411765 0 0 0 0.1 0"/></filter><path id="j" d="M23.432 26c9.548 0 17.16-4.333 22.834-13C40.828 4.333 33.217 0 23.432 0S5.925 4.333.266 13c5.896 8.667 13.618 13 23.166 13z"/><filter id="i" width="134.8%" height="161.5%" x="-17.4%" y="-26.9%" filterUnits="objectBoundingBox"><feOffset dy="1" in="SourceAlpha" result="shadowOffsetOuter1"/><feGaussianBlur in="shadowOffsetOuter1" result="shadowBlurOuter1" stdDeviation="2.5"/><feComposite in="shadowBlurOuter1" in2="SourceAlpha" operator="out" result="shadowBlurOuter1"/><feColorMatrix in="shadowBlurOuter1" values="0 0 0 0 0.219607843 0 0 0 0 0.258823529 0 0 0 0 0.329411765 0 0 0 0.1 0"/></filter></defs><g fill="none" fill-rule="evenodd"><g transform="translate(4 4)"><use fill="#000" filter="url(#a)" xlink:href="#b"/><rect width="31" height="17" x=".5" y=".5" fill="#FFF" stroke="#E1E1E1" stroke-linejoin="square" rx="2"/><rect width="20" height="2" x="6" y="8" fill="#01B2D0" rx="1"/></g><g transform="translate(32 26)"><use fill="#000" filter="url(#c)" xlink:href="#d"/><rect width="27" height="17" x=".5" y=".5" fill="#FFF" stroke="#E1E1E1" stroke-linejoin="square" rx="2"/><rect width="16" height="2" x="6" y="8" fill="#F15242" rx="1"/></g><g transform="translate(40 4)"><use fill="#000" filter="url(#e)" xlink:href="#f"/><rect width="19" height="17" x=".5" y=".5" fill="#FFF" stroke="#E1E1E1" stroke-linejoin="square" rx="2"/><rect width="8" height="2" x="6" y="8" fill="#6F0DFB" rx="1"/></g><g transform="translate(4 26)"><use fill="#000" filter="url(#g)" xlink:href="#h"/><rect width="23" height="17" x=".5" y=".5" fill="#FFF" stroke="#E1E1E1" stroke-linejoin="square" rx="2"/><rect width="12" height="2" x="6" y="8" fill="#6FD350" rx="1"/></g><g transform="translate(9 37)"><use fill="#000" filter="url(#i)" xlink:href="#j"/><path fill="#FFF" stroke="#E1E1E1" stroke-linejoin="square" stroke-width="1.154" d="M23.432.577C13.97.577 6.483 4.722.962 12.993c5.746 8.277 13.231 12.43 22.47 12.43 9.237 0 16.614-4.152 22.146-12.429C40.27 4.721 32.892.577 23.432.577z"/><path fill="#F7F7F7" d="M23.396 23c7.473 0 13.43-3.333 17.87-10C37.01 6.333 31.054 3 23.396 3 15.738 3 9.695 6.333 5.266 13c4.614 6.667 10.657 10 18.13 10z"/><circle cx="23.266" cy="13" r="7" fill="#E1E1E1"/></g></g></svg>