<svg xmlns="http://www.w3.org/2000/svg" xmlns:xlink="http://www.w3.org/1999/xlink" width="56" height="56" viewBox="0 0 56 56"><defs><filter id="a" width="126%" height="126%" x="-13%" y="-11%" filterUnits="objectBoundingBox"><feOffset dy="1" in="SourceAlpha" result="shadowOffsetOuter1"/><feGaussianBlur in="shadowOffsetOuter1" result="shadowBlurOuter1" stdDeviation="2"/><feComposite in="shadowBlurOuter1" in2="SourceAlpha" operator="out" result="shadowBlurOuter1"/><feColorMatrix in="shadowBlurOuter1" values="0 0 0 0 0.219607843 0 0 0 0 0.258823529 0 0 0 0 0.329411765 0 0 0 0.1 0"/></filter><rect id="b" width="50" height="50" x="3" y="3" rx="4"/></defs><g fill="none" fill-rule="evenodd"><use fill="#000" filter="url(#a)" xlink:href="#b"/><rect width="49" height="49" x="3.5" y="3.5" fill="#FFF" stroke="#E1E1E1" stroke-linejoin="square" rx="4"/><rect width="42" height="42" x="7" y="7" fill="#F7F7F7" rx="2"/><path fill="#384254" fill-rule="nonzero" d="M33.125 39v-1.11c-.333-.01-.8-.078-1.398-.203-.6-.124-.993-.223-1.18-.296-.365-.157-.62-.378-.766-.664a2.053 2.053 0 01-.218-.946V18.047h.906c.416 0 .87.01 1.36.031.489.021.895.052 1.218.094.344.052.7.258 1.07.617.37.36.711.779 1.024 1.258.302.458.575.945.82 1.46.245.516.414.962.508 1.337h1.078v-6.016H18.234v6.016h1.094c.094-.344.26-.779.5-1.305.24-.526.516-1.023.828-1.492a8.217 8.217 0 011.024-1.258c.37-.37.726-.575 1.07-.617.438-.052.896-.086 1.375-.102.48-.015.88-.023 1.203-.023h.906v17.875c0 .427-.08.768-.242 1.023-.161.256-.414.45-.758.586-.229.094-.643.172-1.242.235-.599.062-1.044.104-1.336.125V39h10.469z"/></g></svg>