<svg xmlns="http://www.w3.org/2000/svg" xmlns:xlink="http://www.w3.org/1999/xlink" width="64" height="64" viewBox="0 0 64 64"><defs><filter id="a" width="131%" height="128.3%" x="-15.5%" y="-12%" filterUnits="objectBoundingBox"><feOffset dy="1" in="SourceAlpha" result="shadowOffsetOuter1"/><feGaussianBlur in="shadowOffsetOuter1" result="shadowBlurOuter1" stdDeviation="2"/><feComposite in="shadowBlurOuter1" in2="SourceAlpha" operator="out" result="shadowBlurOuter1"/><feColorMatrix in="shadowBlurOuter1" values="0 0 0 0 0.219607843 0 0 0 0 0.258823529 0 0 0 0 0.329411765 0 0 0 0.1 0"/></filter><path id="b" d="M4 0h34a4 4 0 014 4v42H0V4a4 4 0 014-4z"/></defs><g fill="none" fill-rule="evenodd"><g transform="translate(11 13)"><use fill="#000" filter="url(#a)" xlink:href="#b"/><path fill="#FFF" stroke="#E1E1E1" stroke-linejoin="square" d="M38 .5H4c-.966 0-1.841.392-2.475 1.025A3.489 3.489 0 00.5 4v41.5h41V4c0-.966-.392-1.841-1.025-2.475A3.489 3.489 0 0038 .5z"/><path fill="#F7F7F7" d="M5 3h32a2 2 0 012 2v38H3V5a2 2 0 012-2z"/><path fill="#6FD350" d="M9 8h24v13H9z"/><rect width="24" height="2" x="9" y="25" fill="#E1E1E1" rx="1"/><rect width="24" height="2" x="9" y="29" fill="#E1E1E1" rx="1"/><rect width="24" height="2" x="9" y="33" fill="#E1E1E1" rx="1"/><rect width="24" height="2" x="9" y="37" fill="#E1E1E1" rx="1"/></g><path fill="#1B2E5B" stroke="#FFF" stroke-width="2" d="M34 37h-4V19h-6.674L32 2.89 40.674 19H34v18z"/></g></svg>