<svg xmlns="http://www.w3.org/2000/svg" xmlns:xlink="http://www.w3.org/1999/xlink" width="56" height="56" viewBox="0 0 56 56"><defs><rect id="b" width="50" height="50" x="4" y="3" rx="4"/><filter id="a" width="126%" height="126%" x="-13%" y="-11%" filterUnits="objectBoundingBox"><feOffset dy="1" in="SourceAlpha" result="shadowOffsetOuter1"/><feGaussianBlur in="shadowOffsetOuter1" result="shadowBlurOuter1" stdDeviation="2"/><feComposite in="shadowBlurOuter1" in2="SourceAlpha" operator="out" result="shadowBlurOuter1"/><feColorMatrix in="shadowBlurOuter1" values="0 0 0 0 0.219607843 0 0 0 0 0.258823529 0 0 0 0 0.329411765 0 0 0 0.1 0"/></filter></defs><g fill="none" fill-rule="evenodd"><use fill="#000" filter="url(#a)" xlink:href="#b"/><rect width="49" height="49" x="4.5" y="3.5" fill="#FFF" stroke="#E1E1E1" stroke-linejoin="square" rx="4"/><g fill="#01B2D0" transform="translate(13 15)"><rect width="31" height="25" x=".5" y=".5" fill-opacity=".3" stroke="#01B2D0" rx="1"/><g transform="translate(4 7)"><rect width="5" height="1" rx=".5"/><rect width="14" height="1" x="6" rx=".5"/></g><g transform="translate(4 13)"><rect width="7" height="1" x="11" rx=".5"/><rect width="10" height="1" rx=".5"/></g><g transform="translate(8 10)"><rect width="13" height="1" x="7" rx=".5"/><rect width="6" height="1" rx=".5"/></g><rect width="12" height="1" rx=".5" transform="translate(8 16)"/><g transform="translate(4 19)"><rect width="12" height="1" x="12" rx=".5"/><rect width="11" height="1" rx=".5"/></g><path d="M1 4h30V1H1z"/></g></g></svg>