<svg xmlns="http://www.w3.org/2000/svg" width="472" height="480" viewBox="0 0 472 480"><g fill="none" fill-rule="evenodd" transform="translate(0 1)"><path stroke="#E1E1E1" stroke-dasharray="4 6" stroke-linecap="round" stroke-width="2" d="M152 0h254a8 8 0 018 8v367a8 8 0 01-8 8H152a8 8 0 01-8-8V8a8 8 0 018-8z"/><g transform="translate(202 90)"><path fill="#FFF" stroke="#1B2E5B" stroke-width="2" d="M262 1c1.933 0 3.683.784 4.95 2.05A6.978 6.978 0 01269 8h0v202a6.978 6.978 0 01-2.05 4.95A6.978 6.978 0 01262 217h0H8a6.978 6.978 0 01-4.95-2.05A6.978 6.978 0 011 210h0V8c0-1.933.784-3.683 2.05-4.95A6.978 6.978 0 018 1h0z"/><path fill="#E1E1E1" d="M2 25h266v1H2z"/><circle cx="14" cy="13" r="4" fill="#F15242"/><circle cx="26" cy="13" r="4" fill="#FFC111"/><circle cx="38" cy="13" r="4" fill="#6FD350"/><g transform="translate(124 150)"><rect width="123" height="45" x=".5" y=".5" fill="#FFF" stroke="#E1E1E1" rx="4"/><rect width="48" height="4" x="12" y="15" fill="#F1F1F1" rx="2"/><rect width="96" height="4" x="12" y="27" fill="#F1F1F1" rx="2"/></g><g transform="translate(124 98)"><rect width="123" height="45" x=".5" y=".5" fill="#FFF" stroke="#E1E1E1" rx="4"/><rect width="48" height="4" x="12" y="15" fill="#F1F1F1" rx="2"/><rect width="96" height="4" x="12" y="27" fill="#F1F1F1" rx="2"/></g><g transform="translate(124 46)"><rect width="123" height="45" x=".5" y=".5" fill="#FFF" stroke="#E1E1E1" rx="4"/><rect width="48" height="4" x="12" y="15" fill="#F1F1F1" rx="2"/><rect width="96" height="4" x="12" y="27" fill="#F1F1F1" rx="2"/></g></g><g transform="translate(27 36)"><path fill="#FFF" stroke="#1B2E5B" stroke-width="2" d="M182 1c1.933 0 3.683.784 4.95 2.05A6.978 6.978 0 01189 8h0v136a6.978 6.978 0 01-2.05 4.95A6.978 6.978 0 01182 151h0H8a6.978 6.978 0 01-4.95-2.05A6.978 6.978 0 011 144h0V8c0-1.933.784-3.683 2.05-4.95A6.978 6.978 0 018 1h0z"/><path fill="#E1E1E1" d="M2 25h186v1H2z"/><circle cx="14" cy="13" r="4" fill="#F15242"/><circle cx="26" cy="13" r="4" fill="#FFC111"/><circle cx="38" cy="13" r="4" fill="#6FD350"/><g transform="translate(18 74)"><rect width="153" height="59" x=".5" y=".5" fill="#FFF" stroke="#E1E1E1" rx="4"/><rect width="120" height="4" x="12" y="22" fill="#F1F1F1" rx="2"/><rect width="64" height="4" x="12" y="34" fill="#F1F1F1" rx="2"/></g><rect width="153" height="27" x=".5" y=".5" fill="#FFF" stroke="#E1E1E1" rx="4" transform="translate(18 38)"/></g><g transform="translate(0 183)"><path fill="#FFF" stroke="#1B2E5B" stroke-width="2" d="M352 1c1.933 0 3.683.784 4.95 2.05A6.978 6.978 0 01359 8h0v252a6.978 6.978 0 01-2.05 4.95A6.978 6.978 0 01352 267h0H8a6.978 6.978 0 01-4.95-2.05A6.978 6.978 0 011 260h0V8c0-1.933.784-3.683 2.05-4.95A6.978 6.978 0 018 1h0z"/><path fill="#E1E1E1" d="M2 25h356v1H2z"/><circle cx="14" cy="13" r="4" fill="#F15242"/><circle cx="26" cy="13" r="4" fill="#FFC111"/><circle cx="38" cy="13" r="4" fill="#6FD350"/><g transform="translate(132 50)"><rect width="97" height="59" x=".5" y=".5" fill="#FFF" stroke="#E1E1E1" rx="4"/><path fill="#384254" fill-rule="nonzero" d="M18.74 45.992v-1.728a6.134 6.134 0 001.92-.348 4.5 4.5 0 002.676-2.46c.264-.592.396-1.264.396-2.016 0-.784-.144-1.456-.432-2.016a4.523 4.523 0 00-1.14-1.428 6.477 6.477 0 00-1.608-.972c-.6-.256-1.204-.488-1.812-.696v-5.712c.56.016 1.124.144 1.692.384.568.24 1.036.592 1.404 1.056l1.632-1.512a5.684 5.684 0 00-2.196-1.356 8.203 8.203 0 00-2.532-.468v-1.656h-1.224v1.68a5.71 5.71 0 00-1.836.396 5.136 5.136 0 00-1.536.936 4.4 4.4 0 00-1.056 1.428c-.264.56-.396 1.192-.396 1.896 0 .752.136 1.392.408 1.92.272.528.628.98 1.068 1.356.44.376.952.688 1.536.936.584.248 1.188.46 1.812.636v6.096c-.288 0-.596-.044-.924-.132a4.72 4.72 0 01-.972-.384 6.051 6.051 0 01-.936-.612 3.7 3.7 0 01-.768-.816l-1.752 1.488a7.121 7.121 0 002.376 1.716 7.783 7.783 0 002.976.66v1.728h1.224zm-1.224-12.024c-.752-.224-1.364-.54-1.836-.948-.472-.408-.708-.996-.708-1.764 0-.8.248-1.428.744-1.884.496-.456 1.096-.708 1.8-.756v5.352zm1.224 8.376v-5.76c.768.256 1.408.608 1.92 1.056.512.448.768 1.056.768 1.824 0 .48-.076.896-.228 1.248a2.581 2.581 0 01-.6.876 2.707 2.707 0 01-.852.54c-.32.128-.656.2-1.008.216zm13.272 2.088c.848 0 1.632-.14 2.352-.42a5.636 5.636 0 001.872-1.176A5.413 5.413 0 0037.484 41c.304-.72.456-1.528.456-2.424 0-.816-.144-1.556-.432-2.22a4.938 4.938 0 00-1.188-1.692 5.198 5.198 0 00-1.8-1.068 6.71 6.71 0 00-2.268-.372c-.352 0-.724.024-1.116.072a5.113 5.113 0 00-1.068.24l.144-4.464h7.008v-2.064h-9.168l-.24 9.024a8.783 8.783 0 011.8-.672 7.751 7.751 0 011.968-.264c.528 0 1.032.072 1.512.216.48.144.904.368 1.272.672.368.304.66.692.876 1.164.216.472.324 1.028.324 1.668 0 .544-.092 1.04-.276 1.488a3.474 3.474 0 01-.756 1.152 3.38 3.38 0 01-1.128.744 3.654 3.654 0 01-1.392.264c-.768 0-1.444-.208-2.028-.624a3.62 3.62 0 01-1.284-1.656l-2.112.84a5.763 5.763 0 002.064 2.484c.912.616 2.032.924 3.36.924zM52.268 44v-2.088H43.94l5.52-5.376c.368-.368.72-.74 1.056-1.116.336-.376.628-.772.876-1.188.248-.416.444-.856.588-1.32.144-.464.216-.968.216-1.512 0-.784-.148-1.48-.444-2.088a4.365 4.365 0 00-1.188-1.512 5.27 5.27 0 00-1.716-.912 6.595 6.595 0 00-2.028-.312c-.72 0-1.396.112-2.028.336a5.262 5.262 0 00-1.668.948c-.48.408-.876.888-1.188 1.44a5.156 5.156 0 00-.612 1.788l2.28.384c.144-.864.496-1.572 1.056-2.124s1.272-.828 2.136-.828c.416 0 .808.068 1.176.204.368.136.688.332.96.588.272.256.488.564.648.924.16.36.24.764.24 1.212 0 .72-.184 1.368-.552 1.944a10.512 10.512 0 01-1.32 1.656l-6.768 6.72V44h11.088zm4.872.144c.464 0 .848-.16 1.152-.48.304-.32.456-.688.456-1.104 0-.432-.152-.8-.456-1.104-.304-.304-.688-.456-1.152-.456-.464 0-.848.156-1.152.468a1.544 1.544 0 00-.456 1.116c0 .416.156.78.468 1.092.312.312.692.468 1.14.468zM69.356 44V27.008h-2.088l-4.824 3.912 1.368 1.608 3.216-2.688V44h2.328zm16.008 0v-3.816h2.448v-1.992h-2.448V27.008h-2.856l-7.224 11.064v2.112h7.824V44h2.256zm-2.256-5.808h-5.424l5.376-8.52h.048v8.52z"/><rect width="16" height="4" x="9" y="8" fill="#F1F1F1" rx="2"/></g><g transform="translate(26 50)"><rect width="97" height="59" x=".5" y=".5" fill="#FFF" stroke="#E1E1E1" rx="4"/><path fill="#384254" fill-rule="nonzero" d="M32.264 44v-3.816h2.448v-1.992h-2.448V27.008h-2.856l-7.224 11.064v2.112h7.824V44h2.256zm-2.256-5.808h-5.424l5.376-8.52h.048v8.52zM42.68 44l4.44-7.008c.48-.784.872-1.552 1.176-2.304.304-.752.456-1.592.456-2.52 0-.8-.148-1.544-.444-2.232a5.34 5.34 0 00-1.224-1.776 5.602 5.602 0 00-1.86-1.164 6.367 6.367 0 00-2.328-.42c-.832 0-1.608.136-2.328.408a5.58 5.58 0 00-1.872 1.152 5.227 5.227 0 00-1.236 1.788c-.296.696-.444 1.468-.444 2.316 0 .768.136 1.48.408 2.136a5.06 5.06 0 002.808 2.796 5.422 5.422 0 002.652.36c.2-.024.396-.052.588-.084.416-.08.744-.192.984-.336l.024.024L39.92 44h2.76zm.192-8.28a3.784 3.784 0 01-1.44-.264 3.13 3.13 0 01-1.104-.744 3.416 3.416 0 01-.708-1.128 3.874 3.874 0 01-.252-1.416c0-.528.084-1.016.252-1.464.168-.448.408-.832.72-1.152a3.4 3.4 0 011.116-.756 3.639 3.639 0 011.44-.276c.528 0 1.008.096 1.44.288.432.192.804.452 1.116.78.312.328.552.712.72 1.152.168.44.252.908.252 1.404 0 .528-.084 1.008-.252 1.44a3.227 3.227 0 01-1.848 1.872c-.44.176-.924.264-1.452.264zm14.28 8.712c1.008 0 1.876-.232 2.604-.696.728-.464 1.328-1.1 1.8-1.908.472-.808.82-1.752 1.044-2.832.224-1.08.336-2.244.336-3.492 0-1.232-.112-2.392-.336-3.48-.224-1.088-.572-2.036-1.044-2.844-.472-.808-1.072-1.444-1.8-1.908-.728-.464-1.596-.696-2.604-.696s-1.88.232-2.616.696c-.736.464-1.34 1.1-1.812 1.908-.472.808-.82 1.756-1.044 2.844a17.239 17.239 0 00-.336 3.48c0 1.248.112 2.412.336 3.492.224 1.08.572 2.024 1.044 2.832.472.808 1.076 1.444 1.812 1.908.736.464 1.608.696 2.616.696zm0-1.968c-.704 0-1.28-.228-1.728-.684-.448-.456-.796-1.028-1.044-1.716s-.42-1.44-.516-2.256a19.771 19.771 0 01-.144-2.304c0-.72.048-1.488.144-2.304a10.34 10.34 0 01.516-2.268c.248-.696.596-1.272 1.044-1.728.448-.456 1.024-.684 1.728-.684.688 0 1.252.228 1.692.684.44.456.788 1.032 1.044 1.728s.432 1.452.528 2.268c.096.816.144 1.584.144 2.304 0 .72-.048 1.488-.144 2.304a9.702 9.702 0 01-.528 2.256c-.256.688-.604 1.26-1.044 1.716-.44.456-1.004.684-1.692.684zM76.808 44v-2.088H68.48L74 36.536c.368-.368.72-.74 1.056-1.116.336-.376.628-.772.876-1.188.248-.416.444-.856.588-1.32.144-.464.216-.968.216-1.512 0-.784-.148-1.48-.444-2.088a4.365 4.365 0 00-1.188-1.512 5.27 5.27 0 00-1.716-.912 6.595 6.595 0 00-2.028-.312c-.72 0-1.396.112-2.028.336a5.262 5.262 0 00-1.668.948c-.48.408-.876.888-1.188 1.44a5.156 5.156 0 00-.612 1.788l2.28.384c.144-.864.496-1.572 1.056-2.124s1.272-.828 2.136-.828c.416 0 .808.068 1.176.204.368.136.688.332.96.588.272.256.488.564.648.924.16.36.24.764.24 1.212 0 .72-.184 1.368-.552 1.944a10.512 10.512 0 01-1.32 1.656l-6.768 6.72V44h11.088z"/><rect width="16" height="4" x="8" y="8" fill="#F1F1F1" rx="2"/></g><g transform="translate(238 50)"><rect width="97" height="59" x=".5" y=".5" fill="#FFF" stroke="#E1E1E1" rx="4"/><path fill="#384254" fill-rule="nonzero" d="M30.536 44V27.008h-2.088l-4.824 3.912 1.368 1.608 3.216-2.688V44h2.328zm16.008 0v-3.816h2.448v-1.992h-2.448V27.008h-2.856l-7.224 11.064v2.112h7.824V44h2.256zm-2.256-5.808h-5.424l5.376-8.52h.048v8.52zM56.96 44l4.44-7.008c.48-.784.872-1.552 1.176-2.304.304-.752.456-1.592.456-2.52 0-.8-.148-1.544-.444-2.232a5.34 5.34 0 00-1.224-1.776 5.602 5.602 0 00-1.86-1.164 6.367 6.367 0 00-2.328-.42c-.832 0-1.608.136-2.328.408a5.58 5.58 0 00-1.872 1.152 5.227 5.227 0 00-1.236 1.788c-.296.696-.444 1.468-.444 2.316 0 .768.136 1.48.408 2.136a5.06 5.06 0 002.808 2.796 5.422 5.422 0 002.652.36c.2-.024.396-.052.588-.084.416-.08.744-.192.984-.336l.024.024L54.2 44h2.76zm.192-8.28a3.784 3.784 0 01-1.44-.264 3.13 3.13 0 01-1.104-.744 3.416 3.416 0 01-.708-1.128 3.874 3.874 0 01-.252-1.416c0-.528.084-1.016.252-1.464.168-.448.408-.832.72-1.152a3.4 3.4 0 011.116-.756 3.639 3.639 0 011.44-.276c.528 0 1.008.096 1.44.288.432.192.804.452 1.116.78.312.328.552.712.72 1.152.168.44.252.908.252 1.404 0 .528-.084 1.008-.252 1.44a3.227 3.227 0 01-1.848 1.872c-.44.176-.924.264-1.452.264zM73.376 44V27.008h-2.088l-4.824 3.912 1.368 1.608 3.216-2.688V44h2.328z"/><rect width="16" height="4" x="8" y="8" fill="#F1F1F1" rx="2"/></g><g transform="translate(26 118)"><rect width="151" height="125" x=".5" y=".5" fill="#FFF" stroke="#E1E1E1" rx="4"/><path fill="#FFC111" opacity=".5" d="M9 71h32v46H9zm34-10h32v56H43zm34-16h32v72H77z"/><path fill="#FFC111" d="M111 29h32v88h-32z"/></g><rect width="151" height="125" x=".5" y=".5" fill="#FFF" stroke="#E1E1E1" rx="4" transform="translate(186 118)"/></g><path fill="#B7E9A7" d="M214 98.75h30V212.5h-30zm35-26.25h30v140h-30z"/><path fill="#6FD350" d="M284 35h30v177.5h-30z"/><path fill="#6F0DFB" d="M299 324v84h-84c0-46.392 37.608-84 84-84z"/><path fill="#B482FD" d="M310.25 360c32.723 0 59.25 26.527 59.25 59.25s-26.527 59.25-59.25 59.25S251 451.973 251 419.25h59.25z"/><circle cx="414" cy="90" r="17" fill="#1B2E5B" stroke="#979797" stroke-opacity=".124" stroke-width="10"/><circle cx="144" cy="36" r="17" fill="#1B2E5B" stroke="#979797" stroke-opacity=".124" stroke-width="10"/><circle cx="414" cy="308" r="17" fill="#1B2E5B" stroke="#979797" stroke-opacity=".124" stroke-width="10"/></g></svg>