<svg xmlns="http://www.w3.org/2000/svg" xmlns:xlink="http://www.w3.org/1999/xlink" width="400" height="191" viewBox="0 0 400 191"><defs><filter id="b" width="115.2%" height="126.9%" x="-7.3%" y="-13.5%" filterUnits="objectBoundingBox"><feOffset dy="4" in="SourceAlpha" result="shadowOffsetInner1"/><feComposite in="shadowOffsetInner1" in2="SourceAlpha" k2="-1" k3="1" operator="arithmetic" result="shadowInnerInner1"/><feColorMatrix in="shadowInnerInner1" values="0 0 0 0 1 0 0 0 0 1 0 0 0 0 1 0 0 0 1 0"/></filter><filter id="e" width="176.1%" height="247.2%" x="-36.3%" y="-75.5%" filterUnits="objectBoundingBox"><feOffset dy="2" in="SourceAlpha" result="shadowOffsetInner1"/><feComposite in="shadowOffsetInner1" in2="SourceAlpha" k2="-1" k3="1" operator="arithmetic" result="shadowInnerInner1"/><feColorMatrix in="shadowInnerInner1" values="0 0 0 0 1 0 0 0 0 1 0 0 0 0 1 0 0 0 1 0"/></filter><filter id="g" width="119.8%" height="118.1%" x="-11.4%" y="-9%" filterUnits="objectBoundingBox"><feOffset dy="4" in="SourceAlpha" result="shadowOffsetInner1"/><feComposite in="shadowOffsetInner1" in2="SourceAlpha" k2="-1" k3="1" operator="arithmetic" result="shadowInnerInner1"/><feColorMatrix in="shadowInnerInner1" values="0 0 0 0 1 0 0 0 0 1 0 0 0 0 1 0 0 0 1 0"/></filter><filter id="j" width="138.7%" height="143.1%" x="-19.9%" y="-22.7%" filterUnits="objectBoundingBox"><feOffset dy="2" in="SourceAlpha" result="shadowOffsetInner1"/><feComposite in="shadowOffsetInner1" in2="SourceAlpha" k2="-1" k3="1" operator="arithmetic" result="shadowInnerInner1"/><feColorMatrix in="shadowInnerInner1" values="0 0 0 0 1 0 0 0 0 1 0 0 0 0 1 0 0 0 1 0"/></filter><filter id="l" width="116.9%" height="115.5%" x="-8.2%" y="-8.3%" filterUnits="objectBoundingBox"><feOffset dy="4" in="SourceAlpha" result="shadowOffsetInner1"/><feComposite in="shadowOffsetInner1" in2="SourceAlpha" k2="-1" k3="1" operator="arithmetic" result="shadowInnerInner1"/><feColorMatrix in="shadowInnerInner1" values="0 0 0 0 1 0 0 0 0 1 0 0 0 0 1 0 0 0 1 0"/></filter><filter id="o" width="136.4%" height="171.4%" x="-18.5%" y="-36.9%" filterUnits="objectBoundingBox"><feOffset dy="2" in="SourceAlpha" result="shadowOffsetInner1"/><feComposite in="shadowOffsetInner1" in2="SourceAlpha" k2="-1" k3="1" operator="arithmetic" result="shadowInnerInner1"/><feColorMatrix in="shadowInnerInner1" values="0 0 0 0 1 0 0 0 0 1 0 0 0 0 1 0 0 0 1 0"/></filter><filter id="q" width="111%" height="112.4%" x="-6.4%" y="-6.8%" filterUnits="objectBoundingBox"><feOffset dy="4" in="SourceAlpha" result="shadowOffsetInner1"/><feComposite in="shadowOffsetInner1" in2="SourceAlpha" k2="-1" k3="1" operator="arithmetic" result="shadowInnerInner1"/><feColorMatrix in="shadowInnerInner1" values="0 0 0 0 1 0 0 0 0 1 0 0 0 0 1 0 0 0 1 0"/></filter><filter id="t" width="127.8%" height="174.9%" x="-16.3%" y="-39.2%" filterUnits="objectBoundingBox"><feOffset dy="2" in="SourceAlpha" result="shadowOffsetInner1"/><feComposite in="shadowOffsetInner1" in2="SourceAlpha" k2="-1" k3="1" operator="arithmetic" result="shadowInnerInner1"/><feColorMatrix in="shadowInnerInner1" values="0 0 0 0 1 0 0 0 0 1 0 0 0 0 1 0 0 0 1 0"/></filter><path id="a" d="M29.687 44.81L.897 1.437C20.913-1.448 40.548 4.638 55.21 17.08c5.69-4.729 11.32-8.366 16.896-10.913C85.83-.1 102.427-1.4 121.896 2.267l-14.06 16.425c-.352.412-.7.826-1.046 1.244L86.19 44.81H29.687z"/><path id="d" d="M12.734 21.282l15.116 1.979 4.379 5H7.563z"/><path id="f" d="M94 66.592c-11.817-30.01-24.121-48.67-36.912-55.98C44.298 3.302 25.268-.13 0 .311l.985 1.113a100 100 0 0123.414 47.9l3.228 17.268H94z"/><path id="i" d="M16.148 39.085l17.725 3.529 7.237 20.978H5.923z"/><path id="k" d="M118.372 83.592C103.766 65.155 87.937 47.5 70.885 30.626 53.833 13.752 30.205 3.543 0 0l14.655 23.726a100 100 0 0113.028 33.18l5.269 26.686h85.42z"/><path id="n" d="M10.672 52.391l27.725 3.529 4.236 10.957-38.187.021z"/><path id="p" d="M38.381 106.933c-3.917-20.41-8.804-39.885-14.662-58.422C17.86 29.973 9.955 13.803 0 0c23.412 3.303 44.13 13.083 62.155 29.34 10.165 9.17 19.315 21.392 27.45 36.67 16.63-20.517 44.189-30.754 71.522-23.988a70.282 70.282 0 017.528 2.318l-35.392 62.593z"/><path id="s" d="M19 26.092l29 8.5 18-4.32 5.257 9.82-66.757.022z"/></defs><g fill="none" fill-rule="evenodd"><g transform="translate(214.104 117.19)"><path fill="#C8C4BA" stroke="#1B2E5B" stroke-linecap="round" stroke-width="4" d="M112.896 14.217v18.549l25.801 13.044H75.308V14.217h37.588z"/><path fill="#000" fill-opacity=".1" d="M77 16h37.896v15.383L130 39H77z"/><mask id="c" fill="#fff"><use xlink:href="#a"/></mask><g stroke-linecap="round"><use fill="#FCF6E7" xlink:href="#a"/><use fill="#000" filter="url(#b)" xlink:href="#a"/><path stroke="#1B2E5B" stroke-width="4" d="M71.275 4.348c14.837-6.775 32.948-7.943 54.357-3.37h0l-16.276 19.015c-.345.403-.687.81-1.026 1.218h0L87.13 46.81H28.615L-2.477-.03c21.076-3.98 41.989 1.815 57.696 14.52 5.401-4.344 10.756-7.721 16.056-10.142z"/></g><g stroke-linecap="round" mask="url(#c)"><g transform="translate(42.947 16.549)"><path fill="#C8C4BA" stroke="#1B2E5B" stroke-width="4" d="M9.753-3.57a101.836 101.836 0 0132.743 33.817h0l-46.882.015C3.548 21.854 8.402 11.153 9.529-.198a51.83 51.83 0 00.224-3.372z"/><use fill="#97DEFF" xlink:href="#d"/><use fill="#000" filter="url(#e)" xlink:href="#d"/><path stroke="#1B2E5B" stroke-width="4" d="M11.827 19.146l17.03 2.23 7.782 8.885H3.593l8.234-11.115z"/></g></g><path stroke="#000" stroke-opacity=".1" stroke-width="6" d="M56.466 16.549a81.176 81.176 0 01-9.727 29.575l-.052.093h0"/></g><g stroke="#1B2E5B" stroke-width="4" transform="translate(54)"><circle cx="128" cy="88" r="72" fill="#FFC111" stroke-linecap="round" stroke-linejoin="round"/><rect width="116" height="12" x="2" y="50" fill="#4B55BC" rx="6"/><rect width="156" height="12" x="148" y="74" fill="#FED97E" rx="6"/><rect width="76" height="12" x="123" y="26" fill="#EA878A" rx="6"/><rect width="36" height="12" x="49" y="2" fill="#EA878A" rx="6"/></g><g transform="translate(10.084 95.408)"><mask id="h" fill="#fff"><use xlink:href="#f"/></mask><g stroke-linecap="round"><use fill="#FCF6E7" xlink:href="#f"/><use fill="#000" filter="url(#g)" xlink:href="#f"/><path stroke="#1B2E5B" stroke-width="4" d="M-4.342-1.578C23.556-2.521 44.343 1.026 58.08 8.876c13.42 7.668 26.462 27.466 38.843 59.716h0-70.957l-3.533-18.9A98 98 0 00-.512 2.75h0z"/></g><g stroke-linecap="round" mask="url(#h)"><g transform="translate(26.993 3)"><path fill="#C8C4BA" stroke="#1B2E5B" stroke-linejoin="round" stroke-width="4" d="M63.61-2v67.592H-2.635L2.583 46.93A102 102 0 0128.302 2.663h0L32.915-2H63.61z"/><use fill="#97DEFF" xlink:href="#i"/><use fill="#000" filter="url(#j)" xlink:href="#i"/><path stroke="#1B2E5B" stroke-width="4" d="M14.933 36.803l20.457 4.073 8.525 24.716H2.921l12.012-28.789z"/></g></g><path stroke="#000" stroke-linecap="round" stroke-linejoin="round" stroke-opacity=".1" stroke-width="6" d="M52.916 7.592l3.344 6.455a100 100 0 0110.115 31.229l1.728 11.563h0" mask="url(#h)"/></g><g transform="translate(53.759 78.408)"><mask id="m" fill="#fff"><use xlink:href="#k"/></mask><g stroke-linecap="round"><use fill="#FCF6E7" xlink:href="#k"/><use fill="#000" filter="url(#l)" xlink:href="#k"/><path stroke="#1B2E5B" stroke-width="4" d="M-3.846-2.421C28.838.716 54.196 11.298 72.292 29.204c18.107 17.918 34.84 36.714 50.197 56.388h0-91.18L25.72 57.294a98 98 0 00-12.766-32.517h0z"/></g><g stroke-linecap="round" mask="url(#m)"><g transform="translate(37.795 15.694)"><path fill="#C8C4BA" stroke="#1B2E5B" stroke-linejoin="round" stroke-width="4" d="M67.446-2.34v71.653l-69.629-.232A75.114 75.114 0 0139.591 7.145h0L54.835-.35l12.611-1.99z"/><use fill="#97DEFF" xlink:href="#n"/><use fill="#000" filter="url(#o)" xlink:href="#n"/><path stroke="#1B2E5B" stroke-width="4" d="M9.428 50.216l30.404 3.87 5.718 14.79-44.14.024 8.018-18.684z"/></g></g></g><g transform="translate(103.345 55.067)"><path stroke="#000" stroke-linecap="round" stroke-linejoin="round" stroke-opacity=".1" stroke-width="6" d="M16.655 47.933l6.79 21.938a100 100 0 012.75 11.096l5.068 26.966h0"/><mask id="r" fill="#fff"><use xlink:href="#p"/></mask><g stroke-linecap="round"><use fill="#FCF6E7" xlink:href="#p"/><use fill="#000" filter="url(#q)" xlink:href="#p"/><path stroke="#1B2E5B" stroke-width="4" d="M-4.397-2.55c1.555.16 3.114.35 4.676.57 23.81 3.359 44.884 13.3 63.216 29.835 9.737 8.783 18.568 20.321 26.473 34.629a72.604 72.604 0 0131.347-20.799c12.577-4.218 26.463-5.028 40.293-1.604a72.283 72.283 0 019.925 3.233h0l-37.103 65.619H36.726c-3.953-20.923-8.924-40.863-14.914-59.82C16.022 30.793 8.216 14.81-1.622 1.17a146.511 146.511 0 00-2.775-3.72z"/></g><g stroke-linecap="round" mask="url(#r)"><g transform="translate(48.655 65.84)"><path fill="#C8C4BA" stroke="#1B2E5B" stroke-linejoin="round" stroke-width="4" d="M40.779-2.824C49.06 4.149 55.905 11.4 61.322 18.924 66.884 26.65 71.872 35.84 76.274 46.5h0-81.066l23.66-23.918a98 98 0 005.097-5.564h0z"/><use fill="#97DEFF" xlink:href="#s"/><use fill="#000" filter="url(#t)" xlink:href="#s"/><path stroke="#1B2E5B" stroke-width="4" d="M18.446 23.846l29.605 8.677 18.984-4.556 7.56 14.124-75.042.024 18.893-18.269z"/></g></g><path stroke="#1B2E5B" stroke-width="4" d="M89.626 62.477l.5 1.292a98.523 98.523 0 016.264 44.164h0" mask="url(#r)"/><path stroke="#000" stroke-opacity=".1" stroke-width="6" d="M54.209 107.123c9.497-9.11 16.421-16.107 20.773-20.993 4.351-4.886 9.893-11.884 16.623-20.993" mask="url(#r)"/></g><g stroke="#384254" stroke-width="4"><path fill="#987462" d="M60.53 147l15.913 8h25.087l15.913 8h235.72l18.812 10h14.639l.32 9.999L13 183v-10h11v-18h9.422l15.076-8H60.53z"/><path fill="#695044" d="M148 173h115v10H148zm-24 0h12v10h-12zm151 0h12v10h-12z"/><path fill="#987462" d="M397.617 183l.286 5.998L2 189v-6h395.617z"/></g></g></svg>