<svg xmlns="http://www.w3.org/2000/svg" width="70" height="79" viewBox="0 0 70 79"><g fill="none"><path fill="#FFF" d="M6.032 60.989l29.415 14.968 28.298-14.968V2.457H6.032z"/><path fill="#F2F3F2" d="M64.34 2.681L5.436 62.032l30.532 15.117L64.34 62.628z"/><path fill="#DCDEDC" d="M4.096 21.968v40.287l1.042.522 29.415 14.968.894.446.893-.446 28.373-14.968 1.042-.522V.521H4.095v21.447zm1.936 39.17V2.458h57.787v58.68L35.447 76.106 6.032 61.138z"/><path fill="#FF492C" d="M34.926 3.426c.297 0 .595 0 .893.074l-.893 1.713c-1.34-.075-2.532.968-2.607 2.308-.074 1.34.968 2.532 2.309 2.607h.298c.595 0 1.191-.224 1.638-.596l.968 1.638a4.514 4.514 0 01-2.606.82c-2.383.074-4.394-1.713-4.469-4.096-.074-2.383 1.713-4.394 4.096-4.468h.373zm3.053 3.648l1.117 1.862-1.117 1.787-1.043-1.787h-2.16l1.118-1.862h2.085zm-1.788-.67c0-.298.075-.595.224-.819.149-.223.447-.447.67-.596l.149-.074c.298-.149.372-.224.372-.372 0-.15-.223-.298-.372-.298-.298 0-.521.149-.67.446l-.373-.372c.075-.149.224-.298.373-.447.223-.149.447-.149.67-.149.223 0 .521.075.67.224.15.149.298.372.298.596 0 .372-.223.67-.67.819l-.223.149c-.224.149-.373.223-.447.446h1.34v.522l-2.01-.075zm-1.265 9.309L42 11.69V.521H27.777v11.096l7.149 4.096zM67.17 42.074H2.681L.298 47.287 2.681 52.5H67.17l2.309-5.213z"/><path fill="#252530" d="M12.563 30.897c.491 0 .923.1 1.296.298.372.198.66.484.863.856.204.367.306.79.306 1.266 0 .472-.105.886-.313 1.244a2.213 2.213 0 01-.894.826c-.382.199-.824.298-1.325.298H10.91c-.035 0-.053.02-.053.06v2.844a.12.12 0 01-.044.097.131.131 0 01-.097.037H9.413a.131.131 0 01-.097-.037.131.131 0 01-.037-.097v-7.558a.13.13 0 01.037-.097.131.131 0 01.097-.037h3.15zm-.239 3.53c.348 0 .624-.1.827-.298.209-.199.313-.457.313-.775 0-.332-.104-.598-.313-.797-.203-.203-.479-.305-.827-.305H10.91c-.035 0-.053.02-.053.06v2.055c0 .04.018.06.053.06h1.414zm8.661.834c.045.283.06.598.045.945-.005.095-.052.142-.142.142h-3.455c-.045 0-.06.017-.045.052.025.149.065.298.12.447.198.417.593.625 1.183.625.482-.005.86-.198 1.132-.58.03-.045.062-.068.097-.068.025 0 .052.015.082.045l.804.79c.035.04.053.074.053.104a.253.253 0 01-.038.09 2.403 2.403 0 01-.953.707 3.152 3.152 0 01-1.273.253c-.64 0-1.182-.144-1.624-.432a2.483 2.483 0 01-.96-1.221c-.154-.373-.231-.86-.231-1.46 0-.412.054-.774.164-1.087a2.48 2.48 0 01.9-1.259c.433-.313.941-.469 1.527-.469.745 0 1.343.216 1.795.648.452.432.725 1.008.82 1.728zm-2.606-1.013c-.467 0-.775.218-.924.655-.03.1-.057.219-.082.358 0 .034.02.052.06.052h1.929c.044 0 .062-.018.052-.052-.04-.214-.06-.318-.06-.313a1.007 1.007 0 00-.35-.521 1.057 1.057 0 00-.625-.18zm6.486-1.34c.263 0 .474.052.633.156.06.03.082.084.067.164l-.238 1.273c-.005.09-.057.117-.157.082a1.124 1.124 0 00-.387-.06c-.06 0-.142.008-.246.023a1.137 1.137 0 00-.685.298c-.184.173-.275.407-.275.7v3.045c0 .04-.013.072-.038.097a.148.148 0 01-.096.037h-1.304a.131.131 0 01-.096-.037.131.131 0 01-.038-.097v-5.473c0-.035.013-.067.038-.097a.131.131 0 01.096-.037h1.304c.034 0 .067.012.096.037.025.03.038.062.038.097v.424c0 .02.007.035.022.045.015.01.025.005.03-.015.308-.442.72-.663 1.236-.663zm4.691.066c.035 0 .065.013.09.038a.12.12 0 01.044.097v1.057a.12.12 0 01-.044.097.122.122 0 01-.09.037H28.47c-.035 0-.052.017-.052.052v4.237a.12.12 0 01-.045.097.122.122 0 01-.089.037h-1.31a.148.148 0 01-.097-.037.131.131 0 01-.038-.097v-4.237c0-.035-.02-.052-.06-.052h-.655a.148.148 0 01-.096-.037.131.131 0 01-.038-.097v-1.057c0-.04.013-.072.038-.097a.148.148 0 01.096-.038h.656c.04 0 .06-.02.06-.06v-.245c0-.462.071-.821.215-1.08.14-.253.368-.434.685-.543.318-.11.755-.157 1.311-.142h.424c.04 0 .072.013.097.037a.15.15 0 01.038.097v.901c0 .04-.013.072-.038.097a.12.12 0 01-.097.045h-.372c-.258.005-.437.057-.536.156-.1.104-.149.29-.149.559v.119c0 .04.017.06.052.06h1.087zm3.582 5.839c-.625 0-1.161-.164-1.608-.492a2.455 2.455 0 01-.916-1.34 3.951 3.951 0 01-.157-1.14c0-.436.053-.831.157-1.184.174-.55.481-.983.923-1.295.452-.313.99-.47 1.616-.47.61 0 1.13.154 1.557.462.436.313.744.745.923 1.296.12.372.179.762.179 1.17 0 .401-.052.779-.157 1.131-.168.58-.474 1.035-.916 1.363-.441.332-.975.499-1.6.499zm0-1.348a.911.911 0 00.626-.224c.169-.148.293-.354.372-.618.06-.238.09-.499.09-.782 0-.312-.03-.575-.09-.789a1.274 1.274 0 00-.387-.596.94.94 0 00-.618-.208c-.258 0-.47.07-.633.208a1.21 1.21 0 00-.365.596c-.06.174-.09.437-.09.79 0 .337.028.598.083.781.069.264.193.47.372.618a.95.95 0 00.64.224zm6.546-4.558c.268 0 .48.053.633.157.06.03.082.084.067.164l-.23 1.273c-.01.09-.063.117-.157.082a1.2 1.2 0 00-.395-.06c-.06 0-.141.008-.246.023a1.13 1.13 0 00-.677.298c-.184.173-.276.407-.276.7v3.045a.12.12 0 01-.044.097.122.122 0 01-.09.037h-1.31a.131.131 0 01-.097-.037.131.131 0 01-.038-.097v-5.473c0-.035.013-.067.038-.097a.131.131 0 01.097-.037h1.31c.035 0 .065.012.09.037.03.03.044.062.044.097v.424c0 .02.005.035.015.045.015.01.027.005.037-.015.303-.442.713-.663 1.229-.663zm7.782-.014c.58 0 1.035.173 1.363.52.327.353.491.847.491 1.483v3.693a.13.13 0 01-.037.097.131.131 0 01-.097.037h-1.303a.131.131 0 01-.097-.037.131.131 0 01-.037-.097v-3.35c0-.304-.08-.544-.238-.723-.154-.179-.363-.268-.626-.268a.82.82 0 00-.633.268c-.164.179-.246.417-.246.715v3.358a.13.13 0 01-.037.097.148.148 0 01-.097.037h-1.295a.131.131 0 01-.097-.037.131.131 0 01-.037-.097v-3.35c0-.299-.082-.54-.246-.723a.828.828 0 00-.64-.268.872.872 0 00-.596.208c-.16.144-.254.343-.283.596v3.537c0 .04-.013.072-.038.097a.148.148 0 01-.096.037h-1.311a.122.122 0 01-.09-.037.12.12 0 01-.044-.097v-5.473c0-.035.015-.067.045-.097a.122.122 0 01.089-.037h1.31c.035 0 .068.012.097.037.025.03.038.062.038.097v.44c0 .02.007.034.022.044.015.005.03-.005.045-.03.303-.452.774-.677 1.415-.677.372 0 .7.079.983.238.278.154.491.377.64.67.02.045.045.045.074 0a1.6 1.6 0 01.67-.685c.279-.149.591-.223.939-.223zm8.043 2.368c.044.283.06.598.044.945-.005.095-.052.142-.141.142h-3.456c-.044 0-.06.017-.044.052.025.149.067.298.126.447.194.417.589.625 1.184.625a1.326 1.326 0 001.125-.58c.03-.045.064-.068.104-.068.02 0 .045.015.075.045l.804.79c.04.04.06.074.06.104 0 .015-.016.044-.045.09a2.403 2.403 0 01-.954.707 3.152 3.152 0 01-1.273.253c-.64 0-1.181-.144-1.623-.432-.442-.293-.76-.7-.954-1.221-.158-.373-.238-.86-.238-1.46 0-.412.057-.774.171-1.087.17-.526.47-.946.902-1.259.426-.313.933-.469 1.519-.469.744 0 1.343.216 1.794.648.452.432.725 1.008.82 1.728zm-2.6-1.013c-.471 0-.781.218-.93.655-.03.1-.055.219-.075.358 0 .034.018.052.052.052h1.937c.044 0 .06-.018.044-.052-.04-.214-.06-.318-.06-.313a.952.952 0 00-.35-.521 1.044 1.044 0 00-.617-.18zm6.48-1.34c.267 0 .478.052.632.156.06.03.082.084.067.164l-.23 1.273c-.01.09-.063.117-.157.082a1.2 1.2 0 00-.395-.06c-.06 0-.141.008-.245.023a1.104 1.104 0 00-.678.298c-.189.173-.283.407-.283.7v3.045a.13.13 0 01-.037.097.131.131 0 01-.097.037h-1.303a.131.131 0 01-.097-.037.131.131 0 01-.037-.097v-5.473c0-.035.012-.067.037-.097a.131.131 0 01.097-.037h1.303a.13.13 0 01.097.037c.025.03.037.062.037.097v.424c0 .02.007.035.022.045.015.01.028.005.038-.015.302-.442.712-.663 1.228-.663zm-31.046-13.04c0-.035.012-.067.037-.097a.122.122 0 01.09-.037h1.31c.035 0 .067.012.097.037.024.03.037.062.037.097v7.551c0 .04-.013.072-.037.097a.148.148 0 01-.097.037h-1.31a.122.122 0 01-.09-.037.131.131 0 01-.037-.097v-3.083c0-.035-.02-.052-.06-.052h-2.472c-.035 0-.052.017-.052.052v3.083c0 .04-.013.072-.038.097a.148.148 0 01-.097.037h-1.31a.122.122 0 01-.09-.037.12.12 0 01-.044-.097v-7.55c0-.036.015-.068.044-.098a.122.122 0 01.09-.037h1.31c.035 0 .067.012.097.037.025.03.038.062.038.097v3.001c0 .04.017.06.052.06h2.472c.04 0 .06-.02.06-.06v-3zm3.604 1.296a.859.859 0 01-.633-.253.834.834 0 01-.253-.626c0-.263.082-.476.245-.64a.866.866 0 01.64-.246c.264 0 .477.082.641.246a.866.866 0 01.246.64.834.834 0 01-.253.626.859.859 0 01-.633.253zm-.67 6.39a.148.148 0 01-.097-.038.131.131 0 01-.037-.097v-5.48c0-.04.012-.073.037-.098a.148.148 0 01.097-.037h1.31c.035 0 .065.013.09.037a.12.12 0 01.044.097v5.481a.12.12 0 01-.044.097.122.122 0 01-.09.037h-1.31zm6.173-5.608c0-.035.015-.067.045-.097a.122.122 0 01.089-.037h1.31c.035 0 .068.012.097.037.025.03.038.062.038.097v5.093c0 .973-.28 1.668-.842 2.085-.56.422-1.286.633-2.174.633-.263 0-.554-.02-.872-.06-.074-.01-.111-.056-.111-.14l.044-1.155c0-.1.053-.141.157-.126.268.044.514.067.737.067.477 0 .844-.102 1.102-.306.253-.213.38-.548.38-1.005 0-.025-.007-.04-.022-.045-.015-.005-.03.003-.045.023-.283.302-.695.454-1.236.454a2.61 2.61 0 01-1.333-.35c-.407-.234-.698-.61-.871-1.132-.11-.343-.164-.787-.164-1.333 0-.58.067-1.053.2-1.415.155-.457.418-.822.79-1.095a2.118 2.118 0 011.303-.417c.571 0 1.008.172 1.311.514.015.015.03.02.045.015.015-.005.022-.017.022-.037v-.268zm-.09 3.604c.06-.218.09-.524.09-.916a4.74 4.74 0 00-.022-.529 2.069 2.069 0 00-.075-.365 1.054 1.054 0 00-.335-.484.92.92 0 00-.58-.178.897.897 0 00-.567.178 1.082 1.082 0 00-.35.484c-.104.224-.156.527-.156.909 0 .417.045.715.134.894a.913.913 0 00.35.484.978.978 0 00.596.186.938.938 0 00.595-.186.92.92 0 00.32-.477zm5.794-3.828c.596 0 1.075.184 1.437.551.363.363.544.857.544 1.482v3.664a.13.13 0 01-.037.097.122.122 0 01-.09.037h-1.31a.148.148 0 01-.097-.037.131.131 0 01-.037-.097v-3.343c0-.293-.085-.534-.253-.723-.164-.183-.385-.275-.663-.275a.858.858 0 00-.663.275c-.169.189-.253.43-.253.723v3.343a.13.13 0 01-.037.097.131.131 0 01-.097.037h-1.303a.131.131 0 01-.097-.037.131.131 0 01-.037-.097v-7.55c0-.036.012-.068.037-.098a.131.131 0 01.097-.037h1.303a.13.13 0 01.097.037c.025.03.037.062.037.097v2.472c0 .02.007.035.022.045.015.005.025 0 .03-.015.308-.432.765-.648 1.37-.648z"/><path fill="#FFF" d="M29.877 45.634a.07.07 0 01-.03.06.07.07 0 01-.06.03h-2.532c-.025 0-.037.012-.037.037v1.392c0 .025.012.037.037.037h1.706a.11.11 0 01.067.023c.015.02.022.042.022.067v.566a.109.109 0 01-.022.067.109.109 0 01-.067.022h-1.706c-.025 0-.037.013-.037.037v2.13a.07.07 0 01-.03.06.07.07 0 01-.06.03h-.684a.07.07 0 01-.06-.03.07.07 0 01-.03-.06v-5.034a.07.07 0 01.03-.06.07.07 0 01.06-.03h3.343a.07.07 0 01.06.03.07.07 0 01.03.06v.566zm3.902 4.557c-.05 0-.082-.024-.097-.074l-.246-.797c-.01-.02-.022-.03-.037-.03h-1.966c-.015 0-.027.01-.037.03l-.246.797c-.015.05-.047.074-.097.074h-.744c-.03 0-.053-.01-.068-.03-.014-.014-.017-.039-.007-.074l1.616-5.034c.015-.05.047-.074.097-.074h.93c.05 0 .083.025.097.074l1.624 5.034c.005.01.007.023.007.037 0 .045-.027.067-.082.067h-.744zm-2.152-1.623c-.005.03.005.045.03.045h1.511c.03 0 .04-.015.03-.045l-.767-2.495c-.005-.02-.013-.03-.022-.03-.01 0-.018.01-.023.03l-.76 2.495zm3.835 1.623a.07.07 0 01-.06-.03.07.07 0 01-.03-.059v-5.034a.07.07 0 01.03-.06.07.07 0 01.06-.03h.685a.07.07 0 01.06.03.07.07 0 01.03.06v4.342c0 .024.012.037.036.037h2.495a.07.07 0 01.06.03.07.07 0 01.03.06v.565a.07.07 0 01-.03.06.07.07 0 01-.06.03h-3.306zm4.252 0a.07.07 0 01-.06-.03.07.07 0 01-.03-.059v-5.034a.07.07 0 01.03-.06.07.07 0 01.06-.03h.685c.025 0 .047.01.067.03a.08.08 0 01.022.06v4.342c0 .024.013.037.038.037h2.494c.025 0 .047.01.067.03a.08.08 0 01.023.06v.565a.08.08 0 01-.023.06.093.093 0 01-.067.03h-3.306z"/><path fill="#252530" d="M25.126 63.64c-.015.015-.02.03-.015.045a.05.05 0 00.044.022h2.927c.035 0 .064.013.09.038a.11.11 0 01.044.089v1.05a.113.113 0 01-.045.09.122.122 0 01-.09.037h-4.854a.131.131 0 01-.097-.038.122.122 0 01-.037-.089v-.998c0-.064.022-.119.067-.164.352-.342.712-.717 1.08-1.124.367-.407.598-.66.692-.76.198-.238.402-.466.61-.685.656-.725.984-1.263.984-1.616a.811.811 0 00-.269-.625c-.178-.16-.412-.239-.7-.239-.287 0-.52.08-.7.239a.826.826 0 00-.275.648v.268a.122.122 0 01-.037.089.122.122 0 01-.09.037h-1.273a.122.122 0 01-.09-.037.113.113 0 01-.044-.09v-.506c.025-.387.149-.732.372-1.035.224-.298.519-.526.886-.685a3.16 3.16 0 011.251-.238c.512 0 .956.097 1.333.29.378.189.668.445.872.767.208.328.312.688.312 1.08 0 .303-.076.613-.23.93-.15.319-.375.661-.678 1.029a15.33 15.33 0 01-.722.834c-.259.273-.643.667-1.155 1.184l-.163.163zm6.597 1.49c-.794 0-1.42-.221-1.876-.663-.462-.442-.693-1.045-.693-1.81v-2.852c0-.75.231-1.343.693-1.78.457-.441 1.082-.662 1.876-.662.79 0 1.418.22 1.884.663.462.436.693 1.03.693 1.78v2.851c0 .765-.23 1.368-.693 1.81-.466.442-1.094.663-1.884.663zm0-1.303c.323 0 .579-.1.767-.298.194-.199.29-.464.29-.797V59.76c0-.328-.096-.591-.29-.79-.188-.198-.444-.298-.767-.298-.317 0-.57.1-.76.298-.193.199-.29.462-.29.79v2.97c0 .334.097.6.29.798.19.198.443.298.76.298zm5.6-.187c-.014.015-.017.03-.007.045.005.015.02.022.045.022h2.926c.035 0 .065.013.09.038a.122.122 0 01.037.089v1.05a.122.122 0 01-.037.09.122.122 0 01-.09.037h-4.863a.122.122 0 01-.089-.038.122.122 0 01-.037-.089v-.998c0-.064.02-.119.06-.164.357-.342.717-.717 1.08-1.124.367-.407.597-.66.692-.76.203-.238.41-.466.618-.685.655-.725.983-1.263.983-1.616a.811.811 0 00-.268-.625c-.184-.16-.42-.239-.708-.239s-.521.08-.7.239a.837.837 0 00-.268.648v.268a.122.122 0 01-.037.089.131.131 0 01-.097.037H35.38a.122.122 0 01-.09-.037.122.122 0 01-.037-.09v-.506c.02-.387.142-.732.365-1.035a2.14 2.14 0 01.894-.685 3.138 3.138 0 011.243-.238c.512 0 .956.097 1.333.29.383.189.675.445.879.767.204.328.305.688.305 1.08 0 .303-.074.613-.223.93a5.247 5.247 0 01-.685 1.029c-.224.278-.464.556-.723.834-.258.273-.642.667-1.154 1.184l-.164.163zm6.598 1.49c-.79 0-1.415-.221-1.876-.663-.462-.442-.693-1.045-.693-1.81v-2.852c0-.75.231-1.343.693-1.78.461-.441 1.087-.662 1.876-.662.795 0 1.423.22 1.884.663.467.436.7 1.03.7 1.78v2.851c0 .765-.233 1.368-.7 1.81-.461.442-1.09.663-1.884.663zm0-1.303c.328 0 .586-.1.775-.298.188-.199.283-.464.283-.797V59.76c0-.328-.095-.591-.283-.79-.189-.198-.447-.298-.775-.298-.312 0-.566.1-.76.298-.188.199-.282.462-.282.79v2.97c0 .334.094.6.283.798.193.198.447.298.76.298z"/></g></svg>