<svg xmlns="http://www.w3.org/2000/svg" width="68" height="78" viewBox="0 0 68 78"><g fill="none"><path fill="#F8F8F8" d="M64.387 61.562L33.969 77.163 3.551 61.562V0h60.836z"/><path fill="#FFF" d="M3.623 0v61.561L64.458 0z"/><path fill="#DCDFDD" d="M63.808.579v60.629L33.97 76.513 4.13 61.208V.578h59.678M64.387 0H3.55v61.56l30.42 15.604 30.418-15.602V0z"/><path fill="#FF492C" d="M40.984 11.006l-7.076 4.112-6.954-4.112V0h14.03z"/><path fill="#FFF" d="M37.348 5.445h-1.319c.037-.208.164-.322.423-.454l.243-.124c.434-.223.664-.474.664-.883a.718.718 0 00-.298-.608 1.157 1.157 0 00-.708-.22 1.1 1.1 0 00-.602.173 1.01 1.01 0 00-.398.434l.386.385c.148-.299.363-.445.645-.445.239 0 .386.123.386.294 0 .144-.071.263-.346.402l-.155.076c-.339.171-.58.366-.71.59a1.585 1.585 0 00-.202.84V6h1.995l-.004-.556zm-.177 1.176h-2.182L33.898 8.51h2.183l1.09 1.891 1.091-1.891z"/><path fill="#FFF" d="M34.086 9.77a2.52 2.52 0 110-5.04l.863-1.806a4.41 4.41 0 101.734 7.89l-.956-1.65a2.508 2.508 0 01-1.641.607z"/><path fill="#FF492C" d="M65.778 48.386H2.161L0 42.985l2.161-5.402h63.617l2.16 5.402z"/><path fill="#FFF" d="M22.474 44.73l-.156-.517a.032.032 0 00-.033-.028h-1.361a.03.03 0 00-.034.028l-.152.517a.105.105 0 01-.106.077h-.645a.085.085 0 01-.072-.03.076.076 0 01-.005-.075l1.18-3.71a.104.104 0 01.106-.077h.817a.103.103 0 01.105.078l1.183 3.706a.06.06 0 01.006.032.07.07 0 01-.022.054.09.09 0 01-.062.019h-.644a.104.104 0 01-.105-.074zm-1.361-1.151h.983c.022 0 .031-.013.028-.039l-.5-1.694c0-.015-.01-.023-.02-.023s-.018.008-.025.023l-.494 1.694c-.004.026.006.039.028.039zm2.694 1.133v-3.7a.084.084 0 01.096-.096h.572a.124.124 0 01.112.061l1.389 2.315c.007.015.015.02.025.017.01-.004.014-.013.014-.028v-2.269a.084.084 0 01.096-.096h.584a.084.084 0 01.096.096v3.7a.083.083 0 01-.096.097h-.568a.131.131 0 01-.11-.067l-1.395-2.333c-.007-.015-.016-.02-.025-.017-.01.004-.014.013-.014.027l.006 2.295a.083.083 0 01-.096.097H23.9a.083.083 0 01-.094-.099zm3.494 0v-.55a.17.17 0 01.04-.116l1.777-2.417a.028.028 0 00.006-.027c0-.008-.013-.012-.028-.012h-1.703a.083.083 0 01-.097-.096v-.483a.084.084 0 01.097-.096h2.517a.084.084 0 01.097.096v.55a.169.169 0 01-.04.117l-1.777 2.417c-.008.011-.01.02-.006.028s.013.01.028.01h1.7a.084.084 0 01.097.097v.482a.083.083 0 01-.097.097h-2.52a.083.083 0 01-.09-.097zm4.923-.005a1.157 1.157 0 01-.505-.406 1.061 1.061 0 01-.179-.607v-.097a.083.083 0 01.097-.096h.579c.062 0 .096.024.096.072v.077a.453.453 0 00.203.375.857.857 0 00.53.153.65.65 0 00.437-.125.398.398 0 00.14-.308.308.308 0 00-.088-.225.78.78 0 00-.238-.161 7.59 7.59 0 00-.482-.193 4.457 4.457 0 01-.633-.261 1.29 1.29 0 01-.433-.364.903.903 0 01-.179-.57 1.003 1.003 0 01.173-.583 1.09 1.09 0 01.482-.385c.223-.093.462-.138.703-.134.26-.004.518.047.756.15.208.09.388.235.52.42.125.184.19.403.186.626v.054a.084.084 0 01-.097.097h-.578c-.064 0-.097-.018-.097-.056v-.055a.503.503 0 00-.193-.397.782.782 0 00-.525-.164.666.666 0 00-.41.11.366.366 0 00-.145.306.342.342 0 00.083.234.764.764 0 00.253.172c.112.052.289.119.525.2.259.097.465.18.617.253.159.078.298.191.408.33.125.164.19.367.18.573.005.211-.056.419-.175.594a1.126 1.126 0 01-.493.394 2.1 2.1 0 01-1.515-.005l-.003.002zm4.621-.772a.096.096 0 01.073-.039.08.08 0 01.06.027l.318.306c.02.017.031.04.033.066a.103.103 0 01-.023.068 1.265 1.265 0 01-.468.358c-.197.088-.41.132-.625.13a1.342 1.342 0 01-.848-.26 1.276 1.276 0 01-.453-.717 1.962 1.962 0 01-.066-.517 2.098 2.098 0 01.06-.545c.069-.265.227-.499.448-.66.23-.17.511-.258.797-.25.322-.019.636.098.868.322.23.25.375.567.414.905.014.122.026.258.034.405a.083.083 0 01-.097.097h-1.707a.03.03 0 00-.033.034c.007.058.02.116.039.171a.45.45 0 00.22.265.803.803 0 00.396.091.728.728 0 00.56-.257zm-1.002-1.27a.427.427 0 00-.164.242c-.019.07-.03.116-.033.138-.004.023.005.034.027.034h.945c.018 0 .028-.008.028-.022a.505.505 0 00-.195-.384.555.555 0 00-.608-.008zm2.115 2.047v-3.7a.084.084 0 01.096-.096h.595a.083.083 0 01.097.096v3.7a.083.083 0 01-.097.097h-.595a.083.083 0 01-.096-.097zm1.384 0v-3.7a.083.083 0 01.096-.096h.59a.084.084 0 01.097.096v3.7a.083.083 0 01-.097.097h-.595a.083.083 0 01-.091-.097zm3.31-.777a.096.096 0 01.073-.039c.023 0 .045.01.061.027l.316.306c.02.017.032.04.034.066a.109.109 0 01-.022.068 1.268 1.268 0 01-.47.358c-.196.088-.41.132-.625.13a1.35 1.35 0 01-.848-.26 1.28 1.28 0 01-.452-.717 1.962 1.962 0 01-.067-.517 2.098 2.098 0 01.061-.545 1.19 1.19 0 01.448-.66c.23-.17.511-.258.797-.25.32-.017.633.1.864.322.23.25.375.567.413.905.016.122.027.258.034.405a.083.083 0 01-.096.097h-1.704a.03.03 0 00-.033.034.86.86 0 00.038.171.457.457 0 00.22.265c.123.064.26.095.398.091a.731.731 0 00.56-.257zm-1.002-1.27a.432.432 0 00-.164.242c-.019.07-.03.116-.034.138-.004.023.006.034.028.034h.944c.02 0 .028-.008.028-.022a.418.418 0 00-.022-.128.503.503 0 00-.172-.256.497.497 0 00-.311-.096.49.49 0 00-.297.088zm3.82-.686c.043.02.064.07.05.116l-.107.584c0 .034-.013.054-.03.062a.16.16 0 01-.08 0 .641.641 0 00-.289-.012.545.545 0 00-.34.148.453.453 0 00-.138.347v1.488a.083.083 0 01-.097.097h-.594a.083.083 0 01-.096-.097v-2.667a.083.083 0 01.096-.096h.594a.083.083 0 01.097.096v.173c0 .014 0 .024.011.028.012.004.017 0 .028-.012a.694.694 0 01.6-.322.587.587 0 01.294.067zm.855 2.761a.965.965 0 01-.427-.294.668.668 0 01-.15-.428v-.027a.083.083 0 01.096-.097h.56c.064 0 .097.01.097.033v.04a.249.249 0 00.133.208c.103.06.22.09.339.086a.579.579 0 00.306-.073.215.215 0 00.117-.192.16.16 0 00-.097-.15 1.688 1.688 0 00-.328-.106 3.503 3.503 0 01-.405-.127 1.78 1.78 0 01-.572-.3.632.632 0 01-.211-.512.772.772 0 01.322-.653 1.37 1.37 0 01.844-.242 1.61 1.61 0 01.625.114.942.942 0 01.417.32c.098.136.15.3.147.466a.06.06 0 01-.025.048.106.106 0 01-.07.02H47.5c-.064 0-.097-.012-.097-.034v-.034a.246.246 0 00-.122-.205.579.579 0 00-.328-.083.617.617 0 00-.303.066.204.204 0 00-.12.184c0 .073.045.14.114.167.121.05.247.09.375.116.106.022.21.05.312.083.226.06.44.161.628.3.156.132.24.33.227.534a.74.74 0 01-.328.642c-.218.153-.51.23-.877.23a1.826 1.826 0 01-.656-.1z"/><path fill="#252530" d="M13.424 54.73c0 .008.006.014.016.02a.608.608 0 01.33.585.634.634 0 01-.256.551c-.2.13-.437.194-.675.182h-.965a.063.063 0 01-.066-.067v-2.46a.063.063 0 01.066-.066h.934c.301 0 .529.057.683.17.154.115.231.298.231.552a.531.531 0 01-.289.515c-.003.005-.009.011-.009.019zm-.996-.703v.452c0 .017.009.025.026.025h.36a.367.367 0 00.233-.064.22.22 0 00.081-.184.231.231 0 00-.08-.193.362.362 0 00-.234-.066h-.36a.023.023 0 00-.026.03zm.645 1.447a.247.247 0 00.081-.2.241.241 0 00-.079-.192.342.342 0 00-.231-.069h-.386a.023.023 0 00-.026.026v.478a.023.023 0 00.026.026h.386a.35.35 0 00.23-.073v.004zm2.938-1.492a.066.066 0 01-.048.019h-1.13a.023.023 0 00-.026.026v.44a.023.023 0 00.026.027h.714a.063.063 0 01.067.066v.386a.064.064 0 01-.018.048.066.066 0 01-.049.018h-.714a.023.023 0 00-.026.027v.474a.023.023 0 00.026.026h1.133a.07.07 0 01.048.018c.013.013.02.03.019.049v.392a.063.063 0 01-.067.067h-1.707a.063.063 0 01-.048-.019.067.067 0 01-.02-.048v-2.456a.07.07 0 01.02-.049.063.063 0 01.048-.018h1.707a.063.063 0 01.067.067v.392a.064.064 0 01-.022.048zM16.827 56a.744.744 0 01-.469-.706v-.048c0-.018.006-.035.019-.047a.065.065 0 01.048-.02h.47c.018 0 .035.005.05.014a.04.04 0 01.017.03v.046a.263.263 0 00.121.21c.089.066.198.1.309.097a.35.35 0 00.24-.07.21.21 0 00.078-.164.177.177 0 00-.09-.159 1.62 1.62 0 00-.325-.129l-.08-.026a2.908 2.908 0 01-.416-.169.886.886 0 01-.305-.255.627.627 0 01-.127-.399.685.685 0 01.12-.401c.085-.118.2-.21.335-.265a1.2 1.2 0 01.482-.097c.176-.002.351.033.513.104a.837.837 0 01.357.29.745.745 0 01.13.433v.036a.068.068 0 01-.018.048.066.066 0 01-.048.018h-.471a.114.114 0 01-.048-.009.03.03 0 01-.019-.028v-.03a.3.3 0 00-.115-.229.454.454 0 00-.307-.096.376.376 0 00-.226.06.193.193 0 00-.082.166.186.186 0 00.052.135.499.499 0 00.161.097c.074.03.184.07.336.12.173.06.307.111.403.156a.807.807 0 01.272.216.58.58 0 01.128.394.697.697 0 01-.122.41.79.79 0 01-.344.272c-.332.13-.7.13-1.032 0l.003-.005zm3.777-2.506a.07.07 0 01.018.049v.396a.07.07 0 01-.018.048.066.066 0 01-.049.019h-.619c-.017 0-.025.008-.025.026V56a.067.067 0 01-.02.048.064.064 0 01-.048.019h-.482a.063.063 0 01-.066-.067v-1.97a.023.023 0 00-.026-.026h-.596a.064.064 0 01-.048-.019.066.066 0 01-.018-.048v-.396c0-.018.006-.036.018-.049a.064.064 0 01.048-.018h1.882c.018 0 .036.006.049.018zM22.22 56a.744.744 0 01-.469-.706v-.048c0-.018.006-.035.019-.047a.067.067 0 01.048-.02h.47c.018 0 .034.005.049.014a.04.04 0 01.018.03v.046a.263.263 0 00.12.21c.09.066.199.1.31.097a.35.35 0 00.24-.07c.05-.04.078-.1.079-.164a.178.178 0 00-.091-.159 1.662 1.662 0 00-.325-.129l-.081-.026a2.908 2.908 0 01-.415-.169.886.886 0 01-.304-.252.627.627 0 01-.126-.398.685.685 0 01.12-.401c.085-.118.2-.21.334-.265a1.2 1.2 0 01.482-.097c.177-.003.352.033.514.104a.837.837 0 01.357.29.745.745 0 01.13.433v.032a.068.068 0 01-.019.048.066.066 0 01-.048.018h-.47a.114.114 0 01-.049-.009.03.03 0 01-.018-.028v-.03a.3.3 0 00-.115-.229.452.452 0 00-.308-.096.376.376 0 00-.225.06.193.193 0 00-.082.166.186.186 0 00.052.135.499.499 0 00.16.097c.074.03.186.07.337.12.172.06.307.111.403.156a.82.82 0 01.273.216.59.59 0 01.127.394.697.697 0 01-.122.41.79.79 0 01-.345.272c-.331.13-.7.13-1.03 0V56zm2.33-.011a.868.868 0 01-.355-.339.997.997 0 01-.125-.507V54.4a.974.974 0 01.125-.499.876.876 0 01.354-.336 1.22 1.22 0 011.061 0 .868.868 0 01.356.336c.086.152.13.324.127.499v.74a.997.997 0 01-.127.508.861.861 0 01-.356.339 1.22 1.22 0 01-1.06 0zm.814-.52a.43.43 0 00.11-.308v-.772a.433.433 0 00-.11-.305.378.378 0 00-.289-.117.37.37 0 00-.282.117.43.43 0 00-.11.305v.772a.426.426 0 00.11.308.373.373 0 00.282.115.386.386 0 00.292-.115h-.003zm2.958-1.486a.064.064 0 01-.048.019h-1.13a.023.023 0 00-.026.026v.44a.023.023 0 00.026.027h.715a.064.064 0 01.048.018c.012.013.02.03.018.048v.386a.063.063 0 01-.066.066h-.715a.023.023 0 00-.026.027v.964a.066.066 0 01-.018.048.064.064 0 01-.049.019h-.482a.064.064 0 01-.048-.019.066.066 0 01-.018-.048v-2.461a.068.068 0 01.018-.049.064.064 0 01.048-.018h1.704a.064.064 0 01.048.018c.012.013.019.03.018.049v.392a.064.064 0 01-.017.048zm2.237-.489c.013.013.02.03.019.049v.396a.063.063 0 01-.067.067h-.618a.023.023 0 00-.026.026V56a.067.067 0 01-.02.048.062.062 0 01-.047.019h-.482a.066.066 0 01-.048-.019.07.07 0 01-.018-.048v-1.97a.023.023 0 00-.026-.026h-.597a.063.063 0 01-.066-.067v-.396a.063.063 0 01.066-.067h1.882c.018 0 .036.006.048.018zm.885 2.519l-.675-2.463a.045.045 0 010-.022c0-.035.02-.052.059-.052h.52a.08.08 0 01.05.016.072.072 0 01.024.043l.311 1.308c.005.01.01.014.018.014.005 0 .01-.005.012-.014l.296-1.31a.067.067 0 01.075-.059h.44a.07.07 0 01.075.059l.325 1.308c.006.01.01.014.017.014.007 0 .01-.005.013-.014l.289-1.308a.064.064 0 01.024-.043.078.078 0 01.05-.016h.504a.054.054 0 01.059.074l-.615 2.46a.07.07 0 01-.074.059h-.493a.08.08 0 01-.05-.017.07.07 0 01-.024-.042l-.31-1.39c0-.012-.009-.018-.015-.018-.007 0-.013.006-.016.018l-.281 1.39a.065.065 0 01-.07.059h-.46a.07.07 0 01-.078-.054zm4.03 0l-.085-.304a.026.026 0 00-.029-.022h-.837a.029.029 0 00-.03.022l-.085.304a.07.07 0 01-.074.056h-.523a.059.059 0 01-.051-.02.055.055 0 010-.055l.77-2.461a.075.075 0 01.079-.055h.655c.036-.004.07.02.078.055l.781 2.463a.056.056 0 010 .026c0 .032-.02.049-.059.049h-.523a.068.068 0 01-.066-.058zm-.83-.822a.02.02 0 00.022.022h.55a.021.021 0 00.02-.01.024.024 0 000-.02l-.282-.985c0-.012-.007-.018-.014-.018-.006 0-.011.006-.016.018l-.282.985.002.008zm3.186.826l-.43-.965a.028.028 0 00-.029-.018h-.23a.023.023 0 00-.026.025V56a.067.067 0 01-.019.048.062.062 0 01-.047.019h-.482a.066.066 0 01-.049-.019A.07.07 0 0136.5 56v-2.457a.07.07 0 01.018-.049.066.066 0 01.049-.018h1.078a.879.879 0 01.43.096.71.71 0 01.289.283c.067.13.1.274.096.42a.751.751 0 01-.12.427.681.681 0 01-.335.262.025.025 0 00-.015.038l.474.985.008.03c0 .031-.02.048-.06.048h-.506a.078.078 0 01-.076-.048zm-.715-1.99v.512a.023.023 0 00.027.026h.403a.316.316 0 00.222-.076.257.257 0 00.085-.202.267.267 0 00-.085-.207.313.313 0 00-.222-.078h-.403a.023.023 0 00-.027.026zm3.574-.044a.064.064 0 01-.048.019h-1.133a.023.023 0 00-.027.026v.44a.023.023 0 00.027.027h.713a.063.063 0 01.049.018c.012.013.02.03.019.048v.386a.065.065 0 01-.068.066h-.713a.023.023 0 00-.027.027v.474a.023.023 0 00.027.026h1.133a.065.065 0 01.068.067v.392a.067.067 0 01-.02.048.064.064 0 01-.048.019h-1.707a.063.063 0 01-.067-.067v-2.456a.063.063 0 01.067-.067h1.707a.064.064 0 01.048.018c.013.013.02.03.02.049v.392a.065.065 0 01-.02.048zm2.878 2.03l-.085-.304a.027.027 0 00-.03-.022h-.837a.03.03 0 00-.03.022l-.085.304a.07.07 0 01-.074.056h-.522a.051.051 0 01-.056-.075l.779-2.461a.073.073 0 01.077-.055h.656c.036-.004.07.02.078.055l.781 2.463a.073.073 0 010 .026c0 .032-.02.049-.06.049h-.521a.07.07 0 01-.07-.058zm-.83-.822a.02.02 0 00.023.022h.548a.02.02 0 00.02-.01.021.021 0 000-.02l-.282-.985c0-.012-.006-.018-.012-.018s-.012.006-.017.018l-.281.985.002.008zm1.89.822l-.676-2.463a.045.045 0 010-.022c0-.035.02-.052.059-.052h.519a.08.08 0 01.05.016.067.067 0 01.024.043l.31 1.308c.006.01.011.014.017.014.006 0 .01-.005.014-.014l.293-1.31a.067.067 0 01.074-.059h.44a.07.07 0 01.075.059l.325 1.308c.006.01.01.014.018.014.006 0 .01-.005.012-.014l.29-1.308a.064.064 0 01.024-.043.078.078 0 01.05-.016h.503a.054.054 0 01.06.074l-.617 2.462a.07.07 0 01-.074.059h-.493a.08.08 0 01-.05-.017.07.07 0 01-.025-.042l-.31-1.39c0-.012-.008-.018-.015-.018-.006 0-.012.006-.015.018l-.282 1.39a.065.065 0 01-.07.059h-.46a.07.07 0 01-.07-.056zm4.026 0l-.086-.304c0-.015-.012-.022-.03-.022h-.836a.029.029 0 00-.03.022l-.085.304a.07.07 0 01-.074.056h-.523a.059.059 0 01-.05-.02.055.055 0 010-.055l.773-2.461a.075.075 0 01.078-.055h.655c.036-.004.07.02.078.055l.781 2.463a.056.056 0 010 .026c0 .032-.019.049-.058.049h-.523a.069.069 0 01-.07-.058zm-.83-.822a.02.02 0 00.022.022h.549a.021.021 0 00.02-.01.024.024 0 000-.02l-.284-.985c0-.012-.006-.018-.013-.018-.007 0-.012.006-.016.018l-.282.985.004.008zm3.186.826l-.43-.965a.028.028 0 00-.03-.018h-.229a.023.023 0 00-.026.025V56a.067.067 0 01-.02.048.062.062 0 01-.047.019h-.482a.066.066 0 01-.048-.019.07.07 0 01-.018-.048v-2.457a.07.07 0 01.018-.049.066.066 0 01.048-.018h1.078a.879.879 0 01.43.096.71.71 0 01.29.283c.067.13.1.274.096.42a.767.767 0 01-.12.427.681.681 0 01-.336.262.025.025 0 00-.014.038l.473.985.008.03c0 .031-.02.048-.059.048h-.508a.078.078 0 01-.074-.048zm-.715-1.99v.512a.023.023 0 00.026.026h.403a.316.316 0 00.222-.076.257.257 0 00.086-.202.267.267 0 00-.086-.207.313.313 0 00-.222-.078h-.403a.023.023 0 00-.026.026zm1.77 2.023a.066.066 0 01-.018-.048v-2.46a.063.063 0 01.066-.066h.922c.176-.005.35.028.511.096a.751.751 0 01.467.71v.972c.003.15-.04.3-.122.426a.781.781 0 01-.345.29 1.234 1.234 0 01-.51.096h-.923a.066.066 0 01-.048-.016zm.622-.507h.374a.306.306 0 00.241-.106.43.43 0 00.097-.284v-.763a.408.408 0 00-.097-.282.317.317 0 00-.247-.106h-.37a.023.023 0 00-.026.026v1.489a.023.023 0 00.028.026zm2.147.457a.744.744 0 01-.469-.706v-.048c0-.018.006-.035.019-.047a.065.065 0 01.048-.02h.47c.018 0 .034.005.049.014a.04.04 0 01.018.03v.046a.263.263 0 00.12.21c.09.066.199.1.31.097a.35.35 0 00.24-.07.21.21 0 00.078-.164.177.177 0 00-.091-.159 1.62 1.62 0 00-.324-.129l-.081-.026a2.908 2.908 0 01-.415-.169.886.886 0 01-.304-.252.627.627 0 01-.126-.398.685.685 0 01.12-.401c.085-.118.2-.21.334-.265a1.2 1.2 0 01.482-.097c.177-.003.352.033.514.104a.837.837 0 01.357.29.745.745 0 01.13.433v.032a.068.068 0 01-.019.048.066.066 0 01-.048.018h-.47a.114.114 0 01-.049-.009.03.03 0 01-.018-.028v-.03a.3.3 0 00-.115-.229.454.454 0 00-.308-.096.376.376 0 00-.225.06.193.193 0 00-.082.166.186.186 0 00.052.135.499.499 0 00.16.097c.074.03.185.07.337.12.172.06.306.111.403.156a.807.807 0 01.272.216.58.58 0 01.128.394.697.697 0 01-.122.41.79.79 0 01-.345.272c-.331.13-.7.13-1.03 0V56zM26.74 64.95a.133.133 0 01-.037-.096v-.749c0-.062.027-.122.075-.163a12.9 12.9 0 00.57-.562c.198-.207.385-.405.563-.593.326-.341.479-.502.459-.483.45-.464.675-.802.675-1.014a.455.455 0 00-.159-.356.599.599 0 00-.41-.141.587.587 0 00-.409.14.482.482 0 00-.155.371v.137a.127.127 0 01-.133.134h-.98a.13.13 0 01-.096-.037.126.126 0 01-.036-.097v-.328c.014-.264.11-.518.274-.726.169-.214.39-.38.644-.482a2.28 2.28 0 01.89-.167c.33-.008.659.062.958.203.258.121.476.313.63.552.264.417.291.943.07 1.385-.119.238-.268.46-.444.66-.344.393-.707.77-1.09 1.125l-.207.201c-.02.02-.027.036-.022.047.005.012.02.02.044.02h1.808a.133.133 0 01.096.036.13.13 0 01.037.097v.785a.126.126 0 01-.133.133h-3.386a.13.13 0 01-.096-.032zm4.645-.352c-.326-.321-.489-.755-.489-1.3V61.49c0-.542.163-.97.49-1.28.325-.312.772-.467 1.34-.467.568 0 1.018.156 1.35.47.332.312.497.738.496 1.277v1.808c0 .549-.165.982-.496 1.3-.33.318-.78.478-1.35.482-.568-.002-1.015-.163-1.34-.482zm1.79-.755a.666.666 0 00.166-.482v-1.915a.662.662 0 00-.167-.477.594.594 0 00-.448-.175.572.572 0 00-.437.175.668.668 0 00-.163.477v1.918a.684.684 0 00.16.483.56.56 0 00.44.173.593.593 0 00.448-.177zm2.003 1.107a.133.133 0 01-.037-.096v-.749a.21.21 0 01.074-.163c.183-.168.373-.355.57-.562l.564-.593c.326-.34.482-.5.459-.483.45-.464.675-.802.675-1.014a.455.455 0 00-.16-.356.6.6 0 00-.411-.141.585.585 0 00-.407.14.482.482 0 00-.155.371v.137a.128.128 0 01-.134.134h-.978a.128.128 0 01-.135-.134v-.328c.016-.264.112-.518.275-.726.17-.214.391-.38.645-.482.282-.115.584-.172.888-.167.331-.008.66.062.96.203.257.121.476.313.63.552.263.418.29.943.07 1.385a3.12 3.12 0 01-.445.66 15.42 15.42 0 01-1.087 1.13l-.207.2c-.02.02-.027.037-.022.048.005.012.019.02.044.02h1.806a.126.126 0 01.133.133v.785a.133.133 0 01-.037.096.13.13 0 01-.096.037h-3.386a.13.13 0 01-.096-.037zm4.897-5.149h1.015a.13.13 0 01.097.038c.025.025.039.06.036.096v4.92a.126.126 0 01-.133.133h-.964a.128.128 0 01-.134-.133v-3.876a.05.05 0 00-.015-.037.034.034 0 00-.036-.007l-.622.074h-.024c-.078 0-.117-.041-.117-.126v-.689c0-.069.045-.129.11-.148l.623-.215a.39.39 0 01.164-.03zM22.438 23.704a.228.228 0 01.065.168v1.387a.222.222 0 01-.233.234h-2.165a.08.08 0 00-.09.09v6.897a.231.231 0 01-.065.169.228.228 0 01-.17.064h-1.684a.222.222 0 01-.234-.233v-6.897a.08.08 0 00-.09-.09h-2.088a.222.222 0 01-.233-.234v-1.387a.222.222 0 01.233-.233h6.586a.227.227 0 01.168.065zm.85 8.491a3.053 3.053 0 01-1.096-1.686 4.12 4.12 0 01-.155-1.166c0-.423.056-.845.168-1.254a2.887 2.887 0 011.109-1.6c.54-.387 1.194-.58 1.964-.58.76 0 1.403.193 1.929.58a2.99 2.99 0 011.102 1.588 4.475 4.475 0 01.04 2.386 3.043 3.043 0 01-1.088 1.724c-.544.423-1.21.635-1.997.635-.777-.003-1.436-.212-1.976-.627zm2.604-1.458c.18-.18.304-.407.357-.655.054-.243.08-.49.077-.739a3.126 3.126 0 00-.09-.752 1.22 1.22 0 00-.35-.622.903.903 0 00-.623-.22.892.892 0 00-.628.22c-.172.17-.292.386-.344.622a2.571 2.571 0 00-.09.752 3.27 3.27 0 00.077.739c.061.247.187.472.363.655.167.16.391.247.622.24.234.006.46-.08.63-.24zm10.042-1.343a4.55 4.55 0 01-.272 1.634c-.187.52-.522.973-.965 1.303-.43.328-.956.503-1.497.499-.656 0-1.149-.199-1.477-.596-.026-.035-.05-.047-.072-.039-.02.009-.032.035-.032.078v2.58a.228.228 0 01-.065.168.231.231 0 01-.169.065h-1.687a.231.231 0 01-.169-.065.228.228 0 01-.064-.168v-8.609a.222.222 0 01.233-.232h1.685a.222.222 0 01.234.232v.312c0 .043.01.07.032.078.023.008.046-.005.072-.04.328-.457.82-.686 1.477-.686a2.475 2.475 0 011.556.557c.47.364.81.868.973 1.44.146.482.216.985.207 1.49zm-2.308-.038c0-.441-.074-.8-.22-1.076a.862.862 0 00-.791-.482c-.329 0-.584.164-.765.493a2.26 2.26 0 00-.22 1.06c0 .476.078.856.234 1.142a.839.839 0 00.75.44.86.86 0 00.78-.454c.155-.282.232-.656.232-1.123zm5.727 3.293a.228.228 0 01-.064-.17v-1.308a.368.368 0 01.129-.29c.321-.293.654-.62.998-.984l.986-1.038c.57-.596.838-.877.803-.842.786-.812 1.18-1.404 1.18-1.777a.796.796 0 00-.279-.622c-.2-.17-.457-.257-.72-.246a1.021 1.021 0 00-.712.246.835.835 0 00-.272.648v.234a.223.223 0 01-.234.233H39.46a.222.222 0 01-.232-.233v-.57c.026-.463.195-.907.482-1.27.296-.372.684-.66 1.125-.836a4.003 4.003 0 011.556-.29c.58-.012 1.154.11 1.679.358.45.212.832.546 1.101.964.463.731.51 1.65.124 2.425-.209.418-.47.807-.779 1.157-.37.45-1.006 1.107-1.906 1.971l-.362.347c-.035.035-.047.063-.039.084.009.021.035.033.078.033h3.163a.228.228 0 01.169.065.231.231 0 01.064.168v1.374a.231.231 0 01-.064.169.228.228 0 01-.169.064h-5.924a.228.228 0 01-.172-.064zm13.538-2.879c0 .427-.079.849-.234 1.246-.227.538-.62.99-1.122 1.29a3.361 3.361 0 01-1.808.482 3.398 3.398 0 01-1.802-.474 2.745 2.745 0 01-1.32-1.99v-.052c0-.129.073-.193.22-.193h1.75a.267.267 0 01.26.169c.016.06.042.117.077.168.06.162.172.301.318.395a.91.91 0 00.499.136.86.86 0 00.8-.518c.106-.19.16-.404.156-.622a1.276 1.276 0 00-.13-.662.75.75 0 00-.304-.369.965.965 0 00-.526-.136c-.354 0-.622.12-.804.363a.59.59 0 01-.123.116.261.261 0 01-.149.04h-1.813a.229.229 0 01-.169-.066.226.226 0 01-.064-.167v-5.054a.222.222 0 01.233-.233h5.523a.223.223 0 01.233.233v1.375a.223.223 0 01-.233.232h-3.514a.081.081 0 00-.09.092v1.452a.085.085 0 00.026.07c.017.013.043.012.078-.006.361-.198.767-.3 1.18-.298a2.85 2.85 0 011.62.467c.462.306.816.75 1.01 1.27.145.4.22.82.222 1.244z"/></g></svg>