<svg xmlns="http://www.w3.org/2000/svg" width="58" height="66" viewBox="0 0 58 66"><g fill="none"><path fill="#F8F8F8" d="M54.918 52.509L28.974 65.816 3.029 52.509V0h51.889z"/><path fill="#FFF" d="M3.09 0v52.508L54.979 0z"/><path fill="#DCDFDD" d="M54.425.494v51.713L28.974 65.26 3.523 52.207V.494h50.902M54.918 0H3.03v52.508l25.945 13.308 25.944-13.308V0z"/><path fill="#FF492C" d="M34.957 9.388l-6.035 3.507-5.932-3.507V0h11.967z"/><path fill="#FFF" d="M31.856 4.644H30.73c.031-.177.14-.275.36-.387l.208-.106c.37-.19.566-.404.566-.753a.612.612 0 00-.254-.519.987.987 0 00-.604-.186.939.939 0 00-.514.146.862.862 0 00-.339.37l.33.33c.125-.256.309-.38.55-.38.203 0 .329.105.329.25 0 .123-.061.225-.296.343l-.132.065c-.289.146-.494.312-.605.503a1.352 1.352 0 00-.172.717v.082h1.7l-.002-.475zm-.151 1.003h-1.862l-.93 1.612h1.862l.93 1.612.93-1.612z"/><path fill="#FFF" d="M29.073 8.334a2.15 2.15 0 110-4.3l.737-1.54a3.761 3.761 0 101.48 6.73l-.817-1.408a2.14 2.14 0 01-1.4.518z"/><path fill="#FF492C" d="M56.105 41.27H1.843L0 36.663l1.843-4.607h54.262l1.842 4.607z"/><path fill="#FFF" d="M19.169 38.152l-.133-.441a.027.027 0 00-.028-.024h-1.161a.026.026 0 00-.03.024l-.13.44a.09.09 0 01-.089.066h-.55a.072.072 0 01-.062-.025.065.065 0 01-.004-.064l1.007-3.163a.089.089 0 01.09-.067h.697a.089.089 0 01.09.067l1.009 3.16a.063.063 0 01.005.028.058.058 0 01-.02.046.077.077 0 01-.052.016h-.55a.089.089 0 01-.09-.063zm-1.161-.982h.838c.02 0 .027-.01.024-.033l-.426-1.445c0-.013-.009-.02-.017-.02-.009 0-.015.007-.022.02l-.42 1.445c-.004.022.004.033.023.033zm2.298.967V34.98a.072.072 0 01.082-.082h.488a.106.106 0 01.095.052l1.185 1.975c.006.012.013.017.021.014.009-.003.012-.01.012-.024V34.98a.072.072 0 01.082-.082h.498a.072.072 0 01.082.082v3.156a.07.07 0 01-.082.082h-.484a.112.112 0 01-.094-.057L21 36.172c-.006-.012-.013-.017-.021-.014-.009.004-.012.011-.012.023l.005 1.957a.07.07 0 01-.082.083h-.505a.07.07 0 01-.08-.084zm2.98 0v-.47a.146.146 0 01.034-.099l1.516-2.061a.024.024 0 00.005-.023c0-.007-.011-.01-.024-.01h-1.452a.07.07 0 01-.083-.082v-.412a.072.072 0 01.083-.082h2.147a.072.072 0 01.082.082v.47a.144.144 0 01-.034.099l-1.516 2.061c-.006.01-.008.018-.005.024.003.007.012.01.024.01h1.45a.072.072 0 01.083.082v.41a.07.07 0 01-.083.083h-2.148a.07.07 0 01-.079-.082zm4.2-.004a.987.987 0 01-.432-.347.905.905 0 01-.152-.518v-.082a.07.07 0 01.082-.082h.494c.053 0 .082.02.082.061v.066a.39.39 0 00.173.32.73.73 0 00.453.13.554.554 0 00.372-.106.34.34 0 00.12-.263.262.262 0 00-.075-.192.666.666 0 00-.204-.137 6.474 6.474 0 00-.41-.165 3.802 3.802 0 01-.54-.223 1.1 1.1 0 01-.37-.31.77.77 0 01-.152-.485.856.856 0 01.147-.498.932.932 0 01.411-.33 1.5 1.5 0 01.6-.113c.222-.003.441.04.644.129.178.075.332.199.444.357a.922.922 0 01.159.534v.046a.072.072 0 01-.083.083h-.493c-.055 0-.083-.016-.083-.048v-.047a.43.43 0 00-.164-.339.667.667 0 00-.448-.14.568.568 0 00-.35.095.312.312 0 00-.124.26.292.292 0 00.071.2.652.652 0 00.216.147c.096.044.247.101.448.17.22.083.397.154.526.216a.993.993 0 01.348.282c.107.14.162.312.154.488a.874.874 0 01-.15.507.96.96 0 01-.42.336c-.417.16-.877.158-1.292-.004l-.003.002zm3.941-.66a.082.082 0 01.062-.032c.02 0 .038.008.051.023l.271.26a.082.082 0 01.028.057.092.092 0 01-.019.058 1.079 1.079 0 01-.4.305c-.167.075-.35.113-.533.111a1.144 1.144 0 01-.723-.222 1.088 1.088 0 01-.386-.611 1.673 1.673 0 01-.056-.441 1.79 1.79 0 01.051-.465 1.01 1.01 0 01.382-.563c.197-.145.436-.22.68-.213a.987.987 0 01.74.274c.196.214.32.485.353.773.012.103.022.22.029.345a.07.07 0 01-.083.083h-1.456a.026.026 0 00-.028.028.68.68 0 00.033.147c.03.097.098.178.188.225.104.055.22.082.338.078a.617.617 0 00.478-.22zm-.855-1.082a.364.364 0 00-.14.206c-.016.06-.025.1-.028.118-.004.02.004.029.023.029h.806c.015 0 .024-.007.024-.019a.431.431 0 00-.166-.327.473.473 0 00-.519-.007zm1.804 1.746V34.98a.072.072 0 01.082-.082h.507a.07.07 0 01.083.082v3.156a.07.07 0 01-.083.082h-.507a.07.07 0 01-.082-.082zm1.18 0V34.98a.07.07 0 01.082-.082h.504a.072.072 0 01.082.082v3.156a.07.07 0 01-.082.082h-.508a.07.07 0 01-.078-.082zm2.824-.663a.082.082 0 01.062-.033c.02 0 .038.009.052.023l.27.26a.082.082 0 01.029.057.095.095 0 01-.02.058 1.082 1.082 0 01-.4.305c-.168.075-.35.113-.533.111-.26.01-.514-.068-.723-.222a1.093 1.093 0 01-.386-.611 1.673 1.673 0 01-.057-.441 1.79 1.79 0 01.052-.465c.058-.226.193-.425.382-.563.197-.145.436-.22.68-.213a.987.987 0 01.736.274c.197.214.32.485.353.773.013.103.023.22.03.345a.07.07 0 01-.083.083H35.37a.026.026 0 00-.029.028c.006.05.017.1.033.147a.39.39 0 00.188.225.688.688 0 00.339.078.616.616 0 00.478-.22zm-.855-1.083a.369.369 0 00-.14.206c-.016.06-.026.1-.029.118-.003.02.005.029.024.029h.805c.017 0 .024-.007.024-.019a.356.356 0 00-.019-.11.43.43 0 00-.146-.217.424.424 0 00-.266-.083.418.418 0 00-.253.076zm3.258-.586c.037.018.055.06.042.1l-.09.498c0 .028-.012.046-.026.052a.136.136 0 01-.069 0 .547.547 0 00-.246-.01.465.465 0 00-.29.126.387.387 0 00-.118.296v1.27a.07.07 0 01-.082.082h-.507a.07.07 0 01-.082-.082v-2.275a.07.07 0 01.082-.082h.507a.07.07 0 01.082.082v.147c0 .013 0 .02.01.024s.014 0 .024-.01a.592.592 0 01.512-.274.501.501 0 01.25.056zm.73 2.356a.823.823 0 01-.365-.251.57.57 0 01-.128-.365v-.024a.07.07 0 01.082-.082h.479c.053 0 .082.01.082.028v.034a.212.212 0 00.113.178.526.526 0 00.29.073.494.494 0 00.26-.062.183.183 0 00.1-.164.136.136 0 00-.083-.128 1.44 1.44 0 00-.28-.09 2.988 2.988 0 01-.345-.109 1.519 1.519 0 01-.488-.256.539.539 0 01-.18-.436.658.658 0 01.275-.557c.21-.146.464-.218.72-.206.182-.004.363.03.533.097.142.055.265.15.355.273a.664.664 0 01.126.397.049.049 0 01-.021.04.09.09 0 01-.06.018h-.464c-.054 0-.082-.01-.082-.029v-.029a.21.21 0 00-.104-.175.494.494 0 00-.28-.07.527.527 0 00-.258.056.174.174 0 00-.102.156c0 .063.038.12.097.143.103.043.21.077.32.1.09.018.178.041.265.07.194.05.375.137.536.256a.551.551 0 01.194.455.632.632 0 01-.28.548c-.186.13-.436.196-.748.196-.19.006-.38-.023-.56-.085z"/><path fill="#252530" d="M11.45 46.682c0 .006.005.012.013.016a.518.518 0 01.282.5.54.54 0 01-.218.47.97.97 0 01-.576.154h-.823a.053.053 0 01-.057-.056v-2.098a.053.053 0 01.057-.057h.797c.256 0 .45.049.582.146.132.097.197.254.197.47a.453.453 0 01-.246.439c-.003.005-.008.01-.008.016zm-.85-.6v.385c0 .015.008.022.023.022h.307c.07.005.14-.015.199-.055a.188.188 0 00.069-.157.197.197 0 00-.07-.164.309.309 0 00-.198-.057h-.307a.02.02 0 00-.023.026zm.55 1.234a.21.21 0 00.07-.17.206.206 0 00-.068-.164.292.292 0 00-.197-.059h-.33a.02.02 0 00-.021.022v.408a.02.02 0 00.022.022h.329c.07.003.14-.02.196-.063v.004zm2.507-1.272a.056.056 0 01-.041.015h-.965a.02.02 0 00-.022.023v.376a.02.02 0 00.022.022h.61a.053.053 0 01.057.057v.329c0 .015-.005.03-.016.04a.056.056 0 01-.041.016h-.61a.02.02 0 00-.022.023v.404a.02.02 0 00.022.023h.967a.056.056 0 01.041.015.053.053 0 01.016.041v.335a.053.053 0 01-.057.057h-1.456a.053.053 0 01-.041-.016.057.057 0 01-.017-.04v-2.096c0-.016.006-.03.017-.041a.053.053 0 01.04-.016h1.457a.053.053 0 01.057.057v.335c0 .015-.007.03-.018.04zm.696 1.72a.634.634 0 01-.4-.602v-.041c0-.015.005-.03.016-.04a.055.055 0 01.04-.017h.402a.07.07 0 01.041.011c.01.006.015.016.016.027v.038c.003.073.041.14.103.18a.42.42 0 00.263.082.298.298 0 00.206-.06.18.18 0 00.066-.139.151.151 0 00-.078-.136 1.382 1.382 0 00-.276-.11l-.07-.022a2.48 2.48 0 01-.353-.144.756.756 0 01-.26-.218.535.535 0 01-.109-.34.584.584 0 01.103-.342c.072-.1.17-.18.285-.226.13-.056.27-.084.411-.083.15-.002.3.028.438.09a.714.714 0 01.304.246.635.635 0 01.111.37v.03c0 .015-.005.03-.015.04a.056.056 0 01-.041.016h-.402a.097.097 0 01-.041-.007.026.026 0 01-.016-.024v-.025a.256.256 0 00-.098-.196.387.387 0 00-.262-.082.32.32 0 00-.193.05.165.165 0 00-.07.143.159.159 0 00.045.115c.04.036.087.064.137.082.063.027.157.06.287.102.147.051.261.096.343.134.09.044.17.106.232.184a.499.499 0 01.11.336.595.595 0 01-.105.35.675.675 0 01-.293.232c-.283.11-.597.11-.88 0l.003-.004zm3.22-2.137a.06.06 0 01.016.04v.339a.06.06 0 01-.015.041.056.056 0 01-.042.016h-.528c-.015 0-.021.007-.021.022v1.68a.06.06 0 01-.017.042.054.054 0 01-.04.015h-.412a.053.053 0 01-.057-.056v-1.681a.02.02 0 00-.022-.022h-.508a.054.054 0 01-.04-.016.056.056 0 01-.016-.041v-.338a.056.056 0 01.015-.041.054.054 0 01.041-.016h1.605a.06.06 0 01.042.016zm1.38 2.137a.634.634 0 01-.4-.602v-.041a.05.05 0 01.015-.04.057.057 0 01.041-.017h.402c.014 0 .029.003.041.011.01.006.015.016.016.027v.038c.003.073.041.14.102.18a.42.42 0 00.264.082.298.298 0 00.205-.06.18.18 0 00.067-.139.152.152 0 00-.077-.136 1.418 1.418 0 00-.278-.11l-.069-.022a2.48 2.48 0 01-.353-.144.756.756 0 01-.26-.215.535.535 0 01-.107-.34.584.584 0 01.102-.342c.072-.1.17-.179.285-.226.13-.056.27-.084.411-.082.151-.003.3.028.438.088a.714.714 0 01.305.247.635.635 0 01.11.37v.027a.053.053 0 01-.015.04.056.056 0 01-.041.016h-.402a.097.097 0 01-.04-.007.026.026 0 01-.016-.024v-.025a.256.256 0 00-.098-.196.386.386 0 00-.263-.082.32.32 0 00-.192.05.165.165 0 00-.07.143.159.159 0 00.044.115c.04.036.087.064.138.082.062.027.158.06.286.102.147.051.262.096.344.134a.7.7 0 01.233.184.503.503 0 01.108.336.595.595 0 01-.104.35.675.675 0 01-.294.232c-.283.11-.597.11-.88 0l.001-.004zm1.986-.01a.74.74 0 01-.302-.289.85.85 0 01-.107-.432V46.4a.83.83 0 01.107-.425.747.747 0 01.302-.287 1.04 1.04 0 01.905 0 .74.74 0 01.304.287c.073.13.11.276.108.425v.632a.85.85 0 01-.108.433.735.735 0 01-.304.288 1.04 1.04 0 01-.905 0v.001zm.695-.443a.367.367 0 00.093-.263v-.658a.37.37 0 00-.093-.26.322.322 0 00-.246-.1.316.316 0 00-.241.1.366.366 0 00-.094.26v.658a.364.364 0 00.094.263c.062.065.15.1.24.098a.33.33 0 00.25-.098h-.003zm2.523-1.267a.054.054 0 01-.041.015h-.964a.02.02 0 00-.022.023v.376a.02.02 0 00.022.022h.61a.056.056 0 01.041.015c.01.011.016.026.016.042v.329a.053.053 0 01-.057.056h-.61a.02.02 0 00-.022.023v.822a.054.054 0 01-.057.057h-.411a.054.054 0 01-.041-.016.056.056 0 01-.016-.04v-2.1c0-.015.005-.03.016-.041a.054.054 0 01.041-.016h1.453c.015 0 .03.005.041.016a.06.06 0 01.016.04v.336a.054.054 0 01-.015.04zm1.908-.417c.011.01.017.026.016.04v.339a.053.053 0 01-.057.057h-.527a.02.02 0 00-.022.022v1.68a.06.06 0 01-.017.042.053.053 0 01-.04.015h-.411a.056.056 0 01-.041-.015.06.06 0 01-.016-.041v-1.681a.02.02 0 00-.022-.022h-.509a.053.053 0 01-.057-.057v-.338a.053.053 0 01.057-.057h1.605c.016 0 .03.005.041.016zm.755 2.148l-.576-2.1a.039.039 0 010-.02c0-.03.016-.044.05-.044h.444a.07.07 0 01.042.014c.011.01.019.022.02.036l.267 1.116c.004.008.008.012.014.012.005 0 .009-.004.011-.012l.253-1.117a.057.057 0 01.063-.05h.376a.06.06 0 01.063.05l.278 1.115c.005.008.009.012.014.012.006 0 .01-.004.011-.012l.247-1.115a.054.054 0 01.02-.037.067.067 0 01.043-.014h.43a.046.046 0 01.05.064l-.524 2.098a.06.06 0 01-.063.05h-.42a.068.068 0 01-.044-.014.06.06 0 01-.02-.036l-.265-1.186c0-.01-.007-.016-.012-.016-.006 0-.011.006-.014.016l-.24 1.186a.055.055 0 01-.06.05h-.392a.06.06 0 01-.066-.046zm3.438 0l-.073-.26a.022.022 0 00-.025-.018h-.714a.025.025 0 00-.026.019l-.072.259a.06.06 0 01-.063.047h-.446a.05.05 0 01-.044-.017.047.047 0 010-.046l.657-2.1a.064.064 0 01.067-.046h.559a.06.06 0 01.066.047l.667 2.1a.048.048 0 010 .023c0 .027-.017.041-.05.041h-.446a.058.058 0 01-.057-.05zm-.708-.701a.017.017 0 00.018.019h.469a.018.018 0 00.017-.009.02.02 0 000-.017l-.24-.84c0-.01-.006-.015-.012-.015s-.01.005-.014.015l-.24.84.002.007zm2.717.704l-.367-.823a.024.024 0 00-.025-.015h-.195a.02.02 0 00-.023.021v.803c0 .015-.005.03-.016.041a.053.053 0 01-.04.016h-.412a.056.056 0 01-.04-.016.06.06 0 01-.017-.041v-2.096a.06.06 0 01.016-.041.056.056 0 01.041-.016h.92a.75.75 0 01.366.082.61.61 0 01.247.241.73.73 0 01.082.359.645.645 0 01-.102.364.58.58 0 01-.286.223.021.021 0 00-.013.033l.404.84.007.025c0 .027-.017.041-.05.041h-.432a.067.067 0 01-.065-.041zm-.61-1.696v.436a.02.02 0 00.023.022h.343a.27.27 0 00.19-.065.219.219 0 00.073-.172.228.228 0 00-.073-.177.267.267 0 00-.19-.067h-.343a.02.02 0 00-.023.023zm3.048-.038a.054.054 0 01-.04.015h-.967a.02.02 0 00-.023.023v.376a.02.02 0 00.023.022h.608a.059.059 0 01.042.015c.01.011.016.026.016.042v.329a.055.055 0 01-.058.056h-.608a.02.02 0 00-.023.023v.404a.02.02 0 00.023.023h.966a.051.051 0 01.041.015.058.058 0 01.017.041v.335c0 .016-.006.03-.017.041a.054.054 0 01-.04.016h-1.457a.053.053 0 01-.057-.057v-2.095a.053.053 0 01.057-.057h1.456c.016 0 .03.005.041.016.011.01.017.025.017.04v.336c0 .015-.006.03-.017.04zm2.455 1.73l-.072-.258a.023.023 0 00-.026-.02h-.714a.026.026 0 00-.025.02l-.073.259a.06.06 0 01-.063.047h-.445a.044.044 0 01-.048-.063l.664-2.1a.063.063 0 01.066-.046h.56a.06.06 0 01.066.047l.666 2.1a.063.063 0 010 .023c0 .027-.017.041-.05.041h-.446a.06.06 0 01-.06-.05zm-.707-.7a.017.017 0 00.019.019h.467a.017.017 0 00.017-.009.018.018 0 000-.017l-.24-.84c0-.01-.006-.015-.01-.015-.006 0-.01.005-.015.015l-.24.84.002.007zm1.61.7l-.575-2.1a.039.039 0 010-.019c0-.03.016-.044.05-.044h.443a.07.07 0 01.042.014c.011.01.019.022.02.036l.266 1.116c.004.008.009.012.014.012.005 0 .009-.004.011-.012l.25-1.117a.057.057 0 01.064-.05h.376a.06.06 0 01.063.05l.277 1.115c.005.008.01.012.015.012.006 0 .01-.004.01-.012l.248-1.115a.054.054 0 01.02-.037.067.067 0 01.043-.014h.43a.046.046 0 01.05.064l-.526 2.1a.06.06 0 01-.063.05h-.42a.068.068 0 01-.044-.015.06.06 0 01-.02-.036l-.265-1.185c0-.01-.007-.016-.012-.016-.006 0-.011.006-.014.016l-.24 1.185a.055.055 0 01-.06.05h-.391a.06.06 0 01-.061-.047zm3.435 0l-.073-.258c0-.013-.01-.02-.025-.02h-.714a.025.025 0 00-.025.02l-.073.259a.06.06 0 01-.063.047h-.446a.05.05 0 01-.043-.017.047.047 0 010-.046l.66-2.1a.064.064 0 01.066-.046h.559a.06.06 0 01.066.047l.667 2.1a.048.048 0 010 .023c0 .027-.017.041-.05.041h-.446a.058.058 0 01-.06-.05zm-.708-.7a.017.017 0 00.019.019h.468a.018.018 0 00.017-.009.02.02 0 000-.017l-.242-.84c0-.01-.005-.015-.011-.015-.006 0-.01.005-.014.015l-.24.84.003.007zm2.717.704l-.367-.823a.024.024 0 00-.024-.015h-.196a.02.02 0 00-.022.021v.803c0 .015-.006.03-.017.041a.053.053 0 01-.04.016h-.411a.056.056 0 01-.041-.016.06.06 0 01-.016-.041v-2.096a.06.06 0 01.016-.041.056.056 0 01.04-.016h.92a.75.75 0 01.367.082c.103.055.19.139.246.241a.73.73 0 01.083.359.645.645 0 01-.102.364.58.58 0 01-.287.223.021.021 0 00-.012.033l.404.84.006.025c0 .027-.017.041-.05.041h-.433a.067.067 0 01-.064-.041zm-.61-1.696v.436a.02.02 0 00.023.022h.344a.27.27 0 00.19-.065.219.219 0 00.072-.172.228.228 0 00-.073-.177.267.267 0 00-.19-.067h-.343a.02.02 0 00-.022.023zm1.51 1.725a.056.056 0 01-.015-.041v-2.098a.053.053 0 01.057-.057h.786c.15-.004.298.024.436.082a.64.64 0 01.398.606v.828a.643.643 0 01-.104.364.666.666 0 01-.294.247 1.052 1.052 0 01-.436.082h-.786a.056.056 0 01-.042-.013zm.531-.433h.32a.26.26 0 00.205-.09.368.368 0 00.082-.242v-.651a.348.348 0 00-.082-.241.27.27 0 00-.21-.09h-.317a.02.02 0 00-.022.022v1.27a.02.02 0 00.024.022zm1.831.39a.634.634 0 01-.4-.602v-.041c0-.015.005-.03.016-.04a.055.055 0 01.041-.017h.402c.014 0 .029.003.04.011.01.006.016.016.017.027v.038c.003.073.041.14.102.18a.42.42 0 00.264.082.298.298 0 00.205-.06.18.18 0 00.066-.139.151.151 0 00-.077-.136 1.382 1.382 0 00-.277-.11l-.069-.022a2.48 2.48 0 01-.353-.144.756.756 0 01-.26-.215.535.535 0 01-.107-.34.584.584 0 01.102-.342c.072-.1.17-.179.285-.226.13-.056.27-.084.411-.082.151-.003.3.028.438.088a.714.714 0 01.305.247.635.635 0 01.11.37v.027a.053.053 0 01-.015.04.056.056 0 01-.041.016h-.402a.097.097 0 01-.04-.007.026.026 0 01-.016-.024v-.025a.256.256 0 00-.098-.196.387.387 0 00-.263-.082.32.32 0 00-.192.05.165.165 0 00-.07.143.159.159 0 00.044.115c.04.036.087.064.138.082.062.027.157.06.286.102.147.051.262.096.344.134.09.044.169.106.232.184a.499.499 0 01.11.336.595.595 0 01-.105.35.675.675 0 01-.294.232c-.283.11-.597.11-.88 0l.001-.004zm-23.962 7.635a.114.114 0 01-.032-.083v-.638c0-.053.023-.104.064-.14.155-.142.317-.302.486-.479.169-.176.33-.345.48-.506.279-.29.41-.427.392-.411.384-.396.576-.684.576-.865a.388.388 0 00-.136-.304.51.51 0 00-.35-.12.501.501 0 00-.348.12.411.411 0 00-.133.316v.117a.109.109 0 01-.113.114h-.835a.111.111 0 01-.083-.032.108.108 0 01-.03-.082v-.28c.012-.226.093-.442.233-.62a1.33 1.33 0 01.55-.41 1.91 1.91 0 01.758-.143c.282-.007.562.053.818.173.22.104.406.267.537.471.226.356.248.804.06 1.181-.102.204-.23.393-.38.563-.292.336-.602.656-.928.96l-.177.171c-.016.017-.023.03-.019.04.004.01.017.017.038.017h1.542c.03-.001.06.01.082.031a.11.11 0 01.031.083v.67a.108.108 0 01-.113.113h-2.888a.11.11 0 01-.082-.027zm3.962-.3c-.278-.275-.417-.645-.417-1.11v-1.541c0-.463.139-.827.417-1.093.278-.265.66-.398 1.143-.398.485 0 .87.133 1.152.4.283.268.424.631.423 1.09v1.542c0 .469-.14.838-.423 1.11-.282.27-.666.407-1.152.41-.484-.001-.865-.139-1.143-.41zm1.526-.645c.1-.113.151-.26.142-.411V52.41a.564.564 0 00-.142-.407.507.507 0 00-.383-.15.488.488 0 00-.372.15.57.57 0 00-.14.407v1.636c-.009.15.04.297.136.411a.484.484 0 00.376.149.506.506 0 00.383-.152zm1.709.945a.114.114 0 01-.032-.083v-.638c0-.054.023-.105.064-.14.156-.142.318-.302.486-.479l.48-.506c.279-.29.412-.427.392-.411.384-.396.576-.684.576-.865a.388.388 0 00-.136-.304.513.513 0 00-.351-.12.5.5 0 00-.347.12.411.411 0 00-.133.316v.117a.11.11 0 01-.114.114h-.834a.11.11 0 01-.115-.114v-.28a1.11 1.11 0 01.235-.62c.144-.182.333-.324.55-.41a1.94 1.94 0 01.757-.143 1.82 1.82 0 01.819.173c.22.104.406.267.537.471.224.356.247.804.06 1.181a2.66 2.66 0 01-.38.563c-.292.337-.601.659-.927.964l-.176.171c-.018.017-.023.03-.02.04.005.01.017.017.039.017h1.54a.108.108 0 01.113.114v.67c.001.03-.01.06-.031.082a.11.11 0 01-.082.03h-2.888a.11.11 0 01-.082-.03zm4.177-4.392h.866a.11.11 0 01.082.032.107.107 0 01.031.082v4.196a.108.108 0 01-.113.114h-.823a.11.11 0 01-.114-.114v-3.305a.043.043 0 00-.013-.032.029.029 0 00-.03-.006l-.531.063h-.02c-.067 0-.1-.035-.1-.108v-.587a.13.13 0 01.094-.126l.53-.183a.333.333 0 01.14-.026zm-15.043-30.79c.038.04.058.091.055.145v1.183a.19.19 0 01-.198.199h-1.847a.068.068 0 00-.077.077v5.882a.197.197 0 01-.055.144.194.194 0 01-.144.056h-1.437a.19.19 0 01-.2-.2v-5.882a.068.068 0 00-.077-.077h-1.78a.19.19 0 01-.2-.2v-1.182a.19.19 0 01.2-.2h5.617a.193.193 0 01.143.056zm.725 7.244a2.604 2.604 0 01-.934-1.438 3.514 3.514 0 01-.133-.995c0-.361.048-.721.143-1.07a2.462 2.462 0 01.946-1.365c.46-.33 1.019-.494 1.675-.494.649 0 1.197.165 1.646.494.455.335.785.811.94 1.355a3.849 3.849 0 01.035 2.035 2.596 2.596 0 01-.93 1.47c-.463.362-1.03.542-1.702.542-.663-.002-1.225-.18-1.686-.534zm2.221-1.244c.154-.153.26-.347.305-.559a2.78 2.78 0 00.066-.63c0-.216-.026-.432-.078-.642a1.04 1.04 0 00-.298-.53.77.77 0 00-.531-.188.761.761 0 00-.536.188 1.07 1.07 0 00-.293.53 2.193 2.193 0 00-.078.642 2.84 2.84 0 00.067.63c.052.21.159.403.31.559a.73.73 0 00.53.204.752.752 0 00.537-.204zm8.566-1.145a3.89 3.89 0 01-.232 1.393c-.16.444-.446.83-.823 1.112-.367.28-.816.429-1.277.425-.56 0-.98-.17-1.26-.508-.023-.03-.043-.04-.061-.033-.018.007-.028.03-.028.066v2.2a.194.194 0 01-.055.144.197.197 0 01-.144.055h-1.44a.197.197 0 01-.143-.055.194.194 0 01-.055-.144v-7.342a.19.19 0 01.199-.199h1.437a.19.19 0 01.2.199v.265c0 .037.008.06.027.067.019.007.039-.004.061-.034.28-.39.7-.585 1.26-.585.484.001.953.17 1.327.475.4.31.691.74.83 1.228.125.411.184.84.177 1.27zm-1.97-.033c0-.377-.062-.682-.187-.918a.735.735 0 00-.674-.41c-.28 0-.498.14-.653.42-.135.281-.2.592-.187.904 0 .406.066.73.199.974.127.234.374.38.64.376a.734.734 0 00.665-.388c.132-.24.198-.56.198-.958zm4.886 2.808a.194.194 0 01-.055-.144v-1.116a.314.314 0 01.11-.247c.274-.25.558-.53.852-.84l.84-.885c.487-.508.715-.748.686-.718.67-.693 1.005-1.198 1.006-1.516a.679.679 0 00-.238-.53.893.893 0 00-.614-.21.871.871 0 00-.608.21.712.712 0 00-.232.553v.199a.19.19 0 01-.199.199h-1.458a.19.19 0 01-.198-.2v-.485c.023-.395.166-.774.412-1.084a2.33 2.33 0 01.959-.712c.421-.17.872-.254 1.327-.247a3.19 3.19 0 011.432.304c.384.181.71.466.94.823a2.11 2.11 0 01.105 2.068 4.628 4.628 0 01-.664.987c-.316.384-.858.945-1.626 1.681l-.309.296c-.03.03-.04.054-.033.072.008.018.03.028.067.028h2.697a.194.194 0 01.144.055c.037.038.057.09.055.144v1.171a.197.197 0 01-.055.144.194.194 0 01-.144.056h-5.053a.194.194 0 01-.146-.056zm11.546-2.455c.001.364-.066.724-.199 1.063a2.343 2.343 0 01-.956 1.1c-.465.28-1 .423-1.543.41a2.898 2.898 0 01-1.537-.403 2.341 2.341 0 01-1.126-1.697v-.045c0-.11.063-.164.188-.164h1.493a.228.228 0 01.221.144c.014.05.036.1.066.143a.689.689 0 00.271.337c.128.08.276.12.426.116a.734.734 0 00.683-.442c.09-.162.135-.345.132-.53a1.088 1.088 0 00-.111-.565.64.64 0 00-.26-.315.823.823 0 00-.448-.116c-.301 0-.53.103-.685.31a.503.503 0 01-.105.1.223.223 0 01-.127.033h-1.547a.195.195 0 01-.144-.056.193.193 0 01-.055-.143v-4.31a.19.19 0 01.2-.2h4.71a.19.19 0 01.2.2v1.172a.19.19 0 01-.2.198h-2.997a.07.07 0 00-.077.078v1.239a.072.072 0 00.022.06c.015.011.037.01.067-.005a2.06 2.06 0 011.006-.254c.49-.01.972.129 1.382.398.395.26.696.64.862 1.083.123.34.187.7.188 1.061z"/></g></svg>