<svg xmlns="http://www.w3.org/2000/svg" width="68" height="78" viewBox="0 0 68 78">
  <g fill="none">
    <polygon fill="#F8F8F8" points="64.387 61.562 33.969 77.163 3.551 61.562 3.551 0 64.387 0"/>
    <polygon fill="#FFF" points="3.623 0 3.623 61.561 64.458 0"/>
    <path fill="#DCDFDD" d="M63.8081135,0.578723404 L63.8081135,61.2077163 L33.9691348,76.5130213 L4.13015603,61.2077163 L4.13015603,0.578723404 L63.8081135,0.578723404 M64.3868369,0 L3.55143262,0 L3.55143262,61.5607376 L33.9691348,77.1631206 L64.3868369,61.5607376 L64.3868369,0 Z"/>
    <polygon fill="#FF492C" points="40.984 11.006 33.908 15.118 26.954 11.006 26.954 0 40.984 0"/>
    <path fill="#FFF" d="M37.3479149,5.4448227 L36.0293901,5.4448227 C36.0660426,5.23744681 36.1933617,5.12266667 36.4518582,4.99052482 L36.694922,4.86706383 C37.1289645,4.64425532 37.3594894,4.39347518 37.3594894,3.9835461 C37.3678971,3.74392109 37.2560722,3.51592862 37.0614468,3.37588652 C36.8555642,3.22708481 36.6064467,3.15014648 36.3525106,3.15693617 C36.1394985,3.15470921 35.930418,3.21435075 35.7506383,3.32862411 C35.5780597,3.43069138 35.4397333,3.58177606 35.3532482,3.76266667 L35.7390638,4.14848227 C35.8866383,3.84947518 36.1017305,3.70286525 36.3843404,3.70286525 C36.6225816,3.70286525 36.770156,3.82632624 36.770156,3.99704965 C36.770156,4.14076596 36.6987801,4.26036879 36.4238865,4.39926241 L36.2685957,4.47546099 C35.9300426,4.6461844 35.6898723,4.84102128 35.5596596,5.06479433 C35.4156163,5.32065966 35.345491,5.61151282 35.3571064,5.9049078 L35.3571064,6.0013617 L37.351773,6.0013617 L37.3479149,5.4448227 Z"/>
    <polygon fill="#FFF" points="37.171 6.621 34.989 6.621 33.898 8.51 36.081 8.51 37.171 10.401 38.262 8.51"/>
    <path fill="#FFF" d="M34.085844,9.77078014 C32.6938984,9.77078014 31.5655035,8.6423853 31.5655035,7.25043972 C31.5655035,5.85849413 32.6938984,4.73009929 34.085844,4.73009929 L34.9491064,2.92448227 C34.6647521,2.86859774 34.3756377,2.84056723 34.085844,2.84056723 C32.174647,2.84072961 30.4810856,4.0719705 29.8914579,5.88993998 C29.3018302,7.70790947 29.9503582,9.69876749 31.4976452,10.8206306 C33.0449322,11.9424937 35.1387559,11.9399826 36.6833475,10.8144113 L35.7274894,9.16312057 C35.2710256,9.55628223 34.6882839,9.77198569 34.085844,9.77078014 Z"/>
    <polygon fill="#FF492C" points="65.778 48.386 2.161 48.386 0 42.985 2.161 37.583 65.778 37.583 67.938 42.985"/>
    <path fill="#FFF" d="M22.4737589 44.7295319L22.3184681 44.212539C22.3164533 44.1957163 22.3016133 44.1834203 22.2847092 44.1845674L20.9237447 44.1845674C20.9155511 44.1837629 20.9073757 44.1862652 20.9010361 44.191518 20.8946965 44.1967708 20.8907183 44.2043387 20.8899858 44.212539L20.7375887 44.7295319C20.7246572 44.7765069 20.681145 44.8084425 20.6324539 44.806695L19.9871773 44.806695C19.959633 44.8091055 19.932641 44.7979488 19.9148369 44.7767943 19.9000672 44.754324 19.8982344 44.7257325 19.9100142 44.7015603L21.0906099 40.9929078C21.1028499 40.9453337 21.1466621 40.912776 21.1957447 40.9147801L22.0127092 40.9147801C22.0617918 40.912776 22.105604 40.9453337 22.117844 40.9929078L23.3013333 44.6986667C23.3057199 44.7090191 23.3076987 44.7202324 23.3071206 44.731461 23.3080016 44.7515667 23.2998677 44.7710174 23.2849362 44.7845106 23.2674739 44.7983931 23.2454654 44.8052708 23.2232057 44.8038014L22.5788936 44.8038014C22.5309157 44.8062491 22.4874858 44.7755693 22.4737589 44.7295319zM21.1127943 43.5788369L22.0956596 43.5788369C22.117844 43.5788369 22.1274894 43.5662979 22.1236312 43.5402553L21.624 41.8455603C21.624 41.8310922 21.6133901 41.8233759 21.6037447 41.8233759 21.5940993 41.8233759 21.586383 41.8310922 21.5786667 41.8455603L21.0848227 43.5402553C21.0809645 43.5662979 21.0906099 43.5788369 21.1127943 43.5788369zM23.8067518 44.7121702L23.8067518 41.0121986C23.8023489 40.9855081 23.8110828 40.9583319 23.8302109 40.9392038 23.849339 40.9200758 23.8765152 40.9113418 23.9032057 40.9157447L24.4751773 40.9157447C24.5209976 40.9141359 24.5639901 40.9378558 24.5870638 40.9774752L25.976 43.2923688C25.9827518 43.3068369 25.9914326 43.3126241 26.001078 43.308766 26.0107234 43.3049078 26.0145816 43.296227 26.0145816 43.2807943L26.0145816 41.0121986C26.0101787 40.9855081 26.0189126 40.9583319 26.0380407 40.9392038 26.0571688 40.9200758 26.084345 40.9113418 26.1110355 40.9157447L26.6945816 40.9157447C26.7212721 40.9113418 26.7484482 40.9200758 26.7675763 40.9392038 26.7867044 40.9583319 26.7954383 40.9855081 26.7910355 41.0121986L26.7910355 44.7121702C26.7959061 44.7389519 26.7873267 44.766419 26.7680785 44.7856672 26.7488303 44.8049153 26.7213633 44.8134947 26.6945816 44.8086241L26.1274326 44.8086241C26.0813305 44.8074797 26.0392155 44.7822108 26.0165106 44.7420709L24.6217872 42.4088511C24.6150355 42.394383 24.6063546 42.3885957 24.5967092 42.3924539 24.5870638 42.3963121 24.5832057 42.4049929 24.5832057 42.419461L24.5889929 44.7140993C24.5938635 44.740881 24.5852841 44.7683481 24.566036 44.7875962 24.5467878 44.8068444 24.5193207 44.8154238 24.492539 44.8105532L23.9012766 44.8105532C23.8743957 44.8148964 23.847095 44.8057703 23.8282297 44.786135 23.8093644 44.7664997 23.8013372 44.7388559 23.8067518 44.7121702L23.8067518 44.7121702zM27.3012766 44.7121702L27.3012766 44.162383C27.2994693 44.1199133 27.3135707 44.0782969 27.3408227 44.0456738L29.1184681 41.628539C29.1250172 41.6211833 29.1272153 41.6109253 29.1242553 41.6015319 29.1242553 41.5938156 29.1107518 41.5899574 29.0962837 41.5899574L27.3929078 41.5899574C27.3661261 41.5948281 27.338659 41.5862487 27.3194108 41.5670005 27.3001627 41.5477523 27.2915833 41.5202853 27.2964539 41.4935035L27.2964539 41.011234C27.2920511 40.9845435 27.300785 40.9573674 27.3199131 40.9382393 27.3390412 40.9191112 27.3662173 40.9103773 27.3929078 40.9147801L29.9103546 40.9147801C29.9370451 40.9103773 29.9642213 40.9191112 29.9833493 40.9382393 30.0024774 40.9573674 30.0112114 40.9845435 30.0068085 41.011234L30.0068085 41.5610213C30.0088054 41.6035179 29.9946813 41.6452012 29.9672624 41.6777305L28.189617 44.0948652C28.1819007 44.1064397 28.1799716 44.1151206 28.1838298 44.1228369 28.1876879 44.1305532 28.1973333 44.1334468 28.2118014 44.1334468L29.9122837 44.1334468C29.9389742 44.129044 29.9661503 44.1377779 29.9852784 44.156906 30.0044065 44.1760341 30.0131404 44.2032102 30.0087376 44.2299007L30.0087376 44.7121702C30.0136082 44.7389519 30.0050288 44.766419 29.9857806 44.7856672 29.9665325 44.8049153 29.9390654 44.8134947 29.9122837 44.8086241L27.3929078 44.8086241C27.3668915 44.8117473 27.3409291 44.8023944 27.3228817 44.7833971 27.3048343 44.7643999 27.2968242 44.7379923 27.3012766 44.7121702zM32.2242837 44.7073475C32.0205671 44.6229024 31.8452142 44.4820177 31.7188652 44.3012766 31.5989096 44.1216129 31.5366556 43.9096128 31.5404255 43.693617L31.5404255 43.5971631C31.5355549 43.5703814 31.5441343 43.5429143 31.5633825 43.5236662 31.5826307 43.504418 31.6100977 43.4958386 31.6368794 43.5007092L32.2156028 43.5007092C32.2782979 43.5007092 32.3120567 43.5248227 32.3120567 43.5730496L32.3120567 43.6502128C32.3133815 43.8010795 32.389206 43.9415353 32.5146099 44.0254184 32.6697811 44.1333638 32.8563024 44.1869463 33.0451064 44.1778156 33.2009846 44.1903242 33.356139 44.1461412 33.4820426 44.0533901 33.5726378 43.9766353 33.6242706 43.8634676 33.6228652 43.7447376 33.6251678 43.6608591 33.5931137 43.5796787 33.5341277 43.52 33.4653795 43.4520107 33.3845941 43.3973905 33.2958865 43.358922 33.1955745 43.3126241 33.034818 43.2483215 32.813617 43.1660142 32.596315 43.0952348 32.3847787 43.007847 32.1808794 42.9046241 32.0114127 42.8169209 31.863503 42.6927294 31.7478014 42.5409929 31.6255741 42.3769907 31.5626595 42.1763442 31.5693617 41.9719149 31.5650985 41.7642143 31.6254262 41.5603134 31.7420142 41.3883688 31.8623304 41.2160682 32.0297747 41.0821128 32.2242837 41.0025532 32.4470643 40.9104532 32.6864034 40.8651462 32.9274326 40.8694468 33.1870359 40.865073 33.4445623 40.9163809 33.6826667 41.0199149 33.8913701 41.1086378 34.0713476 41.2535546 34.2025532 41.4385248 34.3276447 41.623011 34.3926633 41.8416488 34.3887092 42.0645106L34.3887092 42.1194894C34.3931121 42.1461799 34.3843781 42.173356 34.3652501 42.1924841 34.346122 42.2116122 34.3189458 42.2203461 34.2922553 42.2159433L33.7135319 42.2159433C33.6498723 42.2159433 33.617078 42.197617 33.617078 42.16L33.617078 42.1050213C33.6174186 41.9499153 33.5462507 41.8033094 33.4241702 41.7076312 33.2748656 41.591292 33.0884419 41.5330346 32.899461 41.5436596 32.7540475 41.5346625 32.609699 41.5736299 32.4885674 41.6545816 32.3932506 41.7267165 32.3392224 41.840896 32.3438865 41.9603404 32.3414367 42.0457722 32.3710248 42.1290317 32.4268369 42.1937589 32.4985641 42.2677676 32.5845255 42.3264969 32.6795461 42.3664113 32.7923972 42.4175319 32.9689078 42.4850496 33.2052199 42.5660709 33.4637163 42.6625248 33.6701277 42.7464397 33.8215603 42.8187801 33.980787 42.8968519 34.1202732 43.0099578 34.2295603 43.149617 34.3554679 43.3129748 34.4196836 43.5155274 34.4108936 43.7215887 34.4151102 43.9330128 34.3537893 44.1405605 34.2353475 44.3157447 34.1117895 44.4917112 33.9404176 44.6286079 33.7415035 44.7102411 33.2536988 44.8970421 32.7137823 44.8953227 32.2271773 44.7054184L32.2242837 44.7073475zM36.8453901 43.9347518C36.8625659 43.911773 36.8890793 43.8976326 36.9177305 43.8961702 36.9408407 43.8964205 36.9628245 43.9061911 36.9784965 43.9231773L37.2958298 44.2289362C37.3151976 44.2458607 37.3270035 44.2698198 37.3286241 44.2954894 37.3294558 44.3199119 37.3215946 44.3438373 37.3064397 44.3630071 37.1805723 44.5175676 37.019949 44.6401833 36.8376738 44.7208511 36.6411677 44.8088402 36.4279473 44.8532611 36.2126525 44.8510638 35.9086917 44.8628772 35.6097386 44.7710486 35.3648227 44.5906383 35.1367951 44.4102634 34.9771994 44.1574284 34.9124539 43.8739858 34.8673726 43.7053822 34.8449907 43.531517 34.8459007 43.3569929 34.8422261 43.1734618 34.8626559 42.9902423 34.9066667 42.8120284 34.9749326 42.5466539 35.1330968 42.3131573 35.3542128 42.1513191 35.5848974 41.9823293 35.8650484 41.8944854 36.150922 41.9015035 36.4725036 41.8834279 36.7870736 42.0001683 37.0190071 42.2236596 37.249019 42.4743549 37.3938542 42.7913716 37.4327943 43.1293617 37.4472624 43.2508936 37.4588369 43.3868936 37.4665532 43.5344681 37.4714238 43.5612498 37.4628444 43.5887169 37.4435962 43.607965 37.4243481 43.6272132 37.396881 43.6357926 37.3700993 43.630922L35.6628652 43.630922C35.6537295 43.6299492 35.6446538 43.6332303 35.6382522 43.6398202 35.6318505 43.6464101 35.6288338 43.6555772 35.6300709 43.6646809 35.6365525 43.7231592 35.6494919 43.7807397 35.6686525 43.8363688 35.704131 43.950075 35.7832026 44.0450998 35.8885674 44.1006525 36.0106586 44.1647032 36.1471779 44.1962588 36.2849929 44.1922837 36.5007163 44.1936825 36.7059572 44.0993635 36.8453901 43.9347518zM35.843234 42.6654184C35.7619923 42.7240827 35.7039532 42.8094343 35.6792624 42.9065532 35.6599716 42.9769645 35.6493617 43.0232624 35.6455035 43.0454468 35.6416454 43.0676312 35.6512908 43.0792057 35.6734752 43.0792057L36.6177589 43.0792057C36.6360851 43.0792057 36.6457305 43.0714894 36.6457305 43.0570213 36.6450869 43.0133633 36.6376011 42.9700763 36.6235461 42.9287376 36.5940349 42.8276278 36.5336722 42.738264 36.4508936 42.6731348 36.2679003 42.5499431 36.0292965 42.5469133 35.843234 42.6654184L35.843234 42.6654184zM37.9575035 44.7121702L37.9575035 41.0121986C37.9531007 40.9855081 37.9618346 40.9583319 37.9809627 40.9392038 38.0000908 40.9200758 38.027267 40.9113418 38.0539574 40.9157447L38.649078 40.9157447C38.6758597 40.9108741 38.7033268 40.9194535 38.722575 40.9387016 38.7418231 40.9579498 38.7504025 40.9854168 38.7455319 41.0121986L38.7455319 44.7121702C38.7504025 44.7389519 38.7418231 44.766419 38.722575 44.7856672 38.7033268 44.8049153 38.6758597 44.8134947 38.649078 44.8086241L38.0539574 44.8086241C38.0271757 44.8134947 37.9997087 44.8049153 37.9804605 44.7856672 37.9612123 44.766419 37.9526329 44.7389519 37.9575035 44.7121702L37.9575035 44.7121702zM39.341617 44.7121702L39.341617 41.0121986C39.3367464 40.9854168 39.3453258 40.9579498 39.364574 40.9387016 39.3838221 40.9194535 39.4112892 40.9108741 39.4380709 40.9157447L40.0283688 40.9157447C40.0550593 40.9113418 40.0822354 40.9200758 40.1013635 40.9392038 40.1204916 40.9583319 40.1292255 40.9855081 40.1248227 41.0121986L40.1248227 44.7121702C40.1296933 44.7389519 40.1211139 44.766419 40.1018657 44.7856672 40.0826176 44.8049153 40.0551505 44.8134947 40.0283688 44.8086241L39.4332482 44.8086241C39.4072319 44.8117473 39.3812695 44.8023944 39.3632221 44.7833971 39.3451748 44.7643999 39.3371646 44.7379923 39.341617 44.7121702L39.341617 44.7121702zM42.6528794 43.9347518C42.6700553 43.911773 42.6965686 43.8976326 42.7252199 43.8961702 42.7482809 43.8966432 42.7701814 43.9063768 42.7859858 43.9231773L43.1023546 44.2289362C43.1220813 44.2456925 43.1342459 44.269674 43.1361135 44.2954894 43.13647 44.3198418 43.1286598 44.3436119 43.1139291 44.3630071 42.9876861 44.5175831 42.8267481 44.6401869 42.6441986 44.7208511 42.4476926 44.8088402 42.2344722 44.8532611 42.0191773 44.8510638 41.7153066 44.8621889 41.4165753 44.7704284 41.1713475 44.5906383 40.9436106 44.4100022 40.784085 44.1572784 40.7189787 43.8739858 40.6738975 43.7053822 40.6515156 43.531517 40.6524255 43.3569929 40.6487509 43.1734618 40.6691807 42.9902423 40.7131915 42.8120284 40.7818251 42.5468198 40.9399121 42.3134371 41.1607376 42.1513191 41.3917853 41.9823226 41.6722406 41.8944895 41.9584113 41.9015035 42.2783499 41.8847878 42.5909062 42.001429 42.8216738 42.2236596 43.0516857 42.4743549 43.1965209 42.7913716 43.235461 43.1293617 43.2508936 43.2508936 43.2615035 43.3868936 43.2692199 43.5344681 43.2740905 43.5612498 43.2655111 43.5887169 43.2462629 43.607965 43.2270147 43.6272132 43.1995477 43.6357926 43.172766 43.630922L41.4693901 43.630922C41.4600982 43.6296207 41.4507344 43.6327563 41.4440999 43.6393907 41.4374655 43.6460252 41.4343299 43.655389 41.4356312 43.6646809 41.44259 43.7230784 41.4555182 43.7806085 41.4742128 43.8363688 41.5103397 43.949721 41.589229 44.0445264 41.6941277 44.1006525 41.8165514 44.164742 41.9533912 44.1962948 42.0915177 44.1922837 42.3074915 44.1935684 42.5129822 44.0992968 42.6528794 43.9347518L42.6528794 43.9347518zM41.6497589 42.6654184C41.5688126 42.7243693 41.5108532 42.8096037 41.4857872 42.9065532 41.467461 42.9769645 41.4558865 43.0232624 41.4520284 43.0454468 41.4481702 43.0676312 41.4578156 43.0792057 41.48 43.0792057L42.4242837 43.0792057C42.4435745 43.0792057 42.4522553 43.0714894 42.4522553 43.0570213 42.4516117 43.0133633 42.444126 42.9700763 42.4300709 42.9287376 42.4009376 42.8276983 42.3408999 42.7383164 42.258383 42.6731348 42.1683492 42.606837 42.0585813 42.5728531 41.9468369 42.5766809 41.8408163 42.5733241 41.7365693 42.6044628 41.6497589 42.6654184L41.6497589 42.6654184zM45.4693333 41.9786667C45.5129261 41.9995141 45.5343653 42.0494014 45.5194894 42.0953759L45.4133901 42.678922C45.4133901 42.7126809 45.3998865 42.7329362 45.3834894 42.7406525 45.3569345 42.7476421 45.3290229 42.7476421 45.3024681 42.7406525 45.249976 42.7261287 45.1958478 42.7183498 45.1413901 42.7175035 45.0987635 42.7189171 45.0562536 42.7227817 45.0140709 42.729078 44.8871454 42.7371448 44.7670384 42.7893504 44.6745532 42.8766525 44.5804456 42.9670178 44.5298336 43.0935478 44.5356596 43.2238865L44.5356596 44.7121702C44.5405302 44.7389519 44.5319508 44.766419 44.5127026 44.7856672 44.4934545 44.8049153 44.4659874 44.8134947 44.4392057 44.8086241L43.8450496 44.8086241C43.8182679 44.8134947 43.7908009 44.8049153 43.7715527 44.7856672 43.7523045 44.766419 43.7437251 44.7389519 43.7485957 44.7121702L43.7485957 42.0452199C43.7437251 42.0184381 43.7523045 41.9909711 43.7715527 41.9717229 43.7908009 41.9524747 43.8182679 41.9438953 43.8450496 41.948766L44.4392057 41.948766C44.4659874 41.9438953 44.4934545 41.9524747 44.5127026 41.9717229 44.5319508 41.9909711 44.5405302 42.0184381 44.5356596 42.0452199L44.5356596 42.2178723C44.5356596 42.2323404 44.5356596 42.2419858 44.547234 42.245844 44.5588085 42.2497021 44.5636312 42.245844 44.5752057 42.2342695 44.7052013 42.0294783 44.9326296 41.9073545 45.1751489 41.9121135 45.2773316 41.9083144 45.378736 41.9312551 45.4693333 41.9786667L45.4693333 41.9786667zM46.3248794 44.7401418C46.1582562 44.6829417 46.0104807 44.5812001 45.8975887 44.4459574 45.7990137 44.3251275 45.7457807 44.1736352 45.7471206 44.0177021L45.7471206 43.990695C45.7422499 43.9639133 45.7508293 43.9364463 45.7700775 43.9171981 45.7893257 43.8979499 45.8167927 43.8893705 45.8435745 43.8942411L46.4049362 43.8942411C46.4676312 43.8942411 46.5013901 43.9048511 46.5013901 43.9270355L46.5013901 43.9665816C46.5056839 44.0547156 46.5563285 44.1339853 46.6344965 44.174922 46.7367096 44.2355821 46.854282 44.2653939 46.9730496 44.260766 47.0796902 44.2653103 47.1855101 44.2402741 47.2788085 44.1884255 47.3509967 44.1512979 47.3961334 44.0766917 47.3955177 43.9955177 47.3968257 43.9306871 47.3586698 43.8715455 47.2990638 43.8460142 47.1936562 43.7995501 47.083769 43.7639984 46.9711206 43.7399149 46.8336348 43.7057059 46.6983509 43.6631881 46.5660142 43.6125957 46.3586646 43.5483092 46.164819 43.4466465 45.9940426 43.3126241 45.848814 43.1837374 45.7709201 42.9952271 45.7828085 42.8014184 45.7742881 42.5435872 45.8951762 42.2985535 46.1049645 42.1484255 46.35213 41.9773636 46.648676 41.8922972 46.9489362 41.9063262 47.1627769 41.9022665 47.3752745 41.9409621 47.5739574 42.0201418 47.7404064 42.0852131 47.88492 42.1962745 47.9906383 42.3403688 48.0885659 42.4757908 48.1403084 42.6391347 48.1382128 42.8062411 48.1382423 42.8251877 48.1288405 42.8429063 48.1131348 42.8535035 48.0930734 42.8681822 48.0684949 42.8753509 48.0436879 42.8737589L47.4996879 42.8737589C47.4360284 42.8737589 47.403234 42.8621844 47.403234 42.84L47.403234 42.8062411C47.4006934 42.7211787 47.3543621 42.6434734 47.2807376 42.6007943 47.182124 42.5411004 47.0679304 42.5122162 46.9527943 42.517844 46.847821 42.5138975 46.743577 42.5368047 46.6499291 42.5843972 46.5778162 42.617029 46.5311644 42.6885116 46.5303262 42.7676596 46.5301035 42.8414672 46.5753442 42.9077947 46.6441418 42.9345248 46.7650251 42.9857893 46.8907141 43.0248854 47.0193475 43.051234 47.1246867 43.0729476 47.2287038 43.1006425 47.3308936 43.1341844 47.5574361 43.1931536 47.7705831 43.2949796 47.9588085 43.434156 48.1146812 43.5660137 48.1990781 43.7637742 48.1864397 43.9675461 48.1957884 44.2240261 48.0717117 44.4670703 47.8584965 44.6099291 47.6398676 44.7629693 47.3472908 44.8398109 46.980766 44.8404539 46.7578455 44.8473549 46.5355469 44.8133563 46.3248794 44.7401418L46.3248794 44.7401418z"/>
    <path fill="#252530" d="M13.4244539 54.7308369C13.4244539 54.7375887 13.4302411 54.7443404 13.4398865 54.7491631 13.6575706 54.8602336 13.7875358 55.0909028 13.7697589 55.3346383 13.7841139 55.5500794 13.6877852 55.758004 13.514156 55.8863546 13.3136936 56.0161343 13.0774881 56.0795724 12.8389787 56.0676879L11.8744397 56.0676879C11.8564621 56.0688329 11.8388606 56.0621896 11.8261227 56.0494518 11.8133848 56.0367139 11.8067415 56.0191124 11.8078865 56.0011348L11.8078865 53.5415603C11.8067415 53.5235827 11.8133848 53.5059811 11.8261227 53.4932433 11.8388606 53.4805054 11.8564621 53.4738621 11.8744397 53.4750071L12.8081135 53.4750071C13.1090496 53.4750071 13.3366809 53.5319149 13.4910071 53.6457305 13.6453333 53.7595461 13.7224965 53.9434515 13.7224965 54.1974468 13.7387392 54.4115298 13.6245766 54.6143587 13.4331348 54.7115461 13.4302411 54.7173333 13.4244539 54.7231206 13.4244539 54.7308369zM12.4280851 54.0267234L12.4280851 54.4790922C12.4280851 54.4964539 12.436766 54.5041702 12.4541277 54.5041702L12.8139007 54.5041702C12.896774 54.509624 12.9790509 54.4868448 13.0473191 54.4395461 13.1020747 54.394927 13.1321888 54.3268119 13.1283404 54.2562837 13.133592 54.1827481 13.1035033 54.1111085 13.0473191 54.0633759 12.9795011 54.0149684 12.89705 53.9914596 12.8139007 53.9968227L12.4541277 53.9968227C12.4461357 53.9954171 12.4379912 53.9982988 12.4326616 54.0044179 12.427332 54.010537 12.4255957 54.019 12.4280851 54.0267234L12.4280851 54.0267234zM13.0733617 55.4735319C13.1292395 55.4231097 13.1590695 55.3499553 13.154383 55.2748369 13.1586169 55.2018707 13.129528 55.1309221 13.0752908 55.0819291 13.0090001 55.0317559 12.9267195 55.0074145 12.8438014 55.0134468L12.4579858 55.0134468C12.4508255 55.0124784 12.4436238 55.014909 12.4385146 55.0200181 12.4334054 55.0251273 12.4309749 55.0323291 12.4319433 55.0394894L12.4319433 55.5169362C12.4309749 55.5240964 12.4334054 55.5312982 12.4385146 55.5364074 12.4436238 55.5415166 12.4508255 55.5439471 12.4579858 55.5429787L12.8438014 55.5429787C12.9265848 55.546476 13.0079259 55.5205016 13.0733617 55.4696738L13.0733617 55.4735319zM16.0113475 53.9823546C15.9984502 53.9947948 15.9810247 54.0014165 15.9631206 54.0006809L14.8326809 54.0006809C14.8255206 53.9997125 14.8183188 54.002143 14.8132096 54.0072522 14.8081005 54.0123614 14.8056699 54.0195631 14.8066383 54.0267234L14.8066383 54.4675177C14.8056699 54.474678 14.8081005 54.4818798 14.8132096 54.486989 14.8183188 54.4920981 14.8255206 54.4945287 14.8326809 54.4935603L15.5474043 54.4935603C15.5653819 54.4924153 15.5829834 54.4990586 15.5957213 54.5117965 15.6084591 54.5245343 15.6151024 54.5421358 15.6139574 54.5601135L15.6139574 54.9459291C15.6149284 54.9638706 15.6082722 54.981387 15.5956312 54.994156 15.5827339 55.0065962 15.5653084 55.013218 15.5474043 55.0124823L14.8326809 55.0124823C14.8255206 55.0115139 14.8183188 55.0139444 14.8132096 55.0190536 14.8081005 55.0241628 14.8056699 55.0313645 14.8066383 55.0385248L14.8066383 55.513078C14.8056699 55.5202383 14.8081005 55.5274401 14.8132096 55.5325492 14.8183188 55.5376584 14.8255206 55.5400889 14.8326809 55.5391206L15.9660142 55.5391206C15.9839183 55.5383849 16.0013439 55.5450066 16.0142411 55.5574468 16.0268821 55.5702158 16.0335384 55.5877322 16.0325674 55.6056738L16.0325674 55.9982411C16.0337124 56.0162188 16.0270691 56.0338203 16.0143312 56.0465581 16.0015933 56.059296 15.9839918 56.0659393 15.9660142 56.0647943L14.2587801 56.0647943C14.2408195 56.0658894 14.2232541 56.0592146 14.2105532 56.0464681 14.1978562 56.0336688 14.1908951 56.0162661 14.1912486 55.9982411L14.1912486 53.5415603C14.1908951 53.5235353 14.1978562 53.5061326 14.2105532 53.4933333 14.2232541 53.4805869 14.2408195 53.473912 14.2587801 53.4750071L15.9660142 53.4750071C15.9839918 53.4738621 16.0015933 53.4805054 16.0143312 53.4932433 16.0270691 53.5059811 16.0337124 53.5235827 16.0325674 53.5415603L16.0325674 53.9341277C16.0327908 53.9525135 16.0250537 53.9700979 16.0113475 53.9823546L16.0113475 53.9823546zM16.8273475 55.9992057C16.686699 55.9414859 16.5662351 55.8435042 16.481078 55.7175603 16.3982044 55.5917664 16.3554874 55.4437704 16.3585816 55.2931631L16.3585816 55.2449362C16.3576418 55.2272848 16.3643141 55.2100774 16.3769078 55.1976738 16.3895781 55.1847817 16.4070687 55.1777855 16.4251348 55.178383L16.8958298 55.178383C16.9129052 55.1778703 16.9297303 55.1825813 16.9440567 55.1918865 16.954752 55.1986502 16.9615644 55.2101238 16.962383 55.2227518L16.962383 55.2680851C16.9660073 55.3536052 17.010974 55.4320272 17.0829504 55.4783546 17.172025 55.5443702 17.2807888 55.5783589 17.3916028 55.5748085 17.4779329 55.5820661 17.5638781 55.5569701 17.6327376 55.5043972 17.6816377 55.4644102 17.7099702 55.4045579 17.7099007 55.3413901 17.711503 55.2756385 17.6766113 55.2143923 17.619234 55.1822411 17.5161723 55.1276198 17.4075142 55.0842859 17.2951489 55.0529929L17.2141277 55.0269504C17.0717443 54.9814289 16.9330828 54.9249968 16.7993759 54.858156 16.6793763 54.7972677 16.5748143 54.7098578 16.493617 54.6025532 16.4071799 54.4881268 16.3625827 54.3475264 16.3672624 54.2041986 16.3645464 54.0611379 16.4067093 53.9208197 16.4878298 53.8029504 16.571958 53.6849496 16.6876159 53.5930251 16.8215603 53.5377021 16.9739324 53.4725961 17.1381378 53.4397551 17.3038298 53.4412482 17.4803891 53.4385216 17.6554452 53.4740593 17.8169645 53.5454184 17.9605805 53.6067051 18.0841955 53.7069335 18.173844 53.8347801 18.2610953 53.9621497 18.3065987 54.1134906 18.3040567 54.2678582L18.3040567 54.3035461C18.3045728 54.3214139 18.2979824 54.3387571 18.2857305 54.351773 18.2728332 54.3642133 18.2554077 54.370835 18.2375035 54.3700993L17.7668085 54.3700993C17.7502932 54.3707416 17.7338362 54.3677794 17.7185816 54.3614184 17.7073426 54.3567013 17.7000919 54.3456344 17.7002553 54.3334468L17.7002553 54.3035461C17.6983152 54.2136954 17.6561916 54.1294483 17.5854752 54.0739858 17.4981569 54.0052931 17.3886936 53.9709786 17.2777872 53.9775319 17.1981146 53.973021 17.1190716 53.9939641 17.0520851 54.0373333 16.9979879 54.0752481 16.9670539 54.138208 16.9700993 54.2041986 16.9685361 54.2543933 16.9873193 54.3030903 17.0221844 54.339234 17.0692857 54.3812942 17.123947 54.4140255 17.1832624 54.4356879 17.2565674 54.4665532 17.3674894 54.5060993 17.518922 54.5552908 17.6915745 54.6150922 17.8256454 54.6671773 17.9220993 54.7115461 18.0273693 54.762975 18.1201842 54.8367003 18.1940993 54.9276028 18.2836544 55.0389946 18.3292921 55.1793389 18.322383 55.3220993 18.3255109 55.468202 18.2826616 55.6115955 18.1998865 55.7320284 18.1130586 55.8533581 17.9936835 55.9476543 17.8555461 56.0040284 17.5241175 56.1339014 17.1558825 56.1339014 16.8244539 56.0040284L16.8273475 55.9992057zM20.6035177 53.4933333C20.6155926 53.5064593 20.6221546 53.5237278 20.6218545 53.5415603L20.6218545 53.9379858C20.6221546 53.9558183 20.6155926 53.9730868 20.6035177 53.9862128 20.5906205 53.998653 20.5731949 54.0052747 20.5552908 54.004539L19.9360567 54.004539C19.918695 54.004539 19.9109787 54.0132199 19.9109787 54.0305816L19.9109787 56.0011348C19.911346 56.0191597 19.9043849 56.0365625 19.8916879 56.0493617 19.8789189 56.0620027 19.8614026 56.0686589 19.843461 56.0676879L19.3611915 56.0676879C19.3432139 56.0688329 19.3256123 56.0621896 19.3128745 56.0494518 19.3001366 56.0367139 19.2934933 56.0191124 19.2946383 56.0011348L19.2946383 54.0305816C19.2956067 54.0234213 19.2931761 54.0162195 19.288067 54.0111103 19.2829578 54.0060012 19.275756 54.0035706 19.2685957 54.004539L18.6734752 54.004539C18.6555336 54.00551 18.6380172 53.9988538 18.6252482 53.9862128 18.612808 53.9733155 18.6061863 53.9558899 18.606922 53.9379858L18.606922 53.5415603C18.6061863 53.5236562 18.612808 53.5062306 18.6252482 53.4933333 18.6380172 53.4806923 18.6555336 53.4740361 18.6734752 53.4750071L20.5552908 53.4750071C20.5731949 53.4742714 20.5906205 53.4808931 20.6035177 53.4933333L20.6035177 53.4933333zM22.2200851 55.9992057C22.0794365 55.9414859 21.9589727 55.8435042 21.8738156 55.7175603 21.790942 55.5917664 21.7482249 55.4437704 21.7513191 55.2931631L21.7513191 55.2449362C21.7503794 55.2272848 21.7570517 55.2100774 21.7696454 55.1976738 21.7824446 55.1849768 21.7998474 55.1780157 21.8178723 55.178383L22.2885674 55.178383C22.3056428 55.1778703 22.3224679 55.1825813 22.3367943 55.1918865 22.3474896 55.1986502 22.354302 55.2101238 22.3551206 55.2227518L22.3551206 55.2680851C22.3587448 55.3536052 22.4037116 55.4320272 22.4756879 55.4783546 22.5647626 55.5443702 22.6735264 55.5783589 22.7843404 55.5748085 22.8706705 55.5820661 22.9566157 55.5569701 23.0254752 55.5043972 23.0746254 55.4645117 23.1032988 55.4046871 23.1036028 55.3413901 23.10499 55.2756928 23.0701569 55.2145496 23.0129362 55.1822411 22.9094347 55.1278436 22.8004815 55.084521 22.6878865 55.0529929L22.6068652 55.0269504C22.4644819 54.9814289 22.3258204 54.9249968 22.1921135 54.858156 22.0732092 54.7981341 21.9693601 54.7120877 21.8882837 54.6064113 21.8018466 54.491985 21.7572494 54.3513846 21.7619291 54.2080567 21.759213 54.0649961 21.8013759 53.9246779 21.8824965 53.8068085 21.9666247 53.6888078 22.0822825 53.5968832 22.216227 53.5415603 22.3685991 53.4764543 22.5328045 53.4436132 22.6984965 53.4451064 22.8750558 53.4423798 23.0501119 53.4779175 23.2116312 53.5492766 23.3552472 53.6105633 23.4788622 53.7107916 23.5685106 53.8386383 23.655762 53.9660079 23.7012654 54.1173488 23.6987234 54.2717163L23.6987234 54.3035461C23.6992395 54.3214139 23.6926491 54.3387571 23.6803972 54.351773 23.6674999 54.3642133 23.6500743 54.370835 23.6321702 54.3700993L23.1614752 54.3700993C23.1449599 54.3707416 23.1285029 54.3677794 23.1132482 54.3614184 23.1020093 54.3567013 23.0947586 54.3456344 23.094922 54.3334468L23.094922 54.3035461C23.0929819 54.2136954 23.0508583 54.1294483 22.9801418 54.0739858 22.8929089 54.0051313 22.7833825 53.9707971 22.6724539 53.9775319 22.5927812 53.973021 22.5137382 53.9939641 22.4467518 54.0373333 22.3926546 54.0752481 22.3617205 54.138208 22.364766 54.2041986 22.3632028 54.2543933 22.3819859 54.3030903 22.4168511 54.339234 22.4639523 54.3812942 22.5186136 54.4140255 22.5779291 54.4356879 22.651234 54.4665532 22.7631206 54.5060993 22.9135887 54.5552908 23.0862411 54.6150922 23.2212766 54.6671773 23.316766 54.7115461 23.4221715 54.7631945 23.5152578 54.8368741 23.5897305 54.9276028 23.6785435 55.0393442 23.723784 55.1795211 23.7170496 55.3220993 23.7201776 55.468202 23.6773282 55.6115955 23.5945532 55.7320284 23.5077252 55.8533581 23.3883502 55.9476543 23.2502128 56.0040284 22.9187841 56.1339014 22.5505492 56.1339014 22.2191206 56.0040284L22.2200851 55.9992057zM24.5494468 55.9876312C24.4013995 55.9110997 24.2785115 55.7935692 24.195461 55.649078 24.1093104 55.4941142 24.0660277 55.3189855 24.0700709 55.1417305L24.0700709 54.4C24.0664544 54.2255479 24.1097596 54.0533264 24.195461 53.9013333 24.2791421 53.7578236 24.4019136 53.6410737 24.5494468 53.5647092 24.8845695 53.4027526 25.275317 53.4027526 25.6104397 53.5647092 25.7589356 53.6404202 25.8824947 53.7572823 25.9663546 53.9013333 26.052348 54.0532495 26.0959847 54.2254644 26.0927092 54.4L26.0927092 55.140766C26.0964581 55.3181091 26.0528411 55.4932434 25.9663546 55.6481135 25.8830928 55.793119 25.7594246 55.9107546 25.6104397 55.9866667 25.275317 56.1486233 24.8845695 56.1486233 24.5494468 55.9866667L24.5494468 55.9876312zM25.3644823 55.4677447C25.4398255 55.3834842 25.4789783 55.2729556 25.4734752 55.1600567L25.4734752 54.3884255C25.4781585 54.2762298 25.4390796 54.1666014 25.3644823 54.0826667 25.2893252 54.0039245 25.1838776 53.961394 25.0751206 53.9659574 24.9685059 53.9623473 24.8655113 54.0048809 24.7925106 54.0826667 24.717206 54.1662388 24.6777211 54.2760346 24.6825532 54.3884255L24.6825532 55.1600567C24.6768884 55.2731523 24.7164499 55.3838552 24.7925106 55.4677447 24.8660696 55.5445051 24.9688701 55.5862569 25.0751206 55.5825248 25.184406 55.5874285 25.2906356 55.545708 25.3673759 55.4677447L25.3644823 55.4677447zM28.3217589 53.9823546C28.3089899 53.9949956 28.2914735 54.0016518 28.2735319 54.0006809L27.1440567 54.0006809C27.1368965 53.9997125 27.1296947 54.002143 27.1245855 54.0072522 27.1194763 54.0123614 27.1170458 54.0195631 27.1180142 54.0267234L27.1180142 54.4675177C27.1170458 54.474678 27.1194763 54.4818798 27.1245855 54.486989 27.1296947 54.4920981 27.1368965 54.4945287 27.1440567 54.4935603L27.8587801 54.4935603C27.8767217 54.4925893 27.8942381 54.4992455 27.9070071 54.5118865 27.9194473 54.5247838 27.926069 54.5422094 27.9253333 54.5601135L27.9253333 54.9459291C27.9264783 54.9639067 27.919835 54.9815082 27.9070972 54.9942461 27.8943593 55.0069839 27.8767578 55.0136273 27.8587801 55.0124823L27.1440567 55.0124823C27.1368965 55.0115139 27.1296947 55.0139444 27.1245855 55.0190536 27.1194763 55.0241628 27.1170458 55.0313645 27.1180142 55.0385248L27.1180142 56.0030638C27.1187499 56.020968 27.1121282 56.0383935 27.0996879 56.0512908 27.0869189 56.0639318 27.0694026 56.070588 27.051461 56.069617L26.5691915 56.069617C26.5512499 56.070588 26.5337335 56.0639318 26.5209645 56.0512908 26.5085243 56.0383935 26.5019026 56.020968 26.5026383 56.0030638L26.5026383 53.5415603C26.5019026 53.5236562 26.5085243 53.5062306 26.5209645 53.4933333 26.5337335 53.4806923 26.5512499 53.4740361 26.5691915 53.4750071L28.2725674 53.4750071C28.2905089 53.4740361 28.3080253 53.4806923 28.3207943 53.4933333 28.3332345 53.5062306 28.3398563 53.5236562 28.3391206 53.5415603L28.3391206 53.9341277C28.3403467 53.9519259 28.3340482 53.9694219 28.3217589 53.9823546L28.3217589 53.9823546zM30.5594894 53.4933333C30.5719296 53.5062306 30.5785513 53.5236562 30.5778156 53.5415603L30.5778156 53.9379858C30.5789606 53.9559634 30.5723173 53.973565 30.5595794 53.9863028 30.5468416 53.9990407 30.52924 54.005684 30.5112624 54.004539L29.8929929 54.004539C29.8858326 54.0035706 29.8786309 54.0060012 29.8735217 54.0111103 29.8684125 54.0162195 29.865982 54.0234213 29.8669504 54.0305816L29.8669504 56.0011348C29.8673177 56.0191597 29.8603565 56.0365625 29.8476596 56.0493617 29.8352559 56.0619554 29.8180485 56.0686277 29.8003972 56.0676879L29.3181277 56.0676879C29.3002235 56.0684236 29.282798 56.0618019 29.2699007 56.0493617 29.2578258 56.0362357 29.2512638 56.0189673 29.2515745 56.0011348L29.2515745 54.0305816C29.2525428 54.0234213 29.2501123 54.0162195 29.2450031 54.0111103 29.239894 54.0060012 29.2326922 54.0035706 29.2255319 54.004539L28.6294468 54.004539C28.6114692 54.005684 28.5938677 53.9990407 28.5811298 53.9863028 28.5683919 53.973565 28.5617486 53.9559634 28.5628936 53.9379858L28.5628936 53.5415603C28.5617486 53.5235827 28.5683919 53.5059811 28.5811298 53.4932433 28.5938677 53.4805054 28.6114692 53.4738621 28.6294468 53.4750071L30.5112624 53.4750071C30.5291665 53.4742714 30.5465921 53.4808931 30.5594894 53.4933333L30.5594894 53.4933333zM31.4439716 56.0117447L30.7687943 53.5492766C30.766957 53.5419959 30.766957 53.5343729 30.7687943 53.5270922 30.7687943 53.4923688 30.7880851 53.4750071 30.8276312 53.4750071L31.3475177 53.4750071C31.3656091 53.4746475 31.3832886 53.4804273 31.3976738 53.4914043 31.4107229 53.5020487 31.4193232 53.5171853 31.4217872 53.533844L31.7333333 54.8417589C31.7378345 54.8514043 31.7436217 54.856227 31.750695 54.856227 31.7564823 54.856227 31.7603404 54.8514043 31.763234 54.8417589L32.0593475 53.5319149C32.0612793 53.5142139 32.0702237 53.4980252 32.0841808 53.4869683 32.0981379 53.4759114 32.1159436 53.4709084 32.133617 53.473078L32.5744113 53.473078C32.6106347 53.4706086 32.6427966 53.4960875 32.6486809 53.5319149L32.9737305 54.8398298C32.9795177 54.8494752 32.9843404 54.8542979 32.9910922 54.8542979 32.997844 54.8542979 33.0017021 54.8494752 33.0036312 54.8398298L33.2929929 53.5319149C33.2950725 53.5151263 33.3037489 53.4998559 33.3171064 53.4894752 33.3314174 53.478358 33.349148 53.4725615 33.3672624 53.473078L33.8707518 53.473078C33.8902046 53.4697598 33.9099187 53.4773142 33.9221726 53.4927823 33.9344266 53.5082504 33.9372698 53.52917 33.9295887 53.5473475L33.3151773 56.006922C33.309293 56.0427494 33.2771312 56.0682283 33.2409078 56.0657589L32.7480284 56.0657589C32.729937 56.0661185 32.7122575 56.0603386 32.6978723 56.0493617 32.6850313 56.0385428 32.6764793 56.0234912 32.6737589 56.006922L32.3631773 54.6170213C32.3631773 54.6054468 32.355461 54.598695 32.3487092 54.598695 32.3419574 54.598695 32.3361702 54.6054468 32.3332766 54.6170213L32.0516312 56.006922C32.0501633 56.0240885 32.0419012 56.0399582 32.0286802 56.0510059 32.0154592 56.0620535 31.9983741 56.0673644 31.9812199 56.0657589L31.5220993 56.0657589C31.4858906 56.0711614 31.4517063 56.0475278 31.4439716 56.0117447zM35.4747801 56.0117447L35.3889362 55.7079149C35.3869396 55.6938751 35.3740767 55.6840136 35.36 55.6857305L34.5227801 55.6857305C34.5087475 55.68488 34.496134 55.6942384 34.4928794 55.7079149L34.408 56.0117447C34.4012215 56.0466595 34.3691599 56.0708098 34.3337305 56.0676879L33.8109504 56.0676879C33.7916093 56.0698039 33.7724727 56.0622215 33.7598298 56.0474326 33.7503757 56.030669 33.7503757 56.0101821 33.7598298 55.9934184L34.5304965 53.5319149C34.5400697 53.4972839 34.5727944 53.4742554 34.6086241 53.4769362L35.2635461 53.4769362C35.299822 53.4725635 35.3335424 53.4962927 35.3416738 53.5319149L36.1229504 55.9953475C36.124999 56.0039075 36.124999 56.0128301 36.1229504 56.0213901 36.1229504 56.0532199 36.1036596 56.069617 36.0641135 56.069617L35.5413333 56.069617C35.5080263 56.0690802 35.4799367 56.0446545 35.4747801 56.0117447zM34.6443121 55.1899574C34.6437023 55.1960076 34.6458429 55.2020115 34.6501426 55.2063113 34.6544424 55.210611 34.6604463 55.2127516 34.6664965 55.2121418L35.2153191 55.2121418C35.2233575 55.2130505 35.2312132 55.2093097 35.2355745 55.2024965 35.2385477 55.196072 35.2385477 55.1886656 35.2355745 55.1822411L34.9539291 54.1974468C34.9539291 54.1849078 34.9471773 54.1791206 34.9404255 54.1791206 34.9336738 54.1791206 34.9288511 54.1849078 34.9240284 54.1974468L34.642383 55.1822411 34.6443121 55.1899574zM37.8301844 56.0156028L37.4 55.0510638C37.3956595 55.0390735 37.383759 55.0315364 37.3710638 55.0327376L37.1415035 55.0327376C37.1345298 55.0318289 37.1275211 55.0341396 37.1224553 55.0390178 37.1173895 55.043896 37.114816 55.0508125 37.115461 55.0578156L37.115461 55.9992057C37.1158283 56.0172306 37.1088672 56.0346334 37.0961702 56.0474326 37.0837665 56.0600264 37.0665592 56.0666986 37.0489078 56.0657589L36.5666383 56.0657589C36.5487342 56.0664946 36.5313086 56.0598728 36.5184113 56.0474326 36.5063365 56.0343066 36.4997744 56.0170382 36.5000746 55.9992057L36.5000746 53.5415603C36.4997744 53.5237278 36.5063365 53.5064593 36.5184113 53.4933333 36.5313086 53.4808931 36.5487342 53.4742714 36.5666383 53.4750071L37.6449929 53.4750071C37.7939303 53.4702437 37.9416325 53.5034352 38.0742128 53.571461 38.1959974 53.6356575 38.2965211 53.7338356 38.3635745 53.8540709 38.4311251 53.9837084 38.4643323 54.128492 38.4600284 54.2746099 38.463591 54.425469 38.4219373 54.5739441 38.3404255 54.7009362 38.2594785 54.8220369 38.1418325 54.9139901 38.004766 54.9632908 37.9971085 54.9654131 37.99091 54.9710388 37.9880575 54.9784553 37.985205 54.9858717 37.9860362 54.9942012 37.9902979 55.0009078L38.4638865 55.9857021 38.4716028 56.0156028C38.4716028 56.0474326 38.4513475 56.0638298 38.412766 56.0638298L37.906383 56.0638298C37.8733329 56.0655144 37.8428067 56.046194 37.8301844 56.0156028L37.8301844 56.0156028zM37.115461 54.0267234L37.115461 54.5379291C37.1144926 54.5450894 37.1169231 54.5522911 37.1220323 54.5574003 37.1271415 54.5625095 37.1343433 54.56494 37.1415035 54.5639716L37.5446809 54.5639716C37.6256608 54.5679368 37.7050725 54.5406606 37.7665248 54.487773 37.8238358 54.4367881 37.8553279 54.3628346 37.8523688 54.2861844 37.8555835 54.2078091 37.8241941 54.1319807 37.7665248 54.0788085 37.7055197 54.0249601 37.6259662 53.9969435 37.5446809 54.0006809L37.1415035 54.0006809C37.1343433 53.9997125 37.1271415 54.002143 37.1220323 54.0072522 37.1169231 54.0123614 37.1144926 54.0195631 37.115461 54.0267234zM40.689078 53.9823546C40.676309 53.9949956 40.6587926 54.0016518 40.6408511 54.0006809L39.5075177 54.0006809C39.5003575 53.9997125 39.4931557 54.002143 39.4880465 54.0072522 39.4829373 54.0123614 39.4805068 54.0195631 39.4814752 54.0267234L39.4814752 54.4675177C39.4805068 54.474678 39.4829373 54.4818798 39.4880465 54.486989 39.4931557 54.4920981 39.5003575 54.4945287 39.5075177 54.4935603L40.2212766 54.4935603C40.2392373 54.4924652 40.2568027 54.49914 40.2695035 54.5118865 40.2822005 54.5246858 40.2891616 54.5420885 40.2887943 54.5601135L40.2887943 54.9459291C40.2893918 54.9639952 40.2823956 54.9814857 40.2695035 54.994156 40.2568027 55.0069025 40.2392373 55.0135774 40.2212766 55.0124823L39.5075177 55.0124823C39.5003575 55.0115139 39.4931557 55.0139444 39.4880465 55.0190536 39.4829373 55.0241628 39.4805068 55.0313645 39.4814752 55.0385248L39.4814752 55.513078C39.4805068 55.5202383 39.4829373 55.5274401 39.4880465 55.5325492 39.4931557 55.5376584 39.5003575 55.5400889 39.5075177 55.5391206L40.6408511 55.5391206C40.6587926 55.5381496 40.676309 55.5448058 40.689078 55.5574468 40.7019701 55.5701171 40.7089663 55.5876077 40.7083688 55.6056738L40.7083688 55.9982411C40.7087361 56.0162661 40.701775 56.0336688 40.689078 56.0464681 40.676309 56.0591091 40.6587926 56.0657653 40.6408511 56.0647943L38.933617 56.0647943C38.9156394 56.0659393 38.8980379 56.059296 38.8853 56.0465581 38.8725622 56.0338203 38.8659188 56.0162188 38.8670638 55.9982411L38.8670638 53.5415603C38.8659188 53.5235827 38.8725622 53.5059811 38.8853 53.4932433 38.8980379 53.4805054 38.9156394 53.4738621 38.933617 53.4750071L40.6408511 53.4750071C40.6587926 53.4740361 40.676309 53.4806923 40.689078 53.4933333 40.701775 53.5061326 40.7087361 53.5235353 40.7083688 53.5415603L40.7083688 53.9341277C40.7089663 53.9521938 40.7019701 53.9696843 40.689078 53.9823546zM43.5672624 56.0117447L43.482383 55.7079149C43.4799201 55.6937338 43.4667683 55.6839761 43.4524823 55.6857305L42.6152624 55.6857305C42.6013458 55.685261 42.5889472 55.6944599 42.5853617 55.7079149L42.5004823 56.0117447C42.4937038 56.0466595 42.4616422 56.0708098 42.4262128 56.0676879L41.9043972 56.0676879C41.88486 56.0719893 41.8646091 56.0644993 41.8525729 56.0485201 41.8405366 56.032541 41.8389271 56.0110094 41.8484539 55.9934184L42.6268369 53.5319149C42.635668 53.4971955 42.6683001 53.4739451 42.704 53.4769362L43.3598865 53.4769362C43.3960474 53.473015 43.4294967 53.4965534 43.4380142 53.5319149L44.2192908 55.9953475C44.2208451 56.0039588 44.2208451 56.0127788 44.2192908 56.0213901 44.2192908 56.0532199 44.1990355 56.069617 44.1594894 56.069617L43.6376738 56.069617C43.6030569 56.0705801 43.5730207 56.0458929 43.5672624 56.0117447L43.5672624 56.0117447zM42.7377589 55.1899574C42.7371491 55.1960076 42.7392897 55.2020115 42.7435894 55.2063113 42.7478892 55.210611 42.7538931 55.2127516 42.7599433 55.2121418L43.3078014 55.2121418C43.3158798 55.2133008 43.3238646 55.2094985 43.3280567 55.2024965 43.3314871 55.1961804 43.3314871 55.1885572 43.3280567 55.1822411L43.0464113 54.1974468C43.0464113 54.1849078 43.0396596 54.1791206 43.0338723 54.1791206 43.0280851 54.1791206 43.0222979 54.1849078 43.0174752 54.1974468L42.7358298 55.1822411 42.7377589 55.1899574zM44.6263262 56.0117447L43.9511489 53.5492766C43.9493116 53.5419959 43.9493116 53.5343729 43.9511489 53.5270922 43.9511489 53.4923688 43.9704397 53.4750071 44.0099858 53.4750071L44.5289078 53.4750071C44.5469991 53.4746475 44.5646787 53.4804273 44.5790638 53.4914043 44.5921129 53.5020487 44.6007133 53.5171853 44.6031773 53.533844L44.9137589 54.8417589C44.9185816 54.8514043 44.9243688 54.856227 44.930156 54.856227 44.9359433 54.856227 44.940766 54.8514043 44.9436596 54.8417589L45.2368794 53.5319149C45.2388112 53.5142139 45.2477556 53.4980252 45.2617127 53.4869683 45.2756698 53.4759114 45.2934755 53.4709084 45.3111489 53.473078L45.7519433 53.473078C45.7881666 53.4706086 45.8203285 53.4960875 45.8262128 53.5319149L46.1512624 54.8398298C46.1570496 54.8494752 46.1618723 54.8542979 46.1686241 54.8542979 46.1753759 54.8542979 46.179234 54.8494752 46.1811631 54.8398298L46.4705248 53.5319149C46.4726044 53.5151263 46.4812808 53.4998559 46.4946383 53.4894752 46.5089494 53.478358 46.5266799 53.4725615 46.5447943 53.473078L47.0482837 53.473078C47.0677365 53.4697598 47.0874506 53.4773142 47.0997045 53.4927823 47.1119585 53.5082504 47.1148017 53.52917 47.1071206 53.5473475L46.4907801 56.0088511C46.4848959 56.0446785 46.452734 56.0701574 46.4165106 56.0676879L45.9236312 56.0676879C45.9055399 56.0680476 45.8878603 56.0622677 45.8734752 56.0512908 45.8606341 56.0404719 45.8520821 56.0254203 45.8493617 56.0088511L45.5387801 54.6189504C45.5387801 54.6073759 45.5310638 54.6006241 45.5243121 54.6006241 45.5175603 54.6006241 45.511773 54.6073759 45.5088794 54.6189504L45.227234 56.0088511C45.2257661 56.0260176 45.217504 56.0418873 45.204283 56.0529349 45.1910621 56.0639826 45.1739769 56.0692935 45.1568227 56.0676879L44.6977021 56.0676879C44.663338 56.0692927 44.632978 56.0454971 44.6263262 56.0117447L44.6263262 56.0117447zM48.6532766 56.0117447L48.5674326 55.7079149C48.5674326 55.6934468 48.5548936 55.6857305 48.5375319 55.6857305L47.7012766 55.6857305C47.687244 55.68488 47.6746304 55.6942384 47.6713759 55.7079149L47.5864965 56.0117447C47.579718 56.0466595 47.5476564 56.0708098 47.512227 56.0676879L46.9894468 56.0676879C46.9701057 56.0698039 46.9509692 56.0622215 46.9383262 56.0474326 46.9288722 56.030669 46.9288722 56.0101821 46.9383262 55.9934184L47.7118865 53.5319149C47.7214598 53.4972839 47.7541845 53.4742554 47.7900142 53.4769362L48.4449362 53.4769362C48.4812121 53.4725635 48.5149324 53.4962927 48.5230638 53.5319149L49.3043404 55.9953475C49.3063891 56.0039075 49.3063891 56.0128301 49.3043404 56.0213901 49.3043404 56.0532199 49.2850496 56.0696407 49.2455035 56.0696407L48.7227234 56.0696407C48.6883218 56.0705154 48.6585965 56.0457444 48.6532766 56.0117447zM47.8228085 55.1899574C47.8221987 55.1960076 47.8243393 55.2020115 47.8286391 55.2063113 47.8329388 55.210611 47.8389428 55.2127516 47.8449929 55.2121418L48.3938156 55.2121418C48.401854 55.2130505 48.4097096 55.2093097 48.4140709 55.2024965 48.4170441 55.196072 48.4170441 55.1886656 48.4140709 55.1822411L48.1304965 54.1974468C48.1304965 54.1849078 48.1237447 54.1791206 48.1169929 54.1791206 48.1102411 54.1791206 48.1054184 54.1849078 48.1005957 54.1974468L47.8189504 55.1822411 47.8228085 55.1899574zM51.0086809 56.0156028L50.5784965 55.0510638C50.574156 55.0390735 50.5622554 55.0315364 50.5495603 55.0327376L50.32 55.0327376C50.3130262 55.0318289 50.3060175 55.0341396 50.3009517 55.0390178 50.2958859 55.043896 50.2933124 55.0508125 50.2939574 55.0578156L50.2939574 55.9992057C50.2943247 56.0172306 50.2873636 56.0346334 50.2746667 56.0474326 50.262263 56.0600264 50.2450556 56.0666986 50.2274043 56.0657589L49.7451348 56.0657589C49.7272306 56.0664946 49.7098051 56.0598728 49.6969078 56.0474326 49.6848329 56.0343066 49.6782709 56.0170382 49.678571 55.9992057L49.678571 53.5415603C49.6782709 53.5237278 49.6848329 53.5064593 49.6969078 53.4933333 49.7098051 53.4808931 49.7272306 53.4742714 49.7451348 53.4750071L50.8234894 53.4750071C50.9724267 53.4702437 51.120129 53.5034352 51.2527092 53.571461 51.3744939 53.6356575 51.4750175 53.7338356 51.5420709 53.8540709 51.6096215 53.9837084 51.6428288 54.128492 51.6385248 54.2746099 51.6420874 54.425469 51.6004338 54.5739441 51.518922 54.7009362 51.437975 54.8220369 51.320329 54.9139901 51.1832624 54.9632908 51.175605 54.9654131 51.1694064 54.9710388 51.166554 54.9784553 51.1637015 54.9858717 51.1645326 54.9942012 51.1687943 55.0009078L51.642383 55.9857021 51.6500993 56.0156028C51.6500993 56.0474326 51.629844 56.0638298 51.5912624 56.0638298L51.0829504 56.0638298C51.050594 56.0646909 51.0210571 56.0455111 51.0086809 56.0156028zM50.2939574 54.0267234L50.2939574 54.5379291C50.2929891 54.5450894 50.2954196 54.5522911 50.3005288 54.5574003 50.3056379 54.5625095 50.3128397 54.56494 50.32 54.5639716L50.7231773 54.5639716C50.8041573 54.5679368 50.883569 54.5406606 50.9450213 54.487773 51.0023322 54.4367881 51.0338243 54.3628346 51.0308652 54.2861844 51.03408 54.2078091 51.0026905 54.1319807 50.9450213 54.0788085 50.8840161 54.0249601 50.8044627 53.9969435 50.7231773 54.0006809L50.32 54.0006809C50.3128397 53.9997125 50.3056379 54.002143 50.3005288 54.0072522 50.2954196 54.0123614 50.2929891 54.0195631 50.2939574 54.0267234L50.2939574 54.0267234zM52.0638865 56.0493617C52.0514463 56.0364644 52.0448246 56.0190389 52.0455603 56.0011348L52.0455603 53.5415603C52.0444153 53.5235827 52.0510586 53.5059811 52.0637965 53.4932433 52.0765343 53.4805054 52.0941358 53.4738621 52.1121135 53.4750071L53.0342128 53.4750071C53.2095719 53.4699747 53.3839493 53.5028761 53.5454184 53.571461 53.6854443 53.6307743 53.8051166 53.7296632 53.8897589 53.856 53.9725635 53.9825433 54.0152564 54.1311283 54.0122553 54.2823262L54.0122553 55.2526525C54.0150768 55.4038269 53.9723987 55.5523599 53.8897589 55.6789787 53.8058246 55.8071009 53.6860814 55.9077254 53.5454184 55.9683404 53.3838099 56.0364637 53.2095336 56.069346 53.0342128 56.0647943L52.1121135 56.0647943C52.0946201 56.0663131 52.0772483 56.0607541 52.0638865 56.0493617zM52.6860142 55.5420142L53.0602553 55.5420142C53.1525292 55.5448642 53.2411508 55.5058707 53.3013901 55.4359149 53.3663976 55.3559546 53.4006153 55.2553547 53.397844 55.1523404L53.397844 54.3893901C53.4025603 54.2863829 53.3680987 54.1854103 53.3013901 54.1067801 53.238861 54.0365857 53.1484278 53.9977277 53.0544681 54.0006809L52.6840851 54.0006809C52.6769248 53.9997125 52.6697231 54.002143 52.6646139 54.0072522 52.6595047 54.0123614 52.6570742 54.0195631 52.6580426 54.0267234L52.6580426 55.5159716C52.6569006 55.5235296 52.6595632 55.5311641 52.6651576 55.5363727 52.670752 55.5415812 52.6785569 55.5436924 52.6860142 55.5420142zM54.833078 55.9992057C54.6924295 55.9414859 54.5719656 55.8435042 54.4868085 55.7175603 54.4039349 55.5917664 54.3612179 55.4437704 54.3643121 55.2931631L54.3643121 55.2449362C54.3633723 55.2272848 54.3700446 55.2100774 54.3826383 55.1976738 54.3953086 55.1847817 54.4127992 55.1777855 54.4308652 55.178383L54.9015603 55.178383C54.9186357 55.1778703 54.9354608 55.1825813 54.9497872 55.1918865 54.9604825 55.1986502 54.9672949 55.2101238 54.9681135 55.2227518L54.9681135 55.2680851C54.9717378 55.3536052 55.0167045 55.4320272 55.0886809 55.4783546 55.1777555 55.5443702 55.2865193 55.5783589 55.3973333 55.5748085 55.4836634 55.5820661 55.5696086 55.5569701 55.6384681 55.5043972 55.6873682 55.4644102 55.7157007 55.4045579 55.7156312 55.3413901 55.7172335 55.2756385 55.6823418 55.2143923 55.6249645 55.1822411 55.5219028 55.1276198 55.4132447 55.0842859 55.3008794 55.0529929L55.2198582 55.0269504C55.0774748 54.9814289 54.9388133 54.9249968 54.8051064 54.858156 54.6862021 54.7981341 54.582353 54.7120877 54.5012766 54.6064113 54.4148395 54.491985 54.3702423 54.3513846 54.374922 54.2080567 54.3722059 54.0649961 54.4143689 53.9246779 54.4954894 53.8068085 54.5796176 53.6888078 54.6952754 53.5968832 54.8292199 53.5415603 54.981592 53.4764543 55.1457974 53.4436132 55.3114894 53.4451064 55.4880487 53.4423798 55.6631048 53.4779175 55.8246241 53.5492766 55.9682401 53.6105633 56.0918551 53.7107916 56.1815035 53.8386383 56.2687549 53.9660079 56.3142583 54.1173488 56.3117163 54.2717163L56.3117163 54.3035461C56.3122324 54.3214139 56.305642 54.3387571 56.2933901 54.351773 56.2804928 54.3642133 56.2630672 54.370835 56.2451631 54.3700993L55.7744681 54.3700993C55.7579528 54.3707416 55.7414958 54.3677794 55.7262411 54.3614184 55.7150022 54.3567013 55.7077515 54.3456344 55.7079149 54.3334468L55.7079149 54.3035461C55.7059748 54.2136954 55.6638512 54.1294483 55.5931348 54.0739858 55.5058164 54.0052931 55.3963532 53.9709786 55.2854468 53.9775319 55.2057741 53.973021 55.1267311 53.9939641 55.0597447 54.0373333 55.0056475 54.0752481 54.9747134 54.138208 54.9777589 54.2041986 54.9761957 54.2543933 54.9949788 54.3030903 55.029844 54.339234 55.0769452 54.3812942 55.1316065 54.4140255 55.190922 54.4356879 55.264227 54.4665532 55.3751489 54.5060993 55.5265816 54.5552908 55.699234 54.6150922 55.833305 54.6671773 55.9297589 54.7115461 56.0350289 54.762975 56.1278438 54.8367003 56.2017589 54.9276028 56.291314 55.0389946 56.3369516 55.1793389 56.3300426 55.3220993 56.3331705 55.468202 56.2903211 55.6115955 56.2075461 55.7320284 56.1207182 55.8533581 56.0013431 55.9476543 55.8632057 56.0040284 55.5317771 56.1339014 55.1635421 56.1339014 54.8321135 56.0040284L54.833078 55.9992057zM26.7389504 64.9501277C26.7142612 64.9242122 26.7010498 64.8894454 26.7022979 64.8536738L26.7022979 64.1051915C26.7017831 64.0425575 26.7289662 63.9828958 26.7765674 63.9421844 26.9585437 63.7743546 27.1485579 63.5869125 27.3466099 63.3798582 27.5446619 63.1728038 27.7324255 62.9750733 27.9099007 62.7866667 28.2359149 62.4458629 28.3889551 62.2851064 28.3690213 62.3043972 28.8191395 61.8401324 29.0441986 61.5019007 29.0441986 61.2897021 29.0472024 61.1532015 28.9887851 61.022559 28.8850496 60.9337872 28.7705286 60.8370899 28.6239157 60.7868423 28.474156 60.7929645 28.3252132 60.7864283 28.1793574 60.836771 28.066156 60.9337872 27.963002 61.0287969 27.9063141 61.1640029 27.9108652 61.3041702L27.9108652 61.4411348C27.9128142 61.477085 27.8994513 61.5121797 27.8740854 61.5377294 27.8487195 61.5632791 27.8137222 61.576895 27.7777589 61.5752057L26.7987518 61.5752057C26.7627833 61.5765363 26.7278683 61.5629195 26.7022979 61.5375887 26.6769113 61.5121181 26.6635804 61.4770369 26.6656454 61.4411348L26.6656454 61.1131915C26.6803811 60.8487438 26.7760044 60.5952072 26.9395745 60.3868936 27.1087398 60.1728297 27.3308228 60.0065999 27.5838865 59.9046241 27.866191 59.790129 28.1685838 59.7333893 28.4731915 59.7377589 28.8042517 59.7301372 29.1325281 59.7998217 29.4319433 59.9412766 29.6895147 60.0624182 29.9077861 60.2536146 30.0617872 60.4929929 30.3263567 60.910446 30.3530706 61.4359401 30.1321986 61.8780709 30.0130637 62.1162476 29.8636049 62.3380043 29.6875461 62.5378156 29.3441254 62.9314697 28.9806556 63.3071732 28.5985816 63.6634326L28.3912057 63.8640567C28.3719149 63.8833475 28.3641986 63.8997447 28.3690213 63.9113191 28.373844 63.9228936 28.3892766 63.9306099 28.4133901 63.9306099L30.2209362 63.9306099C30.2567078 63.9293619 30.2914746 63.9425733 30.3173901 63.9672624 30.342468 63.9929312 30.3557451 64.0278709 30.3540426 64.0637163L30.3540426 64.8488511C30.3560165 64.8847219 30.3426279 64.9197371 30.317225 64.9451399 30.2918222 64.9705428 30.256807 64.9839314 30.2209362 64.9819574L26.8354043 64.9819574C26.8002565 64.9849545 26.7654109 64.9734555 26.7389504 64.9501277zM31.3841702 64.5980709C31.058156 64.2765579 30.8951489 63.8431584 30.8951489 63.2978723L30.8951489 61.4903262C30.8951489 60.9476123 31.058156 60.520643 31.3841702 60.2094184 31.7101844 59.8981939 32.1570875 59.7425816 32.7248794 59.7425816 33.2933144 59.7425816 33.7434326 59.8991584 34.075234 60.2123121 34.4070355 60.5254657 34.5722931 60.9514704 34.5710145 61.4903262L34.5710145 63.2978723C34.5710145 63.8470165 34.4057494 64.2804161 34.075234 64.5980709 33.7447187 64.9157258 33.2946005 65.0764823 32.7248794 65.0803404 32.1570875 65.0777683 31.7101844 64.9170118 31.3841702 64.5980709zM33.1733901 63.8428369C33.2908836 63.7106386 33.3509246 63.5371099 33.3402553 63.3605674L33.3402553 61.4459574C33.3500526 61.2709911 33.2900418 61.0992837 33.1733901 60.9685106 33.0552037 60.8496593 32.8923154 60.7862554 32.7248794 60.7939291 32.5609334 60.7867482 32.4018004 60.8503311 32.2879433 60.9685106 32.1733275 61.100257 32.1148198 61.2716257 32.1249362 61.4459574L32.1249362 63.3644255C32.1141154 63.5396508 32.1710983 63.7123262 32.2840851 63.846695 32.3986518 63.9661025 32.5596555 64.0295175 32.7248794 64.0203121 32.8927721 64.0273515 33.0557728 63.9628523 33.1733901 63.8428369L33.1733901 63.8428369zM35.1767376 64.9501277C35.1520484 64.9242122 35.138837 64.8894454 35.1400851 64.8536738L35.1400851 64.1051915C35.1391652 64.042472 35.1664231 63.9826462 35.2143546 63.9421844 35.396974 63.7743546 35.5869882 63.5869125 35.7843972 63.3798582L36.3476879 62.7866667C36.6737021 62.4461844 36.8299574 62.2860709 36.8068085 62.3043972 37.2569267 61.8401324 37.4819858 61.5019007 37.4819858 61.2897021 37.4849897 61.1532015 37.4265723 61.022559 37.3228369 60.9337872 37.207973 60.837027 37.0610391 60.7867873 36.9109787 60.7929645 36.7623356 60.7864811 36.6167997 60.8368324 36.5039433 60.9337872 36.4007892 61.0287969 36.3441013 61.1640029 36.3486525 61.3041702L36.3486525 61.4411348C36.3503415 61.4771629 36.3366705 61.5122169 36.3110355 61.5375887 36.2855961 61.5631206 36.2505897 61.5767731 36.2145816 61.5752057L35.236539 61.5752057C35.2005309 61.5767731 35.1655244 61.5631206 35.1400851 61.5375887 35.1144501 61.5122169 35.1007791 61.4771629 35.1024681 61.4411348L35.1024681 61.1131915C35.1180321 60.8487545 35.2139358 60.5953669 35.3773617 60.3868936 35.5463066 60.1726034 35.7684551 60.0063246 36.0216738 59.9046241 36.3036413 59.7901298 36.6057191 59.7333877 36.9100142 59.7377589 37.2413853 59.7301288 37.5699768 59.79981 37.8697305 59.9412766 38.1273019 60.0624182 38.3455733 60.2536146 38.4995745 60.4929929 38.7628348 60.9108612 38.7895133 61.4356598 38.5699858 61.8780709 38.4505361 62.1160637 38.3011035 62.3377815 38.1253333 62.5378156 37.7823982 62.932824 37.4195838 63.3101252 37.0382979 63.6682553L36.830922 63.8688794C36.8106667 63.8881702 36.8039149 63.9045674 36.8087376 63.9161418 36.8135603 63.9277163 36.8280284 63.9354326 36.8531064 63.9354326L38.6587234 63.9354326C38.6945942 63.9334587 38.7296094 63.9468473 38.7550123 63.9722502 38.7804151 63.997653 38.7938037 64.0326682 38.7918298 64.068539L38.7918298 64.8536738C38.7930779 64.8894454 38.7798665 64.9242122 38.7551773 64.9501277 38.7295085 64.9752056 38.6945688 64.9884827 38.6587234 64.9867801L35.2731915 64.9867801C35.2373461 64.9884827 35.2024064 64.9752056 35.1767376 64.9501277L35.1767376 64.9501277zM40.0737021 59.8014184L41.0893617 59.8014184C41.1253302 59.8000878 41.1602451 59.8137046 41.1858156 59.8390355 41.2113086 59.8644372 41.2246583 59.899568 41.2224681 59.9354894L41.2224681 64.8546383C41.224442 64.8905091 41.2110534 64.9255243 41.1856506 64.9509272 41.1602477 64.97633 41.1252325 64.9897186 41.0893617 64.9877447L40.1248227 64.9877447C40.0889585 64.9895659 40.0539729 64.9762713 40.0283688 64.9510922 40.0030379 64.9255217 39.9894211 64.8906068 39.9907518 64.8546383L39.9907518 60.9791206C39.9911313 60.9654409 39.9859047 60.9522002 39.9762837 60.9424681 39.9667442 60.9327326 39.9522861 60.9296888 39.9396312 60.9347518L39.3175035 61.0090213 39.2943546 61.0090213C39.216227 61.0090213 39.176678 60.9675461 39.176678 60.8826667L39.176678 60.1939858C39.1762631 60.1254481 39.2216505 60.0650631 39.2876028 60.0464113L39.9097305 59.8313191C39.9616002 59.8096721 40.0175303 59.7994731 40.0737021 59.8014184zM22.4380709 23.7035461C22.4819839 23.7484812 22.5053715 23.8095682 22.502695 23.8723404L22.502695 25.2593475C22.5060474 25.3220519 22.4826692 25.3832397 22.4383593 25.4277335 22.3940493 25.4722273 22.3329588 25.4958587 22.2702411 25.492766L20.1048511 25.492766C20.0798726 25.4891628 20.0546575 25.4975486 20.0368123 25.5153939 20.0189671 25.5332391 20.0105812 25.5584542 20.0141844 25.5834326L20.0141844 32.4798865C20.0164057 32.5425837 19.9930844 32.6034976 19.9495603 32.6486809 19.9046252 32.6925938 19.8435382 32.7159815 19.780766 32.713305L18.0957163 32.713305C18.0328356 32.716681 17.9714829 32.6931748 17.9269554 32.6486474 17.882428 32.60412 17.8589219 32.5427673 17.8622979 32.4798865L17.8622979 25.5834326C17.8659011 25.5584542 17.8575152 25.5332391 17.83967 25.5153939 17.8218247 25.4975486 17.7966096 25.4891628 17.7716312 25.492766L15.6843688 25.492766C15.6214881 25.496142 15.5601353 25.4726358 15.5156079 25.4281084 15.4710805 25.383581 15.4475743 25.3222283 15.4509504 25.2593475L15.4509504 23.8723404C15.4475743 23.8094597 15.4710805 23.748107 15.5156079 23.7035795 15.5601353 23.6590521 15.6214881 23.635546 15.6843688 23.638922L22.2702411 23.638922C22.3327022 23.636399 22.3934324 23.6597836 22.4380709 23.7035461L22.4380709 23.7035461zM23.2878298 32.1953475C22.7426711 31.7732075 22.3564718 31.1789501 22.1921135 30.5093333 22.0848286 30.1300549 22.0325319 29.7373424 22.0368227 29.3432057 22.0361809 28.9195971 22.0926323 28.4978342 22.2046525 28.089305 22.3777379 27.4432082 22.769808 26.8772635 23.3138723 26.4881702 23.8533712 26.1023546 24.5079716 25.9094468 25.2776738 25.9094468 26.0377305 25.9094468 26.6807565 26.1023546 27.2067518 26.4881702 27.7400471 26.8809795 28.1278229 27.439743 28.3092199 28.076766 28.4328453 28.4802017 28.4946339 28.9000391 28.4925366 29.3219858 28.4941963 29.7068938 28.4462159 30.0904128 28.3497305 30.4630355 28.1957305 31.1457012 27.811146 31.7544279 27.260766 32.1866667 26.716766 32.6104208 26.051234 32.8222979 25.2641702 32.8222979 24.4867518 32.8190827 23.8279716 32.6100993 23.2878298 32.1953475zM25.8920851 30.7369645C26.0715971 30.557554 26.1955154 30.3301472 26.2489645 30.0820426 26.3026438 29.8394904 26.3285316 29.591615 26.3261277 29.3432057 26.3270006 29.0896488 26.2965478 28.8369552 26.235461 28.5908652 26.1837079 28.3533137 26.0621133 28.1366603 25.8862979 27.9687376 25.7138523 27.8193291 25.4912304 27.7407567 25.2632057 27.7488227 25.0333753 27.7384277 24.8084132 27.8172163 24.6352908 27.9687376 24.4628838 28.1385423 24.3432944 28.3546072 24.2909504 28.5908652 24.22374 28.8357917 24.1931861 29.0893241 24.2002837 29.3432057 24.1981796 29.5916527 24.2243912 29.8395304 24.2784113 30.0820426 24.339406 30.3285215 24.4645287 30.5544746 24.641078 30.7369645 24.8077108 30.8973335 25.0320573 30.9835938 25.2632057 30.9761702 25.4965432 30.9829681 25.7230516 30.8969435 25.8930496 30.7369645L25.8920851 30.7369645zM35.9339007 29.3943262C35.9436931 29.9510036 35.8515073 30.5047719 35.6619007 31.0282553 35.4753088 31.5479027 35.1398475 32.0011109 34.6973617 32.3313475 34.2674655 32.6589487 33.7408732 32.8343663 33.2003972 32.8300142 32.5438676 32.8300142 32.0513097 32.6313191 31.7227234 32.2339291 31.6966809 32.1992057 31.6725674 32.1866667 31.6513475 32.1953475 31.6301277 32.2040284 31.6185532 32.2300709 31.6185532 32.2725106L31.6185532 34.8526525C31.6212297 34.9154247 31.5978421 34.9765117 31.5539291 35.0214468 31.5087458 35.0649709 31.447832 35.0882922 31.3851348 35.0860709L29.698156 35.0860709C29.6354588 35.0882922 29.574545 35.0649709 29.5293617 35.0214468 29.4854487 34.9765117 29.4620611 34.9154247 29.4647376 34.8526525L29.4647376 26.2441418C29.4616448 26.1814242 29.4852762 26.1203337 29.5297701 26.0760237 29.5742639 26.0317138 29.6354517 26.0083355 29.698156 26.0116879L31.3832057 26.0116879C31.44591 26.0083355 31.5070978 26.0317138 31.5515916 26.0760237 31.5960855 26.1203337 31.6197169 26.1814242 31.6166241 26.2441418L31.6166241 26.5556879C31.6166241 26.5990922 31.627234 26.6251348 31.6494184 26.6338156 31.6716028 26.6424965 31.6947518 26.6289929 31.7207943 26.5942695 32.0487376 26.137078 32.5412955 25.9081608 33.1984681 25.9075177 33.7656277 25.9096022 34.3148653 26.1064152 34.7542695 26.4650213 35.2234837 26.8288038 35.5641432 27.3330339 35.7265248 27.9041135 35.8731871 28.3869428 35.9431638 28.8897985 35.9339007 29.3943262zM33.6257628 29.3557447C33.6257628 28.9146288 33.5524539 28.5561418 33.405844 28.2802837 33.2582668 27.979539 32.9498605 27.7914863 32.614922 27.7980142 32.2863357 27.7980142 32.0313759 27.9623073 31.8500426 28.2908936 31.6918202 28.621504 31.6163479 28.9856248 31.6301277 29.3518865 31.6301277 29.8270827 31.7079338 30.2074326 31.8635461 30.4929362 32.0126385 30.7680727 32.3020133 30.9378343 32.614922 30.9337305 32.9392873 30.9411781 33.2402584 30.7655184 33.393305 30.4794326 33.5489173 30.1971442 33.6264019 29.8225816 33.6257628 29.3557447zM39.3531915 32.6486809C39.3092785 32.6037458 39.2858909 32.5426587 39.2885674 32.4798865L39.2885674 31.1710071C39.2858493 31.0600056 39.3333336 30.9536975 39.4178156 30.8816454 39.7393286 30.5884255 40.0720946 30.2601608 40.4161135 29.8968511L41.4018723 28.8590071C41.9722364 28.262922 42.2400567 27.9822411 42.2053333 28.0169645 42.9911111 27.2048227 43.3843215 26.6125957 43.3849645 26.2402837 43.3900806 26.0015914 43.2877536 25.7732145 43.1062128 25.618156 42.905641 25.4489324 42.648857 25.3611577 42.3866667 25.3721986 42.1263955 25.3602764 41.8714063 25.4482632 41.6738723 25.618156 41.4922839 25.7836895 41.3927908 26.0207795 41.4018723 26.2663262L41.4018723 26.4997447C41.4049412 26.5625417 41.381336 26.6237124 41.3368788 26.6681696 41.2924216 26.7126268 41.2312509 26.736232 41.1684539 26.7331631L39.4592908 26.7331631C39.3965731 26.7362559 39.3354826 26.7126245 39.2911727 26.6681306 39.2468627 26.6236368 39.2234845 26.562449 39.2268369 26.4997447L39.2268369 25.9297021C39.2534182 25.4668103 39.4217937 25.0233093 39.7091064 24.6594043 40.005036 24.2879745 40.392659 24.000083 40.8337589 23.8241135 41.327936 23.6250874 41.8568711 23.5267114 42.3895603 23.5347518 42.9693929 23.5221223 43.5442396 23.6442896 44.0688227 23.8916312 44.5190961 24.1036105 44.9007631 24.4378198 45.1703262 24.8561702 45.6329147 25.5871773 45.6797377 26.5068109 45.2937872 27.2810213 45.0851984 27.6987154 44.8235767 28.0877439 44.5154043 28.4384681 44.1443783 28.8885863 43.5090686 29.5454374 42.6094752 30.4090213L42.2468085 30.7562553C42.2120851 30.7909787 42.1995461 30.8189504 42.208227 30.8401702 42.2169078 30.8613901 42.2429504 30.8729645 42.2863546 30.8729645L45.449078 30.8729645C45.5118502 30.8702881 45.5729372 30.8936757 45.6178723 30.9375887 45.6613964 30.9827719 45.6847177 31.0436858 45.6824965 31.106383L45.6824965 32.4798865C45.6847177 32.5425837 45.6613964 32.6034976 45.6178723 32.6486809 45.5729372 32.6925938 45.5118502 32.7159815 45.449078 32.713305L39.5248794 32.713305C39.4611191 32.7167984 39.3988232 32.69335 39.3531915 32.6486809zM52.8905065 29.7704965C52.8915306 30.1965406 52.8123453 30.6189711 52.657078 31.0157163 52.4298641 31.5539654 52.036903 32.0057187 51.5353191 32.305305 50.990299 32.6340404 50.3631465 32.8012811 49.7268085 32.7875745 49.093831 32.8006416 48.4697903 32.6366138 47.9250496 32.3139858 47.4212657 32.0154 47.0261733 31.5635278 46.7975035 31.0243972 46.705245 30.7995958 46.6404735 30.5644751 46.6045957 30.3241418L46.6045957 30.2720567C46.6045957 30.1434515 46.6779007 30.0791489 46.8245106 30.0791489L48.5751489 30.0791489C48.6887394 30.074482 48.7928429 30.1422073 48.8346099 30.2479433 48.8507684 30.3078066 48.8768511 30.3645366 48.911773 30.415773 48.9725896 30.5783897 49.0842091 30.7170685 49.2300709 30.811234 49.3796436 30.9038372 49.5528611 30.9510783 49.7287376 30.947234 49.9000243 30.9490345 50.0679497 30.8996644 50.2110071 30.8054468 50.3509945 30.7131862 50.4614873 30.5826039 50.529305 30.4292766 50.6349143 30.2391798 50.6884818 30.0245771 50.6845957 29.8071489 50.7013095 29.5789051 50.6563348 29.3503665 50.554383 29.1454752 50.4961127 28.9924913 50.3894137 28.8627589 50.2505532 28.7760567 50.0919672 28.6813203 49.9095121 28.6341163 49.7248794 28.6400567 49.3712151 28.6400567 49.1033948 28.7609456 48.9214184 29.0027234 48.8861177 29.0473853 48.844532 29.0866968 48.7979574 29.1194326 48.753527 29.1472041 48.7017759 29.160982 48.6494184 29.1589787L46.8360851 29.1589787C46.7731904 29.1612842 46.7121276 29.137557 46.6672908 29.0933901 46.6234291 29.0488154 46.6000273 28.9880406 46.6026667 28.9255603L46.6026667 23.8723404C46.5992906 23.8094597 46.6227968 23.748107 46.6673242 23.7035795 46.7118516 23.6590521 46.7732044 23.635546 46.8360851 23.638922L52.3590355 23.638922C52.4218325 23.6358531 52.4830032 23.6594583 52.5274604 23.7039155 52.5719176 23.7483727 52.5955227 23.8095434 52.5924539 23.8723404L52.5924539 25.2468085C52.5952421 25.3094421 52.5715129 25.3703519 52.5270887 25.4145925 52.4826645 25.4588331 52.4216569 25.4823099 52.3590355 25.4792624L48.8452199 25.4792624C48.8201408 25.4760052 48.7949793 25.4846453 48.7771917 25.5026221 48.7594041 25.520599 48.7510308 25.5458505 48.7545532 25.5708936L48.7545532 27.0225248C48.7515064 27.0490907 48.7611565 27.0755391 48.7805957 27.0939007 48.7979574 27.1064397 48.824 27.1045106 48.8587234 27.0871489 49.2200727 26.8888034 49.6261583 26.7862029 50.0383546 26.7891064 50.6132198 26.777711 51.1780907 26.9404476 51.6587801 27.2559433 52.1214623 27.5619558 52.4753299 28.0066539 52.669617 28.5262411 52.8137918 28.925327 52.8884998 29.3461712 52.8905065 29.7704965z"/>
  </g>
</svg>
