<svg xmlns="http://www.w3.org/2000/svg" width="67" height="79" viewBox="0 0 67 79"><g fill="none" fill-rule="evenodd"><path d="M65.064.074h1.787V1.34h-1.787z"/><path fill="#FFF" fill-rule="nonzero" d="M2.308 60.97l29.405 14.963L60.002 60.97V2.457H2.308z"/><path fill="#F2F3F2" fill-rule="nonzero" d="M60.598 2.68L1.712 62.012l30.522 15.112 28.364-14.516z"/><path fill="#DCDEDC" fill-rule="nonzero" d="M.372 21.961v40.275l1.042.52L30.82 77.72l.893.447.894-.447L60.97 62.757l1.042-.521V.52H.372v21.44zM2.308 61.12V2.457h57.769v58.662L31.713 76.082 2.308 61.12z"/><path fill="#FF492C" fill-rule="nonzero" d="M31.192 3.424c.298 0 .596 0 .894.075l-.894 1.712c-1.34-.074-2.53.968-2.605 2.308-.075 1.34.967 2.531 2.307 2.605h.298c.596 0 1.191-.223 1.638-.595l.968 1.638a4.513 4.513 0 01-2.606.819c-2.382.074-4.392-1.713-4.466-4.095C26.65 5.51 28.438 3.5 30.82 3.424h.372zm3.052 3.648l1.117 1.861-1.117 1.787-1.042-1.787h-2.159l1.117-1.86h2.084zm-1.786-.67a1.5 1.5 0 01.223-.819c.149-.223.447-.446.67-.595l.149-.075c.298-.149.372-.223.372-.372s-.223-.298-.372-.298c-.298 0-.521.15-.67.447l-.372-.372c.074-.15.223-.298.372-.447.223-.149.447-.149.67-.149.223 0 .521.075.67.224.149.148.298.372.298.595 0 .372-.224.67-.67.819l-.224.149c-.223.149-.372.223-.446.447h1.34v.52l-2.01-.074zm-1.266 9.306l7.072-4.02V.52H24.046v11.092l7.146 4.095z"/><path fill="#252530" fill-rule="nonzero" d="M13.623 30.596v-6.55a.16.16 0 01.15-.15h1.711a.16.16 0 01.15.15v6.55c0 .968.67 1.713 1.712 1.713 1.042 0 1.712-.67 1.712-1.713v-6.55a.16.16 0 01.149-.15h1.712a.16.16 0 01.149.15v6.55c0 2.085-1.49 3.425-3.722 3.425-2.234 0-3.723-1.415-3.723-3.425zm8.71 1.266v-.149a.16.16 0 01.15-.149h1.563a.16.16 0 01.148.15c0 .446.522.744 1.266.744.67 0 1.117-.298 1.117-.67 0-.596-1.117-.596-2.16-.968-.967-.298-2.01-.82-2.01-2.085 0-1.414 1.192-2.307 3.053-2.307s3.052.967 3.052 2.307a.16.16 0 01-.149.15H26.8a.16.16 0 01-.149-.15c0-.446-.447-.744-1.191-.744-.596 0-1.042.223-1.042.67 0 .595.968.595 2.084.968 1.117.297 2.234.819 2.234 2.159 0 1.414-1.266 2.233-3.127 2.233-2.01 0-3.276-.893-3.276-2.159zm14.07-1.191c0 .149-.074.149-.223.149h-4.467c-.074 0-.074 0-.074.074 0 .224.074.372.149.596.223.52.67.819 1.489.819.67 0 1.116-.298 1.489-.745.074-.074.148-.149.223 0l1.042 1.042c.075.075.075.15 0 .224-.67.819-1.712 1.265-2.903 1.265-1.638 0-2.755-.819-3.276-2.159-.223-.52-.298-1.042-.298-1.786a4.8 4.8 0 01.224-1.49c.446-1.34 1.563-2.232 3.126-2.232 1.936 0 3.127 1.265 3.35 3.052.15.372.15.744.15 1.19zm-4.615-1.712c-.075.149-.075.297-.075.446 0 .075 0 .075.075.075h2.456c.075 0 .075 0 .075-.075 0-.149-.075-.297-.075-.372-.148-.595-.595-.893-1.265-.893-.596 0-.968.298-1.191.819zM42.21 26.65c.074.074.074.149.074.223l-.297 1.638c0 .149-.075.149-.224.074-.223-.074-.52-.074-.819-.074-.67.074-1.265.521-1.265 1.266v3.945a.16.16 0 01-.149.149h-1.712a.16.16 0 01-.15-.149v-6.998a.16.16 0 01.15-.149h1.712a.16.16 0 01.149.15v.52c0 .075.074.075.074.075.373-.521.894-.893 1.564-.893.446 0 .67.074.893.223zm.596 5.211v-.149a.16.16 0 01.148-.149h1.564a.16.16 0 01.149.15c0 .446.52.744 1.265.744.67 0 1.117-.298 1.117-.67 0-.596-1.117-.596-2.159-.968-.968-.298-2.01-.82-2.01-2.085 0-1.414 1.191-2.307 3.052-2.307s3.052.967 3.052 2.307a.16.16 0 01-.148.15h-1.564a.16.16 0 01-.149-.15c0-.446-.446-.744-1.19-.744-.596 0-1.043.223-1.043.67 0 .595.968.595 2.084.968 1.117.297 2.234.819 2.234 2.159 0 1.414-1.266 2.233-3.127 2.233-2.01 0-3.275-.893-3.275-2.159zM7.146 45.783v-9.678a.16.16 0 01.15-.149h1.712a.16.16 0 01.149.15v8.04c0 .074 0 .074.074.074h4.69a.16.16 0 01.149.149v1.414a.16.16 0 01-.149.149H7.296a.16.16 0 01-.15-.149zm8.115-2.084a4.8 4.8 0 01-.223-1.49c0-.52.074-1.116.223-1.488.447-1.415 1.638-2.233 3.276-2.233 1.563 0 2.754.893 3.2 2.233a4.8 4.8 0 01.224 1.489c0 .52-.074 1.042-.223 1.414-.447 1.49-1.638 2.382-3.201 2.382-1.638.075-2.904-.818-3.276-2.307zm4.541-.447c.075-.298.15-.67.15-.968 0-.372-.075-.744-.15-1.042-.223-.67-.67-1.042-1.265-1.042-.67 0-1.117.372-1.266 1.042-.149.223-.149.596-.149 1.042 0 .372 0 .745.075.968.223.67.67 1.042 1.34 1.042.595.075 1.042-.372 1.265-1.042zm4.914 2.531l-2.308-7.072c-.075-.149 0-.223.149-.223h1.86c.075 0 .15.074.224.148l1.191 4.318c0 .075.075.075.075 0l1.19-4.318c0-.074.075-.148.224-.148h1.861c.15 0 .224.074.15.223l-2.309 6.998c0 .074-.074.149-.223.149h-1.861c-.149.074-.223.074-.223-.075zm11.762-3.052c0 .149-.075.149-.224.149h-4.466c-.075 0-.075 0-.075.074 0 .224.075.372.15.596.223.52.67.819 1.488.819.67 0 1.117-.298 1.489-.745.074-.074.149-.149.223 0l1.043 1.042c.074.075.074.15 0 .224-.67.819-1.713 1.265-2.904 1.265-1.638 0-2.754-.819-3.275-2.159-.224-.52-.298-1.042-.298-1.786a4.8 4.8 0 01.223-1.49c.447-1.34 1.564-2.232 3.127-2.232 1.935 0 3.127 1.265 3.35 3.052.149.372.149.744.149 1.19zm-4.616-1.712c-.074.149-.074.297-.074.446 0 .075 0 .075.074.075h2.457c.074 0 .074 0 .074-.075 0-.149-.074-.297-.074-.372-.149-.595-.596-.893-1.266-.893s-1.042.298-1.19.819zm8.785 1.637v-6.55a.16.16 0 01.149-.15h1.712a.16.16 0 01.149.15v6.55c0 .968.67 1.713 1.712 1.713 1.042 0 1.712-.67 1.712-1.713v-6.55a.16.16 0 01.149-.15h1.712a.16.16 0 01.15.15v6.55c0 2.085-1.49 3.425-3.723 3.425-2.233 0-3.722-1.415-3.722-3.425zm8.71 1.266v-.149a.16.16 0 01.149-.149h1.563a.16.16 0 01.149.15c0 .446.52.744 1.265.744.67 0 1.117-.298 1.117-.67 0-.596-1.117-.596-2.159-.968-.968-.298-2.01-.82-2.01-2.085 0-1.414 1.191-2.307 3.052-2.307s3.053.967 3.053 2.307a.16.16 0 01-.15.15h-1.563a.16.16 0 01-.149-.15c0-.446-.446-.744-1.19-.744-.596 0-1.043.223-1.043.67 0 .595.968.595 2.085.968 1.116.297 2.233.819 2.233 2.159 0 1.414-1.266 2.233-3.127 2.233-2.01 0-3.275-.893-3.275-2.159z"/><path fill="#DCDEDC" fill-rule="nonzero" d="M10.646 54.493h14.888v.596H10.646v-.596zm26.65 0h14.89v.596h-14.89v-.596z"/><path fill="#DCDEDC" d="M27.842 53.823l2.308-.372 1.191-2.308 1.116 2.233 2.457.447-1.712 1.712.372 2.457-2.233-1.042-2.234 1.042.298-2.457z"/></g></svg>