<svg xmlns="http://www.w3.org/2000/svg" width="70" height="79" viewBox="0 0 70 79"><g fill="none"><path fill="#FFF" d="M6.032 60.989l29.415 14.968 28.298-14.968V2.457H6.032z"/><path fill="#F2F3F2" d="M64.34 2.681L5.436 62.032l30.532 15.117L64.34 62.628z"/><path fill="#DCDEDC" d="M4.096 21.968v40.287l1.042.522 29.415 14.968.894.446.893-.446 28.373-14.968 1.042-.522V.521H4.095v21.447zm1.936 39.17V2.458h57.787v58.68L35.447 76.106 6.032 61.138z"/><path fill="#FF492C" d="M34.926 3.426c.297 0 .595 0 .893.074l-.893 1.713c-1.34-.075-2.532.968-2.607 2.308-.074 1.34.968 2.532 2.309 2.607h.298c.595 0 1.191-.224 1.638-.596l.968 1.638a4.514 4.514 0 01-2.606.82c-2.383.074-4.394-1.713-4.469-4.096-.074-2.383 1.713-4.394 4.096-4.468h.373zm3.053 3.648l1.117 1.862-1.117 1.787-1.043-1.787h-2.16l1.118-1.862h2.085zm-1.788-.67c0-.298.075-.595.224-.819.149-.223.447-.447.67-.596l.149-.074c.298-.149.372-.224.372-.372 0-.15-.223-.298-.372-.298-.298 0-.521.149-.67.446l-.373-.372c.075-.149.224-.298.373-.447.223-.149.447-.149.67-.149.223 0 .521.075.67.224.15.149.298.372.298.596 0 .372-.223.67-.67.819l-.223.149c-.224.149-.373.223-.447.446h1.34v.522l-2.01-.075zm-1.265 9.309L42 11.69V.521H27.777v11.096l7.149 4.096zM67.17 42.074H2.681L.298 47.287 2.681 52.5H67.17l2.309-5.213z"/><path fill="#252530" d="M12.563 30.897c.491 0 .923.1 1.296.298.372.198.66.484.863.856.204.367.306.79.306 1.266 0 .472-.105.886-.313 1.244a2.213 2.213 0 01-.894.826c-.382.199-.824.298-1.325.298H10.91c-.035 0-.053.02-.053.06v2.844a.12.12 0 01-.044.097.131.131 0 01-.097.037H9.413a.131.131 0 01-.097-.037.131.131 0 01-.037-.097v-7.558a.13.13 0 01.037-.097.131.131 0 01.097-.037h3.15zm-.239 3.53c.348 0 .624-.1.827-.298.209-.199.313-.457.313-.775 0-.332-.104-.598-.313-.797-.203-.203-.479-.305-.827-.305H10.91c-.035 0-.053.02-.053.06v2.055c0 .04.018.06.053.06h1.414zm8.661.834c.045.283.06.598.045.945-.005.095-.052.142-.142.142h-3.455c-.045 0-.06.017-.045.052.025.149.065.298.12.447.198.417.593.625 1.183.625.482-.005.86-.198 1.132-.58.03-.045.062-.068.097-.068.025 0 .052.015.082.045l.804.79c.035.04.053.074.053.104a.253.253 0 01-.038.09 2.403 2.403 0 01-.953.707 3.152 3.152 0 01-1.273.253c-.64 0-1.182-.144-1.624-.432a2.483 2.483 0 01-.96-1.221c-.154-.373-.231-.86-.231-1.46 0-.412.054-.774.164-1.087a2.48 2.48 0 01.9-1.259c.433-.313.941-.469 1.527-.469.745 0 1.343.216 1.795.648.452.432.725 1.008.82 1.728zm-2.606-1.013c-.467 0-.775.218-.924.655-.03.1-.057.219-.082.358 0 .034.02.052.06.052h1.929c.044 0 .062-.018.052-.052-.04-.214-.06-.318-.06-.313a1.007 1.007 0 00-.35-.521 1.057 1.057 0 00-.625-.18zm6.486-1.34c.263 0 .474.052.633.156.06.03.082.084.067.164l-.238 1.273c-.005.09-.057.117-.157.082a1.124 1.124 0 00-.387-.06c-.06 0-.142.008-.246.023a1.137 1.137 0 00-.685.298c-.184.173-.275.407-.275.7v3.045c0 .04-.013.072-.038.097a.148.148 0 01-.096.037h-1.304a.131.131 0 01-.096-.037.131.131 0 01-.038-.097v-5.473c0-.035.013-.067.038-.097a.131.131 0 01.096-.037h1.304c.034 0 .067.012.096.037.025.03.038.062.038.097v.424c0 .02.007.035.022.045.015.01.025.005.03-.015.308-.442.72-.663 1.236-.663zm4.691.066c.035 0 .065.013.09.038a.12.12 0 01.044.097v1.057a.12.12 0 01-.044.097.122.122 0 01-.09.037H28.47c-.035 0-.052.017-.052.052v4.237a.12.12 0 01-.045.097.122.122 0 01-.089.037h-1.31a.148.148 0 01-.097-.037.131.131 0 01-.038-.097v-4.237c0-.035-.02-.052-.06-.052h-.655a.148.148 0 01-.096-.037.131.131 0 01-.038-.097v-1.057c0-.04.013-.072.038-.097a.148.148 0 01.096-.038h.656c.04 0 .06-.02.06-.06v-.245c0-.462.071-.821.215-1.08.14-.253.368-.434.685-.543.318-.11.755-.157 1.311-.142h.424c.04 0 .072.013.097.037a.15.15 0 01.038.097v.901c0 .04-.013.072-.038.097a.12.12 0 01-.097.045h-.372c-.258.005-.437.057-.536.156-.1.104-.149.29-.149.559v.119c0 .04.017.06.052.06h1.087zm3.582 5.839c-.625 0-1.161-.164-1.608-.492a2.455 2.455 0 01-.916-1.34 3.951 3.951 0 01-.157-1.14c0-.436.053-.831.157-1.184.174-.55.481-.983.923-1.295.452-.313.99-.47 1.616-.47.61 0 1.13.154 1.557.462.436.313.744.745.923 1.296.12.372.179.762.179 1.17 0 .401-.052.779-.157 1.131-.168.58-.474 1.035-.916 1.363-.441.332-.975.499-1.6.499zm0-1.348a.911.911 0 00.626-.224c.169-.148.293-.354.372-.618.06-.238.09-.499.09-.782 0-.312-.03-.575-.09-.789a1.274 1.274 0 00-.387-.596.94.94 0 00-.618-.208c-.258 0-.47.07-.633.208a1.21 1.21 0 00-.365.596c-.06.174-.09.437-.09.79 0 .337.028.598.083.781.069.264.193.47.372.618a.95.95 0 00.64.224zm6.546-4.558c.268 0 .48.053.633.157.06.03.082.084.067.164l-.23 1.273c-.01.09-.063.117-.157.082a1.2 1.2 0 00-.395-.06c-.06 0-.141.008-.246.023a1.13 1.13 0 00-.677.298c-.184.173-.276.407-.276.7v3.045a.12.12 0 01-.044.097.122.122 0 01-.09.037h-1.31a.131.131 0 01-.097-.037.131.131 0 01-.038-.097v-5.473c0-.035.013-.067.038-.097a.131.131 0 01.097-.037h1.31c.035 0 .065.012.09.037.03.03.044.062.044.097v.424c0 .02.005.035.015.045.015.01.027.005.037-.015.303-.442.713-.663 1.229-.663zm7.782-.014c.58 0 1.035.173 1.363.52.327.353.491.847.491 1.483v3.693a.13.13 0 01-.037.097.131.131 0 01-.097.037h-1.303a.131.131 0 01-.097-.037.131.131 0 01-.037-.097v-3.35c0-.304-.08-.544-.238-.723-.154-.179-.363-.268-.626-.268a.82.82 0 00-.633.268c-.164.179-.246.417-.246.715v3.358a.13.13 0 01-.037.097.148.148 0 01-.097.037h-1.295a.131.131 0 01-.097-.037.131.131 0 01-.037-.097v-3.35c0-.299-.082-.54-.246-.723a.828.828 0 00-.64-.268.872.872 0 00-.596.208c-.16.144-.254.343-.283.596v3.537c0 .04-.013.072-.038.097a.148.148 0 01-.096.037h-1.311a.122.122 0 01-.09-.037.12.12 0 01-.044-.097v-5.473c0-.035.015-.067.045-.097a.122.122 0 01.089-.037h1.31c.035 0 .068.012.097.037.025.03.038.062.038.097v.44c0 .02.007.034.022.044.015.005.03-.005.045-.03.303-.452.774-.677 1.415-.677.372 0 .7.079.983.238.278.154.491.377.64.67.02.045.045.045.074 0a1.6 1.6 0 01.67-.685c.279-.149.591-.223.939-.223zm8.043 2.368c.044.283.06.598.044.945-.005.095-.052.142-.141.142h-3.456c-.044 0-.06.017-.044.052.025.149.067.298.126.447.194.417.589.625 1.184.625a1.326 1.326 0 001.125-.58c.03-.045.064-.068.104-.068.02 0 .045.015.075.045l.804.79c.04.04.06.074.06.104 0 .015-.016.044-.045.09a2.403 2.403 0 01-.954.707 3.152 3.152 0 01-1.273.253c-.64 0-1.181-.144-1.623-.432-.442-.293-.76-.7-.954-1.221-.158-.373-.238-.86-.238-1.46 0-.412.057-.774.171-1.087.17-.526.47-.946.902-1.259.426-.313.933-.469 1.519-.469.744 0 1.343.216 1.794.648.452.432.725 1.008.82 1.728zm-2.6-1.013c-.471 0-.781.218-.93.655-.03.1-.055.219-.075.358 0 .034.018.052.052.052h1.937c.044 0 .06-.018.044-.052-.04-.214-.06-.318-.06-.313a.952.952 0 00-.35-.521 1.044 1.044 0 00-.617-.18zm6.48-1.34c.267 0 .478.052.632.156.06.03.082.084.067.164l-.23 1.273c-.01.09-.063.117-.157.082a1.2 1.2 0 00-.395-.06c-.06 0-.141.008-.245.023a1.104 1.104 0 00-.678.298c-.189.173-.283.407-.283.7v3.045a.13.13 0 01-.037.097.131.131 0 01-.097.037h-1.303a.131.131 0 01-.097-.037.131.131 0 01-.037-.097v-5.473c0-.035.012-.067.037-.097a.131.131 0 01.097-.037h1.303a.13.13 0 01.097.037c.025.03.037.062.037.097v.424c0 .02.007.035.022.045.015.01.028.005.038-.015.302-.442.712-.663 1.228-.663zm-31.046-13.04c0-.035.012-.067.037-.097a.122.122 0 01.09-.037h1.31c.035 0 .067.012.097.037.024.03.037.062.037.097v7.551c0 .04-.013.072-.037.097a.148.148 0 01-.097.037h-1.31a.122.122 0 01-.09-.037.131.131 0 01-.037-.097v-3.083c0-.035-.02-.052-.06-.052h-2.472c-.035 0-.052.017-.052.052v3.083c0 .04-.013.072-.038.097a.148.148 0 01-.097.037h-1.31a.122.122 0 01-.09-.037.12.12 0 01-.044-.097v-7.55c0-.036.015-.068.044-.098a.122.122 0 01.09-.037h1.31c.035 0 .067.012.097.037.025.03.038.062.038.097v3.001c0 .04.017.06.052.06h2.472c.04 0 .06-.02.06-.06v-3zm3.604 1.296a.859.859 0 01-.633-.253.834.834 0 01-.253-.626c0-.263.082-.476.245-.64a.866.866 0 01.64-.246c.264 0 .477.082.641.246a.866.866 0 01.246.64.834.834 0 01-.253.626.859.859 0 01-.633.253zm-.67 6.39a.148.148 0 01-.097-.038.131.131 0 01-.037-.097v-5.48c0-.04.012-.073.037-.098a.148.148 0 01.097-.037h1.31c.035 0 .065.013.09.037a.12.12 0 01.044.097v5.481a.12.12 0 01-.044.097.122.122 0 01-.09.037h-1.31zm6.173-5.608c0-.035.015-.067.045-.097a.122.122 0 01.089-.037h1.31c.035 0 .068.012.097.037.025.03.038.062.038.097v5.093c0 .973-.28 1.668-.842 2.085-.56.422-1.286.633-2.174.633-.263 0-.554-.02-.872-.06-.074-.01-.111-.056-.111-.14l.044-1.155c0-.1.053-.141.157-.126.268.044.514.067.737.067.477 0 .844-.102 1.102-.306.253-.213.38-.548.38-1.005 0-.025-.007-.04-.022-.045-.015-.005-.03.003-.045.023-.283.302-.695.454-1.236.454a2.61 2.61 0 01-1.333-.35c-.407-.234-.698-.61-.871-1.132-.11-.343-.164-.787-.164-1.333 0-.58.067-1.053.2-1.415.155-.457.418-.822.79-1.095a2.118 2.118 0 011.303-.417c.571 0 1.008.172 1.311.514.015.015.03.02.045.015.015-.005.022-.017.022-.037v-.268zm-.09 3.604c.06-.218.09-.524.09-.916a4.74 4.74 0 00-.022-.529 2.069 2.069 0 00-.075-.365 1.054 1.054 0 00-.335-.484.92.92 0 00-.58-.178.897.897 0 00-.567.178 1.082 1.082 0 00-.35.484c-.104.224-.156.527-.156.909 0 .417.045.715.134.894a.913.913 0 00.35.484.978.978 0 00.596.186.938.938 0 00.595-.186.92.92 0 00.32-.477zm5.794-3.828c.596 0 1.075.184 1.437.551.363.363.544.857.544 1.482v3.664a.13.13 0 01-.037.097.122.122 0 01-.09.037h-1.31a.148.148 0 01-.097-.037.131.131 0 01-.037-.097v-3.343c0-.293-.085-.534-.253-.723-.164-.183-.385-.275-.663-.275a.858.858 0 00-.663.275c-.169.189-.253.43-.253.723v3.343a.13.13 0 01-.037.097.131.131 0 01-.097.037h-1.303a.131.131 0 01-.097-.037.131.131 0 01-.037-.097v-7.55c0-.036.012-.068.037-.098a.131.131 0 01.097-.037h1.303a.13.13 0 01.097.037c.025.03.037.062.037.097v2.472c0 .02.007.035.022.045.015.005.025 0 .03-.015.308-.432.765-.648 1.37-.648z"/><path fill="#FFF" d="M23.234 50.191c-.055 0-.09-.024-.104-.074l-1.356-5.041-.007-.03c0-.045.027-.067.082-.067h.73c.054 0 .09.025.104.074l.849 3.396c.005.015.012.022.022.022.01 0 .018-.007.023-.022l.811-3.396c.015-.05.047-.074.097-.074h.715c.055 0 .09.025.104.074l.864 3.403c.005.015.012.023.022.023.01 0 .018-.008.023-.023l.834-3.403c.015-.05.05-.074.104-.074h.693c.07 0 .096.032.082.097l-1.289 5.041c-.015.05-.05.074-.104.074h-.693c-.054 0-.089-.024-.104-.074l-.871-3.552a.052.052 0 00-.022-.03c-.01 0-.018.01-.023.03l-.834 3.552c-.015.05-.047.074-.097.074h-.655zm5.518 0a.093.093 0 01-.067-.03.08.08 0 01-.022-.059v-5.034a.08.08 0 01.022-.06c.02-.02.042-.03.067-.03h.685a.07.07 0 01.06.03.07.07 0 01.03.06v5.034a.07.07 0 01-.03.06.07.07 0 01-.06.03h-.685zm4.893-5.123a.08.08 0 01.022-.06c.02-.02.042-.03.067-.03h.685a.07.07 0 01.06.03.07.07 0 01.03.06v5.034a.07.07 0 01-.03.06.07.07 0 01-.06.03h-.663c-.05 0-.084-.02-.104-.06l-2.145-3.515c-.01-.015-.02-.022-.03-.022-.01.005-.014.017-.014.037l.015 3.47a.07.07 0 01-.03.06.07.07 0 01-.06.03h-.685a.093.093 0 01-.067-.03.08.08 0 01-.022-.06v-5.034a.08.08 0 01.022-.06c.02-.02.042-.03.067-.03h.663c.05 0 .084.02.104.06l2.137 3.515c.01.015.02.02.03.015.01 0 .015-.01.015-.03l-.007-3.47zm5.376-.09a.07.07 0 01.06.03.07.07 0 01.03.06v.573a.07.07 0 01-.03.06.07.07 0 01-.06.03h-1.37c-.025 0-.037.012-.037.037v4.334a.08.08 0 01-.023.06.093.093 0 01-.067.03h-.685a.07.07 0 01-.06-.03.07.07 0 01-.029-.06v-4.334c0-.025-.012-.037-.037-.037h-1.318a.093.093 0 01-.067-.03.08.08 0 01-.023-.06v-.573a.08.08 0 01.023-.06c.02-.02.042-.03.067-.03h3.626zm4.416.656a.07.07 0 01-.03.06.07.07 0 01-.06.03H40.81c-.025 0-.038.012-.038.037v1.392c0 .025.013.037.038.037h1.705c.025 0 .047.008.067.023.015.02.022.042.022.067v.566a.109.109 0 01-.022.067.109.109 0 01-.067.022H40.81c-.025 0-.038.013-.038.037v1.438c0 .024.013.037.038.037h2.539a.07.07 0 01.06.03.07.07 0 01.03.06v.565a.07.07 0 01-.03.06.07.07 0 01-.06.03h-3.351a.093.093 0 01-.067-.03.08.08 0 01-.023-.06v-5.034a.08.08 0 01.023-.06c.02-.02.042-.03.067-.03h3.35a.07.07 0 01.06.03.07.07 0 01.03.06v.566zm3.806 4.557a.105.105 0 01-.105-.067l-.983-2.144c-.01-.02-.025-.03-.044-.03h-.894c-.025 0-.037.012-.037.037v2.115a.07.07 0 01-.03.06.07.07 0 01-.06.03h-.685a.093.093 0 01-.067-.03.08.08 0 01-.022-.06v-5.034a.08.08 0 01.022-.06c.02-.02.042-.03.067-.03h2.048c.303 0 .571.063.804.187.234.129.415.308.544.536.13.233.194.499.194.797 0 .342-.09.633-.268.871a1.342 1.342 0 01-.73.507.024.024 0 00-.023.014.032.032 0 000 .03l1.05 2.167c.01.02.015.035.015.045 0 .04-.027.06-.082.06h-.714zm-2.026-4.468c-.025 0-.037.013-.037.038v1.482c0 .024.012.037.037.037h1.117a.8.8 0 00.58-.216c.145-.14.217-.325.217-.559a.765.765 0 00-.216-.566.8.8 0 00-.581-.216h-1.117z"/><path fill="#252530" d="M26.377 63.64c-.015.015-.02.03-.015.045a.05.05 0 00.044.022h2.927c.035 0 .065.013.09.038a.11.11 0 01.044.089v1.05a.113.113 0 01-.045.09.122.122 0 01-.089.037h-4.855a.131.131 0 01-.097-.038.122.122 0 01-.037-.089v-.998c0-.064.022-.119.067-.164.352-.342.712-.717 1.08-1.124.367-.407.598-.66.692-.76.199-.238.402-.466.61-.685.656-.725.984-1.263.984-1.616a.811.811 0 00-.268-.625c-.18-.16-.413-.239-.7-.239-.288 0-.522.08-.7.239a.826.826 0 00-.276.648v.268a.122.122 0 01-.037.089.122.122 0 01-.09.037h-1.273a.122.122 0 01-.09-.037.113.113 0 01-.044-.09v-.506c.025-.387.149-.732.372-1.035a2.16 2.16 0 01.886-.685c.373-.159.79-.238 1.252-.238.51 0 .955.097 1.332.29.378.189.668.445.872.767.208.328.313.688.313 1.08 0 .303-.077.613-.231.93-.15.319-.375.661-.678 1.029a15.33 15.33 0 01-.722.834c-.258.273-.643.667-1.155 1.184l-.163.163zm6.597 1.49c-.794 0-1.42-.221-1.876-.663-.462-.442-.693-1.045-.693-1.81v-2.852c0-.75.231-1.343.693-1.78.457-.441 1.082-.662 1.876-.662.79 0 1.418.22 1.885.663.461.436.692 1.03.692 1.78v2.851c0 .765-.23 1.368-.692 1.81-.467.442-1.095.663-1.885.663zm0-1.303c.323 0 .579-.1.767-.298.194-.199.29-.464.29-.797V59.76c0-.328-.096-.591-.29-.79-.188-.198-.444-.298-.767-.298-.317 0-.57.1-.76.298-.193.199-.29.462-.29.79v2.97c0 .334.097.6.29.798.19.198.443.298.76.298zm5.6-.187c-.014.015-.017.03-.007.045.005.015.02.022.045.022h2.926c.035 0 .065.013.09.038a.122.122 0 01.037.089v1.05a.122.122 0 01-.037.09.122.122 0 01-.09.037h-4.862a.122.122 0 01-.09-.038.122.122 0 01-.037-.089v-.998c0-.064.02-.119.06-.164.357-.342.717-.717 1.08-1.124.367-.407.598-.66.692-.76.203-.238.41-.466.618-.685.655-.725.983-1.263.983-1.616a.811.811 0 00-.268-.625c-.184-.16-.42-.239-.708-.239s-.52.08-.7.239a.837.837 0 00-.268.648v.268a.122.122 0 01-.037.089.131.131 0 01-.097.037h-1.273a.122.122 0 01-.09-.037.122.122 0 01-.037-.09v-.506c.02-.387.142-.732.365-1.035a2.14 2.14 0 01.894-.685 3.138 3.138 0 011.243-.238c.512 0 .956.097 1.333.29.383.189.676.445.88.767.203.328.304.688.304 1.08 0 .303-.074.613-.223.93a5.247 5.247 0 01-.685 1.029 15.78 15.78 0 01-.722.834c-.259.273-.643.667-1.155 1.184l-.164.163zm5.087-6.158c.04-.02.094-.03.163-.03h1.311c.035 0 .065.013.09.037a.122.122 0 01.037.09v7.305a.122.122 0 01-.038.09.122.122 0 01-.089.037H43.87a.122.122 0 01-.09-.038.113.113 0 01-.044-.089v-5.92a.08.08 0 00-.015-.045c-.015-.015-.03-.017-.044-.007l-1.073.29-.044.008c-.065 0-.097-.04-.097-.12l-.03-.923c0-.074.032-.127.097-.156l1.132-.53z"/></g></svg>