<svg width="104" height="36" viewBox="0 0 104 36" xmlns="http://www.w3.org/2000/svg" xmlns:xlink="http://www.w3.org/1999/xlink"><defs><path d="M35.253.002L35.103 0H4.68C2.076 0 0 2.085 0 4.701c0 .587.112 1.15.316 1.669.096.292.221.578.377.856L15.818 33.52c.217.376.477.711.77 1.002A4.69 4.69 0 0020.022 36a4.557 4.557 0 002.994-1.128c.457-.36.856-.814 1.166-1.353L39.307 7.226c.153-.272.277-.553.371-.84A4.566 4.566 0 0040 4.702C40 2.085 37.924 0 35.406 0c-.051 0-.102 0-.153.002zM21.495 24.725l11.961-20.85c.043-.06.071-.105.087-.131a2.072 2.072 0 011.863-1.132c1.083 0 1.994.916 1.994 2.09 0 .4-.132.794-.347 1.131a.118.118 0 00-.043.087L23.835 28.817l-2.34-4.092zM4.854 2.612h26.349l-2.34 4.092H4.852c-.04 0-.08-.002-.13 0-.03-.002-.069 0-.13 0-1.124 0-2.036-.916-2.036-2.003 0-1.173.912-2.09 2.037-2.09.06 0 .1.002.13 0l.046.001h.084zm7.781 6.704h14.73L20 22.118 12.635 9.316zm5.48 22.984c.003-.03-.012-.055-.044-.087L4.941 9.316h4.68l12.004 20.85a.59.59 0 00.087.175c.184.307.303.693.303 1.132 0 1.086-.91 2.002-1.993 2.002a2.116 2.116 0 01-1.907-1.175z" id="a"/></defs><g fill="#FFF" fill-rule="evenodd"><path d="M56.84 23.11c-.18.4-.375.73-.585.99-.21.26-.43.465-.66.615-.23.15-.465.25-.705.3-.24.05-.46.075-.66.075-.22 0-.445-.025-.675-.075-.23-.05-.46-.15-.69-.3-.23-.15-.45-.355-.66-.615-.21-.26-.405-.59-.585-.99l-4.38-10.23c-.16-.38-.24-.72-.24-1.02 0-.5.175-.91.525-1.23.35-.32.785-.48 1.305-.48.28 0 .585.085.915.255.33.17.615.575.855 1.215l3.6 9.3h.06l3.69-9.33c.24-.62.52-1.015.84-1.185.32-.17.62-.255.9-.255.52 0 .945.16 1.275.48.33.32.495.71.495 1.17 0 .1-.015.235-.045.405-.03.17-.095.375-.195.615l-4.38 10.29zm9.26-4.35a3.566 3.566 0 001.32 2.535c.38.31.81.555 1.29.735.48.18.98.27 1.5.27.76 0 1.385-.11 1.875-.33.49-.22.965-.52 1.425-.9.26-.22.48-.36.66-.42.18-.06.37-.09.57-.09.4 0 .74.13 1.02.39s.42.61.42 1.05c0 .16-.04.36-.12.6-.08.24-.24.47-.48.69a6.534 6.534 0 01-2.325 1.485c-.85.31-1.855.465-3.015.465-1.12 0-2.15-.175-3.09-.525a7.292 7.292 0 01-2.445-1.485 6.693 6.693 0 01-1.62-2.355c-.39-.93-.585-1.985-.585-3.165 0-1.16.195-2.215.585-3.165.39-.95.925-1.76 1.605-2.43a7.18 7.18 0 012.415-1.56A8.082 8.082 0 0170.12 10c.86 0 1.68.125 2.46.375s1.47.63 2.07 1.14c.6.51 1.105 1.155 1.515 1.935.41.78.685 1.7.825 2.76.02.16.035.295.045.405.01.11.015.225.015.345 0 .64-.165 1.1-.495 1.38-.33.28-.795.42-1.395.42H66.1zm7.38-2.58c0-.46-.065-.9-.195-1.32-.13-.42-.335-.79-.615-1.11a3.002 3.002 0 00-1.065-.765c-.43-.19-.935-.285-1.515-.285-1.08 0-1.995.325-2.745.975-.75.65-1.165 1.485-1.245 2.505h7.38zm8.98 6.9c0 .42-.065.765-.195 1.035-.13.27-.29.475-.48.615s-.39.235-.6.285c-.21.05-.385.075-.525.075-.16 0-.34-.025-.54-.075-.2-.05-.395-.145-.585-.285-.19-.14-.35-.345-.48-.615s-.195-.615-.195-1.035V12.07c0-.4.065-.725.195-.975s.285-.445.465-.585c.18-.14.365-.235.555-.285.19-.05.355-.075.495-.075s.31.025.51.075c.2.05.39.145.57.285.18.14.335.335.465.585.13.25.195.575.195.975v.75h.06c.28-.78.755-1.445 1.425-1.995A3.557 3.557 0 0186.12 10c.54 0 .985.135 1.335.405s.525.665.525 1.185c0 .46-.15.865-.45 1.215-.3.35-.8.525-1.5.525-1.14 0-2.02.385-2.64 1.155-.62.77-.93 1.755-.93 2.955v5.64zm21.44-5.52c0 1.14-.205 2.18-.615 3.12a7.388 7.388 0 01-1.665 2.415c-.7.67-1.53 1.195-2.49 1.575-.96.38-1.98.57-3.06.57s-2.1-.19-3.06-.57a7.604 7.604 0 01-2.49-1.575 7.388 7.388 0 01-1.665-2.415c-.41-.94-.615-1.98-.615-3.12 0-1.14.205-2.175.615-3.105a7.26 7.26 0 011.665-2.385 7.34 7.34 0 012.49-1.53c.96-.36 1.98-.54 3.06-.54s2.1.18 3.06.54c.96.36 1.79.87 2.49 1.53a7.26 7.26 0 011.665 2.385c.41.93.615 1.965.615 3.105zm-3.66 0a5.61 5.61 0 00-.255-1.665 4.654 4.654 0 00-.765-1.485c-.34-.44-.77-.795-1.29-1.065-.52-.27-1.14-.405-1.86-.405-.72 0-1.34.135-1.86.405s-.95.625-1.29 1.065c-.34.44-.595.935-.765 1.485a5.61 5.61 0 000 3.345c.17.56.425 1.06.765 1.5.34.44.77.8 1.29 1.08s1.14.42 1.86.42c.72 0 1.34-.14 1.86-.42.52-.28.95-.64 1.29-1.08.34-.44.595-.94.765-1.5.17-.56.255-1.12.255-1.68z"/><use xlink:href="#a"/></g></svg>