<svg xmlns="http://www.w3.org/2000/svg" xmlns:xlink="http://www.w3.org/1999/xlink" width="32" height="32" viewBox="0 0 32 32"><defs><filter id="b" width="165.4%" height="165.4%" x="-32.7%" y="-28.8%" filterUnits="objectBoundingBox"><feMorphology in="SourceAlpha" operator="dilate" radius="2" result="shadowSpreadOuter1"/><feOffset dy="1" in="shadowSpreadOuter1" result="shadowOffsetOuter1"/><feGaussianBlur in="shadowOffsetOuter1" result="shadowBlurOuter1" stdDeviation="2"/><feComposite in="shadowBlurOuter1" in2="SourceAlpha" operator="out" result="shadowBlurOuter1"/><feColorMatrix in="shadowBlurOuter1" values="0 0 0 0 0.219607843 0 0 0 0 0.258823529 0 0 0 0 0.329411765 0 0 0 0.1 0"/></filter><path id="a" d="M16 3c7.18 0 13 5.82 13 13s-5.82 13-13 13S3 23.18 3 16 8.82 3 16 3zm0 7a6 6 0 100 12 6 6 0 000-12z"/></defs><g fill="none" fill-rule="evenodd"><circle cx="7" cy="7" r="5" stroke="#F15242"/><circle cx="25" cy="7" r="5" stroke="#F15242"/><circle cx="7" cy="25" r="5" stroke="#F15242"/><circle cx="25" cy="25" r="5" stroke="#F15242"/><path fill="#F3F4F7" d="M9 9h14v14H9z"/><mask id="c" fill="#fff"><use xlink:href="#a"/></mask><use fill="#000" filter="url(#b)" xlink:href="#a"/><path fill="#FDE1DE" stroke="#F15242" stroke-width="2" d="M16 2a13.96 13.96 0 019.9 4.1A13.956 13.956 0 0130 16a13.96 13.96 0 01-4.1 9.9A13.956 13.956 0 0116 30a13.956 13.956 0 01-9.9-4.1A13.956 13.956 0 012 16a13.96 13.96 0 014.1-9.9A13.956 13.956 0 0116 2zm0 9c-1.38 0-2.63.56-3.536 1.464A4.984 4.984 0 0011 16c0 1.38.56 2.63 1.464 3.536A4.984 4.984 0 0016 21c1.38 0 2.63-.56 3.536-1.464A4.984 4.984 0 0021 16c0-1.38-.56-2.63-1.464-3.536A4.984 4.984 0 0016 11z"/><path fill="#FFF" stroke="#F15242" mask="url(#c)" d="M2.5 14.5h8v3h-8zm19 0h8v3h-8zm-7-12h3v9h-3zm0 18h3v9h-3z"/></g></svg>