<svg xmlns="http://www.w3.org/2000/svg" width="58" height="58" viewBox="0 0 58 58"><g fill="#FFC111"><path d="M36 33v-2.071h4.694c2.864-.006 5.186-2.287 5.2-5.107.076-2.085-1.173-3.997-3.133-4.792a1.055 1.055 0 01-.643-.882c-.335-4.56-4.204-8.084-8.848-8.06a9.019 9.019 0 00-6.883 3.214 1.056 1.056 0 01-1.094.331 7.235 7.235 0 00-1.936-.266c-3.083-.006-5.822 1.936-6.792 4.816a1.08 1.08 0 01-.704.669 5.155 5.155 0 00-2.482 1.562 5.13 5.13 0 00-1.275 3.397c.004 2.825 2.33 5.115 5.2 5.118H24V33h-6.678c-3.54-.003-6.572-2.497-7.204-5.926-.631-3.429 1.318-6.812 4.631-8.039 1.656-4.107 6.07-6.448 10.466-5.55 2.884-3.086 7.324-4.248 11.385-2.979 4.06 1.269 7.007 4.738 7.556 8.896a7.329 7.329 0 012.284 1.84 7.028 7.028 0 011.557 4.61C47.974 29.806 44.711 33 40.694 33H36z"/><path fill-opacity=".4" stroke="#FFF" stroke-width="2" d="M27.955 36.371H25a2 2 0 01-1.579-3.228l4.956-6.37a2 2 0 013.157 0l4.955 6.37a2 2 0 01-1.578 3.228h-2.956v11c0 1.106-.892 2-2 2-1.103 0-2-.9-2-2v-11z"/></g></svg>