<svg xmlns="http://www.w3.org/2000/svg" width="58" height="58" viewBox="0 0 58 58"><g fill="none" fill-rule="evenodd"><path fill="#F15242" d="M28 44.97V30a1 1 0 012 0v14.97c8.37-.517 15-7.47 15-15.97 0-8.837-7.163-16-16-16s-16 7.163-16 16c0 8.5 6.63 15.453 15 15.97zM29 47c-9.941 0-18-8.059-18-18s8.059-18 18-18 18 8.059 18 18-8.059 18-18 18z"/><path stroke="#F15242" stroke-dasharray="52.167 20" stroke-linecap="round" stroke-linejoin="round" stroke-width="2" d="M34.3 37.48c4.683-2.926 6.107-9.096 3.18-13.78-2.926-4.683-9.096-6.107-13.78-3.18-4.683 2.926-6.107 9.096-3.18 13.78 2.926 4.683 9.096 6.107 13.78 3.18z" opacity=".4"/></g></svg>