<svg xmlns="http://www.w3.org/2000/svg" width="56" height="58" viewBox="0 0 56 58"><g fill="none" fill-rule="evenodd" transform="translate(11 8)"><path fill="#6FD350" fill-rule="nonzero" d="M31 4h1a3 3 0 013 3v32a3 3 0 01-3 3H9a3 3 0 01-3-3h22a3 3 0 003-3V4z" opacity=".4"/><path fill="#6FD350" fill-rule="nonzero" d="M3 0h23a3 3 0 013 3v31a3 3 0 01-3 3H3a3 3 0 01-3-3V3a3 3 0 013-3zm0 2a1 1 0 00-1 1v31a1 1 0 001 1h23a1 1 0 001-1V3a1 1 0 00-1-1H3z"/><path stroke="#6FD350" stroke-linecap="round" stroke-linejoin="round" stroke-width="2" d="M6 18.5h17m-17 5h17m-17 5h17" opacity=".4"/><path stroke="#6FD350" stroke-linecap="round" stroke-linejoin="round" opacity=".4" d="M6.5 12l5-4 5.5 4 5-4"/><circle cx="17" cy="12" r="2" fill="#6FD350" stroke="#FFF"/><circle cx="22" cy="8" r="2" fill="#6FD350" stroke="#FFF"/><circle cx="11.5" cy="8" r="2" fill="#6FD350" stroke="#FFF"/><circle cx="6.5" cy="12" r="2" fill="#6FD350" stroke="#FFF"/></g></svg>