<svg xmlns="http://www.w3.org/2000/svg" width="58" height="58" viewBox="0 0 58 58"><g fill="#01B2D0" fill-rule="evenodd"><path d="M29 47c-9.941 0-18-8.059-18-18s8.059-18 18-18 18 8.059 18 18-8.059 18-18 18zm0-2c8.837 0 16-7.163 16-16s-7.163-16-16-16-16 7.163-16 16 7.163 16 16 16z"/><path fill-rule="nonzero" d="M34.846 28.57c.346-.391.071-1.012-.447-1.012h-3.863l1.796-5.765c.194-.623-.589-1.074-1.02-.587l-8.158 9.224c-.346.391-.071 1.012.447 1.012h3.86l-1.793 5.765c-.194.623.589 1.074 1.02.587l8.158-9.224z" opacity=".397"/></g></svg>