<svg xmlns="http://www.w3.org/2000/svg" xmlns:xlink="http://www.w3.org/1999/xlink" width="419" height="370" viewBox="0 0 419 370"><defs><path id="b" d="M12.962 0h30.076c4.507 0 6.142.47 7.79 1.35a9.187 9.187 0 013.821 3.823C55.531 6.82 56 8.455 56 12.962v30.076c0 4.507-.47 6.142-1.35 7.79a9.187 9.187 0 01-3.823 3.821C49.18 55.531 47.545 56 43.038 56H12.962c-4.507 0-6.142-.47-7.79-1.35a9.187 9.187 0 01-3.821-3.823C.469 49.18 0 47.545 0 43.038V12.962c0-4.507.47-6.142 1.35-7.79a9.187 9.187 0 013.823-3.821C6.82.469 8.455 0 12.962 0z"/><path id="d" d="M12.962 0h30.076c4.507 0 6.142.47 7.79 1.35a9.187 9.187 0 013.821 3.823C55.531 6.82 56 8.455 56 12.962v30.076c0 4.507-.47 6.142-1.35 7.79a9.187 9.187 0 01-3.823 3.821C49.18 55.531 47.545 56 43.038 56H12.962c-4.507 0-6.142-.47-7.79-1.35a9.187 9.187 0 01-3.821-3.823C.469 49.18 0 47.545 0 43.038V12.962c0-4.507.47-6.142 1.35-7.79a9.187 9.187 0 013.823-3.821C6.82.469 8.455 0 12.962 0z"/><path id="f" d="M12.962 0h30.076c4.507 0 6.142.47 7.79 1.35a9.187 9.187 0 013.821 3.823C55.531 6.82 56 8.455 56 12.962v30.076c0 4.507-.47 6.142-1.35 7.79a9.187 9.187 0 01-3.823 3.821C49.18 55.531 47.545 56 43.038 56H12.962c-4.507 0-6.142-.47-7.79-1.35a9.187 9.187 0 01-3.821-3.823C.469 49.18 0 47.545 0 43.038V12.962c0-4.507.47-6.142 1.35-7.79a9.187 9.187 0 013.823-3.821C6.82.469 8.455 0 12.962 0z"/><path id="h" d="M12.962 0h30.076c4.507 0 6.142.47 7.79 1.35a9.187 9.187 0 013.821 3.823C55.531 6.82 56 8.455 56 12.962v30.076c0 4.507-.47 6.142-1.35 7.79a9.187 9.187 0 01-3.823 3.821C49.18 55.531 47.545 56 43.038 56H12.962c-4.507 0-6.142-.47-7.79-1.35a9.187 9.187 0 01-3.821-3.823C.469 49.18 0 47.545 0 43.038V12.962c0-4.507.47-6.142 1.35-7.79a9.187 9.187 0 013.823-3.821C6.82.469 8.455 0 12.962 0z"/><path id="i" d="M24.574.002A3.329 3.329 0 0024.469 0H3.263A3.24 3.24 0 000 3.25c0 .406.078.795.22 1.154.067.202.154.4.263.592l10.543 18.177c.151.26.333.492.537.694a3.282 3.282 0 002.393 1.022c.794 0 1.525-.295 2.088-.78.318-.25.596-.563.812-.936L27.4 4.996c.107-.188.193-.383.26-.58a3.15 3.15 0 00.224-1.166c0-1.808-1.448-3.25-3.203-3.25-.035 0-.07 0-.106.002zm-9.59 17.092L23.32 2.678c.03-.04.05-.071.06-.09a1.446 1.446 0 011.3-.782c.754 0 1.39.633 1.39 1.444 0 .277-.093.55-.243.783a.081.081 0 00-.03.06l-9.183 15.83-1.631-2.829zM3.384 1.806H21.75l-1.63 2.829H3.203c-.785 0-1.42-.634-1.42-1.385 0-.811.635-1.444 1.42-1.444h.18zM8.807 6.44h10.267l-5.134 8.852L8.808 6.44zm3.82 15.89c.001-.02-.009-.037-.031-.06L3.444 6.44h3.262l8.368 14.416a.42.42 0 00.06.12c.129.213.212.48.212.783 0 .751-.635 1.384-1.39 1.384a1.476 1.476 0 01-1.329-.812z"/><filter id="a" width="131.7%" height="131.7%" x="-15.9%" y="-12.3%" filterUnits="objectBoundingBox"><feMorphology in="SourceAlpha" operator="dilate" radius=".389" result="shadowSpreadOuter1"/><feOffset dy="2" in="shadowSpreadOuter1" result="shadowOffsetOuter1"/><feGaussianBlur in="shadowOffsetOuter1" result="shadowBlurOuter1" stdDeviation="2.5"/><feComposite in="shadowBlurOuter1" in2="SourceAlpha" operator="out" result="shadowBlurOuter1"/><feColorMatrix in="shadowBlurOuter1" values="0 0 0 0 0 0 0 0 0 0 0 0 0 0 0 0 0 0 0.100062274 0"/></filter><filter id="c" width="131.7%" height="131.7%" x="-15.9%" y="-12.3%" filterUnits="objectBoundingBox"><feMorphology in="SourceAlpha" operator="dilate" radius=".389" result="shadowSpreadOuter1"/><feOffset dy="2" in="shadowSpreadOuter1" result="shadowOffsetOuter1"/><feGaussianBlur in="shadowOffsetOuter1" result="shadowBlurOuter1" stdDeviation="2.5"/><feComposite in="shadowBlurOuter1" in2="SourceAlpha" operator="out" result="shadowBlurOuter1"/><feColorMatrix in="shadowBlurOuter1" values="0 0 0 0 0 0 0 0 0 0 0 0 0 0 0 0 0 0 0.100062274 0"/></filter><filter id="e" width="131.7%" height="131.7%" x="-15.9%" y="-12.3%" filterUnits="objectBoundingBox"><feMorphology in="SourceAlpha" operator="dilate" radius=".389" result="shadowSpreadOuter1"/><feOffset dy="2" in="shadowSpreadOuter1" result="shadowOffsetOuter1"/><feGaussianBlur in="shadowOffsetOuter1" result="shadowBlurOuter1" stdDeviation="2.5"/><feComposite in="shadowBlurOuter1" in2="SourceAlpha" operator="out" result="shadowBlurOuter1"/><feColorMatrix in="shadowBlurOuter1" values="0 0 0 0 0 0 0 0 0 0 0 0 0 0 0 0 0 0 0.100062274 0"/></filter><filter id="g" width="131.7%" height="131.7%" x="-15.9%" y="-12.3%" filterUnits="objectBoundingBox"><feMorphology in="SourceAlpha" operator="dilate" radius=".389" result="shadowSpreadOuter1"/><feOffset dy="2" in="shadowSpreadOuter1" result="shadowOffsetOuter1"/><feGaussianBlur in="shadowOffsetOuter1" result="shadowBlurOuter1" stdDeviation="2.5"/><feComposite in="shadowBlurOuter1" in2="SourceAlpha" operator="out" result="shadowBlurOuter1"/><feColorMatrix in="shadowBlurOuter1" values="0 0 0 0 0 0 0 0 0 0 0 0 0 0 0 0 0 0 0.100062274 0"/></filter></defs><g fill="none" fill-rule="evenodd"><g transform="translate(50 76)"><path stroke="#A5E3EE" stroke-linecap="round" stroke-linejoin="round" stroke-width="4" d="M0 3h74.283"/><circle cx="11" cy="3" r="3.5" fill="#01B2D0" stroke="#FFF"/><circle cx="23" cy="3" r="3.5" fill="#01B2D0" stroke="#FFF"/><circle cx="35" cy="3" r="3.5" fill="#01B2D0" stroke="#FFF"/><circle cx="47" cy="3" r="3.5" fill="#01B2D0" stroke="#FFF"/></g><g transform="translate(39 146)"><path stroke="#6772E5" stroke-linecap="round" stroke-linejoin="round" stroke-opacity=".4" stroke-width="4" d="M0 3h74.283"/><circle cx="23" cy="3" r="3.5" fill="#6772E5" stroke="#FFF"/><circle cx="35" cy="3" r="3.5" fill="#6772E5" stroke="#FFF"/><circle cx="47" cy="3" r="3.5" fill="#6772E5" stroke="#FFF"/><circle cx="59" cy="3" r="3.5" fill="#6772E5" stroke="#FFF"/></g><g transform="translate(50 218)"><path stroke="#385091" stroke-linecap="round" stroke-linejoin="round" stroke-opacity=".4" stroke-width="4" d="M0 3h74.283"/><circle cx="23" cy="3" r="3.5" fill="#385091" stroke="#FFF"/><circle cx="35" cy="3" r="3.5" fill="#385091" stroke="#FFF"/><circle cx="47" cy="3" r="3.5" fill="#385091" stroke="#FFF"/><circle cx="59" cy="3" r="3.5" fill="#385091" stroke="#FFF"/></g><g transform="translate(48 288)"><path stroke="#75B2FF" stroke-linecap="round" stroke-linejoin="round" stroke-opacity=".4" stroke-width="4" d="M0 3h74.283"/><circle cx="14" cy="3" r="3.5" fill="#499AFF" stroke="#FFF"/><circle cx="26" cy="3" r="3.5" fill="#499AFF" stroke="#FFF"/><circle cx="38" cy="3" r="3.5" fill="#499AFF" stroke="#FFF"/><circle cx="50" cy="3" r="3.5" fill="#499AFF" stroke="#FFF"/></g><g transform="translate(99)"><rect width="320" height="370" fill="#F0FBFC" rx="13"/><g transform="translate(50 150)"><rect width="40" height="68" y="102" fill="#01B2D0" fill-opacity=".22" rx="8"/><rect width="40" height="119" x="60" y="51" fill="#01B2D0" fill-opacity=".22" rx="8"/><rect width="40" height="124" x="120" y="46" fill="#01B2D0" fill-opacity=".22" rx="8"/><rect width="40" height="170" x="180" fill="#FFC111" rx="8"/></g><g transform="translate(60 76)"><path stroke="#01B2D0" stroke-linecap="round" stroke-linejoin="round" stroke-width="6" d="M10 113.111l60-52.307 60-3.849 60.035-46.957"/><circle cx="10" cy="112" r="12" fill="#A0F1FF" stroke="#F0FBFC" stroke-width="4"/><circle cx="70" cy="61" r="12" fill="#A0F1FF" stroke="#F0FBFC" stroke-width="4"/><circle cx="130" cy="56" r="12" fill="#A0F1FF" stroke="#F0FBFC" stroke-width="4"/><circle cx="190" cy="10" r="12" fill="#A0F1FF" stroke="#F0FBFC" stroke-width="4"/></g></g><g transform="translate(5 265)"><use fill="#000" filter="url(#a)" xlink:href="#b"/><use fill="#FFF" stroke="#E8E8E8" stroke-width=".778" xlink:href="#b"/><path fill="#5CA4FF" d="M28.389 17.111v11.278h11.278V20.87a3.76 3.76 0 00-3.76-3.759H28.39z" opacity=".9"/><path fill="#499AFF" d="M17.111 28.389v7.518a3.76 3.76 0 003.76 3.76h7.518V28.389H17.11z"/><path fill="#E7F3FF" d="M28.389 28.389v11.278h7.518a3.76 3.76 0 003.76-3.76V28.39H28.389z"/><path fill="#499AFF" d="M17.111 20.87v7.519h11.278V17.11H20.87a3.76 3.76 0 00-3.759 3.76z"/></g><g transform="translate(13 193)"><use fill="#000" filter="url(#c)" xlink:href="#d"/><use fill="#FFF" stroke="#E8E8E8" stroke-width=".778" xlink:href="#d"/><path fill="#385091" d="M24.096 16.235a10.983 10.983 0 00-2.867 4.949c.901-.24 1.827-.365 2.754-.375l-3.129 3.121c-.007.69.05 1.38.172 2.06l5.022-5.009c.641.113 1.274.284 1.89.511a4.744 4.744 0 017.335-.789 4.714 4.714 0 01-.79 7.316c.228.615.399 1.247.513 1.886l-5.023 5.01c.683.12 1.374.178 2.065.17l3.13-3.12c-.01.924-.135 1.847-.376 2.746a11.026 11.026 0 004.962-2.86 11.023 11.023 0 000-15.616c-4.324-4.313-11.334-4.313-15.658 0"/><path fill="#385091" d="M27.655 26.137a4.709 4.709 0 01-.453-1.78l-5.014 5.001c.255.47.546.924.874 1.36l4.593-4.58m4.051 2.666a4.735 4.735 0 01-1.783-.452l-4.593 4.581c.437.327.893.617 1.363.871l5.013-5"/><path fill="#0F1024" d="M27.182 24.305a4.708 4.708 0 01.741-2.804 11.037 11.037 0 00-1.89-.511l-5.023 5.008a10.94 10.94 0 001.158 3.308l5.014-5m4.496 4.473l-5.013 5a11.025 11.025 0 003.316 1.155l5.022-5.01a11.048 11.048 0 00-.512-1.885 4.739 4.739 0 01-2.813.74m3.16 5.923c.24-.899.366-1.822.375-2.746l-3.13 3.12a11.037 11.037 0 002.755-.374m-13.61-13.495c-.24.899-.365 1.822-.375 2.747l3.13-3.121c-.928.01-1.853.134-2.754.374m8.653 7.105a4.725 4.725 0 01-1.31-.924 4.711 4.711 0 01-.927-1.307l-4.593 4.58a11.14 11.14 0 002.237 2.232l4.593-4.58"/><path fill="#385091" d="M21.204 21.225a11.025 11.025 0 00-4.962 2.86A10.99 10.99 0 0013 31.78l7.83-7.809c.008-.924.134-1.848.374-2.746m3.026 21.733a11.051 11.051 0 007.716-3.233 10.983 10.983 0 002.867-4.95c-.9.24-1.827.366-2.754.375l-7.829 7.808m-3.444-14.433a4.75 4.75 0 01.792-.636 10.94 10.94 0 01-.513-1.886l-7.83 7.808a10.99 10.99 0 001.158 3.308l5.014-5a4.702 4.702 0 011.38-3.594m7.28 5.937a4.74 4.74 0 01-4.242 2.165l-5.013 5c1.048.567 2.169.952 3.316 1.155l7.829-7.808a11.025 11.025 0 01-1.89-.512m-7.27.758a4.71 4.71 0 01-.927-1.306l-4.593 4.58a11.14 11.14 0 002.237 2.232l4.593-4.581a4.722 4.722 0 01-1.31-.925"/></g><g transform="translate(5 121)"><use fill="#000" filter="url(#e)" xlink:href="#f"/><use fill="#FFF" stroke="#E8E8E8" stroke-width=".778" xlink:href="#f"/><path fill="#6772E5" d="M26.578 23.911c0-.867.705-1.2 1.874-1.2 1.676 0 3.792.511 5.468 1.422v-5.222c-1.83-.733-3.638-1.022-5.468-1.022-4.476 0-7.452 2.355-7.452 6.289 0 6.133 8.378 5.155 8.378 7.8 0 1.022-.882 1.355-2.117 1.355-1.83 0-4.167-.755-6.018-1.777v5.288a15.18 15.18 0 006.018 1.267c4.586 0 7.739-2.289 7.739-6.267-.022-6.622-8.422-5.444-8.422-7.933z"/></g><g transform="translate(13 49)"><use fill="#000" filter="url(#g)" xlink:href="#h"/><use fill="#FFF" stroke="#E8E8E8" stroke-width=".778" xlink:href="#h"/><use fill="#0AA6D2" transform="translate(14 15.556)" xlink:href="#i"/></g></g></svg>