<svg height="34" viewBox="0 0 34 34" width="34" xmlns="http://www.w3.org/2000/svg"><path d="m14.4090909 8.3h-1.5933091c-.8271016 0-1.4976.67049834-1.4976 1.49759996v15.40480004c0 .8271017.6704984 1.4976 1.4976 1.4976h9.3684364c.8271016 0 1.4976-.6704983 1.4976-1.4976v-15.40480004c0-.82710162-.6704984-1.49759996-1.4976-1.49759996h-1.5933091v.78453335c0 .41355081-.3352492.74879998-.7488.74879998h-4.6842182c-.4135508 0-.7488-.33524917-.7488-.74879998zm-2.413891-2.3h11.0096002c1.6542032 0 2.9951999 1.34099668 2.9951999 2.99519992v17.00960018c0 1.6542032-1.3409967 2.9951999-2.9951999 2.9951999h-11.0096002c-1.6542032 0-2.9951999-1.3409967-2.9951999-2.9951999v-17.00960018c0-1.65420324 1.3409967-2.99519992 2.9951999-2.99519992zm1.7996571 9.2h7.410286c.6362319 0 1.1519999.5157679 1.1519999 1.1519999v3.4460002c0 .636232-.515768 1.1519999-1.1519999 1.1519999h-7.410286c-.6362319 0-1.1519999-.5157679-1.1519999-1.1519999v-3.4460002c0-.636232.515768-1.1519999 1.1519999-1.1519999z" fill="#96c775" fill-rule="evenodd"/></svg>