<svg xmlns="http://www.w3.org/2000/svg" width="1025" height="269" viewBox="0 0 1025 269">
  <g fill="none" fill-rule="evenodd" transform="translate(-1.808 -11.678)">
    <g transform="rotate(39 -142.355 76.694)">
      <rect width="21" height="21" x=".252" y="3.689" fill="#01B2D0" opacity=".1" rx="3"/>
      <rect width="19" height="18" x="3.416" y="1.506" stroke="#01B2D0" stroke-width="2" rx="3"/>
    </g>
    <g transform="rotate(-47 343.926 21.441)">
      <path fill="#6FD350" d="M19.1281559,13.6856976 L27.7490139,31.5021374 C28.7112285,33.4907143 27.8791975,35.8828035 25.8906206,36.8450181 C25.3474311,37.1078517 24.7518141,37.2443811 24.1483769,37.2443811 L6.90666096,37.2443811 C4.69752196,37.2443811 2.90666096,35.4535201 2.90666096,33.2443811 C2.90666096,32.6409439 3.0431903,32.0453269 3.30602395,31.5021374 L11.9268819,13.6856976 C12.8890966,11.6971207 15.2811857,10.8650896 17.2697626,11.8273043 C18.0808609,12.2197712 18.735689,12.8745993 19.1281559,13.6856976 Z" opacity=".2"/>
      <path stroke="#6FD350" stroke-width="2" d="M25.4488316,7.96824759 C25.1544814,7.35992387 24.6633603,6.8688028 24.0550366,6.57445262 C22.5636039,5.85279164 20.7695371,6.47681491 20.0478761,7.96824759 L11.4270181,25.7846874 C11.2298929,26.1920796 11.1274959,26.6387923 11.1274959,27.0913702 C11.1274959,28.7482244 12.4706416,30.0913702 14.1274959,30.0913702 L31.3692118,30.0913702 C31.8217897,30.0913702 32.2685024,29.9889732 32.6758946,29.7918479 C34.1673273,29.070187 34.7913505,27.2761201 34.0696896,25.7846874 L25.4488316,7.96824759 Z"/>
    </g>
    <g transform="rotate(-35 536.964 -1489.955)">
      <ellipse cx="37.636" cy="28.36" stroke="#FFC111" stroke-width="2" rx="27" ry="26.5"/>
      <ellipse cx="28.623" cy="34.257" fill="#FFC111" opacity=".2" rx="28" ry="27.5"/>
    </g>
  </g>
</svg>
