<svg xmlns="http://www.w3.org/2000/svg" width="70" height="79" viewBox="0 0 70 79">
  <g fill="none">
    <polygon fill="#FFF" points="6.032 60.989 35.447 75.957 63.745 60.989 63.745 2.457 6.032 2.457"/>
    <polygon fill="#F2F3F2" points="64.34 2.681 5.436 62.032 35.968 77.149 64.34 62.628"/>
    <path fill="#DCDEDC" d="M4.09574468,21.9680851 L4.09574468,62.2553191 L5.13829787,62.7765957 L34.5531915,77.7446809 L35.4468085,78.1914894 L36.3404255,77.7446809 L64.712766,62.7765957 L65.7553191,62.2553191 L65.7553191,0.521276596 L4.09574468,0.521276596 L4.09574468,21.9680851 Z M6.03191489,61.1382979 L6.03191489,2.45744681 L63.8191489,2.45744681 L63.8191489,61.1382979 L35.4468085,76.106383 L6.03191489,61.1382979 Z"/>
    <path fill="#FF492C" d="M34.9255319,3.42553191 C35.2234043,3.42553191 35.5212766,3.42553191 35.8191489,3.5 L34.9255319,5.21276596 C33.5851064,5.13829787 32.393617,6.18085106 32.3191489,7.5212766 C32.2446809,8.86170213 33.287234,10.0531915 34.6276596,10.1276596 L34.9255319,10.1276596 C35.5212766,10.1276596 36.1170213,9.90425532 36.5638298,9.53191489 L37.5319149,11.1702128 C36.787234,11.6914894 35.893617,11.9893617 34.9255319,11.9893617 C32.5425532,12.0638298 30.5319149,10.2765957 30.4574468,7.89361702 C30.3829787,5.5106383 32.1702128,3.5 34.5531915,3.42553191 L34.9255319,3.42553191 Z M37.9787234,7.07446809 L39.0957447,8.93617021 L37.9787234,10.7234043 L36.9361702,8.93617021 L34.7765957,8.93617021 L35.893617,7.07446809 L37.9787234,7.07446809 Z M36.1914894,6.40425532 C36.1914894,6.10638298 36.2659574,5.80851064 36.4148936,5.58510638 C36.5638298,5.36170213 36.8617021,5.13829787 37.0851064,4.9893617 L37.2340426,4.91489362 C37.5319149,4.76595745 37.606383,4.69148936 37.606383,4.54255319 C37.606383,4.39361702 37.3829787,4.24468085 37.2340426,4.24468085 C36.9361702,4.24468085 36.712766,4.39361702 36.5638298,4.69148936 L36.1914894,4.31914894 C36.2659574,4.17021277 36.4148936,4.0212766 36.5638298,3.87234043 C36.787234,3.72340426 37.0106383,3.72340426 37.2340426,3.72340426 C37.4574468,3.72340426 37.7553191,3.79787234 37.9042553,3.94680851 C38.0531915,4.09574468 38.2021277,4.31914894 38.2021277,4.54255319 C38.2021277,4.91489362 37.9787234,5.21276596 37.5319149,5.36170213 L37.3085106,5.5106383 C37.0851064,5.65957447 36.9361702,5.73404255 36.8617021,5.95744681 L38.2021277,5.95744681 L38.2021277,6.4787234 L36.1914894,6.40425532 L36.1914894,6.40425532 Z M34.9255319,15.712766 L42,11.6914894 L42,0.521276596 L27.7765957,0.521276596 L27.7765957,11.6170213 L34.9255319,15.712766 Z"/>
    <polygon fill="#FF492C" points="67.17 42.074 2.681 42.074 .298 47.287 2.681 52.5 67.17 52.5 69.479 47.287"/>
    <path fill="#252530" d="M12.562766 30.8968085L12.562766 30.8968085C13.0542553 30.8968085 13.4861702 30.9960993 13.8585106 31.1946809L13.8585106 31.1946809 13.8585106 31.1946809C14.2308511 31.3932624 14.5187943 31.6787234 14.7223404 32.0510638L14.7223404 32.0510638 14.7223404 32.0510638C14.9258865 32.4184397 15.0276596 32.8404255 15.0276596 33.3170213L15.0276596 33.3170213 15.0276596 33.3170213C15.0276596 33.7886525 14.9234043 34.2031915 14.7148936 34.5606383L14.7148936 34.5606383 14.7148936 34.5606383C14.5014184 34.9131206 14.2035461 35.1886525 13.8212766 35.387234L13.8212766 35.387234 13.8212766 35.387234C13.4390071 35.5858156 12.9971631 35.6851064 12.4957447 35.6851064L12.4957447 35.6851064 10.9095745 35.6851064 10.9095745 35.6851064C10.8748227 35.6851064 10.8574468 35.7049645 10.8574468 35.7446809L10.8574468 35.7446809 10.8574468 38.5893617 10.8574468 38.5893617C10.8574468 38.629078 10.8425532 38.6613475 10.812766 38.6861702L10.812766 38.6861702 10.812766 38.6861702C10.7879433 38.7109929 10.7556738 38.7234043 10.7159574 38.7234043L10.7159574 38.7234043 9.41276596 38.7234043 9.41276596 38.7234043C9.37304965 38.7234043 9.34078014 38.7109929 9.31595745 38.6861702L9.31595745 38.6861702 9.31595745 38.6861702C9.29113475 38.6613475 9.2787234 38.629078 9.2787234 38.5893617L9.2787234 38.5893617 9.2787234 31.0308511 9.2787234 31.0308511C9.2787234 30.9911348 9.29113475 30.9588652 9.31595745 30.9340426L9.31595745 30.9340426 9.31595745 30.9340426C9.34078014 30.9092199 9.37304965 30.8968085 9.41276596 30.8968085L9.41276596 30.8968085 12.562766 30.8968085zM12.3244681 34.4265957L12.3244681 34.4265957C12.6719858 34.4265957 12.9475177 34.327305 13.1510638 34.1287234L13.1510638 34.1287234 13.1510638 34.1287234C13.3595745 33.9301418 13.4638298 33.6719858 13.4638298 33.3542553L13.4638298 33.3542553 13.4638298 33.3542553C13.4638298 33.0216312 13.3595745 32.7560284 13.1510638 32.5574468L13.1510638 32.5574468 13.1510638 32.5574468C12.9475177 32.3539007 12.6719858 32.2521277 12.3244681 32.2521277L12.3244681 32.2521277 10.9095745 32.2521277 10.9095745 32.2521277C10.8748227 32.2521277 10.8574468 32.2719858 10.8574468 32.3117021L10.8574468 32.3117021 10.8574468 34.3670213 10.8574468 34.3670213C10.8574468 34.4067376 10.8748227 34.4265957 10.9095745 34.4265957L10.9095745 34.4265957 12.3244681 34.4265957zM20.9851064 35.2606383L20.9851064 35.2606383C21.0297872 35.543617 21.0446809 35.8588652 21.0297872 36.206383L21.0297872 36.206383 21.0297872 36.206383C21.0248227 36.3007092 20.9776596 36.3478723 20.8882979 36.3478723L20.8882979 36.3478723 17.4329787 36.3478723 17.4329787 36.3478723C17.3882979 36.3478723 17.3734043 36.3652482 17.3882979 36.4L17.3882979 36.4 17.3882979 36.4C17.4131206 36.5489362 17.4528369 36.6978723 17.5074468 36.8468085L17.5074468 36.8468085 17.5074468 36.8468085C17.7060284 37.2638298 18.1007092 37.4723404 18.6914894 37.4723404L18.6914894 37.4723404 18.6914894 37.4723404C19.1730496 37.4673759 19.5503546 37.2737589 19.8234043 36.8914894L19.8234043 36.8914894 19.8234043 36.8914894C19.8531915 36.8468085 19.885461 36.8244681 19.9202128 36.8244681L19.9202128 36.8244681 19.9202128 36.8244681C19.9450355 36.8244681 19.9723404 36.8393617 20.0021277 36.8691489L20.0021277 36.8691489 20.806383 37.6585106 20.806383 37.6585106C20.8411348 37.698227 20.8585106 37.7329787 20.8585106 37.762766L20.8585106 37.762766 20.8585106 37.762766C20.8585106 37.7776596 20.8460993 37.8074468 20.8212766 37.8521277L20.8212766 37.8521277 20.8212766 37.8521277C20.5730496 38.1599291 20.2553191 38.3957447 19.8680851 38.5595745L19.8680851 38.5595745 19.8680851 38.5595745C19.4808511 38.7283688 19.056383 38.812766 18.5946809 38.812766L18.5946809 38.812766 18.5946809 38.812766C17.9542553 38.812766 17.4131206 38.6687943 16.9712766 38.3808511L16.9712766 38.3808511 16.9712766 38.3808511C16.5294326 38.0879433 16.2092199 37.6808511 16.0106383 37.1595745L16.0106383 37.1595745 16.0106383 37.1595745C15.8567376 36.787234 15.7797872 36.3007092 15.7797872 35.7L15.7797872 35.7 15.7797872 35.7C15.7797872 35.2879433 15.8343972 34.9255319 15.943617 34.612766L15.943617 34.612766 15.943617 34.612766C16.1173759 34.0865248 16.4177305 33.6670213 16.8446809 33.3542553L16.8446809 33.3542553 16.8446809 33.3542553C17.2765957 33.0414894 17.785461 32.8851064 18.3712766 32.8851064L18.3712766 32.8851064 18.3712766 32.8851064C19.1159574 32.8851064 19.7141844 33.1010638 20.1659574 33.5329787L20.1659574 33.5329787 20.1659574 33.5329787C20.6177305 33.9648936 20.8907801 34.5407801 20.9851064 35.2606383L20.9851064 35.2606383zM18.3787234 34.2478723L18.3787234 34.2478723C17.9120567 34.2478723 17.6042553 34.4663121 17.4553191 34.9031915L17.4553191 34.9031915 17.4553191 34.9031915C17.4255319 35.0024823 17.398227 35.1216312 17.3734043 35.2606383L17.3734043 35.2606383 17.3734043 35.2606383C17.3734043 35.2953901 17.3932624 35.312766 17.4329787 35.312766L17.4329787 35.312766 19.3617021 35.312766 19.3617021 35.312766C19.406383 35.312766 19.4237589 35.2953901 19.4138298 35.2606383L19.4138298 35.2606383 19.4138298 35.2606383C19.3741135 35.0471631 19.3542553 34.9429078 19.3542553 34.9478723L19.3542553 34.9478723 19.3542553 34.9478723C19.2847518 34.7244681 19.1680851 34.5507092 19.0042553 34.4265957L19.0042553 34.4265957 19.0042553 34.4265957C18.835461 34.3074468 18.6269504 34.2478723 18.3787234 34.2478723L18.3787234 34.2478723zM24.8648936 32.9074468L24.8648936 32.9074468C25.1280142 32.9074468 25.3390071 32.9595745 25.4978723 33.0638298L25.4978723 33.0638298 25.4978723 33.0638298C25.5574468 33.093617 25.5797872 33.148227 25.5648936 33.2276596L25.5648936 33.2276596 25.3265957 34.5010638 25.3265957 34.5010638C25.3216312 34.5904255 25.2695035 34.6177305 25.1702128 34.5829787L25.1702128 34.5829787 25.1702128 34.5829787C25.0609929 34.5432624 24.9319149 34.5234043 24.7829787 34.5234043L24.7829787 34.5234043 24.7829787 34.5234043C24.7234043 34.5234043 24.6414894 34.5308511 24.537234 34.5457447L24.537234 34.5457447 24.537234 34.5457447C24.2691489 34.5705674 24.0407801 34.6698582 23.8521277 34.843617L23.8521277 34.843617 23.8521277 34.843617C23.6684397 35.0173759 23.5765957 35.2507092 23.5765957 35.543617L23.5765957 35.543617 23.5765957 38.5893617 23.5765957 38.5893617C23.5765957 38.629078 23.5641844 38.6613475 23.5393617 38.6861702L23.5393617 38.6861702 23.5393617 38.6861702C23.5095745 38.7109929 23.477305 38.7234043 23.4425532 38.7234043L23.4425532 38.7234043 22.1393617 38.7234043 22.1393617 38.7234043C22.0996454 38.7234043 22.0673759 38.7109929 22.0425532 38.6861702L22.0425532 38.6861702 22.0425532 38.6861702C22.0177305 38.6613475 22.0053191 38.629078 22.0053191 38.5893617L22.0053191 38.5893617 22.0053191 33.1159574 22.0053191 33.1159574C22.0053191 33.0812057 22.0177305 33.0489362 22.0425532 33.0191489L22.0425532 33.0191489 22.0425532 33.0191489C22.0673759 32.9943262 22.0996454 32.9819149 22.1393617 32.9819149L22.1393617 32.9819149 23.4425532 32.9819149 23.4425532 32.9819149C23.477305 32.9819149 23.5095745 32.9943262 23.5393617 33.0191489L23.5393617 33.0191489 23.5393617 33.0191489C23.5641844 33.0489362 23.5765957 33.0812057 23.5765957 33.1159574L23.5765957 33.1159574 23.5765957 33.5404255 23.5765957 33.5404255C23.5765957 33.5602837 23.5840426 33.5751773 23.5989362 33.5851064L23.5989362 33.5851064 23.5989362 33.5851064C23.6138298 33.5950355 23.6237589 33.5900709 23.6287234 33.5702128L23.6287234 33.5702128 23.6287234 33.5702128C23.9365248 33.1283688 24.3485816 32.9074468 24.8648936 32.9074468L24.8648936 32.9074468zM29.556383 32.9744681L29.556383 32.9744681C29.5911348 32.9744681 29.620922 32.9868794 29.6457447 33.0117021L29.6457447 33.0117021 29.6457447 33.0117021C29.6755319 33.0365248 29.6904255 33.0687943 29.6904255 33.1085106L29.6904255 33.1085106 29.6904255 34.1659574 29.6904255 34.1659574C29.6904255 34.2056738 29.6755319 34.2379433 29.6457447 34.262766L29.6457447 34.262766 29.6457447 34.262766C29.620922 34.2875887 29.5911348 34.3 29.556383 34.3L29.556383 34.3 28.4691489 34.3 28.4691489 34.3C28.4343972 34.3 28.4170213 34.3173759 28.4170213 34.3521277L28.4170213 34.3521277 28.4170213 38.5893617 28.4170213 38.5893617C28.4170213 38.629078 28.4021277 38.6613475 28.3723404 38.6861702L28.3723404 38.6861702 28.3723404 38.6861702C28.3475177 38.7109929 28.3177305 38.7234043 28.2829787 38.7234043L28.2829787 38.7234043 26.9723404 38.7234043 26.9723404 38.7234043C26.9375887 38.7234043 26.9053191 38.7109929 26.8755319 38.6861702L26.8755319 38.6861702 26.8755319 38.6861702C26.8507092 38.6613475 26.8382979 38.629078 26.8382979 38.5893617L26.8382979 38.5893617 26.8382979 34.3521277 26.8382979 34.3521277C26.8382979 34.3173759 26.8184397 34.3 26.7787234 34.3L26.7787234 34.3 26.1234043 34.3 26.1234043 34.3C26.0886525 34.3 26.056383 34.2875887 26.0265957 34.262766L26.0265957 34.262766 26.0265957 34.262766C26.001773 34.2379433 25.9893617 34.2056738 25.9893617 34.1659574L25.9893617 34.1659574 25.9893617 33.1085106 25.9893617 33.1085106C25.9893617 33.0687943 26.001773 33.0365248 26.0265957 33.0117021L26.0265957 33.0117021 26.0265957 33.0117021C26.056383 32.9868794 26.0886525 32.9744681 26.1234043 32.9744681L26.1234043 32.9744681 26.7787234 32.9744681 26.7787234 32.9744681C26.8184397 32.9744681 26.8382979 32.9546099 26.8382979 32.9148936L26.8382979 32.9148936 26.8382979 32.6691489 26.8382979 32.6691489C26.8382979 32.2074468 26.9102837 31.8475177 27.0542553 31.5893617L27.0542553 31.5893617 27.0542553 31.5893617C27.1932624 31.3361702 27.4216312 31.1549645 27.7393617 31.0457447L27.7393617 31.0457447 27.7393617 31.0457447C28.0570922 30.9365248 28.4939716 30.8893617 29.05 30.9042553L29.05 30.9042553 29.4744681 30.9042553 29.4744681 30.9042553C29.5141844 30.9042553 29.5464539 30.9166667 29.5712766 30.9414894L29.5712766 30.9414894 29.5712766 30.9414894C29.5960993 30.9712766 29.6085106 31.0035461 29.6085106 31.0382979L29.6085106 31.0382979 29.6085106 31.9393617 29.6085106 31.9393617C29.6085106 31.979078 29.5960993 32.0113475 29.5712766 32.0361702L29.5712766 32.0361702 29.5712766 32.0361702C29.5464539 32.0659574 29.5141844 32.0808511 29.4744681 32.0808511L29.4744681 32.0808511 29.1021277 32.0808511 29.1021277 32.0808511C28.8439716 32.0858156 28.6652482 32.1379433 28.5659574 32.237234L28.5659574 32.237234 28.5659574 32.237234C28.4666667 32.3414894 28.4170213 32.5276596 28.4170213 32.7957447L28.4170213 32.7957447 28.4170213 32.9148936 28.4170213 32.9148936C28.4170213 32.9546099 28.4343972 32.9744681 28.4691489 32.9744681L28.4691489 32.9744681 29.556383 32.9744681zM33.1382979 38.812766L33.1382979 38.812766C32.512766 38.812766 31.9765957 38.6489362 31.5297872 38.3212766L31.5297872 38.3212766 31.5297872 38.3212766C31.0829787 37.993617 30.7776596 37.5468085 30.6138298 36.9808511L30.6138298 36.9808511 30.6138298 36.9808511C30.5095745 36.6333333 30.4574468 36.2535461 30.4574468 35.8414894L30.4574468 35.8414894 30.4574468 35.8414894C30.4574468 35.4046099 30.5095745 35.0099291 30.6138298 34.6574468L30.6138298 34.6574468 30.6138298 34.6574468C30.7875887 34.106383 31.0953901 33.6744681 31.537234 33.3617021L31.537234 33.3617021 31.537234 33.3617021C31.9890071 33.0489362 32.5276596 32.8925532 33.1531915 32.8925532L33.1531915 32.8925532 33.1531915 32.8925532C33.7638298 32.8925532 34.2826241 33.0464539 34.7095745 33.3542553L34.7095745 33.3542553 34.7095745 33.3542553C35.1464539 33.6670213 35.4542553 34.0989362 35.6329787 34.65L35.6329787 34.65 35.6329787 34.65C35.7521277 35.0223404 35.8117021 35.4120567 35.8117021 35.8191489L35.8117021 35.8191489 35.8117021 35.8191489C35.8117021 36.2212766 35.7595745 36.5985816 35.6553191 36.9510638L35.6553191 36.9510638 35.6553191 36.9510638C35.4865248 37.5319149 35.1812057 37.9861702 34.7393617 38.3138298L34.7393617 38.3138298 34.7393617 38.3138298C34.2975177 38.6464539 33.7638298 38.812766 33.1382979 38.812766L33.1382979 38.812766zM33.1382979 37.4648936L33.1382979 37.4648936C33.3865248 37.4648936 33.5950355 37.3904255 33.7638298 37.2414894L33.7638298 37.2414894 33.7638298 37.2414894C33.9326241 37.0925532 34.0567376 36.8865248 34.1361702 36.6234043L34.1361702 36.6234043 34.1361702 36.6234043C34.1957447 36.3851064 34.2255319 36.1244681 34.2255319 35.8414894L34.2255319 35.8414894 34.2255319 35.8414894C34.2255319 35.5287234 34.1957447 35.2656028 34.1361702 35.0521277L34.1361702 35.0521277 34.1361702 35.0521277C34.051773 34.7989362 33.922695 34.6003546 33.7489362 34.456383L33.7489362 34.456383 33.7489362 34.456383C33.5801418 34.3173759 33.3741135 34.2478723 33.1308511 34.2478723L33.1308511 34.2478723 33.1308511 34.2478723C32.872695 34.2478723 32.6617021 34.3173759 32.4978723 34.456383L32.4978723 34.456383 32.4978723 34.456383C32.329078 34.6003546 32.2074468 34.7989362 32.1329787 35.0521277L32.1329787 35.0521277 32.1329787 35.0521277C32.0734043 35.2258865 32.043617 35.4890071 32.043617 35.8414894L32.043617 35.8414894 32.043617 35.8414894C32.043617 36.179078 32.070922 36.4397163 32.1255319 36.6234043L32.1255319 36.6234043 32.1255319 36.6234043C32.1950355 36.8865248 32.3191489 37.0925532 32.4978723 37.2414894L32.4978723 37.2414894 32.4978723 37.2414894C32.6716312 37.3904255 32.8851064 37.4648936 33.1382979 37.4648936L33.1382979 37.4648936zM39.6840426 32.9074468L39.6840426 32.9074468C39.9521277 32.9074468 40.1631206 32.9595745 40.3170213 33.0638298L40.3170213 33.0638298 40.3170213 33.0638298C40.3765957 33.093617 40.3989362 33.148227 40.3840426 33.2276596L40.3840426 33.2276596 40.1531915 34.5010638 40.1531915 34.5010638C40.1432624 34.5904255 40.0911348 34.6177305 39.9968085 34.5829787L39.9968085 34.5829787 39.9968085 34.5829787C39.8826241 34.5432624 39.7510638 34.5234043 39.6021277 34.5234043L39.6021277 34.5234043 39.6021277 34.5234043C39.5425532 34.5234043 39.4606383 34.5308511 39.356383 34.5457447L39.356383 34.5457447 39.356383 34.5457447C39.0932624 34.5705674 38.8673759 34.6698582 38.6787234 34.843617L38.6787234 34.843617 38.6787234 34.843617C38.4950355 35.0173759 38.4031915 35.2507092 38.4031915 35.543617L38.4031915 35.543617 38.4031915 38.5893617 38.4031915 38.5893617C38.4031915 38.629078 38.3882979 38.6613475 38.3585106 38.6861702L38.3585106 38.6861702 38.3585106 38.6861702C38.3336879 38.7109929 38.3039007 38.7234043 38.2691489 38.7234043L38.2691489 38.7234043 36.9585106 38.7234043 36.9585106 38.7234043C36.9187943 38.7234043 36.8865248 38.7109929 36.8617021 38.6861702L36.8617021 38.6861702 36.8617021 38.6861702C36.8368794 38.6613475 36.8244681 38.629078 36.8244681 38.5893617L36.8244681 38.5893617 36.8244681 33.1159574 36.8244681 33.1159574C36.8244681 33.0812057 36.8368794 33.0489362 36.8617021 33.0191489L36.8617021 33.0191489 36.8617021 33.0191489C36.8865248 32.9943262 36.9187943 32.9819149 36.9585106 32.9819149L36.9585106 32.9819149 38.2691489 32.9819149 38.2691489 32.9819149C38.3039007 32.9819149 38.3336879 32.9943262 38.3585106 33.0191489L38.3585106 33.0191489 38.3585106 33.0191489C38.3882979 33.0489362 38.4031915 33.0812057 38.4031915 33.1159574L38.4031915 33.1159574 38.4031915 33.5404255 38.4031915 33.5404255C38.4031915 33.5602837 38.408156 33.5751773 38.4180851 33.5851064L38.4180851 33.5851064 38.4180851 33.5851064C38.4329787 33.5950355 38.4453901 33.5900709 38.4553191 33.5702128L38.4553191 33.5702128 38.4553191 33.5702128C38.758156 33.1283688 39.1677305 32.9074468 39.6840426 32.9074468L39.6840426 32.9074468zM47.4659574 32.8925532L47.4659574 32.8925532C48.0468085 32.8925532 48.5010638 33.0663121 48.8287234 33.4138298L48.8287234 33.4138298 48.8287234 33.4138298C49.156383 33.7663121 49.3202128 34.2602837 49.3202128 34.8957447L49.3202128 34.8957447 49.3202128 38.5893617 49.3202128 38.5893617C49.3202128 38.629078 49.3078014 38.6613475 49.2829787 38.6861702L49.2829787 38.6861702 49.2829787 38.6861702C49.258156 38.7109929 49.2258865 38.7234043 49.1861702 38.7234043L49.1861702 38.7234043 47.8829787 38.7234043 47.8829787 38.7234043C47.8432624 38.7234043 47.8109929 38.7109929 47.7861702 38.6861702L47.7861702 38.6861702 47.7861702 38.6861702C47.7613475 38.6613475 47.7489362 38.629078 47.7489362 38.5893617L47.7489362 38.5893617 47.7489362 35.2382979 47.7489362 35.2382979C47.7489362 34.935461 47.6695035 34.6946809 47.5106383 34.5159574L47.5106383 34.5159574 47.5106383 34.5159574C47.3567376 34.337234 47.148227 34.2478723 46.8851064 34.2478723L46.8851064 34.2478723 46.8851064 34.2478723C46.6269504 34.2478723 46.4159574 34.337234 46.2521277 34.5159574L46.2521277 34.5159574 46.2521277 34.5159574C46.0882979 34.6946809 46.006383 34.9329787 46.006383 35.2308511L46.006383 35.2308511 46.006383 38.5893617 46.006383 38.5893617C46.006383 38.629078 45.9939716 38.6613475 45.9691489 38.6861702L45.9691489 38.6861702 45.9691489 38.6861702C45.9393617 38.7109929 45.9070922 38.7234043 45.8723404 38.7234043L45.8723404 38.7234043 44.5765957 38.7234043 44.5765957 38.7234043C44.5368794 38.7234043 44.5046099 38.7109929 44.4797872 38.6861702L44.4797872 38.6861702 44.4797872 38.6861702C44.4549645 38.6613475 44.4425532 38.629078 44.4425532 38.5893617L44.4425532 38.5893617 44.4425532 35.2382979 44.4425532 35.2382979C44.4425532 34.9404255 44.3606383 34.6996454 44.1968085 34.5159574L44.1968085 34.5159574 44.1968085 34.5159574C44.0329787 34.337234 43.8195035 34.2478723 43.556383 34.2478723L43.556383 34.2478723 43.556383 34.2478723C43.3180851 34.2478723 43.1195035 34.3173759 42.9606383 34.456383L42.9606383 34.456383 42.9606383 34.456383C42.801773 34.6003546 42.7074468 34.7989362 42.6776596 35.0521277L42.6776596 35.0521277 42.6776596 38.5893617 42.6776596 38.5893617C42.6776596 38.629078 42.6652482 38.6613475 42.6404255 38.6861702L42.6404255 38.6861702 42.6404255 38.6861702C42.6106383 38.7109929 42.5783688 38.7234043 42.543617 38.7234043L42.543617 38.7234043 41.2329787 38.7234043 41.2329787 38.7234043C41.198227 38.7234043 41.1684397 38.7109929 41.143617 38.6861702L41.143617 38.6861702 41.143617 38.6861702C41.1138298 38.6613475 41.0989362 38.629078 41.0989362 38.5893617L41.0989362 38.5893617 41.0989362 33.1159574 41.0989362 33.1159574C41.0989362 33.0812057 41.1138298 33.0489362 41.143617 33.0191489L41.143617 33.0191489 41.143617 33.0191489C41.1684397 32.9943262 41.198227 32.9819149 41.2329787 32.9819149L41.2329787 32.9819149 42.543617 32.9819149 42.543617 32.9819149C42.5783688 32.9819149 42.6106383 32.9943262 42.6404255 33.0191489L42.6404255 33.0191489 42.6404255 33.0191489C42.6652482 33.0489362 42.6776596 33.0812057 42.6776596 33.1159574L42.6776596 33.1159574 42.6776596 33.5553191 42.6776596 33.5553191C42.6776596 33.5751773 42.6851064 33.5900709 42.7 33.6L42.7 33.6 42.7 33.6C42.7148936 33.6049645 42.7297872 33.5950355 42.7446809 33.5702128L42.7446809 33.5702128 42.7446809 33.5702128C43.0475177 33.1184397 43.5191489 32.8925532 44.1595745 32.8925532L44.1595745 32.8925532 44.1595745 32.8925532C44.5319149 32.8925532 44.8595745 32.9719858 45.1425532 33.1308511L45.1425532 33.1308511 45.1425532 33.1308511C45.4205674 33.2847518 45.6340426 33.508156 45.7829787 33.8010638L45.7829787 33.8010638 45.7829787 33.8010638C45.8028369 33.8457447 45.8276596 33.8457447 45.8574468 33.8010638L45.8574468 33.8010638 45.8574468 33.8010638C46.0212766 33.4932624 46.2446809 33.2648936 46.5276596 33.1159574L46.5276596 33.1159574 46.5276596 33.1159574C46.8056738 32.9670213 47.1184397 32.8925532 47.4659574 32.8925532L47.4659574 32.8925532zM55.5085106 35.2606383L55.5085106 35.2606383C55.5531915 35.543617 55.5680851 35.8588652 55.5531915 36.206383L55.5531915 36.206383 55.5531915 36.206383C55.548227 36.3007092 55.5010638 36.3478723 55.4117021 36.3478723L55.4117021 36.3478723 51.956383 36.3478723 51.956383 36.3478723C51.9117021 36.3478723 51.8968085 36.3652482 51.9117021 36.4L51.9117021 36.4 51.9117021 36.4C51.9365248 36.5489362 51.9787234 36.6978723 52.0382979 36.8468085L52.0382979 36.8468085 52.0382979 36.8468085C52.2319149 37.2638298 52.6265957 37.4723404 53.2223404 37.4723404L53.2223404 37.4723404 53.2223404 37.4723404C53.6989362 37.4673759 54.0737589 37.2737589 54.3468085 36.8914894L54.3468085 36.8914894 54.3468085 36.8914894C54.3765957 36.8468085 54.4113475 36.8244681 54.4510638 36.8244681L54.4510638 36.8244681 54.4510638 36.8244681C54.470922 36.8244681 54.4957447 36.8393617 54.5255319 36.8691489L54.5255319 36.8691489 55.3297872 37.6585106 55.3297872 37.6585106C55.3695035 37.698227 55.3893617 37.7329787 55.3893617 37.762766L55.3893617 37.762766 55.3893617 37.762766C55.3893617 37.7776596 55.3744681 37.8074468 55.3446809 37.8521277L55.3446809 37.8521277 55.3446809 37.8521277C55.0964539 38.1599291 54.7787234 38.3957447 54.3914894 38.5595745L54.3914894 38.5595745 54.3914894 38.5595745C54.0042553 38.7283688 53.5797872 38.812766 53.1180851 38.812766L53.1180851 38.812766 53.1180851 38.812766C52.4776596 38.812766 51.9365248 38.6687943 51.4946809 38.3808511L51.4946809 38.3808511 51.4946809 38.3808511C51.0528369 38.0879433 50.7351064 37.6808511 50.5414894 37.1595745L50.5414894 37.1595745 50.5414894 37.1595745C50.3826241 36.787234 50.3031915 36.3007092 50.3031915 35.7L50.3031915 35.7 50.3031915 35.7C50.3031915 35.2879433 50.3602837 34.9255319 50.4744681 34.612766L50.4744681 34.612766 50.4744681 34.612766C50.6432624 34.0865248 50.943617 33.6670213 51.3755319 33.3542553L51.3755319 33.3542553 51.3755319 33.3542553C51.8024823 33.0414894 52.3088652 32.8851064 52.8946809 32.8851064L52.8946809 32.8851064 52.8946809 32.8851064C53.6393617 32.8851064 54.2375887 33.1010638 54.6893617 33.5329787L54.6893617 33.5329787 54.6893617 33.5329787C55.1411348 33.9648936 55.4141844 34.5407801 55.5085106 35.2606383L55.5085106 35.2606383zM52.9095745 34.2478723L52.9095745 34.2478723C52.4379433 34.2478723 52.1276596 34.4663121 51.9787234 34.9031915L51.9787234 34.9031915 51.9787234 34.9031915C51.9489362 35.0024823 51.9241135 35.1216312 51.9042553 35.2606383L51.9042553 35.2606383 51.9042553 35.2606383C51.9042553 35.2953901 51.9216312 35.312766 51.956383 35.312766L51.956383 35.312766 53.8925532 35.312766 53.8925532 35.312766C53.937234 35.312766 53.9521277 35.2953901 53.937234 35.2606383L53.937234 35.2606383 53.937234 35.2606383C53.8975177 35.0471631 53.8776596 34.9429078 53.8776596 34.9478723L53.8776596 34.9478723 53.8776596 34.9478723C53.8131206 34.7244681 53.6964539 34.5507092 53.5276596 34.4265957L53.5276596 34.4265957 53.5276596 34.4265957C53.3588652 34.3074468 53.1528369 34.2478723 52.9095745 34.2478723L52.9095745 34.2478723zM59.3882979 32.9074468L59.3882979 32.9074468C59.656383 32.9074468 59.8673759 32.9595745 60.0212766 33.0638298L60.0212766 33.0638298 60.0212766 33.0638298C60.0808511 33.093617 60.1031915 33.148227 60.0882979 33.2276596L60.0882979 33.2276596 59.8574468 34.5010638 59.8574468 34.5010638C59.8475177 34.5904255 59.7953901 34.6177305 59.7010638 34.5829787L59.7010638 34.5829787 59.7010638 34.5829787C59.5868794 34.5432624 59.4553191 34.5234043 59.306383 34.5234043L59.306383 34.5234043 59.306383 34.5234043C59.2468085 34.5234043 59.1648936 34.5308511 59.0606383 34.5457447L59.0606383 34.5457447 59.0606383 34.5457447C58.7925532 34.5705674 58.5666667 34.6698582 58.3829787 34.843617L58.3829787 34.843617 58.3829787 34.843617C58.1943262 35.0173759 58.1 35.2507092 58.1 35.543617L58.1 35.543617 58.1 38.5893617 58.1 38.5893617C58.1 38.629078 58.0875887 38.6613475 58.062766 38.6861702L58.062766 38.6861702 58.062766 38.6861702C58.0379433 38.7109929 58.0056738 38.7234043 57.9659574 38.7234043L57.9659574 38.7234043 56.662766 38.7234043 56.662766 38.7234043C56.6230496 38.7234043 56.5907801 38.7109929 56.5659574 38.6861702L56.5659574 38.6861702 56.5659574 38.6861702C56.5411348 38.6613475 56.5287234 38.629078 56.5287234 38.5893617L56.5287234 38.5893617 56.5287234 33.1159574 56.5287234 33.1159574C56.5287234 33.0812057 56.5411348 33.0489362 56.5659574 33.0191489L56.5659574 33.0191489 56.5659574 33.0191489C56.5907801 32.9943262 56.6230496 32.9819149 56.662766 32.9819149L56.662766 32.9819149 57.9659574 32.9819149 57.9659574 32.9819149C58.0056738 32.9819149 58.0379433 32.9943262 58.062766 33.0191489L58.062766 33.0191489 58.062766 33.0191489C58.0875887 33.0489362 58.1 33.0812057 58.1 33.1159574L58.1 33.1159574 58.1 33.5404255 58.1 33.5404255C58.1 33.5602837 58.1074468 33.5751773 58.1223404 33.5851064L58.1223404 33.5851064 58.1223404 33.5851064C58.137234 33.5950355 58.1496454 33.5900709 58.1595745 33.5702128L58.1595745 33.5702128 58.1595745 33.5702128C58.4624113 33.1283688 58.8719858 32.9074468 59.3882979 32.9074468L59.3882979 32.9074468zM28.3425532 19.8680851L28.3425532 19.8680851C28.3425532 19.8333333 28.3549645 19.8010638 28.3797872 19.7712766L28.3797872 19.7712766 28.3797872 19.7712766C28.4046099 19.7464539 28.4343972 19.7340426 28.4691489 19.7340426L28.4691489 19.7340426 29.7797872 19.7340426 29.7797872 19.7340426C29.814539 19.7340426 29.8468085 19.7464539 29.8765957 19.7712766L29.8765957 19.7712766 29.8765957 19.7712766C29.9014184 19.8010638 29.9138298 19.8333333 29.9138298 19.8680851L29.9138298 19.8680851 29.9138298 27.4191489 29.9138298 27.4191489C29.9138298 27.4588652 29.9014184 27.4911348 29.8765957 27.5159574L29.8765957 27.5159574 29.8765957 27.5159574C29.8468085 27.5407801 29.814539 27.5531915 29.7797872 27.5531915L29.7797872 27.5531915 28.4691489 27.5531915 28.4691489 27.5531915C28.4343972 27.5531915 28.4046099 27.5407801 28.3797872 27.5159574L28.3797872 27.5159574 28.3797872 27.5159574C28.3549645 27.4911348 28.3425532 27.4588652 28.3425532 27.4191489L28.3425532 27.4191489 28.3425532 24.3361702 28.3425532 24.3361702C28.3425532 24.3014184 28.322695 24.2840426 28.2829787 24.2840426L28.2829787 24.2840426 25.8106383 24.2840426 25.8106383 24.2840426C25.7758865 24.2840426 25.7585106 24.3014184 25.7585106 24.3361702L25.7585106 24.3361702 25.7585106 27.4191489 25.7585106 27.4191489C25.7585106 27.4588652 25.7460993 27.4911348 25.7212766 27.5159574L25.7212766 27.5159574 25.7212766 27.5159574C25.6914894 27.5407801 25.6592199 27.5531915 25.6244681 27.5531915L25.6244681 27.5531915 24.3138298 27.5531915 24.3138298 27.5531915C24.279078 27.5531915 24.2492908 27.5407801 24.2244681 27.5159574L24.2244681 27.5159574 24.2244681 27.5159574C24.1946809 27.4911348 24.1797872 27.4588652 24.1797872 27.4191489L24.1797872 27.4191489 24.1797872 19.8680851 24.1797872 19.8680851C24.1797872 19.8333333 24.1946809 19.8010638 24.2244681 19.7712766L24.2244681 19.7712766 24.2244681 19.7712766C24.2492908 19.7464539 24.279078 19.7340426 24.3138298 19.7340426L24.3138298 19.7340426 25.6244681 19.7340426 25.6244681 19.7340426C25.6592199 19.7340426 25.6914894 19.7464539 25.7212766 19.7712766L25.7212766 19.7712766 25.7212766 19.7712766C25.7460993 19.8010638 25.7585106 19.8333333 25.7585106 19.8680851L25.7585106 19.8680851 25.7585106 22.8691489 25.7585106 22.8691489C25.7585106 22.9088652 25.7758865 22.9287234 25.8106383 22.9287234L25.8106383 22.9287234 28.2829787 22.9287234 28.2829787 22.9287234C28.322695 22.9287234 28.3425532 22.9088652 28.3425532 22.8691489L28.3425532 22.8691489 28.3425532 19.8680851zM31.9468085 21.1638298L31.9468085 21.1638298C31.693617 21.1638298 31.4826241 21.0794326 31.3138298 20.9106383L31.3138298 20.9106383 31.3138298 20.9106383C31.1450355 20.7468085 31.0606383 20.5382979 31.0606383 20.2851064L31.0606383 20.2851064 31.0606383 20.2851064C31.0606383 20.0219858 31.1425532 19.8085106 31.306383 19.6446809L31.306383 19.6446809 31.306383 19.6446809C31.4702128 19.4808511 31.6836879 19.3989362 31.9468085 19.3989362L31.9468085 19.3989362 31.9468085 19.3989362C32.2099291 19.3989362 32.4234043 19.4808511 32.587234 19.6446809L32.587234 19.6446809 32.587234 19.6446809C32.7510638 19.8085106 32.8329787 20.0219858 32.8329787 20.2851064L32.8329787 20.2851064 32.8329787 20.2851064C32.8329787 20.5382979 32.7485816 20.7468085 32.5797872 20.9106383L32.5797872 20.9106383 32.5797872 20.9106383C32.4109929 21.0794326 32.2 21.1638298 31.9468085 21.1638298L31.9468085 21.1638298zM31.2765957 27.5531915L31.2765957 27.5531915C31.241844 27.5531915 31.2095745 27.5407801 31.1797872 27.5159574L31.1797872 27.5159574 31.1797872 27.5159574C31.1549645 27.4911348 31.1425532 27.4588652 31.1425532 27.4191489L31.1425532 27.4191489 31.1425532 21.9382979 31.1425532 21.9382979C31.1425532 21.8985816 31.1549645 21.8663121 31.1797872 21.8414894L31.1797872 21.8414894 31.1797872 21.8414894C31.2095745 21.8166667 31.241844 21.8042553 31.2765957 21.8042553L31.2765957 21.8042553 32.587234 21.8042553 32.587234 21.8042553C32.6219858 21.8042553 32.651773 21.8166667 32.6765957 21.8414894L32.6765957 21.8414894 32.6765957 21.8414894C32.706383 21.8663121 32.7212766 21.8985816 32.7212766 21.9382979L32.7212766 21.9382979 32.7212766 27.4191489 32.7212766 27.4191489C32.7212766 27.4588652 32.706383 27.4911348 32.6765957 27.5159574L32.6765957 27.5159574 32.6765957 27.5159574C32.651773 27.5407801 32.6219858 27.5531915 32.587234 27.5531915L32.587234 27.5531915 31.2765957 27.5531915zM37.45 21.9457447L37.45 21.9457447C37.45 21.9109929 37.4648936 21.8787234 37.4946809 21.8489362L37.4946809 21.8489362 37.4946809 21.8489362C37.5195035 21.8241135 37.5492908 21.8117021 37.5840426 21.8117021L37.5840426 21.8117021 38.8946809 21.8117021 38.8946809 21.8117021C38.9294326 21.8117021 38.9617021 21.8241135 38.9914894 21.8489362L38.9914894 21.8489362 38.9914894 21.8489362C39.0163121 21.8787234 39.0287234 21.9109929 39.0287234 21.9457447L39.0287234 21.9457447 39.0287234 27.0393617 39.0287234 27.0393617C39.0287234 28.0124113 38.748227 28.7074468 38.187234 29.1244681L38.187234 29.1244681 38.187234 29.1244681C37.6262411 29.5464539 36.9014184 29.7574468 36.012766 29.7574468L36.012766 29.7574468 36.012766 29.7574468C35.7496454 29.7574468 35.4592199 29.7375887 35.1414894 29.6978723L35.1414894 29.6978723 35.1414894 29.6978723C35.0670213 29.6879433 35.0297872 29.6407801 35.0297872 29.556383L35.0297872 29.556383 35.0744681 28.4021277 35.0744681 28.4021277C35.0744681 28.3028369 35.1265957 28.2606383 35.2308511 28.2755319L35.2308511 28.2755319 35.2308511 28.2755319C35.4989362 28.3202128 35.7446809 28.3425532 35.9680851 28.3425532L35.9680851 28.3425532 35.9680851 28.3425532C36.4446809 28.3425532 36.8120567 28.2407801 37.0702128 28.037234L37.0702128 28.037234 37.0702128 28.037234C37.3234043 27.8237589 37.45 27.4886525 37.45 27.0319149L37.45 27.0319149 37.45 27.0319149C37.45 27.0070922 37.4425532 26.9921986 37.4276596 26.987234L37.4276596 26.987234 37.4276596 26.987234C37.412766 26.9822695 37.3978723 26.9897163 37.3829787 27.0095745L37.3829787 27.0095745 37.3829787 27.0095745C37.1 27.3124113 36.6879433 27.4638298 36.1468085 27.4638298L36.1468085 27.4638298 36.1468085 27.4638298C35.6602837 27.4638298 35.2159574 27.3471631 34.8138298 27.1138298L34.8138298 27.1138298 34.8138298 27.1138298C34.4067376 26.8804965 34.1163121 26.5031915 33.9425532 25.9819149L33.9425532 25.9819149 33.9425532 25.9819149C33.8333333 25.6393617 33.7787234 25.1950355 33.7787234 24.6489362L33.7787234 24.6489362 33.7787234 24.6489362C33.7787234 24.0680851 33.8457447 23.5964539 33.9797872 23.2340426L33.9797872 23.2340426 33.9797872 23.2340426C34.1336879 22.777305 34.3968085 22.4124113 34.7691489 22.1393617L34.7691489 22.1393617 34.7691489 22.1393617C35.1414894 21.8613475 35.5758865 21.7223404 36.0723404 21.7223404L36.0723404 21.7223404 36.0723404 21.7223404C36.6432624 21.7223404 37.0801418 21.893617 37.3829787 22.2361702L37.3829787 22.2361702 37.3829787 22.2361702C37.3978723 22.2510638 37.412766 22.2560284 37.4276596 22.2510638L37.4276596 22.2510638 37.4276596 22.2510638C37.4425532 22.2460993 37.45 22.2336879 37.45 22.2138298L37.45 22.2138298 37.45 21.9457447zM37.3606383 25.55L37.3606383 25.55C37.4202128 25.3315603 37.45 25.0262411 37.45 24.6340426L37.45 24.6340426 37.45 24.6340426C37.45 24.4056738 37.4425532 24.2294326 37.4276596 24.1053191L37.4276596 24.1053191 37.4276596 24.1053191C37.412766 23.9762411 37.3879433 23.8546099 37.3531915 23.7404255L37.3531915 23.7404255 37.3531915 23.7404255C37.2836879 23.541844 37.1719858 23.3804965 37.0180851 23.256383L37.0180851 23.256383 37.0180851 23.256383C36.8641844 23.137234 36.6705674 23.0776596 36.437234 23.0776596L36.437234 23.0776596 36.437234 23.0776596C36.2138298 23.0776596 36.0251773 23.137234 35.8712766 23.256383L35.8712766 23.256383 35.8712766 23.256383C35.7124113 23.3804965 35.5957447 23.541844 35.5212766 23.7404255L35.5212766 23.7404255 35.5212766 23.7404255C35.4170213 23.9638298 35.3648936 24.2666667 35.3648936 24.6489362L35.3648936 24.6489362 35.3648936 24.6489362C35.3648936 25.0659574 35.4095745 25.3638298 35.4989362 25.5425532L35.4989362 25.5425532 35.4989362 25.5425532C35.5634752 25.7460993 35.6801418 25.9074468 35.8489362 26.0265957L35.8489362 26.0265957 35.8489362 26.0265957C36.0177305 26.1507092 36.2163121 26.212766 36.4446809 26.212766L36.4446809 26.212766 36.4446809 26.212766C36.6829787 26.212766 36.8815603 26.1507092 37.0404255 26.0265957L37.0404255 26.0265957 37.0404255 26.0265957C37.1943262 25.9074468 37.3010638 25.7485816 37.3606383 25.55L37.3606383 25.55zM43.1542553 21.7223404L43.1542553 21.7223404C43.75 21.7223404 44.229078 21.9060284 44.5914894 22.2734043L44.5914894 22.2734043 44.5914894 22.2734043C44.9539007 22.6358156 45.1351064 23.1297872 45.1351064 23.7553191L45.1351064 23.7553191 45.1351064 27.4191489 45.1351064 27.4191489C45.1351064 27.4588652 45.122695 27.4911348 45.0978723 27.5159574L45.0978723 27.5159574 45.0978723 27.5159574C45.0730496 27.5407801 45.0432624 27.5531915 45.0085106 27.5531915L45.0085106 27.5531915 43.6978723 27.5531915 43.6978723 27.5531915C43.6631206 27.5531915 43.6308511 27.5407801 43.6010638 27.5159574L43.6010638 27.5159574 43.6010638 27.5159574C43.5762411 27.4911348 43.5638298 27.4588652 43.5638298 27.4191489L43.5638298 27.4191489 43.5638298 24.0755319 43.5638298 24.0755319C43.5638298 23.7826241 43.4794326 23.541844 43.3106383 23.3531915L43.3106383 23.3531915 43.3106383 23.3531915C43.1468085 23.1695035 42.9258865 23.0776596 42.6478723 23.0776596L42.6478723 23.0776596 42.6478723 23.0776596C42.3748227 23.0776596 42.1539007 23.1695035 41.9851064 23.3531915L41.9851064 23.3531915 41.9851064 23.3531915C41.8163121 23.541844 41.7319149 23.7826241 41.7319149 24.0755319L41.7319149 24.0755319 41.7319149 27.4191489 41.7319149 27.4191489C41.7319149 27.4588652 41.7195035 27.4911348 41.6946809 27.5159574L41.6946809 27.5159574 41.6946809 27.5159574C41.6698582 27.5407801 41.6375887 27.5531915 41.5978723 27.5531915L41.5978723 27.5531915 40.2946809 27.5531915 40.2946809 27.5531915C40.2549645 27.5531915 40.222695 27.5407801 40.1978723 27.5159574L40.1978723 27.5159574 40.1978723 27.5159574C40.1730496 27.4911348 40.1606383 27.4588652 40.1606383 27.4191489L40.1606383 27.4191489 40.1606383 19.8680851 40.1606383 19.8680851C40.1606383 19.8333333 40.1730496 19.8010638 40.1978723 19.7712766L40.1978723 19.7712766 40.1978723 19.7712766C40.222695 19.7464539 40.2549645 19.7340426 40.2946809 19.7340426L40.2946809 19.7340426 41.5978723 19.7340426 41.5978723 19.7340426C41.6375887 19.7340426 41.6698582 19.7464539 41.6946809 19.7712766L41.6946809 19.7712766 41.6946809 19.7712766C41.7195035 19.8010638 41.7319149 19.8333333 41.7319149 19.8680851L41.7319149 19.8680851 41.7319149 22.3404255 41.7319149 22.3404255C41.7319149 22.3602837 41.7393617 22.3751773 41.7542553 22.3851064L41.7542553 22.3851064 41.7542553 22.3851064C41.7691489 22.3900709 41.779078 22.3851064 41.7840426 22.3702128L41.7840426 22.3702128 41.7840426 22.3702128C42.091844 21.9382979 42.5485816 21.7223404 43.1542553 21.7223404L43.1542553 21.7223404z"/>
    <path fill="#FFF" d="M29.8765957,45.6340426 L29.8765957,45.6340426 C29.8765957,45.6588652 29.8666667,45.6787234 29.8468085,45.693617 L29.8468085,45.693617 L29.8468085,45.693617 C29.8319149,45.7134752 29.8120567,45.7234043 29.787234,45.7234043 L29.787234,45.7234043 L27.2553191,45.7234043 L27.2553191,45.7234043 C27.2304965,45.7234043 27.2180851,45.7358156 27.2180851,45.7606383 L27.2180851,45.7606383 L27.2180851,47.1531915 L27.2180851,47.1531915 C27.2180851,47.1780142 27.2304965,47.1904255 27.2553191,47.1904255 L27.2553191,47.1904255 L28.9606383,47.1904255 L28.9606383,47.1904255 C28.985461,47.1904255 29.0078014,47.1978723 29.0276596,47.212766 L29.0276596,47.212766 L29.0276596,47.212766 C29.0425532,47.2326241 29.05,47.2549645 29.05,47.2797872 L29.05,47.2797872 L29.05,47.8457447 L29.05,47.8457447 C29.05,47.8705674 29.0425532,47.8929078 29.0276596,47.912766 L29.0276596,47.912766 L29.0276596,47.912766 C29.0078014,47.9276596 28.985461,47.9351064 28.9606383,47.9351064 L28.9606383,47.9351064 L27.2553191,47.9351064 L27.2553191,47.9351064 C27.2304965,47.9351064 27.2180851,47.9475177 27.2180851,47.9723404 L27.2180851,47.9723404 L27.2180851,50.1021277 L27.2180851,50.1021277 C27.2180851,50.1269504 27.208156,50.1468085 27.1882979,50.1617021 L27.1882979,50.1617021 L27.1882979,50.1617021 C27.1734043,50.1815603 27.1535461,50.1914894 27.1287234,50.1914894 L27.1287234,50.1914894 L26.443617,50.1914894 L26.443617,50.1914894 C26.4187943,50.1914894 26.3989362,50.1815603 26.3840426,50.1617021 L26.3840426,50.1617021 L26.3840426,50.1617021 C26.3641844,50.1468085 26.3542553,50.1269504 26.3542553,50.1021277 L26.3542553,50.1021277 L26.3542553,45.0680851 L26.3542553,45.0680851 C26.3542553,45.0432624 26.3641844,45.0234043 26.3840426,45.0085106 L26.3840426,45.0085106 L26.3840426,45.0085106 C26.3989362,44.9886525 26.4187943,44.9787234 26.443617,44.9787234 L26.443617,44.9787234 L29.787234,44.9787234 L29.787234,44.9787234 C29.8120567,44.9787234 29.8319149,44.9886525 29.8468085,45.0085106 L29.8468085,45.0085106 L29.8468085,45.0085106 C29.8666667,45.0234043 29.8765957,45.0432624 29.8765957,45.0680851 L29.8765957,45.0680851 L29.8765957,45.6340426 Z M33.7787234,50.1914894 L33.7787234,50.1914894 C33.729078,50.1914894 33.6968085,50.1666667 33.6819149,50.1170213 L33.6819149,50.1170213 L33.4361702,49.3202128 L33.4361702,49.3202128 C33.4262411,49.3003546 33.4138298,49.2904255 33.3989362,49.2904255 L33.3989362,49.2904255 L31.4329787,49.2904255 L31.4329787,49.2904255 C31.4180851,49.2904255 31.4056738,49.3003546 31.3957447,49.3202128 L31.3957447,49.3202128 L31.15,50.1170213 L31.15,50.1170213 C31.1351064,50.1666667 31.1028369,50.1914894 31.0531915,50.1914894 L31.0531915,50.1914894 L30.3085106,50.1914894 L30.3085106,50.1914894 C30.2787234,50.1914894 30.256383,50.1815603 30.2414894,50.1617021 L30.2414894,50.1617021 L30.2414894,50.1617021 C30.2265957,50.1468085 30.2241135,50.1219858 30.2340426,50.087234 L30.2340426,50.087234 L31.85,45.0531915 L31.85,45.0531915 C31.8648936,45.0035461 31.8971631,44.9787234 31.9468085,44.9787234 L31.9468085,44.9787234 L32.8776596,44.9787234 L32.8776596,44.9787234 C32.927305,44.9787234 32.9595745,45.0035461 32.9744681,45.0531915 L32.9744681,45.0531915 L34.5978723,50.087234 L34.5978723,50.087234 C34.6028369,50.0971631 34.6053191,50.1095745 34.6053191,50.1244681 L34.6053191,50.1244681 L34.6053191,50.1244681 C34.6053191,50.1691489 34.5780142,50.1914894 34.5234043,50.1914894 L34.5234043,50.1914894 L33.7787234,50.1914894 Z M31.6265957,48.5680851 L31.6265957,48.5680851 C31.6216312,48.5978723 31.6315603,48.612766 31.656383,48.612766 L31.656383,48.612766 L33.1680851,48.612766 L33.1680851,48.612766 C33.1978723,48.612766 33.2078014,48.5978723 33.1978723,48.5680851 L33.1978723,48.5680851 L32.4308511,46.0734043 L32.4308511,46.0734043 C32.4258865,46.0535461 32.4184397,46.043617 32.4085106,46.043617 L32.4085106,46.043617 L32.4085106,46.043617 C32.3985816,46.043617 32.3911348,46.0535461 32.3861702,46.0734043 L32.3861702,46.0734043 L31.6265957,48.5680851 Z M35.4617021,50.1914894 L35.4617021,50.1914894 C35.4368794,50.1914894 35.4170213,50.1815603 35.4021277,50.1617021 L35.4021277,50.1617021 L35.4021277,50.1617021 C35.3822695,50.1468085 35.3723404,50.1269504 35.3723404,50.1021277 L35.3723404,50.1021277 L35.3723404,45.0680851 L35.3723404,45.0680851 C35.3723404,45.0432624 35.3822695,45.0234043 35.4021277,45.0085106 L35.4021277,45.0085106 L35.4021277,45.0085106 C35.4170213,44.9886525 35.4368794,44.9787234 35.4617021,44.9787234 L35.4617021,44.9787234 L36.1468085,44.9787234 L36.1468085,44.9787234 C36.1716312,44.9787234 36.1914894,44.9886525 36.206383,45.0085106 L36.206383,45.0085106 L36.206383,45.0085106 C36.2262411,45.0234043 36.2361702,45.0432624 36.2361702,45.0680851 L36.2361702,45.0680851 L36.2361702,49.4095745 L36.2361702,49.4095745 C36.2361702,49.4343972 36.2485816,49.4468085 36.2734043,49.4468085 L36.2734043,49.4468085 L38.7680851,49.4468085 L38.7680851,49.4468085 C38.7929078,49.4468085 38.812766,49.4567376 38.8276596,49.4765957 L38.8276596,49.4765957 L38.8276596,49.4765957 C38.8475177,49.4914894 38.8574468,49.5113475 38.8574468,49.5361702 L38.8574468,49.5361702 L38.8574468,50.1021277 L38.8574468,50.1021277 C38.8574468,50.1269504 38.8475177,50.1468085 38.8276596,50.1617021 L38.8276596,50.1617021 L38.8276596,50.1617021 C38.812766,50.1815603 38.7929078,50.1914894 38.7680851,50.1914894 L38.7680851,50.1914894 L35.4617021,50.1914894 Z M39.7138298,50.1914894 L39.7138298,50.1914894 C39.6890071,50.1914894 39.6691489,50.1815603 39.6542553,50.1617021 L39.6542553,50.1617021 L39.6542553,50.1617021 C39.6343972,50.1468085 39.6244681,50.1269504 39.6244681,50.1021277 L39.6244681,50.1021277 L39.6244681,45.0680851 L39.6244681,45.0680851 C39.6244681,45.0432624 39.6343972,45.0234043 39.6542553,45.0085106 L39.6542553,45.0085106 L39.6542553,45.0085106 C39.6691489,44.9886525 39.6890071,44.9787234 39.7138298,44.9787234 L39.7138298,44.9787234 L40.3989362,44.9787234 L40.3989362,44.9787234 C40.4237589,44.9787234 40.4460993,44.9886525 40.4659574,45.0085106 L40.4659574,45.0085106 L40.4659574,45.0085106 C40.4808511,45.0234043 40.4882979,45.0432624 40.4882979,45.0680851 L40.4882979,45.0680851 L40.4882979,49.4095745 L40.4882979,49.4095745 C40.4882979,49.4343972 40.5007092,49.4468085 40.5255319,49.4468085 L40.5255319,49.4468085 L43.0202128,49.4468085 L43.0202128,49.4468085 C43.0450355,49.4468085 43.0673759,49.4567376 43.087234,49.4765957 L43.087234,49.4765957 L43.087234,49.4765957 C43.1021277,49.4914894 43.1095745,49.5113475 43.1095745,49.5361702 L43.1095745,49.5361702 L43.1095745,50.1021277 L43.1095745,50.1021277 C43.1095745,50.1269504 43.1021277,50.1468085 43.087234,50.1617021 L43.087234,50.1617021 L43.087234,50.1617021 C43.0673759,50.1815603 43.0450355,50.1914894 43.0202128,50.1914894 L43.0202128,50.1914894 L39.7138298,50.1914894 Z"/>
    <path fill="#252530" d="M25.1255319,63.6404255 L25.1255319,63.6404255 C25.1106383,63.6553191 25.1056738,63.6702128 25.1106383,63.6851064 L25.1106383,63.6851064 L25.1106383,63.6851064 C25.1205674,63.7 25.135461,63.7074468 25.1553191,63.7074468 L25.1553191,63.7074468 L28.0819149,63.7074468 L28.0819149,63.7074468 C28.1166667,63.7074468 28.1464539,63.7198582 28.1712766,63.7446809 L28.1712766,63.7446809 L28.1712766,63.7446809 C28.2010638,63.7695035 28.2159574,63.7992908 28.2159574,63.8340426 L28.2159574,63.8340426 L28.2159574,64.8840426 L28.2159574,64.8840426 C28.2159574,64.9187943 28.2010638,64.9485816 28.1712766,64.9734043 L28.1712766,64.9734043 L28.1712766,64.9734043 C28.1464539,64.998227 28.1166667,65.0106383 28.0819149,65.0106383 L28.0819149,65.0106383 L23.2265957,65.0106383 L23.2265957,65.0106383 C23.1868794,65.0106383 23.1546099,64.998227 23.1297872,64.9734043 L23.1297872,64.9734043 L23.1297872,64.9734043 C23.1049645,64.9485816 23.0925532,64.9187943 23.0925532,64.8840426 L23.0925532,64.8840426 L23.0925532,63.8861702 L23.0925532,63.8861702 C23.0925532,63.8216312 23.1148936,63.7670213 23.1595745,63.7223404 L23.1595745,63.7223404 L23.1595745,63.7223404 C23.5120567,63.3797872 23.8719858,63.0049645 24.2393617,62.5978723 L24.2393617,62.5978723 L24.2393617,62.5978723 C24.6067376,62.1907801 24.8375887,61.9375887 24.9319149,61.8382979 L24.9319149,61.8382979 L24.9319149,61.8382979 C25.1304965,61.6 25.3340426,61.3716312 25.5425532,61.1531915 L25.5425532,61.1531915 L25.5425532,61.1531915 C26.1978723,60.4283688 26.5255319,59.8897163 26.5255319,59.537234 L26.5255319,59.537234 L26.5255319,59.537234 C26.5255319,59.2840426 26.4361702,59.0755319 26.2574468,58.9117021 L26.2574468,58.9117021 L26.2574468,58.9117021 C26.0787234,58.7528369 25.8453901,58.6734043 25.5574468,58.6734043 L25.5574468,58.6734043 L25.5574468,58.6734043 C25.2695035,58.6734043 25.0361702,58.7528369 24.8574468,58.9117021 L24.8574468,58.9117021 L24.8574468,58.9117021 C24.6737589,59.0755319 24.5819149,59.2914894 24.5819149,59.5595745 L24.5819149,59.5595745 L24.5819149,59.8276596 L24.5819149,59.8276596 C24.5819149,59.8624113 24.5695035,59.8921986 24.5446809,59.9170213 L24.5446809,59.9170213 L24.5446809,59.9170213 C24.5198582,59.941844 24.4900709,59.9542553 24.4553191,59.9542553 L24.4553191,59.9542553 L23.1819149,59.9542553 L23.1819149,59.9542553 C23.1471631,59.9542553 23.1173759,59.941844 23.0925532,59.9170213 L23.0925532,59.9170213 L23.0925532,59.9170213 C23.062766,59.8921986 23.0478723,59.8624113 23.0478723,59.8276596 L23.0478723,59.8276596 L23.0478723,59.3212766 L23.0478723,59.3212766 C23.072695,58.9340426 23.1968085,58.5890071 23.4202128,58.2861702 L23.4202128,58.2861702 L23.4202128,58.2861702 C23.643617,57.9882979 23.9390071,57.7599291 24.306383,57.6010638 L24.306383,57.6010638 L24.306383,57.6010638 C24.6787234,57.4421986 25.0957447,57.362766 25.5574468,57.362766 L25.5574468,57.362766 L25.5574468,57.362766 C26.0687943,57.362766 26.5131206,57.4595745 26.8904255,57.6531915 L26.8904255,57.6531915 L26.8904255,57.6531915 C27.2677305,57.841844 27.558156,58.0975177 27.7617021,58.4202128 L27.7617021,58.4202128 L27.7617021,58.4202128 C27.9702128,58.7478723 28.0744681,59.1078014 28.0744681,59.5 L28.0744681,59.5 L28.0744681,59.5 C28.0744681,59.8028369 27.9975177,60.1131206 27.843617,60.4308511 L27.843617,60.4308511 L27.843617,60.4308511 C27.6946809,60.7485816 27.4687943,61.0911348 27.1659574,61.4585106 L27.1659574,61.4585106 L27.1659574,61.4585106 C26.9425532,61.7365248 26.701773,62.014539 26.443617,62.2925532 L26.443617,62.2925532 L26.443617,62.2925532 C26.185461,62.5656028 25.8007092,62.9602837 25.2893617,63.4765957 L25.2893617,63.4765957 L25.1255319,63.6404255 Z M31.7234043,65.1297872 L31.7234043,65.1297872 C30.929078,65.1297872 30.3035461,64.9088652 29.8468085,64.4670213 L29.8468085,64.4670213 L29.8468085,64.4670213 C29.3851064,64.0251773 29.1542553,63.4219858 29.1542553,62.6574468 L29.1542553,62.6574468 L29.1542553,59.8053191 L29.1542553,59.8053191 C29.1542553,59.0556738 29.3851064,58.4624113 29.8468085,58.0255319 L29.8468085,58.0255319 L29.8468085,58.0255319 C30.3035461,57.5836879 30.929078,57.362766 31.7234043,57.362766 L31.7234043,57.362766 L31.7234043,57.362766 C32.512766,57.362766 33.1407801,57.5836879 33.6074468,58.0255319 L33.6074468,58.0255319 L33.6074468,58.0255319 C34.0691489,58.4624113 34.3,59.0556738 34.3,59.8053191 L34.3,59.8053191 L34.3,62.6574468 L34.3,62.6574468 C34.3,63.4219858 34.0691489,64.0251773 33.6074468,64.4670213 L33.6074468,64.4670213 L33.6074468,64.4670213 C33.1407801,64.9088652 32.512766,65.1297872 31.7234043,65.1297872 L31.7234043,65.1297872 Z M31.7234043,63.8265957 L31.7234043,63.8265957 C32.0460993,63.8265957 32.301773,63.727305 32.4904255,63.5287234 L32.4904255,63.5287234 L32.4904255,63.5287234 C32.6840426,63.3301418 32.7808511,63.064539 32.7808511,62.7319149 L32.7808511,62.7319149 L32.7808511,59.7606383 L32.7808511,59.7606383 C32.7808511,59.4329787 32.6840426,59.1698582 32.4904255,58.9712766 L32.4904255,58.9712766 L32.4904255,58.9712766 C32.301773,58.772695 32.0460993,58.6734043 31.7234043,58.6734043 L31.7234043,58.6734043 L31.7234043,58.6734043 C31.4056738,58.6734043 31.1524823,58.772695 30.9638298,58.9712766 L30.9638298,58.9712766 L30.9638298,58.9712766 C30.7702128,59.1698582 30.6734043,59.4329787 30.6734043,59.7606383 L30.6734043,59.7606383 L30.6734043,62.7319149 L30.6734043,62.7319149 C30.6734043,63.064539 30.7702128,63.3301418 30.9638298,63.5287234 L30.9638298,63.5287234 L30.9638298,63.5287234 C31.1524823,63.727305 31.4056738,63.8265957 31.7234043,63.8265957 L31.7234043,63.8265957 Z M37.3234043,63.6404255 L37.3234043,63.6404255 C37.3085106,63.6553191 37.3060284,63.6702128 37.3159574,63.6851064 L37.3159574,63.6851064 L37.3159574,63.6851064 C37.320922,63.7 37.3358156,63.7074468 37.3606383,63.7074468 L37.3606383,63.7074468 L40.287234,63.7074468 L40.287234,63.7074468 C40.3219858,63.7074468 40.351773,63.7198582 40.3765957,63.7446809 L40.3765957,63.7446809 L40.3765957,63.7446809 C40.4014184,63.7695035 40.4138298,63.7992908 40.4138298,63.8340426 L40.4138298,63.8340426 L40.4138298,64.8840426 L40.4138298,64.8840426 C40.4138298,64.9187943 40.4014184,64.9485816 40.3765957,64.9734043 L40.3765957,64.9734043 L40.3765957,64.9734043 C40.351773,64.998227 40.3219858,65.0106383 40.287234,65.0106383 L40.287234,65.0106383 L35.4244681,65.0106383 L35.4244681,65.0106383 C35.3897163,65.0106383 35.3599291,64.998227 35.3351064,64.9734043 L35.3351064,64.9734043 L35.3351064,64.9734043 C35.3102837,64.9485816 35.2978723,64.9187943 35.2978723,64.8840426 L35.2978723,64.8840426 L35.2978723,63.8861702 L35.2978723,63.8861702 C35.2978723,63.8216312 35.3177305,63.7670213 35.3574468,63.7223404 L35.3574468,63.7223404 L35.3574468,63.7223404 C35.7148936,63.3797872 36.0748227,63.0049645 36.437234,62.5978723 L36.437234,62.5978723 L36.437234,62.5978723 C36.8046099,62.1907801 37.035461,61.9375887 37.1297872,61.8382979 L37.1297872,61.8382979 L37.1297872,61.8382979 C37.3333333,61.6 37.5393617,61.3716312 37.7478723,61.1531915 L37.7478723,61.1531915 L37.7478723,61.1531915 C38.4031915,60.4283688 38.7308511,59.8897163 38.7308511,59.537234 L38.7308511,59.537234 L38.7308511,59.537234 C38.7308511,59.2840426 38.6414894,59.0755319 38.462766,58.9117021 L38.462766,58.9117021 L38.462766,58.9117021 C38.279078,58.7528369 38.0432624,58.6734043 37.7553191,58.6734043 L37.7553191,58.6734043 L37.7553191,58.6734043 C37.4673759,58.6734043 37.2340426,58.7528369 37.0553191,58.9117021 L37.0553191,58.9117021 L37.0553191,58.9117021 C36.8765957,59.0755319 36.787234,59.2914894 36.787234,59.5595745 L36.787234,59.5595745 L36.787234,59.8276596 L36.787234,59.8276596 C36.787234,59.8624113 36.7748227,59.8921986 36.75,59.9170213 L36.75,59.9170213 L36.75,59.9170213 C36.7251773,59.941844 36.6929078,59.9542553 36.6531915,59.9542553 L36.6531915,59.9542553 L35.3797872,59.9542553 L35.3797872,59.9542553 C35.3450355,59.9542553 35.3152482,59.941844 35.2904255,59.9170213 L35.2904255,59.9170213 L35.2904255,59.9170213 C35.2656028,59.8921986 35.2531915,59.8624113 35.2531915,59.8276596 L35.2531915,59.8276596 L35.2531915,59.3212766 L35.2531915,59.3212766 C35.2730496,58.9340426 35.3946809,58.5890071 35.6180851,58.2861702 L35.6180851,58.2861702 L35.6180851,58.2861702 C35.8414894,57.9882979 36.1393617,57.7599291 36.5117021,57.6010638 L36.5117021,57.6010638 L36.5117021,57.6010638 C36.8840426,57.4421986 37.2985816,57.362766 37.7553191,57.362766 L37.7553191,57.362766 L37.7553191,57.362766 C38.2666667,57.362766 38.7109929,57.4595745 39.0882979,57.6531915 L39.0882979,57.6531915 L39.0882979,57.6531915 C39.4705674,57.841844 39.7634752,58.0975177 39.9670213,58.4202128 L39.9670213,58.4202128 L39.9670213,58.4202128 C40.1705674,58.7478723 40.2723404,59.1078014 40.2723404,59.5 L40.2723404,59.5 L40.2723404,59.5 C40.2723404,59.8028369 40.1978723,60.1131206 40.0489362,60.4308511 L40.0489362,60.4308511 L40.0489362,60.4308511 C39.8950355,60.7485816 39.6666667,61.0911348 39.3638298,61.4585106 L39.3638298,61.4585106 L39.3638298,61.4585106 C39.1404255,61.7365248 38.8996454,62.014539 38.6414894,62.2925532 L38.6414894,62.2925532 L38.6414894,62.2925532 C38.3833333,62.5656028 37.9985816,62.9602837 37.487234,63.4765957 L37.487234,63.4765957 L37.3234043,63.6404255 Z M43.9212766,65.1297872 L43.9212766,65.1297872 C43.1319149,65.1297872 42.506383,64.9088652 42.0446809,64.4670213 L42.0446809,64.4670213 L42.0446809,64.4670213 C41.5829787,64.0251773 41.3521277,63.4219858 41.3521277,62.6574468 L41.3521277,62.6574468 L41.3521277,59.8053191 L41.3521277,59.8053191 C41.3521277,59.0556738 41.5829787,58.4624113 42.0446809,58.0255319 L42.0446809,58.0255319 L42.0446809,58.0255319 C42.506383,57.5836879 43.1319149,57.362766 43.9212766,57.362766 L43.9212766,57.362766 L43.9212766,57.362766 C44.7156028,57.362766 45.343617,57.5836879 45.8053191,58.0255319 L45.8053191,58.0255319 L45.8053191,58.0255319 C46.2719858,58.4624113 46.5053191,59.0556738 46.5053191,59.8053191 L46.5053191,59.8053191 L46.5053191,62.6574468 L46.5053191,62.6574468 C46.5053191,63.4219858 46.2719858,64.0251773 45.8053191,64.4670213 L45.8053191,64.4670213 L45.8053191,64.4670213 C45.343617,64.9088652 44.7156028,65.1297872 43.9212766,65.1297872 L43.9212766,65.1297872 Z M43.9212766,63.8265957 L43.9212766,63.8265957 C44.2489362,63.8265957 44.5070922,63.727305 44.6957447,63.5287234 L44.6957447,63.5287234 L44.6957447,63.5287234 C44.8843972,63.3301418 44.9787234,63.064539 44.9787234,62.7319149 L44.9787234,62.7319149 L44.9787234,59.7606383 L44.9787234,59.7606383 C44.9787234,59.4329787 44.8843972,59.1698582 44.6957447,58.9712766 L44.6957447,58.9712766 L44.6957447,58.9712766 C44.5070922,58.772695 44.2489362,58.6734043 43.9212766,58.6734043 L43.9212766,58.6734043 L43.9212766,58.6734043 C43.6085106,58.6734043 43.3553191,58.772695 43.1617021,58.9712766 L43.1617021,58.9712766 L43.1617021,58.9712766 C42.9730496,59.1698582 42.8787234,59.4329787 42.8787234,59.7606383 L42.8787234,59.7606383 L42.8787234,62.7319149 L42.8787234,62.7319149 C42.8787234,63.064539 42.9730496,63.3301418 43.1617021,63.5287234 L43.1617021,63.5287234 L43.1617021,63.5287234 C43.3553191,63.727305 43.6085106,63.8265957 43.9212766,63.8265957 L43.9212766,63.8265957 Z"/>
  </g>
</svg>
