<svg xmlns="http://www.w3.org/2000/svg" xmlns:xlink="http://www.w3.org/1999/xlink" width="154" height="76" viewBox="0 0 154 76"><defs><path id="a" d="M0 0h47.335v34.971H0z"/></defs><g fill="none" fill-rule="evenodd" transform="translate(4 19)"><mask id="b" fill="#fff"><use xlink:href="#a"/></mask><path fill="#FFF" mask="url(#b)" d="M27.801 0l3.224 4.496L47.335 0H27.801M10.854 35l8.824-8.577-5.311-5.666L10.854 35M26.465 0L21.75 4.228l7.931.294L26.465 0M8.132 0l1.694 3.451 9.335.578L8.132 0m4.997 17.896l6.896-12.79L0 4.029l13.129 13.867"/><path fill="#FFF" d="M13.932 18.707l6.515 6.957 7.185-7.002 2.23-13.044-8.757-.445-7.173 13.534m27.652-2.303h-1.786l-1.564 9.816a.572.572 0 0 1-.544.468h-3.573a.39.39 0 0 1-.395-.468l2.193-13.765c.554-3.483 2.322-4.254 4.744-4.254.752 0 1.54.07 2.156.187.274.047.46.21.419.467l-.354 2.221c-.041.257-.283.444-.564.444h-.987c-.588 0-.79.233-.902.935l-.1.63h1.786a.39.39 0 0 1 .396.468l-.38 2.384a.573.573 0 0 1-.545.467m8.917.164h-.329c-1.01 0-1.996.14-2.788.537l-1.445 9.069c-.04.256-.27.514-.552.514h-3.525a.443.443 0 0 1-.435-.514l2.01-12.62c.041-.258.215-.468.545-.468h3.384c.329 0 .451.117.395.467l-.089.561c1.233-1.098 2.097-1.216 3.343-1.216.4 0 .455.094.396.468l-.454 2.851c-.045.28-.15.35-.456.35m8.384 2.034c.223-1.402-.207-2.244-1.382-2.244-1.128 0-1.873.842-2.096 2.244l-.012.07h3.479l.01-.07zm3.425 2.548H55l-.007.046c-.197 1.239.197 2.01 1.913 2.01 1.246 0 3.568-.117 4.495-.187.38-.023.51.047.454.397l-.335 2.104c-.06.374-.18.537-.574.655-1.583.49-3.241.724-5.216.724-3.173 0-5.847-1.66-5.135-6.124l.246-1.542c.655-4.113 3.41-6.357 7.264-6.357 4.113 0 5.604 2.594 5.004 6.357l-.223 1.402a.591.591 0 0 1-.576.515zm9.584-2.548c.224-1.402-.207-2.244-1.381-2.244-1.128 0-1.874.842-2.097 2.244l-.011.07h3.478l.011-.07zm3.426 2.548h-7.31l-.007.046c-.198 1.239.197 2.01 1.913 2.01 1.245 0 3.567-.117 4.495-.187.38-.023.51.047.453.397l-.334 2.104c-.06.374-.18.537-.575.655-1.582.49-3.241.724-5.216.724-3.172 0-5.846-1.66-5.135-6.124l.246-1.542c.655-4.113 3.41-6.357 7.264-6.357 4.113 0 5.604 2.594 5.005 6.357l-.224 1.402a.59.59 0 0 1-.575.515zm4.77 5.538h-3.549a.457.457 0 0 1-.435-.513l2.722-17.085c.04-.257.332-.467.591-.467h3.549a.39.39 0 0 1 .396.467l-2.722 17.085c-.041.256-.293.514-.552.514m9.487-5.633h-1.151c-1.176 0-1.705.374-1.862 1.355l-.037.235c-.127.794.377 1.028 1.035 1.028a4.57 4.57 0 0 0 1.654-.35l.361-2.268zm3.005 5.633h-3.267a.39.39 0 0 1-.396-.468l.078-.49c-.997.653-2.254 1.168-3.547 1.168-1.856 0-3.855-1.029-3.352-4.183l.044-.281c.447-2.805 2.746-3.81 6.67-3.81h1.012l.108-.677c.182-1.146-.161-1.356-1.336-1.356-1.316 0-3.45.117-4.116.164-.403.023-.487-.187-.442-.468l.36-2.267c.057-.35.264-.467.56-.56.813-.234 2.887-.562 4.391-.562 3.408 0 5.706 1.216 5.095 5.049l-1.317 8.273a.573.573 0 0 1-.545.468zm13.573 0h-3.525a.444.444 0 0 1-.435-.514l1.262-7.923c.197-1.24-.14-1.636-1.197-1.636-.54 0-1.256.21-1.84.49l-1.446 9.069c-.04.256-.27.514-.551.514h-3.526a.444.444 0 0 1-.435-.514l2.01-12.62a.573.573 0 0 1 .545-.468h3.267a.39.39 0 0 1 .395.467l-.085.537c1.394-.934 2.752-1.192 4.068-1.192 3.69 0 3.75 2.571 3.307 5.353l-1.262 7.923c-.04.256-.27.514-.552.514m10.427-.164c-.829.186-1.893.373-3.28.373-3.596 0-5.252-2.29-4.642-6.123l.28-1.752c.607-3.81 3-6.147 6.597-6.147 1.386 0 2.527.21 3.16.374.294.07.44.187.391.49l-.42 2.642c-.045.28-.22.49-.565.444-.788-.07-1.525-.164-2.676-.164-1.01 0-1.699.631-1.975 2.361l-.279 1.752c-.275 1.73.215 2.338 1.226 2.338 1.152 0 1.91-.047 2.725-.14.36-.047.472.14.423.443l-.417 2.618c-.048.304-.231.42-.548.49m10.37-7.922c.223-1.402-.207-2.244-1.382-2.244-1.128 0-1.873.842-2.097 2.244l-.011.07h3.478l.011-.07zm3.425 2.548h-7.31l-.007.046c-.198 1.239.197 2.01 1.913 2.01 1.245 0 3.567-.117 4.495-.187.38-.023.51.047.454.397l-.335 2.104c-.06.374-.18.537-.575.655-1.582.49-3.24.724-5.216.724-3.172 0-5.846-1.66-5.135-6.124l.246-1.542c.655-4.113 3.41-6.357 7.264-6.357 4.114 0 5.605 2.594 5.005 6.357l-.224 1.402a.59.59 0 0 1-.575.515zm7.392-8.063l-2.093 13.088c-.041.256-.27.514-.552.514h-3.526a.444.444 0 0 1-.435-.514l1.389-8.66 5.217-4.428m1.201 0l-.722 4.49 7.752-4.49h-7.03"/></g></svg>