<svg xmlns="http://www.w3.org/2000/svg" width="122" height="76" viewBox="0 0 122 76"><path fill="#FFF" d="M91.886 32.12c0 1.6.831 2.16 2.217 2.16 2.574 0 2.891-2.92 1.822-3.76-1.07-.76-3.05-.6-3.802.68-.079.16-.237.56-.237.92zM60.92 39.84c0 4 .752 14.08 7.523 11.4 2.06-.84 3.128-3.24 3.643-5.32.396-1.68.475-4.48.475-6.32.99 0 3.208-.92 4.198-1.4 3.96-2.4 5.029-7.76 1.465-11-.753-.68-1.742-1.24-2.732-1.6-2.812-.92-6.02-.6-8.435.84-4.316 2.68-6.137 8.48-6.137 13.4zm8.276-3.08c-.436-.16-1.149-.4-1.663-.76-.911-.6-.99-.08-.99.92 0 1.6 1.386 2.24 2.732 2.6 0 1.92.317 9-2.732 9-.99 0-1.663-1.6-1.822-2.32-.752-2.76-.475-7.32 0-10.08.396-2 .91-3.76 2.06-5.4.91-1.08 1.306-1.76 2.652-2.32 2.138-1 5.86-.32 7.247 1.76 1.069 1.68.475 4.16-.911 5.32-1.742 1.32-2.89 1.16-3.208 1.32 0-1 .436-2.24.674-3.24.079-.6.396-1.76-.159-2.08-1.386-.84-2.811.48-3.286 1.76-.436.76-.594 2.12-.594 3.52zm-66.84-6.32c0 .08.079.32.158.4.396.6 1.663-.32 1.9-.6C5.564 29.4 7.623 28 9.128 28c1.069 0 1.742.84 1.742 1.84 0 1.84-.317 2.4-.832 4.08L8.89 37.16c-1.07 0-5.623-.08-5.623 1.08 0 .32.159.6.436.84.316.48.673 1 1.227 1.16.99.32 1.822 0 2.89 0l-1.385 3.84c-.515 1.32-1.98 4.52-.752 5.76.396.4 1.069.24 1.465 0 .594-.32 1.069-.92 1.386-1.48.673-1.08 1.742-4.32 2.138-5.68l.99-2.92c1.98-.16 4.474-.68 6.335-.68-.237.6-1.148 4.52-1.148 5.4 0 1.32.08 2.68.91 3.6.674.84 1.307 1.32 2.654 1.32 2.455 0 4.355-1.48 6.098-2.92.158-.08.158-.16.317-.32-.317-.6-.674-1.32-.753-2.08-.079.08-.91.92-1.663 1.32-.99.68-1.386.92-2.574.92-2.653 0-.91-6.84-.317-7.6a.63.63 0 0 1 .436-.16l2.217-.24c.753-.08 1.901-.16 1.901-1 0-.24-.079-.6-.237-.76-.238-.32-.674-.32-.99-.32-.911 0-1.743.08-2.653.08l.91-2.84c.396-1.32.911-2.84 1.465-4.08.317-.84.753-2.16.08-2.92-.436-.48-1.505-.68-2.297.16l-.238.24c-.673.76-1.385 2.92-1.742 3.92-.158.68-1.821 5.32-1.821 5.68l-6.178.24c.08-.32.159-.6.238-.84.673-2.4 1.307-4.52 1.307-7.08 0-1.68-1.07-3.08-2.653-3.68-2.732-1-6.257.68-7.999 2.92-.158.64-.91 1.72-.91 2.4zm106.516 4c-.673 0-1.386-.08-1.98.08-.475.08-.752.32-.752.6-.158 1.24 2.732 1.4 3.485 1.4-.317 1.4-.317 5.16 0 6.68-1.149.6-4.356 4.08-4.356.76 0-2.24.831-5 .831-6.32 0-1.52-.99-2.32-2.455-1.6-.831.4-1.306 1.32-1.742 2.16-.475 1-.99 2-1.386 3.08-.08.16-.08.32-.317.32 0-1.6 1.505-5.76-.752-5.76-1.228 0-1.663 1.08-1.821 2.16-.238 1.32-.396 3-.594 4.4 0 .32 0 .6-.08.92-.079.48 0 .4-.316.76-.753.68-3.802 3.32-3.802 1.08 0-2.24 1.07-5.16 1.663-7.4.159-.68.475-1.84-.594-1.84-1.148 0-2.059.24-2.455 1.32-.514 1.16-.752 2.68-1.069 3.84-.079.32-.831.6-1.227.76-1.149.4-1.98.16-1.98-1.24 0-1.48 1.386-4.68-.673-4.68-.99 0-1.505.32-2.06 1-.395.48-.752 1.08-1.069 1.76-.079.24-.395 1.16-.673 1.24 0-1.08.08-2.16.08-3.32 0-.6-.238-.76-.832-.76-.752 0-1.148.24-1.307.76-.475 1.16-.99 4-1.227 5.32-.08.6-.238 2.4-.238 3.92 0 1.48.159 2.68 1.386 2.68.752 0 1.148-.92 1.386-1.52.594-1.4 1.07-2.92 1.584-4.4l.831-2.24h.159c0 .48.237 1.68.435 2.16.159.68.396 1.16.911 1.6.515.44 1.07.68 1.742.76.476.08 1.149-.08 1.584-.24.159-.08.317-.16.475-.16-.079.92-.237 2.08.159 3 .831 1.92 3.722.92 5.187.24.594-.32 1.228-.76 1.822-1.08 0 1.84 1.465 2.6 2.573 1.6.317-.32.911-1.4 1.149-2 .237-.48 2.455-5.24 2.732-5.24 0 .4-.158 1.24-.238 1.76-.079 1.52-.316 3.6.396 4.92.159.32.515.76.911.92 1.742.68 5.267-2.24 6.177-2.32 0 .4.753 1.32.99 1.6 1.584 1.4 3.366.68 4.95-.32.99-.6 2.574-1.32 1.98-2.76-.317-.92-2.574.48-3.366.84-2.376.92-2.455-.84-2.732-2.48-.08-.48 0-3.76.316-4.08.436-.48.911-1.16 1.307-1.76 1.307 0 2.732.08 4.118.08.673 0 1.228-.08 1.505-.48.158-.4.158-1.4-.238-1.6-.594-.24-3.049 0-3.88-.16l.752-1.24c.832-1.4 1.386-2.84 1.386-4.68 0-.92-.237-1.76-.594-2.24-.396-.6-.99-1.08-1.821-1.08-2.495 0-4.04 4.68-4.633 6.76-.159.48-.238 1-.396 1.48-.08.32 0 .68-.238.68-.237-.4-.91-.4-1.069-.4zm4.197.16c-.316-.08-.396 0-.831 0 0-1 1.386-5.16 1.98-5.84.317-.4 1.504-.48.99 1.32-.396 1.44-1.386 3.12-2.139 4.52zm-73.413 3.6c0-.92.238-2.32.475-3.24.238-1.08.396-2.08.753-3.08.237-1 1.465-4.68 2.732-4.68.079.08.079.4.079.48 0 1.76-1.584 5.92-2.376 7.6-.435.56-1.346 2.64-1.663 2.92zm6.85-.08c0-1.92 1.307-7.68 2.376-9.4.238-.4.753-1.48 1.307-1.48.475 0 0 2.08 0 2.16-.08.48-.238.92-.436 1.4-.673 2.24-1.584 4.16-2.653 6.24-.118.24-.435 1-.594 1.08zm-.079-11.2c0-.76-.079-1.4-.435-1.92-.911-1.52-2.733-.84-3.802 0-.594.4-.752.68-1.148 1.16-3.049 3.76-5.266 11.56-4.633 16.48 0 .24.08.44.08.68l-.99.68c-.436.24-.674.4-1.07.6-.91.48-2.574 1.16-3.643.48-.237-.16-.475-.48-.594-.84.317-.08.673-.24.99-.4 1.9-.84 3.287-2 4.118-4 1.307-3.4-3.563-6.44-6.692-2.24-.831 1.08-1.386 2.68-1.663 4-.396 2.4.159 4.68 2.139 6 2.059 1.32 5.028.24 6.93-.92l1.227-.84c.158.68 1.069 2.16 1.9 2.24 1.149.24 3.208-.68 4.277-1.16.158-.08.752-.44.91-.48.08.32.594.92.832 1.16 1.07 1 2.376.44 3.564 0l1.98-.92c2.653 3.76 9.899.08 7.682-7.68-.08-.24-.238-.48-.238-.76.238.08 1.148.76 1.386.92.158.16.237.24.475.32 0-.84-.08-1.48.08-2.24-1.585-1.08-2.733-1.6-4.792-1.6-1.386 0-2.811.6-3.801 1.48-1.149 1.16-2.06 3.16-2.06 4.92 0 .76.159 1.4.159 2.08-.475.32-1.228.76-1.822 1-.475.16-.752.16-.91-.24-.317-.6-.317-.92-.317-1.6 0-1.08 1.584-3.92 2.217-4.92l1.07-1.84c.396-.76 1.069-2.08 1.385-2.84.911-1.92 1.901-4.52 1.901-6.76 0-1-.237-2.08-.91-2.6-1.584-1.08-3.644 1-4.554 2.16-.673.84-1.307 2.16-1.386 2.24.079-.44.158-1.2.158-1.8zM43.18 41.28c0 .68 0 2.24.238 2.68-.08.08-.159.08-.317.16-.752.4-1.821 1.24-2.653 1.24-.158 0-.436-.48-.436-.68-.752-1.84.911-4.4 1.822-5.84.752-1.32 1.663-2.76 2.217-4l.08-.16.079-.08c-.515 2-1.03 4.4-1.03 6.68zm-13.344.92c0-1.16.158-1.76.673-2.68 1.307-2.48 4.475-1 1.584 1.76-.436.32-1.426.92-2.257.92zm24.392 3.72c-2.297 0-1.9-3.32-1.663-4.76.475-2.48 3.049-4.24 3.801-1.24.08.44.08.6.08 1.08.197 1.44-.555 4.92-2.218 4.92z"/></svg>