<svg xmlns="http://www.w3.org/2000/svg" width="127" height="76" viewBox="0 0 127 76"><g fill="#FFF" fill-rule="evenodd"><path d="M32.794 44.591c0 .366-.146.718-.404.977l-6.179 6.185a.551.551 0 0 1-.942-.39v-13.86l7.44-7.405h.085V44.59z"/><path d="M27.864 25.162a.551.551 0 0 0-.78 0l-9.187 9.197h-.129v10.38l.129.273 7.372-7.381 7.525-7.533-4.93-4.936zM3 44.592c0 .365.145.717.404.976l6.178 6.185a.551.551 0 0 0 .942-.39v-13.86l-7.438-7.405H3V44.59z"/><path d="M8.71 25.162a.551.551 0 0 0-.78 0L3 30.098l7.524 7.533 7.373 7.381V34.36L8.71 25.162zm33.33 19.43v-13.83h3.678v1.855a4.085 4.085 0 0 1 3.756-2.112 4.204 4.204 0 0 1 3.832 2.214c1.44-1.519 2.547-2.214 4.273-2.214 3.112 0 4.861 1.752 4.861 4.97v9.117h-3.962v-7.494c0-1.929-.412-2.807-1.926-2.807-1.541 0-2.367.953-2.367 2.807v7.494h-3.99v-7.494c0-1.929-.412-2.807-1.927-2.807-1.54 0-2.366.953-2.366 2.807v7.494H42.04z"/><path fill-rule="nonzero" d="M67.354 32.565a7.286 7.286 0 0 1 7.904-1.64 7.3 7.3 0 0 1 4.57 6.661 7.05 7.05 0 0 1-2.083 5.203 7.157 7.157 0 0 1-5.247 2.163 6.822 6.822 0 0 1-5.222-2.215 7.232 7.232 0 0 1-2.032-5.1 7.092 7.092 0 0 1 2.11-5.072zm5.17 8.524a3.336 3.336 0 0 0 3.266-3.4 3.275 3.275 0 0 0-1.588-2.961 3.267 3.267 0 0 0-3.357 0 3.275 3.275 0 0 0-1.588 2.961 3.353 3.353 0 0 0 3.267 3.4z"/><path d="M82.636 44.592v-13.83h3.858l-.051 1.855a4.294 4.294 0 0 1 3.961-2.112c2.855 0 4.707 1.8 4.707 4.97v9.117h-4.064v-7.494c0-1.929-.411-2.807-1.98-2.807-1.595 0-2.444.953-2.444 2.807v7.494h-3.987z"/><path fill-rule="nonzero" d="M112.455 32.565a7.286 7.286 0 0 1 7.904-1.64 7.3 7.3 0 0 1 4.571 6.661 7.05 7.05 0 0 1-2.084 5.203 7.157 7.157 0 0 1-5.247 2.163 6.822 6.822 0 0 1-5.222-2.215 7.232 7.232 0 0 1-2.032-5.1 7.092 7.092 0 0 1 2.11-5.072zm5.17 8.524a3.336 3.336 0 0 0 3.266-3.399 3.275 3.275 0 0 0-1.588-2.962 3.267 3.267 0 0 0-3.358 0 3.275 3.275 0 0 0-1.588 2.962 3.353 3.353 0 0 0 3.268 3.4v-.001z"/><path d="M98.013 44.592v-2.885l5.685-7.365h-5.685v-3.579h10.263v3.27l-5.016 6.979h5.119v3.579z"/></g></svg>