<svg xmlns="http://www.w3.org/2000/svg" width="148" height="76" viewBox="0 0 148 76"><g fill="#FFF" fill-rule="evenodd" transform="translate(4 23)"><path fill-rule="nonzero" d="M25.3 3.959h-3.4l-.78-2.091C20.74.853 19.56.02 18.5.02h-7.8c-1.06 0-2.24.833-2.62 1.848l-.78 2.09H3.9C1.74 3.959 0 5.726 0 7.898v13.825c0 2.172 1.74 3.958 3.9 3.958h21.4c2.14 0 3.9-1.766 3.9-3.958V7.897c-.02-2.172-1.76-3.938-3.9-3.938zM14.6 21.722c-3.76 0-6.8-3.106-6.8-6.902 0-3.817 3.06-6.903 6.8-6.903 3.74 0 6.8 3.106 6.8 6.903 0 3.796-3.06 6.902-6.8 6.902z"/><ellipse cx="14.582" cy="14.799" rx="4.446" ry="4.38" transform="rotate(-89.744 14.582 14.799)"/><path d="M50.52 16.322c0 2.192-1.28 3.634-3.54 3.634-2.28 0-3.56-1.442-3.56-3.634V5.562h-3.54v11.105c0 3.776 2.76 6.354 7.08 6.354s7.08-2.578 7.08-6.354V5.562H50.5v10.76h.02zm13.16-6.578c-1.94 0-3.26.934-3.92 2.518h-.08V9.988h-3.3v12.749h3.42v-7.308c0-1.645.98-2.802 2.5-2.802s2.3.954 2.3 2.619v7.49h3.42v-8.221c.02-2.984-1.56-4.77-4.34-4.77zm13.64 5.624l-2.4-.528c-1.1-.264-1.64-.69-1.64-1.32 0-.812.78-1.36 1.96-1.36 1.26 0 2.08.63 2.14 1.645h3.16c-.04-2.477-2.1-4.101-5.24-4.101-3.22 0-5.3 1.604-5.3 4.02 0 1.887 1.22 3.146 3.6 3.694l2.32.528c1.12.264 1.54.63 1.54 1.279 0 .832-.78 1.36-2.08 1.36-1.36 0-2.2-.61-2.36-1.685h-3.34c.18 2.477 2.24 4.121 5.6 4.121 3.32 0 5.58-1.644 5.58-4.162 0-1.908-1.02-2.923-3.54-3.491z"/><path fill-rule="nonzero" d="M89.9 9.785c-1.82 0-3.22.934-3.9 2.436h-.08V9.988h-3.38v16.91h3.42v-6.313h.08c.66 1.441 2.08 2.335 3.9 2.335 3.14 0 5.08-2.477 5.08-6.578.02-4.1-1.94-6.557-5.12-6.557zm-1.14 10.353c-1.68 0-2.78-1.482-2.78-3.776 0-2.273 1.1-3.796 2.78-3.796 1.72 0 2.78 1.482 2.78 3.796 0 2.315-1.08 3.776-2.78 3.776z"/><path d="M96.88 5.562h3.42v17.174h-3.42z"/><path fill-rule="nonzero" d="M108.22 9.704c-3.32 0-5.4 1.705-5.54 4.182h3.12c.16-.934.98-1.584 2.24-1.584 1.28 0 2.1.69 2.1 1.888v.833l-3.12.203c-3.12.182-4.88 1.542-4.88 3.857 0 2.294 1.82 3.857 4.2 3.857 1.58 0 3.12-.792 3.84-2.152h.08v1.949h3.3v-8.77c-.02-2.558-2.1-4.263-5.34-4.263zm1.96 8.364c0 1.38-1.24 2.375-2.72 2.375-1.16 0-1.94-.589-1.94-1.543 0-.914.72-1.482 2-1.583l2.64-.163v.914h.02z"/><path d="M122.88 15.368l-2.4-.528c-1.1-.264-1.64-.69-1.64-1.32 0-.812.78-1.36 1.96-1.36 1.26 0 2.08.63 2.14 1.645h3.16c-.04-2.477-2.1-4.101-5.24-4.101-3.22 0-5.3 1.604-5.3 4.02 0 1.887 1.22 3.146 3.6 3.694l2.32.528c1.12.264 1.54.63 1.54 1.279 0 .832-.78 1.36-2.08 1.36-1.36 0-2.2-.61-2.36-1.685h-3.34c.18 2.477 2.24 4.121 5.6 4.121 3.32 0 5.58-1.644 5.58-4.162 0-1.908-1.02-2.923-3.54-3.491zm12.7-5.624c-1.92 0-3.28.914-3.94 2.518h-.08v-6.7h-3.36v17.175h3.42v-7.288c0-1.685.94-2.822 2.56-2.822 1.56 0 2.36.995 2.36 2.64v7.47h3.42v-8.202c0-2.964-1.6-4.79-4.38-4.79z"/></g></svg>