<svg xmlns="http://www.w3.org/2000/svg" width="127" height="76" viewBox="0 0 127 76"><path fill="#FFF" d="M13.97 45.628v-1.64C12.86 45.287 11.107 46 9.137 46 6.738 45.999 4 44.327 4 41.046c0-3.468 2.708-4.892 5.138-4.892 2.03 0 3.723.65 4.831 1.92v-2.23c0-1.733-1.445-2.786-3.477-2.786-1.66 0-3.138.62-4.4 1.92l-1.353-2.26c1.723-1.672 3.876-2.415 6.246-2.415 3.322 0 6.214 1.393 6.214 5.387v9.938h-3.23zm0-3.406v-2.29c-.77-1.022-2.155-1.548-3.54-1.548-1.815 0-3.199 1.083-3.199 2.693 0 1.64 1.384 2.694 3.2 2.694 1.384 0 2.768-.528 3.538-1.55zm5.743 3.407V25h3.242v7.763c1.204-1.608 2.933-2.443 4.785-2.443 3.86 0 6.639 3 6.639 7.825 0 4.948-2.81 7.855-6.639 7.855-1.914 0-3.643-.928-4.785-2.411v2.04h-3.242zm7.101-2.506c2.562 0 4.2-2.073 4.2-4.979 0-2.876-1.637-4.948-4.2-4.948-1.544 0-3.118.897-3.86 2.01v5.939c.742 1.112 2.316 1.978 3.86 1.978zm9.031-4.987c0-4.304 2.9-7.833 7.647-7.833 4.749 0 7.647 3.53 7.647 7.833 0 4.272-2.899 7.864-7.647 7.864-4.747 0-7.647-3.592-7.647-7.864zm11.934 0c0-2.632-1.51-4.953-4.287-4.953-2.744 0-4.286 2.321-4.286 4.953 0 2.662 1.542 4.984 4.286 4.984 2.776 0 4.287-2.323 4.287-4.984zm15.02 7.282v-1.975c-1.042 1.175-2.879 2.345-5.206 2.345-3.185 0-4.778-1.697-4.778-4.72V30.514h3.216v9.35c0 2.313 1.163 3.054 3.001 3.054 1.623 0 3.032-.957 3.767-1.946V30.515h3.215V45.42H62.8v-.001zm7.751-3.478v-8.59h-2.44v-2.802h2.44v-4.063h3.205v4.064h2.991v2.802h-2.991v7.789c0 1.016.488 1.786 1.404 1.786.61 0 1.16-.277 1.403-.555l.765 2.463c-.581.523-1.526.954-2.992.954-2.503 0-3.785-1.355-3.785-3.848zm8.454 1.697c0-1.122.957-2.092 2.094-2.092 1.138 0 2.096.97 2.096 2.092 0 1.15-.959 2.15-2.096 2.15-1.137.001-2.094-1-2.094-2.15zm24.02 1.939v-9.72c0-1.604-.705-2.684-2.448-2.684-1.439 0-2.786.987-3.43 1.975v10.428h-3.213v-9.719c0-1.604-.673-2.684-2.42-2.684-1.439 0-2.755 1.018-3.43 1.975v10.428H84.87V30.673h3.213v2.006c.644-.895 2.572-2.376 4.838-2.376 2.203 0 3.551 1.11 4.041 2.715.827-1.327 2.787-2.715 5.02-2.715 2.696 0 4.257 1.48 4.257 4.505v10.768h-3.214zm5.101-7.44c0-4.335 3.148-7.833 7.56-7.833 4.475 0 7.315 3.405 7.315 8.11v.805h-11.48c.247 2.23 1.91 4.119 4.719 4.119 1.484 0 3.178-.59 4.258-1.673l1.481 2.137C120.466 45.226 118.275 46 115.93 46c-4.503-.002-7.805-3.128-7.805-7.865zm7.53-5.17c-2.746 0-4.043 2.136-4.166 3.93h8.393c-.092-1.763-1.296-3.93-4.227-3.93z"/></svg>