<svg xmlns="http://www.w3.org/2000/svg" width="168" height="168" viewBox="0 0 168 168"><path fill="#D6B3E8" fill-rule="evenodd" d="M3 0a3 3 0 110 6 3 3 0 010-6zm0 36a3 3 0 110 6 3 3 0 010-6zm0 36a3 3 0 110 6 3 3 0 010-6zm0 36a3 3 0 110 6 3 3 0 010-6zm0 36a3 3 0 110 6 3 3 0 010-6zM3 18a3 3 0 110 6 3 3 0 010-6zm0 36a3 3 0 110 6 3 3 0 010-6zm0 36a3 3 0 110 6 3 3 0 010-6zm0 36a3 3 0 110 6 3 3 0 010-6zm0 36a3 3 0 110 6 3 3 0 010-6zM57 0a3 3 0 110 6 3 3 0 010-6zm0 36a3 3 0 110 6 3 3 0 010-6zm0 36a3 3 0 110 6 3 3 0 010-6zm0 36a3 3 0 110 6 3 3 0 010-6zm0 36a3 3 0 110 6 3 3 0 010-6zm0-126a3 3 0 110 6 3 3 0 010-6zm0 36a3 3 0 110 6 3 3 0 010-6zm0 36a3 3 0 110 6 3 3 0 010-6zm0 36a3 3 0 110 6 3 3 0 010-6zm0 36a3 3 0 110 6 3 3 0 010-6zM129 0a3 3 0 110 6 3 3 0 010-6zm0 36a3 3 0 110 6 3 3 0 010-6zm0 36a3 3 0 110 6 3 3 0 010-6zm0 36a3 3 0 110 6 3 3 0 010-6zm0 36a3 3 0 110 6 3 3 0 010-6zm0-126a3 3 0 110 6 3 3 0 010-6zm0 36a3 3 0 110 6 3 3 0 010-6zm0 36a3 3 0 110 6 3 3 0 010-6zm0 36a3 3 0 110 6 3 3 0 010-6zm0 36a3 3 0 110 6 3 3 0 010-6zM21 0a3 3 0 110 6 3 3 0 010-6zm0 36a3 3 0 110 6 3 3 0 010-6zm0 36a3 3 0 110 6 3 3 0 010-6zm0 36a3 3 0 110 6 3 3 0 010-6zm0 36a3 3 0 110 6 3 3 0 010-6zm0-126a3 3 0 110 6 3 3 0 010-6zm0 36a3 3 0 110 6 3 3 0 010-6zm0 36a3 3 0 110 6 3 3 0 010-6zm0 36a3 3 0 110 6 3 3 0 010-6zm0 36a3 3 0 110 6 3 3 0 010-6zM75 0a3 3 0 110 6 3 3 0 010-6zm0 36a3 3 0 110 6 3 3 0 010-6zm0 36a3 3 0 110 6 3 3 0 010-6zm0 36a3 3 0 110 6 3 3 0 010-6zm0 36a3 3 0 110 6 3 3 0 010-6zm0-126a3 3 0 110 6 3 3 0 010-6zm0 36a3 3 0 110 6 3 3 0 010-6zm0 36a3 3 0 110 6 3 3 0 010-6zm0 36a3 3 0 110 6 3 3 0 010-6zm0 36a3 3 0 110 6 3 3 0 010-6zM147 0a3 3 0 110 6 3 3 0 010-6zm0 36a3 3 0 110 6 3 3 0 010-6zm0 36a3 3 0 110 6 3 3 0 010-6zm0 36a3 3 0 110 6 3 3 0 010-6zm0 36a3 3 0 110 6 3 3 0 010-6zm0-126a3 3 0 110 6 3 3 0 010-6zm0 36a3 3 0 110 6 3 3 0 010-6zm0 36a3 3 0 110 6 3 3 0 010-6zm0 36a3 3 0 110 6 3 3 0 010-6zm0 36a3 3 0 110 6 3 3 0 010-6zm18-18a3 3 0 110 6 3 3 0 010-6zm0 18a3 3 0 110 6 3 3 0 010-6zM39 0a3 3 0 110 6 3 3 0 010-6zm0 36a3 3 0 110 6 3 3 0 010-6zm0 36a3 3 0 110 6 3 3 0 010-6zm0 36a3 3 0 110 6 3 3 0 010-6zm0 36a3 3 0 110 6 3 3 0 010-6zm0-126a3 3 0 110 6 3 3 0 010-6zm0 36a3 3 0 110 6 3 3 0 010-6zm0 36a3 3 0 110 6 3 3 0 010-6zm0 36a3 3 0 110 6 3 3 0 010-6zm0 36a3 3 0 110 6 3 3 0 010-6zM111 0a3 3 0 110 6 3 3 0 010-6zm0 36a3 3 0 110 6 3 3 0 010-6zm0 36a3 3 0 110 6 3 3 0 010-6zm0 36a3 3 0 110 6 3 3 0 010-6zm0 36a3 3 0 110 6 3 3 0 010-6zm0-126a3 3 0 110 6 3 3 0 010-6zm0 36a3 3 0 110 6 3 3 0 010-6zm0 36a3 3 0 110 6 3 3 0 010-6zm0 36a3 3 0 110 6 3 3 0 010-6zm0 36a3 3 0 110 6 3 3 0 010-6zM93 0a3 3 0 110 6 3 3 0 010-6zm0 36a3 3 0 110 6 3 3 0 010-6zm0 36a3 3 0 110 6 3 3 0 010-6zm0 36a3 3 0 110 6 3 3 0 010-6zm0 36a3 3 0 110 6 3 3 0 010-6zm0-126a3 3 0 110 6 3 3 0 010-6zm0 36a3 3 0 110 6 3 3 0 010-6zm0 36a3 3 0 110 6 3 3 0 010-6zm0 36a3 3 0 110 6 3 3 0 010-6zm0 36a3 3 0 110 6 3 3 0 010-6zM165 0a3 3 0 110 6 3 3 0 010-6zm0 36a3 3 0 110 6 3 3 0 010-6zm0 36a3 3 0 110 6 3 3 0 010-6zm0 36a3 3 0 110 6 3 3 0 010-6zm0-90a3 3 0 110 6 3 3 0 010-6zm0 36a3 3 0 110 6 3 3 0 010-6zm0 36a3 3 0 110 6 3 3 0 010-6zm0 36a3 3 0 110 6 3 3 0 010-6z"/></svg>