<svg xmlns="http://www.w3.org/2000/svg" xmlns:xlink="http://www.w3.org/1999/xlink" width="168" height="169" viewBox="0 0 168 169"><defs><path id="a" d="M35.621 35.377h168v168h-168z"/></defs><g fill="none" fill-rule="evenodd" transform="rotate(135 109.102 94.397)"><mask id="b" fill="#fff"><use xlink:href="#a"/></mask><path stroke="#EFDFB1" stroke-linecap="round" stroke-linejoin="round" stroke-width="4" d="M37.5-7.216v254.65m-18-254.65v254.65M1.5-7.216v254.65m-20-254.65v254.65m-18-254.65v254.65m254-254.65v254.65m18-254.65v254.65m18-254.65v254.65m18-254.65v254.65M73.5-7.216v254.65m18-254.65v254.65m18-254.65v254.65m18-254.65v254.65m18-254.65v254.65m18-254.65v254.65M55.5-7.216v254.65m126-254.65v254.65m18-254.65v254.65" mask="url(#b)"/></g></svg>