<svg xmlns="http://www.w3.org/2000/svg" width="50" height="50" viewBox="0 0 50 50">
  <g fill="none" fill-rule="evenodd">
    <rect width="50" height="50" fill="#FFF"/>
    <path fill="#CBEFF5" fill-rule="nonzero" d="M1.39161261 15.0251263L.330952442 13.9644661 2.45227279 11.8431458 3.51293296 12.9038059C4.87976798 14.2706409 7.0958454 14.2706409 8.46268043 12.9038059 11.0010883 10.365398 15.1166607 10.365398 17.6550686 12.9038059 19.0219036 14.2706409 21.237981 14.2706409 22.604816 12.9038059 25.1432239 10.365398 29.2587963 10.365398 31.7972042 12.9038059 33.1640392 14.2706409 35.3801167 14.2706409 36.7469517 12.9038059 39.2853596 10.365398 43.4009319 10.365398 45.9393398 12.9038059L47 13.9644661 44.8786797 16.0857864 43.8180195 15.0251263C42.4511845 13.6582912 40.235107 13.6582912 38.868272 15.0251263 36.3298641 17.5635342 32.2142918 17.5635342 29.6758839 15.0251263 28.3090488 13.6582912 26.0929714 13.6582912 24.7261364 15.0251263 22.1877285 17.5635342 18.0721561 17.5635342 15.5337482 15.0251263 14.1669132 13.6582912 11.9508358 13.6582912 10.5840008 15.0251263 8.04559287 17.5635342 3.93002051 17.5635342 1.39161261 15.0251263zM1.39161261 26.0251263L.330952442 24.9644661 2.45227279 22.8431458 3.51293296 23.9038059C4.87976798 25.2706409 7.0958454 25.2706409 8.46268043 23.9038059 11.0010883 21.365398 15.1166607 21.365398 17.6550686 23.9038059 19.0219036 25.2706409 21.237981 25.2706409 22.604816 23.9038059 25.1432239 21.365398 29.2587963 21.365398 31.7972042 23.9038059 33.1640392 25.2706409 35.3801167 25.2706409 36.7469517 23.9038059 39.2853596 21.365398 43.4009319 21.365398 45.9393398 23.9038059L47 24.9644661 44.8786797 27.0857864 43.8180195 26.0251263C42.4511845 24.6582912 40.235107 24.6582912 38.868272 26.0251263 36.3298641 28.5635342 32.2142918 28.5635342 29.6758839 26.0251263 28.3090488 24.6582912 26.0929714 24.6582912 24.7261364 26.0251263 22.1877285 28.5635342 18.0721561 28.5635342 15.5337482 26.0251263 14.1669132 24.6582912 11.9508358 24.6582912 10.5840008 26.0251263 8.04559287 28.5635342 3.93002051 28.5635342 1.39161261 26.0251263zM1.39161261 37.0251263L.330952442 35.9644661 2.45227279 33.8431458 3.51293296 34.9038059C4.87976798 36.2706409 7.0958454 36.2706409 8.46268043 34.9038059 11.0010883 32.365398 15.1166607 32.365398 17.6550686 34.9038059 19.0219036 36.2706409 21.237981 36.2706409 22.604816 34.9038059 25.1432239 32.365398 29.2587963 32.365398 31.7972042 34.9038059 33.1640392 36.2706409 35.3801167 36.2706409 36.7469517 34.9038059 39.2853596 32.365398 43.4009319 32.365398 45.9393398 34.9038059L47 35.9644661 44.8786797 38.0857864 43.8180195 37.0251263C42.4511845 35.6582912 40.235107 35.6582912 38.868272 37.0251263 36.3298641 39.5635342 32.2142918 39.5635342 29.6758839 37.0251263 28.3090488 35.6582912 26.0929714 35.6582912 24.7261364 37.0251263 22.1877285 39.5635342 18.0721561 39.5635342 15.5337482 37.0251263 14.1669132 35.6582912 11.9508358 35.6582912 10.5840008 37.0251263 8.04559287 39.5635342 3.93002051 39.5635342 1.39161261 37.0251263zM1.39161261 4.02512627L.330952442 2.96446609 2.45227279.843145751 3.51293296 1.90380592C4.87976798 3.27064094 7.0958454 3.27064094 8.46268043 1.90380592 11.0010883-.634601974 15.1166607-.634601974 17.6550686 1.90380592 19.0219036 3.27064094 21.237981 3.27064094 22.604816 1.90380592 25.1432239-.634601974 29.2587963-.634601974 31.7972042 1.90380592 33.1640392 3.27064094 35.3801167 3.27064094 36.7469517 1.90380592 39.2853596-.634601974 43.4009319-.634601974 45.9393398 1.90380592L47 2.96446609 44.8786797 5.08578644 43.8180195 4.02512627C42.4511845 2.65829124 40.235107 2.65829124 38.868272 4.02512627 36.3298641 6.56353416 32.2142918 6.56353416 29.6758839 4.02512627 28.3090488 2.65829124 26.0929714 2.65829124 24.7261364 4.02512627 22.1877285 6.56353416 18.0721561 6.56353416 15.5337482 4.02512627 14.1669132 2.65829124 11.9508358 2.65829124 10.5840008 4.02512627 8.04559287 6.56353416 3.93002051 6.56353416 1.39161261 4.02512627z" transform="translate(1 6)"/>
  </g>
</svg>
