<svg xmlns="http://www.w3.org/2000/svg" width="50" height="50" viewBox="0 0 50 50"><g fill="none" fill-rule="evenodd"><path fill="#FFF" d="M0 0h50v50H0z"/><path fill="#D6B3E8" d="M9 6a3 3 0 110 6 3 3 0 010-6zm0 11a3 3 0 110 6 3 3 0 010-6zM20 6a3 3 0 110 6 3 3 0 010-6zm0 11a3 3 0 110 6 3 3 0 010-6zM31 6a3 3 0 110 6 3 3 0 010-6zm0 11a3 3 0 110 6 3 3 0 010-6zM42 6a3 3 0 110 6 3 3 0 010-6zm0 11a3 3 0 110 6 3 3 0 010-6zM9 28a3 3 0 110 6 3 3 0 010-6zm11 0a3 3 0 110 6 3 3 0 010-6zm11 0a3 3 0 110 6 3 3 0 010-6zm11 0a3 3 0 110 6 3 3 0 010-6zM9 39a3 3 0 110 6 3 3 0 010-6zm11 0a3 3 0 110 6 3 3 0 010-6zm11 0a3 3 0 110 6 3 3 0 010-6zm11 0a3 3 0 110 6 3 3 0 010-6z"/></g></svg>