<svg xmlns="http://www.w3.org/2000/svg" width="143" height="143" viewBox="0 0 143 143"><path fill="#E1E3E6" fill-rule="evenodd" d="M2.554 0a2.554 2.554 0 110 5.107 2.554 2.554 0 010-5.107zm0 30.643a2.554 2.554 0 110 5.107 2.554 2.554 0 010-5.107zm0 30.643a2.554 2.554 0 110 5.107 2.554 2.554 0 010-5.107zm0 30.643a2.554 2.554 0 110 5.107 2.554 2.554 0 010-5.107zm0 30.642a2.554 2.554 0 110 5.108 2.554 2.554 0 010-5.108zm0-107.25a2.554 2.554 0 110 5.108 2.554 2.554 0 010-5.108zm0 30.643a2.554 2.554 0 110 5.107 2.554 2.554 0 010-5.107zm0 30.643a2.554 2.554 0 110 5.107 2.554 2.554 0 010-5.107zm0 30.643a2.554 2.554 0 110 5.107 2.554 2.554 0 010-5.107zm0 30.643a2.554 2.554 0 110 5.107 2.554 2.554 0 010-5.107zM48.518 0a2.554 2.554 0 110 5.107 2.554 2.554 0 010-5.107zm0 30.643a2.554 2.554 0 110 5.107 2.554 2.554 0 010-5.107zm0 30.643a2.554 2.554 0 110 5.107 2.554 2.554 0 010-5.107zm0 30.643a2.554 2.554 0 110 5.107 2.554 2.554 0 010-5.107zm0 30.642a2.554 2.554 0 110 5.108 2.554 2.554 0 010-5.108zm0-107.25a2.554 2.554 0 110 5.108 2.554 2.554 0 010-5.108zm0 30.643a2.554 2.554 0 110 5.107 2.554 2.554 0 010-5.107zm0 30.643a2.554 2.554 0 110 5.107 2.554 2.554 0 010-5.107zm0 30.643a2.554 2.554 0 110 5.107 2.554 2.554 0 010-5.107zm0 30.643a2.554 2.554 0 110 5.107 2.554 2.554 0 010-5.107zM109.804 0a2.554 2.554 0 110 5.107 2.554 2.554 0 010-5.107zm0 30.643a2.554 2.554 0 110 5.107 2.554 2.554 0 010-5.107zm0 30.643a2.554 2.554 0 110 5.107 2.554 2.554 0 010-5.107zm0 30.643a2.554 2.554 0 110 5.107 2.554 2.554 0 010-5.107zm0 30.642a2.554 2.554 0 110 5.108 2.554 2.554 0 010-5.108zm0-107.25a2.554 2.554 0 110 5.108 2.554 2.554 0 010-5.108zm0 30.643a2.554 2.554 0 110 5.107 2.554 2.554 0 010-5.107zm0 30.643a2.554 2.554 0 110 5.107 2.554 2.554 0 010-5.107zm0 30.643a2.554 2.554 0 110 5.107 2.554 2.554 0 010-5.107zm0 30.643a2.554 2.554 0 110 5.107 2.554 2.554 0 010-5.107zM17.875 0a2.554 2.554 0 110 5.107 2.554 2.554 0 010-5.107zm0 30.643a2.554 2.554 0 110 5.107 2.554 2.554 0 010-5.107zm0 30.643a2.554 2.554 0 110 5.107 2.554 2.554 0 010-5.107zm0 30.643a2.554 2.554 0 110 5.107 2.554 2.554 0 010-5.107zm0 30.642a2.554 2.554 0 110 5.108 2.554 2.554 0 010-5.108zm0-107.25a2.554 2.554 0 110 5.108 2.554 2.554 0 010-5.108zm0 30.643a2.554 2.554 0 110 5.107 2.554 2.554 0 010-5.107zm0 30.643a2.554 2.554 0 110 5.107 2.554 2.554 0 010-5.107zm0 30.643a2.554 2.554 0 110 5.107 2.554 2.554 0 010-5.107zm0 30.643a2.554 2.554 0 110 5.107 2.554 2.554 0 010-5.107zM63.839 0a2.554 2.554 0 110 5.107 2.554 2.554 0 010-5.107zm0 30.643a2.554 2.554 0 110 5.107 2.554 2.554 0 010-5.107zm0 30.643a2.554 2.554 0 110 5.107 2.554 2.554 0 010-5.107zm0 30.643a2.554 2.554 0 110 5.107 2.554 2.554 0 010-5.107zm0 30.642a2.554 2.554 0 110 5.108 2.554 2.554 0 010-5.108zm0-107.25a2.554 2.554 0 110 5.108 2.554 2.554 0 010-5.108zm0 30.643a2.554 2.554 0 110 5.107 2.554 2.554 0 010-5.107zm0 30.643a2.554 2.554 0 110 5.107 2.554 2.554 0 010-5.107zm0 30.643a2.554 2.554 0 110 5.107 2.554 2.554 0 010-5.107zm0 30.643a2.554 2.554 0 110 5.107 2.554 2.554 0 010-5.107zM125.125 0a2.554 2.554 0 110 5.107 2.554 2.554 0 010-5.107zm0 30.643a2.554 2.554 0 110 5.107 2.554 2.554 0 010-5.107zm0 30.643a2.554 2.554 0 110 5.107 2.554 2.554 0 010-5.107zm0 30.643a2.554 2.554 0 110 5.107 2.554 2.554 0 010-5.107zm0 30.642a2.554 2.554 0 110 5.108 2.554 2.554 0 010-5.108zm0-107.25a2.554 2.554 0 110 5.108 2.554 2.554 0 010-5.108zm0 30.643a2.554 2.554 0 110 5.107 2.554 2.554 0 010-5.107zm0 30.643a2.554 2.554 0 110 5.107 2.554 2.554 0 010-5.107zm0 30.643a2.554 2.554 0 110 5.107 2.554 2.554 0 010-5.107zm0 30.643a2.554 2.554 0 110 5.107 2.554 2.554 0 010-5.107zm15.321-15.322a2.554 2.554 0 110 5.108 2.554 2.554 0 010-5.108zm0 15.322a2.554 2.554 0 110 5.107 2.554 2.554 0 010-5.107zM33.196 0a2.554 2.554 0 110 5.107 2.554 2.554 0 010-5.107zm0 30.643a2.554 2.554 0 110 5.107 2.554 2.554 0 010-5.107zm0 30.643a2.554 2.554 0 110 5.107 2.554 2.554 0 010-5.107zm0 30.643a2.554 2.554 0 110 5.107 2.554 2.554 0 010-5.107zm0 30.642a2.554 2.554 0 110 5.108 2.554 2.554 0 010-5.108zm0-107.25a2.554 2.554 0 110 5.108 2.554 2.554 0 010-5.108zm0 30.643a2.554 2.554 0 110 5.107 2.554 2.554 0 010-5.107zm0 30.643a2.554 2.554 0 110 5.107 2.554 2.554 0 010-5.107zm0 30.643a2.554 2.554 0 110 5.107 2.554 2.554 0 010-5.107zm0 30.643a2.554 2.554 0 110 5.107 2.554 2.554 0 010-5.107zM94.482 0a2.554 2.554 0 110 5.107 2.554 2.554 0 010-5.107zm0 30.643a2.554 2.554 0 110 5.107 2.554 2.554 0 010-5.107zm0 30.643a2.554 2.554 0 110 5.107 2.554 2.554 0 010-5.107zm0 30.643a2.554 2.554 0 110 5.107 2.554 2.554 0 010-5.107zm0 30.642a2.554 2.554 0 110 5.108 2.554 2.554 0 010-5.108zm0-107.25a2.554 2.554 0 110 5.108 2.554 2.554 0 010-5.108zm0 30.643a2.554 2.554 0 110 5.107 2.554 2.554 0 010-5.107zm0 30.643a2.554 2.554 0 110 5.107 2.554 2.554 0 010-5.107zm0 30.643a2.554 2.554 0 110 5.107 2.554 2.554 0 010-5.107zm0 30.643a2.554 2.554 0 110 5.107 2.554 2.554 0 010-5.107zM79.161 0a2.554 2.554 0 110 5.107 2.554 2.554 0 010-5.107zm0 30.643a2.554 2.554 0 110 5.107 2.554 2.554 0 010-5.107zm0 30.643a2.554 2.554 0 110 5.107 2.554 2.554 0 010-5.107zm0 30.643a2.554 2.554 0 110 5.107 2.554 2.554 0 010-5.107zm0 30.642a2.554 2.554 0 110 5.108 2.554 2.554 0 010-5.108zm0-107.25a2.554 2.554 0 110 5.108 2.554 2.554 0 010-5.108zm0 30.643a2.554 2.554 0 110 5.107 2.554 2.554 0 010-5.107zm0 30.643a2.554 2.554 0 110 5.107 2.554 2.554 0 010-5.107zm0 30.643a2.554 2.554 0 110 5.107 2.554 2.554 0 010-5.107zm0 30.643a2.554 2.554 0 110 5.107 2.554 2.554 0 010-5.107zM140.446 0a2.554 2.554 0 110 5.107 2.554 2.554 0 010-5.107zm0 30.643a2.554 2.554 0 110 5.107 2.554 2.554 0 010-5.107zm0 30.643a2.554 2.554 0 110 5.107 2.554 2.554 0 010-5.107zm0 30.643a2.554 2.554 0 110 5.107 2.554 2.554 0 010-5.107zm0-76.608a2.554 2.554 0 110 5.108 2.554 2.554 0 010-5.108zm0 30.643a2.554 2.554 0 110 5.107 2.554 2.554 0 010-5.107zm0 30.643a2.554 2.554 0 110 5.107 2.554 2.554 0 010-5.107zm0 30.643a2.554 2.554 0 110 5.107 2.554 2.554 0 010-5.107z"/></svg>