<svg xmlns="http://www.w3.org/2000/svg" xmlns:xlink="http://www.w3.org/1999/xlink" width="168" height="164" viewBox="0 0 168 164"><defs><path id="a" d="M0 0h168v168H0z"/></defs><g fill="none" fill-rule="evenodd" transform="translate(0 -2)"><mask id="b" fill="#fff"><use xlink:href="#a"/></mask><path stroke="#CBEFF5" stroke-linecap="round" stroke-linejoin="round" stroke-width="3" d="M-6 122.599h24.971c11.046 0 20-8.955 20-20v-5.155c0-11.046 8.955-20 20-20h4.898c11.045 0 20-8.954 20-20v-5.152c0-11.046 8.954-20 20-20h4.874c11.045 0 20-8.954 20-20V7.345c0-11.046 8.954-20 20-20h5.27c11.045 0 20-8.954 20-20V-57.77" mask="url(#b)" transform="rotate(45 84.006 32.414)"/><path stroke="#CBEFF5" stroke-linecap="round" stroke-linejoin="round" stroke-width="3" d="M-6 104.599h24.971c11.046 0 20-8.955 20-20v-5.155c0-11.046 8.955-20 20-20h4.898c11.045 0 20-8.954 20-20v-5.152c0-11.046 8.954-20 20-20h4.874c11.045 0 20-8.954 20-20v-4.947c0-11.046 8.954-20 20-20h5.27c11.045 0 20-8.954 20-20V-75.77" mask="url(#b)" transform="rotate(45 84.006 14.414)"/><path stroke="#CBEFF5" stroke-linecap="round" stroke-linejoin="round" stroke-width="3" d="M-6 86.599h24.971c11.046 0 20-8.955 20-20v-5.155c0-11.046 8.955-20 20-20h4.898c11.045 0 20-8.954 20-20v-5.152c0-11.046 8.954-20 20-20h4.874c11.045 0 20-8.954 20-20v-4.947c0-11.046 8.954-20 20-20h5.27c11.045 0 20-8.954 20-20V-93.77" mask="url(#b)" transform="rotate(45 84.006 -3.586)"/><path stroke="#CBEFF5" stroke-linecap="round" stroke-linejoin="round" stroke-width="3" d="M-6 176.599h24.971c11.046 0 20-8.955 20-20v-5.155c0-11.046 8.955-20 20-20h4.898c11.045 0 20-8.954 20-20v-5.152c0-11.046 8.954-20 20-20h4.874c11.045 0 20-8.954 20-20v-4.947c0-11.046 8.954-20 20-20h5.27c11.045 0 20-8.954 20-20V-3.77" mask="url(#b)" transform="rotate(45 84.006 86.414)"/><path stroke="#CBEFF5" stroke-linecap="round" stroke-linejoin="round" stroke-width="3" d="M-6 158.599h24.971c11.046 0 20-8.955 20-20v-5.155c0-11.046 8.955-20 20-20h4.898c11.045 0 20-8.954 20-20v-5.152c0-11.046 8.954-20 20-20h4.874c11.045 0 20-8.954 20-20v-4.947c0-11.046 8.954-20 20-20h5.27c11.045 0 20-8.954 20-20V-21.77" mask="url(#b)" transform="rotate(45 84.006 68.414)"/><path stroke="#CBEFF5" stroke-linecap="round" stroke-linejoin="round" stroke-width="3" d="M-6 140.599h24.971c11.046 0 20-8.955 20-20v-5.155c0-11.046 8.955-20 20-20h4.898c11.045 0 20-8.954 20-20v-5.152c0-11.046 8.954-20 20-20h4.874c11.045 0 20-8.954 20-20v-4.947c0-11.046 8.954-20 20-20h5.27c11.045 0 20-8.954 20-20V-39.77" mask="url(#b)" transform="rotate(45 84.006 50.414)"/><path stroke="#CBEFF5" stroke-linecap="round" stroke-linejoin="round" stroke-width="3" d="M-6 230.599h24.971c11.046 0 20-8.955 20-20v-5.155c0-11.046 8.955-20 20-20h4.898c11.045 0 20-8.954 20-20v-5.152c0-11.046 8.954-20 20-20h4.874c11.045 0 20-8.954 20-20v-4.947c0-11.046 8.954-20 20-20h5.27c11.045 0 20-8.954 20-20V50.23" mask="url(#b)" transform="rotate(45 84.006 140.414)"/><path stroke="#CBEFF5" stroke-linecap="round" stroke-linejoin="round" stroke-width="3" d="M-6 212.599h24.971c11.046 0 20-8.955 20-20v-5.155c0-11.046 8.955-20 20-20h4.898c11.045 0 20-8.954 20-20v-5.152c0-11.046 8.954-20 20-20h4.874c11.045 0 20-8.954 20-20v-4.947c0-11.046 8.954-20 20-20h5.27c11.045 0 20-8.954 20-20V32.23" mask="url(#b)" transform="rotate(45 84.006 122.414)"/><path stroke="#CBEFF5" stroke-linecap="round" stroke-linejoin="round" stroke-width="3" d="M-6 194.599h24.971c11.046 0 20-8.955 20-20v-5.155c0-11.046 8.955-20 20-20h4.898c11.045 0 20-8.954 20-20v-5.152c0-11.046 8.954-20 20-20h4.874c11.045 0 20-8.954 20-20v-4.947c0-11.046 8.954-20 20-20h5.27c11.045 0 20-8.954 20-20V14.23" mask="url(#b)" transform="rotate(45 84.006 104.414)"/></g></svg>