<svg xmlns="http://www.w3.org/2000/svg" width="172" height="170" viewBox="0 0 172 170"><path d="M2 64.5V43.521h20.836V22.492h21.092V2h20.484M2 22.492V2h20.484M86 64.5V43.521h20.836V22.492h21.092V2h20.484M44 64.5V43.521h20.836V22.492h21.092V2h20.484M128 64.5V43.521h20.836V22.492h21.092V2M2 105.5V84.521h20.836V63.492h21.092M86 105.5V84.521h20.836V63.492h21.092M44 105.5V84.521h20.836V63.492h21.092M128 105.5V84.521h20.836V63.492h21.092V43M2 146.5v-20.979h20.836v-21.029h21.092M86 146.5v-20.979h20.836v-21.029h21.092M44 146.5v-20.979h20.836v-21.029h21.092M128 147.5v-20.979h20.836v-21.029h21.092V85M2 166.521h20.836v-21.029h21.092M86 167.521h20.836v-21.029h21.092M44 166.521h20.836v-21.029h21.092M128 167.521h20.836v-21.029h21.092V126" fill="none" stroke="#FFBEB7" stroke-width="3"/></svg>