<svg xmlns="http://www.w3.org/2000/svg" width="40" height="40" viewBox="0 0 40 40">
  <g fill="none" transform="translate(2 4)">
    <polygon fill="#E6E6E1" points=".117 .064 35.955 .064 35.955 31.794 .117 31.794"/>
    <polyline fill="#D8D8D3" points="35.955 .064 .117 .064 18.037 26.253 35.955 .064"/>
    <polyline fill="#B4B6B4" points="14.245 31.794 21.829 31.794 18.037 26.253 14.245 31.794"/>
    <polyline fill="#1A1918" points="18.042 16.71 10.398 5.49 10.398 15.121 14.763 21.533 18.035 16.72 18.042 16.71"/>
    <polyline fill="#ED9D4A" points="18.042 16.71 21.335 21.543 25.672 15.202 25.672 5.49 18.042 16.71"/>
    <polyline fill="#BB7731" points="18.035 16.72 14.763 21.533 18.046 26.353 21.335 21.543 18.042 16.71 18.035 16.72"/>
    <polyline fill="#4CB2D4" points="4.969 26.366 10.398 26.366 10.398 15.121 4.969 7.152 4.969 26.366"/>
    <polyline fill="#1B82AD" points="4.969 5.49 4.969 7.152 10.398 15.121 10.398 5.49 4.969 5.49"/>
    <polyline fill="#C02439" points="25.672 15.202 25.672 26.366 31.099 26.366 31.099 7.268 25.672 15.202"/>
    <polyline fill="#8F202F" points="31.099 5.49 25.672 5.49 25.672 15.202 31.099 7.268 31.099 5.49"/>
  </g>
</svg>
