<svg width="20" height="40" xmlns="http://www.w3.org/2000/svg"><defs><linearGradient x1="93.619%" y1="19.802%" x2="3.21%" y2="50%" id="a"><stop stop-color="#5EB3C0" offset="0%"/><stop stop-color="#2F7EC4" offset="100%"/></linearGradient></defs><g fill="none" fill-rule="evenodd"><path d="M1.693 4.08H3.81c.935 0 1.693.758 1.693 1.693v28.53c0 .934-.758 1.692-1.693 1.692H1.693A1.693 1.693 0 010 34.302V5.773C0 4.838.758 4.08 1.693 4.08zm8.448.173l8.212 4.917c.536.321.864.9.864 1.525v6.343c0 .626-.33 1.206-.866 1.527l-8.212 4.904a1.778 1.778 0 01-2.69-1.527V5.778a1.778 1.778 0 012.692-1.525z" fill="#000" fill-rule="nonzero"/><path d="M1.693.08H3.81c.935 0 1.693.758 1.693 1.693v28.53c0 .934-.758 1.692-1.693 1.692H1.693A1.693 1.693 0 010 30.302V1.773C0 .838.758.08 1.693.08zm8.448.173l8.212 4.917c.536.321.864.9.864 1.525v6.343c0 .626-.33 1.206-.866 1.527l-8.212 4.904a1.778 1.778 0 01-2.69-1.527V1.778A1.778 1.778 0 0110.142.253z" fill="url(#a)" transform="translate(0 4)"/></g></svg>