<svg xmlns="http://www.w3.org/2000/svg" width="40" height="40" viewBox="0 0 40 40">
  <g fill="none" transform="translate(7 7)">
    <polygon fill="#9DD6E3" points="8.366 25.353 16.691 25.353 16.691 17.029 8.366 17.029"/>
    <polygon fill="#9DD6E3" points=".042 17.029 8.366 17.029 8.366 8.705 .042 8.705"/>
    <polygon fill="#3F72AB" points=".042 25.353 8.366 25.353 8.366 17.029 .042 17.029"/>
    <polygon fill="#00A9D1" points="16.691 17.029 25.015 17.029 25.015 8.705 16.691 8.705"/>
    <polygon fill="#00A9D1" points="8.366 8.705 16.691 8.705 16.691 .38 8.366 .38"/>
    <polygon fill="#2191C4" points="8.366 17.029 16.691 17.029 16.691 8.705 8.366 8.705"/>
    <polygon fill="#3F72AB" points="16.691 8.705 25.015 8.705 25.015 .38 16.691 .38"/>
  </g>
</svg>
