<svg width="30" height="28" viewBox="0 0 30 28" xmlns="http://www.w3.org/2000/svg" xmlns:xlink="http://www.w3.org/1999/xlink"><defs><ellipse id="a" cx="22.229" cy="4.086" rx="2.124" ry="2.114"/><mask id="d" maskContentUnits="userSpaceOnUse" maskUnits="objectBoundingBox" x="0" y="0" width="4.248" height="4.227" fill="#fff"><use xlink:href="#a"/></mask><ellipse id="b" cx="22.229" cy="4.086" rx="2.124" ry="2.114"/><mask id="e" maskContentUnits="userSpaceOnUse" maskUnits="objectBoundingBox" x="0" y="0" width="4.248" height="4.227" fill="#fff"><use xlink:href="#b"/></mask><ellipse id="c" cx="22.229" cy="4.086" rx="2.124" ry="2.114"/><mask id="f" maskContentUnits="userSpaceOnUse" maskUnits="objectBoundingBox" x="0" y="0" width="4.248" height="4.227" fill="#fff"><use xlink:href="#c"/></mask></defs><g stroke="#F15242" fill="none" fill-rule="evenodd"><g transform="translate(1.341 17.248)"><path d="M2.399 0A4.837 4.837 0 0 0 0 4.175C0 6.85 2.179 9.018 4.866 9.018c2.688 0 4.867-2.168 4.867-4.843h10.816" stroke-width="2" stroke-linecap="square"/><use mask="url(#d)" stroke-width="4" xlink:href="#a"/></g><g transform="rotate(120 9.128 8.19)"><path d="M2.399 0A4.837 4.837 0 0 0 0 4.175C0 6.85 2.179 9.018 4.866 9.018c2.688 0 4.867-2.168 4.867-4.843h10.816" stroke-width="2" stroke-linecap="square"/><use mask="url(#e)" stroke-width="4" xlink:href="#b"/></g><g transform="rotate(-120 19.186 7.378)"><path d="M2.399 0A4.837 4.837 0 0 0 0 4.175C0 6.85 2.179 9.018 4.866 9.018c2.688 0 4.867-2.168 4.867-4.843h10.816" stroke-width="2" stroke-linecap="square"/><use mask="url(#f)" stroke-width="4" xlink:href="#c"/></g></g></svg>