<svg width="940" height="303" viewBox="0 0 940 303" xmlns="http://www.w3.org/2000/svg" xmlns:xlink="http://www.w3.org/1999/xlink"><defs><rect id="c" x="0" y="0" width="21" height="15" rx="2"/><rect id="f" x="0" y="0" width="21" height="15" rx="2"/><rect id="i" x=".5" y=".5" width="20" height="14" rx="1"/><rect id="j" x="0" y="0" width="21" height="15" rx="2"/><rect id="m" x=".5" y=".5" width="20" height="14" rx="1"/><rect id="n" x="0" y="0" width="21" height="15" rx="2"/><rect id="p" x=".5" y=".5" width="20" height="14" rx="1"/><filter x="-50%" y="-50%" width="200%" height="200%" filterUnits="objectBoundingBox" id="d"><feMorphology radius="1" in="SourceAlpha" operator="dilate" result="shadowSpreadInner1"/><feOffset in="shadowSpreadInner1" result="shadowOffsetInner1"/><feGaussianBlur in="shadowOffsetInner1" result="shadowBlurInner1"/><feComposite in="shadowBlurInner1" in2="SourceAlpha" operator="arithmetic" k2="-1" k3="1" result="shadowInnerInner1"/><feColorMatrix values="0 0 0 0 0 0 0 0 0 0 0 0 0 0 0 0 0 0 0.0851619112 0" in="shadowInnerInner1" result="shadowMatrixInner1"/><feMerge><feMergeNode in="SourceGraphic"/><feMergeNode in="shadowMatrixInner1"/></feMerge></filter><filter x="-50%" y="-50%" width="200%" height="200%" filterUnits="objectBoundingBox" id="g"><feMorphology radius="1" in="SourceAlpha" operator="dilate" result="shadowSpreadInner1"/><feOffset in="shadowSpreadInner1" result="shadowOffsetInner1"/><feGaussianBlur in="shadowOffsetInner1" result="shadowBlurInner1"/><feComposite in="shadowBlurInner1" in2="SourceAlpha" operator="arithmetic" k2="-1" k3="1" result="shadowInnerInner1"/><feColorMatrix values="0 0 0 0 0 0 0 0 0 0 0 0 0 0 0 0 0 0 0.14 0" in="shadowInnerInner1" result="shadowMatrixInner1"/><feMerge><feMergeNode in="SourceGraphic"/><feMergeNode in="shadowMatrixInner1"/></feMerge></filter><filter x="-50%" y="-50%" width="200%" height="200%" filterUnits="objectBoundingBox" id="k"><feMorphology radius="1" in="SourceAlpha" operator="dilate" result="shadowSpreadInner1"/><feOffset in="shadowSpreadInner1" result="shadowOffsetInner1"/><feGaussianBlur in="shadowOffsetInner1" result="shadowBlurInner1"/><feComposite in="shadowBlurInner1" in2="SourceAlpha" operator="arithmetic" k2="-1" k3="1" result="shadowInnerInner1"/><feColorMatrix values="0 0 0 0 0 0 0 0 0 0 0 0 0 0 0 0 0 0 0.0851619112 0" in="shadowInnerInner1" result="shadowMatrixInner1"/><feMerge><feMergeNode in="SourceGraphic"/><feMergeNode in="shadowMatrixInner1"/></feMerge></filter><path id="a" d="M0 0h940v303H0z"/></defs><g fill="none" fill-rule="evenodd"><mask id="b" fill="#fff"><use xlink:href="#a"/></mask><use fill="#FFF" xlink:href="#a"/><g stroke="#00C3E4" stroke-width="2.094" opacity=".302" mask="url(#b)"><path d="M233.979 910.84c-11.87-7.504 84.93-181.949 216.208-389.635 131.278-207.687 247.321-369.968 259.19-362.465h0"/><path d="M178.807 869.664c-49.325-43.139 41.812-228.038 203.56-412.983 161.75-184.946 332.859-299.904 382.183-256.766h0"/><path d="M125.21 813.85c-70.598-87.654 27.29-283.649 218.638-437.77 191.35-154.12 403.7-208.004 474.298-120.352h0"/><path d="M73.829 733.863c-67.972-135.842 55.05-335.092 274.776-445.037s452.951-88.952 520.923 46.89h0"/><path d="M34.077 614.912c-32.58-177.939 136.93-358.06 378.61-402.31C654.367 168.35 876.7 276.727 909.28 454.666h0"/><path d="M35.395 447.778c38.641-193.753 265.297-311.865 506.25-263.81 240.953 48.055 404.959 244.08 366.317 437.832h0"/><path d="M116.155 267.361c120.693-160.45 377.707-170.79 574.057-23.093 196.35 147.696 257.682 397.499 136.99 557.95"/><path d="M255.843 145.778c166.404-92.326 397.935 6.995 517.137 221.84 119.203 214.844 80.938 463.856-85.466 556.182"/><path d="M391.549 97.19C555.678 67.134 724.606 238.691 768.86 480.371c44.255 241.68-52.923 461.963-217.052 492.017"/><path d="M498.83 90.743C630.627 98.802 725.314 304.14 710.319 549.38c-14.996 245.24-133.995 437.514-265.792 429.455"/><path d="M582.096 103.834c85.47 21.899 105.321 232.597 44.34 470.607C565.454 812.45 446.73 987.643 361.26 965.745"/><path d="M650.056 127.24c35.183 15.4-16.158 210.349-114.673 435.432-98.515 225.083-206.9 395.065-242.082 379.666"/><path d="M892.34 679.557c-45.86 133.258-258.612 154.367-475.195 47.148C200.562 619.485 62.163 424.54 108.024 291.28c6.158-17.894 15.533-34.132 27.95-48.412"/><path d="M912.4 595.451c-19.218 139.612-206.906 181.968-419.212 94.604C280.88 602.69 124.352 418.69 143.57 279.078c5.348-38.852 24.241-71.576 55.213-95.633"/><path d="M915.65 506.412c8.987 140.642-145.464 203.211-344.976 139.753C371.162 582.707 202.139 417.251 193.15 276.61c-4.002-62.63 24.877-112.65 81.117-140.5"/><path d="M899.635 413.262c38.496 135.568-73.95 216.825-251.154 181.492S296.418 420.878 257.923 285.31c-25.407-89.474 14.834-159.172 105.023-181.906"/><path d="M858.19 314.505c69.78 122.44 10.985 220.408-131.323 218.82C584.56 531.734 412.63 431.19 342.851 308.75 274.028 187.99 330.2 90.696 469.194 89.918"/><path d="M751.784 189.161c109.486 88.731 138.832 201.093 65.547 250.966-73.285 49.874-221.45 18.374-330.936-70.357-109.486-88.732-138.832-201.093-65.547-250.967 46.625-31.73 126.385-31.504 210.1.593"/><path d="M808.94 354.574c-31.991 55.41-136.235 55.116-232.836-.656-96.6-55.772-148.976-145.903-116.986-201.313 31.991-55.41 136.235-55.116 232.836.656 96.6 55.773 148.977 145.903 116.986 201.313h0z"/><path d="M764.027 303.375c-21.776 37.717-92.731 37.517-158.484-.445-65.753-37.963-101.404-99.313-79.628-137.03 21.775-37.716 92.731-37.516 158.484.446 65.753 37.963 101.404 99.313 79.628 137.03h0z"/><path d="M711.916 257.874c-11.024 19.094-46.945 18.994-80.231-.224-33.287-19.217-51.334-50.276-40.31-69.37 11.025-19.094 46.945-18.994 80.231.224 33.287 19.218 51.334 50.276 40.31 69.37h0z"/><path d="M856.952 757.227c-122.849 212.781-394.93 285.685-607.711 162.836C36.46 797.214-36.444 525.133 86.405 312.351c122.849-212.78 394.93-285.684 607.711-162.835 212.781 122.849 285.685 394.93 162.836 607.711h0z"/></g><text mask="url(#b)" font-family="AvenirNext-DemiBold, Avenir Next" font-size="15" font-weight="500" fill="#354254"><tspan x="755" y="44">EUROPE</tspan></text><g mask="url(#b)"><g transform="translate(826 31)"><mask id="e" fill="#fff"><use xlink:href="#c"/></mask><use fill="#ED4C49" filter="url(#d)" xlink:href="#c"/><g mask="url(#e)"><path fill="#039" d="M-1-.364h23v15.545H-1z"/><g fill="#FC0"><path d="M10.502 1.365l-.267.82.475.155-.208-.975z"/><path d="M10.498 1.365l.267.82-.475.155.208-.975z"/><path d="M11.315 1.96h-.864v.5l.864-.5z"/><path d="M11.314 1.957l-.699.507-.294-.404.993-.103z"/><path d="M11.002 2.925l-.267-.821-.476.154.743.667z"/><path d="M11.005 2.923l-.699-.508.294-.404.405.912z"/><path d="M9.685 1.96h.864v.5l-.864-.5z"/><path d="M9.686 1.957l.699.507.294-.404-.993-.103z"/><path d="M9.998 2.925l.267-.821.476.154-.743.667z"/><path d="M9.995 2.923l.699-.508-.294-.404-.405.912zm.507 8.805l-.267.822.475.154-.208-.976z"/><path d="M10.498 11.728l.267.822-.475.154.208-.976z"/><path d="M11.315 12.324h-.864v.5l.864-.5z"/><path d="M11.314 12.32l-.699.508-.294-.405.993-.103z"/><path d="M11.002 13.289l-.267-.822-.476.155.743.667z"/><path d="M11.005 13.286l-.699-.507.294-.405.405.912z"/><path d="M9.685 12.324h.864v.5l-.864-.5z"/><path d="M9.686 12.32l.699.508.294-.405-.993-.103z"/><path d="M9.998 13.289l.267-.822.476.155-.743.667z"/><path d="M9.995 13.286l.699-.507-.294-.405-.405.912zM5.39 6.546l-.266.822.475.154-.208-.976z"/><path d="M5.387 6.546l.267.822-.476.154.21-.976z"/><path d="M6.204 7.142H5.34v.5l.864-.5z"/><path d="M6.203 7.138l-.7.508-.293-.404.993-.104z"/><path d="M5.89 8.107l-.266-.822-.476.155.743.667z"/><path d="M5.894 8.105l-.7-.508.295-.405.405.913z"/><path d="M4.574 7.142h.864v.5l-.864-.5z"/><path d="M4.575 7.138l.699.508.294-.404-.993-.104z"/><path d="M4.887 8.107l.267-.822.476.155-.743.667z"/><path d="M4.884 8.105l.699-.508-.294-.405-.405.913zM7.436 3.62l.699-.507-.294-.405-.405.912z"/><path d="M7.439 3.622l.267-.821.475.155-.742.666z"/><path d="M7.128 2.66l.7.508.293-.404-.993-.103z"/><path d="M7.127 2.664h.864v.5l-.864-.5z"/><path d="M7.949 2.064l-.267.821.475.155-.208-.976z"/><path d="M7.945 2.064l.267.821-.476.155.21-.976z"/><path d="M8.447 3.618l-.699-.507.294-.405.405.912z"/><path d="M8.444 3.62l-.267-.82-.476.154.743.667z"/><path d="M8.76 2.654l-.698.508-.294-.405.993-.103z"/><path d="M8.762 2.657h-.864v.5l.864-.5zM6.58 5.516l-.267-.822-.475.155.742.667z"/><path d="M6.583 5.514l-.699-.508.294-.405.405.913z"/><path d="M5.572 5.512l.699-.508-.294-.404-.405.912z"/><path d="M5.575 5.514l.267-.822.476.155-.743.667z"/><path d="M5.259 4.547l.698.508.294-.405-.992-.103z"/><path d="M5.257 4.55h.864v.5l-.864-.5z"/><path d="M6.89 4.554l-.698.507-.294-.404.993-.103z"/><path d="M6.892 4.557h-.864v.5l.864-.5z"/><path d="M6.07 3.957l.267.822-.475.154.208-.976z"/><path d="M6.074 3.957l-.267.822.476.154-.209-.976zm.82 5.775h-.863v.5l.863-.5z"/><path d="M6.893 9.729l-.698.507-.294-.404.992-.103z"/><path d="M6.58 10.69l-.268-.822-.475.154.742.667z"/><path d="M6.582 10.687l-.698-.507.293-.405.405.912z"/><path d="M5.565 10.69l.699-.508-.294-.404-.405.912z"/><path d="M5.568 10.692l.267-.821.475.154-.742.667z"/><path d="M6.076 9.14l.267.82-.476.155.209-.975z"/><path d="M6.08 9.14l-.268.82.476.155-.209-.975z"/><path d="M5.255 9.735h.864v.5l-.864-.5z"/><path d="M5.256 9.732l.699.508.294-.405-.993-.103zm3.509 1.897h-.863v.5l.863-.5z"/><path d="M8.764 11.625l-.699.508-.293-.405.992-.103z"/><path d="M8.45 12.586l-.267-.821-.475.154.742.667z"/><path d="M8.453 12.584l-.699-.508.294-.404.405.912z"/><path d="M7.436 12.586l.698-.507-.293-.405-.405.912z"/><path d="M7.439 12.589l.267-.822.475.155-.742.667z"/><path d="M7.946 11.036l.267.822-.475.154.208-.976z"/><path d="M7.95 11.036l-.267.822.476.154-.209-.976z"/><path d="M7.126 11.632h.863v.5l-.863-.5z"/><path d="M7.127 11.629l.699.507.293-.404-.992-.103zm8.483-5.083l.266.822-.475.154.208-.976z"/><path d="M15.613 6.546l-.267.822.476.154-.21-.976z"/><path d="M14.796 7.142h.864v.5l-.864-.5z"/><path d="M14.797 7.138l.7.508.293-.404-.993-.104z"/><path d="M15.11 8.107l.266-.822.476.155-.743.667z"/><path d="M15.106 8.105l.7-.508-.295-.405-.405.913z"/><path d="M16.426 7.142h-.864v.5l.864-.5z"/><path d="M16.425 7.138l-.699.508-.294-.404.993-.104z"/><path d="M16.113 8.107l-.267-.822-.476.155.743.667z"/><path d="M16.116 8.105l-.699-.508.294-.405.405.913zM13.564 3.62l-.699-.507.294-.405.405.912z"/><path d="M13.561 3.622l-.267-.821-.475.155.742.666z"/><path d="M13.872 2.66l-.7.508-.293-.404.993-.103z"/><path d="M13.873 2.664h-.864v.5l.864-.5z"/><path d="M13.051 2.064l.267.821-.475.155.208-.976z"/><path d="M13.055 2.064l-.267.821.476.155-.21-.976z"/><path d="M12.553 3.618l.699-.507-.294-.405-.405.912z"/><path d="M12.556 3.62l.267-.82.476.154-.743.667z"/><path d="M12.24 2.654l.698.508.294-.405-.993-.103z"/><path d="M12.238 2.657h.864v.5l-.864-.5zm2.182 2.859l.267-.822.475.155-.742.667z"/><path d="M14.417 5.514l.699-.508-.294-.405-.405.913z"/><path d="M15.428 5.512l-.699-.508.294-.404.405.912z"/><path d="M15.425 5.514l-.267-.822-.476.155.743.667z"/><path d="M15.741 4.547l-.698.508-.294-.405.992-.103z"/><path d="M15.743 4.55h-.864v.5l.864-.5z"/><path d="M14.11 4.554l.698.507.294-.404-.993-.103z"/><path d="M14.108 4.557h.864v.5l-.864-.5z"/><path d="M14.93 3.957l-.267.822.475.154-.208-.976z"/><path d="M14.926 3.957l.267.822-.476.154.209-.976zm-.82 5.775h.863v.5l-.863-.5z"/><path d="M14.107 9.729l.698.507.294-.404-.992-.103z"/><path d="M14.42 10.69l.268-.822.475.154-.742.667z"/><path d="M14.418 10.687l.698-.507-.293-.405-.405.912z"/><path d="M15.435 10.69l-.699-.508.294-.404.405.912z"/><path d="M15.432 10.692l-.267-.821-.475.154.742.667z"/><path d="M14.924 9.14l-.267.82.476.155-.209-.975z"/><path d="M14.92 9.14l.268.82-.476.155.209-.975z"/><path d="M15.745 9.735h-.864v.5l.864-.5z"/><path d="M15.744 9.732l-.699.508-.294-.405.993-.103zm-3.509 1.897h.863v.5l-.863-.5z"/><path d="M12.236 11.625l.699.508.293-.405-.992-.103z"/><path d="M12.55 12.586l.267-.821.475.154-.742.667z"/><path d="M12.547 12.584l.699-.508-.294-.404-.405.912z"/><path d="M13.564 12.586l-.698-.507.293-.405.405.912z"/><path d="M13.561 12.589l-.267-.822-.475.155.742.667z"/><path d="M13.054 11.036l-.267.822.475.154-.208-.976z"/><path d="M13.05 11.036l.267.822-.476.154.209-.976z"/><path d="M13.874 11.632h-.863v.5l.863-.5z"/><path d="M13.873 11.629l-.699.507-.293-.404.992-.103z"/></g></g></g></g><text mask="url(#b)" font-family="AvenirNext-DemiBold, Avenir Next" font-size="15" font-weight="500" fill="#354254"><tspan x="873" y="194">USA</tspan></text><g mask="url(#b)"><g transform="translate(916 181)"><mask id="h" fill="#fff"><use xlink:href="#f"/></mask><use fill="#FFF" xlink:href="#f"/><path fill="#435DB0" filter="url(#g)" mask="url(#h)" d="M0 0h9v7H0z"/><path d="M1 1v1h1V1H1zm2 0v1h1V1H3zm2 0v1h1V1H5zm2 0v1h1V1H7zM6 2v1h1V2H6zM4 2v1h1V2H4zM2 2v1h1V2H2zM1 3v1h1V3H1zm2 0v1h1V3H3zm2 0v1h1V3H5zm2 0v1h1V3H7zM1 5v1h1V5H1zm2 0v1h1V5H3zm2 0v1h1V5H5zm2 0v1h1V5H7zM6 4v1h1V4H6zM4 4v1h1V4H4zM2 4v1h1V4H2z" fill="#A7B6E7" mask="url(#h)"/><path d="M9 0v1h12V0H9zm0 2v1h12V2H9zm0 2v1h12V4H9zm0 2v1h12V6H9zM0 8v1h21V8H0zm0 2v1h21v-1H0zm0 2v1h21v-1H0zm0 2v1h21v-1H0z" fill="#ED4C49" mask="url(#h)"/><use stroke-opacity=".157" stroke="#2F343A" xlink:href="#i"/></g></g><text mask="url(#b)" font-family="AvenirNext-DemiBold, Avenir Next" font-size="15" font-weight="500" fill="#354254"><tspan x="35" y="98">AUSTRALIA</tspan></text><circle fill="#ADEDF7" mask="url(#b)" cx="520.5" cy="202.5" r="7.5"/><circle fill="#ADEDF7" mask="url(#b)" cx="334.5" cy="295.5" r="7.5"/><circle fill="#FFC111" mask="url(#b)" cx="195.5" cy="235.5" r="7.5"/><circle fill="#F15242" mask="url(#b)" cx="399.5" cy="139.5" r="7.5"/><circle fill="#6FD350" mask="url(#b)" cx="768.5" cy="264.5" r="7.5"/><circle fill="#00C3E4" mask="url(#b)" cx="661.5" cy="154.5" r="7.5"/><path d="M4.582 110.82h159.465l31.525 31.525v93.592" stroke="#FFC111" stroke-width="2" mask="url(#b)"/><text mask="url(#b)" font-family="AvenirNext-DemiBold, Avenir Next" font-size="15" font-weight="500" fill="#354254"><tspan x="238.5" y="23">CHINA</tspan></text><path d="M208.582 35.82h159.465l31.525 31.525v73.592" stroke="#F15242" stroke-width="2" mask="url(#b)"/><path d="M847.582 59.82H692.047l-30.475 31.525v63.592" stroke="#00C3E4" stroke-width="2" mask="url(#b)"/><path d="M939.582 208.82H799.047l-30.475 31.525v23.592" stroke="#6FD350" stroke-width="2" mask="url(#b)"/><g mask="url(#b)"><g transform="translate(6 85)"><mask id="l" fill="#fff"><use xlink:href="#j"/></mask><use fill="#1C36AD" filter="url(#k)" xlink:href="#j"/><path d="M5 11v-1h1v1h1v1H6v1H5v-1H4v-1h1zm9-8v1h1V3h-1zm3 1v1h1V4h-1zm-4 2v1h1V6h-1zm3 1v1h1V7h-1zm-1 3v1h1v-1h-1z" fill="#BDC4E7" mask="url(#l)"/><rect fill="#FFF" mask="url(#l)" x="1" y="1" width="9" height="7" rx="1"/><path d="M5 5H2V4h3V2h1v2h3v1H6v2H5V5zm2.5 1v1H9V6H7.5zm0-4v1H9V2H7.5zM2 6v1h1.5V6H2zm0-4v1h1.5V2H2z" fill="#D72342" mask="url(#l)"/><use stroke-opacity=".157" stroke="#2F343A" xlink:href="#m"/></g></g><g mask="url(#b)"><g transform="translate(209 10)"><mask id="o" fill="#fff"><use xlink:href="#n"/></mask><use fill="#CF2338" xlink:href="#n"/><path d="M2 5l3.077 1.846L4 10l2.5-2.333L9 10 7.923 6.846 11 5H2zm6 0H5l1.5-3L8 5z" fill="#FFD128" mask="url(#o)"/><path d="M12 3v1h1V3h-1zm1 2v1h1V5h-1zm0 2v1h1V7h-1zm-1 2v1h1V9h-1z" fill="#F8B92A" mask="url(#o)"/><use stroke-opacity=".157" stroke="#2F343A" xlink:href="#p"/></g></g></g></svg>