<svg xmlns="http://www.w3.org/2000/svg" width="67" height="79" viewBox="0 0 67 79">
  <g fill="none" fill-rule="evenodd">
    <polygon points="65.064 .074 66.851 .074 66.851 1.34 65.064 1.34"/>
    <polygon fill="#FFF" fill-rule="nonzero" points="2.308 60.97 31.713 75.933 60.002 60.97 60.002 2.457 2.308 2.457"/>
    <polygon fill="#F2F3F2" fill-rule="nonzero" points="60.598 2.68 1.712 62.012 32.234 77.124 60.598 62.608"/>
    <path fill="#DCDEDC" fill-rule="nonzero" d="M0.372222222,21.9611111 L0.372222222,62.2355556 L1.41444444,62.7566667 L30.82,77.72 L31.7133333,78.1666667 L32.6066667,77.72 L60.97,62.7566667 L62.0122222,62.2355556 L62.0122222,0.521111111 L0.372222222,0.521111111 L0.372222222,21.9611111 Z M2.30777778,61.1188889 L2.30777778,2.45666667 L60.0766667,2.45666667 L60.0766667,61.1188889 L31.7133333,76.0822222 L2.30777778,61.1188889 Z"/>
    <path fill="#FF492C" fill-rule="nonzero" d="M31.1922222,3.42444444 C31.49,3.42444444 31.7877778,3.42444444 32.0855556,3.49888889 L31.1922222,5.21111111 C29.8522222,5.13666667 28.6611111,6.17888889 28.5866667,7.51888889 C28.5122222,8.85888889 29.5544444,10.05 30.8944444,10.1244444 L31.1922222,10.1244444 C31.7877778,10.1244444 32.3833333,9.90111111 32.83,9.52888889 L33.7977778,11.1666667 C33.0533333,11.6877778 32.16,11.9855556 31.1922222,11.9855556 C28.81,12.06 26.8,10.2733333 26.7255556,7.89111111 C26.6511111,5.50888889 28.4377778,3.49888889 30.82,3.42444444 L31.1922222,3.42444444 Z M34.2444444,7.07222222 L35.3611111,8.93333333 L34.2444444,10.72 L33.2022222,8.93333333 L31.0433333,8.93333333 L32.16,7.07222222 L34.2444444,7.07222222 Z M32.4577778,6.40222222 C32.4577778,6.10444444 32.5322222,5.80666667 32.6811111,5.58333333 C32.83,5.36 33.1277778,5.13666667 33.3511111,4.98777778 L33.5,4.91333333 C33.7977778,4.76444444 33.8722222,4.69 33.8722222,4.54111111 C33.8722222,4.39222222 33.6488889,4.24333333 33.5,4.24333333 C33.2022222,4.24333333 32.9788889,4.39222222 32.83,4.69 L32.4577778,4.31777778 C32.5322222,4.16888889 32.6811111,4.02 32.83,3.87111111 C33.0533333,3.72222222 33.2766667,3.72222222 33.5,3.72222222 C33.7233333,3.72222222 34.0211111,3.79666667 34.17,3.94555556 C34.3188889,4.09444444 34.4677778,4.31777778 34.4677778,4.54111111 C34.4677778,4.91333333 34.2444444,5.21111111 33.7977778,5.36 L33.5744444,5.50888889 C33.3511111,5.65777778 33.2022222,5.73222222 33.1277778,5.95555556 L34.4677778,5.95555556 L34.4677778,6.47666667 L32.4577778,6.40222222 L32.4577778,6.40222222 Z M31.1922222,15.7077778 L38.2644444,11.6877778 L38.2644444,0.521111111 L24.0455556,0.521111111 L24.0455556,11.6133333 L31.1922222,15.7077778 Z"/>
    <g transform="translate(6.7 23.822)">
      <path fill="#252530" fill-rule="nonzero" d="M6.92333333,6.77444444 L6.92333333,0.223333333 C6.92333333,0.148888889 6.99777778,0.0744444444 7.07222222,0.0744444444 L8.78444444,0.0744444444 C8.85888889,0.0744444444 8.93333333,0.148888889 8.93333333,0.223333333 L8.93333333,6.77444444 C8.93333333,7.74222222 9.60333333,8.48666667 10.6455556,8.48666667 C11.6877778,8.48666667 12.3577778,7.81666667 12.3577778,6.77444444 L12.3577778,0.223333333 C12.3577778,0.148888889 12.4322222,0.0744444444 12.5066667,0.0744444444 L14.2188889,0.0744444444 C14.2933333,0.0744444444 14.3677778,0.148888889 14.3677778,0.223333333 L14.3677778,6.77444444 C14.3677778,8.85888889 12.8788889,10.1988889 10.6455556,10.1988889 C8.41222222,10.1988889 6.92333333,8.78444444 6.92333333,6.77444444 L6.92333333,6.77444444 Z M15.6333333,8.04 L15.6333333,7.89111111 C15.6333333,7.81666667 15.7077778,7.74222222 15.7822222,7.74222222 L17.3455556,7.74222222 C17.42,7.74222222 17.4944444,7.81666667 17.4944444,7.89111111 C17.4944444,8.33777778 18.0155556,8.63555556 18.76,8.63555556 C19.43,8.63555556 19.8766667,8.33777778 19.8766667,7.96555556 C19.8766667,7.37 18.76,7.37 17.7177778,6.99777778 C16.75,6.7 15.7077778,6.17888889 15.7077778,4.91333333 C15.7077778,3.49888889 16.8988889,2.60555556 18.76,2.60555556 C20.6211111,2.60555556 21.8122222,3.57333333 21.8122222,4.91333333 C21.8122222,4.98777778 21.7377778,5.06222222 21.6633333,5.06222222 L20.1,5.06222222 C20.0255556,5.06222222 19.9511111,4.98777778 19.9511111,4.91333333 C19.9511111,4.46666667 19.5044444,4.16888889 18.76,4.16888889 C18.1644444,4.16888889 17.7177778,4.39222222 17.7177778,4.83888889 C17.7177778,5.43444444 18.6855556,5.43444444 19.8022222,5.80666667 C20.9188889,6.10444444 22.0355556,6.62555556 22.0355556,7.96555556 C22.0355556,9.38 20.77,10.1988889 18.9088889,10.1988889 C16.8988889,10.1988889 15.6333333,9.30555556 15.6333333,8.04 L15.6333333,8.04 Z M29.7033333,6.84888889 C29.7033333,6.99777778 29.6288889,6.99777778 29.48,6.99777778 L25.0133333,6.99777778 C24.9388889,6.99777778 24.9388889,6.99777778 24.9388889,7.07222222 C24.9388889,7.29555556 25.0133333,7.44444444 25.0877778,7.66777778 C25.3111111,8.18888889 25.7577778,8.48666667 26.5766667,8.48666667 C27.2466667,8.48666667 27.6933333,8.18888889 28.0655556,7.74222222 C28.14,7.66777778 28.2144444,7.59333333 28.2888889,7.74222222 L29.3311111,8.78444444 C29.4055556,8.85888889 29.4055556,8.93333333 29.3311111,9.00777778 C28.6611111,9.82666667 27.6188889,10.2733333 26.4277778,10.2733333 C24.79,10.2733333 23.6733333,9.45444444 23.1522222,8.11444444 C22.9288889,7.59333333 22.8544444,7.07222222 22.8544444,6.32777778 C22.8544444,5.80666667 22.9288889,5.28555556 23.0777778,4.83888889 C23.5244444,3.49888889 24.6411111,2.60555556 26.2044444,2.60555556 C28.14,2.60555556 29.3311111,3.87111111 29.5544444,5.65777778 C29.7033333,6.03 29.7033333,6.40222222 29.7033333,6.84888889 L29.7033333,6.84888889 Z M25.0877778,5.13666667 C25.0133333,5.28555556 25.0133333,5.43444444 25.0133333,5.58333333 C25.0133333,5.65777778 25.0133333,5.65777778 25.0877778,5.65777778 L27.5444444,5.65777778 C27.6188889,5.65777778 27.6188889,5.65777778 27.6188889,5.58333333 C27.6188889,5.43444444 27.5444444,5.28555556 27.5444444,5.21111111 C27.3955556,4.61555556 26.9488889,4.31777778 26.2788889,4.31777778 C25.6833333,4.31777778 25.3111111,4.61555556 25.0877778,5.13666667 Z M35.51,2.82888889 C35.5844444,2.90333333 35.5844444,2.97777778 35.5844444,3.05222222 L35.2866667,4.69 C35.2866667,4.83888889 35.2122222,4.83888889 35.0633333,4.76444444 C34.84,4.69 34.5422222,4.69 34.2444444,4.69 C33.5744444,4.76444444 32.9788889,5.21111111 32.9788889,5.95555556 L32.9788889,9.90111111 C32.9788889,9.97555556 32.9044444,10.05 32.83,10.05 L31.1177778,10.05 C31.0433333,10.05 30.9688889,9.97555556 30.9688889,9.90111111 L30.9688889,2.90333333 C30.9688889,2.82888889 31.0433333,2.75444444 31.1177778,2.75444444 L32.83,2.75444444 C32.9044444,2.75444444 32.9788889,2.82888889 32.9788889,2.90333333 L32.9788889,3.42444444 C32.9788889,3.49888889 33.0533333,3.49888889 33.0533333,3.49888889 C33.4255556,2.97777778 33.9466667,2.60555556 34.6166667,2.60555556 C35.0633333,2.60555556 35.2866667,2.68 35.51,2.82888889 L35.51,2.82888889 Z M36.1055556,8.04 L36.1055556,7.89111111 C36.1055556,7.81666667 36.18,7.74222222 36.2544444,7.74222222 L37.8177778,7.74222222 C37.8922222,7.74222222 37.9666667,7.81666667 37.9666667,7.89111111 C37.9666667,8.33777778 38.4877778,8.63555556 39.2322222,8.63555556 C39.9022222,8.63555556 40.3488889,8.33777778 40.3488889,7.96555556 C40.3488889,7.37 39.2322222,7.37 38.19,6.99777778 C37.2222222,6.7 36.18,6.17888889 36.18,4.91333333 C36.18,3.49888889 37.3711111,2.60555556 39.2322222,2.60555556 C41.0933333,2.60555556 42.2844444,3.57333333 42.2844444,4.91333333 C42.2844444,4.98777778 42.21,5.06222222 42.1355556,5.06222222 L40.5722222,5.06222222 C40.4977778,5.06222222 40.4233333,4.98777778 40.4233333,4.91333333 C40.4233333,4.46666667 39.9766667,4.16888889 39.2322222,4.16888889 C38.6366667,4.16888889 38.19,4.39222222 38.19,4.83888889 C38.19,5.43444444 39.1577778,5.43444444 40.2744444,5.80666667 C41.3911111,6.10444444 42.5077778,6.62555556 42.5077778,7.96555556 C42.5077778,9.38 41.2422222,10.1988889 39.3811111,10.1988889 C37.3711111,10.1988889 36.1055556,9.30555556 36.1055556,8.04 L36.1055556,8.04 Z M0.446666667,21.9611111 L0.446666667,12.2833333 C0.446666667,12.2088889 0.521111111,12.1344444 0.595555556,12.1344444 L2.30777778,12.1344444 C2.38222222,12.1344444 2.45666667,12.2088889 2.45666667,12.2833333 L2.45666667,20.3233333 C2.45666667,20.3977778 2.45666667,20.3977778 2.53111111,20.3977778 L7.22111111,20.3977778 C7.29555556,20.3977778 7.37,20.4722222 7.37,20.5466667 L7.37,21.9611111 C7.37,22.0355556 7.29555556,22.11 7.22111111,22.11 L0.595555556,22.11 C0.521111111,22.11 0.446666667,22.0355556 0.446666667,21.9611111 Z M8.56111111,19.8766667 C8.41222222,19.43 8.33777778,18.9088889 8.33777778,18.3877778 C8.33777778,17.8666667 8.41222222,17.2711111 8.56111111,16.8988889 C9.00777778,15.4844444 10.1988889,14.6655556 11.8366667,14.6655556 C13.4,14.6655556 14.5911111,15.5588889 15.0377778,16.8988889 C15.1866667,17.3455556 15.2611111,17.8666667 15.2611111,18.3877778 C15.2611111,18.9088889 15.1866667,19.43 15.0377778,19.8022222 C14.5911111,21.2911111 13.4,22.1844444 11.8366667,22.1844444 C10.1988889,22.2588889 8.93333333,21.3655556 8.56111111,19.8766667 L8.56111111,19.8766667 Z M13.1022222,19.43 C13.1766667,19.1322222 13.2511111,18.76 13.2511111,18.4622222 C13.2511111,18.09 13.1766667,17.7177778 13.1022222,17.42 C12.8788889,16.75 12.4322222,16.3777778 11.8366667,16.3777778 C11.1666667,16.3777778 10.72,16.75 10.5711111,17.42 C10.4222222,17.6433333 10.4222222,18.0155556 10.4222222,18.4622222 C10.4222222,18.8344444 10.4222222,19.2066667 10.4966667,19.43 C10.72,20.1 11.1666667,20.4722222 11.8366667,20.4722222 C12.4322222,20.5466667 12.8788889,20.1 13.1022222,19.43 L13.1022222,19.43 Z M18.0155556,21.9611111 L15.7077778,14.8888889 C15.6333333,14.74 15.7077778,14.6655556 15.8566667,14.6655556 L17.7177778,14.6655556 C17.7922222,14.6655556 17.8666667,14.74 17.9411111,14.8144444 L19.1322222,19.1322222 C19.1322222,19.2066667 19.2066667,19.2066667 19.2066667,19.1322222 L20.3977778,14.8144444 C20.3977778,14.74 20.4722222,14.6655556 20.6211111,14.6655556 L22.4822222,14.6655556 C22.6311111,14.6655556 22.7055556,14.74 22.6311111,14.8888889 L20.3233333,21.8866667 C20.3233333,21.9611111 20.2488889,22.0355556 20.1,22.0355556 L18.2388889,22.0355556 C18.09,22.11 18.0155556,22.11 18.0155556,21.9611111 L18.0155556,21.9611111 Z M29.7777778,18.9088889 C29.7777778,19.0577778 29.7033333,19.0577778 29.5544444,19.0577778 L25.0877778,19.0577778 C25.0133333,19.0577778 25.0133333,19.0577778 25.0133333,19.1322222 C25.0133333,19.3555556 25.0877778,19.5044444 25.1622222,19.7277778 C25.3855556,20.2488889 25.8322222,20.5466667 26.6511111,20.5466667 C27.3211111,20.5466667 27.7677778,20.2488889 28.14,19.8022222 C28.2144444,19.7277778 28.2888889,19.6533333 28.3633333,19.8022222 L29.4055556,20.8444444 C29.48,20.9188889 29.48,20.9933333 29.4055556,21.0677778 C28.7355556,21.8866667 27.6933333,22.3333333 26.5022222,22.3333333 C24.8644444,22.3333333 23.7477778,21.5144444 23.2266667,20.1744444 C23.0033333,19.6533333 22.9288889,19.1322222 22.9288889,18.3877778 C22.9288889,17.8666667 23.0033333,17.3455556 23.1522222,16.8988889 C23.5988889,15.5588889 24.7155556,14.6655556 26.2788889,14.6655556 C28.2144444,14.6655556 29.4055556,15.9311111 29.6288889,17.7177778 C29.7777778,18.09 29.7777778,18.4622222 29.7777778,18.9088889 L29.7777778,18.9088889 Z M25.1622222,17.1966667 C25.0877778,17.3455556 25.0877778,17.4944444 25.0877778,17.6433333 C25.0877778,17.7177778 25.0877778,17.7177778 25.1622222,17.7177778 L27.6188889,17.7177778 C27.6933333,17.7177778 27.6933333,17.7177778 27.6933333,17.6433333 C27.6933333,17.4944444 27.6188889,17.3455556 27.6188889,17.2711111 C27.47,16.6755556 27.0233333,16.3777778 26.3533333,16.3777778 C25.6833333,16.3777778 25.3111111,16.6755556 25.1622222,17.1966667 L25.1622222,17.1966667 Z M33.9466667,18.8344444 L33.9466667,12.2833333 C33.9466667,12.2088889 34.0211111,12.1344444 34.0955556,12.1344444 L35.8077778,12.1344444 C35.8822222,12.1344444 35.9566667,12.2088889 35.9566667,12.2833333 L35.9566667,18.8344444 C35.9566667,19.8022222 36.6266667,20.5466667 37.6688889,20.5466667 C38.7111111,20.5466667 39.3811111,19.8766667 39.3811111,18.8344444 L39.3811111,12.2833333 C39.3811111,12.2088889 39.4555556,12.1344444 39.53,12.1344444 L41.2422222,12.1344444 C41.3166667,12.1344444 41.3911111,12.2088889 41.3911111,12.2833333 L41.3911111,18.8344444 C41.3911111,20.9188889 39.9022222,22.2588889 37.6688889,22.2588889 C35.4355556,22.2588889 33.9466667,20.8444444 33.9466667,18.8344444 Z M42.6566667,20.1 L42.6566667,19.9511111 C42.6566667,19.8766667 42.7311111,19.8022222 42.8055556,19.8022222 L44.3688889,19.8022222 C44.4433333,19.8022222 44.5177778,19.8766667 44.5177778,19.9511111 C44.5177778,20.3977778 45.0388889,20.6955556 45.7833333,20.6955556 C46.4533333,20.6955556 46.9,20.3977778 46.9,20.0255556 C46.9,19.43 45.7833333,19.43 44.7411111,19.0577778 C43.7733333,18.76 42.7311111,18.2388889 42.7311111,16.9733333 C42.7311111,15.5588889 43.9222222,14.6655556 45.7833333,14.6655556 C47.6444444,14.6655556 48.8355556,15.6333333 48.8355556,16.9733333 C48.8355556,17.0477778 48.7611111,17.1222222 48.6866667,17.1222222 L47.1233333,17.1222222 C47.0488889,17.1222222 46.9744444,17.0477778 46.9744444,16.9733333 C46.9744444,16.5266667 46.5277778,16.2288889 45.7833333,16.2288889 C45.1877778,16.2288889 44.7411111,16.4522222 44.7411111,16.8988889 C44.7411111,17.4944444 45.7088889,17.4944444 46.8255556,17.8666667 C47.9422222,18.1644444 49.0588889,18.6855556 49.0588889,20.0255556 C49.0588889,21.44 47.7933333,22.2588889 45.9322222,22.2588889 C43.9222222,22.2588889 42.6566667,21.3655556 42.6566667,20.1 L42.6566667,20.1 Z"/>
      <path fill="#DCDEDC" fill-rule="nonzero" d="M3.94555556,30.6711111 L18.8344444,30.6711111 L18.8344444,31.2666667 L3.94555556,31.2666667 L3.94555556,30.6711111 Z M30.5966667,30.6711111 L45.4855556,30.6711111 L45.4855556,31.2666667 L30.5966667,31.2666667 L30.5966667,30.6711111 Z"/>
      <polygon fill="#DCDEDC" points=".298 3.201 2.606 2.829 3.797 .521 4.913 2.754 7.37 3.201 5.658 4.913 6.03 7.37 3.797 6.328 1.563 7.37 1.861 4.913" transform="translate(20.844 26.8)"/>
    </g>
  </g>
</svg>
