<svg xmlns="http://www.w3.org/2000/svg" width="312" height="290" viewBox="0 0 312 290"><path d="M308 88h4v4h-4zm0-22h4v4h-4zm0-22h4v4h-4zm0-22h4v4h-4zm0-22h4v4h-4zm0 110h4v4h-4zm0 22h4v4h-4zm0 22h4v4h-4zm0 22h4v4h-4zm0 22h4v4h-4zm0 22h4v4h-4zm0 22h4v4h-4zm0 22h4v4h-4zM286 88h4v4h-4zm0-22h4v4h-4zm0-22h4v4h-4zm0-22h4v4h-4zm0-22h4v4h-4zm0 110h4v4h-4zm0 22h4v4h-4zm0 22h4v4h-4zm0 22h4v4h-4zm0 22h4v4h-4zm0 22h4v4h-4zm0 22h4v4h-4zm0 22h4v4h-4zM264 88h4v4h-4zm0-22h4v4h-4zm0-22h4v4h-4zm0-22h4v4h-4zm0-22h4v4h-4zm0 110h4v4h-4zm0 22h4v4h-4zm0 22h4v4h-4zm0 22h4v4h-4zm0 22h4v4h-4zm0 22h4v4h-4zm0 22h4v4h-4zm0 22h4v4h-4zM242 88h4v4h-4zm0-22h4v4h-4zm0-22h4v4h-4zm0-22h4v4h-4zm0-22h4v4h-4zm0 110h4v4h-4zm0 22h4v4h-4zm0 22h4v4h-4zm0 22h4v4h-4zm0 22h4v4h-4zm0 22h4v4h-4zm0 22h4v4h-4zm0 22h4v4h-4zM220 88h4v4h-4zm0-22h4v4h-4zm0-22h4v4h-4zm0-22h4v4h-4zm0-22h4v4h-4zm0 110h4v4h-4zm0 22h4v4h-4zm0 22h4v4h-4zm0 22h4v4h-4zm0 22h4v4h-4zm0 22h4v4h-4zm0 22h4v4h-4zm0 22h4v4h-4zM198 88h4v4h-4zm0-22h4v4h-4zm0-22h4v4h-4zm0-22h4v4h-4zm0-22h4v4h-4zm0 110h4v4h-4zm0 22h4v4h-4zm0 22h4v4h-4zm0 22h4v4h-4zm0 22h4v4h-4zm0 22h4v4h-4zm0 22h4v4h-4zm0 22h4v4h-4zM176 88h4v4h-4zm0-22h4v4h-4zm0-22h4v4h-4zm0-22h4v4h-4zm0-22h4v4h-4zm0 110h4v4h-4zm0 22h4v4h-4zm0 22h4v4h-4zm0 22h4v4h-4zm0 22h4v4h-4zm0 22h4v4h-4zm0 22h4v4h-4zm0 22h4v4h-4zM154 88h4v4h-4zm0-22h4v4h-4zm0-22h4v4h-4zm0-22h4v4h-4zm0-22h4v4h-4zm0 110h4v4h-4zm0 22h4v4h-4zm0 22h4v4h-4zm0 22h4v4h-4zm0 22h4v4h-4zm0 22h4v4h-4zm0 22h4v4h-4zm0 22h4v4h-4zM132 88h4v4h-4zm0-22h4v4h-4zm0-22h4v4h-4zm0-22h4v4h-4zm0-22h4v4h-4zm0 110h4v4h-4zm0 22h4v4h-4zm0 22h4v4h-4zm0 22h4v4h-4zm0 22h4v4h-4zm0 22h4v4h-4zm0 22h4v4h-4zm0 22h4v4h-4zM110 88h4v4h-4zm0-22h4v4h-4zm0-22h4v4h-4zm0-22h4v4h-4zm0-22h4v4h-4zm0 110h4v4h-4zm0 22h4v4h-4zm0 22h4v4h-4zm0 22h4v4h-4zm0 22h4v4h-4zm0 22h4v4h-4zm0 22h4v4h-4zm0 22h4v4h-4zM88 88h4v4h-4zm0-22h4v4h-4zm0-22h4v4h-4zm0-22h4v4h-4zm0-22h4v4h-4zm0 110h4v4h-4zm0 22h4v4h-4zm0 22h4v4h-4zm0 22h4v4h-4zm0 22h4v4h-4zm0 22h4v4h-4zm0 22h4v4h-4zm0 22h4v4h-4zM66 88h4v4h-4zm0-22h4v4h-4zm0-22h4v4h-4zm0-22h4v4h-4zm0-22h4v4h-4zm0 110h4v4h-4zm0 22h4v4h-4zm0 22h4v4h-4zm0 22h4v4h-4zm0 22h4v4h-4zm0 22h4v4h-4zm0 22h4v4h-4zm0 22h4v4h-4zM44 88h4v4h-4zm0-22h4v4h-4zm0-22h4v4h-4zm0-22h4v4h-4zm0-22h4v4h-4zm0 110h4v4h-4zm0 22h4v4h-4zm0 22h4v4h-4zm0 22h4v4h-4zm0 22h4v4h-4zm0 22h4v4h-4zm0 22h4v4h-4zm0 22h4v4h-4zM22 88h4v4h-4zm0-22h4v4h-4zm0-22h4v4h-4zm0-22h4v4h-4zm0-22h4v4h-4zm0 110h4v4h-4zm0 22h4v4h-4zm0 22h4v4h-4zm0 22h4v4h-4zm0 22h4v4h-4zm0 22h4v4h-4zm0 22h4v4h-4zm0 22h4v4h-4zM0 88h4v4H0zm0-22h4v4H0zm0-22h4v4H0zm0-22h4v4H0zM0 0h4v4H0zm0 110h4v4H0zm0 22h4v4H0zm0 22h4v4H0zm0 22h4v4H0zm0 22h4v4H0zm0 22h4v4H0zm0 22h4v4H0zm0 22h4v4H0zm88 22h4v4h-4zm-22 0h4v4h-4zm-22 0h4v4h-4zm-22 0h4v4h-4zm-22 0h4v4H0z" fill="#E1E1E1" fill-rule="evenodd" opacity=".5"/></svg>