<svg xmlns="http://www.w3.org/2000/svg" width="1078" height="180" viewBox="0 0 1078 180"><path d="M946 88h4v4h-4zm-22 0h4v4h-4zm0-22h4v4h-4zm0-22h4v4h-4zm22 22h4v4h-4zm20 22h4v4h-4zm0-22h4v4h-4zm-20-22h4v4h-4zm20 0h4v4h-4zm20 44h4v4h-4zm-62-66h4v4h-4zm62 44h4v4h-4zm0-22h4v4h-4zm-40-22h4v4h-4zm20 0h4v4h-4zm0-22h4v4h-4zm20 22h4v4h-4zM946 0h4v4h-4zm-22 0h4v4h-4zm62 0h4v4h-4zm-40 110h4v4h-4zm-22 0h4v4h-4zm42 0h4v4h-4zm20 0h4v4h-4zm-40 22h4v4h-4zm-22 0h4v4h-4zm22 22h4v4h-4zm20-22h4v4h-4zm0 22h4v4h-4zm20-22h4v4h-4zm-62 22h4v4h-4zm0 22h4v4h-4zm-22-88h4v4h-4zm0-22h4v4h-4zm0-22h4v4h-4zm0-22h4v4h-4zm0-22h4v4h-4zm0 110h4v4h-4zm0 22h4v4h-4zm0 22h4v4h-4zm0 22h4v4h-4zm-22-88h4v4h-4zm0-22h4v4h-4zm0-22h4v4h-4zm0-22h4v4h-4zm0-22h4v4h-4zm0 110h4v4h-4zm0 22h4v4h-4zm0 22h4v4h-4zm0 22h4v4h-4zm-22-88h4v4h-4zm0-22h4v4h-4zm0-22h4v4h-4zm0-22h4v4h-4zm0-22h4v4h-4zm0 110h4v4h-4zm0 22h4v4h-4zm0 22h4v4h-4zm0 22h4v4h-4zm-22-88h4v4h-4zm0-22h4v4h-4zm0-22h4v4h-4zm0-22h4v4h-4zm0-22h4v4h-4zm0 110h4v4h-4zm0 22h4v4h-4zm0 22h4v4h-4zm0 22h4v4h-4zm-22-88h4v4h-4zm0-22h4v4h-4zm0-22h4v4h-4zm0-22h4v4h-4zm0-22h4v4h-4zm0 110h4v4h-4zm0 22h4v4h-4zm0 22h4v4h-4zm0 22h4v4h-4zm-22-88h4v4h-4zm0-22h4v4h-4zm0-22h4v4h-4zm0-22h4v4h-4zm0-22h4v4h-4zm0 110h4v4h-4zm0 22h4v4h-4zm0 22h4v4h-4zm0 22h4v4h-4zm-22-88h4v4h-4zm0-22h4v4h-4zm0-22h4v4h-4zm0-22h4v4h-4zm0-22h4v4h-4zm0 110h4v4h-4zm0 22h4v4h-4zm0 22h4v4h-4zm0 22h4v4h-4zm-22-88h4v4h-4zm0-22h4v4h-4zm0-22h4v4h-4zm0-22h4v4h-4zm0-22h4v4h-4zm0 110h4v4h-4zm0 22h4v4h-4zm0 22h4v4h-4zm0 22h4v4h-4zm-22-88h4v4h-4zm0-22h4v4h-4zm0-22h4v4h-4zm0-22h4v4h-4zm0-22h4v4h-4zm0 110h4v4h-4zm0 22h4v4h-4zm0 22h4v4h-4zm0 22h4v4h-4zm-22-88h4v4h-4zm0-22h4v4h-4zm0-22h4v4h-4zm0-22h4v4h-4zm0-22h4v4h-4zm0 110h4v4h-4zm0 22h4v4h-4zm0 22h4v4h-4zm0 22h4v4h-4zm-22-88h4v4h-4zm0-22h4v4h-4zm0-22h4v4h-4zm0-22h4v4h-4zm0-22h4v4h-4zm0 110h4v4h-4zm0 22h4v4h-4zm0 22h4v4h-4zm0 22h4v4h-4zm-22-88h4v4h-4zm0-22h4v4h-4zm0-22h4v4h-4zm0-22h4v4h-4zm0-22h4v4h-4zm0 110h4v4h-4zm0 22h4v4h-4zm0 22h4v4h-4zm0 22h4v4h-4zm-22-88h4v4h-4zm0-22h4v4h-4zm0-22h4v4h-4zm0-22h4v4h-4zm0-22h4v4h-4zm0 110h4v4h-4zm0 22h4v4h-4zm0 22h4v4h-4zm0 22h4v4h-4zm-22-88h4v4h-4zm0-22h4v4h-4zm0-22h4v4h-4zm0-22h4v4h-4zm0-22h4v4h-4zm0 110h4v4h-4zm0 22h4v4h-4zm0 22h4v4h-4zm0 22h4v4h-4zm-22-88h4v4h-4zm0-22h4v4h-4zm0-22h4v4h-4zm0-22h4v4h-4zm0-22h4v4h-4zm0 110h4v4h-4zm0 22h4v4h-4zm0 22h4v4h-4zm0 22h4v4h-4zm-22-88h4v4h-4zm0-22h4v4h-4zm0-22h4v4h-4zm0-22h4v4h-4zm0-22h4v4h-4zm0 110h4v4h-4zm0 22h4v4h-4zm0 22h4v4h-4zm0 22h4v4h-4zm-22-88h4v4h-4zm0-22h4v4h-4zm0-22h4v4h-4zm0-22h4v4h-4zm0-22h4v4h-4zm0 110h4v4h-4zm0 22h4v4h-4zm0 22h4v4h-4zm0 22h4v4h-4zm-22-88h4v4h-4zm0-22h4v4h-4zm0-22h4v4h-4zm0-22h4v4h-4zm0-22h4v4h-4zm0 110h4v4h-4zm0 22h4v4h-4zm0 22h4v4h-4zm0 22h4v4h-4zm-22-88h4v4h-4zm0-22h4v4h-4zm0-22h4v4h-4zm0-22h4v4h-4zm0-22h4v4h-4zm0 110h4v4h-4zm0 22h4v4h-4zm0 22h4v4h-4zm0 22h4v4h-4zm-22-88h4v4h-4zm0-22h4v4h-4zm0-22h4v4h-4zm0-22h4v4h-4zm0-22h4v4h-4zm0 110h4v4h-4zm0 22h4v4h-4zm0 22h4v4h-4zm0 22h4v4h-4zm-22-88h4v4h-4zm0-22h4v4h-4zm0-22h4v4h-4zm0-22h4v4h-4zm0-22h4v4h-4zm0 110h4v4h-4zm0 22h4v4h-4zm0 22h4v4h-4zm0 22h4v4h-4zm-22-88h4v4h-4zm0-22h4v4h-4zm0-22h4v4h-4zm0-22h4v4h-4zm0-22h4v4h-4zm0 110h4v4h-4zm0 22h4v4h-4zm0 22h4v4h-4zm0 22h4v4h-4zm-22-88h4v4h-4zm0-22h4v4h-4zm0-22h4v4h-4zm0-22h4v4h-4zm0-22h4v4h-4zm0 110h4v4h-4zm0 22h4v4h-4zm0 22h4v4h-4zm0 22h4v4h-4zm-22-88h4v4h-4zm0-22h4v4h-4zm0-22h4v4h-4zm0-22h4v4h-4zm0-22h4v4h-4zm0 110h4v4h-4zm0 22h4v4h-4zm0 22h4v4h-4zm0 22h4v4h-4zm-22-88h4v4h-4zm0-22h4v4h-4zm0-22h4v4h-4zm0-22h4v4h-4zm0-22h4v4h-4zm0 110h4v4h-4zm0 22h4v4h-4zm0 22h4v4h-4zm0 22h4v4h-4zm-22-88h4v4h-4zm0-22h4v4h-4zm0-22h4v4h-4zm0-22h4v4h-4zm0-22h4v4h-4zm0 110h4v4h-4zm0 22h4v4h-4zm0 22h4v4h-4zm0 22h4v4h-4zm-22-88h4v4h-4zm0-22h4v4h-4zm0-22h4v4h-4zm0-22h4v4h-4zm0-22h4v4h-4zm0 110h4v4h-4zm0 22h4v4h-4zm0 22h4v4h-4zm0 22h4v4h-4zm-22-88h4v4h-4zm0-22h4v4h-4zm0-22h4v4h-4zm0-22h4v4h-4zm0-22h4v4h-4zm0 110h4v4h-4zm0 22h4v4h-4zm0 22h4v4h-4zm0 22h4v4h-4zm-22-88h4v4h-4zm0-22h4v4h-4zm0-22h4v4h-4zm0-22h4v4h-4zm0-22h4v4h-4zm0 110h4v4h-4zm0 22h4v4h-4zm0 22h4v4h-4zm0 22h4v4h-4zm-22-88h4v4h-4zm0-22h4v4h-4zm0-22h4v4h-4zm0-22h4v4h-4zm0-22h4v4h-4zm0 110h4v4h-4zm0 22h4v4h-4zm0 22h4v4h-4zm0 22h4v4h-4zm-22-88h4v4h-4zm0-22h4v4h-4zm0-22h4v4h-4zm0-22h4v4h-4zm0-22h4v4h-4zm0 110h4v4h-4zm0 22h4v4h-4zm0 22h4v4h-4zm0 22h4v4h-4zm-22-88h4v4h-4zm0-22h4v4h-4zm0-22h4v4h-4zm0-22h4v4h-4zm0-22h4v4h-4zm0 110h4v4h-4zm0 22h4v4h-4zm0 22h4v4h-4zm0 22h4v4h-4zm-22-88h4v4h-4zm0-22h4v4h-4zm0-22h4v4h-4zm0-22h4v4h-4zm0-22h4v4h-4zm0 110h4v4h-4zm0 22h4v4h-4zm0 22h4v4h-4zm0 22h4v4h-4zm-22-88h4v4h-4zm0-22h4v4h-4zm0-22h4v4h-4zm0-22h4v4h-4zm0-22h4v4h-4zm0 110h4v4h-4zm0 22h4v4h-4zm0 22h4v4h-4zm0 22h4v4h-4zm-22-88h4v4h-4zm0-22h4v4h-4zm0-22h4v4h-4zm0-22h4v4h-4zm0-22h4v4h-4zm0 110h4v4h-4zm0 22h4v4h-4zm0 22h4v4h-4zm0 22h4v4h-4zm-22-88h4v4h-4zm0-22h4v4h-4zm0-22h4v4h-4zm0-22h4v4h-4zm0-22h4v4h-4zm0 110h4v4h-4zm0 22h4v4h-4zm0 22h4v4h-4zm0 22h4v4h-4zm-22-88h4v4h-4zm0-22h4v4h-4zm0-22h4v4h-4zm0-22h4v4h-4zm0-22h4v4h-4zm0 110h4v4h-4zm0 22h4v4h-4zm0 22h4v4h-4zm0 22h4v4h-4zM88 88h4v4h-4zm0-22h4v4h-4zm0-22h4v4h-4zm0-22h4v4h-4zm0-22h4v4h-4zm0 110h4v4h-4zm0 22h4v4h-4zm0 22h4v4h-4zm0 22h4v4h-4zM66 88h4v4h-4zm0-22h4v4h-4zm0-22h4v4h-4zm0-22h4v4h-4zm0-22h4v4h-4zm0 110h4v4h-4zm0 22h4v4h-4zm0 22h4v4h-4zm0 22h4v4h-4zM44 88h4v4h-4zm0-22h4v4h-4zm0-22h4v4h-4zm0-22h4v4h-4zm0-22h4v4h-4zm0 110h4v4h-4zm0 22h4v4h-4zm0 22h4v4h-4zm0 22h4v4h-4zM22 88h4v4h-4zm0-22h4v4h-4zm0-22h4v4h-4zm0-22h4v4h-4zm0-22h4v4h-4zm0 110h4v4h-4zm0 22h4v4h-4zm0 22h4v4h-4zm0 22h4v4h-4zM0 88h4v4H0zm0-22h4v4H0zm0-22h4v4H0zm0-22h4v4H0zM0 0h4v4H0zm0 110h4v4H0zm0 22h4v4H0zm0 22h4v4H0zm0 22h4v4H0zm986-22h4v4h-4zm-40 22h4v4h-4zm20 0h4v4h-4zm20 0h4v4h-4zm22-88h4v4h-4zm0-22h4v4h-4zm0-22h4v4h-4zm0-22h4v4h-4zm0-22h4v4h-4zm0 110h4v4h-4zm0 22h4v4h-4zm0 22h4v4h-4zm0 22h4v4h-4zm22-88h4v4h-4zm0-22h4v4h-4zm0-22h4v4h-4zm0-22h4v4h-4zm0-22h4v4h-4zm0 110h4v4h-4zm0 22h4v4h-4zm0 22h4v4h-4zm0 22h4v4h-4zm22-88h4v4h-4zm0-22h4v4h-4zm0-22h4v4h-4zm0-22h4v4h-4zm0-22h4v4h-4zm0 110h4v4h-4zm0 22h4v4h-4zm0 22h4v4h-4zm0 22h4v4h-4zm22-88h4v4h-4zm0-22h4v4h-4zm0-22h4v4h-4zm0-22h4v4h-4zm0-22h4v4h-4zm0 110h4v4h-4zm0 22h4v4h-4zm0 22h4v4h-4zm0 22h4v4h-4z" fill="#E1E1E1" fill-rule="evenodd" opacity=".5"/></svg>