<svg xmlns="http://www.w3.org/2000/svg" width="1210" height="356" viewBox="0 0 1210 356"><path d="M946 88h4v4h-4zm-22 0h4v4h-4zm0-22h4v4h-4zm0-22h4v4h-4zm22 22h4v4h-4zm20 22h4v4h-4zm0-22h4v4h-4zm-20-22h4v4h-4zm20 0h4v4h-4zm20 44h4v4h-4zm-62-66h4v4h-4zm62 44h4v4h-4zm0-22h4v4h-4zm-40-22h4v4h-4zm20 0h4v4h-4zm0-22h4v4h-4zm20 22h4v4h-4zM946 0h4v4h-4zm-22 0h4v4h-4zm62 0h4v4h-4zm-40 110h4v4h-4zm-22 0h4v4h-4zm42 0h4v4h-4zm20 0h4v4h-4zm-40 22h4v4h-4zm-22 0h4v4h-4zm22 22h4v4h-4zm20-22h4v4h-4zm0 22h4v4h-4zm20-22h4v4h-4zm-62 22h4v4h-4zm0 110h4v4h-4zm0-88h4v4h-4zm0 22h4v4h-4zm0 22h4v4h-4zm0 22h4v4h-4zM902 88h4v4h-4zm0-22h4v4h-4zm0-22h4v4h-4zm0-22h4v4h-4zm0-22h4v4h-4zm0 110h4v4h-4zm0 22h4v4h-4zm0 22h4v4h-4zm0 110h4v4h-4zm0-88h4v4h-4zm0 22h4v4h-4zm0 22h4v4h-4zm0 22h4v4h-4zM880 88h4v4h-4zm0-22h4v4h-4zm0-22h4v4h-4zm0-22h4v4h-4zm0-22h4v4h-4zm0 110h4v4h-4zm0 22h4v4h-4zm0 22h4v4h-4zm0 110h4v4h-4zm0-88h4v4h-4zm0 22h4v4h-4zm0 22h4v4h-4zm0 22h4v4h-4zM858 88h4v4h-4zm0-22h4v4h-4zm0-22h4v4h-4zm0-22h4v4h-4zm0-22h4v4h-4zm0 110h4v4h-4zm0 22h4v4h-4zm0 22h4v4h-4zm0 110h4v4h-4zm0-88h4v4h-4zm0 22h4v4h-4zm0 22h4v4h-4zm0 22h4v4h-4zM836 88h4v4h-4zm0-22h4v4h-4zm0-22h4v4h-4zm0-22h4v4h-4zm0-22h4v4h-4zm0 110h4v4h-4zm0 22h4v4h-4zm0 22h4v4h-4zm0 110h4v4h-4zm0-88h4v4h-4zm0 22h4v4h-4zm0 22h4v4h-4zm0 22h4v4h-4zM814 88h4v4h-4zm0-22h4v4h-4zm0-22h4v4h-4zm0-22h4v4h-4zm0-22h4v4h-4zm0 110h4v4h-4zm0 22h4v4h-4zm0 22h4v4h-4zm0 110h4v4h-4zm0-88h4v4h-4zm0 22h4v4h-4zm0 22h4v4h-4zm0 22h4v4h-4zM792 88h4v4h-4zm0-22h4v4h-4zm0-22h4v4h-4zm0-22h4v4h-4zm0-22h4v4h-4zm0 110h4v4h-4zm0 22h4v4h-4zm0 22h4v4h-4zm0 110h4v4h-4zm0-88h4v4h-4zm0 22h4v4h-4zm0 22h4v4h-4zm0 22h4v4h-4zM770 88h4v4h-4zm0-22h4v4h-4zm0-22h4v4h-4zm0-22h4v4h-4zm0-22h4v4h-4zm0 110h4v4h-4zm0 22h4v4h-4zm0 22h4v4h-4zm0 110h4v4h-4zm0-88h4v4h-4zm0 22h4v4h-4zm0 22h4v4h-4zm0 22h4v4h-4zM748 88h4v4h-4zm0-22h4v4h-4zm0-22h4v4h-4zm0-22h4v4h-4zm0-22h4v4h-4zm0 110h4v4h-4zm0 22h4v4h-4zm0 22h4v4h-4zm0 110h4v4h-4zm0-88h4v4h-4zm0 22h4v4h-4zm0 22h4v4h-4zm0 22h4v4h-4zM726 88h4v4h-4zm0-22h4v4h-4zm0-22h4v4h-4zm0-22h4v4h-4zm0-22h4v4h-4zm0 110h4v4h-4zm0 22h4v4h-4zm0 22h4v4h-4zm0 110h4v4h-4zm0-88h4v4h-4zm0 22h4v4h-4zm0 22h4v4h-4zm0 22h4v4h-4zM704 88h4v4h-4zm0-22h4v4h-4zm0-22h4v4h-4zm0-22h4v4h-4zm0-22h4v4h-4zm0 110h4v4h-4zm0 22h4v4h-4zm0 22h4v4h-4zm0 110h4v4h-4zm0-88h4v4h-4zm0 22h4v4h-4zm0 22h4v4h-4zm0 22h4v4h-4zM682 88h4v4h-4zm0-22h4v4h-4zm0-22h4v4h-4zm0-22h4v4h-4zm0-22h4v4h-4zm0 110h4v4h-4zm0 22h4v4h-4zm0 22h4v4h-4zm0 110h4v4h-4zm0-88h4v4h-4zm0 22h4v4h-4zm0 22h4v4h-4zm0 22h4v4h-4zM660 88h4v4h-4zm0-22h4v4h-4zm0-22h4v4h-4zm0-22h4v4h-4zm0-22h4v4h-4zm0 110h4v4h-4zm0 22h4v4h-4zm0 22h4v4h-4zm0 110h4v4h-4zm0-88h4v4h-4zm0 22h4v4h-4zm0 22h4v4h-4zm0 22h4v4h-4zM638 88h4v4h-4zm0-22h4v4h-4zm0-22h4v4h-4zm0-22h4v4h-4zm0-22h4v4h-4zm0 110h4v4h-4zm0 22h4v4h-4zm0 22h4v4h-4zm0 110h4v4h-4zm0-88h4v4h-4zm0 22h4v4h-4zm0 22h4v4h-4zm0 22h4v4h-4zM616 88h4v4h-4zm0-22h4v4h-4zm0-22h4v4h-4zm0-22h4v4h-4zm0-22h4v4h-4zm0 110h4v4h-4zm0 22h4v4h-4zm0 22h4v4h-4zm0 22h4v4h-4zm0 22h4v4h-4zm0 22h4v4h-4zm0 22h4v4h-4zm0 22h4v4h-4zM594 88h4v4h-4zm0-22h4v4h-4zm0-22h4v4h-4zm0-22h4v4h-4zm0-22h4v4h-4zm0 110h4v4h-4zm0 22h4v4h-4zm0 22h4v4h-4zm0 22h4v4h-4zm0 22h4v4h-4zm0 22h4v4h-4zm0 22h4v4h-4zm0 22h4v4h-4zM572 88h4v4h-4zm0-22h4v4h-4zm0-22h4v4h-4zm0-22h4v4h-4zm0-22h4v4h-4zm0 110h4v4h-4zm0 22h4v4h-4zm0 22h4v4h-4zm0 22h4v4h-4zm0 22h4v4h-4zm0 22h4v4h-4zm0 22h4v4h-4zm0 22h4v4h-4zM550 88h4v4h-4zm0-22h4v4h-4zm0-22h4v4h-4zm0-22h4v4h-4zm0-22h4v4h-4zm0 110h4v4h-4zm0 22h4v4h-4zm0 22h4v4h-4zm0 22h4v4h-4zm0 22h4v4h-4zm0 22h4v4h-4zm0 22h4v4h-4zm0 22h4v4h-4zM528 88h4v4h-4zm0-22h4v4h-4zm0-22h4v4h-4zm0-22h4v4h-4zm0-22h4v4h-4zm0 110h4v4h-4zm0 22h4v4h-4zm0 22h4v4h-4zm0 22h4v4h-4zm0 22h4v4h-4zm0 22h4v4h-4zm0 22h4v4h-4zm0 22h4v4h-4zM506 88h4v4h-4zm0-22h4v4h-4zm0-22h4v4h-4zm0-22h4v4h-4zm0-22h4v4h-4zm0 110h4v4h-4zm0 22h4v4h-4zm0 22h4v4h-4zm0 22h4v4h-4zm0 22h4v4h-4zm0 22h4v4h-4zm0 22h4v4h-4zm0 22h4v4h-4zM484 88h4v4h-4zm0-22h4v4h-4zm0-22h4v4h-4zm0-22h4v4h-4zm0-22h4v4h-4zm0 110h4v4h-4zm0 22h4v4h-4zm0 22h4v4h-4zm0 22h4v4h-4zm0 22h4v4h-4zm0 22h4v4h-4zm0 22h4v4h-4zm0 22h4v4h-4zM462 88h4v4h-4zm0-22h4v4h-4zm0-22h4v4h-4zm0-22h4v4h-4zm0-22h4v4h-4zm0 110h4v4h-4zm0 22h4v4h-4zm0 22h4v4h-4zm0 22h4v4h-4zm0 22h4v4h-4zm0 22h4v4h-4zm0 22h4v4h-4zm0 22h4v4h-4zM440 88h4v4h-4zm0-22h4v4h-4zm0-22h4v4h-4zm0-22h4v4h-4zm0-22h4v4h-4zm0 110h4v4h-4zm0 22h4v4h-4zm0 22h4v4h-4zm0 22h4v4h-4zm0 22h4v4h-4zm0 22h4v4h-4zm0 22h4v4h-4zm0 22h4v4h-4zM418 88h4v4h-4zm0-22h4v4h-4zm0-22h4v4h-4zm0-22h4v4h-4zm0-22h4v4h-4zm0 110h4v4h-4zm0 22h4v4h-4zm0 22h4v4h-4zm0 22h4v4h-4zm0 22h4v4h-4zm0 22h4v4h-4zm0 22h4v4h-4zm0 22h4v4h-4zM396 88h4v4h-4zm0-22h4v4h-4zm0-22h4v4h-4zm0-22h4v4h-4zm0-22h4v4h-4zm0 110h4v4h-4zm0 22h4v4h-4zm0 22h4v4h-4zm0 22h4v4h-4zm0 22h4v4h-4zm0 22h4v4h-4zm0 22h4v4h-4zm0 22h4v4h-4zM374 88h4v4h-4zm0-22h4v4h-4zm0-22h4v4h-4zm0-22h4v4h-4zm0-22h4v4h-4zm0 110h4v4h-4zm0 22h4v4h-4zm0 22h4v4h-4zm0 22h4v4h-4zm0 22h4v4h-4zm0 22h4v4h-4zm0 22h4v4h-4zm0 22h4v4h-4zM352 88h4v4h-4zm0-22h4v4h-4zm0-22h4v4h-4zm0-22h4v4h-4zm0-22h4v4h-4zm0 110h4v4h-4zm0 22h4v4h-4zm0 22h4v4h-4zm0 22h4v4h-4zm0 22h4v4h-4zm0 22h4v4h-4zm0 22h4v4h-4zm0 22h4v4h-4zM330 88h4v4h-4zm0-22h4v4h-4zm0-22h4v4h-4zm0-22h4v4h-4zm0-22h4v4h-4zm0 110h4v4h-4zm0 22h4v4h-4zm0 22h4v4h-4zm0 22h4v4h-4zm0 22h4v4h-4zm0 22h4v4h-4zm0 22h4v4h-4zm0 22h4v4h-4zM308 88h4v4h-4zm0-22h4v4h-4zm0-22h4v4h-4zm0-22h4v4h-4zm0-22h4v4h-4zm0 110h4v4h-4zm0 22h4v4h-4zm0 22h4v4h-4zm0 22h4v4h-4zm0 22h4v4h-4zm0 22h4v4h-4zm0 22h4v4h-4zm0 22h4v4h-4zM286 88h4v4h-4zm0-22h4v4h-4zm0-22h4v4h-4zm0-22h4v4h-4zm0-22h4v4h-4zm0 110h4v4h-4zm0 22h4v4h-4zm0 22h4v4h-4zm0 22h4v4h-4zm0 22h4v4h-4zm0 22h4v4h-4zm0 22h4v4h-4zm0 22h4v4h-4zM264 88h4v4h-4zm0-22h4v4h-4zm0-22h4v4h-4zm0-22h4v4h-4zm0-22h4v4h-4zm0 110h4v4h-4zm0 22h4v4h-4zm0 22h4v4h-4zm0 22h4v4h-4zm0 22h4v4h-4zm0 22h4v4h-4zm0 22h4v4h-4zm0 22h4v4h-4zM242 88h4v4h-4zm0-22h4v4h-4zm0-22h4v4h-4zm0-22h4v4h-4zm0-22h4v4h-4zm0 110h4v4h-4zm0 22h4v4h-4zm0 22h4v4h-4zm0 22h4v4h-4zm0 22h4v4h-4zm0 22h4v4h-4zm0 22h4v4h-4zm0 22h4v4h-4zM220 88h4v4h-4zm0-22h4v4h-4zm0-22h4v4h-4zm0-22h4v4h-4zm0-22h4v4h-4zm0 110h4v4h-4zm0 22h4v4h-4zm0 22h4v4h-4zm0 22h4v4h-4zm0 22h4v4h-4zm0 22h4v4h-4zm0 22h4v4h-4zm0 22h4v4h-4zM198 88h4v4h-4zm0-22h4v4h-4zm0-22h4v4h-4zm0-22h4v4h-4zm0-22h4v4h-4zm0 110h4v4h-4zm0 22h4v4h-4zm0 22h4v4h-4zm0 22h4v4h-4zm0 22h4v4h-4zm0 22h4v4h-4zm0 22h4v4h-4zm0 22h4v4h-4zM176 88h4v4h-4zm0-22h4v4h-4zm0-22h4v4h-4zm0-22h4v4h-4zm0-22h4v4h-4zm0 110h4v4h-4zm0 22h4v4h-4zm0 22h4v4h-4zm0 22h4v4h-4zm0 22h4v4h-4zm0 22h4v4h-4zm0 22h4v4h-4zm0 22h4v4h-4zM154 88h4v4h-4zm0-22h4v4h-4zm0-22h4v4h-4zm0-22h4v4h-4zm0-22h4v4h-4zm0 110h4v4h-4zm0 22h4v4h-4zm0 22h4v4h-4zm0 22h4v4h-4zm0 22h4v4h-4zm0 22h4v4h-4zm0 22h4v4h-4zm0 22h4v4h-4zM132 88h4v4h-4zm0-22h4v4h-4zm0-22h4v4h-4zm0-22h4v4h-4zm0-22h4v4h-4zm0 110h4v4h-4zm0 22h4v4h-4zm0 22h4v4h-4zm0 22h4v4h-4zm0 22h4v4h-4zm0 22h4v4h-4zm0 22h4v4h-4zm0 22h4v4h-4zM110 88h4v4h-4zm0-22h4v4h-4zm0-22h4v4h-4zm0-22h4v4h-4zm0-22h4v4h-4zm0 110h4v4h-4zm0 22h4v4h-4zm0 22h4v4h-4zm0 22h4v4h-4zm0 22h4v4h-4zm0 22h4v4h-4zm0 22h4v4h-4zm0 22h4v4h-4zM88 88h4v4h-4zm0-22h4v4h-4zm0-22h4v4h-4zm0-22h4v4h-4zm0-22h4v4h-4zm0 110h4v4h-4zm0 22h4v4h-4zm0 22h4v4h-4zm0 22h4v4h-4zm0 22h4v4h-4zm0 22h4v4h-4zm0 22h4v4h-4zm0 22h4v4h-4zM66 88h4v4h-4zm0-22h4v4h-4zm0-22h4v4h-4zm0-22h4v4h-4zm0-22h4v4h-4zm0 110h4v4h-4zm0 22h4v4h-4zm0 22h4v4h-4zm0 22h4v4h-4zm0 22h4v4h-4zm0 22h4v4h-4zm0 22h4v4h-4zm0 22h4v4h-4zM44 88h4v4h-4zm0-22h4v4h-4zm0-22h4v4h-4zm0-22h4v4h-4zm0-22h4v4h-4zm0 110h4v4h-4zm0 22h4v4h-4zm0 22h4v4h-4zm0 22h4v4h-4zm0 22h4v4h-4zm0 22h4v4h-4zm0 22h4v4h-4zm0 22h4v4h-4zM22 88h4v4h-4zm0-22h4v4h-4zm0-22h4v4h-4zm0-22h4v4h-4zm0-22h4v4h-4zm0 110h4v4h-4zm0 22h4v4h-4zm0 22h4v4h-4zm0 22h4v4h-4zm0 22h4v4h-4zm0 22h4v4h-4zm0 22h4v4h-4zm0 22h4v4h-4zM0 88h4v4H0zm0-22h4v4H0zm0-22h4v4H0zm0-22h4v4H0zM0 0h4v4H0zm0 110h4v4H0zm0 22h4v4H0zm0 22h4v4H0zm0 22h4v4H0zm0 22h4v4H0zm0 22h4v4H0zm0 22h4v4H0zm0 22h4v4H0zm396 22h4v4h-4zm-22 0h4v4h-4zm-22 0h4v4h-4zm-22 0h4v4h-4zm-22 0h4v4h-4zm-22 0h4v4h-4zm-22 0h4v4h-4zm-22 0h4v4h-4zm-22 0h4v4h-4zm-22 0h4v4h-4zm-22 0h4v4h-4zm-22 0h4v4h-4zm-22 0h4v4h-4zm-22 0h4v4h-4zm-22 0h4v4h-4zm-22 0h4v4h-4zm-22 0h4v4h-4zm-22 0h4v4h-4zm-22 0h4v4H0zm286 22h4v4h-4zm-22 0h4v4h-4zm-22 0h4v4h-4zm-22 0h4v4h-4zm-22 0h4v4h-4zm-22 0h4v4h-4zm-22 0h4v4h-4zm-22 0h4v4h-4zm-22 0h4v4h-4zm-22 0h4v4h-4zm-22 0h4v4h-4zm-22 0h4v4h-4zm-22 0h4v4h-4zm-22 0h4v4H0zm88 22h4v4h-4zm-22 0h4v4h-4zm-22 0h4v4h-4zm-22 0h4v4h-4zm-22 0h4v4H0zm0 22h4v4H0zm986-198h4v4h-4zm-40 22h4v4h-4zm20 0h4v4h-4zm20 0h4v4h-4zm-40 22h4v4h-4zm20 0h4v4h-4zm0 22h4v4h-4zm20-22h4v4h-4zm-40 22h4v4h-4zm20 44h4v4h-4zm-20 0h4v4h-4zm40 0h4v4h-4zm0-44h4v4h-4zm-20 22h4v4h-4zm-20 0h4v4h-4zm40 0h4v4h-4zm22-154h4v4h-4zm0-22h4v4h-4zm0-22h4v4h-4zm0-22h4v4h-4zm0-22h4v4h-4zm0 110h4v4h-4zm0 22h4v4h-4zm0 22h4v4h-4zm0 110h4v4h-4zm0-88h4v4h-4zm0 22h4v4h-4zm0 22h4v4h-4zm0 22h4v4h-4zm22-154h4v4h-4zm0-22h4v4h-4zm0-22h4v4h-4zm0-22h4v4h-4zm0-22h4v4h-4zm0 110h4v4h-4zm0 22h4v4h-4zm0 22h4v4h-4zm0 110h4v4h-4zm0-88h4v4h-4zm0 22h4v4h-4zm0 22h4v4h-4zm0 22h4v4h-4zm22-154h4v4h-4zm0-22h4v4h-4zm0-22h4v4h-4zm0-22h4v4h-4zm0-22h4v4h-4zm0 110h4v4h-4zm0 22h4v4h-4zm0 22h4v4h-4zm0 110h4v4h-4zm0-88h4v4h-4zm0 22h4v4h-4zm0 22h4v4h-4zm0 22h4v4h-4zm22-154h4v4h-4zm0-22h4v4h-4zm0-22h4v4h-4zm0-22h4v4h-4zm0-22h4v4h-4zm0 110h4v4h-4zm0 22h4v4h-4zm0 22h4v4h-4zm0 110h4v4h-4zm0-88h4v4h-4zm0 22h4v4h-4zm0 22h4v4h-4zm0 22h4v4h-4zm22-154h4v4h-4zm0-22h4v4h-4zm0-22h4v4h-4zm0-22h4v4h-4zm0-22h4v4h-4zm0 110h4v4h-4zm0 22h4v4h-4zm0 22h4v4h-4zm0 110h4v4h-4zm0-88h4v4h-4zm0 22h4v4h-4zm0 22h4v4h-4zm0 22h4v4h-4zm22-154h4v4h-4zm0-22h4v4h-4zm0-22h4v4h-4zm0-22h4v4h-4zm0-22h4v4h-4zm0 110h4v4h-4zm0 22h4v4h-4zm0 22h4v4h-4zm0 110h4v4h-4zm0-88h4v4h-4zm0 22h4v4h-4zm0 22h4v4h-4zm0 22h4v4h-4zm22-154h4v4h-4zm0-22h4v4h-4zm0-22h4v4h-4zm0-22h4v4h-4zm0-22h4v4h-4zm0 110h4v4h-4zm0 22h4v4h-4zm0 22h4v4h-4zm0 22h4v4h-4zm0 22h4v4h-4zm0 22h4v4h-4zm0 22h4v4h-4zm0 22h4v4h-4zm22-176h4v4h-4zm0-22h4v4h-4zm0-22h4v4h-4zm0-22h4v4h-4zm0-22h4v4h-4zm0 110h4v4h-4zm0 22h4v4h-4zm0 22h4v4h-4zm0 22h4v4h-4zm0 22h4v4h-4zm0 22h4v4h-4zm0 22h4v4h-4zm0 22h4v4h-4zm22-176h4v4h-4zm0-22h4v4h-4zm0-22h4v4h-4zm0-22h4v4h-4zm0-22h4v4h-4zm0 110h4v4h-4zm0 22h4v4h-4zm0 22h4v4h-4zm0 22h4v4h-4zm0 22h4v4h-4zm0 22h4v4h-4zm0 22h4v4h-4zm0 22h4v4h-4zm22-176h4v4h-4zm0-22h4v4h-4zm0-22h4v4h-4zm0-22h4v4h-4zm0-22h4v4h-4zm0 110h4v4h-4zm0 22h4v4h-4zm0 22h4v4h-4zm0 22h4v4h-4zm0 22h4v4h-4zm0 22h4v4h-4zm0 22h4v4h-4zm0 22h4v4h-4z" fill="#E1E1E1" fill-rule="evenodd" opacity=".7"/></svg>