<svg xmlns="http://www.w3.org/2000/svg" width="1210" height="356" viewBox="0 0 1210 356"><path d="M264 88h-4v4h4zm22 0h-4v4h4zm0-22h-4v4h4zm0-22h-4v4h4zm-22 22h-4v4h4zm-20 22h-4v4h4zm0-22h-4v4h4zm20-22h-4v4h4zm-20 0h-4v4h4zm-20 44h-4v4h4zm62-66h-4v4h4zm-62 44h-4v4h4zm0-22h-4v4h4zm40-22h-4v4h4zm-20 0h-4v4h4zm0-22h-4v4h4zm-20 22h-4v4h4zm40-22h-4v4h4zm22 0h-4v4h4zm-62 0h-4v4h4zm40 110h-4v4h4zm22 0h-4v4h4zm-42 0h-4v4h4zm-20 0h-4v4h4zm40 22h-4v4h4zm22 0h-4v4h4zm-22 22h-4v4h4zm-20-22h-4v4h4zm0 22h-4v4h4zm-20-22h-4v4h4zm62 22h-4v4h4zm0 110h-4v4h4zm0-88h-4v4h4zm0 22h-4v4h4zm0 22h-4v4h4zm0 22h-4v4h4zm22-154h-4v4h4zm0-22h-4v4h4zm0-22h-4v4h4zm0-22h-4v4h4zm0-22h-4v4h4zm0 110h-4v4h4zm0 22h-4v4h4zm0 22h-4v4h4zm0 110h-4v4h4zm0-88h-4v4h4zm0 22h-4v4h4zm0 22h-4v4h4zm0 22h-4v4h4zm22-154h-4v4h4zm0-22h-4v4h4zm0-22h-4v4h4zm0-22h-4v4h4zm0-22h-4v4h4zm0 110h-4v4h4zm0 22h-4v4h4zm0 22h-4v4h4zm0 110h-4v4h4zm0-88h-4v4h4zm0 22h-4v4h4zm0 22h-4v4h4zm0 22h-4v4h4zm22-154h-4v4h4zm0-22h-4v4h4zm0-22h-4v4h4zm0-22h-4v4h4zm0-22h-4v4h4zm0 110h-4v4h4zm0 22h-4v4h4zm0 22h-4v4h4zm0 110h-4v4h4zm0-88h-4v4h4zm0 22h-4v4h4zm0 22h-4v4h4zm0 22h-4v4h4zm22-154h-4v4h4zm0-22h-4v4h4zm0-22h-4v4h4zm0-22h-4v4h4zm0-22h-4v4h4zm0 110h-4v4h4zm0 22h-4v4h4zm0 22h-4v4h4zm0 110h-4v4h4zm0-88h-4v4h4zm0 22h-4v4h4zm0 22h-4v4h4zm0 22h-4v4h4zm22-154h-4v4h4zm0-22h-4v4h4zm0-22h-4v4h4zm0-22h-4v4h4zm0-22h-4v4h4zm0 110h-4v4h4zm0 22h-4v4h4zm0 22h-4v4h4zm0 110h-4v4h4zm0-88h-4v4h4zm0 22h-4v4h4zm0 22h-4v4h4zm0 22h-4v4h4zm22-154h-4v4h4zm0-22h-4v4h4zm0-22h-4v4h4zm0-22h-4v4h4zm0-22h-4v4h4zm0 110h-4v4h4zm0 22h-4v4h4zm0 22h-4v4h4zm0 110h-4v4h4zm0-88h-4v4h4zm0 22h-4v4h4zm0 22h-4v4h4zm0 22h-4v4h4zm22-154h-4v4h4zm0-22h-4v4h4zm0-22h-4v4h4zm0-22h-4v4h4zm0-22h-4v4h4zm0 110h-4v4h4zm0 22h-4v4h4zm0 22h-4v4h4zm0 110h-4v4h4zm0-88h-4v4h4zm0 22h-4v4h4zm0 22h-4v4h4zm0 22h-4v4h4zm22-154h-4v4h4zm0-22h-4v4h4zm0-22h-4v4h4zm0-22h-4v4h4zm0-22h-4v4h4zm0 110h-4v4h4zm0 22h-4v4h4zm0 22h-4v4h4zm0 110h-4v4h4zm0-88h-4v4h4zm0 22h-4v4h4zm0 22h-4v4h4zm0 22h-4v4h4zm22-154h-4v4h4zm0-22h-4v4h4zm0-22h-4v4h4zm0-22h-4v4h4zm0-22h-4v4h4zm0 110h-4v4h4zm0 22h-4v4h4zm0 22h-4v4h4zm0 110h-4v4h4zm0-88h-4v4h4zm0 22h-4v4h4zm0 22h-4v4h4zm0 22h-4v4h4zm22-154h-4v4h4zm0-22h-4v4h4zm0-22h-4v4h4zm0-22h-4v4h4zm0-22h-4v4h4zm0 110h-4v4h4zm0 22h-4v4h4zm0 22h-4v4h4zm0 110h-4v4h4zm0-88h-4v4h4zm0 22h-4v4h4zm0 22h-4v4h4zm0 22h-4v4h4zm22-154h-4v4h4zm0-22h-4v4h4zm0-22h-4v4h4zm0-22h-4v4h4zm0-22h-4v4h4zm0 110h-4v4h4zm0 22h-4v4h4zm0 22h-4v4h4zm0 110h-4v4h4zm0-88h-4v4h4zm0 22h-4v4h4zm0 22h-4v4h4zm0 22h-4v4h4zm22-154h-4v4h4zm0-22h-4v4h4zm0-22h-4v4h4zm0-22h-4v4h4zm0-22h-4v4h4zm0 110h-4v4h4zm0 22h-4v4h4zm0 22h-4v4h4zm0 110h-4v4h4zm0-88h-4v4h4zm0 22h-4v4h4zm0 22h-4v4h4zm0 22h-4v4h4zm22-154h-4v4h4zm0-22h-4v4h4zm0-22h-4v4h4zm0-22h-4v4h4zm0-22h-4v4h4zm0 110h-4v4h4zm0 22h-4v4h4zm0 22h-4v4h4zm0 110h-4v4h4zm0-88h-4v4h4zm0 22h-4v4h4zm0 22h-4v4h4zm0 22h-4v4h4zm22-154h-4v4h4zm0-22h-4v4h4zm0-22h-4v4h4zm0-22h-4v4h4zm0-22h-4v4h4zm0 110h-4v4h4zm0 22h-4v4h4zm0 22h-4v4h4zm0 22h-4v4h4zm0 22h-4v4h4zm0 22h-4v4h4zm0 22h-4v4h4zm0 22h-4v4h4zm22-176h-4v4h4zm0-22h-4v4h4zm0-22h-4v4h4zm0-22h-4v4h4zm0-22h-4v4h4zm0 110h-4v4h4zm0 22h-4v4h4zm0 22h-4v4h4zm0 22h-4v4h4zm0 22h-4v4h4zm0 22h-4v4h4zm0 22h-4v4h4zm0 22h-4v4h4zm22-176h-4v4h4zm0-22h-4v4h4zm0-22h-4v4h4zm0-22h-4v4h4zm0-22h-4v4h4zm0 110h-4v4h4zm0 22h-4v4h4zm0 22h-4v4h4zm0 22h-4v4h4zm0 22h-4v4h4zm0 22h-4v4h4zm0 22h-4v4h4zm0 22h-4v4h4zm22-176h-4v4h4zm0-22h-4v4h4zm0-22h-4v4h4zm0-22h-4v4h4zm0-22h-4v4h4zm0 110h-4v4h4zm0 22h-4v4h4zm0 22h-4v4h4zm0 22h-4v4h4zm0 22h-4v4h4zm0 22h-4v4h4zm0 22h-4v4h4zm0 22h-4v4h4zm22-176h-4v4h4zm0-22h-4v4h4zm0-22h-4v4h4zm0-22h-4v4h4zm0-22h-4v4h4zm0 110h-4v4h4zm0 22h-4v4h4zm0 22h-4v4h4zm0 22h-4v4h4zm0 22h-4v4h4zm0 22h-4v4h4zm0 22h-4v4h4zm0 22h-4v4h4zm22-176h-4v4h4zm0-22h-4v4h4zm0-22h-4v4h4zm0-22h-4v4h4zm0-22h-4v4h4zm0 110h-4v4h4zm0 22h-4v4h4zm0 22h-4v4h4zm0 22h-4v4h4zm0 22h-4v4h4zm0 22h-4v4h4zm0 22h-4v4h4zm0 22h-4v4h4zm22-176h-4v4h4zm0-22h-4v4h4zm0-22h-4v4h4zm0-22h-4v4h4zm0-22h-4v4h4zm0 110h-4v4h4zm0 22h-4v4h4zm0 22h-4v4h4zm0 22h-4v4h4zm0 22h-4v4h4zm0 22h-4v4h4zm0 22h-4v4h4zm0 22h-4v4h4zm22-176h-4v4h4zm0-22h-4v4h4zm0-22h-4v4h4zm0-22h-4v4h4zm0-22h-4v4h4zm0 110h-4v4h4zm0 22h-4v4h4zm0 22h-4v4h4zm0 22h-4v4h4zm0 22h-4v4h4zm0 22h-4v4h4zm0 22h-4v4h4zm0 22h-4v4h4zm22-176h-4v4h4zm0-22h-4v4h4zm0-22h-4v4h4zm0-22h-4v4h4zm0-22h-4v4h4zm0 110h-4v4h4zm0 22h-4v4h4zm0 22h-4v4h4zm0 22h-4v4h4zm0 22h-4v4h4zm0 22h-4v4h4zm0 22h-4v4h4zm0 22h-4v4h4zm22-176h-4v4h4zm0-22h-4v4h4zm0-22h-4v4h4zm0-22h-4v4h4zm0-22h-4v4h4zm0 110h-4v4h4zm0 22h-4v4h4zm0 22h-4v4h4zm0 22h-4v4h4zm0 22h-4v4h4zm0 22h-4v4h4zm0 22h-4v4h4zm0 22h-4v4h4zm22-176h-4v4h4zm0-22h-4v4h4zm0-22h-4v4h4zm0-22h-4v4h4zm0-22h-4v4h4zm0 110h-4v4h4zm0 22h-4v4h4zm0 22h-4v4h4zm0 22h-4v4h4zm0 22h-4v4h4zm0 22h-4v4h4zm0 22h-4v4h4zm0 22h-4v4h4zm22-176h-4v4h4zm0-22h-4v4h4zm0-22h-4v4h4zm0-22h-4v4h4zm0-22h-4v4h4zm0 110h-4v4h4zm0 22h-4v4h4zm0 22h-4v4h4zm0 22h-4v4h4zm0 22h-4v4h4zm0 22h-4v4h4zm0 22h-4v4h4zm0 22h-4v4h4zm22-176h-4v4h4zm0-22h-4v4h4zm0-22h-4v4h4zm0-22h-4v4h4zm0-22h-4v4h4zm0 110h-4v4h4zm0 22h-4v4h4zm0 22h-4v4h4zm0 22h-4v4h4zm0 22h-4v4h4zm0 22h-4v4h4zm0 22h-4v4h4zm0 22h-4v4h4zm22-176h-4v4h4zm0-22h-4v4h4zm0-22h-4v4h4zm0-22h-4v4h4zm0-22h-4v4h4zm0 110h-4v4h4zm0 22h-4v4h4zm0 22h-4v4h4zm0 22h-4v4h4zm0 22h-4v4h4zm0 22h-4v4h4zm0 22h-4v4h4zm0 22h-4v4h4zm22-176h-4v4h4zm0-22h-4v4h4zm0-22h-4v4h4zm0-22h-4v4h4zm0-22h-4v4h4zm0 110h-4v4h4zm0 22h-4v4h4zm0 22h-4v4h4zm0 22h-4v4h4zm0 22h-4v4h4zm0 22h-4v4h4zm0 22h-4v4h4zm0 22h-4v4h4zm22-176h-4v4h4zm0-22h-4v4h4zm0-22h-4v4h4zm0-22h-4v4h4zm0-22h-4v4h4zm0 110h-4v4h4zm0 22h-4v4h4zm0 22h-4v4h4zm0 22h-4v4h4zm0 22h-4v4h4zm0 22h-4v4h4zm0 22h-4v4h4zm0 22h-4v4h4zm22-176h-4v4h4zm0-22h-4v4h4zm0-22h-4v4h4zm0-22h-4v4h4zm0-22h-4v4h4zm0 110h-4v4h4zm0 22h-4v4h4zm0 22h-4v4h4zm0 22h-4v4h4zm0 22h-4v4h4zm0 22h-4v4h4zm0 22h-4v4h4zm0 22h-4v4h4zm22-176h-4v4h4zm0-22h-4v4h4zm0-22h-4v4h4zm0-22h-4v4h4zm0-22h-4v4h4zm0 110h-4v4h4zm0 22h-4v4h4zm0 22h-4v4h4zm0 22h-4v4h4zm0 22h-4v4h4zm0 22h-4v4h4zm0 22h-4v4h4zm0 22h-4v4h4zm22-176h-4v4h4zm0-22h-4v4h4zm0-22h-4v4h4zm0-22h-4v4h4zm0-22h-4v4h4zm0 110h-4v4h4zm0 22h-4v4h4zm0 22h-4v4h4zm0 22h-4v4h4zm0 22h-4v4h4zm0 22h-4v4h4zm0 22h-4v4h4zm0 22h-4v4h4zm22-176h-4v4h4zm0-22h-4v4h4zm0-22h-4v4h4zm0-22h-4v4h4zm0-22h-4v4h4zm0 110h-4v4h4zm0 22h-4v4h4zm0 22h-4v4h4zm0 22h-4v4h4zm0 22h-4v4h4zm0 22h-4v4h4zm0 22h-4v4h4zm0 22h-4v4h4zm22-176h-4v4h4zm0-22h-4v4h4zm0-22h-4v4h4zm0-22h-4v4h4zm0-22h-4v4h4zm0 110h-4v4h4zm0 22h-4v4h4zm0 22h-4v4h4zm0 22h-4v4h4zm0 22h-4v4h4zm0 22h-4v4h4zm0 22h-4v4h4zm0 22h-4v4h4zm22-176h-4v4h4zm0-22h-4v4h4zm0-22h-4v4h4zm0-22h-4v4h4zm0-22h-4v4h4zm0 110h-4v4h4zm0 22h-4v4h4zm0 22h-4v4h4zm0 22h-4v4h4zm0 22h-4v4h4zm0 22h-4v4h4zm0 22h-4v4h4zm0 22h-4v4h4zm22-176h-4v4h4zm0-22h-4v4h4zm0-22h-4v4h4zm0-22h-4v4h4zm0-22h-4v4h4zm0 110h-4v4h4zm0 22h-4v4h4zm0 22h-4v4h4zm0 22h-4v4h4zm0 22h-4v4h4zm0 22h-4v4h4zm0 22h-4v4h4zm0 22h-4v4h4zm22-176h-4v4h4zm0-22h-4v4h4zm0-22h-4v4h4zm0-22h-4v4h4zm0-22h-4v4h4zm0 110h-4v4h4zm0 22h-4v4h4zm0 22h-4v4h4zm0 22h-4v4h4zm0 22h-4v4h4zm0 22h-4v4h4zm0 22h-4v4h4zm0 22h-4v4h4zm22-176h-4v4h4zm0-22h-4v4h4zm0-22h-4v4h4zm0-22h-4v4h4zm0-22h-4v4h4zm0 110h-4v4h4zm0 22h-4v4h4zm0 22h-4v4h4zm0 22h-4v4h4zm0 22h-4v4h4zm0 22h-4v4h4zm0 22h-4v4h4zm0 22h-4v4h4zm22-176h-4v4h4zm0-22h-4v4h4zm0-22h-4v4h4zm0-22h-4v4h4zm0-22h-4v4h4zm0 110h-4v4h4zm0 22h-4v4h4zm0 22h-4v4h4zm0 22h-4v4h4zm0 22h-4v4h4zm0 22h-4v4h4zm0 22h-4v4h4zm0 22h-4v4h4zm22-176h-4v4h4zm0-22h-4v4h4zm0-22h-4v4h4zm0-22h-4v4h4zm0-22h-4v4h4zm0 110h-4v4h4zm0 22h-4v4h4zm0 22h-4v4h4zm0 22h-4v4h4zm0 22h-4v4h4zm0 22h-4v4h4zm0 22h-4v4h4zm0 22h-4v4h4zm22-176h-4v4h4zm0-22h-4v4h4zm0-22h-4v4h4zm0-22h-4v4h4zm0-22h-4v4h4zm0 110h-4v4h4zm0 22h-4v4h4zm0 22h-4v4h4zm0 22h-4v4h4zm0 22h-4v4h4zm0 22h-4v4h4zm0 22h-4v4h4zm0 22h-4v4h4zm22-176h-4v4h4zm0-22h-4v4h4zm0-22h-4v4h4zm0-22h-4v4h4zm0-22h-4v4h4zm0 110h-4v4h4zm0 22h-4v4h4zm0 22h-4v4h4zm0 22h-4v4h4zm0 22h-4v4h4zm0 22h-4v4h4zm0 22h-4v4h4zm0 22h-4v4h4zm-396 22h-4v4h4zm22 0h-4v4h4zm22 0h-4v4h4zm22 0h-4v4h4zm22 0h-4v4h4zm22 0h-4v4h4zm22 0h-4v4h4zm22 0h-4v4h4zm22 0h-4v4h4zm22 0h-4v4h4zm22 0h-4v4h4zm22 0h-4v4h4zm22 0h-4v4h4zm22 0h-4v4h4zm22 0h-4v4h4zm22 0h-4v4h4zm22 0h-4v4h4zm22 0h-4v4h4zm22 0h-4v4h4zm-286 22h-4v4h4zm22 0h-4v4h4zm22 0h-4v4h4zm22 0h-4v4h4zm22 0h-4v4h4zm22 0h-4v4h4zm22 0h-4v4h4zm22 0h-4v4h4zm22 0h-4v4h4zm22 0h-4v4h4zm22 0h-4v4h4zm22 0h-4v4h4zm22 0h-4v4h4zm22 0h-4v4h4zm-88 22h-4v4h4zm22 0h-4v4h4zm22 0h-4v4h4zm22 0h-4v4h4zm22 0h-4v4h4zm0 22h-4v4h4zM224 154h-4v4h4zm40 22h-4v4h4zm-20 0h-4v4h4zm-20 0h-4v4h4zm40 22h-4v4h4zm-20 0h-4v4h4zm0 22h-4v4h4zm-20-22h-4v4h4zm40 22h-4v4h4zm-20 44h-4v4h4zm20 0h-4v4h4zm-40 0h-4v4h4zm0-44h-4v4h4zm20 22h-4v4h4zm20 0h-4v4h4zm-40 0h-4v4h4zM202 88h-4v4h4zm0-22h-4v4h4zm0-22h-4v4h4zm0-22h-4v4h4zm0-22h-4v4h4zm0 110h-4v4h4zm0 22h-4v4h4zm0 22h-4v4h4zm0 110h-4v4h4zm0-88h-4v4h4zm0 22h-4v4h4zm0 22h-4v4h4zm0 22h-4v4h4zM180 88h-4v4h4zm0-22h-4v4h4zm0-22h-4v4h4zm0-22h-4v4h4zm0-22h-4v4h4zm0 110h-4v4h4zm0 22h-4v4h4zm0 22h-4v4h4zm0 110h-4v4h4zm0-88h-4v4h4zm0 22h-4v4h4zm0 22h-4v4h4zm0 22h-4v4h4zM158 88h-4v4h4zm0-22h-4v4h4zm0-22h-4v4h4zm0-22h-4v4h4zm0-22h-4v4h4zm0 110h-4v4h4zm0 22h-4v4h4zm0 22h-4v4h4zm0 110h-4v4h4zm0-88h-4v4h4zm0 22h-4v4h4zm0 22h-4v4h4zm0 22h-4v4h4zM136 88h-4v4h4zm0-22h-4v4h4zm0-22h-4v4h4zm0-22h-4v4h4zm0-22h-4v4h4zm0 110h-4v4h4zm0 22h-4v4h4zm0 22h-4v4h4zm0 110h-4v4h4zm0-88h-4v4h4zm0 22h-4v4h4zm0 22h-4v4h4zm0 22h-4v4h4zM114 88h-4v4h4zm0-22h-4v4h4zm0-22h-4v4h4zm0-22h-4v4h4zm0-22h-4v4h4zm0 110h-4v4h4zm0 22h-4v4h4zm0 22h-4v4h4zm0 110h-4v4h4zm0-88h-4v4h4zm0 22h-4v4h4zm0 22h-4v4h4zm0 22h-4v4h4zM92 88h-4v4h4zm0-22h-4v4h4zm0-22h-4v4h4zm0-22h-4v4h4zm0-22h-4v4h4zm0 110h-4v4h4zm0 22h-4v4h4zm0 22h-4v4h4zm0 110h-4v4h4zm0-88h-4v4h4zm0 22h-4v4h4zm0 22h-4v4h4zm0 22h-4v4h4zM70 88h-4v4h4zm0-22h-4v4h4zm0-22h-4v4h4zm0-22h-4v4h4zm0-22h-4v4h4zm0 110h-4v4h4zm0 22h-4v4h4zm0 22h-4v4h4zm0 22h-4v4h4zm0 22h-4v4h4zm0 22h-4v4h4zm0 22h-4v4h4zm0 22h-4v4h4zM48 88h-4v4h4zm0-22h-4v4h4zm0-22h-4v4h4zm0-22h-4v4h4zm0-22h-4v4h4zm0 110h-4v4h4zm0 22h-4v4h4zm0 22h-4v4h4zm0 22h-4v4h4zm0 22h-4v4h4zm0 22h-4v4h4zm0 22h-4v4h4zm0 22h-4v4h4zM26 88h-4v4h4zm0-22h-4v4h4zm0-22h-4v4h4zm0-22h-4v4h4zm0-22h-4v4h4zm0 110h-4v4h4zm0 22h-4v4h4zm0 22h-4v4h4zm0 22h-4v4h4zm0 22h-4v4h4zm0 22h-4v4h4zm0 22h-4v4h4zm0 22h-4v4h4zM4 88H0v4h4zm0-22H0v4h4zm0-22H0v4h4zm0-22H0v4h4zM4 0H0v4h4zm0 110H0v4h4zm0 22H0v4h4zm0 22H0v4h4zm0 22H0v4h4zm0 22H0v4h4zm0 22H0v4h4zm0 22H0v4h4zm0 22H0v4h4z" fill="#E1E1E1" fill-rule="evenodd" opacity=".7"/></svg>