<svg xmlns="http://www.w3.org/2000/svg" width="620" height="274" viewBox="0 0 620 274"><defs><filter id="a" width="107%" height="113%" x="-3.5%" y="-6.5%" filterUnits="objectBoundingBox"><feOffset dy="4" in="SourceAlpha" result="shadowOffsetOuter1"/><feGaussianBlur in="shadowOffsetOuter1" result="shadowBlurOuter1" stdDeviation="4"/><feColorMatrix in="shadowBlurOuter1" result="shadowMatrixOuter1" values="0 0 0 0 0 0 0 0 0 0 0 0 0 0 0 0 0 0 0.2 0"/><feMerge><feMergeNode in="shadowMatrixOuter1"/><feMergeNode in="SourceGraphic"/></feMerge></filter></defs><g fill="none" fill-rule="evenodd" filter="url(#a)" transform="translate(-20 -25)"><g transform="rotate(39 17.155 165.114)"><rect width="20" height="21" x=".252" y="3.689" fill="#01B2D0" opacity=".1" rx="3"/><rect width="18" height="18" x="3.416" y="1.506" stroke="#01B2D0" stroke-width="2" rx="3"/></g><path fill="#6FD350" d="M33.407 261.289l16.375 11.119a4 4 0 01-.248 6.773l-14.931 8.62a4 4 0 01-5.99-3.172l-1.442-19.74a4 4 0 016.236-3.6z" opacity=".2"/><path stroke="#6FD350" stroke-width="2" d="M36.023 253.177a3 3 0 00-4.678 2.7l1.443 19.74a3 3 0 004.492 2.38l14.931-8.621a3 3 0 00.186-5.08l-16.374-11.12z"/><g transform="rotate(-35 696.017 -819.64)"><circle cx="20.716" cy="12.083" r="11" stroke="#FFC111" stroke-width="2"/><circle cx="12.523" cy="18.554" r="12" fill="#FFC111" opacity=".2"/></g></g></svg>