<svg width="31" height="31" viewBox="0 0 31 31" xmlns="http://www.w3.org/2000/svg"><path d="M15.057 7.097a8.42 8.42 0 0 0-7.678 6.194 2.215 2.215 0 0 0-2.02 1.766H2.222C2.45 8.072 8.072 2.45 15.057 2.222v4.875zm.886 0a8.372 8.372 0 0 1 2.794.634l2.449-4.242a13.22 13.22 0 0 0-5.243-1.267v4.875zm-.886 16.806a8.42 8.42 0 0 1-7.678-6.194 2.215 2.215 0 0 1-2.02-1.766H2.222c.228 6.985 5.85 12.607 12.835 12.835v-4.875zm.886 0a8.366 8.366 0 0 0 3.733-1.096 2.214 2.214 0 1 0 3.131-3.131 8.366 8.366 0 0 0 1.096-3.733h4.875c-.228 6.985-5.85 12.607-12.835 12.835v-4.875zm0-.887a7.484 7.484 0 0 0 3.25-.954 2.214 2.214 0 0 1 2.868-2.868c.548-.97.887-2.075.955-3.251h-5.8a1.775 1.775 0 0 1-1.273 1.273v5.8zm-.886 0a7.533 7.533 0 0 1-6.792-5.427 2.218 2.218 0 0 0 1.434-1.646h4.085c.16.622.65 1.112 1.273 1.273v5.8zm0-15.032a7.533 7.533 0 0 0-6.792 5.427 2.218 2.218 0 0 1 1.434 1.646h4.085c.16-.622.65-1.112 1.273-1.273v-5.8zm.886 0a7.491 7.491 0 0 1 2.346.521l-2.346 4.064V7.984zm7.96 7.073a8.401 8.401 0 0 0-3.253-6.212l2.45-4.244a13.271 13.271 0 0 1 5.678 10.456h-4.875zm-.887 0a7.515 7.515 0 0 0-2.814-5.437l-3.04 5.266c.02.056.039.113.054.171h5.8zM15.5 31C24.06 31 31 24.06 31 15.5 31 6.94 24.06 0 15.5 0 6.94 0 0 6.94 0 15.5 0 24.06 6.94 31 15.5 31z" fill="#FFC111" fill-rule="evenodd"/></svg>