<svg xmlns="http://www.w3.org/2000/svg" width="15" height="8" viewBox="0 0 15 8">
  <path fill="#9AA0A9" fill-rule="evenodd" d="M14.4996148,17.8402341 C14.1135442,17.8402341 13.7274735,17.7026344 13.4203466,17.4274351 L8.02400538,12.5920725 C7.48990598,12.1134956 7.4448961,11.2925593 7.92347299,10.7584599 C7.95512271,10.7231383 7.98868379,10.6895772 8.02400538,10.6579275 C8.63825914,10.1075287 9.56828811,10.1075287 10.1825419,10.6579275 L14.4996148,14.5262175 L18.8166878,10.6579275 C19.4309416,10.1075287 20.3609706,10.1075287 20.9752243,10.6579275 C21.5093237,11.1365044 21.5543336,11.9574407 21.0757567,12.4915401 C21.044107,12.5268617 21.0105459,12.5604228 20.9752243,12.5920725 L15.5788831,17.4274351 C15.2717562,17.7026344 14.8856855,17.8402341 14.4996148,17.8402341 Z" transform="translate(-7 -10)"/>
</svg>
