<svg xmlns="http://www.w3.org/2000/svg" width="74" height="61" viewBox="0 0 74 61">
  <g fill="none" fill-rule="evenodd" transform="translate(1 1)">
    <g stroke="#FFC111" stroke-width="2" transform="translate(0 23.6)">
      <rect width="12.617" height="30.862" fill="#FFC111" rx="1.35"/>
      <path stroke-linecap="round" stroke-linejoin="round" d="M16,29.1889608 L20.257997,33.0645139 C21.5008363,34.195724 23.1209589,34.8226307 24.8015202,34.8226307 L42.7262256,34.8226307 C44.919311,34.8226307 47.060428,34.1549707 48.8648128,32.9084479 L69.6508749,18.5488171 C72.005334,16.9222867 72.6091633,13.7022347 71.0039624,11.3331825 L71.0039624,11.3331825 C69.3913456,8.95318559 66.1751672,8.29308759 63.7554558,9.84547745 L43.9192106,22.5716172"/>
      <path d="M16,2 L25.2438292,2 C26.6860818,2 28.0684035,2.57694363 29.0827212,3.60224958 L39.5893208,14.2226687 C41.2275654,15.8786606 41.2134057,18.549098 39.5576925,20.1876241 L39.5576925,20.1876241 C37.901892,21.8262366 35.2313844,21.8127713 33.5921922,20.1575447 L26.0350164,12.5264452 C25.3589059,11.8437211 24.437925,11.4596098 23.4770725,11.4596098 L20.1704102,11.4596098"/>
    </g>
    <g transform="translate(25.938)">
      <path fill="#FFE6A0" stroke="#FFE6A0" stroke-width="2" d="M7.10377746,22.6504576 C2.92633042,20.8468286 -3.55271368e-15,16.6676035 -3.55271368e-15,11.8 C-3.55271368e-15,5.28303995 5.24545398,-4.61852778e-14 11.7160494,-4.61852778e-14 C16.0986698,-4.61852778e-14 19.9192525,2.42361217 21.9286071,6.01269504 C13.6617529,6.34481516 7.0617284,13.1516484 7.0617284,21.5 C7.0617284,21.8869616 7.07590851,22.2706112 7.10377746,22.6504576 Z"/>
      <ellipse cx="22.827" cy="21.785" fill="#FFF" stroke="#FFC111" stroke-width="2" rx="11.716" ry="11.8"/>
      <path stroke="#FFC111" stroke-linecap="round" stroke-linejoin="round" stroke-width="1.8" d="M3.15432099 0L3.15432099 12.7076923M5.78292181 2.31048951L1.84002058 2.31048951C.823805273 2.31048951-8.8817842e-16 3.21562573-8.8817842e-16 4.33216783-8.8817842e-16 5.44870994.823805273 6.35384615 1.84002058 6.35384615L4.4686214 6.35384615C5.48483669 6.35384618 6.30864194 7.25898239 6.30864194 8.37552448 6.30864194 9.49206657 5.48483669 10.3972028 4.4686214 10.3972028L-8.8817842e-16 10.3972028" transform="translate(20.123 15.43)"/>
    </g>
  </g>
</svg>
