<svg xmlns="http://www.w3.org/2000/svg" xmlns:xlink="http://www.w3.org/1999/xlink" width="80" height="80" viewBox="0 0 80 80">
  <defs>
    <circle id="pricing-ip-a" cx="28" cy="28" r="28"/>
  </defs>
  <g fill="none" fill-rule="evenodd" transform="translate(9 12)">
    <mask id="pricing-ip-b" fill="#fff">
      <use xlink:href="#pricing-ip-a"/>
    </mask>
    <circle cx="28" cy="28" r="27" stroke="#C59EFD" stroke-width="2" mask="url(#pricing-ip-b)"/>
    <ellipse cx="39.063" cy="-2.625" stroke="#C59EFD" stroke-width="2" mask="url(#pricing-ip-b)" rx="37.188" ry="42.875"/>
    <ellipse cx="5.938" cy="47.625" stroke="#C59EFD" stroke-width="2" mask="url(#pricing-ip-b)" rx="37.188" ry="42.875"/>
    <ellipse cx="47.188" cy="48.875" stroke="#C59EFD" stroke-width="2" mask="url(#pricing-ip-b)" rx="37.188" ry="42.875"/>
    <circle cx="27.5" cy="12.5" r="5.5" fill="#D0B0FE" stroke="#FFF" stroke-width="2" mask="url(#pricing-ip-b)"/>
    <g transform="translate(30 24)">
      <circle cx="16" cy="16" r="17" fill="#6F0DFB" stroke="#FFF" stroke-width="2"/>
      <path fill="#FFF" d="M9,9 L11.772,9 L11.772,24.576 L9,24.576 L9,9 Z M15.204,9 L20.286,9 C21.1806711,9 21.9873297,9.08066586 22.706,9.242 C23.4246703,9.40333414 24.0406641,9.6673315 24.554,10.034 C25.0673359,10.4006685 25.4633319,10.8699971 25.742,11.442 C26.0206681,12.0140029 26.16,12.7033293 26.16,13.51 C26.16,14.3753377 25.9986683,15.1013304 25.676,15.688 C25.3533317,16.2746696 24.9170028,16.7476649 24.367,17.107 C23.8169973,17.4663351 23.175337,17.7266659 22.442,17.888 C21.708663,18.0493341 20.9313374,18.13 20.11,18.13 L17.976,18.13 L17.976,24.576 L15.204,24.576 L15.204,9 Z M19.912,15.798 C20.3666689,15.798 20.7993313,15.7650003 21.21,15.699 C21.6206687,15.6329997 21.9873317,15.5156675 22.31,15.347 C22.6326683,15.1783325 22.8893324,14.9473348 23.08,14.654 C23.2706676,14.3606652 23.366,13.9793357 23.366,13.51 C23.366,13.0553311 23.2706676,12.6850014 23.08,12.399 C22.8893324,12.1129986 22.6363349,11.8893341 22.321,11.728 C22.0056651,11.5666659 21.6463354,11.4603336 21.243,11.409 C20.8396646,11.3576664 20.4253355,11.332 20,11.332 L17.976,11.332 L17.976,15.798 L19.912,15.798 Z"/>
    </g>
  </g>
</svg>
