<svg xmlns="http://www.w3.org/2000/svg" width="80" height="80" viewBox="0 0 80 80">
  <g fill="none" fill-rule="evenodd" transform="translate(5 11)">
    <g transform="translate(0 22.6)">
      <path fill="#FFC111" d="M3,0.4 L12,0.4 L12,28.4 L3,28.4 C1.34314575,28.4 2.02906125e-16,27.0568542 0,25.4 L0,3.4 C-2.02906125e-16,1.74314575 1.34314575,0.4 3,0.4 Z"/>
      <path stroke="#FFC111" stroke-linecap="round" stroke-linejoin="round" stroke-width="2" d="M14,26.1889608 L23.7831916,34.6117802 C24.6905586,35.3929761 25.8481296,35.8226307 27.0454524,35.8226307 L41.5993438,35.8226307 C43.2238515,35.8226307 44.809864,35.3280677 46.1464454,34.4047175 L67.6508749,19.5488171 C70.005334,17.9222867 70.6091633,14.7022347 69.0039624,12.3331825 L69.0039624,12.3331825 C67.3913456,9.95318559 64.1751672,9.29308759 61.7554558,10.8454775 L41.9192106,23.5716172"/>
      <path stroke="#FFC111" stroke-width="2" d="M14,3 L23.2438292,3 C24.6860818,3 26.0684035,3.57694363 27.0827212,4.60224958 L37.5893208,15.2226687 C39.2275654,16.8786606 39.2134057,19.549098 37.5576925,21.1876241 L37.5576925,21.1876241 C35.901892,22.8262366 33.2313844,22.8127713 31.5921922,21.1575447 L24.0350164,13.5264452 C23.3589059,12.8437211 22.437925,12.4596098 21.4770725,12.4596098 L18.1704102,12.4596098"/>
    </g>
    <g transform="translate(23.938)">
      <path fill="#FFE6A0" stroke="#FFE6A0" stroke-width="2" d="M7.10377746,22.6504576 C2.92633042,20.8468286 -3.55271368e-15,16.6676035 -3.55271368e-15,11.8 C-3.55271368e-15,5.28303995 5.24545398,-4.61852778e-14 11.7160494,-4.61852778e-14 C16.0986698,-4.61852778e-14 19.9192525,2.42361217 21.9286071,6.01269504 C13.6617529,6.34481516 7.0617284,13.1516484 7.0617284,21.5 C7.0617284,21.8869616 7.07590851,22.2706112 7.10377746,22.6504576 Z"/>
      <ellipse cx="22.827" cy="21.785" fill="#FFF" stroke="#FFC111" stroke-width="2" rx="11.716" ry="11.8"/>
      <path stroke="#FFC111" stroke-linecap="round" stroke-linejoin="round" stroke-width="1.8" d="M3.15432099 0L3.15432099 12.7076923M5.78292181 2.31048951L1.84002058 2.31048951C.823805273 2.31048951-8.8817842e-16 3.21562573-8.8817842e-16 4.33216783-8.8817842e-16 5.44870994.823805273 6.35384615 1.84002058 6.35384615L4.4686214 6.35384615C5.48483669 6.35384618 6.30864194 7.25898239 6.30864194 8.37552448 6.30864194 9.49206657 5.48483669 10.3972028 4.4686214 10.3972028L-8.8817842e-16 10.3972028" transform="translate(20.123 15.43)"/>
    </g>
  </g>
</svg>
