<svg xmlns="http://www.w3.org/2000/svg" width="46" height="46" viewBox="0 0 46 46">
  <g fill="none" fill-rule="evenodd">
    <rect width="46" height="46"/>
    <path fill="#01B2D0" fill-rule="nonzero" d="M17.9732492,9.46984789 C17.6160848,14.3427632 13.7229136,18 8.73529412,18 C3.94124652,18 -1.84741111e-13,13.8791126 -1.84741111e-13,8.73529412 C-1.84741111e-13,4.02943725 4.02943725,0 8.73529412,0 C11.2949873,0 13.5874426,0.882185734 15.1080356,2.33818913 C15.4248126,2.64151057 15.4357206,3.14419972 15.1323991,3.46097677 C14.8290777,3.77775382 14.3263885,3.78866173 14.0096115,3.48534029 C12.7908139,2.31831309 10.8936276,1.58823529 8.73529412,1.58823529 C4.90659538,1.58823529 1.58823529,4.90659538 1.58823529,8.73529412 C1.58823529,13.0173995 4.83463071,16.4117647 8.73529412,16.4117647 C13.0934046,16.4117647 16.4117647,13.0934046 16.4117647,8.73529412 C16.4117647,8.66435667 16.421066,8.59559165 16.4385155,8.53015211 C16.7956799,3.65723681 20.6888511,0 25.6764706,0 C30.4705182,0 34.4117647,4.1208874 34.4117647,9.26470588 C34.4117647,13.9705627 30.3823275,18 25.6764706,18 C23.1167774,18 20.8243221,17.1178143 19.3037291,15.6618109 C18.9869521,15.3584894 18.9760441,14.8558003 19.2793656,14.5390232 C19.582687,14.2222462 20.0853762,14.2113383 20.4021532,14.5146597 C21.6209508,15.6816869 23.5181371,16.4117647 25.6764706,16.4117647 C29.5051693,16.4117647 32.8235294,13.0934046 32.8235294,9.26470588 C32.8235294,4.98260048 29.577134,1.58823529 25.6764706,1.58823529 C21.3183601,1.58823529 18,4.90659538 18,9.26470588 C18,9.33564333 17.9906987,9.40440835 17.9732492,9.46984789 Z" transform="translate(6 14)"/>
  </g>
</svg>
