<svg xmlns="http://www.w3.org/2000/svg" width="660" height="145" viewBox="0 0 660 145"><g fill="none" fill-rule="evenodd" transform="translate(1)"><circle cx="200" cy="56" r="6" fill="#01B2D0"/><circle cx="41" cy="6" r="6" fill="#01B2D0"/><circle cx="34" cy="139" r="6" fill="#6F0DFB"/><circle cx="164" cy="89" r="6" fill="#6F0DFB"/><circle cx="439" cy="56" r="6" fill="#FFC111"/><circle cx="634" cy="6" r="6" fill="#FFC111"/><circle cx="604" cy="139" r="6" fill="#6FD350"/><circle cx="490" cy="89" r="6" fill="#6FD350"/><path stroke="#01B2D0" stroke-dasharray="2 5" stroke-linecap="round" stroke-linejoin="round" stroke-width="2" d="M0 6.115h69.446a24 24 0 0115.18 5.41l47.838 39.065a24 24 0 0015.18 5.41h111.33"/><path stroke="#6F0DFB" stroke-dasharray="2 5" stroke-linecap="round" stroke-linejoin="round" stroke-width="2" d="M0 139h69.446a24 24 0 0015.18-5.41l47.838-39.065a24 24 0 0115.18-5.41h111.33"/><path stroke="#FFC111" stroke-dasharray="2 5" stroke-linecap="round" stroke-linejoin="round" stroke-width="2" d="M657.974 6.115h-69.446a24 24 0 00-15.18 5.41L525.51 50.59A24 24 0 01510.33 56H399h0"/><path stroke="#6FD350" stroke-dasharray="2 5" stroke-linecap="round" stroke-linejoin="round" stroke-width="2" d="M657.974 139h-69.446a24 24 0 01-15.18-5.41L525.51 94.526a24 24 0 00-15.18-5.41H399h0"/></g></svg>