<svg xmlns="http://www.w3.org/2000/svg" xmlns:xlink="http://www.w3.org/1999/xlink" width="114" height="114" viewBox="0 0 114 114"><defs><circle id="b" cx="50" cy="50" r="50"/><filter id="a" width="122%" height="122%" x="-11%" y="-9%" filterUnits="objectBoundingBox"><feMorphology in="SourceAlpha" operator="dilate" radius="1" result="shadowSpreadOuter1"/><feOffset dy="2" in="shadowSpreadOuter1" result="shadowOffsetOuter1"/><feGaussianBlur in="shadowOffsetOuter1" result="shadowBlurOuter1" stdDeviation="3"/><feComposite in="shadowBlurOuter1" in2="SourceAlpha" operator="out" result="shadowBlurOuter1"/><feColorMatrix in="shadowBlurOuter1" values="0 0 0 0 0.207843137 0 0 0 0 0.258823529 0 0 0 0 0.329411765 0 0 0 0.101137908 0"/></filter><path id="c" d="M.015.231h46.862v47.754H.015z"/></defs><g fill="none" fill-rule="evenodd" transform="translate(7 5)"><use fill="#000" filter="url(#a)" xlink:href="#b"/><circle cx="50" cy="50" r="50.5" fill="#FFF" stroke="#E1E1E1"/><g transform="translate(27 26)"><mask id="d" fill="#fff"><use xlink:href="#c"/></mask><path fill="#50B68C" d="M8.05 37.388a2.704 2.704 0 1 0 0 5.407 2.704 2.704 0 0 0 0-5.407zM37.867 4.707a2.704 2.704 0 1 0 .01 0h-.01zm-19.572 10.94v3.306c0 .498.404.902.901.902H45.98a.902.902 0 0 0 .89-.902v-3.306a.901.901 0 0 0-.9-.902H19.185a.901.901 0 0 0-.896.902h.005zm10.301 15.287v-3.302a.902.902 0 0 0-.901-.901H.912a.902.902 0 0 0-.912.89v3.313c0 .497.404.901.901.901h26.784a.902.902 0 0 0 .912-.891v-.01zm18.095-4.435a.892.892 0 0 0-.614-.34l-3.29-.335a.897.897 0 0 0-.984.778c-1.39 10.278-10.846 17.485-21.124 16.097a18.768 18.768 0 0 1-4.16-1.057.891.891 0 0 0-1.15.515l-1.272 3.054a.896.896 0 0 0 .516 1.19c12.308 4.735 26.124-1.404 30.86-13.712a23.873 23.873 0 0 0 1.398-5.536.886.886 0 0 0-.18-.654zM.196 18.866a.891.891 0 0 1-.109-.695A23.889 23.889 0 0 1 31.053 1.549a.917.917 0 0 1 .552 1.174l-1.17 3.091a.896.896 0 0 1-1.133.515 18.737 18.737 0 0 0-6.093-1.03 18.542 18.542 0 0 0-11.774 4.203 18.875 18.875 0 0 0-6.377 9.858.886.886 0 0 1-1.071.65l-3.225-.722a.892.892 0 0 1-.566-.422z" mask="url(#d)"/></g></g></svg>