<svg xmlns="http://www.w3.org/2000/svg" xmlns:xlink="http://www.w3.org/1999/xlink" width="114" height="114" viewBox="0 0 114 114"><defs><filter id="a" width="122%" height="122%" x="-11%" y="-9%" filterUnits="objectBoundingBox"><feMorphology in="SourceAlpha" operator="dilate" radius="1" result="shadowSpreadOuter1"/><feOffset dy="2" in="shadowSpreadOuter1" result="shadowOffsetOuter1"/><feGaussianBlur in="shadowOffsetOuter1" result="shadowBlurOuter1" stdDeviation="3"/><feComposite in="shadowBlurOuter1" in2="SourceAlpha" operator="out" result="shadowBlurOuter1"/><feColorMatrix in="shadowBlurOuter1" values="0 0 0 0 0.207843137 0 0 0 0 0.258823529 0 0 0 0 0.329411765 0 0 0 0.101137908 0"/></filter><circle id="b" cx="50" cy="50" r="50"/></defs><g fill="none" fill-rule="evenodd" transform="translate(7 5)"><use fill="#000" filter="url(#a)" xlink:href="#b"/><circle cx="50" cy="50" r="50.5" fill="#FFF" stroke="#E1E1E1"/><g stroke="#6738B8" stroke-linecap="round" stroke-linejoin="round" stroke-width="1.223"><path d="M62.516 74.973c1.223-.082 2.364-.734 3.098-1.794l12.228-21.195c.571-1.142.571-2.446 0-3.506L65.614 27.283c-.652-1.06-1.793-1.712-3.098-1.794H38.06c-1.223.082-2.364.734-3.017 1.794L22.815 48.478c-.57 1.142-.57 2.446 0 3.506l12.228 21.195c.653 1.06 1.794 1.712 3.098 1.794h24.375z"/><path d="M53.223 25.571l-8.641 14.837 5.706 9.864h11.413l8.56-14.837"/><path d="M53.223 74.973l-8.641-14.837 5.706-9.864h11.413l8.56 14.837"/><path d="M27.462 60.136h17.12l5.706-9.864-5.706-9.864h-17.12"/><path d="M62.516 74.973c1.223-.082 2.364-.734 3.098-1.794l12.228-21.195c.571-1.142.571-2.446 0-3.506L65.614 27.283c-.652-1.06-1.793-1.712-3.098-1.794H38.06c-1.223.082-2.364.734-3.017 1.794L22.815 48.478c-.57 1.142-.57 2.446 0 3.506l12.228 21.195c.653 1.06 1.794 1.712 3.098 1.794h24.375z"/><path d="M55.995 60.136l5.706-9.864-5.706-9.864H44.582l-5.707 9.864 5.707 9.864z"/></g></g></svg>