<svg xmlns="http://www.w3.org/2000/svg" xmlns:xlink="http://www.w3.org/1999/xlink" width="114" height="114" viewBox="0 0 114 114">
  <defs>
    <circle id="stitch-b" cx="50" cy="50" r="50"/>
    <filter id="stitch-a" width="122%" height="122%" x="-11%" y="-9%" filterUnits="objectBoundingBox">
      <feMorphology in="SourceAlpha" operator="dilate" radius="1" result="shadowSpreadOuter1"/>
      <feOffset dy="2" in="shadowSpreadOuter1" result="shadowOffsetOuter1"/>
      <feGaussianBlur in="shadowOffsetOuter1" result="shadowBlurOuter1" stdDeviation="3"/>
      <feComposite in="shadowBlurOuter1" in2="SourceAlpha" operator="out" result="shadowBlurOuter1"/>
      <feColorMatrix in="shadowBlurOuter1" values="0 0 0 0 0.207843137   0 0 0 0 0.258823529   0 0 0 0 0.329411765  0 0 0 0.101137908 0"/>
    </filter>
  </defs>
  <g fill="none" fill-rule="evenodd" transform="translate(7 5)">
    <use fill="#000" filter="url(#stitch-a)" xlink:href="#stitch-b"/>
    <circle cx="50" cy="50" r="50.5" fill="#FFF" stroke="#E1E1E1"/>
    <path fill="#FC0" fill-rule="nonzero" d="M43.7564286,17.2778571 L43.7564286,0 L0,0 L0,23.4064286 L30.0771429,23.4064286 L30.0771429,26.4707143 L0,26.4707143 L0,26.4707143 L0,43.7485714 L43.7564286,43.7485714 L43.7564286,20.3421429 L13.6792857,20.3421429 L13.6792857,17.2778571 L43.7564286,17.2778571 Z M21.8664286,39.2621429 C20.68,39.2621429 19.7135714,38.2957143 19.7135714,37.1092857 C19.7135714,35.9228571 20.68,34.9564286 21.8664286,34.9564286 C23.0528571,34.9564286 24.0192857,35.9228571 24.0192857,37.1092857 C24.0192857,38.3035714 23.0607143,39.2621429 21.8664286,39.2621429 Z M31.57,32.5992857 L12.1628571,32.5992857 L13.09,29.535 L30.69,29.535 L31.57,32.5992857 Z M21.8664286,4.49428571 C23.0528571,4.49428571 24.0192857,5.46071429 24.0192857,6.64714286 C24.0192857,7.83357143 23.0528571,8.8 21.8664286,8.8 C20.68,8.8 19.7135714,7.83357143 19.7135714,6.64714286 C19.7135714,5.45285714 20.68,4.49428571 21.8664286,4.49428571 Z M13.0978571,14.2135714 L12.1707143,11.1492857 L31.5778571,11.1492857 L30.7057143,14.2135714 L13.0978571,14.2135714 Z" transform="translate(28 28)"/>
  </g>
</svg>
