<svg xmlns="http://www.w3.org/2000/svg" xmlns:xlink="http://www.w3.org/1999/xlink" width="114" height="114" viewBox="0 0 114 114"><defs><filter id="a" width="122%" height="122%" x="-11%" y="-9%" filterUnits="objectBoundingBox"><feMorphology in="SourceAlpha" operator="dilate" radius="1" result="shadowSpreadOuter1"/><feOffset dy="2" in="shadowSpreadOuter1" result="shadowOffsetOuter1"/><feGaussianBlur in="shadowOffsetOuter1" result="shadowBlurOuter1" stdDeviation="3"/><feComposite in="shadowBlurOuter1" in2="SourceAlpha" operator="out" result="shadowBlurOuter1"/><feColorMatrix in="shadowBlurOuter1" values="0 0 0 0 0.207843137 0 0 0 0 0.258823529 0 0 0 0 0.329411765 0 0 0 0.101137908 0"/></filter><circle id="b" cx="50" cy="50" r="50"/></defs><g fill="none" fill-rule="evenodd" transform="translate(7 5)"><use fill="#000" filter="url(#a)" xlink:href="#b"/><circle cx="50" cy="50" r="50.5" fill="#FFF" stroke="#E1E1E1"/><path fill="#FC0" fill-rule="nonzero" d="M71.756 45.278V28H28v23.406h30.077v3.065H28v17.278h43.756V48.342H41.68v-3.064h30.077zm-21.89 21.984a2.156 2.156 0 01-2.152-2.153c0-1.186.966-2.153 2.152-2.153 1.187 0 2.153.967 2.153 2.153a2.146 2.146 0 01-2.153 2.153zM59.57 60.6H40.163l.927-3.064h17.6l.88 3.064zm-9.704-28.105c1.187 0 2.153.967 2.153 2.153a2.156 2.156 0 01-2.153 2.153 2.156 2.156 0 01-2.152-2.153c0-1.194.966-2.153 2.152-2.153zm-8.768 9.72l-.927-3.065h19.407l-.872 3.065H41.098z"/></g></svg>