<svg xmlns="http://www.w3.org/2000/svg" xmlns:xlink="http://www.w3.org/1999/xlink" width="188" height="188" viewBox="0 0 188 188"><defs><filter id="a" width="112.6%" height="112.6%" x="-6.3%" y="-5.2%" filterUnits="objectBoundingBox"><feMorphology in="SourceAlpha" operator="dilate" radius="1" result="shadowSpreadOuter1"/><feOffset dy="2" in="shadowSpreadOuter1" result="shadowOffsetOuter1"/><feGaussianBlur in="shadowOffsetOuter1" result="shadowBlurOuter1" stdDeviation="3"/><feComposite in="shadowBlurOuter1" in2="SourceAlpha" operator="out" result="shadowBlurOuter1"/><feColorMatrix in="shadowBlurOuter1" values="0 0 0 0 0.207843137 0 0 0 0 0.258823529 0 0 0 0 0.329411765 0 0 0 0.101137908 0"/></filter><circle id="b" cx="87" cy="87" r="87"/><path id="c" d="M66.1.004A8.88 8.88 0 0065.818 0H9.101l-.164.001A8.224 8.224 0 008.776 0C3.893 0 0 3.91 0 8.815c0 1.1.21 2.156.593 3.128.179.548.414 1.085.707 1.606l28.36 49.299a8.899 8.899 0 001.444 1.88A8.794 8.794 0 0037.54 67.5c2.135 0 4.1-.8 5.614-2.115a8.842 8.842 0 002.186-2.537l28.359-49.3c.288-.51.52-1.036.697-1.573A8.56 8.56 0 0075 8.815C75 3.91 71.107 0 66.387 0c-.096 0-.192.001-.287.004zM40.303 46.36L62.73 7.264c.08-.11.133-.195.163-.245a3.886 3.886 0 013.494-2.122c2.03 0 3.738 1.718 3.738 3.918 0 .751-.247 1.49-.65 2.122a.22.22 0 00-.082.163L44.691 54.033l-4.388-7.673zM9.101 4.897h49.404l-4.388 7.673H9.101c-.077 0-.152-.003-.244 0-.056-.003-.13 0-.244 0-2.11 0-3.819-1.718-3.819-3.755 0-2.2 1.71-3.918 3.82-3.918.113 0 .187.002.243 0l.087.001.157-.001zm14.59 12.57H51.31L37.5 41.472 23.693 17.467zm10.274 43.095c.006-.057-.021-.103-.081-.163L9.264 17.467h8.775l22.508 39.096c.03.107.079.2.163.326.344.575.568 1.3.568 2.122 0 2.038-1.707 3.755-3.737 3.755a3.967 3.967 0 01-3.576-2.204z"/></defs><g fill="none" fill-rule="evenodd" transform="translate(7 5)"><use fill="#000" filter="url(#a)" xlink:href="#b"/><circle cx="87" cy="87" r="87.5" fill="#FFF" stroke="#E1E1E1"/><use fill="#0AA6D2" transform="translate(50 57)" xlink:href="#c"/></g></svg>