<svg xmlns="http://www.w3.org/2000/svg" xmlns:xlink="http://www.w3.org/1999/xlink" width="114" height="114" viewBox="0 0 114 114"><defs><filter id="a" width="122%" height="122%" x="-11%" y="-9%" filterUnits="objectBoundingBox"><feMorphology in="SourceAlpha" operator="dilate" radius="1" result="shadowSpreadOuter1"/><feOffset dy="2" in="shadowSpreadOuter1" result="shadowOffsetOuter1"/><feGaussianBlur in="shadowOffsetOuter1" result="shadowBlurOuter1" stdDeviation="3"/><feComposite in="shadowBlurOuter1" in2="SourceAlpha" operator="out" result="shadowBlurOuter1"/><feColorMatrix in="shadowBlurOuter1" values="0 0 0 0 0.207843137 0 0 0 0 0.258823529 0 0 0 0 0.329411765 0 0 0 0.101137908 0"/></filter><circle id="b" cx="50" cy="50" r="50"/></defs><g fill="none" fill-rule="evenodd" transform="translate(7 5)"><use fill="#000" filter="url(#a)" xlink:href="#b"/><circle cx="50" cy="50" r="50.5" fill="#FFF" stroke="#E1E1E1"/><g fill-rule="nonzero"><path fill="#37474F" d="M62.75 66c-2.75 0-5-2.25-5-5s2.25-5 5-5 5 2.25 5 5-2.25 5-5 5z"/><path fill="#37474F" d="M62.75 73.5c-3.75 0-7.375-1.75-9.75-4.625l3.875-3.125c1.375 1.75 3.625 2.875 5.875 2.875 4.125 0 7.5-3.375 7.5-7.5s-3.375-7.5-7.5-7.5c-1.25 0-2.5.375-3.625.875L57 55.75l-8.875-16 4.375-2.375 6.625 11.75c1.25-.375 2.5-.625 3.75-.625 6.875 0 12.5 5.625 12.5 12.5s-5.75 12.5-12.625 12.5z"/><path fill="#37474F" d="M36.5 73.5C29.625 73.5 24 67.875 24 61c0-5.75 3.875-10.625 9.375-12.125l1.25 4.875C31.375 54.625 29 57.625 29 61c0 4.125 3.375 7.5 7.5 7.5S44 65.125 44 61v-2.5h18.75v5h-14c-1.125 5.75-6.25 10-12.25 10z"/><path fill="#E91E63" d="M36.5 66c-2.75 0-5-2.25-5-5s2.25-5 5-5 5 2.25 5 5-2.25 5-5 5z"/><path fill="#37474F" d="M50.25 43.5c-2.75 0-5-2.25-5-5s2.25-5 5-5 5 2.25 5 5-2.25 5-5 5z"/><path fill="#E91E63" d="M38.625 62.25l-4.25-2.5 7.375-12.125c-2.5-2.375-4-5.625-4-9.125 0-6.875 5.625-12.5 12.5-12.5s12.5 5.625 12.5 12.5c0 1.125-.125 2.125-.375 3.125l-4.875-1.25c.125-.625.25-1.25.25-1.875 0-4.125-3.375-7.5-7.5-7.5s-7.5 3.375-7.5 7.5c0 2.625 1.375 5 3.625 6.375l2.125 1.25-9.875 16.125z"/></g></g></svg>