<svg xmlns="http://www.w3.org/2000/svg" xmlns:xlink="http://www.w3.org/1999/xlink" width="114" height="114" viewBox="0 0 114 114"><defs><filter id="a" width="122%" height="122%" x="-11%" y="-9%" filterUnits="objectBoundingBox"><feMorphology in="SourceAlpha" operator="dilate" radius="1" result="shadowSpreadOuter1"/><feOffset dy="2" in="shadowSpreadOuter1" result="shadowOffsetOuter1"/><feGaussianBlur in="shadowOffsetOuter1" result="shadowBlurOuter1" stdDeviation="3"/><feComposite in="shadowBlurOuter1" in2="SourceAlpha" operator="out" result="shadowBlurOuter1"/><feColorMatrix in="shadowBlurOuter1" values="0 0 0 0 0.207843137 0 0 0 0 0.258823529 0 0 0 0 0.329411765 0 0 0 0.101137908 0"/></filter><circle id="b" cx="50" cy="50" r="50"/></defs><g fill="none" fill-rule="evenodd" transform="translate(7 5)"><use fill="#000" filter="url(#a)" xlink:href="#b"/><circle cx="50" cy="50" r="50.5" fill="#FFF" stroke="#E1E1E1"/><path fill="#FF4A00" fill-rule="nonzero" d="M55.5 50.01a13.16 13.16 0 01-.845 4.644c-1.444.545-3.01.845-4.646.846h-.018c-1.635-.001-3.2-.3-4.645-.845a13.159 13.159 0 01-.846-4.645v-.019c.001-1.635.3-3.2.845-4.645a13.166 13.166 0 014.646-.845h.018a13.16 13.16 0 014.646.845c.545 1.445.844 3.01.845 4.645v.02-.001zm16.194-3.677H58.852l9.08-9.08a22.101 22.101 0 00-2.377-2.81v-.001a22.116 22.116 0 00-2.808-2.375l-9.08 9.08V28.306A22.136 22.136 0 0050.01 28h-.023a22.05 22.05 0 00-3.655.306v12.842l-9.08-9.08a22.26 22.26 0 00-2.81 2.375l-.002.003a22.111 22.111 0 00-2.373 2.807l9.08 9.08H28.306S28 48.746 28 49.992v.016c0 1.226.103 2.45.306 3.66h12.842l-9.08 9.08a22.125 22.125 0 005.185 5.185l9.08-9.08v12.841c1.207.203 2.428.305 3.652.306h.031a22.158 22.158 0 003.651-.306V58.852l9.08 9.08c1-.712 1.94-1.506 2.809-2.375l.002-.001a22.13 22.13 0 002.375-2.808l-9.08-9.08h12.841c.203-1.207.305-2.429.306-3.652v-.031a22.158 22.158 0 00-.306-3.651z"/></g></svg>