<svg width="58" height="58" viewBox="0 0 58 58" xmlns="http://www.w3.org/2000/svg"><g fill="#01B2D0" fill-rule="evenodd"><path d="M29 38h-5a4 4 0 0 1-4-4v-3h-5a4 4 0 0 1-4-4V17a4 4 0 0 1 4-4h10a4 4 0 0 1 4 4v3h5a4 4 0 0 1 4 4v3h5a4 4 0 0 1 4 4v10a4 4 0 0 1-4 4H33a4 4 0 0 1-4-4v-3zm7-11v-3a2 2 0 0 0-2-2H24a2 2 0 0 0-2 2v10a2 2 0 0 0 2 2h5v-5a4 4 0 0 1 4-4h3zm-9-7v-3a2 2 0 0 0-2-2H15a2 2 0 0 0-2 2v10a2 2 0 0 0 2 2h5v-5a4 4 0 0 1 4-4h3zm6 9a2 2 0 0 0-2 2v10a2 2 0 0 0 2 2h10a2 2 0 0 0 2-2V31a2 2 0 0 0-2-2H33z" fill-rule="nonzero"/><path d="M25.947 28.68l1.978-3.956a.5.5 0 0 0-.447-.724h-3.956a.5.5 0 0 0-.447.724l1.978 3.956a.5.5 0 0 0 .894 0zm-9-11.36l1.978 3.956a.5.5 0 0 1-.447.724h-3.956a.5.5 0 0 1-.447-.724l1.978-3.956a.5.5 0 0 1 .894 0zm18 14l1.978 3.956a.5.5 0 0 1-.447.724h-3.956a.5.5 0 0 1-.447-.724l1.978-3.956a.5.5 0 0 1 .894 0z" opacity=".402"/></g></svg>