<svg width="58" height="58" viewBox="0 0 58 58" xmlns="http://www.w3.org/2000/svg"><g fill="#FFC111" fill-rule="evenodd"><path d="M35 13H23v2.5a1.5 1.5 0 0 1-3 0V13h-4a3 3 0 0 0-3 3v5h32v-5a3 3 0 0 0-3-3h-4v2.5a1.5 1.5 0 0 1-3 0V13zm3-2h4a5 5 0 0 1 5 5v21.343a4 4 0 0 1-1.172 2.829l-5.656 5.656A4 4 0 0 1 37.343 47H16a5 5 0 0 1-5-5V16a5 5 0 0 1 5-5h4v-.5a1.5 1.5 0 0 1 3 0v.5h12v-.5a1.5 1.5 0 0 1 3 0v.5zm7 12H13v19a3 3 0 0 0 3 3h21v-4a4 4 0 0 1 4-4h4V23zm-.828 16H41a2 2 0 0 0-2 2v3.172L44.172 39z" fill-rule="nonzero"/><rect opacity=".394" x="16" y="34" width="5" height="8" rx="2.5"/><rect opacity=".394" x="23" y="29" width="5" height="13" rx="2.5"/><rect opacity=".394" x="30" y="31" width="5" height="11" rx="2.5"/></g></svg>