<svg width="58" height="58" viewBox="0 0 58 58" xmlns="http://www.w3.org/2000/svg" xmlns:xlink="http://www.w3.org/1999/xlink"><defs><path d="M42.658 35.56c-3.16 2.172-7.516 1.887-10.362-.856-3.061-3.176-3.061-8.232 0-11.408 3.176-3.061 8.232-3.061 11.408 0 2.743 2.846 3.028 7.202.855 10.362l5.047 5.047a1.345 1.345 0 0 1-1.901 1.901l-5.047-5.047z" id="a"/></defs><g fill="none" fill-rule="evenodd"><path d="M15 13a1 1 0 0 0-1 1v10a1 1 0 0 0 1 1h19a1 1 0 0 0 1-1V14a1 1 0 0 0-1-1H15zm0-2h19a3 3 0 0 1 3 3v10a3 3 0 0 1-3 3H15a3 3 0 0 1-3-3V14a3 3 0 0 1 3-3zm0 22a1 1 0 0 0-1 1v10a1 1 0 0 0 1 1h19a1 1 0 0 0 1-1V34a1 1 0 0 0-1-1H15zm0-2h19a3 3 0 0 1 3 3v10a3 3 0 0 1-3 3H15a3 3 0 0 1-3-3V34a3 3 0 0 1 3-3z" fill="#F15242" fill-rule="nonzero"/><path d="M32.522 14.168a.922.922 0 0 1 1.318.277c.291.46.174 1.08-.263 1.386l-8.55 6a.911.911 0 0 1-1.054 0l-8.55-6a1.032 1.032 0 0 1-.263-1.386.922.922 0 0 1 1.318-.277l8.022 5.63 8.022-5.63zm-7.959 25.637l7.958-5.635a.92.92 0 0 1 1.317.27 1.028 1.028 0 0 1-.256 1.382l-8.484 6.008a.911.911 0 0 1-1.055.004l-8.619-6.008a1.027 1.027 0 0 1-.266-1.38.921.921 0 0 1 1.315-.28l8.09 5.64z" fill="#F15242" fill-rule="nonzero" opacity=".399"/><use fill="#FFF" xlink:href="#a"/><path stroke="#F15242" stroke-width="2" d="M42.09 34.735l.686-.471 5.636 5.635a.345.345 0 1 0 .487-.487l-5.635-5.636.471-.685c1.929-2.804 1.633-6.628-.725-9.075-2.789-2.688-7.231-2.688-9.994-.026-2.688 2.789-2.688 7.231-.026 9.994a7.238 7.238 0 0 0 9.1.751z"/><path stroke="#FFF" stroke-width="2" d="M42.511 36.827a9.253 9.253 0 0 1-10.935-1.429c-3.435-3.563-3.435-9.233.026-12.822 3.563-3.435 9.233-3.435 12.822.026 2.848 2.955 3.364 7.413 1.403 10.91l4.486 4.486a2.345 2.345 0 0 1-3.315 3.315l-4.487-4.486z"/></g></svg>