<svg width="58" height="58" viewBox="0 0 58 58" xmlns="http://www.w3.org/2000/svg"><g fill="#6FD350" fill-rule="evenodd"><path d="M34 13.89v25.22a1 1 0 002 0V13.89a1 1 0 00-2 0zm4 .124V39a3 3 0 01-6 0V14.014a3 3 0 116 0zm-12 14v11.095a1 1 0 002 0V28.014a1 1 0 10-2 0zm-8 5v6.095a1 1 0 002 0v-6.095a1 1 0 10-2 0zm12-5V39a3 3 0 01-6 0V28.014a3 3 0 116 0zm-8 5V39a3 3 0 01-6 0v-5.986a3 3 0 116 0zM44 21c-.552 0-1 .38-1 .848v17.304c0 .468.448.848 1 .848s1-.38 1-.848V21.848c0-.468-.448-.848-1-.848zm0-2c1.657 0 3 1.335 3 2.981V39.02A2.99 2.99 0 0144 42a2.99 2.99 0 01-3-2.981V21.98A2.99 2.99 0 0144 19z" fill-rule="nonzero"/><path d="M14 44h31.5a1.5 1.5 0 010 3h-32c-.175 0-.344-.03-.5-.085a1.5 1.5 0 01-2-1.415v-33a1.5 1.5 0 013 0V44z" opacity=".399"/></g></svg>