<svg xmlns="http://www.w3.org/2000/svg" xmlns:xlink="http://www.w3.org/1999/xlink" width="558" height="406" viewBox="0 0 558 406"><defs><filter id="a" width="113.8%" height="127.5%" x="-6.9%" y="-11.2%" filterUnits="objectBoundingBox"><feMorphology in="SourceAlpha" operator="dilate" radius="1" result="shadowSpreadOuter1"/><feOffset dy="2" in="shadowSpreadOuter1" result="shadowOffsetOuter1"/><feGaussianBlur in="shadowOffsetOuter1" result="shadowBlurOuter1" stdDeviation="3"/><feComposite in="shadowBlurOuter1" in2="SourceAlpha" operator="out" result="shadowBlurOuter1"/><feColorMatrix in="shadowBlurOuter1" values="0 0 0 0 0.207843137 0 0 0 0 0.258823529 0 0 0 0 0.329411765 0 0 0 0.101137908 0"/></filter><filter id="c" width="115.7%" height="127.5%" x="-7.9%" y="-11.2%" filterUnits="objectBoundingBox"><feMorphology in="SourceAlpha" operator="dilate" radius="1" result="shadowSpreadOuter1"/><feOffset dy="2" in="shadowSpreadOuter1" result="shadowOffsetOuter1"/><feGaussianBlur in="shadowOffsetOuter1" result="shadowBlurOuter1" stdDeviation="3"/><feComposite in="shadowBlurOuter1" in2="SourceAlpha" operator="out" result="shadowBlurOuter1"/><feColorMatrix in="shadowBlurOuter1" values="0 0 0 0 0.207843137 0 0 0 0 0.258823529 0 0 0 0 0.329411765 0 0 0 0.101137908 0"/></filter><filter id="e" width="115.7%" height="127.5%" x="-7.9%" y="-11.2%" filterUnits="objectBoundingBox"><feMorphology in="SourceAlpha" operator="dilate" radius="1" result="shadowSpreadOuter1"/><feOffset dy="2" in="shadowSpreadOuter1" result="shadowOffsetOuter1"/><feGaussianBlur in="shadowOffsetOuter1" result="shadowBlurOuter1" stdDeviation="3"/><feComposite in="shadowBlurOuter1" in2="SourceAlpha" operator="out" result="shadowBlurOuter1"/><feColorMatrix in="shadowBlurOuter1" values="0 0 0 0 0.207843137 0 0 0 0 0.258823529 0 0 0 0 0.329411765 0 0 0 0.101137908 0"/></filter><filter id="g" width="115.7%" height="127.5%" x="-7.9%" y="-11.2%" filterUnits="objectBoundingBox"><feMorphology in="SourceAlpha" operator="dilate" radius="1" result="shadowSpreadOuter1"/><feOffset dy="2" in="shadowSpreadOuter1" result="shadowOffsetOuter1"/><feGaussianBlur in="shadowOffsetOuter1" result="shadowBlurOuter1" stdDeviation="3"/><feComposite in="shadowBlurOuter1" in2="SourceAlpha" operator="out" result="shadowBlurOuter1"/><feColorMatrix in="shadowBlurOuter1" values="0 0 0 0 0.207843137 0 0 0 0 0.258823529 0 0 0 0 0.329411765 0 0 0 0.101137908 0"/></filter><filter id="i" width="115.7%" height="127.5%" x="-7.9%" y="-11.2%" filterUnits="objectBoundingBox"><feMorphology in="SourceAlpha" operator="dilate" radius="1" result="shadowSpreadOuter1"/><feOffset dy="2" in="shadowSpreadOuter1" result="shadowOffsetOuter1"/><feGaussianBlur in="shadowOffsetOuter1" result="shadowBlurOuter1" stdDeviation="3"/><feComposite in="shadowBlurOuter1" in2="SourceAlpha" operator="out" result="shadowBlurOuter1"/><feColorMatrix in="shadowBlurOuter1" values="0 0 0 0 0.207843137 0 0 0 0 0.258823529 0 0 0 0 0.329411765 0 0 0 0.101137908 0"/></filter><filter id="k" width="131.4%" height="131.4%" x="-15.7%" y="-12.9%" filterUnits="objectBoundingBox"><feMorphology in="SourceAlpha" operator="dilate" radius="1" result="shadowSpreadOuter1"/><feOffset dy="2" in="shadowSpreadOuter1" result="shadowOffsetOuter1"/><feGaussianBlur in="shadowOffsetOuter1" result="shadowBlurOuter1" stdDeviation="3"/><feComposite in="shadowBlurOuter1" in2="SourceAlpha" operator="out" result="shadowBlurOuter1"/><feColorMatrix in="shadowBlurOuter1" values="0 0 0 0 0.207843137 0 0 0 0 0.258823529 0 0 0 0 0.329411765 0 0 0 0.101137908 0"/></filter><filter id="m" width="145.8%" height="145.8%" x="-22.9%" y="-18.8%" filterUnits="objectBoundingBox"><feMorphology in="SourceAlpha" operator="dilate" radius="1" result="shadowSpreadOuter1"/><feOffset dy="2" in="shadowSpreadOuter1" result="shadowOffsetOuter1"/><feGaussianBlur in="shadowOffsetOuter1" result="shadowBlurOuter1" stdDeviation="3"/><feComposite in="shadowBlurOuter1" in2="SourceAlpha" operator="out" result="shadowBlurOuter1"/><feColorMatrix in="shadowBlurOuter1" values="0 0 0 0 0.207843137 0 0 0 0 0.258823529 0 0 0 0 0.329411765 0 0 0 0.101137908 0"/></filter><filter id="o" width="161.1%" height="161.1%" x="-30.6%" y="-25%" filterUnits="objectBoundingBox"><feMorphology in="SourceAlpha" operator="dilate" radius="1" result="shadowSpreadOuter1"/><feOffset dy="2" in="shadowSpreadOuter1" result="shadowOffsetOuter1"/><feGaussianBlur in="shadowOffsetOuter1" result="shadowBlurOuter1" stdDeviation="3"/><feComposite in="shadowBlurOuter1" in2="SourceAlpha" operator="out" result="shadowBlurOuter1"/><feColorMatrix in="shadowBlurOuter1" values="0 0 0 0 0.207843137 0 0 0 0 0.258823529 0 0 0 0 0.329411765 0 0 0 0.101137908 0"/></filter><filter id="q" width="137.9%" height="137.9%" x="-19%" y="-15.5%" filterUnits="objectBoundingBox"><feMorphology in="SourceAlpha" operator="dilate" radius="1" result="shadowSpreadOuter1"/><feOffset dy="2" in="shadowSpreadOuter1" result="shadowOffsetOuter1"/><feGaussianBlur in="shadowOffsetOuter1" result="shadowBlurOuter1" stdDeviation="3"/><feComposite in="shadowBlurOuter1" in2="SourceAlpha" operator="out" result="shadowBlurOuter1"/><feColorMatrix in="shadowBlurOuter1" values="0 0 0 0 0.207843137 0 0 0 0 0.258823529 0 0 0 0 0.329411765 0 0 0 0.101137908 0"/></filter><filter id="s" width="108.1%" height="121.2%" x="-4.1%" y="-8.7%" filterUnits="objectBoundingBox"><feMorphology in="SourceAlpha" operator="dilate" radius="1" result="shadowSpreadOuter1"/><feOffset dy="2" in="shadowSpreadOuter1" result="shadowOffsetOuter1"/><feGaussianBlur in="shadowOffsetOuter1" result="shadowBlurOuter1" stdDeviation="3"/><feComposite in="shadowBlurOuter1" in2="SourceAlpha" operator="out" result="shadowBlurOuter1"/><feColorMatrix in="shadowBlurOuter1" values="0 0 0 0 0.207843137 0 0 0 0 0.258823529 0 0 0 0 0.329411765 0 0 0 0.101137908 0"/></filter><filter id="u" width="116.7%" height="135.7%" x="-8.3%" y="-14.3%" filterUnits="objectBoundingBox"><feOffset dy="1" in="SourceAlpha" result="shadowOffsetOuter1"/><feGaussianBlur in="shadowOffsetOuter1" result="shadowBlurOuter1" stdDeviation="1.5"/><feComposite in="shadowBlurOuter1" in2="SourceAlpha" operator="out" result="shadowBlurOuter1"/><feColorMatrix in="shadowBlurOuter1" values="0 0 0 0 0.207843137 0 0 0 0 0.258823529 0 0 0 0 0.329411765 0 0 0 0.12 0"/></filter><filter id="w" width="116.7%" height="135.7%" x="-8.3%" y="-14.3%" filterUnits="objectBoundingBox"><feOffset dy="1" in="SourceAlpha" result="shadowOffsetOuter1"/><feGaussianBlur in="shadowOffsetOuter1" result="shadowBlurOuter1" stdDeviation="1.5"/><feComposite in="shadowBlurOuter1" in2="SourceAlpha" operator="out" result="shadowBlurOuter1"/><feColorMatrix in="shadowBlurOuter1" values="0 0 0 0 0.207843137 0 0 0 0 0.258823529 0 0 0 0 0.329411765 0 0 0 0.12 0"/></filter><rect id="b" width="160" height="80" x="0" y="0" rx="8"/><rect id="d" width="140" height="80" x="0" y="0" rx="8"/><rect id="f" width="140" height="80" x="0" y="0" rx="8"/><rect id="h" width="140" height="80" x="0" y="0" rx="8"/><rect id="j" width="140" height="80" x="0" y="0" rx="8"/><rect id="l" width="70" height="70" x="0" y="0" rx="4"/><rect id="n" width="48" height="48" x="0" y="0" rx="4"/><rect id="p" width="36" height="36" x="0" y="0" rx="2"/><rect id="r" width="58" height="58" x="0" y="0" rx="4"/><rect id="t" width="270" height="104" x="0" y="0" rx="8"/><rect id="v" width="60" height="28" x="0" y="0" rx="2"/><rect id="x" width="60" height="28" x="0" y="0" rx="2"/></defs><g fill="none" fill-rule="evenodd"><path stroke="#01B2D0" stroke-dasharray="2 4" stroke-linecap="round" stroke-linejoin="round" stroke-width="2" d="M219 78v94"/><path stroke="#B97ED7" stroke-dasharray="2 4" stroke-linecap="round" stroke-linejoin="round" stroke-width="2" d="M219 158v94"/><g transform="translate(139 5)"><use fill="#000" filter="url(#a)" xlink:href="#b"/><rect width="161" height="81" x="-.5" y="-.5" fill="#FFF" stroke="#E1E1E1" rx="8"/><path fill="#354254" fill-rule="nonzero" d="M41.392 26v-1.442h-4.76v-2.604h4.662v-1.442h-4.662v-2.408h4.76v-1.442h-6.398V26h6.398zm7.686 0v-4.76c0-1.386-.728-2.17-2.184-2.17-1.064 0-1.946.546-2.394 1.078v-.91h-1.47V26h1.47v-4.732c.35-.448.994-.896 1.736-.896.826 0 1.372.336 1.372 1.4V26h1.47zm3.948.168c.672 0 1.106-.196 1.372-.434l-.35-1.12c-.112.126-.364.252-.644.252-.42 0-.644-.35-.644-.812v-3.542h1.372v-1.274H52.76V17.39h-1.47v1.848h-1.12v1.274h1.12v3.906c0 1.134.588 1.75 1.736 1.75zM56.918 26v-4.606c.294-.49 1.12-.91 1.75-.91.182 0 .322.014.448.042V19.07c-.868 0-1.68.504-2.198 1.148v-.98h-1.47V26h1.47zm3.108 2.646l.21-1.316c.154.07.392.112.56.112.476 0 .784-.14.98-.588l.336-.77-2.786-6.846h1.582l1.974 5.068 1.974-5.068h1.568l-3.262 7.98c-.462 1.148-1.26 1.512-2.31 1.526-.21 0-.63-.042-.826-.098z"/><path fill="#01B2D0" fill-rule="nonzero" d="M25.919 20.79a.705.705 0 00-.525-1.175h-4.539l2.11-6.695c.228-.723-.692-1.246-1.198-.681L12.181 22.95a.705.705 0 00.525 1.175h4.536l-2.107 6.695c-.228.723.692 1.246 1.198.681l9.586-10.711z"/><rect width="116" height="4" x="12" y="50" fill="#F1F1F1" rx="2"/><rect width="80" height="4" x="12" y="64" fill="#F1F1F1" rx="2"/></g><g transform="translate(149 109)"><use fill="#000" filter="url(#c)" xlink:href="#d"/><rect width="141" height="81" x="-.5" y="-.5" fill="#FFF" stroke="#E1E1E1" rx="8"/><path fill="#354254" fill-rule="nonzero" d="M43.48 26c2.912 0 4.872-1.918 4.872-4.676 0-2.73-1.96-4.662-4.886-4.662h-3.472V26h3.486zm-.014-1.442h-1.834v-6.454h1.848c2.072 0 3.192 1.428 3.192 3.22 0 1.778-1.176 3.234-3.206 3.234zm9.562 1.61c1.064 0 2.058-.35 2.744-.994l-.672-.966c-.49.49-1.26.756-1.932.756-1.274 0-2.03-.854-2.142-1.862h5.208v-.364c0-2.128-1.288-3.668-3.318-3.668-2.002 0-3.43 1.582-3.43 3.542 0 2.142 1.498 3.556 3.542 3.556zm1.792-4.116h-3.808c.056-.812.644-1.778 1.89-1.778 1.33 0 1.876.98 1.918 1.778zM59.16 26v-9.338h-1.47V26h1.47zm7.518 0v-4.494c0-1.806-1.316-2.436-2.828-2.436-1.078 0-2.058.336-2.842 1.092l.616 1.022c.574-.588 1.246-.868 2.002-.868.924 0 1.582.476 1.582 1.26v1.008c-.504-.574-1.274-.868-2.198-.868-1.106 0-2.338.644-2.338 2.212 0 1.484 1.246 2.24 2.338 2.24.896 0 1.694-.322 2.198-.91V26h1.47zm-3.08-.84c-.826 0-1.456-.476-1.456-1.218 0-.728.63-1.218 1.456-1.218.63 0 1.26.238 1.61.7v1.036c-.35.462-.98.7-1.61.7zm4.704 3.486l.21-1.316c.154.07.392.112.56.112.476 0 .784-.14.98-.588l.336-.77-2.786-6.846h1.582l1.974 5.068 1.974-5.068H74.7l-3.262 7.98c-.462 1.148-1.26 1.512-2.31 1.526-.21 0-.63-.042-.826-.098z"/><path fill="#B97ED7" fill-rule="nonzero" d="M23.515 10c.39 0 .705.28.705.627 0 .346-.316.626-.705.626h-1.41v1.593a9.363 9.363 0 015.942 2.727 9.4 9.4 0 11-13.294 0 9.363 9.363 0 015.943-2.727l-.001-1.593h-1.41c-.39 0-.705-.28-.705-.626s.316-.627.705-.627h4.23zM21.4 15.64c-.26 0-.47.303-.47.678v5.088a.941.941 0 00-.195 1.479.94.94 0 101.136-1.479l-.001-5.088c0-.375-.21-.678-.47-.678z"/><rect width="80" height="4" x="12" y="50" fill="#F1F1F1" rx="2"/><rect width="106" height="4" x="12" y="64" fill="#F1F1F1" rx="2"/></g><path stroke="#DEBE63" stroke-dasharray="2 4" stroke-linecap="round" stroke-linejoin="round" stroke-width="2" d="M175.756 289v8.639a8 8 0 01-8 8H121a8 8 0 00-8 8V318h0m155-29v8.639a8 8 0 008 8h46.756a8 8 0 018 8V318h0"/><g transform="translate(149 213)"><use fill="#000" filter="url(#e)" xlink:href="#f"/><rect width="141" height="81" x="-.5" y="-.5" fill="#FFF" stroke="#E1E1E1" rx="8"/><path fill="#354254" fill-rule="nonzero" d="M44.712 26c1.764 0 2.716-1.078 2.716-2.534 0-1.134-.798-2.128-1.806-2.282.868-.182 1.624-.98 1.624-2.142 0-1.316-.938-2.38-2.66-2.38h-4.592V26h4.718zm-.448-5.488h-2.632v-2.408h2.632c.826 0 1.302.518 1.302 1.204 0 .714-.476 1.204-1.302 1.204zm.07 4.046h-2.702v-2.604h2.702c.924 0 1.414.602 1.414 1.302 0 .812-.532 1.302-1.414 1.302zM50.508 26v-4.606c.294-.49 1.12-.91 1.75-.91.182 0 .322.014.448.042V19.07c-.868 0-1.68.504-2.198 1.148v-.98h-1.47V26h1.47zm9.002 0v-4.494c0-1.806-1.316-2.436-2.828-2.436-1.078 0-2.058.336-2.842 1.092l.616 1.022c.574-.588 1.246-.868 2.002-.868.924 0 1.582.476 1.582 1.26v1.008c-.504-.574-1.274-.868-2.198-.868-1.106 0-2.338.644-2.338 2.212 0 1.484 1.246 2.24 2.338 2.24.896 0 1.694-.322 2.198-.91V26h1.47zm-3.08-.84c-.826 0-1.456-.476-1.456-1.218 0-.728.63-1.218 1.456-1.218.63 0 1.26.238 1.61.7v1.036c-.35.462-.98.7-1.61.7zm11.032.84v-4.76c0-1.386-.728-2.17-2.184-2.17-1.064 0-1.946.546-2.394 1.078v-.91h-1.47V26h1.47v-4.732c.35-.448.994-.896 1.736-.896.826 0 1.372.336 1.372 1.4V26h1.47zm4.984.168c1.33 0 2.114-.574 2.59-1.204l-.966-.91c-.378.532-.896.812-1.554.812-1.218 0-2.044-.938-2.044-2.254s.826-2.24 2.044-2.24c.658 0 1.176.252 1.554.784l.966-.882c-.476-.644-1.26-1.204-2.59-1.204-2.044 0-3.486 1.498-3.486 3.542 0 2.044 1.442 3.556 3.486 3.556zm9.94-.168h-1.47v-4.256c0-1.064-.532-1.372-1.358-1.372-.756 0-1.4.448-1.736.896V26h-1.47v-9.338h1.47v3.486c.448-.532 1.316-1.078 2.38-1.078 1.456 0 2.184.756 2.184 2.142V26z"/><path fill="#DEBE63" d="M23.139 11c.39 0 .705.316.705.705v4.935h.002v1.058c0 .221.105.43.282.564l5.076 3.806a.705.705 0 01.282.564v1.058h-.002v2.82h1.264a.705.705 0 01.53 1.17l-3.381 3.864a.705.705 0 01-1.061 0l-3.382-3.865a.705.705 0 01.531-1.169h1.269v-2.492l-.006-.085a.705.705 0 00-.274-.454l-3.244-2.434-3.244 2.433a.705.705 0 00-.273.455l-.009.11v2.467h1.264a.705.705 0 01.53 1.17l-3.381 3.864a.705.705 0 01-1.061 0l-3.382-3.865a.705.705 0 01.531-1.169h1.269v-3.878c0-.184.073-.36.2-.49l.082-.073 5.076-3.807a.705.705 0 00.273-.455l.009-.11v-5.992c0-.39.316-.705.705-.705h2.82z"/><rect width="80" height="4" x="12" y="50" fill="#F1F1F1" rx="2"/><rect width="116" height="4" x="12" y="64" fill="#F1F1F1" rx="2"/></g><g transform="translate(39 317)"><use fill="#000" filter="url(#g)" xlink:href="#h"/><rect width="141" height="81" x="-.5" y="-.5" fill="#FFF" stroke="#E1E1E1" rx="8"/><path fill="#354254" fill-rule="nonzero" d="M35.632 26v-3.5h2.478c1.946 0 3.038-1.33 3.038-2.912 0-1.596-1.078-2.926-3.038-2.926h-4.116V26h1.638zm2.254-4.942h-2.254v-2.954h2.254c.924 0 1.582.588 1.582 1.484 0 .882-.658 1.47-1.582 1.47zM48.512 26v-6.762h-1.47v4.746c-.336.448-.98.882-1.722.882-.84 0-1.372-.336-1.372-1.386v-4.242h-1.47v4.788c0 1.372.728 2.142 2.184 2.142a3.234 3.234 0 002.38-1.064V26h1.47zm4.228.168c1.82 0 2.814-.91 2.814-2.114 0-2.688-4.088-1.792-4.088-2.982 0-.476.476-.84 1.246-.84.854 0 1.596.364 2.002.812l.616-1.036c-.602-.532-1.47-.938-2.618-.938-1.708 0-2.66.938-2.66 2.044 0 2.604 4.088 1.652 4.088 2.982 0 .532-.462.896-1.344.896-.868 0-1.806-.448-2.282-.938l-.672 1.05c.7.686 1.736 1.064 2.898 1.064zM63.072 26h-1.47v-4.256c0-1.064-.532-1.372-1.358-1.372-.756 0-1.4.448-1.736.896V26h-1.47v-9.338h1.47v3.486c.448-.532 1.316-1.078 2.38-1.078 1.456 0 2.184.756 2.184 2.142V26z"/><path fill="#96C775" d="M22.716 11a2.444 2.444 0 012.444 2.444v13.912a2.444 2.444 0 01-2.444 2.444h-8.272A2.444 2.444 0 0112 27.356V13.444A2.444 2.444 0 0114.444 11h8.272zm-6.529 1.879l-1.17.001c-.633 0-1.154.48-1.216 1.097l-.006.125v12.596c0 .633.48 1.153 1.097 1.216l.125.006h7.126c.633 0 1.154-.48 1.216-1.097l.006-.125V14.102c0-.675-.547-1.222-1.222-1.222l-1.171-.001v.643a.611.611 0 01-.61.611h-3.564a.611.611 0 01-.61-.61l-.001-.644zM21.4 18.52c.52 0 .94.42.94.94v2.82c0 .52-.42.94-.94.94h-5.64a.94.94 0 01-.94-.94v-2.82c0-.52.42-.94.94-.94h5.64z"/><rect width="106" height="4" x="12" y="50" fill="#F1F1F1" rx="2"/><rect width="60" height="4" x="12" y="64" fill="#F1F1F1" rx="2"/></g><g transform="translate(259 317)"><use fill="#000" filter="url(#i)" xlink:href="#j"/><rect width="141" height="81" x="-.5" y="-.5" fill="#FFF" stroke="#E1E1E1" rx="8"/><path fill="#354254" fill-rule="nonzero" d="M46.392 26v-1.442h-4.76v-2.604h4.662v-1.442h-4.662v-2.408h4.76v-1.442h-6.398V26h6.398zm11.41 0v-4.886c0-1.372-.714-2.044-1.946-2.044-1.022 0-1.918.63-2.296 1.232-.224-.728-.84-1.232-1.848-1.232-1.036 0-1.918.672-2.212 1.078v-.91h-1.47V26h1.47v-4.732c.308-.434.91-.896 1.568-.896.798 0 1.106.49 1.106 1.218V26h1.47v-4.732c.294-.448.91-.896 1.568-.896.798 0 1.12.49 1.12 1.218V26h1.47zm7.518 0v-4.494c0-1.806-1.316-2.436-2.828-2.436-1.078 0-2.058.336-2.842 1.092l.616 1.022c.574-.588 1.246-.868 2.002-.868.924 0 1.582.476 1.582 1.26v1.008c-.504-.574-1.274-.868-2.198-.868-1.106 0-2.338.644-2.338 2.212 0 1.484 1.246 2.24 2.338 2.24.896 0 1.694-.322 2.198-.91V26h1.47zm-3.08-.84c-.826 0-1.456-.476-1.456-1.218 0-.728.63-1.218 1.456-1.218.63 0 1.26.238 1.61.7v1.036c-.35.462-.98.7-1.61.7zm5.726-6.748c.504 0 .91-.406.91-.91a.908.908 0 00-.91-.91.908.908 0 00-.91.91c0 .504.406.91.91.91zM68.694 26v-6.762h-1.47V26h1.47zm3.374 0h-1.47v-9.338h1.47V26z"/><path fill="#6BC0CF" d="M28.356 15a2.444 2.444 0 012.444 2.444v8.272a2.444 2.444 0 01-2.444 2.444H14.444A2.444 2.444 0 0112 25.716v-8.272A2.444 2.444 0 0114.444 15h13.912zM14.95 17.05a.664.664 0 00-.886 0 .547.547 0 000 .817l6.893 6.364a.664.664 0 00.886 0l6.894-6.364a.547.547 0 000-.818.664.664 0 00-.887 0l-6.45 5.955z"/><rect width="80" height="4" x="12" y="50" fill="#F1F1F1" rx="2"/><rect width="110" height="4" x="12" y="64" fill="#F1F1F1" rx="2"/></g><g transform="translate(7 46)"><use fill="#000" filter="url(#k)" xlink:href="#l"/><rect width="71" height="71" x="-.5" y="-.5" fill="#FFF" stroke="#E1E1E1" rx="4"/><path d="M10 10h50v50H10z"/><path fill="#1B2E5B" fill-opacity=".196" d="M49.714 44.078c-5.527-1.277-10.674-2.395-8.18-7.1 7.584-14.32 2.01-21.978-6-21.978-8.17 0-13.605 7.953-6 21.98 2.567 4.731-2.773 5.85-8.182 7.1-4.47 1.032-5.046 3.14-5.102 6.71-.024 1.532 1.244 2.775 2.775 2.775h33.014c1.532 0 2.8-1.245 2.775-2.776-.054-3.57-.63-5.679-5.1-6.71z"/></g><g transform="translate(344 22)"><use fill="#000" filter="url(#m)" xlink:href="#n"/><rect width="49" height="49" x="-.5" y="-.5" fill="#FFF" stroke="#E1E1E1" rx="4"/><path d="M6.857 6.857h34.286v34.286H6.857z"/><path fill="#1B2E5B" fill-opacity=".196" d="M34.09 30.225c-3.79-.876-7.32-1.643-5.61-4.869 5.2-9.82 1.379-15.07-4.114-15.07-5.602 0-9.33 5.453-4.115 15.071 1.76 3.245-1.9 4.012-5.61 4.87-3.064.707-3.46 2.153-3.498 4.6-.017 1.05.853 1.903 1.902 1.903h22.639c1.05 0 1.92-.854 1.903-1.903-.037-2.449-.432-3.894-3.497-4.602z"/></g><g transform="translate(86 74)"><use fill="#000" filter="url(#o)" xlink:href="#p"/><rect width="37" height="37" x="-.5" y="-.5" fill="#FFF" stroke="#E1E1E1" rx="2"/><path fill="#1B2E5B" fill-opacity=".196" d="M26.233 23.827c-3.033-.701-5.856-1.315-4.488-3.896 4.16-7.855 1.103-12.056-3.292-12.056-4.481 0-7.463 4.363-3.291 12.057 1.408 2.596-1.52 3.21-4.488 3.896-2.452.566-2.768 1.722-2.799 3.68-.013.84.682 1.523 1.522 1.523h18.11c.841 0 1.537-.684 1.523-1.523-.03-1.959-.345-3.115-2.797-3.681z"/></g><g transform="translate(46 104)"><use fill="#000" filter="url(#q)" xlink:href="#r"/><rect width="59" height="59" x="-.5" y="-.5" fill="#FFF" stroke="#E1E1E1" rx="4"/><path fill="#1B2E5B" fill-opacity=".196" d="M41.663 36.373c-4.916-1.136-9.492-2.13-7.275-6.315 6.745-12.735 1.788-19.545-5.336-19.545-7.266 0-12.1 7.073-5.336 19.547 2.283 4.208-2.466 5.203-7.276 6.315-3.975.918-4.488 2.793-4.537 5.966-.022 1.363 1.105 2.469 2.467 2.469h29.36c1.363 0 2.49-1.108 2.469-2.469-.048-3.175-.56-5.05-4.536-5.968z"/></g><g transform="translate(281 129)"><use fill="#000" filter="url(#s)" xlink:href="#t"/><rect width="271" height="105" x="-.5" y="-.5" fill="#FFF" stroke="#E1E1E1" rx="8"/><rect width="249" height="83" x="10.5" y="10.5" fill="#F8F3FB" stroke="#B97ED7" rx="4"/><g transform="translate(53 22)"><use fill="#000" filter="url(#u)" xlink:href="#v"/><rect width="59" height="27" x=".5" y=".5" fill="#FFF" stroke="#E1E1E1" stroke-linejoin="square" rx="2"/><path d="M51.4 9.533l2 2.667a.5.5 0 01-.4.8h-4a.5.5 0 01-.4-.8l2-2.667a.5.5 0 01.8 0zm0 8.934l2-2.667a.5.5 0 00-.4-.8h-4a.5.5 0 00-.4.8l2 2.667a.5.5 0 00.8 0z" fill="#9D9D9D"/><path fill="#354254" fill-rule="nonzero" d="M11.132 17h-.996v-6.696l-1.284 1.368-.6-.612 2.004-2.064h.876z"/></g><g transform="translate(121 22)"><use fill="#000" filter="url(#w)" xlink:href="#x"/><rect width="59" height="27" x=".5" y=".5" fill="#FFF" stroke="#E1E1E1" stroke-linejoin="square" rx="2"/><path d="M51.4 9.533l2 2.667a.5.5 0 01-.4.8h-4a.5.5 0 01-.4-.8l2-2.667a.5.5 0 01.8 0zm0 8.934l2-2.667a.5.5 0 00-.4-.8h-4a.5.5 0 00-.4.8l2 2.667a.5.5 0 00.8 0z" fill="#9D9D9D"/><path fill="#354254" fill-rule="nonzero" d="M14 17V8.996h-.9v3.084c-.468-.636-1.176-1.02-1.956-1.02-1.512 0-2.58 1.188-2.58 3.048 0 1.884 1.068 3.036 2.58 3.036a2.44 2.44 0 001.956-1.008V17h.9zm-2.628-.66c-1.176 0-1.872-.948-1.872-2.232 0-1.284.696-2.244 1.872-2.244.708 0 1.416.432 1.728.936v2.616c-.312.504-1.02.924-1.728.924zm8.952.66v-3.984c0-1.404-1.008-1.956-2.244-1.956-.948 0-1.692.312-2.316.96l.42.624c.516-.564 1.08-.804 1.776-.804.84 0 1.464.444 1.464 1.212v1.044c-.468-.528-1.128-.78-1.92-.78-.984 0-2.016.6-2.016 1.908 0 1.26 1.044 1.92 2.016 1.92.78 0 1.452-.276 1.92-.804V17h.9zm-2.484-.504c-.852 0-1.44-.528-1.44-1.272 0-.732.588-1.26 1.44-1.26.624 0 1.236.24 1.584.708v1.104c-.348.48-.96.72-1.584.72zm3.984 2.772c.156.048.456.084.648.084.768-.012 1.356-.336 1.704-1.176l2.904-6.972h-.972l-1.932 4.752-1.92-4.752h-.984l2.424 5.856-.384.876c-.204.48-.468.612-.864.612a1.38 1.38 0 01-.492-.096l-.132.816zm8.04-2.124c-.96 0-1.752-.3-2.34-.912l.456-.648c.384.444 1.116.828 1.908.828.888 0 1.38-.42 1.38-.996 0-1.404-3.588-.54-3.588-2.688 0-.912.768-1.668 2.148-1.668.996 0 1.692.372 2.148.84l-.42.624c-.348-.42-.972-.732-1.728-.732-.792 0-1.284.396-1.284.912 0 1.26 3.588.432 3.588 2.688 0 .972-.78 1.752-2.268 1.752z"/></g><path fill="#354254" fill-rule="nonzero" d="M30.136 39l2.292-8.004h-1.116l-1.764 6.672-1.836-6.672h-.828l-1.836 6.672-1.776-6.672h-1.104L24.448 39h1.08l1.764-6.456L29.056 39h1.08zm7.404 0v-3.984c0-1.404-1.008-1.956-2.244-1.956-.948 0-1.692.312-2.316.96l.42.624c.516-.564 1.08-.804 1.776-.804.84 0 1.464.444 1.464 1.212v1.044c-.468-.528-1.128-.78-1.92-.78-.984 0-2.016.6-2.016 1.908 0 1.26 1.044 1.92 2.016 1.92.78 0 1.452-.276 1.92-.804V39h.9zm-2.484-.504c-.852 0-1.44-.528-1.44-1.272 0-.732.588-1.26 1.44-1.26.624 0 1.236.24 1.584.708v1.104c-.348.48-.96.72-1.584.72zm4.752-6.12c.336 0 .6-.264.6-.6a.604.604 0 00-.6-.612.615.615 0 00-.612.612c0 .336.276.6.612.6zM40.252 39v-5.796h-.9V39h.9zm3.276.144c-.864 0-1.296-.492-1.296-1.356v-3.792h-.96v-.792h.96V31.62h.912v1.584h1.176v.792h-1.176v3.6c0 .432.192.744.576.744.264 0 .492-.12.612-.252l.264.684c-.228.216-.552.372-1.068.372z"/><rect width="200" height="4" x="24" y="76" fill="#6F0DFB" fill-opacity=".2" rx="2"/><rect width="82" height="4" x="24" y="62" fill="#6F0DFB" fill-opacity=".2" rx="2"/><rect width="56" height="4" x="112" y="62" fill="#6F0DFB" fill-opacity=".2" rx="2"/><rect width="40" height="4" x="189" y="34" fill="#6F0DFB" fill-opacity=".2" rx="2"/></g></g></svg>