<svg xmlns="http://www.w3.org/2000/svg" xmlns:xlink="http://www.w3.org/1999/xlink" width="489" height="383" viewBox="0 0 489 383"><defs><rect id="b" width="140" height="74" x="0" y="0" rx="8"/><filter id="a" width="124.3%" height="145.9%" x="-12.1%" y="-20.3%" filterUnits="objectBoundingBox"><feMorphology in="SourceAlpha" operator="dilate" radius="1" result="shadowSpreadOuter1"/><feOffset dy="2" in="shadowSpreadOuter1" result="shadowOffsetOuter1"/><feGaussianBlur in="shadowOffsetOuter1" result="shadowBlurOuter1" stdDeviation="5"/><feComposite in="shadowBlurOuter1" in2="SourceAlpha" operator="out" result="shadowBlurOuter1"/><feColorMatrix in="shadowBlurOuter1" values="0 0 0 0 0.207843137 0 0 0 0 0.258823529 0 0 0 0 0.329411765 0 0 0 0.101137908 0"/></filter><rect id="d" width="130" height="70" x="0" y="0" rx="8"/><filter id="c" width="126.2%" height="148.6%" x="-13.1%" y="-21.4%" filterUnits="objectBoundingBox"><feMorphology in="SourceAlpha" operator="dilate" radius="1" result="shadowSpreadOuter1"/><feOffset dy="2" in="shadowSpreadOuter1" result="shadowOffsetOuter1"/><feGaussianBlur in="shadowOffsetOuter1" result="shadowBlurOuter1" stdDeviation="5"/><feComposite in="shadowBlurOuter1" in2="SourceAlpha" operator="out" result="shadowBlurOuter1"/><feColorMatrix in="shadowBlurOuter1" values="0 0 0 0 0.207843137 0 0 0 0 0.258823529 0 0 0 0 0.329411765 0 0 0 0.101137908 0"/></filter><rect id="f" width="130" height="70" x="0" y="0" rx="8"/><filter id="e" width="126.2%" height="148.6%" x="-13.1%" y="-21.4%" filterUnits="objectBoundingBox"><feMorphology in="SourceAlpha" operator="dilate" radius="1" result="shadowSpreadOuter1"/><feOffset dy="2" in="shadowSpreadOuter1" result="shadowOffsetOuter1"/><feGaussianBlur in="shadowOffsetOuter1" result="shadowBlurOuter1" stdDeviation="5"/><feComposite in="shadowBlurOuter1" in2="SourceAlpha" operator="out" result="shadowBlurOuter1"/><feColorMatrix in="shadowBlurOuter1" values="0 0 0 0 0.207843137 0 0 0 0 0.258823529 0 0 0 0 0.329411765 0 0 0 0.101137908 0"/></filter><rect id="h" width="130" height="70" x="0" y="0" rx="8"/><filter id="g" width="126.2%" height="148.6%" x="-13.1%" y="-21.4%" filterUnits="objectBoundingBox"><feMorphology in="SourceAlpha" operator="dilate" radius="1" result="shadowSpreadOuter1"/><feOffset dy="2" in="shadowSpreadOuter1" result="shadowOffsetOuter1"/><feGaussianBlur in="shadowOffsetOuter1" result="shadowBlurOuter1" stdDeviation="5"/><feComposite in="shadowBlurOuter1" in2="SourceAlpha" operator="out" result="shadowBlurOuter1"/><feColorMatrix in="shadowBlurOuter1" values="0 0 0 0 0.207843137 0 0 0 0 0.258823529 0 0 0 0 0.329411765 0 0 0 0.101137908 0"/></filter><rect id="j" width="56" height="56" x="0" y="0" rx="4"/><filter id="i" width="160.7%" height="160.7%" x="-30.4%" y="-26.8%" filterUnits="objectBoundingBox"><feMorphology in="SourceAlpha" operator="dilate" radius="1" result="shadowSpreadOuter1"/><feOffset dy="2" in="shadowSpreadOuter1" result="shadowOffsetOuter1"/><feGaussianBlur in="shadowOffsetOuter1" result="shadowBlurOuter1" stdDeviation="5"/><feComposite in="shadowBlurOuter1" in2="SourceAlpha" operator="out" result="shadowBlurOuter1"/><feColorMatrix in="shadowBlurOuter1" values="0 0 0 0 0.207843137 0 0 0 0 0.258823529 0 0 0 0 0.329411765 0 0 0 0.101137908 0"/></filter><rect id="l" width="64" height="64" x="0" y="0" rx="4.571"/><filter id="k" width="158.3%" height="158.3%" x="-29.1%" y="-26%" filterUnits="objectBoundingBox"><feMorphology in="SourceAlpha" operator="dilate" radius="1.143" result="shadowSpreadOuter1"/><feOffset dy="2" in="shadowSpreadOuter1" result="shadowOffsetOuter1"/><feGaussianBlur in="shadowOffsetOuter1" result="shadowBlurOuter1" stdDeviation="5.5"/><feComposite in="shadowBlurOuter1" in2="SourceAlpha" operator="out" result="shadowBlurOuter1"/><feColorMatrix in="shadowBlurOuter1" values="0 0 0 0 0.207843137 0 0 0 0 0.258823529 0 0 0 0 0.329411765 0 0 0 0.101137908 0"/></filter><rect id="n" width="32" height="32" x="0" y="0" rx="3.048"/><filter id="m" width="187.5%" height="187.5%" x="-43.8%" y="-37.5%" filterUnits="objectBoundingBox"><feMorphology in="SourceAlpha" operator="dilate" radius="1" result="shadowSpreadOuter1"/><feOffset dy="2" in="shadowSpreadOuter1" result="shadowOffsetOuter1"/><feGaussianBlur in="shadowOffsetOuter1" result="shadowBlurOuter1" stdDeviation="4"/><feComposite in="shadowBlurOuter1" in2="SourceAlpha" operator="out" result="shadowBlurOuter1"/><feColorMatrix in="shadowBlurOuter1" values="0 0 0 0 0.207843137 0 0 0 0 0.258823529 0 0 0 0 0.329411765 0 0 0 0.101137908 0"/></filter><rect id="p" width="42" height="42" x="0" y="0" rx="4"/><filter id="o" width="181%" height="181%" x="-40.5%" y="-35.7%" filterUnits="objectBoundingBox"><feMorphology in="SourceAlpha" operator="dilate" radius="1" result="shadowSpreadOuter1"/><feOffset dy="2" in="shadowSpreadOuter1" result="shadowOffsetOuter1"/><feGaussianBlur in="shadowOffsetOuter1" result="shadowBlurOuter1" stdDeviation="5"/><feComposite in="shadowBlurOuter1" in2="SourceAlpha" operator="out" result="shadowBlurOuter1"/><feColorMatrix in="shadowBlurOuter1" values="0 0 0 0 0.207843137 0 0 0 0 0.258823529 0 0 0 0 0.329411765 0 0 0 0.101137908 0"/></filter><rect id="r" width="256" height="104" x="0" y="0" rx="8"/><filter id="q" width="113.3%" height="132.7%" x="-6.6%" y="-14.4%" filterUnits="objectBoundingBox"><feMorphology in="SourceAlpha" operator="dilate" radius="1" result="shadowSpreadOuter1"/><feOffset dy="2" in="shadowSpreadOuter1" result="shadowOffsetOuter1"/><feGaussianBlur in="shadowOffsetOuter1" result="shadowBlurOuter1" stdDeviation="5"/><feComposite in="shadowBlurOuter1" in2="SourceAlpha" operator="out" result="shadowBlurOuter1"/><feColorMatrix in="shadowBlurOuter1" values="0 0 0 0 0.207843137 0 0 0 0 0.258823529 0 0 0 0 0.329411765 0 0 0 0.101137908 0"/></filter><rect id="t" width="42" height="28" x="0" y="0" rx="2"/><filter id="s" width="123.8%" height="135.7%" x="-11.9%" y="-14.3%" filterUnits="objectBoundingBox"><feOffset dy="1" in="SourceAlpha" result="shadowOffsetOuter1"/><feGaussianBlur in="shadowOffsetOuter1" result="shadowBlurOuter1" stdDeviation="1.5"/><feComposite in="shadowBlurOuter1" in2="SourceAlpha" operator="out" result="shadowBlurOuter1"/><feColorMatrix in="shadowBlurOuter1" values="0 0 0 0 0.207843137 0 0 0 0 0.258823529 0 0 0 0 0.329411765 0 0 0 0.12 0"/></filter><rect id="v" width="42" height="28" x="0" y="0" rx="2"/><filter id="u" width="123.8%" height="135.7%" x="-11.9%" y="-14.3%" filterUnits="objectBoundingBox"><feOffset dy="1" in="SourceAlpha" result="shadowOffsetOuter1"/><feGaussianBlur in="shadowOffsetOuter1" result="shadowBlurOuter1" stdDeviation="1.5"/><feComposite in="shadowBlurOuter1" in2="SourceAlpha" operator="out" result="shadowBlurOuter1"/><feColorMatrix in="shadowBlurOuter1" values="0 0 0 0 0.207843137 0 0 0 0 0.258823529 0 0 0 0 0.329411765 0 0 0 0.12 0"/></filter></defs><g fill="none" fill-rule="evenodd" transform="translate(11 9)"><path stroke="#9D9D9D" stroke-dasharray="2 4" stroke-linecap="round" stroke-linejoin="round" stroke-width="2" d="M157 134v94m-42.244 17v16.639c0 5.523-4.477 10-10 10H77c-5.523 0-10 4.477-10 10V294h0m133-49v16.639c0 5.523 4.477 10 10 10h27.756c5.523 0 10 4.477 10 10V294h0"/><g transform="translate(90 67)"><use fill="#000" filter="url(#a)" xlink:href="#b"/><rect width="141" height="75" x="-.5" y="-.5" fill="#FFF" stroke="#E1E1E1" rx="8"/><path fill="#354254" fill-rule="nonzero" d="M41.392 26v-1.442h-4.76v-2.604h4.662v-1.442h-4.662v-2.408h4.76v-1.442h-6.398V26h6.398zm7.686 0v-4.76c0-1.386-.728-2.17-2.184-2.17-1.064 0-1.946.546-2.394 1.078v-.91h-1.47V26h1.47v-4.732c.35-.448.994-.896 1.736-.896.826 0 1.372.336 1.372 1.4V26h1.47zm3.948.168c.672 0 1.106-.196 1.372-.434l-.35-1.12c-.112.126-.364.252-.644.252-.42 0-.644-.35-.644-.812v-3.542h1.372v-1.274H52.76V17.39h-1.47v1.848h-1.12v1.274h1.12v3.906c0 1.134.588 1.75 1.736 1.75zM56.918 26v-4.606c.294-.49 1.12-.91 1.75-.91.182 0 .322.014.448.042V19.07c-.868 0-1.68.504-2.198 1.148v-.98h-1.47V26h1.47zm3.108 2.646l.21-1.316c.154.07.392.112.56.112.476 0 .784-.14.98-.588l.336-.77-2.786-6.846h1.582l1.974 5.068 1.974-5.068h1.568l-3.262 7.98c-.462 1.148-1.26 1.512-2.31 1.526-.21 0-.63-.042-.826-.098z"/><path fill="#01B2D0" fill-rule="nonzero" d="M25.919 20.79a.705.705 0 0 0-.525-1.175h-4.539l2.11-6.695c.228-.723-.692-1.246-1.198-.681L12.181 22.95a.705.705 0 0 0 .525 1.175h4.536l-2.107 6.695c-.228.723.692 1.246 1.198.681l9.586-10.711z"/><rect width="116" height="2" x="12" y="50" fill="#F1F1F1" rx="1"/><rect width="116" height="2" x="12" y="60" fill="#F1F1F1" rx="1"/></g><g transform="translate(95 181)"><use fill="#000" filter="url(#c)" xlink:href="#d"/><rect width="131" height="71" x="-.5" y="-.5" fill="#FFF" stroke="#E1E1E1" rx="8"/><path fill="#354254" fill-rule="nonzero" d="M43.48 26c2.912 0 4.872-1.918 4.872-4.676 0-2.73-1.96-4.662-4.886-4.662h-3.472V26h3.486zm-.014-1.442h-1.834v-6.454h1.848c2.072 0 3.192 1.428 3.192 3.22 0 1.778-1.176 3.234-3.206 3.234zm9.562 1.61c1.064 0 2.058-.35 2.744-.994l-.672-.966c-.49.49-1.26.756-1.932.756-1.274 0-2.03-.854-2.142-1.862h5.208v-.364c0-2.128-1.288-3.668-3.318-3.668-2.002 0-3.43 1.582-3.43 3.542 0 2.142 1.498 3.556 3.542 3.556zm1.792-4.116h-3.808c.056-.812.644-1.778 1.89-1.778 1.33 0 1.876.98 1.918 1.778zM59.16 26v-9.338h-1.47V26h1.47zm7.518 0v-4.494c0-1.806-1.316-2.436-2.828-2.436-1.078 0-2.058.336-2.842 1.092l.616 1.022c.574-.588 1.246-.868 2.002-.868.924 0 1.582.476 1.582 1.26v1.008c-.504-.574-1.274-.868-2.198-.868-1.106 0-2.338.644-2.338 2.212 0 1.484 1.246 2.24 2.338 2.24.896 0 1.694-.322 2.198-.91V26h1.47zm-3.08-.84c-.826 0-1.456-.476-1.456-1.218 0-.728.63-1.218 1.456-1.218.63 0 1.26.238 1.61.7v1.036c-.35.462-.98.7-1.61.7zm4.704 3.486l.21-1.316c.154.07.392.112.56.112.476 0 .784-.14.98-.588l.336-.77-2.786-6.846h1.582l1.974 5.068 1.974-5.068H74.7l-3.262 7.98c-.462 1.148-1.26 1.512-2.31 1.526-.21 0-.63-.042-.826-.098z"/><path fill="#B97ED7" fill-rule="nonzero" d="M23.515 10c.39 0 .705.28.705.627 0 .346-.316.626-.705.626h-1.41v1.593a9.363 9.363 0 0 1 5.942 2.727 9.4 9.4 0 1 1-13.294 0 9.363 9.363 0 0 1 5.943-2.727l-.001-1.593h-1.41c-.39 0-.705-.28-.705-.626s.316-.627.705-.627h4.23zM21.4 15.64c-.26 0-.47.303-.47.678v5.088a.941.941 0 0 0-.195 1.479.94.94 0 1 0 1.136-1.479l-.001-5.088c0-.375-.21-.678-.47-.678z"/><rect width="106" height="2" x="12" y="46" fill="#F1F1F1" rx="1"/><rect width="106" height="2" x="12" y="56" fill="#F1F1F1" rx="1"/></g><g transform="translate(10 291)"><use fill="#000" filter="url(#e)" xlink:href="#f"/><rect width="131" height="71" x="-.5" y="-.5" fill="#FFF" stroke="#E1E1E1" rx="8"/><path fill="#354254" fill-rule="nonzero" d="M36.632 26v-3.5h2.478c1.946 0 3.038-1.33 3.038-2.912 0-1.596-1.078-2.926-3.038-2.926h-4.116V26h1.638zm2.254-4.942h-2.254v-2.954h2.254c.924 0 1.582.588 1.582 1.484 0 .882-.658 1.47-1.582 1.47zM49.512 26v-6.762h-1.47v4.746c-.336.448-.98.882-1.722.882-.84 0-1.372-.336-1.372-1.386v-4.242h-1.47v4.788c0 1.372.728 2.142 2.184 2.142a3.234 3.234 0 0 0 2.38-1.064V26h1.47zm4.228.168c1.82 0 2.814-.91 2.814-2.114 0-2.688-4.088-1.792-4.088-2.982 0-.476.476-.84 1.246-.84.854 0 1.596.364 2.002.812l.616-1.036c-.602-.532-1.47-.938-2.618-.938-1.708 0-2.66.938-2.66 2.044 0 2.604 4.088 1.652 4.088 2.982 0 .532-.462.896-1.344.896-.868 0-1.806-.448-2.282-.938l-.672 1.05c.7.686 1.736 1.064 2.898 1.064zM64.072 26h-1.47v-4.256c0-1.064-.532-1.372-1.358-1.372-.756 0-1.4.448-1.736.896V26h-1.47v-9.338h1.47v3.486c.448-.532 1.316-1.078 2.38-1.078 1.456 0 2.184.756 2.184 2.142V26z"/><path fill="#96C775" d="M22.716 11a2.444 2.444 0 0 1 2.444 2.444v13.912a2.444 2.444 0 0 1-2.444 2.444h-8.272A2.444 2.444 0 0 1 12 27.356V13.444A2.444 2.444 0 0 1 14.444 11h8.272zm-6.529 1.879l-1.17.001c-.633 0-1.154.48-1.216 1.097l-.006.125v12.596c0 .633.48 1.153 1.097 1.216l.125.006h7.126c.633 0 1.154-.48 1.216-1.097l.006-.125V14.102c0-.675-.547-1.222-1.222-1.222l-1.171-.001v.643a.611.611 0 0 1-.61.611h-3.564a.611.611 0 0 1-.61-.61l-.001-.644zM21.4 18.52c.52 0 .94.42.94.94v2.82c0 .52-.42.94-.94.94h-5.64a.94.94 0 0 1-.94-.94v-2.82c0-.52.42-.94.94-.94h5.64z"/><rect width="106" height="2" x="12" y="46" fill="#F1F1F1" rx="1"/><rect width="106" height="2" x="12" y="56" fill="#F1F1F1" rx="1"/></g><g transform="translate(180 291)"><use fill="#000" filter="url(#g)" xlink:href="#h"/><rect width="131" height="71" x="-.5" y="-.5" fill="#FFF" stroke="#E1E1E1" rx="8"/><path fill="#354254" fill-rule="nonzero" d="M46.392 26v-1.442h-4.76v-2.604h4.662v-1.442h-4.662v-2.408h4.76v-1.442h-6.398V26h6.398zm11.41 0v-4.886c0-1.372-.714-2.044-1.946-2.044-1.022 0-1.918.63-2.296 1.232-.224-.728-.84-1.232-1.848-1.232-1.036 0-1.918.672-2.212 1.078v-.91h-1.47V26h1.47v-4.732c.308-.434.91-.896 1.568-.896.798 0 1.106.49 1.106 1.218V26h1.47v-4.732c.294-.448.91-.896 1.568-.896.798 0 1.12.49 1.12 1.218V26h1.47zm7.518 0v-4.494c0-1.806-1.316-2.436-2.828-2.436-1.078 0-2.058.336-2.842 1.092l.616 1.022c.574-.588 1.246-.868 2.002-.868.924 0 1.582.476 1.582 1.26v1.008c-.504-.574-1.274-.868-2.198-.868-1.106 0-2.338.644-2.338 2.212 0 1.484 1.246 2.24 2.338 2.24.896 0 1.694-.322 2.198-.91V26h1.47zm-3.08-.84c-.826 0-1.456-.476-1.456-1.218 0-.728.63-1.218 1.456-1.218.63 0 1.26.238 1.61.7v1.036c-.35.462-.98.7-1.61.7zm5.726-6.748c.504 0 .91-.406.91-.91a.908.908 0 0 0-.91-.91.908.908 0 0 0-.91.91c0 .504.406.91.91.91zM68.694 26v-6.762h-1.47V26h1.47zm3.374 0h-1.47v-9.338h1.47V26z"/><path fill="#6BC0CF" d="M28.356 15a2.444 2.444 0 0 1 2.444 2.444v8.272a2.444 2.444 0 0 1-2.444 2.444H14.444A2.444 2.444 0 0 1 12 25.716v-8.272A2.444 2.444 0 0 1 14.444 15h13.912zM14.95 17.05a.664.664 0 0 0-.886 0 .547.547 0 0 0 0 .817l6.893 6.364a.664.664 0 0 0 .886 0l6.894-6.364a.547.547 0 0 0 0-.818.664.664 0 0 0-.887 0l-6.45 5.955z"/><rect width="106" height="2" x="12" y="46" fill="#F1F1F1" rx="1"/><rect width="106" height="2" x="12" y="56" fill="#F1F1F1" rx="1"/></g><use fill="#000" filter="url(#i)" xlink:href="#j"/><rect width="57" height="57" x="-.5" y="-.5" fill="#FFF" stroke="#E1E1E1" rx="4"/><path d="M8 8h40v40H8z"/><path fill="#1B2E5B" fill-opacity=".196" d="M39.772 35.263c-4.423-1.022-8.54-1.917-6.545-5.68C39.294 18.125 34.835 12 28.427 12c-6.536 0-10.884 6.363-4.8 17.584 2.053 3.785-2.218 4.68-6.545 5.68-3.576.826-4.037 2.512-4.082 5.367-.02 1.226.995 2.22 2.22 2.22h26.41c1.226 0 2.24-.995 2.22-2.22-.043-2.856-.504-4.543-4.08-5.368z"/><g transform="translate(270 34)"><use fill="#000" filter="url(#k)" xlink:href="#l"/><rect width="65.143" height="65.143" x="-.571" y="-.571" fill="#FFF" stroke="#E1E1E1" stroke-width="1.143" rx="4.571"/><path d="M9.143 9.143h45.714v45.714H9.143z"/><path fill="#1B2E5B" fill-opacity=".196" d="M45.453 40.3c-5.054-1.167-9.759-2.19-7.48-6.492 6.935-13.092 1.839-20.094-5.485-20.094-7.47 0-12.439 7.272-5.486 20.096 2.347 4.326-2.534 5.349-7.48 6.492-4.086.944-4.613 2.871-4.664 6.134-.023 1.401 1.136 2.538 2.536 2.538h30.184c1.401 0 2.56-1.139 2.538-2.538-.05-3.265-.576-5.192-4.663-6.136z"/></g><g transform="translate(64 11)"><use fill="#000" filter="url(#m)" xlink:href="#n"/><rect width="33" height="33" x="-.5" y="-.5" fill="#FFF" stroke="#E1E1E1" rx="3.048"/><path fill="#1B2E5B" fill-opacity=".196" d="M23.318 21.18c-2.696-.624-5.205-1.169-3.99-3.463C23.029 10.734 20.31 7 16.404 7c-3.984 0-6.634 3.878-2.926 10.718 1.252 2.307-1.351 2.852-3.989 3.462-2.18.503-2.46 1.531-2.488 3.272-.012.747.606 1.353 1.353 1.353H24.45c.747 0 1.366-.607 1.354-1.353-.027-1.742-.308-2.77-2.487-3.273z"/></g><g transform="translate(38 36)"><use fill="#000" filter="url(#o)" xlink:href="#p"/><rect width="43" height="43" x="-.5" y="-.5" fill="#FFF" stroke="#E1E1E1" rx="4"/><path fill="#1B2E5B" fill-opacity=".196" d="M30.417 26.61c-3.538-.817-6.831-1.533-5.236-4.544C30.036 12.9 26.468 8 21.341 8c-5.228 0-8.707 5.09-3.84 14.067 1.643 3.028-1.774 3.744-5.235 4.544-2.861.66-3.23 2.01-3.266 4.294-.015.98.796 1.776 1.776 1.776h21.129c.98 0 1.792-.796 1.776-1.776-.034-2.285-.403-3.634-3.264-4.295z"/></g><g transform="translate(211 152)"><use fill="#000" filter="url(#q)" xlink:href="#r"/><rect width="257" height="105" x="-.5" y="-.5" fill="#FFF" stroke="#E1E1E1" rx="8"/><rect width="235" height="83" x="10.5" y="10.5" fill="#F8F3FB" stroke="#B97ED7" rx="4"/><g transform="translate(53 22)"><use fill="#000" filter="url(#s)" xlink:href="#t"/><rect width="41" height="27" x=".5" y=".5" fill="#FFF" stroke="#E1E1E1" stroke-linejoin="square" rx="2"/><path fill="#354254" fill-rule="nonzero" d="M11.132 17h-.996v-6.696l-1.284 1.368-.6-.612 2.004-2.064h.876z"/></g><g transform="translate(103 22)"><use fill="#000" filter="url(#u)" xlink:href="#v"/><rect width="41" height="27" x=".5" y=".5" fill="#FFF" stroke="#E1E1E1" stroke-linejoin="square" rx="2"/><path fill="#354254" fill-rule="nonzero" d="M14 17V8.996h-.9v3.084c-.468-.636-1.176-1.02-1.956-1.02-1.512 0-2.58 1.188-2.58 3.048 0 1.884 1.068 3.036 2.58 3.036a2.44 2.44 0 0 0 1.956-1.008V17h.9zm-2.628-.66c-1.176 0-1.872-.948-1.872-2.232 0-1.284.696-2.244 1.872-2.244.708 0 1.416.432 1.728.936v2.616c-.312.504-1.02.924-1.728.924zm8.952.66v-3.984c0-1.404-1.008-1.956-2.244-1.956-.948 0-1.692.312-2.316.96l.42.624c.516-.564 1.08-.804 1.776-.804.84 0 1.464.444 1.464 1.212v1.044c-.468-.528-1.128-.78-1.92-.78-.984 0-2.016.6-2.016 1.908 0 1.26 1.044 1.92 2.016 1.92.78 0 1.452-.276 1.92-.804V17h.9zm-2.484-.504c-.852 0-1.44-.528-1.44-1.272 0-.732.588-1.26 1.44-1.26.624 0 1.236.24 1.584.708v1.104c-.348.48-.96.72-1.584.72zm3.984 2.772c.156.048.456.084.648.084.768-.012 1.356-.336 1.704-1.176l2.904-6.972h-.972l-1.932 4.752-1.92-4.752h-.984l2.424 5.856-.384.876c-.204.48-.468.612-.864.612a1.38 1.38 0 0 1-.492-.096l-.132.816zm8.04-2.124c-.96 0-1.752-.3-2.34-.912l.456-.648c.384.444 1.116.828 1.908.828.888 0 1.38-.42 1.38-.996 0-1.404-3.588-.54-3.588-2.688 0-.912.768-1.668 2.148-1.668.996 0 1.692.372 2.148.84l-.42.624c-.348-.42-.972-.732-1.728-.732-.792 0-1.284.396-1.284.912 0 1.26 3.588.432 3.588 2.688 0 .972-.78 1.752-2.268 1.752z"/></g><path fill="#354254" fill-rule="nonzero" d="M30.136 39l2.292-8.004h-1.116l-1.764 6.672-1.836-6.672h-.828l-1.836 6.672-1.776-6.672h-1.104L24.448 39h1.08l1.764-6.456L29.056 39h1.08zm7.404 0v-3.984c0-1.404-1.008-1.956-2.244-1.956-.948 0-1.692.312-2.316.96l.42.624c.516-.564 1.08-.804 1.776-.804.84 0 1.464.444 1.464 1.212v1.044c-.468-.528-1.128-.78-1.92-.78-.984 0-2.016.6-2.016 1.908 0 1.26 1.044 1.92 2.016 1.92.78 0 1.452-.276 1.92-.804V39h.9zm-2.484-.504c-.852 0-1.44-.528-1.44-1.272 0-.732.588-1.26 1.44-1.26.624 0 1.236.24 1.584.708v1.104c-.348.48-.96.72-1.584.72zm4.752-6.12c.336 0 .6-.264.6-.6a.604.604 0 0 0-.6-.612.615.615 0 0 0-.612.612c0 .336.276.6.612.6zM40.252 39v-5.796h-.9V39h.9zm3.276.144c-.864 0-1.296-.492-1.296-1.356v-3.792h-.96v-.792h.96V31.62h.912v1.584h1.176v.792h-1.176v3.6c0 .432.192.744.576.744.264 0 .492-.12.612-.252l.264.684c-.228.216-.552.372-1.068.372z"/><rect width="110" height="4" x="24" y="76" fill="#6F0DFB" fill-opacity=".2" rx="2"/><rect width="82" height="4" x="24" y="62" fill="#6F0DFB" fill-opacity=".2" rx="2"/><rect width="56" height="4" x="112" y="62" fill="#6F0DFB" fill-opacity=".2" rx="2"/><rect width="79" height="4" x="153" y="34" fill="#6F0DFB" fill-opacity=".2" rx="2"/></g></g></svg>