<svg xmlns="http://www.w3.org/2000/svg" xmlns:xlink="http://www.w3.org/1999/xlink" width="194" height="22" viewBox="0 0 194 22"><defs><path id="a" d="M80.5 11.25l-4.408 2.318.842-4.909-3.567-3.477 4.929-.716L80.5 0l2.204 4.466 4.929.716-3.567 3.477.842 4.909z"/></defs><g fill="none" fill-rule="evenodd"><g transform="translate(106 4)"><path fill="#FFC111" d="M7.5 11.25l-4.408 2.318.842-4.909L.367 5.182l4.929-.716L7.5 0l2.204 4.466 4.929.716-3.567 3.477.842 4.909zm18 0l-4.408 2.318.842-4.909-3.567-3.477 4.929-.716L25.5 0l2.204 4.466 4.929.716-3.567 3.477.842 4.909zm19 0l-4.408 2.318.842-4.909-3.567-3.477 4.929-.716L44.5 0l2.204 4.466 4.929.716-3.567 3.477.842 4.909zm18 0l-4.408 2.318.842-4.909-3.567-3.477 4.929-.716L62.5 0l2.204 4.466 4.929.716-3.567 3.477.842 4.909z"/><mask id="b" fill="#fff"><use xlink:href="#a"/></mask><use fill="#F1F1F1" xlink:href="#a"/><path fill="#FFC111" mask="url(#b)" d="M73.5 0h7v14h-7z"/></g><g fill-rule="nonzero"><path fill="#FF9D28" d="M0 7.697l8.893.002L14.3 7.7V2.2z"/><path fill="#68C5ED" d="M14.3 2.466V20.9L20.9 0z"/><path fill="#044D80" d="M14.3 7.701L8.8 7.7l5.5 13.2z"/><path fill="#E54747" d="M0 7.7L9.9 11 8.565 7.702z"/><path fill="#044D80" d="M32.828 16.255c-.078.08-.207.18-.389.3-.182.12-.418.24-.71.36s-.649.223-1.07.31c-.422.086-.905.13-1.45.13-1.05 0-1.958-.174-2.723-.52a5.085 5.085 0 0 1-1.897-1.45c-.5-.62-.866-1.354-1.1-2.201-.233-.847-.35-1.777-.35-2.791 0-1.013.127-1.95.38-2.81.253-.861.632-1.604 1.138-2.231a5.247 5.247 0 0 1 1.897-1.47c.759-.354 1.65-.53 2.675-.53.506 0 .963.046 1.372.14a6.54 6.54 0 0 1 1.07.33c.304.126.557.26.758.4.201.14.354.256.458.35.116.106.217.233.301.38a.949.949 0 0 1 .127.48c0 .267-.098.533-.292.8a5.733 5.733 0 0 1-.642.74 7.99 7.99 0 0 0-.525-.49 3.546 3.546 0 0 0-.652-.44 4.249 4.249 0 0 0-.817-.32 3.734 3.734 0 0 0-1.022-.13c-.661 0-1.216.137-1.663.41-.448.273-.808.63-1.08 1.07a4.63 4.63 0 0 0-.584 1.51 9.008 9.008 0 0 0 0 3.53 4.36 4.36 0 0 0 .604 1.522c.285.44.658.793 1.118 1.06.46.267 1.034.4 1.722.4a3.41 3.41 0 0 0 1.002-.14 3.956 3.956 0 0 0 1.42-.76c.175-.147.321-.273.438-.38.078.093.168.207.272.34.105.135.202.275.292.42.09.147.168.294.234.44.064.147.097.28.097.4 0 .174-.033.32-.097.44a1.9 1.9 0 0 1-.312.4zm10.026-1.535c0 1.06.15 1.832.45 2.315a3.25 3.25 0 0 1-1.292.261c-.469 0-.825-.094-1.066-.281-.242-.188-.395-.456-.46-.805-.287.309-.665.57-1.135.785-.47.214-1.044.322-1.723.322-.352 0-.704-.05-1.056-.15a2.748 2.748 0 0 1-.96-.492 2.54 2.54 0 0 1-.704-.913c-.183-.381-.274-.846-.274-1.394 0-.682.16-1.238.48-1.665.319-.429.72-.766 1.203-1.014a5.345 5.345 0 0 1 1.566-.511 14.505 14.505 0 0 1 2.006-.201h.421v-.366c0-.516-.134-.882-.401-1.1-.268-.216-.702-.325-1.302-.325-.561 0-1.06.094-1.497.282-.438.188-.865.402-1.282.644a2.97 2.97 0 0 1-.44-.755c-.112-.275-.167-.48-.167-.614 0-.188.101-.369.303-.543.203-.175.48-.332.832-.473a6.612 6.612 0 0 1 1.214-.342c.456-.088.94-.131 1.448-.131.705 0 1.302.074 1.791.221.49.148.887.376 1.194.684.306.31.525.695.656 1.158.13.463.195 1.003.195 1.62v3.783zm-2.505-2.334h-.274c-.091 0-.183.007-.274.02-.326.027-.65.067-.969.12-.32.054-.604.148-.851.282a1.82 1.82 0 0 0-.607.524c-.157.214-.235.49-.235.825 0 .376.104.694.313.956.209.261.561.392 1.057.392a2.427 2.427 0 0 0 1.292-.362c.17-.107.303-.225.401-.352.098-.128.147-.245.147-.352v-2.053zm7.379-3.965c.208-.255.533-.513.975-.775.442-.262 1.002-.392 1.678-.392.482 0 .94.084 1.376.251.435.168.822.44 1.16.815.339.376.609.873.81 1.49.202.617.303 1.375.303 2.274 0 1.046-.117 1.909-.351 2.586-.235.678-.537 1.215-.907 1.61a3.12 3.12 0 0 1-1.24.835 4.07 4.07 0 0 1-1.365.242 3.36 3.36 0 0 1-.985-.13 3.885 3.885 0 0 1-.713-.293 1.891 1.891 0 0 1-.643-.543v4.947h-2.662V7.535a4.595 4.595 0 0 1 .513-.07c.105-.007.23-.01.374-.01.434 0 .802.074 1.104.221.303.148.494.396.573.745zm3.523 3.723c0-.402-.033-.778-.098-1.127a2.79 2.79 0 0 0-.32-.905 1.582 1.582 0 0 0-.604-.594c-.253-.141-.561-.211-.924-.211-.545 0-.925.107-1.139.321-.214.215-.32.45-.32.705V14.6c.103.107.287.234.553.382.267.148.574.221.925.221.662 0 1.148-.268 1.46-.805.311-.536.467-1.288.467-2.254zm4.834 3.462a3.584 3.584 0 0 1-.177-.845 9.98 9.98 0 0 1-.039-.886V4.537c.091-.014.19-.027.294-.04a3.85 3.85 0 0 1 .293-.03c.105-.007.209-.01.313-.01.209 0 .418.02.627.06.208.04.398.12.568.24.169.122.306.286.41.494.105.208.157.48.157.815v1.429h2.74v2.033h-2.74v4.292c0 .936.372 1.403 1.116 1.403.182 0 .355-.03.518-.09.163-.06.31-.127.44-.201a2.785 2.785 0 0 0 .548-.413c.196.296.346.551.45.767.105.216.157.419.157.608a.818.818 0 0 1-.205.518c-.137.17-.33.325-.578.468a3.531 3.531 0 0 1-.9.345 4.756 4.756 0 0 1-1.155.132c-.809 0-1.438-.161-1.888-.483a2.56 2.56 0 0 1-.95-1.268zm11.928-.262c.327 0 .615-.036.864-.11a3.4 3.4 0 0 0 .668-.272c.196-.107.367-.225.51-.352.145-.128.275-.245.394-.353.156.202.32.46.49.775.17.316.256.574.256.775 0 .295-.163.564-.49.805-.273.215-.662.4-1.164.554-.503.154-1.093.231-1.771.231-.614 0-1.217-.08-1.81-.241a3.967 3.967 0 0 1-1.586-.846c-.464-.402-.839-.942-1.126-1.62-.287-.677-.43-1.532-.43-2.566 0-.845.127-1.573.381-2.184.255-.61.594-1.116 1.018-1.519a3.992 3.992 0 0 1 1.439-.886 4.933 4.933 0 0 1 1.644-.281c.73 0 1.35.117 1.86.352a3.4 3.4 0 0 1 1.242.946c.32.396.551.848.695 1.358.143.51.215 1.047.215 1.61v.282c0 .108-.003.221-.01.342l-.02.352a2.25 2.25 0 0 1-.028.272H65.48c.052.738.275 1.352.667 1.842.393.49 1.015.734 1.866.734zm.892-4.085c0-.644-.122-1.168-.364-1.57-.243-.403-.68-.604-1.31-.604-.538 0-.967.191-1.289.574-.322.382-.482.915-.482 1.6h3.445zm7.04-2.787c.078-.12.182-.253.313-.4.13-.146.29-.28.48-.399.188-.12.397-.22.626-.3.228-.08.472-.12.734-.12.156 0 .322.014.499.04a1.7 1.7 0 0 1 .489.15c.15.074.27.173.362.3a.78.78 0 0 1 .137.469c0 .292-.072.629-.215 1.008a8.34 8.34 0 0 1-.43.972 2.891 2.891 0 0 0-.666-.433 1.882 1.882 0 0 0-.783-.15c-.405 0-.744.12-1.018.363-.274.242-.411.531-.411.868v6.515H73.4v-9.82a4.57 4.57 0 0 1 .509-.07 6 6 0 0 1 .372-.01c.417 0 .78.083 1.086.25.306.165.5.421.577.767zm7.567 0a3.54 3.54 0 0 1 .314-.4c.13-.146.29-.28.48-.399.188-.12.397-.22.625-.3.229-.08.473-.12.734-.12.157 0 .323.014.5.04a1.7 1.7 0 0 1 .489.15c.15.074.27.173.362.3a.781.781 0 0 1 .137.469c0 .292-.072.629-.215 1.008-.144.38-.288.704-.43.972a2.888 2.888 0 0 0-.666-.433 1.882 1.882 0 0 0-.783-.15c-.405 0-.744.12-1.018.363-.274.242-.411.531-.411.868v6.515h-2.662v-9.82a4.578 4.578 0 0 1 .509-.07c.104-.007.228-.01.372-.01.417 0 .78.083 1.086.25.306.165.5.421.577.767zm12.703 6.248c0 1.06.15 1.832.45 2.315a3.25 3.25 0 0 1-1.292.261c-.47 0-.825-.094-1.066-.281-.242-.188-.395-.456-.46-.805-.287.309-.666.57-1.135.785-.47.214-1.044.322-1.723.322a3.86 3.86 0 0 1-1.057-.15 2.747 2.747 0 0 1-.959-.492 2.54 2.54 0 0 1-.704-.913c-.183-.381-.274-.846-.274-1.394 0-.682.16-1.238.48-1.665.319-.429.72-.766 1.203-1.014a5.343 5.343 0 0 1 1.566-.511 14.499 14.499 0 0 1 2.006-.201h.42v-.366c0-.516-.133-.882-.4-1.1-.268-.216-.702-.325-1.302-.325-.561 0-1.06.094-1.497.282-.438.188-.865.402-1.282.644a2.973 2.973 0 0 1-.44-.755c-.112-.275-.167-.48-.167-.614 0-.188.1-.369.303-.543.203-.175.48-.332.832-.473a6.612 6.612 0 0 1 1.214-.342 7.72 7.72 0 0 1 1.448-.131c.705 0 1.302.074 1.79.221.49.148.888.376 1.195.684.306.31.525.695.656 1.158.13.463.195 1.003.195 1.62v3.783zm-2.505-2.334h-.274c-.092 0-.183.007-.274.02-.326.027-.65.067-.969.12-.32.054-.604.148-.851.282a1.8 1.8 0 0 0-.607.524c-.157.214-.235.49-.235.825 0 .376.104.694.313.956.209.261.561.392 1.057.392a2.427 2.427 0 0 0 1.292-.362c.17-.107.303-.225.401-.352.098-.128.147-.245.147-.352v-2.053z"/></g></g></svg>