<svg xmlns="http://www.w3.org/2000/svg" xmlns:xlink="http://www.w3.org/1999/xlink" width="187" height="20" viewBox="0 0 187 20"><defs><path id="a" d="M80.5 11.25l-4.408 2.318.842-4.909-3.567-3.477 4.929-.716L80.5 0l2.204 4.466 4.929.716-3.567 3.477.842 4.909z"/></defs><g fill="none" fill-rule="evenodd"><g transform="translate(99 3)"><path fill="#FFC111" d="M7.5 11.25l-4.408 2.318.842-4.909L.367 5.182l4.929-.716L7.5 0l2.204 4.466 4.929.716-3.567 3.477.842 4.909zm18 0l-4.408 2.318.842-4.909-3.567-3.477 4.929-.716L25.5 0l2.204 4.466 4.929.716-3.567 3.477.842 4.909zm19 0l-4.408 2.318.842-4.909-3.567-3.477 4.929-.716L44.5 0l2.204 4.466 4.929.716-3.567 3.477.842 4.909zm18 0l-4.408 2.318.842-4.909-3.567-3.477 4.929-.716L62.5 0l2.204 4.466 4.929.716-3.567 3.477.842 4.909z"/><mask id="b" fill="#fff"><use xlink:href="#a"/></mask><use fill="#F1F1F1" xlink:href="#a"/><path fill="#FFC111" mask="url(#b)" d="M73.5 0h7v14h-7z"/></g><g fill-rule="nonzero"><path fill="#FF9D28" d="M0 6.997l8.084.002L13 7V2z"/><path fill="#68C5ED" d="M13 2.241V19l6-19z"/><path fill="#044D80" d="M13 7.001L8 7l5 12z"/><path fill="#E54747" d="M0 7l9 3-1.214-2.998z"/><path fill="#044D80" d="M29.844 14.777a2.25 2.25 0 0 1-.354.273 3.83 3.83 0 0 1-.645.327c-.266.11-.59.203-.973.282a6.601 6.601 0 0 1-1.318.118c-.955 0-1.78-.158-2.476-.473a4.623 4.623 0 0 1-1.724-1.318 5.459 5.459 0 0 1-1-2 9.527 9.527 0 0 1-.318-2.538c0-.921.115-1.773.345-2.555.23-.782.575-1.458 1.034-2.028a4.77 4.77 0 0 1 1.725-1.337c.69-.32 1.5-.482 2.432-.482.46 0 .875.043 1.247.128.371.085.695.185.973.3.276.115.506.236.69.364.182.127.32.233.415.318.106.097.197.212.274.345.077.134.115.28.115.437 0 .243-.088.485-.265.727a5.212 5.212 0 0 1-.584.673 7.264 7.264 0 0 0-.477-.445 3.224 3.224 0 0 0-.593-.4 3.863 3.863 0 0 0-.743-.291 3.395 3.395 0 0 0-.928-.119c-.602 0-1.106.125-1.513.373a2.94 2.94 0 0 0-.981.973 4.16 4.16 0 0 0-.53 1.373 8.189 8.189 0 0 0 0 3.21c.105.522.288.982.548 1.382.259.4.598.722 1.017.964.418.243.94.364 1.565.364a3.1 3.1 0 0 0 .91-.127 3.596 3.596 0 0 0 1.292-.691c.159-.134.292-.249.398-.346.07.085.153.188.247.31.095.122.184.25.266.381.082.134.153.267.212.4a.913.913 0 0 1 .088.364c0 .158-.03.291-.088.4-.06.11-.154.23-.283.364zm9.114-1.395c0 .964.137 1.665.41 2.104a2.955 2.955 0 0 1-1.174.238c-.428 0-.751-.085-.97-.256-.22-.17-.36-.415-.418-.732-.262.28-.605.519-1.032.714-.428.195-.95.292-1.566.292-.32 0-.64-.045-.961-.136a2.499 2.499 0 0 1-.872-.447 2.309 2.309 0 0 1-.64-.83c-.167-.347-.25-.769-.25-1.267 0-.62.145-1.125.436-1.514.29-.39.656-.696 1.095-.921.438-.225.913-.38 1.423-.465a13.186 13.186 0 0 1 1.824-.183h.382v-.333c0-.469-.121-.802-.364-1-.244-.196-.638-.295-1.184-.295-.51 0-.964.085-1.36.256-.398.17-.787.366-1.166.585a2.7 2.7 0 0 1-.4-.686c-.101-.25-.152-.436-.152-.558 0-.17.092-.335.276-.494.184-.158.436-.302.756-.43s.688-.231 1.103-.31a6.95 6.95 0 0 1 1.317-.12c.64 0 1.183.067 1.628.202.445.134.807.341 1.086.622.278.28.477.63.596 1.052.118.42.178.912.178 1.472v3.44zm-2.277-2.122h-.25c-.082 0-.165.006-.248.018-.297.025-.59.061-.881.11-.29.049-.549.134-.774.256-.225.122-.41.28-.552.476-.142.195-.213.445-.213.75 0 .341.095.631.285.869.19.238.51.357.96.357.226 0 .44-.03.641-.092.202-.06.38-.14.534-.238a1.39 1.39 0 0 0 .365-.32c.088-.116.133-.222.133-.32V11.26zm6.708-3.605c.189-.231.485-.466.887-.704.402-.238.91-.357 1.525-.357.438 0 .854.076 1.25.229.397.152.749.4 1.056.74.308.343.553.794.736 1.355.184.561.275 1.25.275 2.067 0 .952-.106 1.736-.32 2.351-.212.617-.487 1.104-.824 1.464a2.84 2.84 0 0 1-1.126.76c-.414.146-.828.22-1.242.22a3.02 3.02 0 0 1-.895-.12 3.532 3.532 0 0 1-.648-.265 1.72 1.72 0 0 1-.585-.494v4.497h-2.42V6.85a4.177 4.177 0 0 1 .466-.064 5.56 5.56 0 0 1 .34-.009c.395 0 .73.067 1.005.201.274.135.448.36.52.677zm3.203 3.385c0-.366-.03-.707-.089-1.024a2.537 2.537 0 0 0-.292-.824 1.438 1.438 0 0 0-.548-.54c-.23-.128-.51-.192-.84-.192-.496 0-.84.098-1.036.293-.194.195-.291.409-.291.64v3.88c.094.097.262.213.503.347.242.134.522.201.84.201.603 0 1.045-.244 1.328-.732.283-.487.425-1.17.425-2.049zm4.394 3.147a3.258 3.258 0 0 1-.16-.768 9.072 9.072 0 0 1-.036-.805v-8.49l.267-.036a3.5 3.5 0 0 1 .552-.037c.19 0 .38.018.569.055.19.037.362.11.516.22a1.2 1.2 0 0 1 .374.448c.095.189.142.436.142.74v1.3h2.491v1.848H53.21v3.901c0 .851.338 1.277 1.014 1.277.166 0 .323-.028.472-.083a2.76 2.76 0 0 0 .4-.183 2.532 2.532 0 0 0 .498-.375c.178.269.314.501.41.697.094.197.142.381.142.553 0 .16-.062.317-.187.471-.125.154-.3.296-.525.425a3.21 3.21 0 0 1-.818.314c-.32.08-.67.12-1.05.12-.736 0-1.308-.146-1.717-.439a2.328 2.328 0 0 1-.863-1.153zm10.844-.238a2.767 2.767 0 0 0 1.393-.347c.178-.098.333-.204.464-.32l.357-.32c.143.182.292.417.446.704.155.287.233.521.233.704 0 .269-.149.513-.445.732-.25.195-.603.363-1.059.503-.457.14-.994.21-1.61.21a6.257 6.257 0 0 1-1.646-.219 3.606 3.606 0 0 1-1.441-.769c-.422-.365-.763-.856-1.024-1.472-.26-.616-.39-1.394-.39-2.333 0-.769.115-1.43.346-1.985.231-.555.54-1.016.925-1.382a3.629 3.629 0 0 1 1.308-.805 4.5 4.5 0 0 1 1.495-.256c.664 0 1.227.107 1.69.32.463.214.84.5 1.13.86.29.36.5.772.632 1.235.13.464.195.952.195 1.464v.256c0 .098-.003.201-.009.311l-.017.32a2.045 2.045 0 0 1-.027.247h-5.25c.049.671.25 1.23.608 1.675.357.445.922.667 1.696.667zm.81-3.714c0-.585-.11-1.061-.33-1.427-.221-.366-.618-.549-1.19-.549-.49 0-.88.174-1.173.522-.292.347-.438.832-.438 1.454h3.132zm6.4-2.533c.071-.11.166-.23.285-.363.119-.134.264-.255.436-.363.172-.11.362-.2.57-.273a2.02 2.02 0 0 1 .667-.109c.142 0 .293.013.453.037.16.024.309.07.445.136a.868.868 0 0 1 .33.272.71.71 0 0 1 .124.426c0 .266-.065.572-.196.917-.13.345-.26.64-.391.884a2.629 2.629 0 0 0-.605-.394 1.711 1.711 0 0 0-.712-.137c-.368 0-.676.11-.925.33-.25.22-.374.483-.374.79v5.922h-2.42V6.85a4.155 4.155 0 0 1 .463-.064c.095-.006.207-.009.338-.009.38 0 .709.076.988.227.278.15.453.383.524.698zm6.88 0c.072-.11.166-.23.285-.363.119-.134.264-.255.436-.363.172-.11.362-.2.57-.273a2.02 2.02 0 0 1 .667-.109c.142 0 .293.013.453.037.16.024.309.07.445.136a.87.87 0 0 1 .33.272.71.71 0 0 1 .124.426c0 .266-.065.572-.196.917a7.61 7.61 0 0 1-.391.884 2.626 2.626 0 0 0-.605-.394 1.71 1.71 0 0 0-.712-.137c-.368 0-.676.11-.925.33-.25.22-.374.483-.374.79v5.922h-2.42V6.85a4.162 4.162 0 0 1 .463-.064c.095-.006.207-.009.338-.009.38 0 .709.076.987.227.279.15.454.383.525.698zm11.548 5.68c0 .964.137 1.665.41 2.104a2.955 2.955 0 0 1-1.174.238c-.428 0-.751-.085-.97-.256-.22-.17-.36-.415-.419-.732-.26.28-.605.519-1.032.714-.427.195-.949.292-1.565.292-.32 0-.64-.045-.961-.136a2.497 2.497 0 0 1-.872-.447 2.309 2.309 0 0 1-.64-.83c-.167-.347-.25-.769-.25-1.267 0-.62.145-1.125.436-1.514.29-.39.656-.696 1.095-.921.438-.225.913-.38 1.423-.465a13.18 13.18 0 0 1 1.824-.183h.382v-.333c0-.469-.122-.802-.365-1-.243-.196-.637-.295-1.183-.295-.51 0-.964.085-1.36.256-.398.17-.787.366-1.166.585a2.703 2.703 0 0 1-.4-.686c-.102-.25-.152-.436-.152-.558 0-.17.092-.335.276-.494.184-.158.436-.302.756-.43s.688-.231 1.103-.31a6.95 6.95 0 0 1 1.317-.12c.64 0 1.183.067 1.628.202.445.134.807.341 1.085.622.279.28.478.63.596 1.052.119.42.178.912.178 1.472v3.44zm-2.277-2.122h-.25c-.082 0-.166.006-.248.018-.297.025-.59.061-.881.11a2.474 2.474 0 0 0-.774.256c-.226.122-.41.28-.552.476-.142.195-.213.445-.213.75 0 .341.095.631.284.869.19.238.51.357.961.357.226 0 .44-.03.64-.092.202-.06.38-.14.535-.238a1.39 1.39 0 0 0 .364-.32c.09-.116.134-.222.134-.32V11.26z"/></g></g></svg>