<svg xmlns="http://www.w3.org/2000/svg" width="132" height="120" viewBox="0 0 132 120"><g fill="none" fill-rule="evenodd"><g transform="translate(28 32)"><circle cx="26" cy="34" r="26" fill="#FFC111" fill-opacity=".2"/><circle cx="34" cy="26" r="25.2" stroke="#FFC111" stroke-width="1.6"/></g><path fill="#FFC111" fill-rule="nonzero" d="M75.914 94.923a40.321 40.321 0 0 0 4.268-1.694 1 1 0 1 1 .842 1.814 42.325 42.325 0 0 1-4.818 1.89l.764 5.271a.835.835 0 0 1-1.09.913l-13.086-4.333a.835.835 0 0 1-.214-1.478l11.318-7.87a.835.835 0 0 1 1.303.566l.713 4.92zm13.804-5.287a1 1 0 0 1-1.255-1.557 39.827 39.827 0 0 0 4.276-3.997 1 1 0 1 1 1.47 1.357 41.827 41.827 0 0 1-4.491 4.197zm10.452-12.53a1 1 0 0 1-1.76-.95 38.271 38.271 0 0 0 2.38-5.342 1 1 0 0 1 1.885.672 40.271 40.271 0 0 1-2.505 5.62zm4.69-15.738a1 1 0 0 1-1.993-.166 38.558 38.558 0 0 0 .05-5.723 1 1 0 0 1 1.997-.131 40.619 40.619 0 0 1-.054 6.02zm-1.915-16.071a1 1 0 0 1-1.897.632 38.203 38.203 0 0 0-2.27-5.387 1 1 0 1 1 1.779-.915 40.203 40.203 0 0 1 2.388 5.67zm-8.178-14.12a1 1 0 1 1-1.497 1.328 39.77 39.77 0 0 0-4.196-4.081 1 1 0 0 1 1.285-1.533 41.77 41.77 0 0 1 4.408 4.287zm-13.068-9.9a1 1 0 1 1-.874 1.8 40.32 40.32 0 0 0-5.438-2.171A1 1 0 1 1 75.992 19a42.32 42.32 0 0 1 5.707 2.278zm-15.68-4.173a1 1 0 0 1-.14 1.995A42.017 42.017 0 0 0 63.012 19a1 1 0 0 1 0-2c1.007 0 2.01.035 3.006.104z"/></g></svg>