<svg xmlns="http://www.w3.org/2000/svg" width="330" height="431" viewBox="0 0 330 431"><g fill="none" fill-rule="evenodd"><path fill="#6FD350" d="M318.216 414.15l6.108 13.175a2 2 0 0 1-1.953 2.836l-13.992-.978a2 2 0 0 1-1.54-3.081l7.883-12.196a2 2 0 0 1 3.494.244z" opacity=".2"/><path stroke="#6FD350" stroke-width="2" d="M322.715 411.799a1 1 0 0 0-1.747-.122l-7.883 12.195a1 1 0 0 0 .77 1.54l13.992.979a1 1 0 0 0 .977-1.418l-6.109-13.174z"/><path fill="#6FD350" d="M18.791 297.046L3.823 305.6a2 2 0 0 1-2.993-1.737v-17.107a2 2 0 0 1 2.993-1.737l14.968 8.554a2 2 0 0 1 0 3.473z" opacity=".2"/><path stroke="#6FD350" stroke-width="2" d="M22.704 301.884a1 1 0 0 0 0-1.737l-14.969-8.553a1 1 0 0 0-1.496.868v17.107a1 1 0 0 0 1.496.869l14.969-8.554z"/><path fill="#6FD350" d="M209.216 4.15l6.108 13.175a2 2 0 0 1-1.953 2.836l-13.992-.978a2 2 0 0 1-1.54-3.081l7.883-12.196a2 2 0 0 1 3.494.244z" opacity=".2"/><path stroke="#6FD350" stroke-width="2" d="M213.715 1.799a1 1 0 0 0-1.747-.122l-7.883 12.195a1 1 0 0 0 .77 1.54l13.992.979a1 1 0 0 0 .977-1.418l-6.109-13.174z"/></g></svg>