<svg xmlns="http://www.w3.org/2000/svg" width="240" height="120" viewBox="0 0 240 120">
  <g fill="none" fill-rule="evenodd">
    <g transform="translate(138 12)">
      <path fill="#6FD350" fill-opacity=".2" d="M33.155251,13.0493298 L58.6881548,61.6037042 C59.4593077,63.0701589 58.8956542,64.8840982 57.4291996,65.655251 C56.998606,65.8816838 56.5194041,66 56.0329038,66 L4.96709624,66 C3.31024199,66 1.96709624,64.6568542 1.96709624,63 C1.96709624,62.5134996 2.0854124,62.0342977 2.31184521,61.6037042 L27.844749,13.0493298 C28.6159018,11.5828752 30.4298411,11.0192217 31.8962958,11.7903746 C32.4336749,12.0729619 32.8726638,12.5119507 33.155251,13.0493298 Z"/>
      <path stroke="#6FD350" stroke-width="2" d="M43.2701674,5.51476176 C43.0817758,5.15650904 42.7891166,4.86384979 42.4308639,4.67545828 C41.4532274,4.16135636 40.2439346,4.53712533 39.7298326,5.51476176 L14.1969289,54.0691361 C14.0459737,54.3561985 13.9670962,54.6756664 13.9670962,55 C13.9670962,56.1045695 14.8625267,57 15.9670962,57 L67.0329038,57 C67.3572373,57 67.6767053,56.9211226 67.9637676,56.7701674 C68.9414041,56.2560654 69.317173,55.0467726 68.8030711,54.0691361 L43.2701674,5.51476176 Z"/>
    </g>
    <g fill="#6FD350" transform="translate(76 34)">
      <path fill-opacity=".2" d="M22.8946222,11.0511852 L38.1674215,40.103313 C38.938392,41.5698636 38.3745129,43.3837327 36.9079623,44.1547032 C36.4774524,44.3810237 35.998371,44.4992785 35.5119968,44.4992785 L4.96639824,44.4992785 C3.30954399,44.4992785 1.96639824,43.1561327 1.96639824,41.4992785 C1.96639824,41.0129044 2.08465304,40.533823 2.31097355,40.103313 L17.5837728,11.0511852 C18.3547433,9.58463463 20.1686125,9.02075554 21.635163,9.791726 C22.1728025,10.0743649 22.6119834,10.5135457 22.8946222,11.0511852 Z"/>
      <path fill-rule="nonzero" d="M30.0094807,5.51650702 C29.7524905,5.02765684 29.9404502,4.42303378 30.4293004,4.16604362 C30.9181506,3.90905347 31.5227736,4.09701316 31.7797638,4.58586335 L34.5716948,9.89671274 C34.828685,10.3855629 34.6407253,10.990186 34.1518751,11.2471761 C33.6630249,11.5041663 33.0584018,11.3162066 32.8014117,10.8273564 L30.0094807,5.51650702 Z M37.45463,19.6787721 C37.1976399,19.1899219 37.3855996,18.5852988 37.8744498,18.3283087 C38.3633,18.0713185 38.967923,18.2592782 39.2249132,18.7481284 L42.0168442,24.0589778 C42.2738343,24.547828 42.0858746,25.152451 41.5970245,25.4094412 C41.1081743,25.6664313 40.5035512,25.4784716 40.2465611,24.9896214 L37.45463,19.6787721 Z M44.8997794,33.8410371 C44.6427893,33.3521869 44.830749,32.7475638 45.3195991,32.4905737 C45.8084493,32.2335835 46.4130724,32.4215432 46.6700625,32.9103934 L47.0525631,33.6379912 C48.0805237,35.5933919 47.3286849,38.0118841 45.3732842,39.0398448 C45.1420839,39.1613875 44.8997613,39.2598766 44.6497946,39.3340428 C44.1203239,39.4911391 43.5637514,39.1892699 43.4066552,38.6597992 C43.249559,38.1303285 43.5514281,37.5737561 44.0808988,37.4166598 C44.2058822,37.3795767 44.3270368,37.3303349 44.4426405,37.2695616 C45.4203409,36.7555813 45.7962603,35.5463352 45.2822799,34.5686348 L44.8997794,33.8410371 Z M34.3640745,37.4992785 C34.9163593,37.4992785 35.3640745,37.9469937 35.3640745,38.4992785 C35.3640745,39.0515632 34.9163593,39.4992785 34.3640745,39.4992785 L28.3640745,39.4992785 C27.8117898,39.4992785 27.3640745,39.0515632 27.3640745,38.4992785 C27.3640745,37.9469937 27.8117898,37.4992785 28.3640745,37.4992785 L34.3640745,37.4992785 Z M18.3640745,37.4992785 C18.9163593,37.4992785 19.3640745,37.9469937 19.3640745,38.4992785 C19.3640745,39.0515632 18.9163593,39.4992785 18.3640745,39.4992785 L12.9663982,39.4992785 C12.6965209,39.4992785 12.4295038,39.4724075 12.1683865,39.4194676 C11.6271142,39.309728 11.2772879,38.7819786 11.3870275,38.2407063 C11.4967671,37.6994341 12.0245165,37.3496077 12.5657888,37.4593474 C12.6962844,37.4858045 12.8301753,37.4992785 12.9663982,37.4992785 L18.3640745,37.4992785 Z M13.323687,30.5215384 C13.0666969,31.0103886 12.4620738,31.1983483 11.9732236,30.9413582 C11.4843734,30.684368 11.2964137,30.0797449 11.5534039,29.5908948 L14.3453349,24.2800454 C14.6023251,23.7911952 15.2069481,23.6032355 15.6957983,23.8602256 C16.1846485,24.1172158 16.3726082,24.7218388 16.115618,25.210689 L13.323687,30.5215384 Z M20.7688364,16.3592734 C20.5118462,16.8481236 19.9072232,17.0360833 19.418373,16.7790931 C18.9295228,16.522103 18.7415631,15.9174799 18.9985533,15.4286297 L21.7904843,10.1177803 C22.0474744,9.62893015 22.6520975,9.44097045 23.1409477,9.69796061 C23.6297979,9.95495076 23.8177576,10.5595738 23.5607674,11.048424 L20.7688364,16.3592734 Z M28.6059312,4.48024944 C28.0630526,4.37875416 27.7052407,3.85638594 27.806736,3.31350736 C27.9082313,2.77062878 28.4305995,2.41281692 28.9734781,2.5143122 C29.3407367,2.58297398 29.6982054,2.70335731 30.0519537,2.88160705 C30.8087397,3.27876007 31.3985551,3.86072288 31.7797638,4.58586335 C32.0367539,5.07471354 31.8487942,5.6793366 31.3599441,5.93632675 C30.8710939,6.19331691 30.2664708,6.00535721 30.0094807,5.51650702 C29.8190251,5.15421991 29.5242066,4.86332647 29.1375982,4.66027754 C28.9672782,4.5745321 28.7888764,4.51445244 28.6059312,4.48024944 Z"/>
    </g>
    <g transform="translate(30 51)">
      <path fill="#6FD350" fill-opacity=".2" d="M14.9270188,8.91443538 L22.1926324,22.427827 C22.9772401,23.8871271 22.4302938,25.7061738 20.9709937,26.4907814 C20.534278,26.7255861 20.0461723,26.8484848 19.5503358,26.8484848 L5.01910862,26.8484848 C3.36225437,26.8484848 2.01910862,25.5053391 2.01910862,23.8484848 C2.01910862,23.3526484 2.14200738,22.8645427 2.37681204,22.427827 L9.64242564,8.91443538 C10.4270333,7.45513527 12.24608,6.90818898 13.7053801,7.69279665 C14.223574,7.97140894 14.6484065,8.39624143 14.9270188,8.91443538 Z"/>
      <path stroke="#6FD350" stroke-width="2" d="M20.0462533,5.387988 C19.8605118,5.04252537 19.5772901,4.75930371 19.2318275,4.57356218 C18.2589607,4.0504904 17.0462629,4.41512126 16.5231912,5.387988 L9.25757757,18.9013796 C9.10104113,19.1925234 9.01910862,19.5179272 9.01910862,19.8484848 C9.01910862,20.9530543 9.91453912,21.8484848 11.0191086,21.8484848 L25.5503358,21.8484848 C25.8808935,21.8484848 26.2062973,21.7665523 26.4974411,21.6100159 C27.4703078,21.0869441 27.8349387,19.8742463 27.3118669,18.9013796 L20.0462533,5.387988 Z"/>
    </g>
    <path fill="#6FD350" fill-rule="nonzero" d="M172.804236,105.246858 L160.474649,111.411652 C160.06212,111.617916 159.560489,111.450706 159.354225,111.038177 C159.296244,110.922216 159.266059,110.794349 159.266059,110.664702 L159.266059,98.3351154 C159.266059,97.8738939 159.639953,97.5 160.101174,97.5 C160.230822,97.5 160.358689,97.5301853 160.474649,97.5881655 L172.804236,103.752959 C173.216765,103.959223 173.383975,104.460854 173.177711,104.873383 C173.096902,105.035001 172.965853,105.16605 172.804236,105.246858 Z M68,105.5 C67.4477153,105.5 67,105.052285 67,104.5 C67,103.947715 67.4477153,103.5 68,103.5 L74,103.5 C74.5522847,103.5 75,103.947715 75,104.5 C75,105.052285 74.5522847,105.5 74,105.5 L68,105.5 Z M84,105.5 C83.4477153,105.5 83,105.052285 83,104.5 C83,103.947715 83.4477153,103.5 84,103.5 L90,103.5 C90.5522847,103.5 91,103.947715 91,104.5 C91,105.052285 90.5522847,105.5 90,105.5 L84,105.5 Z M100,105.5 C99.4477153,105.5 99,105.052285 99,104.5 C99,103.947715 99.4477153,103.5 100,103.5 L106,103.5 C106.552285,103.5 107,103.947715 107,104.5 C107,105.052285 106.552285,105.5 106,105.5 L100,105.5 Z M116,105.5 C115.447715,105.5 115,105.052285 115,104.5 C115,103.947715 115.447715,103.5 116,103.5 L122,103.5 C122.552285,103.5 123,103.947715 123,104.5 C123,105.052285 122.552285,105.5 122,105.5 L116,105.5 Z M132,105.5 C131.447715,105.5 131,105.052285 131,104.5 C131,103.947715 131.447715,103.5 132,103.5 L138,103.5 C138.552285,103.5 139,103.947715 139,104.5 C139,105.052285 138.552285,105.5 138,105.5 L132,105.5 Z M148,105.5 C147.447715,105.5 147,105.052285 147,104.5 C147,103.947715 147.447715,103.5 148,103.5 L154,103.5 C154.552285,103.5 155,103.947715 155,104.5 C155,105.052285 154.552285,105.5 154,105.5 L148,105.5 Z"/>
  </g>
</svg>
