<svg xmlns="http://www.w3.org/2000/svg" width="240" height="120" viewBox="0 0 240 120"><g fill="none" fill-rule="evenodd"><path fill="#6FD350" fill-opacity=".2" d="M171.155 25.05l25.533 48.554A3 3 0 0 1 194.033 78h-51.066a3 3 0 0 1-2.655-4.396l25.533-48.555a3 3 0 0 1 5.31 0z"/><path stroke="#6FD350" stroke-width="2" d="M181.27 17.515a2 2 0 0 0-3.54 0l-25.533 48.554a2 2 0 0 0 1.77 2.931h51.066a2 2 0 0 0 1.77-2.93L181.27 17.514z"/><g fill="#6FD350"><path fill-opacity=".2" d="M98.895 45.051l15.272 29.052a3 3 0 0 1-2.655 4.396H80.966a3 3 0 0 1-2.655-4.396l15.273-29.052a3 3 0 0 1 5.31 0z"/><path fill-rule="nonzero" d="M106.01 39.517a1 1 0 1 1 1.77-.931l2.792 5.31a1 1 0 1 1-1.77.931l-2.793-5.31zm7.445 14.162a1 1 0 0 1 1.77-.93l2.792 5.31a1 1 0 0 1-1.77.93l-2.792-5.31zM120.9 67.84a1 1 0 0 1 1.77-.93l.383.727a4 4 0 0 1-2.403 5.696 1 1 0 1 1-.57-1.917 2 2 0 0 0 1.202-2.848l-.382-.728zm-10.536 3.658a1 1 0 1 1 0 2h-6a1 1 0 0 1 0-2h6zm-16 0a1 1 0 1 1 0 2h-5.398c-.27 0-.536-.027-.798-.08a1 1 0 1 1 .398-1.96c.13.027.264.04.4.04h5.398zm-5.04-6.977a1 1 0 0 1-1.77-.931l2.791-5.311a1 1 0 0 1 1.77.93l-2.791 5.312zm7.445-14.163a1 1 0 1 1-1.77-.93l2.791-5.311a1 1 0 0 1 1.77.93l-2.79 5.313zm7.837-11.879a1 1 0 1 1 .367-1.966c.368.069.725.19 1.079.368a4.038 4.038 0 0 1 1.728 1.704 1 1 0 0 1-1.77.93 2.03 2.03 0 0 0-.872-.856 1.996 1.996 0 0 0-.532-.18z"/></g><path fill="#6FD350" fill-opacity=".2" d="M44.927 59.914l7.266 13.514a3 3 0 0 1-2.643 4.42H35.02a3 3 0 0 1-2.643-4.42l7.265-13.514a3 3 0 0 1 5.285 0z"/><path stroke="#6FD350" stroke-width="2" d="M50.046 56.388a2 2 0 0 0-3.523 0l-7.265 13.513a2 2 0 0 0 1.761 2.947H55.55a2 2 0 0 0 1.762-2.947l-7.266-13.513z"/><path fill="#6FD350" fill-rule="nonzero" d="M172.804 105.247l-12.33 6.165a.835.835 0 0 1-1.208-.747v-12.33a.835.835 0 0 1 1.209-.747l12.33 6.165a.835.835 0 0 1 0 1.494zM68 105.5a1 1 0 1 1 0-2h6a1 1 0 1 1 0 2h-6zm16 0a1 1 0 1 1 0-2h6a1 1 0 1 1 0 2h-6zm16 0a1 1 0 1 1 0-2h6a1 1 0 1 1 0 2h-6zm16 0a1 1 0 1 1 0-2h6a1 1 0 1 1 0 2h-6zm16 0a1 1 0 1 1 0-2h6a1 1 0 1 1 0 2h-6zm16 0a1 1 0 1 1 0-2h6a1 1 0 1 1 0 2h-6z"/></g></svg>