<svg xmlns="http://www.w3.org/2000/svg" width="367" height="473" viewBox="0 0 367 473"><g fill="none" fill-rule="evenodd"><path fill="#6FD350" d="M356.707 440.81l-7.932 27.197a2 2 0 0 1-3.335.854l-19.264-19.264a2 2 0 0 1 .854-3.334l27.197-7.933a2 2 0 0 1 2.48 2.48z" opacity=".2"/><path stroke="#6FD350" stroke-width="2" d="M365.164 443.416a1 1 0 0 0-1.24-1.24l-27.197 7.932a1 1 0 0 0-.428 1.667l19.265 19.265a1 1 0 0 0 1.667-.427l7.933-27.197z"/><path fill="#6FD350" d="M18.791 326.166L3.823 334.72a2 2 0 0 1-2.993-1.737v-17.107a2 2 0 0 1 2.993-1.737l14.968 8.554a2 2 0 0 1 0 3.473z" opacity=".2"/><path stroke="#6FD350" stroke-width="2" d="M22.704 331.004a1 1 0 0 0 0-1.737l-14.969-8.553a1 1 0 0 0-1.496.868v17.107a1 1 0 0 0 1.496.869l14.969-8.554z"/><path fill="#6FD350" d="M203.324 4.222l8.368 17.562a2 2 0 0 1-1.945 2.856l-19.098-1.336a2 2 0 0 1-1.529-3.098L199.85 3.98a2 2 0 0 1 3.474.242z" opacity=".2"/><path stroke="#6FD350" stroke-width="2" d="M209.421 1.653a1 1 0 0 0-1.736-.122l-10.73 16.227a1 1 0 0 0 .764 1.549l19.097 1.335a1 1 0 0 0 .973-1.428l-8.368-17.561z"/></g></svg>