<svg xmlns="http://www.w3.org/2000/svg" width="190" height="120" viewBox="0 0 190 120"><g fill="none" fill-rule="evenodd" transform="translate(10 26)"><rect width="100" height="60" y="8" fill="#01B2D0" fill-opacity=".2" rx="3"/><path fill="#01B2D0" fill-rule="nonzero" d="M162.867 31.247l-12.33 6.165a.835.835 0 0 1-1.208-.747v-12.33a.835.835 0 0 1 1.208-.747l12.33 6.165a.835.835 0 0 1 0 1.494zM58 31.5a1 1 0 0 1 0-2h6a1 1 0 0 1 0 2h-6zm16 0a1 1 0 0 1 0-2h6a1 1 0 0 1 0 2h-6zm16 0a1 1 0 0 1 0-2h6a1 1 0 0 1 0 2h-6zm16 0a1 1 0 1 1 0-2h6a1 1 0 1 1 0 2h-6zm16 0a1 1 0 1 1 0-2h6a1 1 0 1 1 0 2h-6zm16 0a1 1 0 1 1 0-2h6a1 1 0 1 1 0 2h-6z"/><rect width="98" height="58" x="9" y="1" stroke="#01B2D0" stroke-width="2" rx="3"/></g></svg>