<svg xmlns="http://www.w3.org/2000/svg" width="1800" height="1124" viewBox="0 0 1800 1124"><g fill="none" fill-rule="evenodd"><g transform="rotate(124 50.206 557.857)"><rect width="15.238" height="15.238" x=".889" y="4.573" fill="#01B2D0" opacity=".1" rx="2"/><rect width="13.238" height="13.238" x="5.698" y="1.763" stroke="#01B2D0" stroke-width="2" rx="2"/></g><g transform="rotate(57 337.14 684.898)"><rect width="19.048" height="19.048" x="1.111" y="5.716" fill="#01B2D0" opacity=".1" rx="2"/><rect width="17.048" height="17.048" x="6.873" y="1.954" stroke="#01B2D0" stroke-width="2" rx="2"/></g><g transform="rotate(169 92.665 336.315)"><rect width="16.762" height="16.762" x=".978" y="5.03" fill="#01B2D0" opacity=".1" rx="2"/><rect width="14.762" height="14.762" x="6.168" y="1.84" stroke="#01B2D0" stroke-width="2" rx="2"/></g><g transform="rotate(113 -56.75 182.574)"><rect width="13.714" height="13.714" x=".8" y="4.116" fill="#01B2D0" opacity=".1" rx="2"/><rect width="11.714" height="11.714" x="5.228" y="1.687" stroke="#01B2D0" stroke-width="2" rx="2"/></g><path fill="#6FD350" d="M1609.008 652.251l-6.704-13.921a2 2 0 0 1 1.906-2.865l14.828.777a2 2 0 0 1 1.596 3.048l-8.123 13.145a2 2 0 0 1-3.503-.184z" opacity=".2"/><path stroke="#6FD350" stroke-width="2" d="M1604.344 654.816a1 1 0 0 0 1.752.092l8.123-13.145a1 1 0 0 0-.798-1.524l-14.828-.777a1 1 0 0 0-.953 1.432l6.704 13.922z"/><path fill="#6FD350" d="M1675.294 1019.41l.511 9.876a2 2 0 0 1-2.905 1.885l-8.8-4.484a2 2 0 0 1-.183-3.459l8.29-5.39a2 2 0 0 1 3.087 1.573z" opacity=".2"/><path stroke="#6FD350" stroke-width="2" d="M1679.14 1019.205a1 1 0 0 0-1.543-.786l-8.29 5.39a1 1 0 0 0 .091 1.73l8.8 4.484a1 1 0 0 0 1.453-.943l-.51-9.875z"/><path fill="#6FD350" d="M1739.922 155.183l2.674-17.372a2 2 0 0 1 3.208-1.271l13.535 10.574a2 2 0 0 1-.458 3.42l-16.209 6.798a2 2 0 0 1-2.75-2.15z" opacity=".2"/><path stroke="#6FD350" stroke-width="2" d="M1733.983 154.455a1 1 0 0 0 1.376 1.075l16.208-6.798a1 1 0 0 0 .229-1.71l-13.534-10.574a1 1 0 0 0-1.604.636l-2.675 17.371z"/><path fill="#6FD350" d="M1259.771 21.773l-6.446-5.806a2 2 0 0 1 .687-3.377l7.952-2.738a2 2 0 0 1 2.621 2.238l-1.506 8.544a2 2 0 0 1-3.308 1.139z" opacity=".2"/><path stroke="#6FD350" stroke-width="2" d="M1257.592 24.428a1 1 0 0 0 1.654-.57l1.505-8.543a1 1 0 0 0-1.31-1.12l-7.952 2.739a1 1 0 0 0-.344 1.688l6.447 5.806z"/><path fill="#6FD350" d="M728.297 647.424l14.26-2.74a2 2 0 0 1 2.28 2.581l-4.334 13.34a2 2 0 0 1-3.362.749l-9.926-10.6a2 2 0 0 1 1.082-3.33z" opacity=".2"/><path stroke="#6FD350" stroke-width="2" d="M727.104 642.489a1 1 0 0 0-.542 1.666l9.927 10.599a1 1 0 0 0 1.68-.375l4.335-13.34a1 1 0 0 0-1.14-1.29l-14.26 2.74z"/><path fill="#6FD350" d="M482.498 307.59l4.598-7.357a2 2 0 0 1 3.446.09l4.077 7.356a2 2 0 0 1-1.749 2.97h-8.675a2 2 0 0 1-1.697-3.06z" opacity=".2"/><path stroke="#6FD350" stroke-width="2" d="M479.505 305.904a1 1 0 0 0 .848 1.53h8.675a1 1 0 0 0 .875-1.486l-4.077-7.355a1 1 0 0 0-1.723-.045l-4.598 7.356z"/><path fill="#6FD350" d="M94.996 158.566l-13.416-8.188a2 2 0 0 1 .073-3.457l13.58-7.527a2 2 0 0 1 2.97 1.77l-.165 15.716a2 2 0 0 1-3.042 1.686z" opacity=".2"/><path stroke="#6FD350" stroke-width="2" d="M92.212 163.301a1 1 0 0 0 1.52-.843l.166-15.716a1 1 0 0 0-1.485-.885l-13.58 7.528a1 1 0 0 0-.037 1.728l13.416 8.188z"/><g transform="rotate(76 696.924 960.617)"><circle cx="11.62" cy="7.853" r="6.619" stroke="#FFC111" stroke-width="2"/><circle cx="7.81" cy="11.663" r="7.619" fill="#FFC111" opacity=".2"/></g><g transform="rotate(155 165.666 297.55)"><circle cx="14.525" cy="9.816" r="8.524" stroke="#FFC111" stroke-width="2"/><circle cx="9.763" cy="14.578" r="9.524" fill="#FFC111" opacity=".2"/></g><g transform="rotate(155 -4.686 546.962)"><circle cx="14.525" cy="9.816" r="8.524" stroke="#FFC111" stroke-width="2"/><circle cx="9.763" cy="14.578" r="9.524" fill="#FFC111" opacity=".2"/></g></g></svg>