<svg xmlns="http://www.w3.org/2000/svg" width="1800" height="1124" viewBox="0 0 1800 1124"><g fill="none" fill-rule="evenodd"><g transform="rotate(124 572.328 931.677)"><rect width="15.238" height="15.238" x=".889" y="4.573" fill="#01B2D0" opacity=".1" rx="2"/><rect width="13.238" height="13.238" x="5.698" y="1.763" stroke="#01B2D0" stroke-width="2" rx="2"/></g><g transform="rotate(23 -771.355 2951.22)"><rect width="15.238" height="15.238" x=".889" y="4.573" fill="#01B2D0" opacity=".1" rx="2"/><rect width="13.238" height="13.238" x="5.698" y="1.763" stroke="#01B2D0" stroke-width="2" rx="2"/></g><g transform="rotate(57 261.556 747.45)"><rect width="19.048" height="19.048" x="1.111" y="5.716" fill="#01B2D0" opacity=".1" rx="2"/><rect width="17.048" height="17.048" x="6.873" y="1.954" stroke="#01B2D0" stroke-width="2" rx="2"/></g><g transform="rotate(169 92.665 336.315)"><rect width="16.762" height="16.762" x=".978" y="5.03" fill="#01B2D0" opacity=".1" rx="2"/><rect width="14.762" height="14.762" x="6.168" y="1.84" stroke="#01B2D0" stroke-width="2" rx="2"/></g><path fill="#6FD350" d="M1491.294 663.41l.511 9.875a2 2 0 01-2.905 1.886l-8.8-4.484a2 2 0 01-.183-3.459l8.29-5.391a2 2 0 013.087 1.573z" opacity=".2"/><path stroke="#6FD350" stroke-width="2" d="M1495.14 663.205a1 1 0 00-1.544-.787l-8.29 5.391a1 1 0 00.092 1.73l8.8 4.484a1 1 0 001.453-.943l-.51-9.875z"/><path fill="#6FD350" d="M1739.922 155.183l2.674-17.372a2 2 0 013.208-1.271l13.535 10.574a2 2 0 01-.458 3.42l-16.209 6.798a2 2 0 01-2.75-2.15z" opacity=".2"/><path stroke="#6FD350" stroke-width="2" d="M1733.983 154.455a1 1 0 001.376 1.075l16.208-6.798a1 1 0 00.229-1.71l-13.534-10.574a1 1 0 00-1.604.636l-2.675 17.371z"/><path fill="#6FD350" d="M1273.564 98.027l-6.447-5.806a2 2 0 01.688-3.377l7.952-2.738a2 2 0 012.62 2.238l-1.505 8.544a2 2 0 01-3.308 1.139z" opacity=".2"/><path stroke="#6FD350" stroke-width="2" d="M1271.384 100.682a1 1 0 001.654-.57l1.506-8.543a1 1 0 00-1.31-1.12l-7.952 2.739a1 1 0 00-.344 1.688l6.446 5.806z"/><path fill="#6FD350" d="M586.763 963.123l14.261-2.74a2 2 0 012.28 2.582l-4.335 13.34a2 2 0 01-3.362.749l-9.926-10.6a2 2 0 011.082-3.33z" opacity=".2"/><path stroke="#6FD350" stroke-width="2" d="M585.57 958.189a1 1 0 00-.541 1.665l9.926 10.6a1 1 0 001.681-.375l4.334-13.34a1 1 0 00-1.14-1.29l-14.26 2.74z"/><path fill="#6FD350" d="M257.438 351.56l4.598-7.358a2 2 0 013.446.09l4.077 7.357a2 2 0 01-1.75 2.97h-8.674a2 2 0 01-1.697-3.06z" opacity=".2"/><path stroke="#6FD350" stroke-width="2" d="M254.445 349.874a1 1 0 00.848 1.53l8.675-.001a1 1 0 00.875-1.485l-4.077-7.356a1 1 0 00-1.723-.045l-4.598 7.357z"/><g transform="rotate(76 534.752 1098.657)"><circle cx="11.62" cy="7.853" r="6.619" stroke="#FFC111" stroke-width="2"/><circle cx="7.81" cy="11.663" r="7.619" fill="#FFC111" opacity=".2"/></g><g transform="rotate(155 264.89 317.685)"><circle cx="14.525" cy="9.816" r="8.524" stroke="#FFC111" stroke-width="2"/><circle cx="9.763" cy="14.578" r="9.524" fill="#FFC111" opacity=".2"/></g><g transform="rotate(69 3.554 170.375)"><circle cx="14.525" cy="9.816" r="8.524" stroke="#FFC111" stroke-width="2"/><circle cx="9.763" cy="14.578" r="9.524" fill="#FFC111" opacity=".2"/></g><g transform="rotate(155 422.224 573.41)"><circle cx="14.525" cy="9.816" r="8.524" stroke="#FFC111" stroke-width="2"/><circle cx="9.763" cy="14.578" r="9.524" fill="#FFC111" opacity=".2"/></g><g transform="rotate(155 -44.483 499.32)"><circle cx="14.525" cy="9.816" r="8.524" stroke="#FFC111" stroke-width="2"/><circle cx="9.763" cy="14.578" r="9.524" fill="#FFC111" opacity=".2"/></g></g></svg>