<svg xmlns="http://www.w3.org/2000/svg" width="1429" height="524" viewBox="0 0 1429 524"><g fill="none" fill-rule="evenodd"><g transform="rotate(-86 933.221 -473.03)"><rect width="28" height="21" x=".032" y="4.471" fill="#01B2D0" opacity=".1" rx="3"/><rect width="26" height="19" x="6.738" y="1.062" stroke="#01B2D0" stroke-width="2" rx="3"/></g><g transform="rotate(-64 906.948 -984.243)"><rect width="12" height="30" x=".838" y="3.53" fill="#01B2D0" opacity=".1" rx="3"/><rect width="10" height="28" x="4.995" y="1.877" stroke="#01B2D0" stroke-width="2" rx="3"/></g><g transform="rotate(144 -43.556 177.448)"><ellipse cx="11.865" cy="9.857" stroke="#FFC111" stroke-width="2" rx="8" ry="8.5"/><ellipse cx="9.514" cy="13.093" fill="#FFC111" opacity=".2" rx="9" ry="9.5"/></g><g transform="rotate(55 318.315 1298.589)"><ellipse cx="13.676" cy="10.979" stroke="#FFC111" stroke-width="2" rx="10" ry="9.5"/><ellipse cx="11.382" cy="14.256" fill="#FFC111" opacity=".2" rx="11" ry="10.5"/></g><path fill="#6FD350" d="M81.613 20.861l-14.62-4.316a3 3 0 0 1-1.308-4.96L75.48 1.44a3 3 0 0 1 5.004 1.135l4.823 14.46a3 3 0 0 1-3.695 3.826z" opacity=".2"/><path stroke="#6FD350" stroke-width="2" d="M78.896 26.902a2 2 0 0 0 2.464-2.55l-4.824-14.46a2 2 0 0 0-3.336-.757l-9.796 10.144a2 2 0 0 0 .873 3.307l14.62 4.316z"/><path fill="#6FD350" d="M259.808 518.644l-3.652-17.845a3 3 0 0 1 3.716-3.499l15.737 4.217a3 3 0 0 1 1.468 4.888l-12.085 13.628a3 3 0 0 1-5.184-1.389z" opacity=".2"/><path stroke="#6FD350" stroke-width="2" d="M251.788 520.444a2 2 0 0 0 3.456.926l12.085-13.628a2 2 0 0 0-.98-3.26l-15.736-4.216a2 2 0 0 0-2.477 2.333l3.652 17.845z"/><path fill="#6FD350" d="M1313.073 72.13l-5.221-25.512a3 3 0 0 1 3.715-3.5l22.498 6.03a3 3 0 0 1 1.469 4.887l-17.278 19.484a3 3 0 0 1-5.183-1.389z" opacity=".2"/><path stroke="#6FD350" stroke-width="2" d="M1303.052 73.93a2 2 0 0 0 3.456.926l17.277-19.484a2 2 0 0 0-.978-3.259l-22.498-6.028a2 2 0 0 0-2.478 2.333l5.221 25.512z"/><g transform="rotate(-154 160.78 93.55)"><rect width="13.161" height="28.696" x=".539" y="3.725" fill="#01B2D0" opacity=".1" rx="3"/><rect width="11.161" height="26.696" x="4.509" y="1.234" stroke="#01B2D0" stroke-width="2" rx="3"/></g></g></svg>