<svg xmlns="http://www.w3.org/2000/svg" width="1800" height="1124" viewBox="0 0 1800 1124">
  <g fill="none" fill-rule="evenodd">
    <g transform="rotate(124 572.328 931.677)">
      <rect width="15.238" height="15.238" x=".889" y="4.573" fill="#01B2D0" opacity=".1" rx="2"/>
      <rect width="13.238" height="13.238" x="5.698" y="1.763" stroke="#01B2D0" stroke-width="2" rx="2"/>
    </g>
    <g transform="rotate(23 -771.355 2951.22)">
      <rect width="15.238" height="15.238" x=".889" y="4.573" fill="#01B2D0" opacity=".1" rx="2"/>
      <rect width="13.238" height="13.238" x="5.698" y="1.763" stroke="#01B2D0" stroke-width="2" rx="2"/>
    </g>
    <g transform="rotate(57 261.556 747.45)">
      <rect width="19.048" height="19.048" x="1.111" y="5.716" fill="#01B2D0" opacity=".1" rx="2"/>
      <rect width="17.048" height="17.048" x="6.873" y="1.954" stroke="#01B2D0" stroke-width="2" rx="2"/>
    </g>
    <g transform="rotate(169 92.665 336.315)">
      <rect width="16.762" height="16.762" x=".978" y="5.03" fill="#01B2D0" opacity=".1" rx="2"/>
      <rect width="14.762" height="14.762" x="6.168" y="1.84" stroke="#01B2D0" stroke-width="2" rx="2"/>
    </g>
    <g transform="rotate(27 -617.884 3417.51)">
      <path fill="#6FD350" d="M11.072382,6.04235051 L16.0109189,14.6092003 C16.5625722,15.5661498 16.2340147,16.7891141 15.2770651,17.3407673 C14.9732987,17.5158797 14.6288342,17.6080569 14.2782085,17.6080569 L4.40113464,17.6080569 C3.29656514,17.6080569 2.40113464,16.7126264 2.40113464,15.6080569 C2.40113464,15.2574312 2.4933118,14.9129667 2.6684242,14.6092003 L7.60696113,6.04235051 C8.1586144,5.08540095 9.38157862,4.7568434 10.3385282,5.30849667 C10.643458,5.48427977 10.8965989,5.73742064 11.072382,6.04235051 Z" opacity=".2"/>
      <path stroke="#6FD350" stroke-width="2" d="M14.4060268,4.11320738 C14.3181352,3.96074245 14.1915648,3.83417201 14.0390999,3.74628046 C13.5606251,3.47045383 12.949143,3.6347326 12.6733163,4.11320738 L7.73477942,12.6800571 C7.64722322,12.8319404 7.60113464,13.0041726 7.60113464,13.1794855 C7.60113464,13.7317702 8.04884989,14.1794855 8.60113464,14.1794855 L18.4782085,14.1794855 C18.6535213,14.1794855 18.8257536,14.1333969 18.9776368,14.0458407 C19.4561116,13.770014 19.6203904,13.1585319 19.3445637,12.6800571 L14.4060268,4.11320738 Z"/>
    </g>
    <g transform="rotate(-142 902.399 -216.25)">
      <path fill="#6FD350" d="M13.745012,6.68752149 L22.3327642,22.0227933 C22.8724606,22.9865368 22.5287025,24.2053157 21.5649589,24.745012 C21.2664002,24.9122049 20.9299375,25 20.5877522,25 L3.41224781,25 C2.30767831,25 1.41224781,24.1045695 1.41224781,23 C1.41224781,22.6578147 1.50004286,22.321352 1.66723577,22.0227933 L10.254988,6.68752149 C10.7946843,5.72377795 12.0134632,5.38001981 12.9772067,5.91971619 C13.2990502,6.09994855 13.5647797,6.36567799 13.745012,6.68752149 Z" opacity=".2"/>
      <path stroke="#6FD350" stroke-width="2" d="M18.872506,3.60469628 C18.7823898,3.44377453 18.6495251,3.31090982 18.4886034,3.22079364 C18.0067316,2.95094545 17.3973422,3.12282452 17.127494,3.60469628 L8.53974179,18.9399681 C8.45614533,19.0892474 8.41224781,19.2574788 8.41224781,19.4285714 C8.41224781,19.9808562 8.85996306,20.4285714 9.41224781,20.4285714 L26.5877522,20.4285714 C26.7588449,20.4285714 26.9270762,20.3846739 27.0763556,20.3010774 C27.5582273,20.0312293 27.7301064,19.4218398 27.4602582,18.9399681 L18.872506,3.60469628 Z"/>
    </g>
    <g transform="rotate(161 633.71 157.513)">
      <path fill="#6FD350" d="M9.34934502,5.4424271 L13.5544416,13.0305713 C14.0898423,13.9967079 13.7406619,15.2139443 12.7745253,15.749345 C12.4778634,15.9137451 12.1442656,16 11.8050966,16 L3.39490342,16 C2.29033392,16 1.39490342,15.1045695 1.39490342,14 C1.39490342,13.6608309 1.4811583,13.3272332 1.6455584,13.0305713 L5.85065498,5.4424271 C6.38605567,4.47629053 7.60329212,4.1271101 8.5694287,4.66251078 C8.89736412,4.84424166 9.16761414,5.11449168 9.34934502,5.4424271 Z" opacity=".2"/>
      <path stroke="#6FD350" stroke-width="2" d="M12.2746725,3.64142717 C12.1838071,3.47745946 12.0486821,3.34233445 11.8847143,3.25146901 C11.4016461,2.98376866 10.7930278,3.15835888 10.5253275,3.64142717 L6.32023091,11.2295714 C6.23803086,11.3779023 6.19490342,11.5447012 6.19490342,11.7142857 C6.19490342,12.2665705 6.64261867,12.7142857 7.19490342,12.7142857 L15.6050966,12.7142857 C15.7746811,12.7142857 15.94148,12.6711583 16.0898109,12.5889582 C16.5728792,12.3212579 16.7474694,11.7126397 16.4797691,11.2295714 L12.2746725,3.64142717 Z"/>
    </g>
    <g transform="rotate(-72 957.922 89.278)">
      <path fill="#6FD350" d="M12.1513102,6.31830962 L19.1642755,19.0341259 C19.697713,20.0013478 19.3460613,21.2178726 18.3788394,21.7513102 C18.083049,21.9144431 17.7507587,22 17.4129654,22 L3.38703465,22 C2.28246515,22 1.38703465,21.1045695 1.38703465,20 C1.38703465,19.6622066 1.47259157,19.3299164 1.6357245,19.0341259 L8.64868985,6.31830962 C9.18212737,5.35108773 10.3986522,4.99943602 11.3658741,5.53287355 C11.6965962,5.7152718 11.9689119,5.98758752 12.1513102,6.31830962 Z" opacity=".2"/>
      <path stroke="#6FD350" stroke-width="2" d="M16.4756551,3.65838952 C16.384456,3.49302847 16.2482981,3.35687061 16.082937,3.26567148 C15.5993261,2.99895272 14.9910637,3.17477857 14.7243449,3.65838952 L7.71137957,16.3742058 C7.62981311,16.522101 7.58703465,16.6882462 7.58703465,16.8571429 C7.58703465,17.4094276 8.0347499,17.8571429 8.58703465,17.8571429 L22.6129654,17.8571429 C22.781862,17.8571429 22.9480072,17.8143644 23.0959024,17.7327979 C23.5795133,17.4660792 23.7553392,16.8578168 23.4886204,16.3742058 L16.4756551,3.65838952 Z"/>
    </g>
    <g transform="rotate(-119 235.333 105.433)">
      <path fill="#6FD350" d="M9.34934502,5.4424271 L13.5544416,13.0305713 C14.0898423,13.9967079 13.7406619,15.2139443 12.7745253,15.749345 C12.4778634,15.9137451 12.1442656,16 11.8050966,16 L3.39490342,16 C2.29033392,16 1.39490342,15.1045695 1.39490342,14 C1.39490342,13.6608309 1.4811583,13.3272332 1.6455584,13.0305713 L5.85065498,5.4424271 C6.38605567,4.47629053 7.60329212,4.1271101 8.5694287,4.66251078 C8.89736412,4.84424166 9.16761414,5.11449168 9.34934502,5.4424271 Z" opacity=".2"/>
      <path stroke="#6FD350" stroke-width="2" d="M12.2746725,3.64142717 C12.1838071,3.47745946 12.0486821,3.34233445 11.8847143,3.25146901 C11.4016461,2.98376866 10.7930278,3.15835888 10.5253275,3.64142717 L6.32023091,11.2295714 C6.23803086,11.3779023 6.19490342,11.5447012 6.19490342,11.7142857 C6.19490342,12.2665705 6.64261867,12.7142857 7.19490342,12.7142857 L15.6050966,12.7142857 C15.7746811,12.7142857 15.94148,12.6711583 16.0898109,12.5889582 C16.5728792,12.3212579 16.7474694,11.7126397 16.4797691,11.2295714 L12.2746725,3.64142717 Z"/>
    </g>
    <g transform="rotate(76 534.752 1098.657)">
      <circle cx="11.62" cy="7.853" r="6.619" stroke="#FFC111" stroke-width="2"/>
      <circle cx="7.81" cy="11.663" r="7.619" fill="#FFC111" opacity=".2"/>
    </g>
    <g transform="rotate(155 264.89 317.685)">
      <circle cx="14.525" cy="9.816" r="8.524" stroke="#FFC111" stroke-width="2"/>
      <circle cx="9.763" cy="14.578" r="9.524" fill="#FFC111" opacity=".2"/>
    </g>
    <g transform="rotate(69 3.554 170.375)">
      <circle cx="14.525" cy="9.816" r="8.524" stroke="#FFC111" stroke-width="2"/>
      <circle cx="9.763" cy="14.578" r="9.524" fill="#FFC111" opacity=".2"/>
    </g>
    <g transform="rotate(155 422.224 573.41)">
      <circle cx="14.525" cy="9.816" r="8.524" stroke="#FFC111" stroke-width="2"/>
      <circle cx="9.763" cy="14.578" r="9.524" fill="#FFC111" opacity=".2"/>
    </g>
    <g transform="rotate(155 -44.483 499.32)">
      <circle cx="14.525" cy="9.816" r="8.524" stroke="#FFC111" stroke-width="2"/>
      <circle cx="9.763" cy="14.578" r="9.524" fill="#FFC111" opacity=".2"/>
    </g>
  </g>
</svg>
