<svg xmlns="http://www.w3.org/2000/svg" xmlns:xlink="http://www.w3.org/1999/xlink" width="450" height="386" viewBox="0 0 450 386"><defs><rect id="b" width="274" height="184" x="0" y="0" rx="8"/><filter id="a" width="112.4%" height="118.5%" x="-6.2%" y="-8.2%" filterUnits="objectBoundingBox"><feMorphology in="SourceAlpha" operator="dilate" radius="1" result="shadowSpreadOuter1"/><feOffset dy="2" in="shadowSpreadOuter1" result="shadowOffsetOuter1"/><feGaussianBlur in="shadowOffsetOuter1" result="shadowBlurOuter1" stdDeviation="5"/><feComposite in="shadowBlurOuter1" in2="SourceAlpha" operator="out" result="shadowBlurOuter1"/><feColorMatrix in="shadowBlurOuter1" values="0 0 0 0 0.207843137 0 0 0 0 0.258823529 0 0 0 0 0.329411765 0 0 0 0.101137908 0"/></filter><rect id="d" width="70" height="54" x="0" y="0" rx="4"/><filter id="c" width="117.1%" height="122.2%" x="-8.6%" y="-9.3%" filterUnits="objectBoundingBox"><feMorphology in="SourceAlpha" operator="dilate" radius="1" result="shadowSpreadOuter1"/><feOffset dy="1" in="shadowSpreadOuter1" result="shadowOffsetOuter1"/><feGaussianBlur in="shadowOffsetOuter1" result="shadowBlurOuter1" stdDeviation="1.5"/><feComposite in="shadowBlurOuter1" in2="SourceAlpha" operator="out" result="shadowBlurOuter1"/><feColorMatrix in="shadowBlurOuter1" values="0 0 0 0 0.207843137 0 0 0 0 0.258823529 0 0 0 0 0.329411765 0 0 0 0.12 0"/></filter><rect id="f" width="66" height="54" x="0" y="0" rx="4"/><filter id="e" width="118.2%" height="122.2%" x="-9.1%" y="-9.3%" filterUnits="objectBoundingBox"><feMorphology in="SourceAlpha" operator="dilate" radius="1" result="shadowSpreadOuter1"/><feOffset dy="1" in="shadowSpreadOuter1" result="shadowOffsetOuter1"/><feGaussianBlur in="shadowOffsetOuter1" result="shadowBlurOuter1" stdDeviation="1.5"/><feComposite in="shadowBlurOuter1" in2="SourceAlpha" operator="out" result="shadowBlurOuter1"/><feColorMatrix in="shadowBlurOuter1" values="0 0 0 0 0.207843137 0 0 0 0 0.258823529 0 0 0 0 0.329411765 0 0 0 0.12 0"/></filter><rect id="h" width="66" height="54" x="0" y="0" rx="4"/><filter id="g" width="118.2%" height="122.2%" x="-9.1%" y="-9.3%" filterUnits="objectBoundingBox"><feMorphology in="SourceAlpha" operator="dilate" radius="1" result="shadowSpreadOuter1"/><feOffset dy="1" in="shadowSpreadOuter1" result="shadowOffsetOuter1"/><feGaussianBlur in="shadowOffsetOuter1" result="shadowBlurOuter1" stdDeviation="1.5"/><feComposite in="shadowBlurOuter1" in2="SourceAlpha" operator="out" result="shadowBlurOuter1"/><feColorMatrix in="shadowBlurOuter1" values="0 0 0 0 0.207843137 0 0 0 0 0.258823529 0 0 0 0 0.329411765 0 0 0 0.12 0"/></filter><rect id="j" width="130" height="70" x="0" y="0" rx="8"/><filter id="i" width="126.2%" height="148.6%" x="-13.1%" y="-21.4%" filterUnits="objectBoundingBox"><feMorphology in="SourceAlpha" operator="dilate" radius="1" result="shadowSpreadOuter1"/><feOffset dy="2" in="shadowSpreadOuter1" result="shadowOffsetOuter1"/><feGaussianBlur in="shadowOffsetOuter1" result="shadowBlurOuter1" stdDeviation="5"/><feComposite in="shadowBlurOuter1" in2="SourceAlpha" operator="out" result="shadowBlurOuter1"/><feColorMatrix in="shadowBlurOuter1" values="0 0 0 0 0.207843137 0 0 0 0 0.258823529 0 0 0 0 0.329411765 0 0 0 0.101137908 0"/></filter><rect id="l" width="140" height="180" x="0" y="0" rx="8"/><filter id="k" width="124.3%" height="118.9%" x="-12.1%" y="-8.3%" filterUnits="objectBoundingBox"><feMorphology in="SourceAlpha" operator="dilate" radius="1" result="shadowSpreadOuter1"/><feOffset dy="2" in="shadowSpreadOuter1" result="shadowOffsetOuter1"/><feGaussianBlur in="shadowOffsetOuter1" result="shadowBlurOuter1" stdDeviation="5"/><feComposite in="shadowBlurOuter1" in2="SourceAlpha" operator="out" result="shadowBlurOuter1"/><feColorMatrix in="shadowBlurOuter1" values="0 0 0 0 0.207843137 0 0 0 0 0.258823529 0 0 0 0 0.329411765 0 0 0 0.101137908 0"/></filter><rect id="m" width="124" height="71" x="8" y="46" rx="4"/><filter id="n" width="100.8%" height="101.4%" x="-.4%" y="-.7%" filterUnits="objectBoundingBox"><feOffset dy="1" in="SourceAlpha" result="shadowOffsetInner1"/><feComposite in="shadowOffsetInner1" in2="SourceAlpha" k2="-1" k3="1" operator="arithmetic" result="shadowInnerInner1"/><feColorMatrix in="shadowInnerInner1" values="0 0 0 0 0.219607843 0 0 0 0 0.258823529 0 0 0 0 0.329411765 0 0 0 0.05859375 0"/></filter><path id="p" d="M8 0h124a8 8 0 0 1 8 8v8H0V8a8 8 0 0 1 8-8z"/><filter id="o" width="124.3%" height="312.5%" x="-12.1%" y="-93.8%" filterUnits="objectBoundingBox"><feMorphology in="SourceAlpha" operator="dilate" radius="1" result="shadowSpreadOuter1"/><feOffset dy="2" in="shadowSpreadOuter1" result="shadowOffsetOuter1"/><feGaussianBlur in="shadowOffsetOuter1" result="shadowBlurOuter1" stdDeviation="5"/><feComposite in="shadowBlurOuter1" in2="SourceAlpha" operator="out" result="shadowBlurOuter1"/><feColorMatrix in="shadowBlurOuter1" values="0 0 0 0 0.207843137 0 0 0 0 0.258823529 0 0 0 0 0.329411765 0 0 0 0.101137908 0"/></filter><rect id="r" width="140" height="180" x="0" y="0" rx="8"/><filter id="q" width="124.3%" height="118.9%" x="-12.1%" y="-8.3%" filterUnits="objectBoundingBox"><feMorphology in="SourceAlpha" operator="dilate" radius="1" result="shadowSpreadOuter1"/><feOffset dy="2" in="shadowSpreadOuter1" result="shadowOffsetOuter1"/><feGaussianBlur in="shadowOffsetOuter1" result="shadowBlurOuter1" stdDeviation="5"/><feComposite in="shadowBlurOuter1" in2="SourceAlpha" operator="out" result="shadowBlurOuter1"/><feColorMatrix in="shadowBlurOuter1" values="0 0 0 0 0.207843137 0 0 0 0 0.258823529 0 0 0 0 0.329411765 0 0 0 0.101137908 0"/></filter><rect id="s" width="124" height="71" x="8" y="46" rx="4"/><filter id="t" width="100.8%" height="101.4%" x="-.4%" y="-.7%" filterUnits="objectBoundingBox"><feOffset dy="1" in="SourceAlpha" result="shadowOffsetInner1"/><feComposite in="shadowOffsetInner1" in2="SourceAlpha" k2="-1" k3="1" operator="arithmetic" result="shadowInnerInner1"/><feColorMatrix in="shadowInnerInner1" values="0 0 0 0 0.219607843 0 0 0 0 0.258823529 0 0 0 0 0.329411765 0 0 0 0.05859375 0"/></filter><path id="v" d="M8 0h124a8 8 0 0 1 8 8v8H0V8a8 8 0 0 1 8-8z"/><filter id="u" width="124.3%" height="312.5%" x="-12.1%" y="-93.8%" filterUnits="objectBoundingBox"><feMorphology in="SourceAlpha" operator="dilate" radius="1" result="shadowSpreadOuter1"/><feOffset dy="2" in="shadowSpreadOuter1" result="shadowOffsetOuter1"/><feGaussianBlur in="shadowOffsetOuter1" result="shadowBlurOuter1" stdDeviation="5"/><feComposite in="shadowBlurOuter1" in2="SourceAlpha" operator="out" result="shadowBlurOuter1"/><feColorMatrix in="shadowBlurOuter1" values="0 0 0 0 0.207843137 0 0 0 0 0.258823529 0 0 0 0 0.329411765 0 0 0 0.101137908 0"/></filter><rect id="x" width="140" height="180" x="0" y="0" rx="8"/><filter id="w" width="124.3%" height="118.9%" x="-12.1%" y="-8.3%" filterUnits="objectBoundingBox"><feMorphology in="SourceAlpha" operator="dilate" radius="1" result="shadowSpreadOuter1"/><feOffset dy="2" in="shadowSpreadOuter1" result="shadowOffsetOuter1"/><feGaussianBlur in="shadowOffsetOuter1" result="shadowBlurOuter1" stdDeviation="5"/><feComposite in="shadowBlurOuter1" in2="SourceAlpha" operator="out" result="shadowBlurOuter1"/><feColorMatrix in="shadowBlurOuter1" values="0 0 0 0 0.207843137 0 0 0 0 0.258823529 0 0 0 0 0.329411765 0 0 0 0.101137908 0"/></filter><rect id="y" width="124" height="71" x="8" y="46" rx="4"/><filter id="z" width="100.8%" height="101.4%" x="-.4%" y="-.7%" filterUnits="objectBoundingBox"><feOffset dy="1" in="SourceAlpha" result="shadowOffsetInner1"/><feComposite in="shadowOffsetInner1" in2="SourceAlpha" k2="-1" k3="1" operator="arithmetic" result="shadowInnerInner1"/><feColorMatrix in="shadowInnerInner1" values="0 0 0 0 0.219607843 0 0 0 0 0.258823529 0 0 0 0 0.329411765 0 0 0 0.05859375 0"/></filter><path id="B" d="M8 0h124a8 8 0 0 1 8 8v8H0V8a8 8 0 0 1 8-8z"/><filter id="A" width="124.3%" height="312.5%" x="-12.1%" y="-93.8%" filterUnits="objectBoundingBox"><feMorphology in="SourceAlpha" operator="dilate" radius="1" result="shadowSpreadOuter1"/><feOffset dy="2" in="shadowSpreadOuter1" result="shadowOffsetOuter1"/><feGaussianBlur in="shadowOffsetOuter1" result="shadowBlurOuter1" stdDeviation="5"/><feComposite in="shadowBlurOuter1" in2="SourceAlpha" operator="out" result="shadowBlurOuter1"/><feColorMatrix in="shadowBlurOuter1" values="0 0 0 0 0.207843137 0 0 0 0 0.258823529 0 0 0 0 0.329411765 0 0 0 0.101137908 0"/></filter><rect id="D" width="130" height="70" x="0" y="0" rx="8"/><filter id="C" width="126.2%" height="148.6%" x="-13.1%" y="-21.4%" filterUnits="objectBoundingBox"><feMorphology in="SourceAlpha" operator="dilate" radius="1" result="shadowSpreadOuter1"/><feOffset dy="2" in="shadowSpreadOuter1" result="shadowOffsetOuter1"/><feGaussianBlur in="shadowOffsetOuter1" result="shadowBlurOuter1" stdDeviation="5"/><feComposite in="shadowBlurOuter1" in2="SourceAlpha" operator="out" result="shadowBlurOuter1"/><feColorMatrix in="shadowBlurOuter1" values="0 0 0 0 0.207843137 0 0 0 0 0.258823529 0 0 0 0 0.329411765 0 0 0 0.101137908 0"/></filter></defs><g fill="none" fill-rule="evenodd" transform="translate(11 9)"><use fill="#000" filter="url(#a)" xlink:href="#b"/><rect width="275" height="185" x="-.5" y="-.5" fill="#FFF" stroke="#E1E1E1" rx="8"/><path fill="#384254" fill-rule="nonzero" d="M22.632 97v-3.5h2.478c1.946 0 3.038-1.33 3.038-2.912 0-1.596-1.078-2.926-3.038-2.926h-4.116V97h1.638zm2.254-4.942h-2.254v-2.954h2.254c.924 0 1.582.588 1.582 1.484 0 .882-.658 1.47-1.582 1.47zM30.948 97v-9.338h-1.47V97h1.47zm7.518 0v-4.494c0-1.806-1.316-2.436-2.828-2.436-1.078 0-2.058.336-2.842 1.092l.616 1.022c.574-.588 1.246-.868 2.002-.868.924 0 1.582.476 1.582 1.26v1.008c-.504-.574-1.274-.868-2.198-.868-1.106 0-2.338.644-2.338 2.212 0 1.484 1.246 2.24 2.338 2.24.896 0 1.694-.322 2.198-.91V97h1.47zm-3.08-.84c-.826 0-1.456-.476-1.456-1.218 0-.728.63-1.218 1.456-1.218.63 0 1.26.238 1.61.7v1.036c-.35.462-.98.7-1.61.7zm7.028 1.008c.672 0 1.106-.196 1.372-.434l-.35-1.12c-.112.126-.364.252-.644.252-.42 0-.644-.35-.644-.812v-3.542h1.372v-1.274h-1.372V88.39h-1.47v1.848h-1.12v1.274h1.12v3.906c0 1.134.588 1.75 1.736 1.75zM46.67 97v-5.488h1.372v-1.274H46.67v-.378c0-.756.35-1.134.938-1.134.322 0 .574.112.77.294l.574-.91c-.406-.434-1.008-.588-1.624-.588-1.274 0-2.128.868-2.128 2.338v.378h-1.12v1.274h1.12V97h1.47zm5.558.168c2.156 0 3.472-1.624 3.472-3.556 0-1.946-1.316-3.542-3.472-3.542-2.156 0-3.472 1.596-3.472 3.542 0 1.932 1.316 3.556 3.472 3.556zm0-1.302c-1.246 0-1.946-1.05-1.946-2.254 0-1.19.7-2.24 1.946-2.24 1.26 0 1.946 1.05 1.946 2.24 0 1.204-.686 2.254-1.946 2.254zM58.668 97v-4.606c.294-.49 1.12-.91 1.75-.91.182 0 .322.014.448.042V90.07c-.868 0-1.68.504-2.198 1.148v-.98h-1.47V97h1.47zm13.16 0h-1.47v-4.41c0-.728-.322-1.218-1.12-1.218-.658 0-1.274.448-1.568.896V97H66.2v-4.41c0-.728-.308-1.218-1.106-1.218-.658 0-1.26.462-1.568.896V97h-1.47v-6.762h1.47v.91c.294-.406 1.176-1.078 2.212-1.078 1.008 0 1.624.504 1.848 1.232.378-.602 1.274-1.232 2.296-1.232 1.232 0 1.946.672 1.946 2.044V97z"/><g transform="translate(20 110)"><use fill="#000" filter="url(#c)" xlink:href="#d"/><rect width="71" height="55" x="-.5" y="-.5" fill="#FFF" stroke="#E1E1E1" rx="4"/><path d="M32.555 27.38a8.493 8.493 0 0 1-.873 1.524c-.46.634-.835 1.074-1.125 1.318-.45.4-.93.606-1.446.617-.37 0-.817-.102-1.336-.309-.521-.206-1-.308-1.438-.308-.46 0-.952.102-1.479.308-.527.207-.953.315-1.278.326-.494.02-.987-.19-1.478-.634-.314-.265-.707-.72-1.177-1.365a9.335 9.335 0 0 1-1.245-2.397c-.348-.983-.522-1.935-.522-2.856 0-1.056.235-1.967.706-2.73a4.082 4.082 0 0 1 1.48-1.45 4.074 4.074 0 0 1 2-.548c.393 0 .908.118 1.548.35.638.231 1.047.35 1.227.35.134 0 .59-.139 1.36-.413.73-.255 1.346-.36 1.85-.318 1.367.106 2.394.629 3.077 1.57-1.223.718-1.827 1.724-1.815 3.014.01 1.006.387 1.842 1.126 2.506.335.308.709.546 1.125.716-.09.253-.185.497-.287.73zm-3.134-11.96c0 .788-.297 1.524-.889 2.205-.714.809-1.578 1.277-2.514 1.203a2.379 2.379 0 0 1-.019-.299c0-.756.34-1.565.943-2.227a3.62 3.62 0 0 1 1.148-.836c.463-.219.901-.34 1.314-.36.012.105.017.21.017.314zm18.933 12.885h-8.708v6.356c0 .537.435.972.972.972h.607v2.163a1.06 1.06 0 0 0 1.06 1.061h.176a1.06 1.06 0 0 0 1.06-1.06v-2.164h.957v2.163c0 .586.475 1.061 1.061 1.061h.175a1.06 1.06 0 0 0 1.061-1.06v-2.164h.607a.972.972 0 0 0 .972-.972v-6.356zm-8.705-.344h8.702c-.056-1.35-.868-2.526-2.066-3.193l.677-1.223a.287.287 0 0 0-.112-.39l-.041-.023a.287.287 0 0 0-.39.112l-.699 1.259a4.75 4.75 0 0 0-1.72-.319 4.75 4.75 0 0 0-1.72.319l-.698-1.26a.287.287 0 0 0-.39-.111l-.042.023a.287.287 0 0 0-.112.39l.677 1.223c-1.198.667-2.01 1.843-2.066 3.193zm-1.43.149a1.06 1.06 0 0 0-1.061 1.06v4.094c0 .586.475 1.06 1.06 1.06h.176a1.06 1.06 0 0 0 1.06-1.06V29.17a1.06 1.06 0 0 0-1.06-1.06h-.175zm11.562 0h-.175a1.06 1.06 0 0 0-1.06 1.06v4.094c0 .586.474 1.06 1.06 1.06h.175a1.06 1.06 0 0 0 1.061-1.06V29.17a1.06 1.06 0 0 0-1.06-1.06zm-3.771-1.683a.236.236 0 0 1-.24-.233c0-.13.107-.234.24-.234.132 0 .239.105.239.234a.236.236 0 0 1-.24.233zm-4.02 0a.236.236 0 0 1-.239-.233c0-.13.107-.234.24-.234.132 0 .239.105.239.234a.236.236 0 0 1-.24.233z" fill="#9AA0A9" fill-rule="nonzero"/></g><g transform="translate(106 110)"><use fill="#000" filter="url(#e)" xlink:href="#f"/><rect width="67" height="55" x="-.5" y="-.5" fill="#FFF" stroke="#E1E1E1" rx="4"/><path fill="#9AA0A9" fill-rule="nonzero" d="M42.177 33.133a11.89 11.89 0 0 1-1.222 2.132c-.643.889-1.17 1.504-1.576 1.846-.629.56-1.302.848-2.024.864-.518 0-1.143-.143-1.87-.433-.73-.288-1.4-.431-2.013-.431-.643 0-1.333.143-2.07.431-.74.29-1.334.441-1.79.456-.691.029-1.381-.266-2.07-.887-.439-.372-.989-1.009-1.647-1.911-.707-.964-1.287-2.082-1.742-3.356-.488-1.376-.732-2.709-.732-3.999 0-1.478.33-2.753.99-3.82a5.714 5.714 0 0 1 2.07-2.032 5.704 5.704 0 0 1 2.801-.767c.55 0 1.27.165 2.166.49.893.324 1.467.49 1.718.49.188 0 .825-.194 1.905-.578 1.022-.356 1.884-.504 2.59-.446 1.914.15 3.351.881 4.307 2.2-1.711 1.005-2.558 2.413-2.54 4.22.015 1.406.541 2.577 1.576 3.507.469.432.992.765 1.575 1.002a16.2 16.2 0 0 1-.402 1.022zM37.79 16.39c0 1.102-.416 2.132-1.244 3.085-1 1.133-2.209 1.788-3.52 1.685a3.33 3.33 0 0 1-.026-.42c0-1.059.475-2.192 1.32-3.118.42-.47.957-.86 1.607-1.17.648-.307 1.262-.477 1.839-.506.017.148.024.295.024.442z"/></g><g transform="translate(188 110)"><use fill="#000" filter="url(#g)" xlink:href="#h"/><rect width="67" height="55" x="-.5" y="-.5" fill="#FFF" stroke="#E1E1E1" rx="4"/><path fill="#9AA0A9" fill-rule="nonzero" d="M39.096 23.227H26.904v8.898c0 .752.61 1.361 1.362 1.361h.849v3.03c0 .82.665 1.484 1.485 1.484h.245c.82 0 1.485-.665 1.485-1.485v-3.029h1.34v3.03c0 .82.665 1.484 1.485 1.484h.245c.82 0 1.485-.665 1.485-1.485v-3.029h.85c.751 0 1.36-.61 1.36-1.361v-8.898zm-12.187-.481H39.09c-.078-1.891-1.215-3.537-2.892-4.471l.948-1.711a.402.402 0 0 0-.157-.547l-.058-.032a.402.402 0 0 0-.547.156l-.976 1.763A6.65 6.65 0 0 0 33 17.458a6.65 6.65 0 0 0-2.409.446l-.976-1.763a.402.402 0 0 0-.547-.156l-.058.032a.402.402 0 0 0-.157.547l.948 1.71c-1.677.935-2.814 2.581-2.892 4.472zm-2.003.208c-.82 0-1.485.664-1.485 1.485v5.73c0 .82.665 1.485 1.485 1.485h.245c.82 0 1.485-.664 1.485-1.485v-5.73c0-.82-.665-1.485-1.485-1.485h-.245zm16.188 0h-.245c-.82 0-1.485.664-1.485 1.485v5.73c0 .82.665 1.485 1.485 1.485h.245c.82 0 1.485-.664 1.485-1.485v-5.73c0-.82-.665-1.485-1.485-1.485zm-5.28-2.356a.331.331 0 0 1-.336-.327c0-.18.15-.327.335-.327.185 0 .335.147.335.327a.33.33 0 0 1-.335.327zm-5.627 0a.331.331 0 0 1-.335-.327c0-.18.15-.327.335-.327.185 0 .335.147.335.327a.33.33 0 0 1-.335.327z"/></g><path fill="#384254" fill-rule="nonzero" d="M22.632 33v-3.5h2.478c1.946 0 3.038-1.33 3.038-2.912 0-1.596-1.078-2.926-3.038-2.926h-4.116V33h1.638zm2.254-4.942h-2.254v-2.954h2.254c.924 0 1.582.588 1.582 1.484 0 .882-.658 1.47-1.582 1.47zM30.948 33v-4.606c.294-.49 1.12-.91 1.75-.91.182 0 .322.014.448.042V26.07c-.868 0-1.68.504-2.198 1.148v-.98h-1.47V33h1.47zm6.454.168c2.156 0 3.472-1.624 3.472-3.556 0-1.946-1.316-3.542-3.472-3.542-2.156 0-3.472 1.596-3.472 3.542 0 1.932 1.316 3.556 3.472 3.556zm0-1.302c-1.246 0-1.946-1.05-1.946-2.254 0-1.19.7-2.24 1.946-2.24 1.26 0 1.946 1.05 1.946 2.24 0 1.204-.686 2.254-1.946 2.254zM45.732 33l2.758-6.762h-1.568l-1.974 5.068-1.974-5.068h-1.582L44.15 33h1.582zm4.424-7.588c.504 0 .91-.406.91-.91a.908.908 0 0 0-.91-.91.908.908 0 0 0-.91.91c0 .504.406.91.91.91zM50.884 33v-6.762h-1.47V33h1.47zm8.134 0v-9.338h-1.47v3.514a2.636 2.636 0 0 0-2.17-1.106c-1.736 0-2.996 1.358-2.996 3.542 0 2.24 1.274 3.556 2.996 3.556.882 0 1.652-.42 2.17-1.092V33h1.47zm-3.206-1.134c-1.176 0-1.918-.938-1.918-2.254 0-1.302.742-2.24 1.918-2.24.686 0 1.414.406 1.736.91v2.674c-.322.504-1.05.91-1.736.91zm8.246 1.302c1.064 0 2.058-.35 2.744-.994l-.672-.966c-.49.49-1.26.756-1.932.756-1.274 0-2.03-.854-2.142-1.862h5.208v-.364c0-2.128-1.288-3.668-3.318-3.668-2.002 0-3.43 1.582-3.43 3.542 0 2.142 1.498 3.556 3.542 3.556zm1.792-4.116h-3.808c.056-.812.644-1.778 1.89-1.778 1.33 0 1.876.98 1.918 1.778zM70.19 33h-1.47v-6.762h1.47v.98c.518-.644 1.33-1.148 2.198-1.148v1.456a2.029 2.029 0 0 0-.448-.042c-.63 0-1.456.42-1.75.91V33z"/><g transform="translate(20 44)"><rect width="233" height="27" x=".5" y=".5" fill="#FFF" stroke="#E1E1E1" rx="2"/><path fill="#354254" fill-rule="nonzero" d="M11.912 17V9.884h2.544v-.888H8.384v.888h2.532V17h.996zm3.708 0v-4.104c.264-.468 1.02-.924 1.584-.924.132 0 .24.012.348.024v-.924c-.792 0-1.464.456-1.932 1.056v-.924h-.9V17h.9zm7.872 0v-5.796h-.9v4.26c-.336.468-1.008.876-1.704.876-.792 0-1.308-.3-1.308-1.32v-3.816h-.9v4.092c0 1.248.636 1.848 1.848 1.848.864 0 1.62-.456 2.064-.96V17h.9zm4.428.144c.936 0 1.716-.324 2.304-.9l-.432-.588a2.522 2.522 0 0 1-1.8.744c-1.248 0-2.004-.912-2.076-2.004h4.68v-.228c0-1.74-1.032-3.108-2.784-3.108-1.656 0-2.856 1.356-2.856 3.036 0 1.812 1.236 3.048 2.964 3.048zm1.788-3.42h-3.804c.048-.876.66-1.92 1.896-1.92 1.32 0 1.896 1.068 1.908 1.92zM36.188 17v-3.18h2.22c1.596 0 2.508-1.104 2.508-2.412 0-1.308-.9-2.412-2.508-2.412h-3.216V17h.996zm2.1-4.068h-2.1V9.884h2.1c.948 0 1.596.624 1.596 1.524s-.648 1.524-1.596 1.524zM46.484 17v-3.984c0-1.404-1.008-1.956-2.244-1.956-.948 0-1.692.312-2.316.96l.42.624c.516-.564 1.08-.804 1.776-.804.84 0 1.464.444 1.464 1.212v1.044c-.468-.528-1.128-.78-1.92-.78-.984 0-2.016.6-2.016 1.908 0 1.26 1.044 1.92 2.016 1.92.78 0 1.452-.276 1.92-.804V17h.9zM44 16.496c-.852 0-1.44-.528-1.44-1.272 0-.732.588-1.26 1.44-1.26.624 0 1.236.24 1.584.708v1.104c-.348.48-.96.72-1.584.72zm3.984 2.772c.156.048.456.084.648.084.768-.012 1.356-.336 1.704-1.176l2.904-6.972h-.972l-1.932 4.752-1.92-4.752h-.984l2.424 5.856-.384.876c-.204.48-.468.612-.864.612a1.38 1.38 0 0 1-.492-.096l-.132.816zM64.172 17l-3.216-8.004H59.72L56.492 17h1.14l.708-1.788h3.984L63.032 17h1.14zm-2.136-2.664H58.64l1.692-4.32 1.704 4.32zm6 2.808c1.524 0 2.58-1.176 2.58-3.048 0-1.884-1.056-3.036-2.58-3.036-.816 0-1.536.42-1.956 1.008v-.864h-.9v8.004h.9v-3.084c.48.636 1.164 1.02 1.956 1.02zm-.228-.804c-.708 0-1.416-.432-1.728-.936v-2.616c.312-.504 1.02-.924 1.728-.924 1.164 0 1.86.948 1.86 2.232 0 1.284-.696 2.244-1.86 2.244zm7.092.804c1.524 0 2.58-1.176 2.58-3.048 0-1.884-1.056-3.036-2.58-3.036-.816 0-1.536.42-1.956 1.008v-.864h-.9v8.004h.9v-3.084c.48.636 1.164 1.02 1.956 1.02zm-.228-.804c-.708 0-1.416-.432-1.728-.936v-2.616c.312-.504 1.02-.924 1.728-.924 1.164 0 1.86.948 1.86 2.232 0 1.284-.696 2.244-1.86 2.244z"/></g><g transform="translate(264 57)"><use fill="#000" filter="url(#i)" xlink:href="#j"/><rect width="131" height="71" x="-.5" y="-.5" fill="#FFF" stroke="#E1E1E1" rx="8"/><path fill="#354254" fill-rule="nonzero" d="M36.632 26v-3.5h2.478c1.946 0 3.038-1.33 3.038-2.912 0-1.596-1.078-2.926-3.038-2.926h-4.116V26h1.638zm2.254-4.942h-2.254v-2.954h2.254c.924 0 1.582.588 1.582 1.484 0 .882-.658 1.47-1.582 1.47zM49.512 26v-6.762h-1.47v4.746c-.336.448-.98.882-1.722.882-.84 0-1.372-.336-1.372-1.386v-4.242h-1.47v4.788c0 1.372.728 2.142 2.184 2.142a3.234 3.234 0 0 0 2.38-1.064V26h1.47zm4.228.168c1.82 0 2.814-.91 2.814-2.114 0-2.688-4.088-1.792-4.088-2.982 0-.476.476-.84 1.246-.84.854 0 1.596.364 2.002.812l.616-1.036c-.602-.532-1.47-.938-2.618-.938-1.708 0-2.66.938-2.66 2.044 0 2.604 4.088 1.652 4.088 2.982 0 .532-.462.896-1.344.896-.868 0-1.806-.448-2.282-.938l-.672 1.05c.7.686 1.736 1.064 2.898 1.064zM64.072 26h-1.47v-4.256c0-1.064-.532-1.372-1.358-1.372-.756 0-1.4.448-1.736.896V26h-1.47v-9.338h1.47v3.486c.448-.532 1.316-1.078 2.38-1.078 1.456 0 2.184.756 2.184 2.142V26z"/><path fill="#96C775" d="M22.716 11a2.444 2.444 0 0 1 2.444 2.444v13.912a2.444 2.444 0 0 1-2.444 2.444h-8.272A2.444 2.444 0 0 1 12 27.356V13.444A2.444 2.444 0 0 1 14.444 11h8.272zm-6.529 1.879l-1.17.001c-.633 0-1.154.48-1.216 1.097l-.006.125v12.596c0 .633.48 1.153 1.097 1.216l.125.006h7.126c.633 0 1.154-.48 1.216-1.097l.006-.125V14.102c0-.675-.547-1.222-1.222-1.222l-1.171-.001v.643a.611.611 0 0 1-.61.611h-3.564a.611.611 0 0 1-.61-.61l-.001-.644zM21.4 18.52c.52 0 .94.42.94.94v2.82c0 .52-.42.94-.94.94h-5.64a.94.94 0 0 1-.94-.94v-2.82c0-.52.42-.94.94-.94h5.64z"/><rect width="106" height="2" x="12" y="46" fill="#F1F1F1" rx="1"/><rect width="106" height="2" x="12" y="56" fill="#F1F1F1" rx="1"/></g><g transform="translate(198 174)"><use fill="#000" filter="url(#k)" xlink:href="#l"/><rect width="141" height="181" x="-.5" y="-.5" fill="#FFF" stroke="#E1E1E1" rx="8"/><rect width="124" height="2" x="8" y="125" fill="#F1F1F1" rx="1"/><path fill="#E1E1E1" d="M0 37h140v1H0z"/><rect width="40" height="2" x="8" y="22" fill="#F1F1F1" rx="1"/><rect width="40" height="2" x="8" y="29" fill="#F1F1F1" rx="1"/><rect width="124" height="2" x="8" y="135" fill="#F1F1F1" rx="1"/><rect width="124" height="2" x="8" y="145" fill="#F1F1F1" rx="1"/><rect width="124" height="2" x="8" y="155" fill="#F1F1F1" rx="1"/><rect width="124" height="2" x="8" y="165" fill="#F1F1F1" rx="1"/><use fill="#1B2E5B" fill-opacity=".1" xlink:href="#m"/><use fill="#000" filter="url(#n)" xlink:href="#m"/><use fill="#000" filter="url(#o)" xlink:href="#p"/><path fill="#FFF" stroke="#E1E1E1" d="M8-.5h124a8.5 8.5 0 0 1 8.5 8.5v8.5H-.5V8A8.5 8.5 0 0 1 8-.5z"/><circle cx="9" cy="8" r="3" fill="#F15242"/><circle cx="19" cy="8" r="3" fill="#FFC111"/><circle cx="29" cy="8" r="3" fill="#6FD350"/></g><g transform="translate(238 184)"><use fill="#000" filter="url(#q)" xlink:href="#r"/><rect width="141" height="181" x="-.5" y="-.5" fill="#FFF" stroke="#E1E1E1" rx="8"/><rect width="124" height="2" x="8" y="125" fill="#F1F1F1" rx="1"/><path fill="#E1E1E1" d="M0 37h140v1H0z"/><rect width="40" height="2" x="8" y="22" fill="#F1F1F1" rx="1"/><rect width="40" height="2" x="8" y="29" fill="#F1F1F1" rx="1"/><rect width="124" height="2" x="8" y="135" fill="#F1F1F1" rx="1"/><rect width="124" height="2" x="8" y="145" fill="#F1F1F1" rx="1"/><rect width="124" height="2" x="8" y="155" fill="#F1F1F1" rx="1"/><rect width="124" height="2" x="8" y="165" fill="#F1F1F1" rx="1"/><use fill="#1B2E5B" fill-opacity=".1" xlink:href="#s"/><use fill="#000" filter="url(#t)" xlink:href="#s"/><use fill="#000" filter="url(#u)" xlink:href="#v"/><path fill="#FFF" stroke="#E1E1E1" d="M8-.5h124a8.5 8.5 0 0 1 8.5 8.5v8.5H-.5V8A8.5 8.5 0 0 1 8-.5z"/><circle cx="9" cy="8" r="3" fill="#F15242"/><circle cx="19" cy="8" r="3" fill="#FFC111"/><circle cx="29" cy="8" r="3" fill="#6FD350"/></g><g transform="translate(288 174)"><use fill="#000" filter="url(#w)" xlink:href="#x"/><rect width="141" height="181" x="-.5" y="-.5" fill="#FFF" stroke="#E1E1E1" rx="8"/><rect width="124" height="2" x="8" y="125" fill="#F1F1F1" rx="1"/><path fill="#E1E1E1" d="M0 37h140v1H0z"/><rect width="40" height="2" x="8" y="22" fill="#F1F1F1" rx="1"/><rect width="40" height="2" x="8" y="29" fill="#F1F1F1" rx="1"/><rect width="124" height="2" x="8" y="135" fill="#F1F1F1" rx="1"/><rect width="124" height="2" x="8" y="145" fill="#F1F1F1" rx="1"/><rect width="124" height="2" x="8" y="155" fill="#F1F1F1" rx="1"/><rect width="124" height="2" x="8" y="165" fill="#F1F1F1" rx="1"/><use fill="#1B2E5B" fill-opacity=".1" xlink:href="#y"/><use fill="#000" filter="url(#z)" xlink:href="#y"/><use fill="#000" filter="url(#A)" xlink:href="#B"/><path fill="#FFF" stroke="#E1E1E1" d="M8-.5h124a8.5 8.5 0 0 1 8.5 8.5v8.5H-.5V8A8.5 8.5 0 0 1 8-.5z"/><circle cx="9" cy="8" r="3" fill="#F15242"/><circle cx="19" cy="8" r="3" fill="#FFC111"/><circle cx="29" cy="8" r="3" fill="#6FD350"/></g><g transform="translate(78 229)"><use fill="#000" filter="url(#C)" xlink:href="#D"/><rect width="131" height="71" x="-.5" y="-.5" fill="#FFF" stroke="#E1E1E1" rx="8"/><path fill="#354254" fill-rule="nonzero" d="M46.392 26v-1.442h-4.76v-2.604h4.662v-1.442h-4.662v-2.408h4.76v-1.442h-6.398V26h6.398zm11.41 0v-4.886c0-1.372-.714-2.044-1.946-2.044-1.022 0-1.918.63-2.296 1.232-.224-.728-.84-1.232-1.848-1.232-1.036 0-1.918.672-2.212 1.078v-.91h-1.47V26h1.47v-4.732c.308-.434.91-.896 1.568-.896.798 0 1.106.49 1.106 1.218V26h1.47v-4.732c.294-.448.91-.896 1.568-.896.798 0 1.12.49 1.12 1.218V26h1.47zm7.518 0v-4.494c0-1.806-1.316-2.436-2.828-2.436-1.078 0-2.058.336-2.842 1.092l.616 1.022c.574-.588 1.246-.868 2.002-.868.924 0 1.582.476 1.582 1.26v1.008c-.504-.574-1.274-.868-2.198-.868-1.106 0-2.338.644-2.338 2.212 0 1.484 1.246 2.24 2.338 2.24.896 0 1.694-.322 2.198-.91V26h1.47zm-3.08-.84c-.826 0-1.456-.476-1.456-1.218 0-.728.63-1.218 1.456-1.218.63 0 1.26.238 1.61.7v1.036c-.35.462-.98.7-1.61.7zm5.726-6.748c.504 0 .91-.406.91-.91a.908.908 0 0 0-.91-.91.908.908 0 0 0-.91.91c0 .504.406.91.91.91zM68.694 26v-6.762h-1.47V26h1.47zm3.374 0h-1.47v-9.338h1.47V26z"/><path fill="#6BC0CF" d="M28.356 15a2.444 2.444 0 0 1 2.444 2.444v8.272a2.444 2.444 0 0 1-2.444 2.444H14.444A2.444 2.444 0 0 1 12 25.716v-8.272A2.444 2.444 0 0 1 14.444 15h13.912zM14.95 17.05a.664.664 0 0 0-.886 0 .547.547 0 0 0 0 .817l6.893 6.364a.664.664 0 0 0 .886 0l6.894-6.364a.547.547 0 0 0 0-.818.664.664 0 0 0-.887 0l-6.45 5.955z"/><rect width="106" height="2" x="12" y="46" fill="#F1F1F1" rx="1"/><rect width="106" height="2" x="12" y="56" fill="#F1F1F1" rx="1"/></g></g></svg>