<svg xmlns="http://www.w3.org/2000/svg" xmlns:xlink="http://www.w3.org/1999/xlink" width="536" height="421" viewBox="0 0 536 421">
  <defs>
    <rect id="reach-b" width="312" height="196" x="0" y="0" rx="8"/>
    <filter id="reach-a" width="110.9%" height="117.3%" x="-5.4%" y="-7.7%" filterUnits="objectBoundingBox">
      <feMorphology in="SourceAlpha" operator="dilate" radius="1" result="shadowSpreadOuter1"/>
      <feOffset dy="2" in="shadowSpreadOuter1" result="shadowOffsetOuter1"/>
      <feGaussianBlur in="shadowOffsetOuter1" result="shadowBlurOuter1" stdDeviation="5"/>
      <feComposite in="shadowBlurOuter1" in2="SourceAlpha" operator="out" result="shadowBlurOuter1"/>
      <feColorMatrix in="shadowBlurOuter1" values="0 0 0 0 0.207843137   0 0 0 0 0.258823529   0 0 0 0 0.329411765  0 0 0 0.101137908 0"/>
    </filter>
    <rect id="reach-d" width="80" height="60" x="0" y="0" rx="4"/>
    <filter id="reach-c" width="112.5%" height="116.7%" x="-6.2%" y="-6.7%" filterUnits="objectBoundingBox">
      <feOffset dy="1" in="SourceAlpha" result="shadowOffsetOuter1"/>
      <feGaussianBlur in="shadowOffsetOuter1" result="shadowBlurOuter1" stdDeviation="1.5"/>
      <feComposite in="shadowBlurOuter1" in2="SourceAlpha" operator="out" result="shadowBlurOuter1"/>
      <feColorMatrix in="shadowBlurOuter1" values="0 0 0 0 0.207843137   0 0 0 0 0.258823529   0 0 0 0 0.329411765  0 0 0 0.12 0"/>
    </filter>
    <rect id="reach-f" width="80" height="60" x="0" y="0" rx="4"/>
    <filter id="reach-e" width="112.5%" height="116.7%" x="-6.2%" y="-6.7%" filterUnits="objectBoundingBox">
      <feOffset dy="1" in="SourceAlpha" result="shadowOffsetOuter1"/>
      <feGaussianBlur in="shadowOffsetOuter1" result="shadowBlurOuter1" stdDeviation="1.5"/>
      <feComposite in="shadowBlurOuter1" in2="SourceAlpha" operator="out" result="shadowBlurOuter1"/>
      <feColorMatrix in="shadowBlurOuter1" values="0 0 0 0 0.207843137   0 0 0 0 0.258823529   0 0 0 0 0.329411765  0 0 0 0.12 0"/>
    </filter>
    <rect id="reach-h" width="80" height="60" x="0" y="0" rx="4"/>
    <filter id="reach-g" width="112.5%" height="116.7%" x="-6.2%" y="-6.7%" filterUnits="objectBoundingBox">
      <feOffset dy="1" in="SourceAlpha" result="shadowOffsetOuter1"/>
      <feGaussianBlur in="shadowOffsetOuter1" result="shadowBlurOuter1" stdDeviation="1.5"/>
      <feComposite in="shadowBlurOuter1" in2="SourceAlpha" operator="out" result="shadowBlurOuter1"/>
      <feColorMatrix in="shadowBlurOuter1" values="0 0 0 0 0.207843137   0 0 0 0 0.258823529   0 0 0 0 0.329411765  0 0 0 0.12 0"/>
    </filter>
    <rect id="reach-j" width="272" height="30" x="0" y="0" rx="4"/>
    <filter id="reach-i" width="103.7%" height="133.3%" x="-1.8%" y="-13.3%" filterUnits="objectBoundingBox">
      <feOffset dy="1" in="SourceAlpha" result="shadowOffsetOuter1"/>
      <feGaussianBlur in="shadowOffsetOuter1" result="shadowBlurOuter1" stdDeviation="1.5"/>
      <feComposite in="shadowBlurOuter1" in2="SourceAlpha" operator="out" result="shadowBlurOuter1"/>
      <feColorMatrix in="shadowBlurOuter1" values="0 0 0 0 0.207843137   0 0 0 0 0.258823529   0 0 0 0 0.329411765  0 0 0 0.12 0"/>
    </filter>
    <rect id="reach-l" width="140" height="70" x="0" y="0" rx="8"/>
    <filter id="reach-k" width="115.7%" height="131.4%" x="-7.9%" y="-12.9%" filterUnits="objectBoundingBox">
      <feMorphology in="SourceAlpha" operator="dilate" radius="1" result="shadowSpreadOuter1"/>
      <feOffset dy="2" in="shadowSpreadOuter1" result="shadowOffsetOuter1"/>
      <feGaussianBlur in="shadowOffsetOuter1" result="shadowBlurOuter1" stdDeviation="3"/>
      <feComposite in="shadowBlurOuter1" in2="SourceAlpha" operator="out" result="shadowBlurOuter1"/>
      <feColorMatrix in="shadowBlurOuter1" values="0 0 0 0 0.207843137   0 0 0 0 0.258823529   0 0 0 0 0.329411765  0 0 0 0.101137908 0"/>
    </filter>
    <rect id="reach-n" width="140" height="198" x="0" y="0" rx="8"/>
    <filter id="reach-m" width="115.7%" height="111.1%" x="-7.9%" y="-4.5%" filterUnits="objectBoundingBox">
      <feMorphology in="SourceAlpha" operator="dilate" radius="1" result="shadowSpreadOuter1"/>
      <feOffset dy="2" in="shadowSpreadOuter1" result="shadowOffsetOuter1"/>
      <feGaussianBlur in="shadowOffsetOuter1" result="shadowBlurOuter1" stdDeviation="3"/>
      <feComposite in="shadowBlurOuter1" in2="SourceAlpha" operator="out" result="shadowBlurOuter1"/>
      <feColorMatrix in="shadowBlurOuter1" values="0 0 0 0 0.207843137   0 0 0 0 0.258823529   0 0 0 0 0.329411765  0 0 0 0.101137908 0"/>
    </filter>
    <rect id="reach-o" width="124" height="71" x="8" y="46" rx="4"/>
    <filter id="reach-p" width="101.6%" height="102.8%" x="-.8%" y="-1.4%" filterUnits="objectBoundingBox">
      <feOffset dy="2" in="SourceAlpha" result="shadowOffsetInner1"/>
      <feComposite in="shadowOffsetInner1" in2="SourceAlpha" k2="-1" k3="1" operator="arithmetic" result="shadowInnerInner1"/>
      <feColorMatrix in="shadowInnerInner1" values="0 0 0 0 0.219607843   0 0 0 0 0.258823529   0 0 0 0 0.329411765  0 0 0 0.05859375 0"/>
    </filter>
    <path id="reach-r" d="M8,0 L132,0 C136.418278,-8.11624501e-16 140,3.581722 140,8 L140,16 L140,16 L0,16 L0,8 C-5.41083001e-16,3.581722 3.581722,8.11624501e-16 8,0 Z"/>
    <filter id="reach-q" width="115.7%" height="237.5%" x="-7.9%" y="-56.2%" filterUnits="objectBoundingBox">
      <feMorphology in="SourceAlpha" operator="dilate" radius="1" result="shadowSpreadOuter1"/>
      <feOffset dy="2" in="shadowSpreadOuter1" result="shadowOffsetOuter1"/>
      <feGaussianBlur in="shadowOffsetOuter1" result="shadowBlurOuter1" stdDeviation="3"/>
      <feComposite in="shadowBlurOuter1" in2="SourceAlpha" operator="out" result="shadowBlurOuter1"/>
      <feColorMatrix in="shadowBlurOuter1" values="0 0 0 0 0.207843137   0 0 0 0 0.258823529   0 0 0 0 0.329411765  0 0 0 0.101137908 0"/>
    </filter>
    <rect id="reach-t" width="140" height="198" x="0" y="0" rx="8"/>
    <filter id="reach-s" width="115.7%" height="111.1%" x="-7.9%" y="-4.5%" filterUnits="objectBoundingBox">
      <feMorphology in="SourceAlpha" operator="dilate" radius="1" result="shadowSpreadOuter1"/>
      <feOffset dy="2" in="shadowSpreadOuter1" result="shadowOffsetOuter1"/>
      <feGaussianBlur in="shadowOffsetOuter1" result="shadowBlurOuter1" stdDeviation="3"/>
      <feComposite in="shadowBlurOuter1" in2="SourceAlpha" operator="out" result="shadowBlurOuter1"/>
      <feColorMatrix in="shadowBlurOuter1" values="0 0 0 0 0.207843137   0 0 0 0 0.258823529   0 0 0 0 0.329411765  0 0 0 0.101137908 0"/>
    </filter>
    <rect id="reach-u" width="124" height="71" x="8" y="46" rx="4"/>
    <filter id="reach-v" width="101.6%" height="102.8%" x="-.8%" y="-1.4%" filterUnits="objectBoundingBox">
      <feOffset dy="2" in="SourceAlpha" result="shadowOffsetInner1"/>
      <feComposite in="shadowOffsetInner1" in2="SourceAlpha" k2="-1" k3="1" operator="arithmetic" result="shadowInnerInner1"/>
      <feColorMatrix in="shadowInnerInner1" values="0 0 0 0 0.219607843   0 0 0 0 0.258823529   0 0 0 0 0.329411765  0 0 0 0.05859375 0"/>
    </filter>
    <path id="reach-x" d="M8,0 L132,0 C136.418278,-8.11624501e-16 140,3.581722 140,8 L140,16 L140,16 L0,16 L0,8 C-5.41083001e-16,3.581722 3.581722,8.11624501e-16 8,0 Z"/>
    <filter id="reach-w" width="115.7%" height="237.5%" x="-7.9%" y="-56.2%" filterUnits="objectBoundingBox">
      <feMorphology in="SourceAlpha" operator="dilate" radius="1" result="shadowSpreadOuter1"/>
      <feOffset dy="2" in="shadowSpreadOuter1" result="shadowOffsetOuter1"/>
      <feGaussianBlur in="shadowOffsetOuter1" result="shadowBlurOuter1" stdDeviation="3"/>
      <feComposite in="shadowBlurOuter1" in2="SourceAlpha" operator="out" result="shadowBlurOuter1"/>
      <feColorMatrix in="shadowBlurOuter1" values="0 0 0 0 0.207843137   0 0 0 0 0.258823529   0 0 0 0 0.329411765  0 0 0 0.101137908 0"/>
    </filter>
    <rect id="reach-z" width="140" height="198" x="0" y="0" rx="8"/>
    <filter id="reach-y" width="115.7%" height="111.1%" x="-7.9%" y="-4.5%" filterUnits="objectBoundingBox">
      <feMorphology in="SourceAlpha" operator="dilate" radius="1" result="shadowSpreadOuter1"/>
      <feOffset dy="2" in="shadowSpreadOuter1" result="shadowOffsetOuter1"/>
      <feGaussianBlur in="shadowOffsetOuter1" result="shadowBlurOuter1" stdDeviation="3"/>
      <feComposite in="shadowBlurOuter1" in2="SourceAlpha" operator="out" result="shadowBlurOuter1"/>
      <feColorMatrix in="shadowBlurOuter1" values="0 0 0 0 0.207843137   0 0 0 0 0.258823529   0 0 0 0 0.329411765  0 0 0 0.101137908 0"/>
    </filter>
    <rect id="reach-A" width="124" height="71" x="8" y="46" rx="4"/>
    <filter id="reach-B" width="101.6%" height="102.8%" x="-.8%" y="-1.4%" filterUnits="objectBoundingBox">
      <feOffset dy="2" in="SourceAlpha" result="shadowOffsetInner1"/>
      <feComposite in="shadowOffsetInner1" in2="SourceAlpha" k2="-1" k3="1" operator="arithmetic" result="shadowInnerInner1"/>
      <feColorMatrix in="shadowInnerInner1" values="0 0 0 0 0.219607843   0 0 0 0 0.258823529   0 0 0 0 0.329411765  0 0 0 0.05859375 0"/>
    </filter>
    <path id="reach-D" d="M8,0 L132,0 C136.418278,-8.11624501e-16 140,3.581722 140,8 L140,16 L140,16 L0,16 L0,8 C-5.41083001e-16,3.581722 3.581722,8.11624501e-16 8,0 Z"/>
    <filter id="reach-C" width="115.7%" height="237.5%" x="-7.9%" y="-56.2%" filterUnits="objectBoundingBox">
      <feMorphology in="SourceAlpha" operator="dilate" radius="1" result="shadowSpreadOuter1"/>
      <feOffset dy="2" in="shadowSpreadOuter1" result="shadowOffsetOuter1"/>
      <feGaussianBlur in="shadowOffsetOuter1" result="shadowBlurOuter1" stdDeviation="3"/>
      <feComposite in="shadowBlurOuter1" in2="SourceAlpha" operator="out" result="shadowBlurOuter1"/>
      <feColorMatrix in="shadowBlurOuter1" values="0 0 0 0 0.207843137   0 0 0 0 0.258823529   0 0 0 0 0.329411765  0 0 0 0.101137908 0"/>
    </filter>
    <rect id="reach-F" width="140" height="70" x="0" y="0" rx="8"/>
    <filter id="reach-E" width="115.7%" height="131.4%" x="-7.9%" y="-12.9%" filterUnits="objectBoundingBox">
      <feMorphology in="SourceAlpha" operator="dilate" radius="1" result="shadowSpreadOuter1"/>
      <feOffset dy="2" in="shadowSpreadOuter1" result="shadowOffsetOuter1"/>
      <feGaussianBlur in="shadowOffsetOuter1" result="shadowBlurOuter1" stdDeviation="3"/>
      <feComposite in="shadowBlurOuter1" in2="SourceAlpha" operator="out" result="shadowBlurOuter1"/>
      <feColorMatrix in="shadowBlurOuter1" values="0 0 0 0 0.207843137   0 0 0 0 0.258823529   0 0 0 0 0.329411765  0 0 0 0.101137908 0"/>
    </filter>
  </defs>
  <g fill="none" fill-rule="evenodd" transform="translate(11 9)">
    <use fill="#000" filter="url(#reach-a)" xlink:href="#reach-b"/>
    <rect width="313" height="197" x="-.5" y="-.5" fill="#FFF" stroke="#E1E1E1" rx="8"/>
    <path fill="#384254" fill-rule="nonzero" d="M22.632,103 L22.632,99.5 L25.11,99.5 C27.056,99.5 28.148,98.17 28.148,96.588 C28.148,94.992 27.07,93.662 25.11,93.662 L20.994,93.662 L20.994,103 L22.632,103 Z M24.886,98.058 L22.632,98.058 L22.632,95.104 L24.886,95.104 C25.81,95.104 26.468,95.692 26.468,96.588 C26.468,97.47 25.81,98.058 24.886,98.058 Z M30.948,103 L30.948,93.662 L29.478,93.662 L29.478,103 L30.948,103 Z M38.466,103 L38.466,98.506 C38.466,96.7 37.15,96.07 35.638,96.07 C34.56,96.07 33.58,96.406 32.796,97.162 L33.412,98.184 C33.986,97.596 34.658,97.316 35.414,97.316 C36.338,97.316 36.996,97.792 36.996,98.576 L36.996,99.584 C36.492,99.01 35.722,98.716 34.798,98.716 C33.692,98.716 32.46,99.36 32.46,100.928 C32.46,102.412 33.706,103.168 34.798,103.168 C35.694,103.168 36.492,102.846 36.996,102.258 L36.996,103 L38.466,103 Z M35.386,102.16 C34.56,102.16 33.93,101.684 33.93,100.942 C33.93,100.214 34.56,99.724 35.386,99.724 C36.016,99.724 36.646,99.962 36.996,100.424 L36.996,101.46 C36.646,101.922 36.016,102.16 35.386,102.16 Z M42.414,103.168 C43.086,103.168 43.52,102.972 43.786,102.734 L43.436,101.614 C43.324,101.74 43.072,101.866 42.792,101.866 C42.372,101.866 42.148,101.516 42.148,101.054 L42.148,97.512 L43.52,97.512 L43.52,96.238 L42.148,96.238 L42.148,94.39 L40.678,94.39 L40.678,96.238 L39.558,96.238 L39.558,97.512 L40.678,97.512 L40.678,101.418 C40.678,102.552 41.266,103.168 42.414,103.168 Z M46.67,103 L46.67,97.512 L48.042,97.512 L48.042,96.238 L46.67,96.238 L46.67,95.86 C46.67,95.104 47.02,94.726 47.608,94.726 C47.93,94.726 48.182,94.838 48.378,95.02 L48.952,94.11 C48.546,93.676 47.944,93.522 47.328,93.522 C46.054,93.522 45.2,94.39 45.2,95.86 L45.2,96.238 L44.08,96.238 L44.08,97.512 L45.2,97.512 L45.2,103 L46.67,103 Z M52.228,103.168 C54.384,103.168 55.7,101.544 55.7,99.612 C55.7,97.666 54.384,96.07 52.228,96.07 C50.072,96.07 48.756,97.666 48.756,99.612 C48.756,101.544 50.072,103.168 52.228,103.168 Z M52.228,101.866 C50.982,101.866 50.282,100.816 50.282,99.612 C50.282,98.422 50.982,97.372 52.228,97.372 C53.488,97.372 54.174,98.422 54.174,99.612 C54.174,100.816 53.488,101.866 52.228,101.866 Z M58.668,103 L58.668,98.394 C58.962,97.904 59.788,97.484 60.418,97.484 C60.6,97.484 60.74,97.498 60.866,97.526 L60.866,96.07 C59.998,96.07 59.186,96.574 58.668,97.218 L58.668,96.238 L57.198,96.238 L57.198,103 L58.668,103 Z M71.828,103 L70.358,103 L70.358,98.59 C70.358,97.862 70.036,97.372 69.238,97.372 C68.58,97.372 67.964,97.82 67.67,98.268 L67.67,103 L66.2,103 L66.2,98.59 C66.2,97.862 65.892,97.372 65.094,97.372 C64.436,97.372 63.834,97.834 63.526,98.268 L63.526,103 L62.056,103 L62.056,96.238 L63.526,96.238 L63.526,97.148 C63.82,96.742 64.702,96.07 65.738,96.07 C66.746,96.07 67.362,96.574 67.586,97.302 C67.964,96.7 68.86,96.07 69.882,96.07 C71.114,96.07 71.828,96.742 71.828,98.114 L71.828,103 Z"/>
    <g transform="translate(20 116)">
      <use fill="#000" filter="url(#reach-c)" xlink:href="#reach-d"/>
      <rect width="78" height="58" x="1" y="1" fill="#FFF" stroke="#01B2D0" stroke-linejoin="square" stroke-width="2" rx="4"/>
      <g fill="#9AA0A9" fill-rule="nonzero" transform="translate(21 16)">
        <path d="M16.5553044,14.38089 C16.3096184,14.9312227 16.0188064,15.437801 15.6818655,15.9035419 C15.2225831,16.5384663 14.846533,16.9779546 14.5567238,17.2220067 C14.1074693,17.6226022 13.6261253,17.8277615 13.110686,17.8394294 C12.7406527,17.8394294 12.2944067,17.7373358 11.7749562,17.5302319 C11.253801,17.3241002 10.7748637,17.2220067 10.3369408,17.2220067 C9.87765838,17.2220067 9.38508296,17.3241002 8.85821178,17.5302319 C8.33053835,17.7373358 7.90545138,17.8452633 7.58044385,17.8559588 C7.08616367,17.8763775 6.59348797,17.6653842 6.10171479,17.2220067 C5.78783835,16.9565635 5.3952421,16.5015182 4.92492884,15.8568706 C4.42031982,15.1684686 4.0054614,14.3701945 3.68045388,13.4601038 C3.33238196,12.4770891 3.15789474,11.5251886 3.15789474,10.6036245 C3.15789474,9.54797755 3.39315165,8.63749787 3.86436743,7.87451901 C4.23470151,7.26166623 4.72737721,6.77822914 5.34399901,6.42333264 C5.96062081,6.06843614 6.62688121,5.88758477 7.3443847,5.87601417 C7.73698095,5.87601417 8.25181854,5.99376202 8.89160502,6.22517399 C9.52958646,6.45736381 9.93923031,6.57511166 10.1188318,6.57511166 C10.2531068,6.57511166 10.7081774,6.43743126 11.4796316,6.16294556 C12.2091687,5.9083924 12.824888,5.802993 13.3292964,5.84451103 C14.696113,5.95146614 15.7229803,6.47389323 16.4058872,7.4150982 C15.1834739,8.13325315 14.5787854,9.13911734 14.590819,10.4294821 C14.6018498,11.4345685 14.9778998,12.2709574 15.7169635,12.9350514 C16.0518988,13.2432766 16.4259432,13.4814948 16.8421053,13.6506783 C16.7518533,13.9044536 16.6565872,14.1475334 16.5553044,14.38089 L16.5553044,14.38089 Z M13.4205512,2.4203918 C13.4205512,3.20817453 13.1237224,3.94372426 12.5320703,4.62454215 C11.8180766,5.43390064 10.9544652,5.90158616 10.0179501,5.82778714 C10.0060168,5.73327771 9.99909748,5.63380946 9.99909748,5.52928515 C9.99909748,4.77301529 10.3386456,3.96365681 10.9416293,3.30189637 C11.2426699,2.96683518 11.625539,2.68823657 12.0898355,2.46599357 C12.5531291,2.24706619 12.9913528,2.125993 13.4035036,2.10526316 C13.4155372,2.21057505 13.4205512,2.31589666 13.4205512,2.42038208 L13.4205512,2.4203918 Z"/>
        <path d="M14.354067,12.6950469 L5.64593301,12.6950469 L5.64593301,6.33938822 C5.64593301,5.80234144 6.08129545,5.366979 6.61834223,5.366979 L7.22488038,5.366979 L7.22488038,3.20350011 C7.22488038,2.6176309 7.69982122,2.14269006 8.28569044,2.14269006 L8.46072105,2.14269006 C9.04659026,2.14269006 9.5215311,2.6176309 9.5215311,3.20350011 L9.5215311,5.366979 L10.4784689,5.366979 L10.4784689,3.20350011 C10.4784689,2.6176309 10.9534097,2.14269006 11.539279,2.14269006 L11.7143096,2.14269006 C12.3001788,2.14269006 12.7751196,2.6176309 12.7751196,3.20350011 L12.7751196,5.366979 L13.3816578,5.366979 C13.9187045,5.366979 14.354067,5.80234144 14.354067,6.33938822 L14.354067,12.6950469 L14.354067,12.6950469 Z M5.64899326,13.0388641 L14.3510067,13.0388641 C14.2952742,14.3892758 13.4828199,15.5652913 12.2847426,16.2323623 L12.9622067,17.4545398 C13.0391328,17.5933183 12.9889916,17.7681814 12.8502132,17.8451076 L12.8087526,17.8680896 C12.6699741,17.9450157 12.495111,17.8948745 12.4181848,17.7560961 L11.7203862,16.4972339 C11.1926632,16.7020727 10.6110303,16.8155412 10,16.8155412 C9.38896968,16.8155412 8.80733679,16.7020727 8.27961382,16.4972339 L7.58181515,17.7560961 C7.504889,17.8948745 7.33002586,17.9450157 7.1912474,17.8680896 L7.14978682,17.8451076 C7.01100837,17.7681814 6.96086717,17.5933183 7.03779332,17.4545398 L7.71525741,16.2323623 C6.51718015,15.5652913 5.70472583,14.3892758 5.64899326,13.0388641 L5.64899326,13.0388641 Z M4.21870479,12.8903199 C3.63283558,12.8903199 3.15789474,12.415379 3.15789474,11.8295098 L3.15789474,7.73619617 C3.15789474,7.15032695 3.63283558,6.67538611 4.21870479,6.67538611 L4.3937354,6.67538611 C4.97960462,6.67538611 5.45454545,7.15032695 5.45454545,7.73619617 L5.45454545,11.8295098 C5.45454545,12.415379 4.97960462,12.8903199 4.3937354,12.8903199 L4.21870479,12.8903199 Z M15.7812952,12.8903199 L15.6062646,12.8903199 C15.0203954,12.8903199 14.5454545,12.415379 14.5454545,11.8295098 L14.5454545,7.73619617 C14.5454545,7.15032695 15.0203954,6.67538611 15.6062646,6.67538611 L15.7812952,6.67538611 C16.3671644,6.67538611 16.8421053,7.15032695 16.8421053,7.73619617 L16.8421053,11.8295098 C16.8421053,12.415379 16.3671644,12.8903199 15.7812952,12.8903199 Z M12.0095694,14.5725576 C11.8774438,14.5725576 11.7703349,14.6771636 11.7703349,14.8062017 C11.7703349,14.9352398 11.8774438,15.0398458 12.0095694,15.0398458 C12.1416949,15.0398458 12.2488038,14.9352398 12.2488038,14.8062017 C12.2488038,14.6771636 12.1416949,14.5725576 12.0095694,14.5725576 Z M7.99043062,14.5725576 C7.85830508,14.5725576 7.75119617,14.6771636 7.75119617,14.8062017 C7.75119617,14.9352398 7.85830508,15.0398458 7.99043062,15.0398458 C8.12255616,15.0398458 8.22966507,14.9352398 8.22966507,14.8062017 C8.22966507,14.6771636 8.12255616,14.5725576 7.99043062,14.5725576 Z" transform="matrix(1 0 0 -1 18 28)"/>
      </g>
    </g>
    <g transform="translate(116 116)">
      <use fill="#000" filter="url(#reach-e)" xlink:href="#reach-f"/>
      <rect width="79" height="59" x=".5" y=".5" fill="#FFF" stroke="#E1E1E1" stroke-linejoin="square" rx="4"/>
      <path fill="#9AA0A9" fill-rule="nonzero" d="M23.1774262,20.1332461 C22.8334658,20.9037118 22.4263289,21.6129214 21.9546117,22.2649586 C21.3116163,23.1538528 20.7851462,23.7691364 20.3794133,24.1108094 C19.750457,24.6716431 19.0765754,24.9588661 18.3549604,24.9752011 C17.8369138,24.9752011 17.2121694,24.8322702 16.4849387,24.5423246 C15.7553214,24.2537403 15.0848091,24.1108094 14.4717172,24.1108094 C13.8287217,24.1108094 13.1391161,24.2537403 12.4014965,24.5423246 C11.6627537,24.8322702 11.0676319,24.9833686 10.6126214,24.9983423 C9.92062914,25.0269285 9.23088316,24.7315379 8.5424007,24.1108094 C8.10297369,23.739189 7.55333894,23.1021254 6.89490038,22.1996188 C6.18844774,21.235856 5.60764597,20.1182723 5.15263544,18.8441453 C4.66533474,17.4679247 4.42105263,16.135264 4.42105263,14.8450743 C4.42105263,13.3671686 4.75041231,12.092497 5.4101144,11.0243266 C5.92858212,10.1663327 6.6183281,9.48952079 7.48159862,8.99266569 C8.34486913,8.49581059 9.2776337,8.24261868 10.2821386,8.22641984 C10.8317733,8.22641984 11.552546,8.39126683 12.448247,8.71524358 C13.341421,9.04030933 13.9149224,9.20515632 14.1663645,9.20515632 C14.3543495,9.20515632 14.9914484,9.01240377 16.0714842,8.62812378 C17.0928362,8.27174936 17.9548431,8.1241902 18.661015,8.18231544 C20.5745582,8.33205259 22.0121725,9.06345053 22.9682421,10.3811375 C21.2568634,11.3865544 20.4102995,12.7947643 20.4271466,14.601275 C20.4425897,16.0083958 20.9690598,17.1793404 22.0037489,18.109072 C22.4726583,18.5405872 22.9963205,18.8740927 23.5789474,19.1109497 C23.4525946,19.4662351 23.3192221,19.8065468 23.1774262,20.1332461 L23.1774262,20.1332461 Z M18.7887717,3.38854853 C18.7887717,4.49144434 18.3732114,5.52121397 17.5448984,6.47435901 C16.5453073,7.60746089 15.3362512,8.26222063 14.0251302,8.15890199 C14.0084235,8.0265888 13.9987365,7.88733325 13.9987365,7.74099921 C13.9987365,6.68222141 14.4741038,5.54911953 15.318281,4.62265492 C15.7397379,4.15356926 16.2757546,3.7635312 16.9257696,3.452391 C17.5743808,3.14589266 18.1878939,2.9763902 18.7649051,2.94736842 C18.7817521,3.09480507 18.7887717,3.24225533 18.7887717,3.38853491 L18.7887717,3.38854853 Z" transform="translate(26 16)"/>
    </g>
    <g transform="translate(212 116)">
      <use fill="#000" filter="url(#reach-g)" xlink:href="#reach-h"/>
      <rect width="79" height="59" x=".5" y=".5" fill="#FFF" stroke="#E1E1E1" stroke-linejoin="square" rx="4"/>
      <path fill="#9AA0A9" fill-rule="nonzero" d="M20.0956938,17.7730656 L7.90430622,17.7730656 L7.90430622,8.87514351 C7.90430622,8.12327801 8.51381363,7.5137706 9.26567912,7.5137706 L10.1148325,7.5137706 L10.1148325,4.48490016 C10.1148325,3.66468326 10.7797497,2.99976608 11.5999666,2.99976608 L11.8450095,2.99976608 C12.6652264,2.99976608 13.3301435,3.66468326 13.3301435,4.48490016 L13.3301435,7.5137706 L14.6698565,7.5137706 L14.6698565,4.48490016 C14.6698565,3.66468326 15.3347736,2.99976608 16.1549905,2.99976608 L16.4000334,2.99976608 C17.2202503,2.99976608 17.8851675,3.66468326 17.8851675,4.48490016 L17.8851675,7.5137706 L18.7343209,7.5137706 C19.4861864,7.5137706 20.0956938,8.12327801 20.0956938,8.87514351 L20.0956938,17.7730656 L20.0956938,17.7730656 Z M7.90859056,18.2544097 L20.0914094,18.2544097 C20.0133838,20.1449862 18.8759478,21.7914078 17.1986396,22.7253072 L18.1470893,24.4363558 C18.254786,24.6306456 18.1845883,24.875454 17.9902984,24.9831506 L17.9322536,25.0153254 C17.7379638,25.123022 17.4931554,25.0528243 17.3854588,24.8585345 L16.4085407,23.0961275 C15.6697285,23.3829018 14.8554425,23.5417577 14,23.5417577 C13.1445575,23.5417577 12.3302715,23.3829018 11.5914593,23.0961275 L10.6145412,24.8585345 C10.5068446,25.0528243 10.2620362,25.123022 10.0677464,25.0153254 L10.0097016,24.9831506 C9.81541171,24.875454 9.74521404,24.6306456 9.85291065,24.4363558 L10.8013604,22.7253072 C9.12405221,21.7914078 7.98661617,20.1449862 7.90859056,18.2544097 L7.90859056,18.2544097 Z M5.90618671,18.0464478 C5.08596981,18.0464478 4.42105263,17.3815306 4.42105263,16.5613137 L4.42105263,10.8306746 C4.42105263,10.0104577 5.08596981,9.34554056 5.90618671,9.34554056 L6.15122956,9.34554056 C6.97144646,9.34554056 7.63636364,10.0104577 7.63636364,10.8306746 L7.63636364,16.5613137 C7.63636364,17.3815306 6.97144646,18.0464478 6.15122956,18.0464478 L5.90618671,18.0464478 Z M22.0938133,18.0464478 L21.8487704,18.0464478 C21.0285535,18.0464478 20.3636364,17.3815306 20.3636364,16.5613137 L20.3636364,10.8306746 C20.3636364,10.0104577 21.0285535,9.34554056 21.8487704,9.34554056 L22.0938133,9.34554056 C22.9140302,9.34554056 23.5789474,10.0104577 23.5789474,10.8306746 L23.5789474,16.5613137 C23.5789474,17.3815306 22.9140302,18.0464478 22.0938133,18.0464478 Z M16.8133971,20.4015806 C16.6284214,20.4015806 16.4784689,20.5480291 16.4784689,20.7286824 C16.4784689,20.9093357 16.6284214,21.0557842 16.8133971,21.0557842 C16.9983729,21.0557842 17.1483254,20.9093357 17.1483254,20.7286824 C17.1483254,20.5480291 16.9983729,20.4015806 16.8133971,20.4015806 Z M11.1866029,20.4015806 C11.0016271,20.4015806 10.8516746,20.5480291 10.8516746,20.7286824 C10.8516746,20.9093357 11.0016271,21.0557842 11.1866029,21.0557842 C11.3715786,21.0557842 11.5215311,20.9093357 11.5215311,20.7286824 C11.5215311,20.5480291 11.3715786,20.4015806 11.1866029,20.4015806 Z" transform="matrix(1 0 0 -1 26 44)"/>
    </g>
    <path fill="#384254" fill-rule="nonzero" d="M22.632,33 L22.632,29.5 L25.11,29.5 C27.056,29.5 28.148,28.17 28.148,26.588 C28.148,24.992 27.07,23.662 25.11,23.662 L20.994,23.662 L20.994,33 L22.632,33 Z M24.886,28.058 L22.632,28.058 L22.632,25.104 L24.886,25.104 C25.81,25.104 26.468,25.692 26.468,26.588 C26.468,27.47 25.81,28.058 24.886,28.058 Z M30.948,33 L30.948,28.394 C31.242,27.904 32.068,27.484 32.698,27.484 C32.88,27.484 33.02,27.498 33.146,27.526 L33.146,26.07 C32.278,26.07 31.466,26.574 30.948,27.218 L30.948,26.238 L29.478,26.238 L29.478,33 L30.948,33 Z M37.402,33.168 C39.558,33.168 40.874,31.544 40.874,29.612 C40.874,27.666 39.558,26.07 37.402,26.07 C35.246,26.07 33.93,27.666 33.93,29.612 C33.93,31.544 35.246,33.168 37.402,33.168 Z M37.402,31.866 C36.156,31.866 35.456,30.816 35.456,29.612 C35.456,28.422 36.156,27.372 37.402,27.372 C38.662,27.372 39.348,28.422 39.348,29.612 C39.348,30.816 38.662,31.866 37.402,31.866 Z M45.732,33 L48.49,26.238 L46.922,26.238 L44.948,31.306 L42.974,26.238 L41.392,26.238 L44.15,33 L45.732,33 Z M50.156,25.412 C50.66,25.412 51.066,25.006 51.066,24.502 C51.066,23.998 50.66,23.592 50.156,23.592 C49.652,23.592 49.246,23.998 49.246,24.502 C49.246,25.006 49.652,25.412 50.156,25.412 Z M50.884,33 L50.884,26.238 L49.414,26.238 L49.414,33 L50.884,33 Z M59.018,33 L59.018,23.662 L57.548,23.662 L57.548,27.176 C57.016,26.448 56.232,26.07 55.378,26.07 C53.642,26.07 52.382,27.428 52.382,29.612 C52.382,31.852 53.656,33.168 55.378,33.168 C56.26,33.168 57.03,32.748 57.548,32.076 L57.548,33 L59.018,33 Z M55.812,31.866 C54.636,31.866 53.894,30.928 53.894,29.612 C53.894,28.31 54.636,27.372 55.812,27.372 C56.498,27.372 57.226,27.778 57.548,28.282 L57.548,30.956 C57.226,31.46 56.498,31.866 55.812,31.866 Z M64.058,33.168 C65.122,33.168 66.116,32.818 66.802,32.174 L66.13,31.208 C65.64,31.698 64.87,31.964 64.198,31.964 C62.924,31.964 62.168,31.11 62.056,30.102 L67.264,30.102 L67.264,29.738 C67.264,27.61 65.976,26.07 63.946,26.07 C61.944,26.07 60.516,27.652 60.516,29.612 C60.516,31.754 62.014,33.168 64.058,33.168 Z M65.85,29.052 L62.042,29.052 C62.098,28.24 62.686,27.274 63.932,27.274 C65.262,27.274 65.808,28.254 65.85,29.052 Z M70.19,33 L68.72,33 L68.72,26.238 L70.19,26.238 L70.19,27.218 C70.708,26.574 71.52,26.07 72.388,26.07 L72.388,27.526 C72.262,27.498 72.122,27.484 71.94,27.484 C71.31,27.484 70.484,27.904 70.19,28.394 L70.19,33 Z"/>
    <g transform="translate(20 44)">
      <use fill="#000" filter="url(#reach-i)" xlink:href="#reach-j"/>
      <rect width="271" height="29" x=".5" y=".5" fill="#FFF" stroke="#E1E1E1" stroke-linejoin="square" rx="4"/>
      <g fill="#9D9D9D" transform="translate(260 10)">
        <path d="M3.4,0.533333333 L5.4,3.2 C5.56568542,3.4209139 5.5209139,3.73431458 5.3,3.9 C5.21345191,3.96491106 5.10818511,4 5,4 L1,4 C0.723857625,4 0.5,3.77614237 0.5,3.5 C0.5,3.39181489 0.535088936,3.28654809 0.6,3.2 L2.6,0.533333333 C2.76568542,0.312419433 3.0790861,0.267647908 3.3,0.433333333 C3.33790283,0.461760458 3.37157288,0.4954305 3.4,0.533333333 Z"/>
        <path d="M3.4,6.53333333 L5.4,9.2 C5.56568542,9.4209139 5.5209139,9.73431458 5.3,9.9 C5.21345191,9.96491106 5.10818511,10 5,10 L1,10 C0.723857625,10 0.5,9.77614237 0.5,9.5 C0.5,9.39181489 0.535088936,9.28654809 0.6,9.2 L2.6,6.53333333 C2.76568542,6.31241943 3.0790861,6.26764791 3.3,6.43333333 C3.33790283,6.46176046 3.37157288,6.4954305 3.4,6.53333333 Z" transform="matrix(1 0 0 -1 0 16)"/>
      </g>
      <path fill="#354254" fill-rule="nonzero" d="M11.528,18.004 L11.528,10.888 L14.072,10.888 L14.072,10 L8,10 L8,10.888 L10.532,10.888 L10.532,18.004 L11.528,18.004 Z M15.236,18.004 L15.236,13.9 C15.5,13.432 16.256,12.976 16.82,12.976 C16.952,12.976 17.06,12.988 17.168,13 L17.168,12.076 C16.376,12.076 15.704,12.532 15.236,13.132 L15.236,12.208 L14.336,12.208 L14.336,18.004 L15.236,18.004 Z M23.108,18.004 L23.108,12.208 L22.208,12.208 L22.208,16.468 C21.872,16.936 21.2,17.344 20.504,17.344 C19.712,17.344 19.196,17.044 19.196,16.024 L19.196,12.208 L18.296,12.208 L18.296,16.3 C18.296,17.548 18.932,18.148 20.144,18.148 C21.008,18.148 21.764,17.692 22.208,17.188 L22.208,18.004 L23.108,18.004 Z M27.536,18.148 C28.472,18.148 29.252,17.824 29.84,17.248 L29.408,16.66 C28.94,17.14 28.28,17.404 27.608,17.404 C26.36,17.404 25.604,16.492 25.532,15.4 L30.212,15.4 L30.212,15.172 C30.212,13.432 29.18,12.064 27.428,12.064 C25.772,12.064 24.572,13.42 24.572,15.1 C24.572,16.912 25.808,18.148 27.536,18.148 Z M29.324,14.728 L25.52,14.728 C25.568,13.852 26.18,12.808 27.416,12.808 C28.736,12.808 29.312,13.876 29.324,14.728 Z M35.804,18.004 L35.804,14.824 L38.024,14.824 C39.62,14.824 40.532,13.72 40.532,12.412 C40.532,11.104 39.632,10 38.024,10 L34.808,10 L34.808,18.004 L35.804,18.004 Z M37.904,13.936 L35.804,13.936 L35.804,10.888 L37.904,10.888 C38.852,10.888 39.5,11.512 39.5,12.412 C39.5,13.312 38.852,13.936 37.904,13.936 Z M46.1,18.004 L46.1,14.02 C46.1,12.616 45.092,12.064 43.856,12.064 C42.908,12.064 42.164,12.376 41.54,13.024 L41.96,13.648 C42.476,13.084 43.04,12.844 43.736,12.844 C44.576,12.844 45.2,13.288 45.2,14.056 L45.2,15.1 C44.732,14.572 44.072,14.32 43.28,14.32 C42.296,14.32 41.264,14.92 41.264,16.228 C41.264,17.488 42.308,18.148 43.28,18.148 C44.06,18.148 44.732,17.872 45.2,17.344 L45.2,18.004 L46.1,18.004 Z M43.616,17.5 C42.764,17.5 42.176,16.972 42.176,16.228 C42.176,15.496 42.764,14.968 43.616,14.968 C44.24,14.968 44.852,15.208 45.2,15.676 L45.2,16.78 C44.852,17.26 44.24,17.5 43.616,17.5 Z M47.6,20.272 C47.756,20.32 48.056,20.356 48.248,20.356 C49.016,20.344 49.604,20.02 49.952,19.18 L52.856,12.208 L51.884,12.208 L49.952,16.96 L48.032,12.208 L47.048,12.208 L49.472,18.064 L49.088,18.94 C48.884,19.42 48.62,19.552 48.224,19.552 C48.08,19.552 47.864,19.516 47.732,19.456 L47.6,20.272 Z M63.788,18.004 L60.572,10 L59.336,10 L56.108,18.004 L57.248,18.004 L57.956,16.216 L61.94,16.216 L62.648,18.004 L63.788,18.004 Z M61.652,15.34 L58.256,15.34 L59.948,11.02 L61.652,15.34 Z M67.652,18.148 C69.176,18.148 70.232,16.972 70.232,15.1 C70.232,13.216 69.176,12.064 67.652,12.064 C66.836,12.064 66.116,12.484 65.696,13.072 L65.696,12.208 L64.796,12.208 L64.796,20.212 L65.696,20.212 L65.696,17.128 C66.176,17.764 66.86,18.148 67.652,18.148 Z M67.424,17.344 C66.716,17.344 66.008,16.912 65.696,16.408 L65.696,13.792 C66.008,13.288 66.716,12.868 67.424,12.868 C68.588,12.868 69.284,13.816 69.284,15.1 C69.284,16.384 68.588,17.344 67.424,17.344 Z M74.516,18.148 C76.04,18.148 77.096,16.972 77.096,15.1 C77.096,13.216 76.04,12.064 74.516,12.064 C73.7,12.064 72.98,12.484 72.56,13.072 L72.56,12.208 L71.66,12.208 L71.66,20.212 L72.56,20.212 L72.56,17.128 C73.04,17.764 73.724,18.148 74.516,18.148 Z M74.288,17.344 C73.58,17.344 72.872,16.912 72.56,16.408 L72.56,13.792 C72.872,13.288 73.58,12.868 74.288,12.868 C75.452,12.868 76.148,13.816 76.148,15.1 C76.148,16.384 75.452,17.344 74.288,17.344 Z"/>
    </g>
    <g transform="translate(302 63)">
      <use fill="#000" filter="url(#reach-k)" xlink:href="#reach-l"/>
      <rect width="141" height="71" x="-.5" y="-.5" fill="#FFF" stroke="#E1E1E1" rx="8"/>
      <path fill="#354254" fill-rule="nonzero" d="M36.632,26 L36.632,22.5 L39.11,22.5 C41.056,22.5 42.148,21.17 42.148,19.588 C42.148,17.992 41.07,16.662 39.11,16.662 L34.994,16.662 L34.994,26 L36.632,26 Z M38.886,21.058 L36.632,21.058 L36.632,18.104 L38.886,18.104 C39.81,18.104 40.468,18.692 40.468,19.588 C40.468,20.47 39.81,21.058 38.886,21.058 Z M49.512,26 L49.512,19.238 L48.042,19.238 L48.042,23.984 C47.706,24.432 47.062,24.866 46.32,24.866 C45.48,24.866 44.948,24.53 44.948,23.48 L44.948,19.238 L43.478,19.238 L43.478,24.026 C43.478,25.398 44.206,26.168 45.662,26.168 C46.726,26.168 47.566,25.636 48.042,25.104 L48.042,26 L49.512,26 Z M53.74,26.168 C55.56,26.168 56.554,25.258 56.554,24.054 C56.554,21.366 52.466,22.262 52.466,21.072 C52.466,20.596 52.942,20.232 53.712,20.232 C54.566,20.232 55.308,20.596 55.714,21.044 L56.33,20.008 C55.728,19.476 54.86,19.07 53.712,19.07 C52.004,19.07 51.052,20.008 51.052,21.114 C51.052,23.718 55.14,22.766 55.14,24.096 C55.14,24.628 54.678,24.992 53.796,24.992 C52.928,24.992 51.99,24.544 51.514,24.054 L50.842,25.104 C51.542,25.79 52.578,26.168 53.74,26.168 Z M64.072,26 L62.602,26 L62.602,21.744 C62.602,20.68 62.07,20.372 61.244,20.372 C60.488,20.372 59.844,20.82 59.508,21.268 L59.508,26 L58.038,26 L58.038,16.662 L59.508,16.662 L59.508,20.148 C59.956,19.616 60.824,19.07 61.888,19.07 C63.344,19.07 64.072,19.826 64.072,21.212 L64.072,26 Z"/>
      <path fill="#96C775" d="M22.7159999,11 C24.0657839,11 25.16,12.0942161 25.16,13.4440001 L25.16,27.3559999 C25.16,28.7057839 24.0657839,29.8 22.7159999,29.8 L14.4440001,29.8 C13.0942161,29.8 12,28.7057839 12,27.3559999 L12,13.4440001 C12,12.0942161 13.0942161,11 14.4440001,11 L22.7159999,11 Z M16.187,12.879 L15.0165455,12.88 C14.3416535,12.88 13.7945455,13.4271081 13.7945455,14.1020001 L13.7945455,14.1020001 L13.7945455,26.6979999 C13.7945455,27.3728919 14.3416535,27.92 15.0165455,27.92 L15.0165455,27.92 L22.1434545,27.92 C22.8183465,27.92 23.3654545,27.3728919 23.3654545,26.6979999 L23.3654545,26.6979999 L23.3654545,14.1020001 C23.3654545,13.4271081 22.8183465,12.88 22.1434545,12.88 L22.1434545,12.88 L20.972,12.879 L20.9727273,13.5223333 C20.9727273,13.8597793 20.6991732,14.1333333 20.3617272,14.1333333 L16.7982728,14.1333333 C16.4608268,14.1333333 16.1872727,13.8597793 16.1872727,13.5223333 L16.187,12.879 Z M21.4,18.52 C21.9191477,18.52 22.34,18.9408523 22.34,19.46 L22.34,22.28 C22.34,22.7991477 21.9191477,23.22 21.4,23.22 L15.76,23.22 C15.2408523,23.22 14.82,22.7991477 14.82,22.28 L14.82,19.46 C14.82,18.9408523 15.2408523,18.52 15.76,18.52 L21.4,18.52 Z"/>
      <rect width="116" height="2" x="12" y="46" fill="#F1F1F1" rx="1"/>
      <rect width="86" height="2" x="12" y="56" fill="#F1F1F1" rx="1"/>
    </g>
    <g transform="translate(208 193)">
      <use fill="#000" filter="url(#reach-m)" xlink:href="#reach-n"/>
      <rect width="141" height="199" x="-.5" y="-.5" fill="#FFF" stroke="#E1E1E1" rx="8"/>
      <rect width="124" height="2" x="8" y="125" fill="#F1F1F1" rx="1"/>
      <rect width="140" height="1" y="37" fill="#E1E1E1"/>
      <rect width="40" height="2" x="8" y="22" fill="#F1F1F1" rx="1"/>
      <rect width="40" height="2" x="8" y="29" fill="#F1F1F1" rx="1"/>
      <rect width="124" height="2" x="8" y="135" fill="#F1F1F1" rx="1"/>
      <rect width="124" height="2" x="8" y="145" fill="#F1F1F1" rx="1"/>
      <rect width="124" height="2" x="8" y="155" fill="#F1F1F1" rx="1"/>
      <rect width="124" height="2" x="8" y="165" fill="#F1F1F1" rx="1"/>
      <rect width="124" height="2" x="8" y="175" fill="#F1F1F1" rx="1"/>
      <use fill="#6FD350" fill-opacity=".2" xlink:href="#reach-o"/>
      <use fill="#000" filter="url(#reach-p)" xlink:href="#reach-o"/>
      <use fill="#000" filter="url(#reach-q)" xlink:href="#reach-r"/>
      <path fill="#FFF" stroke="#E1E1E1" d="M8,-0.5 L132,-0.5 C136.69442,-0.5 140.5,3.30557963 140.5,8 L140.5,16.5 L-0.5,16.5 L-0.5,8 C-0.5,3.30557963 3.30557963,-0.5 8,-0.5 Z"/>
      <circle cx="9" cy="8" r="3" fill="#F15242"/>
      <circle cx="19" cy="8" r="3" fill="#FFC111"/>
      <circle cx="29" cy="8" r="3" fill="#6FD350"/>
    </g>
    <g transform="translate(289 205)">
      <use fill="#000" filter="url(#reach-s)" xlink:href="#reach-t"/>
      <rect width="141" height="199" x="-.5" y="-.5" fill="#FFF" stroke="#E1E1E1" rx="8"/>
      <rect width="124" height="2" x="8" y="125" fill="#F1F1F1" rx="1"/>
      <rect width="140" height="1" y="37" fill="#E1E1E1"/>
      <rect width="40" height="2" x="8" y="22" fill="#F1F1F1" rx="1"/>
      <rect width="40" height="2" x="8" y="29" fill="#F1F1F1" rx="1"/>
      <rect width="124" height="2" x="8" y="135" fill="#F1F1F1" rx="1"/>
      <rect width="124" height="2" x="8" y="145" fill="#F1F1F1" rx="1"/>
      <rect width="124" height="2" x="8" y="155" fill="#F1F1F1" rx="1"/>
      <rect width="124" height="2" x="8" y="165" fill="#F1F1F1" rx="1"/>
      <rect width="124" height="2" x="8" y="175" fill="#F1F1F1" rx="1"/>
      <use fill="#FFC111" fill-opacity=".2" xlink:href="#reach-u"/>
      <use fill="#000" filter="url(#reach-v)" xlink:href="#reach-u"/>
      <use fill="#000" filter="url(#reach-w)" xlink:href="#reach-x"/>
      <path fill="#FFF" stroke="#E1E1E1" d="M8,-0.5 L132,-0.5 C136.69442,-0.5 140.5,3.30557963 140.5,8 L140.5,16.5 L-0.5,16.5 L-0.5,8 C-0.5,3.30557963 3.30557963,-0.5 8,-0.5 Z"/>
      <circle cx="9" cy="8" r="3" fill="#F15242"/>
      <circle cx="19" cy="8" r="3" fill="#FFC111"/>
      <circle cx="29" cy="8" r="3" fill="#6FD350"/>
    </g>
    <g transform="translate(378 174)">
      <use fill="#000" filter="url(#reach-y)" xlink:href="#reach-z"/>
      <rect width="141" height="199" x="-.5" y="-.5" fill="#FFF" stroke="#E1E1E1" rx="8"/>
      <rect width="124" height="2" x="8" y="125" fill="#F1F1F1" rx="1"/>
      <rect width="140" height="1" y="37" fill="#E1E1E1"/>
      <rect width="40" height="2" x="8" y="22" fill="#F1F1F1" rx="1"/>
      <rect width="40" height="2" x="8" y="29" fill="#F1F1F1" rx="1"/>
      <rect width="124" height="2" x="8" y="135" fill="#F1F1F1" rx="1"/>
      <rect width="124" height="2" x="8" y="145" fill="#F1F1F1" rx="1"/>
      <rect width="124" height="2" x="8" y="155" fill="#F1F1F1" rx="1"/>
      <rect width="124" height="2" x="8" y="165" fill="#F1F1F1" rx="1"/>
      <rect width="124" height="2" x="8" y="175" fill="#F1F1F1" rx="1"/>
      <use fill="#6F0DFB" fill-opacity=".2" xlink:href="#reach-A"/>
      <use fill="#000" filter="url(#reach-B)" xlink:href="#reach-A"/>
      <use fill="#000" filter="url(#reach-C)" xlink:href="#reach-D"/>
      <path fill="#FFF" stroke="#E1E1E1" d="M8,-0.5 L132,-0.5 C136.69442,-0.5 140.5,3.30557963 140.5,8 L140.5,16.5 L-0.5,16.5 L-0.5,8 C-0.5,3.30557963 3.30557963,-0.5 8,-0.5 Z"/>
      <circle cx="9" cy="8" r="3" fill="#F15242"/>
      <circle cx="19" cy="8" r="3" fill="#FFC111"/>
      <circle cx="29" cy="8" r="3" fill="#6FD350"/>
    </g>
    <g transform="translate(78 260)">
      <use fill="#000" filter="url(#reach-E)" xlink:href="#reach-F"/>
      <rect width="141" height="71" x="-.5" y="-.5" fill="#FFF" stroke="#E1E1E1" rx="8"/>
      <path fill="#354254" fill-rule="nonzero" d="M46.392,26 L46.392,24.558 L41.632,24.558 L41.632,21.954 L46.294,21.954 L46.294,20.512 L41.632,20.512 L41.632,18.104 L46.392,18.104 L46.392,16.662 L39.994,16.662 L39.994,26 L46.392,26 Z M57.802,26 L57.802,21.114 C57.802,19.742 57.088,19.07 55.856,19.07 C54.834,19.07 53.938,19.7 53.56,20.302 C53.336,19.574 52.72,19.07 51.712,19.07 C50.676,19.07 49.794,19.742 49.5,20.148 L49.5,19.238 L48.03,19.238 L48.03,26 L49.5,26 L49.5,21.268 C49.808,20.834 50.41,20.372 51.068,20.372 C51.866,20.372 52.174,20.862 52.174,21.59 L52.174,26 L53.644,26 L53.644,21.268 C53.938,20.82 54.554,20.372 55.212,20.372 C56.01,20.372 56.332,20.862 56.332,21.59 L56.332,26 L57.802,26 Z M65.32,26 L65.32,21.506 C65.32,19.7 64.004,19.07 62.492,19.07 C61.414,19.07 60.434,19.406 59.65,20.162 L60.266,21.184 C60.84,20.596 61.512,20.316 62.268,20.316 C63.192,20.316 63.85,20.792 63.85,21.576 L63.85,22.584 C63.346,22.01 62.576,21.716 61.652,21.716 C60.546,21.716 59.314,22.36 59.314,23.928 C59.314,25.412 60.56,26.168 61.652,26.168 C62.548,26.168 63.346,25.846 63.85,25.258 L63.85,26 L65.32,26 Z M62.24,25.16 C61.414,25.16 60.784,24.684 60.784,23.942 C60.784,23.214 61.414,22.724 62.24,22.724 C62.87,22.724 63.5,22.962 63.85,23.424 L63.85,24.46 C63.5,24.922 62.87,25.16 62.24,25.16 Z M67.966,18.412 C68.47,18.412 68.876,18.006 68.876,17.502 C68.876,16.998 68.47,16.592 67.966,16.592 C67.462,16.592 67.056,16.998 67.056,17.502 C67.056,18.006 67.462,18.412 67.966,18.412 Z M68.694,26 L68.694,19.238 L67.224,19.238 L67.224,26 L68.694,26 Z M72.068,26 L70.598,26 L70.598,16.662 L72.068,16.662 L72.068,26 Z"/>
      <path fill="#6BC0CF" d="M28.3559999,15 C29.7057839,15 30.8,16.0942161 30.8,17.4440001 L30.8,25.7159999 C30.8,27.0657839 29.7057839,28.16 28.3559999,28.16 L14.4440001,28.16 C13.0942161,28.16 12,27.0657839 12,25.7159999 L12,17.4440001 C12,16.0942161 13.0942161,15 14.4440001,15 L28.3559999,15 Z M14.9499049,17.04946 C14.7052415,16.8235984 14.3084581,16.8235009 14.0636644,17.0492423 C13.8188707,17.2749837 13.8187651,17.6410802 14.0634284,17.8669419 L14.0634284,17.8669419 L20.9567618,24.23054 C21.2015173,24.4564867 21.5984827,24.4564867 21.8432382,24.23054 L21.8432382,24.23054 L28.7365716,17.8669419 C28.9812349,17.6410802 28.9811293,17.2749837 28.7363356,17.0492423 C28.4915419,16.8235009 28.0947585,16.8235984 27.8500951,17.04946 L27.8500951,17.04946 L21.4,23.0038817 Z"/>
      <rect width="106" height="2" x="12" y="46" fill="#F1F1F1" rx="1"/>
      <rect width="116" height="2" x="12" y="56" fill="#F1F1F1" rx="1"/>
    </g>
  </g>
</svg>
