<svg width="38" height="40" xmlns="http://www.w3.org/2000/svg"><g fill="#615279" fill-rule="nonzero"><path d="M25.178 28.484c0 .299-.205.522-.505.522H13.35a.514.514 0 01-.528-.522v-2.316c0-.276.106-.54.306-.733l1.36-1.305.813-7.54a.624.624 0 00-.214-.54l-1.096-.954a.96.96 0 01-.324-.74v-3.682c0-.31.22-.562.532-.562h1.66c.295 0 .553.237.553.53v.835h1.374v-.81c0-.306.259-.555.567-.555h1.364c.293 0 .497.237.497.53v.835h1.373v-.786c0-.32.305-.579.626-.579h1.644c.294 0 .582.237.582.53v3.791c0 .238-.115.468-.277.644l-1.157.985a.595.595 0 00-.208.51l.814 7.558 1.36 1.378a.754.754 0 01.207.548v2.428zm7.163-19.648L21.68 2.713a5.377 5.377 0 00-5.352 0L5.669 8.836C3.709 9.902 3 11.544 3 13.446V25.69a5.31 5.31 0 002.67 4.61l10.667 6.123a5.38 5.38 0 005.354 0l10.65-6.123A5.298 5.298 0 0035 25.691V13.446a5.3 5.3 0 00-2.66-4.61z"/><path d="M19.043 20.794c-.87-.023-1.574.74-1.574 1.61v3.255c0 .177.17.337.346.337h2.354c.198 0 .362-.178.362-.376v-3.217c0-.875-.622-1.586-1.488-1.609"/></g></svg>