<svg width="39" height="40" xmlns="http://www.w3.org/2000/svg"><g fill-rule="nonzero" fill="none"><path d="M27.814 4c.53 0 .959.43.959.96v30.08c0 .53-.43.96-.96.96H.96A.96.96 0 010 35.04V4.96C0 4.43.43 4 .96 4h26.854zm4.795 3.2c.53 0 .959.43.959.96v23.68c0 .53-.43.96-.96.96h-2.237V7.2h2.238zm4.795 3.2c.53 0 .96.43.96.96v17.28c0 .53-.43.96-.96.96h-2.237V10.4h2.237z" fill="#21B573"/><path d="M11.452 27.15a.32.32 0 01.057.183v3.252a.32.32 0 01-.32.32H6.703a.309.309 0 01-.31-.309v-.141a.32.32 0 01.138-.263l4.475-3.121a.32.32 0 01.446.079zm7.376-7.47a.32.32 0 01.18.583L6.896 28.598a.32.32 0 01-.501-.263v-4.957a.32.32 0 01.122-.252l4.3-3.378a.32.32 0 01.197-.068h7.815zm2.64-10.56a.32.32 0 01.2.57L6.913 21.503a.32.32 0 01-.52-.25V9.44a.32.32 0 01.32-.32h14.755z" fill="#FFF"/></g></svg>