<svg xmlns="http://www.w3.org/2000/svg" width="40" height="40" viewBox="0 0 40 40">
  <g fill="none" transform="translate(4 2)">
    <path fill="#F9AB00" d="M31.9985428,30.9901639 C32.0116576,33.4222222 30.0502732,35.4025501 27.6196721,35.4158015 C27.43898,35.417122 27.2568306,35.4069217 27.0775956,35.3850638 C24.8218579,35.0513661 23.1693989,33.0885246 23.2247723,30.8094718 L23.2247723,4.60619308 C23.1708561,2.32422587 24.8276867,0.361384335 27.0848816,0.0306010929 C29.4994536,-0.252094718 31.6867031,1.47613843 31.9693989,3.89071038 C31.9897996,4.06848816 32,4.24626594 31.9985428,4.42550091 L31.9985428,30.9901639 Z"/>
    <path fill="#E37400" d="M4.38761384,26.6477231 C6.81092896,26.6477231 8.77522769,28.6120219 8.77522769,31.035337 C8.77522769,33.4586521 6.81092896,35.4229508 4.38761384,35.4229508 C1.96429872,35.4229508 0,33.4586521 0,31.035337 C0,28.6120219 1.96429872,26.6477231 4.38761384,26.6477231 Z M15.9315118,13.3508197 C13.4965392,13.4848816 11.6080146,15.5264117 11.6648452,17.9642987 L11.6648452,29.7486339 C11.6648452,32.9471767 13.0724954,34.8881603 15.1344262,35.3020036 C17.5140255,35.7843352 19.8324226,34.2469945 20.3147541,31.8673953 C20.3744991,31.5759563 20.403643,31.2801457 20.4022378,30.982878 L20.4022378,17.7602914 C20.4065574,15.3282332 18.4393443,13.3537341 16.007286,13.3493625 C15.9825137,13.3493625 15.9562842,13.3493625 15.9315118,13.3508197 Z"/>
  </g>
</svg>
