<svg xmlns="http://www.w3.org/2000/svg" width="40" height="40" viewBox="0 0 40 40">
  <g fill="none" fill-rule="evenodd" stroke-linecap="round" stroke-linejoin="round" stroke-width=".91" transform="translate(2 4)">
    <path stroke="#6738B8" d="M25.8537931,31.8880788 C26.6340887,31.8360591 27.3623645,31.4199015 27.8305419,30.7436453 L35.6334975,17.2185222 C35.9976355,16.4902463 35.9976355,15.657931 35.6334975,14.9816749 L27.8305419,1.45655172 C27.4143842,0.780295567 26.6861084,0.364137931 25.8537931,0.312118227 L10.2478818,0.312118227 C9.46758621,0.364137931 8.73931034,0.780295567 8.32315271,1.45655172 L0.520197044,14.9816749 C0.156059113,15.7099507 0.156059113,16.542266 0.520197044,17.2185222 L8.32315271,30.7436453 C8.73931034,31.4199015 9.46758621,31.8360591 10.2999015,31.8880788 L25.8537931,31.8880788 Z"/>
    <polyline stroke="#9C24C0" points="19.924 .364 14.409 9.832 18.051 16.126 25.334 16.126 30.796 6.659"/>
    <polyline stroke="#9C24C0" points="19.924 31.888 14.409 22.42 18.051 16.126 25.334 16.126 30.796 25.594"/>
    <polyline stroke="#9C24C0" points="3.485 22.42 14.409 22.42 18.051 16.126 14.409 9.832 3.485 9.832"/>
    <path stroke="#9C24C0" d="M25.8537931,31.8880788 C26.6340887,31.8360591 27.3623645,31.4199015 27.8305419,30.7436453 L35.6334975,17.2185222 C35.9976355,16.4902463 35.9976355,15.657931 35.6334975,14.9816749 L27.8305419,1.45655172 C27.4143842,0.780295567 26.6861084,0.364137931 25.8537931,0.312118227 L10.2478818,0.312118227 C9.46758621,0.364137931 8.73931034,0.780295567 8.32315271,1.45655172 L0.520197044,14.9816749 C0.156059113,15.7099507 0.156059113,16.542266 0.520197044,17.2185222 L8.32315271,30.7436453 C8.73931034,31.4199015 9.46758621,31.8360591 10.2999015,31.8880788 L25.8537931,31.8880788 Z"/>
    <polygon stroke="#9C24C0" points="21.692 22.42 25.334 16.126 21.692 9.832 14.409 9.832 10.768 16.126 14.409 22.42"/>
  </g>
</svg>
