<svg xmlns="http://www.w3.org/2000/svg" width="41" height="40" viewBox="0 0 41 40">
  <path fill="#0675C1" d="M27.6956522,10.9397826 L27.6956522,0 L0,0 L0,14.8171739 L19.0407609,14.8171739 L19.0407609,16.7558696 L0,16.7558696 L0,16.7558696 L0,27.6956522 L27.6956522,27.6956522 L27.6956522,12.8784783 L8.6548913,12.8784783 L8.6548913,10.9397826 L27.6956522,10.9397826 Z M13.8478261,24.8568478 C13.0861957,24.8568478 12.4630435,24.2336957 12.4630435,23.4720652 C12.4630435,22.7104348 13.0861957,22.0872826 13.8478261,22.0872826 C14.6094565,22.0872826 15.2326087,22.7104348 15.2326087,23.4720652 C15.2326087,24.2336957 14.6094565,24.8568478 13.8478261,24.8568478 M20.0101087,20.6332609 L7.68554348,20.6332609 L8.30869565,18.6945652 L19.4561957,18.6945652 L20.0101087,20.6332609 Z M13.8478261,2.83880435 C14.6094565,2.83880435 15.2326087,3.46195652 15.2326087,4.22358696 C15.2326087,4.98521739 14.6094565,5.60836957 13.8478261,5.60836957 C13.0861957,5.60836957 12.4630435,4.98521739 12.4630435,4.22358696 C12.4630435,3.46195652 13.0861957,2.83880435 13.8478261,2.83880435 M8.30869565,9.00108696 L7.68554348,7.0623913 L19.9408696,7.0623913 L19.4561957,9.00108696 L8.30869565,9.00108696 Z" transform="translate(6.5 6)"/>
</svg>
