<svg xmlns="http://www.w3.org/2000/svg" width="40" height="40" viewBox="0 0 40 40">
  <g fill="none" transform="translate(3 6.4)">
    <polygon fill="#E9A826" points="16.52 22.312 12.709 18.501 10.778 20.439 16.52 26.181 26.131 16.57 24.2 14.632"/>
    <path fill="#292A2A" d="M28.2271246,4.84870375 C21.7610444,-1.61623458 11.2786681,-1.61623458 4.81258786,4.84870375 L6.00852701e-15,9.66129161 L7.8528754,17.5213715 L9.79087859,15.5833683 L9.79808307,15.5761638 L6.75779553,12.5358763 L9.63238019,9.66849609 L6.765,6.80111589 C9.35182521,4.21335768 12.8608731,2.75949179 16.5198562,2.75949179 C20.1788393,2.75949179 23.6878873,4.21335768 26.2747125,6.80111589 L23.4001278,9.66849609 L28.2127157,14.4882884 L33.032508,9.67570056 L28.2271246,4.84870375 Z"/>
    <polygon fill="#292A2A" points="11.7 11.736 16.52 16.549 21.332 11.736 11.7 11.736"/>
  </g>
</svg>
