<svg width="44" height="40" xmlns="http://www.w3.org/2000/svg"><path d="M38.056 27.845c-.385 0-.736-.148-1-.386.09-.78.15-1.568.16-2.37.24-.162.53-.26.84-.26.825 0 1.5.677 1.5 1.511a1.5 1.5 0 01-1.5 1.505m-33.07 0a1.5 1.5 0 01-1.5-1.505c0-.834.675-1.512 1.5-1.512.31 0 .6.1.84.261.01.802.07 1.59.16 2.37-.274.248-.63.385-1 .386m32.972-6.62c-.422 0-.827.058-1.216.153-1.494-5.942-6.348-10.54-12.412-11.627-.27-.05-.515-.085-.79-.12.045-1.489.115-3.21 2.293-4.758L25.488 4s-4.244 1.326-4.736 4.978c-.212-.994-2.191-2.237-3.171-2.473l-.487.79s1.299.654 1.615 2.456C12.647 10.84 7.794 15.437 6.3 21.378c-.398-.1-.807-.15-1.217-.152C2.281 21.226 0 23.514 0 26.34c0 2.82 2.281 5.113 5.083 5.113a5.07 5.07 0 001.858-.358 15.712 15.712 0 001.652 3.09l4.22-2.86-.036-.048c-1.116-1.442-1.799-3.566-1.913-5.68-.127-2.33.439-4.646 1.92-6.007 3.052-2.612 6.375-1.422 8.457 1.083h.56c2.082-2.505 5.405-3.695 8.458-1.083 1.48 1.361 2.046 3.677 1.92 6.008-.115 2.113-.798 4.237-1.914 5.68l-.036.046 4.22 2.861a15.735 15.735 0 001.652-3.09 5.071 5.071 0 001.857.358c2.803 0 5.084-2.293 5.084-5.113 0-2.827-2.281-5.115-5.084-5.115" fill="#00BF6F" fill-rule="evenodd"/></svg>