<svg xmlns="http://www.w3.org/2000/svg" width="40" height="40" viewBox="0 0 40 40">
  <g fill="#03F" transform="translate(5 5)">
    <path d="M14.8674727,0.0829041231 C6.74286868,0.0829041231 0.165808246,6.65996455 0.165808246,14.7845686 C0.165808246,22.9091727 6.74286868,29.4862331 14.8674727,29.4862331 C22.9920768,29.4862331 29.5691372,22.9091727 29.5691372,14.7845686 C29.5691372,6.65996455 22.9920768,0.0829041231 14.8674727,0.0829041231 Z M14.3424133,20.5602225 L13.2646597,23.7382139 C13.237025,23.8487527 13.1817556,23.9316569 13.1264862,24.014561 C12.9883126,24.2356386 12.8225044,24.4014469 12.6014267,24.5119857 C12.4079838,24.6225246 12.1869061,24.677794 11.9658284,24.677794 C11.8276549,24.677794 11.6618466,24.6501593 11.5236731,24.5948898 C10.9157095,24.3738122 10.5288236,23.7658486 10.6117278,23.157885 C7.57190991,21.6103414 5.49930683,18.43235 5.49930683,14.7845686 C5.49930683,9.58924357 9.6997824,5.36113329 14.9227422,5.36113329 C15.5307057,5.36113329 16.1110346,5.41640271 16.6913634,5.52694154 C17.0229799,5.00188209 17.6862129,4.75316972 18.2941765,4.94661268 C18.625793,5.05715151 18.8745054,5.27822917 19.0403136,5.55457625 C19.1784871,5.80328862 19.2613913,6.07963569 19.2337566,6.38361748 C19.2337566,6.49415631 19.2061218,6.60469514 19.1784871,6.68759926 L18.1007335,9.86559065 L14.3424133,20.5602225 Z M15.5307057,24.1803692 L16.829537,20.2562407 C19.0679483,19.4548342 20.6707614,17.3269617 20.6707614,14.7845686 C20.6707614,13.5962762 20.3115102,12.4632532 19.6759119,11.5513078 L20.9747431,7.62717932 C22.9920768,9.3405312 24.2909081,11.910559 24.2909081,14.7845686 C24.2632734,19.758816 20.422049,23.821118 15.5307057,24.1803692 Z"/>
    <path d="M9.06418412,14.7845686 C9.06418412,16.829537 10.1419377,18.625793 11.7447508,19.6759119 L15.3925322,9.00891471 C15.2267239,8.98128 15.033281,8.98128 14.8674727,8.98128 C11.6618466,8.98128 9.06418412,11.5789425 9.06418412,14.7845686 Z"/>
  </g>
</svg>
