<svg height="34" viewBox="0 0 34 34" width="34" xmlns="http://www.w3.org/2000/svg"><path d="m13.6974776 22.4171189h1.3669255c.4142136 0 .75.3357864.75.75 0 .1841914-.0677799.3619423-.1904192.4993689l-3.6529833 4.093445c-.2757939.3090479-.7499018.3360057-1.0589497.0602118-.0211932-.0189127-.0412948-.0390141-.0602077-.0602071l-3.65304473-4.093445c-.27579643-.3090457-.24884263-.7831538.06020301-1.0589503.13742723-.1226418.31518003-.1904233.49937361-.1904233h1.3726406v-2.9849307-1.1130355c0-.2385578.11348957-.4628869.30567672-.6042159l5.47726239-4.027824c.1921872-.141329.3056767-.3656582.3056767-.6042159v-6.3328969c0-.41421356.3357865-.75.75-.75h3.0664619c.4142136 0 .75.33578644.75.75v5.2198614h.0024155v1.1130355c0 .2385577.1134896.4628869.3056768.6042159l5.4772624 4.027824c.1921871.141329.3056767.3656581.3056767.6042159v1.1130355l-.0024155.0007894v2.9841413h1.3669262c.4142136 0 .75.3357864.75.75 0 .1841914-.0677799.3619423-.1904192.4993689l-3.6529833 4.093445c-.2757938.3090479-.7499018.3360057-1.0589497.0602118-.0211932-.0189127-.0412948-.0390141-.0602077-.0602071l-3.6530447-4.093445c-.2757964-.3090457-.2488426-.7831538.060203-1.0589503.1374272-.1226418.31518-.1904233.4993736-.1904233h1.3726399v-2.6656973c-.0173494-.2157223-.1273324-.4146464-.3032612-.5440195l-3.500916-2.5744746-3.5009159 2.5744746c-.1921872.141329-.3056767.3656582-.3056767.6042159v1.1130355z" fill="#d8ca13" fill-rule="evenodd"/></svg>