<svg height="34" viewBox="0 0 34 34" width="34" xmlns="http://www.w3.org/2000/svg"><path d="M13.697 22.417h1.367a.75.75 0 01.56 1.25l-3.653 4.093a.75.75 0 01-1.12 0L7.2 23.666a.75.75 0 01.56-1.249h1.37V18.32a.75.75 0 01.306-.604l5.477-4.028a.75.75 0 00.306-.604V6.75a.75.75 0 01.75-.75h3.066a.75.75 0 01.75.75v5.22h.003v1.113a.75.75 0 00.305.604l5.477 4.028a.75.75 0 01.306.604v1.113l-.002.001v2.984h1.367a.75.75 0 01.56 1.25l-3.654 4.093a.75.75 0 01-1.119 0l-3.653-4.094a.75.75 0 01.56-1.249h1.372v-2.666a.75.75 0 00-.303-.544l-3.5-2.574-3.502 2.574a.75.75 0 00-.306.605v1.113z" fill="#d8ca13" fill-rule="evenodd"/></svg>