<svg height="34" viewBox="0 0 34 34" width="34" xmlns="http://www.w3.org/2000/svg"><path d="m15.7692308 17.4696452c-.0493268.0365032-.0965579.0771621-.1412158.1219768-.4815841.4832738-.4815841 1.2668155 0 1.7500893.481584.4832738 1.262386.4832738 1.74397 0 .4815841-.4832738.4815841-1.2668155 0-1.7500893-.0446579-.0448147-.091889-.0854736-.1412158-.1219768v-4.8696452c0-.4050088-.3271765-.7333333-.7307692-.7333333s-.7307692.3283245-.7307692.7333333zm0-8.50823822v-1.49474031h-1.4615385c-.4035927 0-.7307692-.32832452-.7307692-.73333334 0-.40500881.3271765-.73333333.7307692-.73333333h4.3846154c.4035927 0 .7307692.32832452.7307692.73333333 0 .40500882-.3271765.73333334-.7307692.73333334h-1.4615385v1.49474031c2.1822657.16793733 4.3177553 1.08932902 5.9867452 2.76417502 3.7099808 3.7229983 3.7099808 9.7591711 0 13.4821693-3.7099808 3.7229983-9.725048 3.7229983-13.43502882 0-3.70998077-3.7229982-3.70998077-9.759171 0-13.4821693 1.66898992-1.674846 3.80447952-2.59623769 5.98674522-2.76417502z" fill="#b97ed7"/></svg>