<svg height="34" viewBox="0 0 34 34" width="34" xmlns="http://www.w3.org/2000/svg"><path d="m6 12.0001262c0-1.6569239 1.33599155-3.0001262 3.00684834-3.0001262h16.98630336c1.6606364 0 3.0068483 1.3339615 3.0068483 3.0001262v10.9997476c0 1.6569239-1.3359915 3.0001262-3.0068483 3.0001262h-16.98630336c-1.66063649 0-3.00684834-1.3339615-3.00684834-3.0001262zm11.5 7.5022181-7.89107381-7.9576904c-.29932222-.3018491-.78474869-.3019794-1.08423036-.000291-.29948166.3016884-.29961092.7909523-.00028869 1.0928014l8.43333336 8.5045277c.2994349.3019628.7850841.3019628 1.084519 0l8.4333334-8.5045277c.2993222-.3018491.2991929-.791113-.0002887-1.0928014-.2994817-.3016884-.7849082-.3015581-1.0842304.000291z" fill="#6bc0cf" fill-rule="evenodd"/></svg>