<svg height="34" viewBox="0 0 34 34" width="34" xmlns="http://www.w3.org/2000/svg"><path d="M14.41 8.3h-1.594c-.827 0-1.498.67-1.498 1.498v15.404c0 .828.67 1.498 1.498 1.498h9.368c.827 0 1.498-.67 1.498-1.498V9.798c0-.828-.67-1.498-1.498-1.498h-1.593v.785a.749.749 0 01-.749.748h-4.684a.749.749 0 01-.749-.748zM11.994 6h11.01A2.995 2.995 0 0126 8.995v17.01A2.995 2.995 0 0123.005 29h-11.01A2.995 2.995 0 019 26.005V8.995A2.995 2.995 0 0111.995 6zm1.8 9.2h7.41c.636 0 1.152.516 1.152 1.152v3.446c0 .636-.516 1.152-1.152 1.152h-7.41a1.152 1.152 0 01-1.152-1.152v-3.446c0-.636.516-1.152 1.152-1.152z" fill="#96c775" fill-rule="evenodd"/></svg>