<svg xmlns="http://www.w3.org/2000/svg" xmlns:xlink="http://www.w3.org/1999/xlink" width="461" height="212" viewBox="0 0 461 212">
  <defs>
    <rect id="create-personalized-content-desktop-a" width="334" height="122" x="0" y="0" rx="8"/>
    <filter id="create-personalized-content-desktop-b" width="101.2%" height="103.3%" x="-.6%" y="-1.6%" filterUnits="objectBoundingBox">
      <feGaussianBlur in="SourceAlpha" result="shadowBlurInner1" stdDeviation="1.5"/>
      <feOffset dy="1" in="shadowBlurInner1" result="shadowOffsetInner1"/>
      <feComposite in="shadowOffsetInner1" in2="SourceAlpha" k2="-1" k3="1" operator="arithmetic" result="shadowInnerInner1"/>
      <feColorMatrix in="shadowInnerInner1" values="0 0 0 0 0.105882353   0 0 0 0 0.180392157   0 0 0 0 0.356862745  0 0 0 0.1 0"/>
    </filter>
    <rect id="create-personalized-content-desktop-d" width="302" height="96" x="0" y="0" rx="8"/>
    <filter id="create-personalized-content-desktop-c" width="110.6%" height="133.3%" x="-5.3%" y="-14.6%" filterUnits="objectBoundingBox">
      <feOffset dy="2" in="SourceAlpha" result="shadowOffsetOuter1"/>
      <feGaussianBlur in="shadowOffsetOuter1" result="shadowBlurOuter1" stdDeviation="5"/>
      <feColorMatrix in="shadowBlurOuter1" values="0 0 0 0 0.207843137   0 0 0 0 0.258823529   0 0 0 0 0.329411765  0 0 0 0.101137908 0"/>
    </filter>
    <path id="create-personalized-content-desktop-e" d="M20,6.25633333 C20,6.01733333 20,5.77866667 19.9986667,5.53966667 C19.9973333,5.33866667 19.995,5.13733333 19.9896667,4.93633333 C19.978,4.498 19.952,4.056 19.8743333,3.62266667 C19.7953333,3.18266667 19.6663333,2.77333333 19.4626667,2.37366667 C19.2626667,1.98066667 19.0016667,1.62166667 18.69,1.31 C18.3783333,0.998666667 18.0193333,0.737333333 17.6263333,0.537333333 C17.227,0.334 16.8176667,0.205 16.378,0.126 C15.9443333,0.048 15.5023333,0.0223333333 15.064,0.0103333333 C14.8626667,0.005 14.6616667,0.00266666667 14.4603333,0.00133333333 C14.2216667,1.77635684e-15 13.9826667,1.77635684e-15 13.7436667,1.77635684e-15 L6.25633333,1.77635684e-15 C6.01766667,1.77635684e-15 5.77866667,1.77635684e-15 5.54,0.00133333333 C5.33866667,0.00266666667 5.13733333,0.005 4.93633333,0.0103333333 C4.498,0.0223333333 4.05566667,0.048 3.62233333,0.126 C3.18266667,0.205 2.77333333,0.334 2.374,0.537333333 C1.981,0.737333333 1.62166667,0.998666667 1.31033333,1.31 C0.998666667,1.62166667 0.737666667,1.98066667 0.537666667,2.37366667 C0.334,2.77333333 0.205,3.18266667 0.126,3.62266667 C0.0483333333,4.056 0.0223333333,4.498 0.0106666667,4.93633333 C0.00533333333,5.13733333 0.00266666667,5.33866667 0.00166666667,5.53966667 C0,5.77866667 0,6.01733333 0,6.25633333 L0,13.7436667 C0,13.9826667 0,14.2213333 0.00166666667,14.4603333 C0.00266666667,14.6613333 0.00533333333,14.8626667 0.0106666667,15.0636667 C0.0223333333,15.502 0.0483333333,15.944 0.126,16.3773333 C0.205,16.8173333 0.334,17.227 0.537666667,17.6266667 C0.737666667,18.0193333 0.998666667,18.3783333 1.31033333,18.6896667 C1.62166667,19.0016667 1.981,19.2626667 2.374,19.4626667 C2.77333333,19.666 3.18266667,19.795 3.62233333,19.874 C4.05566667,19.9516667 4.498,19.978 4.93633333,19.9896667 C5.13733333,19.995 5.33866667,19.9973333 5.54,19.9986667 C5.77866667,20 6.01766667,20 6.25633333,20 L13.7436667,20 C13.9826667,20 14.2216667,20 14.4603333,19.9986667 C14.6616667,19.9973333 14.8626667,19.995 15.064,19.9896667 C15.5023333,19.978 15.9443333,19.9516667 16.378,19.874 C16.8176667,19.795 17.227,19.666 17.6263333,19.4626667 C18.0193333,19.2626667 18.3783333,19.0016667 18.69,18.6896667 C19.0016667,18.3783333 19.2626667,18.0193333 19.4626667,17.6266667 C19.6663333,17.227 19.7953333,16.8173333 19.8743333,16.3773333 C19.952,15.944 19.978,15.502 19.9896667,15.0636667 C19.995,14.8626667 19.9973333,14.6613333 19.9986667,14.4603333 C20,14.2213333 20,13.9826667 20,13.7436667 L20,6.25633333 Z"/>
    <linearGradient id="create-personalized-content-desktop-f" x1="50%" x2="50%" y1="0%" y2="100%">
      <stop offset="0%" stop-color="#914EA9"/>
      <stop offset="100%" stop-color="#153E7D"/>
    </linearGradient>
  </defs>
  <g fill="none" fill-rule="evenodd">
    <use fill="#FFF" xlink:href="#create-personalized-content-desktop-a"/>
    <use fill="#000" filter="url(#create-personalized-content-desktop-b)" xlink:href="#create-personalized-content-desktop-a"/>
    <rect width="333" height="121" x=".5" y=".5" stroke="#E1E1E1" stroke-linejoin="square" rx="8"/>
    <rect width="172" height="20" x="84" y="41" fill="#F1F1F1" rx="2"/>
    <rect width="194" height="20" x="63" y="63" fill="#F1F1F1" rx="2"/>
    <rect width="121" height="20" x="16" y="85" fill="#F1F1F1" rx="2"/>
    <path fill="#384254" fill-rule="nonzero" d="M26.08 56L24.8 56 18.576 47.488 18.576 56 17.248 56 17.248 45.328 18.608 45.328 24.752 53.664 24.752 45.328 26.08 45.328 26.08 56zM29.136 47.168C28.688 47.168 28.32 46.816 28.32 46.368 28.32 45.92 28.688 45.552 29.136 45.552 29.584 45.552 29.936 45.92 29.936 46.368 29.936 46.816 29.584 47.168 29.136 47.168zM29.728 56L28.528 56 28.528 48.272 29.728 48.272 29.728 56zM35.536 56.192C33.232 56.192 31.68 54.416 31.68 52.128 31.68 49.84 33.232 48.08 35.536 48.08 36.944 48.08 37.776 48.656 38.368 49.424L37.568 50.144C37.056 49.44 36.4 49.152 35.6 49.152 33.968 49.152 32.928 50.416 32.928 52.128 32.928 53.84 33.968 55.12 35.6 55.12 36.4 55.12 37.056 54.8 37.568 54.112L38.368 54.848C37.776 55.616 36.944 56.192 35.536 56.192zM43.568 56.192C41.264 56.192 39.616 54.544 39.616 52.128 39.616 49.888 41.216 48.08 43.424 48.08 45.76 48.08 47.136 49.904 47.136 52.224L47.136 52.528 40.896 52.528C40.992 53.984 42 55.2 43.664 55.2 44.56 55.2 45.44 54.848 46.064 54.208L46.64 54.992C45.856 55.76 44.816 56.192 43.568 56.192zM45.952 51.632C45.936 50.496 45.168 49.072 43.408 49.072 41.76 49.072 40.944 50.464 40.88 51.632L45.952 51.632zM56.592 56.192C54.24 56.192 52.768 54.368 52.768 52.128 52.768 49.888 54.24 48.08 56.592 48.08 58.944 48.08 60.416 49.888 60.416 52.128 60.416 54.368 58.944 56.192 56.592 56.192zM56.592 55.12C58.24 55.12 59.152 53.712 59.152 52.128 59.152 50.56 58.24 49.152 56.592 49.152 54.944 49.152 54.032 50.56 54.032 52.128 54.032 53.712 54.944 55.12 56.592 55.12zM68.784 56L67.6 56 67.6 50.944C67.6 49.568 66.896 49.152 65.856 49.152 64.912 49.152 64.032 49.728 63.568 50.352L63.568 56 62.368 56 62.368 48.272 63.568 48.272 63.568 49.392C64.112 48.736 65.168 48.08 66.336 48.08 67.936 48.08 68.784 48.896 68.784 50.576L68.784 56zM74.704 56.192C72.4 56.192 70.752 54.544 70.752 52.128 70.752 49.888 72.352 48.08 74.56 48.08 76.896 48.08 78.272 49.904 78.272 52.224L78.272 52.528 72.032 52.528C72.128 53.984 73.136 55.2 74.8 55.2 75.696 55.2 76.576 54.848 77.2 54.208L77.776 54.992C76.992 55.76 75.952 56.192 74.704 56.192zM77.088 51.632C77.072 50.496 76.304 49.072 74.544 49.072 72.896 49.072 72.08 50.464 72.016 51.632L77.088 51.632zM93.8467813 56.3237305L93.8467813 57.237793 93.4405313 57.237793C92.386815 57.237793 91.6811743 57.081219 91.3235879 56.7680664 90.9660015 56.4549138 90.7872109 55.8307338 90.7872109 54.8955078L90.7872109 53.6259766C90.7872109 53.1647112 90.6570853 52.7669288 90.3968301 52.4326172 90.1365749 52.0983056 89.7335027 51.9311523 89.1876016 51.9311523L88.4131875 51.9311523 88.4131875 51.0234375 89.1876016 51.0234375C89.7842842 51.0234375 90.2000516 50.8816746 90.434916 50.5981445 90.6697805 50.3146145 90.7872109 49.8977892 90.7872109 49.3476562L90.7872109 47.6972656C90.7872109 46.7620396 90.9660015 46.1389176 91.3235879 45.8278809 91.6811743 45.5168441 92.386815 45.3613281 93.4405313 45.3613281L93.8467813 45.3613281 93.8467813 46.269043 93.4024453 46.269043C92.8099944 46.269043 92.4238492 46.3610831 92.243998 46.545166 92.0641469 46.729249 91.9742227 47.1217418 91.9742227 47.7226562L91.9742227 49.4238281C91.9742227 50.1686235 91.828228 50.6690254 91.5362344 50.9250488 91.2442407 51.1810722 90.6750732 51.3662104 89.8287148 51.4804688 90.6496825 51.5778 91.2125024 51.765054 91.5171914 52.0422363 91.8218804 52.3194187 91.9742227 52.8198206 91.9742227 53.543457L91.9742227 54.8701172C91.9742227 55.4752634 92.0641469 55.8688142 92.243998 56.0507812 92.4238492 56.2327483 92.8099944 56.3237305 93.4024453 56.3237305L93.8467813 56.3237305zM101.673441 56.3237305L101.673441 57.237793 101.267191 57.237793C100.213475 57.237793 99.5078345 57.081219 99.150248 56.7680664 98.7926616 56.4549138 98.6138711 55.8307338 98.6138711 54.8955078L98.6138711 53.6259766C98.6138711 53.1647112 98.4837454 52.7669288 98.2234902 52.4326172 97.963235 52.0983056 97.5601629 51.9311523 97.0142617 51.9311523L96.2398477 51.9311523 96.2398477 51.0234375 97.0142617 51.0234375C97.6109444 51.0234375 98.0267117 50.8816746 98.2615762 50.5981445 98.4964406 50.3146145 98.6138711 49.8977892 98.6138711 49.3476562L98.6138711 47.6972656C98.6138711 46.7620396 98.7926616 46.1389176 99.150248 45.8278809 99.5078345 45.5168441 100.213475 45.3613281 101.267191 45.3613281L101.673441 45.3613281 101.673441 46.269043 101.229105 46.269043C100.636655 46.269043 100.250509 46.3610831 100.070658 46.545166 99.890807 46.729249 99.8008828 47.1217418 99.8008828 47.7226562L99.8008828 49.4238281C99.8008828 50.1686235 99.6548882 50.6690254 99.3628945 50.9250488 99.0709009 51.1810722 98.5017334 51.3662104 97.655375 51.4804688 98.4763426 51.5778 99.0391625 51.765054 99.3438516 52.0422363 99.6485406 52.3194187 99.8008828 52.8198206 99.8008828 53.543457L99.8008828 54.8701172C99.8008828 55.4752634 99.890807 55.8688142 100.070658 56.0507812 100.250509 56.2327483 100.636655 56.3237305 101.229105 56.3237305L101.673441 56.3237305zM112.013773 53.3085938L112.013773 48.9033203 113.181742 48.9033203 113.181742 53.3085938C113.181742 53.9475943 113.294941 54.4173162 113.521342 54.7177734 113.747743 55.0182307 114.097918 55.168457 114.571879 55.168457 115.122012 55.168457 115.543069 54.9748555 115.835063 54.5876465 116.127056 54.2004375 116.273051 53.6450231 116.273051 52.9213867L116.273051 48.9033203 117.447367 48.9033203 117.447367 56 116.273051 56 116.273051 54.9335938C116.065693 55.3440776 115.783225 55.6551096 115.425639 55.8666992 115.068052 56.0782888 114.650169 56.184082 114.171977 56.184082 113.444108 56.184082 112.902447 55.9460473 112.546977 55.4699707 112.191506 54.9938941 112.013773 54.2734423 112.013773 53.3085938zM124.77891 49.1381836L124.77891 50.2807617C124.444599 50.0860993 124.108176 49.9401047 123.769633 49.8427734 123.431089 49.7454422 123.086204 49.6967773 122.734965 49.6967773 122.205991 49.6967773 121.811382 49.7824698 121.551127 49.9538574 121.290872 50.125245 121.160746 50.3865542 121.160746 50.737793 121.160746 51.0551774 121.258076 51.2921542 121.452738 51.4487305 121.647401 51.6053068 122.131934 51.757649 122.906352 51.9057617L123.376078 51.9946289C123.955834 52.1046555 124.394875 52.3247054 124.693217 52.6547852 124.991558 52.9848649 125.140727 53.4143854 125.140727 53.9433594 125.140727 54.6458368 124.891055 55.1949036 124.391703 55.5905762 123.892352 55.9862487 123.198348 56.184082 122.309672 56.184082 121.958433 56.184082 121.590273 56.1470544 121.20518 56.072998 120.820087 55.9989417 120.403261 55.8878588 119.954691 55.7397461L119.954691 54.5336914C120.390566 54.7579764 120.807391 54.9261876 121.20518 55.0383301 121.602968 55.1504726 121.979592 55.206543 122.335063 55.206543 122.851341 55.206543 123.251239 55.1018077 123.53477 54.892334 123.8183 54.6828603 123.960063 54.3898131 123.960063 54.0131836 123.960063 53.4715142 123.441676 53.0970062 122.404887 52.8896484L122.354105 52.8769531 121.916117 52.7880859C121.243262 52.6569004 120.752382 52.4357926 120.443461 52.1247559 120.13454 51.8137191 119.980082 51.3894884 119.980082 50.8520508 119.980082 50.1707323 120.210711 49.64494 120.671977 49.2746582 121.133242 48.9043764 121.791276 48.7192383 122.646098 48.7192383 123.026959 48.7192383 123.393003 48.75415 123.744242 48.8239746 124.095481 48.8937992 124.440367 48.9985345 124.77891 49.1381836zM133.538676 51.8613281L133.538676 52.4326172 128.479594 52.4326172 128.479594 52.4707031C128.445739 53.4397835 128.630878 54.1359028 129.035014 54.559082 129.43915 54.9822612 130.009375 55.1938477 130.745707 55.1938477 131.118105 55.1938477 131.507424 55.1346035 131.913676 55.0161133 132.319928 54.8976231 132.75368 54.7177746 133.214945 54.4765625L133.214945 55.6381836C132.770607 55.8201506 132.342145 55.9566239 131.929545 56.0476074 131.516945 56.1385909 131.118105 56.184082 130.733012 56.184082 129.628514 56.184082 128.765241 55.8529493 128.143168 55.1906738 127.521095 54.5283984 127.210063 53.615403 127.210063 52.4516602 127.210063 51.3175399 127.514747 50.41195 128.124125 49.7348633 128.733503 49.0577766 129.545995 48.7192383 130.561625 48.7192383 131.467228 48.7192383 132.181333 49.0260386 132.703959 49.6396484 133.226585 50.2532583 133.504821 50.9938108 133.538676 51.8613281zM132.370707 51.5185547C132.319926 51.0276668 132.141135 50.603436 131.83433 50.2458496 131.527525 49.8882632 131.086367 49.7094727 130.510844 49.7094727 129.948015 49.7094727 129.484641 49.8956687 129.120707 50.2680664 128.756773 50.6404641 128.557882 51.0594052 128.524027 51.5249023L132.370707 51.5185547zM141.587504 50.3569336C141.337828 50.1622712 141.083924 50.0205083 140.825785 49.9316406 140.567646 49.842773 140.28412 49.7983398 139.975199 49.7983398 139.247331 49.7983398 138.690859 50.0268532 138.305766 50.4838867 137.920673 50.9409203 137.728129 51.6010699 137.728129 52.4643555L137.728129 56 136.553812 56 136.553812 48.890625 137.728129 48.890625 137.728129 50.2807617C137.922791 49.7771785 138.222186 49.3910332 138.626322 49.1223145 139.030458 48.8535957 139.509702 48.7192383 140.064066 48.7192383 140.351828 48.7192383 140.620543 48.755208 140.870219 48.8271484 141.119894 48.8990889 141.358987 49.0112297 141.587504 49.1635742L141.587504 50.3569336zM144.551859 53.4355469L146.786234 53.4355469 146.786234 56 144.551859 56 144.551859 53.4355469zM156.65684 46.1230469L156.65684 47.0942383 155.33018 47.0942383C154.911232 47.0942383 154.620301 47.1799308 154.457377 47.3513184 154.294453 47.5227059 154.212992 47.8263325 154.212992 48.262207L154.212992 48.890625 156.65684 48.890625 156.65684 49.7983398 154.212992 49.7983398 154.212992 56 153.045023 56 153.045023 49.7983398 151.147074 49.7983398 151.147074 48.890625 153.045023 48.890625 153.045023 48.3955078C153.045023 47.6168581 153.223814 47.0434589 153.5814 46.675293 153.938987 46.3071271 154.496517 46.1230469 155.254008 46.1230469L156.65684 46.1230469zM159.741801 48.9160156L162.731547 48.9160156 162.731547 55.0922852 165.048441 55.0922852 165.048441 56 159.246684 56 159.246684 55.0922852 161.563578 55.0922852 161.563578 49.8237305 159.741801 49.8237305 159.741801 48.9160156zM161.563578 46.1547852L162.731547 46.1547852 162.731547 47.6274414 161.563578 47.6274414 161.563578 46.1547852zM172.894145 50.3569336C172.644469 50.1622712 172.390565 50.0205083 172.132426 49.9316406 171.874286 49.842773 171.590761 49.7983398 171.28184 49.7983398 170.553972 49.7983398 169.997499 50.0268532 169.612406 50.4838867 169.227313 50.9409203 169.03477 51.6010699 169.03477 52.4643555L169.03477 56 167.860453 56 167.860453 48.890625 169.03477 48.890625 169.03477 50.2807617C169.229432 49.7771785 169.528827 49.3910332 169.932963 49.1223145 170.337099 48.8535957 170.816342 48.7192383 171.370707 48.7192383 171.658469 48.7192383 171.927184 48.755208 172.176859 48.8271484 172.426535 48.8990889 172.665628 49.0112297 172.894145 49.1635742L172.894145 50.3569336zM179.565531 49.1381836L179.565531 50.2807617C179.23122 50.0860993 178.894797 49.9401047 178.556254 49.8427734 178.217711 49.7454422 177.872825 49.6967773 177.521586 49.6967773 176.992612 49.6967773 176.598003 49.7824698 176.337748 49.9538574 176.077493 50.125245 175.947367 50.3865542 175.947367 50.737793 175.947367 51.0551774 176.044697 51.2921542 176.239359 51.4487305 176.434022 51.6053068 176.918555 51.757649 177.692973 51.9057617L178.162699 51.9946289C178.742455 52.1046555 179.181497 52.3247054 179.479838 52.6547852 179.778179 52.9848649 179.927348 53.4143854 179.927348 53.9433594 179.927348 54.6458368 179.677676 55.1949036 179.178324 55.5905762 178.678973 55.9862487 177.984969 56.184082 177.096293 56.184082 176.745054 56.184082 176.376894 56.1470544 175.991801 56.072998 175.606708 55.9989417 175.189882 55.8878588 174.741312 55.7397461L174.741312 54.5336914C175.177187 54.7579764 175.594012 54.9261876 175.991801 55.0383301 176.389589 55.1504726 176.766213 55.206543 177.121684 55.206543 177.637962 55.206543 178.037861 55.1018077 178.321391 54.892334 178.604921 54.6828603 178.746684 54.3898131 178.746684 54.0131836 178.746684 53.4715142 178.228297 53.0970062 177.191508 52.8896484L177.140727 52.8769531 176.702738 52.7880859C176.029883 52.6569004 175.539003 52.4357926 175.230082 52.1247559 174.921161 51.8137191 174.766703 51.3894884 174.766703 50.8520508 174.766703 50.1707323 174.997332 49.64494 175.458598 49.2746582 175.919863 48.9043764 176.577897 48.7192383 177.432719 48.7192383 177.81358 48.7192383 178.179625 48.75415 178.530863 48.8239746 178.882102 48.8937992 179.226988 48.9985345 179.565531 49.1381836zM185.113383 46.8720703L185.113383 48.890625 187.766703 48.890625 187.766703 49.7983398 185.113383 49.7983398 185.113383 53.6577148C185.113383 54.1824571 185.212828 54.5485016 185.411723 54.7558594 185.610617 54.9632172 185.957619 55.0668945 186.452738 55.0668945L187.766703 55.0668945 187.766703 56 186.33848 56C185.4625 56 184.844667 55.8243833 184.484965 55.4731445 184.125263 55.1219058 183.945414 54.5167686 183.945414 53.6577148L183.945414 49.7983398 182.047465 49.7983398 182.047465 48.890625 183.945414 48.890625 183.945414 46.8720703 185.113383 46.8720703zM196.812113 57.2060547L196.812113 58.2851562 189.042582 58.2851562 189.042582 57.2060547 196.812113 57.2060547zM203.540629 51.5947266L203.540629 56 202.366312 56 202.366312 51.5947266C202.366312 50.955726 202.254172 50.4860041 202.029887 50.1855469 201.805602 49.8850896 201.454368 49.7348633 200.976176 49.7348633 200.430275 49.7348633 200.010276 49.9284649 199.716166 50.3156738 199.422056 50.7028828 199.275004 51.2582972 199.275004 51.9819336L199.275004 56 198.107035 56 198.107035 48.890625 199.275004 48.890625 199.275004 49.9570312C199.482362 49.5507792 199.763772 49.242921 200.119242 49.0334473 200.474713 48.8239736 200.89577 48.7192383 201.382426 48.7192383 202.106062 48.7192383 202.646666 48.957273 203.004252 49.4333496 203.361838 49.9094262 203.540629 50.629878 203.540629 51.5947266zM210.243754 52.4262695L208.76475 52.4262695C208.083431 52.4262695 207.570334 52.5458159 207.225443 52.7849121 206.880552 53.0240084 206.708109 53.3805315 206.708109 53.8544922 206.708109 54.2819032 206.837177 54.6140939 207.095316 54.8510742 207.353456 55.0880546 207.711037 55.206543 208.16807 55.206543 208.811303 55.206543 209.316994 54.9833193 209.68516 54.5368652 210.053326 54.0904112 210.239522 53.4736367 210.243754 52.6865234L210.243754 52.4262695zM211.41807 51.9438477L211.41807 56 210.243754 56 210.243754 54.9462891C209.994078 55.3694683 209.679872 55.6815582 209.301127 55.8825684 208.922382 56.0835785 208.462181 56.184082 207.920512 56.184082 207.196875 56.184082 206.619244 55.9799011 206.187602 55.5715332 205.755959 55.1631653 205.540141 54.6162144 205.540141 53.9306641 205.540141 53.139319 205.805682 52.5384135 206.336771 52.1279297 206.867861 51.7174459 207.647557 51.512207 208.675883 51.512207L210.243754 51.512207 210.243754 51.328125C210.239522 50.7610649 210.095643 50.3495293 209.812113 50.0935059 209.528583 49.8374824 209.075788 49.7094727 208.453715 49.7094727 208.055926 49.7094727 207.653912 49.766601 207.24766 49.8808594 206.841408 49.9951178 206.445742 50.162271 206.060648 50.3823242L206.060648 49.2143555C206.492291 49.0493156 206.905943 48.9255375 207.301615 48.8430176 207.697288 48.7604976 208.081317 48.7192383 208.453715 48.7192383 209.041934 48.7192383 209.544452 48.8059887 209.961283 48.9794922 210.378115 49.1529957 210.715595 49.413247 210.973734 49.7602539 211.134542 49.9718435 211.248799 50.2331527 211.316508 50.5441895 211.384216 50.8552262 211.41807 51.3217742 211.41807 51.9438477zM216.813578 49.6142578C216.957459 49.3095688 217.140481 49.0842292 217.36265 48.9382324 217.584819 48.7922356 217.852476 48.7192383 218.165629 48.7192383 218.736921 48.7192383 219.139993 48.9403461 219.374857 49.3825684 219.609722 49.8247906 219.727152 50.6573832 219.727152 51.8803711L219.727152 56 218.660746 56 218.660746 51.9311523C218.660746 50.9282176 218.604676 50.3050956 218.492533 50.0617676 218.380391 49.8184395 218.17621 49.6967773 217.879984 49.6967773 217.541441 49.6967773 217.309754 49.826903 217.184916 50.0871582 217.060078 50.3474134 216.99766 50.962072 216.99766 51.9311523L216.99766 56 215.931254 56 215.931254 51.9311523C215.931254 50.9155223 215.870952 50.2892264 215.750346 50.0522461 215.62974 49.8152657 215.412864 49.6967773 215.099711 49.6967773 214.79079 49.6967773 214.57603 49.826903 214.455424 50.0871582 214.334818 50.3474134 214.274516 50.962072 214.274516 51.9311523L214.274516 56 213.214457 56 213.214457 48.890625 214.274516 48.890625 214.274516 49.5C214.414165 49.2460925 214.588724 49.0524909 214.798197 48.9191895 215.007671 48.785888 215.245706 48.7192383 215.512309 48.7192383 215.833925 48.7192383 216.101582 48.7932935 216.315287 48.9414062 216.528993 49.089519 216.695088 49.3138006 216.813578 49.6142578zM227.458598 51.8613281L227.458598 52.4326172 222.399516 52.4326172 222.399516 52.4707031C222.365661 53.4397835 222.550799 54.1359028 222.954936 54.559082 223.359072 54.9822612 223.929297 55.1938477 224.665629 55.1938477 225.038027 55.1938477 225.427346 55.1346035 225.833598 55.0161133 226.23985 54.8976231 226.673602 54.7177746 227.134867 54.4765625L227.134867 55.6381836C226.690529 55.8201506 226.262067 55.9566239 225.849467 56.0476074 225.436867 56.1385909 225.038027 56.184082 224.652934 56.184082 223.548436 56.184082 222.685163 55.8529493 222.06309 55.1906738 221.441016 54.5283984 221.129984 53.615403 221.129984 52.4516602 221.129984 51.3175399 221.434669 50.41195 222.044047 49.7348633 222.653425 49.0577766 223.465917 48.7192383 224.481547 48.7192383 225.38715 48.7192383 226.101255 49.0260386 226.623881 49.6396484 227.146507 50.2532583 227.424743 50.9938108 227.458598 51.8613281zM226.290629 51.5185547C226.239847 51.0276668 226.061057 50.603436 225.754252 50.2458496 225.447447 49.8882632 225.006289 49.7094727 224.430766 49.7094727 223.867937 49.7094727 223.404563 49.8956687 223.040629 50.2680664 222.676695 50.6404641 222.477804 51.0594052 222.443949 51.5249023L226.290629 51.5185547zM237.837016 56.3237305C238.429467 56.3237305 238.815612 56.2327483 238.995463 56.0507812 239.175314 55.8688142 239.265238 55.4752634 239.265238 54.8701172L239.265238 53.543457C239.265238 52.8198206 239.417581 52.3194187 239.72227 52.0422363 240.026959 51.765054 240.589778 51.5778 241.410746 51.4804688 240.564388 51.3662104 239.99522 51.1810722 239.703227 50.9250488 239.411233 50.6690254 239.265238 50.1686235 239.265238 49.4238281L239.265238 47.7226562C239.265238 47.1217418 239.175314 46.729249 238.995463 46.545166 238.815612 46.3610831 238.429467 46.269043 237.837016 46.269043L237.39268 46.269043 237.39268 45.3613281 237.79893 45.3613281C238.852646 45.3613281 239.558287 45.5168441 239.915873 45.8278809 240.273459 46.1389176 240.45225 46.7620396 240.45225 47.6972656L240.45225 49.3476562C240.45225 49.8977892 240.56968 50.3146145 240.804545 50.5981445 241.039409 50.8816746 241.455177 51.0234375 242.051859 51.0234375L242.826273 51.0234375 242.826273 51.9311523 242.051859 51.9311523C241.505958 51.9311523 241.102886 52.0983056 240.842631 52.4326172 240.582376 52.7669288 240.45225 53.1647112 240.45225 53.6259766L240.45225 54.8955078C240.45225 55.8307338 240.273459 56.4549138 239.915873 56.7680664 239.558287 57.081219 238.852646 57.237793 237.79893 57.237793L237.39268 57.237793 237.39268 56.3237305 237.837016 56.3237305zM245.663676 56.3237305C246.256127 56.3237305 246.642272 56.2327483 246.822123 56.0507812 247.001974 55.8688142 247.091898 55.4752634 247.091898 54.8701172L247.091898 53.543457C247.091898 52.8198206 247.244241 52.3194187 247.54893 52.0422363 247.853619 51.765054 248.416439 51.5778 249.237406 51.4804688 248.391048 51.3662104 247.82188 51.1810722 247.529887 50.9250488 247.237893 50.6690254 247.091898 50.1686235 247.091898 49.4238281L247.091898 47.7226562C247.091898 47.1217418 247.001974 46.729249 246.822123 46.545166 246.642272 46.3610831 246.256127 46.269043 245.663676 46.269043L245.21934 46.269043 245.21934 45.3613281 245.62559 45.3613281C246.679306 45.3613281 247.384947 45.5168441 247.742533 45.8278809 248.10012 46.1389176 248.27891 46.7620396 248.27891 47.6972656L248.27891 49.3476562C248.27891 49.8977892 248.396341 50.3146145 248.631205 50.5981445 248.86607 50.8816746 249.281837 51.0234375 249.87852 51.0234375L250.652934 51.0234375 250.652934 51.9311523 249.87852 51.9311523C249.332618 51.9311523 248.929546 52.0983056 248.669291 52.4326172 248.409036 52.7669288 248.27891 53.1647112 248.27891 53.6259766L248.27891 54.8955078C248.27891 55.8307338 248.10012 56.4549138 247.742533 56.7680664 247.384947 57.081219 246.679306 57.237793 245.62559 57.237793L245.21934 57.237793 245.21934 56.3237305 245.663676 56.3237305zM261.322523 56.16C260.842523 56.16 260.442523 55.76 260.442523 55.28 260.442523 54.8 260.842523 54.4 261.322523 54.4 261.802523 54.4 262.202523 54.8 262.202523 55.28 262.202523 55.76 261.802523 56.16 261.322523 56.16zM273.002523 56L271.674523 56 271.674523 51.488 267.466523 45.328 269.018523 45.328 272.330523 50.288 275.642523 45.328 277.194523 45.328 273.002523 51.488 273.002523 56zM279.882523 56.192C277.530523 56.192 276.058523 54.368 276.058523 52.128 276.058523 49.888 277.530523 48.08 279.882523 48.08 282.234523 48.08 283.706523 49.888 283.706523 52.128 283.706523 54.368 282.234523 56.192 279.882523 56.192zM279.882523 55.12C281.530523 55.12 282.442523 53.712 282.442523 52.128 282.442523 50.56 281.530523 49.152 279.882523 49.152 278.234523 49.152 277.322523 50.56 277.322523 52.128 277.322523 53.712 278.234523 55.12 279.882523 55.12zM292.074523 56L290.874523 56 290.874523 54.912C290.282523 55.584 289.274523 56.192 288.122523 56.192 286.506523 56.192 285.658523 55.392 285.658523 53.728L285.658523 48.272 286.858523 48.272 286.858523 53.36C286.858523 54.72 287.546523 55.12 288.602523 55.12 289.530523 55.12 290.426523 54.576 290.874523 53.952L290.874523 48.272 292.074523 48.272 292.074523 56zM19.664 78.192C18.384 78.192 17.328 77.792 16.544 76.976L17.152 76.112C17.664 76.704 18.64 77.216 19.696 77.216 20.88 77.216 21.536 76.656 21.536 75.888 21.536 74.016 16.752 75.168 16.752 72.304 16.752 71.088 17.776 70.08 19.616 70.08 20.944 70.08 21.872 70.576 22.48 71.2L21.92 72.032C21.456 71.472 20.624 71.056 19.616 71.056 18.56 71.056 17.904 71.584 17.904 72.272 17.904 73.952 22.688 72.848 22.688 75.856 22.688 77.152 21.648 78.192 19.664 78.192zM30.672 78L29.472 78 29.472 77.12C28.848 77.824 27.952 78.192 26.912 78.192 25.616 78.192 24.224 77.312 24.224 75.632 24.224 73.888 25.6 73.088 26.912 73.088 27.968 73.088 28.848 73.424 29.472 74.128L29.472 72.736C29.472 71.712 28.64 71.12 27.52 71.12 26.592 71.12 25.84 71.44 25.152 72.192L24.592 71.36C25.424 70.496 26.416 70.08 27.68 70.08 29.328 70.08 30.672 70.816 30.672 72.688L30.672 78zM27.36 77.328C28.192 77.328 29.008 77.008 29.472 76.368L29.472 74.896C29.008 74.272 28.192 73.952 27.36 73.952 26.224 73.952 25.44 74.656 25.44 75.632 25.44 76.624 26.224 77.328 27.36 77.328zM36.464 78L35.152 78 31.936 70.272 33.248 70.272 35.808 76.608 38.384 70.272 39.68 70.272 36.464 78zM44.432 78.192C42.128 78.192 40.48 76.544 40.48 74.128 40.48 71.888 42.08 70.08 44.288 70.08 46.624 70.08 48 71.904 48 74.224L48 74.528 41.76 74.528C41.856 75.984 42.864 77.2 44.528 77.2 45.424 77.2 46.304 76.848 46.928 76.208L47.504 76.992C46.72 77.76 45.68 78.192 44.432 78.192zM46.816 73.632C46.8 72.496 46.032 71.072 44.272 71.072 42.624 71.072 41.808 72.464 41.744 73.632L46.816 73.632zM56.736 78L55.536 78 55.536 76.848C54.96 77.632 54.016 78.192 52.928 78.192 50.912 78.192 49.488 76.656 49.488 74.144 49.488 71.664 50.912 70.08 52.928 70.08 53.968 70.08 54.912 70.592 55.536 71.44L55.536 67.328 56.736 67.328 56.736 78zM53.232 77.12C54.176 77.12 55.12 76.56 55.536 75.888L55.536 72.4C55.12 71.728 54.176 71.152 53.232 71.152 51.664 71.152 50.736 72.432 50.736 74.144 50.736 75.856 51.664 77.12 53.232 77.12zM72.7747813 78.3237305L72.7747813 79.237793 72.3685313 79.237793C71.314815 79.237793 70.6091743 79.081219 70.2515879 78.7680664 69.8940015 78.4549138 69.7152109 77.8307338 69.7152109 76.8955078L69.7152109 75.6259766C69.7152109 75.1647112 69.5850853 74.7669288 69.3248301 74.4326172 69.0645749 74.0983056 68.6615027 73.9311523 68.1156016 73.9311523L67.3411875 73.9311523 67.3411875 73.0234375 68.1156016 73.0234375C68.7122842 73.0234375 69.1280516 72.8816746 69.362916 72.5981445 69.5977805 72.3146145 69.7152109 71.8977892 69.7152109 71.3476562L69.7152109 69.6972656C69.7152109 68.7620396 69.8940015 68.1389176 70.2515879 67.8278809 70.6091743 67.5168441 71.314815 67.3613281 72.3685313 67.3613281L72.7747813 67.3613281 72.7747813 68.269043 72.3304453 68.269043C71.7379944 68.269043 71.3518492 68.3610831 71.171998 68.545166 70.9921469 68.729249 70.9022227 69.1217418 70.9022227 69.7226562L70.9022227 71.4238281C70.9022227 72.1686235 70.756228 72.6690254 70.4642344 72.9250488 70.1722407 73.1810722 69.6030732 73.3662104 68.7567148 73.4804688 69.5776825 73.5778 70.1405024 73.765054 70.4451914 74.0422363 70.7498804 74.3194187 70.9022227 74.8198206 70.9022227 75.543457L70.9022227 76.8701172C70.9022227 77.4752634 70.9921469 77.8688142 71.171998 78.0507812 71.3518492 78.2327483 71.7379944 78.3237305 72.3304453 78.3237305L72.7747813 78.3237305zM80.6014414 78.3237305L80.6014414 79.237793 80.1951914 79.237793C79.1414752 79.237793 78.4358345 79.081219 78.078248 78.7680664 77.7206616 78.4549138 77.5418711 77.8307338 77.5418711 76.8955078L77.5418711 75.6259766C77.5418711 75.1647112 77.4117454 74.7669288 77.1514902 74.4326172 76.891235 74.0983056 76.4881629 73.9311523 75.9422617 73.9311523L75.1678477 73.9311523 75.1678477 73.0234375 75.9422617 73.0234375C76.5389444 73.0234375 76.9547117 72.8816746 77.1895762 72.5981445 77.4244406 72.3146145 77.5418711 71.8977892 77.5418711 71.3476562L77.5418711 69.6972656C77.5418711 68.7620396 77.7206616 68.1389176 78.078248 67.8278809 78.4358345 67.5168441 79.1414752 67.3613281 80.1951914 67.3613281L80.6014414 67.3613281 80.6014414 68.269043 80.1571055 68.269043C79.5646546 68.269043 79.1785094 68.3610831 78.9986582 68.545166 78.818807 68.729249 78.7288828 69.1217418 78.7288828 69.7226562L78.7288828 71.4238281C78.7288828 72.1686235 78.5828882 72.6690254 78.2908945 72.9250488 77.9989009 73.1810722 77.4297334 73.3662104 76.583375 73.4804688 77.4043426 73.5778 77.9671625 73.765054 78.2718516 74.0422363 78.5765406 74.3194187 78.7288828 74.8198206 78.7288828 75.543457L78.7288828 76.8701172C78.7288828 77.4752634 78.818807 77.8688142 78.9986582 78.0507812 79.1785094 78.2327483 79.5646546 78.3237305 80.1571055 78.3237305L80.6014414 78.3237305zM96.8133555 73.8613281L96.8133555 74.4326172 91.7542734 74.4326172 91.7542734 74.4707031C91.7204191 75.4397835 91.9055572 76.1359028 92.3096934 76.559082 92.7138295 76.9822612 93.2840549 77.1938477 94.0203867 77.1938477 94.3927844 77.1938477 94.7821034 77.1346035 95.1883555 77.0161133 95.5946075 76.8976231 96.0283597 76.7177746 96.489625 76.4765625L96.489625 77.6381836C96.0452868 77.8201506 95.6168243 77.9566239 95.2042246 78.0476074 94.7916249 78.1385909 94.3927845 78.184082 94.0076914 78.184082 92.9031937 78.184082 92.0399211 77.8529493 91.4178477 77.1906738 90.7957742 76.5283984 90.4847422 75.615403 90.4847422 74.4516602 90.4847422 73.3175399 90.7894266 72.41195 91.3988047 71.7348633 92.0081827 71.0577766 92.8206746 70.7192383 93.8363047 70.7192383 94.7419082 70.7192383 95.4560124 71.0260386 95.9786387 71.6396484 96.501265 72.2532583 96.7795011 72.9938108 96.8133555 73.8613281zM95.6453867 73.5185547C95.5946052 73.0276668 95.4158147 72.603436 95.1090098 72.2458496 94.8022048 71.8882632 94.3610471 71.7094727 93.7855234 71.7094727 93.2226951 71.7094727 92.7593208 71.8956687 92.3953867 72.2680664 92.0314526 72.6404641 91.8325614 73.0594052 91.798707 73.5249023L95.6453867 73.5185547zM98.1654063 70.890625L99.3778086 70.890625 101.440797 76.8574219 103.510133 70.890625 104.722535 70.890625 102.196168 78 100.691773 78 98.1654063 70.890625zM112.466676 73.8613281L112.466676 74.4326172 107.407594 74.4326172 107.407594 74.4707031C107.373739 75.4397835 107.558878 76.1359028 107.963014 76.559082 108.36715 76.9822612 108.937375 77.1938477 109.673707 77.1938477 110.046105 77.1938477 110.435424 77.1346035 110.841676 77.0161133 111.247928 76.8976231 111.68168 76.7177746 112.142945 76.4765625L112.142945 77.6381836C111.698607 77.8201506 111.270145 77.9566239 110.857545 78.0476074 110.444945 78.1385909 110.046105 78.184082 109.661012 78.184082 108.556514 78.184082 107.693241 77.8529493 107.071168 77.1906738 106.449095 76.5283984 106.138063 75.615403 106.138063 74.4516602 106.138063 73.3175399 106.442747 72.41195 107.052125 71.7348633 107.661503 71.0577766 108.473995 70.7192383 109.489625 70.7192383 110.395228 70.7192383 111.109333 71.0260386 111.631959 71.6396484 112.154585 72.2532583 112.432821 72.9938108 112.466676 73.8613281zM111.298707 73.5185547C111.247926 73.0276668 111.069135 72.603436 110.76233 72.2458496 110.455525 71.8882632 110.014367 71.7094727 109.438844 71.7094727 108.876015 71.7094727 108.412641 71.8956687 108.048707 72.2680664 107.684773 72.6404641 107.485882 73.0594052 107.452027 73.5249023L111.298707 73.5185547zM119.855348 73.5947266L119.855348 78 118.681031 78 118.681031 73.5947266C118.681031 72.955726 118.56889 72.4860041 118.344605 72.1855469 118.12032 71.8850896 117.769087 71.7348633 117.290895 71.7348633 116.744993 71.7348633 116.324994 71.9284649 116.030885 72.3156738 115.736775 72.7028828 115.589723 73.2582972 115.589723 73.9819336L115.589723 78 114.421754 78 114.421754 70.890625 115.589723 70.890625 115.589723 71.9570312C115.79708 71.5507792 116.07849 71.242921 116.433961 71.0334473 116.789431 70.8239736 117.210488 70.7192383 117.697145 70.7192383 118.420781 70.7192383 118.961384 70.957273 119.318971 71.4333496 119.676557 71.9094262 119.855348 72.629878 119.855348 73.5947266zM124.908082 68.8720703L124.908082 70.890625 127.561402 70.890625 127.561402 71.7983398 124.908082 71.7983398 124.908082 75.6577148C124.908082 76.1824571 125.007528 76.5485016 125.206422 76.7558594 125.405316 76.9632172 125.752318 77.0668945 126.247438 77.0668945L127.561402 77.0668945 127.561402 78 126.13318 78C125.257199 78 124.639366 77.8243833 124.279664 77.4731445 123.919962 77.1219058 123.740113 76.5167686 123.740113 75.6577148L123.740113 71.7983398 121.842164 71.7983398 121.842164 70.890625 123.740113 70.890625 123.740113 68.8720703 124.908082 68.8720703zM131.30652 75.4355469L133.540895 75.4355469 133.540895 78 131.30652 78 131.30652 75.4355469zM142.840211 71.1381836L142.840211 72.2807617C142.505899 72.0860993 142.169477 71.9401047 141.830934 71.8427734 141.49239 71.7454422 141.147504 71.6967773 140.796266 71.6967773 140.267292 71.6967773 139.872683 71.7824698 139.612428 71.9538574 139.352173 72.125245 139.222047 72.3865542 139.222047 72.737793 139.222047 73.0551774 139.319377 73.2921542 139.514039 73.4487305 139.708701 73.6053068 140.193234 73.757649 140.967652 73.9057617L141.437379 73.9946289C142.017134 74.1046555 142.456176 74.3247054 142.754518 74.6547852 143.052859 74.9848649 143.202027 75.4143854 143.202027 75.9433594 143.202027 76.6458368 142.952355 77.1949036 142.453004 77.5905762 141.953652 77.9862487 141.259649 78.184082 140.370973 78.184082 140.019734 78.184082 139.651574 78.1470544 139.26648 78.072998 138.881387 77.9989417 138.464562 77.8878588 138.015992 77.7397461L138.015992 76.5336914C138.451867 76.7579764 138.868692 76.9261876 139.26648 77.0383301 139.664269 77.1504726 140.040893 77.206543 140.396363 77.206543 140.912642 77.206543 141.31254 77.1018077 141.59607 76.892334 141.8796 76.6828603 142.021363 76.3898131 142.021363 76.0131836 142.021363 75.4715142 141.502977 75.0970062 140.466187 74.8896484L140.415406 74.8769531 139.977418 74.7880859C139.304563 74.6569004 138.813683 74.4357926 138.504762 74.1247559 138.195841 73.8137191 138.041383 73.3894884 138.041383 72.8520508 138.041383 72.1707323 138.272012 71.64494 138.733277 71.2746582 139.194543 70.9043764 139.852576 70.7192383 140.707398 70.7192383 141.08826 70.7192383 141.454304 70.75415 141.805543 70.8239746 142.156782 70.8937992 142.501668 70.9985345 142.840211 71.1381836zM150.038453 74.4262695L148.559449 74.4262695C147.878131 74.4262695 147.365034 74.5458159 147.020143 74.7849121 146.675252 75.0240084 146.502809 75.3805315 146.502809 75.8544922 146.502809 76.2819032 146.631876 76.6140939 146.890016 76.8510742 147.148155 77.0880546 147.505736 77.206543 147.96277 77.206543 148.606002 77.206543 149.111693 76.9833193 149.479859 76.5368652 149.848025 76.0904112 150.034221 75.4736367 150.038453 74.6865234L150.038453 74.4262695zM151.21277 73.9438477L151.21277 78 150.038453 78 150.038453 76.9462891C149.788777 77.3694683 149.474572 77.6815582 149.095826 77.8825684 148.717081 78.0835785 148.25688 78.184082 147.715211 78.184082 146.991575 78.184082 146.413944 77.9799011 145.982301 77.5715332 145.550658 77.1631653 145.33484 76.6162144 145.33484 75.9306641 145.33484 75.139319 145.600381 74.5384135 146.131471 74.1279297 146.662561 73.7174459 147.442257 73.512207 148.470582 73.512207L150.038453 73.512207 150.038453 73.328125C150.034221 72.7610649 149.890343 72.3495293 149.606812 72.0935059 149.323282 71.8374824 148.870487 71.7094727 148.248414 71.7094727 147.850626 71.7094727 147.448611 71.766601 147.042359 71.8808594 146.636107 71.9951178 146.240441 72.162271 145.855348 72.3823242L145.855348 71.2143555C146.28699 71.0493156 146.700642 70.9255375 147.096314 70.8430176 147.491987 70.7604976 147.876016 70.7192383 148.248414 70.7192383 148.836633 70.7192383 149.339151 70.8059887 149.755982 70.9794922 150.172814 71.1529957 150.510294 71.413247 150.768434 71.7602539 150.929242 71.9718435 151.043498 72.2331527 151.111207 72.5441895 151.178916 72.8552262 151.21277 73.3217742 151.21277 73.9438477zM152.952027 70.890625L154.16443 70.890625 156.227418 76.8574219 158.296754 70.890625 159.509156 70.890625 156.982789 78 155.478395 78 152.952027 70.890625zM162.149781 70.9160156L165.139527 70.9160156 165.139527 77.0922852 167.456422 77.0922852 167.456422 78 161.654664 78 161.654664 77.0922852 163.971559 77.0922852 163.971559 71.8237305 162.149781 71.8237305 162.149781 70.9160156zM163.971559 68.1547852L165.139527 68.1547852 165.139527 69.6274414 163.971559 69.6274414 163.971559 68.1547852zM174.641969 73.5947266L174.641969 78 173.467652 78 173.467652 73.5947266C173.467652 72.955726 173.355512 72.4860041 173.131227 72.1855469 172.906942 71.8850896 172.555708 71.7348633 172.077516 71.7348633 171.531614 71.7348633 171.111615 71.9284649 170.817506 72.3156738 170.523396 72.7028828 170.376344 73.2582972 170.376344 73.9819336L170.376344 78 169.208375 78 169.208375 70.890625 170.376344 70.890625 170.376344 71.9570312C170.583702 71.5507792 170.865112 71.242921 171.220582 71.0334473 171.576053 70.8239736 171.99711 70.7192383 172.483766 70.7192383 173.207402 70.7192383 173.748005 70.957273 174.105592 71.4333496 174.463178 71.9094262 174.641969 72.629878 174.641969 73.5947266zM181.243531 74.3881836C181.243531 73.5122027 181.10071 72.8467633 180.815064 72.3918457 180.529418 71.9369281 180.113651 71.7094727 179.56775 71.7094727 178.996458 71.7094727 178.56059 71.9369281 178.260133 72.3918457 177.959676 72.8467633 177.809449 73.5122027 177.809449 74.3881836 177.809449 75.2641645 177.960734 75.9317197 178.263307 76.3908691 178.56588 76.8500186 179.004922 77.0795898 179.580445 77.0795898 180.117883 77.0795898 180.529418 76.8489606 180.815064 76.3876953 181.10071 75.92643 181.243531 75.2599327 181.243531 74.3881836zM182.4115 77.5429688C182.4115 78.6093803 182.159712 79.4176405 181.656129 79.9677734 181.152546 80.5179064 180.411993 80.7929688 179.434449 80.7929688 179.112833 80.7929688 178.776411 80.7633467 178.425172 80.7041016 178.073933 80.6448565 177.7227 80.558106 177.371461 80.4438477L177.371461 79.2885742C177.786177 79.4832367 178.1628 79.6271154 178.501344 79.7202148 178.839887 79.8133143 179.150919 79.8598633 179.434449 79.8598633 180.064986 79.8598633 180.524129 79.6884783 180.811891 79.3457031 181.099652 79.002928 181.243531 78.4591509 181.243531 77.7143555L181.243531 76.8701172C181.057332 77.2679056 180.803429 77.5641266 180.481812 77.7587891 180.160196 77.9534515 179.768761 78.0507812 179.307496 78.0507812 178.478065 78.0507812 177.815799 77.7185906 177.32068 77.0541992 176.82556 76.3898079 176.578004 75.5011449 176.578004 74.3881836 176.578004 73.2709905 176.82556 72.3802117 177.32068 71.7158203 177.815799 71.051429 178.478065 70.7192383 179.307496 70.7192383 179.76453 70.7192383 180.151733 70.8102204 180.469117 70.9921875 180.786502 71.1741546 181.044637 71.4555645 181.243531 71.8364258L181.243531 70.9160156 182.4115 70.9160156 182.4115 77.5429688zM191.393434 79.2060547L191.393434 80.2851562 183.623902 80.2851562 183.623902 79.2060547 191.393434 79.2060547zM196.998414 74.4262695L195.51941 74.4262695C194.838092 74.4262695 194.324995 74.5458159 193.980104 74.7849121 193.635212 75.0240084 193.46277 75.3805315 193.46277 75.8544922 193.46277 76.2819032 193.591837 76.6140939 193.849977 76.8510742 194.108116 77.0880546 194.465697 77.206543 194.92273 77.206543 195.565963 77.206543 196.071654 76.9833193 196.43982 76.5368652 196.807986 76.0904112 196.994182 75.4736367 196.998414 74.6865234L196.998414 74.4262695zM198.17273 73.9438477L198.17273 78 196.998414 78 196.998414 76.9462891C196.748738 77.3694683 196.434532 77.6815582 196.055787 77.8825684 195.677042 78.0835785 195.216841 78.184082 194.675172 78.184082 193.951535 78.184082 193.373905 77.9799011 192.942262 77.5715332 192.510619 77.1631653 192.294801 76.6162144 192.294801 75.9306641 192.294801 75.139319 192.560342 74.5384135 193.091432 74.1279297 193.622522 73.7174459 194.402218 73.512207 195.430543 73.512207L196.998414 73.512207 196.998414 73.328125C196.994182 72.7610649 196.850304 72.3495293 196.566773 72.0935059 196.283243 71.8374824 195.830448 71.7094727 195.208375 71.7094727 194.810587 71.7094727 194.408572 71.766601 194.00232 71.8808594 193.596068 71.9951178 193.200402 72.162271 192.815309 72.3823242L192.815309 71.2143555C193.246951 71.0493156 193.660603 70.9255375 194.056275 70.8430176 194.451948 70.7604976 194.835977 70.7192383 195.208375 70.7192383 195.796594 70.7192383 196.299112 70.8059887 196.715943 70.9794922 197.132775 71.1529957 197.470255 71.413247 197.728395 71.7602539 197.889203 71.9718435 198.003459 72.2331527 198.071168 72.5441895 198.138877 72.8552262 198.17273 73.3217742 198.17273 73.9438477zM203.568238 71.6142578C203.712119 71.3095688 203.895141 71.0842292 204.117311 70.9382324 204.33948 70.7922356 204.607136 70.7192383 204.920289 70.7192383 205.491581 70.7192383 205.894653 70.9403461 206.129518 71.3825684 206.364382 71.8247906 206.481812 72.6573832 206.481812 73.8803711L206.481812 78 205.415406 78 205.415406 73.9311523C205.415406 72.9282176 205.359336 72.3050956 205.247193 72.0617676 205.135051 71.8184395 204.93087 71.6967773 204.634645 71.6967773 204.296101 71.6967773 204.064414 71.826903 203.939576 72.0871582 203.814738 72.3474134 203.75232 72.962072 203.75232 73.9311523L203.75232 78 202.685914 78 202.685914 73.9311523C202.685914 72.9155223 202.625612 72.2892264 202.505006 72.0522461 202.3844 71.8152657 202.167524 71.6967773 201.854371 71.6967773 201.54545 71.6967773 201.33069 71.826903 201.210084 72.0871582 201.089478 72.3474134 201.029176 72.962072 201.029176 73.9311523L201.029176 78 199.969117 78 199.969117 70.890625 201.029176 70.890625 201.029176 71.5C201.168825 71.2460925 201.343384 71.0524909 201.552857 70.9191895 201.762331 70.785888 202.000366 70.7192383 202.266969 70.7192383 202.588585 70.7192383 202.856242 70.7932935 203.069947 70.9414062 203.283653 71.089519 203.449748 71.3138006 203.568238 71.6142578zM211.014039 71.7094727C210.421588 71.7094727 209.973025 71.9401019 209.668336 72.4013672 209.363647 72.8626325 209.211305 73.5460567 209.211305 74.4516602 209.211305 75.3530319 209.363647 76.0353981 209.668336 76.4987793 209.973025 76.9621605 210.421588 77.1938477 211.014039 77.1938477 211.610722 77.1938477 212.061401 76.9621605 212.36609 76.4987793 212.670779 76.0353981 212.823121 75.3530319 212.823121 74.4516602 212.823121 73.5460567 212.670779 72.8626325 212.36609 72.4013672 212.061401 71.9401019 211.610722 71.7094727 211.014039 71.7094727zM211.014039 70.7192383C212.000047 70.7192383 212.754352 71.0387338 213.276979 71.6777344 213.799605 72.316735 214.060914 73.2413676 214.060914 74.4516602 214.060914 75.6661845 213.800663 76.5918751 213.280152 77.2287598 212.759642 77.8656445 212.004278 78.184082 211.014039 78.184082 210.028032 78.184082 209.274784 77.8656445 208.754273 77.2287598 208.233763 76.5918751 207.973512 75.6661845 207.973512 74.4516602 207.973512 73.2413676 208.233763 72.316735 208.754273 71.6777344 209.274784 71.0387338 210.028032 70.7192383 211.014039 70.7192383zM216.168336 75.3085938L216.168336 70.9033203 217.336305 70.9033203 217.336305 75.3085938C217.336305 75.9475943 217.449503 76.4173162 217.675904 76.7177734 217.902305 77.0182307 218.252481 77.168457 218.726441 77.168457 219.276574 77.168457 219.697631 76.9748555 219.989625 76.5876465 220.281619 76.2004375 220.427613 75.6450231 220.427613 74.9213867L220.427613 70.9033203 221.60193 70.9033203 221.60193 78 220.427613 78 220.427613 76.9335938C220.220255 77.3440776 219.937788 77.6551096 219.580201 77.8666992 219.222615 78.0782888 218.804732 78.184082 218.326539 78.184082 217.598671 78.184082 217.05701 77.9460473 216.701539 77.4699707 216.346069 76.9938941 216.168336 76.2734423 216.168336 75.3085938zM229.42859 73.5947266L229.42859 78 228.254273 78 228.254273 73.5947266C228.254273 72.955726 228.142133 72.4860041 227.917848 72.1855469 227.693563 71.8850896 227.342329 71.7348633 226.864137 71.7348633 226.318236 71.7348633 225.898236 71.9284649 225.604127 72.3156738 225.310017 72.7028828 225.162965 73.2582972 225.162965 73.9819336L225.162965 78 223.994996 78 223.994996 70.890625 225.162965 70.890625 225.162965 71.9570312C225.370323 71.5507792 225.651733 71.242921 226.007203 71.0334473 226.362674 70.8239736 226.783731 70.7192383 227.270387 70.7192383 227.994023 70.7192383 228.534626 70.957273 228.892213 71.4333496 229.249799 71.9094262 229.42859 72.629878 229.42859 73.5947266zM234.481324 68.8720703L234.481324 70.890625 237.134645 70.890625 237.134645 71.7983398 234.481324 71.7983398 234.481324 75.6577148C234.481324 76.1824571 234.58077 76.5485016 234.779664 76.7558594 234.978558 76.9632172 235.32556 77.0668945 235.82068 77.0668945L237.134645 77.0668945 237.134645 78 235.706422 78C234.830441 78 234.212609 77.8243833 233.852906 77.4731445 233.493204 77.1219058 233.313355 76.5167686 233.313355 75.6577148L233.313355 71.7983398 231.415406 71.7983398 231.415406 70.890625 233.313355 70.890625 233.313355 68.8720703 234.481324 68.8720703zM250.947145 68.065918L250.947145 81.065918 249.855348 81.065918 249.855348 68.065918 250.947145 68.065918zM26.2070312 99.1049805L26.2070312 102.704102 25.0327148 102.704102 25.0327148 92.890625 26.2070312 92.890625 26.2070312 93.7983398C26.4016937 93.4471011 26.6608871 93.1794443 26.9846191 92.9953613 27.3083512 92.8112784 27.6818013 92.7192383 28.1049805 92.7192383 28.9640342 92.7192383 29.637937 93.051429 30.126709 93.7158203 30.615481 94.3802117 30.8598633 95.3006126 30.8598633 96.4770508 30.8598633 97.63233 30.614423 98.5389778 30.1235352 99.1970215 29.6326473 99.8550651 28.9598025 100.184082 28.1049805 100.184082 27.6733377 100.184082 27.2956559 100.092042 26.9719238 99.907959 26.6481917 99.723876 26.3932301 99.4562192 26.2070312 99.1049805zM29.6347656 96.4516602C29.6347656 95.5460567 29.4919448 94.8626325 29.2062988 94.4013672 28.9206529 93.9401019 28.4964221 93.7094727 27.9335938 93.7094727 27.3665336 93.7094727 26.9370132 93.9411598 26.6450195 94.404541 26.3530259 94.8679222 26.2070312 95.5502885 26.2070312 96.4516602 26.2070312 97.3488001 26.3530259 98.0301083 26.6450195 98.4956055 26.9370132 98.9611026 27.3665336 99.1938477 27.9335938 99.1938477 28.4964221 99.1938477 28.9206529 98.9632185 29.2062988 98.5019531 29.4919448 98.0406878 29.6347656 97.3572636 29.6347656 96.4516602zM38.9848633 94.3569336C38.7351876 94.1622712 38.4812838 94.0205083 38.2231445 93.9316406 37.9650052 93.842773 37.6814794 93.7983398 37.3725586 93.7983398 36.6446904 93.7983398 36.0882181 94.0268532 35.703125 94.4838867 35.3180319 94.9409203 35.1254883 95.6010699 35.1254883 96.4643555L35.1254883 100 33.9511719 100 33.9511719 92.890625 35.1254883 92.890625 35.1254883 94.2807617C35.3201507 93.7771785 35.6195455 93.3910332 36.0236816 93.1223145 36.4278178 92.8535957 36.907061 92.7192383 37.4614258 92.7192383 37.7491876 92.7192383 38.0179024 92.755208 38.2675781 92.8271484 38.5172539 92.8990889 38.7563465 93.0112297 38.9848633 93.1635742L38.9848633 94.3569336zM46.5893555 95.8613281L46.5893555 96.4326172 41.5302734 96.4326172 41.5302734 96.4707031C41.4964191 97.4397835 41.6815572 98.1359028 42.0856934 98.559082 42.4898295 98.9822612 43.0600549 99.1938477 43.7963867 99.1938477 44.1687844 99.1938477 44.5581034 99.1346035 44.9643555 99.0161133 45.3706075 98.8976231 45.8043597 98.7177746 46.265625 98.4765625L46.265625 99.6381836C45.8212868 99.8201506 45.3928243 99.9566239 44.9802246 100.047607 44.5676249 100.138591 44.1687845 100.184082 43.7836914 100.184082 42.6791937 100.184082 41.8159211 99.8529493 41.1938477 99.1906738 40.5717742 98.5283984 40.2607422 97.615403 40.2607422 96.4516602 40.2607422 95.3175399 40.5654266 94.41195 41.1748047 93.7348633 41.7841827 93.0577766 42.5966746 92.7192383 43.6123047 92.7192383 44.5179082 92.7192383 45.2320124 93.0260386 45.7546387 93.6396484 46.277265 94.2532583 46.5555011 94.9938108 46.5893555 95.8613281zM45.4213867 95.5185547C45.3706052 95.0276668 45.1918147 94.603436 44.8850098 94.2458496 44.5782048 93.8882632 44.1370471 93.7094727 43.5615234 93.7094727 42.9986951 93.7094727 42.5353208 93.8956687 42.1713867 94.2680664 41.8074526 94.6404641 41.6085614 95.0594052 41.574707 95.5249023L45.4213867 95.5185547zM49.6870117 99.1049805L49.6870117 102.704102 48.5126953 102.704102 48.5126953 92.890625 49.6870117 92.890625 49.6870117 93.7983398C49.8816742 93.4471011 50.1408675 93.1794443 50.4645996 92.9953613 50.7883317 92.8112784 51.1617817 92.7192383 51.5849609 92.7192383 52.4440147 92.7192383 53.1179175 93.051429 53.6066895 93.7158203 54.0954614 94.3802117 54.3398438 95.3006126 54.3398438 96.4770508 54.3398438 97.63233 54.0944035 98.5389778 53.6035156 99.1970215 53.1126278 99.8550651 52.4397829 100.184082 51.5849609 100.184082 51.1533182 100.184082 50.7756364 100.092042 50.4519043 99.907959 50.1281722 99.723876 49.8732106 99.4562192 49.6870117 99.1049805zM53.1147461 96.4516602C53.1147461 95.5460567 52.9719253 94.8626325 52.6862793 94.4013672 52.4006333 93.9401019 51.9764026 93.7094727 51.4135742 93.7094727 50.8465141 93.7094727 50.4169936 93.9411598 50.125 94.404541 49.8330064 94.8679222 49.6870117 95.5502885 49.6870117 96.4516602 49.6870117 97.3488001 49.8330064 98.0301083 50.125 98.4956055 50.4169936 98.9611026 50.8465141 99.1938477 51.4135742 99.1938477 51.9764026 99.1938477 52.4006333 98.9632185 52.6862793 98.5019531 52.9719253 98.0406878 53.1147461 97.3572636 53.1147461 96.4516602zM62.2426758 95.8613281L62.2426758 96.4326172 57.1835938 96.4326172 57.1835938 96.4707031C57.1497394 97.4397835 57.3348775 98.1359028 57.7390137 98.559082 58.1431498 98.9822612 58.7133752 99.1938477 59.449707 99.1938477 59.8221047 99.1938477 60.2114237 99.1346035 60.6176758 99.0161133 61.0239278 98.8976231 61.45768 98.7177746 61.9189453 98.4765625L61.9189453 99.6381836C61.4746072 99.8201506 61.0461446 99.9566239 60.6335449 100.047607 60.2209452 100.138591 59.8221048 100.184082 59.4370117 100.184082 58.332514 100.184082 57.4692414 99.8529493 56.847168 99.1906738 56.2250945 98.5283984 55.9140625 97.615403 55.9140625 96.4516602 55.9140625 95.3175399 56.218747 94.41195 56.828125 93.7348633 57.437503 93.0577766 58.2499949 92.7192383 59.265625 92.7192383 60.1712285 92.7192383 60.8853327 93.0260386 61.407959 93.6396484 61.9305853 94.2532583 62.2088214 94.9938108 62.2426758 95.8613281zM61.074707 95.5185547C61.0239255 95.0276668 60.845135 94.603436 60.5383301 94.2458496 60.2315252 93.8882632 59.7903675 93.7094727 59.2148438 93.7094727 58.6520154 93.7094727 58.1886411 93.8956687 57.824707 94.2680664 57.4607729 94.6404641 57.2618817 95.0594052 57.2280273 95.5249023L61.074707 95.5185547zM69.6313477 95.5947266L69.6313477 100 68.4570312 100 68.4570312 95.5947266C68.4570312 94.955726 68.3448904 94.4860041 68.1206055 94.1855469 67.8963205 93.8850896 67.545087 93.7348633 67.0668945 93.7348633 66.5209934 93.7348633 66.1009943 93.9284649 65.8068848 94.3156738 65.5127752 94.7028828 65.3657227 95.2582972 65.3657227 95.9819336L65.3657227 100 64.1977539 100 64.1977539 92.890625 65.3657227 92.890625 65.3657227 93.9570312C65.5730805 93.5507792 65.8544904 93.242921 66.2099609 93.0334473 66.5654315 92.8239736 66.9864885 92.7192383 67.4731445 92.7192383 68.196781 92.7192383 68.7373843 92.957273 69.0949707 93.4333496 69.4525571 93.9094262 69.6313477 94.629878 69.6313477 95.5947266zM76.2329102 93.7983398L76.2329102 90.1230469 77.4008789 90.1230469 77.4008789 100 76.2329102 100 76.2329102 99.1049805C76.0382477 99.4562192 75.7790544 99.723876 75.4553223 99.907959 75.1315902 100.092042 74.7581401 100.184082 74.3349609 100.184082 73.4759072 100.184082 72.7998885 99.8508334 72.3068848 99.1843262 71.813881 98.5178189 71.5673828 97.5984759 71.5673828 96.4262695 71.5673828 95.2709903 71.8149389 94.3643425 72.3100586 93.7062988 72.8051783 93.0482552 73.480139 92.7192383 74.3349609 92.7192383 74.7623719 92.7192383 75.1389958 92.8112784 75.4648438 92.9953613 75.7906917 93.1794443 76.0467113 93.4471011 76.2329102 93.7983398zM72.7988281 96.4516602C72.7988281 97.3572636 72.9427069 98.0406878 73.2304688 98.5019531 73.5182306 98.9632185 73.9435193 99.1938477 74.5063477 99.1938477 75.069176 99.1938477 75.4976385 98.9611026 75.791748 98.4956055 76.0858576 98.0301083 76.2329102 97.3488001 76.2329102 96.4516602 76.2329102 95.5502885 76.0858576 94.8679222 75.791748 94.404541 75.4976385 93.9411598 75.069176 93.7094727 74.5063477 93.7094727 73.9435193 93.7094727 73.5182306 93.9401019 73.2304688 94.4013672 72.9427069 94.8626325 72.7988281 95.5460567 72.7988281 96.4516602zM89.4677734 89.6025391L91.2514648 91.9892578 90.2739258 91.9892578 88.2109375 89.6025391 89.4677734 89.6025391zM98.6591797 96.3183594L98.6591797 99.0732422C99.1246768 99.0605468 99.4886055 98.9314791 99.7509766 98.6860352 100.013348 98.4405912 100.144531 98.1062847 100.144531 97.6831055 100.144531 97.2895488 100.026043 96.9838064 99.7890625 96.7658691 99.5520821 96.5479319 99.1754583 96.3987634 98.6591797 96.3183594zM98.0244141 95.1123047L98.0244141 92.4907227C97.5843077 92.5076498 97.2404798 92.6346017 96.9929199 92.871582 96.7453601 93.1085624 96.621582 93.425942 96.621582 93.8237305 96.621582 94.1876646 96.7368966 94.4754221 96.9675293 94.6870117 97.198162 94.8986013 97.5504534 95.0403642 98.0244141 95.1123047zM98.6591797 101.910645L98.0244141 101.910645 98.0180664 100C97.5864236 99.978841 97.1579611 99.9195968 96.732666 99.8222656 96.3073709 99.7249344 95.8873719 99.5895191 95.4726562 99.4160156L95.4726562 98.2734375C95.8958354 98.5358086 96.3221821 98.7368157 96.751709 98.8764648 97.1812359 99.016114 97.6054667 99.0901692 98.0244141 99.0986328L98.0244141 96.1914062C97.1780557 96.0602207 96.5411805 95.8020853 96.1137695 95.4169922 95.6863585 95.0318991 95.4726562 94.5219758 95.4726562 93.887207 95.4726562 93.2228157 95.6958799 92.6927917 96.142334 92.2971191 96.588788 91.9014466 97.2161418 91.6739912 98.0244141 91.6147461L98.0244141 90.1230469 98.6591797 90.1230469 98.6655273 91.6147461C98.9998389 91.6359051 99.3383772 91.6782223 99.6811523 91.7416992 100.023927 91.8051761 100.373045 91.8919265 100.728516 92.0019531L100.728516 93.1000977C100.368813 92.9181306 100.018638 92.7774256 99.6779785 92.6779785 99.3373193 92.5785314 98.997723 92.5203451 98.6591797 92.503418L98.6591797 95.2392578C99.5309288 95.3704434 100.19531 95.641274 100.652344 96.0517578 101.109377 96.4622416 101.337891 96.9933236 101.337891 97.6450195 101.337891 98.2967155 101.091392 98.8404926 100.598389 99.2763672 100.105385 99.7122418 99.4611042 99.9492186 98.6655273 99.9873047L98.6591797 101.910645zM105.121094 89.6025391L106.904785 91.9892578 105.927246 91.9892578 103.864258 89.6025391 105.121094 89.6025391zM119.581055 100.32373C120.173506 100.32373 120.559651 100.232748 120.739502 100.050781 120.919353 99.8688142 121.009277 99.4752634 121.009277 98.8701172L121.009277 97.543457C121.009277 96.8198206 121.16162 96.3194187 121.466309 96.0422363 121.770998 95.765054 122.333818 95.5778 123.154785 95.4804688 122.308427 95.3662104 121.739259 95.1810722 121.447266 94.9250488 121.155272 94.6690254 121.009277 94.1686235 121.009277 93.4238281L121.009277 91.7226562C121.009277 91.1217418 120.919353 90.729249 120.739502 90.545166 120.559651 90.3610831 120.173506 90.269043 119.581055 90.269043L119.136719 90.269043 119.136719 89.3613281 119.542969 89.3613281C120.596685 89.3613281 121.302326 89.5168441 121.659912 89.8278809 122.017499 90.1389176 122.196289 90.7620396 122.196289 91.6972656L122.196289 93.3476562C122.196289 93.8977892 122.31372 94.3146145 122.548584 94.5981445 122.783448 94.8816746 123.199216 95.0234375 123.795898 95.0234375L124.570312 95.0234375 124.570312 95.9311523 123.795898 95.9311523C123.249997 95.9311523 122.846925 96.0983056 122.58667 96.4326172 122.326415 96.7669288 122.196289 97.1647112 122.196289 97.6259766L122.196289 98.8955078C122.196289 99.8307338 122.017499 100.454914 121.659912 100.768066 121.302326 101.081219 120.596685 101.237793 119.542969 101.237793L119.136719 101.237793 119.136719 100.32373 119.581055 100.32373zM127.407715 100.32373C128.000166 100.32373 128.386311 100.232748 128.566162 100.050781 128.746013 99.8688142 128.835938 99.4752634 128.835938 98.8701172L128.835938 97.543457C128.835938 96.8198206 128.98828 96.3194187 129.292969 96.0422363 129.597658 95.765054 130.160478 95.5778 130.981445 95.4804688 130.135087 95.3662104 129.565919 95.1810722 129.273926 94.9250488 128.981932 94.6690254 128.835938 94.1686235 128.835938 93.4238281L128.835938 91.7226562C128.835938 91.1217418 128.746013 90.729249 128.566162 90.545166 128.386311 90.3610831 128.000166 90.269043 127.407715 90.269043L126.963379 90.269043 126.963379 89.3613281 127.369629 89.3613281C128.423345 89.3613281 129.128986 89.5168441 129.486572 89.8278809 129.844159 90.1389176 130.022949 90.7620396 130.022949 91.6972656L130.022949 93.3476562C130.022949 93.8977892 130.14038 94.3146145 130.375244 94.5981445 130.610109 94.8816746 131.025876 95.0234375 131.622559 95.0234375L132.396973 95.0234375 132.396973 95.9311523 131.622559 95.9311523C131.076657 95.9311523 130.673585 96.0983056 130.41333 96.4326172 130.153075 96.7669288 130.022949 97.1647112 130.022949 97.6259766L130.022949 98.8955078C130.022949 99.8307338 129.844159 100.454914 129.486572 100.768066 129.128986 101.081219 128.423345 101.237793 127.369629 101.237793L126.963379 101.237793 126.963379 100.32373 127.407715 100.32373zM144.855902 100.192C143.703902 100.192 143.127902 99.536 143.127902 98.384L143.127902 93.328 141.847902 93.328 141.847902 92.272 143.127902 92.272 143.127902 90.16 144.343902 90.16 144.343902 92.272 145.911902 92.272 145.911902 93.328 144.343902 93.328 144.343902 98.128C144.343902 98.704 144.599902 99.12 145.111902 99.12 145.463902 99.12 145.767902 98.96 145.927902 98.784L146.279902 99.696C145.975902 99.984 145.543902 100.192 144.855902 100.192zM154.023902 100L152.823902 100 152.823902 94.912C152.823902 93.536 152.135902 93.152 151.079902 93.152 150.151902 93.152 149.255902 93.728 148.807902 94.352L148.807902 100 147.607902 100 147.607902 89.328 148.807902 89.328 148.807902 93.392C149.335902 92.736 150.391902 92.08 151.559902 92.08 153.175902 92.08 154.023902 92.864 154.023902 94.544L154.023902 100zM157.031902 91.168C156.583902 91.168 156.215902 90.816 156.215902 90.368 156.215902 89.92 156.583902 89.552 157.031902 89.552 157.479902 89.552 157.831902 89.92 157.831902 90.368 157.831902 90.816 157.479902 91.168 157.031902 91.168zM157.623902 100L156.423902 100 156.423902 92.272 157.623902 92.272 157.623902 100zM162.487902 100.192C161.207902 100.192 160.151902 99.792 159.367902 98.976L159.975902 98.112C160.487902 98.704 161.463902 99.216 162.519902 99.216 163.703902 99.216 164.359902 98.656 164.359902 97.888 164.359902 96.016 159.575902 97.168 159.575902 94.304 159.575902 93.088 160.599902 92.08 162.439902 92.08 163.767902 92.08 164.695902 92.576 165.303902 93.2L164.743902 94.032C164.279902 93.472 163.447902 93.056 162.439902 93.056 161.383902 93.056 160.727902 93.584 160.727902 94.272 160.727902 95.952 165.511902 94.848 165.511902 97.856 165.511902 99.152 164.471902 100.192 162.487902 100.192zM179.511902 100L178.295902 100 176.279902 93.792 174.263902 100 173.063902 100 170.599902 92.272 171.847902 92.272 173.735902 98.432 175.767902 92.272 176.807902 92.272 178.823902 98.432 180.711902 92.272 181.975902 92.272 179.511902 100zM186.855902 100.192C184.551902 100.192 182.903902 98.544 182.903902 96.128 182.903902 93.888 184.503902 92.08 186.711902 92.08 189.047902 92.08 190.423902 93.904 190.423902 96.224L190.423902 96.528 184.183902 96.528C184.279902 97.984 185.287902 99.2 186.951902 99.2 187.847902 99.2 188.727902 98.848 189.351902 98.208L189.927902 98.992C189.143902 99.76 188.103902 100.192 186.855902 100.192zM189.239902 95.632C189.223902 94.496 188.455902 93.072 186.695902 93.072 185.047902 93.072 184.231902 94.464 184.167902 95.632L189.239902 95.632zM195.863902 100.192C193.559902 100.192 191.911902 98.544 191.911902 96.128 191.911902 93.888 193.511902 92.08 195.719902 92.08 198.055902 92.08 199.431902 93.904 199.431902 96.224L199.431902 96.528 193.191902 96.528C193.287902 97.984 194.295902 99.2 195.959902 99.2 196.855902 99.2 197.735902 98.848 198.359902 98.208L198.935902 98.992C198.151902 99.76 197.111902 100.192 195.863902 100.192zM198.247902 95.632C198.231902 94.496 197.463902 93.072 195.703902 93.072 194.055902 93.072 193.239902 94.464 193.175902 95.632L198.247902 95.632zM208.167902 100L206.631902 100 203.863902 96.528 202.567902 97.792 202.567902 100 201.367902 100 201.367902 89.328 202.567902 89.328 202.567902 96.384 206.631902 92.272 208.151902 92.272 204.727902 95.776 208.167902 100zM210.231902 100.16C209.751902 100.16 209.351902 99.76 209.351902 99.28 209.351902 98.8 209.751902 98.4 210.231902 98.4 210.711902 98.4 211.111902 98.8 211.111902 99.28 211.111902 99.76 210.711902 100.16 210.231902 100.16zM22.272 32.208C19.168 32.208 16.672 30.016 16.672 26.672 16.672 23.312 19.168 21.152 22.272 21.152 24.352 21.152 25.712 22.144 26.56 23.36L25.04 24.24C24.464 23.44 23.456 22.816 22.272 22.816 20.16 22.816 18.592 24.416 18.592 26.672 18.592 28.896 20.16 30.528 22.272 30.528 23.36 30.528 24.32 30.032 24.8 29.568L24.8 27.92 21.6 27.92 21.6 26.272 26.656 26.272 26.656 30.256C25.616 31.424 24.112 32.208 22.272 32.208zM32.064 32.192C29.6 32.192 28.096 30.336 28.096 28.128 28.096 25.904 29.6 24.08 32.064 24.08 34.528 24.08 36.032 25.904 36.032 28.128 36.032 30.336 34.528 32.192 32.064 32.192zM32.064 30.704C33.504 30.704 34.288 29.504 34.288 28.128 34.288 26.768 33.504 25.568 32.064 25.568 30.64 25.568 29.84 26.768 29.84 28.128 29.84 29.504 30.64 30.704 32.064 30.704zM41.248 32.192C38.784 32.192 37.28 30.336 37.28 28.128 37.28 25.904 38.784 24.08 41.248 24.08 43.712 24.08 45.216 25.904 45.216 28.128 45.216 30.336 43.712 32.192 41.248 32.192zM41.248 30.704C42.688 30.704 43.472 29.504 43.472 28.128 43.472 26.768 42.688 25.568 41.248 25.568 39.824 25.568 39.024 26.768 39.024 28.128 39.024 29.504 39.824 30.704 41.248 30.704zM54.048 32L52.368 32 52.368 30.944C51.776 31.712 50.896 32.192 49.888 32.192 47.92 32.192 46.464 30.688 46.464 28.128 46.464 25.632 47.904 24.08 49.888 24.08 50.864 24.08 51.76 24.512 52.368 25.344L52.368 21.328 54.048 21.328 54.048 32zM50.384 30.704C51.168 30.704 52 30.24 52.368 29.664L52.368 26.608C52 26.032 51.168 25.568 50.384 25.568 49.04 25.568 48.192 26.64 48.192 28.128 48.192 29.632 49.04 30.704 50.384 30.704zM69.648 32L67.84 32 62.272 24.368 62.272 32 60.4 32 60.4 21.328 62.32 21.328 67.776 28.72 67.776 21.328 69.648 21.328 69.648 32zM75.456 32.192C73.12 32.192 71.408 30.576 71.408 28.128 71.408 25.888 73.04 24.08 75.328 24.08 77.648 24.08 79.12 25.84 79.12 28.272L79.12 28.688 73.168 28.688C73.296 29.84 74.16 30.816 75.616 30.816 76.384 30.816 77.264 30.512 77.824 29.952L78.592 31.056C77.808 31.792 76.672 32.192 75.456 32.192zM77.504 27.488C77.456 26.576 76.832 25.456 75.312 25.456 73.888 25.456 73.216 26.56 73.152 27.488L77.504 27.488zM89.296 32L87.536 32 85.728 26.336 83.936 32 82.176 32 79.776 24.272 81.52 24.272 83.152 29.888 84.992 24.272 86.48 24.272 88.304 29.888 89.936 24.272 91.696 24.272 89.296 32zM95.52 32.192C94.192 32.192 93.008 31.76 92.208 30.976L92.976 29.776C93.52 30.336 94.592 30.848 95.584 30.848 96.592 30.848 97.12 30.432 97.12 29.824 97.12 28.304 92.448 29.392 92.448 26.416 92.448 25.152 93.536 24.08 95.488 24.08 96.8 24.08 97.792 24.544 98.48 25.152L97.776 26.336C97.312 25.824 96.464 25.408 95.488 25.408 94.608 25.408 94.064 25.824 94.064 26.368 94.064 27.728 98.736 26.704 98.736 29.776 98.736 31.152 97.6 32.192 95.52 32.192zM102.016 28.72L100.56 28.72 100.256 21.328 102.304 21.328 102.016 28.72zM101.296 32.16C100.688 32.16 100.176 31.648 100.176 31.04 100.176 30.448 100.688 29.936 101.296 29.936 101.904 29.936 102.4 30.448 102.4 31.04 102.4 31.648 101.904 32.16 101.296 32.16z"/>
    <g transform="translate(149 104)">
      <use fill="#000" filter="url(#create-personalized-content-desktop-c)" xlink:href="#create-personalized-content-desktop-d"/>
      <use fill="#FFF" xlink:href="#create-personalized-content-desktop-d"/>
      <g transform="translate(16 16)">
        <mask id="create-personalized-content-desktop-g" fill="#fff">
          <use xlink:href="#create-personalized-content-desktop-e"/>
        </mask>
        <rect width="20" height="20" fill="url(#create-personalized-content-desktop-f)" mask="url(#create-personalized-content-desktop-g)"/>
        <polygon fill="#FFF" fill-rule="nonzero" points="9.257 5.684 7.184 5.756 6.618 8.917 5.4 8.917 5.646 4.726 14.999 4.726 15.173 8.917 14.027 8.917 13.462 5.756 11.418 5.684 11.418 14.485 13.447 14.63 13.447 15.5 7.401 15.5 7.401 14.63 9.257 14.485" mask="url(#create-personalized-content-desktop-g)"/>
      </g>
      <path fill="#384254" fill-rule="nonzero" d="M54.08 56L52.8 56 46.576 47.488 46.576 56 45.248 56 45.248 45.328 46.608 45.328 52.752 53.664 52.752 45.328 54.08 45.328 54.08 56zM57.136 47.168C56.688 47.168 56.32 46.816 56.32 46.368 56.32 45.92 56.688 45.552 57.136 45.552 57.584 45.552 57.936 45.92 57.936 46.368 57.936 46.816 57.584 47.168 57.136 47.168zM57.728 56L56.528 56 56.528 48.272 57.728 48.272 57.728 56zM63.536 56.192C61.232 56.192 59.68 54.416 59.68 52.128 59.68 49.84 61.232 48.08 63.536 48.08 64.944 48.08 65.776 48.656 66.368 49.424L65.568 50.144C65.056 49.44 64.4 49.152 63.6 49.152 61.968 49.152 60.928 50.416 60.928 52.128 60.928 53.84 61.968 55.12 63.6 55.12 64.4 55.12 65.056 54.8 65.568 54.112L66.368 54.848C65.776 55.616 64.944 56.192 63.536 56.192zM71.568 56.192C69.264 56.192 67.616 54.544 67.616 52.128 67.616 49.888 69.216 48.08 71.424 48.08 73.76 48.08 75.136 49.904 75.136 52.224L75.136 52.528 68.896 52.528C68.992 53.984 70 55.2 71.664 55.2 72.56 55.2 73.44 54.848 74.064 54.208L74.64 54.992C73.856 55.76 72.816 56.192 71.568 56.192zM73.952 51.632C73.936 50.496 73.168 49.072 71.408 49.072 69.76 49.072 68.944 50.464 68.88 51.632L73.952 51.632zM84.592 56.192C82.24 56.192 80.768 54.368 80.768 52.128 80.768 49.888 82.24 48.08 84.592 48.08 86.944 48.08 88.416 49.888 88.416 52.128 88.416 54.368 86.944 56.192 84.592 56.192zM84.592 55.12C86.24 55.12 87.152 53.712 87.152 52.128 87.152 50.56 86.24 49.152 84.592 49.152 82.944 49.152 82.032 50.56 82.032 52.128 82.032 53.712 82.944 55.12 84.592 55.12zM96.784 56L95.6 56 95.6 50.944C95.6 49.568 94.896 49.152 93.856 49.152 92.912 49.152 92.032 49.728 91.568 50.352L91.568 56 90.368 56 90.368 48.272 91.568 48.272 91.568 49.392C92.112 48.736 93.168 48.08 94.336 48.08 95.936 48.08 96.784 48.896 96.784 50.576L96.784 56zM102.704 56.192C100.4 56.192 98.752 54.544 98.752 52.128 98.752 49.888 100.352 48.08 102.56 48.08 104.896 48.08 106.272 49.904 106.272 52.224L106.272 52.528 100.032 52.528C100.128 53.984 101.136 55.2 102.8 55.2 103.696 55.2 104.576 54.848 105.2 54.208L105.776 54.992C104.992 55.76 103.952 56.192 102.704 56.192zM105.088 51.632C105.072 50.496 104.304 49.072 102.544 49.072 100.896 49.072 100.08 50.464 100.016 51.632L105.088 51.632zM119.392 56L112.4 56 112.4 45.328 119.392 45.328 119.392 46.512 113.728 46.512 113.728 49.952 119.28 49.952 119.28 51.136 113.728 51.136 113.728 54.816 119.392 54.816 119.392 56zM131.984 56L130.784 56 130.784 50.752C130.784 49.776 130.368 49.152 129.36 49.152 128.56 49.152 127.712 49.712 127.312 50.336L127.312 56 126.112 56 126.112 50.752C126.112 49.776 125.712 49.152 124.688 49.152 123.904 49.152 123.072 49.728 122.656 50.352L122.656 56 121.456 56 121.456 48.272 122.656 48.272 122.656 49.392C122.992 48.896 124.016 48.08 125.168 48.08 126.336 48.08 127.008 48.72 127.232 49.52 127.664 48.816 128.704 48.08 129.824 48.08 131.232 48.08 131.984 48.864 131.984 50.416L131.984 56zM144.912 56L143.712 56 143.712 50.752C143.712 49.776 143.296 49.152 142.288 49.152 141.488 49.152 140.64 49.712 140.24 50.336L140.24 56 139.04 56 139.04 50.752C139.04 49.776 138.64 49.152 137.616 49.152 136.832 49.152 136 49.728 135.584 50.352L135.584 56 134.384 56 134.384 48.272 135.584 48.272 135.584 49.392C135.92 48.896 136.944 48.08 138.096 48.08 139.264 48.08 139.936 48.72 140.16 49.52 140.592 48.816 141.632 48.08 142.752 48.08 144.16 48.08 144.912 48.864 144.912 50.416L144.912 56zM153.344 56L152.144 56 152.144 55.12C151.52 55.824 150.624 56.192 149.584 56.192 148.288 56.192 146.896 55.312 146.896 53.632 146.896 51.888 148.272 51.088 149.584 51.088 150.64 51.088 151.52 51.424 152.144 52.128L152.144 50.736C152.144 49.712 151.312 49.12 150.192 49.12 149.264 49.12 148.512 49.44 147.824 50.192L147.264 49.36C148.096 48.496 149.088 48.08 150.352 48.08 152 48.08 153.344 48.816 153.344 50.688L153.344 56zM150.032 55.328C150.864 55.328 151.68 55.008 152.144 54.368L152.144 52.896C151.68 52.272 150.864 51.952 150.032 51.952 148.896 51.952 148.112 52.656 148.112 53.632 148.112 54.624 148.896 55.328 150.032 55.328zM156.4 56.16C155.92 56.16 155.52 55.76 155.52 55.28 155.52 54.8 155.92 54.4 156.4 54.4 156.88 54.4 157.28 54.8 157.28 55.28 157.28 55.76 156.88 56.16 156.4 56.16zM168.08 56L166.752 56 166.752 51.488 162.544 45.328 164.096 45.328 167.408 50.288 170.72 45.328 172.272 45.328 168.08 51.488 168.08 56zM174.96 56.192C172.608 56.192 171.136 54.368 171.136 52.128 171.136 49.888 172.608 48.08 174.96 48.08 177.312 48.08 178.784 49.888 178.784 52.128 178.784 54.368 177.312 56.192 174.96 56.192zM174.96 55.12C176.608 55.12 177.52 53.712 177.52 52.128 177.52 50.56 176.608 49.152 174.96 49.152 173.312 49.152 172.4 50.56 172.4 52.128 172.4 53.712 173.312 55.12 174.96 55.12zM187.152 56L185.952 56 185.952 54.912C185.36 55.584 184.352 56.192 183.2 56.192 181.584 56.192 180.736 55.392 180.736 53.728L180.736 48.272 181.936 48.272 181.936 53.36C181.936 54.72 182.624 55.12 183.68 55.12 184.608 55.12 185.504 54.576 185.952 53.952L185.952 48.272 187.152 48.272 187.152 56zM196.16 56.192C194.88 56.192 193.824 55.792 193.04 54.976L193.648 54.112C194.16 54.704 195.136 55.216 196.192 55.216 197.376 55.216 198.032 54.656 198.032 53.888 198.032 52.016 193.248 53.168 193.248 50.304 193.248 49.088 194.272 48.08 196.112 48.08 197.44 48.08 198.368 48.576 198.976 49.2L198.416 50.032C197.952 49.472 197.12 49.056 196.112 49.056 195.056 49.056 194.4 49.584 194.4 50.272 194.4 51.952 199.184 50.848 199.184 53.856 199.184 55.152 198.144 56.192 196.16 56.192zM207.168 56L205.968 56 205.968 55.12C205.344 55.824 204.448 56.192 203.408 56.192 202.112 56.192 200.72 55.312 200.72 53.632 200.72 51.888 202.096 51.088 203.408 51.088 204.464 51.088 205.344 51.424 205.968 52.128L205.968 50.736C205.968 49.712 205.136 49.12 204.016 49.12 203.088 49.12 202.336 49.44 201.648 50.192L201.088 49.36C201.92 48.496 202.912 48.08 204.176 48.08 205.824 48.08 207.168 48.816 207.168 50.688L207.168 56zM203.856 55.328C204.688 55.328 205.504 55.008 205.968 54.368L205.968 52.896C205.504 52.272 204.688 51.952 203.856 51.952 202.72 51.952 201.936 52.656 201.936 53.632 201.936 54.624 202.72 55.328 203.856 55.328zM212.96 56L211.648 56 208.432 48.272 209.744 48.272 212.304 54.608 214.88 48.272 216.176 48.272 212.96 56zM220.928 56.192C218.624 56.192 216.976 54.544 216.976 52.128 216.976 49.888 218.576 48.08 220.784 48.08 223.12 48.08 224.496 49.904 224.496 52.224L224.496 52.528 218.256 52.528C218.352 53.984 219.36 55.2 221.024 55.2 221.92 55.2 222.8 54.848 223.424 54.208L224 54.992C223.216 55.76 222.176 56.192 220.928 56.192zM223.312 51.632C223.296 50.496 222.528 49.072 220.768 49.072 219.12 49.072 218.304 50.464 218.24 51.632L223.312 51.632zM233.232 56L232.032 56 232.032 54.848C231.456 55.632 230.512 56.192 229.424 56.192 227.408 56.192 225.984 54.656 225.984 52.144 225.984 49.664 227.408 48.08 229.424 48.08 230.464 48.08 231.408 48.592 232.032 49.44L232.032 45.328 233.232 45.328 233.232 56zM229.728 55.12C230.672 55.12 231.616 54.56 232.032 53.888L232.032 50.4C231.616 49.728 230.672 49.152 229.728 49.152 228.16 49.152 227.232 50.432 227.232 52.144 227.232 53.856 228.16 55.12 229.728 55.12zM48.336 79.6L48.336 78.176C46.72 78.08 45.488 77.408 44.688 76.496L45.488 75.472C46.096 76.192 47.072 76.832 48.336 76.976L48.336 73.088C46.704 72.64 45.024 72.096 45.024 70.128 45.024 68.48 46.416 67.312 48.336 67.168L48.336 65.712 49.312 65.712 49.312 67.184C50.64 67.296 51.696 67.84 52.48 68.656L51.68 69.632C51.04 68.928 50.208 68.528 49.312 68.4L49.312 71.888C50.96 72.352 52.72 72.96 52.72 75.056 52.72 76.496 51.792 78 49.312 78.176L49.312 79.6 48.336 79.6zM51.344 75.152C51.344 74.112 50.432 73.68 49.312 73.344L49.312 76.992C50.832 76.832 51.344 75.92 51.344 75.152zM46.4 70.048C46.4 70.928 47.248 71.312 48.336 71.632L48.336 68.368C47.2 68.448 46.4 69.12 46.4 70.048zM61.68 78L54.352 78 54.352 76.928C58.192 73.92 60.288 72.144 60.288 70.304 60.288 68.928 59.152 68.352 58.048 68.352 56.768 68.352 55.776 68.896 55.152 69.696L54.336 68.848C55.152 67.76 56.544 67.168 58.048 67.168 59.824 67.168 61.632 68.176 61.632 70.304 61.632 72.48 59.424 74.464 56.448 76.816L61.68 76.816 61.68 78zM69.808 78L68.48 78 68.48 75.296 63.408 75.296 63.408 74.192 67.984 67.328 69.808 67.328 69.808 74.128 71.312 74.128 71.312 75.296 69.808 75.296 69.808 78zM68.48 74.128L68.48 68.56 64.736 74.128 68.48 74.128zM76.72 78.192C73.792 78.192 72.64 75.264 72.64 72.672 72.64 70.064 73.792 67.168 76.72 67.168 79.632 67.168 80.8 70.064 80.8 72.672 80.8 75.264 79.632 78.192 76.72 78.192zM76.72 77.008C78.752 77.008 79.44 74.8 79.44 72.672 79.44 70.544 78.752 68.352 76.72 68.352 74.688 68.352 74 70.544 74 72.672 74 74.8 74.688 77.008 76.72 77.008zM82.96 78.16C82.48 78.16 82.08 77.76 82.08 77.28 82.08 76.8 82.48 76.4 82.96 76.4 83.44 76.4 83.84 76.8 83.84 77.28 83.84 77.76 83.44 78.16 82.96 78.16zM89.12 78.176C87.76 78.176 86.832 77.648 86.16 76.896L86.832 75.904C87.376 76.544 88.016 76.992 89.12 76.992 91.28 76.992 92.128 74.832 92.128 72.8 92.128 72.672 92.128 72.528 92.112 72.384 91.648 73.12 90.464 74.048 89.104 74.048 87.184 74.048 85.6 72.912 85.6 70.64 85.6 68.8 87.008 67.152 89.344 67.152 92.32 67.152 93.472 69.76 93.472 72.672 93.472 75.552 92.112 78.176 89.12 78.176zM89.408 72.896C90.464 72.896 91.504 72.24 92.08 71.296 91.952 69.984 91.248 68.336 89.392 68.336 87.76 68.336 86.944 69.568 86.944 70.592 86.944 72.16 88.032 72.896 89.408 72.896zM99.088 78.192C97.296 78.192 96.128 77.536 95.328 76.48L96.144 75.584C96.848 76.496 97.792 77.008 99.088 77.008 100.544 77.008 101.552 76.016 101.552 74.72 101.552 73.312 100.544 72.416 99.104 72.416 98.176 72.416 97.36 72.72 96.64 73.408L95.664 73.072 95.664 67.328 102.192 67.328 102.192 68.512 96.992 68.512 96.992 72.224C97.52 71.712 98.416 71.264 99.488 71.264 101.28 71.264 102.896 72.464 102.896 74.672 102.896 76.832 101.232 78.192 99.088 78.192zM111.024 78.192C109.872 78.192 109.296 77.536 109.296 76.384L109.296 71.328 108.016 71.328 108.016 70.272 109.296 70.272 109.296 68.16 110.512 68.16 110.512 70.272 112.08 70.272 112.08 71.328 110.512 71.328 110.512 76.128C110.512 76.704 110.768 77.12 111.28 77.12 111.632 77.12 111.936 76.96 112.096 76.784L112.448 77.696C112.144 77.984 111.712 78.192 111.024 78.192zM120.192 78L118.992 78 118.992 72.912C118.992 71.536 118.304 71.152 117.248 71.152 116.32 71.152 115.424 71.728 114.976 72.352L114.976 78 113.776 78 113.776 67.328 114.976 67.328 114.976 71.392C115.504 70.736 116.56 70.08 117.728 70.08 119.344 70.08 120.192 70.864 120.192 72.544L120.192 78zM123.2 69.168C122.752 69.168 122.384 68.816 122.384 68.368 122.384 67.92 122.752 67.552 123.2 67.552 123.648 67.552 124 67.92 124 68.368 124 68.816 123.648 69.168 123.2 69.168zM123.792 78L122.592 78 122.592 70.272 123.792 70.272 123.792 78zM128.656 78.192C127.376 78.192 126.32 77.792 125.536 76.976L126.144 76.112C126.656 76.704 127.632 77.216 128.688 77.216 129.872 77.216 130.528 76.656 130.528 75.888 130.528 74.016 125.744 75.168 125.744 72.304 125.744 71.088 126.768 70.08 128.608 70.08 129.936 70.08 130.864 70.576 131.472 71.2L130.912 72.032C130.448 71.472 129.616 71.056 128.608 71.056 127.552 71.056 126.896 71.584 126.896 72.272 126.896 73.952 131.68 72.848 131.68 75.856 131.68 77.152 130.64 78.192 128.656 78.192zM145.68 78L144.464 78 142.448 71.792 140.432 78 139.232 78 136.768 70.272 138.016 70.272 139.904 76.432 141.936 70.272 142.976 70.272 144.992 76.432 146.88 70.272 148.144 70.272 145.68 78zM153.024 78.192C150.72 78.192 149.072 76.544 149.072 74.128 149.072 71.888 150.672 70.08 152.88 70.08 155.216 70.08 156.592 71.904 156.592 74.224L156.592 74.528 150.352 74.528C150.448 75.984 151.456 77.2 153.12 77.2 154.016 77.2 154.896 76.848 155.52 76.208L156.096 76.992C155.312 77.76 154.272 78.192 153.024 78.192zM155.408 73.632C155.392 72.496 154.624 71.072 152.864 71.072 151.216 71.072 150.4 72.464 150.336 73.632L155.408 73.632zM162.032 78.192C159.728 78.192 158.08 76.544 158.08 74.128 158.08 71.888 159.68 70.08 161.888 70.08 164.224 70.08 165.6 71.904 165.6 74.224L165.6 74.528 159.36 74.528C159.456 75.984 160.464 77.2 162.128 77.2 163.024 77.2 163.904 76.848 164.528 76.208L165.104 76.992C164.32 77.76 163.28 78.192 162.032 78.192zM164.416 73.632C164.4 72.496 163.632 71.072 161.872 71.072 160.224 71.072 159.408 72.464 159.344 73.632L164.416 73.632zM174.336 78L172.8 78 170.032 74.528 168.736 75.792 168.736 78 167.536 78 167.536 67.328 168.736 67.328 168.736 74.384 172.8 70.272 174.32 70.272 170.896 73.776 174.336 78zM176.4 78.16C175.92 78.16 175.52 77.76 175.52 77.28 175.52 76.8 175.92 76.4 176.4 76.4 176.88 76.4 177.28 76.8 177.28 77.28 177.28 77.76 176.88 78.16 176.4 78.16zM50.272 32.208C47.168 32.208 44.672 30.016 44.672 26.672 44.672 23.312 47.168 21.152 50.272 21.152 52.352 21.152 53.712 22.144 54.56 23.36L53.04 24.24C52.464 23.44 51.456 22.816 50.272 22.816 48.16 22.816 46.592 24.416 46.592 26.672 46.592 28.896 48.16 30.528 50.272 30.528 51.36 30.528 52.32 30.032 52.8 29.568L52.8 27.92 49.6 27.92 49.6 26.272 54.656 26.272 54.656 30.256C53.616 31.424 52.112 32.208 50.272 32.208zM60.064 32.192C57.6 32.192 56.096 30.336 56.096 28.128 56.096 25.904 57.6 24.08 60.064 24.08 62.528 24.08 64.032 25.904 64.032 28.128 64.032 30.336 62.528 32.192 60.064 32.192zM60.064 30.704C61.504 30.704 62.288 29.504 62.288 28.128 62.288 26.768 61.504 25.568 60.064 25.568 58.64 25.568 57.84 26.768 57.84 28.128 57.84 29.504 58.64 30.704 60.064 30.704zM69.248 32.192C66.784 32.192 65.28 30.336 65.28 28.128 65.28 25.904 66.784 24.08 69.248 24.08 71.712 24.08 73.216 25.904 73.216 28.128 73.216 30.336 71.712 32.192 69.248 32.192zM69.248 30.704C70.688 30.704 71.472 29.504 71.472 28.128 71.472 26.768 70.688 25.568 69.248 25.568 67.824 25.568 67.024 26.768 67.024 28.128 67.024 29.504 67.824 30.704 69.248 30.704zM82.048 32L80.368 32 80.368 30.944C79.776 31.712 78.896 32.192 77.888 32.192 75.92 32.192 74.464 30.688 74.464 28.128 74.464 25.632 75.904 24.08 77.888 24.08 78.864 24.08 79.76 24.512 80.368 25.344L80.368 21.328 82.048 21.328 82.048 32zM78.384 30.704C79.168 30.704 80 30.24 80.368 29.664L80.368 26.608C80 26.032 79.168 25.568 78.384 25.568 77.04 25.568 76.192 26.64 76.192 28.128 76.192 29.632 77.04 30.704 78.384 30.704zM97.648 32L95.84 32 90.272 24.368 90.272 32 88.4 32 88.4 21.328 90.32 21.328 95.776 28.72 95.776 21.328 97.648 21.328 97.648 32zM103.456 32.192C101.12 32.192 99.408 30.576 99.408 28.128 99.408 25.888 101.04 24.08 103.328 24.08 105.648 24.08 107.12 25.84 107.12 28.272L107.12 28.688 101.168 28.688C101.296 29.84 102.16 30.816 103.616 30.816 104.384 30.816 105.264 30.512 105.824 29.952L106.592 31.056C105.808 31.792 104.672 32.192 103.456 32.192zM105.504 27.488C105.456 26.576 104.832 25.456 103.312 25.456 101.888 25.456 101.216 26.56 101.152 27.488L105.504 27.488zM117.296 32L115.536 32 113.728 26.336 111.936 32 110.176 32 107.776 24.272 109.52 24.272 111.152 29.888 112.992 24.272 114.48 24.272 116.304 29.888 117.936 24.272 119.696 24.272 117.296 32zM123.52 32.192C122.192 32.192 121.008 31.76 120.208 30.976L120.976 29.776C121.52 30.336 122.592 30.848 123.584 30.848 124.592 30.848 125.12 30.432 125.12 29.824 125.12 28.304 120.448 29.392 120.448 26.416 120.448 25.152 121.536 24.08 123.488 24.08 124.8 24.08 125.792 24.544 126.48 25.152L125.776 26.336C125.312 25.824 124.464 25.408 123.488 25.408 122.608 25.408 122.064 25.824 122.064 26.368 122.064 27.728 126.736 26.704 126.736 29.776 126.736 31.152 125.6 32.192 123.52 32.192zM130.016 28.72L128.56 28.72 128.256 21.328 130.304 21.328 130.016 28.72zM129.296 32.16C128.688 32.16 128.176 31.648 128.176 31.04 128.176 30.448 128.688 29.936 129.296 29.936 129.904 29.936 130.4 30.448 130.4 31.04 130.4 31.648 129.904 32.16 129.296 32.16z"/>
    </g>
  </g>
</svg>
