<svg xmlns="http://www.w3.org/2000/svg" width="312" height="290" viewBox="0 0 312 290">
  <g fill="#E1E1E1" fill-rule="evenodd" opacity=".5">
    <rect width="4" height="4" x="308" y="88"/>
    <rect width="4" height="4" x="308" y="66"/>
    <rect width="4" height="4" x="308" y="44"/>
    <rect width="4" height="4" x="308" y="22"/>
    <rect width="4" height="4" x="308"/>
    <rect width="4" height="4" x="308" y="110"/>
    <rect width="4" height="4" x="308" y="132"/>
    <rect width="4" height="4" x="308" y="154"/>
    <rect width="4" height="4" x="308" y="176"/>
    <rect width="4" height="4" x="308" y="198"/>
    <rect width="4" height="4" x="308" y="220"/>
    <rect width="4" height="4" x="308" y="242"/>
    <rect width="4" height="4" x="308" y="264"/>
    <rect width="4" height="4" x="286" y="88"/>
    <rect width="4" height="4" x="286" y="66"/>
    <rect width="4" height="4" x="286" y="44"/>
    <rect width="4" height="4" x="286" y="22"/>
    <rect width="4" height="4" x="286"/>
    <rect width="4" height="4" x="286" y="110"/>
    <rect width="4" height="4" x="286" y="132"/>
    <rect width="4" height="4" x="286" y="154"/>
    <rect width="4" height="4" x="286" y="176"/>
    <rect width="4" height="4" x="286" y="198"/>
    <rect width="4" height="4" x="286" y="220"/>
    <rect width="4" height="4" x="286" y="242"/>
    <rect width="4" height="4" x="286" y="264"/>
    <rect width="4" height="4" x="264" y="88"/>
    <rect width="4" height="4" x="264" y="66"/>
    <rect width="4" height="4" x="264" y="44"/>
    <rect width="4" height="4" x="264" y="22"/>
    <rect width="4" height="4" x="264"/>
    <rect width="4" height="4" x="264" y="110"/>
    <rect width="4" height="4" x="264" y="132"/>
    <rect width="4" height="4" x="264" y="154"/>
    <rect width="4" height="4" x="264" y="176"/>
    <rect width="4" height="4" x="264" y="198"/>
    <rect width="4" height="4" x="264" y="220"/>
    <rect width="4" height="4" x="264" y="242"/>
    <rect width="4" height="4" x="264" y="264"/>
    <rect width="4" height="4" x="242" y="88"/>
    <rect width="4" height="4" x="242" y="66"/>
    <rect width="4" height="4" x="242" y="44"/>
    <rect width="4" height="4" x="242" y="22"/>
    <rect width="4" height="4" x="242"/>
    <rect width="4" height="4" x="242" y="110"/>
    <rect width="4" height="4" x="242" y="132"/>
    <rect width="4" height="4" x="242" y="154"/>
    <rect width="4" height="4" x="242" y="176"/>
    <rect width="4" height="4" x="242" y="198"/>
    <rect width="4" height="4" x="242" y="220"/>
    <rect width="4" height="4" x="242" y="242"/>
    <rect width="4" height="4" x="242" y="264"/>
    <rect width="4" height="4" x="220" y="88"/>
    <rect width="4" height="4" x="220" y="66"/>
    <rect width="4" height="4" x="220" y="44"/>
    <rect width="4" height="4" x="220" y="22"/>
    <rect width="4" height="4" x="220"/>
    <rect width="4" height="4" x="220" y="110"/>
    <rect width="4" height="4" x="220" y="132"/>
    <rect width="4" height="4" x="220" y="154"/>
    <rect width="4" height="4" x="220" y="176"/>
    <rect width="4" height="4" x="220" y="198"/>
    <rect width="4" height="4" x="220" y="220"/>
    <rect width="4" height="4" x="220" y="242"/>
    <rect width="4" height="4" x="220" y="264"/>
    <rect width="4" height="4" x="198" y="88"/>
    <rect width="4" height="4" x="198" y="66"/>
    <rect width="4" height="4" x="198" y="44"/>
    <rect width="4" height="4" x="198" y="22"/>
    <rect width="4" height="4" x="198"/>
    <rect width="4" height="4" x="198" y="110"/>
    <rect width="4" height="4" x="198" y="132"/>
    <rect width="4" height="4" x="198" y="154"/>
    <rect width="4" height="4" x="198" y="176"/>
    <rect width="4" height="4" x="198" y="198"/>
    <rect width="4" height="4" x="198" y="220"/>
    <rect width="4" height="4" x="198" y="242"/>
    <rect width="4" height="4" x="198" y="264"/>
    <rect width="4" height="4" x="176" y="88"/>
    <rect width="4" height="4" x="176" y="66"/>
    <rect width="4" height="4" x="176" y="44"/>
    <rect width="4" height="4" x="176" y="22"/>
    <rect width="4" height="4" x="176"/>
    <rect width="4" height="4" x="176" y="110"/>
    <rect width="4" height="4" x="176" y="132"/>
    <rect width="4" height="4" x="176" y="154"/>
    <rect width="4" height="4" x="176" y="176"/>
    <rect width="4" height="4" x="176" y="198"/>
    <rect width="4" height="4" x="176" y="220"/>
    <rect width="4" height="4" x="176" y="242"/>
    <rect width="4" height="4" x="176" y="264"/>
    <rect width="4" height="4" x="154" y="88"/>
    <rect width="4" height="4" x="154" y="66"/>
    <rect width="4" height="4" x="154" y="44"/>
    <rect width="4" height="4" x="154" y="22"/>
    <rect width="4" height="4" x="154"/>
    <rect width="4" height="4" x="154" y="110"/>
    <rect width="4" height="4" x="154" y="132"/>
    <rect width="4" height="4" x="154" y="154"/>
    <rect width="4" height="4" x="154" y="176"/>
    <rect width="4" height="4" x="154" y="198"/>
    <rect width="4" height="4" x="154" y="220"/>
    <rect width="4" height="4" x="154" y="242"/>
    <rect width="4" height="4" x="154" y="264"/>
    <rect width="4" height="4" x="132" y="88"/>
    <rect width="4" height="4" x="132" y="66"/>
    <rect width="4" height="4" x="132" y="44"/>
    <rect width="4" height="4" x="132" y="22"/>
    <rect width="4" height="4" x="132"/>
    <rect width="4" height="4" x="132" y="110"/>
    <rect width="4" height="4" x="132" y="132"/>
    <rect width="4" height="4" x="132" y="154"/>
    <rect width="4" height="4" x="132" y="176"/>
    <rect width="4" height="4" x="132" y="198"/>
    <rect width="4" height="4" x="132" y="220"/>
    <rect width="4" height="4" x="132" y="242"/>
    <rect width="4" height="4" x="132" y="264"/>
    <rect width="4" height="4" x="110" y="88"/>
    <rect width="4" height="4" x="110" y="66"/>
    <rect width="4" height="4" x="110" y="44"/>
    <rect width="4" height="4" x="110" y="22"/>
    <rect width="4" height="4" x="110"/>
    <rect width="4" height="4" x="110" y="110"/>
    <rect width="4" height="4" x="110" y="132"/>
    <rect width="4" height="4" x="110" y="154"/>
    <rect width="4" height="4" x="110" y="176"/>
    <rect width="4" height="4" x="110" y="198"/>
    <rect width="4" height="4" x="110" y="220"/>
    <rect width="4" height="4" x="110" y="242"/>
    <rect width="4" height="4" x="110" y="264"/>
    <rect width="4" height="4" x="88" y="88"/>
    <rect width="4" height="4" x="88" y="66"/>
    <rect width="4" height="4" x="88" y="44"/>
    <rect width="4" height="4" x="88" y="22"/>
    <rect width="4" height="4" x="88"/>
    <rect width="4" height="4" x="88" y="110"/>
    <rect width="4" height="4" x="88" y="132"/>
    <rect width="4" height="4" x="88" y="154"/>
    <rect width="4" height="4" x="88" y="176"/>
    <rect width="4" height="4" x="88" y="198"/>
    <rect width="4" height="4" x="88" y="220"/>
    <rect width="4" height="4" x="88" y="242"/>
    <rect width="4" height="4" x="88" y="264"/>
    <rect width="4" height="4" x="66" y="88"/>
    <rect width="4" height="4" x="66" y="66"/>
    <rect width="4" height="4" x="66" y="44"/>
    <rect width="4" height="4" x="66" y="22"/>
    <rect width="4" height="4" x="66"/>
    <rect width="4" height="4" x="66" y="110"/>
    <rect width="4" height="4" x="66" y="132"/>
    <rect width="4" height="4" x="66" y="154"/>
    <rect width="4" height="4" x="66" y="176"/>
    <rect width="4" height="4" x="66" y="198"/>
    <rect width="4" height="4" x="66" y="220"/>
    <rect width="4" height="4" x="66" y="242"/>
    <rect width="4" height="4" x="66" y="264"/>
    <rect width="4" height="4" x="44" y="88"/>
    <rect width="4" height="4" x="44" y="66"/>
    <rect width="4" height="4" x="44" y="44"/>
    <rect width="4" height="4" x="44" y="22"/>
    <rect width="4" height="4" x="44"/>
    <rect width="4" height="4" x="44" y="110"/>
    <rect width="4" height="4" x="44" y="132"/>
    <rect width="4" height="4" x="44" y="154"/>
    <rect width="4" height="4" x="44" y="176"/>
    <rect width="4" height="4" x="44" y="198"/>
    <rect width="4" height="4" x="44" y="220"/>
    <rect width="4" height="4" x="44" y="242"/>
    <rect width="4" height="4" x="44" y="264"/>
    <rect width="4" height="4" x="22" y="88"/>
    <rect width="4" height="4" x="22" y="66"/>
    <rect width="4" height="4" x="22" y="44"/>
    <rect width="4" height="4" x="22" y="22"/>
    <rect width="4" height="4" x="22"/>
    <rect width="4" height="4" x="22" y="110"/>
    <rect width="4" height="4" x="22" y="132"/>
    <rect width="4" height="4" x="22" y="154"/>
    <rect width="4" height="4" x="22" y="176"/>
    <rect width="4" height="4" x="22" y="198"/>
    <rect width="4" height="4" x="22" y="220"/>
    <rect width="4" height="4" x="22" y="242"/>
    <rect width="4" height="4" x="22" y="264"/>
    <rect width="4" height="4" y="88"/>
    <rect width="4" height="4" y="66"/>
    <rect width="4" height="4" y="44"/>
    <rect width="4" height="4" y="22"/>
    <rect width="4" height="4"/>
    <rect width="4" height="4" y="110"/>
    <rect width="4" height="4" y="132"/>
    <rect width="4" height="4" y="154"/>
    <rect width="4" height="4" y="176"/>
    <rect width="4" height="4" y="198"/>
    <rect width="4" height="4" y="220"/>
    <rect width="4" height="4" y="242"/>
    <rect width="4" height="4" y="264"/>
    <rect width="4" height="4" x="88" y="286"/>
    <rect width="4" height="4" x="66" y="286"/>
    <rect width="4" height="4" x="44" y="286"/>
    <rect width="4" height="4" x="22" y="286"/>
    <rect width="4" height="4" y="286"/>
  </g>
</svg>
