<svg xmlns="http://www.w3.org/2000/svg" xmlns:xlink="http://www.w3.org/1999/xlink" width="450" height="533" viewBox="0 0 450 533">
  <defs>
    <path id="personalization-b" d="M12.819426,-5.17920154e-16 L317.180574,5.17920154e-16 C321.638168,-3.00926524e-16 323.254599,0.464128056 324.884229,1.33566352 C326.513858,2.20719898 327.792801,3.48614185 328.664336,5.11577148 C329.535872,6.74540111 330,8.3618323 330,12.819426 L330,409.180574 C330,413.638168 329.535872,415.254599 328.664336,416.884229 C327.792801,418.513858 326.513858,419.792801 324.884229,420.664336 C323.254599,421.535872 321.638168,422 317.180574,422 L12.819426,422 C8.3618323,422 6.74540111,421.535872 5.11577148,420.664336 C3.48614185,419.792801 2.20719898,418.513858 1.33566352,416.884229 C0.464128056,415.254599 2.00617683e-16,413.638168 -3.45280103e-16,409.180574 L3.45280103e-16,12.819426 C-2.00617683e-16,8.3618323 0.464128056,6.74540111 1.33566352,5.11577148 C2.20719898,3.48614185 3.48614185,2.20719898 5.11577148,1.33566352 C6.74540111,0.464128056 8.3618323,3.00926524e-16 12.819426,-5.17920154e-16 Z"/>
    <filter id="personalization-a" width="116.1%" height="112.6%" x="-8%" y="-5.3%" filterUnits="objectBoundingBox">
      <feMorphology in="SourceAlpha" operator="dilate" radius=".5" result="shadowSpreadOuter1"/>
      <feOffset dy="4" in="shadowSpreadOuter1" result="shadowOffsetOuter1"/>
      <feGaussianBlur in="shadowOffsetOuter1" result="shadowBlurOuter1" stdDeviation="8"/>
      <feComposite in="shadowBlurOuter1" in2="SourceAlpha" operator="out" result="shadowBlurOuter1"/>
      <feColorMatrix in="shadowBlurOuter1" values="0 0 0 0 0   0 0 0 0 0   0 0 0 0 0  0 0 0 0.12 0"/>
    </filter>
    <path id="personalization-d" d="M12.819426,-5.17920154e-16 L187.180574,5.17920154e-16 C191.638168,-3.00926524e-16 193.254599,0.464128056 194.884229,1.33566352 C196.513858,2.20719898 197.792801,3.48614185 198.664336,5.11577148 C199.535872,6.74540111 200,8.3618323 200,12.819426 L200,81.180574 C200,85.6381677 199.535872,87.2545989 198.664336,88.8842285 C197.792801,90.5138581 196.513858,91.792801 194.884229,92.6643365 C193.254599,93.5358719 191.638168,94 187.180574,94 L12.819426,94 C8.3618323,94 6.74540111,93.5358719 5.11577148,92.6643365 C3.48614185,91.792801 2.20719898,90.5138581 1.33566352,88.8842285 C0.464128056,87.2545989 2.00617683e-16,85.6381677 -3.45280103e-16,81.180574 L3.45280103e-16,12.819426 C-2.00617683e-16,8.3618323 0.464128056,6.74540111 1.33566352,5.11577148 C2.20719898,3.48614185 3.48614185,2.20719898 5.11577148,1.33566352 C6.74540111,0.464128056 8.3618323,3.00926524e-16 12.819426,-5.17920154e-16 Z"/>
    <filter id="personalization-c" width="126.5%" height="156.4%" x="-13.3%" y="-23.9%" filterUnits="objectBoundingBox">
      <feMorphology in="SourceAlpha" operator="dilate" radius=".5" result="shadowSpreadOuter1"/>
      <feOffset dy="4" in="shadowSpreadOuter1" result="shadowOffsetOuter1"/>
      <feGaussianBlur in="shadowOffsetOuter1" result="shadowBlurOuter1" stdDeviation="8"/>
      <feComposite in="shadowBlurOuter1" in2="SourceAlpha" operator="out" result="shadowBlurOuter1"/>
      <feColorMatrix in="shadowBlurOuter1" values="0 0 0 0 0   0 0 0 0 0   0 0 0 0 0  0 0 0 0.12 0"/>
    </filter>
  </defs>
  <g fill="none" fill-rule="evenodd" transform="translate(16 10)">
    <rect width="312" height="298" x="37" y="49" fill="#C9EDF4"/>
    <g transform="translate(88 81)">
      <use fill="#000" filter="url(#personalization-a)" xlink:href="#personalization-b"/>
      <use fill="#FFF" stroke="#8D8D8D" stroke-opacity=".24" xlink:href="#personalization-b"/>
      <path fill="#F4F4F4" d="M27,24 L137,24 C138.656854,24 140,25.3431458 140,27 L140,27 C140,28.6568542 138.656854,30 137,30 L27,30 C25.3431458,30 24,28.6568542 24,27 L24,27 C24,25.3431458 25.3431458,24 27,24 Z"/>
      <rect width="282" height="1" x="24" y="90" fill="#D8D8D8"/>
      <path fill="#F4F4F4" d="M193 24L303 24C304.656854 24 306 25.3431458 306 27L306 27C306 28.6568542 304.656854 30 303 30L193 30C191.343146 30 190 28.6568542 190 27L190 27C190 25.3431458 191.343146 24 193 24zM27 42L111 42C112.656854 42 114 43.3431458 114 45L114 45C114 46.6568542 112.656854 48 111 48L27 48C25.3431458 48 24 46.6568542 24 45L24 45C24 43.3431458 25.3431458 42 27 42zM27 60L101 60C102.656854 60 104 61.3431458 104 63L104 63C104 64.6568542 102.656854 66 101 66L27 66C25.3431458 66 24 64.6568542 24 63L24 63C24 61.3431458 25.3431458 60 27 60zM115 60L133 60C134.656854 60 136 61.3431458 136 63L136 63C136 64.6568542 134.656854 66 133 66L115 66C113.343146 66 112 64.6568542 112 63L112 63C112 61.3431458 113.343146 60 115 60z"/>
      <path fill="#384254" d="M33.128,129 L31.49,129 L31.49,124.912 L26.632,124.912 L26.632,129 L24.994,129 L24.994,119.662 L26.632,119.662 L26.632,123.47 L31.49,123.47 L31.49,119.662 L33.128,119.662 L33.128,129 Z M35.816,121.412 C35.312,121.412 34.906,121.006 34.906,120.502 C34.906,119.998 35.312,119.592 35.816,119.592 C36.32,119.592 36.726,119.998 36.726,120.502 C36.726,121.006 36.32,121.412 35.816,121.412 Z M36.544,129 L35.074,129 L35.074,122.238 L36.544,122.238 L36.544,129 Z M44.748,131.66 L43.894,131.66 C42.872,131.66 41.906,130.876 41.906,129.588 L41.906,126.97 C41.906,126.452 41.668,126.018 41.178,126.018 L41.178,125.15 C41.668,125.15 41.906,124.716 41.906,124.198 L41.906,121.594 C41.906,120.306 42.872,119.508 43.894,119.508 L44.748,119.508 L44.748,120.516 L43.894,120.516 C43.404,120.516 42.984,120.936 42.984,121.58 L42.984,124.338 C42.984,124.926 42.816,125.388 42.354,125.584 C42.816,125.78 42.984,126.242 42.984,126.83 L42.984,129.574 C42.984,130.204 43.404,130.652 43.894,130.652 L44.748,130.652 L44.748,131.66 Z M48.626,131.66 L47.772,131.66 C46.75,131.66 45.784,130.876 45.784,129.588 L45.784,126.97 C45.784,126.452 45.546,126.018 45.056,126.018 L45.056,125.15 C45.546,125.15 45.784,124.716 45.784,124.198 L45.784,121.594 C45.784,120.306 46.75,119.508 47.772,119.508 L48.626,119.508 L48.626,120.516 L47.772,120.516 C47.282,120.516 46.862,120.936 46.862,121.58 L46.862,124.338 C46.862,124.926 46.694,125.388 46.232,125.584 C46.694,125.78 46.862,126.242 46.862,126.83 L46.862,129.574 C46.862,130.204 47.282,130.652 47.772,130.652 L48.626,130.652 L48.626,131.66 Z M55.85,129 L54.38,129 L54.38,128.104 C53.904,128.636 53.064,129.168 52,129.168 C50.544,129.168 49.816,128.398 49.816,127.026 L49.816,122.238 L51.286,122.238 L51.286,126.48 C51.286,127.53 51.818,127.866 52.658,127.866 C53.4,127.866 54.044,127.432 54.38,126.984 L54.38,122.238 L55.85,122.238 L55.85,129 Z M60.078,129.168 C58.916,129.168 57.88,128.79 57.18,128.104 L57.852,127.054 C58.328,127.544 59.266,127.992 60.134,127.992 C61.016,127.992 61.478,127.628 61.478,127.096 C61.478,125.766 57.39,126.718 57.39,124.114 C57.39,123.008 58.342,122.07 60.05,122.07 C61.198,122.07 62.066,122.476 62.668,123.008 L62.052,124.044 C61.646,123.596 60.904,123.232 60.05,123.232 C59.28,123.232 58.804,123.596 58.804,124.072 C58.804,125.262 62.892,124.366 62.892,127.054 C62.892,128.258 61.898,129.168 60.078,129.168 Z M67.498,129.168 C65.454,129.168 63.956,127.754 63.956,125.612 C63.956,123.652 65.384,122.07 67.386,122.07 C69.416,122.07 70.704,123.61 70.704,125.738 L70.704,126.102 L65.496,126.102 C65.608,127.11 66.364,127.964 67.638,127.964 C68.31,127.964 69.08,127.698 69.57,127.208 L70.242,128.174 C69.556,128.818 68.562,129.168 67.498,129.168 Z M69.29,125.052 C69.248,124.254 68.702,123.274 67.372,123.274 C66.126,123.274 65.538,124.24 65.482,125.052 L69.29,125.052 Z M73.63,129 L72.16,129 L72.16,122.238 L73.63,122.238 L73.63,123.218 C74.148,122.574 74.96,122.07 75.828,122.07 L75.828,123.526 C75.702,123.498 75.562,123.484 75.38,123.484 C74.75,123.484 73.924,123.904 73.63,124.394 L73.63,129 Z M76.598,129.154 C76.066,129.154 75.618,128.692 75.618,128.16 C75.618,127.642 76.066,127.194 76.598,127.194 C77.13,127.194 77.578,127.642 77.578,128.16 C77.578,128.692 77.13,129.154 76.598,129.154 Z M85.32,129 L83.85,129 L83.85,124.772 C83.85,123.708 83.304,123.372 82.478,123.372 C81.736,123.372 81.092,123.82 80.742,124.268 L80.742,129 L79.272,129 L79.272,122.238 L80.742,122.238 L80.742,123.148 C81.19,122.616 82.072,122.07 83.136,122.07 C84.592,122.07 85.32,122.854 85.32,124.24 L85.32,129 Z M92.838,129 L91.368,129 L91.368,128.258 C90.864,128.846 90.066,129.168 89.17,129.168 C88.078,129.168 86.832,128.412 86.832,126.928 C86.832,125.36 88.064,124.716 89.17,124.716 C90.094,124.716 90.864,125.01 91.368,125.584 L91.368,124.576 C91.368,123.792 90.71,123.316 89.786,123.316 C89.03,123.316 88.358,123.596 87.784,124.184 L87.168,123.162 C87.952,122.406 88.932,122.07 90.01,122.07 C91.522,122.07 92.838,122.7 92.838,124.506 L92.838,129 Z M89.758,128.16 C90.388,128.16 91.018,127.922 91.368,127.46 L91.368,126.424 C91.018,125.962 90.388,125.724 89.758,125.724 C88.932,125.724 88.302,126.214 88.302,126.942 C88.302,127.684 88.932,128.16 89.758,128.16 Z M104.514,129 L103.044,129 L103.044,124.59 C103.044,123.862 102.722,123.372 101.924,123.372 C101.266,123.372 100.65,123.82 100.356,124.268 L100.356,129 L98.886,129 L98.886,124.59 C98.886,123.862 98.578,123.372 97.78,123.372 C97.122,123.372 96.52,123.834 96.212,124.268 L96.212,129 L94.742,129 L94.742,122.238 L96.212,122.238 L96.212,123.148 C96.506,122.742 97.388,122.07 98.424,122.07 C99.432,122.07 100.048,122.574 100.272,123.302 C100.65,122.7 101.546,122.07 102.568,122.07 C103.8,122.07 104.514,122.742 104.514,124.114 L104.514,129 Z M109.554,129.168 C107.51,129.168 106.012,127.754 106.012,125.612 C106.012,123.652 107.44,122.07 109.442,122.07 C111.472,122.07 112.76,123.61 112.76,125.738 L112.76,126.102 L107.552,126.102 C107.664,127.11 108.42,127.964 109.694,127.964 C110.366,127.964 111.136,127.698 111.626,127.208 L112.298,128.174 C111.612,128.818 110.618,129.168 109.554,129.168 Z M111.346,125.052 C111.304,124.254 110.758,123.274 109.428,123.274 C108.182,123.274 107.594,124.24 107.538,125.052 L111.346,125.052 Z M113.502,131.66 L113.502,130.652 L114.356,130.652 C114.846,130.652 115.266,130.204 115.266,129.574 L115.266,126.83 C115.266,126.242 115.434,125.78 115.896,125.584 C115.434,125.388 115.266,124.926 115.266,124.338 L115.266,121.58 C115.266,120.936 114.846,120.516 114.356,120.516 L113.502,120.516 L113.502,119.508 L114.356,119.508 C115.378,119.508 116.344,120.306 116.344,121.594 L116.344,124.198 C116.344,124.716 116.582,125.15 117.072,125.15 L117.072,126.018 C116.582,126.018 116.344,126.452 116.344,126.97 L116.344,129.588 C116.344,130.876 115.378,131.66 114.356,131.66 L113.502,131.66 Z M119.494,126.13 L118.22,126.13 L117.954,119.662 L119.746,119.662 L119.494,126.13 Z M118.864,129.14 C118.332,129.14 117.884,128.692 117.884,128.16 C117.884,127.642 118.332,127.194 118.864,127.194 C119.396,127.194 119.83,127.642 119.83,128.16 C119.83,128.692 119.396,129.14 118.864,129.14 Z"/>
      <path fill="#F4F4F4" d="M27 146L173 146C174.656854 146 176 147.343146 176 149L176 149C176 150.656854 174.656854 152 173 152L27 152C25.3431458 152 24 150.656854 24 149L24 149C24 147.343146 25.3431458 146 27 146zM187 146L303 146C304.656854 146 306 147.343146 306 149L306 149C306 150.656854 304.656854 152 303 152L187 152C185.343146 152 184 150.656854 184 149L184 149C184 147.343146 185.343146 146 187 146zM27 164L243 164C244.656854 164 246 165.343146 246 167L246 167C246 168.656854 244.656854 170 243 170L27 170C25.3431458 170 24 168.656854 24 167L24 167C24 165.343146 25.3431458 164 27 164zM27 182L263 182C264.656854 182 266 183.343146 266 185L266 185C266 186.656854 264.656854 188 263 188L27 188C25.3431458 188 24 186.656854 24 185L24 185C24 183.343146 25.3431458 182 27 182zM27 200L61 200C62.6568542 200 64 201.343146 64 203L64 203C64 204.656854 62.6568542 206 61 206L27 206C25.3431458 206 24 204.656854 24 203L24 203C24 201.343146 25.3431458 200 27 200zM75 200L149 200C150.656854 200 152 201.343146 152 203L152 203C152 204.656854 150.656854 206 149 206L75 206C73.3431458 206 72 204.656854 72 203L72 203C72 201.343146 73.3431458 200 75 200zM163 200L277 200C278.656854 200 280 201.343146 280 203L280 203C280 204.656854 278.656854 206 277 206L163 206C161.343146 206 160 204.656854 160 203L160 203C160 201.343146 161.343146 200 163 200zM27 218L173 218C174.656854 218 176 219.343146 176 221L176 221C176 222.656854 174.656854 224 173 224L27 224C25.3431458 224 24 222.656854 24 221L24 221C24 219.343146 25.3431458 218 27 218zM27 248L61 248C62.6568542 248 64 249.343146 64 251L64 251C64 252.656854 62.6568542 254 61 254L27 254C25.3431458 254 24 252.656854 24 251L24 251C24 249.343146 25.3431458 248 27 248zM75 248L149 248C150.656854 248 152 249.343146 152 251L152 251C152 252.656854 150.656854 254 149 254L75 254C73.3431458 254 72 252.656854 72 251L72 251C72 249.343146 73.3431458 248 75 248z"/>
      <g transform="translate(24 278)">
        <rect width="88" height="120" fill="#F4F4F4" rx="4"/>
        <rect width="88" height="120" x="97" fill="#F4F4F4" rx="4"/>
        <rect width="88" height="120" x="194" fill="#F4F4F4" rx="4"/>
        <circle cx="44" cy="60" r="20" fill="#01B2D0"/>
        <rect width="32" height="32" x="125" y="44" fill="#F15242"/>
        <polygon fill="#FFC111" points="238.5 43 256 78 221 78"/>
      </g>
    </g>
    <g transform="translate(0 2)">
      <use fill="#000" filter="url(#personalization-c)" xlink:href="#personalization-d"/>
      <use fill="#FFF" stroke="#8D8D8D" stroke-opacity=".24" xlink:href="#personalization-d"/>
      <path fill="#384254" d="M47.31,28 L46.48,28 L46.48,22.39 L44.22,28 L43.88,28 L41.61,22.39 L41.61,28 L40.78,28 L40.78,21.33 L41.97,21.33 L44.05,26.47 L46.12,21.33 L47.31,21.33 L47.31,28 Z M53.24,28 L48.87,28 L48.87,21.33 L53.24,21.33 L53.24,22.07 L49.7,22.07 L49.7,24.22 L53.17,24.22 L53.17,24.96 L49.7,24.96 L49.7,27.26 L53.24,27.26 L53.24,28 Z M56.72,28.12 C55.57,28.12 54.71,27.68 54.16,27.06 L54.66,26.42 C55.09,26.92 55.81,27.38 56.75,27.38 C57.94,27.38 58.32,26.74 58.32,26.22 C58.32,24.5 54.37,25.46 54.37,23.08 C54.37,21.98 55.35,21.22 56.67,21.22 C57.68,21.22 58.47,21.57 59.03,22.16 L58.53,22.77 C58.03,22.21 57.33,21.97 56.6,21.97 C55.81,21.97 55.23,22.4 55.23,23.03 C55.23,24.53 59.18,23.67 59.18,26.16 C59.18,27.12 58.52,28.12 56.72,28.12 Z M62.58,28.12 C61.43,28.12 60.57,27.68 60.02,27.06 L60.52,26.42 C60.95,26.92 61.67,27.38 62.61,27.38 C63.8,27.38 64.18,26.74 64.18,26.22 C64.18,24.5 60.23,25.46 60.23,23.08 C60.23,21.98 61.21,21.22 62.53,21.22 C63.54,21.22 64.33,21.57 64.89,22.16 L64.39,22.77 C63.89,22.21 63.19,21.97 62.46,21.97 C61.67,21.97 61.09,22.4 61.09,23.03 C61.09,24.53 65.04,23.67 65.04,26.16 C65.04,27.12 64.38,28.12 62.58,28.12 Z M71.89,28 L70.94,28 L70.35,26.51 L67.03,26.51 L66.44,28 L65.49,28 L68.18,21.33 L69.21,21.33 L71.89,28 Z M70.11,25.78 L68.69,22.18 L67.28,25.78 L70.11,25.78 Z M75.55,28.13 C73.65,28.13 72.12,26.74 72.12,24.67 C72.12,22.59 73.65,21.22 75.55,21.22 C76.74,21.22 77.56,21.74 78.14,22.46 L77.48,22.88 C77.06,22.34 76.35,21.96 75.55,21.96 C74.09,21.96 72.98,23.07 72.98,24.67 C72.98,26.25 74.09,27.38 75.55,27.38 C76.35,27.38 77.01,27 77.35,26.66 L77.35,25.31 L75.05,25.31 L75.05,24.57 L78.17,24.57 L78.17,26.97 C77.55,27.67 76.64,28.13 75.55,28.13 Z M83.89,28 L79.52,28 L79.52,21.33 L83.89,21.33 L83.89,22.07 L80.35,22.07 L80.35,24.22 L83.82,24.22 L83.82,24.96 L80.35,24.96 L80.35,27.26 L83.89,27.26 L83.89,28 Z M87.37,28.12 C86.22,28.12 85.36,27.68 84.81,27.06 L85.31,26.42 C85.74,26.92 86.46,27.38 87.4,27.38 C88.59,27.38 88.97,26.74 88.97,26.22 C88.97,24.5 85.02,25.46 85.02,23.08 C85.02,21.98 86,21.22 87.32,21.22 C88.33,21.22 89.12,21.57 89.68,22.16 L89.18,22.77 C88.68,22.21 87.98,21.97 87.25,21.97 C86.46,21.97 85.88,22.4 85.88,23.03 C85.88,24.53 89.83,23.67 89.83,26.16 C89.83,27.12 89.17,28.12 87.37,28.12 Z"/>
      <path fill="#D8D8D8" d="M22.409713,16 L25.590287,16 C27.8190838,16 28.6272994,16.232064 29.4421143,16.6678318 C30.2569291,17.1035995 30.8964005,17.7430709 31.3321682,18.5578857 C31.767936,19.3727006 32,20.1809162 32,22.409713 L32,25.590287 C32,27.8190838 31.767936,28.6272994 31.3321682,29.4421143 C30.8964005,30.2569291 30.2569291,30.8964005 29.4421143,31.3321682 C28.6272994,31.767936 27.8190838,32 25.590287,32 L22.409713,32 C20.1809162,32 19.3727006,31.767936 18.5578857,31.3321682 C17.7430709,30.8964005 17.1035995,30.2569291 16.6678318,29.4421143 C16.232064,28.6272994 16,27.8190838 16,25.590287 L16,22.409713 C16,20.1809162 16.232064,19.3727006 16.6678318,18.5578857 C17.1035995,17.7430709 17.7430709,17.1035995 18.5578857,16.6678318 C19.3727006,16.232064 20.1809162,16 22.409713,16 Z"/>
      <path fill="#384254" d="M26.696 53L25.058 53 25.058 45.79 22.202 53 21.502 53 18.632 45.79 18.632 53 16.994 53 16.994 43.662 19.304 43.662 21.852 50.074 24.386 43.662 26.696 43.662 26.696 53zM34.256 53L32.786 53 32.786 52.258C32.282 52.846 31.484 53.168 30.588 53.168 29.496 53.168 28.25 52.412 28.25 50.928 28.25 49.36 29.482 48.716 30.588 48.716 31.512 48.716 32.282 49.01 32.786 49.584L32.786 48.576C32.786 47.792 32.128 47.316 31.204 47.316 30.448 47.316 29.776 47.596 29.202 48.184L28.586 47.162C29.37 46.406 30.35 46.07 31.428 46.07 32.94 46.07 34.256 46.7 34.256 48.506L34.256 53zM31.176 52.16C31.806 52.16 32.436 51.922 32.786 51.46L32.786 50.424C32.436 49.962 31.806 49.724 31.176 49.724 30.35 49.724 29.72 50.214 29.72 50.942 29.72 51.684 30.35 52.16 31.176 52.16zM37.63 53L36.16 53 36.16 43.662 37.63 43.662 37.63 53zM42.614 53.168C40.57 53.168 39.128 51.656 39.128 49.612 39.128 47.568 40.57 46.07 42.614 46.07 43.944 46.07 44.728 46.63 45.204 47.274L44.238 48.156C43.86 47.624 43.342 47.372 42.684 47.372 41.466 47.372 40.64 48.296 40.64 49.612 40.64 50.928 41.466 51.866 42.684 51.866 43.342 51.866 43.86 51.586 44.238 51.054L45.204 51.964C44.728 52.594 43.944 53.168 42.614 53.168zM49.572 53.168C47.416 53.168 46.1 51.544 46.1 49.612 46.1 47.666 47.416 46.07 49.572 46.07 51.728 46.07 53.044 47.666 53.044 49.612 53.044 51.544 51.728 53.168 49.572 53.168zM49.572 51.866C50.832 51.866 51.518 50.816 51.518 49.612 51.518 48.422 50.832 47.372 49.572 47.372 48.326 47.372 47.626 48.422 47.626 49.612 47.626 50.816 48.326 51.866 49.572 51.866zM56.012 53L54.542 53 54.542 43.662 56.012 43.662 56.012 53zM67.688 53L66.218 53 66.218 48.59C66.218 47.862 65.896 47.372 65.098 47.372 64.44 47.372 63.824 47.82 63.53 48.268L63.53 53 62.06 53 62.06 48.59C62.06 47.862 61.752 47.372 60.954 47.372 60.296 47.372 59.694 47.834 59.386 48.268L59.386 53 57.916 53 57.916 46.238 59.386 46.238 59.386 47.148C59.68 46.742 60.562 46.07 61.598 46.07 62.606 46.07 63.222 46.574 63.446 47.302 63.824 46.7 64.72 46.07 65.742 46.07 66.974 46.07 67.688 46.742 67.688 48.114L67.688 53zM80.484 53L78.58 53 76.522 49.514 74.884 49.514 74.884 53 73.246 53 73.246 43.662 77.348 43.662C79.196 43.662 80.414 44.852 80.414 46.588 80.414 48.24 79.322 49.15 78.188 49.332L80.484 53zM77.138 48.072C78.062 48.072 78.734 47.484 78.734 46.574 78.734 45.678 78.062 45.104 77.138 45.104L74.884 45.104 74.884 48.072 77.138 48.072zM84.726 53.168C82.682 53.168 81.184 51.754 81.184 49.612 81.184 47.652 82.612 46.07 84.614 46.07 86.644 46.07 87.932 47.61 87.932 49.738L87.932 50.102 82.724 50.102C82.836 51.11 83.592 51.964 84.866 51.964 85.538 51.964 86.308 51.698 86.798 51.208L87.47 52.174C86.784 52.818 85.79 53.168 84.726 53.168zM86.518 49.052C86.476 48.254 85.93 47.274 84.6 47.274 83.354 47.274 82.766 48.24 82.71 49.052L86.518 49.052zM89.108 55.646L89.318 54.33C89.472 54.4 89.71 54.442 89.878 54.442 90.354 54.442 90.662 54.302 90.858 53.854L91.194 53.084 88.408 46.238 89.99 46.238 91.964 51.306 93.938 46.238 95.506 46.238 92.244 54.218C91.782 55.366 90.984 55.73 89.934 55.744 89.724 55.744 89.304 55.702 89.108 55.646zM102.478 53L101.008 53 101.008 48.772C101.008 47.708 100.462 47.372 99.636 47.372 98.894 47.372 98.25 47.82 97.9 48.268L97.9 53 96.43 53 96.43 46.238 97.9 46.238 97.9 47.148C98.348 46.616 99.23 46.07 100.294 46.07 101.75 46.07 102.478 46.854 102.478 48.24L102.478 53zM107.448 53.168C105.292 53.168 103.976 51.544 103.976 49.612 103.976 47.666 105.292 46.07 107.448 46.07 109.604 46.07 110.92 47.666 110.92 49.612 110.92 51.544 109.604 53.168 107.448 53.168zM107.448 51.866C108.708 51.866 109.394 50.816 109.394 49.612 109.394 48.422 108.708 47.372 107.448 47.372 106.202 47.372 105.502 48.422 105.502 49.612 105.502 50.816 106.202 51.866 107.448 51.866zM113.888 53L112.418 53 112.418 43.662 113.888 43.662 113.888 53zM122.022 53L120.552 53 120.552 52.076C120.034 52.748 119.264 53.168 118.382 53.168 116.66 53.168 115.386 51.852 115.386 49.612 115.386 47.428 116.646 46.07 118.382 46.07 119.236 46.07 120.02 46.448 120.552 47.176L120.552 43.662 122.022 43.662 122.022 53zM118.816 51.866C119.502 51.866 120.23 51.46 120.552 50.956L120.552 48.282C120.23 47.778 119.502 47.372 118.816 47.372 117.64 47.372 116.898 48.31 116.898 49.612 116.898 50.928 117.64 51.866 118.816 51.866zM126.25 53.168C125.088 53.168 124.052 52.79 123.352 52.104L124.024 51.054C124.5 51.544 125.438 51.992 126.306 51.992 127.188 51.992 127.65 51.628 127.65 51.096 127.65 49.766 123.562 50.718 123.562 48.114 123.562 47.008 124.514 46.07 126.222 46.07 127.37 46.07 128.238 46.476 128.84 47.008L128.224 48.044C127.818 47.596 127.076 47.232 126.222 47.232 125.452 47.232 124.976 47.596 124.976 48.072 124.976 49.262 129.064 48.366 129.064 51.054 129.064 52.258 128.07 53.168 126.25 53.168zM24.82 73L23.7 73 18.254 65.552 18.254 73 17.092 73 17.092 63.662 18.282 63.662 23.658 70.956 23.658 63.662 24.82 63.662 24.82 73zM30.028 73.168C28.012 73.168 26.57 71.726 26.57 69.612 26.57 67.652 27.97 66.07 29.902 66.07 31.946 66.07 33.15 67.666 33.15 69.696L33.15 69.962 27.69 69.962C27.774 71.236 28.656 72.3 30.112 72.3 30.896 72.3 31.666 71.992 32.212 71.432L32.716 72.118C32.03 72.79 31.12 73.168 30.028 73.168zM32.114 69.178C32.1 68.184 31.428 66.938 29.888 66.938 28.446 66.938 27.732 68.156 27.676 69.178L32.114 69.178zM41.76 73L40.696 73 38.932 67.568 37.168 73 36.118 73 33.962 66.238 35.054 66.238 36.706 71.628 38.484 66.238 39.394 66.238 41.158 71.628 42.81 66.238 43.916 66.238 41.76 73zM50.902 73.168C49.782 73.168 48.858 72.818 48.172 72.104L48.704 71.348C49.152 71.866 50.006 72.314 50.93 72.314 51.966 72.314 52.54 71.824 52.54 71.152 52.54 69.514 48.354 70.522 48.354 68.016 48.354 66.952 49.25 66.07 50.86 66.07 52.022 66.07 52.834 66.504 53.366 67.05L52.876 67.778C52.47 67.288 51.742 66.924 50.86 66.924 49.936 66.924 49.362 67.386 49.362 67.988 49.362 69.458 53.548 68.492 53.548 71.124 53.548 72.258 52.638 73.168 50.902 73.168zM60.534 73L59.484 73 59.484 72.23C58.938 72.846 58.154 73.168 57.244 73.168 56.11 73.168 54.892 72.398 54.892 70.928 54.892 69.402 56.096 68.702 57.244 68.702 58.168 68.702 58.938 68.996 59.484 69.612L59.484 68.394C59.484 67.498 58.756 66.98 57.776 66.98 56.964 66.98 56.306 67.26 55.704 67.918L55.214 67.19C55.942 66.434 56.81 66.07 57.916 66.07 59.358 66.07 60.534 66.714 60.534 68.352L60.534 73zM57.636 72.412C58.364 72.412 59.078 72.132 59.484 71.572L59.484 70.284C59.078 69.738 58.364 69.458 57.636 69.458 56.642 69.458 55.956 70.074 55.956 70.928 55.956 71.796 56.642 72.412 57.636 72.412zM63.698 73L62.648 73 62.648 63.662 63.698 63.662 63.698 73zM68.864 73.168C66.848 73.168 65.406 71.726 65.406 69.612 65.406 67.652 66.806 66.07 68.738 66.07 70.782 66.07 71.986 67.666 71.986 69.696L71.986 69.962 66.526 69.962C66.61 71.236 67.492 72.3 68.948 72.3 69.732 72.3 70.502 71.992 71.048 71.432L71.552 72.118C70.866 72.79 69.956 73.168 68.864 73.168zM70.95 69.178C70.936 68.184 70.264 66.938 68.724 66.938 67.282 66.938 66.568 68.156 66.512 69.178L70.95 69.178zM75.836 73.168C74.716 73.168 73.792 72.818 73.106 72.104L73.638 71.348C74.086 71.866 74.94 72.314 75.864 72.314 76.9 72.314 77.474 71.824 77.474 71.152 77.474 69.514 73.288 70.522 73.288 68.016 73.288 66.952 74.184 66.07 75.794 66.07 76.956 66.07 77.768 66.504 78.3 67.05L77.81 67.778C77.404 67.288 76.676 66.924 75.794 66.924 74.87 66.924 74.296 67.386 74.296 67.988 74.296 69.458 78.482 68.492 78.482 71.124 78.482 72.258 77.572 73.168 75.836 73.168zM89.094 73L88.044 73 88.044 72.23C87.498 72.846 86.714 73.168 85.804 73.168 84.67 73.168 83.452 72.398 83.452 70.928 83.452 69.402 84.656 68.702 85.804 68.702 86.728 68.702 87.498 68.996 88.044 69.612L88.044 68.394C88.044 67.498 87.316 66.98 86.336 66.98 85.524 66.98 84.866 67.26 84.264 67.918L83.774 67.19C84.502 66.434 85.37 66.07 86.476 66.07 87.918 66.07 89.094 66.714 89.094 68.352L89.094 73zM86.196 72.412C86.924 72.412 87.638 72.132 88.044 71.572L88.044 70.284C87.638 69.738 86.924 69.458 86.196 69.458 85.202 69.458 84.516 70.074 84.516 70.928 84.516 71.796 85.202 72.412 86.196 72.412zM92.258 73L91.208 73 91.208 63.662 92.258 63.662 92.258 73zM97.424 73.168C95.408 73.168 93.966 71.726 93.966 69.612 93.966 67.652 95.366 66.07 97.298 66.07 99.342 66.07 100.546 67.666 100.546 69.696L100.546 69.962 95.086 69.962C95.17 71.236 96.052 72.3 97.508 72.3 98.292 72.3 99.062 71.992 99.608 71.432L100.112 72.118C99.426 72.79 98.516 73.168 97.424 73.168zM99.51 69.178C99.496 68.184 98.824 66.938 97.284 66.938 95.842 66.938 95.128 68.156 95.072 69.178L99.51 69.178zM103.29 73L102.24 73 102.24 66.238 103.29 66.238 103.29 67.316C103.836 66.616 104.62 66.084 105.544 66.084L105.544 67.162C105.418 67.148 105.292 67.134 105.138 67.134 104.48 67.134 103.598 67.666 103.29 68.212L103.29 73zM108.582 73.168C107.574 73.168 107.07 72.594 107.07 71.586L107.07 67.162 105.95 67.162 105.95 66.238 107.07 66.238 107.07 64.39 108.134 64.39 108.134 66.238 109.506 66.238 109.506 67.162 108.134 67.162 108.134 71.362C108.134 71.866 108.358 72.23 108.806 72.23 109.114 72.23 109.38 72.09 109.52 71.936L109.828 72.734C109.562 72.986 109.184 73.168 108.582 73.168z"/>
    </g>
    <g transform="rotate(97 -148.161 224.463)">
      <path fill="#6FD350" d="M23.5294807,15.1746907 L36.9457885,42.162653 C37.9291882,44.1408391 37.1227545,46.5416787 35.1445684,47.5250784 C34.5912973,47.8001216 33.9818312,47.9432556 33.3639658,47.9432556 L6.53135016,47.9432556 C4.32221116,47.9432556 2.53135016,46.1523946 2.53135016,43.9432556 C2.53135016,43.3253902 2.67448419,42.7159241 2.9495274,42.162653 L16.3658352,15.1746907 C17.3492349,13.1965046 19.7500745,12.3900709 21.7282606,13.3734706 C22.5089107,13.7615488 23.1414024,14.3940406 23.5294807,15.1746907 Z" opacity=".2"/>
      <path stroke="#6FD350" stroke-width="2" d="M31.2136794,7.96777482 C30.9226207,7.38228725 30.4482519,6.90791843 29.8627643,6.61685972 C28.3791248,5.87930997 26.578495,6.48413526 25.8409453,7.96777482 L12.4246375,34.9557371 C12.2183551,35.3706905 12.1110046,35.82779 12.1110046,36.2911891 C12.1110046,37.9480434 13.4541503,39.2911891 15.1110046,39.2911891 L41.9436202,39.2911891 C42.4070192,39.2911891 42.8641188,39.1838386 43.2790721,38.9775562 C44.7627117,38.2400064 45.367537,36.4393767 44.6299872,34.9557371 L31.2136794,7.96777482 Z"/>
    </g>
    <g transform="rotate(-91 145.47 -79.76)">
      <ellipse cx="18.234" cy="13.678" stroke="#FFC111" stroke-width="2" rx="12.091" ry="12.078"/>
      <ellipse cx="13.819" cy="17.585" fill="#FFC111" opacity=".2" rx="13.091" ry="13.078"/>
    </g>
    <g transform="rotate(24 183.231 870.069)">
      <rect width="15.96" height="15.833" x=".601" y="3.015" fill="#01B2D0" opacity=".1" rx="3"/>
      <rect width="13.96" height="13.833" x="3.766" y="1.286" stroke="#01B2D0" stroke-width="2" rx="3"/>
    </g>
    <g transform="rotate(-149 56.725 114.72)">
      <rect width="19.32" height="19.167" x=".728" y="3.65" fill="#01B2D0" opacity=".1" rx="3"/>
      <rect width="17.32" height="17.167" x="4.349" y="1.346" stroke="#01B2D0" stroke-width="2" rx="3"/>
    </g>
  </g>
</svg>
