<svg xmlns="http://www.w3.org/2000/svg" xmlns:xlink="http://www.w3.org/1999/xlink" width="64" height="64" viewBox="0 0 64 64">
  <defs>
    <rect id="reusable-blocks-b" width="32" height="32" x="0" y="0" rx="4"/>
    <filter id="reusable-blocks-a" width="140.6%" height="140.6%" x="-20.3%" y="-17.2%" filterUnits="objectBoundingBox">
      <feOffset dy="1" in="SourceAlpha" result="shadowOffsetOuter1"/>
      <feGaussianBlur in="shadowOffsetOuter1" result="shadowBlurOuter1" stdDeviation="2"/>
      <feComposite in="shadowBlurOuter1" in2="SourceAlpha" operator="out" result="shadowBlurOuter1"/>
      <feColorMatrix in="shadowBlurOuter1" values="0 0 0 0 0.219607843   0 0 0 0 0.258823529   0 0 0 0 0.329411765  0 0 0 0.1 0"/>
    </filter>
  </defs>
  <g fill="none" fill-rule="evenodd">
    <g fill="#1B2E5B" transform="translate(5 3)">
      <path d="M29,2 L29,4 L2,4 L2,54 L14,54 L14,56 L0,56 L0,2 L29,2 Z"/>
      <polygon points="28 0 33 3 28 6"/>
      <g transform="rotate(180 27 29)">
        <path d="M29,2 L29,4 L2,4 L2,54 L14,54 L14,56 L0,56 L0,2 L29,2 Z"/>
        <polygon points="28 0 33 3 28 6"/>
      </g>
    </g>
    <g transform="translate(16 16)">
      <use fill="#000" filter="url(#reusable-blocks-a)" xlink:href="#reusable-blocks-b"/>
      <rect width="31" height="31" x=".5" y=".5" fill="#FFF" stroke="#E1E1E1" stroke-linejoin="square" rx="4"/>
      <rect width="20" height="2" x="6" y="15" fill="#01B2D0" rx="1"/>
    </g>
  </g>
</svg>
