<svg xmlns="http://www.w3.org/2000/svg" width="165" height="244" viewBox="0 0 165 244"><g fill="none" fill-rule="evenodd"><path fill="#1B2E5B" d="M115.187 83.653a7.994 7.994 0 0111.306 0l32.535 32.535a7.994 7.994 0 010 11.306l-32.535 32.535a7.994 7.994 0 01-11.306 0l-32.535-32.535a7.994 7.994 0 010-11.306l32.535-32.535z"/><path fill="#FFF" d="M110.776 115h2.398l6.71 15.576h-3.168l-1.452-3.564h-6.754l-1.408 3.564H104L110.776 115zm3.52 9.636l-2.398-6.336-2.442 6.336h4.84zm7.128-9.636h5.082c.895 0 1.701.08 2.42.242.719.161 1.335.425 1.848.792.513.367.91.836 1.188 1.408.279.572.418 1.261.418 2.068 0 .865-.161 1.591-.484 2.178a3.928 3.928 0 01-1.309 1.419c-.55.36-1.192.62-1.925.781-.733.161-1.51.242-2.332.242h-2.134v6.446h-2.772V115zm4.708 6.798c.455 0 .887-.033 1.298-.099.41-.066.777-.183 1.1-.352.323-.169.58-.4.77-.693.19-.293.286-.675.286-1.144 0-.455-.095-.825-.286-1.111a1.977 1.977 0 00-.759-.671 3.25 3.25 0 00-1.078-.319 9.838 9.838 0 00-1.243-.077h-2.024v4.466h1.936zm8.712-6.798h2.772v15.576h-2.772V115z"/><path fill="#FFF" stroke="#6FD350" stroke-width="2" d="M22 137c5.79 0 11.04 2.354 14.843 6.157C40.646 146.959 43 152.209 43 158c0 5.79-2.354 11.04-6.157 14.843C33.041 176.646 27.791 179 22 179c-5.79 0-11.04-2.354-14.843-6.157C3.354 169.041 1 163.791 1 158c0-5.79 2.354-11.04 6.157-14.843C10.959 139.354 16.209 137 22 137z"/><path fill="#6FD350" d="M25.593 160.5c.916-.912 1.551-2.037 1.74-2.7.124-.424.211-.878.266-1.218.389-.176.688-.48.852-.863.231-.555.357-1.744.36-1.794.098-.944-.25-1.485-.282-1.514.405-3.82-.88-4.576-1.735-4.71-.303-.048-.762-.157-.968-.374-.478-.503-.69-1.062-1.518-1.018-.306.017-.72-.074-.955-.263-.315-.253-.752-.546-1.076-.546-.318 0-.718.283-1.01.53-.229.197-.633.295-.94.277-.827-.046-1.04.515-1.517 1.017-.206.218-.667.327-.969.374-.854.135-2.139.89-1.734 4.71-.035.034-.378.58-.282 1.515.005.05.128 1.241.36 1.794.162.382.463.687.852.863.054.342.144.794.265 1.218.196.68.836 1.827 1.766 2.746h-.018c-.11 4.459-8.369 3.112-9.55 8.201 3.074 3.49 7.678 5.716 12.82 5.716s9.75-2.225 12.816-5.713c-1.173-5.102-9.413-3.8-9.543-8.247z"/><path fill="#FFF" stroke="#F15242" stroke-width="2" d="M70 201c5.79 0 11.04 2.354 14.843 6.157C88.646 210.959 91 216.209 91 222c0 5.79-2.354 11.04-6.157 14.843C81.041 240.646 75.791 243 70 243c-5.79 0-11.04-2.354-14.843-6.157C51.354 233.041 49 227.791 49 222c0-5.79 2.354-11.04 6.157-14.843C58.959 203.354 64.209 201 70 201z"/><path fill="#F15242" fill-rule="nonzero" d="M78.2 220.36c.484-.53.1-1.374-.628-1.374h-5.417l2.518-7.834c.272-.847-.826-1.459-1.43-.797l-11.442 12.534c-.485.532-.1 1.375.627 1.375h5.414l-2.515 7.834c-.272.847.826 1.459 1.43.797l11.442-12.534z"/><path fill="#FFF" stroke="#6F0DFB" stroke-width="2" d="M70 1c5.79 0 11.04 2.354 14.843 6.157C88.646 10.959 91 16.209 91 22c0 5.79-2.354 11.04-6.157 14.843C81.041 40.646 75.791 43 70 43c-5.79 0-11.04-2.354-14.843-6.157C51.354 33.041 49 27.791 49 22c0-5.79 2.354-11.04 6.157-14.843C58.959 3.354 64.209 1 70 1z"/><g transform="translate(57 13)"><rect width="26" height="18" fill="#6F0DFB" rx="1.25"/><path fill="#FFF" d="M8.302 10.817c.523-.451 1.43-.534 2.03-.181l2.502 1.47c.598.351 1.512.278 2.036-.16l5.87-4.9c.527-.44 1.388-.443 1.919-.012L24 8.125v8.125H2l6.302-5.433z"/><rect width="4" height="4" x="3" y="3" fill="#FFF" rx="2"/></g><path fill="#FFF" stroke="#FFC111" stroke-width="2" d="M22 65c5.79 0 11.04 2.354 14.843 6.157C40.646 74.959 43 80.209 43 86c0 5.79-2.354 11.04-6.157 14.843C33.041 104.646 27.791 107 22 107c-5.79 0-11.04-2.354-14.843-6.157C3.354 97.041 1 91.791 1 86c0-5.79 2.354-11.04 6.157-14.843C10.959 67.354 16.209 65 22 65z"/><path fill="#FFC111" d="M19.568 96.029a3.29 3.29 0 002.386.97 3.289 3.289 0 002.388-.97l7.085-7.091a6.287 6.287 0 000-8.855 6.198 6.198 0 00-8.8 0l-.63.624-.624-.624a6.198 6.198 0 00-8.8 0 6.286 6.286 0 000 8.853l6.995 7.093z"/></g></svg>