<svg width="172" height="168" viewBox="0 0 172 168" xmlns="http://www.w3.org/2000/svg" xmlns:xlink="http://www.w3.org/1999/xlink"><defs><rect id="a" x="0" y="0" width="172" height="150" rx="5"/><mask id="b" maskContentUnits="userSpaceOnUse" maskUnits="objectBoundingBox" x="0" y="0" width="172" height="150" fill="#fff"><use xlink:href="#a"/></mask></defs><g fill="none" fill-rule="evenodd"><use stroke="#0AA6D2" mask="url(#b)" stroke-width="4" fill="#FFF" xlink:href="#a"/><rect fill="#A8DFEE" x="22" y="105" width="11" height="25" rx="3"/><rect fill="#CEEDF6" x="40" y="72" width="11" height="58" rx="3"/><rect fill="#A8DFEE" x="58" y="93" width="11" height="37" rx="3"/><path d="M76 50.991A3 3 0 0 1 79.006 48h4.988A2.998 2.998 0 0 1 87 50.991v76.018A3 3 0 0 1 83.994 130h-4.988A2.998 2.998 0 0 1 76 127.009V50.99z" fill="#CEEDF6"/><path d="M94 34.003A3.007 3.007 0 0 1 97.006 31h4.988A3.004 3.004 0 0 1 105 34.003v92.994a3.007 3.007 0 0 1-3.006 3.003h-4.988A3.004 3.004 0 0 1 94 126.997V34.003zm56.025 5.718c-2.48 4.745-7.448 7.984-13.172 7.984-8.203 0-14.853-6.65-14.853-14.852C122 24.65 128.65 18 136.853 18c.12 0 .241.001.362.004v15.21l12.81 6.507z" fill="#A8DFEE"/><path d="M137.215 63.004a14.51 14.51 0 0 0-.362-.004C128.65 63 122 69.65 122 77.853c0 6.63 4.344 12.245 10.34 14.154l4.875-13.792v-15.21z" fill="#CEEDF6"/><path d="M150.202 108.334a14.793 14.793 0 0 1 1.503 6.519c0 8.202-6.65 14.852-14.852 14.852-8.203 0-14.853-6.65-14.853-14.852 0-8.203 6.65-14.853 14.853-14.853.12 0 .241.001.362.004v15.21l12.987-6.88z" fill="#A8DFEE"/><rect fill="#027BB6" transform="rotate(45 86.299 149.299)" x="71.978" y="134.913" width="28.642" height="28.772" rx="5"/></g></svg>