<svg width="819" height="309" viewBox="0 0 819 309" xmlns="http://www.w3.org/2000/svg" xmlns:xlink="http://www.w3.org/1999/xlink"><defs><path d="M0 2.992A3 3 0 0 1 3 0h153c1.657 0 3 1.343 3 2.992v192.016a3 3 0 0 1-3 2.992H3c-1.657 0-3-1.343-3-2.992V2.992z" id="a"/><mask id="f" maskContentUnits="userSpaceOnUse" maskUnits="objectBoundingBox" x="0" y="0" width="159" height="198" fill="#fff"><use xlink:href="#a"/></mask><path d="M0 2.992A3 3 0 0 1 3 0h153c1.657 0 3 1.343 3 2.992v192.016a3 3 0 0 1-3 2.992H3c-1.657 0-3-1.343-3-2.992V2.992z" id="b"/><mask id="g" maskContentUnits="userSpaceOnUse" maskUnits="objectBoundingBox" x="0" y="0" width="159" height="198" fill="#fff"><use xlink:href="#b"/></mask><path d="M0 2.992A3 3 0 0 1 3 0h153c1.657 0 3 1.343 3 2.992v192.016a3 3 0 0 1-3 2.992H3c-1.657 0-3-1.343-3-2.992V2.992z" id="c"/><mask id="h" maskContentUnits="userSpaceOnUse" maskUnits="objectBoundingBox" x="0" y="0" width="159" height="198" fill="#fff"><use xlink:href="#c"/></mask><path d="M0 2.992A3 3 0 0 1 3 0h153c1.657 0 3 1.343 3 2.992v192.016a3 3 0 0 1-3 2.992H3c-1.657 0-3-1.343-3-2.992V2.992z" id="d"/><mask id="i" maskContentUnits="userSpaceOnUse" maskUnits="objectBoundingBox" x="0" y="0" width="159" height="198" fill="#fff"><use xlink:href="#d"/></mask><path d="M0 2.992A3 3 0 0 1 3 0h153c1.657 0 3 1.343 3 2.992v192.016a3 3 0 0 1-3 2.992H3c-1.657 0-3-1.343-3-2.992V2.992z" id="e"/><mask id="j" maskContentUnits="userSpaceOnUse" maskUnits="objectBoundingBox" x="0" y="0" width="159" height="198" fill="#fff"><use xlink:href="#e"/></mask></defs><g fill="none" fill-rule="evenodd"><g transform="translate(82 -2)"><path stroke="#BAE9AC" stroke-width="3" stroke-linecap="round" stroke-linejoin="round" stroke-dasharray="6,8" opacity=".5" d="M374.477 33.916h116.189v61.627"/><path stroke="#FFC111" stroke-width="3" stroke-linecap="round" stroke-linejoin="round" stroke-dasharray="6,8" opacity=".1" d="M515.827 43.916h140.308v61.627"/><path stroke="#9A56FC" stroke-width="3" stroke-linecap="round" stroke-linejoin="round" stroke-dasharray="6,8" opacity=".1" d="M140.81 43.916H.503v61.627"/><path stroke="#F7ADA5" stroke-width="3" stroke-linecap="round" stroke-linejoin="round" stroke-dasharray="6,8" opacity=".5" d="M282.296 33.227H160.594v61.626"/><path d="M325.933 85.42v-15" stroke="#B3E2F1" stroke-width="3" stroke-linecap="round" stroke-linejoin="round" stroke-dasharray="6,8"/><rect fill="#CEEDF6" transform="rotate(45 325.794 32.61)" x="302.958" y="9.659" width="45.672" height="45.902" rx="5"/><rect fill="#CEEDF6" opacity=".319" transform="rotate(45 328.55 35.368)" x="305.714" y="12.417" width="45.672" height="45.902" rx="5"/><path d="M318.25 26.765h1.636l4.575 10.62h-2.16l-.99-2.43h-4.605l-.96 2.43h-2.115l4.62-10.62zm2.4 6.57l-1.634-4.32-1.665 4.32h3.3zm4.86-6.57h3.466c.61 0 1.16.055 1.65.165.49.11.91.29 1.26.54.35.25.62.57.81.96.19.39.285.86.285 1.41 0 .59-.11 1.085-.33 1.485-.22.4-.518.722-.893.967a3.914 3.914 0 0 1-1.312.533c-.5.11-1.03.165-1.59.165H327.4v4.395h-1.89v-10.62zm3.21 4.635c.31 0 .606-.023.886-.068.28-.045.53-.125.75-.24a1.37 1.37 0 0 0 .525-.472c.13-.2.195-.46.195-.78 0-.31-.065-.563-.195-.758a1.348 1.348 0 0 0-.518-.457 2.216 2.216 0 0 0-.735-.218 6.708 6.708 0 0 0-.847-.052h-1.38V31.4h1.32zm5.94-4.635h1.89v10.62h-1.89v-10.62z" fill="#0AA6D2"/></g><g transform="translate(330 91)"><use stroke="#0AA6D2" mask="url(#f)" stroke-width="4" fill="#E7F6FB" xlink:href="#a"/><rect fill="#D3EEF7" x="10.052" y="128.494" width="44.776" height="40.697" rx="2"/><rect fill="#D3EEF7" x="57.569" y="128.494" width="44.776" height="40.697" rx="2"/><rect fill="#D3EEF7" x="104.629" y="128.494" width="44.776" height="40.697" rx="2"/><rect fill="#D8EFF7" x="1.738" y="1.737" width="155.525" height="16.919" rx="3"/><g fill="#84D2E8"><path d="M79.421 76.295c-6.425 0-11.65-5.23-11.65-11.66 0-6.431 5.225-11.661 11.65-11.661 6.426 0 11.651 5.23 11.651 11.66s-5.225 11.66-11.65 11.66z" fill-opacity=".201"/><path d="M81.698 67.054c.637-.635 1.078-1.416 1.21-1.877.086-.294.146-.61.184-.846.27-.122.478-.334.593-.6.16-.385.248-1.211.25-1.246.068-.656-.174-1.032-.196-1.052.281-2.654-.612-3.179-1.206-3.272-.211-.033-.53-.109-.673-.26-.332-.349-.48-.737-1.055-.707-.213.012-.5-.052-.664-.183-.22-.175-.523-.38-.748-.38-.22 0-.5.197-.702.37-.159.136-.44.204-.653.191-.575-.031-.723.358-1.055.707-.143.152-.464.227-.673.26-.594.094-1.487.618-1.206 3.273-.024.023-.262.402-.196 1.051.004.035.09.863.25 1.247.113.266.323.477.593.6.037.237.1.551.184.846.136.473.581 1.269 1.227 1.908h-.012c-.076 3.097-5.817 2.162-6.638 5.697 2.136 2.425 5.337 3.971 8.911 3.971s6.776-1.546 8.908-3.97c-.815-3.544-6.543-2.638-6.633-5.728z" fill-opacity=".401"/></g><rect fill="#B3E2F1" x="29.698" y="35.21" width="31.069" height="8.231" rx="3"/><rect fill="#D3EEF7" x="48.888" y="98.176" width="24.216" height="5.487" rx="2.744"/><rect fill="#B3E2F1" x="64.422" y="35.21" width="21.931" height="8.231" rx="3"/><rect fill="#B3E2F1" x="89.552" y="35.21" width="39.75" height="8.231" rx="3"/><rect fill="#D3EEF7" x="78.129" y="98.176" width="31.983" height="5.487" rx="2.744"/><rect fill="#B3E2F1" x="56.198" y="83.681" width="24.216" height="7.316" rx="3"/><rect fill="#B3E2F1" x="83.612" y="83.681" width="19.647" height="7.316" rx="3"/><rect fill="#B3E2F1" x="10.052" y="117.062" width="24.216" height="5.487" rx="2.744"/><rect fill="#B3E2F1" x="10.052" y="172.85" width="24.216" height="5.487" rx="2.744"/><rect fill="#B3E2F1" x="57.569" y="172.85" width="24.216" height="5.487" rx="2.744"/><rect fill="#B3E2F1" x="104.629" y="172.85" width="24.216" height="5.487" rx="2.744"/><rect fill="#D3EEF7" x="10.052" y="180.624" width="14.621" height="4.573" rx="2.286"/><rect fill="#D3EEF7" x="57.569" y="180.624" width="14.621" height="4.573" rx="2.286"/><rect fill="#D3EEF7" x="104.629" y="180.624" width="14.621" height="4.573" rx="2.286"/><rect fill="#B3E2F1" x="20.56" y="6.31" width="24.216" height="2.744" rx="1"/><rect fill="#B3E2F1" x="20.56" y="11.34" width="51.629" height="2.744" rx="1"/><rect fill="#B3E2F1" x="5.026" y="6.31" width="11.422" height="7.774" rx="3"/><path d="M7.08 8.716c-.923-.74-.726-1.339.46-1.339h6.395c1.177 0 1.39.593.46 1.339l-1.986 1.59c-.924.739-2.413.745-3.343 0L7.08 8.716z" fill="#D7EFF7" opacity=".569"/></g><g opacity=".5" transform="translate(495 101)"><use stroke="#0AA6D2" mask="url(#g)" stroke-width="4" fill="#E7F6FB" xlink:href="#b"/><rect fill="#D3EEF7" x="10.052" y="128.494" width="44.776" height="40.697" rx="2"/><rect fill="#D3EEF7" x="57.569" y="128.494" width="44.776" height="40.697" rx="2"/><rect fill="#D3EEF7" x="104.629" y="128.494" width="44.776" height="40.697" rx="2"/><rect fill="#D8EFF7" x="1.738" y="1.737" width="155.525" height="16.919" rx="3"/><g fill="#84D2E8"><path d="M79.421 76.295c-6.425 0-11.65-5.23-11.65-11.66 0-6.431 5.225-11.661 11.65-11.661 6.426 0 11.651 5.23 11.651 11.66s-5.225 11.66-11.65 11.66z" fill-opacity=".201"/><path d="M81.698 67.054c.637-.635 1.078-1.416 1.21-1.877.086-.294.146-.61.184-.846.27-.122.478-.334.593-.6.16-.385.248-1.211.25-1.246.068-.656-.174-1.032-.196-1.052.281-2.654-.612-3.179-1.206-3.272-.211-.033-.53-.109-.673-.26-.332-.349-.48-.737-1.055-.707-.213.012-.5-.052-.664-.183-.22-.175-.523-.38-.748-.38-.22 0-.5.197-.702.37-.159.136-.44.204-.653.191-.575-.031-.723.358-1.055.707-.143.152-.464.227-.673.26-.594.094-1.487.618-1.206 3.273-.024.023-.262.402-.196 1.051.004.035.09.863.25 1.247.113.266.323.477.593.6.037.237.1.551.184.846.136.473.581 1.269 1.227 1.908h-.012c-.076 3.097-5.817 2.162-6.638 5.697 2.136 2.425 5.337 3.971 8.911 3.971s6.776-1.546 8.908-3.97c-.815-3.544-6.543-2.638-6.633-5.728z" fill-opacity=".401"/></g><rect fill="#B3E2F1" x="29.698" y="35.21" width="31.069" height="8.231" rx="3"/><rect fill="#D3EEF7" x="48.888" y="98.176" width="24.216" height="5.487" rx="2.744"/><rect fill="#B3E2F1" x="64.422" y="35.21" width="21.931" height="8.231" rx="3"/><rect fill="#B3E2F1" x="89.552" y="35.21" width="39.75" height="8.231" rx="3"/><rect fill="#D3EEF7" x="78.129" y="98.176" width="31.983" height="5.487" rx="2.744"/><rect fill="#B3E2F1" x="56.198" y="83.681" width="24.216" height="7.316" rx="3"/><rect fill="#B3E2F1" x="83.612" y="83.681" width="19.647" height="7.316" rx="3"/><rect fill="#B3E2F1" x="10.052" y="117.062" width="24.216" height="5.487" rx="2.744"/><rect fill="#B3E2F1" x="10.052" y="172.85" width="24.216" height="5.487" rx="2.744"/><rect fill="#B3E2F1" x="57.569" y="172.85" width="24.216" height="5.487" rx="2.744"/><rect fill="#B3E2F1" x="104.629" y="172.85" width="24.216" height="5.487" rx="2.744"/><rect fill="#D3EEF7" x="10.052" y="180.624" width="14.621" height="4.573" rx="2.286"/><rect fill="#D3EEF7" x="57.569" y="180.624" width="14.621" height="4.573" rx="2.286"/><rect fill="#D3EEF7" x="104.629" y="180.624" width="14.621" height="4.573" rx="2.286"/><rect fill="#B3E2F1" x="20.56" y="6.31" width="24.216" height="2.744" rx="1"/><rect fill="#B3E2F1" x="20.56" y="11.34" width="51.629" height="2.744" rx="1"/><rect fill="#B3E2F1" x="5.026" y="6.31" width="11.422" height="7.774" rx="3"/><path d="M7.08 8.716c-.923-.74-.726-1.339.46-1.339h6.395c1.177 0 1.39.593.46 1.339l-1.986 1.59c-.924.739-2.413.745-3.343 0L7.08 8.716z" fill="#D7EFF7" opacity=".569"/></g><g opacity=".2" transform="translate(660 111)"><use stroke="#0AA6D2" mask="url(#h)" stroke-width="4" fill="#E7F6FB" xlink:href="#c"/><rect fill="#D3EEF7" x="10.052" y="128.494" width="44.776" height="40.697" rx="2"/><rect fill="#D3EEF7" x="57.569" y="128.494" width="44.776" height="40.697" rx="2"/><rect fill="#D3EEF7" x="104.629" y="128.494" width="44.776" height="40.697" rx="2"/><rect fill="#D8EFF7" x="1.738" y="1.737" width="155.525" height="16.919" rx="3"/><g fill="#84D2E8"><path d="M79.421 76.295c-6.425 0-11.65-5.23-11.65-11.66 0-6.431 5.225-11.661 11.65-11.661 6.426 0 11.651 5.23 11.651 11.66s-5.225 11.66-11.65 11.66z" fill-opacity=".201"/><path d="M81.698 67.054c.637-.635 1.078-1.416 1.21-1.877.086-.294.146-.61.184-.846.27-.122.478-.334.593-.6.16-.385.248-1.211.25-1.246.068-.656-.174-1.032-.196-1.052.281-2.654-.612-3.179-1.206-3.272-.211-.033-.53-.109-.673-.26-.332-.349-.48-.737-1.055-.707-.213.012-.5-.052-.664-.183-.22-.175-.523-.38-.748-.38-.22 0-.5.197-.702.37-.159.136-.44.204-.653.191-.575-.031-.723.358-1.055.707-.143.152-.464.227-.673.26-.594.094-1.487.618-1.206 3.273-.024.023-.262.402-.196 1.051.004.035.09.863.25 1.247.113.266.323.477.593.6.037.237.1.551.184.846.136.473.581 1.269 1.227 1.908h-.012c-.076 3.097-5.817 2.162-6.638 5.697 2.136 2.425 5.337 3.971 8.911 3.971s6.776-1.546 8.908-3.97c-.815-3.544-6.543-2.638-6.633-5.728z" fill-opacity=".401"/></g><rect fill="#B3E2F1" x="29.698" y="35.21" width="31.069" height="8.231" rx="3"/><rect fill="#D3EEF7" x="48.888" y="98.176" width="24.216" height="5.487" rx="2.744"/><rect fill="#B3E2F1" x="64.422" y="35.21" width="21.931" height="8.231" rx="3"/><rect fill="#B3E2F1" x="89.552" y="35.21" width="39.75" height="8.231" rx="3"/><rect fill="#D3EEF7" x="78.129" y="98.176" width="31.983" height="5.487" rx="2.744"/><rect fill="#B3E2F1" x="56.198" y="83.681" width="24.216" height="7.316" rx="3"/><rect fill="#B3E2F1" x="83.612" y="83.681" width="19.647" height="7.316" rx="3"/><rect fill="#B3E2F1" x="10.052" y="117.062" width="24.216" height="5.487" rx="2.744"/><rect fill="#B3E2F1" x="10.052" y="172.85" width="24.216" height="5.487" rx="2.744"/><rect fill="#B3E2F1" x="57.569" y="172.85" width="24.216" height="5.487" rx="2.744"/><rect fill="#B3E2F1" x="104.629" y="172.85" width="24.216" height="5.487" rx="2.744"/><rect fill="#D3EEF7" x="10.052" y="180.624" width="14.621" height="4.573" rx="2.286"/><rect fill="#D3EEF7" x="57.569" y="180.624" width="14.621" height="4.573" rx="2.286"/><rect fill="#D3EEF7" x="104.629" y="180.624" width="14.621" height="4.573" rx="2.286"/><rect fill="#B3E2F1" x="20.56" y="6.31" width="24.216" height="2.744" rx="1"/><rect fill="#B3E2F1" x="20.56" y="11.34" width="51.629" height="2.744" rx="1"/><rect fill="#B3E2F1" x="5.026" y="6.31" width="11.422" height="7.774" rx="3"/><path d="M7.08 8.716c-.923-.74-.726-1.339.46-1.339h6.395c1.177 0 1.39.593.46 1.339l-1.986 1.59c-.924.739-2.413.745-3.343 0L7.08 8.716z" fill="#D7EFF7" opacity=".569"/></g><g opacity=".2" transform="translate(0 111)"><use stroke="#0AA6D2" mask="url(#i)" stroke-width="4" fill="#E7F6FB" xlink:href="#d"/><rect fill="#D3EEF7" x="10.052" y="128.494" width="44.776" height="40.697" rx="2"/><rect fill="#D3EEF7" x="57.569" y="128.494" width="44.776" height="40.697" rx="2"/><rect fill="#D3EEF7" x="104.629" y="128.494" width="44.776" height="40.697" rx="2"/><rect fill="#D8EFF7" x="1.738" y="1.737" width="155.525" height="16.919" rx="3"/><g fill="#84D2E8"><path d="M79.421 76.295c-6.425 0-11.65-5.23-11.65-11.66 0-6.431 5.225-11.661 11.65-11.661 6.426 0 11.651 5.23 11.651 11.66s-5.225 11.66-11.65 11.66z" fill-opacity=".201"/><path d="M81.698 67.054c.637-.635 1.078-1.416 1.21-1.877.086-.294.146-.61.184-.846.27-.122.478-.334.593-.6.16-.385.248-1.211.25-1.246.068-.656-.174-1.032-.196-1.052.281-2.654-.612-3.179-1.206-3.272-.211-.033-.53-.109-.673-.26-.332-.349-.48-.737-1.055-.707-.213.012-.5-.052-.664-.183-.22-.175-.523-.38-.748-.38-.22 0-.5.197-.702.37-.159.136-.44.204-.653.191-.575-.031-.723.358-1.055.707-.143.152-.464.227-.673.26-.594.094-1.487.618-1.206 3.273-.024.023-.262.402-.196 1.051.004.035.09.863.25 1.247.113.266.323.477.593.6.037.237.1.551.184.846.136.473.581 1.269 1.227 1.908h-.012c-.076 3.097-5.817 2.162-6.638 5.697 2.136 2.425 5.337 3.971 8.911 3.971s6.776-1.546 8.908-3.97c-.815-3.544-6.543-2.638-6.633-5.728z" fill-opacity=".401"/></g><rect fill="#B3E2F1" x="29.698" y="35.21" width="31.069" height="8.231" rx="3"/><rect fill="#D3EEF7" x="48.888" y="98.176" width="24.216" height="5.487" rx="2.744"/><rect fill="#B3E2F1" x="64.422" y="35.21" width="21.931" height="8.231" rx="3"/><rect fill="#B3E2F1" x="89.552" y="35.21" width="39.75" height="8.231" rx="3"/><rect fill="#D3EEF7" x="78.129" y="98.176" width="31.983" height="5.487" rx="2.744"/><rect fill="#B3E2F1" x="56.198" y="83.681" width="24.216" height="7.316" rx="3"/><rect fill="#B3E2F1" x="83.612" y="83.681" width="19.647" height="7.316" rx="3"/><rect fill="#B3E2F1" x="10.052" y="117.062" width="24.216" height="5.487" rx="2.744"/><rect fill="#B3E2F1" x="10.052" y="172.85" width="24.216" height="5.487" rx="2.744"/><rect fill="#B3E2F1" x="57.569" y="172.85" width="24.216" height="5.487" rx="2.744"/><rect fill="#B3E2F1" x="104.629" y="172.85" width="24.216" height="5.487" rx="2.744"/><rect fill="#D3EEF7" x="10.052" y="180.624" width="14.621" height="4.573" rx="2.286"/><rect fill="#D3EEF7" x="57.569" y="180.624" width="14.621" height="4.573" rx="2.286"/><rect fill="#D3EEF7" x="104.629" y="180.624" width="14.621" height="4.573" rx="2.286"/><rect fill="#B3E2F1" x="20.56" y="6.31" width="24.216" height="2.744" rx="1"/><rect fill="#B3E2F1" x="20.56" y="11.34" width="51.629" height="2.744" rx="1"/><rect fill="#B3E2F1" x="5.026" y="6.31" width="11.422" height="7.774" rx="3"/><path d="M7.08 8.716c-.923-.74-.726-1.339.46-1.339h6.395c1.177 0 1.39.593.46 1.339l-1.986 1.59c-.924.739-2.413.745-3.343 0L7.08 8.716z" fill="#D7EFF7" opacity=".569"/></g><g opacity=".5" transform="translate(165 101)"><use stroke="#0AA6D2" mask="url(#j)" stroke-width="4" fill="#E7F6FB" xlink:href="#e"/><rect fill="#D3EEF7" x="10.052" y="128.494" width="44.776" height="40.697" rx="2"/><rect fill="#D3EEF7" x="57.569" y="128.494" width="44.776" height="40.697" rx="2"/><rect fill="#D3EEF7" x="104.629" y="128.494" width="44.776" height="40.697" rx="2"/><rect fill="#D8EFF7" x="1.738" y="1.737" width="155.525" height="16.919" rx="3"/><g fill="#84D2E8"><path d="M79.421 76.295c-6.425 0-11.65-5.23-11.65-11.66 0-6.431 5.225-11.661 11.65-11.661 6.426 0 11.651 5.23 11.651 11.66s-5.225 11.66-11.65 11.66z" fill-opacity=".201"/><path d="M81.698 67.054c.637-.635 1.078-1.416 1.21-1.877.086-.294.146-.61.184-.846.27-.122.478-.334.593-.6.16-.385.248-1.211.25-1.246.068-.656-.174-1.032-.196-1.052.281-2.654-.612-3.179-1.206-3.272-.211-.033-.53-.109-.673-.26-.332-.349-.48-.737-1.055-.707-.213.012-.5-.052-.664-.183-.22-.175-.523-.38-.748-.38-.22 0-.5.197-.702.37-.159.136-.44.204-.653.191-.575-.031-.723.358-1.055.707-.143.152-.464.227-.673.26-.594.094-1.487.618-1.206 3.273-.024.023-.262.402-.196 1.051.004.035.09.863.25 1.247.113.266.323.477.593.6.037.237.1.551.184.846.136.473.581 1.269 1.227 1.908h-.012c-.076 3.097-5.817 2.162-6.638 5.697 2.136 2.425 5.337 3.971 8.911 3.971s6.776-1.546 8.908-3.97c-.815-3.544-6.543-2.638-6.633-5.728z" fill-opacity=".401"/></g><rect fill="#B3E2F1" x="29.698" y="35.21" width="31.069" height="8.231" rx="3"/><rect fill="#D3EEF7" x="48.888" y="98.176" width="24.216" height="5.487" rx="2.744"/><rect fill="#B3E2F1" x="64.422" y="35.21" width="21.931" height="8.231" rx="3"/><rect fill="#B3E2F1" x="89.552" y="35.21" width="39.75" height="8.231" rx="3"/><rect fill="#D3EEF7" x="78.129" y="98.176" width="31.983" height="5.487" rx="2.744"/><rect fill="#B3E2F1" x="56.198" y="83.681" width="24.216" height="7.316" rx="3"/><rect fill="#B3E2F1" x="83.612" y="83.681" width="19.647" height="7.316" rx="3"/><rect fill="#B3E2F1" x="10.052" y="117.062" width="24.216" height="5.487" rx="2.744"/><rect fill="#B3E2F1" x="10.052" y="172.85" width="24.216" height="5.487" rx="2.744"/><rect fill="#B3E2F1" x="57.569" y="172.85" width="24.216" height="5.487" rx="2.744"/><rect fill="#B3E2F1" x="104.629" y="172.85" width="24.216" height="5.487" rx="2.744"/><rect fill="#D3EEF7" x="10.052" y="180.624" width="14.621" height="4.573" rx="2.286"/><rect fill="#D3EEF7" x="57.569" y="180.624" width="14.621" height="4.573" rx="2.286"/><rect fill="#D3EEF7" x="104.629" y="180.624" width="14.621" height="4.573" rx="2.286"/><rect fill="#B3E2F1" x="20.56" y="6.31" width="24.216" height="2.744" rx="1"/><rect fill="#B3E2F1" x="20.56" y="11.34" width="51.629" height="2.744" rx="1"/><rect fill="#B3E2F1" x="5.026" y="6.31" width="11.422" height="7.774" rx="3"/><path d="M7.08 8.716c-.923-.74-.726-1.339.46-1.339h6.395c1.177 0 1.39.593.46 1.339l-1.986 1.59c-.924.739-2.413.745-3.343 0L7.08 8.716z" fill="#D7EFF7" opacity=".569"/></g></g></svg>