<svg width="63" height="63" viewBox="0 0 63 63" xmlns="http://www.w3.org/2000/svg" xmlns:xlink="http://www.w3.org/1999/xlink"><defs><mask id="f" maskContentUnits="userSpaceOnUse" maskUnits="objectBoundingBox" x="0" y="0" width="26.1" height="27" fill="#fff"><use xlink:href="#a"/></mask><mask id="g" maskContentUnits="userSpaceOnUse" maskUnits="objectBoundingBox" x="0" y="0" width="13.5" height="13.5" fill="#fff"><use xlink:href="#b"/></mask><mask id="h" maskContentUnits="userSpaceOnUse" maskUnits="objectBoundingBox" x="0" y="0" width="26.1" height="27" fill="#fff"><use xlink:href="#c"/></mask><mask id="i" maskContentUnits="userSpaceOnUse" maskUnits="objectBoundingBox" x="0" y="0" width="17.716" height="18.068" fill="#fff"><use xlink:href="#d"/></mask><mask id="j" maskContentUnits="userSpaceOnUse" maskUnits="objectBoundingBox" x="-1.8" y="-1.8" width="14.253" height="14.465"><path fill="#fff" d="M6.19 6.73h14.253v14.465H6.19z"/><use xlink:href="#e"/></mask><mask id="k" maskContentUnits="userSpaceOnUse" maskUnits="objectBoundingBox" x="0" y="0" width="10.653" height="10.865" fill="#fff"><use xlink:href="#e"/></mask><rect id="a" x="0" y="0" width="26.1" height="27" rx="6.48"/><rect id="c" x="0" y="0" width="26.1" height="27" rx="2.16"/><path d="M12.6 13.5h13.5v7.027A6.472 6.472 0 0119.627 27H12.6V13.5z" id="b"/><path id="d" d="M13.316 20.156l-3.669 2.84-.625-4.654-4.564-.638 2.785-3.742-2.785-3.742 4.564-.638.625-4.654 3.67 2.84 3.668-2.84.626 4.654 4.563.638-2.784 3.742 2.784 3.742-4.563.638-.626 4.654z"/><ellipse id="e" cx="13.316" cy="13.962" rx="5.327" ry="5.432"/></defs><g fill="none" fill-rule="evenodd"><rect fill-opacity=".15" fill="#84D2E8" width="63" height="63" rx="31.5"/><g transform="translate(27.9 28.8)" stroke="#0AA6D2" stroke-width="3.6"><use mask="url(#f)" fill="#84D2E8" xlink:href="#a"/><use mask="url(#g)" fill-opacity=".345" fill="#FFF" xlink:href="#b"/></g><g transform="translate(8.1 8.1)"><use stroke="#0AA6D2" mask="url(#h)" stroke-width="3.6" fill="#FFF" xlink:href="#c"/><use stroke="#84D2E8" mask="url(#i)" stroke-width="3.6" transform="rotate(68 13.316 13.962)" xlink:href="#d"/><use fill="#CEEDF5" xlink:href="#e"/><use stroke="#FFF" mask="url(#j)" stroke-width="3.6" xlink:href="#e"/><use stroke="#0AA6D2" mask="url(#k)" stroke-width="3.6" xlink:href="#e"/></g></g></svg>