<svg xmlns="http://www.w3.org/2000/svg" width="848" height="309" viewBox="0 0 848 309"><g fill="none" fill-rule="evenodd"><path stroke="#BAE9AC" stroke-dasharray="6 8" stroke-linecap="round" stroke-linejoin="round" stroke-width="2" d="M472.477 33.917h108.18c4.423 0 8.009 3.58 8.009 7.994v53.633"/><path stroke="#FFC111" stroke-dasharray="6 8" stroke-linecap="round" stroke-linejoin="round" stroke-width="2" d="M613.827 43.917H746.14a7.996 7.996 0 017.996 7.994v53.633"/><path stroke="#9A56FC" stroke-dasharray="6 8" stroke-linecap="round" stroke-linejoin="round" stroke-width="2" d="M238.811 43.917h-132.31a7.996 7.996 0 00-7.997 7.994v53.633"/><path stroke="#F7ADA5" stroke-dasharray="6 8" stroke-linecap="round" stroke-linejoin="round" stroke-width="2" d="M380.296 33.227H266.603c-4.423 0-8.009 3.58-8.009 7.993v53.633"/><path stroke="#B3E2F1" stroke-dasharray="6 8" stroke-linecap="round" stroke-linejoin="round" stroke-width="2" d="M423.933 85.421v-15"/><path fill="#1B2E5B" d="M421.165 1.894a4.01 4.01 0 015.67 0l28.27 28.27a4.01 4.01 0 010 5.671l-28.27 28.27a4.01 4.01 0 01-5.67 0l-28.27-28.27a4.01 4.01 0 010-5.67l28.27-28.27z"/><path fill="#FFF" d="M416.25 26.765h1.636l4.575 10.62h-2.16l-.99-2.43h-4.605l-.96 2.43h-2.115l4.62-10.62zm2.4 6.57l-1.634-4.32-1.665 4.32h3.3zm4.86-6.57h3.466c.61 0 1.16.055 1.65.165.49.11.91.29 1.26.54.35.25.62.57.81.96.19.39.285.86.285 1.41 0 .59-.11 1.085-.33 1.485-.22.4-.518.722-.893.967a3.914 3.914 0 01-1.312.533c-.5.11-1.03.165-1.59.165H425.4v4.395h-1.89v-10.62zm3.21 4.635c.31 0 .606-.023.886-.068.28-.045.53-.125.75-.24a1.37 1.37 0 00.525-.472c.13-.2.195-.46.195-.78 0-.31-.065-.563-.195-.758a1.348 1.348 0 00-.518-.457 2.216 2.216 0 00-.735-.218 6.708 6.708 0 00-.847-.052h-1.38V31.4h1.32zm5.94-4.635h1.89v10.62h-1.89v-10.62z"/><g transform="translate(346 93)"><path fill="#FFF" stroke="#1B2E5B" stroke-width="2" d="M147.995-1a8.975 8.975 0 016.368 2.638A8.98 8.98 0 01157 8.008h0v181.985a8.98 8.98 0 01-2.638 6.368 8.976 8.976 0 01-6.367 2.639h0H8.005a8.975 8.975 0 01-6.368-2.638A8.98 8.98 0 01-1 189.992h0V8.008A8.98 8.98 0 011.638 1.64 8.976 8.976 0 018.005-1h0z"/><path fill="#E1E1E1" d="M0 18h156v1H0z"/><path fill="#FFF" stroke="#E1E1E1" d="M50.995 128.5c.416 0 .793.167 1.066.439.271.27.439.644.439 1.058h0v36.006a1.504 1.504 0 01-1.505 1.497h0-39.99c-.416 0-.793-.167-1.066-.439a1.488 1.488 0 01-.439-1.058h0v-36.006a1.504 1.504 0 011.505-1.497h0z"/><rect width="43" height="39" x="56.5" y="128.5" fill="#FFF" stroke="#E1E1E1" rx="2"/><path fill="#FFF" stroke="#E1E1E1" d="M144.995 128.5c.416 0 .793.167 1.066.439.271.27.439.644.439 1.058h0v36.006a1.504 1.504 0 01-1.505 1.497h0-39.99c-.416 0-.793-.167-1.066-.439a1.488 1.488 0 01-.439-1.058h0v-36.006a1.504 1.504 0 011.505-1.497h0zM79.42 53.474c3.076 0 5.863 1.252 7.882 3.272a11.13 11.13 0 013.27 7.889 11.13 11.13 0 01-3.27 7.888 11.111 11.111 0 01-7.881 3.272 11.111 11.111 0 01-7.881-3.272 11.13 11.13 0 01-3.27-7.888 11.13 11.13 0 013.27-7.889 11.111 11.111 0 017.88-3.272z"/><path fill="#F1F1F1" d="M81.697 67.054c.637-.634 1.079-1.416 1.21-1.876a7.24 7.24 0 00.185-.847c.27-.122.478-.333.592-.6.16-.385.248-1.21.25-1.246.068-.655-.173-1.032-.196-1.051.282-2.655-.611-3.18-1.206-3.273-.21-.033-.53-.109-.673-.26-.332-.349-.48-.737-1.055-.707-.212.012-.5-.051-.663-.182-.22-.176-.523-.38-.749-.38-.22 0-.499.197-.702.369-.158.136-.44.204-.653.192-.575-.032-.723.358-1.054.707-.143.15-.464.226-.674.26-.594.093-1.486.618-1.205 3.272-.024.023-.263.402-.196 1.052.003.035.089.862.25 1.246.112.266.322.478.592.6.038.237.1.551.184.846.137.473.582 1.27 1.228 1.908h-.013c-.076 3.097-5.817 2.162-6.638 5.698 2.137 2.424 5.338 3.97 8.911 3.97 3.574 0 6.777-1.546 8.908-3.969-.815-3.544-6.542-2.64-6.633-5.73z"/><g fill="#F1F1F1" transform="translate(27 35)"><rect width="32" height="8" rx="4"/><rect width="22" height="8" x="36" rx="4"/><rect width="40" height="8" x="62" rx="4"/></g><g fill="#F1F1F1" opacity=".5" transform="translate(48 97)"><rect width="24" height="4" rx="2"/><rect width="32" height="4" x="28" rx="2"/></g><g fill="#F1F1F1" transform="translate(54 83)"><rect width="24.216" height="8" rx="4"/><rect width="19.647" height="8" x="28.216" rx="4"/></g><rect width="24" height="5.487" x="9" y="117.062" fill="#F1F1F1" rx="2.744"/><rect width="24" height="6" x="9" y="174" fill="#F1F1F1" rx="2.744"/><rect width="24" height="6" x="56" y="174" fill="#F1F1F1" rx="2.744"/><rect width="24" height="6" x="103" y="174" fill="#F1F1F1" rx="2.744"/><rect width="14.621" height="4" x="9" y="183" fill="#F1F1F1" opacity=".5" rx="2"/><rect width="14.621" height="4" x="56" y="183" fill="#F1F1F1" opacity=".5" rx="2"/><rect width="14.621" height="4" x="103" y="183" fill="#F1F1F1" opacity=".5" rx="2"/><circle cx="9" cy="9" r="3" fill="#F15242"/><circle cx="19" cy="9" r="3" fill="#FFC111"/><circle cx="29" cy="9" r="3" fill="#6FD350"/></g><g transform="translate(518 101)"><path fill="#FFF" stroke="#6FD350" stroke-width="2" d="M147.995-1a8.975 8.975 0 016.368 2.638A8.98 8.98 0 01157 8.008h0v181.985a8.98 8.98 0 01-2.638 6.368 8.976 8.976 0 01-6.367 2.639h0H8.005a8.975 8.975 0 01-6.368-2.638A8.98 8.98 0 01-1 189.992h0V8.008A8.98 8.98 0 011.638 1.64 8.976 8.976 0 018.005-1h0z"/><path fill="#E1E1E1" d="M0 18h156v1H0z"/><path fill="#FFF" stroke="#E1E1E1" d="M50.995 128.5c.416 0 .793.167 1.066.439.271.27.439.644.439 1.058h0v36.006a1.504 1.504 0 01-1.505 1.497h0-39.99c-.416 0-.793-.167-1.066-.439a1.488 1.488 0 01-.439-1.058h0v-36.006a1.504 1.504 0 011.505-1.497h0z"/><rect width="43" height="39" x="56.5" y="128.5" fill="#FFF" stroke="#E1E1E1" rx="2"/><path fill="#FFF" stroke="#E1E1E1" d="M144.995 128.5c.416 0 .793.167 1.066.439.271.27.439.644.439 1.058h0v36.006a1.504 1.504 0 01-1.505 1.497h0-39.99c-.416 0-.793-.167-1.066-.439a1.488 1.488 0 01-.439-1.058h0v-36.006a1.504 1.504 0 011.505-1.497h0zM79.42 53.474c3.076 0 5.863 1.252 7.882 3.272a11.13 11.13 0 013.27 7.889 11.13 11.13 0 01-3.27 7.888 11.111 11.111 0 01-7.881 3.272 11.111 11.111 0 01-7.881-3.272 11.13 11.13 0 01-3.27-7.888 11.13 11.13 0 013.27-7.889 11.111 11.111 0 017.88-3.272z"/><path fill="#F1F1F1" d="M81.697 67.054c.637-.634 1.079-1.416 1.21-1.876a7.24 7.24 0 00.185-.847c.27-.122.478-.333.592-.6.16-.385.248-1.21.25-1.246.068-.655-.173-1.032-.196-1.051.282-2.655-.611-3.18-1.206-3.273-.21-.033-.53-.109-.673-.26-.332-.349-.48-.737-1.055-.707-.212.012-.5-.051-.663-.182-.22-.176-.523-.38-.749-.38-.22 0-.499.197-.702.369-.158.136-.44.204-.653.192-.575-.032-.723.358-1.054.707-.143.15-.464.226-.674.26-.594.093-1.486.618-1.205 3.272-.024.023-.263.402-.196 1.052.003.035.089.862.25 1.246.112.266.322.478.592.6.038.237.1.551.184.846.137.473.582 1.27 1.228 1.908h-.013c-.076 3.097-5.817 2.162-6.638 5.698 2.137 2.424 5.338 3.97 8.911 3.97 3.574 0 6.777-1.546 8.908-3.969-.815-3.544-6.542-2.64-6.633-5.73z"/><g fill="#F1F1F1" transform="translate(27 35)"><rect width="32" height="8" rx="4"/><rect width="22" height="8" x="36" rx="4"/><rect width="40" height="8" x="62" rx="4"/></g><g fill="#F1F1F1" opacity=".5" transform="translate(48 97)"><rect width="24" height="4" rx="2"/><rect width="32" height="4" x="28" rx="2"/></g><g fill="#F1F1F1" transform="translate(54 83)"><rect width="24.216" height="8" rx="4"/><rect width="19.647" height="8" x="28.216" rx="4"/></g><rect width="24" height="5.487" x="9" y="117.062" fill="#F1F1F1" rx="2.744"/><rect width="24" height="6" x="9" y="174" fill="#F1F1F1" rx="2.744"/><rect width="24" height="6" x="56" y="174" fill="#F1F1F1" rx="2.744"/><rect width="24" height="6" x="103" y="174" fill="#F1F1F1" rx="2.744"/><rect width="14.621" height="4" x="9" y="183" fill="#F1F1F1" opacity=".5" rx="2"/><rect width="14.621" height="4" x="56" y="183" fill="#F1F1F1" opacity=".5" rx="2"/><rect width="14.621" height="4" x="103" y="183" fill="#F1F1F1" opacity=".5" rx="2"/><circle cx="9" cy="9" r="3" fill="#F15242"/><circle cx="19" cy="9" r="3" fill="#FFC111"/><circle cx="29" cy="9" r="3" fill="#6FD350"/></g><g transform="translate(174 101)"><path fill="#FFF" stroke="#F15242" stroke-width="2" d="M147.995-1a8.975 8.975 0 016.368 2.638A8.98 8.98 0 01157 8.008h0v181.985a8.98 8.98 0 01-2.638 6.368 8.976 8.976 0 01-6.367 2.639h0H8.005a8.975 8.975 0 01-6.368-2.638A8.98 8.98 0 01-1 189.992h0V8.008A8.98 8.98 0 011.638 1.64 8.976 8.976 0 018.005-1h0z"/><path fill="#E1E1E1" d="M0 18h156v1H0z"/><path fill="#FFF" stroke="#E1E1E1" d="M50.995 128.5c.416 0 .793.167 1.066.439.271.27.439.644.439 1.058h0v36.006a1.504 1.504 0 01-1.505 1.497h0-39.99c-.416 0-.793-.167-1.066-.439a1.488 1.488 0 01-.439-1.058h0v-36.006a1.504 1.504 0 011.505-1.497h0z"/><rect width="43" height="39" x="56.5" y="128.5" fill="#FFF" stroke="#E1E1E1" rx="2"/><path fill="#FFF" stroke="#E1E1E1" d="M144.995 128.5c.416 0 .793.167 1.066.439.271.27.439.644.439 1.058h0v36.006a1.504 1.504 0 01-1.505 1.497h0-39.99c-.416 0-.793-.167-1.066-.439a1.488 1.488 0 01-.439-1.058h0v-36.006a1.504 1.504 0 011.505-1.497h0zM79.42 53.474c3.076 0 5.863 1.252 7.882 3.272a11.13 11.13 0 013.27 7.889 11.13 11.13 0 01-3.27 7.888 11.111 11.111 0 01-7.881 3.272 11.111 11.111 0 01-7.881-3.272 11.13 11.13 0 01-3.27-7.888 11.13 11.13 0 013.27-7.889 11.111 11.111 0 017.88-3.272z"/><path fill="#F1F1F1" d="M81.697 67.054c.637-.634 1.079-1.416 1.21-1.876a7.24 7.24 0 00.185-.847c.27-.122.478-.333.592-.6.16-.385.248-1.21.25-1.246.068-.655-.173-1.032-.196-1.051.282-2.655-.611-3.18-1.206-3.273-.21-.033-.53-.109-.673-.26-.332-.349-.48-.737-1.055-.707-.212.012-.5-.051-.663-.182-.22-.176-.523-.38-.749-.38-.22 0-.499.197-.702.369-.158.136-.44.204-.653.192-.575-.032-.723.358-1.054.707-.143.15-.464.226-.674.26-.594.093-1.486.618-1.205 3.272-.024.023-.263.402-.196 1.052.003.035.089.862.25 1.246.112.266.322.478.592.6.038.237.1.551.184.846.137.473.582 1.27 1.228 1.908h-.013c-.076 3.097-5.817 2.162-6.638 5.698 2.137 2.424 5.338 3.97 8.911 3.97 3.574 0 6.777-1.546 8.908-3.969-.815-3.544-6.542-2.64-6.633-5.73z"/><g fill="#F1F1F1" transform="translate(27 35)"><rect width="32" height="8" rx="4"/><rect width="22" height="8" x="36" rx="4"/><rect width="40" height="8" x="62" rx="4"/></g><g fill="#F1F1F1" opacity=".5" transform="translate(48 97)"><rect width="24" height="4" rx="2"/><rect width="32" height="4" x="28" rx="2"/></g><g fill="#F1F1F1" transform="translate(54 83)"><rect width="24.216" height="8" rx="4"/><rect width="19.647" height="8" x="28.216" rx="4"/></g><rect width="24" height="5.487" x="9" y="117.062" fill="#F1F1F1" rx="2.744"/><rect width="24" height="6" x="9" y="174" fill="#F1F1F1" rx="2.744"/><rect width="24" height="6" x="56" y="174" fill="#F1F1F1" rx="2.744"/><rect width="24" height="6" x="103" y="174" fill="#F1F1F1" rx="2.744"/><rect width="14.621" height="4" x="9" y="183" fill="#F1F1F1" opacity=".5" rx="2"/><rect width="14.621" height="4" x="56" y="183" fill="#F1F1F1" opacity=".5" rx="2"/><rect width="14.621" height="4" x="103" y="183" fill="#F1F1F1" opacity=".5" rx="2"/><circle cx="9" cy="9" r="3" fill="#F15242"/><circle cx="19" cy="9" r="3" fill="#FFC111"/><circle cx="29" cy="9" r="3" fill="#6FD350"/></g><g transform="translate(2 109)"><path fill="#FFF" stroke="#6F0DFB" stroke-width="2" d="M147.995-1a8.975 8.975 0 016.368 2.638A8.98 8.98 0 01157 8.008h0v181.985a8.98 8.98 0 01-2.638 6.368 8.976 8.976 0 01-6.367 2.639h0H8.005a8.975 8.975 0 01-6.368-2.638A8.98 8.98 0 01-1 189.992h0V8.008A8.98 8.98 0 011.638 1.64 8.976 8.976 0 018.005-1h0z"/><path fill="#E1E1E1" d="M0 18h156v1H0z"/><path fill="#FFF" stroke="#E1E1E1" d="M50.995 128.5c.416 0 .793.167 1.066.439.271.27.439.644.439 1.058h0v36.006a1.504 1.504 0 01-1.505 1.497h0-39.99c-.416 0-.793-.167-1.066-.439a1.488 1.488 0 01-.439-1.058h0v-36.006a1.504 1.504 0 011.505-1.497h0z"/><rect width="43" height="39" x="56.5" y="128.5" fill="#FFF" stroke="#E1E1E1" rx="2"/><path fill="#FFF" stroke="#E1E1E1" d="M144.995 128.5c.416 0 .793.167 1.066.439.271.27.439.644.439 1.058h0v36.006a1.504 1.504 0 01-1.505 1.497h0-39.99c-.416 0-.793-.167-1.066-.439a1.488 1.488 0 01-.439-1.058h0v-36.006a1.504 1.504 0 011.505-1.497h0zM79.42 53.474c3.076 0 5.863 1.252 7.882 3.272a11.13 11.13 0 013.27 7.889 11.13 11.13 0 01-3.27 7.888 11.111 11.111 0 01-7.881 3.272 11.111 11.111 0 01-7.881-3.272 11.13 11.13 0 01-3.27-7.888 11.13 11.13 0 013.27-7.889 11.111 11.111 0 017.88-3.272z"/><path fill="#F1F1F1" d="M81.697 67.054c.637-.634 1.079-1.416 1.21-1.876a7.24 7.24 0 00.185-.847c.27-.122.478-.333.592-.6.16-.385.248-1.21.25-1.246.068-.655-.173-1.032-.196-1.051.282-2.655-.611-3.18-1.206-3.273-.21-.033-.53-.109-.673-.26-.332-.349-.48-.737-1.055-.707-.212.012-.5-.051-.663-.182-.22-.176-.523-.38-.749-.38-.22 0-.499.197-.702.369-.158.136-.44.204-.653.192-.575-.032-.723.358-1.054.707-.143.15-.464.226-.674.26-.594.093-1.486.618-1.205 3.272-.024.023-.263.402-.196 1.052.003.035.089.862.25 1.246.112.266.322.478.592.6.038.237.1.551.184.846.137.473.582 1.27 1.228 1.908h-.013c-.076 3.097-5.817 2.162-6.638 5.698 2.137 2.424 5.338 3.97 8.911 3.97 3.574 0 6.777-1.546 8.908-3.969-.815-3.544-6.542-2.64-6.633-5.73z"/><g fill="#F1F1F1" transform="translate(27 35)"><rect width="32" height="8" rx="4"/><rect width="22" height="8" x="36" rx="4"/><rect width="40" height="8" x="62" rx="4"/></g><g fill="#F1F1F1" opacity=".5" transform="translate(48 97)"><rect width="24" height="4" rx="2"/><rect width="32" height="4" x="28" rx="2"/></g><g fill="#F1F1F1" transform="translate(54 83)"><rect width="24.216" height="8" rx="4"/><rect width="19.647" height="8" x="28.216" rx="4"/></g><rect width="24" height="5.487" x="9" y="117.062" fill="#F1F1F1" rx="2.744"/><rect width="24" height="6" x="9" y="174" fill="#F1F1F1" rx="2.744"/><rect width="24" height="6" x="56" y="174" fill="#F1F1F1" rx="2.744"/><rect width="24" height="6" x="103" y="174" fill="#F1F1F1" rx="2.744"/><rect width="14.621" height="4" x="9" y="183" fill="#F1F1F1" opacity=".5" rx="2"/><rect width="14.621" height="4" x="56" y="183" fill="#F1F1F1" opacity=".5" rx="2"/><rect width="14.621" height="4" x="103" y="183" fill="#F1F1F1" opacity=".5" rx="2"/><circle cx="9" cy="9" r="3" fill="#F15242"/><circle cx="19" cy="9" r="3" fill="#FFC111"/><circle cx="29" cy="9" r="3" fill="#6FD350"/></g><g transform="translate(690 109)"><path fill="#FFF" stroke="#FFC111" stroke-width="2" d="M147.995-1a8.975 8.975 0 016.368 2.638A8.98 8.98 0 01157 8.008h0v181.985a8.98 8.98 0 01-2.638 6.368 8.976 8.976 0 01-6.367 2.639h0H8.005a8.975 8.975 0 01-6.368-2.638A8.98 8.98 0 01-1 189.992h0V8.008A8.98 8.98 0 011.638 1.64 8.976 8.976 0 018.005-1h0z"/><path fill="#E1E1E1" d="M0 18h156v1H0z"/><path fill="#FFF" stroke="#E1E1E1" d="M50.995 128.5c.416 0 .793.167 1.066.439.271.27.439.644.439 1.058h0v36.006a1.504 1.504 0 01-1.505 1.497h0-39.99c-.416 0-.793-.167-1.066-.439a1.488 1.488 0 01-.439-1.058h0v-36.006a1.504 1.504 0 011.505-1.497h0z"/><rect width="43" height="39" x="56.5" y="128.5" fill="#FFF" stroke="#E1E1E1" rx="2"/><path fill="#FFF" stroke="#E1E1E1" d="M144.995 128.5c.416 0 .793.167 1.066.439.271.27.439.644.439 1.058h0v36.006a1.504 1.504 0 01-1.505 1.497h0-39.99c-.416 0-.793-.167-1.066-.439a1.488 1.488 0 01-.439-1.058h0v-36.006a1.504 1.504 0 011.505-1.497h0zM79.42 53.474c3.076 0 5.863 1.252 7.882 3.272a11.13 11.13 0 013.27 7.889 11.13 11.13 0 01-3.27 7.888 11.111 11.111 0 01-7.881 3.272 11.111 11.111 0 01-7.881-3.272 11.13 11.13 0 01-3.27-7.888 11.13 11.13 0 013.27-7.889 11.111 11.111 0 017.88-3.272z"/><path fill="#F1F1F1" d="M81.697 67.054c.637-.634 1.079-1.416 1.21-1.876a7.24 7.24 0 00.185-.847c.27-.122.478-.333.592-.6.16-.385.248-1.21.25-1.246.068-.655-.173-1.032-.196-1.051.282-2.655-.611-3.18-1.206-3.273-.21-.033-.53-.109-.673-.26-.332-.349-.48-.737-1.055-.707-.212.012-.5-.051-.663-.182-.22-.176-.523-.38-.749-.38-.22 0-.499.197-.702.369-.158.136-.44.204-.653.192-.575-.032-.723.358-1.054.707-.143.15-.464.226-.674.26-.594.093-1.486.618-1.205 3.272-.024.023-.263.402-.196 1.052.003.035.089.862.25 1.246.112.266.322.478.592.6.038.237.1.551.184.846.137.473.582 1.27 1.228 1.908h-.013c-.076 3.097-5.817 2.162-6.638 5.698 2.137 2.424 5.338 3.97 8.911 3.97 3.574 0 6.777-1.546 8.908-3.969-.815-3.544-6.542-2.64-6.633-5.73z"/><g fill="#F1F1F1" transform="translate(27 35)"><rect width="32" height="8" rx="4"/><rect width="22" height="8" x="36" rx="4"/><rect width="40" height="8" x="62" rx="4"/></g><g fill="#F1F1F1" opacity=".5" transform="translate(48 97)"><rect width="24" height="4" rx="2"/><rect width="32" height="4" x="28" rx="2"/></g><g fill="#F1F1F1" transform="translate(54 83)"><rect width="24.216" height="8" rx="4"/><rect width="19.647" height="8" x="28.216" rx="4"/></g><rect width="24" height="5.487" x="9" y="117.062" fill="#F1F1F1" rx="2.744"/><rect width="24" height="6" x="9" y="174" fill="#F1F1F1" rx="2.744"/><rect width="24" height="6" x="56" y="174" fill="#F1F1F1" rx="2.744"/><rect width="24" height="6" x="103" y="174" fill="#F1F1F1" rx="2.744"/><rect width="14.621" height="4" x="9" y="183" fill="#F1F1F1" opacity=".5" rx="2"/><rect width="14.621" height="4" x="56" y="183" fill="#F1F1F1" opacity=".5" rx="2"/><rect width="14.621" height="4" x="103" y="183" fill="#F1F1F1" opacity=".5" rx="2"/><circle cx="9" cy="9" r="3" fill="#F15242"/><circle cx="19" cy="9" r="3" fill="#FFC111"/><circle cx="29" cy="9" r="3" fill="#6FD350"/></g></g></svg>