<svg width="668" height="228" viewBox="0 0 668 228" xmlns="http://www.w3.org/2000/svg" xmlns:xlink="http://www.w3.org/1999/xlink"><defs><rect id="a" x="13.833" y="13.682" width="66.277" height="66.578" rx="5"/><mask id="g" maskContentUnits="userSpaceOnUse" maskUnits="objectBoundingBox" x="0" y="0" width="66.277" height="66.578" fill="#fff"><use xlink:href="#a"/></mask><path d="M13.41 26.855C6.013 26.855 0 20.832 0 13.427 0 6.022 6.014 0 13.41 0c7.395 0 13.409 6.022 13.409 13.427 0 7.405-6.014 13.428-13.41 13.428z" id="b"/><mask id="h" maskContentUnits="userSpaceOnUse" maskUnits="objectBoundingBox" x="-2" y="-2" width="30.819" height="30.855"><path fill="#fff" d="M-2-2h30.819v30.855H-2z"/><use xlink:href="#b"/></mask><path d="M12.913 25.86C5.792 25.86 0 20.06 0 12.93S5.792 0 12.913 0s12.913 5.8 12.913 12.93-5.792 12.93-12.913 12.93z" id="c"/><mask id="i" maskContentUnits="userSpaceOnUse" maskUnits="objectBoundingBox" x="-2" y="-2" width="29.826" height="29.86"><path fill="#fff" d="M-2-2h29.826v29.86H-2z"/><use xlink:href="#c"/></mask><path d="M14.41 88.855C7.013 88.855 1 82.832 1 75.427 1 68.022 7.014 62 14.41 62c7.395 0 13.409 6.022 13.409 13.427 0 7.405-6.014 13.428-13.41 13.428z" id="d"/><mask id="j" maskContentUnits="userSpaceOnUse" maskUnits="objectBoundingBox" x="-2" y="-2" width="30.819" height="30.855"><path fill="#fff" d="M-1 60h30.819v30.855H-1z"/><use xlink:href="#d"/></mask><path d="M13.41 153.855c-7.396 0-13.41-6.023-13.41-13.428C0 133.022 6.014 127 13.41 127c7.395 0 13.409 6.022 13.409 13.427 0 7.405-6.014 13.428-13.41 13.428z" id="e"/><mask id="k" maskContentUnits="userSpaceOnUse" maskUnits="objectBoundingBox" x="-2" y="-2" width="30.819" height="30.855"><path fill="#fff" d="M-2 125h30.819v30.855H-2z"/><use xlink:href="#e"/></mask><path d="M0 3.008A3.004 3.004 0 0 1 3.005 0h176.99A3.001 3.001 0 0 1 183 3.008v221.984a3.004 3.004 0 0 1-3.005 3.008H3.005A3.001 3.001 0 0 1 0 224.992V3.008z" id="f"/><mask id="l" maskContentUnits="userSpaceOnUse" maskUnits="objectBoundingBox" x="0" y="0" width="183" height="228" fill="#fff"><use xlink:href="#f"/></mask><rect id="n" x="42" y="85" width="100" height="30" rx="5"/><filter x="-50%" y="-50%" width="200%" height="200%" filterUnits="objectBoundingBox" id="m"><feOffset in="SourceAlpha" result="shadowOffsetOuter1"/><feGaussianBlur stdDeviation="5" in="shadowOffsetOuter1" result="shadowBlurOuter1"/><feColorMatrix values="0 0 0 0 0 0 0 0 0 0 0 0 0 0 0 0 0 0 0.100033967 0" in="shadowBlurOuter1"/></filter></defs><g transform="translate(2)" fill="none" fill-rule="evenodd"><path d="M294.531 146.256h8.226v1.98H296.8v3.492h5.616v1.908H296.8V159h-2.268v-12.744zM311.865 159h-2.052v-1.386h-.036c-.192.432-.525.813-.999 1.143-.474.33-1.035.495-1.683.495-.564 0-1.047-.099-1.449-.297a2.857 2.857 0 0 1-.99-.783 3.167 3.167 0 0 1-.567-1.116c-.12-.42-.18-.852-.18-1.296v-5.4h2.16v4.788c0 .252.018.516.054.792.036.276.114.525.234.747.12.222.285.405.495.549.21.144.49.216.837.216a1.86 1.86 0 0 0 1.521-.738 2.35 2.35 0 0 0 .37-.747 2.98 2.98 0 0 0 .125-.855v-4.752h2.16V159zm7.326-6.336a2.494 2.494 0 0 0-.792-.657 2.23 2.23 0 0 0-1.098-.279c-.348 0-.666.072-.954.216-.288.144-.432.384-.432.72 0 .336.16.573.477.711.318.138.783.279 1.395.423.324.072.651.168.981.288.33.12.63.279.9.477.27.198.49.444.657.738.168.294.252.651.252 1.071 0 .528-.099.975-.297 1.341a2.524 2.524 0 0 1-.792.891c-.33.228-.714.393-1.152.495a5.973 5.973 0 0 1-1.359.153 5.395 5.395 0 0 1-1.962-.369 4.148 4.148 0 0 1-1.584-1.053l1.422-1.332c.24.312.552.57.936.774.384.204.81.306 1.278.306.156 0 .315-.018.477-.054.162-.036.312-.093.45-.171a.932.932 0 0 0 .333-.315.887.887 0 0 0 .126-.486c0-.36-.165-.618-.495-.774-.33-.156-.825-.312-1.485-.468a7.14 7.14 0 0 1-.945-.279 3.085 3.085 0 0 1-.819-.45 2.085 2.085 0 0 1-.576-.693c-.144-.276-.216-.618-.216-1.026 0-.48.1-.894.297-1.242a2.55 2.55 0 0 1 .783-.855c.324-.222.69-.387 1.098-.495a4.903 4.903 0 0 1 1.26-.162c.624 0 1.233.108 1.827.324.594.216 1.065.546 1.413.99l-1.404 1.242zm3.294-2.304h2.16V159h-2.16v-8.64zm-.306-2.934c0-.348.13-.651.387-.909.258-.258.585-.387.981-.387s.73.123 1 .369.404.555.404.927-.135.681-.405.927-.603.369-.999.369-.723-.129-.98-.387a1.244 1.244 0 0 1-.388-.909zm4.59 7.218c0-.684.123-1.305.37-1.863a4.356 4.356 0 0 1 .998-1.431c.42-.396.918-.702 1.494-.918a5.186 5.186 0 0 1 1.836-.324c.648 0 1.26.108 1.836.324a4.404 4.404 0 0 1 1.494.918c.42.396.753.873 1 1.431a4.57 4.57 0 0 1 .368 1.863c0 .684-.123 1.308-.369 1.872a4.433 4.433 0 0 1-.999 1.449c-.42.402-.918.717-1.494.945a4.943 4.943 0 0 1-1.836.342c-.648 0-1.26-.114-1.836-.342a4.562 4.562 0 0 1-1.494-.945 4.433 4.433 0 0 1-.999-1.449 4.633 4.633 0 0 1-.369-1.872zm2.196 0c0 .336.051.672.153 1.008.102.336.255.636.46.9.203.264.461.48.773.648.312.168.684.252 1.116.252.432 0 .804-.084 1.116-.252.312-.168.57-.384.774-.648.204-.264.357-.564.46-.9a3.366 3.366 0 0 0 0-2.007 2.792 2.792 0 0 0-.46-.891 2.305 2.305 0 0 0-.774-.639c-.312-.162-.684-.243-1.116-.243-.432 0-.804.081-1.116.243-.312.162-.57.375-.774.639a2.792 2.792 0 0 0-.459.891c-.102.33-.153.663-.153.999zm9.288-4.284h2.052v1.386h.036c.192-.432.525-.813 1-1.143.473-.33 1.034-.495 1.682-.495.564 0 1.047.099 1.45.297.401.198.731.459.99.783.257.324.446.696.566 1.116.12.42.18.852.18 1.296v5.4h-2.16v-4.788a6.13 6.13 0 0 0-.054-.792 2.138 2.138 0 0 0-.234-.747 1.552 1.552 0 0 0-.495-.549c-.21-.144-.489-.216-.837-.216s-.648.069-.9.207a1.911 1.911 0 0 0-.62.531 2.35 2.35 0 0 0-.37.747 2.98 2.98 0 0 0-.126.855V159h-2.16v-8.64z" fill="#48BDDE"/><path d="M166.5 113h115m76 0H472" stroke="#0CA7D2" stroke-width="4" stroke-linecap="square" stroke-dasharray="4,10" opacity=".23"/><g transform="translate(62 65)"><use stroke="#0AA6D2" mask="url(#g)" stroke-width="4" fill="#FFF" transform="rotate(45 46.971 46.971)" xlink:href="#a"/><path d="M36.6 39.424h2.398L45.708 55H42.54l-1.452-3.564h-6.754L32.926 55h-3.102L36.6 39.424zm3.52 9.636l-2.398-6.336-2.442 6.336h4.84zm7.128-9.636h5.082c.895 0 1.701.08 2.42.242.719.161 1.335.425 1.848.792.513.367.91.836 1.188 1.408.279.572.418 1.261.418 2.068 0 .865-.161 1.591-.484 2.178a3.928 3.928 0 0 1-1.309 1.419c-.55.36-1.192.62-1.925.781-.733.161-1.51.242-2.332.242H50.02V55h-2.772V39.424zm4.708 6.798c.455 0 .887-.033 1.298-.099.41-.066.777-.183 1.1-.352.323-.169.58-.4.77-.693.19-.293.286-.675.286-1.144 0-.455-.095-.825-.286-1.111a1.977 1.977 0 0 0-.759-.671 3.25 3.25 0 0 0-1.078-.319 9.838 9.838 0 0 0-1.243-.077H50.02v4.466h1.936zm8.712-6.798h2.772V55h-2.772V39.424z" fill="#0AA6D2"/></g><g transform="translate(41 14)"><use fill-opacity=".201" fill="#84D2E8" xlink:href="#b"/><use stroke="#0AA6D2" mask="url(#h)" stroke-width="4" xlink:href="#b"/></g><path d="M56.874 30c.733-.73 1.241-1.63 1.393-2.16a8.25 8.25 0 0 0 .212-.974c.311-.141.55-.385.682-.69.185-.445.286-1.396.287-1.436.079-.755-.199-1.188-.225-1.211.324-3.057-.704-3.66-1.387-3.768-.243-.039-.61-.126-.775-.3-.382-.401-.553-.849-1.214-.814-.245.014-.576-.06-.764-.21-.253-.202-.602-.437-.861-.437-.255 0-.575.226-.809.424-.182.157-.506.236-.75.221-.663-.036-.833.413-1.215.815-.165.174-.534.26-.775.299-.684.108-1.711.712-1.388 3.768-.027.026-.302.463-.225 1.211.004.04.103.993.288 1.436.13.306.37.55.681.69.044.273.116.635.213.974.157.545.669 1.462 1.412 2.197h-.014c-.088 3.567-6.695 2.49-7.64 6.561 2.459 2.792 6.143 4.573 10.256 4.573 4.114 0 7.8-1.78 10.253-4.57-.938-4.082-7.53-3.04-7.635-6.598z" fill-opacity=".696" fill="#84D2E8"/><g transform="translate(50 179)"><use fill-opacity=".201" fill="#84D2E8" xlink:href="#c"/><use stroke="#0AA6D2" mask="url(#i)" stroke-width="4" xlink:href="#c"/></g><path d="M69.56 191.489c.387-.425.08-1.1-.502-1.1h-4.334l2.014-6.267c.218-.678-.66-1.167-1.143-.638L56.44 193.51c-.388.425-.08 1.1.501 1.1h4.331l-2.011 6.267c-.218.678.66 1.167 1.143.638l9.154-10.027z" fill-opacity=".704" fill="#84D2E8"/><use fill-opacity=".201" fill="#84D2E8" xlink:href="#d"/><use stroke="#0AA6D2" mask="url(#j)" stroke-width="4" xlink:href="#d"/><use fill-opacity=".201" fill="#84D2E8" xlink:href="#e"/><use stroke="#0AA6D2" mask="url(#k)" stroke-width="4" xlink:href="#e"/><g transform="translate(483)"><use stroke="#0AA6D2" mask="url(#l)" stroke-width="4" fill="#E7F6FB" xlink:href="#f"/><rect fill="#D3EEF7" x="11.569" y="147.963" width="51.534" height="46.864" rx="2"/><rect fill="#D3EEF7" x="66.259" y="147.963" width="51.534" height="46.864" rx="2"/><rect fill="#D3EEF7" x="120.422" y="147.963" width="51.534" height="46.864" rx="2"/><rect fill="#D8EFF7" x="2" y="2" width="179" height="19.483" rx="3"/><g fill="#84D2E8"><path d="M91.41 87.855c-7.396 0-13.41-6.023-13.41-13.428C78 67.022 84.014 61 91.41 61c7.395 0 13.409 6.022 13.409 13.427 0 7.405-6.014 13.428-13.41 13.428z" fill-opacity=".201"/><path d="M94.03 77.213c.732-.73 1.24-1.63 1.392-2.16a8.22 8.22 0 0 0 .212-.975c.312-.14.55-.384.682-.69.185-.444.286-1.396.288-1.436.078-.755-.2-1.188-.226-1.21.324-3.057-.703-3.661-1.387-3.769-.243-.038-.61-.125-.775-.3-.382-.401-.553-.848-1.214-.813-.245.013-.576-.06-.764-.21-.252-.203-.602-.438-.861-.438-.254 0-.575.227-.809.425-.182.157-.506.235-.75.22-.662-.036-.833.413-1.215.815-.165.174-.534.261-.775.3-.684.107-1.71.711-1.387 3.768-.028.026-.302.462-.226 1.21.004.04.103.994.288 1.436.13.306.37.55.682.69.043.274.115.636.212.975.157.545.669 1.461 1.413 2.197h-.015c-.087 3.567-6.695 2.49-7.64 6.56 2.46 2.793 6.143 4.573 10.256 4.573 4.114 0 7.8-1.78 10.253-4.57-.938-4.082-7.53-3.04-7.635-6.598z" fill-opacity=".401"/></g><rect fill="#B3E2F1" x="34.181" y="40.545" width="35.759" height="9.478" rx="3"/><rect fill="#D3EEF7" x="56.267" y="113.051" width="27.871" height="6.319" rx="3"/><rect fill="#B3E2F1" x="74.147" y="40.545" width="25.241" height="9.478" rx="3"/><rect fill="#B3E2F1" x="103.069" y="40.545" width="45.75" height="9.478" rx="3"/><rect fill="#D3EEF7" x="89.922" y="113.051" width="36.81" height="6.319" rx="3"/><use fill="#000" filter="url(#m)" xlink:href="#n"/><use fill="#FFF" xlink:href="#n"/><rect fill="#B3E2F1" x="64.681" y="96.36" width="27.871" height="8.425" rx="3"/><rect fill="#B3E2F1" x="96.233" y="96.36" width="22.612" height="8.425" rx="3"/><rect fill="#B3E2F1" x="11.569" y="134.799" width="27.871" height="6.319" rx="3"/><rect fill="#B3E2F1" x="11.569" y="199.039" width="27.871" height="6.319" rx="3"/><rect fill="#B3E2F1" x="66.259" y="199.039" width="27.871" height="6.319" rx="3"/><rect fill="#B3E2F1" x="120.422" y="199.039" width="27.871" height="6.319" rx="3"/><rect fill="#D3EEF7" x="11.569" y="207.991" width="16.828" height="5.266" rx="2.633"/><rect fill="#D3EEF7" x="66.259" y="207.991" width="16.828" height="5.266" rx="2.633"/><rect fill="#D3EEF7" x="120.422" y="207.991" width="16.828" height="5.266" rx="2.633"/><rect fill="#B3E2F1" x="23.664" y="7.266" width="27.871" height="3.159" rx="1"/><rect fill="#B3E2F1" x="23.664" y="13.058" width="59.422" height="3.159" rx="1"/><rect fill="#B3E2F1" x="5.784" y="7.266" width="13.147" height="8.952" rx="3"/><path d="M8.148 10.036c-1.062-.851-.824-1.541.53-1.541h7.36c1.355 0 1.6.683.53 1.541l-2.286 1.831c-1.063.851-2.777.858-3.848 0l-2.286-1.831z" fill="#D7EFF7" opacity=".569"/><text font-family="AvenirNext-DemiBold, Avenir Next" font-size="18" font-weight="500" fill="#0CA7D2"><tspan x="49" y="105">{{</tspan></text><text font-family="AvenirNext-DemiBold, Avenir Next" font-size="18" font-weight="500" fill="#0CA7D2"><tspan x="123" y="105">}}</tspan></text></g><g transform="translate(290 92)"><rect fill="#48BDDE" style="mix-blend-mode:multiply" transform="rotate(45 20.765 20.345)" x="6.444" y="5.959" width="28.642" height="28.772" rx="5"/><rect fill="#0AA6D2" style="mix-blend-mode:multiply" transform="rotate(45 37.299 20.299)" x="22.978" y="5.913" width="28.642" height="28.772" rx="5"/></g><rect fill-opacity=".702" fill="#84D2E8" x="5" y="68" width="19" height="15" rx="1"/><path fill="#E7F6FB" d="M11.448 76.821l3.677 2L19.49 74 22 77.821v3.606H7z"/><rect fill="#E7F6FB" x="9" y="71" width="3" height="3" rx="1.5"/><path d="M11.446 148.924a2.786 2.786 0 0 0 2.015.816c.729.01 1.46-.26 2.016-.816l5.983-5.952a5.256 5.256 0 0 0-7.43-7.433l-.533.524-.526-.524a5.256 5.256 0 0 0-7.431 7.432l5.906 5.953z" fill-opacity=".696" fill="#84D2E8"/></g></svg>