<svg width="255" height="168" viewBox="0 0 255 168" xmlns="http://www.w3.org/2000/svg" xmlns:xlink="http://www.w3.org/1999/xlink"><defs><path d="M3.994.388l110.012 10.689c2.206.214 3.994 1.84 3.994 3.612v89.622c0 1.78-1.783 3.397-3.994 3.612L3.994 118.612c-2.206.214-3.994-1.41-3.994-3.605V3.993C0 1.788 1.783.173 3.994.388z" id="a"/><path d="M3.994 11.854L114.006.415C116.212.185 118 1.798 118 3.993v111.014c0 2.205-1.783 3.808-3.994 3.578L3.994 107.145C1.788 106.917 0 105.304 0 103.562V15.439c0-1.75 1.783-3.355 3.994-3.585z" id="b"/><path d="M0 3.993A4 4 0 014.008 0h138.984A4.001 4.001 0 01147 3.993v142.014a4 4 0 01-4.008 3.993H4.008A4.001 4.001 0 010 146.007V3.993z" id="c"/><mask id="d" maskContentUnits="userSpaceOnUse" maskUnits="objectBoundingBox" x="0" y="0" width="118" height="118.262" fill="#fff"><use xlink:href="#a"/></mask><mask id="e" maskContentUnits="userSpaceOnUse" maskUnits="objectBoundingBox" x="0" y="0" width="118" height="118.213" fill="#fff"><use xlink:href="#b"/></mask><mask id="f" maskContentUnits="userSpaceOnUse" maskUnits="objectBoundingBox" x="0" y="0" width="147" height="150" fill="#fff"><use xlink:href="#c"/></mask></defs><g fill="none" fill-rule="evenodd"><g transform="translate(0 17)"><use stroke="#0AA6D2" mask="url(#d)" stroke-width="4" fill="#FFF" xlink:href="#a"/><path d="M60 44.213c12.699 0 22.993 4.443 22.993 9.924C82.993 59.617 84.046 72 60 72S37.007 59.618 37.007 54.137 47.3 44.213 60 44.213z" fill="#A8DFEE"/><path d="M70.82 59.453c-3.204.715-6.894 1.123-10.82 1.123-12.329 0-22.324-4.018-22.324-8.974s9.995-7.39 22.324-7.39c12.329 0 22.324 2.434 22.324 7.39 0 1.88-1.437 3.624-3.894 5.065l-2.45 4.347c-1.181 2.097-3.098 2.096-4.28 0l-.88-1.561z" fill="#CEEDF6"/><path d="M60 55.734c12.329 0 22.324-3.994 22.324-8.92 0-4.927-9.995-7.346-22.324-7.346-12.329 0-22.324 2.42-22.324 7.346s9.995 8.92 22.324 8.92z" fill="#EDF9FC"/><path d="M60 52.346c12.684 0 22.967-4.444 22.967-9.925C82.967 36.941 84.852 21 60 21S37.033 36.94 37.033 42.421 47.316 52.346 60 52.346z" fill="#A8DFEE"/><path d="M49.6 35.628l2.959-2.26M71.5 36.08l-3.382.677m-12.177-.677l2.706 2.033m2.706-6.777l.78.775" stroke="#CEEDF6" stroke-width="2" stroke-linecap="round" fill="#FFF"/><path d="M34 88.805A2.803 2.803 0 0136.791 86H83.19A2.807 2.807 0 0186 88.805v10.39A2.806 2.806 0 0183.204 102H36.796A2.8 2.8 0 0134 99.195v-10.39z" fill="#CEEDF6"/><path d="M50 94c0-1.105.9-2 2.004-2H68a2 2 0 01.009 4H51.991A1.99 1.99 0 0150 94z" fill="#A8DFEE"/></g><g transform="translate(137 17)"><use stroke="#0AA6D2" mask="url(#e)" stroke-width="4" fill="#FFF" xlink:href="#b"/><path d="M33 88.805A2.803 2.803 0 0135.791 86H82.19A2.807 2.807 0 0185 88.805v10.39A2.806 2.806 0 0182.204 102H35.796A2.8 2.8 0 0133 99.195v-10.39z" fill="#CEEDF6"/><g transform="rotate(135 35.9 39.51)"><path d="M42.37 20.765l2.132-3.218c3.658-5.519 1.764-12.238-4.238-14.993 0 0 .21-2.554-16.664-2.554C6.725 0 6.935 2.554 6.935 2.554c-6.164 2.393-7.9 9.468-4.238 14.993l2.124 3.205c-1.484-4.774.575-9.806 5.693-11.65 0 0-1.653-1.792 13.085-1.792 14.738 0 13.1 1.796 13.1 1.796 4.952 2.168 7.109 6.974 5.67 11.66z" fill="#A8DFEE"/><path d="M5.71 24.009c-3.26-5.771-1.38-13.325 4.706-15.926 0 0-1.445-2.128 13.066-2.128 14.511 0 13.066 2.128 13.066 2.128 5.86 3.025 7.963 10.16 4.704 15.926L29.387 45c-3.262 5.77-8.553 5.765-11.812 0L5.711 24.009z" fill="#CEEDF6"/><ellipse fill="#EDF9FC" cx="17.091" cy="16.375" rx="2.721" ry="2.74"/><ellipse fill="#EDF9FC" cx="30.588" cy="18.794" rx="1.663" ry="1.675"/><ellipse fill="#EDF9FC" cx="23.375" cy="30.89" rx="3.024" ry="3.046"/></g><path d="M49 94c0-1.105.9-2 2.004-2H67a2 2 0 01.009 4H50.991A1.99 1.99 0 0149 94z" fill="#A8DFEE"/></g><g transform="translate(54)"><use stroke="#0AA6D2" mask="url(#f)" stroke-width="4" fill="#FFF" xlink:href="#c"/><path d="M37 107.006A4.005 4.005 0 0141.005 103h65.99a4 4 0 014.005 4.006v14.988a4.005 4.005 0 01-4.005 4.006h-65.99A4 4 0 0137 121.994v-14.988z" fill="#CEEDF6"/><path d="M58 113.807A2.804 2.804 0 0160.793 111h26.398A2.809 2.809 0 0190 113.807v.386A2.803 2.803 0 0187.202 117H60.798A2.803 2.803 0 0158 114.193v-.386z" fill="#A8DFEE"/><g transform="translate(46 29)"><path d="M27.692 55c15.294 0 27.693-12.312 27.693-27.5S42.986 0 27.692 0C12.398 0 0 12.312 0 27.5S12.398 55 27.692 55zm.252-18.5c4.866 0 8.811-3.918 8.811-8.75S32.81 19 27.945 19c-4.867 0-8.812 3.918-8.812 8.75s3.945 8.75 8.811 8.75z" fill="#CEEDF6"/><path d="M19.173 28.59c-1.363.271-2.736.462-4.194.386-3.458-.181-6.335-2.462-9.065-2.976-2.393-.45-4.483.424-5.914 1.34C.087 12.226 12.452 0 27.692 0c15.25 0 27.622 12.242 27.692 27.37L49.55 26s-9.364 1.75-12.794 1.75c0-4.832-3.945-8.75-8.81-8.75-4.867 0-8.812 3.918-8.812 8.75 0 .284.013.564.04.84z" fill="#A8DFEE"/><path d="M9.23 17.906s2.19-2.017 4.44-2.017m21.186-2.979s-2.973.138-4.698-1.309m15.402 4.24s1.087 2.799.267 4.934" stroke="#EDF9FC" stroke-width="2" stroke-linecap="round"/><ellipse fill="#EDF9FC" cx="20" cy="7.028" rx="1.538" ry="1.528"/><path d="M0 28.071s4.038-2.418 6.057-2.404c1.949.013 4.769 2.353 7.291 2.91 3.117.69 5.78-.38 5.78-.38m36.307-.737s-4.038-2.418-6.057-2.404c-1.949.012-4.769 2.353-7.29 2.91-3.118.69-5.78-.38-5.78-.38" stroke="#EDF9FC" stroke-width="2"/></g></g><rect fill="#48BDDE" transform="rotate(45 128.299 149.299)" x="113.978" y="134.913" width="28.642" height="28.772" rx="5"/></g></svg>