<svg width="229" height="167" viewBox="0 0 229 167" xmlns="http://www.w3.org/2000/svg" xmlns:xlink="http://www.w3.org/1999/xlink"><defs><rect id="a" x="0" y="0" width="149" height="150" rx="4.5"/><mask id="h" maskContentUnits="userSpaceOnUse" maskUnits="objectBoundingBox" x="0" y="0" width="149" height="150" fill="#fff"><use xlink:href="#a"/></mask><rect id="b" x="84" y="114" width="14" height="14" rx="7"/><mask id="i" maskContentUnits="userSpaceOnUse" maskUnits="objectBoundingBox" x="0" y="0" width="14" height="14" fill="#fff"><use xlink:href="#b"/></mask><rect id="j" x="0" y="0" width="26" height="26" rx="13"/><rect id="c" x="99" y="19" width="34" height="34" rx="17"/><mask id="l" maskContentUnits="userSpaceOnUse" maskUnits="objectBoundingBox" x="0" y="0" width="34" height="34" fill="#fff"><use xlink:href="#c"/></mask><path d="M0 4.5C0 2.015 2.023 0 4.5 0h46C52.984 0 55 2.018 55 4.5v45c0 2.485-2.023 4.5-4.5 4.5h-46A4.503 4.503 0 0 1 0 49.5v-45z" id="d"/><mask id="m" maskContentUnits="userSpaceOnUse" maskUnits="objectBoundingBox" x="0" y="0" width="55" height="54" fill="#fff"><use xlink:href="#d"/></mask><path id="e" d="M28 38.402l-6.888 5.228-1.175-8.567-8.567-1.175L16.598 27l-5.228-6.888 8.567-1.175 1.175-8.567L28 15.598l6.888-5.228 1.175 8.567 8.567 1.175L39.402 27l5.228 6.888-8.567 1.175-1.175 8.567z"/><mask id="n" maskContentUnits="userSpaceOnUse" maskUnits="objectBoundingBox" x="0" y="0" width="33.26" height="33.26" fill="#fff"><use xlink:href="#e"/></mask><path d="M28 37c5.523 0 10-4.477 10-10s-4.477-10-10-10-10 4.477-10 10 4.477 10 10 10z" id="f"/><mask id="o" maskContentUnits="userSpaceOnUse" maskUnits="objectBoundingBox" x="-2" y="-2" width="24" height="24"><path fill="#fff" d="M16 15h24v24H16z"/><use xlink:href="#f"/></mask><rect id="g" x="0" y="0" width="58" height="58" rx="4.5"/><mask id="p" maskContentUnits="userSpaceOnUse" maskUnits="objectBoundingBox" x="0" y="0" width="58" height="58" fill="#fff"><use xlink:href="#g"/></mask></defs><g fill="none" fill-rule="evenodd"><use mask="url(#h)" xlink:href="#a" transform="translate(41)" stroke="#0AA6D2" stroke-width="4" fill="#FFF"/><path d="M197.365 56.929a.38.38 0 0 0 .383-.376c.005-1.756-.073-4.405-.363-5.041-.362-.793-1.036-1.28-2.263-1.56l-.133-.03-.115-.026-.11-.025c-1.824-.416-2.684-.657-3.496-1.001-.993-.421-1.653-.882-2.017-1.667-.42-.908-.236-1.706.279-2.662 2.354-4.379 2.768-7.927 1.377-10.207-.881-1.446-2.468-2.263-4.481-2.263-2.03 0-3.63.831-4.516 2.3-1.373 2.277-.935 5.906 1.41 10.164.268.487.44.96.49 1.44.042.41-.006.81-.193 1.218-.36.788-1.015 1.25-1.999 1.67-.805.343-1.655.582-3.464.993l-.107.024-.106.025-.214.048c-2.248.511-2.632 3.154-2.623 6.117v.482a.38.38 0 0 0 .382.377h21.88z" fill="#CEEDF6"/><rect fill="#A8DFEE" x="88" y="63" width="56" height="6" rx="2"/><rect fill="#A8DFEE" x="88" y="74" width="56" height="6" rx="2"/><rect fill="#A8DFEE" x="88" y="85" width="56" height="6" rx="2"/><rect fill="#A8DFEE" x="88" y="96" width="56" height="6" rx="2"/><rect fill="#A8DFEE" x="88" y="107" width="56" height="6" rx="2"/><rect fill="#A8DFEE" x="98" y="118" width="46" height="6" rx="2"/><use stroke="#CEEDF6" mask="url(#i)" stroke-width="4" stroke-dasharray="3,3" xlink:href="#b"/><g opacity=".593" transform="translate(103 23)"><mask id="k" fill="#fff"><use xlink:href="#j"/></mask><use fill="#CEEDF6" xlink:href="#j"/><path d="M3.888 25.938H22.85a.329.329 0 0 0 .331-.325c.005-1.523-.062-3.818-.314-4.37-.313-.686-.898-1.109-1.962-1.35l-.115-.027-.099-.023-.096-.021c-1.58-.36-2.325-.57-3.03-.868-.86-.365-1.432-.764-1.747-1.445-.364-.787-.205-1.478.241-2.307 2.04-3.795 2.4-6.87 1.194-8.846-.764-1.253-2.14-1.96-3.884-1.96-1.758 0-3.145.719-3.913 1.993-1.19 1.973-.81 5.118 1.22 8.808.233.422.382.832.425 1.247.037.357-.005.703-.166 1.057-.312.682-.88 1.083-1.732 1.447-.698.297-1.435.504-3.003.86l-.092.022-.092.02-.186.043c-1.949.443-2.281 2.733-2.273 5.3v.419c0 .18.148.326.331.326z" fill="#EDF9FC" mask="url(#k)"/></g><use stroke="#CEEDF6" mask="url(#l)" stroke-width="4" stroke-dasharray="3,3" xlink:href="#c"/><path d="M114.226 19.82l59.63-7.394m-63.358 38.587l64.104 17.382" stroke="#CEEDF6" stroke-width="2" stroke-linecap="square" stroke-dasharray="2,4"/><path d="M91 124a3 3 0 1 0 0-6 3 3 0 0 0 0 6z" fill="#CEEDF6"/><path d="M53.5 79.5l39.652 36.207m-41.288 14.295l38.726-2.79" stroke="#CEEDF6" stroke-width="2" stroke-linecap="square" stroke-dasharray="2,5"/><g transform="translate(0 77)"><use stroke="#0AA6D2" mask="url(#m)" stroke-width="4" fill="#CEEDF6" xlink:href="#d"/><use stroke="#EDF9FC" mask="url(#n)" stroke-width="6" fill="#EDF9FC" transform="rotate(68 28 27)" xlink:href="#e"/><use fill="#EDF9FC" xlink:href="#f"/><use stroke="#CEEDF6" mask="url(#o)" stroke-width="4" xlink:href="#f"/></g><g transform="translate(171 12)"><use stroke="#0AA6D2" mask="url(#p)" stroke-width="4" fill="#CEEDF6" xlink:href="#g"/><path d="M29.893 44.65C21.128 44.65 14 37.552 14 28.825S21.128 13 29.893 13c8.764 0 15.892 7.098 15.892 15.825S38.657 44.65 29.893 44.65z" fill="#A8DFEE"/><path d="M32.998 32.108c.869-.86 1.47-1.92 1.65-2.546.118-.4.2-.828.252-1.148.369-.166.652-.453.808-.814.22-.523.338-1.645.34-1.692.094-.89-.236-1.4-.266-1.427.384-3.603-.834-4.314-1.645-4.441-.288-.045-.723-.148-.918-.353-.453-.474-.655-1-1.44-.96-.29.017-.681-.07-.904-.247-.3-.239-.714-.515-1.021-.515-.301 0-.68.266-.958.5-.216.185-.6.277-.89.26-.785-.043-.987.486-1.44.96-.194.205-.632.307-.918.353-.81.127-2.028.838-1.644 4.44-.033.032-.358.546-.267 1.428.004.047.121 1.17.34 1.692.154.36.44.648.809.813.051.323.136.749.25 1.149.187.642.794 1.722 1.675 2.59h-.017c-.104 4.203-7.935 2.934-9.055 7.732 2.915 3.29 7.28 5.389 12.156 5.389 4.875 0 9.243-2.099 12.151-5.387-1.112-4.81-8.925-3.582-9.048-7.776z" fill="#EDF9FC"/></g><rect fill="#0AA6D2" transform="rotate(45 120.299 148.299)" x="105.978" y="133.913" width="28.642" height="28.772" rx="5"/></g></svg>