<svg xmlns="http://www.w3.org/2000/svg" xmlns:xlink="http://www.w3.org/1999/xlink" width="1016" height="261" viewBox="0 0 1016 261"><defs><path id="a" d="M0 0h1016v267H0z"/></defs><g fill="none" fill-rule="evenodd"><mask id="b" fill="#fff"><use xlink:href="#a"/></mask><use fill="#FFF" transform="matrix(1 0 0 -1 0 267)" xlink:href="#a"/><circle cx="64" cy="261" r="56" stroke="#01B2D0" stroke-linecap="round" stroke-width="4" mask="url(#b)"/><circle cx="56" cy="269" r="56" fill="#01B2D0" fill-opacity=".2" mask="url(#b)"/><path stroke="#F15242" stroke-dasharray="1" stroke-linecap="round" stroke-width="4" d="M703 599c164.029 0 297-132.971 297-297S867.029 5 703 5 406 137.971 406 302s132.971 297 297 297z" mask="url(#b)"/><path fill="#F15242" fill-opacity=".2" d="M719 615c164.029 0 297-132.971 297-297S883.029 21 719 21 422 153.971 422 318s132.971 297 297 297z" mask="url(#b)"/><circle cx="399" cy="281" r="210" stroke="#FFC111" stroke-linecap="round" stroke-width="4" mask="url(#b)"/><circle cx="383" cy="297" r="210" fill="#FFC111" fill-opacity=".2" mask="url(#b)"/><path stroke="#6F0DFB" stroke-dasharray="1" stroke-linecap="round" stroke-width="4" d="M187 395c68.483 0 124-55.517 124-124s-55.517-124-124-124S63 202.517 63 271s55.517 124 124 124z" mask="url(#b)"/><path fill="#6F0DFB" fill-opacity=".2" d="M195 403c68.483 0 124-55.517 124-124s-55.517-124-124-124S71 210.517 71 279s55.517 124 124 124z" mask="url(#b)"/></g></svg>