<svg width="63" height="63" viewBox="0 0 63 63" xmlns="http://www.w3.org/2000/svg" xmlns:xlink="http://www.w3.org/1999/xlink"><defs><mask id="d" maskContentUnits="userSpaceOnUse" maskUnits="objectBoundingBox" x="-2" y="-2" width="26" height="44"><path fill="#fff" d="M18 5h26v44H18z"/><use xlink:href="#a"/></mask><mask id="e" maskContentUnits="userSpaceOnUse" maskUnits="objectBoundingBox" x="0" y="0" width="32" height="27" fill="#fff"><use xlink:href="#b"/></mask><mask id="f" maskContentUnits="userSpaceOnUse" maskUnits="objectBoundingBox" x="0" y="0" width="10" height="14" fill="#fff"><use xlink:href="#c"/></mask><path d="M20 18.01C20 11.93 24.924 7 31 7c6.075 0 11 4.925 11 11.01v17.98C42 42.07 37.076 47 31 47c-6.075 0-11-4.925-11-11.01V18.01zm4.19-.203A6.813 6.813 0 0131 11c3.76 0 6.81 3.042 6.81 6.807v16.386A6.813 6.813 0 0131 41a6.805 6.805 0 01-6.81-6.807V17.807z" id="a"/><path d="M34 41a5 5 0 10-6 0v2c0 1.651 1.343 3 3 3 1.653 0 3-1.343 3-3v-2z" id="c"/><rect id="b" x="15" y="26" width="32" height="27" rx="3"/></defs><g fill="none" fill-rule="evenodd"><rect width="63" height="63" rx="31.5" fill="#84D2E8" fill-opacity=".15"/><use fill="#AEE1EF" xlink:href="#a"/><use stroke="#0AA6D2" mask="url(#d)" stroke-width="4" xlink:href="#a"/><use stroke="#0AA6D2" mask="url(#e)" stroke-width="4" fill="#FFF" xlink:href="#b"/><use stroke="#0AA6D2" mask="url(#f)" stroke-width="4" fill="#EDF9FC" xlink:href="#c"/></g></svg>