<svg xmlns="http://www.w3.org/2000/svg" xmlns:xlink="http://www.w3.org/1999/xlink" width="996" height="267" viewBox="0 0 996 267"><defs><path id="a" d="M0 0h996v267H0z"/></defs><g fill="none" fill-rule="evenodd"><mask id="b" fill="#fff"><use xlink:href="#a"/></mask><use fill="#FFF" transform="matrix(1 0 0 -1 0 267)" xlink:href="#a"/><path stroke="#E1E1E1" stroke-dasharray="1" stroke-linecap="round" stroke-width="2" d="M59.04 316.563c30.95 0 56.041-24.975 56.041-55.782 0-30.807-25.09-55.781-56.04-55.781S3 229.974 3 260.781s25.09 55.782 56.04 55.782zm639.318 280.402c164.226 0 297.358-132.516 297.358-295.983C995.716 137.516 862.584 5 698.358 5S401 137.516 401 300.982c0 163.467 133.132 295.983 297.358 295.983z" mask="url(#b)"/><path stroke="#E1E1E1" stroke-dasharray="1" stroke-linecap="round" stroke-width="2" d="M394.438 489.929c116.222 0 210.438-93.78 210.438-209.465C604.876 164.78 510.66 71 394.438 71S184 164.78 184 280.464 278.216 489.93 394.438 489.93z" mask="url(#b)"/><path stroke="#E1E1E1" stroke-dasharray="1" stroke-linecap="round" stroke-width="2" d="M182.662 395.17c68.848 0 124.661-55.555 124.661-124.085S251.51 147 182.662 147C113.812 147 58 202.555 58 271.085S113.813 395.17 182.662 395.17z" mask="url(#b)"/></g></svg>