<svg xmlns="http://www.w3.org/2000/svg" width="561" height="244" viewBox="0 0 561 244"><g fill="none" fill-rule="evenodd" transform="translate(2 2)"><path stroke="#9D9D9D" stroke-dasharray="4 6" stroke-width="2" d="M148 119.5h253"/><path fill="#1B2E5B" d="M113.345 74.744a7.999 7.999 0 0111.31 0l39.601 39.6a7.999 7.999 0 010 11.311l-39.6 39.601a7.999 7.999 0 01-11.311 0l-39.601-39.6a7.999 7.999 0 010-11.311l39.6-39.601z"/><path fill="#FFF" d="M108.776 113h2.398l6.71 15.576h-3.168l-1.452-3.564h-6.754l-1.408 3.564H102L108.776 113zm3.52 9.636l-2.398-6.336-2.442 6.336h4.84zm7.128-9.636h5.082c.895 0 1.701.08 2.42.242.719.161 1.335.425 1.848.792.513.367.91.836 1.188 1.408.279.572.418 1.261.418 2.068 0 .865-.161 1.591-.484 2.178a3.928 3.928 0 01-1.309 1.419c-.55.36-1.192.62-1.925.781-.733.161-1.51.242-2.332.242h-2.134v6.446h-2.772V113zm4.708 6.798c.455 0 .887-.033 1.298-.099.41-.066.777-.183 1.1-.352.323-.169.58-.4.77-.693.19-.293.286-.675.286-1.144 0-.455-.095-.825-.286-1.111a1.977 1.977 0 00-.759-.671 3.25 3.25 0 00-1.078-.319 9.838 9.838 0 00-1.243-.077h-2.024v4.466h1.936zm8.712-6.798h2.772v15.576h-2.772V113z"/><path fill="#FFF" stroke="#6FD350" stroke-width="2" d="M20 135c5.79 0 11.04 2.354 14.843 6.157C38.646 144.959 41 150.209 41 156c0 5.79-2.354 11.04-6.157 14.843C31.041 174.646 25.791 177 20 177c-5.79 0-11.04-2.354-14.843-6.157C1.354 167.041-1 161.791-1 156c0-5.79 2.354-11.04 6.157-14.843C8.959 137.354 14.209 135 20 135z"/><path fill="#6FD350" d="M23.593 158.5c.916-.912 1.551-2.037 1.74-2.7.124-.424.211-.878.266-1.218.389-.176.688-.48.852-.863.231-.555.357-1.744.36-1.794.098-.944-.25-1.485-.282-1.514.405-3.82-.88-4.576-1.735-4.71-.303-.048-.762-.157-.968-.374-.478-.503-.69-1.062-1.518-1.018-.306.017-.72-.074-.955-.263-.315-.253-.752-.546-1.076-.546-.318 0-.718.283-1.01.53-.229.197-.633.295-.94.277-.827-.046-1.04.515-1.517 1.017-.206.218-.667.327-.969.374-.854.135-2.139.89-1.734 4.71-.035.034-.378.58-.282 1.515.005.05.128 1.241.36 1.794.162.382.463.687.852.863.054.342.144.794.265 1.218.196.68.836 1.827 1.766 2.746h-.018c-.11 4.459-8.369 3.112-9.55 8.201 3.074 3.49 7.678 5.716 12.82 5.716s9.75-2.225 12.816-5.713c-1.173-5.102-9.413-3.8-9.543-8.247z"/><path fill="#FFF" stroke="#F15242" stroke-width="2" d="M68 199c5.79 0 11.04 2.354 14.843 6.157C86.646 208.959 89 214.209 89 220c0 5.79-2.354 11.04-6.157 14.843C79.041 238.646 73.791 241 68 241c-5.79 0-11.04-2.354-14.843-6.157C49.354 231.041 47 225.791 47 220c0-5.79 2.354-11.04 6.157-14.843C56.959 201.354 62.209 199 68 199z"/><path fill="#F15242" fill-rule="nonzero" d="M76.2 218.36c.484-.53.1-1.374-.628-1.374h-5.417l2.518-7.834c.272-.847-.826-1.459-1.43-.797l-11.442 12.534c-.485.532-.1 1.375.627 1.375h5.414l-2.515 7.834c-.272.847.826 1.459 1.43.797l11.442-12.534z"/><path fill="#FFF" stroke="#6F0DFB" stroke-width="2" d="M68-1c5.79 0 11.04 2.354 14.843 6.157C86.646 8.959 89 14.209 89 20c0 5.79-2.354 11.04-6.157 14.843C79.041 38.646 73.791 41 68 41c-5.79 0-11.04-2.354-14.843-6.157C49.354 31.041 47 25.791 47 20c0-5.79 2.354-11.04 6.157-14.843C56.959 1.354 62.209-1 68-1z"/><g transform="translate(55 11)"><rect width="26" height="18" fill="#6F0DFB" rx="1.25"/><path fill="#FFF" d="M8.302 10.817c.523-.451 1.43-.534 2.03-.181l2.502 1.47c.598.351 1.512.278 2.036-.16l5.87-4.9c.527-.44 1.388-.443 1.919-.012L24 8.125v8.125H2l6.302-5.433z"/><rect width="4" height="4" x="3" y="3" fill="#FFF" rx="2"/></g><path fill="#FFF" stroke="#1B2E5B" stroke-width="2" d="M20 63c5.79 0 11.04 2.354 14.843 6.157C38.646 72.959 41 78.209 41 84c0 5.79-2.354 11.04-6.157 14.843C31.041 102.646 25.791 105 20 105c-5.79 0-11.04-2.354-14.843-6.157C1.354 95.041-1 89.791-1 84c0-5.79 2.354-11.04 6.157-14.843C8.959 65.354 14.209 63 20 63z"/><path fill="#1B2E5B" d="M17.568 94.029a3.29 3.29 0 002.386.97 3.289 3.289 0 002.388-.97l7.085-7.091a6.287 6.287 0 000-8.855 6.198 6.198 0 00-8.8 0l-.63.624-.624-.624a6.198 6.198 0 00-8.8 0 6.286 6.286 0 000 8.853l6.995 7.093z"/><g transform="translate(401 17)"><path fill="#FFF" stroke="#1B2E5B" stroke-width="2" d="M147.995-1a8.98 8.98 0 016.366 2.635A8.966 8.966 0 01157 7.997h0v188.006a8.964 8.964 0 01-2.638 6.36 8.981 8.981 0 01-6.367 2.637h0H8.005a8.98 8.98 0 01-6.366-2.635A8.966 8.966 0 01-1 196.003h0V7.997a8.964 8.964 0 012.638-6.36A8.981 8.981 0 018.005-1h0z"/><path fill="#E1E1E1" d="M0 18h156v1H0z"/><path fill="#FFF" stroke="#E1E1E1" d="M50.995 128.5c.416 0 .793.167 1.066.439.271.27.439.644.439 1.058h0v36.006a1.504 1.504 0 01-1.505 1.497h0-39.99c-.416 0-.793-.167-1.066-.439a1.488 1.488 0 01-.439-1.058h0v-36.006a1.504 1.504 0 011.505-1.497h0z"/><rect width="43" height="39" x="56.5" y="128.5" fill="#FFF" stroke="#E1E1E1" rx="2"/><path fill="#FFF" stroke="#E1E1E1" d="M144.995 128.5c.416 0 .793.167 1.066.439.271.27.439.644.439 1.058h0v36.006a1.504 1.504 0 01-1.505 1.497h0-39.99c-.416 0-.793-.167-1.066-.439a1.488 1.488 0 01-.439-1.058h0v-36.006a1.504 1.504 0 011.505-1.497h0zm-67.345-76a12.11 12.11 0 018.59 3.565 12.128 12.128 0 013.562 8.596c0 3.353-1.363 6.393-3.563 8.595a12.108 12.108 0 01-8.588 3.565 12.11 12.11 0 01-8.589-3.565A12.128 12.128 0 0165.5 64.66c0-3.354 1.362-6.394 3.562-8.596a12.108 12.108 0 018.589-3.565z"/><path fill="#F1F1F1" d="M79.927 67.08c.637-.634 1.079-1.416 1.21-1.876a7.24 7.24 0 00.185-.847c.27-.122.478-.333.592-.6.16-.385.248-1.21.25-1.246.068-.655-.173-1.032-.196-1.051.282-2.655-.611-3.18-1.206-3.273-.21-.033-.53-.109-.673-.26-.332-.349-.48-.737-1.055-.707-.212.012-.5-.051-.663-.182-.22-.176-.523-.38-.749-.38-.22 0-.499.197-.702.369-.158.136-.44.204-.653.192-.575-.032-.723.358-1.054.707-.143.15-.464.226-.674.26-.594.093-1.486.618-1.205 3.272-.024.023-.263.402-.196 1.052.003.035.089.862.25 1.246.112.266.322.478.592.6.038.237.1.551.184.846.137.473.582 1.27 1.228 1.908h-.013c-.076 3.097-5.817 2.162-6.638 5.698 2.137 2.424 5.338 3.97 8.911 3.97 3.574 0 6.777-1.546 8.908-3.969-.815-3.544-6.542-2.64-6.633-5.73z"/><g fill="#F1F1F1" transform="translate(27 35)"><rect width="32" height="8" rx="4"/><rect width="22" height="8" x="36" rx="4"/><rect width="40" height="8" x="62" rx="4"/></g><g fill="#F1F1F1" opacity=".5" transform="translate(48 97)"><rect width="24" height="4" rx="2"/><rect width="32" height="4" x="28" rx="2"/></g><g fill="#F1F1F1" transform="translate(54 83)"><rect width="24.216" height="8" rx="4"/><rect width="19.647" height="8" x="28.216" rx="4"/></g><rect width="24" height="5.487" x="9" y="117.062" fill="#F1F1F1" rx="2.744"/><rect width="24" height="6" x="9" y="174" fill="#F1F1F1" rx="2.744"/><rect width="24" height="6" x="56" y="174" fill="#F1F1F1" rx="2.744"/><rect width="24" height="6" x="103" y="174" fill="#F1F1F1" rx="2.744"/><rect width="14.621" height="4" x="9" y="183" fill="#F1F1F1" opacity=".5" rx="2"/><rect width="14.621" height="4" x="56" y="183" fill="#F1F1F1" opacity=".5" rx="2"/><rect width="14.621" height="4" x="103" y="183" fill="#F1F1F1" opacity=".5" rx="2"/><circle cx="9" cy="9" r="3" fill="#F15242"/><circle cx="19" cy="9" r="3" fill="#FFC111"/><circle cx="29" cy="9" r="3" fill="#6FD350"/></g><circle cx="401" cy="119" r="13" fill="#1B2E5B" stroke="#979797" stroke-opacity=".124" stroke-width="10"/></g></svg>