<svg width="63" height="63" viewBox="0 0 63 63" xmlns="http://www.w3.org/2000/svg" xmlns:xlink="http://www.w3.org/1999/xlink"><defs><mask id="e" maskContentUnits="userSpaceOnUse" maskUnits="objectBoundingBox" x="0" y="0" width="49.5" height="49.677" fill="#fff"><use xlink:href="#a"/></mask><mask id="f" maskContentUnits="userSpaceOnUse" maskUnits="objectBoundingBox" x="0" y="0" width="12.6" height="8.543" fill="#fff"><use xlink:href="#b"/></mask><mask id="g" maskContentUnits="userSpaceOnUse" maskUnits="objectBoundingBox" x="0" y="0" width="5.858" height="5.879" fill="#fff"><use xlink:href="#c"/></mask><mask id="h" maskContentUnits="userSpaceOnUse" maskUnits="objectBoundingBox" x="0" y="0" width="7.2" height="7.2" fill="#fff"><use xlink:href="#d"/></mask><path d="M25.2 56.439c13.669 0 24.75-11.121 24.75-24.839 0-13.718-11.081-24.839-24.75-24.839S.45 17.882.45 31.6c0 13.718 11.081 24.839 24.75 24.839z" id="a"/><path d="M28.794 5.4l-.002 1.992a.975.975 0 01-.908.965s-.71.078-2.684.078c-1.975 0-2.706.104-2.706.104a.807.807 0 01-.898-.81l.001-2.329h-1.79a.903.903 0 01-.907-.892V.892c0-.493.405-.892.906-.892h10.788c.5 0 .906.406.906.892v3.616a.899.899 0 01-.906.892h-1.8z" id="b"/><circle id="d" cx="25.2" cy="31.5" r="3.6"/><rect id="c" x="36.196" y="6.632" width="5.858" height="5.879" rx=".9"/></defs><g fill="none" fill-rule="evenodd"><rect fill-opacity=".15" fill="#84D2E8" width="63" height="63" rx="31.5"/><g transform="translate(6.3)"><use stroke="#0AA6D2" mask="url(#e)" stroke-width="3.6" fill="#FFF" xlink:href="#a"/><path d="M36.073 14.836a19.157 19.157 0 00-1.024-.61l-2.084-.997a19.068 19.068 0 00-7.184-1.396c-.55 0-1.096.024-1.635.07v21.145l11.927-18.212z" fill="#C4EAF5"/><path d="M25.191 31.712L36.9 13.5" stroke="#0AA6D2" stroke-width="1.8" stroke-linecap="round" stroke-linejoin="round"/><path d="M45.9 31.5h2.25m-46.35 0h2.25M25.2 52.2v2.25m0-46.35v2.25M10.563 46.137l-1.591 1.591m32.774-32.774l-1.59 1.59m-29.593.319l-1.591-1.591m32.774 32.774l-1.59-1.59" stroke="#0AA6D2" stroke-width="1.8" stroke-linecap="round"/><use stroke="#0AA6D2" mask="url(#f)" stroke-width="3.6" fill="#84D2E8" xlink:href="#b"/><use stroke="#0AA6D2" mask="url(#g)" stroke-width="3.6" fill="#84D2E8" transform="rotate(30 39.125 9.572)" xlink:href="#c"/><use stroke="#0AA6D2" mask="url(#h)" stroke-width="3.6" fill="#84D2E8" xlink:href="#d"/></g></g></svg>