<svg xmlns="http://www.w3.org/2000/svg" width="160" height="224" viewBox="0 0 160 224"><g fill="none" fill-rule="evenodd" transform="translate(2 2)"><path fill="#FFF" stroke="#1B2E5B" stroke-width="2" d="M147.995-1a8.98 8.98 0 016.366 2.635A8.966 8.966 0 01157 7.997h0v188.006a8.964 8.964 0 01-2.638 6.36 8.981 8.981 0 01-6.367 2.637h0H8.005a8.98 8.98 0 01-6.366-2.635A8.966 8.966 0 01-1 196.003h0V7.997a8.964 8.964 0 012.638-6.36A8.981 8.981 0 018.005-1h0z"/><path fill="#E1E1E1" d="M0 18h156v1H0z"/><path fill="#FFF" stroke="#E1E1E1" d="M50.995 128.5c.416 0 .793.167 1.066.439.271.27.439.644.439 1.058h0v36.006a1.504 1.504 0 01-1.505 1.497h0-39.99c-.416 0-.793-.167-1.066-.439a1.488 1.488 0 01-.439-1.058h0v-36.006a1.504 1.504 0 011.505-1.497h0z"/><rect width="43" height="39" x="56.5" y="128.5" fill="#FFF" stroke="#E1E1E1" rx="2"/><path fill="#FFF" stroke="#E1E1E1" d="M144.995 128.5c.416 0 .793.167 1.066.439.271.27.439.644.439 1.058h0v36.006a1.504 1.504 0 01-1.505 1.497h0-39.99c-.416 0-.793-.167-1.066-.439a1.488 1.488 0 01-.439-1.058h0v-36.006a1.504 1.504 0 011.505-1.497h0zm-67.345-76a12.11 12.11 0 018.59 3.565 12.128 12.128 0 013.562 8.596c0 3.353-1.363 6.393-3.563 8.595a12.108 12.108 0 01-8.588 3.565 12.11 12.11 0 01-8.589-3.565A12.128 12.128 0 0165.5 64.66c0-3.354 1.362-6.394 3.562-8.596a12.108 12.108 0 018.589-3.565z"/><path fill="#6FD350" d="M80.044 66.324c.572-.568.968-1.267 1.087-1.679.077-.264.131-.546.165-.757.243-.11.43-.299.532-.536.144-.345.223-1.085.224-1.116.062-.586-.155-.923-.175-.94.252-2.375-.55-2.844-1.083-2.928-.19-.03-.476-.097-.605-.233-.298-.312-.43-.66-.947-.632-.19.01-.449-.046-.596-.164-.197-.157-.47-.339-.672-.339-.198 0-.448.176-.63.33-.143.122-.395.182-.586.171-.516-.028-.65.32-.947.633-.129.135-.417.203-.605.232-.533.084-1.335.553-1.083 2.928-.021.02-.235.36-.175.94.003.032.08.773.224 1.116.101.238.29.427.532.537.034.212.09.493.165.757.123.423.523 1.135 1.103 1.707h-.012c-.068 2.77-5.223 1.934-5.96 5.097C71.918 73.617 74.792 75 78.001 75c3.21 0 6.085-1.383 7.999-3.55-.732-3.172-5.875-2.362-5.956-5.126z"/><g fill="#E1E1E1" transform="translate(27 35)"><rect width="32" height="8" rx="4"/><rect width="22" height="8" x="36" rx="4"/><rect width="40" height="8" x="62" rx="4"/></g><g fill="#F1F1F1" transform="translate(48 97)"><rect width="24" height="4" rx="2"/><rect width="32" height="4" x="28" rx="2"/></g><g fill="#E1E1E1" transform="translate(54 83)"><rect width="24.216" height="8" rx="4"/><rect width="19.647" height="8" x="28.216" rx="4"/></g><rect width="24" height="5.487" x="9" y="117" fill="#E1E1E1" rx="2.744"/><rect width="24" height="6" x="9" y="174" fill="#E1E1E1" rx="2.744"/><rect width="24" height="6" x="56" y="174" fill="#E1E1E1" rx="2.744"/><rect width="24" height="6" x="103" y="174" fill="#E1E1E1" rx="2.744"/><rect width="14.621" height="4" x="9" y="183" fill="#F1F1F1" rx="2"/><rect width="14.621" height="4" x="56" y="183" fill="#F1F1F1" rx="2"/><rect width="14.621" height="4" x="103" y="183" fill="#F1F1F1" rx="2"/><circle cx="9" cy="9" r="3" fill="#F15242"/><circle cx="19" cy="9" r="3" fill="#FFC111"/><circle cx="29" cy="9" r="3" fill="#6FD350"/><g transform="translate(33 188)"><rect width="92" height="34" x="-1" y="-1" fill="#FFF" stroke="#1B2E5B" stroke-width="2" rx="8"/><path fill="#384254" fill-rule="nonzero" d="M32.44 23.496v-2.192h-.544c-.31 0-.52-.101-.632-.304a1.335 1.335 0 01-.168-.656v-2.16c0-.31-.048-.573-.144-.792a1.82 1.82 0 00-.344-.536 1.36 1.36 0 00-.44-.312 1.886 1.886 0 00-.432-.136v-.032a1.475 1.475 0 00.872-.448 1.82 1.82 0 00.344-.536c.096-.219.144-.483.144-.792v-2.16c0-.235.056-.453.168-.656.112-.203.323-.304.632-.304h.544V9.288h-1.536c-.427 0-.79.075-1.088.224-.299.15-.544.35-.736.6-.192.25-.333.541-.424.872-.09.33-.136.677-.136 1.04v2.112c0 .459-.093.76-.28.904-.187.144-.44.216-.76.216v2.272c.32 0 .573.072.76.216.187.144.28.445.28.904v2.112c0 .363.045.71.136 1.04.09.33.232.621.424.872.192.25.437.45.736.6.299.15.661.224 1.088.224h1.536zm5.76 0v-2.192h-.544c-.31 0-.52-.101-.632-.304a1.335 1.335 0 01-.168-.656v-2.16c0-.31-.048-.573-.144-.792a1.82 1.82 0 00-.344-.536 1.36 1.36 0 00-.44-.312 1.886 1.886 0 00-.432-.136v-.032a1.475 1.475 0 00.872-.448 1.82 1.82 0 00.344-.536c.096-.219.144-.483.144-.792v-2.16c0-.235.056-.453.168-.656.112-.203.323-.304.632-.304h.544V9.288h-1.536c-.427 0-.79.075-1.088.224-.299.15-.544.35-.736.6-.192.25-.333.541-.424.872-.09.33-.136.677-.136 1.04v2.112c0 .459-.093.76-.28.904-.187.144-.44.216-.76.216v2.272c.32 0 .573.072.76.216.187.144.28.445.28.904v2.112c0 .363.045.71.136 1.04.09.33.232.621.424.872.192.25.437.45.736.6.299.15.661.224 1.088.224H38.2zm15.136 0c.427 0 .79-.075 1.088-.224.299-.15.544-.35.736-.6.192-.25.333-.541.424-.872.09-.33.136-.677.136-1.04v-2.112c0-.459.093-.76.28-.904.187-.144.44-.216.76-.216v-2.272c-.32 0-.573-.072-.76-.216-.187-.144-.28-.445-.28-.904v-2.112c0-.363-.045-.71-.136-1.04a2.507 2.507 0 00-.424-.872 2.086 2.086 0 00-.736-.6c-.299-.15-.661-.224-1.088-.224H51.8v2.192h.544c.31 0 .52.101.632.304.112.203.168.421.168.656v2.16c0 .31.048.573.144.792.096.219.21.397.344.536a1.475 1.475 0 00.872.448v.032a1.886 1.886 0 00-.432.136 1.36 1.36 0 00-.44.312 1.82 1.82 0 00-.344.536 1.964 1.964 0 00-.144.792v2.16c0 .235-.056.453-.168.656-.112.203-.323.304-.632.304H51.8v2.192h1.536zm5.76 0c.427 0 .79-.075 1.088-.224.299-.15.544-.35.736-.6.192-.25.333-.541.424-.872.09-.33.136-.677.136-1.04v-2.112c0-.459.093-.76.28-.904.187-.144.44-.216.76-.216v-2.272c-.32 0-.573-.072-.76-.216-.187-.144-.28-.445-.28-.904v-2.112c0-.363-.045-.71-.136-1.04a2.507 2.507 0 00-.424-.872 2.086 2.086 0 00-.736-.6c-.299-.15-.661-.224-1.088-.224H57.56v2.192h.544c.31 0 .52.101.632.304.112.203.168.421.168.656v2.16c0 .31.048.573.144.792.096.219.21.397.344.536a1.475 1.475 0 00.872.448v.032a1.886 1.886 0 00-.432.136 1.36 1.36 0 00-.44.312 1.82 1.82 0 00-.344.536 1.964 1.964 0 00-.144.792v2.16c0 .235-.056.453-.168.656-.112.203-.323.304-.632.304h-.544v2.192h1.536z"/></g><circle cx="31" cy="148" r="10" fill="#FFC111"/><circle cx="78" cy="148" r="10" fill="#F15242"/><circle cx="125" cy="148" r="10" fill="#6F0DFB"/></g></svg>