<svg xmlns="http://www.w3.org/2000/svg" width="160" height="208" viewBox="0 0 160 208"><g fill="none" fill-rule="evenodd" transform="translate(2 2)"><path fill="#FFF" stroke="#1B2E5B" stroke-width="2" d="M147.995-1a8.98 8.98 0 016.366 2.635A8.966 8.966 0 01157 7.997h0v188.006a8.964 8.964 0 01-2.638 6.36 8.981 8.981 0 01-6.367 2.637h0H8.005a8.98 8.98 0 01-6.366-2.635A8.966 8.966 0 01-1 196.003h0V7.997a8.964 8.964 0 012.638-6.36A8.981 8.981 0 018.005-1h0z"/><path fill="#E1E1E1" d="M0 18h156v1H0z"/><path fill="#FFF" stroke="#E1E1E1" d="M50.995 128.5c.416 0 .793.167 1.066.439.271.27.439.644.439 1.058h0v36.006a1.504 1.504 0 01-1.505 1.497h0-39.99c-.416 0-.793-.167-1.066-.439a1.488 1.488 0 01-.439-1.058h0v-36.006a1.504 1.504 0 011.505-1.497h0z"/><rect width="43" height="39" x="56.5" y="128.5" fill="#FFF" stroke="#E1E1E1" rx="2"/><path fill="#FFF" stroke="#E1E1E1" d="M144.995 128.5c.416 0 .793.167 1.066.439.271.27.439.644.439 1.058h0v36.006a1.504 1.504 0 01-1.505 1.497h0-39.99c-.416 0-.793-.167-1.066-.439a1.488 1.488 0 01-.439-1.058h0v-36.006a1.504 1.504 0 011.505-1.497h0zm-67.345-76a12.11 12.11 0 018.59 3.565 12.128 12.128 0 013.562 8.596c0 3.353-1.363 6.393-3.563 8.595a12.108 12.108 0 01-8.588 3.565 12.11 12.11 0 01-8.589-3.565A12.128 12.128 0 0165.5 64.66c0-3.354 1.362-6.394 3.562-8.596a12.108 12.108 0 018.589-3.565z"/><path fill="#F1F1F1" d="M79.927 67.08c.637-.634 1.079-1.416 1.21-1.876a7.24 7.24 0 00.185-.847c.27-.122.478-.333.592-.6.16-.385.248-1.21.25-1.246.068-.655-.173-1.032-.196-1.051.282-2.655-.611-3.18-1.206-3.273-.21-.033-.53-.109-.673-.26-.332-.349-.48-.737-1.055-.707-.212.012-.5-.051-.663-.182-.22-.176-.523-.38-.749-.38-.22 0-.499.197-.702.369-.158.136-.44.204-.653.192-.575-.032-.723.358-1.054.707-.143.15-.464.226-.674.26-.594.093-1.486.618-1.205 3.272-.024.023-.263.402-.196 1.052.003.035.089.862.25 1.246.112.266.322.478.592.6.038.237.1.551.184.846.137.473.582 1.27 1.228 1.908h-.013c-.076 3.097-5.817 2.162-6.638 5.698 2.137 2.424 5.338 3.97 8.911 3.97 3.574 0 6.777-1.546 8.908-3.969-.815-3.544-6.542-2.64-6.633-5.73z"/><g fill="#F1F1F1" transform="translate(27 35)"><rect width="32" height="8" rx="4"/><rect width="22" height="8" x="36" rx="4"/><rect width="40" height="8" x="62" rx="4"/></g><g fill="#F1F1F1" opacity=".5" transform="translate(48 97)"><rect width="24" height="4" rx="2"/><rect width="32" height="4" x="28" rx="2"/></g><g fill="#F1F1F1" transform="translate(54 83)"><rect width="24.216" height="8" rx="4"/><rect width="19.647" height="8" x="28.216" rx="4"/></g><rect width="24" height="5.487" x="9" y="117.062" fill="#F1F1F1" rx="2.744"/><rect width="24" height="6" x="9" y="174" fill="#F1F1F1" rx="2.744"/><rect width="24" height="6" x="56" y="174" fill="#F1F1F1" rx="2.744"/><rect width="24" height="6" x="103" y="174" fill="#F1F1F1" rx="2.744"/><rect width="14.621" height="4" x="9" y="183" fill="#F1F1F1" opacity=".5" rx="2"/><rect width="14.621" height="4" x="56" y="183" fill="#F1F1F1" opacity=".5" rx="2"/><rect width="14.621" height="4" x="103" y="183" fill="#F1F1F1" opacity=".5" rx="2"/><circle cx="9" cy="9" r="3" fill="#F15242"/><circle cx="19" cy="9" r="3" fill="#FFC111"/><circle cx="29" cy="9" r="3" fill="#6FD350"/></g></svg>