<?xml version="1.0" encoding="UTF-8" standalone="no"?>
<svg width="940px" height="303px" viewBox="0 0 940 303" version="1.1" xmlns="http://www.w3.org/2000/svg" xmlns:xlink="http://www.w3.org/1999/xlink">
    <!-- Generator: Sketch 3.6.1 (26313) - http://www.bohemiancoding.com/sketch -->
    <title>data-compliance-hero</title>
    <desc>Created with Sketch.</desc>
    <defs>
        <rect id="path-1" x="0" y="0" width="940" height="303"></rect>
        <filter x="-50%" y="-50%" width="200%" height="200%" filterUnits="objectBoundingBox" id="filter-3">
            <feMorphology radius="1" in="SourceAlpha" operator="dilate" result="shadowSpreadInner1"></feMorphology>
            <feOffset dx="0" dy="0" in="shadowSpreadInner1" result="shadowOffsetInner1"></feOffset>
            <feGaussianBlur stdDeviation="0" in="shadowOffsetInner1" result="shadowBlurInner1"></feGaussianBlur>
            <feComposite in="shadowBlurInner1" in2="SourceAlpha" operator="arithmetic" k2="-1" k3="1" result="shadowInnerInner1"></feComposite>
            <feColorMatrix values="0 0 0 0 0   0 0 0 0 0   0 0 0 0 0  0 0 0 0.0851619112 0" in="shadowInnerInner1" type="matrix" result="shadowMatrixInner1"></feColorMatrix>
            <feMerge>
                <feMergeNode in="SourceGraphic"></feMergeNode>
                <feMergeNode in="shadowMatrixInner1"></feMergeNode>
            </feMerge>
        </filter>
        <rect id="path-4" x="0" y="0" width="21" height="15" rx="2"></rect>
        <rect id="path-6" x="0.5" y="0.5" width="20" height="14" rx="1"></rect>
        <rect id="path-8" x="0" y="0" width="21" height="15" rx="2"></rect>
        <filter x="-50%" y="-50%" width="200%" height="200%" filterUnits="objectBoundingBox" id="filter-10">
            <feMorphology radius="1" in="SourceAlpha" operator="dilate" result="shadowSpreadInner1"></feMorphology>
            <feOffset dx="0" dy="0" in="shadowSpreadInner1" result="shadowOffsetInner1"></feOffset>
            <feGaussianBlur stdDeviation="0" in="shadowOffsetInner1" result="shadowBlurInner1"></feGaussianBlur>
            <feComposite in="shadowBlurInner1" in2="SourceAlpha" operator="arithmetic" k2="-1" k3="1" result="shadowInnerInner1"></feComposite>
            <feColorMatrix values="0 0 0 0 0   0 0 0 0 0   0 0 0 0 0  0 0 0 0.14 0" in="shadowInnerInner1" type="matrix" result="shadowMatrixInner1"></feColorMatrix>
            <feMerge>
                <feMergeNode in="SourceGraphic"></feMergeNode>
                <feMergeNode in="shadowMatrixInner1"></feMergeNode>
            </feMerge>
        </filter>
        <rect id="path-11" x="0.5" y="0.5" width="20" height="14" rx="1"></rect>
        <filter x="-50%" y="-50%" width="200%" height="200%" filterUnits="objectBoundingBox" id="filter-13">
            <feMorphology radius="1" in="SourceAlpha" operator="dilate" result="shadowSpreadInner1"></feMorphology>
            <feOffset dx="0" dy="0" in="shadowSpreadInner1" result="shadowOffsetInner1"></feOffset>
            <feGaussianBlur stdDeviation="0" in="shadowOffsetInner1" result="shadowBlurInner1"></feGaussianBlur>
            <feComposite in="shadowBlurInner1" in2="SourceAlpha" operator="arithmetic" k2="-1" k3="1" result="shadowInnerInner1"></feComposite>
            <feColorMatrix values="0 0 0 0 0   0 0 0 0 0   0 0 0 0 0  0 0 0 0.0851619112 0" in="shadowInnerInner1" type="matrix" result="shadowMatrixInner1"></feColorMatrix>
            <feMerge>
                <feMergeNode in="SourceGraphic"></feMergeNode>
                <feMergeNode in="shadowMatrixInner1"></feMergeNode>
            </feMerge>
        </filter>
        <rect id="path-14" x="0" y="0" width="21" height="15" rx="2"></rect>
        <rect id="path-16" x="0.5" y="0.5" width="20" height="14" rx="1"></rect>
        <rect id="path-18" x="0" y="0" width="21" height="15" rx="2"></rect>
        <path id="path-20" d="M7.43759486,0.5 L3.36260955,0.5 L3.24878315,0.5 L1.49839394,0.5 C0.946996191,0.5 0.5,0.949948758 0.5,1.50684547 L0.5,13.4931545 C0.5,14.0492199 0.955305576,14.5 1.49180311,14.5 L19.5081969,14.5 C20.0559546,14.5 20.5,14.0500512 20.5,13.4931545 L20.5,1.50684547 C20.5,0.950780073 20.0545211,0.5 19.4987694,0.5 L7.43759486,0.5 Z"></path>
    </defs>
    <g id="Page-1" stroke="none" stroke-width="1" fill="none" fill-rule="evenodd">
        <g id="Grid" transform="translate(-248.000000, -381.000000)">
            <g id="data-compliance-hero" transform="translate(248.000000, 381.000000)">
                <mask id="mask-2" fill="white">
                    <use xlink:href="#path-1"></use>
                </mask>
                <use id="Rectangle-279" fill="#FFFFFF" xlink:href="#path-1"></use>
                <g id="Globe5" opacity="0.301947295" mask="url(#mask-2)">
                    <g transform="translate(498.760125, 496.517511) rotate(-330.000000) translate(-498.760125, -496.517511) translate(-57.239875, 4.017511)">
                        <g id="g27340" stroke="none" stroke-width="1" fill-rule="evenodd" transform="translate(0.036461, 0.885513)">
                            <path d="M551.656215,982.666065 C537.614282,982.666065 526.231047,783.488394 526.231046,537.790268 C526.231046,292.092145 537.614281,92.914452 551.656214,92.9144475 L551.656215,92.9144475" id="path27342" stroke="#00C3E4" stroke-width="2.093573" transform="translate(538.943631, 537.790256) rotate(2.296809) translate(-538.943631, -537.790256) "></path>
                            <path d="M552.770207,971.68115 C487.242565,971.68115 434.121911,772.50348 434.121911,526.805355 C434.121911,281.107233 487.242556,81.9295413 552.770201,81.9295369 L552.770206,81.9295369" id="path27344" stroke="#00C3E4" stroke-width="2.09357299" transform="translate(493.446059, 526.805343) rotate(11.172037) translate(-493.446059, -526.805343) "></path>
                            <path d="M558.509984,946.410494 C445.962062,946.410494 354.723941,747.232823 354.723937,501.534696 C354.723937,255.836572 445.962048,56.6588782 558.509973,56.6588737 L558.509982,56.6588737" id="path27346" stroke="#00C3E4" stroke-width="2.09357301" transform="translate(456.616960, 501.534684) rotate(21.150567) translate(-456.616960, -501.534684) "></path>
                            <path d="M574.380951,907.438762 C422.482533,907.438762 299.344535,708.261091 299.344531,462.562965 C299.344526,216.864841 422.48252,17.6871477 574.380936,17.6871432 L574.380949,17.6871432" id="path27348" stroke="#00C3E4" stroke-width="2.09357301" transform="translate(436.862741, 462.562953) rotate(33.417795) translate(-436.862741, -462.562953) "></path>
                            <path d="M609.326978,858.41196 C428.429522,858.41196 281.783156,659.23429 281.783152,413.536164 C281.783147,167.838041 428.429504,-31.3396517 609.32696,-31.3396561 L609.326976,-31.3396561" id="path27350" stroke="#00C3E4" stroke-width="2.093573" transform="translate(445.555065, 413.536152) rotate(49.624295) translate(-445.555065, -413.536152) "></path>
                            <path d="M673.102175,813.773921 C475.533381,813.773921 315.372223,614.596252 315.372218,368.898127 C315.372214,123.200005 475.533363,-75.9776862 673.102156,-75.9776907 L673.102173,-75.9776907" id="path27352" stroke="#00C3E4" stroke-width="2.09357299" transform="translate(494.237197, 368.898115) rotate(71.278906) translate(-494.237197, -368.898115) "></path>
                            <path d="M391.874415,-87.0089761 C592.650714,-87.0089716 755.412061,112.168717 755.412061,357.866842 C755.412057,603.564959 592.650714,802.742635 391.874421,802.742643" id="path27354" stroke="#00C3E4" stroke-width="2.09357301" transform="translate(573.643238, 357.866834) rotate(-83.049162) translate(-573.643238, -357.866834) "></path>
                            <path d="M468.035032,-54.2891108 C658.336449,-54.2891064 812.606228,144.888581 812.606224,390.586705 C812.606219,636.284821 658.336449,835.462495 468.035037,835.462504" id="path27356" stroke="#00C3E4" stroke-width="2.093573" transform="translate(640.320628, 390.586696) rotate(-59.022895) translate(-640.320628, -390.586696) "></path>
                            <path d="M515.663631,-4.43503503 C682.521602,-4.43503058 817.786713,194.742657 817.786709,440.44078 C817.786709,686.138895 682.521602,885.316569 515.663636,885.316578" id="path27358" stroke="#00C3E4" stroke-width="2.09357299" transform="translate(666.725170, 440.440771) rotate(-40.376577) translate(-666.725170, -440.440771) "></path>
                            <path d="M539.085252,40.08229 C671.128854,40.0822944 778.171344,239.259983 778.171339,484.958109 C778.171339,730.656226 671.128854,929.833901 539.085255,929.83391" id="path27360" stroke="#00C3E4" stroke-width="2.09357301" transform="translate(658.628296, 484.958100) rotate(-26.500954) translate(-658.628296, -484.958100) "></path>
                            <path d="M548.692596,71.9041047 C636.923438,71.9041092 708.448666,271.081798 708.448666,516.779923 C708.448666,762.47804 636.923438,961.655716 548.692599,961.655725" id="path27362" stroke="#00C3E4" stroke-width="2.09357301" transform="translate(628.570631, 516.779915) rotate(-15.629065) translate(-628.570631, -516.779915) "></path>
                            <path d="M551.431896,89.5712579 C589.837357,89.5712624 620.971135,288.74895 620.971135,534.447074 C620.971135,780.145189 589.837357,979.322864 551.431897,979.322873" id="path27364" stroke="#00C3E4" stroke-width="2.093573" transform="translate(586.201515, 534.447065) rotate(-6.361746) translate(-586.201515, -534.447065) "></path>
                        </g>
                        <g id="g27366" stroke="none" stroke-width="1" fill-rule="evenodd" transform="translate(106.806655, 98.309432)">
                            <path d="M881.56397,355.916829 C908.476928,494.252265 734.782211,618.909372 493.606,634.346273 C252.429785,649.783174 35.1005856,550.154229 8.18764562,411.818796 C4.57364806,393.242466 4.57364806,374.493179 8.18764118,355.916847" id="path27382" stroke="#00C3E4" stroke-width="2.093573"></path>
                            <path d="M856.882189,273.049804 C910.045382,403.566556 768.681107,534.091325 541.136264,564.585031 C313.591427,595.07874 86.0326106,513.994043 32.8694266,383.47729 C18.0752195,347.157189 18.0752195,309.369896 32.8694311,273.049795" id="path27384" stroke="#00C3E4" stroke-width="2.093573"></path>
                            <path d="M815.177168,194.315114 C893.281572,311.620554 790.808104,443.03275 586.296311,487.832463 C381.784517,532.632177 152.678833,473.854669 74.5744471,356.549225 C39.7932557,304.311151 39.7932513,246.553205 74.5744382,194.315127" id="path27386" stroke="#00C3E4" stroke-width="2.093573"></path>
                            <path d="M754.733427,121.651448 C855.855812,219.809487 799.103721,346.402751 627.974083,404.405416 C456.844446,462.408081 236.140573,429.855719 135.018188,331.697679 C68.2788717,266.914793 68.2788761,186.434335 135.018193,121.651444" id="path27388" stroke="#00C3E4" stroke-width="2.093573"></path>
                            <path d="M669.463076,56.8478886 C791.113493,127.993843 789.179498,242.234898 665.143376,312.012432 C541.10725,381.78997 341.938958,380.680645 220.28854,309.534692 C100.305303,239.363776 100.305294,127.018822 220.288526,56.8478975" id="path27390" stroke="#00C3E4" stroke-width="2.093573"></path>
                            <path d="M514.640711,1.49999961 C653.823738,23.6006067 735.41906,106.235314 696.888971,186.069786 C658.358878,265.904257 514.293931,312.706798 375.110904,290.606191 C235.927877,268.505584 154.332556,185.870873 192.862645,106.036405 C217.375555,55.2455794 286.562392,15.5604597 375.11086,1.50000406" id="path27392" stroke="#00C3E4" stroke-width="2.093573"></path>
                            <path d="M646.845207,116.174373 C646.845207,180.156189 556.420427,232.023704 444.875808,232.023704 C333.331189,232.023704 242.906408,180.156189 242.906408,116.174373 C242.906408,52.1925525 333.331189,0.325042565 444.875808,0.325042565 C556.420427,0.325042565 646.845207,52.1925525 646.845207,116.174373 L646.845207,116.174373 Z" id="path27394" stroke="#00C3E4" stroke-width="2.093573"></path>
                            <path d="M582.349991,94.290901 C582.349991,137.842089 520.800702,173.147304 444.875808,173.147304 C368.950913,173.147304 307.401625,137.842089 307.401625,94.290901 C307.401625,50.7397126 368.950913,15.434502 444.875808,15.434502 C520.800702,15.434502 582.349991,50.7397126 582.349991,94.290901 L582.349991,94.290901 Z" id="path27396" stroke="#00C3E4" stroke-width="2.093573"></path>
                            <path d="M514.469719,80.9415038 C514.469719,102.989749 483.311464,120.863378 444.875808,120.863378 C406.440152,120.863378 375.281897,102.989749 375.281897,80.9415038 C375.281897,58.893263 406.440152,41.0196345 444.875808,41.0196345 C483.311464,41.0196345 514.469719,58.893263 514.469719,80.9415038 L514.469719,80.9415038 Z" id="path27398" stroke="#00C3E4" stroke-width="2.093573"></path>
                        </g>
                        <path d="M996.558271,539.18524 C996.558271,784.883365 797.380587,984.061048 551.682463,984.061048 C305.984339,984.061048 106.806655,784.883365 106.806655,539.18524 C106.806655,293.487116 305.984339,94.3094324 551.682463,94.3094324 C797.380587,94.3094324 996.558271,293.487116 996.558271,539.18524 L996.558271,539.18524 Z" id="path27400" stroke="#00C3E4" stroke-width="2.093573"></path>
                    </g>
                </g>
                <text id="Frankfurt" mask="url(#mask-2)" font-family="AvenirNext-DemiBold, Avenir Next" font-size="15" font-weight="500" fill="#354254">
                    <tspan x="729" y="44">FRANKFURT</tspan>
                </text>
                <g id="DE" mask="url(#mask-2)">
                    <g transform="translate(826.000000, 31.000000)">
                        <mask id="mask-5" fill="white">
                            <use xlink:href="#path-4"></use>
                        </mask>
                        <use id="background" stroke="none" fill="#ED4C49" fill-rule="evenodd" filter="url(#filter-3)" xlink:href="#path-4"></use>
                        <rect id="bottom" stroke="none" fill="#FFD128" fill-rule="evenodd" mask="url(#mask-5)" x="0" y="10" width="21" height="5"></rect>
                        <rect id="top" stroke="none" fill="#292929" fill-rule="evenodd" mask="url(#mask-5)" x="0" y="0" width="21" height="5"></rect>
                        <mask id="mask-7" fill="white">
                            <use xlink:href="#path-6"></use>
                        </mask>
                        <use id="overlay" stroke-opacity="0.156646286" stroke="#2F343A" stroke-width="1" fill="none" xlink:href="#path-6"></use>
                    </g>
                </g>
                <text id="N.-VIRGINIA" mask="url(#mask-2)" font-family="AvenirNext-DemiBold, Avenir Next" font-size="15" font-weight="500" fill="#354254">
                    <tspan x="820" y="194">N. VIRGINIA</tspan>
                </text>
                <g id="US" mask="url(#mask-2)">
                    <g transform="translate(916.000000, 181.000000)">
                        <mask id="mask-9" fill="white">
                            <use xlink:href="#path-8"></use>
                        </mask>
                        <use id="background" stroke="none" fill="#FFFFFF" fill-rule="evenodd" xlink:href="#path-8"></use>
                        <rect id="rectangle" stroke="none" fill="#435DB0" fill-rule="evenodd" filter="url(#filter-10)" mask="url(#mask-9)" x="0" y="0" width="9" height="7"></rect>
                        <path d="M1,1 L1,2 L2,2 L2,1 L1,1 L1,1 Z M3,1 L3,2 L4,2 L4,1 L3,1 L3,1 Z M5,1 L5,2 L6,2 L6,1 L5,1 L5,1 Z M7,1 L7,2 L8,2 L8,1 L7,1 L7,1 Z M6,2 L6,3 L7,3 L7,2 L6,2 L6,2 Z M4,2 L4,3 L5,3 L5,2 L4,2 L4,2 Z M2,2 L2,3 L3,3 L3,2 L2,2 L2,2 Z M1,3 L1,4 L2,4 L2,3 L1,3 L1,3 Z M3,3 L3,4 L4,4 L4,3 L3,3 L3,3 Z M5,3 L5,4 L6,4 L6,3 L5,3 L5,3 Z M7,3 L7,4 L8,4 L8,3 L7,3 L7,3 Z M1,5 L1,6 L2,6 L2,5 L1,5 L1,5 Z M3,5 L3,6 L4,6 L4,5 L3,5 L3,5 Z M5,5 L5,6 L6,6 L6,5 L5,5 L5,5 Z M7,5 L7,6 L8,6 L8,5 L7,5 L7,5 Z M6,4 L6,5 L7,5 L7,4 L6,4 L6,4 Z M4,4 L4,5 L5,5 L5,4 L4,4 L4,4 Z M2,4 L2,5 L3,5 L3,4 L2,4 L2,4 Z" id="stars" stroke="none" fill="#A7B6E7" fill-rule="evenodd" mask="url(#mask-9)"></path>
                        <path d="M9,0 L9,1 L21,1 L21,0 L9,0 L9,0 Z M9,2 L9,3 L21,3 L21,2 L9,2 L9,2 Z M9,4 L9,5 L21,5 L21,4 L9,4 L9,4 Z M9,6 L9,7 L21,7 L21,6 L9,6 L9,6 Z M0,8 L0,9 L21,9 L21,8 L0,8 L0,8 Z M0,10 L0,11 L21,11 L21,10 L0,10 L0,10 Z M0,12 L0,13 L21,13 L21,12 L0,12 L0,12 Z M0,14 L0,15 L21,15 L21,14 L0,14 L0,14 Z" id="stripe" stroke="none" fill="#ED4C49" fill-rule="evenodd" mask="url(#mask-9)"></path>
                        <mask id="mask-12" fill="white">
                            <use xlink:href="#path-11"></use>
                        </mask>
                        <use id="overlay" stroke-opacity="0.156646286" stroke="#2F343A" stroke-width="1" fill="none" xlink:href="#path-11"></use>
                    </g>
                </g>
                <text id="Sydney" mask="url(#mask-2)" font-family="AvenirNext-DemiBold, Avenir Next" font-size="15" font-weight="500" fill="#354254">
                    <tspan x="35" y="98">SYDNEY</tspan>
                </text>
                <circle id="Oval-192" fill="#ADEDF7" mask="url(#mask-2)" cx="511.5" cy="203.5" r="7.5"></circle>
                <circle id="Oval-192" fill="#ADEDF7" mask="url(#mask-2)" cx="325.5" cy="294.5" r="7.5"></circle>
                <circle id="Oval-192" fill="#FFC111" mask="url(#mask-2)" cx="195.5" cy="235.5" r="7.5"></circle>
                <circle id="Oval-192" fill="#F15242" mask="url(#mask-2)" cx="399.5" cy="139.5" r="7.5"></circle>
                <circle id="Oval-192" fill="#6FD350" mask="url(#mask-2)" cx="768.5" cy="264.5" r="7.5"></circle>
                <circle id="Oval-192" fill="#00C3E4" mask="url(#mask-2)" cx="661.5" cy="154.5" r="7.5"></circle>
                <path d="M4.58203125,110.820312 L164.047299,110.820312 L195.571857,142.34487 L195.571857,235.936657" id="Path-152" stroke="#FFC111" stroke-width="2" mask="url(#mask-2)"></path>
                <text id="Singapore" mask="url(#mask-2)" font-family="AvenirNext-DemiBold, Avenir Next" font-size="15" font-weight="500" fill="#354254">
                    <tspan x="238.5" y="23">SINGAPORE</tspan>
                </text>
                <path d="M208.582031,35.8203125 L368.047299,35.8203125 L399.571857,67.3448701 L399.571857,140.936657" id="Path-152" stroke="#F15242" stroke-width="2" mask="url(#mask-2)"></path>
                <path d="M847.582031,59.8203125 L692.047299,59.8203125 L661.571857,91.3448701 L661.571857,154.936657" id="Path-152" stroke="#00C3E4" stroke-width="2" mask="url(#mask-2)"></path>
                <path d="M939.582031,208.820312 L799.047299,208.820312 L768.571857,240.34487 L768.571857,263.936657" id="Path-152" stroke="#6FD350" stroke-width="2" mask="url(#mask-2)"></path>
                <g id="AU" mask="url(#mask-2)">
                    <g transform="translate(6.000000, 85.000000)">
                        <mask id="mask-15" fill="white">
                            <use xlink:href="#path-14"></use>
                        </mask>
                        <use id="background" stroke="none" fill="#1C36AD" fill-rule="evenodd" filter="url(#filter-13)" xlink:href="#path-14"></use>
                        <path d="M5,11 L5,10 L6,10 L6,11 L7,11 L7,12 L6,12 L6,13 L5,13 L5,12 L4,12 L4,11 L5,11 L5,11 Z" id="cross" stroke="none" fill="#BDC4E7" fill-rule="evenodd" mask="url(#mask-15)"></path>
                        <path d="M14,3 L14,4 L15,4 L15,3 L14,3 L14,3 Z M17,4 L17,5 L18,5 L18,4 L17,4 L17,4 Z M13,6 L13,7 L14,7 L14,6 L13,6 L13,6 Z M16,7 L16,8 L17,8 L17,7 L16,7 L16,7 Z M15,10 L15,11 L16,11 L16,10 L15,10 L15,10 Z" id="circles" stroke="none" fill="#BDC4E7" fill-rule="evenodd" mask="url(#mask-15)"></path>
                        <rect id="top-left" stroke="none" fill="#FFFFFF" fill-rule="evenodd" mask="url(#mask-15)" x="1" y="1" width="9" height="7" rx="1"></rect>
                        <path d="M5,5 L2,5 L2,4 L5,4 L5,2 L6,2 L6,4 L9,4 L9,5 L6,5 L6,7 L5,7 L5,5 L5,5 Z M7.5,6 L7.5,7 L9,7 L9,6 L7.5,6 L7.5,6 Z M7.5,2 L7.5,3 L9,3 L9,2 L7.5,2 L7.5,2 Z M2,6 L2,7 L3.5,7 L3.5,6 L2,6 L2,6 Z M2,2 L2,3 L3.5,3 L3.5,2 L2,2 L2,2 Z" id="cross" stroke="none" fill="#D72342" fill-rule="evenodd" mask="url(#mask-15)"></path>
                        <mask id="mask-17" fill="white">
                            <use xlink:href="#path-16"></use>
                        </mask>
                        <use id="overlay" stroke-opacity="0.156646286" stroke="#2F343A" stroke-width="1" fill="none" xlink:href="#path-16"></use>
                    </g>
                </g>
                <g id="SG" mask="url(#mask-2)">
                    <g transform="translate(209.000000, 10.000000)">
                        <mask id="mask-19" fill="white">
                            <use xlink:href="#path-18"></use>
                        </mask>
                        <use id="background" stroke="none" fill="#FFFFFF" fill-rule="evenodd" xlink:href="#path-18"></use>
                        <rect id="Rectangle-366" stroke="none" fill="#ED3A40" fill-rule="evenodd" mask="url(#mask-19)" x="0" y="0" width="21" height="8"></rect>
                        <path d="M5,5.73243561 C4.70582663,5.90260571 4.36428714,6 4,6 C2.8954305,6 2,5.1045695 2,4 C2,2.8954305 2.8954305,2 4,2 C4.36428714,2 4.70582663,2.09739429 5,2.26756439 C4.40219863,2.61337381 4,3.25971764 4,4 C4,4.74028236 4.40219863,5.38662619 5,5.73243561 Z" id="Oval-28" stroke="none" fill="#FFFFFF" fill-rule="evenodd" mask="url(#mask-19)"></path>
                        <path d="M6,5 L6,6 L7,6 L7,5 L6,5 Z M8,5 L8,6 L9,6 L9,5 L8,5 Z M9,3 L9,4 L10,4 L10,3 L9,3 Z M5,3 L5,4 L6,4 L6,3 L5,3 Z M7,2 L7,3 L8,3 L8,2 L7,2 Z" id="Rectangle-368" stroke="none" fill="#FFFFFF" fill-rule="evenodd" mask="url(#mask-19)"></path>
                        <mask id="mask-21" fill="white">
                            <use xlink:href="#path-20"></use>
                        </mask>
                        <use id="overlay" stroke-opacity="0.156646286" stroke="#2F343A" stroke-width="1" fill="none" xlink:href="#path-20"></use>
                    </g>
                </g>
            </g>
        </g>
    </g>
</svg>