<svg width="177" height="177" viewBox="0 0 177 177" xmlns="http://www.w3.org/2000/svg" xmlns:xlink="http://www.w3.org/1999/xlink"><defs><rect id="a" x="30.564" y="30.564" width="124.561" height="124.561" rx="10"/><mask id="d" maskContentUnits="userSpaceOnUse" maskUnits="objectBoundingBox" x="-2" y="-2" width="128.561" height="128.561"><path fill="#fff" d="M28.564 28.564h128.561v128.561H28.564z"/><use xlink:href="#a"/></mask><rect id="b" x="26.564" y="26.564" width="124.561" height="124.561" rx="10"/><mask id="e" maskContentUnits="userSpaceOnUse" maskUnits="objectBoundingBox" x="-2" y="-2" width="128.561" height="128.561"><path fill="#fff" d="M24.564 24.564h128.561v128.561H24.564z"/><use xlink:href="#b"/></mask><path d="M78.119 1.104C83.49-.186 92.232-.33 97.642.782l65.74 3.523L174.42 76.95c.83 5.464-1.658 13.055-5.574 16.972l-73.923 73.923a10.002 10.002 0 0 1-14.155 0L6.844 93.922C2.935 90.012.278 82.394.908 76.908L8.854 7.756 78.12 1.104z" id="f"/><path d="M35 21c0-1.657 1.34-3 3-3h84.51L143 38.04V174c0 1.657-1.346 3-3.001 3H38a3.005 3.005 0 0 1-3-3V21z" id="c"/><mask id="h" maskContentUnits="userSpaceOnUse" maskUnits="objectBoundingBox" x="0" y="0" width="108" height="159" fill="#fff"><use xlink:href="#c"/></mask></defs><g fill="none" fill-rule="evenodd"><g transform="rotate(45 94.258 89.43)"><use fill="#ECF8FC" xlink:href="#a"/><use stroke="#ECF8FC" mask="url(#d)" stroke-width="4" xlink:href="#a"/></g><g transform="rotate(45 90.258 85.43)"><use fill="#DBF2F9" xlink:href="#b"/><use stroke="#84D2E8" mask="url(#e)" stroke-width="4" xlink:href="#b"/></g><g transform="translate(-1)"><mask id="g" fill="#fff"><use xlink:href="#f"/></mask><path d="M39 25c0-1.657 1.34-3 3-3h84.51L147 42.04V178c0 1.657-1.346 3-3.001 3H42a3.005 3.005 0 0 1-3-3V25z" fill="#C1E9F4" opacity=".504" mask="url(#g)"/><g mask="url(#g)" stroke-width="4" stroke="#48BDDE" fill="#FFF"><use mask="url(#h)" xlink:href="#c"/></g><path stroke="#48BDDE" stroke-width="2" mask="url(#g)" d="M122 19v20h20"/><path fill="#DFF3F9" mask="url(#g)" d="M123 40h18v4h-18z"/><rect fill="#DBF2F9" mask="url(#g)" x="69" y="83" width="55" height="2" rx="1"/><rect fill="#DBF2F9" mask="url(#g)" x="69" y="91" width="55" height="2" rx="1"/><rect fill="#DBF2F9" mask="url(#g)" x="69" y="99" width="45" height="2" rx="1"/><rect fill="#DBF2F9" mask="url(#g)" x="69" y="111" width="55" height="2" rx="1"/><rect fill="#DBF2F9" mask="url(#g)" x="69" y="119" width="55" height="2" rx="1"/><rect fill="#DBF2F9" mask="url(#g)" x="69" y="127" width="45" height="2" rx="1"/><rect fill="#DBF2F9" mask="url(#g)" x="69" y="139" width="55" height="2" rx="1"/><rect fill="#DBF2F9" mask="url(#g)" x="69" y="147" width="55" height="2" rx="1"/><rect fill="#DBF2F9" mask="url(#g)" x="69" y="155" width="45" height="2" rx="1"/><path d="M56.443 85.787h-2.292v1.834h4.126v-7.793h-1.834v5.96z" fill="#48BDDE" mask="url(#g)" transform="rotate(45 56.214 83.724)"/><path d="M56.443 113.787h-2.292v1.834h4.126v-7.793h-1.834v5.96z" fill="#48BDDE" mask="url(#g)" transform="rotate(45 56.214 111.724)"/><path d="M56.443 141.787h-2.292v1.834h4.126v-7.793h-1.834v5.96z" fill="#48BDDE" mask="url(#g)" transform="rotate(45 56.214 139.724)"/><path d="M94.51 47.274l5.652 6.713c.567.674 1.026 1.94 1.026 2.819v3.771c0 .883-.66 1.312-1.458.964l-6.31-2.748-.024.258c-.07.738-.64 1.358-1.342 1.538l1.24 2.577c.384.796-.02 1.44-.908 1.44h-7.195c-.885 0-1.294-.641-.91-1.44l1.248-2.59c-.683-.194-1.228-.8-1.3-1.525l-.028-.278-6.355 2.768c-.798.348-1.458-.08-1.458-.964v-3.771c0-.88.46-2.145 1.027-2.819l5.633-6.691-.31-3.078s-1.64-12.901 6.031-12.901c7.672 0 6.03 12.9 6.03 12.9l-.288 3.057zm-6.285 31.589c1.988 0 3.6-6.357 3.6-8.328 0-1.971-1.612-3.569-3.6-3.569-1.989 0-3.6 1.598-3.6 3.569 0 1.971 1.611 8.328 3.6 8.328z" fill-opacity=".403" fill="#84D2E8" mask="url(#g)" transform="rotate(58 88.788 55.09)"/></g></g></svg>