<svg width="34" height="27" viewBox="0 0 34 27" xmlns="http://www.w3.org/2000/svg" xmlns:xlink="http://www.w3.org/1999/xlink"><defs><rect id="a" x="0" y="0" width="31" height="24" rx="4"/><mask id="c" maskContentUnits="userSpaceOnUse" maskUnits="objectBoundingBox" x="0" y="0" width="31" height="24" fill="#fff"><use xlink:href="#a"/></mask><rect id="b" x="3" y="3" width="31" height="24" rx="4"/><mask id="d" maskContentUnits="userSpaceOnUse" maskUnits="objectBoundingBox" x="0" y="0" width="31" height="24" fill="#fff"><use xlink:href="#b"/></mask></defs><g fill="none" fill-rule="evenodd"><use stroke="#6FD350" mask="url(#c)" stroke-width="4" xlink:href="#a"/><use stroke="#6FD350" mask="url(#d)" stroke-width="4" fill="#FFF" xlink:href="#b"/><rect fill="#6FD350" x="20" y="9" width="9" height="5" rx="1"/><rect fill="#6FD350" x="23" y="16" width="6" height="5" rx="1"/><path d="M18.413 18.048c-1.72-.397-3.321-.745-2.546-2.21C18.227 11.384 16.493 9 14 9c-2.542 0-4.233 2.475-1.867 6.84.8 1.472-.862 1.82-2.545 2.209-1.391.32-1.57.977-1.588 2.087a.859.859 0 0 0 .863.864h10.273a.86.86 0 0 0 .864-.864c-.017-1.11-.196-1.767-1.587-2.088z" fill="#6FD350"/></g></svg>