<?xml version="1.0" encoding="UTF-8"?>
<svg width="38px" height="35px" viewBox="0 0 38 35" version="1.1" xmlns="http://www.w3.org/2000/svg" xmlns:xlink="http://www.w3.org/1999/xlink">
    <!-- Generator: Sketch 41.2 (35397) - http://www.bohemiancoding.com/sketch -->
    <title>webhooks</title>
    <desc>Created with Sketch.</desc>
    <defs>
        <ellipse id="path-1" cx="28.6826923" cy="5.27272727" rx="2.74038462" ry="2.72727273"></ellipse>
        <mask id="mask-2" maskContentUnits="userSpaceOnUse" maskUnits="objectBoundingBox" x="0" y="0" width="5.48076923" height="5.45454545" fill="white">
            <use xlink:href="#path-1"></use>
        </mask>
        <ellipse id="path-3" cx="28.6826923" cy="5.27272727" rx="2.74038462" ry="2.72727273"></ellipse>
        <mask id="mask-4" maskContentUnits="userSpaceOnUse" maskUnits="objectBoundingBox" x="0" y="0" width="5.48076923" height="5.45454545" fill="white">
            <use xlink:href="#path-3"></use>
        </mask>
        <ellipse id="path-5" cx="28.6826923" cy="5.27272727" rx="2.74038462" ry="2.72727273"></ellipse>
        <mask id="mask-6" maskContentUnits="userSpaceOnUse" maskUnits="objectBoundingBox" x="0" y="0" width="5.48076923" height="5.45454545" fill="white">
            <use xlink:href="#path-5"></use>
        </mask>
    </defs>
    <g id="Page-1" stroke="none" stroke-width="1" fill="none" fill-rule="evenodd">
        <g id="Features" transform="translate(-209.000000, -4042.000000)" stroke="#F15242">
            <g id="webhooks" transform="translate(209.000000, 4040.000000)">
                <g id="Oval-33-+-Oval-33" transform="translate(1.730769, 23.545455)">
                    <path d="M3.09519131,0 C1.24285293,1.08664045 0,3.09251287 0,5.38728023 C0,8.8385537 2.81126095,11.6363636 6.27912708,11.6363636 C9.7469932,11.6363636 12.5582542,8.8385537 12.5582542,5.38728023 L26.5150311,5.38728023" id="Oval-33" stroke-width="2" stroke-linecap="square"></path>
                    <use id="Oval-33" mask="url(#mask-2)" stroke-width="4" xlink:href="#path-1"></use>
                </g>
                <g id="Oval-33-+-Oval-33" transform="translate(13.622075, 17.797487) rotate(-240.000000) translate(-13.622075, -17.797487) translate(-2.377925, 11.797487)">
                    <path d="M3.09519131,-1.20792265e-13 C1.24285293,1.08664045 -7.99360578e-14,3.09251287 -7.99360578e-14,5.38728023 C-7.99360578e-14,8.8385537 2.81126095,11.6363636 6.27912708,11.6363636 C9.7469932,11.6363636 12.5582542,8.8385537 12.5582542,5.38728023 L26.5150311,5.38728023" id="Oval-33" stroke-width="2" stroke-linecap="square"></path>
                    <use id="Oval-33" mask="url(#mask-4)" stroke-width="4" xlink:href="#path-3"></use>
                </g>
                <g id="Oval-33-+-Oval-33" transform="translate(26.086898, 20.153507) rotate(-120.000000) translate(-26.086898, -20.153507) translate(10.086898, 14.153507)">
                    <path d="M3.09519131,-4.97379915e-14 C1.24285293,1.08664045 4.8316906e-13,3.09251287 4.8316906e-13,5.38728023 C4.8316906e-13,8.8385537 2.81126095,11.6363636 6.27912708,11.6363636 C9.7469932,11.6363636 12.5582542,8.8385537 12.5582542,5.38728023 L26.5150311,5.38728023" id="Oval-33" stroke-width="2" stroke-linecap="square"></path>
                    <use id="Oval-33" mask="url(#mask-6)" stroke-width="4" xlink:href="#path-5"></use>
                </g>
            </g>
        </g>
    </g>
</svg>