<svg xmlns="http://www.w3.org/2000/svg" xmlns:xlink="http://www.w3.org/1999/xlink" width="200" height="100" viewBox="0 0 200 100"><defs><path id="b" d="M39.9 26.333l31.254 13.773a1.25 1.25 0 0 1 0 2.288L39.9 56.167a7.5 7.5 0 0 1-6.048 0L2.596 42.394a1.25 1.25 0 0 1 0-2.288L33.85 26.333a7.5 7.5 0 0 1 6.048 0z"/><filter id="a" width="131.6%" height="178.8%" x="-15.8%" y="-30.2%" filterUnits="objectBoundingBox"><feOffset dy="3" in="SourceAlpha" result="shadowOffsetOuter1"/><feGaussianBlur in="shadowOffsetOuter1" result="shadowBlurOuter1" stdDeviation="4"/><feComposite in="shadowBlurOuter1" in2="SourceAlpha" operator="out" result="shadowBlurOuter1"/><feColorMatrix in="shadowBlurOuter1" values="0 0 0 0 0.219607843 0 0 0 0 0.258823529 0 0 0 0 0.329411765 0 0 0 0.1 0"/></filter><path id="d" d="M39.9 13.833l31.254 13.773a1.25 1.25 0 0 1 0 2.288L39.9 43.667a7.5 7.5 0 0 1-6.048 0L2.596 29.894a1.25 1.25 0 0 1 0-2.288L33.85 13.833a7.5 7.5 0 0 1 6.048 0z"/><filter id="c" width="131.6%" height="178.8%" x="-15.8%" y="-30.2%" filterUnits="objectBoundingBox"><feOffset dy="3" in="SourceAlpha" result="shadowOffsetOuter1"/><feGaussianBlur in="shadowOffsetOuter1" result="shadowBlurOuter1" stdDeviation="4"/><feComposite in="shadowBlurOuter1" in2="SourceAlpha" operator="out" result="shadowBlurOuter1"/><feColorMatrix in="shadowBlurOuter1" values="0 0 0 0 0.219607843 0 0 0 0 0.258823529 0 0 0 0 0.329411765 0 0 0 0.1 0"/></filter><path id="f" d="M39.9 1.333l31.254 13.773a1.25 1.25 0 0 1 0 2.288L39.9 31.167a7.5 7.5 0 0 1-6.048 0L2.596 17.394a1.25 1.25 0 0 1 0-2.288L33.85 1.333a7.5 7.5 0 0 1 6.048 0z"/><filter id="e" width="131.6%" height="178.8%" x="-15.8%" y="-30.2%" filterUnits="objectBoundingBox"><feOffset dy="3" in="SourceAlpha" result="shadowOffsetOuter1"/><feGaussianBlur in="shadowOffsetOuter1" result="shadowBlurOuter1" stdDeviation="4"/><feComposite in="shadowBlurOuter1" in2="SourceAlpha" operator="out" result="shadowBlurOuter1"/><feColorMatrix in="shadowBlurOuter1" values="0 0 0 0 0.219607843 0 0 0 0 0.258823529 0 0 0 0 0.329411765 0 0 0 0.1 0"/></filter><circle id="h" cx="125.5" cy="72.5" r="9.5"/><filter id="g" width="205.3%" height="205.3%" x="-52.6%" y="-42.1%" filterUnits="objectBoundingBox"><feOffset dy="2" in="SourceAlpha" result="shadowOffsetOuter1"/><feGaussianBlur in="shadowOffsetOuter1" result="shadowBlurOuter1" stdDeviation="3"/><feComposite in="shadowBlurOuter1" in2="SourceAlpha" operator="out" result="shadowBlurOuter1"/><feColorMatrix in="shadowBlurOuter1" values="0 0 0 0 0.219607843 0 0 0 0 0.258823529 0 0 0 0 0.329411765 0 0 0 0.1 0"/></filter><circle id="j" cx="130.5" cy="67.5" r="9.5"/><filter id="i" width="205.3%" height="205.3%" x="-52.6%" y="-42.1%" filterUnits="objectBoundingBox"><feOffset dy="2" in="SourceAlpha" result="shadowOffsetOuter1"/><feGaussianBlur in="shadowOffsetOuter1" result="shadowBlurOuter1" stdDeviation="3"/><feComposite in="shadowBlurOuter1" in2="SourceAlpha" operator="out" result="shadowBlurOuter1"/><feColorMatrix in="shadowBlurOuter1" values="0 0 0 0 0.219607843 0 0 0 0 0.258823529 0 0 0 0 0.329411765 0 0 0 0.1 0"/></filter><path id="l" d="M13.914 59.414l9.672 9.672a2 2 0 0 1 0 2.828l-9.672 9.672a2 2 0 0 1-2.828 0l-9.672-9.672a2 2 0 0 1 0-2.828l9.672-9.672a2 2 0 0 1 2.828 0z"/><filter id="k" width="173.4%" height="173.4%" x="-36.7%" y="-28.7%" filterUnits="objectBoundingBox"><feOffset dy="2" in="SourceAlpha" result="shadowOffsetOuter1"/><feGaussianBlur in="shadowOffsetOuter1" result="shadowBlurOuter1" stdDeviation="3"/><feComposite in="shadowBlurOuter1" in2="SourceAlpha" operator="out" result="shadowBlurOuter1"/><feColorMatrix in="shadowBlurOuter1" values="0 0 0 0 0.219607843 0 0 0 0 0.258823529 0 0 0 0 0.329411765 0 0 0 0.1 0"/></filter><rect id="n" width="19" height="19" x="0" y="6" rx="2"/><filter id="m" width="205.3%" height="205.3%" x="-52.6%" y="-42.1%" filterUnits="objectBoundingBox"><feOffset dy="2" in="SourceAlpha" result="shadowOffsetOuter1"/><feGaussianBlur in="shadowOffsetOuter1" result="shadowBlurOuter1" stdDeviation="3"/><feComposite in="shadowBlurOuter1" in2="SourceAlpha" operator="out" result="shadowBlurOuter1"/><feColorMatrix in="shadowBlurOuter1" values="0 0 0 0 0.219607843 0 0 0 0 0.258823529 0 0 0 0 0.329411765 0 0 0 0.1 0"/></filter><rect id="p" width="19" height="19" x="5" y="1" rx="2"/><filter id="o" width="205.3%" height="205.3%" x="-52.6%" y="-42.1%" filterUnits="objectBoundingBox"><feOffset dy="2" in="SourceAlpha" result="shadowOffsetOuter1"/><feGaussianBlur in="shadowOffsetOuter1" result="shadowBlurOuter1" stdDeviation="3"/><feComposite in="shadowBlurOuter1" in2="SourceAlpha" operator="out" result="shadowBlurOuter1"/><feColorMatrix in="shadowBlurOuter1" values="0 0 0 0 0.219607843 0 0 0 0 0.258823529 0 0 0 0 0.329411765 0 0 0 0.1 0"/></filter><path id="r" d="M121.414 3.414l15.172 15.172A2 2 0 0 1 135.172 22H120a2 2 0 0 1-2-2V4.828a2 2 0 0 1 3.414-1.414z"/><filter id="q" width="178.1%" height="178.1%" x="-45.5%" y="-23.5%" filterUnits="objectBoundingBox"><feOffset dy="2" in="SourceAlpha" result="shadowOffsetOuter1"/><feGaussianBlur in="shadowOffsetOuter1" result="shadowBlurOuter1" stdDeviation="3"/><feComposite in="shadowBlurOuter1" in2="SourceAlpha" operator="out" result="shadowBlurOuter1"/><feColorMatrix in="shadowBlurOuter1" values="0 0 0 0 0.219607843 0 0 0 0 0.258823529 0 0 0 0 0.329411765 0 0 0 0.1 0"/></filter></defs><g fill="none" fill-rule="evenodd" transform="translate(29 10)"><path stroke="#E1E1E1" stroke-dasharray="2 4" stroke-linecap="round" stroke-linejoin="round" d="M20 11h16.678a6.5 6.5 0 0 1 6.5 6.5 6.5 6.5 0 0 0 6.5 6.5h4.648m67-13h-16.678a6.5 6.5 0 0 0-6.5 6.5 6.5 6.5 0 0 1-6.5 6.5H87h0m34.326 46h-16.678a6.5 6.5 0 0 1-6.5-6.5 6.5 6.5 0 0 0-6.5-6.5H87h0M20 70h16.678a6.5 6.5 0 0 0 6.5-6.5 6.5 6.5 0 0 1 6.5-6.5h4.648"/><g transform="translate(35 11)"><use fill="#000" filter="url(#a)" xlink:href="#b"/><path fill="#FFF" stroke="#E1E1E1" stroke-linejoin="square" d="M39.698 26.79a7 7 0 0 0-5.646 0L2.797 40.564a.75.75 0 0 0 0 1.372L34.052 55.71a7 7 0 0 0 5.646 0l31.255-13.774a.75.75 0 0 0 0-1.372L39.698 26.79z"/><use fill="#000" filter="url(#c)" xlink:href="#d"/><path fill="#FFF" stroke="#E1E1E1" stroke-linejoin="square" d="M39.698 14.29a7 7 0 0 0-5.646 0L2.797 28.064a.75.75 0 0 0 0 1.372L34.052 43.21a7 7 0 0 0 5.646 0l31.255-13.774a.75.75 0 0 0 0-1.372L39.698 14.29z"/><use fill="#000" filter="url(#e)" xlink:href="#f"/><path fill="#FFF" stroke="#E1E1E1" stroke-linejoin="square" d="M39.698 1.79a7 7 0 0 0-5.646 0L2.797 15.564a.75.75 0 0 0 0 1.372L34.052 30.71a7 7 0 0 0 5.646 0l31.255-13.774a.75.75 0 0 0 0-1.372L39.698 1.79z"/></g><use fill="#000" filter="url(#g)" xlink:href="#h"/><circle cx="125.5" cy="72.5" r="9" fill="#FFF" stroke="#E1E1E1" stroke-linejoin="square"/><use fill="#000" filter="url(#i)" xlink:href="#j"/><circle cx="130.5" cy="67.5" r="9" fill="#FFF" stroke="#E1E1E1" stroke-linejoin="square"/><use fill="#000" filter="url(#k)" xlink:href="#l"/><path fill="#FFF" stroke="#E1E1E1" stroke-linejoin="square" d="M13.56 59.768a1.5 1.5 0 0 0-2.12 0l-9.672 9.671a1.5 1.5 0 0 0 0 2.122l9.671 9.671a1.5 1.5 0 0 0 2.122 0l9.671-9.671a1.5 1.5 0 0 0 0-2.122l-9.671-9.671z"/><use fill="#000" filter="url(#m)" xlink:href="#n"/><rect width="18" height="18" x=".5" y="6.5" fill="#FFF" stroke="#E1E1E1" stroke-linejoin="square" rx="2"/><use fill="#000" filter="url(#o)" xlink:href="#p"/><rect width="18" height="18" x="5.5" y="1.5" fill="#FFF" stroke="#E1E1E1" stroke-linejoin="square" rx="2"/><use fill="#000" filter="url(#q)" xlink:href="#r"/><path fill="#FFF" stroke="#E1E1E1" stroke-linejoin="square" d="M121.06 3.768a1.5 1.5 0 0 0-2.56 1.06V20a1.5 1.5 0 0 0 1.5 1.5h15.172a1.5 1.5 0 0 0 1.06-2.56L121.061 3.767z"/></g></svg>