<svg xmlns="http://www.w3.org/2000/svg" xmlns:xlink="http://www.w3.org/1999/xlink" width="200" height="100" viewBox="0 0 200 100"><defs><path id="b" d="M31.92 21.066l25.003 11.019a1 1 0 0 1 0 1.83L31.92 44.934a6 6 0 0 1-4.84 0L2.077 33.915a1 1 0 0 1 0-1.83L27.08 21.066a6 6 0 0 1 4.84 0z"/><filter id="a" width="128.9%" height="172.6%" x="-14.4%" y="-28.6%" filterUnits="objectBoundingBox"><feOffset dy="2" in="SourceAlpha" result="shadowOffsetOuter1"/><feGaussianBlur in="shadowOffsetOuter1" result="shadowBlurOuter1" stdDeviation="3"/><feComposite in="shadowBlurOuter1" in2="SourceAlpha" operator="out" result="shadowBlurOuter1"/><feColorMatrix in="shadowBlurOuter1" values="0 0 0 0 0.219607843 0 0 0 0 0.258823529 0 0 0 0 0.329411765 0 0 0 0.1 0"/></filter><path id="d" d="M31.92 11.066l25.003 11.019a1 1 0 0 1 0 1.83L31.92 34.934a6 6 0 0 1-4.84 0L2.077 23.915a1 1 0 0 1 0-1.83L27.08 11.066a6 6 0 0 1 4.84 0z"/><filter id="c" width="128.9%" height="172.6%" x="-14.4%" y="-28.6%" filterUnits="objectBoundingBox"><feOffset dy="2" in="SourceAlpha" result="shadowOffsetOuter1"/><feGaussianBlur in="shadowOffsetOuter1" result="shadowBlurOuter1" stdDeviation="3"/><feComposite in="shadowBlurOuter1" in2="SourceAlpha" operator="out" result="shadowBlurOuter1"/><feColorMatrix in="shadowBlurOuter1" values="0 0 0 0 0.219607843 0 0 0 0 0.258823529 0 0 0 0 0.329411765 0 0 0 0.1 0"/></filter><path id="f" d="M31.92 1.066l25.003 11.019a1 1 0 0 1 0 1.83L31.92 24.934a6 6 0 0 1-4.84 0L2.077 13.915a1 1 0 0 1 0-1.83L27.08 1.066a6 6 0 0 1 4.84 0z"/><filter id="e" width="128.9%" height="172.6%" x="-14.4%" y="-28.6%" filterUnits="objectBoundingBox"><feOffset dy="2" in="SourceAlpha" result="shadowOffsetOuter1"/><feGaussianBlur in="shadowOffsetOuter1" result="shadowBlurOuter1" stdDeviation="3"/><feComposite in="shadowBlurOuter1" in2="SourceAlpha" operator="out" result="shadowBlurOuter1"/><feColorMatrix in="shadowBlurOuter1" values="0 0 0 0 0.219607843 0 0 0 0 0.258823529 0 0 0 0 0.329411765 0 0 0 0.1 0"/></filter><circle id="h" cx="154" cy="80" r="9"/><filter id="g" width="211.1%" height="211.1%" x="-55.6%" y="-44.4%" filterUnits="objectBoundingBox"><feOffset dy="2" in="SourceAlpha" result="shadowOffsetOuter1"/><feGaussianBlur in="shadowOffsetOuter1" result="shadowBlurOuter1" stdDeviation="3"/><feComposite in="shadowBlurOuter1" in2="SourceAlpha" operator="out" result="shadowBlurOuter1"/><feColorMatrix in="shadowBlurOuter1" values="0 0 0 0 0.219607843 0 0 0 0 0.258823529 0 0 0 0 0.329411765 0 0 0 0.1 0"/></filter><path id="j" d="M45.414 71.414l8.172 8.172a2 2 0 0 1 0 2.828l-8.172 8.172a2 2 0 0 1-2.828 0l-8.172-8.172a2 2 0 0 1 0-2.828l8.172-8.172a2 2 0 0 1 2.828 0z"/><filter id="i" width="183.4%" height="183.4%" x="-41.7%" y="-32.6%" filterUnits="objectBoundingBox"><feOffset dy="2" in="SourceAlpha" result="shadowOffsetOuter1"/><feGaussianBlur in="shadowOffsetOuter1" result="shadowBlurOuter1" stdDeviation="3"/><feComposite in="shadowBlurOuter1" in2="SourceAlpha" operator="out" result="shadowBlurOuter1"/><feColorMatrix in="shadowBlurOuter1" values="0 0 0 0 0.219607843 0 0 0 0 0.258823529 0 0 0 0 0.329411765 0 0 0 0.1 0"/></filter><rect id="l" width="16" height="16" x="0" y="5" rx="2"/><filter id="k" width="225%" height="225%" x="-62.5%" y="-50%" filterUnits="objectBoundingBox"><feOffset dy="2" in="SourceAlpha" result="shadowOffsetOuter1"/><feGaussianBlur in="shadowOffsetOuter1" result="shadowBlurOuter1" stdDeviation="3"/><feComposite in="shadowBlurOuter1" in2="SourceAlpha" operator="out" result="shadowBlurOuter1"/><feColorMatrix in="shadowBlurOuter1" values="0 0 0 0 0.219607843 0 0 0 0 0.258823529 0 0 0 0 0.329411765 0 0 0 0.1 0"/></filter><path id="n" d="M113.414 3.414l15.172 15.172A2 2 0 0 1 127.172 22H112a2 2 0 0 1-2-2V4.828a2 2 0 0 1 3.414-1.414z"/><filter id="m" width="178.1%" height="178.1%" x="-45.5%" y="-23.5%" filterUnits="objectBoundingBox"><feOffset dy="2" in="SourceAlpha" result="shadowOffsetOuter1"/><feGaussianBlur in="shadowOffsetOuter1" result="shadowBlurOuter1" stdDeviation="3"/><feComposite in="shadowBlurOuter1" in2="SourceAlpha" operator="out" result="shadowBlurOuter1"/><feColorMatrix in="shadowBlurOuter1" values="0 0 0 0 0.219607843 0 0 0 0 0.258823529 0 0 0 0 0.329411765 0 0 0 0.1 0"/></filter></defs><g fill="none" fill-rule="evenodd"><g transform="translate(69 28)"><use fill="#000" filter="url(#a)" xlink:href="#b"/><path fill="#FFF" stroke="#E1E1E1" stroke-linejoin="square" d="M31.718 21.524a5.5 5.5 0 0 0-4.436 0L2.278 32.542a.5.5 0 0 0 0 .916l25.004 11.018a5.5 5.5 0 0 0 4.436 0l25.004-11.018a.5.5 0 0 0 0-.916L31.718 21.524z"/><use fill="#000" filter="url(#c)" xlink:href="#d"/><path fill="#FFF" stroke="#E1E1E1" stroke-linejoin="square" d="M31.718 11.524a5.5 5.5 0 0 0-4.436 0L2.278 22.542a.5.5 0 0 0 0 .916l25.004 11.018a5.5 5.5 0 0 0 4.436 0l25.004-11.018a.5.5 0 0 0 0-.916L31.718 11.524z"/><use fill="#000" filter="url(#e)" xlink:href="#f"/><path fill="#FFF" stroke="#E1E1E1" stroke-linejoin="square" d="M31.718 1.524a5.5 5.5 0 0 0-4.436 0L2.278 12.542a.5.5 0 0 0 0 .916l25.004 11.018a5.5 5.5 0 0 0 4.436 0l25.004-11.018a.5.5 0 0 0 0-.916L31.718 1.524z"/></g><path stroke="#9D9D9D" stroke-dasharray="2 4" stroke-linecap="round" stroke-linejoin="round" d="M45 22h16.678a6.5 6.5 0 0 1 6.5 6.5 6.5 6.5 0 0 0 6.5 6.5h4.648m71-13h-16.678a6.5 6.5 0 0 0-6.5 6.5 6.5 6.5 0 0 1-6.5 6.5H116h0m34.326 46h-16.678a6.5 6.5 0 0 1-6.5-6.5 6.5 6.5 0 0 0-6.5-6.5H116h0M45 81h16.678a6.5 6.5 0 0 0 6.5-6.5 6.5 6.5 0 0 1 6.5-6.5h4.648"/><use fill="#000" filter="url(#g)" xlink:href="#h"/><circle cx="154" cy="80" r="8.5" fill="#FFF" stroke="#E1E1E1" stroke-linejoin="square"/><use fill="#000" filter="url(#i)" xlink:href="#j"/><path fill="#FFF" stroke="#E1E1E1" stroke-linejoin="square" d="M45.06 71.768a1.5 1.5 0 0 0-2.12 0l-8.172 8.171a1.5 1.5 0 0 0 0 2.122l8.171 8.171a1.5 1.5 0 0 0 2.122 0l8.171-8.171a1.5 1.5 0 0 0 0-2.122l-8.171-8.171z"/><g transform="translate(35 9)"><use fill="#000" filter="url(#k)" xlink:href="#l"/><rect width="15" height="15" x=".5" y="5.5" fill="#FFF" stroke="#E1E1E1" stroke-linejoin="square" rx="2"/><use fill="#000" filter="url(#m)" xlink:href="#n"/><path fill="#FFF" stroke="#E1E1E1" stroke-linejoin="square" d="M113.06 3.768a1.5 1.5 0 0 0-2.56 1.06V20a1.5 1.5 0 0 0 1.5 1.5h15.172a1.5 1.5 0 0 0 1.06-2.56L113.061 3.767z"/></g></g></svg>