<svg xmlns="http://www.w3.org/2000/svg" xmlns:xlink="http://www.w3.org/1999/xlink" width="200" height="100" viewBox="0 0 200 100"><defs><filter id="a" width="133.3%" height="126.3%" x="-16.7%" y="-10.5%" filterUnits="objectBoundingBox"><feOffset dy="2" in="SourceAlpha" result="shadowOffsetOuter1"/><feGaussianBlur in="shadowOffsetOuter1" result="shadowBlurOuter1" stdDeviation="3"/><feComposite in="shadowBlurOuter1" in2="SourceAlpha" operator="out" result="shadowBlurOuter1"/><feColorMatrix in="shadowBlurOuter1" values="0 0 0 0 0.219607843 0 0 0 0 0.258823529 0 0 0 0 0.329411765 0 0 0 0.1 0"/></filter><filter id="c" width="133.3%" height="300%" x="-16.7%" y="-80%" filterUnits="objectBoundingBox"><feOffset dy="2" in="SourceAlpha" result="shadowOffsetOuter1"/><feGaussianBlur in="shadowOffsetOuter1" result="shadowBlurOuter1" stdDeviation="3"/><feComposite in="shadowBlurOuter1" in2="SourceAlpha" operator="out" result="shadowBlurOuter1"/><feColorMatrix in="shadowBlurOuter1" values="0 0 0 0 0.219607843 0 0 0 0 0.258823529 0 0 0 0 0.329411765 0 0 0 0.1 0"/></filter><filter id="f" width="102.1%" height="104%" x="-1%" y="-2%" filterUnits="objectBoundingBox"><feOffset dy="1" in="SourceAlpha" result="shadowOffsetInner1"/><feComposite in="shadowOffsetInner1" in2="SourceAlpha" k2="-1" k3="1" operator="arithmetic" result="shadowInnerInner1"/><feColorMatrix in="shadowInnerInner1" values="0 0 0 0 0.219607843 0 0 0 0 0.258823529 0 0 0 0 0.329411765 0 0 0 0.05859375 0"/></filter><filter id="g" width="145%" height="154%" x="-22.5%" y="-21%" filterUnits="objectBoundingBox"><feOffset dy="3" in="SourceAlpha" result="shadowOffsetOuter1"/><feGaussianBlur in="shadowOffsetOuter1" result="shadowBlurOuter1" stdDeviation="4"/><feComposite in="shadowBlurOuter1" in2="SourceAlpha" operator="out" result="shadowBlurOuter1"/><feColorMatrix in="shadowBlurOuter1" values="0 0 0 0 0.219607843 0 0 0 0 0.258823529 0 0 0 0 0.329411765 0 0 0 0.1 0"/></filter><filter id="i" width="145.5%" height="171.4%" x="-22.7%" y="-28.6%" filterUnits="objectBoundingBox"><feOffset dy="2" in="SourceAlpha" result="shadowOffsetOuter1"/><feGaussianBlur in="shadowOffsetOuter1" result="shadowBlurOuter1" stdDeviation="3"/><feComposite in="shadowBlurOuter1" in2="SourceAlpha" operator="out" result="shadowBlurOuter1"/><feColorMatrix in="shadowBlurOuter1" values="0 0 0 0 0.219607843 0 0 0 0 0.258823529 0 0 0 0 0.329411765 0 0 0 0.1 0"/></filter><rect id="b" width="60" height="76" x="0" y="0" rx="4"/><rect id="e" width="48" height="25" x="6" y="44" rx="2"/><rect id="h" width="60" height="50" x="0" y="0" rx="2"/><rect id="j" width="44" height="28" x="0" y="0" rx="2"/><path id="d" d="M4 0h52a4 4 0 014 4v6H0V4a4 4 0 014-4z"/></defs><g fill="none" fill-rule="evenodd"><g transform="translate(50 12)"><use fill="#000" filter="url(#a)" xlink:href="#b"/><rect width="59" height="75" x=".5" y=".5" fill="#FFF" stroke="#E1E1E1" stroke-linejoin="square" rx="4"/><use fill="#000" filter="url(#c)" xlink:href="#d"/><path fill="#FFF" stroke="#E1E1E1" stroke-linejoin="square" d="M.5 9.5h59V4A3.5 3.5 0 0056 .5H4A3.5 3.5 0 00.5 4v5.5z"/><circle cx="6" cy="5" r="2" fill="#F15242"/><circle cx="12" cy="5" r="2" fill="#FFC111"/><circle cx="18" cy="5" r="2" fill="#6FD350"/><use fill="#1B2E5B" fill-opacity=".1" xlink:href="#e"/><use fill="#000" filter="url(#f)" xlink:href="#e"/><g fill="#F1F1F1" transform="translate(22 16)"><rect width="32" height="2" rx="1"/><rect width="32" height="2" y="5" rx="1"/><rect width="32" height="2" y="10" rx="1"/><rect width="32" height="2" y="15" rx="1"/><rect width="32" height="2" y="20" rx="1"/></g></g><g transform="translate(118 25)"><use fill="#000" filter="url(#g)" xlink:href="#h"/><rect width="59" height="49" x=".5" y=".5" fill="#1B2E5B" stroke="#49587C" stroke-linejoin="square" rx="2"/><path fill="#1B2E5B" stroke="#FFF" stroke-opacity=".205" d="M.5 7.5h59V2A1.5 1.5 0 0058 .5H2A1.5 1.5 0 00.5 2v5.5z"/><g fill="#FFF" transform="translate(6 14)"><circle cx="1" cy="1" r="1"/><circle cx="5" cy="1" r="1"/><circle cx="13" cy="1" r="1"/><circle cx="17" cy="1" r="1"/><circle cx="27" cy="1" r="1"/><rect width="4" height="2" x="20" rx="1"/></g><g fill="#FFF" transform="translate(6 34)"><circle cx="1" cy="1" r="1"/><circle cx="5" cy="1" r="1"/><circle cx="9" cy="1" r="1"/><circle cx="13" cy="1" r="1"/><circle cx="17" cy="1" r="1"/><rect width="4" height="2" x="20" rx="1"/></g><g fill="#FFF" transform="translate(6 39)"><circle cx="1" cy="1" r="1"/><circle cx="5" cy="1" r="1"/><circle cx="9" cy="1" r="1"/><circle cx="17" cy="1" r="1"/></g><g fill="#FFF" transform="translate(10 19)"><circle cx="1" cy="1" r="1"/><circle cx="5" cy="1" r="1"/><rect width="4" height="2" x="8" rx="1"/><circle cx="15" cy="1" r="1"/></g><g fill="#FFF" transform="translate(6 29)"><circle cx="1" cy="1" r="1"/><circle cx="9" cy="1" r="1"/><rect width="4" height="2" x="12" rx="1"/><circle cx="19" cy="1" r="1"/><circle cx="23" cy="1" r="1"/><circle cx="27" cy="1" r="1"/></g><g fill="#FFF" transform="translate(10 24)"><circle cx="1" cy="1" r="1"/><circle cx="5" cy="1" r="1"/><circle cx="9" cy="1" r="1"/><circle cx="13" cy="1" r="1"/><circle cx="17" cy="1" r="1"/><circle cx="21" cy="1" r="1"/></g></g><g transform="translate(23 25)"><use fill="#000" filter="url(#i)" xlink:href="#j"/><rect width="43" height="27" x=".5" y=".5" fill="#FFF" stroke="#E1E1E1" stroke-linejoin="square" rx="2"/><circle cx="9" cy="9" r="3" fill="#1B2E5B" fill-opacity=".203"/><path fill="#1B2E5B" fill-opacity=".203" d="M18.517 12.889l9.73 4.444L40 4v20H4z"/></g></g></svg>