<svg xmlns="http://www.w3.org/2000/svg" xmlns:xlink="http://www.w3.org/1999/xlink" width="200" height="100" viewBox="0 0 200 100"><defs><rect id="b" width="50" height="20" x="120" y="58" rx="4"/><filter id="a" width="140%" height="200%" x="-20%" y="-40%" filterUnits="objectBoundingBox"><feOffset dy="2" in="SourceAlpha" result="shadowOffsetOuter1"/><feGaussianBlur in="shadowOffsetOuter1" result="shadowBlurOuter1" stdDeviation="3"/><feComposite in="shadowBlurOuter1" in2="SourceAlpha" operator="out" result="shadowBlurOuter1"/><feColorMatrix in="shadowBlurOuter1" values="0 0 0 0 0.219607843 0 0 0 0 0.258823529 0 0 0 0 0.329411765 0 0 0 0.1 0"/></filter><rect id="d" width="44" height="26" x="0" y="0" rx="4"/><filter id="c" width="145.5%" height="176.9%" x="-22.7%" y="-30.8%" filterUnits="objectBoundingBox"><feOffset dy="2" in="SourceAlpha" result="shadowOffsetOuter1"/><feGaussianBlur in="shadowOffsetOuter1" result="shadowBlurOuter1" stdDeviation="3"/><feComposite in="shadowBlurOuter1" in2="SourceAlpha" operator="out" result="shadowBlurOuter1"/><feColorMatrix in="shadowBlurOuter1" values="0 0 0 0 0.219607843 0 0 0 0 0.258823529 0 0 0 0 0.329411765 0 0 0 0.1 0"/></filter><rect id="e" width="40" height="22" x="2" y="2" rx="2"/><filter id="f" width="102.5%" height="104.5%" x="-1.2%" y="-2.3%" filterUnits="objectBoundingBox"><feOffset dy="1" in="SourceAlpha" result="shadowOffsetInner1"/><feComposite in="shadowOffsetInner1" in2="SourceAlpha" k2="-1" k3="1" operator="arithmetic" result="shadowInnerInner1"/><feColorMatrix in="shadowInnerInner1" values="0 0 0 0 0.219607843 0 0 0 0 0.258823529 0 0 0 0 0.329411765 0 0 0 0.05859375 0"/></filter><rect id="h" width="44" height="44" x="0" y="0" rx="4"/><filter id="g" width="145.5%" height="145.5%" x="-22.7%" y="-18.2%" filterUnits="objectBoundingBox"><feOffset dy="2" in="SourceAlpha" result="shadowOffsetOuter1"/><feGaussianBlur in="shadowOffsetOuter1" result="shadowBlurOuter1" stdDeviation="3"/><feComposite in="shadowBlurOuter1" in2="SourceAlpha" operator="out" result="shadowBlurOuter1"/><feColorMatrix in="shadowBlurOuter1" values="0 0 0 0 0.219607843 0 0 0 0 0.258823529 0 0 0 0 0.329411765 0 0 0 0.1 0"/></filter><rect id="i" width="40" height="40" x="2" y="2" rx="2"/><filter id="j" width="102.5%" height="102.5%" x="-1.2%" y="-1.2%" filterUnits="objectBoundingBox"><feOffset dy="1" in="SourceAlpha" result="shadowOffsetInner1"/><feComposite in="shadowOffsetInner1" in2="SourceAlpha" k2="-1" k3="1" operator="arithmetic" result="shadowInnerInner1"/><feColorMatrix in="shadowInnerInner1" values="0 0 0 0 0.219607843 0 0 0 0 0.258823529 0 0 0 0 0.329411765 0 0 0 0.05859375 0"/></filter><rect id="l" width="50" height="20" x="133" y="68" rx="4"/><filter id="k" width="140%" height="200%" x="-20%" y="-40%" filterUnits="objectBoundingBox"><feOffset dy="2" in="SourceAlpha" result="shadowOffsetOuter1"/><feGaussianBlur in="shadowOffsetOuter1" result="shadowBlurOuter1" stdDeviation="3"/><feComposite in="shadowBlurOuter1" in2="SourceAlpha" operator="out" result="shadowBlurOuter1"/><feColorMatrix in="shadowBlurOuter1" values="0 0 0 0 0.219607843 0 0 0 0 0.258823529 0 0 0 0 0.329411765 0 0 0 0.1 0"/></filter><path id="n" d="M27 8v27l24.155 12.078C46.722 55.926 37.57 62 27 62 12.088 62 0 49.912 0 35S12.088 8 27 8z"/><filter id="m" width="139.1%" height="137%" x="-19.5%" y="-14.8%" filterUnits="objectBoundingBox"><feOffset dy="2" in="SourceAlpha" result="shadowOffsetOuter1"/><feGaussianBlur in="shadowOffsetOuter1" result="shadowBlurOuter1" stdDeviation="3"/><feComposite in="shadowBlurOuter1" in2="SourceAlpha" operator="out" result="shadowBlurOuter1"/><feColorMatrix in="shadowBlurOuter1" values="0 0 0 0 0.219607843 0 0 0 0 0.258823529 0 0 0 0 0.329411765 0 0 0 0.1 0"/></filter><path id="p" d="M32 0c14.912 0 27 12.088 27 27 0 4.342-1.025 8.444-2.845 12.078L32 27z"/><filter id="o" width="174.1%" height="151.2%" x="-37%" y="-20.5%" filterUnits="objectBoundingBox"><feOffset dy="2" in="SourceAlpha" result="shadowOffsetOuter1"/><feGaussianBlur in="shadowOffsetOuter1" result="shadowBlurOuter1" stdDeviation="3"/><feComposite in="shadowBlurOuter1" in2="SourceAlpha" operator="out" result="shadowBlurOuter1"/><feColorMatrix in="shadowBlurOuter1" values="0 0 0 0 0.219607843 0 0 0 0 0.258823529 0 0 0 0 0.329411765 0 0 0 0.1 0"/></filter></defs><g fill="none" fill-rule="evenodd"><use fill="#000" filter="url(#a)" xlink:href="#b"/><rect width="49" height="19" x="120.5" y="58.5" fill="#FFF" stroke="#E1E1E1" stroke-linejoin="square" rx="4"/><g transform="translate(104 18)"><use fill="#000" filter="url(#c)" xlink:href="#d"/><rect width="43" height="25" x=".5" y=".5" fill="#FFF" stroke="#E1E1E1" stroke-linejoin="square" rx="4"/><use fill="#1B2E5B" fill-opacity=".102" xlink:href="#e"/><use fill="#000" filter="url(#f)" xlink:href="#e"/><path fill="#1B2E5B" fill-opacity=".196" d="M17.472 16.068c-1.77-.409-3.416-.767-2.618-2.272 2.427-4.583.643-7.033-1.92-7.033-2.615 0-4.354 2.545-1.92 7.033.821 1.515-.887 1.872-2.618 2.273-1.43.33-1.615 1.005-1.633 2.147a.883.883 0 0 0 .888.888h10.564c.49 0 .896-.399.889-.888-.018-1.143-.202-1.818-1.632-2.148zm18 0c-1.77-.409-3.416-.767-2.618-2.272 2.427-4.583.643-7.033-1.92-7.033-2.615 0-4.354 2.545-1.92 7.033.821 1.515-.887 1.872-2.618 2.273-1.43.33-1.615 1.005-1.633 2.147a.883.883 0 0 0 .888.888h10.564c.49 0 .896-.399.889-.888-.018-1.143-.202-1.818-1.632-2.148z"/></g><g transform="translate(17 13)"><use fill="#000" filter="url(#g)" xlink:href="#h"/><rect width="43" height="43" x=".5" y=".5" fill="#FFF" stroke="#E1E1E1" stroke-linejoin="square" rx="4"/><use fill="#1B2E5B" fill-opacity=".102" xlink:href="#i"/><use fill="#000" filter="url(#j)" xlink:href="#i"/><path fill="#1B2E5B" fill-opacity=".196" d="M17.472 16.068c-1.77-.409-3.416-.767-2.618-2.272 2.427-4.583.643-7.033-1.92-7.033-2.615 0-4.354 2.545-1.92 7.033.821 1.515-.887 1.872-2.618 2.273-1.43.33-1.615 1.005-1.633 2.147a.883.883 0 0 0 .888.888h10.564c.49 0 .896-.399.889-.888-.018-1.143-.202-1.818-1.632-2.148zm18 0c-1.77-.409-3.416-.767-2.618-2.272 2.427-4.583.643-7.033-1.92-7.033-2.615 0-4.354 2.545-1.92 7.033.821 1.515-.887 1.872-2.618 2.273-1.43.33-1.615 1.005-1.633 2.147a.883.883 0 0 0 .888.888h10.564c.49 0 .896-.399.889-.888-.018-1.143-.202-1.818-1.632-2.148zm0 18c-1.77-.409-3.416-.767-2.618-2.272 2.427-4.583.643-7.033-1.92-7.033-2.615 0-4.354 2.545-1.92 7.033.821 1.515-.887 1.872-2.618 2.273-1.43.33-1.615 1.005-1.633 2.147a.883.883 0 0 0 .888.888h10.564c.49 0 .896-.399.889-.888-.018-1.143-.202-1.818-1.632-2.148zm-18 0c-1.77-.409-3.416-.767-2.618-2.272 2.427-4.583.643-7.033-1.92-7.033-2.615 0-4.354 2.545-1.92 7.033.821 1.515-.887 1.872-2.618 2.273-1.43.33-1.615 1.005-1.633 2.147a.883.883 0 0 0 .888.888h10.564c.49 0 .896-.399.889-.888-.018-1.143-.202-1.818-1.632-2.148z"/></g><use fill="#000" filter="url(#k)" xlink:href="#l"/><rect width="49" height="19" x="133.5" y="68.5" fill="#FFF" stroke="#E1E1E1" stroke-linejoin="square" rx="4"/><g transform="translate(56 21)"><use fill="#000" filter="url(#m)" xlink:href="#n"/><path fill="#FFF" stroke="#E1E1E1" stroke-linejoin="square" d="M26.5 8.505C12.095 8.77.5 20.53.5 35 .5 49.636 12.364 61.5 27 61.5a26.495 26.495 0 0 0 23.48-14.2L26.5 35.308V8.505z"/><use fill="#000" filter="url(#o)" xlink:href="#p"/><path fill="#FFF" stroke="#E1E1E1" stroke-linejoin="square" d="M32.5.505V26.69l23.427 11.714A26.393 26.393 0 0 0 58.5 27C58.5 12.531 46.905.771 32.5.505z"/></g></g></svg>