<svg xmlns="http://www.w3.org/2000/svg" xmlns:xlink="http://www.w3.org/1999/xlink" width="114" height="114" viewBox="0 0 114 114">
  <defs>
    <circle id="webhook-b" cx="50" cy="50" r="50"/>
    <filter id="webhook-a" width="122%" height="122%" x="-11%" y="-9%" filterUnits="objectBoundingBox">
      <feMorphology in="SourceAlpha" operator="dilate" radius="1" result="shadowSpreadOuter1"/>
      <feOffset dy="2" in="shadowSpreadOuter1" result="shadowOffsetOuter1"/>
      <feGaussianBlur in="shadowOffsetOuter1" result="shadowBlurOuter1" stdDeviation="3"/>
      <feComposite in="shadowBlurOuter1" in2="SourceAlpha" operator="out" result="shadowBlurOuter1"/>
      <feColorMatrix in="shadowBlurOuter1" values="0 0 0 0 0.207843137   0 0 0 0 0.258823529   0 0 0 0 0.329411765  0 0 0 0.101137908 0"/>
    </filter>
  </defs>
  <g fill="none" fill-rule="evenodd" transform="translate(7 5)">
    <use fill="#000" filter="url(#webhook-a)" xlink:href="#webhook-b"/>
    <circle cx="50" cy="50" r="50.5" fill="#FFF" stroke="#E1E1E1"/>
    <g fill-rule="nonzero" transform="translate(24 26)">
      <path fill="#37474F" d="M38.75,40 C36,40 33.75,37.75 33.75,35 C33.75,32.25 36,30 38.75,30 C41.5,30 43.75,32.25 43.75,35 C43.75,37.75 41.5,40 38.75,40 Z"/>
      <path fill="#37474F" d="M38.75,47.5 C35,47.5 31.375,45.75 29,42.875 L32.875,39.75 C34.25,41.5 36.5,42.625 38.75,42.625 C42.875,42.625 46.25,39.25 46.25,35.125 C46.25,31 42.875,27.625 38.75,27.625 C37.5,27.625 36.25,28 35.125,28.5 L33,29.75 L24.125,13.75 L28.5,11.375 L35.125,23.125 C36.375,22.75 37.625,22.5 38.875,22.5 C45.75,22.5 51.375,28.125 51.375,35 C51.375,41.875 45.625,47.5 38.75,47.5 Z"/>
      <path fill="#37474F" d="M12.5,47.5 C5.625,47.5 0,41.875 0,35 C0,29.25 3.875,24.375 9.375,22.875 L10.625,27.75 C7.375,28.625 5,31.625 5,35 C5,39.125 8.375,42.5 12.5,42.5 C16.625,42.5 20,39.125 20,35 L20,32.5 L38.75,32.5 L38.75,37.5 L24.75,37.5 C23.625,43.25 18.5,47.5 12.5,47.5 Z"/>
      <path fill="#E91E63" d="M12.5,40 C9.75,40 7.5,37.75 7.5,35 C7.5,32.25 9.75,30 12.5,30 C15.25,30 17.5,32.25 17.5,35 C17.5,37.75 15.25,40 12.5,40 Z"/>
      <path fill="#37474F" d="M26.25,17.5 C23.5,17.5 21.25,15.25 21.25,12.5 C21.25,9.75 23.5,7.5 26.25,7.5 C29,7.5 31.25,9.75 31.25,12.5 C31.25,15.25 29,17.5 26.25,17.5 Z"/>
      <path fill="#E91E63" d="M14.625,36.25 L10.375,33.75 L17.75,21.625 C15.25,19.25 13.75,16 13.75,12.5 C13.75,5.625 19.375,0 26.25,0 C33.125,0 38.75,5.625 38.75,12.5 C38.75,13.625 38.625,14.625 38.375,15.625 L33.5,14.375 C33.625,13.75 33.75,13.125 33.75,12.5 C33.75,8.375 30.375,5 26.25,5 C22.125,5 18.75,8.375 18.75,12.5 C18.75,15.125 20.125,17.5 22.375,18.875 L24.5,20.125 L14.625,36.25 Z"/>
    </g>
  </g>
</svg>
