<svg xmlns="http://www.w3.org/2000/svg" width="148" height="76" viewBox="0 0 148 76">
  <path fill="#354254" fill-rule="evenodd" d="M13.3724096,29.4847874 L23.2050808,29.4847874 L23.2050808,22 L13.3724096,22 L13.3724096,29.4847874 Z M126.308122,40.6981476 C126.308122,40.6981476 125.086525,40.4450715 124.336176,40.2896631 C123.586131,40.1342547 123.121875,39.7445052 123.121875,39.0903158 C123.121875,38.3270947 123.797737,37.7546022 124.742057,37.7546022 C126.066417,37.7546022 126.591783,38.4456474 126.719476,39.2527882 L129.815425,39.2527882 C129.79019,37.4164507 128.345434,35.0017852 124.794959,35.0017852 C121.934634,35.0017852 119.83013,36.9916883 119.83013,39.3900758 C119.83013,41.2709473 120.990617,42.8244169 123.553599,43.3969095 L125.390556,43.8060083 C126.416053,44.0240714 126.820718,44.5142528 126.820718,45.11408 C126.820718,45.8226317 126.171004,46.4494865 124.983458,46.4494865 C123.550863,46.4494865 122.774368,45.6272963 122.591037,44.6727325 L119.400534,44.6724254 C119.578392,46.6758422 121.017372,49.2299453 125.010821,49.2299453 C128.491369,49.2299453 130.247453,46.9946444 130.247453,44.81432 C130.247453,42.8517516 128.925222,41.2436126 126.308122,40.6981476 Z M139.066484,35.0570688 C137.798371,35.0561474 136.340845,35.4910452 135.476485,36.5260774 L135.482261,29.4958441 L131.893478,29.4958441 L131.878884,48.8165467 L135.467364,48.8193109 L135.47314,40.9417027 C135.555533,39.4699299 136.446344,38.3258662 137.957379,38.3270947 C139.68458,38.3283233 140.411822,39.5009502 140.41091,41.0000576 L140.405134,48.8229964 L143.993917,48.8254535 L143.999998,40.375967 C144.002126,37.4321144 142.439102,35.059833 139.066484,35.0570688 Z M98.8273548,48.8211537 L102.416138,48.8211537 L102.416138,29.4958441 L98.8273548,29.4958441 L98.8273548,48.8211537 Z M114.234437,42.1158652 C114.234437,39.7445052 112.750461,38.3544294 110.915633,38.3544294 C109.080805,38.3544294 107.623888,39.7445052 107.623888,42.1158652 C107.623888,44.5142528 109.080805,45.9046358 110.915633,45.9046358 C112.750461,45.9046358 114.234437,44.4872253 114.234437,42.1158652 Z M114.28825,35.4105768 L117.768799,35.4105768 L117.768799,48.8211537 L114.180319,48.8211537 L114.180319,47.1905941 C113.566785,48.2652462 112.183747,49.1479413 110.348919,49.1479413 C106.598695,49.1479413 104.089222,46.1497265 104.089222,42.0885306 C104.089222,38.1090316 106.328715,35.1108168 110.213929,35.1108168 C112.210806,35.1108168 113.65465,36.0457242 114.28825,37.0733852 L114.28825,35.4105768 Z M93.6196053,42.1158652 C93.6196053,39.7445052 92.1626881,38.3544294 90.3278602,38.3544294 C88.4930322,38.3544294 87.0090562,39.7445052 87.0090562,42.1158652 C87.0090562,44.4872253 88.4930322,45.9046358 90.3278602,45.9046358 C92.1626881,45.9046358 93.6196053,44.5142528 93.6196053,42.1158652 Z M97.1542714,42.0885306 C97.1542714,46.1497265 94.6451024,49.1479413 90.8945742,49.1479413 C89.0597463,49.1479413 87.7107601,48.412362 87.0631738,47.5127747 L87.0631738,54 L83.4743902,54 L83.4743902,35.4105768 L86.9552427,35.4105768 L86.9552427,37.0733852 C87.5487115,36.0374316 89.0326875,35.1108168 91.029564,35.1108168 C94.914778,35.1108168 97.1542714,38.1090316 97.1542714,42.0885306 Z M77.9455838,40.6981476 C77.9455838,40.6981476 76.7236827,40.4450715 75.9733338,40.2896631 C75.222985,40.1342547 74.7593375,39.7445052 74.7593375,39.0903158 C74.7593375,38.3270947 75.4348947,37.7546022 76.3792154,37.7546022 C77.7035751,37.7546022 78.2292449,38.4456474 78.356938,39.2527882 L81.4528871,39.2527882 C81.4273485,37.4164507 79.9828965,35.0017852 76.4321168,35.0017852 C73.5720959,35.0017852 71.4672883,36.9916883 71.4672883,39.3900758 C71.4672883,41.2709473 72.6274711,42.8244169 75.1907577,43.3969095 L77.0280179,43.8060083 C78.0532109,44.0240714 78.4578763,44.5142528 78.4578763,45.11408 C78.4578763,45.8226317 77.8078577,46.4494865 76.6209202,46.4494865 C75.1883254,46.4494865 74.4115259,45.6272963 74.2281951,44.6727325 L71.0376923,44.6724254 C71.2155505,46.6758422 72.6545299,49.2299453 76.6479789,49.2299453 C80.1285274,49.2299453 81.8846113,46.9946444 81.8846113,44.81432 C81.8846113,42.8517516 80.5623799,41.2436126 77.9455838,40.6981476 Z M64.777387,35.0561474 C63.3472245,35.0561474 61.7553175,35.6830022 60.9456825,37.0733852 L60.9456825,35.4105768 L57.465134,35.4105768 L57.465134,48.8211537 L61.0536136,48.8211537 L61.0536136,41.1072464 C61.0536136,39.5534696 61.9711796,38.3270947 63.5360279,38.3270947 C65.2629248,38.3270947 65.9913834,39.4991074 65.9913834,40.9985219 L65.9913834,48.8211537 L69.5798629,48.8211537 L69.5798629,40.37136 C69.5798629,37.4275074 68.0691322,35.0561474 64.777387,35.0561474 Z M51.489706,41.5449083 C51.489706,44.0799693 49.8345604,45.5772339 47.5680083,45.5772339 C45.3555736,45.5772339 43.6733693,44.0799693 43.6733693,41.5449083 L43.6733693,29.4958441 L39.9498999,29.4958441 L39.9498999,41.5157309 C39.9498999,46.2584509 43.2808651,49.25728 47.5680083,49.25728 C51.8885948,49.25728 55.2131754,46.2584509 55.2131754,41.5157309 L55.2131754,29.4958441 L51.489706,29.4958441 L51.489706,41.5449083 Z M23.2050808,33.8743066 L31.5774903,33.8743066 L31.5774903,48.8438814 L5,48.8438814 L5,33.8743066 L13.3724096,33.8743066 L13.3724096,41.359094 L23.2050808,41.359094 L23.2050808,33.8743066 Z"/>
</svg>
