<svg xmlns="http://www.w3.org/2000/svg" width="138" height="76" viewBox="0 0 138 76">
  <g fill-rule="evenodd" transform="translate(3 26)">
    <path fill-rule="nonzero" d="M23.6735714,3.66541353 L20.4921429,3.66541353 L19.7622857,1.72932331 C19.4067143,0.789473684 18.3025714,0.0187969925 17.3107143,0.0187969925 L10.0121429,0.0187969925 C9.02028571,0.0187969925 7.91614286,0.789473684 7.56057143,1.72932331 L6.83071429,3.66541353 L3.64928571,3.66541353 C1.62814286,3.66541353 0,5.30075188 0,7.31203008 L0,20.112782 C0,22.1240602 1.62814286,23.7781955 3.64928571,23.7781955 L23.6735714,23.7781955 C25.676,23.7781955 27.3228571,22.1428571 27.3228571,20.112782 L27.3228571,7.31203008 C27.3041429,5.30075188 25.676,3.66541353 23.6735714,3.66541353 Z M13.6614286,20.112782 C10.1431429,20.112782 7.29857143,17.2368421 7.29857143,13.7218045 C7.29857143,10.1879699 10.1618571,7.33082707 13.6614286,7.33082707 C17.161,7.33082707 20.0242857,10.2067669 20.0242857,13.7218045 C20.0242857,17.2368421 17.161,20.112782 13.6614286,20.112782 Z"/>
    <ellipse cx="13.644" cy="13.703" rx="4.117" ry="4.098" transform="rotate(-89.744 13.644 13.703)"/>
    <path d="M47.2722857 15.112782C47.2722857 17.1428571 46.0745714 18.4774436 43.9598571 18.4774436 41.8264286 18.4774436 40.6287143 17.1428571 40.6287143 15.112782L40.6287143 5.15037594 37.3162857 5.15037594 37.3162857 15.4323308C37.3162857 18.9285714 39.8988571 21.3157895 43.9411429 21.3157895 47.9834286 21.3157895 50.566 18.9285714 50.566 15.4323308L50.566 5.15037594 47.2535714 5.15037594 47.2535714 15.112782 47.2722857 15.112782zM59.5862857 9.02255639C57.771 9.02255639 56.5358571 9.88721805 55.9182857 11.3533835L55.8434286 11.3533835 55.8434286 9.2481203 52.7555714 9.2481203 52.7555714 21.0526316 55.9557143 21.0526316 55.9557143 14.2857143C55.9557143 12.7631579 56.8727143 11.6917293 58.295 11.6917293 59.7172857 11.6917293 60.4471429 12.575188 60.4471429 14.1165414L60.4471429 21.0526316 63.6472857 21.0526316 63.6472857 13.4398496C63.666 10.6766917 62.1875714 9.02255639 59.5862857 9.02255639zM72.3494286 14.2293233L70.1037143 13.7406015C69.0744286 13.4962406 68.5691429 13.1015038 68.5691429 12.518797 68.5691429 11.7669173 69.299 11.2593985 70.4031429 11.2593985 71.5821429 11.2593985 72.3494286 11.8421053 72.4055714 12.7819549L75.3624286 12.7819549C75.325 10.4887218 73.3974286 8.98496241 70.4592857 8.98496241 67.4462857 8.98496241 65.5 10.4699248 65.5 12.7067669 65.5 14.4548872 66.6415714 15.6203008 68.8685714 16.1278195L71.0394286 16.6165414C72.0874286 16.8609023 72.4804286 17.1992481 72.4804286 17.8007519 72.4804286 18.5714286 71.7505714 19.0601504 70.5341429 19.0601504 69.2615714 19.0601504 68.4755714 18.4962406 68.3258571 17.5L65.2005714 17.5C65.369 19.7932331 67.2965714 21.3157895 70.4405714 21.3157895 73.5471429 21.3157895 75.6618571 19.7932331 75.6618571 17.462406 75.6618571 15.6954887 74.7074286 14.7556391 72.3494286 14.2293233z"/>
    <path fill-rule="nonzero" d="M84.1207143,9.06015038 C82.4177143,9.06015038 81.1077143,9.92481203 80.4714286,11.3157895 L80.3965714,11.3157895 L80.3965714,9.2481203 L77.2338571,9.2481203 L77.2338571,24.906015 L80.434,24.906015 L80.434,19.0601504 L80.5088571,19.0601504 C81.1264286,20.3947368 82.4551429,21.2218045 84.1581429,21.2218045 C87.0962857,21.2218045 88.9115714,18.9285714 88.9115714,15.1315789 C88.9302857,11.3345865 87.0962857,9.06015038 84.1207143,9.06015038 Z M83.054,18.6466165 C81.482,18.6466165 80.4527143,17.2744361 80.4527143,15.1503759 C80.4527143,13.0451128 81.482,11.6353383 83.054,11.6353383 C84.6634286,11.6353383 85.6552857,13.0075188 85.6552857,15.1503759 C85.6552857,17.2932331 84.6447143,18.6466165 83.054,18.6466165 Z"/>
    <rect width="3.2" height="15.902" x="90.652" y="5.15"/>
    <path fill-rule="nonzero" d="M101.263,8.98496241 C98.1564286,8.98496241 96.2101429,10.5639098 96.0791429,12.8571429 L98.9985714,12.8571429 C99.1482857,11.9924812 99.9155714,11.3909774 101.094571,11.3909774 C102.292286,11.3909774 103.059571,12.0300752 103.059571,13.1390977 L103.059571,13.9097744 L100.140143,14.0977444 C97.2207143,14.2669173 95.5738571,15.5263158 95.5738571,17.6691729 C95.5738571,19.7932331 97.2768571,21.2406015 99.5038571,21.2406015 C100.982286,21.2406015 102.423286,20.5075188 103.097,19.2481203 L103.171857,19.2481203 L103.171857,21.0526316 L106.259714,21.0526316 L106.259714,12.9323308 C106.241,10.5639098 104.294714,8.98496241 101.263,8.98496241 Z M103.097,16.7293233 C103.097,18.0075188 101.936714,18.9285714 100.551857,18.9285714 C99.4664286,18.9285714 98.7365714,18.3834586 98.7365714,17.5 C98.7365714,16.6541353 99.4102857,16.1278195 100.608,16.0338346 L103.078286,15.8834586 L103.078286,16.7293233 L103.097,16.7293233 Z"/>
    <path d="M114.980571 14.2293233L112.734857 13.7406015C111.705571 13.4962406 111.200286 13.1015038 111.200286 12.518797 111.200286 11.7669173 111.930143 11.2593985 113.034286 11.2593985 114.213286 11.2593985 114.980571 11.8421053 115.036714 12.7819549L117.993571 12.7819549C117.956143 10.4887218 116.028571 8.98496241 113.090429 8.98496241 110.077429 8.98496241 108.131143 10.4699248 108.131143 12.7067669 108.131143 14.4548872 109.272714 15.6203008 111.499714 16.1278195L113.670571 16.6165414C114.718571 16.8609023 115.111571 17.1992481 115.111571 17.8007519 115.111571 18.5714286 114.381714 19.0601504 113.165286 19.0601504 111.892714 19.0601504 111.106714 18.4962406 110.957 17.5L107.831714 17.5C108.000143 19.7932331 109.927714 21.3157895 113.071714 21.3157895 116.178286 21.3157895 118.293 19.7932331 118.293 17.462406 118.293 15.6954887 117.338571 14.7556391 114.980571 14.2293233zM126.864143 9.02255639C125.067571 9.02255639 123.795 9.86842105 123.177429 11.3533835L123.102571 11.3533835 123.102571 5.15037594 119.958571 5.15037594 119.958571 21.0526316 123.158714 21.0526316 123.158714 14.3045113C123.158714 12.7443609 124.038286 11.6917293 125.554143 11.6917293 127.013857 11.6917293 127.762429 12.612782 127.762429 14.1353383L127.762429 21.0526316 130.962571 21.0526316 130.962571 13.4586466C130.962571 10.7142857 129.465429 9.02255639 126.864143 9.02255639z"/>
  </g>
</svg>
