<svg xmlns="http://www.w3.org/2000/svg" width="152" height="76" viewBox="0 0 152 76">
  <g fill-rule="evenodd" transform="translate(13 26)">
    <path fill-rule="nonzero" d="M22.77,3.51879699 L19.71,3.51879699 L19.008,1.66015038 C18.666,0.757894737 17.604,0.0180451128 16.65,0.0180451128 L9.63,0.0180451128 C8.676,0.0180451128 7.614,0.757894737 7.272,1.66015038 L6.57,3.51879699 L3.51,3.51879699 C1.566,3.51879699 0,5.0887218 0,7.01954887 L0,19.3082707 C0,21.2390977 1.566,22.8270677 3.51,22.8270677 L22.77,22.8270677 C24.696,22.8270677 26.28,21.2571429 26.28,19.3082707 L26.28,7.01954887 C26.262,5.0887218 24.696,3.51879699 22.77,3.51879699 Z M13.14,19.3082707 C9.756,19.3082707 7.02,16.5473684 7.02,13.1729323 C7.02,9.78045113 9.774,7.03759398 13.14,7.03759398 C16.506,7.03759398 19.26,9.79849624 19.26,13.1729323 C19.26,16.5473684 16.506,19.3082707 13.14,19.3082707 Z"/>
    <ellipse cx="13.124" cy="13.155" rx="3.952" ry="3.942" transform="rotate(-89.744 13.124 13.155)"/>
    <path d="M45.468 14.5082707C45.468 16.4571429 44.316 17.7383459 42.282 17.7383459 40.23 17.7383459 39.078 16.4571429 39.078 14.5082707L39.078 4.9443609 35.892 4.9443609 35.892 14.8150376C35.892 18.1714286 38.376 20.4631579 42.264 20.4631579 46.152 20.4631579 48.636 18.1714286 48.636 14.8150376L48.636 4.9443609 45.45 4.9443609 45.45 14.5082707 45.468 14.5082707zM57.312 8.66165414C55.566 8.66165414 54.378 9.49172932 53.784 10.8992481L53.712 10.8992481 53.712 8.87819549 50.742 8.87819549 50.742 20.2105263 53.82 20.2105263 53.82 13.7142857C53.82 12.2526316 54.702 11.2240602 56.07 11.2240602 57.438 11.2240602 58.14 12.0721805 58.14 13.5518797L58.14 20.2105263 61.218 20.2105263 61.218 12.9022556C61.236 10.2496241 59.814 8.66165414 57.312 8.66165414zM69.588 13.6601504L67.428 13.1909774C66.438 12.956391 65.952 12.5774436 65.952 12.0180451 65.952 11.2962406 66.654 10.8090226 67.716 10.8090226 68.85 10.8090226 69.588 11.3684211 69.642 12.2706767L72.486 12.2706767C72.45 10.0691729 70.596 8.62556391 67.77 8.62556391 64.872 8.62556391 63 10.0511278 63 12.1984962 63 13.8766917 64.098 14.9954887 66.24 15.4827068L68.328 15.9518797C69.336 16.1864662 69.714 16.5112782 69.714 17.0887218 69.714 17.8285714 69.012 18.2977444 67.842 18.2977444 66.618 18.2977444 65.862 17.756391 65.718 16.8L62.712 16.8C62.874 19.0015038 64.728 20.4631579 67.752 20.4631579 70.74 20.4631579 72.774 19.0015038 72.774 16.7639098 72.774 15.0676692 71.856 14.1654135 69.588 13.6601504z"/>
    <path fill-rule="nonzero" d="M80.91,8.69774436 C79.272,8.69774436 78.012,9.52781955 77.4,10.8631579 L77.328,10.8631579 L77.328,8.87819549 L74.286,8.87819549 L74.286,23.9097744 L77.364,23.9097744 L77.364,18.2977444 L77.436,18.2977444 C78.03,19.5789474 79.308,20.3729323 80.946,20.3729323 C83.772,20.3729323 85.518,18.1714286 85.518,14.5263158 C85.536,10.881203 83.772,8.69774436 80.91,8.69774436 Z M79.884,17.9007519 C78.372,17.9007519 77.382,16.5834586 77.382,14.5443609 C77.382,12.5233083 78.372,11.1699248 79.884,11.1699248 C81.432,11.1699248 82.386,12.487218 82.386,14.5443609 C82.386,16.6015038 81.414,17.9007519 79.884,17.9007519 Z"/>
    <rect width="3.078" height="15.266" x="87.192" y="4.944"/>
    <path fill-rule="nonzero" d="M97.398,8.62556391 C94.41,8.62556391 92.538,10.1413534 92.412,12.3428571 L95.22,12.3428571 C95.364,11.512782 96.102,10.9353383 97.236,10.9353383 C98.388,10.9353383 99.126,11.5488722 99.126,12.6135338 L99.126,13.3533835 L96.318,13.5338346 C93.51,13.6962406 91.926,14.9052632 91.926,16.962406 C91.926,19.0015038 93.564,20.3909774 95.706,20.3909774 C97.128,20.3909774 98.514,19.687218 99.162,18.4781955 L99.234,18.4781955 L99.234,20.2105263 L102.204,20.2105263 L102.204,12.4150376 C102.186,10.1413534 100.314,8.62556391 97.398,8.62556391 Z M99.162,16.0601504 C99.162,17.287218 98.046,18.1714286 96.714,18.1714286 C95.67,18.1714286 94.968,17.6481203 94.968,16.8 C94.968,15.9879699 95.616,15.4827068 96.768,15.3924812 L99.144,15.2481203 L99.144,16.0601504 L99.162,16.0601504 Z"/>
    <path d="M110.592 13.6601504L108.432 13.1909774C107.442 12.956391 106.956 12.5774436 106.956 12.0180451 106.956 11.2962406 107.658 10.8090226 108.72 10.8090226 109.854 10.8090226 110.592 11.3684211 110.646 12.2706767L113.49 12.2706767C113.454 10.0691729 111.6 8.62556391 108.774 8.62556391 105.876 8.62556391 104.004 10.0511278 104.004 12.1984962 104.004 13.8766917 105.102 14.9954887 107.244 15.4827068L109.332 15.9518797C110.34 16.1864662 110.718 16.5112782 110.718 17.0887218 110.718 17.8285714 110.016 18.2977444 108.846 18.2977444 107.622 18.2977444 106.866 17.756391 106.722 16.8L103.716 16.8C103.878 19.0015038 105.732 20.4631579 108.756 20.4631579 111.744 20.4631579 113.778 19.0015038 113.778 16.7639098 113.778 15.0676692 112.86 14.1654135 110.592 13.6601504zM122.022 8.66165414C120.294 8.66165414 119.07 9.47368421 118.476 10.8992481L118.404 10.8992481 118.404 4.9443609 115.38 4.9443609 115.38 20.2105263 118.458 20.2105263 118.458 13.7323308C118.458 12.2345865 119.304 11.2240602 120.762 11.2240602 122.166 11.2240602 122.886 12.1082707 122.886 13.5699248L122.886 20.2105263 125.964 20.2105263 125.964 12.9203008C125.964 10.2857143 124.524 8.66165414 122.022 8.66165414z"/>
  </g>
</svg>
