<svg xmlns="http://www.w3.org/2000/svg" xmlns:xlink="http://www.w3.org/1999/xlink" width="154" height="76" viewBox="0 0 154 76">
  <defs>
    <polygon id="home-freelancer-a" points="0 0 47.335 0 47.335 34.971 0 34.971"/>
  </defs>
  <g fill="none" fill-rule="evenodd" transform="translate(4 19)">
    <mask id="home-freelancer-b" fill="#fff">
      <use xlink:href="#home-freelancer-a"/>
    </mask>
    <polyline fill="#29B2FE" points="27.801 0 31.025 4.496 47.335 0 27.801 0" mask="url(#home-freelancer-b)"/>
    <polyline fill="#29B2FE" points="10.854 35 19.678 26.423 14.367 20.757 10.854 35" mask="url(#home-freelancer-b)"/>
    <polyline fill="#29B2FE" points="26.465 0 21.75 4.228 29.681 4.522 26.465 0" mask="url(#home-freelancer-b)"/>
    <polyline fill="#29B2FE" points="8.132 0 9.826 3.451 19.161 4.029 8.132 0" mask="url(#home-freelancer-b)"/>
    <polyline fill="#29B2FE" points="13.129 17.896 20.025 5.106 0 4.029 13.129 17.896" mask="url(#home-freelancer-b)"/>
    <polyline fill="#29B2FE" points="13.932 18.707 20.447 25.664 27.632 18.662 29.862 5.618 21.105 5.173 13.932 18.707"/>
    <path fill="#161F2B" d="M41.5842067 16.4043056L39.79814 16.4043056 38.23448 26.2198611C38.1936 26.4775 37.9488067 26.6875 37.6899 26.6875L34.11728 26.6875C33.85886 26.6875 33.6812267 26.4775 33.7221067 26.2198611L35.9150267 12.4546528C36.46934 8.97215278 38.2374 8.20069444 40.6585667 8.20069444 41.4109533 8.20069444 42.19838 8.27118056 42.8145 8.38784722 43.08898 8.435 43.2744 8.59833333 43.23352 8.85548611L42.8797133 11.0760417C42.8388333 11.3327083 42.5974467 11.5198611 42.3156667 11.5198611L41.3287067 11.5198611C40.7408133 11.5198611 40.5393333 11.7531944 40.4274 12.4546528L40.32666 13.085625 42.1132133 13.085625C42.37212 13.085625 42.5497533 13.295625 42.5088733 13.5532639L42.1292733 15.9366667C42.0883933 16.1943056 41.8431133 16.4043056 41.5842067 16.4043056M50.5014 16.5676389L50.1724133 16.5676389C49.1616067 16.5676389 48.17562 16.7076389 47.3838133 17.1052778L45.9393867 26.1736806C45.8985067 26.4303472 45.6692867 26.6875 45.38702 26.6875L41.8616067 26.6875C41.5798267 26.6875 41.3856467 26.4303472 41.4270133 26.1736806L43.4369467 13.5532639C43.4783133 13.295625 43.6520533 13.085625 43.9815267 13.085625L47.3658067 13.085625C47.6947933 13.085625 47.8174333 13.2027778 47.7614667 13.5532639L47.6724067 14.1142361C48.9051333 13.015625 49.7694533 12.8984722 51.0148333 12.8984722 51.4148733 12.8984722 51.4703533 12.9918056 51.41098 13.3661111L50.95692 16.2171528C50.9121467 16.4976389 50.8070267 16.5676389 50.5014 16.5676389M58.88472 18.6010417C59.1081 17.1986111 58.6783733 16.3571528 57.5030733 16.3571528 56.37498 16.3571528 55.6298933 17.1986111 55.4065133 18.6010417L55.39532 18.6710417 58.8735267 18.6710417 58.88472 18.6010417zM62.3103667 21.14875L55.0006333 21.14875 54.9933333 21.1949306C54.7957467 22.4340278 55.1904333 23.205 56.9059333 23.205 58.1518 23.205 60.4736867 23.0883333 61.4012733 23.0178472 61.78136 22.995 61.9113 23.0645139 61.8553333 23.4154861L61.52002 25.5188889C61.4606467 25.8927083 61.34044 26.0560417 60.9457533 26.1736806 59.3631133 26.6641667 57.7045533 26.8975 55.7301467 26.8975 52.55708 26.8975 49.8833333 25.2384028 50.59484 20.7744444L50.8406067 19.2320139C51.49566 15.1185417 54.2501933 12.8751389 58.10508 12.8751389 62.2179 12.8751389 63.70856 15.4690278 63.1094733 19.2320139L62.8860933 20.6344444C62.8374267 20.9382639 62.5926333 21.14875 62.3103667 21.14875zM71.8942933 18.6010417C72.1176733 17.1986111 71.68746 16.3571528 70.5126467 16.3571528 69.3845533 16.3571528 68.6394667 17.1986111 68.4160867 18.6010417L68.4048933 18.6710417 71.8831 18.6710417 71.8942933 18.6010417zM75.31994 21.14875L68.0102067 21.14875 68.0029067 21.1949306C67.80532 22.4340278 68.19952 23.205 69.9155067 23.205 71.1608867 23.205 73.48326 23.0883333 74.4108467 23.0178472 74.7904467 22.995 74.9203867 23.0645139 74.86442 23.4154861L74.5295933 25.5188889C74.4697333 25.8927083 74.3500133 26.0560417 73.9553267 26.1736806 72.3726867 26.6641667 70.71364 26.8975 68.7392333 26.8975 65.5666533 26.8975 62.8929067 25.2384028 63.6039267 20.7744444L63.8496933 19.2320139C64.5052333 15.1185417 67.25928 12.8751389 71.1141667 12.8751389 75.2274733 12.8751389 76.7181333 15.4690278 76.11856 19.2320139L75.89518 20.6344444C75.847 20.9382639 75.60172 21.14875 75.31994 21.14875zM80.0902467 26.6875L76.5414733 26.6875C76.28208 26.6875 76.0650267 26.4303472 76.1059067 26.1736806L78.8278333 9.08881944C78.8687133 8.83215278 79.1602267 8.62215278 79.4191333 8.62215278L82.9679067 8.62215278C83.2268133 8.62215278 83.4044467 8.83215278 83.3635667 9.08881944L80.6421267 26.1736806C80.60076 26.4303472 80.3486667 26.6875 80.0902467 26.6875M89.5773267 21.0549306L88.4258733 21.0549306C87.2500867 21.0549306 86.72108 21.4292361 86.5643733 22.4102083L86.5273867 22.6445139C86.4003667 23.4393056 86.9040667 23.6726389 87.56204 23.6726389 88.1260867 23.6726389 88.78698 23.5088194 89.21622 23.3221528L89.5773267 21.0549306zM92.5820067 26.6875L89.3145267 26.6875C89.0561067 26.6875 88.8779867 26.4775 88.9188667 26.2198611L88.9967333 25.729375C88.00004 26.3831944 86.74298 26.8975 85.4499067 26.8975 83.59376 26.8975 81.5945333 25.869375 82.0977467 22.7145139L82.1420333 22.4340278C82.5887933 19.6291667 84.8878067 18.6238889 88.8127733 18.6238889L89.82358 18.6238889 89.93162 17.9467361C90.1136333 16.8014583 89.77102 16.5909722 88.5962067 16.5909722 87.2797733 16.5909722 85.1462267 16.7076389 84.4804667 16.7547917 84.07702 16.778125 83.9933133 16.5676389 84.0380867 16.2871528L84.3987067 14.0204167C84.4546733 13.6694444 84.6615067 13.5532639 84.9583733 13.4594444 85.7711067 13.225625 87.8447933 12.8984722 89.34908 12.8984722 92.75672 12.8984722 95.05476 14.1142361 94.44448 17.9467361L93.1265867 26.2198611C93.0857067 26.4775 92.83994 26.6875 92.5820067 26.6875zM106.15514 26.6875L102.629727 26.6875C102.34746 26.6875 102.153767 26.4303472 102.194647 26.1736806L103.456573 18.2505556C103.65416 17.0114583 103.317873 16.6147917 102.25986 16.6147917 101.71966 16.6147917 101.003773 16.8247917 100.419287 17.1052778L98.9743733 26.1736806C98.9334933 26.4303472 98.70476 26.6875 98.42298 26.6875L94.8965933 26.6875C94.6148133 26.6875 94.42112 26.4303472 94.462 26.1736806L96.47242 13.5532639C96.5133 13.295625 96.75858 13.085625 97.017 13.085625L100.283993 13.085625C100.542413 13.085625 100.720047 13.295625 100.679167 13.5532639L100.593513 14.0904167C101.9883 13.155625 103.345613 12.8984722 104.66156 12.8984722 108.351467 12.8984722 108.4123 15.4690278 107.969433 18.2505556L106.70702 26.1736806C106.66614 26.4303472 106.43692 26.6875 106.15514 26.6875M116.581973 26.5236806C115.75318 26.7103472 114.689327 26.8975 113.302813 26.8975 109.706347 26.8975 108.05022 24.6074306 108.6605 20.7744444L108.939847 19.0220139C109.54672 15.2123611 111.940147 12.8751389 115.536613 12.8751389 116.923127 12.8751389 118.06436 13.085625 118.697027 13.2489583 118.990973 13.3189583 119.136973 13.4361111 119.088307 13.7399306L118.667827 16.3809722C118.623053 16.6609722 118.44834 16.8714583 118.103293 16.8247917 117.31538 16.7547917 116.57808 16.6609722 115.426627 16.6609722 114.416307 16.6609722 113.72816 17.2924306 113.45222 19.0220139L113.17336 20.7744444C112.897907 22.5040278 113.388467 23.1116667 114.399273 23.1116667 115.550727 23.1116667 116.309927 23.0645139 117.12412 22.9711806 117.484253 22.925 117.5957 23.1116667 117.547033 23.4154861L117.130447 26.0331944C117.08178 26.3370139 116.898793 26.4536806 116.581973 26.5236806M126.95138 18.6010417C127.175247 17.1986111 126.745033 16.3571528 125.569733 16.3571528 124.44164 16.3571528 123.696553 17.1986111 123.473173 18.6010417L123.46198 18.6710417 126.940187 18.6710417 126.95138 18.6010417zM130.377027 21.14875L123.067293 21.14875 123.06048 21.1949306C122.862407 22.4340278 123.257093 23.205 124.972593 23.205 126.217973 23.205 128.540347 23.0883333 129.46842 23.0178472 129.847533 22.995 129.977473 23.0645139 129.921993 23.4154861L129.58668 25.5188889C129.527307 25.8927083 129.4071 26.0560417 129.012413 26.1736806 127.429773 26.6641667 125.771213 26.8975 123.79632 26.8975 120.62374 26.8975 117.95048 25.2384028 118.661013 20.7744444L118.90678 19.2320139C119.56232 15.1185417 122.316853 12.8751389 126.171253 12.8751389 130.28456 12.8751389 131.775707 15.4690278 131.175647 19.2320139L130.952267 20.6344444C130.904087 20.9382639 130.658807 21.14875 130.377027 21.14875zM137.76852 13.085625L135.675853 26.1736806C135.634973 26.4303472 135.405753 26.6875 135.123973 26.6875L131.598073 26.6875C131.316293 26.6875 131.1226 26.4303472 131.16348 26.1736806L132.55194 17.5140972 137.76852 13.085625"/>
    <polyline fill="#29B2FE" points="138.97 13.086 138.248 17.576 146 13.086 138.97 13.086"/>
  </g>
</svg>
