<svg xmlns="http://www.w3.org/2000/svg" xmlns:xlink="http://www.w3.org/1999/xlink" width="164" height="76" viewBox="0 0 164 76">
  <defs>
    <polygon id="home-freelancer-a" points="0 0 52.522 0 52.522 38.968 0 38.968"/>
  </defs>
  <g fill="none" fill-rule="evenodd" transform="translate(1 19)">
    <mask id="home-freelancer-b" fill="#fff">
      <use xlink:href="#home-freelancer-a"/>
    </mask>
    <polyline fill="#29B2FE" points="30.848 0 34.425 5.009 52.522 0 30.848 0" mask="url(#home-freelancer-b)"/>
    <polyline fill="#29B2FE" points="12.044 39 21.835 29.442 15.942 23.13 12.044 39" mask="url(#home-freelancer-b)"/>
    <polyline fill="#29B2FE" points="29.366 0 24.133 4.711 32.934 5.039 29.366 0" mask="url(#home-freelancer-b)"/>
    <polyline fill="#29B2FE" points="9.023 0 10.903 3.846 21.26 4.49 9.023 0" mask="url(#home-freelancer-b)"/>
    <polyline fill="#29B2FE" points="14.568 19.941 22.22 5.69 0 4.49 14.568 19.941" mask="url(#home-freelancer-b)"/>
    <polyline fill="#29B2FE" points="15.459 20.845 22.688 28.597 30.661 20.795 33.135 6.261 23.418 5.764 15.459 20.845"/>
    <path fill="#161F2B" d="M46.14138 18.2790833L44.15958 18.2790833 42.42456 29.2164167C42.3792 29.5035 42.10758 29.7375 41.8203 29.7375L37.85616 29.7375C37.56942 29.7375 37.37232 29.5035 37.41768 29.2164167L39.85092 13.8780417C40.46598 9.99754167 42.4278 9.13791667 45.1143 9.13791667 45.94914 9.13791667 46.82286 9.21645833 47.5065 9.34645833 47.81106 9.399 48.0168 9.581 47.97144 9.86754167L47.57886 12.341875C47.5335 12.627875 47.26566 12.8364167 46.953 12.8364167L45.85788 12.8364167C45.20556 12.8364167 44.982 13.0964167 44.8578 13.8780417L44.74602 14.581125 46.72836 14.581125C47.01564 14.581125 47.21274 14.815125 47.16738 15.1022083L46.74618 17.758C46.70082 18.0450833 46.42866 18.2790833 46.14138 18.2790833M56.0358 18.4610833L55.67076 18.4610833C54.54918 18.4610833 53.45514 18.6170833 52.57656 19.0601667L50.97384 29.1649583C50.92848 29.4509583 50.67414 29.7375 50.36094 29.7375L46.44918 29.7375C46.13652 29.7375 45.92106 29.4509583 45.96696 29.1649583L48.19716 15.1022083C48.24306 14.815125 48.43584 14.581125 48.80142 14.581125L52.55658 14.581125C52.92162 14.581125 53.0577 14.7116667 52.9956 15.1022083L52.89678 15.7272917C54.2646 14.503125 55.22364 14.3725833 56.6055 14.3725833 57.04938 14.3725833 57.11094 14.4765833 57.04506 14.8936667L56.54124 18.0705417C56.49156 18.3830833 56.37492 18.4610833 56.0358 18.4610833M65.33784 20.726875C65.5857 19.1641667 65.10888 18.2265417 63.80478 18.2265417 62.55306 18.2265417 61.72632 19.1641667 61.47846 20.726875L61.46604 20.804875 65.32542 20.804875 65.33784 20.726875zM69.1389 23.56575L61.0281 23.56575 61.02 23.6172083C60.80076 24.9979167 61.2387 25.857 63.1422 25.857 64.5246 25.857 67.10094 25.727 68.13018 25.6484583 68.55192 25.623 68.6961 25.7004583 68.634 26.0915417L68.26194 28.4353333C68.19606 28.851875 68.06268 29.033875 67.62474 29.1649583 65.86866 29.7115 64.02834 29.9715 61.83756 29.9715 58.31676 29.9715 55.35 28.1227917 56.13948 23.1486667L56.41218 21.4299583C57.13902 16.846375 60.19542 14.3465833 64.47276 14.3465833 69.0363 14.3465833 70.69032 17.2369167 70.02558 21.4299583L69.77772 22.9926667C69.72372 23.3312083 69.4521 23.56575 69.1389 23.56575zM79.77312 20.726875C80.02098 19.1641667 79.54362 18.2265417 78.24006 18.2265417 76.98834 18.2265417 76.1616 19.1641667 75.91374 20.726875L75.90132 20.804875 79.7607 20.804875 79.77312 20.726875zM83.57418 23.56575L75.46338 23.56575 75.45528 23.6172083C75.23604 24.9979167 75.67344 25.857 77.57748 25.857 78.95934 25.857 81.53622 25.727 82.56546 25.6484583 82.98666 25.623 83.13084 25.7004583 83.06874 26.0915417L82.69722 28.4353333C82.6308 28.851875 82.49796 29.033875 82.06002 29.1649583 80.30394 29.7115 78.46308 29.9715 76.2723 29.9715 72.75204 29.9715 69.78528 28.1227917 70.57422 23.1486667L70.84692 21.4299583C71.5743 16.846375 74.63016 14.3465833 78.9075 14.3465833 83.47158 14.3465833 85.1256 17.2369167 84.46032 21.4299583L84.21246 22.9926667C84.159 23.3312083 83.88684 23.56575 83.57418 23.56575zM88.86726 29.7375L84.92958 29.7375C84.64176 29.7375 84.40092 29.4509583 84.44628 29.1649583L87.4665 10.1275417C87.51186 9.84154167 87.83532 9.60754167 88.1226 9.60754167L92.06028 9.60754167C92.34756 9.60754167 92.54466 9.84154167 92.4993 10.1275417L89.47962 29.1649583C89.43372 29.4509583 89.154 29.7375 88.86726 29.7375M99.39402 23.4612083L98.11638 23.4612083C96.81174 23.4612083 96.22476 23.8782917 96.05088 24.971375L96.00984 25.2324583C95.8689 26.1180833 96.4278 26.3780833 97.15788 26.3780833 97.78374 26.3780833 98.51706 26.1955417 98.99334 25.9875417L99.39402 23.4612083zM102.72798 29.7375L99.10242 29.7375C98.81568 29.7375 98.61804 29.5035 98.6634 29.2164167L98.7498 28.669875C97.64388 29.3984167 96.24906 29.9715 94.81428 29.9715 92.75472 29.9715 90.5364 28.825875 91.09476 25.3104583L91.1439 24.9979167C91.63962 21.8725 94.19058 20.7523333 98.54568 20.7523333L99.66726 20.7523333 99.78714 19.9977917C99.9891 18.721625 99.60894 18.4870833 98.30538 18.4870833 96.84468 18.4870833 94.47732 18.6170833 93.7386 18.669625 93.29094 18.695625 93.19806 18.4610833 93.24774 18.1485417L93.64788 15.62275C93.70998 15.2316667 93.93948 15.1022083 94.26888 14.9976667 95.17068 14.737125 97.47162 14.3725833 99.14076 14.3725833 102.92184 14.3725833 105.47172 15.7272917 104.79456 19.9977917L103.33224 29.2164167C103.28688 29.5035 103.01418 29.7375 102.72798 29.7375zM117.78858 29.7375L113.87682 29.7375C113.56362 29.7375 113.3487 29.4509583 113.39406 29.1649583L114.79428 20.3363333C115.01352 18.955625 114.64038 18.513625 113.46642 18.513625 112.86702 18.513625 112.07268 18.747625 111.42414 19.0601667L109.82088 29.1649583C109.77552 29.4509583 109.52172 29.7375 109.20906 29.7375L105.29622 29.7375C104.98356 29.7375 104.76864 29.4509583 104.814 29.1649583L107.04474 15.1022083C107.0901 14.815125 107.36226 14.581125 107.649 14.581125L111.27402 14.581125C111.56076 14.581125 111.75786 14.815125 111.7125 15.1022083L111.61746 15.70075C113.1651 14.659125 114.67116 14.3725833 116.13132 14.3725833 120.2256 14.3725833 120.2931 17.2369167 119.8017 20.3363333L118.40094 29.1649583C118.35558 29.4509583 118.10124 29.7375 117.78858 29.7375M129.35808 29.5549583C128.43846 29.7629583 127.25802 29.9715 125.71956 29.9715 121.72896 29.9715 119.89134 27.4197083 120.5685 23.1486667L120.87846 21.1959583C121.55184 16.9509167 124.20756 14.3465833 128.19816 14.3465833 129.73662 14.3465833 131.00292 14.581125 131.70492 14.763125 132.03108 14.841125 132.19308 14.9716667 132.13908 15.3102083L131.67252 18.2530833C131.62284 18.5650833 131.42898 18.799625 131.04612 18.747625 130.17186 18.669625 129.35376 18.5650833 128.07612 18.5650833 126.95508 18.5650833 126.19152 19.2687083 125.88534 21.1959583L125.57592 23.1486667C125.27028 25.0759167 125.8146 25.753 126.93618 25.753 128.21382 25.753 129.05622 25.7004583 129.95964 25.5964583 130.35924 25.545 130.4829 25.753 130.4289 26.0915417L129.96666 29.0084167C129.91266 29.3469583 129.70962 29.4769583 129.35808 29.5549583M140.86386 20.726875C141.11226 19.1641667 140.6349 18.2265417 139.3308 18.2265417 138.07908 18.2265417 137.25234 19.1641667 137.00448 20.726875L136.99206 20.804875 140.85144 20.804875 140.86386 20.726875zM144.66492 23.56575L136.55412 23.56575 136.54656 23.6172083C136.32678 24.9979167 136.76472 25.857 138.66822 25.857 140.05008 25.857 142.62696 25.727 143.65674 25.6484583 144.0774 25.623 144.22158 25.7004583 144.16002 26.0915417L143.78796 28.4353333C143.72208 28.851875 143.5887 29.033875 143.15076 29.1649583 141.39468 29.7115 139.55436 29.9715 137.36304 29.9715 133.84278 29.9715 130.87656 28.1227917 131.66496 23.1486667L131.93766 21.4299583C132.66504 16.846375 135.72144 14.3465833 139.99824 14.3465833 144.56232 14.3465833 146.21688 17.2369167 145.55106 21.4299583L145.3032 22.9926667C145.24974 23.3312083 144.97758 23.56575 144.66492 23.56575zM152.86644 14.581125L150.54444 29.1649583C150.49908 29.4509583 150.24474 29.7375 149.93208 29.7375L146.01978 29.7375C145.70712 29.7375 145.4922 29.4509583 145.53756 29.1649583L147.07818 19.5157083 152.86644 14.581125"/>
    <polyline fill="#29B2FE" points="154.2 14.581 153.398 19.585 162 14.581 154.2 14.581"/>
  </g>
</svg>
