<svg width="171" height="165" viewBox="0 0 171 165" xmlns="http://www.w3.org/2000/svg" xmlns:xlink="http://www.w3.org/1999/xlink"><defs><path d="M15.57 27.507c.499-.295 1.308-.295 1.808 0L32.573 36.5c.5.296.5.775 0 1.07l-15.195 8.993c-.5.295-1.309.296-1.809 0L.375 37.57c-.5-.295-.5-.774 0-1.07l15.194-8.993z" id="a"/><mask id="j" maskContentUnits="userSpaceOnUse" maskUnits="objectBoundingBox" x="0" y="0" width="32.948" height="19.499" fill="#fff"><use xlink:href="#a"/></mask><path d="M15.57 18.882c.499-.295 1.308-.295 1.808 0l15.195 8.993c.5.296.5.775 0 1.07l-15.195 8.993c-.5.295-1.309.296-1.809 0L.375 28.945c-.5-.295-.5-.774 0-1.07l15.194-8.993z" id="b"/><mask id="k" maskContentUnits="userSpaceOnUse" maskUnits="objectBoundingBox" x="0" y="0" width="32.948" height="19.499" fill="#fff"><use xlink:href="#b"/></mask><path d="M15.57 9.946c.499-.296 1.308-.296 1.808 0l15.195 8.992c.5.296.5.775 0 1.07l-15.195 8.993c-.5.296-1.309.296-1.809 0L.375 20.01c-.5-.296-.5-.775 0-1.07l15.194-8.993z" id="c"/><mask id="l" maskContentUnits="userSpaceOnUse" maskUnits="objectBoundingBox" x="0" y="0" width="32.948" height="19.499" fill="#fff"><use xlink:href="#c"/></mask><path d="M15.57 1.123c.499-.296 1.308-.296 1.808 0l15.195 8.992c.5.296.5.775 0 1.07l-15.195 8.993c-.5.296-1.309.296-1.809 0L.375 11.186c-.5-.296-.5-.775 0-1.07l15.194-8.993z" id="d"/><mask id="m" maskContentUnits="userSpaceOnUse" maskUnits="objectBoundingBox" x="0" y="0" width="32.948" height="19.499" fill="#fff"><use xlink:href="#d"/></mask><rect id="e" x="13" y="0" width="63" height="20" rx="3"/><mask id="n" maskContentUnits="userSpaceOnUse" maskUnits="objectBoundingBox" x="0" y="0" width="63" height="20" fill="#fff"><use xlink:href="#e"/></mask><rect id="f" x="13" y="52" width="63" height="20" rx="3"/><mask id="o" maskContentUnits="userSpaceOnUse" maskUnits="objectBoundingBox" x="0" y="0" width="63" height="20" fill="#fff"><use xlink:href="#f"/></mask><rect id="g" x="29" y="26" width="63" height="20" rx="3"/><mask id="p" maskContentUnits="userSpaceOnUse" maskUnits="objectBoundingBox" x="0" y="0" width="63" height="20" fill="#fff"><use xlink:href="#g"/></mask><rect id="h" x="13" y="77" width="63" height="20" rx="3"/><mask id="q" maskContentUnits="userSpaceOnUse" maskUnits="objectBoundingBox" x="0" y="0" width="63" height="20" fill="#fff"><use xlink:href="#h"/></mask><rect id="i" x="19" y="34" width="5" height="5" rx="2.5"/><mask id="r" maskContentUnits="userSpaceOnUse" maskUnits="objectBoundingBox" x="0" y="0" width="5" height="5" fill="#fff"><use xlink:href="#i"/></mask></defs><g transform="translate(-4 -4)" fill="none" fill-rule="evenodd"><g transform="translate(142 122)" stroke-width="1.6"><use stroke="#D5D5D5" mask="url(#j)" fill-opacity=".85" fill="#FFF" xlink:href="#a"/><use stroke="#48BDDE" mask="url(#k)" fill="#CAECF5" xlink:href="#b"/><use stroke="#D5D5D5" mask="url(#l)" fill="#FFF" xlink:href="#c"/><use stroke="#D5D5D5" mask="url(#m)" fill-opacity=".85" fill="#FFF" xlink:href="#d"/></g><rect fill-opacity=".099" fill="#84D2E8" transform="rotate(45 85 85)" x="25" y="25" width="120" height="120" rx="10"/><g transform="translate(45 36)"><path fill="#48BDDE" d="M34 8h12v3H34z"/><use stroke="#48BDDE" mask="url(#n)" stroke-width="4" fill="#FFF" xlink:href="#e"/><use stroke="#48BDDE" mask="url(#o)" stroke-width="4" fill="#FFF" xlink:href="#f"/><use stroke="#48BDDE" mask="url(#p)" stroke-width="4" fill="#FFF" xlink:href="#g"/><path fill="#84D2E8" d="M52 35h19v2H52zM36 61h19v2H36z"/><use stroke="#48BDDE" mask="url(#q)" stroke-width="4" fill="#FFF" xlink:href="#h"/><path fill="#84D2E8" d="M36 86h19v2H36z"/><rect fill="#48BDDE" y="7" width="6" height="6" rx="3"/><rect fill="#48BDDE" y="60" width="6" height="6" rx="3"/><rect fill="#48BDDE" y="84" width="6" height="6" rx="3"/><path stroke="#48BDDE" stroke-linecap="round" stroke-dasharray="3,5" d="M2.77 11.14v25.35h18.992"/><path d="M2.77 63.137V87.49" stroke="#48BDDE" stroke-linecap="round" stroke-dasharray="2,4"/><use stroke="#48BDDE" mask="url(#r)" stroke-width="2" fill="#F3FBFD" xlink:href="#i"/><g stroke="#48BDDE"><path d="M20 7h10v6H20z"/><path d="M20 7l5 4 5-4"/></g><g stroke="#48BDDE"><path d="M36 33h10v6H36z"/><path d="M36 33l5 4 5-4"/></g><g stroke="#48BDDE"><path d="M20 59h10v6H20z"/><path d="M20 59l5 4 5-4"/></g><g stroke="#48BDDE"><path d="M20 84h10v6H20z"/><path d="M20 84l5 4 5-4"/></g><path fill="#84D2E8" d="M36 9h19v2H36z"/></g></g></svg>