<svg width="169" height="164" viewBox="0 0 169 164" xmlns="http://www.w3.org/2000/svg" xmlns:xlink="http://www.w3.org/1999/xlink"><defs><path d="M15.57 26.394c.499-.295 1.308-.296 1.808 0l15.195 8.993c.5.295.5.774 0 1.07L17.378 45.45c-.5.295-1.309.295-1.809 0L.375 36.457c-.5-.295-.5-.775 0-1.07l15.194-8.993z" id="a"/><mask id="i" maskContentUnits="userSpaceOnUse" maskUnits="objectBoundingBox" x="0" y="0" width="32.948" height="19.499" fill="#fff"><use xlink:href="#a"/></mask><path d="M15.57 17.67c.499-.296 1.308-.296 1.808 0l15.195 8.992c.5.296.5.775 0 1.071l-15.195 8.992c-.5.296-1.309.296-1.809 0L.375 27.733c-.5-.296-.5-.775 0-1.07l15.194-8.993z" id="b"/><mask id="j" maskContentUnits="userSpaceOnUse" maskUnits="objectBoundingBox" x="0" y="0" width="32.948" height="19.499" fill="#fff"><use xlink:href="#b"/></mask><path d="M15.57 8.946c.499-.296 1.308-.296 1.808 0l15.195 8.992c.5.296.5.775 0 1.07l-15.195 8.993c-.5.296-1.309.296-1.809 0L.375 19.01c-.5-.296-.5-.775 0-1.07l15.194-8.993z" id="c"/><mask id="k" maskContentUnits="userSpaceOnUse" maskUnits="objectBoundingBox" x="0" y="0" width="32.948" height="19.499" fill="#fff"><use xlink:href="#c"/></mask><path d="M15.57.222c.499-.296 1.308-.296 1.808 0l15.195 8.992c.5.296.5.775 0 1.07l-15.195 8.993c-.5.296-1.309.296-1.809 0L.375 10.285c-.5-.296-.5-.775 0-1.07L15.569.221z" id="d"/><mask id="l" maskContentUnits="userSpaceOnUse" maskUnits="objectBoundingBox" x="0" y="0" width="32.948" height="19.499" fill="#fff"><use xlink:href="#d"/></mask><rect id="e" x="25" y="0" width="90" height="84" rx="3"/><mask id="m" maskContentUnits="userSpaceOnUse" maskUnits="objectBoundingBox" x="0" y="0" width="90" height="84" fill="#fff"><use xlink:href="#e"/></mask><rect id="f" x="0" y="17" width="35" height="67" rx="5"/><mask id="n" maskContentUnits="userSpaceOnUse" maskUnits="objectBoundingBox" x="0" y="0" width="35" height="67" fill="#fff"><use xlink:href="#f"/></mask><rect id="g" x="3" y="25" width="29" height="50" rx="1"/><mask id="o" maskContentUnits="userSpaceOnUse" maskUnits="objectBoundingBox" x="0" y="0" width="29" height="50" fill="#fff"><use xlink:href="#g"/></mask><path d="M99.128 118.18c.4-.221-.172-1.499-1.25-1.25h-7.5l3.75-12.5c-.155-.901-1.786-1.83-2.5-1.25l-17.5 20c-.4.22.172 1.498 1.25 1.25h7.5l-3.75 12.5c.155.9 1.785 1.828 2.5 1.25l17.5-20z" id="h"/><mask id="p" maskContentUnits="userSpaceOnUse" maskUnits="objectBoundingBox" x="-3" y="-3" width="31.255" height="41.359"><path fill="#fff" d="M71 100h31.255v41.359H71z"/><use xlink:href="#h"/></mask></defs><g transform="translate(-4 -4)" fill="none" fill-rule="evenodd"><g transform="translate(140 122)" stroke-width="1.6"><use stroke="#D5D5D5" mask="url(#i)" fill-opacity=".85" fill="#FFF" xlink:href="#a"/><use stroke="#D5D5D5" mask="url(#j)" fill-opacity=".85" fill="#FFF" xlink:href="#b"/><use stroke="#D5D5D5" mask="url(#k)" fill-opacity=".85" fill="#FFF" xlink:href="#c"/><use stroke="#FFD358" mask="url(#l)" fill="#FFEFC3" xlink:href="#d"/></g><rect fill-opacity=".099" fill="#84D2E8" transform="rotate(45 85 85)" x="25" y="25" width="120" height="120" rx="10"/><g transform="translate(26 39)"><use stroke="#48BDDE" mask="url(#m)" stroke-width="4" fill="#FFF" xlink:href="#e"/><g fill="#48BDDE"><path opacity=".19" d="M33 18h8v2h-8z"/><path opacity=".15" d="M64 18h8v2h-8z"/><path opacity=".25" d="M45 18h15v2H45z"/><path opacity=".37" d="M33 26h8v2h-8z"/><path opacity=".31" d="M57 26h13v2H57zm29 0h13v2H86z"/><path opacity=".13" d="M52 30h8v2h-8zm31 0h8v2h-8z"/><path opacity=".33" d="M56 34h14v2H56z"/><path opacity=".15" d="M45 26h8v2h-8z"/><path opacity=".07" d="M74 26h8v2h-8z"/><path opacity=".25" d="M33 34h7v2h-7z"/><path opacity=".39" d="M44 34h8v2h-8zm40 0h8v2h-8z"/><path opacity=".09" d="M33 38h17v2H33z"/><path opacity=".19" d="M33 42h9v2h-9z"/><path opacity=".25" d="M46 42h9v2h-9z"/><path opacity=".23" d="M74 34h6v2h-6z"/><path opacity=".17" d="M54 38h10v2H54z"/><path opacity=".35" d="M55 22h13v2H55z"/><path opacity=".13" d="M33 22h18v2H33z"/><path opacity=".31" d="M72 22h18v2H72z"/><path opacity=".35" d="M33 30h15v2H33z"/><path opacity=".13" d="M64 30h15v2H64z"/></g><path d="M26.5 11h87" stroke="#48BDDE" stroke-width="2" stroke-linecap="square"/><rect fill="#84D2E8" x="30" y="4" width="4" height="4" rx="2"/><rect fill="#84D2E8" x="36" y="4" width="4" height="4" rx="2"/><rect fill="#84D2E8" x="42" y="4" width="4" height="4" rx="2"/><use stroke="#48BDDE" mask="url(#n)" stroke-width="4" fill="#FFF" xlink:href="#f"/><rect fill="#84D2E8" x="14" y="22" width="8" height="1" rx=".5"/><circle fill="#84D2E8" cx="17.5" cy="78.5" r="2.5"/><use stroke="#48BDDE" mask="url(#o)" stroke-width="2" fill="#FFF" xlink:href="#g"/><path fill="#48BDDE" opacity=".15" d="M7 29h5v2H7z"/><path fill="#48BDDE" opacity=".25" d="M14 29h9v2h-9z"/><path fill="#48BDDE" opacity=".35" d="M7 37h5v2H7zm13 4h5v2h-5z"/><path fill="#48BDDE" opacity=".65" d="M14 37h7v2h-7z"/><path fill="#48BDDE" opacity=".7" d="M7 45h4v2H7z"/><path fill="#48BDDE" opacity=".25" d="M13 45h5v2h-5z"/><path fill="#48BDDE" opacity=".2" d="M20 33h8v2h-8z"/><path fill="#48BDDE" opacity=".35" d="M7 33h11v2H7zm0 8h11v2H7z"/></g><use fill="#48BDDE" xlink:href="#h"/><use stroke="#FFF" mask="url(#p)" stroke-width="6" xlink:href="#h"/></g></svg>