<svg width="175" height="165" viewBox="0 0 175 165" xmlns="http://www.w3.org/2000/svg" xmlns:xlink="http://www.w3.org/1999/xlink"><defs><path d="M15.57 27.507c.499-.295 1.308-.295 1.808 0L32.573 36.5c.5.296.5.775 0 1.07l-15.195 8.993c-.5.295-1.309.296-1.809 0L.375 37.57c-.5-.295-.5-.774 0-1.07l15.194-8.993z" id="a"/><mask id="m" maskContentUnits="userSpaceOnUse" maskUnits="objectBoundingBox" x="0" y="0" width="32.948" height="19.499" fill="#fff"><use xlink:href="#a"/></mask><path d="M15.57 18.882c.499-.295 1.308-.295 1.808 0l15.195 8.993c.5.296.5.775 0 1.07l-15.195 8.993c-.5.295-1.309.296-1.809 0L.375 28.945c-.5-.295-.5-.774 0-1.07l15.194-8.993z" id="b"/><mask id="n" maskContentUnits="userSpaceOnUse" maskUnits="objectBoundingBox" x="0" y="0" width="32.948" height="19.499" fill="#fff"><use xlink:href="#b"/></mask><path d="M15.57 9.946c.499-.296 1.308-.296 1.808 0l15.195 8.992c.5.296.5.775 0 1.07l-15.195 8.993c-.5.296-1.309.296-1.809 0L.375 20.01c-.5-.296-.5-.775 0-1.07l15.194-8.993z" id="c"/><mask id="o" maskContentUnits="userSpaceOnUse" maskUnits="objectBoundingBox" x="0" y="0" width="32.948" height="19.499" fill="#fff"><use xlink:href="#c"/></mask><path d="M15.57 1.123c.499-.296 1.308-.296 1.808 0l15.195 8.992c.5.296.5.775 0 1.07l-15.195 8.993c-.5.296-1.309.296-1.809 0L.375 11.186c-.5-.296-.5-.775 0-1.07l15.194-8.993z" id="d"/><mask id="p" maskContentUnits="userSpaceOnUse" maskUnits="objectBoundingBox" x="0" y="0" width="32.948" height="19.499" fill="#fff"><use xlink:href="#d"/></mask><path id="e" d="M49.01 7.705l41.354 24.773V80.72L49.01 105.493 6.364 80.72V32.478z"/><mask id="q" maskContentUnits="userSpaceOnUse" maskUnits="objectBoundingBox" x="0" y="0" width="84" height="97.788" fill="#fff"><use xlink:href="#e"/></mask><ellipse id="f" cx="48.364" cy="56.5" rx="21.636" ry="21.83"/><mask id="r" maskContentUnits="userSpaceOnUse" maskUnits="objectBoundingBox" x="0" y="0" width="43.273" height="43.659" fill="#fff"><use xlink:href="#f"/></mask><ellipse id="g" cx="9.545" cy="35.313" rx="9.545" ry="9.631"/><mask id="s" maskContentUnits="userSpaceOnUse" maskUnits="objectBoundingBox" x="0" y="0" width="19.091" height="19.261" fill="#fff"><use xlink:href="#g"/></mask><ellipse id="h" cx="49" cy="9.631" rx="9.545" ry="9.631"/><mask id="t" maskContentUnits="userSpaceOnUse" maskUnits="objectBoundingBox" x="0" y="0" width="19.091" height="19.261" fill="#fff"><use xlink:href="#h"/></mask><ellipse id="i" cx="88.455" cy="35.313" rx="9.545" ry="9.631"/><mask id="u" maskContentUnits="userSpaceOnUse" maskUnits="objectBoundingBox" x="0" y="0" width="19.091" height="19.261" fill="#fff"><use xlink:href="#i"/></mask><ellipse id="j" cx="88.455" cy="80.256" rx="9.545" ry="9.631"/><mask id="v" maskContentUnits="userSpaceOnUse" maskUnits="objectBoundingBox" x="0" y="0" width="19.091" height="19.261" fill="#fff"><use xlink:href="#j"/></mask><ellipse id="k" cx="49" cy="103.369" rx="9.545" ry="9.631"/><mask id="w" maskContentUnits="userSpaceOnUse" maskUnits="objectBoundingBox" x="0" y="0" width="19.091" height="19.261" fill="#fff"><use xlink:href="#k"/></mask><ellipse id="l" cx="9.545" cy="80.256" rx="9.545" ry="9.631"/><mask id="x" maskContentUnits="userSpaceOnUse" maskUnits="objectBoundingBox" x="0" y="0" width="19.091" height="19.261" fill="#fff"><use xlink:href="#l"/></mask></defs><g transform="translate(-4 -4)" fill="none" fill-rule="evenodd"><g transform="translate(146 122)" stroke-width="1.6"><use stroke="#D5D5D5" mask="url(#m)" fill-opacity=".85" fill="#FFF" xlink:href="#a"/><use stroke="#D5D5D5" mask="url(#n)" fill-opacity=".85" fill="#FFF" xlink:href="#b"/><use stroke="#6FD350" mask="url(#o)" fill="#DAF3D3" xlink:href="#c"/><use stroke="#D5D5D5" mask="url(#p)" fill-opacity=".85" fill="#FFF" xlink:href="#d"/></g><rect fill-opacity=".099" fill="#84D2E8" transform="rotate(45 85 85)" x="25" y="25" width="120" height="120" rx="10"/><g transform="translate(36 28)"><use stroke="#48BDDE" mask="url(#q)" stroke-width="4" fill="#F3FBFD" xlink:href="#e"/><path d="M88.334 35.458L9.545 80.256M48 9.63v93.74" stroke="#48BDDE" stroke-width="2" stroke-linecap="square"/><path d="M88.76 80.412l-80.487-45.1" stroke="#48BDDE" stroke-width="2"/><use stroke="#48BDDE" mask="url(#r)" stroke-width="4" fill="#FFF" xlink:href="#f"/><use stroke="#48BDDE" mask="url(#s)" stroke-width="4" fill="#FFF" xlink:href="#g"/><use stroke="#48BDDE" mask="url(#t)" stroke-width="4" fill="#FFF" xlink:href="#h"/><use stroke="#48BDDE" mask="url(#u)" stroke-width="4" fill="#FFF" xlink:href="#i"/><path d="M53.795 55.01c.125-.435.214-.902.27-1.25.395-.181.7-.494.867-.887.236-.57.364-1.792.366-1.843.1-.97-.254-1.526-.287-1.555.413-3.925-.895-4.7-1.766-4.84-.309-.048-.776-.16-.986-.384-.486-.515-.703-1.09-1.545-1.045-.312.018-.733-.076-.972-.27-.321-.26-.766-.561-1.096-.561-.324 0-.731.29-1.03.545-.231.201-.644.302-.955.284-.842-.047-1.06.53-1.545 1.045-.21.224-.68.335-.987.384-.87.139-2.177.914-1.766 4.84-.035.033-.384.594-.286 1.554.004.052.13 1.276.365 1.844.165.393.473.705.868.886.056.351.147.816.27 1.251.2.7.852 1.877 1.798 2.822-.13 4.58-8.539 3.197-9.742 8.424 3.13 3.586 7.818 5.872 13.054 5.872 5.235 0 9.926-2.286 13.048-5.87-1.193-5.24-9.584-3.902-9.716-8.471.933-.938 1.58-2.093 1.773-2.774z" fill="#84D2E8" opacity=".599"/><use stroke="#48BDDE" mask="url(#v)" stroke-width="4" fill="#FFF" xlink:href="#j"/><use stroke="#48BDDE" mask="url(#w)" stroke-width="4" fill="#FFF" xlink:href="#k"/><use stroke="#48BDDE" mask="url(#x)" stroke-width="4" fill="#FFF" xlink:href="#l"/><path d="M12.661 80.003c.095-.05-.04-.339-.297-.283h-1.782l.891-2.828c-.037-.204-.424-.414-.594-.283l-4.157 4.525c-.095.05.04.34.297.283H8.8l-.891 2.828c.037.204.424.414.594.283l4.157-4.525zm0-45c.095-.05-.04-.339-.297-.283h-1.782l.891-2.828c-.037-.204-.424-.414-.594-.283l-4.157 4.525c-.095.05.04.34.297.283H8.8l-.891 2.828c.037.204.424.414.594.283l4.157-4.525zm79 0c.095-.05-.04-.339-.297-.283h-1.782l.891-2.828c-.037-.204-.424-.414-.594-.283l-4.157 4.525c-.095.05.04.34.297.283H87.8l-.891 2.828c.037.204.424.414.594.283l4.157-4.525zm-40-26c.095-.05-.04-.339-.297-.283h-1.782l.891-2.828c-.037-.204-.424-.414-.594-.283l-4.157 4.525c-.095.05.04.34.297.283H47.8l-.891 2.828c.037.204.424.414.594.283l4.157-4.525zm40 71c.095-.05-.04-.339-.297-.283h-1.782l.891-2.828c-.037-.204-.424-.414-.594-.283l-4.157 4.525c-.095.05.04.34.297.283H87.8l-.891 2.828c.037.204.424.414.594.283l4.157-4.525zm-40 23c.095-.05-.04-.339-.297-.283h-1.782l.891-2.828c-.037-.204-.424-.414-.594-.283l-4.157 4.525c-.095.05.04.34.297.283H47.8l-.891 2.828c.037.204.424.414.594.283l4.157-4.525z" fill="#0AA6D2" opacity=".503"/></g></g></svg>