<svg width="168" height="165" viewBox="0 0 168 165" xmlns="http://www.w3.org/2000/svg" xmlns:xlink="http://www.w3.org/1999/xlink"><defs><path d="M15.57 27.507c.499-.295 1.308-.295 1.808 0L32.573 36.5c.5.296.5.775 0 1.07l-15.195 8.993c-.5.295-1.309.296-1.809 0L.375 37.57c-.5-.295-.5-.774 0-1.07l15.194-8.993z" id="a"/><mask id="h" maskContentUnits="userSpaceOnUse" maskUnits="objectBoundingBox" x="0" y="0" width="32.948" height="19.499" fill="#fff"><use xlink:href="#a"/></mask><path d="M15.57 18.882c.499-.295 1.308-.295 1.808 0l15.195 8.993c.5.296.5.775 0 1.07l-15.195 8.993c-.5.295-1.309.296-1.809 0L.375 28.945c-.5-.295-.5-.774 0-1.07l15.194-8.993z" id="b"/><mask id="i" maskContentUnits="userSpaceOnUse" maskUnits="objectBoundingBox" x="0" y="0" width="32.948" height="19.499" fill="#fff"><use xlink:href="#b"/></mask><path d="M15.57 9.946c.499-.296 1.308-.296 1.808 0l15.195 8.992c.5.296.5.775 0 1.07l-15.195 8.993c-.5.296-1.309.296-1.809 0L.375 20.01c-.5-.296-.5-.775 0-1.07l15.194-8.993z" id="c"/><mask id="j" maskContentUnits="userSpaceOnUse" maskUnits="objectBoundingBox" x="0" y="0" width="32.948" height="19.499" fill="#fff"><use xlink:href="#c"/></mask><path d="M15.57 1.123c.499-.296 1.308-.296 1.808 0l15.195 8.992c.5.296.5.775 0 1.07l-15.195 8.993c-.5.296-1.309.296-1.809 0L.375 11.186c-.5-.296-.5-.775 0-1.07l15.194-8.993z" id="d"/><mask id="k" maskContentUnits="userSpaceOnUse" maskUnits="objectBoundingBox" x="0" y="0" width="32.948" height="19.499" fill="#fff"><use xlink:href="#d"/></mask><rect id="e" x="11" y="14" width="50" height="50" rx="5"/><mask id="l" maskContentUnits="userSpaceOnUse" maskUnits="objectBoundingBox" x="0" y="0" width="50" height="50" fill="#fff"><use xlink:href="#e"/></mask><rect id="f" x="17" y="14" width="50" height="50" rx="5"/><mask id="m" maskContentUnits="userSpaceOnUse" maskUnits="objectBoundingBox" x="0" y="0" width="50" height="50" fill="#fff"><use xlink:href="#f"/></mask><rect id="g" x="23" y="14" width="50" height="50" rx="5"/><mask id="n" maskContentUnits="userSpaceOnUse" maskUnits="objectBoundingBox" x="0" y="0" width="50" height="50" fill="#fff"><use xlink:href="#g"/></mask></defs><g transform="translate(-4 -4)" fill="none" fill-rule="evenodd"><rect fill-opacity=".099" fill="#84D2E8" transform="rotate(45 85 85)" x="25" y="25" width="120" height="120" rx="10"/><g transform="translate(139 122)" stroke-width="1.6"><use stroke="#F5867B" mask="url(#h)" fill="#FBD3CF" xlink:href="#a"/><use stroke="#D5D5D5" mask="url(#i)" fill-opacity=".85" fill="#FFF" xlink:href="#b"/><use stroke="#D5D5D5" mask="url(#j)" fill="#FFF" xlink:href="#c"/><use stroke="#D5D5D5" mask="url(#k)" fill-opacity=".85" fill="#FFF" xlink:href="#d"/></g><g transform="translate(25 47)"><path d="M58.5 39h53.01" stroke="#48BDDE" stroke-width="2" stroke-linecap="round" stroke-dasharray="3,4"/><path stroke="#48BDDE" stroke-width="2" stroke-linecap="round" stroke-linejoin="round" d="M104.5 31.722l7.778 7.778-7.778 7.778"/><path d="M57.793 38.879L95.276 1.395" stroke="#48BDDE" stroke-width="2" stroke-linecap="round" stroke-dasharray="3,4"/><path stroke="#48BDDE" stroke-width="2" stroke-linecap="round" stroke-linejoin="round" d="M84.88.912h11v11"/><path d="M57.793 39.816L95.276 77.3" stroke="#48BDDE" stroke-width="2" stroke-linecap="round" stroke-dasharray="3,4"/><path stroke="#48BDDE" stroke-width="2" stroke-linecap="round" stroke-linejoin="round" d="M84.88 77.782h11v-11"/><use stroke="#84D2E8" mask="url(#l)" stroke-width="4" fill="#FFF" opacity=".501" transform="rotate(45 36 39)" xlink:href="#e"/><use stroke="#84D2E8" mask="url(#m)" stroke-width="4" fill="#FFF" transform="rotate(45 42 39)" xlink:href="#f"/><use stroke="#48BDDE" mask="url(#n)" stroke-width="4" fill="#FFF" transform="rotate(45 48 39)" xlink:href="#g"/><g transform="translate(33 30)" stroke="#48BDDE" stroke-width="2"><rect fill="#FFF" width="30" height="18" rx="1"/><path d="M0 0l15 12L30 0"/></g></g></g></svg>