<svg width="58" height="58" viewBox="0 0 58 58" xmlns="http://www.w3.org/2000/svg"><g fill="#FFC111" fill-rule="evenodd"><path d="M38.79 37c-.488-2.457-1.873-4.034-4.634-4.864 1.74-.498 2.952-1.203 2.044-2.877C32.65 22.712 35.187 19 39 19c3.74 0 6.341 3.574 2.8 10.258-1.163 2.196 1.24 2.718 3.82 3.314 2.086.482 2.355 1.466 2.38 3.132A1.29 1.29 0 0146.704 37h-7.913z" fill-opacity=".398"/><path d="M37 39.185c.024 1.55-1.248 2.815-2.8 2.815H12.8c-1.552 0-2.823-1.264-2.799-2.815.05-3.139.986-4.593 4.082-5.308l.372-.085c2.293-.53 3.3-.839 4.01-1.304.67-.438.769-.84.268-1.763C13.935 21.878 16.562 15 23.501 15c6.889 0 9.523 6.746 4.773 15.715-.487.92-.393 1.323.243 1.752.69.465 1.724.789 3.949 1.304l.453.105c3.097.715 4.033 2.17 4.08 5.309zm-4.531-3.36l-.455-.105c-2.488-.577-3.64-.938-4.614-1.595-1.497-1.008-1.853-2.534-.894-4.346C30.626 22.002 28.672 17 23.501 17c-5.208 0-7.162 5.115-3.01 12.772.994 1.834.613 3.379-.931 4.39-.991.648-2.101.988-4.656 1.578l-.371.086c-2.103.486-2.497 1.097-2.533 3.39-.007.425.354.784.799.784H34.2c.445 0 .807-.36.8-.784-.035-2.295-.428-2.906-2.531-3.391z" fill-rule="nonzero"/></g></svg>