<svg width="374" height="344" viewBox="0 0 374 344" xmlns="http://www.w3.org/2000/svg"><g fill="none" fill-rule="evenodd"><path d="M24.129 344C10.803 344 0 332.906 0 319.22V99.106c0-9.387 5.165-17.968 13.34-22.165l144.775-74.32c11.92-6.12 26.412-1.157 32.37 11.084a25.328 25.328 0 0 1 2.547 11.08v52.647a.1.1 0 0 0 .146.09L339.082 2.62c11.92-6.119 26.413-1.156 32.372 11.085A25.328 25.328 0 0 1 374 24.785V320c0 13.255-10.745 24-24 24H24.129z" fill="#01B2D0" opacity=".056"/><rect fill="#FFC111" x="59" y="158" width="39" height="39" rx="10"/><rect fill="#01B2D0" opacity=".223" x="118" y="158" width="39" height="39" rx="10"/><rect fill="#01B2D0" opacity=".223" x="118" y="226" width="39" height="39" rx="10"/><rect fill="#01B2D0" opacity=".223" x="59" y="226" width="39" height="39" rx="10"/><rect fill="#01B2D0" opacity=".223" x="216" y="158" width="39" height="39" rx="10"/><rect fill="#FFC111" x="276" y="158" width="39" height="39" rx="10"/><rect fill="#01B2D0" opacity=".223" x="276" y="226" width="39" height="39" rx="10"/><rect fill="#FFC111" x="216" y="226" width="39" height="39" rx="10"/></g></svg>