<svg width="58" height="58" viewBox="0 0 58 58" xmlns="http://www.w3.org/2000/svg"><g fill="#F15242"><path d="M21.859 18.679c.317-.345.065-.893-.41-.893h-3.54l1.645-5.087c.178-.55-.54-.947-.934-.517l-7.48 8.138c-.317.345-.065.893.41.893h3.538L13.446 26.3c-.178.55.54.947.934.517l7.479-8.139z" opacity=".397"/><path d="M30.5 16h13a3.5 3.5 0 0 1 0 7h-13a3.5 3.5 0 0 1 0-7zm0 2a1.5 1.5 0 0 0 0 3h13a1.5 1.5 0 0 0 0-3h-13zm0 16h13a3.5 3.5 0 0 1 0 7h-13a3.5 3.5 0 0 1 0-7zm0 2a1.5 1.5 0 0 0 0 3h13a1.5 1.5 0 0 0 0-3h-13z"/><path d="M21.859 36.679c.317-.345.065-.893-.41-.893h-3.54l1.645-5.087c.178-.55-.54-.947-.934-.517l-7.48 8.138c-.317.345-.065.893.41.893h3.538L13.446 44.3c-.178.55.54.947.934.517l7.479-8.139z" opacity=".397"/></g></svg>