<svg width="58" height="58" viewBox="0 0 58 58" xmlns="http://www.w3.org/2000/svg"><g fill="#01B2D0" fill-rule="evenodd"><path d="M38 21h-2v-3a1 1 0 00-1-1H12a1 1 0 00-1 1v19a1 1 0 001 1h18v2H10.993A2 2 0 019 37.993V15.007C9 13.9 9.9 13 10.993 13h25.014A2 2 0 0138 15.007V21zm-26-7a1 1 0 100 2 1 1 0 000-2zm3 0a1 1 0 100 2 1 1 0 000-2zm3 0a1 1 0 100 2 1 1 0 000-2z"/><path d="M37 25h-2a1 1 0 00-1 1v19a1 1 0 001 1h11a1 1 0 001-1V26a1 1 0 00-1-1h-2v1.5a.5.5 0 01-.5.5h-6a.5.5 0 01-.5-.5V25zm-5 .004c0-1.107.89-2.004 2-2.004h13c1.105 0 2 .89 2 2.004v20.992C49 47.103 48.11 48 47 48H34c-1.105 0-2-.89-2-2.004V25.004z" opacity=".398"/></g></svg>