<svg width="58" height="58" viewBox="0 0 58 58" xmlns="http://www.w3.org/2000/svg"><g fill="#6FD350"><path d="M14 37h4a3 3 0 013 3v4a3 3 0 01-3 3h-4a3 3 0 01-3-3v-4a3 3 0 013-3zm0 2a1 1 0 00-1 1v4a1 1 0 001 1h4a1 1 0 001-1v-4a1 1 0 00-1-1h-4z"/><path d="M14 24h4a3 3 0 013 3v4a3 3 0 01-3 3h-4a3 3 0 01-3-3v-4a3 3 0 013-3zm0 2a1 1 0 00-1 1v4a1 1 0 001 1h4a1 1 0 001-1v-4a1 1 0 00-1-1h-4z" opacity=".404"/><path d="M14 11h4a3 3 0 013 3v4a3 3 0 01-3 3h-4a3 3 0 01-3-3v-4a3 3 0 013-3zm0 2a1 1 0 00-1 1v4a1 1 0 001 1h4a1 1 0 001-1v-4a1 1 0 00-1-1h-4z"/><path d="M27 37h4a3 3 0 013 3v4a3 3 0 01-3 3h-4a3 3 0 01-3-3v-4a3 3 0 013-3zm0 2a1 1 0 00-1 1v4a1 1 0 001 1h4a1 1 0 001-1v-4a1 1 0 00-1-1h-4z" opacity=".404"/><path d="M27 24h4a3 3 0 013 3v4a3 3 0 01-3 3h-4a3 3 0 01-3-3v-4a3 3 0 013-3zm0 2a1 1 0 00-1 1v4a1 1 0 001 1h4a1 1 0 001-1v-4a1 1 0 00-1-1h-4z"/><path d="M27 11h4a3 3 0 013 3v4a3 3 0 01-3 3h-4a3 3 0 01-3-3v-4a3 3 0 013-3zm0 2a1 1 0 00-1 1v4a1 1 0 001 1h4a1 1 0 001-1v-4a1 1 0 00-1-1h-4z" opacity=".404"/><path d="M40 37h4a3 3 0 013 3v4a3 3 0 01-3 3h-4a3 3 0 01-3-3v-4a3 3 0 013-3zm0 2a1 1 0 00-1 1v4a1 1 0 001 1h4a1 1 0 001-1v-4a1 1 0 00-1-1h-4z"/><path d="M40 24h4a3 3 0 013 3v4a3 3 0 01-3 3h-4a3 3 0 01-3-3v-4a3 3 0 013-3zm0 2a1 1 0 00-1 1v4a1 1 0 001 1h4a1 1 0 001-1v-4a1 1 0 00-1-1h-4z" opacity=".404"/><path d="M40 11h4a3 3 0 013 3v4a3 3 0 01-3 3h-4a3 3 0 01-3-3v-4a3 3 0 013-3zm0 2a1 1 0 00-1 1v4a1 1 0 001 1h4a1 1 0 001-1v-4a1 1 0 00-1-1h-4z"/></g></svg>