<svg xmlns="http://www.w3.org/2000/svg" xmlns:xlink="http://www.w3.org/1999/xlink" width="1020" height="617" viewBox="0 0 1020 617"><defs><path id="g" d="M.002.001H30v29.817H.002z"/><path id="m" d="M23.52 10.841L13.158.481a1.637 1.637 0 00-2.318 0L.481 10.84a1.637 1.637 0 000 2.318l10.36 10.36c.64.641 1.677.641 2.318 0l10.36-10.36a1.637 1.637 0 000-2.318zM12 14.727L9.273 12 12 9.273 14.727 12 12 14.727z"/><path id="o" d="M23.492 10.854L13.164.527a1.632 1.632 0 00-2.31 0L.526 10.854a1.632 1.632 0 000 2.31l10.328 10.329a1.632 1.632 0 002.31 0l10.328-10.328a1.632 1.632 0 000-2.31zm-11.483 3.873L9.29 12.01l2.718-2.718 2.718 2.718-2.718 2.717z"/><path id="q" d="M23.492 10.854L13.164.527a1.632 1.632 0 00-2.31 0L.526 10.854a1.632 1.632 0 000 2.31l10.328 10.329a1.632 1.632 0 002.31 0l10.328-10.328a1.632 1.632 0 000-2.31zm-11.483 3.873L9.29 12.01l2.718-2.718 2.718 2.718-2.718 2.717z"/><path id="s" d="M23.492 10.854L13.164.527a1.632 1.632 0 00-2.31 0L.526 10.854a1.632 1.632 0 000 2.31l10.328 10.329a1.632 1.632 0 002.31 0l10.328-10.328a1.632 1.632 0 000-2.31zm-11.483 3.873L9.29 12.01l2.718-2.718 2.718 2.718-2.718 2.717z"/><path id="v" d="M23.492 10.854L13.164.527a1.632 1.632 0 00-2.31 0L.526 10.854a1.632 1.632 0 000 2.31l10.328 10.329a1.632 1.632 0 002.31 0l10.328-10.328a1.632 1.632 0 000-2.31zm-11.483 3.873L9.29 12.01l2.718-2.718 2.718 2.718-2.718 2.717z"/><path id="y" d="M23.492 10.854L13.164.527a1.632 1.632 0 00-2.31 0L.526 10.854a1.632 1.632 0 000 2.31l10.328 10.329a1.632 1.632 0 002.31 0l10.328-10.328a1.632 1.632 0 000-2.31zm-11.483 3.873L9.29 12.01l2.718-2.718 2.718 2.718-2.718 2.717z"/><path id="A" d="M23.492 10.854L13.164.527a1.632 1.632 0 00-2.31 0L.526 10.854a1.632 1.632 0 000 2.31l10.328 10.329a1.632 1.632 0 002.31 0l10.328-10.328a1.632 1.632 0 000-2.31zm-11.483 3.873L9.29 12.01l2.718-2.718 2.718 2.718-2.718 2.717z"/><path id="D" d="M23.492 10.854L13.164.527a1.632 1.632 0 00-2.31 0L.526 10.854a1.632 1.632 0 000 2.31l10.328 10.329a1.632 1.632 0 002.31 0l10.328-10.328a1.632 1.632 0 000-2.31zm-11.483 3.873L9.29 12.01l2.718-2.718 2.718 2.718-2.718 2.717z"/><filter id="a" width="103.2%" height="112.1%" x="-1.6%" y="-5.1%" filterUnits="objectBoundingBox"><feOffset dy="1" in="SourceAlpha" result="shadowOffsetOuter1"/><feGaussianBlur in="shadowOffsetOuter1" result="shadowBlurOuter1" stdDeviation="2"/><feComposite in="shadowBlurOuter1" in2="SourceAlpha" operator="out" result="shadowBlurOuter1"/><feColorMatrix in="shadowBlurOuter1" values="0 0 0 0 0.219607843 0 0 0 0 0.258823529 0 0 0 0 0.329411765 0 0 0 0.1 0"/></filter><filter id="c" width="123.2%" height="123.2%" x="-11.6%" y="-9.8%" filterUnits="objectBoundingBox"><feOffset dy="1" in="SourceAlpha" result="shadowOffsetOuter1"/><feGaussianBlur in="shadowOffsetOuter1" result="shadowBlurOuter1" stdDeviation="2"/><feComposite in="shadowBlurOuter1" in2="SourceAlpha" operator="out" result="shadowBlurOuter1"/><feColorMatrix in="shadowBlurOuter1" values="0 0 0 0 0.219607843 0 0 0 0 0.258823529 0 0 0 0 0.329411765 0 0 0 0.1 0"/></filter><filter id="e" width="123.2%" height="123.2%" x="-11.6%" y="-9.8%" filterUnits="objectBoundingBox"><feOffset dy="1" in="SourceAlpha" result="shadowOffsetOuter1"/><feGaussianBlur in="shadowOffsetOuter1" result="shadowBlurOuter1" stdDeviation="2"/><feComposite in="shadowBlurOuter1" in2="SourceAlpha" operator="out" result="shadowBlurOuter1"/><feColorMatrix in="shadowBlurOuter1" values="0 0 0 0 0.219607843 0 0 0 0 0.258823529 0 0 0 0 0.329411765 0 0 0 0.1 0"/></filter><filter id="i" width="123.2%" height="123.2%" x="-11.6%" y="-9.8%" filterUnits="objectBoundingBox"><feOffset dy="1" in="SourceAlpha" result="shadowOffsetOuter1"/><feGaussianBlur in="shadowOffsetOuter1" result="shadowBlurOuter1" stdDeviation="2"/><feComposite in="shadowBlurOuter1" in2="SourceAlpha" operator="out" result="shadowBlurOuter1"/><feColorMatrix in="shadowBlurOuter1" values="0 0 0 0 0.219607843 0 0 0 0 0.258823529 0 0 0 0 0.329411765 0 0 0 0.1 0"/></filter><filter id="k" width="123.2%" height="123.2%" x="-11.6%" y="-9.8%" filterUnits="objectBoundingBox"><feOffset dy="1" in="SourceAlpha" result="shadowOffsetOuter1"/><feGaussianBlur in="shadowOffsetOuter1" result="shadowBlurOuter1" stdDeviation="2"/><feComposite in="shadowBlurOuter1" in2="SourceAlpha" operator="out" result="shadowBlurOuter1"/><feColorMatrix in="shadowBlurOuter1" values="0 0 0 0 0.219607843 0 0 0 0 0.258823529 0 0 0 0 0.329411765 0 0 0 0.1 0"/></filter><filter id="G" width="123.2%" height="123.2%" x="-11.6%" y="-9.8%" filterUnits="objectBoundingBox"><feOffset dy="1" in="SourceAlpha" result="shadowOffsetOuter1"/><feGaussianBlur in="shadowOffsetOuter1" result="shadowBlurOuter1" stdDeviation="2"/><feComposite in="shadowBlurOuter1" in2="SourceAlpha" operator="out" result="shadowBlurOuter1"/><feColorMatrix in="shadowBlurOuter1" values="0 0 0 0 0.219607843 0 0 0 0 0.258823529 0 0 0 0 0.329411765 0 0 0 0.1 0"/></filter><circle id="d" cx="28" cy="28" r="28"/><circle id="f" cx="28" cy="28" r="28"/><circle id="j" cx="28" cy="28" r="28"/><circle id="l" cx="28" cy="28" r="28"/><circle id="H" cx="28" cy="28" r="28"/><linearGradient id="t" x1="24.691%" x2="74.734%" y1="26.425%" y2="80.127%"><stop offset="0%" stop-color="#1A237E" stop-opacity=".2"/><stop offset="100%" stop-color="#1A237E" stop-opacity=".02"/></linearGradient><linearGradient id="w" x1="24.155%" x2="76.174%" y1="24.155%" y2="76.174%"><stop offset="0%" stop-color="#FFF" stop-opacity=".1"/><stop offset="100%" stop-color="#FFF" stop-opacity="0"/></linearGradient><linearGradient id="B" x1="41.172%" x2="58.444%" y1="30.969%" y2="47.661%"><stop offset="0%" stop-opacity=".2"/><stop offset="100%" stop-color="#D8D8D8" stop-opacity="0"/></linearGradient><linearGradient id="E" x1="41.172%" x2="63.155%" y1="30.969%" y2="52.181%"><stop offset="0%" stop-opacity=".2"/><stop offset="100%" stop-color="#D8D8D8" stop-opacity="0"/></linearGradient><rect id="b" width="400" height="107" x="0" y="0" rx="4"/></defs><g fill="none" fill-rule="evenodd" transform="translate(0 1)"><path fill="#E0E6F6" stroke="#1B2E5B" stroke-dasharray="4 8" stroke-linecap="square" stroke-width="2" d="M723 0h288a8 8 0 018 8v84a8 8 0 01-8 8H723a8 8 0 01-8-8V8a8 8 0 018-8z"/><path fill="#E1E1E1" fill-rule="nonzero" d="M500.5 347a1 1 0 01.993.883l.007.117v125.742h5.165c.426 0 .777.32.828.731l.007.105c0 .13-.03.257-.088.373l-6.165 12.33a.835.835 0 01-1.494 0l-6.165-12.33a.835.835 0 01.747-1.208l5.165-.001V348a1 1 0 011-1z"/><g transform="translate(300 504)"><use fill="#000" filter="url(#a)" xlink:href="#b"/><rect width="398" height="105" x="1" y="1" fill="#FFF" stroke="#01B2D0" stroke-linejoin="square" stroke-width="2" rx="4"/><text fill="#384254" font-family="AvenirNext-DemiBold, Avenir Next" font-size="12" font-weight="500"><tspan x="150.166" y="57">Onboarding flows</tspan></text><text fill="#384254" font-family="AvenirNext-DemiBold, Avenir Next" font-size="12" font-weight="500"><tspan x="111.404" y="77">Product engagement workflows</tspan></text><text fill="#384254" font-family="AvenirNext-DemiBold, Avenir Next" font-size="12" font-weight="500"><tspan x="116.078" y="37">Weekly EDMs and newsletters</tspan></text></g><path fill="#FFC111" fill-rule="nonzero" d="M186.5 105.5a4.5 4.5 0 01.5 8.972v156.885h4l-4.5 9-4.5-9h4V114.473a4.5 4.5 0 01.5-8.973zm0 1a3.5 3.5 0 100 7 3.5 3.5 0 000-7zm-136-1a4.5 4.5 0 01.5 8.972v156.111h4l-4.5 9-4.5-9h4v-156.11a4.5 4.5 0 01.5-8.973zm0 1a3.5 3.5 0 100 7 3.5 3.5 0 000-7z"/><path stroke="#E1E1E1" stroke-width="2" d="M50 314.953l864 .547"/><rect width="100" height="100" fill="#FFC111" rx="8"/><text fill="#FFF" font-family="AvenirNext-DemiBold, Avenir Next" font-size="13" font-weight="500"><tspan x="9" y="79">Webinar Jam</tspan></text><g fill="#FFF" fill-rule="nonzero"><path d="M44.583 42.576l1.9-5.87h1.467l1.9 5.87 4.575-14.504.346-1.122.172.086c2.072.777 3.713 1.9 5.094 3.28 2.763 2.763 4.317 6.476 4.317 10.36 0 3.886-1.554 7.598-4.317 10.36-2.072 2.073-4.748 3.454-7.598 4.059l-.259.086.605-1.986h.086c2.245-.604 4.23-1.726 5.87-3.367 2.418-2.417 3.8-5.698 3.8-9.065 0-3.453-1.382-6.648-3.8-9.065-.776-.777-1.726-1.468-2.675-2.072a1149.855 1149.855 0 01-5.267 15.972v.086h-1.554l-1.9-5.612-1.985 5.526h-1.554l-3.022-8.806h1.986l1.813 5.784z"/><path d="M49.59 53.54l5.267-16.748h1.9l-5.872 18.562h-1.208c-3.885 0-7.598-1.554-10.36-4.317C36.554 48.274 35 44.562 35 40.677s1.554-7.598 4.317-10.36C42.079 27.554 45.792 26 49.677 26c1.381 0 2.762.173 4.058.604l.172.087-.518 1.726-.173-.086a12.11 12.11 0 00-3.54-.518c-3.453 0-6.647 1.381-9.064 3.799-2.418 2.417-3.799 5.611-3.799 9.065 0 3.453 1.381 6.648 3.799 9.065 2.33 2.417 5.611 3.712 8.978 3.799z"/><path d="M55.72 34.115h1.9l-.605 1.9h-1.899z"/></g><g transform="translate(22 286)"><use fill="#000" filter="url(#c)" xlink:href="#d"/><circle cx="28" cy="28" r="27.5" fill="#FFF" stroke="#E1E1E1" stroke-linejoin="square"/><path fill="#FF4A00" d="M31 28.005c0 .892-.164 1.746-.46 2.534a7.18 7.18 0 01-2.535.461h-.01a7.18 7.18 0 01-2.533-.46A7.18 7.18 0 0125 28.004v-.01c0-.892.164-1.746.46-2.534a7.179 7.179 0 012.536-.46h.01c.892 0 1.746.164 2.534.461.297.788.46 1.642.461 2.534v.01zM39.833 26h-7.005l4.953-4.953a12.063 12.063 0 00-2.828-2.828L30 23.172v-7.005A12.074 12.074 0 0028.006 16h-.012c-.68 0-1.346.058-1.994.167v7.005l-4.953-4.953c-.547.389-1.059.822-1.532 1.296l-.002.001a12.06 12.06 0 00-1.294 1.531L23.172 26h-7.005S16 27.316 16 27.996v.008c0 .68.058 1.347.167 1.996h7.005l-4.953 4.953a12.068 12.068 0 002.828 2.828L26 32.828v7.005a12.08 12.08 0 001.991.167h.018c.678 0 1.343-.058 1.991-.167v-7.005l4.953 4.953a12.062 12.062 0 001.532-1.295v-.001a12.07 12.07 0 001.296-1.532L32.828 30h7.005A12.08 12.08 0 0040 28.009v-.018c0-.678-.058-1.343-.167-1.991z"/></g><g transform="translate(158 286)"><use fill="#000" filter="url(#e)" xlink:href="#f"/><circle cx="28" cy="28" r="27.5" fill="#FFF" stroke="#E1E1E1" stroke-linejoin="square"/><path fill="#FF4A00" d="M31 28.005c0 .892-.164 1.746-.46 2.534a7.18 7.18 0 01-2.535.461h-.01a7.18 7.18 0 01-2.533-.46A7.18 7.18 0 0125 28.004v-.01c0-.892.164-1.746.46-2.534a7.179 7.179 0 012.536-.46h.01c.892 0 1.746.164 2.534.461.297.788.46 1.642.461 2.534v.01zM39.833 26h-7.005l4.953-4.953a12.063 12.063 0 00-2.828-2.828L30 23.172v-7.005A12.074 12.074 0 0028.006 16h-.012c-.68 0-1.346.058-1.994.167v7.005l-4.953-4.953c-.547.389-1.059.822-1.532 1.296l-.002.001a12.06 12.06 0 00-1.294 1.531L23.172 26h-7.005S16 27.316 16 27.996v.008c0 .68.058 1.347.167 1.996h7.005l-4.953 4.953a12.068 12.068 0 002.828 2.828L26 32.828v7.005a12.08 12.08 0 001.991.167h.018c.678 0 1.343-.058 1.991-.167v-7.005l4.953 4.953a12.062 12.062 0 001.532-1.295v-.001a12.07 12.07 0 001.296-1.532L32.828 30h7.005A12.08 12.08 0 0040 28.009v-.018c0-.678-.058-1.343-.167-1.991z"/></g><g transform="translate(136)"><rect width="100" height="100" fill="#FFC111" rx="8"/><text fill="#FFF" font-family="AvenirNext-DemiBold, Avenir Next" font-size="13" font-weight="500"><tspan x="22.947" y="74.322">FB Ads</tspan></text><g transform="translate(35 25)"><mask id="h" fill="#fff"><use xlink:href="#g"/></mask><path fill="#FFF" d="M30 15c0-8.284-6.716-15-15-15C6.716 0 0 6.716 0 15c0 7.487 5.485 13.692 12.656 14.818V19.336H8.848V15h3.808v-3.305c0-3.76 2.24-5.836 5.666-5.836 1.641 0 3.358.293 3.358.293v3.692h-1.892c-1.863 0-2.444 1.156-2.444 2.342V15h4.16l-.665 4.336h-3.495v10.482C24.514 28.692 30 22.487 30 15" mask="url(#h)"/><path fill="#FFC111" d="M20.839 19.336L21.504 15h-4.16v-2.814c0-1.186.58-2.342 2.444-2.342h1.892V6.152s-1.717-.293-3.358-.293c-3.426 0-5.666 2.077-5.666 5.836V15H8.848v4.336h3.808v10.482a15.112 15.112 0 004.688 0V19.336h3.495"/></g></g><g transform="translate(20 175)"><rect width="60" height="20" fill="#FFC111" rx="10"/><text fill="#FFF" font-family="AvenirNext-DemiBold, Avenir Next" font-size="11" font-weight="500"><tspan x="12.5" y="14">LEADS</tspan></text></g><g transform="translate(156 175)"><rect width="60" height="20" fill="#FFC111" rx="10"/><text fill="#FFF" font-family="AvenirNext-DemiBold, Avenir Next" font-size="11" font-weight="500"><tspan x="12.5" y="14">LEADS</tspan></text></g><path fill="#6F0DFB" fill-rule="nonzero" d="M322.5 105.5a4.5 4.5 0 01.5 8.972v156.885h4l-4.5 9-4.5-9h4V114.473a4.5 4.5 0 01.5-8.973zm0 1a3.5 3.5 0 100 7 3.5 3.5 0 000-7z"/><path fill="#1B2E5B" fill-rule="nonzero" d="M812 108.5a4.5 4.5 0 01.5 8.972v153.885h4l-4.5 9-4.5-9h4V117.473a4.5 4.5 0 01.5-8.973zm0 1a3.5 3.5 0 100 7 3.5 3.5 0 000-7zm102-1a4.5 4.5 0 01.5 8.972v153.885h4l-4.5 9-4.5-9h4V117.473a4.5 4.5 0 01.5-8.973zm0 1a3.5 3.5 0 100 7 3.5 3.5 0 000-7z"/><path fill="#6F0DFB" fill-rule="nonzero" d="M703.395 45.5a4.5 4.5 0 11-4.473 5H667.5v247.857h4l-4.5 9-4.5-9h4V49.5h32.422a4.5 4.5 0 014.473-4zm0 1a3.5 3.5 0 100 7 3.5 3.5 0 000-7z"/><g transform="translate(292 175)"><rect width="60" height="20" fill="#6F0DFB" rx="10"/><text fill="#FFF" font-family="AvenirNext-DemiBold, Avenir Next" font-size="11" font-weight="500"><tspan x="13" y="14">LEADS</tspan></text></g><g transform="translate(272)"><rect width="100" height="100" fill="#6F0DFB" rx="8"/><g fill="#FFF" fill-rule="nonzero"><path d="M49.898 26.083c-8.141 0-14.732 6.59-14.732 14.732s6.59 14.733 14.732 14.733 14.733-6.591 14.733-14.733c0-8.141-6.591-14.732-14.733-14.732zm-.526 20.52l-1.08 3.185a.866.866 0 01-.138.277 1.298 1.298 0 01-.526.498c-.194.11-.416.166-.637.166-.139 0-.305-.027-.443-.083-.61-.221-.997-.83-.914-1.44a9.407 9.407 0 01-5.123-8.39 9.437 9.437 0 019.443-9.444c.61 0 1.19.056 1.772.166a1.406 1.406 0 011.606-.581c.333.11.582.332.748.61.138.248.222.525.194.83 0 .11-.028.221-.056.305l-1.08 3.184-3.766 10.717zm1.191 3.628l1.302-3.933a5.802 5.802 0 003.849-5.483 5.68 5.68 0 00-.997-3.24l1.301-3.932a9.398 9.398 0 013.324 7.172 9.481 9.481 0 01-8.779 9.416z"/><path d="M44.083 40.815c0 2.05 1.08 3.85 2.686 4.902l3.656-10.69c-.167-.027-.36-.027-.527-.027a5.815 5.815 0 00-5.815 5.815z"/></g><text fill="#FFF" font-family="AvenirNext-DemiBold, Avenir Next" font-size="13" font-weight="500"><tspan x="17.5" y="79">Unbounce</tspan></text></g><g transform="translate(294 286)"><use fill="#000" filter="url(#i)" xlink:href="#j"/><circle cx="28" cy="28" r="27.5" fill="#FFF" stroke="#E1E1E1" stroke-linejoin="square"/><path fill="#C73A63" d="M27.163 26.294c-.99 1.666-1.94 3.279-2.909 4.88-.249.41-.372.746-.173 1.268.549 1.443-.226 2.847-1.68 3.229-1.373.36-2.71-.543-2.983-2.012-.241-1.3.768-2.576 2.202-2.779.12-.017.243-.02.445-.034l2.181-3.658c-1.372-1.364-2.188-2.959-2.008-4.935.128-1.396.677-2.603 1.681-3.593a5.707 5.707 0 017.12-.747c2.175 1.397 3.17 4.118 2.322 6.447l-1.993-.541c.266-1.295.069-2.458-.804-3.454-.577-.657-1.317-1.002-2.16-1.129-1.687-.255-3.344.83-3.835 2.486-.559 1.88.286 3.415 2.594 4.572z"/><path fill="#4B4B4B" d="M29.993 24.325l2.109 3.72c3.55-1.099 6.227.867 7.188 2.971 1.16 2.542.367 5.552-1.911 7.12-2.339 1.61-5.296 1.335-7.368-.733l1.626-1.36c2.046 1.325 3.836 1.263 5.165-.306a3.561 3.561 0 00-.058-4.646c-1.345-1.513-3.148-1.559-5.326-.107-.904-1.603-1.823-3.194-2.698-4.808-.295-.545-.621-.86-1.286-.976-1.11-.192-1.828-1.146-1.87-2.214a2.434 2.434 0 011.553-2.385 2.423 2.423 0 012.743.749c.53.67.698 1.423.42 2.249-.078.23-.179.453-.287.726z"/><path fill="#4A4A4A" d="M31.661 34.392h-4.274c-.41 1.684-1.295 3.045-2.82 3.91a5.697 5.697 0 01-3.822.68c-2.503-.403-4.55-2.656-4.73-5.194-.204-2.875 1.772-5.43 4.405-6.004l.548 1.986c-2.417 1.233-3.253 2.786-2.577 4.728.596 1.71 2.287 2.646 4.123 2.284 1.875-.37 2.82-1.928 2.705-4.43 1.778 0 3.557-.018 5.335.01.694.01 1.23-.061 1.753-.673.86-1.007 2.445-.917 3.373.035a2.421 2.421 0 01-.1 3.467 2.418 2.418 0 01-3.402-.118c-.186-.2-.333-.436-.517-.681z"/></g><g transform="translate(827 10)"><rect width="80" height="80" fill="#C6CBD6" rx="8"/><path fill="#FFF" fill-rule="nonzero" d="M47.338 36.898a1.274 1.274 0 110-2.547 1.274 1.274 0 010 2.547m-14.076 0a1.274 1.274 0 11-.001-2.547 1.274 1.274 0 010 2.547m14.534-7.672l2.545-4.408a.53.53 0 10-.917-.53l-2.577 4.464a15.71 15.71 0 00-6.546-1.4c-2.362 0-4.575.501-6.546 1.4l-2.577-4.464a.53.53 0 10-.918.53l2.546 4.408c-4.37 2.378-7.36 6.802-7.798 12.03h30.586c-.438-5.228-3.427-9.652-7.798-12.03"/><text fill="#FFF" font-family="AvenirNext-DemiBold, Avenir Next" font-size="12" font-weight="500"><tspan x="17" y="68">Android</tspan></text></g><g transform="translate(923 10)"><rect width="80" height="80" fill="#C6CBD6" rx="8"/><path fill="#FFF" fill-rule="nonzero" d="M47.488 32.686a5.849 5.849 0 012.785-4.907 5.987 5.987 0 00-4.717-2.55c-1.985-.208-3.909 1.188-4.92 1.188-1.03 0-2.588-1.167-4.264-1.133a6.282 6.282 0 00-5.287 3.224c-2.285 3.957-.58 9.773 1.61 12.972 1.094 1.566 2.375 3.316 4.05 3.254 1.64-.068 2.251-1.046 4.23-1.046 1.96 0 2.535 1.046 4.244 1.006 1.759-.028 2.867-1.573 3.924-3.154a12.955 12.955 0 001.795-3.655 5.652 5.652 0 01-3.45-5.2zm-3.229-9.56A5.758 5.758 0 0045.577 19a5.859 5.859 0 00-3.791 1.961 5.48 5.48 0 00-1.352 3.973 4.844 4.844 0 003.825-1.809z"/><text fill="#FFF" font-family="AvenirNext-DemiBold, Avenir Next" font-size="12" font-weight="500"><tspan x="23.5" y="68">Apple</tspan></text></g><g transform="translate(731 10)"><rect width="80" height="80" fill="#6F0DFB" rx="8"/><text fill="#FFF" font-family="AvenirNext-DemiBold, Avenir Next" font-size="12" font-weight="500"><tspan x="10" y="68">Wordpress</tspan></text><g fill="#FFF"><path d="M40 19.026c-7.165 0-12.974 5.809-12.974 12.974S32.835 44.974 40 44.974 52.974 39.165 52.974 32 47.165 19.026 40 19.026m0 .778a12.119 12.119 0 016.818 2.083 12.287 12.287 0 013.295 3.295A12.118 12.118 0 0152.195 32a12.118 12.118 0 01-2.082 6.818 12.287 12.287 0 01-3.295 3.295A12.118 12.118 0 0140 44.195a12.118 12.118 0 01-6.818-2.082 12.289 12.289 0 01-3.295-3.295A12.119 12.119 0 0127.805 32a12.119 12.119 0 012.082-6.818 12.289 12.289 0 013.295-3.295A12.119 12.119 0 0140 19.805"/><path d="M49.488 26.813c.046.344.072.714.072 1.112 0 1.096-.205 2.33-.822 3.872l-3.302 9.547A10.805 10.805 0 0050.812 32c0-1.88-.48-3.647-1.324-5.187zm-9.298 6.132l-3.244 9.426a10.804 10.804 0 006.645-.172.985.985 0 01-.078-.15l-3.323-9.104zm7.109-1.49c0-1.337-.48-2.262-.891-2.982-.549-.891-1.063-1.645-1.063-2.536 0-.994.754-1.919 1.816-1.919.048 0 .093.006.14.009A10.771 10.771 0 0040 21.188a10.8 10.8 0 00-9.033 4.873c.253.008.493.013.695.013 1.13 0 2.882-.137 2.882-.137.582-.034.651.822.07.89 0 0-.587.07-1.238.104l3.937 11.71 2.366-7.095-1.684-4.615a19.817 19.817 0 01-1.134-.103c-.583-.035-.515-.925.068-.891 0 0 1.785.137 2.848.137 1.13 0 2.882-.137 2.882-.137.582-.034.651.822.069.89 0 0-.587.07-1.238.104l3.907 11.621 1.116-3.534c.495-1.544.786-2.639.786-3.564zM29.189 32c0 4.279 2.486 7.977 6.093 9.73L30.124 27.6a10.77 10.77 0 00-.936 4.4z"/></g></g><g transform="translate(886 286)"><use fill="#000" filter="url(#k)" xlink:href="#l"/><circle cx="28" cy="28" r="27.5" fill="#FFF" stroke="#E1E1E1" stroke-linejoin="square"/><g transform="translate(16 16)"><mask id="n" fill="#fff"><use xlink:href="#m"/></mask><g mask="url(#n)"><path fill="#4285F4" fill-rule="nonzero" d="M23.492 10.854L19.687 7.05l-2.718-2.718-4.96 4.96 2.718 2.718-2.718 2.717-4.96 4.96 3.805 3.806a1.632 1.632 0 002.31 0l3.805-3.805 2.718-2.718 3.805-3.805a1.632 1.632 0 000-2.31z"/><path fill="#4FC3F7" fill-rule="nonzero" d="M16.969 4.332L13.164.527a1.632 1.632 0 00-2.31 0L7.049 4.332 4.33 7.049.526 10.854a1.632 1.632 0 000 2.31L4.33 16.97l2.718 2.718 4.96-4.96L9.29 12.01l2.718-2.718 4.96-4.96z"/><mask id="p" fill="#fff"><use xlink:href="#o"/></mask><path fill="#FFF" fill-rule="nonzero" d="M10.854.663a1.632 1.632 0 012.31 0L23.492 10.99c.299.3.462.693.476 1.088a1.646 1.646 0 00-.476-1.224L13.164.527a1.632 1.632 0 00-2.31 0L.526 10.854c-.34.34-.49.789-.476 1.224.014-.395.177-.789.476-1.088L10.854.663z" mask="url(#p)" opacity=".2"/><mask id="r" fill="#fff"><use xlink:href="#q"/></mask><path fill="#1A237E" fill-rule="nonzero" d="M23.492 13.029L13.164 23.357a1.632 1.632 0 01-2.31 0L.526 13.029a1.623 1.623 0 01-.476-1.087c-.013.434.136.883.476 1.223l10.328 10.328a1.632 1.632 0 002.31 0l10.328-10.328c.34-.34.49-.775.476-1.223a1.623 1.623 0 01-.476 1.087z" mask="url(#r)" opacity=".2"/><mask id="u" fill="#fff"><use xlink:href="#s"/></mask><path fill="url(#t)" fill-rule="nonzero" d="M12.009 14.727l-4.96 4.96 3.805 3.805a1.632 1.632 0 002.31 0l3.805-3.805-4.96-4.96z" mask="url(#u)"/><mask id="x" fill="#fff"><use xlink:href="#v"/></mask><path fill="url(#w)" fill-rule="nonzero" d="M23.492 10.854L13.164.527a1.632 1.632 0 00-2.31 0L.526 10.854a1.632 1.632 0 000 2.31l10.328 10.329a1.632 1.632 0 002.31 0l10.328-10.328a1.632 1.632 0 000-2.31zm-11.483 3.873L9.29 12.01l2.718-2.718 2.718 2.718-2.718 2.717z" mask="url(#x)"/><mask id="z" fill="#fff"><use xlink:href="#y"/></mask><path mask="url(#z)" d="M-1.037-1.036h26.092v26.091H-1.037z"/><mask id="C" fill="#fff"><use xlink:href="#A"/></mask><path fill="url(#B)" fill-opacity=".8" fill-rule="nonzero" mask="url(#C)" d="M12.055 14.75l2.086 2.083-5.143 4.779-1.903-1.902z"/><mask id="F" fill="#fff"><use xlink:href="#D"/></mask><path fill="url(#E)" fill-opacity=".8" fill-rule="nonzero" mask="url(#F)" d="M16.968 4.356l2.087 2.084-5.144 4.779-1.902-1.903z"/></g></g></g><g transform="translate(784 286)"><use fill="#000" filter="url(#G)" xlink:href="#H"/><circle cx="28" cy="28" r="27.5" fill="#FFF" stroke="#E1E1E1" stroke-linejoin="square"/><g fill-rule="nonzero" transform="translate(16 16)"><rect width="24" height="24" fill="#F7DF1E" rx="4"/><path fill="#000" d="M11.122 18.75c.483.79 1.112 1.37 2.225 1.37.934 0 1.531-.467 1.531-1.113 0-.773-.613-1.047-1.642-1.497l-.564-.242c-1.627-.693-2.708-1.562-2.708-3.398 0-1.691 1.289-2.979 3.303-2.979 1.434 0 2.464.5 3.207 1.806l-1.756 1.127c-.387-.693-.804-.966-1.451-.966-.66 0-1.08.419-1.08.966 0 .677.42.95 1.387 1.37l.564.241c1.916.822 2.998 1.66 2.998 3.543 0 2.03-1.595 3.143-3.737 3.143-2.095 0-3.448-.998-4.11-2.306l1.833-1.065zm-7.967.196c.354.628.677 1.16 1.451 1.16.741 0 1.209-.29 1.209-1.418V11.02H8.07v7.699c0 2.335-1.369 3.398-3.368 3.398-1.805 0-2.851-.935-3.383-2.06l1.836-1.111z"/></g></g><g transform="translate(801 174)"><rect width="130" height="20" fill="#1B2E5B" rx="10"/><text fill="#FFF" font-family="AvenirNext-DemiBold, Avenir Next" font-size="11" font-weight="500"><tspan x="20" y="14">USER TRACKING</tspan></text></g><g transform="translate(597 176)"><rect width="140" height="20" fill="#6F0DFB" rx="10"/><text fill="#FFF" font-family="AvenirNext-DemiBold, Avenir Next" font-size="10" font-weight="500"><tspan x="14.43" y="13">LEADS VIA VERO FORM</tspan></text></g><text fill="#384254" font-family="AvenirNext-DemiBold, Avenir Next" font-size="13" font-weight="500"><tspan x="782.021" y="367">Logged In</tspan></text><text fill="#384254" font-family="AvenirNext-DemiBold, Avenir Next" font-size="13" font-weight="500"><tspan x="869.124" y="367">Non-Logged In</tspan></text><g transform="translate(402 218)"><circle cx="98" cy="98" r="78" fill="#01B2D0" fill-opacity=".5"/><circle cx="98" cy="98" r="98" fill="#01B2D0" fill-opacity=".5"/><circle cx="98" cy="98" r="58" fill="#FFF"/><path fill="#0AA6D2" d="M118.71 76.003a6.236 6.236 0 00-.199-.003h-40.08l-.116.001-.113-.001C74.75 76 72 78.78 72 82.268c0 .783.148 1.533.419 2.225.126.39.293.772.5 1.142l20.04 35.057c.287.502.632.949 1.02 1.336A6.197 6.197 0 0098.53 124a6.016 6.016 0 003.967-1.504 6.276 6.276 0 001.545-1.804l20.04-35.057a6.37 6.37 0 00.493-1.12 6.121 6.121 0 00.426-2.247c0-3.487-2.75-6.268-6.087-6.268a6.43 6.43 0 00-.202.003zm-18.229 32.964l15.848-27.801a1.92 1.92 0 00.115-.175 2.744 2.744 0 012.47-1.509c1.433 0 2.64 1.222 2.64 2.786 0 .535-.174 1.06-.459 1.51a.157.157 0 00-.057.116l-17.456 30.53-3.1-5.457zm-22.05-29.485h34.912l-3.1 5.456H78.087c-1.491 0-2.699-1.221-2.699-2.67 0-1.564 1.208-2.786 2.699-2.786.08 0 .132.002.172 0l.061.001h.111zm10.311 8.939h19.516L98.5 105.49l-9.758-17.07zm7.26 30.646c.004-.041-.015-.074-.057-.117L78.546 88.42h6.202l15.905 27.802a.789.789 0 00.115.233c.244.409.402.924.402 1.509 0 1.448-1.207 2.67-2.641 2.67a2.802 2.802 0 01-2.527-1.567z"/></g></g></svg>