<svg xmlns="http://www.w3.org/2000/svg" xmlns:xlink="http://www.w3.org/1999/xlink" width="923" height="617" viewBox="0 0 923 617"><defs><path id="e" d="M.002.001H30v29.817H.002z"/><path id="k" d="M23.52 10.841L13.158.481a1.637 1.637 0 00-2.318 0L.481 10.84a1.637 1.637 0 000 2.318l10.36 10.36c.64.641 1.677.641 2.318 0l10.36-10.36a1.637 1.637 0 000-2.318zM12 14.727L9.273 12 12 9.273 14.727 12 12 14.727z"/><path id="m" d="M23.492 10.854L13.164.527a1.632 1.632 0 00-2.31 0L.526 10.854a1.632 1.632 0 000 2.31l10.328 10.329a1.632 1.632 0 002.31 0l10.328-10.328a1.632 1.632 0 000-2.31zm-11.483 3.873L9.29 12.01l2.718-2.718 2.718 2.718-2.718 2.717z"/><path id="o" d="M23.492 10.854L13.164.527a1.632 1.632 0 00-2.31 0L.526 10.854a1.632 1.632 0 000 2.31l10.328 10.329a1.632 1.632 0 002.31 0l10.328-10.328a1.632 1.632 0 000-2.31zm-11.483 3.873L9.29 12.01l2.718-2.718 2.718 2.718-2.718 2.717z"/><path id="q" d="M23.492 10.854L13.164.527a1.632 1.632 0 00-2.31 0L.526 10.854a1.632 1.632 0 000 2.31l10.328 10.329a1.632 1.632 0 002.31 0l10.328-10.328a1.632 1.632 0 000-2.31zm-11.483 3.873L9.29 12.01l2.718-2.718 2.718 2.718-2.718 2.717z"/><path id="t" d="M23.492 10.854L13.164.527a1.632 1.632 0 00-2.31 0L.526 10.854a1.632 1.632 0 000 2.31l10.328 10.329a1.632 1.632 0 002.31 0l10.328-10.328a1.632 1.632 0 000-2.31zm-11.483 3.873L9.29 12.01l2.718-2.718 2.718 2.718-2.718 2.717z"/><path id="w" d="M23.492 10.854L13.164.527a1.632 1.632 0 00-2.31 0L.526 10.854a1.632 1.632 0 000 2.31l10.328 10.329a1.632 1.632 0 002.31 0l10.328-10.328a1.632 1.632 0 000-2.31zm-11.483 3.873L9.29 12.01l2.718-2.718 2.718 2.718-2.718 2.717z"/><path id="y" d="M23.492 10.854L13.164.527a1.632 1.632 0 00-2.31 0L.526 10.854a1.632 1.632 0 000 2.31l10.328 10.329a1.632 1.632 0 002.31 0l10.328-10.328a1.632 1.632 0 000-2.31zm-11.483 3.873L9.29 12.01l2.718-2.718 2.718 2.718-2.718 2.717z"/><path id="B" d="M23.492 10.854L13.164.527a1.632 1.632 0 00-2.31 0L.526 10.854a1.632 1.632 0 000 2.31l10.328 10.329a1.632 1.632 0 002.31 0l10.328-10.328a1.632 1.632 0 000-2.31zm-11.483 3.873L9.29 12.01l2.718-2.718 2.718 2.718-2.718 2.717z"/><filter id="a" width="103.2%" height="112.1%" x="-1.6%" y="-5.1%" filterUnits="objectBoundingBox"><feOffset dy="1" in="SourceAlpha" result="shadowOffsetOuter1"/><feGaussianBlur in="shadowOffsetOuter1" result="shadowBlurOuter1" stdDeviation="2"/><feComposite in="shadowBlurOuter1" in2="SourceAlpha" operator="out" result="shadowBlurOuter1"/><feColorMatrix in="shadowBlurOuter1" values="0 0 0 0 0.219607843 0 0 0 0 0.258823529 0 0 0 0 0.329411765 0 0 0 0.1 0"/></filter><filter id="c" width="123.2%" height="123.2%" x="-11.6%" y="-9.8%" filterUnits="objectBoundingBox"><feOffset dy="1" in="SourceAlpha" result="shadowOffsetOuter1"/><feGaussianBlur in="shadowOffsetOuter1" result="shadowBlurOuter1" stdDeviation="2"/><feComposite in="shadowBlurOuter1" in2="SourceAlpha" operator="out" result="shadowBlurOuter1"/><feColorMatrix in="shadowBlurOuter1" values="0 0 0 0 0.219607843 0 0 0 0 0.258823529 0 0 0 0 0.329411765 0 0 0 0.1 0"/></filter><filter id="g" width="123.2%" height="123.2%" x="-11.6%" y="-9.8%" filterUnits="objectBoundingBox"><feOffset dy="1" in="SourceAlpha" result="shadowOffsetOuter1"/><feGaussianBlur in="shadowOffsetOuter1" result="shadowBlurOuter1" stdDeviation="2"/><feComposite in="shadowBlurOuter1" in2="SourceAlpha" operator="out" result="shadowBlurOuter1"/><feColorMatrix in="shadowBlurOuter1" values="0 0 0 0 0.219607843 0 0 0 0 0.258823529 0 0 0 0 0.329411765 0 0 0 0.1 0"/></filter><filter id="i" width="123.2%" height="123.2%" x="-11.6%" y="-9.8%" filterUnits="objectBoundingBox"><feOffset dy="1" in="SourceAlpha" result="shadowOffsetOuter1"/><feGaussianBlur in="shadowOffsetOuter1" result="shadowBlurOuter1" stdDeviation="2"/><feComposite in="shadowBlurOuter1" in2="SourceAlpha" operator="out" result="shadowBlurOuter1"/><feColorMatrix in="shadowBlurOuter1" values="0 0 0 0 0.219607843 0 0 0 0 0.258823529 0 0 0 0 0.329411765 0 0 0 0.1 0"/></filter><filter id="E" width="123.2%" height="123.2%" x="-11.6%" y="-9.8%" filterUnits="objectBoundingBox"><feOffset dy="1" in="SourceAlpha" result="shadowOffsetOuter1"/><feGaussianBlur in="shadowOffsetOuter1" result="shadowBlurOuter1" stdDeviation="2"/><feComposite in="shadowBlurOuter1" in2="SourceAlpha" operator="out" result="shadowBlurOuter1"/><feColorMatrix in="shadowBlurOuter1" values="0 0 0 0 0.219607843 0 0 0 0 0.258823529 0 0 0 0 0.329411765 0 0 0 0.1 0"/></filter><linearGradient id="r" x1="24.691%" x2="74.734%" y1="26.425%" y2="80.127%"><stop offset="0%" stop-color="#1A237E" stop-opacity=".2"/><stop offset="100%" stop-color="#1A237E" stop-opacity=".02"/></linearGradient><linearGradient id="u" x1="24.155%" x2="76.174%" y1="24.155%" y2="76.174%"><stop offset="0%" stop-color="#FFF" stop-opacity=".1"/><stop offset="100%" stop-color="#FFF" stop-opacity="0"/></linearGradient><linearGradient id="z" x1="41.172%" x2="58.444%" y1="30.969%" y2="47.661%"><stop offset="0%" stop-opacity=".2"/><stop offset="100%" stop-color="#D8D8D8" stop-opacity="0"/></linearGradient><linearGradient id="C" x1="41.172%" x2="63.155%" y1="30.969%" y2="52.181%"><stop offset="0%" stop-opacity=".2"/><stop offset="100%" stop-color="#D8D8D8" stop-opacity="0"/></linearGradient><circle id="d" cx="28" cy="28" r="28"/><circle id="h" cx="28" cy="28" r="28"/><circle id="j" cx="28" cy="28" r="28"/><circle id="F" cx="28" cy="28" r="28"/><rect id="b" width="400" height="107" x="0" y="0" rx="4"/></defs><g fill="none" fill-rule="evenodd"><path fill="#E0E6F6" stroke="#1B2E5B" stroke-dasharray="4 4" stroke-width="2" d="M618 1h296a8 8 0 018 8v96a8 8 0 01-8 8H618a8 8 0 01-8-8V9a8 8 0 018-8z"/><path fill="#FFF2CC" stroke="#FFC111" stroke-dasharray="4 4" stroke-width="2" d="M9 1h184a8 8 0 018 8v96a8 8 0 01-8 8H9a8 8 0 01-8-8V9a8 8 0 018-8z"/><path fill="#E1CDFE" stroke="#6F0DFB" stroke-dasharray="4 4" stroke-width="2" d="M249 1h96a8 8 0 018 8v96a8 8 0 01-8 8h-96a8 8 0 01-8-8V9a8 8 0 018-8zm369 0h104v112H618a8 8 0 01-8-8V9a8 8 0 018-8z"/><path fill="#E1E1E1" fill-rule="nonzero" d="M461.5 348a1 1 0 01.993.883l.007.117v125.742h5.165c.426 0 .777.32.828.731l.007.105c0 .13-.03.257-.088.373l-6.165 12.33a.835.835 0 01-1.494 0l-6.165-12.33a.835.835 0 01.747-1.208l5.165-.001V349a1 1 0 011-1z"/><g transform="translate(261 505)"><use fill="#000" filter="url(#a)" xlink:href="#b"/><rect width="398" height="105" x="1" y="1" fill="#FFF" stroke="#01B2D0" stroke-linejoin="square" stroke-width="2" rx="4"/><path fill="#384254" fill-rule="nonzero" d="M155.242 58.216c.664 0 1.276-.11 1.836-.33a4.333 4.333 0 001.452-.924c.408-.396.726-.868.954-1.416a4.688 4.688 0 00.342-1.818c0-.68-.114-1.294-.342-1.842a4.004 4.004 0 00-.954-1.398 4.25 4.25 0 00-1.452-.888 5.234 5.234 0 00-1.836-.312c-.656 0-1.262.104-1.818.312a4.197 4.197 0 00-1.44.888c-.404.384-.72.85-.948 1.398-.228.548-.342 1.162-.342 1.842 0 .664.114 1.27.342 1.818.228.548.544 1.02.948 1.416a4.28 4.28 0 001.44.924c.556.22 1.162.33 1.818.33zm.012-1.356c-.432 0-.826-.078-1.182-.234a2.756 2.756 0 01-.924-.654 2.92 2.92 0 01-.6-.99c-.14-.38-.21-.798-.21-1.254 0-.44.07-.848.21-1.224.14-.376.338-.704.594-.984.256-.28.562-.5.918-.66a2.88 2.88 0 011.194-.24c.44 0 .84.08 1.2.24.36.16.668.38.924.66s.454.608.594.984c.14.376.21.784.21 1.224 0 .456-.07.874-.21 1.254-.14.38-.34.71-.6.99-.26.28-.57.498-.93.654-.36.156-.756.234-1.188.234zm7.404 1.14v-3.168c0-.192.028-.382.084-.57.056-.188.138-.354.246-.498.108-.144.246-.262.414-.354.168-.092.368-.138.6-.138.232 0 .418.048.558.144.14.096.25.218.33.366.08.148.132.314.156.498.024.184.036.36.036.528V58h1.44v-3.6c0-.296-.04-.584-.12-.864a2.112 2.112 0 00-.378-.744 1.904 1.904 0 00-.66-.522c-.268-.132-.59-.198-.966-.198-.432 0-.806.11-1.122.33-.316.22-.538.474-.666.762h-.024v-.924h-1.368V58h1.44zm8.94.168c.44 0 .834-.082 1.182-.246.348-.164.644-.384.888-.66s.432-.6.564-.972c.132-.372.198-.77.198-1.194a3.4 3.4 0 00-.204-1.188 2.9 2.9 0 00-.576-.96 2.692 2.692 0 00-2.016-.876 2.556 2.556 0 00-1.254.312c-.156.088-.29.184-.402.288a2.302 2.302 0 00-.276.3h-.036v-4.044h-1.44V58h1.368v-.864h.024c.2.336.478.592.834.768a2.55 2.55 0 001.146.264zm-.288-1.2c-.264 0-.5-.054-.708-.162a1.734 1.734 0 01-.534-.426 1.857 1.857 0 01-.336-.594 2.027 2.027 0 010-1.338 1.814 1.814 0 01.87-1.032 1.47 1.47 0 01.708-.168c.28 0 .524.054.732.162.208.108.38.25.516.426s.238.374.306.594a2.244 2.244 0 010 1.338 1.85 1.85 0 01-.306.6 1.521 1.521 0 01-1.248.6zm7.308 1.2c.432 0 .84-.076 1.224-.228.384-.152.716-.362.996-.63s.502-.59.666-.966c.164-.376.246-.792.246-1.248 0-.456-.082-.87-.246-1.242a2.904 2.904 0 00-.666-.954 2.936 2.936 0 00-.996-.612 3.457 3.457 0 00-1.224-.216c-.432 0-.84.072-1.224.216a2.936 2.936 0 00-.996.612c-.28.264-.502.582-.666.954a3.046 3.046 0 00-.246 1.242c0 .456.082.872.246 1.248.164.376.386.698.666.966s.612.478.996.63c.384.152.792.228 1.224.228zm0-1.2c-.288 0-.536-.056-.744-.168a1.602 1.602 0 01-.516-.432 1.85 1.85 0 01-.306-.6 2.244 2.244 0 010-1.338c.068-.22.17-.418.306-.594.136-.176.308-.318.516-.426.208-.108.456-.162.744-.162s.536.054.744.162c.208.108.38.25.516.426s.238.374.306.594a2.244 2.244 0 010 1.338 1.85 1.85 0 01-.306.6c-.136.176-.308.32-.516.432a1.548 1.548 0 01-.744.168zm6.276 1.176a2.36 2.36 0 001.092-.246c.32-.164.552-.374.696-.63h.036V58h1.344v-3.504c0-.288-.038-.576-.114-.864a2.017 2.017 0 00-.402-.78 2.061 2.061 0 00-.786-.564c-.332-.144-.754-.216-1.266-.216-.44 0-.874.076-1.302.228a3.25 3.25 0 00-1.134.684l.744.876c.184-.184.416-.34.696-.468.28-.128.572-.192.876-.192.36 0 .67.086.93.258.26.172.39.438.39.798v.144c-.448 0-.906.022-1.374.066a5.31 5.31 0 00-1.278.27 2.366 2.366 0 00-.942.588c-.244.256-.366.6-.366 1.032 0 .336.07.618.21.846.14.228.316.412.528.552.212.14.444.24.696.3.252.06.494.09.726.09zm.288-1.092c-.12 0-.24-.012-.36-.036a1.044 1.044 0 01-.324-.12.613.613 0 01-.324-.564c0-.216.072-.386.216-.51.144-.124.324-.22.54-.288.216-.068.452-.112.708-.132.256-.02.5-.03.732-.03h.324v.204c0 .456-.128.816-.384 1.08-.256.264-.632.396-1.128.396zm6 .948v-3.084c0-.104.02-.244.06-.42.04-.176.116-.348.228-.516a1.44 1.44 0 01.468-.432c.2-.12.464-.18.792-.18a1.695 1.695 0 01.444.06v-1.32a.664.664 0 00-.168-.03 2.895 2.895 0 00-.18-.006c-.384 0-.72.104-1.008.312a2.1 2.1 0 00-.672.816h-.024v-.96h-1.38V58h1.44zm5.196.168c.408 0 .79-.088 1.146-.264a1.96 1.96 0 00.834-.768h.024V58h1.368v-9.072h-1.44v4.044h-.036a2.302 2.302 0 00-.276-.3 2.114 2.114 0 00-.402-.288 2.556 2.556 0 00-1.254-.312 2.699 2.699 0 00-2.016.876 2.9 2.9 0 00-.576.96 3.4 3.4 0 00-.204 1.188c0 .424.066.822.198 1.194s.32.696.564.972c.244.276.54.496.888.66a2.74 2.74 0 001.182.246zm.288-1.2a1.521 1.521 0 01-1.248-.6 1.85 1.85 0 01-.306-.6 2.244 2.244 0 010-1.338c.068-.22.17-.418.306-.594.136-.176.308-.318.516-.426.208-.108.452-.162.732-.162.264 0 .5.056.708.168a1.814 1.814 0 01.87 1.032 2.027 2.027 0 010 1.338c-.076.22-.188.418-.336.594a1.734 1.734 0 01-.534.426 1.514 1.514 0 01-.708.162zm5.568-5.82a.952.952 0 00.666-.246.8.8 0 00.27-.618.8.8 0 00-.27-.618.952.952 0 00-.666-.246.886.886 0 00-.654.258.83.83 0 00-.258.606.83.83 0 00.258.606c.172.172.39.258.654.258zm.732 6.852v-5.76h-1.44V58h1.44zm3.192 0v-3.168c0-.192.028-.382.084-.57.056-.188.138-.354.246-.498.108-.144.246-.262.414-.354.168-.092.368-.138.6-.138.232 0 .418.048.558.144.14.096.25.218.33.366.08.148.132.314.156.498.024.184.036.36.036.528V58h1.44v-3.6c0-.296-.04-.584-.12-.864a2.112 2.112 0 00-.378-.744 1.904 1.904 0 00-.66-.522c-.268-.132-.59-.198-.966-.198-.432 0-.806.11-1.122.33-.316.22-.538.474-.666.762h-.024v-.924h-1.368V58h1.44zm8.148 2.88c.56 0 1.044-.08 1.452-.24.408-.16.746-.386 1.014-.678a2.73 2.73 0 00.594-1.068c.128-.42.192-.89.192-1.41V52.24h-1.368v.864h-.024a1.925 1.925 0 00-.84-.78 2.612 2.612 0 00-1.14-.252c-.432 0-.822.08-1.17.24-.348.16-.644.376-.888.648a2.872 2.872 0 00-.564.96c-.132.368-.198.76-.198 1.176 0 .408.068.794.204 1.158.136.364.326.682.57.954.244.272.542.488.894.648.352.16.744.24 1.176.24.4 0 .762-.074 1.086-.222.324-.148.59-.362.798-.642h.024v.42c0 .288-.03.552-.09.792s-.16.448-.3.624c-.14.176-.328.314-.564.414-.236.1-.526.15-.87.15a2.972 2.972 0 01-2.016-.816l-.828 1.116a3.5 3.5 0 00.624.408c.232.12.474.22.726.3a5.095 5.095 0 001.506.24zm.168-3.972c-.256 0-.486-.052-.69-.156a1.584 1.584 0 01-.516-.414 2.01 2.01 0 01-.438-1.254c0-.256.038-.496.114-.72.076-.224.184-.418.324-.582a1.52 1.52 0 01.516-.39 1.63 1.63 0 01.702-.144 1.592 1.592 0 011.242.54c.148.168.262.364.342.588a2.09 2.09 0 010 1.398c-.08.22-.194.414-.342.582a1.646 1.646 0 01-.54.402c-.212.1-.45.15-.714.15zm9.48 1.092v-4.608h1.332V52.24h-1.332v-.936c0-.144.012-.292.036-.444a1.33 1.33 0 01.138-.42.814.814 0 01.294-.312.94.94 0 01.504-.12c.104 0 .202.008.294.024.092.016.178.036.258.06l.096-1.224a2.008 2.008 0 00-.33-.066 3.739 3.739 0 00-.402-.018c-.448 0-.82.07-1.116.21-.296.14-.534.33-.714.57-.18.24-.308.518-.384.834a4.22 4.22 0 00-.114.99v.852h-1.092v1.152h1.092V58h1.44zm3.828 0v-9.072h-1.44V58h1.44zm4.416.168c.432 0 .84-.076 1.224-.228.384-.152.716-.362.996-.63s.502-.59.666-.966c.164-.376.246-.792.246-1.248 0-.456-.082-.87-.246-1.242a2.904 2.904 0 00-.666-.954 2.936 2.936 0 00-.996-.612 3.457 3.457 0 00-1.224-.216c-.432 0-.84.072-1.224.216a2.936 2.936 0 00-.996.612c-.28.264-.502.582-.666.954a3.046 3.046 0 00-.246 1.242c0 .456.082.872.246 1.248.164.376.386.698.666.966s.612.478.996.63c.384.152.792.228 1.224.228zm0-1.2c-.288 0-.536-.056-.744-.168a1.602 1.602 0 01-.516-.432 1.85 1.85 0 01-.306-.6 2.244 2.244 0 010-1.338c.068-.22.17-.418.306-.594.136-.176.308-.318.516-.426.208-.108.456-.162.744-.162s.536.054.744.162c.208.108.38.25.516.426s.238.374.306.594a2.244 2.244 0 010 1.338 1.85 1.85 0 01-.306.6c-.136.176-.308.32-.516.432a1.548 1.548 0 01-.744.168zM239.374 58l1.296-4.032h.024L242.002 58h1.464l1.992-5.76h-1.5l-1.224 4.128h-.024l-1.248-4.128h-1.536l-1.236 4.128h-.024l-1.2-4.128h-1.56L237.91 58h1.464zm8.676.168c.312 0 .614-.034.906-.102.292-.068.548-.178.768-.33.22-.152.396-.35.528-.594s.198-.542.198-.894c0-.28-.056-.518-.168-.714a1.567 1.567 0 00-.438-.492 2.388 2.388 0 00-.6-.318 5.24 5.24 0 00-.654-.192 5.819 5.819 0 01-.93-.282c-.212-.092-.318-.25-.318-.474 0-.224.096-.384.288-.48.192-.096.404-.144.636-.144.264 0 .508.062.732.186.224.124.4.27.528.438l.936-.828a2.057 2.057 0 00-.942-.66 3.538 3.538 0 00-1.218-.216c-.288 0-.568.036-.84.108a2.345 2.345 0 00-.732.33 1.7 1.7 0 00-.522.57 1.647 1.647 0 00-.198.828c0 .272.048.5.144.684.096.184.224.338.384.462s.342.224.546.3c.204.076.414.138.63.186.44.104.77.208.99.312.22.104.33.276.33.516a.592.592 0 01-.084.324.621.621 0 01-.222.21c-.092.052-.192.09-.3.114a1.463 1.463 0 01-.318.036c-.312 0-.596-.068-.852-.204a1.894 1.894 0 01-.624-.516l-.948.888c.28.304.632.538 1.056.702.424.164.86.246 1.308.246zM113.852 78v-3.516h1.164c.448 0 .872-.044 1.272-.132.4-.088.75-.23 1.05-.426.3-.196.538-.454.714-.774.176-.32.264-.716.264-1.188 0-.44-.076-.816-.228-1.128a2.011 2.011 0 00-.648-.768 2.75 2.75 0 00-1.008-.432 6.044 6.044 0 00-1.32-.132h-2.772V78h1.512zm1.056-4.788h-1.056v-2.436h1.104c.232 0 .458.014.678.042.22.028.416.086.588.174s.31.21.414.366c.104.156.156.358.156.606 0 .256-.052.464-.156.624-.104.16-.244.286-.42.378a1.957 1.957 0 01-.6.192 4.46 4.46 0 01-.708.054zM120.476 78v-3.084c0-.104.02-.244.06-.42.04-.176.116-.348.228-.516a1.44 1.44 0 01.468-.432c.2-.12.464-.18.792-.18a1.695 1.695 0 01.444.06v-1.32a.664.664 0 00-.168-.03 2.895 2.895 0 00-.18-.006c-.384 0-.72.104-1.008.312a2.1 2.1 0 00-.672.816h-.024v-.96h-1.38V78h1.44zm5.508.168c.432 0 .84-.076 1.224-.228.384-.152.716-.362.996-.63s.502-.59.666-.966c.164-.376.246-.792.246-1.248 0-.456-.082-.87-.246-1.242a2.904 2.904 0 00-.666-.954 2.936 2.936 0 00-.996-.612 3.457 3.457 0 00-1.224-.216c-.432 0-.84.072-1.224.216a2.936 2.936 0 00-.996.612c-.28.264-.502.582-.666.954a3.046 3.046 0 00-.246 1.242c0 .456.082.872.246 1.248.164.376.386.698.666.966s.612.478.996.63c.384.152.792.228 1.224.228zm0-1.2c-.288 0-.536-.056-.744-.168a1.602 1.602 0 01-.516-.432 1.85 1.85 0 01-.306-.6 2.244 2.244 0 010-1.338c.068-.22.17-.418.306-.594.136-.176.308-.318.516-.426.208-.108.456-.162.744-.162s.536.054.744.162c.208.108.38.25.516.426s.238.374.306.594a2.244 2.244 0 010 1.338 1.85 1.85 0 01-.306.6c-.136.176-.308.32-.516.432a1.548 1.548 0 01-.744.168zm7.008 1.2c.408 0 .79-.088 1.146-.264a1.96 1.96 0 00.834-.768h.024V78h1.368v-9.072h-1.44v4.044h-.036a2.302 2.302 0 00-.276-.3 2.114 2.114 0 00-.402-.288 2.556 2.556 0 00-1.254-.312 2.699 2.699 0 00-2.016.876 2.9 2.9 0 00-.576.96 3.4 3.4 0 00-.204 1.188c0 .424.066.822.198 1.194s.32.696.564.972c.244.276.54.496.888.66a2.74 2.74 0 001.182.246zm.288-1.2a1.521 1.521 0 01-1.248-.6 1.85 1.85 0 01-.306-.6 2.244 2.244 0 010-1.338c.068-.22.17-.418.306-.594.136-.176.308-.318.516-.426.208-.108.452-.162.732-.162.264 0 .5.056.708.168a1.814 1.814 0 01.87 1.032 2.027 2.027 0 010 1.338c-.076.22-.188.418-.336.594a1.734 1.734 0 01-.534.426 1.514 1.514 0 01-.708.162zm6.912 1.2c.432 0 .806-.11 1.122-.33.316-.22.538-.474.666-.762h.024V78h1.368v-5.76h-1.44v3.168c0 .192-.028.382-.084.57a1.567 1.567 0 01-.246.498 1.24 1.24 0 01-1.014.492c-.232 0-.418-.048-.558-.144a1.035 1.035 0 01-.33-.366 1.425 1.425 0 01-.156-.498 4.086 4.086 0 01-.036-.528V72.24h-1.44v3.6c0 .296.04.584.12.864.08.28.206.528.378.744.172.216.392.39.66.522s.59.198.966.198zm7.692 0c.432 0 .834-.07 1.206-.21.372-.14.678-.338.918-.594l-.9-.912a1.28 1.28 0 01-.54.384 1.826 1.826 0 01-.672.132c-.272 0-.51-.054-.714-.162a1.555 1.555 0 01-.51-.426 1.861 1.861 0 01-.306-.594 2.244 2.244 0 01-.102-.666c0-.224.032-.446.096-.666.064-.22.162-.418.294-.594a1.442 1.442 0 011.194-.588c.232 0 .46.054.684.162.224.108.392.242.504.402l.984-.864c-.232-.28-.546-.5-.942-.66a3.254 3.254 0 00-1.23-.24c-.424 0-.822.072-1.194.216a2.888 2.888 0 00-1.644 1.572 3.12 3.12 0 00-.246 1.26c0 .48.082.908.246 1.284.164.376.388.696.672.96.284.264.616.464.996.6.38.136.782.204 1.206.204zm5.124-.048c.16 0 .328-.014.504-.042.176-.028.328-.066.456-.114l-.048-1.128c-.088.04-.188.07-.3.09-.112.02-.216.03-.312.03-.32 0-.526-.084-.618-.252a1.313 1.313 0 01-.138-.636v-2.676h1.44V72.24h-1.44v-1.668h-1.416v1.668h-1.008v1.152h1.008v2.688c0 .28.026.542.078.786.052.244.148.46.288.648.14.188.33.336.57.444.24.108.552.162.936.162zm7.788.048c1.08 0 1.904-.384 2.472-1.152l-.96-.768c-.16.232-.364.414-.612.546-.248.132-.552.198-.912.198-.208 0-.408-.036-.6-.108a1.821 1.821 0 01-.516-.294 1.426 1.426 0 01-.528-1.014h4.38c.008-.064.012-.128.012-.192v-.192c0-.52-.07-.974-.21-1.362a2.727 2.727 0 00-.582-.972 2.407 2.407 0 00-.882-.588 3.041 3.041 0 00-1.11-.198c-.432 0-.834.074-1.206.222a2.872 2.872 0 00-.966.624 2.882 2.882 0 00-.642.972c-.156.38-.234.802-.234 1.266 0 .472.078.894.234 1.266.156.372.372.686.648.942.276.256.602.454.978.594.376.14.788.21 1.236.21zm1.296-3.624h-2.952c.032-.408.198-.742.498-1.002s.666-.39 1.098-.39c.232 0 .434.038.606.114.172.076.314.178.426.306.112.128.194.276.246.444.052.168.078.344.078.528zM166.364 78v-3.168c0-.192.028-.382.084-.57.056-.188.138-.354.246-.498.108-.144.246-.262.414-.354.168-.092.368-.138.6-.138.232 0 .418.048.558.144.14.096.25.218.33.366.08.148.132.314.156.498.024.184.036.36.036.528V78h1.44v-3.6c0-.296-.04-.584-.12-.864a2.112 2.112 0 00-.378-.744 1.904 1.904 0 00-.66-.522c-.268-.132-.59-.198-.966-.198-.432 0-.806.11-1.122.33-.316.22-.538.474-.666.762h-.024v-.924h-1.368V78h1.44zm8.148 2.88c.56 0 1.044-.08 1.452-.24.408-.16.746-.386 1.014-.678a2.73 2.73 0 00.594-1.068c.128-.42.192-.89.192-1.41V72.24h-1.368v.864h-.024a1.925 1.925 0 00-.84-.78 2.612 2.612 0 00-1.14-.252c-.432 0-.822.08-1.17.24-.348.16-.644.376-.888.648a2.872 2.872 0 00-.564.96c-.132.368-.198.76-.198 1.176 0 .408.068.794.204 1.158.136.364.326.682.57.954.244.272.542.488.894.648.352.16.744.24 1.176.24.4 0 .762-.074 1.086-.222.324-.148.59-.362.798-.642h.024v.42c0 .288-.03.552-.09.792s-.16.448-.3.624c-.14.176-.328.314-.564.414-.236.1-.526.15-.87.15a2.972 2.972 0 01-2.016-.816l-.828 1.116a3.5 3.5 0 00.624.408c.232.12.474.22.726.3a5.095 5.095 0 001.506.24zm.168-3.972c-.256 0-.486-.052-.69-.156a1.584 1.584 0 01-.516-.414 2.01 2.01 0 01-.438-1.254c0-.256.038-.496.114-.72.076-.224.184-.418.324-.582a1.52 1.52 0 01.516-.39 1.63 1.63 0 01.702-.144 1.592 1.592 0 011.242.54c.148.168.262.364.342.588a2.09 2.09 0 010 1.398c-.08.22-.194.414-.342.582a1.646 1.646 0 01-.54.402c-.212.1-.45.15-.714.15zm6.564 1.236a2.36 2.36 0 001.092-.246c.32-.164.552-.374.696-.63h.036V78h1.344v-3.504c0-.288-.038-.576-.114-.864a2.017 2.017 0 00-.402-.78 2.061 2.061 0 00-.786-.564c-.332-.144-.754-.216-1.266-.216-.44 0-.874.076-1.302.228a3.25 3.25 0 00-1.134.684l.744.876c.184-.184.416-.34.696-.468.28-.128.572-.192.876-.192.36 0 .67.086.93.258.26.172.39.438.39.798v.144c-.448 0-.906.022-1.374.066a5.31 5.31 0 00-1.278.27 2.366 2.366 0 00-.942.588c-.244.256-.366.6-.366 1.032 0 .336.07.618.21.846.14.228.316.412.528.552.212.14.444.24.696.3.252.06.494.09.726.09zm.288-1.092c-.12 0-.24-.012-.36-.036a1.044 1.044 0 01-.324-.12.613.613 0 01-.324-.564c0-.216.072-.386.216-.51.144-.124.324-.22.54-.288.216-.068.452-.112.708-.132.256-.02.5-.03.732-.03h.324v.204c0 .456-.128.816-.384 1.08-.256.264-.632.396-1.128.396zm7.164 3.828c.56 0 1.044-.08 1.452-.24.408-.16.746-.386 1.014-.678a2.73 2.73 0 00.594-1.068c.128-.42.192-.89.192-1.41V72.24h-1.368v.864h-.024a1.925 1.925 0 00-.84-.78 2.612 2.612 0 00-1.14-.252c-.432 0-.822.08-1.17.24-.348.16-.644.376-.888.648a2.872 2.872 0 00-.564.96c-.132.368-.198.76-.198 1.176 0 .408.068.794.204 1.158.136.364.326.682.57.954.244.272.542.488.894.648.352.16.744.24 1.176.24.4 0 .762-.074 1.086-.222.324-.148.59-.362.798-.642h.024v.42c0 .288-.03.552-.09.792s-.16.448-.3.624c-.14.176-.328.314-.564.414-.236.1-.526.15-.87.15a2.972 2.972 0 01-2.016-.816l-.828 1.116a3.5 3.5 0 00.624.408c.232.12.474.22.726.3a5.095 5.095 0 001.506.24zm.168-3.972c-.256 0-.486-.052-.69-.156a1.584 1.584 0 01-.516-.414 2.01 2.01 0 01-.438-1.254c0-.256.038-.496.114-.72.076-.224.184-.418.324-.582a1.52 1.52 0 01.516-.39 1.63 1.63 0 01.702-.144 1.592 1.592 0 011.242.54c.148.168.262.364.342.588a2.09 2.09 0 010 1.398c-.08.22-.194.414-.342.582a1.646 1.646 0 01-.54.402c-.212.1-.45.15-.714.15zm7.572 1.26c1.08 0 1.904-.384 2.472-1.152l-.96-.768c-.16.232-.364.414-.612.546-.248.132-.552.198-.912.198-.208 0-.408-.036-.6-.108a1.821 1.821 0 01-.516-.294 1.426 1.426 0 01-.528-1.014h4.38c.008-.064.012-.128.012-.192v-.192c0-.52-.07-.974-.21-1.362a2.727 2.727 0 00-.582-.972 2.407 2.407 0 00-.882-.588 3.041 3.041 0 00-1.11-.198c-.432 0-.834.074-1.206.222a2.872 2.872 0 00-.966.624 2.882 2.882 0 00-.642.972c-.156.38-.234.802-.234 1.266 0 .472.078.894.234 1.266.156.372.372.686.648.942.276.256.602.454.978.594.376.14.788.21 1.236.21zm1.296-3.624h-2.952c.032-.408.198-.742.498-1.002s.666-.39 1.098-.39c.232 0 .434.038.606.114.172.076.314.178.426.306.112.128.194.276.246.444.052.168.078.344.078.528zM202.004 78v-3.168c0-.192.026-.382.078-.57.052-.188.128-.354.228-.498.1-.144.23-.262.39-.354.16-.092.348-.138.564-.138.368 0 .638.118.81.354.172.236.258.534.258.894V78h1.44v-3.144c0-.184.024-.37.072-.558.048-.188.124-.358.228-.51.104-.152.236-.276.396-.372a1.1 1.1 0 01.576-.144c.232 0 .418.048.558.144.14.096.25.218.33.366.08.148.132.314.156.498.024.184.036.36.036.528V78h1.44v-3.6c0-.296-.04-.584-.12-.864a2.112 2.112 0 00-.378-.744 1.904 1.904 0 00-.66-.522c-.268-.132-.59-.198-.966-.198-.432 0-.808.094-1.128.282-.32.188-.576.458-.768.81a1.991 1.991 0 00-.684-.792c-.296-.2-.668-.3-1.116-.3-.232 0-.444.03-.636.09s-.362.142-.51.246c-.148.104-.276.22-.384.348a1.706 1.706 0 00-.258.408h-.024v-.924h-1.368V78h1.44zm12 .168c1.08 0 1.904-.384 2.472-1.152l-.96-.768c-.16.232-.364.414-.612.546-.248.132-.552.198-.912.198-.208 0-.408-.036-.6-.108a1.821 1.821 0 01-.516-.294 1.426 1.426 0 01-.528-1.014h4.38c.008-.064.012-.128.012-.192v-.192c0-.52-.07-.974-.21-1.362a2.727 2.727 0 00-.582-.972 2.407 2.407 0 00-.882-.588 3.041 3.041 0 00-1.11-.198c-.432 0-.834.074-1.206.222a2.872 2.872 0 00-.966.624 2.882 2.882 0 00-.642.972c-.156.38-.234.802-.234 1.266 0 .472.078.894.234 1.266.156.372.372.686.648.942.276.256.602.454.978.594.376.14.788.21 1.236.21zm1.296-3.624h-2.952c.032-.408.198-.742.498-1.002s.666-.39 1.098-.39c.232 0 .434.038.606.114.172.076.314.178.426.306.112.128.194.276.246.444.052.168.078.344.078.528zM219.572 78v-3.168c0-.192.028-.382.084-.57.056-.188.138-.354.246-.498.108-.144.246-.262.414-.354.168-.092.368-.138.6-.138.232 0 .418.048.558.144.14.096.25.218.33.366.08.148.132.314.156.498.024.184.036.36.036.528V78h1.44v-3.6c0-.296-.04-.584-.12-.864a2.112 2.112 0 00-.378-.744 1.904 1.904 0 00-.66-.522c-.268-.132-.59-.198-.966-.198-.432 0-.806.11-1.122.33-.316.22-.538.474-.666.762h-.024v-.924h-1.368V78h1.44zm7.596.12c.16 0 .328-.014.504-.042.176-.028.328-.066.456-.114l-.048-1.128c-.088.04-.188.07-.3.09-.112.02-.216.03-.312.03-.32 0-.526-.084-.618-.252a1.313 1.313 0 01-.138-.636v-2.676h1.44V72.24h-1.44v-1.668h-1.416v1.668h-1.008v1.152h1.008v2.688c0 .28.026.542.078.786.052.244.148.46.288.648.14.188.33.336.57.444.24.108.552.162.936.162zm7.68-.12l1.296-4.032h.024L237.476 78h1.464l1.992-5.76h-1.5l-1.224 4.128h-.024l-1.248-4.128H235.4l-1.236 4.128h-.024l-1.2-4.128h-1.56l2.004 5.76h1.464zm9.792.168c.432 0 .84-.076 1.224-.228.384-.152.716-.362.996-.63s.502-.59.666-.966c.164-.376.246-.792.246-1.248 0-.456-.082-.87-.246-1.242a2.904 2.904 0 00-.666-.954 2.936 2.936 0 00-.996-.612 3.457 3.457 0 00-1.224-.216c-.432 0-.84.072-1.224.216a2.936 2.936 0 00-.996.612c-.28.264-.502.582-.666.954a3.046 3.046 0 00-.246 1.242c0 .456.082.872.246 1.248.164.376.386.698.666.966s.612.478.996.63c.384.152.792.228 1.224.228zm0-1.2c-.288 0-.536-.056-.744-.168a1.602 1.602 0 01-.516-.432 1.85 1.85 0 01-.306-.6 2.244 2.244 0 010-1.338c.068-.22.17-.418.306-.594.136-.176.308-.318.516-.426.208-.108.456-.162.744-.162s.536.054.744.162c.208.108.38.25.516.426s.238.374.306.594a2.244 2.244 0 010 1.338 1.85 1.85 0 01-.306.6c-.136.176-.308.32-.516.432a1.548 1.548 0 01-.744.168zM250.604 78v-3.084c0-.104.02-.244.06-.42.04-.176.116-.348.228-.516a1.44 1.44 0 01.468-.432c.2-.12.464-.18.792-.18a1.695 1.695 0 01.444.06v-1.32a.664.664 0 00-.168-.03 2.895 2.895 0 00-.18-.006c-.384 0-.72.104-1.008.312a2.1 2.1 0 00-.672.816h-.024v-.96h-1.38V78h1.44zm4.392 0v-2.952h.036l2.28 2.952h1.908l-2.652-3.156 2.496-2.604h-1.848l-2.184 2.424h-.036v-5.736h-1.44V78h1.44zm6.72 0v-4.608h1.332V72.24h-1.332v-.936c0-.144.012-.292.036-.444a1.33 1.33 0 01.138-.42.814.814 0 01.294-.312.94.94 0 01.504-.12c.104 0 .202.008.294.024.092.016.178.036.258.06l.096-1.224a2.008 2.008 0 00-.33-.066 3.739 3.739 0 00-.402-.018c-.448 0-.82.07-1.116.21-.296.14-.534.33-.714.57-.18.24-.308.518-.384.834a4.22 4.22 0 00-.114.99v.852h-1.092v1.152h1.092V78h1.44zm3.828 0v-9.072h-1.44V78h1.44zm4.416.168c.432 0 .84-.076 1.224-.228.384-.152.716-.362.996-.63s.502-.59.666-.966c.164-.376.246-.792.246-1.248 0-.456-.082-.87-.246-1.242a2.904 2.904 0 00-.666-.954 2.936 2.936 0 00-.996-.612 3.457 3.457 0 00-1.224-.216c-.432 0-.84.072-1.224.216a2.936 2.936 0 00-.996.612c-.28.264-.502.582-.666.954a3.046 3.046 0 00-.246 1.242c0 .456.082.872.246 1.248.164.376.386.698.666.966s.612.478.996.63c.384.152.792.228 1.224.228zm0-1.2c-.288 0-.536-.056-.744-.168a1.602 1.602 0 01-.516-.432 1.85 1.85 0 01-.306-.6 2.244 2.244 0 010-1.338c.068-.22.17-.418.306-.594.136-.176.308-.318.516-.426.208-.108.456-.162.744-.162s.536.054.744.162c.208.108.38.25.516.426s.238.374.306.594a2.244 2.244 0 010 1.338 1.85 1.85 0 01-.306.6c-.136.176-.308.32-.516.432a1.548 1.548 0 01-.744.168zM277.136 78l1.296-4.032h.024L279.764 78h1.464l1.992-5.76h-1.5l-1.224 4.128h-.024l-1.248-4.128h-1.536l-1.236 4.128h-.024l-1.2-4.128h-1.56l2.004 5.76h1.464zm8.676.168c.312 0 .614-.034.906-.102.292-.068.548-.178.768-.33.22-.152.396-.35.528-.594s.198-.542.198-.894c0-.28-.056-.518-.168-.714a1.567 1.567 0 00-.438-.492 2.388 2.388 0 00-.6-.318 5.24 5.24 0 00-.654-.192 5.819 5.819 0 01-.93-.282c-.212-.092-.318-.25-.318-.474 0-.224.096-.384.288-.48.192-.096.404-.144.636-.144.264 0 .508.062.732.186.224.124.4.27.528.438l.936-.828a2.057 2.057 0 00-.942-.66 3.538 3.538 0 00-1.218-.216c-.288 0-.568.036-.84.108a2.345 2.345 0 00-.732.33 1.7 1.7 0 00-.522.57 1.647 1.647 0 00-.198.828c0 .272.048.5.144.684.096.184.224.338.384.462s.342.224.546.3c.204.076.414.138.63.186.44.104.77.208.99.312.22.104.33.276.33.516a.592.592 0 01-.084.324.621.621 0 01-.222.21c-.092.052-.192.09-.3.114a1.463 1.463 0 01-.318.036c-.312 0-.596-.068-.852-.204a1.894 1.894 0 01-.624-.516l-.948.888c.28.304.632.538 1.056.702.424.164.86.246 1.308.246zM120.098 38l1.992-6.372h.024L124.106 38h1.464l2.484-8.496h-1.608l-1.68 6.24h-.024l-1.836-6.24h-1.56l-1.872 6.24h-.024l-1.644-6.24h-1.656L118.634 38h1.464zm11.22.168c1.08 0 1.904-.384 2.472-1.152l-.96-.768c-.16.232-.364.414-.612.546-.248.132-.552.198-.912.198-.208 0-.408-.036-.6-.108a1.821 1.821 0 01-.516-.294 1.426 1.426 0 01-.528-1.014h4.38c.008-.064.012-.128.012-.192v-.192c0-.52-.07-.974-.21-1.362a2.727 2.727 0 00-.582-.972 2.407 2.407 0 00-.882-.588 3.041 3.041 0 00-1.11-.198c-.432 0-.834.074-1.206.222a2.872 2.872 0 00-.966.624 2.882 2.882 0 00-.642.972c-.156.38-.234.802-.234 1.266 0 .472.078.894.234 1.266.156.372.372.686.648.942.276.256.602.454.978.594.376.14.788.21 1.236.21zm1.296-3.624h-2.952c.032-.408.198-.742.498-1.002s.666-.39 1.098-.39c.232 0 .434.038.606.114.172.076.314.178.426.306.112.128.194.276.246.444.052.168.078.344.078.528zm5.592 3.624c1.08 0 1.904-.384 2.472-1.152l-.96-.768c-.16.232-.364.414-.612.546-.248.132-.552.198-.912.198-.208 0-.408-.036-.6-.108a1.821 1.821 0 01-.516-.294 1.426 1.426 0 01-.528-1.014h4.38c.008-.064.012-.128.012-.192v-.192c0-.52-.07-.974-.21-1.362a2.727 2.727 0 00-.582-.972 2.407 2.407 0 00-.882-.588 3.041 3.041 0 00-1.11-.198c-.432 0-.834.074-1.206.222a2.872 2.872 0 00-.966.624 2.882 2.882 0 00-.642.972c-.156.38-.234.802-.234 1.266 0 .472.078.894.234 1.266.156.372.372.686.648.942.276.256.602.454.978.594.376.14.788.21 1.236.21zm1.296-3.624h-2.952c.032-.408.198-.742.498-1.002s.666-.39 1.098-.39c.232 0 .434.038.606.114.172.076.314.178.426.306.112.128.194.276.246.444.052.168.078.344.078.528zM143.798 38v-2.952h.036l2.28 2.952h1.908l-2.652-3.156 2.496-2.604h-1.848l-2.184 2.424h-.036v-5.736h-1.44V38h1.44zm6.516 0v-9.072h-1.44V38h1.44zm2.136 2.88c.32 0 .594-.036.822-.108a1.73 1.73 0 00.594-.318c.168-.14.312-.312.432-.516.12-.204.232-.438.336-.702l2.724-6.996h-1.5l-1.428 4.188h-.024l-1.608-4.188h-1.596l2.472 5.76-.288.732a6.774 6.774 0 01-.18.396c-.056.112-.12.206-.192.282a.65.65 0 01-.264.168 1.184 1.184 0 01-.384.054c-.08 0-.166-.006-.258-.018a1.509 1.509 0 01-.282-.066l-.12 1.248c.128.032.254.054.378.066.124.012.246.018.366.018zM167.138 38v-1.344h-4.332v-2.4h3.9v-1.272h-3.9v-2.16h4.116v-1.32h-5.628V38h5.844zm4.488 0c.552 0 1.108-.082 1.668-.246a4.565 4.565 0 001.512-.762 3.93 3.93 0 001.092-1.32c.28-.536.42-1.176.42-1.92 0-.8-.14-1.47-.42-2.01a3.737 3.737 0 00-1.092-1.308 4.32 4.32 0 00-1.512-.714 6.677 6.677 0 00-1.668-.216h-3.012V38h3.012zm-.24-1.32h-1.26V30.8h1.26c.392 0 .784.04 1.176.12.392.08.746.228 1.062.444.316.216.574.516.774.9.2.384.3.88.3 1.488 0 .576-.1 1.052-.3 1.428a2.49 2.49 0 01-.774.894c-.316.22-.67.376-1.062.468a5.132 5.132 0 01-1.176.138zm7.836 1.32v-6.828h.024L181.79 38h1.056l2.58-6.828h.024V38h1.5v-8.496h-2.376l-2.184 6.036h-.036l-2.208-6.036h-2.364V38h1.44zm11.208.168c.312 0 .614-.034.906-.102.292-.068.548-.178.768-.33.22-.152.396-.35.528-.594s.198-.542.198-.894c0-.28-.056-.518-.168-.714a1.567 1.567 0 00-.438-.492 2.388 2.388 0 00-.6-.318 5.24 5.24 0 00-.654-.192 5.819 5.819 0 01-.93-.282c-.212-.092-.318-.25-.318-.474 0-.224.096-.384.288-.48.192-.096.404-.144.636-.144.264 0 .508.062.732.186.224.124.4.27.528.438l.936-.828a2.057 2.057 0 00-.942-.66 3.538 3.538 0 00-1.218-.216c-.288 0-.568.036-.84.108a2.345 2.345 0 00-.732.33 1.7 1.7 0 00-.522.57 1.647 1.647 0 00-.198.828c0 .272.048.5.144.684.096.184.224.338.384.462s.342.224.546.3c.204.076.414.138.63.186.44.104.77.208.99.312.22.104.33.276.33.516a.592.592 0 01-.084.324.621.621 0 01-.222.21c-.092.052-.192.09-.3.114a1.463 1.463 0 01-.318.036c-.312 0-.596-.068-.852-.204a1.894 1.894 0 01-.624-.516l-.948.888c.28.304.632.538 1.056.702.424.164.86.246 1.308.246zm8.4-.024a2.36 2.36 0 001.092-.246c.32-.164.552-.374.696-.63h.036V38h1.344v-3.504c0-.288-.038-.576-.114-.864a2.017 2.017 0 00-.402-.78 2.061 2.061 0 00-.786-.564c-.332-.144-.754-.216-1.266-.216-.44 0-.874.076-1.302.228a3.25 3.25 0 00-1.134.684l.744.876c.184-.184.416-.34.696-.468.28-.128.572-.192.876-.192.36 0 .67.086.93.258.26.172.39.438.39.798v.144c-.448 0-.906.022-1.374.066a5.31 5.31 0 00-1.278.27 2.366 2.366 0 00-.942.588c-.244.256-.366.6-.366 1.032 0 .336.07.618.21.846.14.228.316.412.528.552.212.14.444.24.696.3.252.06.494.09.726.09zm.288-1.092c-.12 0-.24-.012-.36-.036a1.044 1.044 0 01-.324-.12.613.613 0 01-.324-.564c0-.216.072-.386.216-.51.144-.124.324-.22.54-.288.216-.068.452-.112.708-.132.256-.02.5-.03.732-.03h.324v.204c0 .456-.128.816-.384 1.08-.256.264-.632.396-1.128.396zm6 .948v-3.168c0-.192.028-.382.084-.57.056-.188.138-.354.246-.498.108-.144.246-.262.414-.354.168-.092.368-.138.6-.138.232 0 .418.048.558.144.14.096.25.218.33.366.08.148.132.314.156.498.024.184.036.36.036.528V38h1.44v-3.6c0-.296-.04-.584-.12-.864a2.112 2.112 0 00-.378-.744 1.904 1.904 0 00-.66-.522c-.268-.132-.59-.198-.966-.198-.432 0-.806.11-1.122.33-.316.22-.538.474-.666.762h-.024v-.924h-1.368V38h1.44zm8.028.168c.408 0 .79-.088 1.146-.264a1.96 1.96 0 00.834-.768h.024V38h1.368v-9.072h-1.44v4.044h-.036a2.302 2.302 0 00-.276-.3 2.114 2.114 0 00-.402-.288 2.556 2.556 0 00-1.254-.312 2.699 2.699 0 00-2.016.876 2.9 2.9 0 00-.576.96 3.4 3.4 0 00-.204 1.188c0 .424.066.822.198 1.194s.32.696.564.972c.244.276.54.496.888.66a2.74 2.74 0 001.182.246zm.288-1.2a1.521 1.521 0 01-1.248-.6 1.85 1.85 0 01-.306-.6 2.244 2.244 0 010-1.338c.068-.22.17-.418.306-.594.136-.176.308-.318.516-.426.208-.108.452-.162.732-.162.264 0 .5.056.708.168a1.814 1.814 0 01.87 1.032 2.027 2.027 0 010 1.338c-.076.22-.188.418-.336.594a1.734 1.734 0 01-.534.426 1.514 1.514 0 01-.708.162zM222.71 38v-3.168c0-.192.028-.382.084-.57.056-.188.138-.354.246-.498.108-.144.246-.262.414-.354.168-.092.368-.138.6-.138.232 0 .418.048.558.144.14.096.25.218.33.366.08.148.132.314.156.498.024.184.036.36.036.528V38h1.44v-3.6c0-.296-.04-.584-.12-.864a2.112 2.112 0 00-.378-.744 1.904 1.904 0 00-.66-.522c-.268-.132-.59-.198-.966-.198-.432 0-.806.11-1.122.33-.316.22-.538.474-.666.762h-.024v-.924h-1.368V38h1.44zm8.304.168c1.08 0 1.904-.384 2.472-1.152l-.96-.768c-.16.232-.364.414-.612.546-.248.132-.552.198-.912.198-.208 0-.408-.036-.6-.108a1.821 1.821 0 01-.516-.294 1.426 1.426 0 01-.528-1.014h4.38c.008-.064.012-.128.012-.192v-.192c0-.52-.07-.974-.21-1.362a2.727 2.727 0 00-.582-.972 2.407 2.407 0 00-.882-.588 3.041 3.041 0 00-1.11-.198c-.432 0-.834.074-1.206.222a2.872 2.872 0 00-.966.624 2.882 2.882 0 00-.642.972c-.156.38-.234.802-.234 1.266 0 .472.078.894.234 1.266.156.372.372.686.648.942.276.256.602.454.978.594.376.14.788.21 1.236.21zm1.296-3.624h-2.952c.032-.408.198-.742.498-1.002s.666-.39 1.098-.39c.232 0 .434.038.606.114.172.076.314.178.426.306.112.128.194.276.246.444.052.168.078.344.078.528zM237.794 38l1.296-4.032h.024L240.422 38h1.464l1.992-5.76h-1.5l-1.224 4.128h-.024l-1.248-4.128h-1.536l-1.236 4.128h-.024l-1.2-4.128h-1.56L236.33 38h1.464zm8.676.168c.312 0 .614-.034.906-.102.292-.068.548-.178.768-.33.22-.152.396-.35.528-.594s.198-.542.198-.894c0-.28-.056-.518-.168-.714a1.567 1.567 0 00-.438-.492 2.388 2.388 0 00-.6-.318 5.24 5.24 0 00-.654-.192 5.819 5.819 0 01-.93-.282c-.212-.092-.318-.25-.318-.474 0-.224.096-.384.288-.48.192-.096.404-.144.636-.144.264 0 .508.062.732.186.224.124.4.27.528.438l.936-.828a2.057 2.057 0 00-.942-.66 3.538 3.538 0 00-1.218-.216c-.288 0-.568.036-.84.108a2.345 2.345 0 00-.732.33 1.7 1.7 0 00-.522.57 1.647 1.647 0 00-.198.828c0 .272.048.5.144.684.096.184.224.338.384.462s.342.224.546.3c.204.076.414.138.63.186.44.104.77.208.99.312.22.104.33.276.33.516a.592.592 0 01-.084.324.621.621 0 01-.222.21c-.092.052-.192.09-.3.114a1.463 1.463 0 01-.318.036c-.312 0-.596-.068-.852-.204a1.894 1.894 0 01-.624-.516l-.948.888c.28.304.632.538 1.056.702.424.164.86.246 1.308.246zm5.112-.168v-9.072h-1.44V38h1.44zm4.512.168c1.08 0 1.904-.384 2.472-1.152l-.96-.768c-.16.232-.364.414-.612.546-.248.132-.552.198-.912.198-.208 0-.408-.036-.6-.108a1.821 1.821 0 01-.516-.294 1.426 1.426 0 01-.528-1.014h4.38c.008-.064.012-.128.012-.192v-.192c0-.52-.07-.974-.21-1.362a2.727 2.727 0 00-.582-.972 2.407 2.407 0 00-.882-.588 3.041 3.041 0 00-1.11-.198c-.432 0-.834.074-1.206.222a2.872 2.872 0 00-.966.624 2.882 2.882 0 00-.642.972c-.156.38-.234.802-.234 1.266 0 .472.078.894.234 1.266.156.372.372.686.648.942.276.256.602.454.978.594.376.14.788.21 1.236.21zm1.296-3.624h-2.952c.032-.408.198-.742.498-1.002s.666-.39 1.098-.39c.232 0 .434.038.606.114.172.076.314.178.426.306.112.128.194.276.246.444.052.168.078.344.078.528zm4.884 3.576c.16 0 .328-.014.504-.042.176-.028.328-.066.456-.114l-.048-1.128c-.088.04-.188.07-.3.09-.112.02-.216.03-.312.03-.32 0-.526-.084-.618-.252a1.313 1.313 0 01-.138-.636v-2.676h1.44V32.24h-1.44v-1.668h-1.416v1.668h-1.008v1.152h1.008v2.688c0 .28.026.542.078.786.052.244.148.46.288.648.14.188.33.336.57.444.24.108.552.162.936.162zm3.9 0c.16 0 .328-.014.504-.042.176-.028.328-.066.456-.114l-.048-1.128c-.088.04-.188.07-.3.09-.112.02-.216.03-.312.03-.32 0-.526-.084-.618-.252a1.313 1.313 0 01-.138-.636v-2.676h1.44V32.24h-1.44v-1.668h-1.416v1.668h-1.008v1.152h1.008v2.688c0 .28.026.542.078.786.052.244.148.46.288.648.14.188.33.336.57.444.24.108.552.162.936.162zm4.788.048c1.08 0 1.904-.384 2.472-1.152l-.96-.768c-.16.232-.364.414-.612.546-.248.132-.552.198-.912.198-.208 0-.408-.036-.6-.108a1.821 1.821 0 01-.516-.294 1.426 1.426 0 01-.528-1.014h4.38c.008-.064.012-.128.012-.192v-.192c0-.52-.07-.974-.21-1.362a2.727 2.727 0 00-.582-.972 2.407 2.407 0 00-.882-.588 3.041 3.041 0 00-1.11-.198c-.432 0-.834.074-1.206.222a2.872 2.872 0 00-.966.624 2.882 2.882 0 00-.642.972c-.156.38-.234.802-.234 1.266 0 .472.078.894.234 1.266.156.372.372.686.648.942.276.256.602.454.978.594.376.14.788.21 1.236.21zm1.296-3.624h-2.952c.032-.408.198-.742.498-1.002s.666-.39 1.098-.39c.232 0 .434.038.606.114.172.076.314.178.426.306.112.128.194.276.246.444.052.168.078.344.078.528zM276.53 38v-3.084c0-.104.02-.244.06-.42.04-.176.116-.348.228-.516a1.44 1.44 0 01.468-.432c.2-.12.464-.18.792-.18a1.695 1.695 0 01.444.06v-1.32a.664.664 0 00-.168-.03 2.895 2.895 0 00-.18-.006c-.384 0-.72.104-1.008.312a2.1 2.1 0 00-.672.816h-.024v-.96h-1.38V38h1.44zm4.608.168c.312 0 .614-.034.906-.102.292-.068.548-.178.768-.33.22-.152.396-.35.528-.594s.198-.542.198-.894c0-.28-.056-.518-.168-.714a1.567 1.567 0 00-.438-.492 2.388 2.388 0 00-.6-.318 5.24 5.24 0 00-.654-.192 5.819 5.819 0 01-.93-.282c-.212-.092-.318-.25-.318-.474 0-.224.096-.384.288-.48.192-.096.404-.144.636-.144.264 0 .508.062.732.186.224.124.4.27.528.438l.936-.828a2.057 2.057 0 00-.942-.66 3.538 3.538 0 00-1.218-.216c-.288 0-.568.036-.84.108a2.345 2.345 0 00-.732.33 1.7 1.7 0 00-.522.57 1.647 1.647 0 00-.198.828c0 .272.048.5.144.684.096.184.224.338.384.462s.342.224.546.3c.204.076.414.138.63.186.44.104.77.208.99.312.22.104.33.276.33.516a.592.592 0 01-.084.324.621.621 0 01-.222.21c-.092.052-.192.09-.3.114a1.463 1.463 0 01-.318.036c-.312 0-.596-.068-.852-.204a1.894 1.894 0 01-.624-.516l-.948.888c.28.304.632.538 1.056.702.424.164.86.246 1.308.246z"/></g><path fill="#FFC111" fill-rule="nonzero" d="M101.5 119.5a4.5 4.5 0 01.5 8.972v143.885h4l-4.5 9-4.5-9h4V128.473a4.5 4.5 0 01.5-8.973zm0 1a3.5 3.5 0 100 7 3.5 3.5 0 000-7z"/><path stroke="#E1E1E1" stroke-width="2" d="M101.5 315.953l773.5.547"/><g transform="translate(17 17)"><rect width="80" height="80" fill="#FFC111" rx="8"/><path fill="#FFF" fill-rule="nonzero" d="M7.854 69l1.992-6.372h.024L11.862 69h1.464l2.484-8.496h-1.608l-1.68 6.24h-.024l-1.836-6.24h-1.56l-1.872 6.24h-.024l-1.644-6.24H3.906L6.39 69h1.464zm11.22.168c1.08 0 1.904-.384 2.472-1.152l-.96-.768c-.16.232-.364.414-.612.546-.248.132-.552.198-.912.198-.208 0-.408-.036-.6-.108a1.821 1.821 0 01-.516-.294 1.426 1.426 0 01-.528-1.014h4.38c.008-.064.012-.128.012-.192v-.192c0-.52-.07-.974-.21-1.362a2.727 2.727 0 00-.582-.972 2.407 2.407 0 00-.882-.588 3.041 3.041 0 00-1.11-.198c-.432 0-.834.074-1.206.222a2.872 2.872 0 00-.966.624 2.882 2.882 0 00-.642.972c-.156.38-.234.802-.234 1.266 0 .472.078.894.234 1.266.156.372.372.686.648.942.276.256.602.454.978.594.376.14.788.21 1.236.21zm1.296-3.624h-2.952c.032-.408.198-.742.498-1.002s.666-.39 1.098-.39c.232 0 .434.038.606.114.172.076.314.178.426.306.112.128.194.276.246.444.052.168.078.344.078.528zm6.228 3.624c.44 0 .834-.082 1.182-.246.348-.164.644-.384.888-.66s.432-.6.564-.972c.132-.372.198-.77.198-1.194a3.4 3.4 0 00-.204-1.188 2.9 2.9 0 00-.576-.96 2.692 2.692 0 00-2.016-.876 2.556 2.556 0 00-1.254.312c-.156.088-.29.184-.402.288a2.302 2.302 0 00-.276.3h-.036v-4.044h-1.44V69h1.368v-.864h.024c.2.336.478.592.834.768a2.55 2.55 0 001.146.264zm-.288-1.2c-.264 0-.5-.054-.708-.162a1.734 1.734 0 01-.534-.426 1.857 1.857 0 01-.336-.594 2.027 2.027 0 010-1.338 1.814 1.814 0 01.87-1.032 1.47 1.47 0 01.708-.168c.28 0 .524.054.732.162.208.108.38.25.516.426s.238.374.306.594a2.244 2.244 0 010 1.338 1.85 1.85 0 01-.306.6 1.521 1.521 0 01-1.248.6zm5.244-5.82a.952.952 0 00.666-.246.8.8 0 00.27-.618.8.8 0 00-.27-.618.952.952 0 00-.666-.246.886.886 0 00-.654.258.83.83 0 00-.258.606.83.83 0 00.258.606c.172.172.39.258.654.258zM32.286 69v-5.76h-1.44V69h1.44zm3.192 0v-3.168c0-.192.028-.382.084-.57.056-.188.138-.354.246-.498.108-.144.246-.262.414-.354.168-.092.368-.138.6-.138.232 0 .418.048.558.144.14.096.25.218.33.366.08.148.132.314.156.498.024.184.036.36.036.528V69h1.44v-3.6c0-.296-.04-.584-.12-.864a2.112 2.112 0 00-.378-.744 1.904 1.904 0 00-.66-.522c-.268-.132-.59-.198-.966-.198-.432 0-.806.11-1.122.33-.316.22-.538.474-.666.762h-.024v-.924h-1.368V69h1.44zm7.296.144a2.36 2.36 0 001.092-.246c.32-.164.552-.374.696-.63h.036V69h1.344v-3.504c0-.288-.038-.576-.114-.864a2.017 2.017 0 00-.402-.78 2.061 2.061 0 00-.786-.564c-.332-.144-.754-.216-1.266-.216-.44 0-.874.076-1.302.228a3.25 3.25 0 00-1.134.684l.744.876c.184-.184.416-.34.696-.468.28-.128.572-.192.876-.192.36 0 .67.086.93.258.26.172.39.438.39.798v.144c-.448 0-.906.022-1.374.066a5.31 5.31 0 00-1.278.27 2.366 2.366 0 00-.942.588c-.244.256-.366.6-.366 1.032 0 .336.07.618.21.846.14.228.316.412.528.552.212.14.444.24.696.3.252.06.494.09.726.09zm.288-1.092c-.12 0-.24-.012-.36-.036a1.044 1.044 0 01-.324-.12.613.613 0 01-.324-.564c0-.216.072-.386.216-.51.144-.124.324-.22.54-.288.216-.068.452-.112.708-.132.256-.02.5-.03.732-.03h.324v.204c0 .456-.128.816-.384 1.08-.256.264-.632.396-1.128.396zm6 .948v-3.084c0-.104.02-.244.06-.42.04-.176.116-.348.228-.516a1.44 1.44 0 01.468-.432c.2-.12.464-.18.792-.18a1.695 1.695 0 01.444.06v-1.32a.664.664 0 00-.168-.03 2.895 2.895 0 00-.18-.006c-.384 0-.72.104-1.008.312a2.1 2.1 0 00-.672.816h-.024v-.96h-1.38V69h1.44zm7.476.216c.528 0 .96-.096 1.296-.288.336-.192.596-.436.78-.732a2.85 2.85 0 00.378-.96c.068-.344.102-.672.102-.984v-5.748h-1.512v5.7c0 .24-.016.462-.048.666-.032.204-.086.38-.162.528a.811.811 0 01-.324.342c-.14.08-.318.12-.534.12-.264 0-.492-.082-.684-.246a1.26 1.26 0 01-.396-.666l-1.392.396c.152.56.434 1.012.846 1.356.412.344.962.516 1.65.516zm5.964-.072a2.36 2.36 0 001.092-.246c.32-.164.552-.374.696-.63h.036V69h1.344v-3.504c0-.288-.038-.576-.114-.864a2.017 2.017 0 00-.402-.78 2.061 2.061 0 00-.786-.564c-.332-.144-.754-.216-1.266-.216-.44 0-.874.076-1.302.228a3.25 3.25 0 00-1.134.684l.744.876c.184-.184.416-.34.696-.468.28-.128.572-.192.876-.192.36 0 .67.086.93.258.26.172.39.438.39.798v.144c-.448 0-.906.022-1.374.066a5.31 5.31 0 00-1.278.27 2.366 2.366 0 00-.942.588c-.244.256-.366.6-.366 1.032 0 .336.07.618.21.846.14.228.316.412.528.552.212.14.444.24.696.3.252.06.494.09.726.09zm.288-1.092c-.12 0-.24-.012-.36-.036a1.044 1.044 0 01-.324-.12.613.613 0 01-.324-.564c0-.216.072-.386.216-.51.144-.124.324-.22.54-.288.216-.068.452-.112.708-.132.256-.02.5-.03.732-.03h.324v.204c0 .456-.128.816-.384 1.08-.256.264-.632.396-1.128.396zm6 .948v-3.168c0-.192.026-.382.078-.57.052-.188.128-.354.228-.498.1-.144.23-.262.39-.354.16-.092.348-.138.564-.138.368 0 .638.118.81.354.172.236.258.534.258.894V69h1.44v-3.144c0-.184.024-.37.072-.558.048-.188.124-.358.228-.51.104-.152.236-.276.396-.372a1.1 1.1 0 01.576-.144c.232 0 .418.048.558.144.14.096.25.218.33.366.08.148.132.314.156.498.024.184.036.36.036.528V69h1.44v-3.6c0-.296-.04-.584-.12-.864a2.112 2.112 0 00-.378-.744 1.904 1.904 0 00-.66-.522c-.268-.132-.59-.198-.966-.198-.432 0-.808.094-1.128.282-.32.188-.576.458-.768.81a1.991 1.991 0 00-.684-.792c-.296-.2-.668-.3-1.116-.3-.232 0-.444.03-.636.09s-.362.142-.51.246c-.148.104-.276.22-.384.348a1.706 1.706 0 00-.258.408h-.024v-.924H67.35V69h1.44z"/><g fill="#FFF" fill-rule="nonzero"><path d="M34.583 32.576l1.9-5.87h1.467l1.9 5.87 4.575-14.504.346-1.122.172.086c2.072.777 3.713 1.9 5.094 3.28 2.763 2.763 4.317 6.476 4.317 10.36 0 3.886-1.554 7.598-4.317 10.36-2.072 2.073-4.748 3.454-7.598 4.059l-.259.086.605-1.986h.086c2.245-.604 4.23-1.726 5.87-3.367 2.418-2.417 3.8-5.698 3.8-9.065 0-3.453-1.382-6.648-3.8-9.065-.776-.777-1.726-1.468-2.675-2.072a1149.855 1149.855 0 01-5.267 15.972v.086h-1.554l-1.9-5.612-1.985 5.526h-1.554l-3.022-8.806h1.986l1.813 5.784z"/><path d="M39.59 43.54l5.267-16.748h1.9l-5.872 18.562h-1.208c-3.885 0-7.598-1.554-10.36-4.317C26.554 38.274 25 34.562 25 30.677s1.554-7.598 4.317-10.36C32.079 17.554 35.792 16 39.677 16c1.381 0 2.762.173 4.058.604l.172.087-.518 1.726-.173-.086a12.11 12.11 0 00-3.54-.518c-3.453 0-6.647 1.381-9.064 3.799-2.418 2.417-3.799 5.611-3.799 9.065 0 3.453 1.381 6.648 3.799 9.065 2.33 2.417 5.611 3.712 8.978 3.799z"/><path d="M45.72 24.115h1.9l-.605 1.9h-1.899z"/></g></g><g transform="translate(73 287)"><use fill="#000" filter="url(#c)" xlink:href="#d"/><circle cx="28" cy="28" r="27.5" fill="#FFF" stroke="#E1E1E1" stroke-linejoin="square"/><path fill="#FF4A00" d="M31 28.005c0 .892-.164 1.746-.46 2.534a7.18 7.18 0 01-2.535.461h-.01a7.18 7.18 0 01-2.533-.46A7.18 7.18 0 0125 28.004v-.01c0-.892.164-1.746.46-2.534a7.179 7.179 0 012.536-.46h.01c.892 0 1.746.164 2.534.461.297.788.46 1.642.461 2.534v.01zM39.833 26h-7.005l4.953-4.953a12.063 12.063 0 00-2.828-2.828L30 23.172v-7.005A12.074 12.074 0 0028.006 16h-.012c-.68 0-1.346.058-1.994.167v7.005l-4.953-4.953c-.547.389-1.059.822-1.532 1.296l-.002.001a12.06 12.06 0 00-1.294 1.531L23.172 26h-7.005S16 27.316 16 27.996v.008c0 .68.058 1.347.167 1.996h7.005l-4.953 4.953a12.068 12.068 0 002.828 2.828L26 32.828v7.005a12.08 12.08 0 001.991.167h.018c.678 0 1.343-.058 1.991-.167v-7.005l4.953 4.953a12.062 12.062 0 001.532-1.295v-.001a12.07 12.07 0 001.296-1.532L32.828 30h7.005A12.08 12.08 0 0040 28.009v-.018c0-.678-.058-1.343-.167-1.991z"/></g><g transform="translate(105 17)"><rect width="80" height="80" fill="#FFC111" rx="8"/><path fill="#FFF" fill-rule="nonzero" d="M23.532 69v-3.576h3.744v-1.272h-3.744v-2.328h3.972v-1.32H22.02V69h1.512zm8.424 0c.4 0 .794-.042 1.182-.126a3.121 3.121 0 001.032-.414c.3-.192.542-.446.726-.762.184-.316.276-.706.276-1.17 0-.576-.172-1.036-.516-1.38-.344-.344-.784-.552-1.32-.624V64.5c.44-.136.796-.36 1.068-.672.272-.312.408-.708.408-1.188 0-.384-.076-.712-.228-.984a1.988 1.988 0 00-.594-.666 2.43 2.43 0 00-.834-.372 3.991 3.991 0 00-.948-.114h-3.312V69h3.06zm-.204-5.04h-1.344v-2.208h1.212c.576 0 1 .08 1.272.24.272.16.408.432.408.816 0 .368-.132.652-.396.852-.264.2-.648.3-1.152.3zm.012 3.768h-1.356v-2.472h1.416c.616 0 1.076.088 1.38.264.304.176.456.488.456.936 0 .28-.062.504-.186.672-.124.168-.28.296-.468.384a2.047 2.047 0 01-.618.174 5.052 5.052 0 01-.624.042zM40.104 69l.768-1.944h3.684L45.348 69h1.728l-3.66-8.496h-1.308L38.412 69h1.692zm3.924-3.24h-2.64l1.332-3.456 1.308 3.456zm6.3 3.408c.408 0 .79-.088 1.146-.264a1.96 1.96 0 00.834-.768h.024V69H53.7v-9.072h-1.44v4.044h-.036a2.302 2.302 0 00-.276-.3 2.114 2.114 0 00-.402-.288 2.556 2.556 0 00-1.254-.312 2.699 2.699 0 00-2.016.876 2.9 2.9 0 00-.576.96 3.4 3.4 0 00-.204 1.188c0 .424.066.822.198 1.194s.32.696.564.972c.244.276.54.496.888.66a2.74 2.74 0 001.182.246zm.288-1.2a1.521 1.521 0 01-1.248-.6 1.85 1.85 0 01-.306-.6 2.244 2.244 0 010-1.338c.068-.22.17-.418.306-.594.136-.176.308-.318.516-.426.208-.108.452-.162.732-.162.264 0 .5.056.708.168a1.814 1.814 0 01.87 1.032 2.027 2.027 0 010 1.338c-.076.22-.188.418-.336.594a1.734 1.734 0 01-.534.426 1.514 1.514 0 01-.708.162zm6.516 1.2c.312 0 .614-.034.906-.102.292-.068.548-.178.768-.33.22-.152.396-.35.528-.594s.198-.542.198-.894c0-.28-.056-.518-.168-.714a1.567 1.567 0 00-.438-.492 2.388 2.388 0 00-.6-.318 5.24 5.24 0 00-.654-.192 5.819 5.819 0 01-.93-.282c-.212-.092-.318-.25-.318-.474 0-.224.096-.384.288-.48.192-.096.404-.144.636-.144.264 0 .508.062.732.186.224.124.4.27.528.438l.936-.828a2.057 2.057 0 00-.942-.66 3.538 3.538 0 00-1.218-.216c-.288 0-.568.036-.84.108a2.345 2.345 0 00-.732.33 1.7 1.7 0 00-.522.57 1.647 1.647 0 00-.198.828c0 .272.048.5.144.684.096.184.224.338.384.462s.342.224.546.3c.204.076.414.138.63.186.44.104.77.208.99.312.22.104.33.276.33.516a.592.592 0 01-.084.324.621.621 0 01-.222.21c-.092.052-.192.09-.3.114a1.463 1.463 0 01-.318.036c-.312 0-.596-.068-.852-.204a1.894 1.894 0 01-.624-.516l-.948.888c.28.304.632.538 1.056.702.424.164.86.246 1.308.246z"/><g transform="translate(25 15)"><mask id="f" fill="#fff"><use xlink:href="#e"/></mask><path fill="#FFF" d="M30 15c0-8.284-6.716-15-15-15C6.716 0 0 6.716 0 15c0 7.487 5.485 13.692 12.656 14.818V19.336H8.848V15h3.808v-3.305c0-3.76 2.24-5.836 5.666-5.836 1.641 0 3.358.293 3.358.293v3.692h-1.892c-1.863 0-2.444 1.156-2.444 2.342V15h4.16l-.665 4.336h-3.495v10.482C24.514 28.692 30 22.487 30 15" mask="url(#f)"/><path fill="#FFC111" d="M20.839 19.336L21.504 15h-4.16v-2.814c0-1.186.58-2.342 2.444-2.342h1.892V6.152s-1.717-.293-3.358-.293c-3.426 0-5.666 2.077-5.666 5.836V15H8.848v4.336h3.808v10.482a15.112 15.112 0 004.688 0V19.336h3.495"/></g></g><g transform="translate(71 176)"><rect width="60" height="20" fill="#FFC111" rx="10"/><path fill="#FFF" fill-rule="nonzero" d="M17.07 14v-1.344h-3.612V5.504h-1.512V14h5.124zm6.852 0v-1.344H19.59v-2.4h3.9V8.984h-3.9v-2.16h4.116v-1.32h-5.628V14h5.844zm2.136 0l.768-1.944h3.684L31.302 14h1.728l-3.66-8.496h-1.308L24.366 14h1.692zm3.924-3.24h-2.64l1.332-3.456 1.308 3.456zm6.9 3.24c.552 0 1.108-.082 1.668-.246a4.565 4.565 0 001.512-.762 3.93 3.93 0 001.092-1.32c.28-.536.42-1.176.42-1.92 0-.8-.14-1.47-.42-2.01a3.737 3.737 0 00-1.092-1.308 4.32 4.32 0 00-1.512-.714 6.677 6.677 0 00-1.668-.216H33.87V14h3.012zm-.24-1.32h-1.26V6.8h1.26c.392 0 .784.04 1.176.12.392.08.746.228 1.062.444.316.216.574.516.774.9.2.384.3.88.3 1.488 0 .576-.1 1.052-.3 1.428a2.49 2.49 0 01-.774.894c-.316.22-.67.376-1.062.468a5.132 5.132 0 01-1.176.138zm8.676 1.536a4.14 4.14 0 001.188-.168c.376-.112.704-.28.984-.504.28-.224.504-.506.672-.846.168-.34.252-.738.252-1.194 0-.416-.078-.764-.234-1.044a2.2 2.2 0 00-.6-.696 3.277 3.277 0 00-.804-.444 16.848 16.848 0 00-.846-.3c-.24-.072-.46-.144-.66-.216-.2-.072-.37-.156-.51-.252a1.092 1.092 0 01-.33-.348.954.954 0 01-.12-.492c0-.208.046-.386.138-.534.092-.148.21-.268.354-.36a1.61 1.61 0 01.48-.204 2.023 2.023 0 011.41.144c.292.14.518.314.678.522l.984-1.08a3.21 3.21 0 00-1.158-.684 4.04 4.04 0 00-1.314-.228c-.384 0-.762.05-1.134.15a3.15 3.15 0 00-.996.456 2.387 2.387 0 00-.708.774c-.18.312-.27.684-.27 1.116 0 .4.064.734.192 1.002s.294.494.498.678c.204.184.434.332.69.444.256.112.512.208.768.288l.756.252c.24.08.448.174.624.282.176.108.316.236.42.384a.947.947 0 01.156.558c0 .232-.046.426-.138.582a1.243 1.243 0 01-.36.39 1.44 1.44 0 01-.498.222 2.317 2.317 0 01-.54.066c-.336 0-.678-.084-1.026-.252a2.169 2.169 0 01-.834-.684l-1.08 1.008c.336.4.768.702 1.296.906a4.46 4.46 0 001.62.306z"/></g><path fill="#6F0DFB" fill-rule="nonzero" d="M297.5 119.5a4.5 4.5 0 01.5 8.972v143.885h4l-4.5 9-4.5-9h4V128.473a4.5 4.5 0 01.5-8.973zm0 1a3.5 3.5 0 100 7 3.5 3.5 0 000-7z"/><path fill="#1B2E5B" fill-rule="nonzero" d="M773.5 122.5a4.5 4.5 0 01.5 8.972v140.885h4l-4.5 9-4.5-9h4V131.473a4.5 4.5 0 01.5-8.973zm0 1a3.5 3.5 0 100 7 3.5 3.5 0 000-7zm96.5-1a4.5 4.5 0 01.5 8.972v140.885h4l-4.5 9-4.5-9h4V131.473a4.5 4.5 0 01.5-8.973zm0 1a3.5 3.5 0 100 7 3.5 3.5 0 000-7z"/><path fill="#6F0DFB" fill-rule="nonzero" d="M668 122.5a4.5 4.5 0 01.5 8.972v167.885h4l-4.5 9-4.5-9h4V131.473a4.5 4.5 0 01.5-8.973zm0 1a3.5 3.5 0 100 7 3.5 3.5 0 000-7z"/><g transform="translate(267 176)"><rect width="60" height="20" fill="#6F0DFB" rx="10"/><path fill="#FFF" fill-rule="nonzero" d="M17.07 14v-1.344h-3.612V5.504h-1.512V14h5.124zm6.852 0v-1.344H19.59v-2.4h3.9V8.984h-3.9v-2.16h4.116v-1.32h-5.628V14h5.844zm2.136 0l.768-1.944h3.684L31.302 14h1.728l-3.66-8.496h-1.308L24.366 14h1.692zm3.924-3.24h-2.64l1.332-3.456 1.308 3.456zm6.9 3.24c.552 0 1.108-.082 1.668-.246a4.565 4.565 0 001.512-.762 3.93 3.93 0 001.092-1.32c.28-.536.42-1.176.42-1.92 0-.8-.14-1.47-.42-2.01a3.737 3.737 0 00-1.092-1.308 4.32 4.32 0 00-1.512-.714 6.677 6.677 0 00-1.668-.216H33.87V14h3.012zm-.24-1.32h-1.26V6.8h1.26c.392 0 .784.04 1.176.12.392.08.746.228 1.062.444.316.216.574.516.774.9.2.384.3.88.3 1.488 0 .576-.1 1.052-.3 1.428a2.49 2.49 0 01-.774.894c-.316.22-.67.376-1.062.468a5.132 5.132 0 01-1.176.138zm8.676 1.536a4.14 4.14 0 001.188-.168c.376-.112.704-.28.984-.504.28-.224.504-.506.672-.846.168-.34.252-.738.252-1.194 0-.416-.078-.764-.234-1.044a2.2 2.2 0 00-.6-.696 3.277 3.277 0 00-.804-.444 16.848 16.848 0 00-.846-.3c-.24-.072-.46-.144-.66-.216-.2-.072-.37-.156-.51-.252a1.092 1.092 0 01-.33-.348.954.954 0 01-.12-.492c0-.208.046-.386.138-.534.092-.148.21-.268.354-.36a1.61 1.61 0 01.48-.204 2.023 2.023 0 011.41.144c.292.14.518.314.678.522l.984-1.08a3.21 3.21 0 00-1.158-.684 4.04 4.04 0 00-1.314-.228c-.384 0-.762.05-1.134.15a3.15 3.15 0 00-.996.456 2.387 2.387 0 00-.708.774c-.18.312-.27.684-.27 1.116 0 .4.064.734.192 1.002s.294.494.498.678c.204.184.434.332.69.444.256.112.512.208.768.288l.756.252c.24.08.448.174.624.282.176.108.316.236.42.384a.947.947 0 01.156.558c0 .232-.046.426-.138.582a1.243 1.243 0 01-.36.39 1.44 1.44 0 01-.498.222 2.317 2.317 0 01-.54.066c-.336 0-.678-.084-1.026-.252a2.169 2.169 0 01-.834-.684l-1.08 1.008c.336.4.768.702 1.296.906a4.46 4.46 0 001.62.306z"/></g><g transform="translate(257 17)"><rect width="80" height="80" fill="#6F0DFB" rx="8"/><g fill="#FFF" fill-rule="nonzero"><path d="M39.898 16.083c-8.141 0-14.732 6.59-14.732 14.732s6.59 14.733 14.732 14.733 14.733-6.591 14.733-14.733c0-8.141-6.591-14.732-14.733-14.732zm-.526 20.52l-1.08 3.185a.866.866 0 01-.138.277 1.298 1.298 0 01-.526.498c-.194.11-.416.166-.637.166-.139 0-.305-.027-.443-.083-.61-.221-.997-.83-.914-1.44a9.407 9.407 0 01-5.123-8.39 9.437 9.437 0 019.443-9.444c.61 0 1.19.056 1.772.166a1.406 1.406 0 011.606-.581c.333.11.582.332.748.61.138.248.222.525.194.83 0 .11-.028.221-.056.305l-1.08 3.184-3.766 10.717zm1.191 3.628l1.302-3.933a5.802 5.802 0 003.849-5.483 5.68 5.68 0 00-.997-3.24l1.301-3.932a9.398 9.398 0 013.324 7.172 9.481 9.481 0 01-8.779 9.416z"/><path d="M34.083 30.815c0 2.05 1.08 3.85 2.686 4.902l3.656-10.69c-.167-.027-.36-.027-.527-.027a5.815 5.815 0 00-5.815 5.815z"/></g><path fill="#FFF" fill-rule="nonzero" d="M16.182 69.216c.488 0 .94-.078 1.356-.234a3.167 3.167 0 001.08-.666c.304-.288.544-.638.72-1.05.176-.412.264-.874.264-1.386v-5.376H18.09v5.316c0 .248-.032.494-.096.738s-.17.462-.318.654a1.642 1.642 0 01-.588.468c-.244.12-.546.18-.906.18s-.662-.06-.906-.18a1.642 1.642 0 01-.588-.468 1.812 1.812 0 01-.318-.654 2.897 2.897 0 01-.096-.738v-5.316h-1.512v5.376c0 .512.086.974.258 1.386.172.412.412.762.72 1.05.308.288.67.51 1.086.666.416.156.868.234 1.356.234zM22.77 69v-3.168c0-.192.028-.382.084-.57.056-.188.138-.354.246-.498.108-.144.246-.262.414-.354.168-.092.368-.138.6-.138.232 0 .418.048.558.144.14.096.25.218.33.366.08.148.132.314.156.498.024.184.036.36.036.528V69h1.44v-3.6c0-.296-.04-.584-.12-.864a2.112 2.112 0 00-.378-.744 1.904 1.904 0 00-.66-.522c-.268-.132-.59-.198-.966-.198-.432 0-.806.11-1.122.33-.316.22-.538.474-.666.762h-.024v-.924H21.33V69h1.44zm8.94.168c.44 0 .834-.082 1.182-.246.348-.164.644-.384.888-.66s.432-.6.564-.972c.132-.372.198-.77.198-1.194a3.4 3.4 0 00-.204-1.188 2.9 2.9 0 00-.576-.96 2.692 2.692 0 00-2.016-.876 2.556 2.556 0 00-1.254.312c-.156.088-.29.184-.402.288a2.302 2.302 0 00-.276.3h-.036v-4.044h-1.44V69h1.368v-.864h.024c.2.336.478.592.834.768a2.55 2.55 0 001.146.264zm-.288-1.2c-.264 0-.5-.054-.708-.162a1.734 1.734 0 01-.534-.426 1.857 1.857 0 01-.336-.594 2.027 2.027 0 010-1.338 1.814 1.814 0 01.87-1.032 1.47 1.47 0 01.708-.168c.28 0 .524.054.732.162.208.108.38.25.516.426s.238.374.306.594a2.244 2.244 0 010 1.338 1.85 1.85 0 01-.306.6 1.521 1.521 0 01-1.248.6zm7.308 1.2c.432 0 .84-.076 1.224-.228.384-.152.716-.362.996-.63s.502-.59.666-.966c.164-.376.246-.792.246-1.248 0-.456-.082-.87-.246-1.242a2.904 2.904 0 00-.666-.954 2.936 2.936 0 00-.996-.612 3.457 3.457 0 00-1.224-.216c-.432 0-.84.072-1.224.216a2.936 2.936 0 00-.996.612c-.28.264-.502.582-.666.954a3.046 3.046 0 00-.246 1.242c0 .456.082.872.246 1.248.164.376.386.698.666.966s.612.478.996.63c.384.152.792.228 1.224.228zm0-1.2c-.288 0-.536-.056-.744-.168a1.602 1.602 0 01-.516-.432 1.85 1.85 0 01-.306-.6 2.244 2.244 0 010-1.338c.068-.22.17-.418.306-.594.136-.176.308-.318.516-.426.208-.108.456-.162.744-.162s.536.054.744.162c.208.108.38.25.516.426s.238.374.306.594a2.244 2.244 0 010 1.338 1.85 1.85 0 01-.306.6c-.136.176-.308.32-.516.432a1.548 1.548 0 01-.744.168zm6.6 1.2c.432 0 .806-.11 1.122-.33.316-.22.538-.474.666-.762h.024V69h1.368v-5.76h-1.44v3.168c0 .192-.028.382-.084.57a1.567 1.567 0 01-.246.498 1.24 1.24 0 01-1.014.492c-.232 0-.418-.048-.558-.144a1.035 1.035 0 01-.33-.366 1.425 1.425 0 01-.156-.498 4.086 4.086 0 01-.036-.528V63.24h-1.44v3.6c0 .296.04.584.12.864.08.28.206.528.378.744.172.216.392.39.66.522s.59.198.966.198zM51.678 69v-3.168c0-.192.028-.382.084-.57.056-.188.138-.354.246-.498.108-.144.246-.262.414-.354.168-.092.368-.138.6-.138.232 0 .418.048.558.144.14.096.25.218.33.366.08.148.132.314.156.498.024.184.036.36.036.528V69h1.44v-3.6c0-.296-.04-.584-.12-.864a2.112 2.112 0 00-.378-.744 1.904 1.904 0 00-.66-.522c-.268-.132-.59-.198-.966-.198-.432 0-.806.11-1.122.33-.316.22-.538.474-.666.762h-.024v-.924h-1.368V69h1.44zm8.328.168c.432 0 .834-.07 1.206-.21.372-.14.678-.338.918-.594l-.9-.912a1.28 1.28 0 01-.54.384 1.826 1.826 0 01-.672.132c-.272 0-.51-.054-.714-.162a1.555 1.555 0 01-.51-.426 1.861 1.861 0 01-.306-.594 2.244 2.244 0 01-.102-.666c0-.224.032-.446.096-.666.064-.22.162-.418.294-.594a1.442 1.442 0 011.194-.588c.232 0 .46.054.684.162.224.108.392.242.504.402l.984-.864c-.232-.28-.546-.5-.942-.66a3.254 3.254 0 00-1.23-.24c-.424 0-.822.072-1.194.216a2.888 2.888 0 00-1.644 1.572 3.12 3.12 0 00-.246 1.26c0 .48.082.908.246 1.284.164.376.388.696.672.96.284.264.616.464.996.6.38.136.782.204 1.206.204zm5.832 0c1.08 0 1.904-.384 2.472-1.152l-.96-.768c-.16.232-.364.414-.612.546-.248.132-.552.198-.912.198-.208 0-.408-.036-.6-.108a1.821 1.821 0 01-.516-.294 1.426 1.426 0 01-.528-1.014h4.38c.008-.064.012-.128.012-.192v-.192c0-.52-.07-.974-.21-1.362a2.727 2.727 0 00-.582-.972 2.407 2.407 0 00-.882-.588 3.041 3.041 0 00-1.11-.198c-.432 0-.834.074-1.206.222a2.872 2.872 0 00-.966.624 2.882 2.882 0 00-.642.972c-.156.38-.234.802-.234 1.266 0 .472.078.894.234 1.266.156.372.372.686.648.942.276.256.602.454.978.594.376.14.788.21 1.236.21zm1.296-3.624h-2.952c.032-.408.198-.742.498-1.002s.666-.39 1.098-.39c.232 0 .434.038.606.114.172.076.314.178.426.306.112.128.194.276.246.444.052.168.078.344.078.528z"/></g><g transform="translate(269 287)"><use fill="#000" filter="url(#g)" xlink:href="#h"/><circle cx="28" cy="28" r="27.5" fill="#FFF" stroke="#E1E1E1" stroke-linejoin="square"/><path fill="#C73A63" d="M27.163 26.294c-.99 1.666-1.94 3.279-2.909 4.88-.249.41-.372.746-.173 1.268.549 1.443-.226 2.847-1.68 3.229-1.373.36-2.71-.543-2.983-2.012-.241-1.3.768-2.576 2.202-2.779.12-.017.243-.02.445-.034l2.181-3.658c-1.372-1.364-2.188-2.959-2.008-4.935.128-1.396.677-2.603 1.681-3.593a5.707 5.707 0 017.12-.747c2.175 1.397 3.17 4.118 2.322 6.447l-1.993-.541c.266-1.295.069-2.458-.804-3.454-.577-.657-1.317-1.002-2.16-1.129-1.687-.255-3.344.83-3.835 2.486-.559 1.88.286 3.415 2.594 4.572z"/><path fill="#4B4B4B" d="M29.993 24.325l2.109 3.72c3.55-1.099 6.227.867 7.188 2.971 1.16 2.542.367 5.552-1.911 7.12-2.339 1.61-5.296 1.335-7.368-.733l1.626-1.36c2.046 1.325 3.836 1.263 5.165-.306a3.561 3.561 0 00-.058-4.646c-1.345-1.513-3.148-1.559-5.326-.107-.904-1.603-1.823-3.194-2.698-4.808-.295-.545-.621-.86-1.286-.976-1.11-.192-1.828-1.146-1.87-2.214a2.434 2.434 0 011.553-2.385 2.423 2.423 0 012.743.749c.53.67.698 1.423.42 2.249-.078.23-.179.453-.287.726z"/><path fill="#4A4A4A" d="M31.661 34.392h-4.274c-.41 1.684-1.295 3.045-2.82 3.91a5.697 5.697 0 01-3.822.68c-2.503-.403-4.55-2.656-4.73-5.194-.204-2.875 1.772-5.43 4.405-6.004l.548 1.986c-2.417 1.233-3.253 2.786-2.577 4.728.596 1.71 2.287 2.646 4.123 2.284 1.875-.37 2.82-1.928 2.705-4.43 1.778 0 3.557-.018 5.335.01.694.01 1.23-.061 1.753-.673.86-1.007 2.445-.917 3.373.035a2.421 2.421 0 01-.1 3.467 2.418 2.418 0 01-3.402-.118c-.186-.2-.333-.436-.517-.681z"/></g><g transform="translate(738 17)"><rect width="80" height="80" fill="#C6CBD6" rx="8"/><path fill="#FFF" fill-rule="nonzero" d="M47.338 36.898a1.274 1.274 0 110-2.547 1.274 1.274 0 010 2.547m-14.076 0a1.274 1.274 0 11-.001-2.547 1.274 1.274 0 010 2.547m14.534-7.672l2.545-4.408a.53.53 0 10-.917-.53l-2.577 4.464a15.71 15.71 0 00-6.546-1.4c-2.362 0-4.575.501-6.546 1.4l-2.577-4.464a.53.53 0 10-.918.53l2.546 4.408c-4.37 2.378-7.36 6.802-7.798 12.03h30.586c-.438-5.228-3.427-9.652-7.798-12.03M18.916 67l.768-1.944h3.684L24.16 67h1.728l-3.66-8.496H20.92L17.224 67h1.692zm3.924-3.24H20.2l1.332-3.456 1.308 3.456zM28.096 67v-3.168c0-.192.028-.382.084-.57.056-.188.138-.354.246-.498.108-.144.246-.262.414-.354.168-.092.368-.138.6-.138.232 0 .418.048.558.144.14.096.25.218.33.366.08.148.132.314.156.498.024.184.036.36.036.528V67h1.44v-3.6c0-.296-.04-.584-.12-.864a2.112 2.112 0 00-.378-.744 1.904 1.904 0 00-.66-.522c-.268-.132-.59-.198-.966-.198-.432 0-.806.11-1.122.33-.316.22-.538.474-.666.762h-.024v-.924h-1.368V67h1.44zm8.028.168c.408 0 .79-.088 1.146-.264a1.96 1.96 0 00.834-.768h.024V67h1.368v-9.072h-1.44v4.044h-.036a2.302 2.302 0 00-.276-.3 2.114 2.114 0 00-.402-.288 2.556 2.556 0 00-1.254-.312 2.699 2.699 0 00-2.016.876 2.9 2.9 0 00-.576.96 3.4 3.4 0 00-.204 1.188c0 .424.066.822.198 1.194s.32.696.564.972c.244.276.54.496.888.66a2.74 2.74 0 001.182.246zm.288-1.2a1.521 1.521 0 01-1.248-.6 1.85 1.85 0 01-.306-.6 2.244 2.244 0 010-1.338c.068-.22.17-.418.306-.594.136-.176.308-.318.516-.426.208-.108.452-.162.732-.162.264 0 .5.056.708.168a1.814 1.814 0 01.87 1.032 2.027 2.027 0 010 1.338c-.076.22-.188.418-.336.594a1.734 1.734 0 01-.534.426 1.514 1.514 0 01-.708.162zM42.688 67v-3.084c0-.104.02-.244.06-.42.04-.176.116-.348.228-.516a1.44 1.44 0 01.468-.432c.2-.12.464-.18.792-.18a1.695 1.695 0 01.444.06v-1.32a.664.664 0 00-.168-.03 2.895 2.895 0 00-.18-.006c-.384 0-.72.104-1.008.312a2.1 2.1 0 00-.672.816h-.024v-.96h-1.38V67h1.44zm5.508.168c.432 0 .84-.076 1.224-.228.384-.152.716-.362.996-.63s.502-.59.666-.966c.164-.376.246-.792.246-1.248 0-.456-.082-.87-.246-1.242a2.904 2.904 0 00-.666-.954 2.936 2.936 0 00-.996-.612 3.457 3.457 0 00-1.224-.216c-.432 0-.84.072-1.224.216a2.936 2.936 0 00-.996.612c-.28.264-.502.582-.666.954a3.046 3.046 0 00-.246 1.242c0 .456.082.872.246 1.248.164.376.386.698.666.966s.612.478.996.63c.384.152.792.228 1.224.228zm0-1.2c-.288 0-.536-.056-.744-.168a1.602 1.602 0 01-.516-.432 1.85 1.85 0 01-.306-.6 2.244 2.244 0 010-1.338c.068-.22.17-.418.306-.594.136-.176.308-.318.516-.426.208-.108.456-.162.744-.162s.536.054.744.162c.208.108.38.25.516.426s.238.374.306.594a2.244 2.244 0 010 1.338 1.85 1.85 0 01-.306.6c-.136.176-.308.32-.516.432a1.548 1.548 0 01-.744.168zm5.256-5.82a.952.952 0 00.666-.246.8.8 0 00.27-.618.8.8 0 00-.27-.618.952.952 0 00-.666-.246.886.886 0 00-.654.258.83.83 0 00-.258.606.83.83 0 00.258.606c.172.172.39.258.654.258zM54.184 67v-5.76h-1.44V67h1.44zm4.236.168c.408 0 .79-.088 1.146-.264a1.96 1.96 0 00.834-.768h.024V67h1.368v-9.072h-1.44v4.044h-.036a2.302 2.302 0 00-.276-.3 2.114 2.114 0 00-.402-.288 2.556 2.556 0 00-1.254-.312 2.699 2.699 0 00-2.016.876 2.9 2.9 0 00-.576.96 3.4 3.4 0 00-.204 1.188c0 .424.066.822.198 1.194s.32.696.564.972c.244.276.54.496.888.66a2.74 2.74 0 001.182.246zm.288-1.2a1.521 1.521 0 01-1.248-.6 1.85 1.85 0 01-.306-.6 2.244 2.244 0 010-1.338c.068-.22.17-.418.306-.594.136-.176.308-.318.516-.426.208-.108.452-.162.732-.162.264 0 .5.056.708.168a1.814 1.814 0 01.87 1.032 2.027 2.027 0 010 1.338c-.076.22-.188.418-.336.594a1.734 1.734 0 01-.534.426 1.514 1.514 0 01-.708.162z"/></g><g transform="translate(826 17)"><rect width="80" height="80" fill="#C6CBD6" rx="8"/><path fill="#FFF" fill-rule="nonzero" d="M47.488 32.686a5.849 5.849 0 012.785-4.907 5.987 5.987 0 00-4.717-2.55c-1.985-.208-3.909 1.188-4.92 1.188-1.03 0-2.588-1.167-4.264-1.133a6.282 6.282 0 00-5.287 3.224c-2.285 3.957-.58 9.773 1.61 12.972 1.094 1.566 2.375 3.316 4.05 3.254 1.64-.068 2.251-1.046 4.23-1.046 1.96 0 2.535 1.046 4.244 1.006 1.759-.028 2.867-1.573 3.924-3.154a12.955 12.955 0 001.795-3.655 5.652 5.652 0 01-3.45-5.2zm-3.229-9.56A5.758 5.758 0 0045.577 19a5.859 5.859 0 00-3.791 1.961 5.48 5.48 0 00-1.352 3.973 4.844 4.844 0 003.825-1.809zM25.212 67l.768-1.944h3.684L30.456 67h1.728l-3.66-8.496h-1.308L23.52 67h1.692zm3.924-3.24h-2.64l1.332-3.456 1.308 3.456zm5.256 6.12v-3.648h.024c.184.288.446.516.786.684.34.168.714.252 1.122.252.44 0 .834-.082 1.182-.246.348-.164.644-.384.888-.66s.432-.6.564-.972c.132-.372.198-.77.198-1.194a3.4 3.4 0 00-.204-1.188 2.9 2.9 0 00-.576-.96 2.692 2.692 0 00-2.016-.876 2.621 2.621 0 00-1.284.318c-.168.092-.31.196-.426.312-.116.116-.21.23-.282.342h-.036v-.804h-1.38v8.64h1.44zm1.644-3.912c-.264 0-.5-.054-.708-.162a1.734 1.734 0 01-.534-.426 1.857 1.857 0 01-.336-.594 2.027 2.027 0 010-1.338 1.814 1.814 0 01.87-1.032 1.47 1.47 0 01.708-.168c.28 0 .524.054.732.162.208.108.38.25.516.426s.238.374.306.594a2.244 2.244 0 010 1.338 1.85 1.85 0 01-.306.6 1.521 1.521 0 01-1.248.6zm5.952 3.912v-3.648h.024c.184.288.446.516.786.684.34.168.714.252 1.122.252.44 0 .834-.082 1.182-.246.348-.164.644-.384.888-.66s.432-.6.564-.972c.132-.372.198-.77.198-1.194a3.4 3.4 0 00-.204-1.188 2.9 2.9 0 00-.576-.96 2.692 2.692 0 00-2.016-.876 2.621 2.621 0 00-1.284.318c-.168.092-.31.196-.426.312-.116.116-.21.23-.282.342h-.036v-.804h-1.38v8.64h1.44zm1.644-3.912c-.264 0-.5-.054-.708-.162a1.734 1.734 0 01-.534-.426 1.857 1.857 0 01-.336-.594 2.027 2.027 0 010-1.338 1.814 1.814 0 01.87-1.032 1.47 1.47 0 01.708-.168c.28 0 .524.054.732.162.208.108.38.25.516.426s.238.374.306.594a2.244 2.244 0 010 1.338 1.85 1.85 0 01-.306.6 1.521 1.521 0 01-1.248.6zM49.608 67v-9.072h-1.44V67h1.44zm4.512.168c1.08 0 1.904-.384 2.472-1.152l-.96-.768c-.16.232-.364.414-.612.546-.248.132-.552.198-.912.198-.208 0-.408-.036-.6-.108a1.821 1.821 0 01-.516-.294 1.426 1.426 0 01-.528-1.014h4.38c.008-.064.012-.128.012-.192v-.192c0-.52-.07-.974-.21-1.362a2.727 2.727 0 00-.582-.972 2.407 2.407 0 00-.882-.588 3.041 3.041 0 00-1.11-.198c-.432 0-.834.074-1.206.222a2.872 2.872 0 00-.966.624 2.882 2.882 0 00-.642.972c-.156.38-.234.802-.234 1.266 0 .472.078.894.234 1.266.156.372.372.686.648.942.276.256.602.454.978.594.376.14.788.21 1.236.21zm1.296-3.624h-2.952c.032-.408.198-.742.498-1.002s.666-.39 1.098-.39c.232 0 .434.038.606.114.172.076.314.178.426.306.112.128.194.276.246.444.052.168.078.344.078.528z"/></g><g transform="translate(626 17)"><rect width="80" height="80" fill="#6F0DFB" rx="8"/><path fill="#FFF" fill-rule="nonzero" d="M34.336 67l1.992-6.372h.024L38.344 67h1.464l2.484-8.496h-1.608l-1.68 6.24h-.024l-1.836-6.24h-1.56l-1.872 6.24h-.024l-1.644-6.24h-1.656L32.872 67h1.464zm10.476 0v-3.516h1.164c.448 0 .872-.044 1.272-.132.4-.088.75-.23 1.05-.426.3-.196.538-.454.714-.774.176-.32.264-.716.264-1.188 0-.44-.076-.816-.228-1.128a2.011 2.011 0 00-.648-.768 2.75 2.75 0 00-1.008-.432 6.044 6.044 0 00-1.32-.132H43.3V67h1.512zm1.056-4.788h-1.056v-2.436h1.104c.232 0 .458.014.678.042.22.028.416.086.588.174s.31.21.414.366c.104.156.156.358.156.606 0 .256-.052.464-.156.624-.104.16-.244.286-.42.378a1.957 1.957 0 01-.6.192 4.46 4.46 0 01-.708.054z"/><g fill="#FFF"><path d="M40 19.026c-7.165 0-12.974 5.809-12.974 12.974S32.835 44.974 40 44.974 52.974 39.165 52.974 32 47.165 19.026 40 19.026m0 .778a12.119 12.119 0 016.818 2.083 12.287 12.287 0 013.295 3.295A12.118 12.118 0 0152.195 32a12.118 12.118 0 01-2.082 6.818 12.287 12.287 0 01-3.295 3.295A12.118 12.118 0 0140 44.195a12.118 12.118 0 01-6.818-2.082 12.289 12.289 0 01-3.295-3.295A12.119 12.119 0 0127.805 32a12.119 12.119 0 012.082-6.818 12.289 12.289 0 013.295-3.295A12.119 12.119 0 0140 19.805"/><path d="M49.488 26.813c.046.344.072.714.072 1.112 0 1.096-.205 2.33-.822 3.872l-3.302 9.547A10.805 10.805 0 0050.812 32c0-1.88-.48-3.647-1.324-5.187zm-9.298 6.132l-3.244 9.426a10.804 10.804 0 006.645-.172.985.985 0 01-.078-.15l-3.323-9.104zm7.109-1.49c0-1.337-.48-2.262-.891-2.982-.549-.891-1.063-1.645-1.063-2.536 0-.994.754-1.919 1.816-1.919.048 0 .093.006.14.009A10.771 10.771 0 0040 21.188a10.8 10.8 0 00-9.033 4.873c.253.008.493.013.695.013 1.13 0 2.882-.137 2.882-.137.582-.034.651.822.07.89 0 0-.587.07-1.238.104l3.937 11.71 2.366-7.095-1.684-4.615a19.817 19.817 0 01-1.134-.103c-.583-.035-.515-.925.068-.891 0 0 1.785.137 2.848.137 1.13 0 2.882-.137 2.882-.137.582-.034.651.822.069.89 0 0-.587.07-1.238.104l3.907 11.621 1.116-3.534c.495-1.544.786-2.639.786-3.564zM29.189 32c0 4.279 2.486 7.977 6.093 9.73L30.124 27.6a10.77 10.77 0 00-.936 4.4z"/></g></g><g transform="translate(842 287)"><use fill="#000" filter="url(#i)" xlink:href="#j"/><circle cx="28" cy="28" r="27.5" fill="#FFF" stroke="#E1E1E1" stroke-linejoin="square"/><g transform="translate(16 16)"><mask id="l" fill="#fff"><use xlink:href="#k"/></mask><g mask="url(#l)"><path fill="#4285F4" fill-rule="nonzero" d="M23.492 10.854L19.687 7.05l-2.718-2.718-4.96 4.96 2.718 2.718-2.718 2.717-4.96 4.96 3.805 3.806a1.632 1.632 0 002.31 0l3.805-3.805 2.718-2.718 3.805-3.805a1.632 1.632 0 000-2.31z"/><path fill="#4FC3F7" fill-rule="nonzero" d="M16.969 4.332L13.164.527a1.632 1.632 0 00-2.31 0L7.049 4.332 4.33 7.049.526 10.854a1.632 1.632 0 000 2.31L4.33 16.97l2.718 2.718 4.96-4.96L9.29 12.01l2.718-2.718 4.96-4.96z"/><mask id="n" fill="#fff"><use xlink:href="#m"/></mask><path fill="#FFF" fill-rule="nonzero" d="M10.854.663a1.632 1.632 0 012.31 0L23.492 10.99c.299.3.462.693.476 1.088a1.646 1.646 0 00-.476-1.224L13.164.527a1.632 1.632 0 00-2.31 0L.526 10.854c-.34.34-.49.789-.476 1.224.014-.395.177-.789.476-1.088L10.854.663z" mask="url(#n)" opacity=".2"/><mask id="p" fill="#fff"><use xlink:href="#o"/></mask><path fill="#1A237E" fill-rule="nonzero" d="M23.492 13.029L13.164 23.357a1.632 1.632 0 01-2.31 0L.526 13.029a1.623 1.623 0 01-.476-1.087c-.013.434.136.883.476 1.223l10.328 10.328a1.632 1.632 0 002.31 0l10.328-10.328c.34-.34.49-.775.476-1.223a1.623 1.623 0 01-.476 1.087z" mask="url(#p)" opacity=".2"/><mask id="s" fill="#fff"><use xlink:href="#q"/></mask><path fill="url(#r)" fill-rule="nonzero" d="M12.009 14.727l-4.96 4.96 3.805 3.805a1.632 1.632 0 002.31 0l3.805-3.805-4.96-4.96z" mask="url(#s)"/><mask id="v" fill="#fff"><use xlink:href="#t"/></mask><path fill="url(#u)" fill-rule="nonzero" d="M23.492 10.854L13.164.527a1.632 1.632 0 00-2.31 0L.526 10.854a1.632 1.632 0 000 2.31l10.328 10.329a1.632 1.632 0 002.31 0l10.328-10.328a1.632 1.632 0 000-2.31zm-11.483 3.873L9.29 12.01l2.718-2.718 2.718 2.718-2.718 2.717z" mask="url(#v)"/><mask id="x" fill="#fff"><use xlink:href="#w"/></mask><path mask="url(#x)" d="M-1.037-1.036h26.092v26.091H-1.037z"/><mask id="A" fill="#fff"><use xlink:href="#y"/></mask><path fill="url(#z)" fill-opacity=".8" fill-rule="nonzero" mask="url(#A)" d="M12.055 14.75l2.086 2.083-5.143 4.779-1.903-1.902z"/><mask id="D" fill="#fff"><use xlink:href="#B"/></mask><path fill="url(#C)" fill-opacity=".8" fill-rule="nonzero" mask="url(#D)" d="M16.968 4.356l2.087 2.084-5.144 4.779-1.902-1.903z"/></g></g></g><g transform="translate(746 287)"><use fill="#000" filter="url(#E)" xlink:href="#F"/><circle cx="28" cy="28" r="27.5" fill="#FFF" stroke="#E1E1E1" stroke-linejoin="square"/><g fill-rule="nonzero" transform="translate(16 16)"><rect width="24" height="24" fill="#F7DF1E" rx="4"/><path fill="#000" d="M11.122 18.75c.483.79 1.112 1.37 2.225 1.37.934 0 1.531-.467 1.531-1.113 0-.773-.613-1.047-1.642-1.497l-.564-.242c-1.627-.693-2.708-1.562-2.708-3.398 0-1.691 1.289-2.979 3.303-2.979 1.434 0 2.464.5 3.207 1.806l-1.756 1.127c-.387-.693-.804-.966-1.451-.966-.66 0-1.08.419-1.08.966 0 .677.42.95 1.387 1.37l.564.241c1.916.822 2.998 1.66 2.998 3.543 0 2.03-1.595 3.143-3.737 3.143-2.095 0-3.448-.998-4.11-2.306l1.833-1.065zm-7.967.196c.354.628.677 1.16 1.451 1.16.741 0 1.209-.29 1.209-1.418V11.02H8.07v7.699c0 2.335-1.369 3.398-3.368 3.398-1.805 0-2.851-.935-3.383-2.06l1.836-1.111z"/></g></g><g transform="translate(753 177)"><rect width="130" height="20" fill="#1B2E5B" rx="10"/><path fill="#FFF" fill-rule="nonzero" d="M26.135 14.184c.447 0 .862-.071 1.243-.214.381-.144.711-.347.99-.611s.499-.585.66-.963c.161-.377.242-.8.242-1.27V6.198h-1.386v4.873c0 .227-.03.453-.088.677a1.66 1.66 0 01-.291.599 1.505 1.505 0 01-.54.429c-.223.11-.5.165-.83.165-.33 0-.607-.055-.83-.165a1.505 1.505 0 01-.54-.429 1.66 1.66 0 01-.291-.6 2.656 2.656 0 01-.088-.676V6.198H23v4.928c0 .47.079.893.236 1.27.158.378.378.699.66.963.283.264.615.467.996.61a3.49 3.49 0 001.243.215zm6.875 0c.381 0 .744-.051 1.089-.154.345-.103.645-.257.902-.462.257-.205.462-.464.616-.775.154-.312.231-.677.231-1.095 0-.381-.072-.7-.215-.957a2.017 2.017 0 00-.55-.638 3.004 3.004 0 00-.736-.407 15.444 15.444 0 00-.776-.275 11.72 11.72 0 01-.605-.198 2.058 2.058 0 01-.468-.231 1 1 0 01-.302-.319.875.875 0 01-.11-.451c0-.19.042-.354.127-.49.084-.135.192-.245.324-.33.132-.084.279-.146.44-.187a1.854 1.854 0 011.293.132c.267.129.474.288.621.479l.902-.99a2.943 2.943 0 00-1.062-.627A3.703 3.703 0 0033.527 6c-.352 0-.699.046-1.04.138a2.888 2.888 0 00-.913.418 2.188 2.188 0 00-.649.709c-.165.286-.247.627-.247 1.023 0 .367.059.673.176.918.117.246.27.453.457.622.186.169.397.304.632.407.235.103.47.19.704.264l.693.231c.22.073.41.16.572.258.161.1.29.217.385.353a.868.868 0 01.143.511c0 .213-.042.39-.127.534a1.14 1.14 0 01-.33.357 1.32 1.32 0 01-.456.204c-.169.04-.334.06-.495.06a2.15 2.15 0 01-.94-.231 1.988 1.988 0 01-.765-.627l-.99.924c.308.367.704.643 1.188.83.484.188.979.281 1.485.281zm9.581-.198v-1.232H38.62v-2.2h3.575V9.388H38.62v-1.98h3.773v-1.21h-5.159v7.788h5.357zm2.739 0v-3.3h1.012l1.804 3.3h1.672l-2.079-3.454c.55-.125.985-.365 1.303-.72.32-.356.479-.816.479-1.381 0-.41-.08-.759-.242-1.045a1.98 1.98 0 00-.644-.693 2.744 2.744 0 00-.918-.38 4.88 4.88 0 00-1.067-.115h-2.706v7.788h1.386zm1.133-4.433H45.33V7.364h1.254c.176 0 .357.015.544.044.188.03.354.084.501.165.147.08.268.189.363.324.095.136.143.31.143.523 0 .235-.051.427-.154.578-.103.15-.233.265-.39.346a1.73 1.73 0 01-.534.165c-.198.03-.396.044-.594.044zm9.845 4.433V7.408h2.387v-1.21h-6.16v1.21h2.387v6.578h1.386zm4.675 0v-3.3h1.012l1.804 3.3h1.672l-2.079-3.454c.55-.125.984-.365 1.303-.72.32-.356.479-.816.479-1.381 0-.41-.08-.759-.242-1.045a1.98 1.98 0 00-.644-.693 2.744 2.744 0 00-.918-.38 4.88 4.88 0 00-1.067-.115h-2.706v7.788h1.386zm1.133-4.433h-1.133V7.364h1.254c.176 0 .357.015.544.044.188.03.354.084.501.165.147.08.268.189.363.324.095.136.143.31.143.523 0 .235-.051.427-.154.578-.103.15-.233.265-.39.346a1.73 1.73 0 01-.534.165c-.198.03-.396.044-.594.044zm5.005 4.433l.704-1.782h3.377l.726 1.782h1.584l-3.355-7.788h-1.199l-3.388 7.788h1.551zm3.597-2.97h-2.42l1.221-3.168 1.199 3.168zm7.15 3.168c.667 0 1.25-.12 1.749-.357a3.56 3.56 0 001.265-1.007l-1.111-.781c-.198.271-.458.49-.781.655a2.407 2.407 0 01-1.111.247 2.72 2.72 0 01-1.089-.209 2.39 2.39 0 01-.83-.588 2.63 2.63 0 01-.534-.908 3.472 3.472 0 01-.187-1.166 3.2 3.2 0 01.192-1.122c.129-.345.312-.645.55-.902.239-.257.523-.458.853-.605a2.679 2.679 0 012.068-.027c.33.128.598.331.803.61l1.056-.836a2.266 2.266 0 00-.561-.528 3.78 3.78 0 00-.704-.369 3.973 3.973 0 00-.781-.22 4.765 4.765 0 00-2.453.214 3.988 3.988 0 00-1.337.815 3.76 3.76 0 00-.89 1.282 4.228 4.228 0 00-.325 1.688c0 .609.103 1.164.308 1.666.205.503.491.935.858 1.298.367.364.805.646 1.314.848a4.52 4.52 0 001.678.302zm5.258-.198v-3.905h.033l3.421 3.905h1.947l-3.883-4.191 3.641-3.597h-1.87l-3.256 3.366h-.033V6.198H81.74v7.788h1.386zm7.579 0V6.198h-1.386v7.788h1.386zm3.102 0V7.969h.022l3.696 6.017h1.76V6.198h-1.386v5.83h-.022l-3.619-5.83h-1.837v7.788h1.386zm11.077.198c.616 0 1.16-.053 1.633-.16a6.057 6.057 0 001.304-.445V9.542h-2.981v1.144h1.639v1.98c-.44.183-.957.275-1.551.275a2.97 2.97 0 01-1.16-.215 2.474 2.474 0 01-.87-.599 2.677 2.677 0 01-.55-.908 3.302 3.302 0 01-.192-1.149 3.2 3.2 0 01.192-1.122c.129-.345.31-.645.545-.902.235-.257.519-.458.853-.605.333-.147.705-.22 1.116-.22.418 0 .805.077 1.16.231.356.154.633.341.831.561l.957-1.034c-.315-.293-.731-.53-1.249-.71a5.182 5.182 0 00-1.71-.269c-.601 0-1.159.095-1.672.286-.513.19-.959.462-1.337.814a3.76 3.76 0 00-.89 1.282 4.228 4.228 0 00-.325 1.688c0 .609.105 1.164.314 1.666.209.503.5.935.874 1.298.374.364.821.646 1.342.848.52.201 1.096.302 1.727.302z"/></g><g transform="translate(593 177)"><rect width="150" height="20" fill="#6F0DFB" rx="10"/><path fill="#FFF" fill-rule="nonzero" d="M18.878 14v-1.232h-3.311V6.212h-1.386V14h4.697zm6.281 0v-1.232h-3.971v-2.2h3.575V9.402h-3.575v-1.98h3.773v-1.21h-5.159V14h5.357zm1.958 0l.704-1.782h3.377L31.924 14h1.584l-3.355-7.788h-1.199L25.566 14h1.551zm3.597-2.97h-2.42l1.221-3.168 1.199 3.168zM37.039 14a5.42 5.42 0 001.529-.226 4.19 4.19 0 001.386-.698c.41-.315.744-.719 1.001-1.21.257-.491.385-1.078.385-1.76 0-.733-.128-1.348-.385-1.842a3.426 3.426 0 00-1.001-1.2 3.96 3.96 0 00-1.386-.654 6.12 6.12 0 00-1.529-.198h-2.761V14h2.761zm-.22-1.21h-1.155V7.4h1.155c.36 0 .719.037 1.078.11.36.073.684.209.974.407.29.198.526.473.709.825.183.352.275.807.275 1.364 0 .528-.092.964-.275 1.309-.183.345-.42.618-.71.82a2.81 2.81 0 01-.973.429c-.36.084-.719.126-1.078.126zm7.953 1.408c.381 0 .744-.051 1.089-.154.345-.103.645-.257.902-.462a2.25 2.25 0 00.616-.776c.154-.311.231-.676.231-1.094 0-.381-.072-.7-.215-.957a2.017 2.017 0 00-.55-.638 3.004 3.004 0 00-.736-.407 15.444 15.444 0 00-.776-.275 11.72 11.72 0 01-.605-.198 2.058 2.058 0 01-.468-.231 1 1 0 01-.302-.319.875.875 0 01-.11-.451c0-.19.042-.354.127-.49.084-.135.192-.245.324-.33.132-.084.279-.146.44-.187a1.854 1.854 0 011.293.132c.267.129.474.288.621.479l.902-.99a2.943 2.943 0 00-1.062-.627 3.703 3.703 0 00-1.204-.209c-.352 0-.699.046-1.04.138a2.888 2.888 0 00-.913.417 2.188 2.188 0 00-.648.71c-.166.286-.248.627-.248 1.023 0 .367.059.673.176.918.117.246.27.453.456.622.188.169.398.304.633.407.235.103.47.19.704.264l.693.231c.22.073.41.16.572.258.161.1.29.217.385.352a.868.868 0 01.143.512c0 .213-.042.39-.127.534a1.14 1.14 0 01-.33.357 1.32 1.32 0 01-.456.204c-.169.04-.334.06-.495.06a2.15 2.15 0 01-.94-.231 1.988 1.988 0 01-.765-.627l-.99.924c.308.367.704.643 1.188.83.484.188.979.281 1.485.281zM54.859 14l3.124-7.788h-1.496l-2.167 5.995h-.044l-2.145-5.995H50.58L53.66 14h1.199zm5.258 0V6.212h-1.386V14h1.386zm2.321 0l.704-1.782h3.377L67.245 14h1.584l-3.355-7.788h-1.199L60.887 14h1.551zm3.597-2.97h-2.42l1.221-3.168 1.199 3.168zM75.264 14l3.124-7.788h-1.496l-2.167 5.995h-.044l-2.145-5.995h-1.551L74.065 14h1.199zm9.229 0v-1.232h-3.971v-2.2h3.575V9.402h-3.575v-1.98h3.773v-1.21h-5.159V14h5.357zm2.739 0v-3.3h1.012l1.804 3.3h1.672l-2.079-3.454c.55-.125.984-.365 1.303-.72.32-.356.479-.816.479-1.381 0-.41-.08-.759-.242-1.045a1.98 1.98 0 00-.644-.693 2.744 2.744 0 00-.918-.38 4.88 4.88 0 00-1.067-.115h-2.706V14h1.386zm1.133-4.433h-1.133V7.378h1.254c.176 0 .358.015.544.044.188.03.354.084.501.165.147.08.268.189.363.325a.89.89 0 01.143.522c0 .235-.051.427-.154.578-.103.15-.233.265-.39.346a1.73 1.73 0 01-.534.165c-.198.03-.396.044-.594.044zm8.195 4.631c.609 0 1.17-.1 1.683-.303a3.843 3.843 0 002.206-2.145 4.298 4.298 0 00.313-1.666c0-.623-.105-1.186-.314-1.688a3.67 3.67 0 00-.874-1.282 3.896 3.896 0 00-1.331-.814 4.798 4.798 0 00-1.683-.286 4.72 4.72 0 00-1.666.286c-.51.19-.95.462-1.32.814-.37.352-.66.78-.87 1.282a4.357 4.357 0 00-.313 1.688c0 .609.105 1.164.313 1.667.21.502.5.934.87 1.298.37.363.81.645 1.32.847a4.49 4.49 0 001.666.302zm.011-1.243a2.67 2.67 0 01-1.084-.214 2.526 2.526 0 01-.846-.6 2.677 2.677 0 01-.55-.908 3.302 3.302 0 01-.193-1.149c0-.403.064-.777.193-1.122a2.74 2.74 0 01.544-.902c.235-.257.515-.458.841-.605a2.64 2.64 0 011.095-.22c.403 0 .77.073 1.1.22.33.147.612.348.847.605s.416.557.544.902c.129.345.193.719.193 1.122 0 .418-.064.801-.192 1.15-.129.348-.312.65-.55.907a2.512 2.512 0 01-.853.6 2.71 2.71 0 01-1.089.214zM106.24 14v-3.278h3.432V9.556h-3.432V7.422h3.641v-1.21h-5.027V14h1.386zm8.712.198c.609 0 1.17-.1 1.683-.303a3.843 3.843 0 002.206-2.145 4.298 4.298 0 00.313-1.666c0-.623-.105-1.186-.313-1.688a3.67 3.67 0 00-.875-1.282 3.896 3.896 0 00-1.331-.814 4.798 4.798 0 00-1.683-.286 4.72 4.72 0 00-1.666.286c-.51.19-.95.462-1.32.814-.37.352-.66.78-.87 1.282a4.357 4.357 0 00-.313 1.688c0 .609.105 1.164.314 1.667.209.502.498.934.869 1.298.37.363.81.645 1.32.847a4.49 4.49 0 001.666.302zm.011-1.243a2.67 2.67 0 01-1.084-.214 2.526 2.526 0 01-.847-.6 2.677 2.677 0 01-.55-.908 3.302 3.302 0 01-.192-1.149 3.2 3.2 0 01.192-1.122c.129-.345.31-.645.545-.902.235-.257.515-.458.841-.605a2.64 2.64 0 011.095-.22c.403 0 .77.073 1.1.22.33.147.612.348.847.605s.416.557.544.902c.129.345.193.719.193 1.122 0 .418-.064.801-.193 1.15-.128.348-.311.65-.55.907a2.512 2.512 0 01-.852.6 2.71 2.71 0 01-1.089.214zM121.882 14v-3.3h1.012l1.804 3.3h1.672l-2.079-3.454c.55-.125.984-.365 1.303-.72.32-.356.479-.816.479-1.381 0-.41-.08-.759-.242-1.045a1.98 1.98 0 00-.644-.693 2.744 2.744 0 00-.918-.38 4.88 4.88 0 00-1.067-.115h-2.706V14h1.386zm1.133-4.433h-1.133V7.378h1.254c.176 0 .358.015.544.044.188.03.354.084.501.165.147.08.268.189.363.325a.89.89 0 01.143.522c0 .235-.051.427-.154.578-.103.15-.233.265-.39.346a1.73 1.73 0 01-.534.165c-.198.03-.396.044-.594.044zm5.72 4.433V7.741h.022L131.089 14h.968l2.365-6.259h.022V14h1.375V6.212h-2.178l-2.002 5.533h-.033l-2.024-5.533h-2.167V14h1.32z"/></g><path fill="#384254" fill-rule="nonzero" d="M749.551 367.828v-1.456h-3.913v-7.748H744v9.204h5.551zm3.809.182c.468 0 .91-.082 1.326-.247a3.295 3.295 0 001.079-.683c.303-.29.544-.639.721-1.046a3.34 3.34 0 00.267-1.352 3.3 3.3 0 00-.267-1.346 3.146 3.146 0 00-.721-1.033 3.18 3.18 0 00-1.079-.663 3.745 3.745 0 00-1.326-.234c-.468 0-.91.078-1.326.234a3.18 3.18 0 00-1.079.663c-.303.286-.544.63-.721 1.034a3.3 3.3 0 00-.267 1.345c0 .494.089.945.267 1.352.177.407.418.756.721 1.046.303.29.663.518 1.079.683a3.57 3.57 0 001.326.247zm0-1.3c-.312 0-.58-.06-.806-.182a1.735 1.735 0 01-.559-.468 2.005 2.005 0 01-.332-.65 2.43 2.43 0 010-1.45c.074-.238.185-.452.332-.643.147-.19.334-.344.559-.462.225-.117.494-.175.806-.175.312 0 .58.058.806.175.225.118.412.271.559.462.147.19.258.405.332.644a2.43 2.43 0 010 1.449c-.074.243-.185.46-.332.65a1.74 1.74 0 01-.559.468 1.677 1.677 0 01-.806.182zm7.722 4.238c.607 0 1.131-.087 1.573-.26a2.901 2.901 0 001.099-.734c.29-.317.504-.702.643-1.158a5.23 5.23 0 00.208-1.527v-5.681h-1.482v.936h-.026a2.085 2.085 0 00-.91-.845 2.83 2.83 0 00-1.235-.273 3 3 0 00-1.268.26 2.906 2.906 0 00-.962.702 3.112 3.112 0 00-.61 1.04 3.745 3.745 0 00-.215 1.274c0 .442.074.86.221 1.255.147.394.353.738.617 1.033.265.295.588.529.969.702.381.173.806.26 1.274.26a2.8 2.8 0 001.177-.24c.35-.16.639-.393.864-.696h.026v.455c0 .312-.032.598-.097.858s-.174.485-.326.676a1.52 1.52 0 01-.61.448c-.256.109-.57.163-.943.163a3.22 3.22 0 01-2.184-.884l-.897 1.209c.2.165.425.312.676.442.251.13.514.238.787.325a5.52 5.52 0 001.631.26zm.182-4.303c-.277 0-.527-.056-.748-.169a1.717 1.717 0 01-.558-.449 2.178 2.178 0 01-.475-1.358c0-.277.041-.537.124-.78a1.89 1.89 0 01.35-.63 1.64 1.64 0 01.56-.423c.22-.104.474-.156.76-.156a1.725 1.725 0 011.345.585c.16.182.284.394.371.637a2.263 2.263 0 010 1.514 1.96 1.96 0 01-.37.631 1.774 1.774 0 01-1.359.598zm8.034 4.303c.607 0 1.131-.087 1.573-.26a2.901 2.901 0 001.099-.734c.29-.317.504-.702.643-1.158a5.23 5.23 0 00.208-1.527v-5.681h-1.482v.936h-.026a2.085 2.085 0 00-.91-.845 2.83 2.83 0 00-1.235-.273 3 3 0 00-1.268.26 2.906 2.906 0 00-.962.702 3.112 3.112 0 00-.61 1.04 3.745 3.745 0 00-.215 1.274c0 .442.074.86.221 1.255.147.394.353.738.618 1.033.264.295.587.529.968.702.381.173.806.26 1.274.26a2.8 2.8 0 001.177-.24c.35-.16.639-.393.864-.696h.026v.455c0 .312-.032.598-.097.858-.066.26-.174.485-.326.676a1.52 1.52 0 01-.61.448c-.256.109-.57.163-.943.163a3.22 3.22 0 01-2.184-.884l-.897 1.209c.2.165.425.312.676.442.251.13.514.238.787.325a5.52 5.52 0 001.631.26zm.182-4.303c-.277 0-.527-.056-.748-.169a1.717 1.717 0 01-.558-.449 2.178 2.178 0 01-.475-1.358c0-.277.041-.537.124-.78a1.89 1.89 0 01.35-.63 1.64 1.64 0 01.56-.423c.22-.104.474-.156.76-.156a1.725 1.725 0 011.345.585c.16.182.284.394.371.637a2.263 2.263 0 010 1.514 1.96 1.96 0 01-.37.631 1.774 1.774 0 01-1.359.598zm8.203 1.365c1.17 0 2.063-.416 2.678-1.248l-1.04-.832a1.85 1.85 0 01-.663.591c-.269.143-.598.215-.988.215-.225 0-.442-.039-.65-.117a1.973 1.973 0 01-.559-.319 1.545 1.545 0 01-.572-1.099v.001h4.745c.009-.07.013-.139.013-.208v-.208c0-.563-.076-1.055-.228-1.476a2.954 2.954 0 00-.63-1.053 2.608 2.608 0 00-.956-.637 3.295 3.295 0 00-1.202-.214c-.468 0-.904.08-1.307.24-.402.16-.751.386-1.046.676-.295.29-.527.642-.696 1.053a3.58 3.58 0 00-.253 1.372c0 .511.085.969.254 1.371a2.9 2.9 0 00.702 1.021 3.16 3.16 0 001.059.644 3.81 3.81 0 001.339.227zm1.404-3.926h-3.198a1.54 1.54 0 01.54-1.086c.325-.281.721-.422 1.189-.422.251 0 .47.041.656.123.187.083.34.193.462.332.121.139.21.299.267.481.056.182.084.373.084.572zm5.759 3.926c.442 0 .856-.095 1.241-.286a2.12 2.12 0 00.904-.832h.026v.936h1.482V358h-1.56v4.381h-.039a2.494 2.494 0 00-.299-.325 2.29 2.29 0 00-.436-.312 2.759 2.759 0 00-.591-.24 2.77 2.77 0 00-.767-.098 2.924 2.924 0 00-2.184.949 3.14 3.14 0 00-.624 1.04 3.684 3.684 0 00-.221 1.287c0 .46.072.89.214 1.293.144.403.347.754.612 1.053a2.903 2.903 0 002.242.982zm.312-1.3a1.648 1.648 0 01-1.352-.65 2.005 2.005 0 01-.332-.65 2.43 2.43 0 010-1.45c.074-.238.185-.452.332-.643.147-.19.334-.344.559-.462.225-.117.49-.175.793-.175.286 0 .542.06.767.182a1.965 1.965 0 01.942 1.118 2.196 2.196 0 010 1.45 2.011 2.011 0 01-.363.643c-.16.19-.354.345-.579.462a1.64 1.64 0 01-.767.175zm10.205 1.118v-9.204h-1.638v9.204h1.638zm3.51 0v-3.432c0-.208.03-.414.091-.618.06-.203.15-.383.266-.539a1.38 1.38 0 01.449-.383c.182-.1.399-.15.65-.15s.453.052.605.156c.151.104.27.236.357.397.087.16.143.34.169.539.026.2.039.39.039.572v3.458h1.56v-3.9c0-.32-.043-.633-.13-.936a2.288 2.288 0 00-.41-.806 2.063 2.063 0 00-.715-.565c-.29-.143-.639-.215-1.046-.215-.468 0-.873.12-1.216.358-.342.238-.582.513-.721.825h-.026v-1.001h-1.482v6.24h1.56zm24.765.172v-7.111h.026l4.368 7.111h2.08v-9.204h-1.638v6.89h-.026l-4.277-6.89H822V368h1.638zm11.453.182c.468 0 .91-.082 1.326-.247a3.295 3.295 0 001.079-.683c.303-.29.544-.639.721-1.046a3.34 3.34 0 00.267-1.352 3.3 3.3 0 00-.267-1.345 3.146 3.146 0 00-.721-1.034 3.18 3.18 0 00-1.079-.663 3.745 3.745 0 00-1.326-.234c-.468 0-.91.078-1.326.234a3.18 3.18 0 00-1.079.663c-.303.286-.544.63-.721 1.034a3.3 3.3 0 00-.267 1.345c0 .494.089.945.267 1.352.177.407.418.756.721 1.046.303.29.663.518 1.079.683a3.57 3.57 0 001.326.247zm0-1.3c-.312 0-.58-.06-.806-.182a1.735 1.735 0 01-.559-.468 2.005 2.005 0 01-.332-.65 2.43 2.43 0 010-1.45c.074-.238.185-.452.332-.643.147-.19.334-.344.559-.462a1.74 1.74 0 01.806-.175c.312 0 .58.059.806.175.225.118.412.271.559.462.147.19.258.405.332.644a2.43 2.43 0 010 1.449c-.074.243-.185.46-.332.65a1.74 1.74 0 01-.559.468 1.677 1.677 0 01-.806.182zm6.461 1.118v-3.432c0-.208.03-.414.091-.618.06-.203.15-.383.266-.539a1.38 1.38 0 01.449-.384c.182-.1.399-.149.65-.149s.453.052.604.156c.152.104.271.236.358.397.087.16.143.34.169.539.026.2.039.39.039.572V368h1.56v-3.9c0-.32-.043-.633-.13-.936a2.288 2.288 0 00-.41-.806 2.063 2.063 0 00-.714-.565c-.29-.144-.64-.215-1.047-.215-.468 0-.873.12-1.216.358-.342.238-.582.513-.721.825h-.026v-1.001h-1.482V368h1.56zm8.71-2.535v-1.326h-3.12v1.326h3.12zm7.085 2.535v-1.456h-3.913v-7.748h-1.638V368h5.551zm3.809.182c.468 0 .91-.082 1.326-.247a3.295 3.295 0 001.079-.683c.303-.29.544-.639.721-1.046a3.34 3.34 0 00.267-1.352 3.3 3.3 0 00-.266-1.345 3.146 3.146 0 00-.722-1.034 3.18 3.18 0 00-1.079-.663 3.745 3.745 0 00-1.326-.234c-.468 0-.91.078-1.326.234a3.18 3.18 0 00-1.079.663c-.303.286-.544.63-.721 1.034a3.3 3.3 0 00-.267 1.345c0 .494.089.945.266 1.352.178.407.419.756.722 1.046.303.29.663.518 1.079.683a3.57 3.57 0 001.326.247zm0-1.3c-.312 0-.58-.06-.806-.182a1.735 1.735 0 01-.559-.468 2.005 2.005 0 01-.332-.65 2.43 2.43 0 010-1.45c.074-.238.185-.452.332-.643.147-.19.334-.344.559-.462a1.74 1.74 0 01.806-.175c.312 0 .58.059.806.175.225.118.412.271.559.462.147.19.258.405.332.644a2.43 2.43 0 010 1.449c-.074.243-.185.46-.332.65a1.74 1.74 0 01-.559.468 1.677 1.677 0 01-.806.182zm7.722 4.238c.607 0 1.131-.087 1.573-.26a2.901 2.901 0 001.098-.735c.29-.316.505-.702.644-1.156a5.23 5.23 0 00.208-1.528v-5.681h-1.482v.936h-.026a2.085 2.085 0 00-.91-.845 2.83 2.83 0 00-1.235-.273 3 3 0 00-1.268.26 2.906 2.906 0 00-.962.702 3.112 3.112 0 00-.61 1.04 3.745 3.745 0 00-.215 1.274c0 .442.074.86.221 1.255.147.394.353.738.618 1.033.264.295.587.529.968.702.381.173.806.26 1.274.26a2.8 2.8 0 001.177-.24c.35-.16.639-.393.864-.696h.026v.455c0 .312-.033.598-.097.858-.066.26-.174.485-.326.676a1.52 1.52 0 01-.61.449c-.256.108-.57.162-.943.162a3.22 3.22 0 01-2.184-.884l-.897 1.209c.2.165.425.312.676.442.251.13.513.238.786.325a5.52 5.52 0 001.632.26zm.182-4.303c-.277 0-.526-.056-.747-.169a1.717 1.717 0 01-.56-.449 2.178 2.178 0 01-.475-1.358c.001-.277.042-.537.125-.78a1.89 1.89 0 01.35-.63 1.64 1.64 0 01.56-.423c.22-.104.474-.156.76-.156a1.725 1.725 0 011.346.585c.16.182.283.394.37.637a2.263 2.263 0 010 1.514 1.96 1.96 0 01-.37.631 1.774 1.774 0 01-1.359.598zm8.034 4.303c.607 0 1.131-.087 1.573-.26a2.901 2.901 0 001.098-.735c.29-.316.505-.702.644-1.156a5.23 5.23 0 00.208-1.528v-5.681h-1.482v.936h-.026a2.085 2.085 0 00-.91-.845 2.83 2.83 0 00-1.235-.273 3 3 0 00-1.268.26 2.906 2.906 0 00-.962.702 3.112 3.112 0 00-.61 1.04 3.745 3.745 0 00-.215 1.274c0 .442.074.86.221 1.255.147.394.353.738.617 1.033.265.295.588.529.969.702.381.173.806.26 1.274.26a2.8 2.8 0 001.177-.24c.35-.16.639-.393.864-.696h.026v.455c0 .312-.033.598-.097.858-.066.26-.174.485-.326.676a1.52 1.52 0 01-.61.449c-.256.108-.57.162-.943.162a3.22 3.22 0 01-2.184-.884l-.897 1.209c.2.165.425.312.676.442.251.13.513.238.786.325a5.52 5.52 0 001.632.26zm.182-4.303c-.277 0-.526-.056-.747-.169a1.717 1.717 0 01-.56-.449 2.178 2.178 0 01-.475-1.358c.001-.277.042-.537.125-.78a1.89 1.89 0 01.35-.63 1.64 1.64 0 01.56-.423c.22-.104.474-.156.76-.156a1.725 1.725 0 011.346.585c.16.182.283.394.37.637a2.263 2.263 0 010 1.514 1.96 1.96 0 01-.37.631 1.774 1.774 0 01-1.359.598zm8.203 1.365c1.17 0 2.063-.416 2.678-1.248l-1.04-.832a1.85 1.85 0 01-.663.591c-.269.144-.598.215-.988.215-.225 0-.442-.039-.65-.117a1.973 1.973 0 01-.559-.318 1.545 1.545 0 01-.572-1.099h4.745c.009-.07.013-.139.013-.208v-.208c0-.563-.076-1.055-.227-1.476a2.954 2.954 0 00-.631-1.053 2.608 2.608 0 00-.956-.636 3.295 3.295 0 00-1.202-.215c-.468 0-.904.08-1.307.24a3.1 3.1 0 00-1.046.677 3.1 3.1 0 00-.695 1.053 3.58 3.58 0 00-.254 1.371c0 .511.085.969.254 1.372a2.9 2.9 0 00.702 1.02 3.16 3.16 0 001.059.644 3.81 3.81 0 001.339.227zm1.404-3.926h-3.198a1.54 1.54 0 01.54-1.085c.324-.282.721-.423 1.189-.423.251 0 .47.041.657.124.186.082.34.192.461.331s.21.299.266.481c.057.182.085.373.085.572zm5.759 3.926c.442 0 .856-.095 1.241-.286a2.12 2.12 0 00.904-.832h.026V368h1.482v-9.828h-1.56v4.381h-.039a2.494 2.494 0 00-.299-.325 2.29 2.29 0 00-.436-.312 2.759 2.759 0 00-.591-.24 2.77 2.77 0 00-.767-.098 2.924 2.924 0 00-2.184.949 3.14 3.14 0 00-.624 1.04 3.684 3.684 0 00-.221 1.287c0 .46.072.89.215 1.293.143.404.346.755.61 1.053.265.3.586.538.962.716.378.177.804.266 1.281.266zm.312-1.3a1.648 1.648 0 01-1.352-.65 2.005 2.005 0 01-.332-.65 2.43 2.43 0 010-1.45c.074-.238.185-.452.332-.643.147-.19.334-.344.559-.462a1.71 1.71 0 01.793-.175c.286 0 .542.06.767.182a1.965 1.965 0 01.942 1.118 2.196 2.196 0 010 1.45 2.011 2.011 0 01-.364.643c-.16.19-.353.344-.578.462a1.64 1.64 0 01-.767.175zM903.159 368v-9.204h-1.638V368h1.638zm3.51 0v-3.432c0-.208.03-.414.091-.618.06-.203.15-.383.267-.539a1.38 1.38 0 01.448-.384c.182-.1.399-.149.65-.149s.453.052.605.156c.151.104.27.236.357.397.087.16.143.34.169.539.026.2.039.39.039.572V368h1.56v-3.9c0-.32-.043-.633-.13-.936a2.288 2.288 0 00-.41-.806 2.063 2.063 0 00-.715-.565c-.29-.144-.639-.215-1.046-.215-.468 0-.873.12-1.216.358-.342.238-.582.513-.721.825h-.026v-1.001h-1.482V368h1.56z"/><g transform="translate(363 219)"><circle cx="98" cy="98" r="78" fill="#01B2D0" fill-opacity=".5"/><circle cx="98" cy="98" r="98" fill="#01B2D0" fill-opacity=".5"/><circle cx="98" cy="98" r="58" fill="#FFF"/><path fill="#0AA6D2" d="M118.71 76.003a6.236 6.236 0 00-.199-.003h-40.08l-.116.001-.113-.001C74.75 76 72 78.78 72 82.268c0 .783.148 1.533.419 2.225.126.39.293.772.5 1.142l20.04 35.057c.287.502.632.949 1.02 1.336A6.197 6.197 0 0098.53 124a6.016 6.016 0 003.967-1.504 6.276 6.276 0 001.545-1.804l20.04-35.057a6.37 6.37 0 00.493-1.12 6.121 6.121 0 00.426-2.247c0-3.487-2.75-6.268-6.087-6.268a6.43 6.43 0 00-.202.003zm-18.229 32.964l15.848-27.801a1.92 1.92 0 00.115-.175 2.744 2.744 0 012.47-1.509c1.433 0 2.64 1.222 2.64 2.786 0 .535-.174 1.06-.459 1.51a.157.157 0 00-.057.116l-17.456 30.53-3.1-5.457zm-22.05-29.485h34.912l-3.1 5.456H78.087c-1.491 0-2.699-1.221-2.699-2.67 0-1.564 1.208-2.786 2.699-2.786.08 0 .132.002.172 0l.061.001h.111zm10.311 8.939h19.516L98.5 105.49l-9.758-17.07zm7.26 30.646c.004-.041-.015-.074-.057-.117L78.546 88.42h6.202l15.905 27.802a.789.789 0 00.115.233c.244.409.402.924.402 1.509 0 1.448-1.207 2.67-2.641 2.67a2.802 2.802 0 01-2.527-1.567z"/></g></g></svg>