<svg width="58" height="58" viewBox="0 0 58 58" xmlns="http://www.w3.org/2000/svg"><g fill="#6FD350" fill-rule="evenodd"><path d="M12.871 21c2.806-5.646 8.489-9.61 15.129-9.973v8.022c-3.343.332-6.2 2.31-7.753 5.112L12.87 21z"/><path d="M42.796 40.563l-5.853-5.487A9.956 9.956 0 0039 29c0-5.185-3.947-9.449-9-9.95v-8.023c9.476.52 17 8.367 17 17.973a17.93 17.93 0 01-4.204 11.563z" opacity=".404"/><path d="M35.426 39.136A11.957 11.957 0 0129 41c-6.627 0-12-5.373-12-12 0-.614.046-1.222.137-1.82l-3.768-1.615A16.07 16.07 0 0013 29c0 8.837 7.163 16 16 16a15.93 15.93 0 009.415-3.061l-2.99-2.803zM29 47c-9.941 0-18-8.059-18-18 0-2.165.382-4.24 1.083-6.162l7.375 3.16A9.996 9.996 0 0019 29c0 5.523 4.477 10 10 10 2.517 0 4.817-.93 6.575-2.465l5.852 5.486A17.939 17.939 0 0129 47z" fill-rule="nonzero"/></g></svg>