<svg width="58" height="58" viewBox="0 0 58 58" xmlns="http://www.w3.org/2000/svg"><g fill="#01B2D0" fill-rule="evenodd"><path d="M12 29c0-9.941 8.059-18 18-18s18 8.059 18 18-8.059 18-18 18a1 1 0 010-2c8.837 0 16-7.163 16-16s-7.163-16-16-16-16 7.163-16 16h2.793a.5.5 0 01.353.854l-3.651 3.651a.7.7 0 01-.99 0l-3.651-3.651A.5.5 0 019.207 29H12z" fill-rule="nonzero"/><path d="M31 28.616l4.279 4.752a1 1 0 01-1.487 1.338l-4.532-5.034A.996.996 0 0129 29V19a1 1 0 012 0v9.616z" opacity=".401"/></g></svg>