<svg xmlns="http://www.w3.org/2000/svg" xmlns:xlink="http://www.w3.org/1999/xlink" width="526" height="343" viewBox="0 0 526 343"><defs><rect id="b" width="320" height="240" x="0" y="0" rx="3"/><filter id="a" width="107.5%" height="110%" x="-5.6%" y="-2.5%" filterUnits="objectBoundingBox"><feOffset dx="-12" dy="12" in="SourceAlpha" result="shadowOffsetOuter1"/><feComposite in="shadowOffsetOuter1" in2="SourceAlpha" operator="out" result="shadowOffsetOuter1"/><feColorMatrix in="shadowOffsetOuter1" values="0 0 0 0 0.105882353 0 0 0 0 0.180392157 0 0 0 0 0.356862745 0 0 0 1 0"/></filter></defs><g fill="none" fill-rule="evenodd" transform="translate(1)"><path stroke="#1B2E5B" stroke-dasharray="6 10" stroke-width="2" d="M3 142h224a3 3 0 0 1 3 3v164a3 3 0 0 1-3 3H3a3 3 0 0 1-3-3V145a3 3 0 0 1 3-3z"/><g transform="translate(148 91)"><use fill="#000" filter="url(#a)" xlink:href="#b"/><rect width="318" height="238" x="1" y="1" fill="#FFF" stroke="#1B2E5B" stroke-linejoin="square" stroke-width="2" rx="3"/><path fill="#FFF" stroke="#1B2E5B" stroke-width="2" d="M1 23h318V3a2 2 0 0 0-2-2H3a2 2 0 0 0-2 2v20z"/><circle cx="12" cy="12" r="4" fill="#F15242"/><circle cx="24" cy="12" r="4" fill="#FFC111"/><circle cx="36" cy="12" r="4" fill="#6FD350"/><path fill="#1B2E5B" d="M72 22h2v216h-2z"/><rect width="36" height="2" x="12" y="36" fill="#F1F1F1" rx="1"/><rect width="28" height="2" x="12" y="44" fill="#F1F1F1" rx="1"/><rect width="24" height="2" x="12" y="52" fill="#F1F1F1" rx="1"/><rect width="32" height="2" x="12" y="60" fill="#F1F1F1" rx="1"/><rect width="24" height="2" x="12" y="68" fill="#F1F1F1" rx="1"/><rect width="24" height="2" x="12" y="76" fill="#F1F1F1" rx="1"/><rect width="16" height="2" x="12" y="84" fill="#F1F1F1" rx="1"/><g fill="#F1F1F1" transform="translate(12 36)"><rect width="36" height="2" rx="1"/><rect width="28" height="2" y="8" rx="1"/><rect width="24" height="2" y="16" rx="1"/><rect width="32" height="2" y="24" rx="1"/><rect width="24" height="2" y="32" rx="1"/><rect width="24" height="2" y="40" rx="1"/><rect width="16" height="2" y="48" rx="1"/></g><rect width="36" height="4" x="88" y="36" fill="#1B2E5B" rx="2"/><rect width="60" height="2" x="88" y="48" fill="#F1F1F1" rx="1"/><rect width="50" height="2" x="88" y="56" fill="#F1F1F1" rx="1"/><rect width="32" height="2" x="88" y="64" fill="#F1F1F1" rx="1"/><rect width="24" height="2" x="88" y="72" fill="#F1F1F1" rx="1"/><rect width="24" height="2" x="88" y="80" fill="#F1F1F1" rx="1"/><rect width="16" height="2" x="88" y="88" fill="#F1F1F1" rx="1"/><rect width="40" height="2" x="88" y="96" fill="#F1F1F1" rx="1"/><rect width="40" height="2" x="88" y="112" fill="#F1F1F1" rx="1"/><rect width="40" height="2" x="88" y="104" fill="#F1F1F1" rx="1"/></g><g fill="#FFF" stroke="#1B2E5B" stroke-width="2"><path d="M463 1.01V52l49.96.001c.027-.665.04-1.332.04-2.001 0-27.062-21.938-49-49-49-.334 0-.667.003-1 .01z"/><path d="M492.99 71H443V21.01c-26.6.533-48 22.262-48 48.99 0 27.062 21.938 49 49 49 26.728 0 48.457-21.4 48.99-48z"/></g><rect width="22" height="32" x="33" y="294" fill="#1B2E5B" rx="2"/><rect width="22" height="48" x="63" y="278" fill="#1B2E5B" rx="2"/><rect width="22" height="64" x="93" y="262" fill="#1B2E5B" rx="2"/><circle cx="280" cy="31" r="4" fill="#1B2E5B"/><circle cx="296" cy="31" r="4" fill="#1B2E5B"/><circle cx="312" cy="31" r="4" fill="#1B2E5B"/><g transform="translate(46 81)"><rect width="26.8" height="26.8" x="1" y="1" fill="#FFF" stroke="#1B2E5B" stroke-width="2" rx="2.7"/><path fill="#1B2E5B" fill-opacity=".2" d="M20.437 18.542c-2.388-.552-4.612-1.035-3.535-3.068 3.277-6.186.869-9.494-2.592-9.494-3.529 0-5.877 3.436-2.591 9.495 1.108 2.044-1.198 2.527-3.535 3.068-1.93.446-2.18 1.356-2.204 2.898a1.193 1.193 0 0 0 1.199 1.199H21.44c.662 0 1.21-.538 1.199-1.2-.023-1.542-.272-2.452-2.203-2.898z"/></g><g transform="translate(105 30)"><rect width="38" height="38" x="1" y="1" fill="#FFF" stroke="#1B2E5B" stroke-width="2" rx="3"/><path fill="#1B2E5B" fill-opacity=".2" d="M27.825 25.37c-3.095-.716-5.977-1.342-4.581-3.977 4.247-8.02 1.126-12.308-3.36-12.308-4.575 0-7.619 4.454-3.36 12.309 1.437 2.65-1.552 3.276-4.581 3.976-2.503.578-2.826 1.759-2.858 3.757-.013.858.697 1.554 1.554 1.554h18.488c.858 0 1.568-.697 1.554-1.554-.03-2-.353-3.18-2.856-3.758z"/></g><g transform="translate(86 126)"><rect width="30" height="30" x="1" y="1" fill="#FFF" stroke="#1B2E5B" stroke-width="2" rx="2.25"/><path fill="#1B2E5B" fill-opacity=".2" d="M21.59 19.835c-2.212-.51-4.27-.958-3.273-2.84 3.034-5.728.804-8.791-2.4-8.791-3.268 0-5.442 3.181-2.4 8.792 1.027 1.892-1.109 2.34-3.272 2.84-1.788.413-2.019 1.256-2.041 2.683-.01.613.497 1.11 1.11 1.11h13.205c.613 0 1.12-.497 1.11-1.11-.021-1.428-.252-2.271-2.04-2.684z"/></g><rect width="105" height="63" x=".5" y=".5" fill="#1B2E5B" stroke="#1B2E5B" rx="3" transform="translate(419 230)"/><rect width="104" height="62" x="1" y="1" fill="#FFF" stroke="#1B2E5B" stroke-width="2" rx="3" transform="translate(411 238)"/><g stroke="#1B2E5B" stroke-width="2" transform="translate(403 246)"><rect width="104" height="62" x="1" y="1" fill="#FFF" rx="3"/><path stroke-linecap="round" stroke-linejoin="round" d="M2 1l51 38 51-38"/></g><path fill="#1B2E5B" stroke="#1B2E5B" d="M356.219 145.719l10.55 29.014 5.45-10.894 14.984 14.985 2.121-2.121-14.985-14.985 10.894-5.449-29.014-10.55z"/></g></svg>