<svg xmlns="http://www.w3.org/2000/svg" xmlns:xlink="http://www.w3.org/1999/xlink" width="526" height="343" viewBox="0 0 526 343">
  <defs>
    <rect id="hero-b" width="320" height="240" x="0" y="0" rx="3"/>
    <filter id="hero-a" width="107.5%" height="110%" x="-5.6%" y="-2.5%" filterUnits="objectBoundingBox">
      <feOffset dx="-12" dy="12" in="SourceAlpha" result="shadowOffsetOuter1"/>
      <feComposite in="shadowOffsetOuter1" in2="SourceAlpha" operator="out" result="shadowOffsetOuter1"/>
      <feColorMatrix in="shadowOffsetOuter1" values="0 0 0 0 0.105882353   0 0 0 0 0.180392157   0 0 0 0 0.356862745  0 0 0 1 0"/>
    </filter>
  </defs>
  <g fill="none" fill-rule="evenodd" transform="translate(1)">
    <path stroke="#1B2E5B" stroke-dasharray="6 10" stroke-width="2" d="M3,142 L227,142 C228.656854,142 230,143.343146 230,145 L230,309 C230,310.656854 228.656854,312 227,312 L3,312 C1.34314575,312 2.02906125e-16,310.656854 0,309 L0,145 C-2.02906125e-16,143.343146 1.34314575,142 3,142 Z"/>
    <g transform="translate(148 91)">
      <use fill="#000" filter="url(#hero-a)" xlink:href="#hero-b"/>
      <rect width="318" height="238" x="1" y="1" fill="#FFF" stroke="#1B2E5B" stroke-linejoin="square" stroke-width="2" rx="3"/>
      <path fill="#FFF" stroke="#1B2E5B" stroke-width="2" d="M1,23 L319,23 L319,3 C319,1.8954305 318.104569,1 317,1 L3,1 C1.8954305,1 1,1.8954305 1,3 L1,23 Z"/>
      <circle cx="12" cy="12" r="4" fill="#F15242"/>
      <circle cx="24" cy="12" r="4" fill="#FFC111"/>
      <circle cx="36" cy="12" r="4" fill="#6FD350"/>
      <rect width="2" height="216" x="72" y="22" fill="#1B2E5B"/>
      <rect width="36" height="2" x="12" y="36" fill="#F1F1F1" rx="1"/>
      <rect width="28" height="2" x="12" y="44" fill="#F1F1F1" rx="1"/>
      <rect width="24" height="2" x="12" y="52" fill="#F1F1F1" rx="1"/>
      <rect width="32" height="2" x="12" y="60" fill="#F1F1F1" rx="1"/>
      <rect width="24" height="2" x="12" y="68" fill="#F1F1F1" rx="1"/>
      <rect width="24" height="2" x="12" y="76" fill="#F1F1F1" rx="1"/>
      <rect width="16" height="2" x="12" y="84" fill="#F1F1F1" rx="1"/>
      <g fill="#F1F1F1" transform="translate(12 36)">
        <rect width="36" height="2" rx="1"/>
        <rect width="28" height="2" y="8" rx="1"/>
        <rect width="24" height="2" y="16" rx="1"/>
        <rect width="32" height="2" y="24" rx="1"/>
        <rect width="24" height="2" y="32" rx="1"/>
        <rect width="24" height="2" y="40" rx="1"/>
        <rect width="16" height="2" y="48" rx="1"/>
      </g>
      <rect width="36" height="4" x="88" y="36" fill="#1B2E5B" rx="2"/>
      <rect width="60" height="2" x="88" y="48" fill="#F1F1F1" rx="1"/>
      <rect width="50" height="2" x="88" y="56" fill="#F1F1F1" rx="1"/>
      <rect width="32" height="2" x="88" y="64" fill="#F1F1F1" rx="1"/>
      <rect width="24" height="2" x="88" y="72" fill="#F1F1F1" rx="1"/>
      <rect width="24" height="2" x="88" y="80" fill="#F1F1F1" rx="1"/>
      <rect width="16" height="2" x="88" y="88" fill="#F1F1F1" rx="1"/>
      <rect width="40" height="2" x="88" y="96" fill="#F1F1F1" rx="1"/>
      <rect width="40" height="2" x="88" y="112" fill="#F1F1F1" rx="1"/>
      <rect width="40" height="2" x="88" y="104" fill="#F1F1F1" rx="1"/>
    </g>
    <g fill="#FFF" stroke="#1B2E5B" stroke-width="2" transform="translate(394)">
      <path d="M68.9996134,1.01000472 L68.9999926,52.0000189 L118.959903,52.0009608 C118.986611,51.3357746 119,50.6687022 119,50 C119,22.9380473 97.0619527,1 70,1 C69.6661254,1 69.3326527,1.00333775 68.9996134,1.01000472 Z"/>
      <path d="M98.9899989,71 L49,71 L49,21.0100011 C22.3996679,21.5425047 1,43.2721722 1,70 C1,97.0619527 22.9380473,119 50,119 C76.7278278,119 98.4574953,97.6003321 98.9899989,71 Z"/>
    </g>
    <rect width="22" height="32" x="33" y="294" fill="#1B2E5B" rx="2"/>
    <rect width="22" height="48" x="63" y="278" fill="#1B2E5B" rx="2"/>
    <rect width="22" height="64" x="93" y="262" fill="#1B2E5B" rx="2"/>
    <circle cx="280" cy="31" r="4" fill="#1B2E5B"/>
    <circle cx="296" cy="31" r="4" fill="#1B2E5B"/>
    <circle cx="312" cy="31" r="4" fill="#1B2E5B"/>
    <g transform="translate(46 81)">
      <rect width="26.8" height="26.8" x="1" y="1" fill="#FFF" stroke="#1B2E5B" stroke-width="2" rx="2.7"/>
      <path fill="#1B2E5B" fill-opacity=".2" d="M16.8366561,14.9418491 C14.4486375,14.3901493 12.2254477,13.906967 13.3023886,11.8743536 C16.5789722,5.68819682 14.1709609,2.38 10.7104443,2.38 C7.18128602,2.38 4.83325286,5.81588864 8.11850001,11.8752434 C9.2274292,13.9192023 6.92093646,14.4023846 4.5842325,14.942739 C2.65338063,15.388548 2.40436027,16.2992976 2.38014688,17.8409427 C2.36970624,18.5029825 2.91728445,19.04 3.578599,19.04 L17.8407346,19.04 C18.5027155,19.04 19.0502938,18.5020927 19.0398531,17.8409427 C19.0165283,16.2984078 18.7675079,15.3876582 16.8366561,14.9418491 L16.8366561,14.9418491 Z" transform="translate(3.6 3.6)"/>
    </g>
    <g transform="translate(105 30)">
      <rect width="38" height="38" x="1" y="1" fill="#FFF" stroke="#1B2E5B" stroke-width="2" rx="3"/>
      <path fill="#1B2E5B" fill-opacity=".2" d="M21.8252949,19.3690637 C18.7297152,18.6538972 15.8478026,18.0275498 17.243837,15.3926806 C21.4912603,7.37358847 18.3697641,3.08518519 13.8839093,3.08518519 C9.30907447,3.08518519 6.26532778,7.5391149 10.5239815,15.3938341 C11.9614823,18.0434104 8.9715843,18.6697578 5.94252361,19.3702172 C3.43956748,19.9481178 3.11676332,21.1287192 3.08537558,23.127148 C3.07184142,23.9853477 3.78166503,24.6814815 4.63892462,24.6814815 L23.1268782,24.6814815 C23.9850016,24.6814815 24.6948253,23.9841942 24.6812911,23.127148 C24.6510552,21.1275657 24.328251,19.9469643 21.8252949,19.3690637 L21.8252949,19.3690637 Z" transform="translate(6 6)"/>
    </g>
    <g transform="translate(86 126)">
      <rect width="30" height="30" x="1" y="1" fill="#FFF" stroke="#1B2E5B" stroke-width="2" rx="2.25"/>
      <path fill="#1B2E5B" fill-opacity=".2" d="M15.5894964,13.8350455 C13.378368,13.3242123 11.319859,12.8768213 12.3170264,10.9947718 C15.3509002,5.26684891 13.1212601,2.2037037 9.91707804,2.2037037 C6.64933891,2.2037037 4.47523413,5.38508207 7.51712964,10.9955958 C8.54391593,12.8881503 6.4082745,13.3355413 4.24465972,13.8358694 C2.45683392,14.2486556 2.22625951,15.0919423 2.2038397,16.5193914 C2.19417244,17.1323912 2.70118931,17.6296296 3.31351759,17.6296296 L16.5191987,17.6296296 C17.132144,17.6296296 17.6391609,17.1315673 17.6294936,16.5193914 C17.6078966,15.0911183 17.3773222,14.2478316 15.5894964,13.8350455 L15.5894964,13.8350455 Z" transform="translate(6 6)"/>
    </g>
    <rect width="105" height="63" x=".5" y=".5" fill="#1B2E5B" stroke="#1B2E5B" rx="3" transform="translate(419 230)"/>
    <rect width="104" height="62" x="1" y="1" fill="#FFF" stroke="#1B2E5B" stroke-width="2" rx="3" transform="translate(411 238)"/>
    <g stroke="#1B2E5B" stroke-width="2" transform="translate(403 246)">
      <rect width="104" height="62" x="1" y="1" fill="#FFF" rx="3"/>
      <polyline stroke-linecap="round" stroke-linejoin="round" points="2 1 53 39 104 1"/>
    </g>
    <path fill="#1B2E5B" stroke="#1B2E5B" d="M372,139.182353 L358.944567,167.158282 L370.5,163.308397 L370.5,184.5 L373.5,184.5 L373.5,163.308397 L385.055433,167.158282 L372,139.182353 Z" transform="rotate(-45 372 161.5)"/>
  </g>
</svg>
