<svg xmlns="http://www.w3.org/2000/svg" width="26" height="26" viewBox="0 0 26 26">
  <g fill="none" fill-rule="evenodd">
    <rect width="20" height="2" x="3" y="21" fill="#1B2E5B" rx="1"/>
    <circle cx="11" cy="22" r="2.5" fill="#1B2E5B" stroke="#FFF"/>
    <rect width="20" height="14" x="3" y="4" fill="#1B2E5B" rx="1"/>
    <path fill="#FFF" d="M14.4160251,8.62403772 L17.4817666,13.2226499 C17.6349428,13.4524142 17.5728559,13.7628489 17.3430916,13.9160251 C17.2609578,13.970781 17.1644539,14 17.0657415,14 L10.9342585,14 C10.6581162,14 10.4342585,13.7761424 10.4342585,13.5 C10.4342585,13.4012875 10.4634776,13.3047837 10.5182334,13.2226499 L13.5839749,8.62403772 C13.7371511,8.39427338 14.0475858,8.33218644 14.2773501,8.48536267 C14.3322762,8.5219801 14.3794077,8.56911158 14.4160251,8.62403772 Z" transform="rotate(90 14 11)"/>
  </g>
</svg>
