<svg xmlns="http://www.w3.org/2000/svg" xmlns:xlink="http://www.w3.org/1999/xlink" width="512" height="442" viewBox="0 0 512 442">
  <defs>
    <rect id="channels-b" width="315" height="216" rx="10"/>
    <filter id="channels-a" width="116.8%" height="124.5%" x="-8.4%" y="-10.4%" filterUnits="objectBoundingBox">
      <feMorphology in="SourceAlpha" operator="dilate" radius=".5" result="shadowSpreadOuter1"/>
      <feOffset dy="4" in="shadowSpreadOuter1" result="shadowOffsetOuter1"/>
      <feGaussianBlur in="shadowOffsetOuter1" result="shadowBlurOuter1" stdDeviation="8"/>
      <feComposite in="shadowBlurOuter1" in2="SourceAlpha" operator="out" result="shadowBlurOuter1"/>
      <feColorMatrix in="shadowBlurOuter1" values="0 0 0 0 0   0 0 0 0 0   0 0 0 0 0  0 0 0 0.12 0"/>
    </filter>
    <path id="channels-d" d="M12.819426,-5.17920154e-16 L307.180574,5.17920154e-16 C311.638168,-3.00926524e-16 313.254599,0.464128056 314.884229,1.33566352 C316.513858,2.20719898 317.792801,3.48614185 318.664336,5.11577148 C319.535872,6.74540111 320,8.3618323 320,12.819426 L320,81.180574 C320,85.6381677 319.535872,87.2545989 318.664336,88.8842285 C317.792801,90.5138581 316.513858,91.792801 314.884229,92.6643365 C313.254599,93.5358719 311.638168,94 307.180574,94 L12.819426,94 C8.3618323,94 6.74540111,93.5358719 5.11577148,92.6643365 C3.48614185,91.792801 2.20719898,90.5138581 1.33566352,88.8842285 C0.464128056,87.2545989 2.00617683e-16,85.6381677 -3.45280103e-16,81.180574 L3.45280103e-16,12.819426 C-2.00617683e-16,8.3618323 0.464128056,6.74540111 1.33566352,5.11577148 C2.20719898,3.48614185 3.48614185,2.20719898 5.11577148,1.33566352 C6.74540111,0.464128056 8.3618323,3.00926524e-16 12.819426,-5.17920154e-16 Z"/>
    <filter id="channels-c" width="116.6%" height="156.4%" x="-8.3%" y="-23.9%" filterUnits="objectBoundingBox">
      <feMorphology in="SourceAlpha" operator="dilate" radius=".5" result="shadowSpreadOuter1"/>
      <feOffset dy="4" in="shadowSpreadOuter1" result="shadowOffsetOuter1"/>
      <feGaussianBlur in="shadowOffsetOuter1" result="shadowBlurOuter1" stdDeviation="8"/>
      <feComposite in="shadowBlurOuter1" in2="SourceAlpha" operator="out" result="shadowBlurOuter1"/>
      <feColorMatrix in="shadowBlurOuter1" values="0 0 0 0 0   0 0 0 0 0   0 0 0 0 0  0 0 0 0.12 0"/>
    </filter>
    <path id="channels-f" d="M12.819426,-5.17920154e-16 L307.180574,5.17920154e-16 C311.638168,-3.00926524e-16 313.254599,0.464128056 314.884229,1.33566352 C316.513858,2.20719898 317.792801,3.48614185 318.664336,5.11577148 C319.535872,6.74540111 320,8.3618323 320,12.819426 L320,81.180574 C320,85.6381677 319.535872,87.2545989 318.664336,88.8842285 C317.792801,90.5138581 316.513858,91.792801 314.884229,92.6643365 C313.254599,93.5358719 311.638168,94 307.180574,94 L12.819426,94 C8.3618323,94 6.74540111,93.5358719 5.11577148,92.6643365 C3.48614185,91.792801 2.20719898,90.5138581 1.33566352,88.8842285 C0.464128056,87.2545989 2.00617683e-16,85.6381677 -3.45280103e-16,81.180574 L3.45280103e-16,12.819426 C-2.00617683e-16,8.3618323 0.464128056,6.74540111 1.33566352,5.11577148 C2.20719898,3.48614185 3.48614185,2.20719898 5.11577148,1.33566352 C6.74540111,0.464128056 8.3618323,3.00926524e-16 12.819426,-5.17920154e-16 Z"/>
    <filter id="channels-e" width="116.6%" height="156.4%" x="-8.3%" y="-23.9%" filterUnits="objectBoundingBox">
      <feMorphology in="SourceAlpha" operator="dilate" radius=".5" result="shadowSpreadOuter1"/>
      <feOffset dy="4" in="shadowSpreadOuter1" result="shadowOffsetOuter1"/>
      <feGaussianBlur in="shadowOffsetOuter1" result="shadowBlurOuter1" stdDeviation="8"/>
      <feComposite in="shadowBlurOuter1" in2="SourceAlpha" operator="out" result="shadowBlurOuter1"/>
      <feColorMatrix in="shadowBlurOuter1" values="0 0 0 0 0   0 0 0 0 0   0 0 0 0 0  0 0 0 0.12 0"/>
    </filter>
  </defs>
  <g fill="none" fill-rule="evenodd" transform="translate(16 -19)">
    <rect width="314" height="222" x="111" y="177" fill="#C9EDF4"/>
    <g transform="translate(75 82)">
      <use fill="#000" filter="url(#channels-a)" xlink:href="#channels-b"/>
      <use fill="#FFF" stroke="#8D8D8D" stroke-opacity=".24" xlink:href="#channels-b"/>
      <g transform="translate(24 56)">
        <path fill="#384254" fill-rule="nonzero" d="M71.116 35.168C69.506 35.168 68.302 34.552 67.532 33.684L68.232 32.788C68.834 33.488 69.842 34.132 71.158 34.132 72.824 34.132 73.356 33.236 73.356 32.508 73.356 30.1 67.826 31.444 67.826 28.112 67.826 26.572 69.198 25.508 71.046 25.508 72.46 25.508 73.566 25.998 74.35 26.824L73.65 27.678C72.95 26.894 71.97 26.558 70.948 26.558 69.842 26.558 69.03 27.16 69.03 28.042 69.03 30.142 74.56 28.938 74.56 32.424 74.56 33.768 73.636 35.168 71.116 35.168zM79.32 35.168C77.304 35.168 75.862 33.726 75.862 31.612 75.862 29.652 77.262 28.07 79.194 28.07 81.238 28.07 82.442 29.666 82.442 31.696L82.442 31.962 76.982 31.962C77.066 33.236 77.948 34.3 79.404 34.3 80.188 34.3 80.958 33.992 81.504 33.432L82.008 34.118C81.322 34.79 80.412 35.168 79.32 35.168zM81.406 31.178C81.392 30.184 80.72 28.938 79.18 28.938 77.738 28.938 77.024 30.156 76.968 31.178L81.406 31.178zM89.75 35L88.714 35 88.714 30.576C88.714 29.372 88.098 29.008 87.188 29.008 86.362 29.008 85.592 29.512 85.186 30.058L85.186 35 84.136 35 84.136 28.238 85.186 28.238 85.186 29.218C85.662 28.644 86.586 28.07 87.608 28.07 89.008 28.07 89.75 28.784 89.75 30.254L89.75 35zM97.814 35L96.764 35 96.764 33.992C96.26 34.678 95.434 35.168 94.482 35.168 92.718 35.168 91.472 33.824 91.472 31.626 91.472 29.456 92.718 28.07 94.482 28.07 95.392 28.07 96.218 28.518 96.764 29.26L96.764 25.662 97.814 25.662 97.814 35zM94.748 34.23C95.574 34.23 96.4 33.74 96.764 33.152L96.764 30.1C96.4 29.512 95.574 29.008 94.748 29.008 93.376 29.008 92.564 30.128 92.564 31.626 92.564 33.124 93.376 34.23 94.748 34.23zM108.818 35L107.768 35 107.768 34.23C107.222 34.846 106.438 35.168 105.528 35.168 104.394 35.168 103.176 34.398 103.176 32.928 103.176 31.402 104.38 30.702 105.528 30.702 106.452 30.702 107.222 30.996 107.768 31.612L107.768 30.394C107.768 29.498 107.04 28.98 106.06 28.98 105.248 28.98 104.59 29.26 103.988 29.918L103.498 29.19C104.226 28.434 105.094 28.07 106.2 28.07 107.642 28.07 108.818 28.714 108.818 30.352L108.818 35zM105.92 34.412C106.648 34.412 107.362 34.132 107.768 33.572L107.768 32.284C107.362 31.738 106.648 31.458 105.92 31.458 104.926 31.458 104.24 32.074 104.24 32.928 104.24 33.796 104.926 34.412 105.92 34.412zM116.546 35L115.51 35 115.51 30.576C115.51 29.372 114.894 29.008 113.984 29.008 113.158 29.008 112.388 29.512 111.982 30.058L111.982 35 110.932 35 110.932 28.238 111.982 28.238 111.982 29.218C112.458 28.644 113.382 28.07 114.404 28.07 115.804 28.07 116.546 28.784 116.546 30.254L116.546 35zM125.352 35.168C123.336 35.168 121.894 33.726 121.894 31.612 121.894 29.652 123.294 28.07 125.226 28.07 127.27 28.07 128.474 29.666 128.474 31.696L128.474 31.962 123.014 31.962C123.098 33.236 123.98 34.3 125.436 34.3 126.22 34.3 126.99 33.992 127.536 33.432L128.04 34.118C127.354 34.79 126.444 35.168 125.352 35.168zM127.438 31.178C127.424 30.184 126.752 28.938 125.212 28.938 123.77 28.938 123.056 30.156 123 31.178L127.438 31.178zM139.38 35L138.33 35 138.33 30.408C138.33 29.554 137.966 29.008 137.084 29.008 136.384 29.008 135.642 29.498 135.292 30.044L135.292 35 134.242 35 134.242 30.408C134.242 29.554 133.892 29.008 132.996 29.008 132.31 29.008 131.582 29.512 131.218 30.058L131.218 35 130.168 35 130.168 28.238 131.218 28.238 131.218 29.218C131.512 28.784 132.408 28.07 133.416 28.07 134.438 28.07 135.026 28.63 135.222 29.33 135.6 28.714 136.51 28.07 137.49 28.07 138.722 28.07 139.38 28.756 139.38 30.114L139.38 35zM146.758 35L145.708 35 145.708 34.23C145.162 34.846 144.378 35.168 143.468 35.168 142.334 35.168 141.116 34.398 141.116 32.928 141.116 31.402 142.32 30.702 143.468 30.702 144.392 30.702 145.162 30.996 145.708 31.612L145.708 30.394C145.708 29.498 144.98 28.98 144 28.98 143.188 28.98 142.53 29.26 141.928 29.918L141.438 29.19C142.166 28.434 143.034 28.07 144.14 28.07 145.582 28.07 146.758 28.714 146.758 30.352L146.758 35zM143.86 34.412C144.588 34.412 145.302 34.132 145.708 33.572L145.708 32.284C145.302 31.738 144.588 31.458 143.86 31.458 142.866 31.458 142.18 32.074 142.18 32.928 142.18 33.796 142.866 34.412 143.86 34.412zM149.404 27.272C149.012 27.272 148.69 26.964 148.69 26.572 148.69 26.18 149.012 25.858 149.404 25.858 149.796 25.858 150.104 26.18 150.104 26.572 150.104 26.964 149.796 27.272 149.404 27.272zM149.922 35L148.872 35 148.872 28.238 149.922 28.238 149.922 35zM153.072 35L152.022 35 152.022 25.662 153.072 25.662 153.072 35zM161.78 35.168C159.764 35.168 158.406 33.614 158.406 31.612 158.406 29.61 159.764 28.07 161.78 28.07 163.012 28.07 163.74 28.574 164.258 29.246L163.558 29.876C163.11 29.26 162.536 29.008 161.836 29.008 160.408 29.008 159.498 30.114 159.498 31.612 159.498 33.11 160.408 34.23 161.836 34.23 162.536 34.23 163.11 33.95 163.558 33.348L164.258 33.992C163.74 34.664 163.012 35.168 161.78 35.168zM168.696 35.168C166.638 35.168 165.35 33.572 165.35 31.612 165.35 29.652 166.638 28.07 168.696 28.07 170.754 28.07 172.042 29.652 172.042 31.612 172.042 33.572 170.754 35.168 168.696 35.168zM168.696 34.23C170.138 34.23 170.936 32.998 170.936 31.612 170.936 30.24 170.138 29.008 168.696 29.008 167.254 29.008 166.456 30.24 166.456 31.612 166.456 32.998 167.254 34.23 168.696 34.23zM182.962 35L181.912 35 181.912 30.408C181.912 29.554 181.548 29.008 180.666 29.008 179.966 29.008 179.224 29.498 178.874 30.044L178.874 35 177.824 35 177.824 30.408C177.824 29.554 177.474 29.008 176.578 29.008 175.892 29.008 175.164 29.512 174.8 30.058L174.8 35 173.75 35 173.75 28.238 174.8 28.238 174.8 29.218C175.094 28.784 175.99 28.07 176.998 28.07 178.02 28.07 178.608 28.63 178.804 29.33 179.182 28.714 180.092 28.07 181.072 28.07 182.304 28.07 182.962 28.756 182.962 30.114L182.962 35zM194.274 35L193.224 35 193.224 30.408C193.224 29.554 192.86 29.008 191.978 29.008 191.278 29.008 190.536 29.498 190.186 30.044L190.186 35 189.136 35 189.136 30.408C189.136 29.554 188.786 29.008 187.89 29.008 187.204 29.008 186.476 29.512 186.112 30.058L186.112 35 185.062 35 185.062 28.238 186.112 28.238 186.112 29.218C186.406 28.784 187.302 28.07 188.31 28.07 189.332 28.07 189.92 28.63 190.116 29.33 190.494 28.714 191.404 28.07 192.384 28.07 193.616 28.07 194.274 28.756 194.274 30.114L194.274 35zM201.988 35L200.938 35 200.938 34.048C200.42 34.636 199.538 35.168 198.53 35.168 197.116 35.168 196.374 34.468 196.374 33.012L196.374 28.238 197.424 28.238 197.424 32.69C197.424 33.88 198.026 34.23 198.95 34.23 199.762 34.23 200.546 33.754 200.938 33.208L200.938 28.238 201.988 28.238 201.988 35zM209.702 35L208.666 35 208.666 30.576C208.666 29.372 208.05 29.008 207.14 29.008 206.314 29.008 205.544 29.512 205.138 30.058L205.138 35 204.088 35 204.088 28.238 205.138 28.238 205.138 29.218C205.614 28.644 206.538 28.07 207.56 28.07 208.96 28.07 209.702 28.784 209.702 30.254L209.702 35zM212.348 27.272C211.956 27.272 211.634 26.964 211.634 26.572 211.634 26.18 211.956 25.858 212.348 25.858 212.74 25.858 213.048 26.18 213.048 26.572 213.048 26.964 212.74 27.272 212.348 27.272zM212.866 35L211.816 35 211.816 28.238 212.866 28.238 212.866 35zM217.948 35.168C215.932 35.168 214.574 33.614 214.574 31.612 214.574 29.61 215.932 28.07 217.948 28.07 219.18 28.07 219.908 28.574 220.426 29.246L219.726 29.876C219.278 29.26 218.704 29.008 218.004 29.008 216.576 29.008 215.666 30.114 215.666 31.612 215.666 33.11 216.576 34.23 218.004 34.23 218.704 34.23 219.278 33.95 219.726 33.348L220.426 33.992C219.908 34.664 219.18 35.168 217.948 35.168zM227.188 35L226.138 35 226.138 34.23C225.592 34.846 224.808 35.168 223.898 35.168 222.764 35.168 221.546 34.398 221.546 32.928 221.546 31.402 222.75 30.702 223.898 30.702 224.822 30.702 225.592 30.996 226.138 31.612L226.138 30.394C226.138 29.498 225.41 28.98 224.43 28.98 223.618 28.98 222.96 29.26 222.358 29.918L221.868 29.19C222.596 28.434 223.464 28.07 224.57 28.07 226.012 28.07 227.188 28.714 227.188 30.352L227.188 35zM224.29 34.412C225.018 34.412 225.732 34.132 226.138 33.572L226.138 32.284C225.732 31.738 225.018 31.458 224.29 31.458 223.296 31.458 222.61 32.074 222.61 32.928 222.61 33.796 223.296 34.412 224.29 34.412zM231.024 35.168C230.016 35.168 229.512 34.594 229.512 33.586L229.512 29.162 228.392 29.162 228.392 28.238 229.512 28.238 229.512 26.39 230.576 26.39 230.576 28.238 231.948 28.238 231.948 29.162 230.576 29.162 230.576 33.362C230.576 33.866 230.8 34.23 231.248 34.23 231.556 34.23 231.822 34.09 231.962 33.936L232.27 34.734C232.004 34.986 231.626 35.168 231.024 35.168zM233.95 27.272C233.558 27.272 233.236 26.964 233.236 26.572 233.236 26.18 233.558 25.858 233.95 25.858 234.342 25.858 234.65 26.18 234.65 26.572 234.65 26.964 234.342 27.272 233.95 27.272zM234.468 35L233.418 35 233.418 28.238 234.468 28.238 234.468 35zM239.522 35.168C237.464 35.168 236.176 33.572 236.176 31.612 236.176 29.652 237.464 28.07 239.522 28.07 241.58 28.07 242.868 29.652 242.868 31.612 242.868 33.572 241.58 35.168 239.522 35.168zM239.522 34.23C240.964 34.23 241.762 32.998 241.762 31.612 241.762 30.24 240.964 29.008 239.522 29.008 238.08 29.008 237.282 30.24 237.282 31.612 237.282 32.998 238.08 34.23 239.522 34.23zM250.19 35L249.154 35 249.154 30.576C249.154 29.372 248.538 29.008 247.628 29.008 246.802 29.008 246.032 29.512 245.626 30.058L245.626 35 244.576 35 244.576 28.238 245.626 28.238 245.626 29.218C246.102 28.644 247.026 28.07 248.048 28.07 249.448 28.07 250.19 28.784 250.19 30.254L250.19 35zM69.772 53.168C68.764 53.168 68.26 52.594 68.26 51.586L68.26 47.162 67.14 47.162 67.14 46.238 68.26 46.238 68.26 44.39 69.324 44.39 69.324 46.238 70.696 46.238 70.696 47.162 69.324 47.162 69.324 51.362C69.324 51.866 69.548 52.23 69.996 52.23 70.304 52.23 70.57 52.09 70.71 51.936L71.018 52.734C70.752 52.986 70.374 53.168 69.772 53.168zM75.12 53.168C73.062 53.168 71.774 51.572 71.774 49.612 71.774 47.652 73.062 46.07 75.12 46.07 77.178 46.07 78.466 47.652 78.466 49.612 78.466 51.572 77.178 53.168 75.12 53.168zM75.12 52.23C76.562 52.23 77.36 50.998 77.36 49.612 77.36 48.24 76.562 47.008 75.12 47.008 73.678 47.008 72.88 48.24 72.88 49.612 72.88 50.998 73.678 52.23 75.12 52.23zM85.522 53.168C84.514 53.168 84.01 52.594 84.01 51.586L84.01 47.162 82.89 47.162 82.89 46.238 84.01 46.238 84.01 44.39 85.074 44.39 85.074 46.238 86.446 46.238 86.446 47.162 85.074 47.162 85.074 51.362C85.074 51.866 85.298 52.23 85.746 52.23 86.054 52.23 86.32 52.09 86.46 51.936L86.768 52.734C86.502 52.986 86.124 53.168 85.522 53.168zM93.544 53L92.494 53 92.494 48.548C92.494 47.344 91.892 47.008 90.968 47.008 90.156 47.008 89.372 47.512 88.98 48.058L88.98 53 87.93 53 87.93 43.662 88.98 43.662 88.98 47.218C89.442 46.644 90.366 46.07 91.388 46.07 92.802 46.07 93.544 46.756 93.544 48.226L93.544 53zM98.71 53.168C96.694 53.168 95.252 51.726 95.252 49.612 95.252 47.652 96.652 46.07 98.584 46.07 100.628 46.07 101.832 47.666 101.832 49.696L101.832 49.962 96.372 49.962C96.456 51.236 97.338 52.3 98.794 52.3 99.578 52.3 100.348 51.992 100.894 51.432L101.398 52.118C100.712 52.79 99.802 53.168 98.71 53.168zM100.796 49.178C100.782 48.184 100.11 46.938 98.57 46.938 97.128 46.938 96.414 48.156 96.358 49.178L100.796 49.178zM112.766 53L111.716 53 111.716 52.048C111.198 52.636 110.316 53.168 109.308 53.168 107.894 53.168 107.152 52.468 107.152 51.012L107.152 46.238 108.202 46.238 108.202 50.69C108.202 51.88 108.804 52.23 109.728 52.23 110.54 52.23 111.324 51.754 111.716 51.208L111.716 46.238 112.766 46.238 112.766 53zM117.022 53.168C115.902 53.168 114.978 52.818 114.292 52.104L114.824 51.348C115.272 51.866 116.126 52.314 117.05 52.314 118.086 52.314 118.66 51.824 118.66 51.152 118.66 49.514 114.474 50.522 114.474 48.016 114.474 46.952 115.37 46.07 116.98 46.07 118.142 46.07 118.954 46.504 119.486 47.05L118.996 47.778C118.59 47.288 117.862 46.924 116.98 46.924 116.056 46.924 115.482 47.386 115.482 47.988 115.482 49.458 119.668 48.492 119.668 51.124 119.668 52.258 118.758 53.168 117.022 53.168zM124.442 53.168C122.426 53.168 120.984 51.726 120.984 49.612 120.984 47.652 122.384 46.07 124.316 46.07 126.36 46.07 127.564 47.666 127.564 49.696L127.564 49.962 122.104 49.962C122.188 51.236 123.07 52.3 124.526 52.3 125.31 52.3 126.08 51.992 126.626 51.432L127.13 52.118C126.444 52.79 125.534 53.168 124.442 53.168zM126.528 49.178C126.514 48.184 125.842 46.938 124.302 46.938 122.86 46.938 122.146 48.156 122.09 49.178L126.528 49.178zM130.308 53L129.258 53 129.258 46.238 130.308 46.238 130.308 47.316C130.854 46.616 131.638 46.084 132.562 46.084L132.562 47.162C132.436 47.148 132.31 47.134 132.156 47.134 131.498 47.134 130.616 47.666 130.308 48.212L130.308 53zM75.07 13L67.99 13 67.99 2.995 75.07 2.995 75.07 4.87 70.12 4.87 70.12 6.97 74.965 6.97 74.965 8.845 70.12 8.845 70.12 11.125 75.07 11.125 75.07 13zM87.595 13L85.675 13 85.675 8.425C85.675 7.75 85.375 7.27 84.595 7.27 83.92 7.27 83.365 7.72 83.095 8.11L83.095 13 81.175 13 81.175 8.425C81.175 7.75 80.875 7.27 80.095 7.27 79.435 7.27 78.88 7.72 78.595 8.11L78.595 13 76.69 13 76.69 5.755 78.595 5.755 78.595 6.685C78.91 6.265 79.855 5.575 80.965 5.575 82.03 5.575 82.72 6.07 82.975 6.88 83.395 6.235 84.355 5.575 85.465 5.575 86.8 5.575 87.595 6.28 87.595 7.765L87.595 13zM95.755 13L93.835 13 93.835 12.235C93.34 12.835 92.485 13.18 91.54 13.18 90.385 13.18 89.035 12.4 89.035 10.78 89.035 9.07 90.385 8.44 91.54 8.44 92.515 8.44 93.355 8.755 93.835 9.325L93.835 8.41C93.835 7.675 93.205 7.195 92.245 7.195 91.48 7.195 90.76 7.495 90.16 8.05L89.41 6.715C90.295 5.92 91.435 5.575 92.575 5.575 94.24 5.575 95.755 6.235 95.755 8.32L95.755 13zM92.305 11.89C92.92 11.89 93.52 11.68 93.835 11.26L93.835 10.36C93.52 9.94 92.92 9.715 92.305 9.715 91.555 9.715 90.94 10.12 90.94 10.81 90.94 11.5 91.555 11.89 92.305 11.89zM98.575 4.975C97.96 4.975 97.45 4.465 97.45 3.835 97.45 3.205 97.96 2.71 98.575 2.71 99.205 2.71 99.715 3.205 99.715 3.835 99.715 4.465 99.205 4.975 98.575 4.975zM99.535 13L97.63 13 97.63 5.755 99.535 5.755 99.535 13zM103.33 13L101.425 13 101.425 2.995 103.33 2.995 103.33 13z"/>
        <rect width="50" height="50" x=".5" y=".5" fill="#FFF" stroke="#E1E1E1" rx="10"/>
        <path fill="#01B2D0" d="M2.42105263,7.25349428 C2.42105263,5.9217209 3.50253361,4.84210526 4.83228086,4.84210526 L18.1677191,4.84210526 C19.4994037,4.84210526 20.5789474,5.9317922 20.5789474,7.25349428 L20.5789474,15.7465057 C20.5789474,17.0782791 19.4974664,18.1578947 18.1677191,18.1578947 L4.83228086,18.1578947 C3.50059628,18.1578947 2.42105263,17.0682078 2.42105263,15.7465057 L2.42105263,7.25349428 Z M11.5,13.0683997 L5.27020489,6.83528618 C5.03389787,6.59885329 4.65066645,6.59875125 4.41423355,6.83505827 C4.17780066,7.07136529 4.17769862,7.45459671 4.41400564,7.69102961 L11.0719004,14.3524708 C11.3082964,14.5889927 11.6917036,14.5889927 11.9280996,14.3524708 L18.5859944,7.69102961 C18.8223014,7.45459671 18.8221993,7.07136529 18.5857664,6.83505827 C18.3493336,6.59875125 17.9661021,6.59885329 17.7297951,6.83528618 L11.5,13.0683997 Z" transform="translate(14 14)"/>
      </g>
      <path fill="#384254" fill-rule="nonzero" d="M32.064,37 L30.468,37 L29.88,35.452 L26.208,35.452 L25.62,37 L24.024,37 L27.168,28.996 L28.92,28.996 L32.064,37 Z M29.484,34.216 L28.044,30.4 L26.604,34.216 L29.484,34.216 Z M36.36,37.144 C33.996,37.144 32.16,35.464 32.16,33.004 C32.16,30.532 33.996,28.864 36.36,28.864 C37.968,28.864 38.976,29.692 39.564,30.652 L38.376,31.276 C37.992,30.604 37.212,30.112 36.36,30.112 C34.776,30.112 33.6,31.312 33.6,33.004 C33.6,34.672 34.776,35.896 36.36,35.896 C37.212,35.896 37.992,35.392 38.376,34.732 L39.576,35.332 C38.964,36.292 37.968,37.144 36.36,37.144 Z M44.004,37 L42.6,37 L42.6,30.232 L40.176,30.232 L40.176,28.996 L46.428,28.996 L46.428,30.232 L44.004,30.232 L44.004,37 Z M49.02,37 L47.616,37 L47.616,28.996 L49.02,28.996 L49.02,37 Z M54.468,37.144 C52.068,37.144 50.376,35.392 50.376,33.004 C50.376,30.616 52.068,28.864 54.468,28.864 C56.856,28.864 58.56,30.616 58.56,33.004 C58.56,35.392 56.856,37.144 54.468,37.144 Z M54.468,35.896 C56.076,35.896 57.12,34.648 57.12,33.004 C57.12,31.348 56.076,30.112 54.468,30.112 C52.848,30.112 51.816,31.348 51.816,33.004 C51.816,34.648 52.848,35.896 54.468,35.896 Z M66.84,37 L65.484,37 L61.308,31.276 L61.308,37 L59.904,37 L59.904,28.996 L61.344,28.996 L65.436,34.54 L65.436,28.996 L66.84,28.996 L66.84,37 Z M71.292,37.144 C69.816,37.144 68.748,36.616 68.028,35.872 L68.82,34.78 C69.36,35.368 70.236,35.896 71.352,35.896 C72.504,35.896 72.948,35.332 72.948,34.792 C72.948,33.112 68.292,34.156 68.292,31.216 C68.292,29.884 69.444,28.864 71.208,28.864 C72.444,28.864 73.464,29.272 74.196,29.992 L73.404,31.036 C72.768,30.4 71.916,30.112 71.076,30.112 C70.26,30.112 69.732,30.52 69.732,31.108 C69.732,32.608 74.388,31.684 74.388,34.66 C74.388,35.992 73.44,37.144 71.292,37.144 Z" opacity=".5"/>
      <g transform="translate(24 134)">
        <path fill="#384254" fill-rule="nonzero" d="M71.116 35.168C69.506 35.168 68.302 34.552 67.532 33.684L68.232 32.788C68.834 33.488 69.842 34.132 71.158 34.132 72.824 34.132 73.356 33.236 73.356 32.508 73.356 30.1 67.826 31.444 67.826 28.112 67.826 26.572 69.198 25.508 71.046 25.508 72.46 25.508 73.566 25.998 74.35 26.824L73.65 27.678C72.95 26.894 71.97 26.558 70.948 26.558 69.842 26.558 69.03 27.16 69.03 28.042 69.03 30.142 74.56 28.938 74.56 32.424 74.56 33.768 73.636 35.168 71.116 35.168zM79.32 35.168C77.304 35.168 75.862 33.726 75.862 31.612 75.862 29.652 77.262 28.07 79.194 28.07 81.238 28.07 82.442 29.666 82.442 31.696L82.442 31.962 76.982 31.962C77.066 33.236 77.948 34.3 79.404 34.3 80.188 34.3 80.958 33.992 81.504 33.432L82.008 34.118C81.322 34.79 80.412 35.168 79.32 35.168zM81.406 31.178C81.392 30.184 80.72 28.938 79.18 28.938 77.738 28.938 77.024 30.156 76.968 31.178L81.406 31.178zM89.75 35L88.714 35 88.714 30.576C88.714 29.372 88.098 29.008 87.188 29.008 86.362 29.008 85.592 29.512 85.186 30.058L85.186 35 84.136 35 84.136 28.238 85.186 28.238 85.186 29.218C85.662 28.644 86.586 28.07 87.608 28.07 89.008 28.07 89.75 28.784 89.75 30.254L89.75 35zM97.814 35L96.764 35 96.764 33.992C96.26 34.678 95.434 35.168 94.482 35.168 92.718 35.168 91.472 33.824 91.472 31.626 91.472 29.456 92.718 28.07 94.482 28.07 95.392 28.07 96.218 28.518 96.764 29.26L96.764 25.662 97.814 25.662 97.814 35zM94.748 34.23C95.574 34.23 96.4 33.74 96.764 33.152L96.764 30.1C96.4 29.512 95.574 29.008 94.748 29.008 93.376 29.008 92.564 30.128 92.564 31.626 92.564 33.124 93.376 34.23 94.748 34.23zM108.818 35L107.768 35 107.768 34.23C107.222 34.846 106.438 35.168 105.528 35.168 104.394 35.168 103.176 34.398 103.176 32.928 103.176 31.402 104.38 30.702 105.528 30.702 106.452 30.702 107.222 30.996 107.768 31.612L107.768 30.394C107.768 29.498 107.04 28.98 106.06 28.98 105.248 28.98 104.59 29.26 103.988 29.918L103.498 29.19C104.226 28.434 105.094 28.07 106.2 28.07 107.642 28.07 108.818 28.714 108.818 30.352L108.818 35zM105.92 34.412C106.648 34.412 107.362 34.132 107.768 33.572L107.768 32.284C107.362 31.738 106.648 31.458 105.92 31.458 104.926 31.458 104.24 32.074 104.24 32.928 104.24 33.796 104.926 34.412 105.92 34.412zM117.89 35.168C116.966 35.168 116.168 34.72 115.608 33.978L115.608 37.576 114.558 37.576 114.558 28.238 115.608 28.238 115.608 29.246C116.098 28.56 116.938 28.07 117.89 28.07 119.668 28.07 120.9 29.414 120.9 31.612 120.9 33.796 119.668 35.168 117.89 35.168zM117.624 34.23C118.982 34.23 119.794 33.11 119.794 31.612 119.794 30.114 118.982 29.008 117.624 29.008 116.798 29.008 115.972 29.498 115.608 30.086L115.608 33.138C115.972 33.726 116.798 34.23 117.624 34.23zM128.18 35L127.13 35 127.13 34.048C126.612 34.636 125.73 35.168 124.722 35.168 123.308 35.168 122.566 34.468 122.566 33.012L122.566 28.238 123.616 28.238 123.616 32.69C123.616 33.88 124.218 34.23 125.142 34.23 125.954 34.23 126.738 33.754 127.13 33.208L127.13 28.238 128.18 28.238 128.18 35zM132.436 35.168C131.316 35.168 130.392 34.818 129.706 34.104L130.238 33.348C130.686 33.866 131.54 34.314 132.464 34.314 133.5 34.314 134.074 33.824 134.074 33.152 134.074 31.514 129.888 32.522 129.888 30.016 129.888 28.952 130.784 28.07 132.394 28.07 133.556 28.07 134.368 28.504 134.9 29.05L134.41 29.778C134.004 29.288 133.276 28.924 132.394 28.924 131.47 28.924 130.896 29.386 130.896 29.988 130.896 31.458 135.082 30.492 135.082 33.124 135.082 34.258 134.172 35.168 132.436 35.168zM142.418 35L141.368 35 141.368 30.548C141.368 29.344 140.766 29.008 139.842 29.008 139.03 29.008 138.246 29.512 137.854 30.058L137.854 35 136.804 35 136.804 25.662 137.854 25.662 137.854 29.218C138.316 28.644 139.24 28.07 140.262 28.07 141.676 28.07 142.418 28.756 142.418 30.226L142.418 35zM153.758 35L152.722 35 152.722 30.576C152.722 29.372 152.106 29.008 151.196 29.008 150.37 29.008 149.6 29.512 149.194 30.058L149.194 35 148.144 35 148.144 28.238 149.194 28.238 149.194 29.218C149.67 28.644 150.594 28.07 151.616 28.07 153.016 28.07 153.758 28.784 153.758 30.254L153.758 35zM158.826 35.168C156.768 35.168 155.48 33.572 155.48 31.612 155.48 29.652 156.768 28.07 158.826 28.07 160.884 28.07 162.172 29.652 162.172 31.612 162.172 33.572 160.884 35.168 158.826 35.168zM158.826 34.23C160.268 34.23 161.066 32.998 161.066 31.612 161.066 30.24 160.268 29.008 158.826 29.008 157.384 29.008 156.586 30.24 156.586 31.612 156.586 32.998 157.384 34.23 158.826 34.23zM165.602 35.168C164.594 35.168 164.09 34.594 164.09 33.586L164.09 29.162 162.97 29.162 162.97 28.238 164.09 28.238 164.09 26.39 165.154 26.39 165.154 28.238 166.526 28.238 166.526 29.162 165.154 29.162 165.154 33.362C165.154 33.866 165.378 34.23 165.826 34.23 166.134 34.23 166.4 34.09 166.54 33.936L166.848 34.734C166.582 34.986 166.204 35.168 165.602 35.168zM168.528 27.272C168.136 27.272 167.814 26.964 167.814 26.572 167.814 26.18 168.136 25.858 168.528 25.858 168.92 25.858 169.228 26.18 169.228 26.572 169.228 26.964 168.92 27.272 168.528 27.272zM169.046 35L167.996 35 167.996 28.238 169.046 28.238 169.046 35zM172.49 35L171.44 35 171.44 29.162 170.32 29.162 170.32 28.238 171.44 28.238 171.44 27.72C171.44 26.32 172.238 25.522 173.4 25.522 173.806 25.522 174.156 25.592 174.436 25.746L174.17 26.544C174.002 26.446 173.82 26.39 173.568 26.39 172.868 26.39 172.49 26.852 172.49 27.72L172.49 28.238 173.862 28.238 173.862 29.162 172.49 29.162 172.49 35zM175.654 27.272C175.262 27.272 174.94 26.964 174.94 26.572 174.94 26.18 175.262 25.858 175.654 25.858 176.046 25.858 176.354 26.18 176.354 26.572 176.354 26.964 176.046 27.272 175.654 27.272zM176.172 35L175.122 35 175.122 28.238 176.172 28.238 176.172 35zM181.254 35.168C179.238 35.168 177.88 33.614 177.88 31.612 177.88 29.61 179.238 28.07 181.254 28.07 182.486 28.07 183.214 28.574 183.732 29.246L183.032 29.876C182.584 29.26 182.01 29.008 181.31 29.008 179.882 29.008 178.972 30.114 178.972 31.612 178.972 33.11 179.882 34.23 181.31 34.23 182.01 34.23 182.584 33.95 183.032 33.348L183.732 33.992C183.214 34.664 182.486 35.168 181.254 35.168zM190.494 35L189.444 35 189.444 34.23C188.898 34.846 188.114 35.168 187.204 35.168 186.07 35.168 184.852 34.398 184.852 32.928 184.852 31.402 186.056 30.702 187.204 30.702 188.128 30.702 188.898 30.996 189.444 31.612L189.444 30.394C189.444 29.498 188.716 28.98 187.736 28.98 186.924 28.98 186.266 29.26 185.664 29.918L185.174 29.19C185.902 28.434 186.77 28.07 187.876 28.07 189.318 28.07 190.494 28.714 190.494 30.352L190.494 35zM187.596 34.412C188.324 34.412 189.038 34.132 189.444 33.572L189.444 32.284C189.038 31.738 188.324 31.458 187.596 31.458 186.602 31.458 185.916 32.074 185.916 32.928 185.916 33.796 186.602 34.412 187.596 34.412zM194.33 35.168C193.322 35.168 192.818 34.594 192.818 33.586L192.818 29.162 191.698 29.162 191.698 28.238 192.818 28.238 192.818 26.39 193.882 26.39 193.882 28.238 195.254 28.238 195.254 29.162 193.882 29.162 193.882 33.362C193.882 33.866 194.106 34.23 194.554 34.23 194.862 34.23 195.128 34.09 195.268 33.936L195.576 34.734C195.31 34.986 194.932 35.168 194.33 35.168zM197.256 27.272C196.864 27.272 196.542 26.964 196.542 26.572 196.542 26.18 196.864 25.858 197.256 25.858 197.648 25.858 197.956 26.18 197.956 26.572 197.956 26.964 197.648 27.272 197.256 27.272zM197.774 35L196.724 35 196.724 28.238 197.774 28.238 197.774 35zM202.828 35.168C200.77 35.168 199.482 33.572 199.482 31.612 199.482 29.652 200.77 28.07 202.828 28.07 204.886 28.07 206.174 29.652 206.174 31.612 206.174 33.572 204.886 35.168 202.828 35.168zM202.828 34.23C204.27 34.23 205.068 32.998 205.068 31.612 205.068 30.24 204.27 29.008 202.828 29.008 201.386 29.008 200.588 30.24 200.588 31.612 200.588 32.998 201.386 34.23 202.828 34.23zM213.496 35L212.46 35 212.46 30.576C212.46 29.372 211.844 29.008 210.934 29.008 210.108 29.008 209.338 29.512 208.932 30.058L208.932 35 207.882 35 207.882 28.238 208.932 28.238 208.932 29.218C209.408 28.644 210.332 28.07 211.354 28.07 212.754 28.07 213.496 28.784 213.496 30.254L213.496 35zM220.958 35.168C219.95 35.168 219.446 34.594 219.446 33.586L219.446 29.162 218.326 29.162 218.326 28.238 219.446 28.238 219.446 26.39 220.51 26.39 220.51 28.238 221.882 28.238 221.882 29.162 220.51 29.162 220.51 33.362C220.51 33.866 220.734 34.23 221.182 34.23 221.49 34.23 221.756 34.09 221.896 33.936L222.204 34.734C221.938 34.986 221.56 35.168 220.958 35.168zM226.306 35.168C224.248 35.168 222.96 33.572 222.96 31.612 222.96 29.652 224.248 28.07 226.306 28.07 228.364 28.07 229.652 29.652 229.652 31.612 229.652 33.572 228.364 35.168 226.306 35.168zM226.306 34.23C227.748 34.23 228.546 32.998 228.546 31.612 228.546 30.24 227.748 29.008 226.306 29.008 224.864 29.008 224.066 30.24 224.066 31.612 224.066 32.998 224.864 34.23 226.306 34.23zM236.708 35.168C235.7 35.168 235.196 34.594 235.196 33.586L235.196 29.162 234.076 29.162 234.076 28.238 235.196 28.238 235.196 26.39 236.26 26.39 236.26 28.238 237.632 28.238 237.632 29.162 236.26 29.162 236.26 33.362C236.26 33.866 236.484 34.23 236.932 34.23 237.24 34.23 237.506 34.09 237.646 33.936L237.954 34.734C237.688 34.986 237.31 35.168 236.708 35.168zM244.73 35L243.68 35 243.68 30.548C243.68 29.344 243.078 29.008 242.154 29.008 241.342 29.008 240.558 29.512 240.166 30.058L240.166 35 239.116 35 239.116 25.662 240.166 25.662 240.166 29.218C240.628 28.644 241.552 28.07 242.574 28.07 243.988 28.07 244.73 28.756 244.73 30.226L244.73 35zM249.896 35.168C247.88 35.168 246.438 33.726 246.438 31.612 246.438 29.652 247.838 28.07 249.77 28.07 251.814 28.07 253.018 29.666 253.018 31.696L253.018 31.962 247.558 31.962C247.642 33.236 248.524 34.3 249.98 34.3 250.764 34.3 251.534 33.992 252.08 33.432L252.584 34.118C251.898 34.79 250.988 35.168 249.896 35.168zM251.982 31.178C251.968 30.184 251.296 28.938 249.756 28.938 248.314 28.938 247.6 30.156 247.544 31.178L251.982 31.178zM73.664 53L72.614 53 72.614 52.048C72.096 52.636 71.214 53.168 70.206 53.168 68.792 53.168 68.05 52.468 68.05 51.012L68.05 46.238 69.1 46.238 69.1 50.69C69.1 51.88 69.702 52.23 70.626 52.23 71.438 52.23 72.222 51.754 72.614 51.208L72.614 46.238 73.664 46.238 73.664 53zM77.92 53.168C76.8 53.168 75.876 52.818 75.19 52.104L75.722 51.348C76.17 51.866 77.024 52.314 77.948 52.314 78.984 52.314 79.558 51.824 79.558 51.152 79.558 49.514 75.372 50.522 75.372 48.016 75.372 46.952 76.268 46.07 77.878 46.07 79.04 46.07 79.852 46.504 80.384 47.05L79.894 47.778C79.488 47.288 78.76 46.924 77.878 46.924 76.954 46.924 76.38 47.386 76.38 47.988 76.38 49.458 80.566 48.492 80.566 51.124 80.566 52.258 79.656 53.168 77.92 53.168zM85.34 53.168C83.324 53.168 81.882 51.726 81.882 49.612 81.882 47.652 83.282 46.07 85.214 46.07 87.258 46.07 88.462 47.666 88.462 49.696L88.462 49.962 83.002 49.962C83.086 51.236 83.968 52.3 85.424 52.3 86.208 52.3 86.978 51.992 87.524 51.432L88.028 52.118C87.342 52.79 86.432 53.168 85.34 53.168zM87.426 49.178C87.412 48.184 86.74 46.938 85.2 46.938 83.758 46.938 83.044 48.156 82.988 49.178L87.426 49.178zM91.206 53L90.156 53 90.156 46.238 91.206 46.238 91.206 47.316C91.752 46.616 92.536 46.084 93.46 46.084L93.46 47.162C93.334 47.148 93.208 47.134 93.054 47.134 92.396 47.134 91.514 47.666 91.206 48.212L91.206 53zM96.19 44.586C96.19 45.44 95.7 46.238 95.056 46.7L94.524 46.266C94.972 45.972 95.378 45.412 95.434 44.964 95.406 44.978 95.308 44.992 95.238 44.992 94.86 44.992 94.566 44.684 94.566 44.278 94.566 43.872 94.888 43.522 95.308 43.522 95.784 43.522 96.19 43.9 96.19 44.586zM99.732 53.168C98.612 53.168 97.688 52.818 97.002 52.104L97.534 51.348C97.982 51.866 98.836 52.314 99.76 52.314 100.796 52.314 101.37 51.824 101.37 51.152 101.37 49.514 97.184 50.522 97.184 48.016 97.184 46.952 98.08 46.07 99.69 46.07 100.852 46.07 101.664 46.504 102.196 47.05L101.706 47.778C101.3 47.288 100.572 46.924 99.69 46.924 98.766 46.924 98.192 47.386 98.192 47.988 98.192 49.458 102.378 48.492 102.378 51.124 102.378 52.258 101.468 53.168 99.732 53.168zM113.662 53L112.612 53 112.612 51.992C112.108 52.678 111.282 53.168 110.33 53.168 108.566 53.168 107.32 51.824 107.32 49.626 107.32 47.456 108.566 46.07 110.33 46.07 111.24 46.07 112.066 46.518 112.612 47.26L112.612 43.662 113.662 43.662 113.662 53zM110.596 52.23C111.422 52.23 112.248 51.74 112.612 51.152L112.612 48.1C112.248 47.512 111.422 47.008 110.596 47.008 109.224 47.008 108.412 48.128 108.412 49.626 108.412 51.124 109.224 52.23 110.596 52.23zM118.828 53.168C116.812 53.168 115.37 51.726 115.37 49.612 115.37 47.652 116.77 46.07 118.702 46.07 120.746 46.07 121.95 47.666 121.95 49.696L121.95 49.962 116.49 49.962C116.574 51.236 117.456 52.3 118.912 52.3 119.696 52.3 120.466 51.992 121.012 51.432L121.516 52.118C120.83 52.79 119.92 53.168 118.828 53.168zM120.914 49.178C120.9 48.184 120.228 46.938 118.688 46.938 117.246 46.938 116.532 48.156 116.476 49.178L120.914 49.178zM126.598 53L125.45 53 122.636 46.238 123.784 46.238 126.024 51.782 128.278 46.238 129.412 46.238 126.598 53zM131.036 45.272C130.644 45.272 130.322 44.964 130.322 44.572 130.322 44.18 130.644 43.858 131.036 43.858 131.428 43.858 131.736 44.18 131.736 44.572 131.736 44.964 131.428 45.272 131.036 45.272zM131.554 53L130.504 53 130.504 46.238 131.554 46.238 131.554 53zM136.636 53.168C134.62 53.168 133.262 51.614 133.262 49.612 133.262 47.61 134.62 46.07 136.636 46.07 137.868 46.07 138.596 46.574 139.114 47.246L138.414 47.876C137.966 47.26 137.392 47.008 136.692 47.008 135.264 47.008 134.354 48.114 134.354 49.612 134.354 51.11 135.264 52.23 136.692 52.23 137.392 52.23 137.966 51.95 138.414 51.348L139.114 51.992C138.596 52.664 137.868 53.168 136.636 53.168zM143.664 53.168C141.648 53.168 140.206 51.726 140.206 49.612 140.206 47.652 141.606 46.07 143.538 46.07 145.582 46.07 146.786 47.666 146.786 49.696L146.786 49.962 141.326 49.962C141.41 51.236 142.292 52.3 143.748 52.3 144.532 52.3 145.302 51.992 145.848 51.432L146.352 52.118C145.666 52.79 144.756 53.168 143.664 53.168zM145.75 49.178C145.736 48.184 145.064 46.938 143.524 46.938 142.082 46.938 141.368 48.156 141.312 49.178L145.75 49.178zM70.12 13L67.99 13 67.99 2.995 72.67 2.995C74.845 2.995 76.03 4.465 76.03 6.22 76.03 7.96 74.83 9.43 72.67 9.43L70.12 9.43 70.12 13zM72.37 7.555C73.21 7.555 73.855 7.045 73.855 6.22 73.855 5.38 73.21 4.87 72.37 4.87L70.12 4.87 70.12 7.555 72.37 7.555zM84.115 13L82.21 13 82.21 12.085C81.715 12.625 80.845 13.18 79.66 13.18 78.07 13.18 77.32 12.31 77.32 10.9L77.32 5.755 79.225 5.755 79.225 10.15C79.225 11.155 79.75 11.485 80.56 11.485 81.295 11.485 81.88 11.08 82.21 10.66L82.21 5.755 84.115 5.755 84.115 13zM88.615 13.18C87.355 13.18 86.14 12.76 85.375 12.055L86.2 10.675C86.74 11.185 87.805 11.68 88.705 11.68 89.53 11.68 89.92 11.365 89.92 10.915 89.92 9.73 85.63 10.705 85.63 7.855 85.63 6.64 86.68 5.575 88.6 5.575 89.815 5.575 90.79 5.995 91.51 6.565L90.745 7.915C90.31 7.465 89.485 7.075 88.6 7.075 87.91 7.075 87.46 7.375 87.46 7.78 87.46 8.845 91.765 7.945 91.765 10.87 91.765 12.205 90.625 13.18 88.615 13.18zM99.97 13L98.065 13 98.065 8.59C98.065 7.585 97.54 7.27 96.73 7.27 95.98 7.27 95.395 7.69 95.08 8.11L95.08 13 93.16 13 93.16 2.995 95.08 2.995 95.08 6.685C95.545 6.145 96.43 5.575 97.615 5.575 99.205 5.575 99.97 6.445 99.97 7.855L99.97 13z"/>
        <rect width="50" height="50" x=".5" y=".5" fill="#FFF" stroke="#E1E1E1" rx="10"/>
        <path fill="#96C775" d="M9.07894737,4.23684211 L7.86842105,4.23684211 C7.19986583,4.23684211 6.65789474,4.7788132 6.65789474,5.44736842 L6.65789474,17.5526316 C6.65789474,18.2211868 7.19986583,18.7631579 7.86842105,18.7631579 L15.1315789,18.7631579 C15.8001342,18.7631579 16.3421053,18.2211868 16.3421053,17.5526316 L16.3421053,5.44736842 C16.3421053,4.7788132 15.8001342,4.23684211 15.1315789,4.23684211 L13.9210526,4.23684211 L13.9210526,4.84210526 C13.9210526,5.17638287 13.6500671,5.44736842 13.3157895,5.44736842 L9.68421053,5.44736842 C9.34993291,5.44736842 9.07894737,5.17638287 9.07894737,4.84210526 L9.07894737,4.23684211 Z M4.84210526,4.83228086 C4.84210526,3.50059628 5.9317922,2.42105263 7.25349428,2.42105263 L15.7465057,2.42105263 C17.0782791,2.42105263 18.1578947,3.50253361 18.1578947,4.83228086 L18.1578947,18.1677191 C18.1578947,19.4994037 17.0682078,20.5789474 15.7465057,20.5789474 L7.25349428,20.5789474 C5.9217209,20.5789474 4.84210526,19.4974664 4.84210526,18.1677191 L4.84210526,4.83228086 Z" transform="translate(14 14)"/>
      </g>
    </g>
    <g transform="translate(24 33)">
      <path stroke="#D8D8D8" stroke-dasharray="8 8" stroke-width="2" d="M17.5,0.597127876 L17.5,157.941942"/>
      <circle cx="17.5" cy="157.5" r="17.5" fill="#D8D8D8"/>
      <path fill="#FFF" d="M8.08578644,9.5 L4.35095148,5.76516504 C3.96042719,5.37464075 3.96042719,4.74147577 4.35095148,4.35095148 C4.74147577,3.96042719 5.37464075,3.96042719 5.76516504,4.35095148 L9.5,8.08578644 L13.234835,4.35095148 C13.6253592,3.96042719 14.2585242,3.96042719 14.6490485,4.35095148 C15.0395728,4.74147577 15.0395728,5.37464075 14.6490485,5.76516504 L10.9142136,9.5 L14.6490485,13.234835 C15.0395728,13.6253592 15.0395728,14.2585242 14.6490485,14.6490485 C14.2585242,15.0395728 13.6253592,15.0395728 13.234835,14.6490485 L9.5,10.9142136 L5.76516504,14.6490485 C5.37464075,15.0395728 4.74147577,15.0395728 4.35095148,14.6490485 C3.96042719,14.2585242 3.96042719,13.6253592 4.35095148,13.234835 L8.08578644,9.5 Z" transform="translate(8 148)"/>
    </g>
    <g transform="translate(0 347)">
      <use fill="#000" filter="url(#channels-c)" xlink:href="#channels-d"/>
      <use fill="#FFF" stroke="#8D8D8D" stroke-opacity=".24" xlink:href="#channels-d"/>
      <path fill="#384254" fill-rule="nonzero" d="M47.31,28 L46.48,28 L46.48,22.39 L44.22,28 L43.88,28 L41.61,22.39 L41.61,28 L40.78,28 L40.78,21.33 L41.97,21.33 L44.05,26.47 L46.12,21.33 L47.31,21.33 L47.31,28 Z M53.24,28 L48.87,28 L48.87,21.33 L53.24,21.33 L53.24,22.07 L49.7,22.07 L49.7,24.22 L53.17,24.22 L53.17,24.96 L49.7,24.96 L49.7,27.26 L53.24,27.26 L53.24,28 Z M56.72,28.12 C55.57,28.12 54.71,27.68 54.16,27.06 L54.66,26.42 C55.09,26.92 55.81,27.38 56.75,27.38 C57.94,27.38 58.32,26.74 58.32,26.22 C58.32,24.5 54.37,25.46 54.37,23.08 C54.37,21.98 55.35,21.22 56.67,21.22 C57.68,21.22 58.47,21.57 59.03,22.16 L58.53,22.77 C58.03,22.21 57.33,21.97 56.6,21.97 C55.81,21.97 55.23,22.4 55.23,23.03 C55.23,24.53 59.18,23.67 59.18,26.16 C59.18,27.12 58.52,28.12 56.72,28.12 Z M62.58,28.12 C61.43,28.12 60.57,27.68 60.02,27.06 L60.52,26.42 C60.95,26.92 61.67,27.38 62.61,27.38 C63.8,27.38 64.18,26.74 64.18,26.22 C64.18,24.5 60.23,25.46 60.23,23.08 C60.23,21.98 61.21,21.22 62.53,21.22 C63.54,21.22 64.33,21.57 64.89,22.16 L64.39,22.77 C63.89,22.21 63.19,21.97 62.46,21.97 C61.67,21.97 61.09,22.4 61.09,23.03 C61.09,24.53 65.04,23.67 65.04,26.16 C65.04,27.12 64.38,28.12 62.58,28.12 Z M71.89,28 L70.94,28 L70.35,26.51 L67.03,26.51 L66.44,28 L65.49,28 L68.18,21.33 L69.21,21.33 L71.89,28 Z M70.11,25.78 L68.69,22.18 L67.28,25.78 L70.11,25.78 Z M75.55,28.13 C73.65,28.13 72.12,26.74 72.12,24.67 C72.12,22.59 73.65,21.22 75.55,21.22 C76.74,21.22 77.56,21.74 78.14,22.46 L77.48,22.88 C77.06,22.34 76.35,21.96 75.55,21.96 C74.09,21.96 72.98,23.07 72.98,24.67 C72.98,26.25 74.09,27.38 75.55,27.38 C76.35,27.38 77.01,27 77.35,26.66 L77.35,25.31 L75.05,25.31 L75.05,24.57 L78.17,24.57 L78.17,26.97 C77.55,27.67 76.64,28.13 75.55,28.13 Z M83.89,28 L79.52,28 L79.52,21.33 L83.89,21.33 L83.89,22.07 L80.35,22.07 L80.35,24.22 L83.82,24.22 L83.82,24.96 L80.35,24.96 L80.35,27.26 L83.89,27.26 L83.89,28 Z M87.37,28.12 C86.22,28.12 85.36,27.68 84.81,27.06 L85.31,26.42 C85.74,26.92 86.46,27.38 87.4,27.38 C88.59,27.38 88.97,26.74 88.97,26.22 C88.97,24.5 85.02,25.46 85.02,23.08 C85.02,21.98 86,21.22 87.32,21.22 C88.33,21.22 89.12,21.57 89.68,22.16 L89.18,22.77 C88.68,22.21 87.98,21.97 87.25,21.97 C86.46,21.97 85.88,22.4 85.88,23.03 C85.88,24.53 89.83,23.67 89.83,26.16 C89.83,27.12 89.17,28.12 87.37,28.12 Z"/>
      <path fill="#96C775" d="M6.71052632,3.13157895 L5.81578947,3.13157895 C5.32163996,3.13157895 4.92105263,3.53216628 4.92105263,4.02631579 L4.92105263,12.9736842 C4.92105263,13.4678337 5.32163996,13.8684211 5.81578947,13.8684211 L11.1842105,13.8684211 C11.67836,13.8684211 12.0789474,13.4678337 12.0789474,12.9736842 L12.0789474,4.02631579 C12.0789474,3.53216628 11.67836,3.13157895 11.1842105,3.13157895 L10.2894737,3.13157895 L10.2894737,3.57894737 C10.2894737,3.82602212 10.08918,4.02631579 9.84210526,4.02631579 L7.15789474,4.02631579 C6.91081998,4.02631579 6.71052632,3.82602212 6.71052632,3.57894737 L6.71052632,3.13157895 Z M3.57894737,3.57168585 C3.57894737,2.58739725 4.38436815,1.78947368 5.36127838,1.78947368 L11.6387216,1.78947368 C12.6230759,1.78947368 13.4210526,2.58882919 13.4210526,3.57168585 L13.4210526,13.4283141 C13.4210526,14.4126027 12.6156319,15.2105263 11.6387216,15.2105263 L5.36127838,15.2105263 C4.37692414,15.2105263 3.57894737,14.4111708 3.57894737,13.4283141 L3.57894737,3.57168585 Z" transform="translate(16 16)"/>
      <path fill="#384254" fill-rule="nonzero" d="M26.696 53L25.058 53 25.058 45.79 22.202 53 21.502 53 18.632 45.79 18.632 53 16.994 53 16.994 43.662 19.304 43.662 21.852 50.074 24.386 43.662 26.696 43.662 26.696 53zM34.256 53L32.786 53 32.786 52.258C32.282 52.846 31.484 53.168 30.588 53.168 29.496 53.168 28.25 52.412 28.25 50.928 28.25 49.36 29.482 48.716 30.588 48.716 31.512 48.716 32.282 49.01 32.786 49.584L32.786 48.576C32.786 47.792 32.128 47.316 31.204 47.316 30.448 47.316 29.776 47.596 29.202 48.184L28.586 47.162C29.37 46.406 30.35 46.07 31.428 46.07 32.94 46.07 34.256 46.7 34.256 48.506L34.256 53zM31.176 52.16C31.806 52.16 32.436 51.922 32.786 51.46L32.786 50.424C32.436 49.962 31.806 49.724 31.176 49.724 30.35 49.724 29.72 50.214 29.72 50.942 29.72 51.684 30.35 52.16 31.176 52.16zM37.63 53L36.16 53 36.16 43.662 37.63 43.662 37.63 53zM42.614 53.168C40.57 53.168 39.128 51.656 39.128 49.612 39.128 47.568 40.57 46.07 42.614 46.07 43.944 46.07 44.728 46.63 45.204 47.274L44.238 48.156C43.86 47.624 43.342 47.372 42.684 47.372 41.466 47.372 40.64 48.296 40.64 49.612 40.64 50.928 41.466 51.866 42.684 51.866 43.342 51.866 43.86 51.586 44.238 51.054L45.204 51.964C44.728 52.594 43.944 53.168 42.614 53.168zM49.572 53.168C47.416 53.168 46.1 51.544 46.1 49.612 46.1 47.666 47.416 46.07 49.572 46.07 51.728 46.07 53.044 47.666 53.044 49.612 53.044 51.544 51.728 53.168 49.572 53.168zM49.572 51.866C50.832 51.866 51.518 50.816 51.518 49.612 51.518 48.422 50.832 47.372 49.572 47.372 48.326 47.372 47.626 48.422 47.626 49.612 47.626 50.816 48.326 51.866 49.572 51.866zM56.012 53L54.542 53 54.542 43.662 56.012 43.662 56.012 53zM67.688 53L66.218 53 66.218 48.59C66.218 47.862 65.896 47.372 65.098 47.372 64.44 47.372 63.824 47.82 63.53 48.268L63.53 53 62.06 53 62.06 48.59C62.06 47.862 61.752 47.372 60.954 47.372 60.296 47.372 59.694 47.834 59.386 48.268L59.386 53 57.916 53 57.916 46.238 59.386 46.238 59.386 47.148C59.68 46.742 60.562 46.07 61.598 46.07 62.606 46.07 63.222 46.574 63.446 47.302 63.824 46.7 64.72 46.07 65.742 46.07 66.974 46.07 67.688 46.742 67.688 48.114L67.688 53zM80.484 53L78.58 53 76.522 49.514 74.884 49.514 74.884 53 73.246 53 73.246 43.662 77.348 43.662C79.196 43.662 80.414 44.852 80.414 46.588 80.414 48.24 79.322 49.15 78.188 49.332L80.484 53zM77.138 48.072C78.062 48.072 78.734 47.484 78.734 46.574 78.734 45.678 78.062 45.104 77.138 45.104L74.884 45.104 74.884 48.072 77.138 48.072zM84.726 53.168C82.682 53.168 81.184 51.754 81.184 49.612 81.184 47.652 82.612 46.07 84.614 46.07 86.644 46.07 87.932 47.61 87.932 49.738L87.932 50.102 82.724 50.102C82.836 51.11 83.592 51.964 84.866 51.964 85.538 51.964 86.308 51.698 86.798 51.208L87.47 52.174C86.784 52.818 85.79 53.168 84.726 53.168zM86.518 49.052C86.476 48.254 85.93 47.274 84.6 47.274 83.354 47.274 82.766 48.24 82.71 49.052L86.518 49.052zM89.108 55.646L89.318 54.33C89.472 54.4 89.71 54.442 89.878 54.442 90.354 54.442 90.662 54.302 90.858 53.854L91.194 53.084 88.408 46.238 89.99 46.238 91.964 51.306 93.938 46.238 95.506 46.238 92.244 54.218C91.782 55.366 90.984 55.73 89.934 55.744 89.724 55.744 89.304 55.702 89.108 55.646zM102.478 53L101.008 53 101.008 48.772C101.008 47.708 100.462 47.372 99.636 47.372 98.894 47.372 98.25 47.82 97.9 48.268L97.9 53 96.43 53 96.43 46.238 97.9 46.238 97.9 47.148C98.348 46.616 99.23 46.07 100.294 46.07 101.75 46.07 102.478 46.854 102.478 48.24L102.478 53zM107.448 53.168C105.292 53.168 103.976 51.544 103.976 49.612 103.976 47.666 105.292 46.07 107.448 46.07 109.604 46.07 110.92 47.666 110.92 49.612 110.92 51.544 109.604 53.168 107.448 53.168zM107.448 51.866C108.708 51.866 109.394 50.816 109.394 49.612 109.394 48.422 108.708 47.372 107.448 47.372 106.202 47.372 105.502 48.422 105.502 49.612 105.502 50.816 106.202 51.866 107.448 51.866zM113.888 53L112.418 53 112.418 43.662 113.888 43.662 113.888 53zM122.022 53L120.552 53 120.552 52.076C120.034 52.748 119.264 53.168 118.382 53.168 116.66 53.168 115.386 51.852 115.386 49.612 115.386 47.428 116.646 46.07 118.382 46.07 119.236 46.07 120.02 46.448 120.552 47.176L120.552 43.662 122.022 43.662 122.022 53zM118.816 51.866C119.502 51.866 120.23 51.46 120.552 50.956L120.552 48.282C120.23 47.778 119.502 47.372 118.816 47.372 117.64 47.372 116.898 48.31 116.898 49.612 116.898 50.928 117.64 51.866 118.816 51.866zM126.25 53.168C125.088 53.168 124.052 52.79 123.352 52.104L124.024 51.054C124.5 51.544 125.438 51.992 126.306 51.992 127.188 51.992 127.65 51.628 127.65 51.096 127.65 49.766 123.562 50.718 123.562 48.114 123.562 47.008 124.514 46.07 126.222 46.07 127.37 46.07 128.238 46.476 128.84 47.008L128.224 48.044C127.818 47.596 127.076 47.232 126.222 47.232 125.452 47.232 124.976 47.596 124.976 48.072 124.976 49.262 129.064 48.366 129.064 51.054 129.064 52.258 128.07 53.168 126.25 53.168zM26.234 73L25.072 73 25.072 65.146 21.908 73 21.432 73 18.254 65.146 18.254 73 17.092 73 17.092 63.662 18.758 63.662 21.67 70.858 24.568 63.662 26.234 63.662 26.234 73zM33.654 73L32.604 73 32.604 72.23C32.058 72.846 31.274 73.168 30.364 73.168 29.23 73.168 28.012 72.398 28.012 70.928 28.012 69.402 29.216 68.702 30.364 68.702 31.288 68.702 32.058 68.996 32.604 69.612L32.604 68.394C32.604 67.498 31.876 66.98 30.896 66.98 30.084 66.98 29.426 67.26 28.824 67.918L28.334 67.19C29.062 66.434 29.93 66.07 31.036 66.07 32.478 66.07 33.654 66.714 33.654 68.352L33.654 73zM30.756 72.412C31.484 72.412 32.198 72.132 32.604 71.572L32.604 70.284C32.198 69.738 31.484 69.458 30.756 69.458 29.762 69.458 29.076 70.074 29.076 70.928 29.076 71.796 29.762 72.412 30.756 72.412zM36.818 73L35.768 73 35.768 66.238 36.818 66.238 36.818 67.316C37.364 66.616 38.148 66.084 39.072 66.084L39.072 67.162C38.946 67.148 38.82 67.134 38.666 67.134 38.008 67.134 37.126 67.666 36.818 68.212L36.818 73zM40.92 65.272C40.528 65.272 40.206 64.964 40.206 64.572 40.206 64.18 40.528 63.858 40.92 63.858 41.312 63.858 41.62 64.18 41.62 64.572 41.62 64.964 41.312 65.272 40.92 65.272zM41.438 73L40.388 73 40.388 66.238 41.438 66.238 41.438 73zM48.816 73L47.766 73 47.766 72.23C47.22 72.846 46.436 73.168 45.526 73.168 44.392 73.168 43.174 72.398 43.174 70.928 43.174 69.402 44.378 68.702 45.526 68.702 46.45 68.702 47.22 68.996 47.766 69.612L47.766 68.394C47.766 67.498 47.038 66.98 46.058 66.98 45.246 66.98 44.588 67.26 43.986 67.918L43.496 67.19C44.224 66.434 45.092 66.07 46.198 66.07 47.64 66.07 48.816 66.714 48.816 68.352L48.816 73zM45.918 72.412C46.646 72.412 47.36 72.132 47.766 71.572L47.766 70.284C47.36 69.738 46.646 69.458 45.918 69.458 44.924 69.458 44.238 70.074 44.238 70.928 44.238 71.796 44.924 72.412 45.918 72.412zM60.184 73L59.134 73 59.134 68.548C59.134 67.344 58.532 67.008 57.608 67.008 56.796 67.008 56.012 67.512 55.62 68.058L55.62 73 54.57 73 54.57 63.662 55.62 63.662 55.62 67.218C56.082 66.644 57.006 66.07 58.028 66.07 59.442 66.07 60.184 66.756 60.184 68.226L60.184 73zM67.562 73L66.512 73 66.512 72.23C65.966 72.846 65.182 73.168 64.272 73.168 63.138 73.168 61.92 72.398 61.92 70.928 61.92 69.402 63.124 68.702 64.272 68.702 65.196 68.702 65.966 68.996 66.512 69.612L66.512 68.394C66.512 67.498 65.784 66.98 64.804 66.98 63.992 66.98 63.334 67.26 62.732 67.918L62.242 67.19C62.97 66.434 63.838 66.07 64.944 66.07 66.386 66.07 67.562 66.714 67.562 68.352L67.562 73zM64.664 72.412C65.392 72.412 66.106 72.132 66.512 71.572L66.512 70.284C66.106 69.738 65.392 69.458 64.664 69.458 63.67 69.458 62.984 70.074 62.984 70.928 62.984 71.796 63.67 72.412 64.664 72.412zM71.832 73.168C70.712 73.168 69.788 72.818 69.102 72.104L69.634 71.348C70.082 71.866 70.936 72.314 71.86 72.314 72.896 72.314 73.47 71.824 73.47 71.152 73.47 69.514 69.284 70.522 69.284 68.016 69.284 66.952 70.18 66.07 71.79 66.07 72.952 66.07 73.764 66.504 74.296 67.05L73.806 67.778C73.4 67.288 72.672 66.924 71.79 66.924 70.866 66.924 70.292 67.386 70.292 67.988 70.292 69.458 74.478 68.492 74.478 71.124 74.478 72.258 73.568 73.168 71.832 73.168zM80.344 65.272C79.952 65.272 79.63 64.964 79.63 64.572 79.63 64.18 79.952 63.858 80.344 63.858 80.736 63.858 81.044 64.18 81.044 64.572 81.044 64.964 80.736 65.272 80.344 65.272zM78.86 75.744C78.174 75.744 77.81 75.576 77.39 75.24L77.754 74.456C77.992 74.694 78.3 74.876 78.72 74.876 79.35 74.876 79.812 74.512 79.812 73.658L79.812 66.238 80.862 66.238 80.862 73.658C80.862 74.988 80.162 75.744 78.86 75.744zM88.576 73L87.526 73 87.526 72.048C87.008 72.636 86.126 73.168 85.118 73.168 83.704 73.168 82.962 72.468 82.962 71.012L82.962 66.238 84.012 66.238 84.012 70.69C84.012 71.88 84.614 72.23 85.538 72.23 86.35 72.23 87.134 71.754 87.526 71.208L87.526 66.238 88.576 66.238 88.576 73zM92.832 73.168C91.712 73.168 90.788 72.818 90.102 72.104L90.634 71.348C91.082 71.866 91.936 72.314 92.86 72.314 93.896 72.314 94.47 71.824 94.47 71.152 94.47 69.514 90.284 70.522 90.284 68.016 90.284 66.952 91.18 66.07 92.79 66.07 93.952 66.07 94.764 66.504 95.296 67.05L94.806 67.778C94.4 67.288 93.672 66.924 92.79 66.924 91.866 66.924 91.292 67.386 91.292 67.988 91.292 69.458 95.478 68.492 95.478 71.124 95.478 72.258 94.568 73.168 92.832 73.168zM98.908 73.168C97.9 73.168 97.396 72.594 97.396 71.586L97.396 67.162 96.276 67.162 96.276 66.238 97.396 66.238 97.396 64.39 98.46 64.39 98.46 66.238 99.832 66.238 99.832 67.162 98.46 67.162 98.46 71.362C98.46 71.866 98.684 72.23 99.132 72.23 99.44 72.23 99.706 72.09 99.846 71.936L100.154 72.734C99.888 72.986 99.51 73.168 98.908 73.168zM107.084 73.168C105.964 73.168 105.04 72.818 104.354 72.104L104.886 71.348C105.334 71.866 106.188 72.314 107.112 72.314 108.148 72.314 108.722 71.824 108.722 71.152 108.722 69.514 104.536 70.522 104.536 68.016 104.536 66.952 105.432 66.07 107.042 66.07 108.204 66.07 109.016 66.504 109.548 67.05L109.058 67.778C108.652 67.288 107.924 66.924 107.042 66.924 106.118 66.924 105.544 67.386 105.544 67.988 105.544 69.458 109.73 68.492 109.73 71.124 109.73 72.258 108.82 73.168 107.084 73.168zM111.97 65.272C111.578 65.272 111.256 64.964 111.256 64.572 111.256 64.18 111.578 63.858 111.97 63.858 112.362 63.858 112.67 64.18 112.67 64.572 112.67 64.964 112.362 65.272 111.97 65.272zM112.488 73L111.438 73 111.438 66.238 112.488 66.238 112.488 73zM117.304 75.744C116.17 75.744 115.386 75.52 114.574 74.722L115.106 73.966C115.666 74.624 116.338 74.876 117.304 74.876 118.424 74.876 119.488 74.33 119.488 72.902L119.488 71.88C118.984 72.566 118.158 73.084 117.206 73.084 115.442 73.084 114.196 71.768 114.196 69.584 114.196 67.414 115.428 66.07 117.206 66.07 118.116 66.07 118.942 66.518 119.488 67.26L119.488 66.238 120.538 66.238 120.538 72.902C120.538 75.044 118.956 75.744 117.304 75.744zM117.472 72.146C118.298 72.146 119.11 71.642 119.488 71.054L119.488 68.086C119.11 67.512 118.298 67.008 117.472 67.008 116.1 67.008 115.288 68.086 115.288 69.584 115.288 71.068 116.1 72.146 117.472 72.146zM128.252 73L127.216 73 127.216 68.576C127.216 67.372 126.6 67.008 125.69 67.008 124.864 67.008 124.094 67.512 123.688 68.058L123.688 73 122.638 73 122.638 66.238 123.688 66.238 123.688 67.218C124.164 66.644 125.088 66.07 126.11 66.07 127.51 66.07 128.252 66.784 128.252 68.254L128.252 73zM133.432 73.168C131.416 73.168 129.974 71.726 129.974 69.612 129.974 67.652 131.374 66.07 133.306 66.07 135.35 66.07 136.554 67.666 136.554 69.696L136.554 69.962 131.094 69.962C131.178 71.236 132.06 72.3 133.516 72.3 134.3 72.3 135.07 71.992 135.616 71.432L136.12 72.118C135.434 72.79 134.524 73.168 133.432 73.168zM135.518 69.178C135.504 68.184 134.832 66.938 133.292 66.938 131.85 66.938 131.136 68.156 131.08 69.178L135.518 69.178zM144.198 73L143.148 73 143.148 71.992C142.644 72.678 141.818 73.168 140.866 73.168 139.102 73.168 137.856 71.824 137.856 69.626 137.856 67.456 139.102 66.07 140.866 66.07 141.776 66.07 142.602 66.518 143.148 67.26L143.148 63.662 144.198 63.662 144.198 73zM141.132 72.23C141.958 72.23 142.784 71.74 143.148 71.152L143.148 68.1C142.784 67.512 141.958 67.008 141.132 67.008 139.76 67.008 138.948 68.128 138.948 69.626 138.948 71.124 139.76 72.23 141.132 72.23zM155.538 73L154.488 73 154.488 72.048C153.97 72.636 153.088 73.168 152.08 73.168 150.666 73.168 149.924 72.468 149.924 71.012L149.924 66.238 150.974 66.238 150.974 70.69C150.974 71.88 151.576 72.23 152.5 72.23 153.312 72.23 154.096 71.754 154.488 71.208L154.488 66.238 155.538 66.238 155.538 73zM160.97 73.168C160.046 73.168 159.248 72.72 158.688 71.978L158.688 75.576 157.638 75.576 157.638 66.238 158.688 66.238 158.688 67.246C159.178 66.56 160.018 66.07 160.97 66.07 162.748 66.07 163.98 67.414 163.98 69.612 163.98 71.796 162.748 73.168 160.97 73.168zM160.704 72.23C162.062 72.23 162.874 71.11 162.874 69.612 162.874 68.114 162.062 67.008 160.704 67.008 159.878 67.008 159.052 67.498 158.688 68.086L158.688 71.138C159.052 71.726 159.878 72.23 160.704 72.23zM166.64 70.382L165.772 70.382 165.548 63.662 166.864 63.662 166.64 70.382zM166.206 73.14C165.786 73.14 165.436 72.776 165.436 72.37 165.436 71.95 165.786 71.6 166.206 71.6 166.626 71.6 166.976 71.95 166.976 72.37 166.976 72.776 166.626 73.14 166.206 73.14z"/>
    </g>
    <g transform="translate(160 282)">
      <use fill="#000" filter="url(#channels-e)" xlink:href="#channels-f"/>
      <use fill="#FFF" stroke="#8D8D8D" stroke-opacity=".24" xlink:href="#channels-f"/>
      <path fill="#384254" fill-rule="nonzero" d="M45.15,28 L40.78,28 L40.78,21.33 L45.15,21.33 L45.15,22.07 L41.61,22.07 L41.61,24.22 L45.08,24.22 L45.08,24.96 L41.61,24.96 L41.61,27.26 L45.15,27.26 L45.15,28 Z M53,28 L52.17,28 L52.17,22.39 L49.91,28 L49.57,28 L47.3,22.39 L47.3,28 L46.47,28 L46.47,21.33 L47.66,21.33 L49.74,26.47 L51.81,21.33 L53,21.33 L53,28 Z M60.27,28 L59.32,28 L58.73,26.51 L55.41,26.51 L54.82,28 L53.87,28 L56.56,21.33 L57.59,21.33 L60.27,28 Z M58.49,25.78 L57.07,22.18 L55.66,25.78 L58.49,25.78 Z M61.97,28 L61.14,28 L61.14,21.33 L61.97,21.33 L61.97,28 Z M67.35,28 L63.42,28 L63.42,21.33 L64.25,21.33 L64.25,27.26 L67.35,27.26 L67.35,28 Z"/>
      <path fill="#01B2D0" d="M1.78947368,5.36127838 C1.78947368,4.37692414 2.58882919,3.57894737 3.57168585,3.57894737 L13.4283141,3.57894737 C14.4126027,3.57894737 15.2105263,4.38436815 15.2105263,5.36127838 L15.2105263,11.6387216 C15.2105263,12.6230759 14.4111708,13.4210526 13.4283141,13.4210526 L3.57168585,13.4210526 C2.58739725,13.4210526 1.78947368,12.6156319 1.78947368,11.6387216 L1.78947368,5.36127838 Z M8.5,9.65925197 L3.89536883,5.05216805 C3.72070712,4.8774133 3.43744911,4.87733788 3.26269436,5.05199959 C3.08793962,5.2266613 3.0878642,5.50991931 3.26252591,5.68467406 L8.18357854,10.608348 C8.35830602,10.7831685 8.64169398,10.7831685 8.81642146,10.608348 L13.7374741,5.68467406 C13.9121358,5.50991931 13.9120604,5.2266613 13.7373056,5.05199959 C13.5625509,4.87733788 13.2792929,4.8774133 13.1046312,5.05216805 L8.5,9.65925197 Z" transform="translate(16 16)"/>
      <path fill="#384254" fill-rule="nonzero" d="M21.488 53.168C18.73 53.168 16.588 51.208 16.588 48.338 16.588 45.454 18.73 43.508 21.488 43.508 23.364 43.508 24.54 44.474 25.226 45.594L23.84 46.322C23.392 45.538 22.482 44.964 21.488 44.964 19.64 44.964 18.268 46.364 18.268 48.338 18.268 50.284 19.64 51.712 21.488 51.712 22.482 51.712 23.392 51.124 23.84 50.354L25.24 51.054C24.526 52.174 23.364 53.168 21.488 53.168zM32.548 53L31.078 53 31.078 48.744C31.078 47.68 30.546 47.372 29.72 47.372 28.964 47.372 28.32 47.82 27.984 48.268L27.984 53 26.514 53 26.514 43.662 27.984 43.662 27.984 47.148C28.432 46.616 29.3 46.07 30.364 46.07 31.82 46.07 32.548 46.826 32.548 48.212L32.548 53zM40.066 53L38.596 53 38.596 52.258C38.092 52.846 37.294 53.168 36.398 53.168 35.306 53.168 34.06 52.412 34.06 50.928 34.06 49.36 35.292 48.716 36.398 48.716 37.322 48.716 38.092 49.01 38.596 49.584L38.596 48.576C38.596 47.792 37.938 47.316 37.014 47.316 36.258 47.316 35.586 47.596 35.012 48.184L34.396 47.162C35.18 46.406 36.16 46.07 37.238 46.07 38.75 46.07 40.066 46.7 40.066 48.506L40.066 53zM36.986 52.16C37.616 52.16 38.246 51.922 38.596 51.46L38.596 50.424C38.246 49.962 37.616 49.724 36.986 49.724 36.16 49.724 35.53 50.214 35.53 50.942 35.53 51.684 36.16 52.16 36.986 52.16zM48.018 53L46.548 53 46.548 48.772C46.548 47.708 46.002 47.372 45.176 47.372 44.434 47.372 43.79 47.82 43.44 48.268L43.44 53 41.97 53 41.97 46.238 43.44 46.238 43.44 47.148C43.888 46.616 44.77 46.07 45.834 46.07 47.29 46.07 48.018 46.854 48.018 48.24L48.018 53zM56.152 53L54.682 53 54.682 52.076C54.164 52.748 53.394 53.168 52.512 53.168 50.79 53.168 49.516 51.852 49.516 49.612 49.516 47.428 50.776 46.07 52.512 46.07 53.366 46.07 54.15 46.448 54.682 47.176L54.682 43.662 56.152 43.662 56.152 53zM52.946 51.866C53.632 51.866 54.36 51.46 54.682 50.956L54.682 48.282C54.36 47.778 53.632 47.372 52.946 47.372 51.77 47.372 51.028 48.31 51.028 49.612 51.028 50.928 51.77 51.866 52.946 51.866zM59.526 53L58.056 53 58.056 46.238 59.526 46.238 59.526 47.218C60.044 46.574 60.856 46.07 61.724 46.07L61.724 47.526C61.598 47.498 61.458 47.484 61.276 47.484 60.646 47.484 59.82 47.904 59.526 48.394L59.526 53zM68.528 53L67.058 53 67.058 52.258C66.554 52.846 65.756 53.168 64.86 53.168 63.768 53.168 62.522 52.412 62.522 50.928 62.522 49.36 63.754 48.716 64.86 48.716 65.784 48.716 66.554 49.01 67.058 49.584L67.058 48.576C67.058 47.792 66.4 47.316 65.476 47.316 64.72 47.316 64.048 47.596 63.474 48.184L62.858 47.162C63.642 46.406 64.622 46.07 65.7 46.07 67.212 46.07 68.528 46.7 68.528 48.506L68.528 53zM65.448 52.16C66.078 52.16 66.708 51.922 67.058 51.46L67.058 50.424C66.708 49.962 66.078 49.724 65.448 49.724 64.622 49.724 63.992 50.214 63.992 50.942 63.992 51.684 64.622 52.16 65.448 52.16zM73.792 53L72.21 53 69.452 46.238 71.034 46.238 73.008 51.306 74.982 46.238 76.55 46.238 73.792 53zM83.088 53L81.618 53 81.618 52.258C81.114 52.846 80.316 53.168 79.42 53.168 78.328 53.168 77.082 52.412 77.082 50.928 77.082 49.36 78.314 48.716 79.42 48.716 80.344 48.716 81.114 49.01 81.618 49.584L81.618 48.576C81.618 47.792 80.96 47.316 80.036 47.316 79.28 47.316 78.608 47.596 78.034 48.184L77.418 47.162C78.202 46.406 79.182 46.07 80.26 46.07 81.772 46.07 83.088 46.7 83.088 48.506L83.088 53zM80.008 52.16C80.638 52.16 81.268 51.922 81.618 51.46L81.618 50.424C81.268 49.962 80.638 49.724 80.008 49.724 79.182 49.724 78.552 50.214 78.552 50.942 78.552 51.684 79.182 52.16 80.008 52.16zM91.222 53L89.752 53 89.752 52.076C89.234 52.748 88.464 53.168 87.582 53.168 85.86 53.168 84.586 51.852 84.586 49.612 84.586 47.428 85.846 46.07 87.582 46.07 88.436 46.07 89.22 46.448 89.752 47.176L89.752 43.662 91.222 43.662 91.222 53zM88.016 51.866C88.702 51.866 89.43 51.46 89.752 50.956L89.752 48.282C89.43 47.778 88.702 47.372 88.016 47.372 86.84 47.372 86.098 48.31 86.098 49.612 86.098 50.928 86.84 51.866 88.016 51.866zM98.74 53L97.27 53 97.27 52.258C96.766 52.846 95.968 53.168 95.072 53.168 93.98 53.168 92.734 52.412 92.734 50.928 92.734 49.36 93.966 48.716 95.072 48.716 95.996 48.716 96.766 49.01 97.27 49.584L97.27 48.576C97.27 47.792 96.612 47.316 95.688 47.316 94.932 47.316 94.26 47.596 93.686 48.184L93.07 47.162C93.854 46.406 94.834 46.07 95.912 46.07 97.424 46.07 98.74 46.7 98.74 48.506L98.74 53zM95.66 52.16C96.29 52.16 96.92 51.922 97.27 51.46L97.27 50.424C96.92 49.962 96.29 49.724 95.66 49.724 94.834 49.724 94.204 50.214 94.204 50.942 94.204 51.684 94.834 52.16 95.66 52.16zM106.692 53L105.222 53 105.222 48.772C105.222 47.708 104.676 47.372 103.85 47.372 103.108 47.372 102.464 47.82 102.114 48.268L102.114 53 100.644 53 100.644 46.238 102.114 46.238 102.114 47.148C102.562 46.616 103.444 46.07 104.508 46.07 105.964 46.07 106.692 46.854 106.692 48.24L106.692 53zM119.866 53L117.836 53 114.714 49.052 113.888 50.018 113.888 53 112.25 53 112.25 43.662 113.888 43.662 113.888 48.1 117.542 43.662 119.572 43.662 115.778 48.058 119.866 53zM126.306 53L124.836 53 124.836 52.258C124.332 52.846 123.534 53.168 122.638 53.168 121.546 53.168 120.3 52.412 120.3 50.928 120.3 49.36 121.532 48.716 122.638 48.716 123.562 48.716 124.332 49.01 124.836 49.584L124.836 48.576C124.836 47.792 124.178 47.316 123.254 47.316 122.498 47.316 121.826 47.596 121.252 48.184L120.636 47.162C121.42 46.406 122.4 46.07 123.478 46.07 124.99 46.07 126.306 46.7 126.306 48.506L126.306 53zM123.226 52.16C123.856 52.16 124.486 51.922 124.836 51.46L124.836 50.424C124.486 49.962 123.856 49.724 123.226 49.724 122.4 49.724 121.77 50.214 121.77 50.942 121.77 51.684 122.4 52.16 123.226 52.16zM129.68 53L128.21 53 128.21 46.238 129.68 46.238 129.68 47.218C130.198 46.574 131.01 46.07 131.878 46.07L131.878 47.526C131.752 47.498 131.612 47.484 131.43 47.484 130.8 47.484 129.974 47.904 129.68 48.394L129.68 53zM142.84 53L141.37 53 141.37 48.59C141.37 47.862 141.048 47.372 140.25 47.372 139.592 47.372 138.976 47.82 138.682 48.268L138.682 53 137.212 53 137.212 48.59C137.212 47.862 136.904 47.372 136.106 47.372 135.448 47.372 134.846 47.834 134.538 48.268L134.538 53 133.068 53 133.068 46.238 134.538 46.238 134.538 47.148C134.832 46.742 135.714 46.07 136.75 46.07 137.758 46.07 138.374 46.574 138.598 47.302 138.976 46.7 139.872 46.07 140.894 46.07 142.126 46.07 142.84 46.742 142.84 48.114L142.84 53zM150.358 53L148.888 53 148.888 52.258C148.384 52.846 147.586 53.168 146.69 53.168 145.598 53.168 144.352 52.412 144.352 50.928 144.352 49.36 145.584 48.716 146.69 48.716 147.614 48.716 148.384 49.01 148.888 49.584L148.888 48.576C148.888 47.792 148.23 47.316 147.306 47.316 146.55 47.316 145.878 47.596 145.304 48.184L144.688 47.162C145.472 46.406 146.452 46.07 147.53 46.07 149.042 46.07 150.358 46.7 150.358 48.506L150.358 53zM147.278 52.16C147.908 52.16 148.538 51.922 148.888 51.46L148.888 50.424C148.538 49.962 147.908 49.724 147.278 49.724 146.452 49.724 145.822 50.214 145.822 50.942 145.822 51.684 146.452 52.16 147.278 52.16zM158.59 53L156.742 53 154.684 50.2 153.732 51.18 153.732 53 152.262 53 152.262 43.662 153.732 43.662 153.732 49.5 156.714 46.238 158.534 46.238 155.734 49.304 158.59 53zM165.254 53L163.784 53 163.784 52.258C163.28 52.846 162.482 53.168 161.586 53.168 160.494 53.168 159.248 52.412 159.248 50.928 159.248 49.36 160.48 48.716 161.586 48.716 162.51 48.716 163.28 49.01 163.784 49.584L163.784 48.576C163.784 47.792 163.126 47.316 162.202 47.316 161.446 47.316 160.774 47.596 160.2 48.184L159.584 47.162C160.368 46.406 161.348 46.07 162.426 46.07 163.938 46.07 165.254 46.7 165.254 48.506L165.254 53zM162.174 52.16C162.804 52.16 163.434 51.922 163.784 51.46L163.784 50.424C163.434 49.962 162.804 49.724 162.174 49.724 161.348 49.724 160.718 50.214 160.718 50.942 160.718 51.684 161.348 52.16 162.174 52.16zM168.628 53L167.158 53 167.158 46.238 168.628 46.238 168.628 47.218C169.146 46.574 169.958 46.07 170.826 46.07L170.826 47.526C170.7 47.498 170.56 47.484 170.378 47.484 169.748 47.484 168.922 47.904 168.628 48.394L168.628 53zM24.82 73L23.7 73 18.254 65.552 18.254 73 17.092 73 17.092 63.662 18.282 63.662 23.658 70.956 23.658 63.662 24.82 63.662 24.82 73zM30.028 73.168C28.012 73.168 26.57 71.726 26.57 69.612 26.57 67.652 27.97 66.07 29.902 66.07 31.946 66.07 33.15 67.666 33.15 69.696L33.15 69.962 27.69 69.962C27.774 71.236 28.656 72.3 30.112 72.3 30.896 72.3 31.666 71.992 32.212 71.432L32.716 72.118C32.03 72.79 31.12 73.168 30.028 73.168zM32.114 69.178C32.1 68.184 31.428 66.938 29.888 66.938 28.446 66.938 27.732 68.156 27.676 69.178L32.114 69.178zM41.76 73L40.696 73 38.932 67.568 37.168 73 36.118 73 33.962 66.238 35.054 66.238 36.706 71.628 38.484 66.238 39.394 66.238 41.158 71.628 42.81 66.238 43.916 66.238 41.76 73zM50.902 73.168C49.782 73.168 48.858 72.818 48.172 72.104L48.704 71.348C49.152 71.866 50.006 72.314 50.93 72.314 51.966 72.314 52.54 71.824 52.54 71.152 52.54 69.514 48.354 70.522 48.354 68.016 48.354 66.952 49.25 66.07 50.86 66.07 52.022 66.07 52.834 66.504 53.366 67.05L52.876 67.778C52.47 67.288 51.742 66.924 50.86 66.924 49.936 66.924 49.362 67.386 49.362 67.988 49.362 69.458 53.548 68.492 53.548 71.124 53.548 72.258 52.638 73.168 50.902 73.168zM60.534 73L59.484 73 59.484 72.23C58.938 72.846 58.154 73.168 57.244 73.168 56.11 73.168 54.892 72.398 54.892 70.928 54.892 69.402 56.096 68.702 57.244 68.702 58.168 68.702 58.938 68.996 59.484 69.612L59.484 68.394C59.484 67.498 58.756 66.98 57.776 66.98 56.964 66.98 56.306 67.26 55.704 67.918L55.214 67.19C55.942 66.434 56.81 66.07 57.916 66.07 59.358 66.07 60.534 66.714 60.534 68.352L60.534 73zM57.636 72.412C58.364 72.412 59.078 72.132 59.484 71.572L59.484 70.284C59.078 69.738 58.364 69.458 57.636 69.458 56.642 69.458 55.956 70.074 55.956 70.928 55.956 71.796 56.642 72.412 57.636 72.412zM63.698 73L62.648 73 62.648 63.662 63.698 63.662 63.698 73zM68.864 73.168C66.848 73.168 65.406 71.726 65.406 69.612 65.406 67.652 66.806 66.07 68.738 66.07 70.782 66.07 71.986 67.666 71.986 69.696L71.986 69.962 66.526 69.962C66.61 71.236 67.492 72.3 68.948 72.3 69.732 72.3 70.502 71.992 71.048 71.432L71.552 72.118C70.866 72.79 69.956 73.168 68.864 73.168zM70.95 69.178C70.936 68.184 70.264 66.938 68.724 66.938 67.282 66.938 66.568 68.156 66.512 69.178L70.95 69.178zM75.836 73.168C74.716 73.168 73.792 72.818 73.106 72.104L73.638 71.348C74.086 71.866 74.94 72.314 75.864 72.314 76.9 72.314 77.474 71.824 77.474 71.152 77.474 69.514 73.288 70.522 73.288 68.016 73.288 66.952 74.184 66.07 75.794 66.07 76.956 66.07 77.768 66.504 78.3 67.05L77.81 67.778C77.404 67.288 76.676 66.924 75.794 66.924 74.87 66.924 74.296 67.386 74.296 67.988 74.296 69.458 78.482 68.492 78.482 71.124 78.482 72.258 77.572 73.168 75.836 73.168zM89.094 73L88.044 73 88.044 72.23C87.498 72.846 86.714 73.168 85.804 73.168 84.67 73.168 83.452 72.398 83.452 70.928 83.452 69.402 84.656 68.702 85.804 68.702 86.728 68.702 87.498 68.996 88.044 69.612L88.044 68.394C88.044 67.498 87.316 66.98 86.336 66.98 85.524 66.98 84.866 67.26 84.264 67.918L83.774 67.19C84.502 66.434 85.37 66.07 86.476 66.07 87.918 66.07 89.094 66.714 89.094 68.352L89.094 73zM86.196 72.412C86.924 72.412 87.638 72.132 88.044 71.572L88.044 70.284C87.638 69.738 86.924 69.458 86.196 69.458 85.202 69.458 84.516 70.074 84.516 70.928 84.516 71.796 85.202 72.412 86.196 72.412zM92.258 73L91.208 73 91.208 63.662 92.258 63.662 92.258 73zM97.424 73.168C95.408 73.168 93.966 71.726 93.966 69.612 93.966 67.652 95.366 66.07 97.298 66.07 99.342 66.07 100.546 67.666 100.546 69.696L100.546 69.962 95.086 69.962C95.17 71.236 96.052 72.3 97.508 72.3 98.292 72.3 99.062 71.992 99.608 71.432L100.112 72.118C99.426 72.79 98.516 73.168 97.424 73.168zM99.51 69.178C99.496 68.184 98.824 66.938 97.284 66.938 95.842 66.938 95.128 68.156 95.072 69.178L99.51 69.178zM103.29 73L102.24 73 102.24 66.238 103.29 66.238 103.29 67.316C103.836 66.616 104.62 66.084 105.544 66.084L105.544 67.162C105.418 67.148 105.292 67.134 105.138 67.134 104.48 67.134 103.598 67.666 103.29 68.212L103.29 73zM108.582 73.168C107.574 73.168 107.07 72.594 107.07 71.586L107.07 67.162 105.95 67.162 105.95 66.238 107.07 66.238 107.07 64.39 108.134 64.39 108.134 66.238 109.506 66.238 109.506 67.162 108.134 67.162 108.134 71.362C108.134 71.866 108.358 72.23 108.806 72.23 109.114 72.23 109.38 72.09 109.52 71.936L109.828 72.734C109.562 72.986 109.184 73.168 108.582 73.168z"/>
    </g>
    <g transform="rotate(34 54.92 179.637)">
      <path fill="#6FD350" d="M23.5294807,15.1746907 L36.9457885,42.162653 C37.9291882,44.1408391 37.1227545,46.5416787 35.1445684,47.5250784 C34.5912973,47.8001216 33.9818312,47.9432556 33.3639658,47.9432556 L6.53135016,47.9432556 C4.32221116,47.9432556 2.53135016,46.1523946 2.53135016,43.9432556 C2.53135016,43.3253902 2.67448419,42.7159241 2.9495274,42.162653 L16.3658352,15.1746907 C17.3492349,13.1965046 19.7500745,12.3900709 21.7282606,13.3734706 C22.5089107,13.7615488 23.1414024,14.3940406 23.5294807,15.1746907 Z" opacity=".2"/>
      <path stroke="#6FD350" stroke-width="2" d="M31.2136794,7.96777482 C30.9226207,7.38228725 30.4482519,6.90791843 29.8627643,6.61685972 C28.3791248,5.87930997 26.578495,6.48413526 25.8409453,7.96777482 L12.4246375,34.9557371 C12.2183551,35.3706905 12.1110046,35.82779 12.1110046,36.2911891 C12.1110046,37.9480434 13.4541503,39.2911891 15.1110046,39.2911891 L41.9436202,39.2911891 C42.4070192,39.2911891 42.8641188,39.1838386 43.2790721,38.9775562 C44.7627117,38.2400064 45.367537,36.4393767 44.6299872,34.9557371 L31.2136794,7.96777482 Z"/>
    </g>
    <g transform="rotate(-91 184.188 143.866)">
      <ellipse cx="18.234" cy="13.678" stroke="#FFC111" stroke-width="2" rx="12.091" ry="12.078"/>
      <ellipse cx="13.819" cy="17.585" fill="#FFC111" opacity=".2" rx="13.091" ry="13.078"/>
    </g>
    <g transform="rotate(-91 260.988 -152.882)">
      <circle cx="12.877" cy="10.325" r="8.5" stroke="#FFC111" stroke-width="2"/>
      <circle cx="9.825" cy="13.272" r="9.5" fill="#FFC111" opacity=".2"/>
    </g>
    <g transform="rotate(-149 266.165 172.023)">
      <rect width="19.32" height="19.167" x=".728" y="3.65" fill="#01B2D0" opacity=".1" rx="3"/>
      <rect width="17.32" height="17.167" x="4.349" y="1.346" stroke="#01B2D0" stroke-width="2" rx="3"/>
    </g>
  </g>
</svg>
