<svg xmlns="http://www.w3.org/2000/svg" xmlns:xlink="http://www.w3.org/1999/xlink" width="561" height="512" viewBox="0 0 561 512">
  <defs>
    <rect id="event-manager-b" width="453" height="230" rx="6"/>
    <filter id="event-manager-a" width="111.7%" height="123%" x="-5.8%" y="-9.8%" filterUnits="objectBoundingBox">
      <feMorphology in="SourceAlpha" operator="dilate" radius=".5" result="shadowSpreadOuter1"/>
      <feOffset dy="4" in="shadowSpreadOuter1" result="shadowOffsetOuter1"/>
      <feGaussianBlur in="shadowOffsetOuter1" result="shadowBlurOuter1" stdDeviation="8"/>
      <feComposite in="shadowBlurOuter1" in2="SourceAlpha" operator="out" result="shadowBlurOuter1"/>
      <feColorMatrix in="shadowBlurOuter1" values="0 0 0 0 0   0 0 0 0 0   0 0 0 0 0  0 0 0 0.12 0"/>
    </filter>
    <rect id="event-manager-d" width="378" height="275" rx="6"/>
    <filter id="event-manager-c" width="114%" height="119.3%" x="-7%" y="-8.2%" filterUnits="objectBoundingBox">
      <feMorphology in="SourceAlpha" operator="dilate" radius=".5" result="shadowSpreadOuter1"/>
      <feOffset dy="4" in="shadowSpreadOuter1" result="shadowOffsetOuter1"/>
      <feGaussianBlur in="shadowOffsetOuter1" result="shadowBlurOuter1" stdDeviation="8"/>
      <feComposite in="shadowBlurOuter1" in2="SourceAlpha" operator="out" result="shadowBlurOuter1"/>
      <feColorMatrix in="shadowBlurOuter1" values="0 0 0 0 0   0 0 0 0 0   0 0 0 0 0  0 0 0 0.12 0"/>
    </filter>
  </defs>
  <g fill="none" fill-rule="evenodd" transform="translate(16 12)">
    <rect width="453" height="215" x="32" y="90" fill="#E1F5DB"/>
    <use fill="#000" filter="url(#event-manager-a)" xlink:href="#event-manager-b"/>
    <use fill="#FFF" stroke="#8D8D8D" stroke-opacity=".24" xlink:href="#event-manager-b"/>
    <path fill="#384254" fill-rule="nonzero" d="M30.482 37L28.844 37 28.844 34.886 24.392 34.886 24.392 33.57 28.228 27.662 30.482 27.662 30.482 33.444 31.728 33.444 31.728 34.886 30.482 34.886 30.482 37zM28.844 33.444L28.844 29.132 26.002 33.444 28.844 33.444zM36.446 37L34.808 37 34.808 29.776 33.282 31.372 32.33 30.378 35.018 27.662 36.446 27.662 36.446 37zM48.444 37L42.046 37 42.046 27.662 48.444 27.662 48.444 29.104 43.684 29.104 43.684 31.512 48.346 31.512 48.346 32.954 43.684 32.954 43.684 35.558 48.444 35.558 48.444 37zM53.442 37L51.86 37 49.102 30.238 50.684 30.238 52.658 35.306 54.632 30.238 56.2 30.238 53.442 37zM60.26 37.168C58.216 37.168 56.718 35.754 56.718 33.612 56.718 31.652 58.146 30.07 60.148 30.07 62.178 30.07 63.466 31.61 63.466 33.738L63.466 34.102 58.258 34.102C58.37 35.11 59.126 35.964 60.4 35.964 61.072 35.964 61.842 35.698 62.332 35.208L63.004 36.174C62.318 36.818 61.324 37.168 60.26 37.168zM62.052 33.052C62.01 32.254 61.464 31.274 60.134 31.274 58.888 31.274 58.3 32.24 58.244 33.052L62.052 33.052zM70.97 37L69.5 37 69.5 32.772C69.5 31.708 68.954 31.372 68.128 31.372 67.386 31.372 66.742 31.82 66.392 32.268L66.392 37 64.922 37 64.922 30.238 66.392 30.238 66.392 31.148C66.84 30.616 67.722 30.07 68.786 30.07 70.242 30.07 70.97 30.854 70.97 32.24L70.97 37zM74.918 37.168C73.77 37.168 73.182 36.552 73.182 35.418L73.182 31.512 72.062 31.512 72.062 30.238 73.182 30.238 73.182 28.39 74.652 28.39 74.652 30.238 76.024 30.238 76.024 31.512 74.652 31.512 74.652 35.054C74.652 35.516 74.876 35.866 75.296 35.866 75.576 35.866 75.828 35.74 75.94 35.614L76.29 36.734C76.024 36.972 75.59 37.168 74.918 37.168zM79.664 37.168C78.502 37.168 77.466 36.79 76.766 36.104L77.438 35.054C77.914 35.544 78.852 35.992 79.72 35.992 80.602 35.992 81.064 35.628 81.064 35.096 81.064 33.766 76.976 34.718 76.976 32.114 76.976 31.008 77.928 30.07 79.636 30.07 80.784 30.07 81.652 30.476 82.254 31.008L81.638 32.044C81.232 31.596 80.49 31.232 79.636 31.232 78.866 31.232 78.39 31.596 78.39 32.072 78.39 33.262 82.478 32.366 82.478 35.054 82.478 36.258 81.484 37.168 79.664 37.168zM89.604 37.168C88.456 37.168 87.868 36.552 87.868 35.418L87.868 31.512 86.748 31.512 86.748 30.238 87.868 30.238 87.868 28.39 89.338 28.39 89.338 30.238 90.71 30.238 90.71 31.512 89.338 31.512 89.338 35.054C89.338 35.516 89.562 35.866 89.982 35.866 90.262 35.866 90.514 35.74 90.626 35.614L90.976 36.734C90.71 36.972 90.276 37.168 89.604 37.168zM93.496 37L92.026 37 92.026 30.238 93.496 30.238 93.496 31.218C94.014 30.574 94.826 30.07 95.694 30.07L95.694 31.526C95.568 31.498 95.428 31.484 95.246 31.484 94.616 31.484 93.79 31.904 93.496 32.394L93.496 37zM102.498 37L101.028 37 101.028 36.258C100.524 36.846 99.726 37.168 98.83 37.168 97.738 37.168 96.492 36.412 96.492 34.928 96.492 33.36 97.724 32.716 98.83 32.716 99.754 32.716 100.524 33.01 101.028 33.584L101.028 32.576C101.028 31.792 100.37 31.316 99.446 31.316 98.69 31.316 98.018 31.596 97.444 32.184L96.828 31.162C97.612 30.406 98.592 30.07 99.67 30.07 101.182 30.07 102.498 30.7 102.498 32.506L102.498 37zM99.418 36.16C100.048 36.16 100.678 35.922 101.028 35.46L101.028 34.424C100.678 33.962 100.048 33.724 99.418 33.724 98.592 33.724 97.962 34.214 97.962 34.942 97.962 35.684 98.592 36.16 99.418 36.16zM107.482 37.168C105.438 37.168 103.996 35.656 103.996 33.612 103.996 31.568 105.438 30.07 107.482 30.07 108.812 30.07 109.596 30.63 110.072 31.274L109.106 32.156C108.728 31.624 108.21 31.372 107.552 31.372 106.334 31.372 105.508 32.296 105.508 33.612 105.508 34.928 106.334 35.866 107.552 35.866 108.21 35.866 108.728 35.586 109.106 35.054L110.072 35.964C109.596 36.594 108.812 37.168 107.482 37.168zM117.702 37L115.854 37 113.796 34.2 112.844 35.18 112.844 37 111.374 37 111.374 27.662 112.844 27.662 112.844 33.5 115.826 30.238 117.646 30.238 114.846 33.304 117.702 37zM121.818 37.168C119.774 37.168 118.276 35.754 118.276 33.612 118.276 31.652 119.704 30.07 121.706 30.07 123.736 30.07 125.024 31.61 125.024 33.738L125.024 34.102 119.816 34.102C119.928 35.11 120.684 35.964 121.958 35.964 122.63 35.964 123.4 35.698 123.89 35.208L124.562 36.174C123.876 36.818 122.882 37.168 121.818 37.168zM123.61 33.052C123.568 32.254 123.022 31.274 121.692 31.274 120.446 31.274 119.858 32.24 119.802 33.052L123.61 33.052zM132.71 37L131.24 37 131.24 36.076C130.722 36.748 129.952 37.168 129.07 37.168 127.348 37.168 126.074 35.852 126.074 33.612 126.074 31.428 127.334 30.07 129.07 30.07 129.924 30.07 130.708 30.448 131.24 31.176L131.24 27.662 132.71 27.662 132.71 37zM129.504 35.866C130.19 35.866 130.918 35.46 131.24 34.956L131.24 32.282C130.918 31.778 130.19 31.372 129.504 31.372 128.328 31.372 127.586 32.31 127.586 33.612 127.586 34.928 128.328 35.866 129.504 35.866zM31.788 77L30.432 77 26.256 71.276 26.256 77 24.852 77 24.852 68.996 26.292 68.996 30.384 74.54 30.384 68.996 31.788 68.996 31.788 77zM40.704 77L39.108 77 38.52 75.452 34.848 75.452 34.26 77 32.664 77 35.808 68.996 37.56 68.996 40.704 77zM38.124 74.216L36.684 70.4 35.244 74.216 38.124 74.216zM49.884 77L48.48 77 48.48 70.82 46.032 77 45.432 77 42.972 70.82 42.972 77 41.568 77 41.568 68.996 43.548 68.996 45.732 74.492 47.904 68.996 49.884 68.996 49.884 77zM57.072 77L51.588 77 51.588 68.996 57.072 68.996 57.072 70.232 52.992 70.232 52.992 72.296 56.988 72.296 56.988 73.532 52.992 73.532 52.992 75.764 57.072 75.764 57.072 77zM200.704 77.144C198.34 77.144 196.504 75.464 196.504 73.004 196.504 70.532 198.34 68.864 200.704 68.864 202.312 68.864 203.32 69.692 203.908 70.652L202.72 71.276C202.336 70.604 201.556 70.112 200.704 70.112 199.12 70.112 197.944 71.312 197.944 73.004 197.944 74.672 199.12 75.896 200.704 75.896 201.556 75.896 202.336 75.392 202.72 74.732L203.92 75.332C203.308 76.292 202.312 77.144 200.704 77.144zM212.188 77L210.592 77 210.004 75.452 206.332 75.452 205.744 77 204.148 77 207.292 68.996 209.044 68.996 212.188 77zM209.608 74.216L208.168 70.4 206.728 74.216 209.608 74.216zM221.368 77L219.964 77 219.964 70.82 217.516 77 216.916 77 214.456 70.82 214.456 77 213.052 77 213.052 68.996 215.032 68.996 217.216 74.492 219.388 68.996 221.368 68.996 221.368 77zM224.476 77L223.072 77 223.072 68.996 226.6 68.996C228.28 68.996 229.204 70.136 229.204 71.504 229.204 72.86 228.268 74 226.6 74L224.476 74 224.476 77zM226.408 72.764C227.2 72.764 227.764 72.26 227.764 71.504 227.764 70.736 227.2 70.232 226.408 70.232L224.476 70.232 224.476 72.764 226.408 72.764zM236.692 77L235.096 77 234.508 75.452 230.836 75.452 230.248 77 228.652 77 231.796 68.996 233.548 68.996 236.692 77zM234.112 74.216L232.672 70.4 231.232 74.216 234.112 74.216zM238.96 77L237.556 77 237.556 68.996 238.96 68.996 238.96 77zM244.516 77.156C242.188 77.156 240.316 75.512 240.316 73.004 240.316 70.484 242.188 68.864 244.516 68.864 246.076 68.864 247.096 69.608 247.732 70.52L246.592 71.18C246.16 70.58 245.404 70.112 244.516 70.112 242.932 70.112 241.756 71.312 241.756 73.004 241.756 74.672 242.932 75.896 244.516 75.896 245.332 75.896 246.052 75.524 246.412 75.176L246.412 73.94 244.012 73.94 244.012 72.704 247.804 72.704 247.804 75.692C247.024 76.568 245.896 77.156 244.516 77.156zM256.204 77L254.848 77 250.672 71.276 250.672 77 249.268 77 249.268 68.996 250.708 68.996 254.8 74.54 254.8 68.996 256.204 68.996 256.204 77zM260.656 77.144C259.18 77.144 258.112 76.616 257.392 75.872L258.184 74.78C258.724 75.368 259.6 75.896 260.716 75.896 261.868 75.896 262.312 75.332 262.312 74.792 262.312 73.112 257.656 74.156 257.656 71.216 257.656 69.884 258.808 68.864 260.572 68.864 261.808 68.864 262.828 69.272 263.56 69.992L262.768 71.036C262.132 70.4 261.28 70.112 260.44 70.112 259.624 70.112 259.096 70.52 259.096 71.108 259.096 72.608 263.752 71.684 263.752 74.66 263.752 75.992 262.804 77.144 260.656 77.144zM325.688 77L320.756 77 320.756 68.996 322.16 68.996 322.16 75.764 325.688 75.764 325.688 77zM334.136 77L332.54 77 331.952 75.452 328.28 75.452 327.692 77 326.096 77 329.24 68.996 330.992 68.996 334.136 77zM331.556 74.216L330.116 70.4 328.676 74.216 331.556 74.216zM337.628 77.144C336.152 77.144 335.084 76.616 334.364 75.872L335.156 74.78C335.696 75.368 336.572 75.896 337.688 75.896 338.84 75.896 339.284 75.332 339.284 74.792 339.284 73.112 334.628 74.156 334.628 71.216 334.628 69.884 335.78 68.864 337.544 68.864 338.78 68.864 339.8 69.272 340.532 69.992L339.74 71.036C339.104 70.4 338.252 70.112 337.412 70.112 336.596 70.112 336.068 70.52 336.068 71.108 336.068 72.608 340.724 71.684 340.724 74.66 340.724 75.992 339.776 77.144 337.628 77.144zM345.2 77L343.796 77 343.796 70.232 341.372 70.232 341.372 68.996 347.624 68.996 347.624 70.232 345.2 70.232 345.2 77zM354.656 77.144C353.18 77.144 352.112 76.616 351.392 75.872L352.184 74.78C352.724 75.368 353.6 75.896 354.716 75.896 355.868 75.896 356.312 75.332 356.312 74.792 356.312 73.112 351.656 74.156 351.656 71.216 351.656 69.884 352.808 68.864 354.572 68.864 355.808 68.864 356.828 69.272 357.56 69.992L356.768 71.036C356.132 70.4 355.28 70.112 354.44 70.112 353.624 70.112 353.096 70.52 353.096 71.108 353.096 72.608 357.752 71.684 357.752 74.66 357.752 75.992 356.804 77.144 354.656 77.144zM364.52 77L359.036 77 359.036 68.996 364.52 68.996 364.52 70.232 360.44 70.232 360.44 72.296 364.436 72.296 364.436 73.532 360.44 73.532 360.44 75.764 364.52 75.764 364.52 77zM371.444 77L365.96 77 365.96 68.996 371.444 68.996 371.444 70.232 367.364 70.232 367.364 72.296 371.36 72.296 371.36 73.532 367.364 73.532 367.364 75.764 371.444 75.764 371.444 77zM379.82 77L378.464 77 374.288 71.276 374.288 77 372.884 77 372.884 68.996 374.324 68.996 378.416 74.54 378.416 68.996 379.82 68.996 379.82 77z" opacity=".5"/>
    <g transform="translate(36 178)">
      <path fill="#384254" fill-rule="nonzero" d="M32.408,13 L30.546,13 L29.86,11.194 L25.576,11.194 L24.89,13 L23.028,13 L26.696,3.662 L28.74,3.662 L32.408,13 Z M29.398,9.752 L27.718,5.3 L26.038,9.752 L29.398,9.752 Z M36.454,13.168 C34.41,13.168 32.968,11.656 32.968,9.612 C32.968,7.568 34.41,6.07 36.454,6.07 C37.784,6.07 38.568,6.63 39.044,7.274 L38.078,8.156 C37.7,7.624 37.182,7.372 36.524,7.372 C35.306,7.372 34.48,8.296 34.48,9.612 C34.48,10.928 35.306,11.866 36.524,11.866 C37.182,11.866 37.7,11.586 38.078,11.054 L39.044,11.964 C38.568,12.594 37.784,13.168 36.454,13.168 Z M42.39,13.168 C41.242,13.168 40.654,12.552 40.654,11.418 L40.654,7.512 L39.534,7.512 L39.534,6.238 L40.654,6.238 L40.654,4.39 L42.124,4.39 L42.124,6.238 L43.496,6.238 L43.496,7.512 L42.124,7.512 L42.124,11.054 C42.124,11.516 42.348,11.866 42.768,11.866 C43.048,11.866 43.3,11.74 43.412,11.614 L43.762,12.734 C43.496,12.972 43.062,13.168 42.39,13.168 Z M45.554,5.412 C45.05,5.412 44.644,5.006 44.644,4.502 C44.644,3.998 45.05,3.592 45.554,3.592 C46.058,3.592 46.464,3.998 46.464,4.502 C46.464,5.006 46.058,5.412 45.554,5.412 Z M46.282,13 L44.812,13 L44.812,6.238 L46.282,6.238 L46.282,13 Z M51.546,13 L49.964,13 L47.206,6.238 L48.788,6.238 L50.762,11.306 L52.736,6.238 L54.304,6.238 L51.546,13 Z M60.842,13 L59.372,13 L59.372,12.258 C58.868,12.846 58.07,13.168 57.174,13.168 C56.082,13.168 54.836,12.412 54.836,10.928 C54.836,9.36 56.068,8.716 57.174,8.716 C58.098,8.716 58.868,9.01 59.372,9.584 L59.372,8.576 C59.372,7.792 58.714,7.316 57.79,7.316 C57.034,7.316 56.362,7.596 55.788,8.184 L55.172,7.162 C55.956,6.406 56.936,6.07 58.014,6.07 C59.526,6.07 60.842,6.7 60.842,8.506 L60.842,13 Z M57.762,12.16 C58.392,12.16 59.022,11.922 59.372,11.46 L59.372,10.424 C59.022,9.962 58.392,9.724 57.762,9.724 C56.936,9.724 56.306,10.214 56.306,10.942 C56.306,11.684 56.936,12.16 57.762,12.16 Z M64.79,13.168 C63.642,13.168 63.054,12.552 63.054,11.418 L63.054,7.512 L61.934,7.512 L61.934,6.238 L63.054,6.238 L63.054,4.39 L64.524,4.39 L64.524,6.238 L65.896,6.238 L65.896,7.512 L64.524,7.512 L64.524,11.054 C64.524,11.516 64.748,11.866 65.168,11.866 C65.448,11.866 65.7,11.74 65.812,11.614 L66.162,12.734 C65.896,12.972 65.462,13.168 64.79,13.168 Z M70.348,13.168 C68.304,13.168 66.806,11.754 66.806,9.612 C66.806,7.652 68.234,6.07 70.236,6.07 C72.266,6.07 73.554,7.61 73.554,9.738 L73.554,10.102 L68.346,10.102 C68.458,11.11 69.214,11.964 70.488,11.964 C71.16,11.964 71.93,11.698 72.42,11.208 L73.092,12.174 C72.406,12.818 71.412,13.168 70.348,13.168 Z M72.14,9.052 C72.098,8.254 71.552,7.274 70.222,7.274 C68.976,7.274 68.388,8.24 68.332,9.052 L72.14,9.052 Z M81.24,13 L79.77,13 L79.77,12.076 C79.252,12.748 78.482,13.168 77.6,13.168 C75.878,13.168 74.604,11.852 74.604,9.612 C74.604,7.428 75.864,6.07 77.6,6.07 C78.454,6.07 79.238,6.448 79.77,7.176 L79.77,3.662 L81.24,3.662 L81.24,13 Z M78.034,11.866 C78.72,11.866 79.448,11.46 79.77,10.956 L79.77,8.282 C79.448,7.778 78.72,7.372 78.034,7.372 C76.858,7.372 76.116,8.31 76.116,9.612 C76.116,10.928 76.858,11.866 78.034,11.866 Z M92.37,13 L90.9,13 L90.9,12.258 C90.396,12.846 89.598,13.168 88.702,13.168 C87.61,13.168 86.364,12.412 86.364,10.928 C86.364,9.36 87.596,8.716 88.702,8.716 C89.626,8.716 90.396,9.01 90.9,9.584 L90.9,8.576 C90.9,7.792 90.242,7.316 89.318,7.316 C88.562,7.316 87.89,7.596 87.316,8.184 L86.7,7.162 C87.484,6.406 88.464,6.07 89.542,6.07 C91.054,6.07 92.37,6.7 92.37,8.506 L92.37,13 Z M89.29,12.16 C89.92,12.16 90.55,11.922 90.9,11.46 L90.9,10.424 C90.55,9.962 89.92,9.724 89.29,9.724 C88.464,9.724 87.834,10.214 87.834,10.942 C87.834,11.684 88.464,12.16 89.29,12.16 Z M97.354,13.168 C95.31,13.168 93.868,11.656 93.868,9.612 C93.868,7.568 95.31,6.07 97.354,6.07 C98.684,6.07 99.468,6.63 99.944,7.274 L98.978,8.156 C98.6,7.624 98.082,7.372 97.424,7.372 C96.206,7.372 95.38,8.296 95.38,9.612 C95.38,10.928 96.206,11.866 97.424,11.866 C98.082,11.866 98.6,11.586 98.978,11.054 L99.944,11.964 C99.468,12.594 98.684,13.168 97.354,13.168 Z M104.326,13.168 C102.282,13.168 100.84,11.656 100.84,9.612 C100.84,7.568 102.282,6.07 104.326,6.07 C105.656,6.07 106.44,6.63 106.916,7.274 L105.95,8.156 C105.572,7.624 105.054,7.372 104.396,7.372 C103.178,7.372 102.352,8.296 102.352,9.612 C102.352,10.928 103.178,11.866 104.396,11.866 C105.054,11.866 105.572,11.586 105.95,11.054 L106.916,11.964 C106.44,12.594 105.656,13.168 104.326,13.168 Z M111.284,13.168 C109.128,13.168 107.812,11.544 107.812,9.612 C107.812,7.666 109.128,6.07 111.284,6.07 C113.44,6.07 114.756,7.666 114.756,9.612 C114.756,11.544 113.44,13.168 111.284,13.168 Z M111.284,11.866 C112.544,11.866 113.23,10.816 113.23,9.612 C113.23,8.422 112.544,7.372 111.284,7.372 C110.038,7.372 109.338,8.422 109.338,9.612 C109.338,10.816 110.038,11.866 111.284,11.866 Z M122.288,13 L120.818,13 L120.818,12.104 C120.342,12.636 119.502,13.168 118.438,13.168 C116.982,13.168 116.254,12.398 116.254,11.026 L116.254,6.238 L117.724,6.238 L117.724,10.48 C117.724,11.53 118.256,11.866 119.096,11.866 C119.838,11.866 120.482,11.432 120.818,10.984 L120.818,6.238 L122.288,6.238 L122.288,13 Z M130.24,13 L128.77,13 L128.77,8.772 C128.77,7.708 128.224,7.372 127.398,7.372 C126.656,7.372 126.012,7.82 125.662,8.268 L125.662,13 L124.192,13 L124.192,6.238 L125.662,6.238 L125.662,7.148 C126.11,6.616 126.992,6.07 128.056,6.07 C129.512,6.07 130.24,6.854 130.24,8.24 L130.24,13 Z M134.188,13.168 C133.04,13.168 132.452,12.552 132.452,11.418 L132.452,7.512 L131.332,7.512 L131.332,6.238 L132.452,6.238 L132.452,4.39 L133.922,4.39 L133.922,6.238 L135.294,6.238 L135.294,7.512 L133.922,7.512 L133.922,11.054 C133.922,11.516 134.146,11.866 134.566,11.866 C134.846,11.866 135.098,11.74 135.21,11.614 L135.56,12.734 C135.294,12.972 134.86,13.168 134.188,13.168 Z" opacity=".5"/>
      <path fill="#384254" fill-rule="nonzero" d="M164.326 13.168C161.694 13.168 160.588 10.676 160.588 8.338 160.588 5.986 161.694 3.522 164.326 3.522 166.944 3.522 168.05 5.986 168.05 8.338 168.05 10.676 166.944 13.168 164.326 13.168zM164.326 11.712C165.838 11.712 166.384 10.116 166.384 8.338 166.384 6.546 165.852 4.978 164.326 4.978 162.8 4.978 162.254 6.546 162.254 8.338 162.254 10.116 162.8 11.712 164.326 11.712zM310.256 13.168C308.66 13.168 307.554 12.608 306.798 11.726L307.736 10.592C308.352 11.32 309.206 11.712 310.242 11.712 311.432 11.712 312.16 10.984 312.16 10.06 312.16 9.066 311.432 8.408 310.284 8.408 309.5 8.408 308.842 8.646 308.24 9.206L307.078 8.87 307.078 3.662 313.196 3.662 313.196 5.104 308.716 5.104 308.716 7.792C309.178 7.358 309.934 6.994 310.83 6.994 312.412 6.994 313.826 8.086 313.826 10.004 313.826 11.936 312.342 13.168 310.256 13.168zM325.194 13L323.724 13 323.724 12.076C323.206 12.748 322.436 13.168 321.554 13.168 319.832 13.168 318.558 11.852 318.558 9.612 318.558 7.428 319.818 6.07 321.554 6.07 322.408 6.07 323.192 6.448 323.724 7.176L323.724 3.662 325.194 3.662 325.194 13zM321.988 11.866C322.674 11.866 323.402 11.46 323.724 10.956L323.724 8.282C323.402 7.778 322.674 7.372 321.988 7.372 320.812 7.372 320.07 8.31 320.07 9.612 320.07 10.928 320.812 11.866 321.988 11.866zM332.712 13L331.242 13 331.242 12.258C330.738 12.846 329.94 13.168 329.044 13.168 327.952 13.168 326.706 12.412 326.706 10.928 326.706 9.36 327.938 8.716 329.044 8.716 329.968 8.716 330.738 9.01 331.242 9.584L331.242 8.576C331.242 7.792 330.584 7.316 329.66 7.316 328.904 7.316 328.232 7.596 327.658 8.184L327.042 7.162C327.826 6.406 328.806 6.07 329.884 6.07 331.396 6.07 332.712 6.7 332.712 8.506L332.712 13zM329.632 12.16C330.262 12.16 330.892 11.922 331.242 11.46L331.242 10.424C330.892 9.962 330.262 9.724 329.632 9.724 328.806 9.724 328.176 10.214 328.176 10.942 328.176 11.684 328.806 12.16 329.632 12.16zM334.336 15.646L334.546 14.33C334.7 14.4 334.938 14.442 335.106 14.442 335.582 14.442 335.89 14.302 336.086 13.854L336.422 13.084 333.636 6.238 335.218 6.238 337.192 11.306 339.166 6.238 340.734 6.238 337.472 14.218C337.01 15.366 336.212 15.73 335.162 15.744 334.952 15.744 334.532 15.702 334.336 15.646zM343.982 13.168C342.82 13.168 341.784 12.79 341.084 12.104L341.756 11.054C342.232 11.544 343.17 11.992 344.038 11.992 344.92 11.992 345.382 11.628 345.382 11.096 345.382 9.766 341.294 10.718 341.294 8.114 341.294 7.008 342.246 6.07 343.954 6.07 345.102 6.07 345.97 6.476 346.572 7.008L345.956 8.044C345.55 7.596 344.808 7.232 343.954 7.232 343.184 7.232 342.708 7.596 342.708 8.072 342.708 9.262 346.796 8.366 346.796 11.054 346.796 12.258 345.802 13.168 343.982 13.168zM357.492 13L356.022 13 356.022 12.258C355.518 12.846 354.72 13.168 353.824 13.168 352.732 13.168 351.486 12.412 351.486 10.928 351.486 9.36 352.718 8.716 353.824 8.716 354.748 8.716 355.518 9.01 356.022 9.584L356.022 8.576C356.022 7.792 355.364 7.316 354.44 7.316 353.684 7.316 353.012 7.596 352.438 8.184L351.822 7.162C352.606 6.406 353.586 6.07 354.664 6.07 356.176 6.07 357.492 6.7 357.492 8.506L357.492 13zM354.412 12.16C355.042 12.16 355.672 11.922 356.022 11.46L356.022 10.424C355.672 9.962 355.042 9.724 354.412 9.724 353.586 9.724 352.956 10.214 352.956 10.942 352.956 11.684 353.586 12.16 354.412 12.16zM362.154 15.744C361.006 15.744 360.152 15.492 359.312 14.736L359.998 13.672C360.558 14.302 361.258 14.54 362.154 14.54 363.12 14.54 364.156 14.092 364.156 12.65L364.156 11.88C363.638 12.566 362.868 13.014 361.986 13.014 360.264 13.014 358.99 11.768 358.99 9.542 358.99 7.344 360.236 6.07 361.986 6.07 362.84 6.07 363.61 6.448 364.156 7.176L364.156 6.238 365.626 6.238 365.626 12.65C365.626 15.086 363.806 15.744 362.154 15.744zM362.42 11.698C363.106 11.698 363.82 11.292 364.156 10.802L364.156 8.268C363.82 7.778 363.106 7.372 362.42 7.372 361.244 7.372 360.502 8.24 360.502 9.542 360.502 10.844 361.244 11.698 362.42 11.698zM370.596 13.168C368.44 13.168 367.124 11.544 367.124 9.612 367.124 7.666 368.44 6.07 370.596 6.07 372.752 6.07 374.068 7.666 374.068 9.612 374.068 11.544 372.752 13.168 370.596 13.168zM370.596 11.866C371.856 11.866 372.542 10.816 372.542 9.612 372.542 8.422 371.856 7.372 370.596 7.372 369.35 7.372 368.65 8.422 368.65 9.612 368.65 10.816 369.35 11.866 370.596 11.866z"/>
      <circle cx="288" cy="9" r="4" fill="#6FD350"/>
      <path fill="#01B2D0" fill-rule="nonzero" d="M12.8331659,8.01477569 C13.2077336,7.60083171 12.9105975,6.94370779 12.348854,6.94370779 L8.16444183,6.94370776 L10.1092948,0.839273991 C10.3193495,0.179517246 9.47153582,-0.29763087 9.0051023,0.217836309 L0.166834064,9.98522431 C-0.207733621,10.3991683 0.0894025115,11.0562922 0.651146022,11.0562922 L4.83279727,11.0562927 L2.89070519,17.160726 C2.68065048,17.8204828 3.52846418,18.2976309 3.9948977,17.7821637 L12.8331659,8.01477569 Z"/>
    </g>
    <g transform="translate(24 128)">
      <rect width="405" height="38" fill="#9D9D9D" opacity=".06"/>
      <g transform="translate(12 10)">
        <path fill="#384254" fill-rule="nonzero" d="M27.2,13.168 C25.478,13.168 24.232,12.552 23.392,11.684 L24.316,10.41 C24.946,11.096 25.968,11.712 27.27,11.712 C28.614,11.712 29.132,11.054 29.132,10.424 C29.132,8.464 23.7,9.682 23.7,6.252 C23.7,4.698 25.044,3.508 27.102,3.508 C28.544,3.508 29.734,3.984 30.588,4.824 L29.664,6.042 C28.922,5.3 27.928,4.964 26.948,4.964 C25.996,4.964 25.38,5.44 25.38,6.126 C25.38,7.876 30.812,6.798 30.812,10.27 C30.812,11.824 29.706,13.168 27.2,13.168 Z M33.01,5.412 C32.506,5.412 32.1,5.006 32.1,4.502 C32.1,3.998 32.506,3.592 33.01,3.592 C33.514,3.592 33.92,3.998 33.92,4.502 C33.92,5.006 33.514,5.412 33.01,5.412 Z M33.738,13 L32.268,13 L32.268,6.238 L33.738,6.238 L33.738,13 Z M38.4,15.744 C37.252,15.744 36.398,15.492 35.558,14.736 L36.244,13.672 C36.804,14.302 37.504,14.54 38.4,14.54 C39.366,14.54 40.402,14.092 40.402,12.65 L40.402,11.88 C39.884,12.566 39.114,13.014 38.232,13.014 C36.51,13.014 35.236,11.768 35.236,9.542 C35.236,7.344 36.482,6.07 38.232,6.07 C39.086,6.07 39.856,6.448 40.402,7.176 L40.402,6.238 L41.872,6.238 L41.872,12.65 C41.872,15.086 40.052,15.744 38.4,15.744 Z M38.666,11.698 C39.352,11.698 40.066,11.292 40.402,10.802 L40.402,8.268 C40.066,7.778 39.352,7.372 38.666,7.372 C37.49,7.372 36.748,8.24 36.748,9.542 C36.748,10.844 37.49,11.698 38.666,11.698 Z M49.824,13 L48.354,13 L48.354,8.772 C48.354,7.708 47.808,7.372 46.982,7.372 C46.24,7.372 45.596,7.82 45.246,8.268 L45.246,13 L43.776,13 L43.776,6.238 L45.246,6.238 L45.246,7.148 C45.694,6.616 46.576,6.07 47.64,6.07 C49.096,6.07 49.824,6.854 49.824,8.24 L49.824,13 Z M54.864,13.168 C52.82,13.168 51.322,11.754 51.322,9.612 C51.322,7.652 52.75,6.07 54.752,6.07 C56.782,6.07 58.07,7.61 58.07,9.738 L58.07,10.102 L52.862,10.102 C52.974,11.11 53.73,11.964 55.004,11.964 C55.676,11.964 56.446,11.698 56.936,11.208 L57.608,12.174 C56.922,12.818 55.928,13.168 54.864,13.168 Z M56.656,9.052 C56.614,8.254 56.068,7.274 54.738,7.274 C53.492,7.274 52.904,8.24 52.848,9.052 L56.656,9.052 Z M65.756,13 L64.286,13 L64.286,12.076 C63.768,12.748 62.998,13.168 62.116,13.168 C60.394,13.168 59.12,11.852 59.12,9.612 C59.12,7.428 60.38,6.07 62.116,6.07 C62.97,6.07 63.754,6.448 64.286,7.176 L64.286,3.662 L65.756,3.662 L65.756,13 Z M62.55,11.866 C63.236,11.866 63.964,11.46 64.286,10.956 L64.286,8.282 C63.964,7.778 63.236,7.372 62.55,7.372 C61.374,7.372 60.632,8.31 60.632,9.612 C60.632,10.928 61.374,11.866 62.55,11.866 Z M77.306,13 L75.836,13 L75.836,12.104 C75.36,12.636 74.52,13.168 73.456,13.168 C72,13.168 71.272,12.398 71.272,11.026 L71.272,6.238 L72.742,6.238 L72.742,10.48 C72.742,11.53 73.274,11.866 74.114,11.866 C74.856,11.866 75.5,11.432 75.836,10.984 L75.836,6.238 L77.306,6.238 L77.306,13 Z M82.85,13.168 C81.996,13.168 81.24,12.776 80.68,12.062 L80.68,15.576 L79.21,15.576 L79.21,6.238 L80.68,6.238 L80.68,7.162 C81.184,6.49 81.968,6.07 82.85,6.07 C84.6,6.07 85.846,7.386 85.846,9.612 C85.846,11.838 84.6,13.168 82.85,13.168 Z M82.416,11.866 C83.578,11.866 84.334,10.928 84.334,9.612 C84.334,8.296 83.578,7.372 82.416,7.372 C81.73,7.372 81.016,7.764 80.68,8.268 L80.68,10.942 C81.002,11.446 81.73,11.866 82.416,11.866 Z" opacity=".5"/>
        <polygon fill="#384254" fill-rule="nonzero" points="164.326 13 162.688 13 162.688 5.776 161.162 7.372 160.21 6.378 162.898 3.662 164.326 3.662"/>
        <path fill="#384254" fill-rule="nonzero" d="M312.566,13 L311.096,13 L311.096,12.258 C310.592,12.846 309.794,13.168 308.898,13.168 C307.806,13.168 306.56,12.412 306.56,10.928 C306.56,9.36 307.792,8.716 308.898,8.716 C309.822,8.716 310.592,9.01 311.096,9.584 L311.096,8.576 C311.096,7.792 310.438,7.316 309.514,7.316 C308.758,7.316 308.086,7.596 307.512,8.184 L306.896,7.162 C307.68,6.406 308.66,6.07 309.738,6.07 C311.25,6.07 312.566,6.7 312.566,8.506 L312.566,13 Z M309.486,12.16 C310.116,12.16 310.746,11.922 311.096,11.46 L311.096,10.424 C310.746,9.962 310.116,9.724 309.486,9.724 C308.66,9.724 308.03,10.214 308.03,10.942 C308.03,11.684 308.66,12.16 309.486,12.16 Z M324.312,13 L322.842,13 L322.842,12.076 C322.324,12.748 321.554,13.168 320.672,13.168 C318.95,13.168 317.676,11.852 317.676,9.612 C317.676,7.428 318.936,6.07 320.672,6.07 C321.526,6.07 322.31,6.448 322.842,7.176 L322.842,3.662 L324.312,3.662 L324.312,13 Z M321.106,11.866 C321.792,11.866 322.52,11.46 322.842,10.956 L322.842,8.282 C322.52,7.778 321.792,7.372 321.106,7.372 C319.93,7.372 319.188,8.31 319.188,9.612 C319.188,10.928 319.93,11.866 321.106,11.866 Z M331.83,13 L330.36,13 L330.36,12.258 C329.856,12.846 329.058,13.168 328.162,13.168 C327.07,13.168 325.824,12.412 325.824,10.928 C325.824,9.36 327.056,8.716 328.162,8.716 C329.086,8.716 329.856,9.01 330.36,9.584 L330.36,8.576 C330.36,7.792 329.702,7.316 328.778,7.316 C328.022,7.316 327.35,7.596 326.776,8.184 L326.16,7.162 C326.944,6.406 327.924,6.07 329.002,6.07 C330.514,6.07 331.83,6.7 331.83,8.506 L331.83,13 Z M328.75,12.16 C329.38,12.16 330.01,11.922 330.36,11.46 L330.36,10.424 C330.01,9.962 329.38,9.724 328.75,9.724 C327.924,9.724 327.294,10.214 327.294,10.942 C327.294,11.684 327.924,12.16 328.75,12.16 Z M333.454,15.646 L333.664,14.33 C333.818,14.4 334.056,14.442 334.224,14.442 C334.7,14.442 335.008,14.302 335.204,13.854 L335.54,13.084 L332.754,6.238 L334.336,6.238 L336.31,11.306 L338.284,6.238 L339.852,6.238 L336.59,14.218 C336.128,15.366 335.33,15.73 334.28,15.744 C334.07,15.744 333.65,15.702 333.454,15.646 Z M350.002,13 L348.532,13 L348.532,12.258 C348.028,12.846 347.23,13.168 346.334,13.168 C345.242,13.168 343.996,12.412 343.996,10.928 C343.996,9.36 345.228,8.716 346.334,8.716 C347.258,8.716 348.028,9.01 348.532,9.584 L348.532,8.576 C348.532,7.792 347.874,7.316 346.95,7.316 C346.194,7.316 345.522,7.596 344.948,8.184 L344.332,7.162 C345.116,6.406 346.096,6.07 347.174,6.07 C348.686,6.07 350.002,6.7 350.002,8.506 L350.002,13 Z M346.922,12.16 C347.552,12.16 348.182,11.922 348.532,11.46 L348.532,10.424 C348.182,9.962 347.552,9.724 346.922,9.724 C346.096,9.724 345.466,10.214 345.466,10.942 C345.466,11.684 346.096,12.16 346.922,12.16 Z M354.664,15.744 C353.516,15.744 352.662,15.492 351.822,14.736 L352.508,13.672 C353.068,14.302 353.768,14.54 354.664,14.54 C355.63,14.54 356.666,14.092 356.666,12.65 L356.666,11.88 C356.148,12.566 355.378,13.014 354.496,13.014 C352.774,13.014 351.5,11.768 351.5,9.542 C351.5,7.344 352.746,6.07 354.496,6.07 C355.35,6.07 356.12,6.448 356.666,7.176 L356.666,6.238 L358.136,6.238 L358.136,12.65 C358.136,15.086 356.316,15.744 354.664,15.744 Z M354.93,11.698 C355.616,11.698 356.33,11.292 356.666,10.802 L356.666,8.268 C356.33,7.778 355.616,7.372 354.93,7.372 C353.754,7.372 353.012,8.24 353.012,9.542 C353.012,10.844 353.754,11.698 354.93,11.698 Z M363.106,13.168 C360.95,13.168 359.634,11.544 359.634,9.612 C359.634,7.666 360.95,6.07 363.106,6.07 C365.262,6.07 366.578,7.666 366.578,9.612 C366.578,11.544 365.262,13.168 363.106,13.168 Z M363.106,11.866 C364.366,11.866 365.052,10.816 365.052,9.612 C365.052,8.422 364.366,7.372 363.106,7.372 C361.86,7.372 361.16,8.422 361.16,9.612 C361.16,10.816 361.86,11.866 363.106,11.866 Z"/>
        <circle cx="288" cy="9" r="4" fill="#6FD350"/>
        <path fill="#01B2D0" fill-rule="nonzero" d="M12.8331659,8.01477569 C13.2077336,7.60083171 12.9105975,6.94370779 12.348854,6.94370779 L8.16444183,6.94370776 L10.1092948,0.839273991 C10.3193495,0.179517246 9.47153582,-0.29763087 9.0051023,0.217836309 L0.166834064,9.98522431 C-0.207733621,10.3991683 0.0894025115,11.0562922 0.651146022,11.0562922 L4.83279727,11.0562927 L2.89070519,17.160726 C2.68065048,17.8204828 3.52846418,18.2976309 3.9948977,17.7821637 L12.8331659,8.01477569 Z"/>
      </g>
    </g>
    <g transform="translate(36 98)">
      <path fill="#384254" fill-rule="nonzero" d="M32.408,13 L30.546,13 L29.86,11.194 L25.576,11.194 L24.89,13 L23.028,13 L26.696,3.662 L28.74,3.662 L32.408,13 Z M29.398,9.752 L27.718,5.3 L26.038,9.752 L29.398,9.752 Z M36.454,13.168 C34.41,13.168 32.968,11.656 32.968,9.612 C32.968,7.568 34.41,6.07 36.454,6.07 C37.784,6.07 38.568,6.63 39.044,7.274 L38.078,8.156 C37.7,7.624 37.182,7.372 36.524,7.372 C35.306,7.372 34.48,8.296 34.48,9.612 C34.48,10.928 35.306,11.866 36.524,11.866 C37.182,11.866 37.7,11.586 38.078,11.054 L39.044,11.964 C38.568,12.594 37.784,13.168 36.454,13.168 Z M43.426,13.168 C41.382,13.168 39.94,11.656 39.94,9.612 C39.94,7.568 41.382,6.07 43.426,6.07 C44.756,6.07 45.54,6.63 46.016,7.274 L45.05,8.156 C44.672,7.624 44.154,7.372 43.496,7.372 C42.278,7.372 41.452,8.296 41.452,9.612 C41.452,10.928 42.278,11.866 43.496,11.866 C44.154,11.866 44.672,11.586 45.05,11.054 L46.016,11.964 C45.54,12.594 44.756,13.168 43.426,13.168 Z M50.454,13.168 C48.41,13.168 46.912,11.754 46.912,9.612 C46.912,7.652 48.34,6.07 50.342,6.07 C52.372,6.07 53.66,7.61 53.66,9.738 L53.66,10.102 L48.452,10.102 C48.564,11.11 49.32,11.964 50.594,11.964 C51.266,11.964 52.036,11.698 52.526,11.208 L53.198,12.174 C52.512,12.818 51.518,13.168 50.454,13.168 Z M52.246,9.052 C52.204,8.254 51.658,7.274 50.328,7.274 C49.082,7.274 48.494,8.24 48.438,9.052 L52.246,9.052 Z M58.756,13.168 C57.902,13.168 57.146,12.776 56.586,12.062 L56.586,15.576 L55.116,15.576 L55.116,6.238 L56.586,6.238 L56.586,7.162 C57.09,6.49 57.874,6.07 58.756,6.07 C60.506,6.07 61.752,7.386 61.752,9.612 C61.752,11.838 60.506,13.168 58.756,13.168 Z M58.322,11.866 C59.484,11.866 60.24,10.928 60.24,9.612 C60.24,8.296 59.484,7.372 58.322,7.372 C57.636,7.372 56.922,7.764 56.586,8.268 L56.586,10.942 C56.908,11.446 57.636,11.866 58.322,11.866 Z M65.266,13.168 C64.118,13.168 63.53,12.552 63.53,11.418 L63.53,7.512 L62.41,7.512 L62.41,6.238 L63.53,6.238 L63.53,4.39 L65,4.39 L65,6.238 L66.372,6.238 L66.372,7.512 L65,7.512 L65,11.054 C65,11.516 65.224,11.866 65.644,11.866 C65.924,11.866 66.176,11.74 66.288,11.614 L66.638,12.734 C66.372,12.972 65.938,13.168 65.266,13.168 Z M70.824,13.168 C68.78,13.168 67.282,11.754 67.282,9.612 C67.282,7.652 68.71,6.07 70.712,6.07 C72.742,6.07 74.03,7.61 74.03,9.738 L74.03,10.102 L68.822,10.102 C68.934,11.11 69.69,11.964 70.964,11.964 C71.636,11.964 72.406,11.698 72.896,11.208 L73.568,12.174 C72.882,12.818 71.888,13.168 70.824,13.168 Z M72.616,9.052 C72.574,8.254 72.028,7.274 70.698,7.274 C69.452,7.274 68.864,8.24 68.808,9.052 L72.616,9.052 Z M81.716,13 L80.246,13 L80.246,12.076 C79.728,12.748 78.958,13.168 78.076,13.168 C76.354,13.168 75.08,11.852 75.08,9.612 C75.08,7.428 76.34,6.07 78.076,6.07 C78.93,6.07 79.714,6.448 80.246,7.176 L80.246,3.662 L81.716,3.662 L81.716,13 Z M78.51,11.866 C79.196,11.866 79.924,11.46 80.246,10.956 L80.246,8.282 C79.924,7.778 79.196,7.372 78.51,7.372 C77.334,7.372 76.592,8.31 76.592,9.612 C76.592,10.928 77.334,11.866 78.51,11.866 Z M87.974,5.412 C87.47,5.412 87.064,5.006 87.064,4.502 C87.064,3.998 87.47,3.592 87.974,3.592 C88.478,3.592 88.884,3.998 88.884,4.502 C88.884,5.006 88.478,5.412 87.974,5.412 Z M88.702,13 L87.232,13 L87.232,6.238 L88.702,6.238 L88.702,13 Z M96.654,13 L95.184,13 L95.184,8.772 C95.184,7.708 94.638,7.372 93.812,7.372 C93.07,7.372 92.426,7.82 92.076,8.268 L92.076,13 L90.606,13 L90.606,6.238 L92.076,6.238 L92.076,7.148 C92.524,6.616 93.406,6.07 94.47,6.07 C95.926,6.07 96.654,6.854 96.654,8.24 L96.654,13 Z M101.918,13 L100.336,13 L97.578,6.238 L99.16,6.238 L101.134,11.306 L103.108,6.238 L104.676,6.238 L101.918,13 Z M106.342,5.412 C105.838,5.412 105.432,5.006 105.432,4.502 C105.432,3.998 105.838,3.592 106.342,3.592 C106.846,3.592 107.252,3.998 107.252,4.502 C107.252,5.006 106.846,5.412 106.342,5.412 Z M107.07,13 L105.6,13 L105.6,6.238 L107.07,6.238 L107.07,13 Z M111.018,13.168 C109.87,13.168 109.282,12.552 109.282,11.418 L109.282,7.512 L108.162,7.512 L108.162,6.238 L109.282,6.238 L109.282,4.39 L110.752,4.39 L110.752,6.238 L112.124,6.238 L112.124,7.512 L110.752,7.512 L110.752,11.054 C110.752,11.516 110.976,11.866 111.396,11.866 C111.676,11.866 111.928,11.74 112.04,11.614 L112.39,12.734 C112.124,12.972 111.69,13.168 111.018,13.168 Z M116.576,13.168 C114.532,13.168 113.034,11.754 113.034,9.612 C113.034,7.652 114.462,6.07 116.464,6.07 C118.494,6.07 119.782,7.61 119.782,9.738 L119.782,10.102 L114.574,10.102 C114.686,11.11 115.442,11.964 116.716,11.964 C117.388,11.964 118.158,11.698 118.648,11.208 L119.32,12.174 C118.634,12.818 117.64,13.168 116.576,13.168 Z M118.368,9.052 C118.326,8.254 117.78,7.274 116.45,7.274 C115.204,7.274 114.616,8.24 114.56,9.052 L118.368,9.052 Z" opacity=".5"/>
      <path fill="#384254" fill-rule="nonzero" d="M164.326 13.168C161.694 13.168 160.588 10.676 160.588 8.338 160.588 5.986 161.694 3.522 164.326 3.522 166.944 3.522 168.05 5.986 168.05 8.338 168.05 10.676 166.944 13.168 164.326 13.168zM164.326 11.712C165.838 11.712 166.384 10.116 166.384 8.338 166.384 6.546 165.852 4.978 164.326 4.978 162.8 4.978 162.254 6.546 162.254 8.338 162.254 10.116 162.8 11.712 164.326 11.712zM309.864 13.168C308.212 13.168 306.98 12.496 306.336 11.656L307.232 10.578C307.834 11.278 308.814 11.712 309.808 11.712 311.04 11.712 311.754 11.138 311.754 10.284 311.754 9.36 311.026 8.954 309.682 8.954 309.29 8.954 308.758 8.968 308.618 8.982L308.618 7.498C308.772 7.512 309.318 7.512 309.682 7.512 310.788 7.512 311.614 7.134 311.614 6.28 311.614 5.426 310.76 4.978 309.724 4.978 308.758 4.978 307.974 5.328 307.302 6.014L306.462 4.992C307.19 4.138 308.324 3.522 309.878 3.522 311.894 3.522 313.238 4.474 313.238 6.028 313.238 7.288 312.174 8.016 311.222 8.17 312.118 8.268 313.392 8.996 313.392 10.438 313.392 12.034 312.034 13.168 309.864 13.168zM324.83 13L323.36 13 323.36 12.076C322.842 12.748 322.072 13.168 321.19 13.168 319.468 13.168 318.194 11.852 318.194 9.612 318.194 7.428 319.454 6.07 321.19 6.07 322.044 6.07 322.828 6.448 323.36 7.176L323.36 3.662 324.83 3.662 324.83 13zM321.624 11.866C322.31 11.866 323.038 11.46 323.36 10.956L323.36 8.282C323.038 7.778 322.31 7.372 321.624 7.372 320.448 7.372 319.706 8.31 319.706 9.612 319.706 10.928 320.448 11.866 321.624 11.866zM332.348 13L330.878 13 330.878 12.258C330.374 12.846 329.576 13.168 328.68 13.168 327.588 13.168 326.342 12.412 326.342 10.928 326.342 9.36 327.574 8.716 328.68 8.716 329.604 8.716 330.374 9.01 330.878 9.584L330.878 8.576C330.878 7.792 330.22 7.316 329.296 7.316 328.54 7.316 327.868 7.596 327.294 8.184L326.678 7.162C327.462 6.406 328.442 6.07 329.52 6.07 331.032 6.07 332.348 6.7 332.348 8.506L332.348 13zM329.268 12.16C329.898 12.16 330.528 11.922 330.878 11.46L330.878 10.424C330.528 9.962 329.898 9.724 329.268 9.724 328.442 9.724 327.812 10.214 327.812 10.942 327.812 11.684 328.442 12.16 329.268 12.16zM333.972 15.646L334.182 14.33C334.336 14.4 334.574 14.442 334.742 14.442 335.218 14.442 335.526 14.302 335.722 13.854L336.058 13.084 333.272 6.238 334.854 6.238 336.828 11.306 338.802 6.238 340.37 6.238 337.108 14.218C336.646 15.366 335.848 15.73 334.798 15.744 334.588 15.744 334.168 15.702 333.972 15.646zM343.618 13.168C342.456 13.168 341.42 12.79 340.72 12.104L341.392 11.054C341.868 11.544 342.806 11.992 343.674 11.992 344.556 11.992 345.018 11.628 345.018 11.096 345.018 9.766 340.93 10.718 340.93 8.114 340.93 7.008 341.882 6.07 343.59 6.07 344.738 6.07 345.606 6.476 346.208 7.008L345.592 8.044C345.186 7.596 344.444 7.232 343.59 7.232 342.82 7.232 342.344 7.596 342.344 8.072 342.344 9.262 346.432 8.366 346.432 11.054 346.432 12.258 345.438 13.168 343.618 13.168zM357.128 13L355.658 13 355.658 12.258C355.154 12.846 354.356 13.168 353.46 13.168 352.368 13.168 351.122 12.412 351.122 10.928 351.122 9.36 352.354 8.716 353.46 8.716 354.384 8.716 355.154 9.01 355.658 9.584L355.658 8.576C355.658 7.792 355 7.316 354.076 7.316 353.32 7.316 352.648 7.596 352.074 8.184L351.458 7.162C352.242 6.406 353.222 6.07 354.3 6.07 355.812 6.07 357.128 6.7 357.128 8.506L357.128 13zM354.048 12.16C354.678 12.16 355.308 11.922 355.658 11.46L355.658 10.424C355.308 9.962 354.678 9.724 354.048 9.724 353.222 9.724 352.592 10.214 352.592 10.942 352.592 11.684 353.222 12.16 354.048 12.16zM361.79 15.744C360.642 15.744 359.788 15.492 358.948 14.736L359.634 13.672C360.194 14.302 360.894 14.54 361.79 14.54 362.756 14.54 363.792 14.092 363.792 12.65L363.792 11.88C363.274 12.566 362.504 13.014 361.622 13.014 359.9 13.014 358.626 11.768 358.626 9.542 358.626 7.344 359.872 6.07 361.622 6.07 362.476 6.07 363.246 6.448 363.792 7.176L363.792 6.238 365.262 6.238 365.262 12.65C365.262 15.086 363.442 15.744 361.79 15.744zM362.056 11.698C362.742 11.698 363.456 11.292 363.792 10.802L363.792 8.268C363.456 7.778 362.742 7.372 362.056 7.372 360.88 7.372 360.138 8.24 360.138 9.542 360.138 10.844 360.88 11.698 362.056 11.698zM370.232 13.168C368.076 13.168 366.76 11.544 366.76 9.612 366.76 7.666 368.076 6.07 370.232 6.07 372.388 6.07 373.704 7.666 373.704 9.612 373.704 11.544 372.388 13.168 370.232 13.168zM370.232 11.866C371.492 11.866 372.178 10.816 372.178 9.612 372.178 8.422 371.492 7.372 370.232 7.372 368.986 7.372 368.286 8.422 368.286 9.612 368.286 10.816 368.986 11.866 370.232 11.866z"/>
      <circle cx="288" cy="11" r="4" fill="#6FD350"/>
      <path fill="#01B2D0" fill-rule="nonzero" d="M12.8331659,8.01477569 C13.2077336,7.60083171 12.9105975,6.94370779 12.348854,6.94370779 L8.16444183,6.94370776 L10.1092948,0.839273991 C10.3193495,0.179517246 9.47153582,-0.29763087 9.0051023,0.217836309 L0.166834064,9.98522431 C-0.207733621,10.3991683 0.0894025115,11.0562922 0.651146022,11.0562922 L4.83279727,11.0562927 L2.89070519,17.160726 C2.68065048,17.8204828 3.52846418,18.2976309 3.9948977,17.7821637 L12.8331659,8.01477569 Z"/>
    </g>
    <g transform="translate(146 205)">
      <use fill="#000" filter="url(#event-manager-c)" xlink:href="#event-manager-d"/>
      <use fill="#FFF" stroke="#8D8D8D" stroke-opacity=".24" xlink:href="#event-manager-d"/>
      <g transform="translate(24 101)">
        <rect width="330" height="1" y="41" fill="#E1E1E1"/>
        <g transform="translate(0 3)">
          <path fill="#FFF" stroke="#E1E1E1" d="M1.494,36.244 L302.606,36.244 L302.606,4.508 C302.606,2.57500338 301.038997,1.008 299.106,1.008 L4.994,1.008 C3.06100338,1.008 1.494,2.57500338 1.494,4.508 L1.494,36.244 Z"/>
          <path fill="#384254" fill-rule="nonzero" d="M20.232 22L18.328 22 16.27 18.514 14.632 18.514 14.632 22 12.994 22 12.994 12.662 17.096 12.662C18.944 12.662 20.162 13.852 20.162 15.588 20.162 17.24 19.07 18.15 17.936 18.332L20.232 22zM16.886 17.072C17.81 17.072 18.482 16.484 18.482 15.574 18.482 14.678 17.81 14.104 16.886 14.104L14.632 14.104 14.632 17.072 16.886 17.072zM24.474 22.168C22.43 22.168 20.932 20.754 20.932 18.612 20.932 16.652 22.36 15.07 24.362 15.07 26.392 15.07 27.68 16.61 27.68 18.738L27.68 19.102 22.472 19.102C22.584 20.11 23.34 20.964 24.614 20.964 25.286 20.964 26.056 20.698 26.546 20.208L27.218 21.174C26.532 21.818 25.538 22.168 24.474 22.168zM26.266 18.052C26.224 17.254 25.678 16.274 24.348 16.274 23.102 16.274 22.514 17.24 22.458 18.052L26.266 18.052zM32.216 22.168C30.172 22.168 28.73 20.656 28.73 18.612 28.73 16.568 30.172 15.07 32.216 15.07 33.546 15.07 34.33 15.63 34.806 16.274L33.84 17.156C33.462 16.624 32.944 16.372 32.286 16.372 31.068 16.372 30.242 17.296 30.242 18.612 30.242 19.928 31.068 20.866 32.286 20.866 32.944 20.866 33.462 20.586 33.84 20.054L34.806 20.964C34.33 21.594 33.546 22.168 32.216 22.168zM39.244 22.168C37.2 22.168 35.702 20.754 35.702 18.612 35.702 16.652 37.13 15.07 39.132 15.07 41.162 15.07 42.45 16.61 42.45 18.738L42.45 19.102 37.242 19.102C37.354 20.11 38.11 20.964 39.384 20.964 40.056 20.964 40.826 20.698 41.316 20.208L41.988 21.174C41.302 21.818 40.308 22.168 39.244 22.168zM41.036 18.052C40.994 17.254 40.448 16.274 39.118 16.274 37.872 16.274 37.284 17.24 37.228 18.052L41.036 18.052zM49.954 22L48.484 22 48.484 17.772C48.484 16.708 47.938 16.372 47.112 16.372 46.37 16.372 45.726 16.82 45.376 17.268L45.376 22 43.906 22 43.906 15.238 45.376 15.238 45.376 16.148C45.824 15.616 46.706 15.07 47.77 15.07 49.226 15.07 49.954 15.854 49.954 17.24L49.954 22zM53.902 22.168C52.754 22.168 52.166 21.552 52.166 20.418L52.166 16.512 51.046 16.512 51.046 15.238 52.166 15.238 52.166 13.39 53.636 13.39 53.636 15.238 55.008 15.238 55.008 16.512 53.636 16.512 53.636 20.054C53.636 20.516 53.86 20.866 54.28 20.866 54.56 20.866 54.812 20.74 54.924 20.614L55.274 21.734C55.008 21.972 54.574 22.168 53.902 22.168zM79.632 22L77.994 22 77.994 12.662 82.11 12.662C84.07 12.662 85.148 13.992 85.148 15.588 85.148 17.17 84.056 18.5 82.11 18.5L79.632 18.5 79.632 22zM81.886 17.058C82.81 17.058 83.468 16.47 83.468 15.588 83.468 14.692 82.81 14.104 81.886 14.104L79.632 14.104 79.632 17.058 81.886 17.058zM87.948 22L86.478 22 86.478 15.238 87.948 15.238 87.948 16.218C88.466 15.574 89.278 15.07 90.146 15.07L90.146 16.526C90.02 16.498 89.88 16.484 89.698 16.484 89.068 16.484 88.242 16.904 87.948 17.394L87.948 22zM94.402 22.168C92.246 22.168 90.93 20.544 90.93 18.612 90.93 16.666 92.246 15.07 94.402 15.07 96.558 15.07 97.874 16.666 97.874 18.612 97.874 20.544 96.558 22.168 94.402 22.168zM94.402 20.866C95.662 20.866 96.348 19.816 96.348 18.612 96.348 17.422 95.662 16.372 94.402 16.372 93.156 16.372 92.456 17.422 92.456 18.612 92.456 19.816 93.156 20.866 94.402 20.866zM103.012 22.168C102.158 22.168 101.402 21.776 100.842 21.062L100.842 24.576 99.372 24.576 99.372 15.238 100.842 15.238 100.842 16.162C101.346 15.49 102.13 15.07 103.012 15.07 104.762 15.07 106.008 16.386 106.008 18.612 106.008 20.838 104.762 22.168 103.012 22.168zM102.578 20.866C103.74 20.866 104.496 19.928 104.496 18.612 104.496 17.296 103.74 16.372 102.578 16.372 101.892 16.372 101.178 16.764 100.842 17.268L100.842 19.942C101.164 20.446 101.892 20.866 102.578 20.866zM110.614 22.168C108.57 22.168 107.072 20.754 107.072 18.612 107.072 16.652 108.5 15.07 110.502 15.07 112.532 15.07 113.82 16.61 113.82 18.738L113.82 19.102 108.612 19.102C108.724 20.11 109.48 20.964 110.754 20.964 111.426 20.964 112.196 20.698 112.686 20.208L113.358 21.174C112.672 21.818 111.678 22.168 110.614 22.168zM112.406 18.052C112.364 17.254 111.818 16.274 110.488 16.274 109.242 16.274 108.654 17.24 108.598 18.052L112.406 18.052zM116.746 22L115.276 22 115.276 15.238 116.746 15.238 116.746 16.218C117.264 15.574 118.076 15.07 118.944 15.07L118.944 16.526C118.818 16.498 118.678 16.484 118.496 16.484 117.866 16.484 117.04 16.904 116.746 17.394L116.746 22zM122.178 22.168C121.03 22.168 120.442 21.552 120.442 20.418L120.442 16.512 119.322 16.512 119.322 15.238 120.442 15.238 120.442 13.39 121.912 13.39 121.912 15.238 123.284 15.238 123.284 16.512 121.912 16.512 121.912 20.054C121.912 20.516 122.136 20.866 122.556 20.866 122.836 20.866 123.088 20.74 123.2 20.614L123.55 21.734C123.284 21.972 122.85 22.168 122.178 22.168zM125.342 14.412C124.838 14.412 124.432 14.006 124.432 13.502 124.432 12.998 124.838 12.592 125.342 12.592 125.846 12.592 126.252 12.998 126.252 13.502 126.252 14.006 125.846 14.412 125.342 14.412zM126.07 22L124.6 22 124.6 15.238 126.07 15.238 126.07 22zM131.11 22.168C129.066 22.168 127.568 20.754 127.568 18.612 127.568 16.652 128.996 15.07 130.998 15.07 133.028 15.07 134.316 16.61 134.316 18.738L134.316 19.102 129.108 19.102C129.22 20.11 129.976 20.964 131.25 20.964 131.922 20.964 132.692 20.698 133.182 20.208L133.854 21.174C133.168 21.818 132.174 22.168 131.11 22.168zM132.902 18.052C132.86 17.254 132.314 16.274 130.984 16.274 129.738 16.274 129.15 17.24 129.094 18.052L132.902 18.052zM138.096 22.168C136.934 22.168 135.898 21.79 135.198 21.104L135.87 20.054C136.346 20.544 137.284 20.992 138.152 20.992 139.034 20.992 139.496 20.628 139.496 20.096 139.496 18.766 135.408 19.718 135.408 17.114 135.408 16.008 136.36 15.07 138.068 15.07 139.216 15.07 140.084 15.476 140.686 16.008L140.07 17.044C139.664 16.596 138.922 16.232 138.068 16.232 137.298 16.232 136.822 16.596 136.822 17.072 136.822 18.262 140.91 17.366 140.91 20.054 140.91 21.258 139.916 22.168 138.096 22.168zM168.488 22.168C165.73 22.168 163.588 20.208 163.588 17.338 163.588 14.454 165.73 12.508 168.488 12.508 170.364 12.508 171.54 13.474 172.226 14.594L170.84 15.322C170.392 14.538 169.482 13.964 168.488 13.964 166.64 13.964 165.268 15.364 165.268 17.338 165.268 19.284 166.64 20.712 168.488 20.712 169.482 20.712 170.392 20.124 170.84 19.354L172.24 20.054C171.526 21.174 170.364 22.168 168.488 22.168zM179.114 22L177.644 22 177.644 21.258C177.14 21.846 176.342 22.168 175.446 22.168 174.354 22.168 173.108 21.412 173.108 19.928 173.108 18.36 174.34 17.716 175.446 17.716 176.37 17.716 177.14 18.01 177.644 18.584L177.644 17.576C177.644 16.792 176.986 16.316 176.062 16.316 175.306 16.316 174.634 16.596 174.06 17.184L173.444 16.162C174.228 15.406 175.208 15.07 176.286 15.07 177.798 15.07 179.114 15.7 179.114 17.506L179.114 22zM176.034 21.16C176.664 21.16 177.294 20.922 177.644 20.46L177.644 19.424C177.294 18.962 176.664 18.724 176.034 18.724 175.208 18.724 174.578 19.214 174.578 19.942 174.578 20.684 175.208 21.16 176.034 21.16zM190.79 22L189.32 22 189.32 17.59C189.32 16.862 188.998 16.372 188.2 16.372 187.542 16.372 186.926 16.82 186.632 17.268L186.632 22 185.162 22 185.162 17.59C185.162 16.862 184.854 16.372 184.056 16.372 183.398 16.372 182.796 16.834 182.488 17.268L182.488 22 181.018 22 181.018 15.238 182.488 15.238 182.488 16.148C182.782 15.742 183.664 15.07 184.7 15.07 185.708 15.07 186.324 15.574 186.548 16.302 186.926 15.7 187.822 15.07 188.844 15.07 190.076 15.07 190.79 15.742 190.79 17.114L190.79 22zM196.334 22.168C195.48 22.168 194.724 21.776 194.164 21.062L194.164 24.576 192.694 24.576 192.694 15.238 194.164 15.238 194.164 16.162C194.668 15.49 195.452 15.07 196.334 15.07 198.084 15.07 199.33 16.386 199.33 18.612 199.33 20.838 198.084 22.168 196.334 22.168zM195.9 20.866C197.062 20.866 197.818 19.928 197.818 18.612 197.818 17.296 197.062 16.372 195.9 16.372 195.214 16.372 194.5 16.764 194.164 17.268L194.164 19.942C194.486 20.446 195.214 20.866 195.9 20.866zM206.414 22L204.944 22 204.944 21.258C204.44 21.846 203.642 22.168 202.746 22.168 201.654 22.168 200.408 21.412 200.408 19.928 200.408 18.36 201.64 17.716 202.746 17.716 203.67 17.716 204.44 18.01 204.944 18.584L204.944 17.576C204.944 16.792 204.286 16.316 203.362 16.316 202.606 16.316 201.934 16.596 201.36 17.184L200.744 16.162C201.528 15.406 202.508 15.07 203.586 15.07 205.098 15.07 206.414 15.7 206.414 17.506L206.414 22zM203.334 21.16C203.964 21.16 204.594 20.922 204.944 20.46L204.944 19.424C204.594 18.962 203.964 18.724 203.334 18.724 202.508 18.724 201.878 19.214 201.878 19.942 201.878 20.684 202.508 21.16 203.334 21.16zM209.06 14.412C208.556 14.412 208.15 14.006 208.15 13.502 208.15 12.998 208.556 12.592 209.06 12.592 209.564 12.592 209.97 12.998 209.97 13.502 209.97 14.006 209.564 14.412 209.06 14.412zM209.788 22L208.318 22 208.318 15.238 209.788 15.238 209.788 22zM214.45 24.744C213.302 24.744 212.448 24.492 211.608 23.736L212.294 22.672C212.854 23.302 213.554 23.54 214.45 23.54 215.416 23.54 216.452 23.092 216.452 21.65L216.452 20.88C215.934 21.566 215.164 22.014 214.282 22.014 212.56 22.014 211.286 20.768 211.286 18.542 211.286 16.344 212.532 15.07 214.282 15.07 215.136 15.07 215.906 15.448 216.452 16.176L216.452 15.238 217.922 15.238 217.922 21.65C217.922 24.086 216.102 24.744 214.45 24.744zM214.716 20.698C215.402 20.698 216.116 20.292 216.452 19.802L216.452 17.268C216.116 16.778 215.402 16.372 214.716 16.372 213.54 16.372 212.798 17.24 212.798 18.542 212.798 19.844 213.54 20.698 214.716 20.698zM225.874 22L224.404 22 224.404 17.772C224.404 16.708 223.858 16.372 223.032 16.372 222.29 16.372 221.646 16.82 221.296 17.268L221.296 22 219.826 22 219.826 15.238 221.296 15.238 221.296 16.148C221.744 15.616 222.626 15.07 223.69 15.07 225.146 15.07 225.874 15.854 225.874 17.24L225.874 22zM230.102 22.168C228.94 22.168 227.904 21.79 227.204 21.104L227.876 20.054C228.352 20.544 229.29 20.992 230.158 20.992 231.04 20.992 231.502 20.628 231.502 20.096 231.502 18.766 227.414 19.718 227.414 17.114 227.414 16.008 228.366 15.07 230.074 15.07 231.222 15.07 232.09 15.476 232.692 16.008L232.076 17.044C231.67 16.596 230.928 16.232 230.074 16.232 229.304 16.232 228.828 16.596 228.828 17.072 228.828 18.262 232.916 17.366 232.916 20.054 232.916 21.258 231.922 22.168 230.102 22.168zM259.2 22.168C257.478 22.168 256.232 21.552 255.392 20.684L256.316 19.41C256.946 20.096 257.968 20.712 259.27 20.712 260.614 20.712 261.132 20.054 261.132 19.424 261.132 17.464 255.7 18.682 255.7 15.252 255.7 13.698 257.044 12.508 259.102 12.508 260.544 12.508 261.734 12.984 262.588 13.824L261.664 15.042C260.922 14.3 259.928 13.964 258.948 13.964 257.996 13.964 257.38 14.44 257.38 15.126 257.38 16.876 262.812 15.798 262.812 19.27 262.812 20.824 261.706 22.168 259.2 22.168zM267.404 22.168C265.36 22.168 263.862 20.754 263.862 18.612 263.862 16.652 265.29 15.07 267.292 15.07 269.322 15.07 270.61 16.61 270.61 18.738L270.61 19.102 265.402 19.102C265.514 20.11 266.27 20.964 267.544 20.964 268.216 20.964 268.986 20.698 269.476 20.208L270.148 21.174C269.462 21.818 268.468 22.168 267.404 22.168zM269.196 18.052C269.154 17.254 268.608 16.274 267.278 16.274 266.032 16.274 265.444 17.24 265.388 18.052L269.196 18.052zM274.11 22.168C272.962 22.168 272.374 21.552 272.374 20.418L272.374 16.512 271.254 16.512 271.254 15.238 272.374 15.238 272.374 13.39 273.844 13.39 273.844 15.238 275.216 15.238 275.216 16.512 273.844 16.512 273.844 20.054C273.844 20.516 274.068 20.866 274.488 20.866 274.768 20.866 275.02 20.74 275.132 20.614L275.482 21.734C275.216 21.972 274.782 22.168 274.11 22.168zM282.566 22L281.096 22 281.096 21.104C280.62 21.636 279.78 22.168 278.716 22.168 277.26 22.168 276.532 21.398 276.532 20.026L276.532 15.238 278.002 15.238 278.002 19.48C278.002 20.53 278.534 20.866 279.374 20.866 280.116 20.866 280.76 20.432 281.096 19.984L281.096 15.238 282.566 15.238 282.566 22zM288.11 22.168C287.256 22.168 286.5 21.776 285.94 21.062L285.94 24.576 284.47 24.576 284.47 15.238 285.94 15.238 285.94 16.162C286.444 15.49 287.228 15.07 288.11 15.07 289.86 15.07 291.106 16.386 291.106 18.612 291.106 20.838 289.86 22.168 288.11 22.168zM287.676 20.866C288.838 20.866 289.594 19.928 289.594 18.612 289.594 17.296 288.838 16.372 287.676 16.372 286.99 16.372 286.276 16.764 285.94 17.268L285.94 19.942C286.262 20.446 286.99 20.866 287.676 20.866z"/>
        </g>
        <rect width="65" height="1" y="41" fill="#FFF"/>
        <rect width="1" height="42" x="64" fill="#D8D8D8"/>
        <rect width="1" height="42" x="150" fill="#D8D8D8"/>
        <rect width="1" height="42" x="242" fill="#D8D8D8"/>
      </g>
      <g fill-rule="nonzero" transform="translate(24 167)">
        <path fill="#384254" d="M4.704 11.144C2.34 11.144.504 9.464.504 7.004.504 4.532 2.34 2.864 4.704 2.864 6.312 2.864 7.32 3.692 7.908 4.652L6.72 5.276C6.336 4.604 5.556 4.112 4.704 4.112 3.12 4.112 1.944 5.312 1.944 7.004 1.944 8.672 3.12 9.896 4.704 9.896 5.556 9.896 6.336 9.392 6.72 8.732L7.92 9.332C7.308 10.292 6.312 11.144 4.704 11.144zM16.188 11L14.592 11 14.004 9.452 10.332 9.452 9.744 11 8.148 11 11.292 2.996 13.044 2.996 16.188 11zM13.608 8.216L12.168 4.4 10.728 8.216 13.608 8.216zM25.368 11L23.964 11 23.964 4.82 21.516 11 20.916 11 18.456 4.82 18.456 11 17.052 11 17.052 2.996 19.032 2.996 21.216 8.492 23.388 2.996 25.368 2.996 25.368 11zM28.476 11L27.072 11 27.072 2.996 30.6 2.996C32.28 2.996 33.204 4.136 33.204 5.504 33.204 6.86 32.268 8 30.6 8L28.476 8 28.476 11zM30.408 6.764C31.2 6.764 31.764 6.26 31.764 5.504 31.764 4.736 31.2 4.232 30.408 4.232L28.476 4.232 28.476 6.764 30.408 6.764zM40.692 11L39.096 11 38.508 9.452 34.836 9.452 34.248 11 32.652 11 35.796 2.996 37.548 2.996 40.692 11zM38.112 8.216L36.672 4.4 35.232 8.216 38.112 8.216zM42.96 11L41.556 11 41.556 2.996 42.96 2.996 42.96 11zM48.516 11.156C46.188 11.156 44.316 9.512 44.316 7.004 44.316 4.484 46.188 2.864 48.516 2.864 50.076 2.864 51.096 3.608 51.732 4.52L50.592 5.18C50.16 4.58 49.404 4.112 48.516 4.112 46.932 4.112 45.756 5.312 45.756 7.004 45.756 8.672 46.932 9.896 48.516 9.896 49.332 9.896 50.052 9.524 50.412 9.176L50.412 7.94 48.012 7.94 48.012 6.704 51.804 6.704 51.804 9.692C51.024 10.568 49.896 11.156 48.516 11.156zM60.204 11L58.848 11 54.672 5.276 54.672 11 53.268 11 53.268 2.996 54.708 2.996 58.8 8.54 58.8 2.996 60.204 2.996 60.204 11zM248.164 11L246.76 11 246.76 4.232 244.336 4.232 244.336 2.996 250.588 2.996 250.588 4.232 248.164 4.232 248.164 11zM253.18 11L251.776 11 251.776 2.996 253.18 2.996 253.18 11zM263.2 11L261.796 11 261.796 4.82 259.348 11 258.748 11 256.288 4.82 256.288 11 254.884 11 254.884 2.996 256.864 2.996 259.048 8.492 261.22 2.996 263.2 2.996 263.2 11zM266.308 11L264.904 11 264.904 2.996 266.308 2.996 266.308 11zM274.948 11L273.592 11 269.416 5.276 269.416 11 268.012 11 268.012 2.996 269.452 2.996 273.544 8.54 273.544 2.996 274.948 2.996 274.948 11zM280.504 11.156C278.176 11.156 276.304 9.512 276.304 7.004 276.304 4.484 278.176 2.864 280.504 2.864 282.064 2.864 283.084 3.608 283.72 4.52L282.58 5.18C282.148 4.58 281.392 4.112 280.504 4.112 278.92 4.112 277.744 5.312 277.744 7.004 277.744 8.672 278.92 9.896 280.504 9.896 281.32 9.896 282.04 9.524 282.4 9.176L282.4 7.94 280 7.94 280 6.704 283.792 6.704 283.792 9.692C283.012 10.568 281.884 11.156 280.504 11.156z" opacity=".5"/>
        <g transform="translate(0 30)">
          <path fill="#01B2D0" d="M4.018,13.168 C1.862,13.168 0.546,11.544 0.546,9.612 C0.546,7.666 1.862,6.07 4.018,6.07 C6.174,6.07 7.49,7.666 7.49,9.612 C7.49,11.544 6.174,13.168 4.018,13.168 Z M4.018,11.866 C5.278,11.866 5.964,10.816 5.964,9.612 C5.964,8.422 5.278,7.372 4.018,7.372 C2.772,7.372 2.072,8.422 2.072,9.612 C2.072,10.816 2.772,11.866 4.018,11.866 Z M16.436,13 L14.896,13 L13.314,8.044 L11.746,13 L10.206,13 L8.106,6.238 L9.632,6.238 L11.06,11.152 L12.67,6.238 L13.972,6.238 L15.568,11.152 L16.996,6.238 L18.536,6.238 L16.436,13 Z M22.694,13.168 C20.65,13.168 19.152,11.754 19.152,9.612 C19.152,7.652 20.58,6.07 22.582,6.07 C24.612,6.07 25.9,7.61 25.9,9.738 L25.9,10.102 L20.692,10.102 C20.804,11.11 21.56,11.964 22.834,11.964 C23.506,11.964 24.276,11.698 24.766,11.208 L25.438,12.174 C24.752,12.818 23.758,13.168 22.694,13.168 Z M24.486,9.052 C24.444,8.254 23.898,7.274 22.568,7.274 C21.322,7.274 20.734,8.24 20.678,9.052 L24.486,9.052 Z M28.826,13 L27.356,13 L27.356,3.662 L28.826,3.662 L28.826,13 Z M33.054,13.168 C31.892,13.168 30.856,12.79 30.156,12.104 L30.828,11.054 C31.304,11.544 32.242,11.992 33.11,11.992 C33.992,11.992 34.454,11.628 34.454,11.096 C34.454,9.766 30.366,10.718 30.366,8.114 C30.366,7.008 31.318,6.07 33.026,6.07 C34.174,6.07 35.042,6.476 35.644,7.008 L35.028,8.044 C34.622,7.596 33.88,7.232 33.026,7.232 C32.256,7.232 31.78,7.596 31.78,8.072 C31.78,9.262 35.868,8.366 35.868,11.054 C35.868,12.258 34.874,13.168 33.054,13.168 Z M41.314,13.98 C38.766,13.98 36.876,12.062 36.876,9.584 C36.876,6.574 39.522,4.068 42.434,4.068 C45.108,4.068 46.844,6.028 46.844,8.422 C46.844,10.69 45.43,11.81 44.226,11.81 C43.414,11.81 42.98,11.292 42.91,10.732 L42.896,10.634 C42.406,11.334 41.608,11.81 40.796,11.81 C39.452,11.81 38.626,10.844 38.626,9.486 C38.626,7.582 40.208,6.014 41.846,6.014 C42.728,6.014 43.33,6.462 43.624,7.022 L43.778,6.224 L45.094,6.224 L44.338,9.808 C44.324,9.878 44.31,10.046 44.31,10.116 C44.31,10.564 44.562,10.788 44.884,10.788 C45.43,10.788 46.298,10.158 46.298,8.408 C46.298,6.168 44.758,4.586 42.392,4.586 C39.704,4.586 37.408,6.938 37.408,9.556 C37.408,11.768 39.074,13.476 41.384,13.476 C42.35,13.476 43.19,13.182 43.946,12.692 L44.226,13.098 C43.358,13.658 42.35,13.98 41.314,13.98 Z M41.272,10.746 C42.098,10.746 42.7,10.186 43.05,9.682 L43.414,7.918 C43.274,7.554 42.868,7.078 42.154,7.078 C40.908,7.078 39.998,8.212 39.998,9.388 C39.998,10.186 40.474,10.746 41.272,10.746 Z M49.77,10.97 C50.106,11.474 50.82,11.866 51.52,11.866 C52.682,11.866 53.424,10.928 53.424,9.612 C53.424,8.31 52.682,7.372 51.52,7.372 C50.82,7.372 50.106,7.778 49.77,8.282 L49.77,10.97 Z M49.77,13 L48.3,13 L48.3,3.662 L49.77,3.662 L49.77,7.176 C50.316,6.448 51.1,6.07 51.94,6.07 C53.69,6.07 54.95,7.428 54.95,9.612 C54.95,11.852 53.676,13.168 51.94,13.168 C51.072,13.168 50.288,12.748 49.77,12.076 L49.77,13 Z M57.176,5.412 C56.672,5.412 56.266,5.006 56.266,4.502 C56.266,3.998 56.672,3.592 57.176,3.592 C57.68,3.592 58.086,3.998 58.086,4.502 C58.086,5.006 57.68,5.412 57.176,5.412 Z M57.904,13 L56.434,13 L56.434,6.238 L57.904,6.238 L57.904,13 Z M62.566,15.744 C61.418,15.744 60.564,15.492 59.724,14.736 L60.41,13.672 C60.97,14.302 61.67,14.54 62.566,14.54 C63.532,14.54 64.568,14.092 64.568,12.65 L64.568,11.88 C64.05,12.566 63.28,13.014 62.398,13.014 C60.676,13.014 59.402,11.768 59.402,9.542 C59.402,7.344 60.648,6.07 62.398,6.07 C63.252,6.07 64.022,6.448 64.568,7.176 L64.568,6.238 L66.038,6.238 L66.038,12.65 C66.038,15.086 64.218,15.744 62.566,15.744 Z M62.832,11.698 C63.518,11.698 64.232,11.292 64.568,10.802 L64.568,8.268 C64.232,7.778 63.518,7.372 62.832,7.372 C61.656,7.372 60.914,8.24 60.914,9.542 C60.914,10.844 61.656,11.698 62.832,11.698 Z M69.412,10.97 C69.748,11.474 70.462,11.866 71.162,11.866 C72.324,11.866 73.066,10.928 73.066,9.612 C73.066,8.31 72.324,7.372 71.162,7.372 C70.462,7.372 69.748,7.778 69.412,8.282 L69.412,10.97 Z M69.412,13 L67.942,13 L67.942,3.662 L69.412,3.662 L69.412,7.176 C69.958,6.448 70.742,6.07 71.582,6.07 C73.332,6.07 74.592,7.428 74.592,9.612 C74.592,11.852 73.318,13.168 71.582,13.168 C70.714,13.168 69.93,12.748 69.412,12.076 L69.412,13 Z M77.546,13 L76.076,13 L76.076,6.238 L77.546,6.238 L77.546,7.218 C78.064,6.574 78.876,6.07 79.744,6.07 L79.744,7.526 C79.618,7.498 79.478,7.484 79.296,7.484 C78.666,7.484 77.84,7.904 77.546,8.394 L77.546,13 Z M84,13.168 C81.844,13.168 80.528,11.544 80.528,9.612 C80.528,7.666 81.844,6.07 84,6.07 C86.156,6.07 87.472,7.666 87.472,9.612 C87.472,11.544 86.156,13.168 84,13.168 Z M84,11.866 C85.26,11.866 85.946,10.816 85.946,9.612 C85.946,8.422 85.26,7.372 84,7.372 C82.754,7.372 82.054,8.422 82.054,9.612 C82.054,10.816 82.754,11.866 84,11.866 Z M98.742,13 L97.272,13 L97.272,8.59 C97.272,7.862 96.95,7.372 96.152,7.372 C95.494,7.372 94.878,7.82 94.584,8.268 L94.584,13 L93.114,13 L93.114,8.59 C93.114,7.862 92.806,7.372 92.008,7.372 C91.35,7.372 90.748,7.834 90.44,8.268 L90.44,13 L88.97,13 L88.97,6.238 L90.44,6.238 L90.44,7.148 C90.734,6.742 91.616,6.07 92.652,6.07 C93.66,6.07 94.276,6.574 94.5,7.302 C94.878,6.7 95.774,6.07 96.796,6.07 C98.028,6.07 98.742,6.742 98.742,8.114 L98.742,13 Z M106.26,13 L104.79,13 L104.79,12.258 C104.286,12.846 103.488,13.168 102.592,13.168 C101.5,13.168 100.254,12.412 100.254,10.928 C100.254,9.36 101.486,8.716 102.592,8.716 C103.516,8.716 104.286,9.01 104.79,9.584 L104.79,8.576 C104.79,7.792 104.132,7.316 103.208,7.316 C102.452,7.316 101.78,7.596 101.206,8.184 L100.59,7.162 C101.374,6.406 102.354,6.07 103.432,6.07 C104.944,6.07 106.26,6.7 106.26,8.506 L106.26,13 Z M103.18,12.16 C103.81,12.16 104.44,11.922 104.79,11.46 L104.79,10.424 C104.44,9.962 103.81,9.724 103.18,9.724 C102.354,9.724 101.724,10.214 101.724,10.942 C101.724,11.684 102.354,12.16 103.18,12.16 Z M108.906,5.412 C108.402,5.412 107.996,5.006 107.996,4.502 C107.996,3.998 108.402,3.592 108.906,3.592 C109.41,3.592 109.816,3.998 109.816,4.502 C109.816,5.006 109.41,5.412 108.906,5.412 Z M109.634,13 L108.164,13 L108.164,6.238 L109.634,6.238 L109.634,13 Z M113.008,13 L111.538,13 L111.538,3.662 L113.008,3.662 L113.008,13 Z M115.682,13.154 C115.15,13.154 114.702,12.692 114.702,12.16 C114.702,11.642 115.15,11.194 115.682,11.194 C116.214,11.194 116.662,11.642 116.662,12.16 C116.662,12.692 116.214,13.154 115.682,13.154 Z M121.366,13.168 C119.322,13.168 117.88,11.656 117.88,9.612 C117.88,7.568 119.322,6.07 121.366,6.07 C122.696,6.07 123.48,6.63 123.956,7.274 L122.99,8.156 C122.612,7.624 122.094,7.372 121.436,7.372 C120.218,7.372 119.392,8.296 119.392,9.612 C119.392,10.928 120.218,11.866 121.436,11.866 C122.094,11.866 122.612,11.586 122.99,11.054 L123.956,11.964 C123.48,12.594 122.696,13.168 121.366,13.168 Z M128.324,13.168 C126.168,13.168 124.852,11.544 124.852,9.612 C124.852,7.666 126.168,6.07 128.324,6.07 C130.48,6.07 131.796,7.666 131.796,9.612 C131.796,11.544 130.48,13.168 128.324,13.168 Z M128.324,11.866 C129.584,11.866 130.27,10.816 130.27,9.612 C130.27,8.422 129.584,7.372 128.324,7.372 C127.078,7.372 126.378,8.422 126.378,9.612 C126.378,10.816 127.078,11.866 128.324,11.866 Z M143.066,13 L141.596,13 L141.596,8.59 C141.596,7.862 141.274,7.372 140.476,7.372 C139.818,7.372 139.202,7.82 138.908,8.268 L138.908,13 L137.438,13 L137.438,8.59 C137.438,7.862 137.13,7.372 136.332,7.372 C135.674,7.372 135.072,7.834 134.764,8.268 L134.764,13 L133.294,13 L133.294,6.238 L134.764,6.238 L134.764,7.148 C135.058,6.742 135.94,6.07 136.976,6.07 C137.984,6.07 138.6,6.574 138.824,7.302 C139.202,6.7 140.098,6.07 141.12,6.07 C142.352,6.07 143.066,6.742 143.066,8.114 L143.066,13 Z"/>
          <path fill="#384254" d="M250.566,15 L249.096,15 L249.096,14.258 C248.592,14.846 247.794,15.168 246.898,15.168 C245.806,15.168 244.56,14.412 244.56,12.928 C244.56,11.36 245.792,10.716 246.898,10.716 C247.822,10.716 248.592,11.01 249.096,11.584 L249.096,10.576 C249.096,9.792 248.438,9.316 247.514,9.316 C246.758,9.316 246.086,9.596 245.512,10.184 L244.896,9.162 C245.68,8.406 246.66,8.07 247.738,8.07 C249.25,8.07 250.566,8.7 250.566,10.506 L250.566,15 Z M247.486,14.16 C248.116,14.16 248.746,13.922 249.096,13.46 L249.096,12.424 C248.746,11.962 248.116,11.724 247.486,11.724 C246.66,11.724 246.03,12.214 246.03,12.942 C246.03,13.684 246.66,14.16 247.486,14.16 Z M262.312,15 L260.842,15 L260.842,14.076 C260.324,14.748 259.554,15.168 258.672,15.168 C256.95,15.168 255.676,13.852 255.676,11.612 C255.676,9.428 256.936,8.07 258.672,8.07 C259.526,8.07 260.31,8.448 260.842,9.176 L260.842,5.662 L262.312,5.662 L262.312,15 Z M259.106,13.866 C259.792,13.866 260.52,13.46 260.842,12.956 L260.842,10.282 C260.52,9.778 259.792,9.372 259.106,9.372 C257.93,9.372 257.188,10.31 257.188,11.612 C257.188,12.928 257.93,13.866 259.106,13.866 Z M269.83,15 L268.36,15 L268.36,14.258 C267.856,14.846 267.058,15.168 266.162,15.168 C265.07,15.168 263.824,14.412 263.824,12.928 C263.824,11.36 265.056,10.716 266.162,10.716 C267.086,10.716 267.856,11.01 268.36,11.584 L268.36,10.576 C268.36,9.792 267.702,9.316 266.778,9.316 C266.022,9.316 265.35,9.596 264.776,10.184 L264.16,9.162 C264.944,8.406 265.924,8.07 267.002,8.07 C268.514,8.07 269.83,8.7 269.83,10.506 L269.83,15 Z M266.75,14.16 C267.38,14.16 268.01,13.922 268.36,13.46 L268.36,12.424 C268.01,11.962 267.38,11.724 266.75,11.724 C265.924,11.724 265.294,12.214 265.294,12.942 C265.294,13.684 265.924,14.16 266.75,14.16 Z M271.454,17.646 L271.664,16.33 C271.818,16.4 272.056,16.442 272.224,16.442 C272.7,16.442 273.008,16.302 273.204,15.854 L273.54,15.084 L270.754,8.238 L272.336,8.238 L274.31,13.306 L276.284,8.238 L277.852,8.238 L274.59,16.218 C274.128,17.366 273.33,17.73 272.28,17.744 C272.07,17.744 271.65,17.702 271.454,17.646 Z M288.002,15 L286.532,15 L286.532,14.258 C286.028,14.846 285.23,15.168 284.334,15.168 C283.242,15.168 281.996,14.412 281.996,12.928 C281.996,11.36 283.228,10.716 284.334,10.716 C285.258,10.716 286.028,11.01 286.532,11.584 L286.532,10.576 C286.532,9.792 285.874,9.316 284.95,9.316 C284.194,9.316 283.522,9.596 282.948,10.184 L282.332,9.162 C283.116,8.406 284.096,8.07 285.174,8.07 C286.686,8.07 288.002,8.7 288.002,10.506 L288.002,15 Z M284.922,14.16 C285.552,14.16 286.182,13.922 286.532,13.46 L286.532,12.424 C286.182,11.962 285.552,11.724 284.922,11.724 C284.096,11.724 283.466,12.214 283.466,12.942 C283.466,13.684 284.096,14.16 284.922,14.16 Z M292.664,17.744 C291.516,17.744 290.662,17.492 289.822,16.736 L290.508,15.672 C291.068,16.302 291.768,16.54 292.664,16.54 C293.63,16.54 294.666,16.092 294.666,14.65 L294.666,13.88 C294.148,14.566 293.378,15.014 292.496,15.014 C290.774,15.014 289.5,13.768 289.5,11.542 C289.5,9.344 290.746,8.07 292.496,8.07 C293.35,8.07 294.12,8.448 294.666,9.176 L294.666,8.238 L296.136,8.238 L296.136,14.65 C296.136,17.086 294.316,17.744 292.664,17.744 Z M292.93,13.698 C293.616,13.698 294.33,13.292 294.666,12.802 L294.666,10.268 C294.33,9.778 293.616,9.372 292.93,9.372 C291.754,9.372 291.012,10.24 291.012,11.542 C291.012,12.844 291.754,13.698 292.93,13.698 Z M301.106,15.168 C298.95,15.168 297.634,13.544 297.634,11.612 C297.634,9.666 298.95,8.07 301.106,8.07 C303.262,8.07 304.578,9.666 304.578,11.612 C304.578,13.544 303.262,15.168 301.106,15.168 Z M301.106,13.866 C302.366,13.866 303.052,12.816 303.052,11.612 C303.052,10.422 302.366,9.372 301.106,9.372 C299.86,9.372 299.16,10.422 299.16,11.612 C299.16,12.816 299.86,13.866 301.106,13.866 Z"/>
        </g>
        <g transform="translate(0 66)">
          <path fill="#01B2D0" d="M4.088,13.168 C2.044,13.168 0.546,11.754 0.546,9.612 C0.546,7.652 1.974,6.07 3.976,6.07 C6.006,6.07 7.294,7.61 7.294,9.738 L7.294,10.102 L2.086,10.102 C2.198,11.11 2.954,11.964 4.228,11.964 C4.9,11.964 5.67,11.698 6.16,11.208 L6.832,12.174 C6.146,12.818 5.152,13.168 4.088,13.168 Z M5.88,9.052 C5.838,8.254 5.292,7.274 3.962,7.274 C2.716,7.274 2.128,8.24 2.072,9.052 L5.88,9.052 Z M14.798,13 L13.328,13 L13.328,8.744 C13.328,7.68 12.796,7.372 11.97,7.372 C11.214,7.372 10.57,7.82 10.234,8.268 L10.234,13 L8.764,13 L8.764,3.662 L10.234,3.662 L10.234,7.148 C10.682,6.616 11.55,6.07 12.614,6.07 C14.07,6.07 14.798,6.826 14.798,8.212 L14.798,13 Z M19.838,13.168 C17.794,13.168 16.296,11.754 16.296,9.612 C16.296,7.652 17.724,6.07 19.726,6.07 C21.756,6.07 23.044,7.61 23.044,9.738 L23.044,10.102 L17.836,10.102 C17.948,11.11 18.704,11.964 19.978,11.964 C20.65,11.964 21.42,11.698 21.91,11.208 L22.582,12.174 C21.896,12.818 20.902,13.168 19.838,13.168 Z M21.63,9.052 C21.588,8.254 21.042,7.274 19.712,7.274 C18.466,7.274 17.878,8.24 17.822,9.052 L21.63,9.052 Z M34.272,13 L32.802,13 L32.802,8.59 C32.802,7.862 32.48,7.372 31.682,7.372 C31.024,7.372 30.408,7.82 30.114,8.268 L30.114,13 L28.644,13 L28.644,8.59 C28.644,7.862 28.336,7.372 27.538,7.372 C26.88,7.372 26.278,7.834 25.97,8.268 L25.97,13 L24.5,13 L24.5,6.238 L25.97,6.238 L25.97,7.148 C26.264,6.742 27.146,6.07 28.182,6.07 C29.19,6.07 29.806,6.574 30.03,7.302 C30.408,6.7 31.304,6.07 32.326,6.07 C33.558,6.07 34.272,6.742 34.272,8.114 L34.272,13 Z M36.918,5.412 C36.414,5.412 36.008,5.006 36.008,4.502 C36.008,3.998 36.414,3.592 36.918,3.592 C37.422,3.592 37.828,3.998 37.828,4.502 C37.828,5.006 37.422,5.412 36.918,5.412 Z M37.646,13 L36.176,13 L36.176,6.238 L37.646,6.238 L37.646,13 Z M45.598,13 L44.128,13 L44.128,8.772 C44.128,7.708 43.582,7.372 42.756,7.372 C42.014,7.372 41.37,7.82 41.02,8.268 L41.02,13 L39.55,13 L39.55,6.238 L41.02,6.238 L41.02,7.148 C41.468,6.616 42.35,6.07 43.414,6.07 C44.87,6.07 45.598,6.854 45.598,8.24 L45.598,13 Z M50.26,15.744 C49.112,15.744 48.258,15.492 47.418,14.736 L48.104,13.672 C48.664,14.302 49.364,14.54 50.26,14.54 C51.226,14.54 52.262,14.092 52.262,12.65 L52.262,11.88 C51.744,12.566 50.974,13.014 50.092,13.014 C48.37,13.014 47.096,11.768 47.096,9.542 C47.096,7.344 48.342,6.07 50.092,6.07 C50.946,6.07 51.716,6.448 52.262,7.176 L52.262,6.238 L53.732,6.238 L53.732,12.65 C53.732,15.086 51.912,15.744 50.26,15.744 Z M50.526,11.698 C51.212,11.698 51.926,11.292 52.262,10.802 L52.262,8.268 C51.926,7.778 51.212,7.372 50.526,7.372 C49.35,7.372 48.608,8.24 48.608,9.542 C48.608,10.844 49.35,11.698 50.526,11.698 Z M61.684,13 L60.214,13 L60.214,8.744 C60.214,7.68 59.682,7.372 58.856,7.372 C58.1,7.372 57.456,7.82 57.12,8.268 L57.12,13 L55.65,13 L55.65,3.662 L57.12,3.662 L57.12,7.148 C57.568,6.616 58.436,6.07 59.5,6.07 C60.956,6.07 61.684,6.826 61.684,8.212 L61.684,13 Z M69.202,13 L67.732,13 L67.732,12.258 C67.228,12.846 66.43,13.168 65.534,13.168 C64.442,13.168 63.196,12.412 63.196,10.928 C63.196,9.36 64.428,8.716 65.534,8.716 C66.458,8.716 67.228,9.01 67.732,9.584 L67.732,8.576 C67.732,7.792 67.074,7.316 66.15,7.316 C65.394,7.316 64.722,7.596 64.148,8.184 L63.532,7.162 C64.316,6.406 65.296,6.07 66.374,6.07 C67.886,6.07 69.202,6.7 69.202,8.506 L69.202,13 Z M66.122,12.16 C66.752,12.16 67.382,11.922 67.732,11.46 L67.732,10.424 C67.382,9.962 66.752,9.724 66.122,9.724 C65.296,9.724 64.666,10.214 64.666,10.942 C64.666,11.684 65.296,12.16 66.122,12.16 Z M80.878,13 L79.408,13 L79.408,8.59 C79.408,7.862 79.086,7.372 78.288,7.372 C77.63,7.372 77.014,7.82 76.72,8.268 L76.72,13 L75.25,13 L75.25,8.59 C75.25,7.862 74.942,7.372 74.144,7.372 C73.486,7.372 72.884,7.834 72.576,8.268 L72.576,13 L71.106,13 L71.106,6.238 L72.576,6.238 L72.576,7.148 C72.87,6.742 73.752,6.07 74.788,6.07 C75.796,6.07 76.412,6.574 76.636,7.302 C77.014,6.7 77.91,6.07 78.932,6.07 C80.164,6.07 80.878,6.742 80.878,8.114 L80.878,13 Z M86.758,13.98 C84.21,13.98 82.32,12.062 82.32,9.584 C82.32,6.574 84.966,4.068 87.878,4.068 C90.552,4.068 92.288,6.028 92.288,8.422 C92.288,10.69 90.874,11.81 89.67,11.81 C88.858,11.81 88.424,11.292 88.354,10.732 L88.34,10.634 C87.85,11.334 87.052,11.81 86.24,11.81 C84.896,11.81 84.07,10.844 84.07,9.486 C84.07,7.582 85.652,6.014 87.29,6.014 C88.172,6.014 88.774,6.462 89.068,7.022 L89.222,6.224 L90.538,6.224 L89.782,9.808 C89.768,9.878 89.754,10.046 89.754,10.116 C89.754,10.564 90.006,10.788 90.328,10.788 C90.874,10.788 91.742,10.158 91.742,8.408 C91.742,6.168 90.202,4.586 87.836,4.586 C85.148,4.586 82.852,6.938 82.852,9.556 C82.852,11.768 84.518,13.476 86.828,13.476 C87.794,13.476 88.634,13.182 89.39,12.692 L89.67,13.098 C88.802,13.658 87.794,13.98 86.758,13.98 Z M86.716,10.746 C87.542,10.746 88.144,10.186 88.494,9.682 L88.858,7.918 C88.718,7.554 88.312,7.078 87.598,7.078 C86.352,7.078 85.442,8.212 85.442,9.388 C85.442,10.186 85.918,10.746 86.716,10.746 Z M103.516,13 L102.046,13 L102.046,8.59 C102.046,7.862 101.724,7.372 100.926,7.372 C100.268,7.372 99.652,7.82 99.358,8.268 L99.358,13 L97.888,13 L97.888,8.59 C97.888,7.862 97.58,7.372 96.782,7.372 C96.124,7.372 95.522,7.834 95.214,8.268 L95.214,13 L93.744,13 L93.744,6.238 L95.214,6.238 L95.214,7.148 C95.508,6.742 96.39,6.07 97.426,6.07 C98.434,6.07 99.05,6.574 99.274,7.302 C99.652,6.7 100.548,6.07 101.57,6.07 C102.802,6.07 103.516,6.742 103.516,8.114 L103.516,13 Z M111.034,13 L109.564,13 L109.564,12.258 C109.06,12.846 108.262,13.168 107.366,13.168 C106.274,13.168 105.028,12.412 105.028,10.928 C105.028,9.36 106.26,8.716 107.366,8.716 C108.29,8.716 109.06,9.01 109.564,9.584 L109.564,8.576 C109.564,7.792 108.906,7.316 107.982,7.316 C107.226,7.316 106.554,7.596 105.98,8.184 L105.364,7.162 C106.148,6.406 107.128,6.07 108.206,6.07 C109.718,6.07 111.034,6.7 111.034,8.506 L111.034,13 Z M107.954,12.16 C108.584,12.16 109.214,11.922 109.564,11.46 L109.564,10.424 C109.214,9.962 108.584,9.724 107.954,9.724 C107.128,9.724 106.498,10.214 106.498,10.942 C106.498,11.684 107.128,12.16 107.954,12.16 Z M114.408,13 L112.938,13 L112.938,6.238 L114.408,6.238 L114.408,7.218 C114.926,6.574 115.738,6.07 116.606,6.07 L116.606,7.526 C116.48,7.498 116.34,7.484 116.158,7.484 C115.528,7.484 114.702,7.904 114.408,8.394 L114.408,13 Z M119.266,13 L117.796,13 L117.796,3.662 L119.266,3.662 L119.266,13 Z M121.912,5.412 C121.408,5.412 121.002,5.006 121.002,4.502 C121.002,3.998 121.408,3.592 121.912,3.592 C122.416,3.592 122.822,3.998 122.822,4.502 C122.822,5.006 122.416,5.412 121.912,5.412 Z M122.64,13 L121.17,13 L121.17,6.238 L122.64,6.238 L122.64,13 Z M130.592,13 L129.122,13 L129.122,8.772 C129.122,7.708 128.576,7.372 127.75,7.372 C127.008,7.372 126.364,7.82 126.014,8.268 L126.014,13 L124.544,13 L124.544,6.238 L126.014,6.238 L126.014,7.148 C126.462,6.616 127.344,6.07 128.408,6.07 C129.864,6.07 130.592,6.854 130.592,8.24 L130.592,13 Z M142.268,13 L140.798,13 L140.798,8.59 C140.798,7.862 140.476,7.372 139.678,7.372 C139.02,7.372 138.404,7.82 138.11,8.268 L138.11,13 L136.64,13 L136.64,8.59 C136.64,7.862 136.332,7.372 135.534,7.372 C134.876,7.372 134.274,7.834 133.966,8.268 L133.966,13 L132.496,13 L132.496,6.238 L133.966,6.238 L133.966,7.148 C134.26,6.742 135.142,6.07 136.178,6.07 C137.186,6.07 137.802,6.574 138.026,7.302 C138.404,6.7 139.3,6.07 140.322,6.07 C141.554,6.07 142.268,6.742 142.268,8.114 L142.268,13 Z M149.786,13 L148.316,13 L148.316,12.258 C147.812,12.846 147.014,13.168 146.118,13.168 C145.026,13.168 143.78,12.412 143.78,10.928 C143.78,9.36 145.012,8.716 146.118,8.716 C147.042,8.716 147.812,9.01 148.316,9.584 L148.316,8.576 C148.316,7.792 147.658,7.316 146.734,7.316 C145.978,7.316 145.306,7.596 144.732,8.184 L144.116,7.162 C144.9,6.406 145.88,6.07 146.958,6.07 C148.47,6.07 149.786,6.7 149.786,8.506 L149.786,13 Z M146.706,12.16 C147.336,12.16 147.966,11.922 148.316,11.46 L148.316,10.424 C147.966,9.962 147.336,9.724 146.706,9.724 C145.88,9.724 145.25,10.214 145.25,10.942 C145.25,11.684 145.88,12.16 146.706,12.16 Z M152.432,5.412 C151.928,5.412 151.522,5.006 151.522,4.502 C151.522,3.998 151.928,3.592 152.432,3.592 C152.936,3.592 153.342,3.998 153.342,4.502 C153.342,5.006 152.936,5.412 152.432,5.412 Z M153.16,13 L151.69,13 L151.69,6.238 L153.16,6.238 L153.16,13 Z M156.534,13 L155.064,13 L155.064,3.662 L156.534,3.662 L156.534,13 Z M159.208,13.154 C158.676,13.154 158.228,12.692 158.228,12.16 C158.228,11.642 158.676,11.194 159.208,11.194 C159.74,11.194 160.188,11.642 160.188,12.16 C160.188,12.692 159.74,13.154 159.208,13.154 Z M164.892,13.168 C162.848,13.168 161.406,11.656 161.406,9.612 C161.406,7.568 162.848,6.07 164.892,6.07 C166.222,6.07 167.006,6.63 167.482,7.274 L166.516,8.156 C166.138,7.624 165.62,7.372 164.962,7.372 C163.744,7.372 162.918,8.296 162.918,9.612 C162.918,10.928 163.744,11.866 164.962,11.866 C165.62,11.866 166.138,11.586 166.516,11.054 L167.482,11.964 C167.006,12.594 166.222,13.168 164.892,13.168 Z M171.85,13.168 C169.694,13.168 168.378,11.544 168.378,9.612 C168.378,7.666 169.694,6.07 171.85,6.07 C174.006,6.07 175.322,7.666 175.322,9.612 C175.322,11.544 174.006,13.168 171.85,13.168 Z M171.85,11.866 C173.11,11.866 173.796,10.816 173.796,9.612 C173.796,8.422 173.11,7.372 171.85,7.372 C170.604,7.372 169.904,8.422 169.904,9.612 C169.904,10.816 170.604,11.866 171.85,11.866 Z M186.592,13 L185.122,13 L185.122,8.59 C185.122,7.862 184.8,7.372 184.002,7.372 C183.344,7.372 182.728,7.82 182.434,8.268 L182.434,13 L180.964,13 L180.964,8.59 C180.964,7.862 180.656,7.372 179.858,7.372 C179.2,7.372 178.598,7.834 178.29,8.268 L178.29,13 L176.82,13 L176.82,6.238 L178.29,6.238 L178.29,7.148 C178.584,6.742 179.466,6.07 180.502,6.07 C181.51,6.07 182.126,6.574 182.35,7.302 C182.728,6.7 183.624,6.07 184.646,6.07 C185.878,6.07 186.592,6.742 186.592,8.114 L186.592,13 Z"/>
          <path fill="#384254" d="M248.256,13.168 C246.66,13.168 245.554,12.608 244.798,11.726 L245.736,10.592 C246.352,11.32 247.206,11.712 248.242,11.712 C249.432,11.712 250.16,10.984 250.16,10.06 C250.16,9.066 249.432,8.408 248.284,8.408 C247.5,8.408 246.842,8.646 246.24,9.206 L245.078,8.87 L245.078,3.662 L251.196,3.662 L251.196,5.104 L246.716,5.104 L246.716,7.792 C247.178,7.358 247.934,6.994 248.83,6.994 C250.412,6.994 251.826,8.086 251.826,10.004 C251.826,11.936 250.342,13.168 248.256,13.168 Z M263.194,13 L261.724,13 L261.724,12.076 C261.206,12.748 260.436,13.168 259.554,13.168 C257.832,13.168 256.558,11.852 256.558,9.612 C256.558,7.428 257.818,6.07 259.554,6.07 C260.408,6.07 261.192,6.448 261.724,7.176 L261.724,3.662 L263.194,3.662 L263.194,13 Z M259.988,11.866 C260.674,11.866 261.402,11.46 261.724,10.956 L261.724,8.282 C261.402,7.778 260.674,7.372 259.988,7.372 C258.812,7.372 258.07,8.31 258.07,9.612 C258.07,10.928 258.812,11.866 259.988,11.866 Z M270.712,13 L269.242,13 L269.242,12.258 C268.738,12.846 267.94,13.168 267.044,13.168 C265.952,13.168 264.706,12.412 264.706,10.928 C264.706,9.36 265.938,8.716 267.044,8.716 C267.968,8.716 268.738,9.01 269.242,9.584 L269.242,8.576 C269.242,7.792 268.584,7.316 267.66,7.316 C266.904,7.316 266.232,7.596 265.658,8.184 L265.042,7.162 C265.826,6.406 266.806,6.07 267.884,6.07 C269.396,6.07 270.712,6.7 270.712,8.506 L270.712,13 Z M267.632,12.16 C268.262,12.16 268.892,11.922 269.242,11.46 L269.242,10.424 C268.892,9.962 268.262,9.724 267.632,9.724 C266.806,9.724 266.176,10.214 266.176,10.942 C266.176,11.684 266.806,12.16 267.632,12.16 Z M272.336,15.646 L272.546,14.33 C272.7,14.4 272.938,14.442 273.106,14.442 C273.582,14.442 273.89,14.302 274.086,13.854 L274.422,13.084 L271.636,6.238 L273.218,6.238 L275.192,11.306 L277.166,6.238 L278.734,6.238 L275.472,14.218 C275.01,15.366 274.212,15.73 273.162,15.744 C272.952,15.744 272.532,15.702 272.336,15.646 Z M281.982,13.168 C280.82,13.168 279.784,12.79 279.084,12.104 L279.756,11.054 C280.232,11.544 281.17,11.992 282.038,11.992 C282.92,11.992 283.382,11.628 283.382,11.096 C283.382,9.766 279.294,10.718 279.294,8.114 C279.294,7.008 280.246,6.07 281.954,6.07 C283.102,6.07 283.97,6.476 284.572,7.008 L283.956,8.044 C283.55,7.596 282.808,7.232 281.954,7.232 C281.184,7.232 280.708,7.596 280.708,8.072 C280.708,9.262 284.796,8.366 284.796,11.054 C284.796,12.258 283.802,13.168 281.982,13.168 Z M295.492,13 L294.022,13 L294.022,12.258 C293.518,12.846 292.72,13.168 291.824,13.168 C290.732,13.168 289.486,12.412 289.486,10.928 C289.486,9.36 290.718,8.716 291.824,8.716 C292.748,8.716 293.518,9.01 294.022,9.584 L294.022,8.576 C294.022,7.792 293.364,7.316 292.44,7.316 C291.684,7.316 291.012,7.596 290.438,8.184 L289.822,7.162 C290.606,6.406 291.586,6.07 292.664,6.07 C294.176,6.07 295.492,6.7 295.492,8.506 L295.492,13 Z M292.412,12.16 C293.042,12.16 293.672,11.922 294.022,11.46 L294.022,10.424 C293.672,9.962 293.042,9.724 292.412,9.724 C291.586,9.724 290.956,10.214 290.956,10.942 C290.956,11.684 291.586,12.16 292.412,12.16 Z M300.154,15.744 C299.006,15.744 298.152,15.492 297.312,14.736 L297.998,13.672 C298.558,14.302 299.258,14.54 300.154,14.54 C301.12,14.54 302.156,14.092 302.156,12.65 L302.156,11.88 C301.638,12.566 300.868,13.014 299.986,13.014 C298.264,13.014 296.99,11.768 296.99,9.542 C296.99,7.344 298.236,6.07 299.986,6.07 C300.84,6.07 301.61,6.448 302.156,7.176 L302.156,6.238 L303.626,6.238 L303.626,12.65 C303.626,15.086 301.806,15.744 300.154,15.744 Z M300.42,11.698 C301.106,11.698 301.82,11.292 302.156,10.802 L302.156,8.268 C301.82,7.778 301.106,7.372 300.42,7.372 C299.244,7.372 298.502,8.24 298.502,9.542 C298.502,10.844 299.244,11.698 300.42,11.698 Z M308.596,13.168 C306.44,13.168 305.124,11.544 305.124,9.612 C305.124,7.666 306.44,6.07 308.596,6.07 C310.752,6.07 312.068,7.666 312.068,9.612 C312.068,11.544 310.752,13.168 308.596,13.168 Z M308.596,11.866 C309.856,11.866 310.542,10.816 310.542,9.612 C310.542,8.422 309.856,7.372 308.596,7.372 C307.35,7.372 306.65,8.422 306.65,9.612 C306.65,10.816 307.35,11.866 308.596,11.866 Z"/>
        </g>
      </g>
      <path fill="#384254" fill-rule="nonzero" d="M38.784 46L35.858 46 34.78 43.162 28.048 43.162 26.97 46 24.044 46 29.808 31.326 33.02 31.326 38.784 46zM34.054 40.896L31.414 33.9 28.774 40.896 34.054 40.896zM45.142 46.264C41.93 46.264 39.664 43.888 39.664 40.676 39.664 37.464 41.93 35.11 45.142 35.11 47.232 35.11 48.464 35.99 49.212 37.002L47.694 38.388C47.1 37.552 46.286 37.156 45.252 37.156 43.338 37.156 42.04 38.608 42.04 40.676 42.04 42.744 43.338 44.218 45.252 44.218 46.286 44.218 47.1 43.778 47.694 42.942L49.212 44.372C48.464 45.362 47.232 46.264 45.142 46.264zM56.098 46.264C52.886 46.264 50.62 43.888 50.62 40.676 50.62 37.464 52.886 35.11 56.098 35.11 58.188 35.11 59.42 35.99 60.168 37.002L58.65 38.388C58.056 37.552 57.242 37.156 56.208 37.156 54.294 37.156 52.996 38.608 52.996 40.676 52.996 42.744 54.294 44.218 56.208 44.218 57.242 44.218 58.056 43.778 58.65 42.942L60.168 44.372C59.42 45.362 58.188 46.264 56.098 46.264zM67.032 46.264C63.644 46.264 61.576 43.712 61.576 40.676 61.576 37.618 63.644 35.11 67.032 35.11 70.42 35.11 72.488 37.618 72.488 40.676 72.488 43.712 70.42 46.264 67.032 46.264zM67.032 44.218C69.012 44.218 70.09 42.568 70.09 40.676 70.09 38.806 69.012 37.156 67.032 37.156 65.074 37.156 63.974 38.806 63.974 40.676 63.974 42.568 65.074 44.218 67.032 44.218zM84.324 46L82.014 46 82.014 44.592C81.266 45.428 79.946 46.264 78.274 46.264 75.986 46.264 74.842 45.054 74.842 42.898L74.842 35.374 77.152 35.374 77.152 42.04C77.152 43.69 77.988 44.218 79.308 44.218 80.474 44.218 81.486 43.536 82.014 42.832L82.014 35.374 84.324 35.374 84.324 46zM96.82 46L94.51 46 94.51 39.356C94.51 37.684 93.652 37.156 92.354 37.156 91.188 37.156 90.176 37.86 89.626 38.564L89.626 46 87.316 46 87.316 35.374 89.626 35.374 89.626 36.804C90.33 35.968 91.716 35.11 93.388 35.11 95.676 35.11 96.82 36.342 96.82 38.52L96.82 46zM103.024 46.264C101.22 46.264 100.296 45.296 100.296 43.514L100.296 37.376 98.536 37.376 98.536 35.374 100.296 35.374 100.296 32.47 102.606 32.47 102.606 35.374 104.762 35.374 104.762 37.376 102.606 37.376 102.606 42.942C102.606 43.668 102.958 44.218 103.618 44.218 104.058 44.218 104.454 44.02 104.63 43.822L105.18 45.582C104.762 45.956 104.08 46.264 103.024 46.264zM117.346 46.264C114.134 46.264 111.868 43.888 111.868 40.676 111.868 37.464 114.134 35.11 117.346 35.11 119.436 35.11 120.668 35.99 121.416 37.002L119.898 38.388C119.304 37.552 118.49 37.156 117.456 37.156 115.542 37.156 114.244 38.608 114.244 40.676 114.244 42.744 115.542 44.218 117.456 44.218 118.49 44.218 119.304 43.778 119.898 42.942L121.416 44.372C120.668 45.362 119.436 46.264 117.346 46.264zM125.772 46L123.462 46 123.462 35.374 125.772 35.374 125.772 36.914C126.586 35.902 127.862 35.11 129.226 35.11L129.226 37.398C129.028 37.354 128.808 37.332 128.522 37.332 127.532 37.332 126.234 37.992 125.772 38.762L125.772 46zM136.024 46.264C132.812 46.264 130.458 44.042 130.458 40.676 130.458 37.596 132.702 35.11 135.848 35.11 139.038 35.11 141.062 37.53 141.062 40.874L141.062 41.446 132.878 41.446C133.054 43.03 134.242 44.372 136.244 44.372 137.3 44.372 138.51 43.954 139.28 43.184L140.336 44.702C139.258 45.714 137.696 46.264 136.024 46.264zM138.84 39.796C138.774 38.542 137.916 37.002 135.826 37.002 133.868 37.002 132.944 38.52 132.856 39.796L138.84 39.796zM152.172 46L149.862 46 149.862 44.834C149.07 45.758 147.816 46.264 146.408 46.264 144.692 46.264 142.734 45.076 142.734 42.744 142.734 40.28 144.67 39.268 146.408 39.268 147.86 39.268 149.07 39.73 149.862 40.632L149.862 39.048C149.862 37.816 148.828 37.068 147.376 37.068 146.188 37.068 145.132 37.508 144.23 38.432L143.262 36.826C144.494 35.638 146.034 35.11 147.728 35.11 150.104 35.11 152.172 36.1 152.172 38.938L152.172 46zM147.332 44.68C148.322 44.68 149.312 44.306 149.862 43.58L149.862 41.952C149.312 41.226 148.322 40.852 147.332 40.852 146.034 40.852 145.044 41.622 145.044 42.766 145.044 43.932 146.034 44.68 147.332 44.68zM158.376 46.264C156.572 46.264 155.648 45.296 155.648 43.514L155.648 37.376 153.888 37.376 153.888 35.374 155.648 35.374 155.648 32.47 157.958 32.47 157.958 35.374 160.114 35.374 160.114 37.376 157.958 37.376 157.958 42.942C157.958 43.668 158.31 44.218 158.97 44.218 159.41 44.218 159.806 44.02 159.982 43.822L160.532 45.582C160.114 45.956 159.432 46.264 158.376 46.264zM167.11 46.264C163.898 46.264 161.544 44.042 161.544 40.676 161.544 37.596 163.788 35.11 166.934 35.11 170.124 35.11 172.148 37.53 172.148 40.874L172.148 41.446 163.964 41.446C164.14 43.03 165.328 44.372 167.33 44.372 168.386 44.372 169.596 43.954 170.366 43.184L171.422 44.702C170.344 45.714 168.782 46.264 167.11 46.264zM169.926 39.796C169.86 38.542 169.002 37.002 166.912 37.002 164.954 37.002 164.03 38.52 163.942 39.796L169.926 39.796zM184.226 46L181.916 46 181.916 44.548C181.102 45.604 179.892 46.264 178.506 46.264 175.8 46.264 173.798 44.196 173.798 40.676 173.798 37.244 175.778 35.11 178.506 35.11 179.848 35.11 181.08 35.704 181.916 36.848L181.916 31.326 184.226 31.326 184.226 46zM179.188 44.218C180.266 44.218 181.41 43.58 181.916 42.788L181.916 38.586C181.41 37.794 180.266 37.156 179.188 37.156 177.34 37.156 176.174 38.63 176.174 40.676 176.174 42.744 177.34 44.218 179.188 44.218zM52.44 72L46.938 72 46.938 62.662 48.1 62.662 48.1 70.964 52.44 70.964 52.44 72zM59.034 72L57.984 72 57.984 71.23C57.438 71.846 56.654 72.168 55.744 72.168 54.61 72.168 53.392 71.398 53.392 69.928 53.392 68.402 54.596 67.702 55.744 67.702 56.668 67.702 57.438 67.996 57.984 68.612L57.984 67.394C57.984 66.498 57.256 65.98 56.276 65.98 55.464 65.98 54.806 66.26 54.204 66.918L53.714 66.19C54.442 65.434 55.31 65.07 56.416 65.07 57.858 65.07 59.034 65.714 59.034 67.352L59.034 72zM56.136 71.412C56.864 71.412 57.578 71.132 57.984 70.572L57.984 69.284C57.578 68.738 56.864 68.458 56.136 68.458 55.142 68.458 54.456 69.074 54.456 69.928 54.456 70.796 55.142 71.412 56.136 71.412zM63.304 72.168C62.184 72.168 61.26 71.818 60.574 71.104L61.106 70.348C61.554 70.866 62.408 71.314 63.332 71.314 64.368 71.314 64.942 70.824 64.942 70.152 64.942 68.514 60.756 69.522 60.756 67.016 60.756 65.952 61.652 65.07 63.262 65.07 64.424 65.07 65.236 65.504 65.768 66.05L65.278 66.778C64.872 66.288 64.144 65.924 63.262 65.924 62.338 65.924 61.764 66.386 61.764 66.988 61.764 68.458 65.95 67.492 65.95 70.124 65.95 71.258 65.04 72.168 63.304 72.168zM69.38 72.168C68.372 72.168 67.868 71.594 67.868 70.586L67.868 66.162 66.748 66.162 66.748 65.238 67.868 65.238 67.868 63.39 68.932 63.39 68.932 65.238 70.304 65.238 70.304 66.162 68.932 66.162 68.932 70.362C68.932 70.866 69.156 71.23 69.604 71.23 69.912 71.23 70.178 71.09 70.318 70.936L70.626 71.734C70.36 71.986 69.982 72.168 69.38 72.168zM77.122 72.168C76.114 72.168 75.61 71.594 75.61 70.586L75.61 66.162 74.49 66.162 74.49 65.238 75.61 65.238 75.61 63.39 76.674 63.39 76.674 65.238 78.046 65.238 78.046 66.162 76.674 66.162 76.674 70.362C76.674 70.866 76.898 71.23 77.346 71.23 77.654 71.23 77.92 71.09 78.06 70.936L78.368 71.734C78.102 71.986 77.724 72.168 77.122 72.168zM80.566 72L79.516 72 79.516 65.238 80.566 65.238 80.566 66.316C81.112 65.616 81.896 65.084 82.82 65.084L82.82 66.162C82.694 66.148 82.568 66.134 82.414 66.134 81.756 66.134 80.874 66.666 80.566 67.212L80.566 72zM84.668 64.272C84.276 64.272 83.954 63.964 83.954 63.572 83.954 63.18 84.276 62.858 84.668 62.858 85.06 62.858 85.368 63.18 85.368 63.572 85.368 63.964 85.06 64.272 84.668 64.272zM85.186 72L84.136 72 84.136 65.238 85.186 65.238 85.186 72zM90.002 74.744C88.868 74.744 88.084 74.52 87.272 73.722L87.804 72.966C88.364 73.624 89.036 73.876 90.002 73.876 91.122 73.876 92.186 73.33 92.186 71.902L92.186 70.88C91.682 71.566 90.856 72.084 89.904 72.084 88.14 72.084 86.894 70.768 86.894 68.584 86.894 66.414 88.126 65.07 89.904 65.07 90.814 65.07 91.64 65.518 92.186 66.26L92.186 65.238 93.236 65.238 93.236 71.902C93.236 74.044 91.654 74.744 90.002 74.744zM90.17 71.146C90.996 71.146 91.808 70.642 92.186 70.054L92.186 67.086C91.808 66.512 90.996 66.008 90.17 66.008 88.798 66.008 87.986 67.086 87.986 68.584 87.986 70.068 88.798 71.146 90.17 71.146zM98.052 74.744C96.918 74.744 96.134 74.52 95.322 73.722L95.854 72.966C96.414 73.624 97.086 73.876 98.052 73.876 99.172 73.876 100.236 73.33 100.236 71.902L100.236 70.88C99.732 71.566 98.906 72.084 97.954 72.084 96.19 72.084 94.944 70.768 94.944 68.584 94.944 66.414 96.176 65.07 97.954 65.07 98.864 65.07 99.69 65.518 100.236 66.26L100.236 65.238 101.286 65.238 101.286 71.902C101.286 74.044 99.704 74.744 98.052 74.744zM98.22 71.146C99.046 71.146 99.858 70.642 100.236 70.054L100.236 67.086C99.858 66.512 99.046 66.008 98.22 66.008 96.848 66.008 96.036 67.086 96.036 68.584 96.036 70.068 96.848 71.146 98.22 71.146zM106.452 72.168C104.436 72.168 102.994 70.726 102.994 68.612 102.994 66.652 104.394 65.07 106.326 65.07 108.37 65.07 109.574 66.666 109.574 68.696L109.574 68.962 104.114 68.962C104.198 70.236 105.08 71.3 106.536 71.3 107.32 71.3 108.09 70.992 108.636 70.432L109.14 71.118C108.454 71.79 107.544 72.168 106.452 72.168zM108.538 68.178C108.524 67.184 107.852 65.938 106.312 65.938 104.87 65.938 104.156 67.156 104.1 68.178L108.538 68.178zM117.218 72L116.168 72 116.168 70.992C115.664 71.678 114.838 72.168 113.886 72.168 112.122 72.168 110.876 70.824 110.876 68.626 110.876 66.456 112.122 65.07 113.886 65.07 114.796 65.07 115.622 65.518 116.168 66.26L116.168 62.662 117.218 62.662 117.218 72zM114.152 71.23C114.978 71.23 115.804 70.74 116.168 70.152L116.168 67.1C115.804 66.512 114.978 66.008 114.152 66.008 112.78 66.008 111.968 67.128 111.968 68.626 111.968 70.124 112.78 71.23 114.152 71.23zM128.222 72L127.172 72 127.172 71.23C126.626 71.846 125.842 72.168 124.932 72.168 123.798 72.168 122.58 71.398 122.58 69.928 122.58 68.402 123.784 67.702 124.932 67.702 125.856 67.702 126.626 67.996 127.172 68.612L127.172 67.394C127.172 66.498 126.444 65.98 125.464 65.98 124.652 65.98 123.994 66.26 123.392 66.918L122.902 66.19C123.63 65.434 124.498 65.07 125.604 65.07 127.046 65.07 128.222 65.714 128.222 67.352L128.222 72zM125.324 71.412C126.052 71.412 126.766 71.132 127.172 70.572L127.172 69.284C126.766 68.738 126.052 68.458 125.324 68.458 124.33 68.458 123.644 69.074 123.644 69.928 123.644 70.796 124.33 71.412 125.324 71.412zM139.912 72L138.862 72 138.862 70.992C138.358 71.678 137.532 72.168 136.58 72.168 134.816 72.168 133.57 70.824 133.57 68.626 133.57 66.456 134.816 65.07 136.58 65.07 137.49 65.07 138.316 65.518 138.862 66.26L138.862 62.662 139.912 62.662 139.912 72zM136.846 71.23C137.672 71.23 138.498 70.74 138.862 70.152L138.862 67.1C138.498 66.512 137.672 66.008 136.846 66.008 135.474 66.008 134.662 67.128 134.662 68.626 134.662 70.124 135.474 71.23 136.846 71.23zM147.29 72L146.24 72 146.24 71.23C145.694 71.846 144.91 72.168 144 72.168 142.866 72.168 141.648 71.398 141.648 69.928 141.648 68.402 142.852 67.702 144 67.702 144.924 67.702 145.694 67.996 146.24 68.612L146.24 67.394C146.24 66.498 145.512 65.98 144.532 65.98 143.72 65.98 143.062 66.26 142.46 66.918L141.97 66.19C142.698 65.434 143.566 65.07 144.672 65.07 146.114 65.07 147.29 65.714 147.29 67.352L147.29 72zM144.392 71.412C145.12 71.412 145.834 71.132 146.24 70.572L146.24 69.284C145.834 68.738 145.12 68.458 144.392 68.458 143.398 68.458 142.712 69.074 142.712 69.928 142.712 70.796 143.398 71.412 144.392 71.412zM149.04 74.646L149.194 73.694C149.348 73.764 149.6 73.806 149.768 73.806 150.23 73.806 150.538 73.652 150.776 73.092L151.224 72.07 148.396 65.238 149.544 65.238 151.784 70.782 154.038 65.238 155.172 65.238 151.784 73.372C151.378 74.352 150.692 74.73 149.796 74.744 149.572 74.744 149.222 74.702 149.04 74.646zM165.168 72L164.118 72 164.118 71.23C163.572 71.846 162.788 72.168 161.878 72.168 160.744 72.168 159.526 71.398 159.526 69.928 159.526 68.402 160.73 67.702 161.878 67.702 162.802 67.702 163.572 67.996 164.118 68.612L164.118 67.394C164.118 66.498 163.39 65.98 162.41 65.98 161.598 65.98 160.94 66.26 160.338 66.918L159.848 66.19C160.576 65.434 161.444 65.07 162.55 65.07 163.992 65.07 165.168 65.714 165.168 67.352L165.168 72zM162.27 71.412C162.998 71.412 163.712 71.132 164.118 70.572L164.118 69.284C163.712 68.738 162.998 68.458 162.27 68.458 161.276 68.458 160.59 69.074 160.59 69.928 160.59 70.796 161.276 71.412 162.27 71.412zM169.998 74.744C168.864 74.744 168.08 74.52 167.268 73.722L167.8 72.966C168.36 73.624 169.032 73.876 169.998 73.876 171.118 73.876 172.182 73.33 172.182 71.902L172.182 70.88C171.678 71.566 170.852 72.084 169.9 72.084 168.136 72.084 166.89 70.768 166.89 68.584 166.89 66.414 168.122 65.07 169.9 65.07 170.81 65.07 171.636 65.518 172.182 66.26L172.182 65.238 173.232 65.238 173.232 71.902C173.232 74.044 171.65 74.744 169.998 74.744zM170.166 71.146C170.992 71.146 171.804 70.642 172.182 70.054L172.182 67.086C171.804 66.512 170.992 66.008 170.166 66.008 168.794 66.008 167.982 67.086 167.982 68.584 167.982 70.068 168.794 71.146 170.166 71.146zM178.286 72.168C176.228 72.168 174.94 70.572 174.94 68.612 174.94 66.652 176.228 65.07 178.286 65.07 180.344 65.07 181.632 66.652 181.632 68.612 181.632 70.572 180.344 72.168 178.286 72.168zM178.286 71.23C179.728 71.23 180.526 69.998 180.526 68.612 180.526 67.24 179.728 66.008 178.286 66.008 176.844 66.008 176.046 67.24 176.046 68.612 176.046 69.998 176.844 71.23 178.286 71.23z"/>
      <circle cx="28" cy="68" r="4" fill="#6FD350"/>
    </g>
    <g transform="rotate(39 33.393 780.847)">
      <rect width="18.48" height="18.333" x=".696" y="3.491" fill="#01B2D0" opacity=".1" rx="3"/>
      <rect width="16.48" height="16.333" x="4.203" y="1.331" stroke="#01B2D0" stroke-width="2" rx="3"/>
    </g>
    <g transform="rotate(112 271.95 198.988)">
      <path fill="#6FD350" d="M21.5944411,14.0074966 L32.2191148,35.308862 C33.2051403,37.2857406 32.4018952,39.6876489 30.4250167,40.6736744 C29.8705056,40.9502529 29.2593193,41.0942191 28.6396595,41.0942191 L7.39031215,41.0942191 C5.18117315,41.0942191 3.39031215,39.3033581 3.39031215,37.0942191 C3.39031215,36.4745594 3.53427841,35.8633731 3.81085688,35.308862 L14.4355306,14.0074966 C15.4215561,12.0306181 17.8234644,11.227373 19.800343,12.2133985 C20.5772241,12.6008905 21.2069491,13.2306154 21.5944411,14.0074966 Z" opacity=".2"/>
      <path stroke="#6FD350" stroke-width="2" d="M28.0780801,7.89492174 C27.7874611,7.31226085 27.3151673,6.83996714 26.7325065,6.54934813 C25.2498475,5.809829 23.4484163,6.41226283 22.7088972,7.89492174 L12.0842235,29.1962871 C11.8767896,29.6121704 11.7688149,30.0705602 11.7688149,30.535305 C11.7688149,32.1921592 13.1119607,33.535305 14.7688149,33.535305 L36.0181623,33.535305 C36.4829071,33.535305 36.9412969,33.4273303 37.3571802,33.2198964 C38.8398391,32.4803773 39.4422729,30.678946 38.7027538,29.1962871 L28.0780801,7.89492174 Z"/>
    </g>
    <g transform="rotate(-47 454.847 181.365)">
      <path fill="#6FD350" d="M18.6584492,12.8291371 L26.4876424,28.4531851 C27.4773353,30.4282301 26.6785496,32.8316251 24.7035045,33.8213181 C24.1472653,34.1000489 23.5336749,34.2451826 22.911507,34.2451826 L7.25312048,34.2451826 C5.04398148,34.2451826 3.25312048,32.4543216 3.25312048,30.2451826 C3.25312048,29.6230147 3.39825417,29.0094243 3.67698503,28.4531851 L11.5061783,12.8291371 C12.4958712,10.854092 14.8992662,10.0553063 16.8743113,11.0449992 C17.6459305,11.4316567 18.2717917,12.0575179 18.6584492,12.8291371 Z" opacity=".2"/>
      <path stroke="#6FD350" stroke-width="2" d="M23.9417665,7.81137471 C23.6517733,7.23266032 23.1823775,6.76326443 22.6036631,6.47327128 C21.1223793,5.73100159 19.319833,6.33009091 18.5775633,7.81137471 L10.7483701,23.4354226 C10.5393219,23.852602 10.4304716,24.3127948 10.4304716,24.7794208 C10.4304716,26.436275 11.7736174,27.7794208 13.4304716,27.7794208 L29.0888581,27.7794208 C29.5554841,27.7794208 30.0156769,27.6705705 30.4328563,27.4615224 C31.9141401,26.7192527 32.5132294,24.9167064 31.7709597,23.4354226 L23.9417665,7.81137471 Z"/>
    </g>
    <g transform="rotate(-35 480.5 20.742)">
      <ellipse cx="18.234" cy="13.678" stroke="#FFC111" stroke-width="2" rx="12.091" ry="12.078"/>
      <ellipse cx="13.819" cy="17.585" fill="#FFC111" opacity=".2" rx="13.091" ry="13.078"/>
    </g>
  </g>
</svg>
