<svg xmlns="http://www.w3.org/2000/svg" xmlns:xlink="http://www.w3.org/1999/xlink" width="525" height="593" viewBox="0 0 525 593">
  <defs>
    <rect id="event-manager-2-b" width="453" height="230" rx="6"/>
    <filter id="event-manager-2-a" width="111.7%" height="123%" x="-5.8%" y="-9.8%" filterUnits="objectBoundingBox">
      <feMorphology in="SourceAlpha" operator="dilate" radius=".5" result="shadowSpreadOuter1"/>
      <feOffset dy="4" in="shadowSpreadOuter1" result="shadowOffsetOuter1"/>
      <feGaussianBlur in="shadowOffsetOuter1" result="shadowBlurOuter1" stdDeviation="8"/>
      <feComposite in="shadowBlurOuter1" in2="SourceAlpha" operator="out" result="shadowBlurOuter1"/>
      <feColorMatrix in="shadowBlurOuter1" values="0 0 0 0 0   0 0 0 0 0   0 0 0 0 0  0 0 0 0.12 0"/>
    </filter>
    <rect id="event-manager-2-d" width="378" height="309" rx="6"/>
    <filter id="event-manager-2-c" width="114%" height="117.2%" x="-7%" y="-7.3%" filterUnits="objectBoundingBox">
      <feMorphology in="SourceAlpha" operator="dilate" radius=".5" result="shadowSpreadOuter1"/>
      <feOffset dy="4" in="shadowSpreadOuter1" result="shadowOffsetOuter1"/>
      <feGaussianBlur in="shadowOffsetOuter1" result="shadowBlurOuter1" stdDeviation="8"/>
      <feComposite in="shadowBlurOuter1" in2="SourceAlpha" operator="out" result="shadowBlurOuter1"/>
      <feColorMatrix in="shadowBlurOuter1" values="0 0 0 0 0   0 0 0 0 0   0 0 0 0 0  0 0 0 0.12 0"/>
    </filter>
  </defs>
  <g fill="none" fill-rule="evenodd" transform="translate(16 -6)">
    <g transform="translate(0 55)">
      <rect width="355" height="252" x="32" y="90" fill="#E1F5DB"/>
      <use fill="#000" filter="url(#event-manager-2-a)" xlink:href="#event-manager-2-b"/>
      <use fill="#FFF" stroke="#8D8D8D" stroke-opacity=".24" xlink:href="#event-manager-2-b"/>
      <path fill="#384254" fill-rule="nonzero" d="M30.482 37L28.844 37 28.844 34.886 24.392 34.886 24.392 33.57 28.228 27.662 30.482 27.662 30.482 33.444 31.728 33.444 31.728 34.886 30.482 34.886 30.482 37zM28.844 33.444L28.844 29.132 26.002 33.444 28.844 33.444zM36.446 37L34.808 37 34.808 29.776 33.282 31.372 32.33 30.378 35.018 27.662 36.446 27.662 36.446 37zM48.444 37L42.046 37 42.046 27.662 48.444 27.662 48.444 29.104 43.684 29.104 43.684 31.512 48.346 31.512 48.346 32.954 43.684 32.954 43.684 35.558 48.444 35.558 48.444 37zM53.442 37L51.86 37 49.102 30.238 50.684 30.238 52.658 35.306 54.632 30.238 56.2 30.238 53.442 37zM60.26 37.168C58.216 37.168 56.718 35.754 56.718 33.612 56.718 31.652 58.146 30.07 60.148 30.07 62.178 30.07 63.466 31.61 63.466 33.738L63.466 34.102 58.258 34.102C58.37 35.11 59.126 35.964 60.4 35.964 61.072 35.964 61.842 35.698 62.332 35.208L63.004 36.174C62.318 36.818 61.324 37.168 60.26 37.168zM62.052 33.052C62.01 32.254 61.464 31.274 60.134 31.274 58.888 31.274 58.3 32.24 58.244 33.052L62.052 33.052zM70.97 37L69.5 37 69.5 32.772C69.5 31.708 68.954 31.372 68.128 31.372 67.386 31.372 66.742 31.82 66.392 32.268L66.392 37 64.922 37 64.922 30.238 66.392 30.238 66.392 31.148C66.84 30.616 67.722 30.07 68.786 30.07 70.242 30.07 70.97 30.854 70.97 32.24L70.97 37zM74.918 37.168C73.77 37.168 73.182 36.552 73.182 35.418L73.182 31.512 72.062 31.512 72.062 30.238 73.182 30.238 73.182 28.39 74.652 28.39 74.652 30.238 76.024 30.238 76.024 31.512 74.652 31.512 74.652 35.054C74.652 35.516 74.876 35.866 75.296 35.866 75.576 35.866 75.828 35.74 75.94 35.614L76.29 36.734C76.024 36.972 75.59 37.168 74.918 37.168zM79.664 37.168C78.502 37.168 77.466 36.79 76.766 36.104L77.438 35.054C77.914 35.544 78.852 35.992 79.72 35.992 80.602 35.992 81.064 35.628 81.064 35.096 81.064 33.766 76.976 34.718 76.976 32.114 76.976 31.008 77.928 30.07 79.636 30.07 80.784 30.07 81.652 30.476 82.254 31.008L81.638 32.044C81.232 31.596 80.49 31.232 79.636 31.232 78.866 31.232 78.39 31.596 78.39 32.072 78.39 33.262 82.478 32.366 82.478 35.054 82.478 36.258 81.484 37.168 79.664 37.168zM89.604 37.168C88.456 37.168 87.868 36.552 87.868 35.418L87.868 31.512 86.748 31.512 86.748 30.238 87.868 30.238 87.868 28.39 89.338 28.39 89.338 30.238 90.71 30.238 90.71 31.512 89.338 31.512 89.338 35.054C89.338 35.516 89.562 35.866 89.982 35.866 90.262 35.866 90.514 35.74 90.626 35.614L90.976 36.734C90.71 36.972 90.276 37.168 89.604 37.168zM93.496 37L92.026 37 92.026 30.238 93.496 30.238 93.496 31.218C94.014 30.574 94.826 30.07 95.694 30.07L95.694 31.526C95.568 31.498 95.428 31.484 95.246 31.484 94.616 31.484 93.79 31.904 93.496 32.394L93.496 37zM102.498 37L101.028 37 101.028 36.258C100.524 36.846 99.726 37.168 98.83 37.168 97.738 37.168 96.492 36.412 96.492 34.928 96.492 33.36 97.724 32.716 98.83 32.716 99.754 32.716 100.524 33.01 101.028 33.584L101.028 32.576C101.028 31.792 100.37 31.316 99.446 31.316 98.69 31.316 98.018 31.596 97.444 32.184L96.828 31.162C97.612 30.406 98.592 30.07 99.67 30.07 101.182 30.07 102.498 30.7 102.498 32.506L102.498 37zM99.418 36.16C100.048 36.16 100.678 35.922 101.028 35.46L101.028 34.424C100.678 33.962 100.048 33.724 99.418 33.724 98.592 33.724 97.962 34.214 97.962 34.942 97.962 35.684 98.592 36.16 99.418 36.16zM107.482 37.168C105.438 37.168 103.996 35.656 103.996 33.612 103.996 31.568 105.438 30.07 107.482 30.07 108.812 30.07 109.596 30.63 110.072 31.274L109.106 32.156C108.728 31.624 108.21 31.372 107.552 31.372 106.334 31.372 105.508 32.296 105.508 33.612 105.508 34.928 106.334 35.866 107.552 35.866 108.21 35.866 108.728 35.586 109.106 35.054L110.072 35.964C109.596 36.594 108.812 37.168 107.482 37.168zM117.702 37L115.854 37 113.796 34.2 112.844 35.18 112.844 37 111.374 37 111.374 27.662 112.844 27.662 112.844 33.5 115.826 30.238 117.646 30.238 114.846 33.304 117.702 37zM121.818 37.168C119.774 37.168 118.276 35.754 118.276 33.612 118.276 31.652 119.704 30.07 121.706 30.07 123.736 30.07 125.024 31.61 125.024 33.738L125.024 34.102 119.816 34.102C119.928 35.11 120.684 35.964 121.958 35.964 122.63 35.964 123.4 35.698 123.89 35.208L124.562 36.174C123.876 36.818 122.882 37.168 121.818 37.168zM123.61 33.052C123.568 32.254 123.022 31.274 121.692 31.274 120.446 31.274 119.858 32.24 119.802 33.052L123.61 33.052zM132.71 37L131.24 37 131.24 36.076C130.722 36.748 129.952 37.168 129.07 37.168 127.348 37.168 126.074 35.852 126.074 33.612 126.074 31.428 127.334 30.07 129.07 30.07 129.924 30.07 130.708 30.448 131.24 31.176L131.24 27.662 132.71 27.662 132.71 37zM129.504 35.866C130.19 35.866 130.918 35.46 131.24 34.956L131.24 32.282C130.918 31.778 130.19 31.372 129.504 31.372 128.328 31.372 127.586 32.31 127.586 33.612 127.586 34.928 128.328 35.866 129.504 35.866zM31.788 77L30.432 77 26.256 71.276 26.256 77 24.852 77 24.852 68.996 26.292 68.996 30.384 74.54 30.384 68.996 31.788 68.996 31.788 77zM40.704 77L39.108 77 38.52 75.452 34.848 75.452 34.26 77 32.664 77 35.808 68.996 37.56 68.996 40.704 77zM38.124 74.216L36.684 70.4 35.244 74.216 38.124 74.216zM49.884 77L48.48 77 48.48 70.82 46.032 77 45.432 77 42.972 70.82 42.972 77 41.568 77 41.568 68.996 43.548 68.996 45.732 74.492 47.904 68.996 49.884 68.996 49.884 77zM57.072 77L51.588 77 51.588 68.996 57.072 68.996 57.072 70.232 52.992 70.232 52.992 72.296 56.988 72.296 56.988 73.532 52.992 73.532 52.992 75.764 57.072 75.764 57.072 77zM200.704 77.144C198.34 77.144 196.504 75.464 196.504 73.004 196.504 70.532 198.34 68.864 200.704 68.864 202.312 68.864 203.32 69.692 203.908 70.652L202.72 71.276C202.336 70.604 201.556 70.112 200.704 70.112 199.12 70.112 197.944 71.312 197.944 73.004 197.944 74.672 199.12 75.896 200.704 75.896 201.556 75.896 202.336 75.392 202.72 74.732L203.92 75.332C203.308 76.292 202.312 77.144 200.704 77.144zM212.188 77L210.592 77 210.004 75.452 206.332 75.452 205.744 77 204.148 77 207.292 68.996 209.044 68.996 212.188 77zM209.608 74.216L208.168 70.4 206.728 74.216 209.608 74.216zM221.368 77L219.964 77 219.964 70.82 217.516 77 216.916 77 214.456 70.82 214.456 77 213.052 77 213.052 68.996 215.032 68.996 217.216 74.492 219.388 68.996 221.368 68.996 221.368 77zM224.476 77L223.072 77 223.072 68.996 226.6 68.996C228.28 68.996 229.204 70.136 229.204 71.504 229.204 72.86 228.268 74 226.6 74L224.476 74 224.476 77zM226.408 72.764C227.2 72.764 227.764 72.26 227.764 71.504 227.764 70.736 227.2 70.232 226.408 70.232L224.476 70.232 224.476 72.764 226.408 72.764zM236.692 77L235.096 77 234.508 75.452 230.836 75.452 230.248 77 228.652 77 231.796 68.996 233.548 68.996 236.692 77zM234.112 74.216L232.672 70.4 231.232 74.216 234.112 74.216zM238.96 77L237.556 77 237.556 68.996 238.96 68.996 238.96 77zM244.516 77.156C242.188 77.156 240.316 75.512 240.316 73.004 240.316 70.484 242.188 68.864 244.516 68.864 246.076 68.864 247.096 69.608 247.732 70.52L246.592 71.18C246.16 70.58 245.404 70.112 244.516 70.112 242.932 70.112 241.756 71.312 241.756 73.004 241.756 74.672 242.932 75.896 244.516 75.896 245.332 75.896 246.052 75.524 246.412 75.176L246.412 73.94 244.012 73.94 244.012 72.704 247.804 72.704 247.804 75.692C247.024 76.568 245.896 77.156 244.516 77.156zM256.204 77L254.848 77 250.672 71.276 250.672 77 249.268 77 249.268 68.996 250.708 68.996 254.8 74.54 254.8 68.996 256.204 68.996 256.204 77zM260.656 77.144C259.18 77.144 258.112 76.616 257.392 75.872L258.184 74.78C258.724 75.368 259.6 75.896 260.716 75.896 261.868 75.896 262.312 75.332 262.312 74.792 262.312 73.112 257.656 74.156 257.656 71.216 257.656 69.884 258.808 68.864 260.572 68.864 261.808 68.864 262.828 69.272 263.56 69.992L262.768 71.036C262.132 70.4 261.28 70.112 260.44 70.112 259.624 70.112 259.096 70.52 259.096 71.108 259.096 72.608 263.752 71.684 263.752 74.66 263.752 75.992 262.804 77.144 260.656 77.144zM325.688 77L320.756 77 320.756 68.996 322.16 68.996 322.16 75.764 325.688 75.764 325.688 77zM334.136 77L332.54 77 331.952 75.452 328.28 75.452 327.692 77 326.096 77 329.24 68.996 330.992 68.996 334.136 77zM331.556 74.216L330.116 70.4 328.676 74.216 331.556 74.216zM337.628 77.144C336.152 77.144 335.084 76.616 334.364 75.872L335.156 74.78C335.696 75.368 336.572 75.896 337.688 75.896 338.84 75.896 339.284 75.332 339.284 74.792 339.284 73.112 334.628 74.156 334.628 71.216 334.628 69.884 335.78 68.864 337.544 68.864 338.78 68.864 339.8 69.272 340.532 69.992L339.74 71.036C339.104 70.4 338.252 70.112 337.412 70.112 336.596 70.112 336.068 70.52 336.068 71.108 336.068 72.608 340.724 71.684 340.724 74.66 340.724 75.992 339.776 77.144 337.628 77.144zM345.2 77L343.796 77 343.796 70.232 341.372 70.232 341.372 68.996 347.624 68.996 347.624 70.232 345.2 70.232 345.2 77zM354.656 77.144C353.18 77.144 352.112 76.616 351.392 75.872L352.184 74.78C352.724 75.368 353.6 75.896 354.716 75.896 355.868 75.896 356.312 75.332 356.312 74.792 356.312 73.112 351.656 74.156 351.656 71.216 351.656 69.884 352.808 68.864 354.572 68.864 355.808 68.864 356.828 69.272 357.56 69.992L356.768 71.036C356.132 70.4 355.28 70.112 354.44 70.112 353.624 70.112 353.096 70.52 353.096 71.108 353.096 72.608 357.752 71.684 357.752 74.66 357.752 75.992 356.804 77.144 354.656 77.144zM364.52 77L359.036 77 359.036 68.996 364.52 68.996 364.52 70.232 360.44 70.232 360.44 72.296 364.436 72.296 364.436 73.532 360.44 73.532 360.44 75.764 364.52 75.764 364.52 77zM371.444 77L365.96 77 365.96 68.996 371.444 68.996 371.444 70.232 367.364 70.232 367.364 72.296 371.36 72.296 371.36 73.532 367.364 73.532 367.364 75.764 371.444 75.764 371.444 77zM379.82 77L378.464 77 374.288 71.276 374.288 77 372.884 77 372.884 68.996 374.324 68.996 378.416 74.54 378.416 68.996 379.82 68.996 379.82 77z" opacity=".5"/>
      <g transform="translate(36 178)">
        <path fill="#384254" fill-rule="nonzero" d="M32.408,13 L30.546,13 L29.86,11.194 L25.576,11.194 L24.89,13 L23.028,13 L26.696,3.662 L28.74,3.662 L32.408,13 Z M29.398,9.752 L27.718,5.3 L26.038,9.752 L29.398,9.752 Z M36.454,13.168 C34.41,13.168 32.968,11.656 32.968,9.612 C32.968,7.568 34.41,6.07 36.454,6.07 C37.784,6.07 38.568,6.63 39.044,7.274 L38.078,8.156 C37.7,7.624 37.182,7.372 36.524,7.372 C35.306,7.372 34.48,8.296 34.48,9.612 C34.48,10.928 35.306,11.866 36.524,11.866 C37.182,11.866 37.7,11.586 38.078,11.054 L39.044,11.964 C38.568,12.594 37.784,13.168 36.454,13.168 Z M42.39,13.168 C41.242,13.168 40.654,12.552 40.654,11.418 L40.654,7.512 L39.534,7.512 L39.534,6.238 L40.654,6.238 L40.654,4.39 L42.124,4.39 L42.124,6.238 L43.496,6.238 L43.496,7.512 L42.124,7.512 L42.124,11.054 C42.124,11.516 42.348,11.866 42.768,11.866 C43.048,11.866 43.3,11.74 43.412,11.614 L43.762,12.734 C43.496,12.972 43.062,13.168 42.39,13.168 Z M45.554,5.412 C45.05,5.412 44.644,5.006 44.644,4.502 C44.644,3.998 45.05,3.592 45.554,3.592 C46.058,3.592 46.464,3.998 46.464,4.502 C46.464,5.006 46.058,5.412 45.554,5.412 Z M46.282,13 L44.812,13 L44.812,6.238 L46.282,6.238 L46.282,13 Z M51.546,13 L49.964,13 L47.206,6.238 L48.788,6.238 L50.762,11.306 L52.736,6.238 L54.304,6.238 L51.546,13 Z M60.842,13 L59.372,13 L59.372,12.258 C58.868,12.846 58.07,13.168 57.174,13.168 C56.082,13.168 54.836,12.412 54.836,10.928 C54.836,9.36 56.068,8.716 57.174,8.716 C58.098,8.716 58.868,9.01 59.372,9.584 L59.372,8.576 C59.372,7.792 58.714,7.316 57.79,7.316 C57.034,7.316 56.362,7.596 55.788,8.184 L55.172,7.162 C55.956,6.406 56.936,6.07 58.014,6.07 C59.526,6.07 60.842,6.7 60.842,8.506 L60.842,13 Z M57.762,12.16 C58.392,12.16 59.022,11.922 59.372,11.46 L59.372,10.424 C59.022,9.962 58.392,9.724 57.762,9.724 C56.936,9.724 56.306,10.214 56.306,10.942 C56.306,11.684 56.936,12.16 57.762,12.16 Z M64.79,13.168 C63.642,13.168 63.054,12.552 63.054,11.418 L63.054,7.512 L61.934,7.512 L61.934,6.238 L63.054,6.238 L63.054,4.39 L64.524,4.39 L64.524,6.238 L65.896,6.238 L65.896,7.512 L64.524,7.512 L64.524,11.054 C64.524,11.516 64.748,11.866 65.168,11.866 C65.448,11.866 65.7,11.74 65.812,11.614 L66.162,12.734 C65.896,12.972 65.462,13.168 64.79,13.168 Z M70.348,13.168 C68.304,13.168 66.806,11.754 66.806,9.612 C66.806,7.652 68.234,6.07 70.236,6.07 C72.266,6.07 73.554,7.61 73.554,9.738 L73.554,10.102 L68.346,10.102 C68.458,11.11 69.214,11.964 70.488,11.964 C71.16,11.964 71.93,11.698 72.42,11.208 L73.092,12.174 C72.406,12.818 71.412,13.168 70.348,13.168 Z M72.14,9.052 C72.098,8.254 71.552,7.274 70.222,7.274 C68.976,7.274 68.388,8.24 68.332,9.052 L72.14,9.052 Z M81.24,13 L79.77,13 L79.77,12.076 C79.252,12.748 78.482,13.168 77.6,13.168 C75.878,13.168 74.604,11.852 74.604,9.612 C74.604,7.428 75.864,6.07 77.6,6.07 C78.454,6.07 79.238,6.448 79.77,7.176 L79.77,3.662 L81.24,3.662 L81.24,13 Z M78.034,11.866 C78.72,11.866 79.448,11.46 79.77,10.956 L79.77,8.282 C79.448,7.778 78.72,7.372 78.034,7.372 C76.858,7.372 76.116,8.31 76.116,9.612 C76.116,10.928 76.858,11.866 78.034,11.866 Z M92.37,13 L90.9,13 L90.9,12.258 C90.396,12.846 89.598,13.168 88.702,13.168 C87.61,13.168 86.364,12.412 86.364,10.928 C86.364,9.36 87.596,8.716 88.702,8.716 C89.626,8.716 90.396,9.01 90.9,9.584 L90.9,8.576 C90.9,7.792 90.242,7.316 89.318,7.316 C88.562,7.316 87.89,7.596 87.316,8.184 L86.7,7.162 C87.484,6.406 88.464,6.07 89.542,6.07 C91.054,6.07 92.37,6.7 92.37,8.506 L92.37,13 Z M89.29,12.16 C89.92,12.16 90.55,11.922 90.9,11.46 L90.9,10.424 C90.55,9.962 89.92,9.724 89.29,9.724 C88.464,9.724 87.834,10.214 87.834,10.942 C87.834,11.684 88.464,12.16 89.29,12.16 Z M97.354,13.168 C95.31,13.168 93.868,11.656 93.868,9.612 C93.868,7.568 95.31,6.07 97.354,6.07 C98.684,6.07 99.468,6.63 99.944,7.274 L98.978,8.156 C98.6,7.624 98.082,7.372 97.424,7.372 C96.206,7.372 95.38,8.296 95.38,9.612 C95.38,10.928 96.206,11.866 97.424,11.866 C98.082,11.866 98.6,11.586 98.978,11.054 L99.944,11.964 C99.468,12.594 98.684,13.168 97.354,13.168 Z M104.326,13.168 C102.282,13.168 100.84,11.656 100.84,9.612 C100.84,7.568 102.282,6.07 104.326,6.07 C105.656,6.07 106.44,6.63 106.916,7.274 L105.95,8.156 C105.572,7.624 105.054,7.372 104.396,7.372 C103.178,7.372 102.352,8.296 102.352,9.612 C102.352,10.928 103.178,11.866 104.396,11.866 C105.054,11.866 105.572,11.586 105.95,11.054 L106.916,11.964 C106.44,12.594 105.656,13.168 104.326,13.168 Z M111.284,13.168 C109.128,13.168 107.812,11.544 107.812,9.612 C107.812,7.666 109.128,6.07 111.284,6.07 C113.44,6.07 114.756,7.666 114.756,9.612 C114.756,11.544 113.44,13.168 111.284,13.168 Z M111.284,11.866 C112.544,11.866 113.23,10.816 113.23,9.612 C113.23,8.422 112.544,7.372 111.284,7.372 C110.038,7.372 109.338,8.422 109.338,9.612 C109.338,10.816 110.038,11.866 111.284,11.866 Z M122.288,13 L120.818,13 L120.818,12.104 C120.342,12.636 119.502,13.168 118.438,13.168 C116.982,13.168 116.254,12.398 116.254,11.026 L116.254,6.238 L117.724,6.238 L117.724,10.48 C117.724,11.53 118.256,11.866 119.096,11.866 C119.838,11.866 120.482,11.432 120.818,10.984 L120.818,6.238 L122.288,6.238 L122.288,13 Z M130.24,13 L128.77,13 L128.77,8.772 C128.77,7.708 128.224,7.372 127.398,7.372 C126.656,7.372 126.012,7.82 125.662,8.268 L125.662,13 L124.192,13 L124.192,6.238 L125.662,6.238 L125.662,7.148 C126.11,6.616 126.992,6.07 128.056,6.07 C129.512,6.07 130.24,6.854 130.24,8.24 L130.24,13 Z M134.188,13.168 C133.04,13.168 132.452,12.552 132.452,11.418 L132.452,7.512 L131.332,7.512 L131.332,6.238 L132.452,6.238 L132.452,4.39 L133.922,4.39 L133.922,6.238 L135.294,6.238 L135.294,7.512 L133.922,7.512 L133.922,11.054 C133.922,11.516 134.146,11.866 134.566,11.866 C134.846,11.866 135.098,11.74 135.21,11.614 L135.56,12.734 C135.294,12.972 134.86,13.168 134.188,13.168 Z" opacity=".5"/>
        <path fill="#384254" fill-rule="nonzero" d="M164.326 13.168C161.694 13.168 160.588 10.676 160.588 8.338 160.588 5.986 161.694 3.522 164.326 3.522 166.944 3.522 168.05 5.986 168.05 8.338 168.05 10.676 166.944 13.168 164.326 13.168zM164.326 11.712C165.838 11.712 166.384 10.116 166.384 8.338 166.384 6.546 165.852 4.978 164.326 4.978 162.8 4.978 162.254 6.546 162.254 8.338 162.254 10.116 162.8 11.712 164.326 11.712zM310.256 13.168C308.66 13.168 307.554 12.608 306.798 11.726L307.736 10.592C308.352 11.32 309.206 11.712 310.242 11.712 311.432 11.712 312.16 10.984 312.16 10.06 312.16 9.066 311.432 8.408 310.284 8.408 309.5 8.408 308.842 8.646 308.24 9.206L307.078 8.87 307.078 3.662 313.196 3.662 313.196 5.104 308.716 5.104 308.716 7.792C309.178 7.358 309.934 6.994 310.83 6.994 312.412 6.994 313.826 8.086 313.826 10.004 313.826 11.936 312.342 13.168 310.256 13.168zM325.194 13L323.724 13 323.724 12.076C323.206 12.748 322.436 13.168 321.554 13.168 319.832 13.168 318.558 11.852 318.558 9.612 318.558 7.428 319.818 6.07 321.554 6.07 322.408 6.07 323.192 6.448 323.724 7.176L323.724 3.662 325.194 3.662 325.194 13zM321.988 11.866C322.674 11.866 323.402 11.46 323.724 10.956L323.724 8.282C323.402 7.778 322.674 7.372 321.988 7.372 320.812 7.372 320.07 8.31 320.07 9.612 320.07 10.928 320.812 11.866 321.988 11.866zM332.712 13L331.242 13 331.242 12.258C330.738 12.846 329.94 13.168 329.044 13.168 327.952 13.168 326.706 12.412 326.706 10.928 326.706 9.36 327.938 8.716 329.044 8.716 329.968 8.716 330.738 9.01 331.242 9.584L331.242 8.576C331.242 7.792 330.584 7.316 329.66 7.316 328.904 7.316 328.232 7.596 327.658 8.184L327.042 7.162C327.826 6.406 328.806 6.07 329.884 6.07 331.396 6.07 332.712 6.7 332.712 8.506L332.712 13zM329.632 12.16C330.262 12.16 330.892 11.922 331.242 11.46L331.242 10.424C330.892 9.962 330.262 9.724 329.632 9.724 328.806 9.724 328.176 10.214 328.176 10.942 328.176 11.684 328.806 12.16 329.632 12.16zM334.336 15.646L334.546 14.33C334.7 14.4 334.938 14.442 335.106 14.442 335.582 14.442 335.89 14.302 336.086 13.854L336.422 13.084 333.636 6.238 335.218 6.238 337.192 11.306 339.166 6.238 340.734 6.238 337.472 14.218C337.01 15.366 336.212 15.73 335.162 15.744 334.952 15.744 334.532 15.702 334.336 15.646zM343.982 13.168C342.82 13.168 341.784 12.79 341.084 12.104L341.756 11.054C342.232 11.544 343.17 11.992 344.038 11.992 344.92 11.992 345.382 11.628 345.382 11.096 345.382 9.766 341.294 10.718 341.294 8.114 341.294 7.008 342.246 6.07 343.954 6.07 345.102 6.07 345.97 6.476 346.572 7.008L345.956 8.044C345.55 7.596 344.808 7.232 343.954 7.232 343.184 7.232 342.708 7.596 342.708 8.072 342.708 9.262 346.796 8.366 346.796 11.054 346.796 12.258 345.802 13.168 343.982 13.168zM357.492 13L356.022 13 356.022 12.258C355.518 12.846 354.72 13.168 353.824 13.168 352.732 13.168 351.486 12.412 351.486 10.928 351.486 9.36 352.718 8.716 353.824 8.716 354.748 8.716 355.518 9.01 356.022 9.584L356.022 8.576C356.022 7.792 355.364 7.316 354.44 7.316 353.684 7.316 353.012 7.596 352.438 8.184L351.822 7.162C352.606 6.406 353.586 6.07 354.664 6.07 356.176 6.07 357.492 6.7 357.492 8.506L357.492 13zM354.412 12.16C355.042 12.16 355.672 11.922 356.022 11.46L356.022 10.424C355.672 9.962 355.042 9.724 354.412 9.724 353.586 9.724 352.956 10.214 352.956 10.942 352.956 11.684 353.586 12.16 354.412 12.16zM362.154 15.744C361.006 15.744 360.152 15.492 359.312 14.736L359.998 13.672C360.558 14.302 361.258 14.54 362.154 14.54 363.12 14.54 364.156 14.092 364.156 12.65L364.156 11.88C363.638 12.566 362.868 13.014 361.986 13.014 360.264 13.014 358.99 11.768 358.99 9.542 358.99 7.344 360.236 6.07 361.986 6.07 362.84 6.07 363.61 6.448 364.156 7.176L364.156 6.238 365.626 6.238 365.626 12.65C365.626 15.086 363.806 15.744 362.154 15.744zM362.42 11.698C363.106 11.698 363.82 11.292 364.156 10.802L364.156 8.268C363.82 7.778 363.106 7.372 362.42 7.372 361.244 7.372 360.502 8.24 360.502 9.542 360.502 10.844 361.244 11.698 362.42 11.698zM370.596 13.168C368.44 13.168 367.124 11.544 367.124 9.612 367.124 7.666 368.44 6.07 370.596 6.07 372.752 6.07 374.068 7.666 374.068 9.612 374.068 11.544 372.752 13.168 370.596 13.168zM370.596 11.866C371.856 11.866 372.542 10.816 372.542 9.612 372.542 8.422 371.856 7.372 370.596 7.372 369.35 7.372 368.65 8.422 368.65 9.612 368.65 10.816 369.35 11.866 370.596 11.866z"/>
        <circle cx="288" cy="9" r="4" fill="#6FD350"/>
        <path fill="#01B2D0" fill-rule="nonzero" d="M12.8331659,8.01477569 C13.2077336,7.60083171 12.9105975,6.94370779 12.348854,6.94370779 L8.16444183,6.94370776 L10.1092948,0.839273991 C10.3193495,0.179517246 9.47153582,-0.29763087 9.0051023,0.217836309 L0.166834064,9.98522431 C-0.207733621,10.3991683 0.0894025115,11.0562922 0.651146022,11.0562922 L4.83279727,11.0562927 L2.89070519,17.160726 C2.68065048,17.8204828 3.52846418,18.2976309 3.9948977,17.7821637 L12.8331659,8.01477569 Z"/>
      </g>
      <g transform="translate(24 128)">
        <rect width="405" height="38" fill="#9D9D9D" opacity=".06"/>
        <g transform="translate(12 10)">
          <path fill="#384254" fill-rule="nonzero" d="M27.2,13.168 C25.478,13.168 24.232,12.552 23.392,11.684 L24.316,10.41 C24.946,11.096 25.968,11.712 27.27,11.712 C28.614,11.712 29.132,11.054 29.132,10.424 C29.132,8.464 23.7,9.682 23.7,6.252 C23.7,4.698 25.044,3.508 27.102,3.508 C28.544,3.508 29.734,3.984 30.588,4.824 L29.664,6.042 C28.922,5.3 27.928,4.964 26.948,4.964 C25.996,4.964 25.38,5.44 25.38,6.126 C25.38,7.876 30.812,6.798 30.812,10.27 C30.812,11.824 29.706,13.168 27.2,13.168 Z M33.01,5.412 C32.506,5.412 32.1,5.006 32.1,4.502 C32.1,3.998 32.506,3.592 33.01,3.592 C33.514,3.592 33.92,3.998 33.92,4.502 C33.92,5.006 33.514,5.412 33.01,5.412 Z M33.738,13 L32.268,13 L32.268,6.238 L33.738,6.238 L33.738,13 Z M38.4,15.744 C37.252,15.744 36.398,15.492 35.558,14.736 L36.244,13.672 C36.804,14.302 37.504,14.54 38.4,14.54 C39.366,14.54 40.402,14.092 40.402,12.65 L40.402,11.88 C39.884,12.566 39.114,13.014 38.232,13.014 C36.51,13.014 35.236,11.768 35.236,9.542 C35.236,7.344 36.482,6.07 38.232,6.07 C39.086,6.07 39.856,6.448 40.402,7.176 L40.402,6.238 L41.872,6.238 L41.872,12.65 C41.872,15.086 40.052,15.744 38.4,15.744 Z M38.666,11.698 C39.352,11.698 40.066,11.292 40.402,10.802 L40.402,8.268 C40.066,7.778 39.352,7.372 38.666,7.372 C37.49,7.372 36.748,8.24 36.748,9.542 C36.748,10.844 37.49,11.698 38.666,11.698 Z M49.824,13 L48.354,13 L48.354,8.772 C48.354,7.708 47.808,7.372 46.982,7.372 C46.24,7.372 45.596,7.82 45.246,8.268 L45.246,13 L43.776,13 L43.776,6.238 L45.246,6.238 L45.246,7.148 C45.694,6.616 46.576,6.07 47.64,6.07 C49.096,6.07 49.824,6.854 49.824,8.24 L49.824,13 Z M54.864,13.168 C52.82,13.168 51.322,11.754 51.322,9.612 C51.322,7.652 52.75,6.07 54.752,6.07 C56.782,6.07 58.07,7.61 58.07,9.738 L58.07,10.102 L52.862,10.102 C52.974,11.11 53.73,11.964 55.004,11.964 C55.676,11.964 56.446,11.698 56.936,11.208 L57.608,12.174 C56.922,12.818 55.928,13.168 54.864,13.168 Z M56.656,9.052 C56.614,8.254 56.068,7.274 54.738,7.274 C53.492,7.274 52.904,8.24 52.848,9.052 L56.656,9.052 Z M65.756,13 L64.286,13 L64.286,12.076 C63.768,12.748 62.998,13.168 62.116,13.168 C60.394,13.168 59.12,11.852 59.12,9.612 C59.12,7.428 60.38,6.07 62.116,6.07 C62.97,6.07 63.754,6.448 64.286,7.176 L64.286,3.662 L65.756,3.662 L65.756,13 Z M62.55,11.866 C63.236,11.866 63.964,11.46 64.286,10.956 L64.286,8.282 C63.964,7.778 63.236,7.372 62.55,7.372 C61.374,7.372 60.632,8.31 60.632,9.612 C60.632,10.928 61.374,11.866 62.55,11.866 Z M77.306,13 L75.836,13 L75.836,12.104 C75.36,12.636 74.52,13.168 73.456,13.168 C72,13.168 71.272,12.398 71.272,11.026 L71.272,6.238 L72.742,6.238 L72.742,10.48 C72.742,11.53 73.274,11.866 74.114,11.866 C74.856,11.866 75.5,11.432 75.836,10.984 L75.836,6.238 L77.306,6.238 L77.306,13 Z M82.85,13.168 C81.996,13.168 81.24,12.776 80.68,12.062 L80.68,15.576 L79.21,15.576 L79.21,6.238 L80.68,6.238 L80.68,7.162 C81.184,6.49 81.968,6.07 82.85,6.07 C84.6,6.07 85.846,7.386 85.846,9.612 C85.846,11.838 84.6,13.168 82.85,13.168 Z M82.416,11.866 C83.578,11.866 84.334,10.928 84.334,9.612 C84.334,8.296 83.578,7.372 82.416,7.372 C81.73,7.372 81.016,7.764 80.68,8.268 L80.68,10.942 C81.002,11.446 81.73,11.866 82.416,11.866 Z" opacity=".5"/>
          <polygon fill="#384254" fill-rule="nonzero" points="164.326 13 162.688 13 162.688 5.776 161.162 7.372 160.21 6.378 162.898 3.662 164.326 3.662"/>
          <path fill="#384254" fill-rule="nonzero" d="M312.566,13 L311.096,13 L311.096,12.258 C310.592,12.846 309.794,13.168 308.898,13.168 C307.806,13.168 306.56,12.412 306.56,10.928 C306.56,9.36 307.792,8.716 308.898,8.716 C309.822,8.716 310.592,9.01 311.096,9.584 L311.096,8.576 C311.096,7.792 310.438,7.316 309.514,7.316 C308.758,7.316 308.086,7.596 307.512,8.184 L306.896,7.162 C307.68,6.406 308.66,6.07 309.738,6.07 C311.25,6.07 312.566,6.7 312.566,8.506 L312.566,13 Z M309.486,12.16 C310.116,12.16 310.746,11.922 311.096,11.46 L311.096,10.424 C310.746,9.962 310.116,9.724 309.486,9.724 C308.66,9.724 308.03,10.214 308.03,10.942 C308.03,11.684 308.66,12.16 309.486,12.16 Z M324.312,13 L322.842,13 L322.842,12.076 C322.324,12.748 321.554,13.168 320.672,13.168 C318.95,13.168 317.676,11.852 317.676,9.612 C317.676,7.428 318.936,6.07 320.672,6.07 C321.526,6.07 322.31,6.448 322.842,7.176 L322.842,3.662 L324.312,3.662 L324.312,13 Z M321.106,11.866 C321.792,11.866 322.52,11.46 322.842,10.956 L322.842,8.282 C322.52,7.778 321.792,7.372 321.106,7.372 C319.93,7.372 319.188,8.31 319.188,9.612 C319.188,10.928 319.93,11.866 321.106,11.866 Z M331.83,13 L330.36,13 L330.36,12.258 C329.856,12.846 329.058,13.168 328.162,13.168 C327.07,13.168 325.824,12.412 325.824,10.928 C325.824,9.36 327.056,8.716 328.162,8.716 C329.086,8.716 329.856,9.01 330.36,9.584 L330.36,8.576 C330.36,7.792 329.702,7.316 328.778,7.316 C328.022,7.316 327.35,7.596 326.776,8.184 L326.16,7.162 C326.944,6.406 327.924,6.07 329.002,6.07 C330.514,6.07 331.83,6.7 331.83,8.506 L331.83,13 Z M328.75,12.16 C329.38,12.16 330.01,11.922 330.36,11.46 L330.36,10.424 C330.01,9.962 329.38,9.724 328.75,9.724 C327.924,9.724 327.294,10.214 327.294,10.942 C327.294,11.684 327.924,12.16 328.75,12.16 Z M333.454,15.646 L333.664,14.33 C333.818,14.4 334.056,14.442 334.224,14.442 C334.7,14.442 335.008,14.302 335.204,13.854 L335.54,13.084 L332.754,6.238 L334.336,6.238 L336.31,11.306 L338.284,6.238 L339.852,6.238 L336.59,14.218 C336.128,15.366 335.33,15.73 334.28,15.744 C334.07,15.744 333.65,15.702 333.454,15.646 Z M350.002,13 L348.532,13 L348.532,12.258 C348.028,12.846 347.23,13.168 346.334,13.168 C345.242,13.168 343.996,12.412 343.996,10.928 C343.996,9.36 345.228,8.716 346.334,8.716 C347.258,8.716 348.028,9.01 348.532,9.584 L348.532,8.576 C348.532,7.792 347.874,7.316 346.95,7.316 C346.194,7.316 345.522,7.596 344.948,8.184 L344.332,7.162 C345.116,6.406 346.096,6.07 347.174,6.07 C348.686,6.07 350.002,6.7 350.002,8.506 L350.002,13 Z M346.922,12.16 C347.552,12.16 348.182,11.922 348.532,11.46 L348.532,10.424 C348.182,9.962 347.552,9.724 346.922,9.724 C346.096,9.724 345.466,10.214 345.466,10.942 C345.466,11.684 346.096,12.16 346.922,12.16 Z M354.664,15.744 C353.516,15.744 352.662,15.492 351.822,14.736 L352.508,13.672 C353.068,14.302 353.768,14.54 354.664,14.54 C355.63,14.54 356.666,14.092 356.666,12.65 L356.666,11.88 C356.148,12.566 355.378,13.014 354.496,13.014 C352.774,13.014 351.5,11.768 351.5,9.542 C351.5,7.344 352.746,6.07 354.496,6.07 C355.35,6.07 356.12,6.448 356.666,7.176 L356.666,6.238 L358.136,6.238 L358.136,12.65 C358.136,15.086 356.316,15.744 354.664,15.744 Z M354.93,11.698 C355.616,11.698 356.33,11.292 356.666,10.802 L356.666,8.268 C356.33,7.778 355.616,7.372 354.93,7.372 C353.754,7.372 353.012,8.24 353.012,9.542 C353.012,10.844 353.754,11.698 354.93,11.698 Z M363.106,13.168 C360.95,13.168 359.634,11.544 359.634,9.612 C359.634,7.666 360.95,6.07 363.106,6.07 C365.262,6.07 366.578,7.666 366.578,9.612 C366.578,11.544 365.262,13.168 363.106,13.168 Z M363.106,11.866 C364.366,11.866 365.052,10.816 365.052,9.612 C365.052,8.422 364.366,7.372 363.106,7.372 C361.86,7.372 361.16,8.422 361.16,9.612 C361.16,10.816 361.86,11.866 363.106,11.866 Z"/>
          <circle cx="288" cy="9" r="4" fill="#6FD350"/>
          <path fill="#01B2D0" fill-rule="nonzero" d="M12.8331659,8.01477569 C13.2077336,7.60083171 12.9105975,6.94370779 12.348854,6.94370779 L8.16444183,6.94370776 L10.1092948,0.839273991 C10.3193495,0.179517246 9.47153582,-0.29763087 9.0051023,0.217836309 L0.166834064,9.98522431 C-0.207733621,10.3991683 0.0894025115,11.0562922 0.651146022,11.0562922 L4.83279727,11.0562927 L2.89070519,17.160726 C2.68065048,17.8204828 3.52846418,18.2976309 3.9948977,17.7821637 L12.8331659,8.01477569 Z"/>
        </g>
      </g>
      <g transform="translate(36 98)">
        <path fill="#384254" fill-rule="nonzero" d="M32.408,13 L30.546,13 L29.86,11.194 L25.576,11.194 L24.89,13 L23.028,13 L26.696,3.662 L28.74,3.662 L32.408,13 Z M29.398,9.752 L27.718,5.3 L26.038,9.752 L29.398,9.752 Z M36.454,13.168 C34.41,13.168 32.968,11.656 32.968,9.612 C32.968,7.568 34.41,6.07 36.454,6.07 C37.784,6.07 38.568,6.63 39.044,7.274 L38.078,8.156 C37.7,7.624 37.182,7.372 36.524,7.372 C35.306,7.372 34.48,8.296 34.48,9.612 C34.48,10.928 35.306,11.866 36.524,11.866 C37.182,11.866 37.7,11.586 38.078,11.054 L39.044,11.964 C38.568,12.594 37.784,13.168 36.454,13.168 Z M43.426,13.168 C41.382,13.168 39.94,11.656 39.94,9.612 C39.94,7.568 41.382,6.07 43.426,6.07 C44.756,6.07 45.54,6.63 46.016,7.274 L45.05,8.156 C44.672,7.624 44.154,7.372 43.496,7.372 C42.278,7.372 41.452,8.296 41.452,9.612 C41.452,10.928 42.278,11.866 43.496,11.866 C44.154,11.866 44.672,11.586 45.05,11.054 L46.016,11.964 C45.54,12.594 44.756,13.168 43.426,13.168 Z M50.454,13.168 C48.41,13.168 46.912,11.754 46.912,9.612 C46.912,7.652 48.34,6.07 50.342,6.07 C52.372,6.07 53.66,7.61 53.66,9.738 L53.66,10.102 L48.452,10.102 C48.564,11.11 49.32,11.964 50.594,11.964 C51.266,11.964 52.036,11.698 52.526,11.208 L53.198,12.174 C52.512,12.818 51.518,13.168 50.454,13.168 Z M52.246,9.052 C52.204,8.254 51.658,7.274 50.328,7.274 C49.082,7.274 48.494,8.24 48.438,9.052 L52.246,9.052 Z M58.756,13.168 C57.902,13.168 57.146,12.776 56.586,12.062 L56.586,15.576 L55.116,15.576 L55.116,6.238 L56.586,6.238 L56.586,7.162 C57.09,6.49 57.874,6.07 58.756,6.07 C60.506,6.07 61.752,7.386 61.752,9.612 C61.752,11.838 60.506,13.168 58.756,13.168 Z M58.322,11.866 C59.484,11.866 60.24,10.928 60.24,9.612 C60.24,8.296 59.484,7.372 58.322,7.372 C57.636,7.372 56.922,7.764 56.586,8.268 L56.586,10.942 C56.908,11.446 57.636,11.866 58.322,11.866 Z M65.266,13.168 C64.118,13.168 63.53,12.552 63.53,11.418 L63.53,7.512 L62.41,7.512 L62.41,6.238 L63.53,6.238 L63.53,4.39 L65,4.39 L65,6.238 L66.372,6.238 L66.372,7.512 L65,7.512 L65,11.054 C65,11.516 65.224,11.866 65.644,11.866 C65.924,11.866 66.176,11.74 66.288,11.614 L66.638,12.734 C66.372,12.972 65.938,13.168 65.266,13.168 Z M70.824,13.168 C68.78,13.168 67.282,11.754 67.282,9.612 C67.282,7.652 68.71,6.07 70.712,6.07 C72.742,6.07 74.03,7.61 74.03,9.738 L74.03,10.102 L68.822,10.102 C68.934,11.11 69.69,11.964 70.964,11.964 C71.636,11.964 72.406,11.698 72.896,11.208 L73.568,12.174 C72.882,12.818 71.888,13.168 70.824,13.168 Z M72.616,9.052 C72.574,8.254 72.028,7.274 70.698,7.274 C69.452,7.274 68.864,8.24 68.808,9.052 L72.616,9.052 Z M81.716,13 L80.246,13 L80.246,12.076 C79.728,12.748 78.958,13.168 78.076,13.168 C76.354,13.168 75.08,11.852 75.08,9.612 C75.08,7.428 76.34,6.07 78.076,6.07 C78.93,6.07 79.714,6.448 80.246,7.176 L80.246,3.662 L81.716,3.662 L81.716,13 Z M78.51,11.866 C79.196,11.866 79.924,11.46 80.246,10.956 L80.246,8.282 C79.924,7.778 79.196,7.372 78.51,7.372 C77.334,7.372 76.592,8.31 76.592,9.612 C76.592,10.928 77.334,11.866 78.51,11.866 Z M87.974,5.412 C87.47,5.412 87.064,5.006 87.064,4.502 C87.064,3.998 87.47,3.592 87.974,3.592 C88.478,3.592 88.884,3.998 88.884,4.502 C88.884,5.006 88.478,5.412 87.974,5.412 Z M88.702,13 L87.232,13 L87.232,6.238 L88.702,6.238 L88.702,13 Z M96.654,13 L95.184,13 L95.184,8.772 C95.184,7.708 94.638,7.372 93.812,7.372 C93.07,7.372 92.426,7.82 92.076,8.268 L92.076,13 L90.606,13 L90.606,6.238 L92.076,6.238 L92.076,7.148 C92.524,6.616 93.406,6.07 94.47,6.07 C95.926,6.07 96.654,6.854 96.654,8.24 L96.654,13 Z M101.918,13 L100.336,13 L97.578,6.238 L99.16,6.238 L101.134,11.306 L103.108,6.238 L104.676,6.238 L101.918,13 Z M106.342,5.412 C105.838,5.412 105.432,5.006 105.432,4.502 C105.432,3.998 105.838,3.592 106.342,3.592 C106.846,3.592 107.252,3.998 107.252,4.502 C107.252,5.006 106.846,5.412 106.342,5.412 Z M107.07,13 L105.6,13 L105.6,6.238 L107.07,6.238 L107.07,13 Z M111.018,13.168 C109.87,13.168 109.282,12.552 109.282,11.418 L109.282,7.512 L108.162,7.512 L108.162,6.238 L109.282,6.238 L109.282,4.39 L110.752,4.39 L110.752,6.238 L112.124,6.238 L112.124,7.512 L110.752,7.512 L110.752,11.054 C110.752,11.516 110.976,11.866 111.396,11.866 C111.676,11.866 111.928,11.74 112.04,11.614 L112.39,12.734 C112.124,12.972 111.69,13.168 111.018,13.168 Z M116.576,13.168 C114.532,13.168 113.034,11.754 113.034,9.612 C113.034,7.652 114.462,6.07 116.464,6.07 C118.494,6.07 119.782,7.61 119.782,9.738 L119.782,10.102 L114.574,10.102 C114.686,11.11 115.442,11.964 116.716,11.964 C117.388,11.964 118.158,11.698 118.648,11.208 L119.32,12.174 C118.634,12.818 117.64,13.168 116.576,13.168 Z M118.368,9.052 C118.326,8.254 117.78,7.274 116.45,7.274 C115.204,7.274 114.616,8.24 114.56,9.052 L118.368,9.052 Z" opacity=".5"/>
        <path fill="#384254" fill-rule="nonzero" d="M164.326 13.168C161.694 13.168 160.588 10.676 160.588 8.338 160.588 5.986 161.694 3.522 164.326 3.522 166.944 3.522 168.05 5.986 168.05 8.338 168.05 10.676 166.944 13.168 164.326 13.168zM164.326 11.712C165.838 11.712 166.384 10.116 166.384 8.338 166.384 6.546 165.852 4.978 164.326 4.978 162.8 4.978 162.254 6.546 162.254 8.338 162.254 10.116 162.8 11.712 164.326 11.712zM309.864 13.168C308.212 13.168 306.98 12.496 306.336 11.656L307.232 10.578C307.834 11.278 308.814 11.712 309.808 11.712 311.04 11.712 311.754 11.138 311.754 10.284 311.754 9.36 311.026 8.954 309.682 8.954 309.29 8.954 308.758 8.968 308.618 8.982L308.618 7.498C308.772 7.512 309.318 7.512 309.682 7.512 310.788 7.512 311.614 7.134 311.614 6.28 311.614 5.426 310.76 4.978 309.724 4.978 308.758 4.978 307.974 5.328 307.302 6.014L306.462 4.992C307.19 4.138 308.324 3.522 309.878 3.522 311.894 3.522 313.238 4.474 313.238 6.028 313.238 7.288 312.174 8.016 311.222 8.17 312.118 8.268 313.392 8.996 313.392 10.438 313.392 12.034 312.034 13.168 309.864 13.168zM324.83 13L323.36 13 323.36 12.076C322.842 12.748 322.072 13.168 321.19 13.168 319.468 13.168 318.194 11.852 318.194 9.612 318.194 7.428 319.454 6.07 321.19 6.07 322.044 6.07 322.828 6.448 323.36 7.176L323.36 3.662 324.83 3.662 324.83 13zM321.624 11.866C322.31 11.866 323.038 11.46 323.36 10.956L323.36 8.282C323.038 7.778 322.31 7.372 321.624 7.372 320.448 7.372 319.706 8.31 319.706 9.612 319.706 10.928 320.448 11.866 321.624 11.866zM332.348 13L330.878 13 330.878 12.258C330.374 12.846 329.576 13.168 328.68 13.168 327.588 13.168 326.342 12.412 326.342 10.928 326.342 9.36 327.574 8.716 328.68 8.716 329.604 8.716 330.374 9.01 330.878 9.584L330.878 8.576C330.878 7.792 330.22 7.316 329.296 7.316 328.54 7.316 327.868 7.596 327.294 8.184L326.678 7.162C327.462 6.406 328.442 6.07 329.52 6.07 331.032 6.07 332.348 6.7 332.348 8.506L332.348 13zM329.268 12.16C329.898 12.16 330.528 11.922 330.878 11.46L330.878 10.424C330.528 9.962 329.898 9.724 329.268 9.724 328.442 9.724 327.812 10.214 327.812 10.942 327.812 11.684 328.442 12.16 329.268 12.16zM333.972 15.646L334.182 14.33C334.336 14.4 334.574 14.442 334.742 14.442 335.218 14.442 335.526 14.302 335.722 13.854L336.058 13.084 333.272 6.238 334.854 6.238 336.828 11.306 338.802 6.238 340.37 6.238 337.108 14.218C336.646 15.366 335.848 15.73 334.798 15.744 334.588 15.744 334.168 15.702 333.972 15.646zM343.618 13.168C342.456 13.168 341.42 12.79 340.72 12.104L341.392 11.054C341.868 11.544 342.806 11.992 343.674 11.992 344.556 11.992 345.018 11.628 345.018 11.096 345.018 9.766 340.93 10.718 340.93 8.114 340.93 7.008 341.882 6.07 343.59 6.07 344.738 6.07 345.606 6.476 346.208 7.008L345.592 8.044C345.186 7.596 344.444 7.232 343.59 7.232 342.82 7.232 342.344 7.596 342.344 8.072 342.344 9.262 346.432 8.366 346.432 11.054 346.432 12.258 345.438 13.168 343.618 13.168zM357.128 13L355.658 13 355.658 12.258C355.154 12.846 354.356 13.168 353.46 13.168 352.368 13.168 351.122 12.412 351.122 10.928 351.122 9.36 352.354 8.716 353.46 8.716 354.384 8.716 355.154 9.01 355.658 9.584L355.658 8.576C355.658 7.792 355 7.316 354.076 7.316 353.32 7.316 352.648 7.596 352.074 8.184L351.458 7.162C352.242 6.406 353.222 6.07 354.3 6.07 355.812 6.07 357.128 6.7 357.128 8.506L357.128 13zM354.048 12.16C354.678 12.16 355.308 11.922 355.658 11.46L355.658 10.424C355.308 9.962 354.678 9.724 354.048 9.724 353.222 9.724 352.592 10.214 352.592 10.942 352.592 11.684 353.222 12.16 354.048 12.16zM361.79 15.744C360.642 15.744 359.788 15.492 358.948 14.736L359.634 13.672C360.194 14.302 360.894 14.54 361.79 14.54 362.756 14.54 363.792 14.092 363.792 12.65L363.792 11.88C363.274 12.566 362.504 13.014 361.622 13.014 359.9 13.014 358.626 11.768 358.626 9.542 358.626 7.344 359.872 6.07 361.622 6.07 362.476 6.07 363.246 6.448 363.792 7.176L363.792 6.238 365.262 6.238 365.262 12.65C365.262 15.086 363.442 15.744 361.79 15.744zM362.056 11.698C362.742 11.698 363.456 11.292 363.792 10.802L363.792 8.268C363.456 7.778 362.742 7.372 362.056 7.372 360.88 7.372 360.138 8.24 360.138 9.542 360.138 10.844 360.88 11.698 362.056 11.698zM370.232 13.168C368.076 13.168 366.76 11.544 366.76 9.612 366.76 7.666 368.076 6.07 370.232 6.07 372.388 6.07 373.704 7.666 373.704 9.612 373.704 11.544 372.388 13.168 370.232 13.168zM370.232 11.866C371.492 11.866 372.178 10.816 372.178 9.612 372.178 8.422 371.492 7.372 370.232 7.372 368.986 7.372 368.286 8.422 368.286 9.612 368.286 10.816 368.986 11.866 370.232 11.866z"/>
        <circle cx="288" cy="11" r="4" fill="#6FD350"/>
        <path fill="#01B2D0" fill-rule="nonzero" d="M12.8331659,8.01477569 C13.2077336,7.60083171 12.9105975,6.94370779 12.348854,6.94370779 L8.16444183,6.94370776 L10.1092948,0.839273991 C10.3193495,0.179517246 9.47153582,-0.29763087 9.0051023,0.217836309 L0.166834064,9.98522431 C-0.207733621,10.3991683 0.0894025115,11.0562922 0.651146022,11.0562922 L4.83279727,11.0562927 L2.89070519,17.160726 C2.68065048,17.8204828 3.52846418,18.2976309 3.9948977,17.7821637 L12.8331659,8.01477569 Z"/>
      </g>
    </g>
    <g transform="translate(115 270)">
      <use fill="#000" filter="url(#event-manager-2-c)" xlink:href="#event-manager-2-d"/>
      <use fill="#FFF" stroke="#8D8D8D" stroke-opacity=".24" xlink:href="#event-manager-2-d"/>
      <g transform="translate(24 101)">
        <rect width="330" height="1" y="41" fill="#E1E1E1"/>
        <path fill="#FFF" stroke="#E1E1E1" d="M0.5,41.5 L303.5,41.5 L303.5,4 C303.5,2.06700338 301.932997,0.5 300,0.5 L4,0.5 C2.06700338,0.5 0.5,2.06700338 0.5,4 L0.5,41.5 Z"/>
        <path fill="#384254" fill-rule="nonzero" d="M20.232 25L18.328 25 16.27 21.514 14.632 21.514 14.632 25 12.994 25 12.994 15.662 17.096 15.662C18.944 15.662 20.162 16.852 20.162 18.588 20.162 20.24 19.07 21.15 17.936 21.332L20.232 25zM16.886 20.072C17.81 20.072 18.482 19.484 18.482 18.574 18.482 17.678 17.81 17.104 16.886 17.104L14.632 17.104 14.632 20.072 16.886 20.072zM24.474 25.168C22.43 25.168 20.932 23.754 20.932 21.612 20.932 19.652 22.36 18.07 24.362 18.07 26.392 18.07 27.68 19.61 27.68 21.738L27.68 22.102 22.472 22.102C22.584 23.11 23.34 23.964 24.614 23.964 25.286 23.964 26.056 23.698 26.546 23.208L27.218 24.174C26.532 24.818 25.538 25.168 24.474 25.168zM26.266 21.052C26.224 20.254 25.678 19.274 24.348 19.274 23.102 19.274 22.514 20.24 22.458 21.052L26.266 21.052zM32.216 25.168C30.172 25.168 28.73 23.656 28.73 21.612 28.73 19.568 30.172 18.07 32.216 18.07 33.546 18.07 34.33 18.63 34.806 19.274L33.84 20.156C33.462 19.624 32.944 19.372 32.286 19.372 31.068 19.372 30.242 20.296 30.242 21.612 30.242 22.928 31.068 23.866 32.286 23.866 32.944 23.866 33.462 23.586 33.84 23.054L34.806 23.964C34.33 24.594 33.546 25.168 32.216 25.168zM39.244 25.168C37.2 25.168 35.702 23.754 35.702 21.612 35.702 19.652 37.13 18.07 39.132 18.07 41.162 18.07 42.45 19.61 42.45 21.738L42.45 22.102 37.242 22.102C37.354 23.11 38.11 23.964 39.384 23.964 40.056 23.964 40.826 23.698 41.316 23.208L41.988 24.174C41.302 24.818 40.308 25.168 39.244 25.168zM41.036 21.052C40.994 20.254 40.448 19.274 39.118 19.274 37.872 19.274 37.284 20.24 37.228 21.052L41.036 21.052zM49.954 25L48.484 25 48.484 20.772C48.484 19.708 47.938 19.372 47.112 19.372 46.37 19.372 45.726 19.82 45.376 20.268L45.376 25 43.906 25 43.906 18.238 45.376 18.238 45.376 19.148C45.824 18.616 46.706 18.07 47.77 18.07 49.226 18.07 49.954 18.854 49.954 20.24L49.954 25zM53.902 25.168C52.754 25.168 52.166 24.552 52.166 23.418L52.166 19.512 51.046 19.512 51.046 18.238 52.166 18.238 52.166 16.39 53.636 16.39 53.636 18.238 55.008 18.238 55.008 19.512 53.636 19.512 53.636 23.054C53.636 23.516 53.86 23.866 54.28 23.866 54.56 23.866 54.812 23.74 54.924 23.614L55.274 24.734C55.008 24.972 54.574 25.168 53.902 25.168zM79.632 25L77.994 25 77.994 15.662 82.11 15.662C84.07 15.662 85.148 16.992 85.148 18.588 85.148 20.17 84.056 21.5 82.11 21.5L79.632 21.5 79.632 25zM81.886 20.058C82.81 20.058 83.468 19.47 83.468 18.588 83.468 17.692 82.81 17.104 81.886 17.104L79.632 17.104 79.632 20.058 81.886 20.058zM87.948 25L86.478 25 86.478 18.238 87.948 18.238 87.948 19.218C88.466 18.574 89.278 18.07 90.146 18.07L90.146 19.526C90.02 19.498 89.88 19.484 89.698 19.484 89.068 19.484 88.242 19.904 87.948 20.394L87.948 25zM94.402 25.168C92.246 25.168 90.93 23.544 90.93 21.612 90.93 19.666 92.246 18.07 94.402 18.07 96.558 18.07 97.874 19.666 97.874 21.612 97.874 23.544 96.558 25.168 94.402 25.168zM94.402 23.866C95.662 23.866 96.348 22.816 96.348 21.612 96.348 20.422 95.662 19.372 94.402 19.372 93.156 19.372 92.456 20.422 92.456 21.612 92.456 22.816 93.156 23.866 94.402 23.866zM103.012 25.168C102.158 25.168 101.402 24.776 100.842 24.062L100.842 27.576 99.372 27.576 99.372 18.238 100.842 18.238 100.842 19.162C101.346 18.49 102.13 18.07 103.012 18.07 104.762 18.07 106.008 19.386 106.008 21.612 106.008 23.838 104.762 25.168 103.012 25.168zM102.578 23.866C103.74 23.866 104.496 22.928 104.496 21.612 104.496 20.296 103.74 19.372 102.578 19.372 101.892 19.372 101.178 19.764 100.842 20.268L100.842 22.942C101.164 23.446 101.892 23.866 102.578 23.866zM110.614 25.168C108.57 25.168 107.072 23.754 107.072 21.612 107.072 19.652 108.5 18.07 110.502 18.07 112.532 18.07 113.82 19.61 113.82 21.738L113.82 22.102 108.612 22.102C108.724 23.11 109.48 23.964 110.754 23.964 111.426 23.964 112.196 23.698 112.686 23.208L113.358 24.174C112.672 24.818 111.678 25.168 110.614 25.168zM112.406 21.052C112.364 20.254 111.818 19.274 110.488 19.274 109.242 19.274 108.654 20.24 108.598 21.052L112.406 21.052zM116.746 25L115.276 25 115.276 18.238 116.746 18.238 116.746 19.218C117.264 18.574 118.076 18.07 118.944 18.07L118.944 19.526C118.818 19.498 118.678 19.484 118.496 19.484 117.866 19.484 117.04 19.904 116.746 20.394L116.746 25zM122.178 25.168C121.03 25.168 120.442 24.552 120.442 23.418L120.442 19.512 119.322 19.512 119.322 18.238 120.442 18.238 120.442 16.39 121.912 16.39 121.912 18.238 123.284 18.238 123.284 19.512 121.912 19.512 121.912 23.054C121.912 23.516 122.136 23.866 122.556 23.866 122.836 23.866 123.088 23.74 123.2 23.614L123.55 24.734C123.284 24.972 122.85 25.168 122.178 25.168zM125.342 17.412C124.838 17.412 124.432 17.006 124.432 16.502 124.432 15.998 124.838 15.592 125.342 15.592 125.846 15.592 126.252 15.998 126.252 16.502 126.252 17.006 125.846 17.412 125.342 17.412zM126.07 25L124.6 25 124.6 18.238 126.07 18.238 126.07 25zM131.11 25.168C129.066 25.168 127.568 23.754 127.568 21.612 127.568 19.652 128.996 18.07 130.998 18.07 133.028 18.07 134.316 19.61 134.316 21.738L134.316 22.102 129.108 22.102C129.22 23.11 129.976 23.964 131.25 23.964 131.922 23.964 132.692 23.698 133.182 23.208L133.854 24.174C133.168 24.818 132.174 25.168 131.11 25.168zM132.902 21.052C132.86 20.254 132.314 19.274 130.984 19.274 129.738 19.274 129.15 20.24 129.094 21.052L132.902 21.052zM138.096 25.168C136.934 25.168 135.898 24.79 135.198 24.104L135.87 23.054C136.346 23.544 137.284 23.992 138.152 23.992 139.034 23.992 139.496 23.628 139.496 23.096 139.496 21.766 135.408 22.718 135.408 20.114 135.408 19.008 136.36 18.07 138.068 18.07 139.216 18.07 140.084 18.476 140.686 19.008L140.07 20.044C139.664 19.596 138.922 19.232 138.068 19.232 137.298 19.232 136.822 19.596 136.822 20.072 136.822 21.262 140.91 20.366 140.91 23.054 140.91 24.258 139.916 25.168 138.096 25.168zM168.488 25.168C165.73 25.168 163.588 23.208 163.588 20.338 163.588 17.454 165.73 15.508 168.488 15.508 170.364 15.508 171.54 16.474 172.226 17.594L170.84 18.322C170.392 17.538 169.482 16.964 168.488 16.964 166.64 16.964 165.268 18.364 165.268 20.338 165.268 22.284 166.64 23.712 168.488 23.712 169.482 23.712 170.392 23.124 170.84 22.354L172.24 23.054C171.526 24.174 170.364 25.168 168.488 25.168zM179.114 25L177.644 25 177.644 24.258C177.14 24.846 176.342 25.168 175.446 25.168 174.354 25.168 173.108 24.412 173.108 22.928 173.108 21.36 174.34 20.716 175.446 20.716 176.37 20.716 177.14 21.01 177.644 21.584L177.644 20.576C177.644 19.792 176.986 19.316 176.062 19.316 175.306 19.316 174.634 19.596 174.06 20.184L173.444 19.162C174.228 18.406 175.208 18.07 176.286 18.07 177.798 18.07 179.114 18.7 179.114 20.506L179.114 25zM176.034 24.16C176.664 24.16 177.294 23.922 177.644 23.46L177.644 22.424C177.294 21.962 176.664 21.724 176.034 21.724 175.208 21.724 174.578 22.214 174.578 22.942 174.578 23.684 175.208 24.16 176.034 24.16zM190.79 25L189.32 25 189.32 20.59C189.32 19.862 188.998 19.372 188.2 19.372 187.542 19.372 186.926 19.82 186.632 20.268L186.632 25 185.162 25 185.162 20.59C185.162 19.862 184.854 19.372 184.056 19.372 183.398 19.372 182.796 19.834 182.488 20.268L182.488 25 181.018 25 181.018 18.238 182.488 18.238 182.488 19.148C182.782 18.742 183.664 18.07 184.7 18.07 185.708 18.07 186.324 18.574 186.548 19.302 186.926 18.7 187.822 18.07 188.844 18.07 190.076 18.07 190.79 18.742 190.79 20.114L190.79 25zM196.334 25.168C195.48 25.168 194.724 24.776 194.164 24.062L194.164 27.576 192.694 27.576 192.694 18.238 194.164 18.238 194.164 19.162C194.668 18.49 195.452 18.07 196.334 18.07 198.084 18.07 199.33 19.386 199.33 21.612 199.33 23.838 198.084 25.168 196.334 25.168zM195.9 23.866C197.062 23.866 197.818 22.928 197.818 21.612 197.818 20.296 197.062 19.372 195.9 19.372 195.214 19.372 194.5 19.764 194.164 20.268L194.164 22.942C194.486 23.446 195.214 23.866 195.9 23.866zM206.414 25L204.944 25 204.944 24.258C204.44 24.846 203.642 25.168 202.746 25.168 201.654 25.168 200.408 24.412 200.408 22.928 200.408 21.36 201.64 20.716 202.746 20.716 203.67 20.716 204.44 21.01 204.944 21.584L204.944 20.576C204.944 19.792 204.286 19.316 203.362 19.316 202.606 19.316 201.934 19.596 201.36 20.184L200.744 19.162C201.528 18.406 202.508 18.07 203.586 18.07 205.098 18.07 206.414 18.7 206.414 20.506L206.414 25zM203.334 24.16C203.964 24.16 204.594 23.922 204.944 23.46L204.944 22.424C204.594 21.962 203.964 21.724 203.334 21.724 202.508 21.724 201.878 22.214 201.878 22.942 201.878 23.684 202.508 24.16 203.334 24.16zM209.06 17.412C208.556 17.412 208.15 17.006 208.15 16.502 208.15 15.998 208.556 15.592 209.06 15.592 209.564 15.592 209.97 15.998 209.97 16.502 209.97 17.006 209.564 17.412 209.06 17.412zM209.788 25L208.318 25 208.318 18.238 209.788 18.238 209.788 25zM214.45 27.744C213.302 27.744 212.448 27.492 211.608 26.736L212.294 25.672C212.854 26.302 213.554 26.54 214.45 26.54 215.416 26.54 216.452 26.092 216.452 24.65L216.452 23.88C215.934 24.566 215.164 25.014 214.282 25.014 212.56 25.014 211.286 23.768 211.286 21.542 211.286 19.344 212.532 18.07 214.282 18.07 215.136 18.07 215.906 18.448 216.452 19.176L216.452 18.238 217.922 18.238 217.922 24.65C217.922 27.086 216.102 27.744 214.45 27.744zM214.716 23.698C215.402 23.698 216.116 23.292 216.452 22.802L216.452 20.268C216.116 19.778 215.402 19.372 214.716 19.372 213.54 19.372 212.798 20.24 212.798 21.542 212.798 22.844 213.54 23.698 214.716 23.698zM225.874 25L224.404 25 224.404 20.772C224.404 19.708 223.858 19.372 223.032 19.372 222.29 19.372 221.646 19.82 221.296 20.268L221.296 25 219.826 25 219.826 18.238 221.296 18.238 221.296 19.148C221.744 18.616 222.626 18.07 223.69 18.07 225.146 18.07 225.874 18.854 225.874 20.24L225.874 25zM230.102 25.168C228.94 25.168 227.904 24.79 227.204 24.104L227.876 23.054C228.352 23.544 229.29 23.992 230.158 23.992 231.04 23.992 231.502 23.628 231.502 23.096 231.502 21.766 227.414 22.718 227.414 20.114 227.414 19.008 228.366 18.07 230.074 18.07 231.222 18.07 232.09 18.476 232.692 19.008L232.076 20.044C231.67 19.596 230.928 19.232 230.074 19.232 229.304 19.232 228.828 19.596 228.828 20.072 228.828 21.262 232.916 20.366 232.916 23.054 232.916 24.258 231.922 25.168 230.102 25.168zM259.2 25.168C257.478 25.168 256.232 24.552 255.392 23.684L256.316 22.41C256.946 23.096 257.968 23.712 259.27 23.712 260.614 23.712 261.132 23.054 261.132 22.424 261.132 20.464 255.7 21.682 255.7 18.252 255.7 16.698 257.044 15.508 259.102 15.508 260.544 15.508 261.734 15.984 262.588 16.824L261.664 18.042C260.922 17.3 259.928 16.964 258.948 16.964 257.996 16.964 257.38 17.44 257.38 18.126 257.38 19.876 262.812 18.798 262.812 22.27 262.812 23.824 261.706 25.168 259.2 25.168zM267.404 25.168C265.36 25.168 263.862 23.754 263.862 21.612 263.862 19.652 265.29 18.07 267.292 18.07 269.322 18.07 270.61 19.61 270.61 21.738L270.61 22.102 265.402 22.102C265.514 23.11 266.27 23.964 267.544 23.964 268.216 23.964 268.986 23.698 269.476 23.208L270.148 24.174C269.462 24.818 268.468 25.168 267.404 25.168zM269.196 21.052C269.154 20.254 268.608 19.274 267.278 19.274 266.032 19.274 265.444 20.24 265.388 21.052L269.196 21.052zM274.11 25.168C272.962 25.168 272.374 24.552 272.374 23.418L272.374 19.512 271.254 19.512 271.254 18.238 272.374 18.238 272.374 16.39 273.844 16.39 273.844 18.238 275.216 18.238 275.216 19.512 273.844 19.512 273.844 23.054C273.844 23.516 274.068 23.866 274.488 23.866 274.768 23.866 275.02 23.74 275.132 23.614L275.482 24.734C275.216 24.972 274.782 25.168 274.11 25.168zM282.566 25L281.096 25 281.096 24.104C280.62 24.636 279.78 25.168 278.716 25.168 277.26 25.168 276.532 24.398 276.532 23.026L276.532 18.238 278.002 18.238 278.002 22.48C278.002 23.53 278.534 23.866 279.374 23.866 280.116 23.866 280.76 23.432 281.096 22.984L281.096 18.238 282.566 18.238 282.566 25zM288.11 25.168C287.256 25.168 286.5 24.776 285.94 24.062L285.94 27.576 284.47 27.576 284.47 18.238 285.94 18.238 285.94 19.162C286.444 18.49 287.228 18.07 288.11 18.07 289.86 18.07 291.106 19.386 291.106 21.612 291.106 23.838 289.86 25.168 288.11 25.168zM287.676 23.866C288.838 23.866 289.594 22.928 289.594 21.612 289.594 20.296 288.838 19.372 287.676 19.372 286.99 19.372 286.276 19.764 285.94 20.268L285.94 22.942C286.262 23.446 286.99 23.866 287.676 23.866z"/>
        <rect width="85" height="1" x="65" y="41" fill="#FFF"/>
        <rect width="1" height="42" x="64" fill="#D8D8D8"/>
        <rect width="1" height="42" x="150" fill="#D8D8D8"/>
        <rect width="1" height="42" x="242" fill="#D8D8D8"/>
      </g>
      <g fill="#384254" fill-rule="nonzero" transform="translate(24 167)">
        <path d="M2.256 11L.852 11 .852 2.996 4.38 2.996C6.06 2.996 6.984 4.136 6.984 5.504 6.984 6.86 6.048 8 4.38 8L2.256 8 2.256 11zM4.188 6.764C4.98 6.764 5.544 6.26 5.544 5.504 5.544 4.736 4.98 4.232 4.188 4.232L2.256 4.232 2.256 6.764 4.188 6.764zM14.364 11L12.732 11 10.968 8.012 9.564 8.012 9.564 11 8.16 11 8.16 2.996 11.676 2.996C13.26 2.996 14.304 4.016 14.304 5.504 14.304 6.92 13.368 7.7 12.396 7.856L14.364 11zM11.496 6.776C12.288 6.776 12.864 6.272 12.864 5.492 12.864 4.724 12.288 4.232 11.496 4.232L9.564 4.232 9.564 6.776 11.496 6.776zM19.452 11.144C17.052 11.144 15.36 9.392 15.36 7.004 15.36 4.616 17.052 2.864 19.452 2.864 21.84 2.864 23.544 4.616 23.544 7.004 23.544 9.392 21.84 11.144 19.452 11.144zM19.452 9.896C21.06 9.896 22.104 8.648 22.104 7.004 22.104 5.348 21.06 4.112 19.452 4.112 17.832 4.112 16.8 5.348 16.8 7.004 16.8 8.648 17.832 9.896 19.452 9.896zM26.292 11L24.888 11 24.888 2.996 28.416 2.996C30.096 2.996 31.02 4.136 31.02 5.504 31.02 6.86 30.084 8 28.416 8L26.292 8 26.292 11zM28.224 6.764C29.016 6.764 29.58 6.26 29.58 5.504 29.58 4.736 29.016 4.232 28.224 4.232L26.292 4.232 26.292 6.764 28.224 6.764zM37.68 11L32.196 11 32.196 2.996 37.68 2.996 37.68 4.232 33.6 4.232 33.6 6.296 37.596 6.296 37.596 7.532 33.6 7.532 33.6 9.764 37.68 9.764 37.68 11zM45.324 11L43.692 11 41.928 8.012 40.524 8.012 40.524 11 39.12 11 39.12 2.996 42.636 2.996C44.22 2.996 45.264 4.016 45.264 5.504 45.264 6.92 44.328 7.7 43.356 7.856L45.324 11zM42.456 6.776C43.248 6.776 43.824 6.272 43.824 5.492 43.824 4.724 43.248 4.232 42.456 4.232L40.524 4.232 40.524 6.776 42.456 6.776zM49.86 11L48.456 11 48.456 4.232 46.032 4.232 46.032 2.996 52.284 2.996 52.284 4.232 49.86 4.232 49.86 11zM57.156 11L55.752 11 55.752 7.676 52.644 2.996 54.252 2.996 56.448 6.416 58.644 2.996 60.252 2.996 57.156 7.676 57.156 11zM186.336 11L180.852 11 180.852 2.996 186.336 2.996 186.336 4.232 182.256 4.232 182.256 6.296 186.252 6.296 186.252 7.532 182.256 7.532 182.256 9.764 186.336 9.764 186.336 11zM194.82 11L193.14 11 190.896 7.868 188.652 11 186.972 11 189.96 6.896 187.152 2.996 188.832 2.996 190.896 5.924 192.948 2.996 194.64 2.996 191.82 6.884 194.82 11zM202.92 11L201.324 11 200.736 9.452 197.064 9.452 196.476 11 194.88 11 198.024 2.996 199.776 2.996 202.92 11zM200.34 8.216L198.9 4.4 197.46 8.216 200.34 8.216zM212.1 11L210.696 11 210.696 4.82 208.248 11 207.648 11 205.188 4.82 205.188 11 203.784 11 203.784 2.996 205.764 2.996 207.948 8.492 210.12 2.996 212.1 2.996 212.1 11zM215.208 11L213.804 11 213.804 2.996 217.332 2.996C219.012 2.996 219.936 4.136 219.936 5.504 219.936 6.86 219 8 217.332 8L215.208 8 215.208 11zM217.14 6.764C217.932 6.764 218.496 6.26 218.496 5.504 218.496 4.736 217.932 4.232 217.14 4.232L215.208 4.232 215.208 6.764 217.14 6.764zM225.948 11L221.016 11 221.016 2.996 222.42 2.996 222.42 9.764 225.948 9.764 225.948 11zM232.668 11L227.184 11 227.184 2.996 232.668 2.996 232.668 4.232 228.588 4.232 228.588 6.296 232.584 6.296 232.584 7.532 228.588 7.532 228.588 9.764 232.668 9.764 232.668 11z" opacity=".5"/>
        <path d="M2.422 13L.952 13 .952 3.662 2.422 3.662 2.422 13zM9.94 13L8.47 13 8.47 12.258C7.966 12.846 7.168 13.168 6.272 13.168 5.18 13.168 3.934 12.412 3.934 10.928 3.934 9.36 5.166 8.716 6.272 8.716 7.196 8.716 7.966 9.01 8.47 9.584L8.47 8.576C8.47 7.792 7.812 7.316 6.888 7.316 6.132 7.316 5.46 7.596 4.886 8.184L4.27 7.162C5.054 6.406 6.034 6.07 7.112 6.07 8.624 6.07 9.94 6.7 9.94 8.506L9.94 13zM6.86 12.16C7.49 12.16 8.12 11.922 8.47 11.46L8.47 10.424C8.12 9.962 7.49 9.724 6.86 9.724 6.034 9.724 5.404 10.214 5.404 10.942 5.404 11.684 6.034 12.16 6.86 12.16zM14.168 13.168C13.006 13.168 11.97 12.79 11.27 12.104L11.942 11.054C12.418 11.544 13.356 11.992 14.224 11.992 15.106 11.992 15.568 11.628 15.568 11.096 15.568 9.766 11.48 10.718 11.48 8.114 11.48 7.008 12.432 6.07 14.14 6.07 15.288 6.07 16.156 6.476 16.758 7.008L16.142 8.044C15.736 7.596 14.994 7.232 14.14 7.232 13.37 7.232 12.894 7.596 12.894 8.072 12.894 9.262 16.982 8.366 16.982 11.054 16.982 12.258 15.988 13.168 14.168 13.168zM20.496 13.168C19.348 13.168 18.76 12.552 18.76 11.418L18.76 7.512 17.64 7.512 17.64 6.238 18.76 6.238 18.76 4.39 20.23 4.39 20.23 6.238 21.602 6.238 21.602 7.512 20.23 7.512 20.23 11.054C20.23 11.516 20.454 11.866 20.874 11.866 21.154 11.866 21.406 11.74 21.518 11.614L21.868 12.734C21.602 12.972 21.168 13.168 20.496 13.168zM29.904 14.568L21.924 14.568 21.924 13.56 29.904 13.56 29.904 14.568zM36.862 13L35.392 13 35.392 8.772C35.392 7.708 34.846 7.372 34.02 7.372 33.278 7.372 32.634 7.82 32.284 8.268L32.284 13 30.814 13 30.814 6.238 32.284 6.238 32.284 7.148C32.732 6.616 33.614 6.07 34.678 6.07 36.134 6.07 36.862 6.854 36.862 8.24L36.862 13zM44.38 13L42.91 13 42.91 12.258C42.406 12.846 41.608 13.168 40.712 13.168 39.62 13.168 38.374 12.412 38.374 10.928 38.374 9.36 39.606 8.716 40.712 8.716 41.636 8.716 42.406 9.01 42.91 9.584L42.91 8.576C42.91 7.792 42.252 7.316 41.328 7.316 40.572 7.316 39.9 7.596 39.326 8.184L38.71 7.162C39.494 6.406 40.474 6.07 41.552 6.07 43.064 6.07 44.38 6.7 44.38 8.506L44.38 13zM41.3 12.16C41.93 12.16 42.56 11.922 42.91 11.46L42.91 10.424C42.56 9.962 41.93 9.724 41.3 9.724 40.474 9.724 39.844 10.214 39.844 10.942 39.844 11.684 40.474 12.16 41.3 12.16zM56.056 13L54.586 13 54.586 8.59C54.586 7.862 54.264 7.372 53.466 7.372 52.808 7.372 52.192 7.82 51.898 8.268L51.898 13 50.428 13 50.428 8.59C50.428 7.862 50.12 7.372 49.322 7.372 48.664 7.372 48.062 7.834 47.754 8.268L47.754 13 46.284 13 46.284 6.238 47.754 6.238 47.754 7.148C48.048 6.742 48.93 6.07 49.966 6.07 50.974 6.07 51.59 6.574 51.814 7.302 52.192 6.7 53.088 6.07 54.11 6.07 55.342 6.07 56.056 6.742 56.056 8.114L56.056 13zM61.096 13.168C59.052 13.168 57.554 11.754 57.554 9.612 57.554 7.652 58.982 6.07 60.984 6.07 63.014 6.07 64.302 7.61 64.302 9.738L64.302 10.102 59.094 10.102C59.206 11.11 59.962 11.964 61.236 11.964 61.908 11.964 62.678 11.698 63.168 11.208L63.84 12.174C63.154 12.818 62.16 13.168 61.096 13.168zM62.888 9.052C62.846 8.254 62.3 7.274 60.97 7.274 59.724 7.274 59.136 8.24 59.08 9.052L62.888 9.052zM189.408 15L187.546 15 186.86 13.194 182.576 13.194 181.89 15 180.028 15 183.696 5.662 185.74 5.662 189.408 15zM186.398 11.752L184.718 7.3 183.038 11.752 186.398 11.752zM196.422 15L194.952 15 194.952 10.772C194.952 9.708 194.406 9.372 193.58 9.372 192.838 9.372 192.194 9.82 191.844 10.268L191.844 15 190.374 15 190.374 8.238 191.844 8.238 191.844 9.148C192.292 8.616 193.174 8.07 194.238 8.07 195.694 8.07 196.422 8.854 196.422 10.24L196.422 15zM204.374 15L202.904 15 202.904 10.772C202.904 9.708 202.358 9.372 201.532 9.372 200.79 9.372 200.146 9.82 199.796 10.268L199.796 15 198.326 15 198.326 8.238 199.796 8.238 199.796 9.148C200.244 8.616 201.126 8.07 202.19 8.07 203.646 8.07 204.374 8.854 204.374 10.24L204.374 15zM209.414 15.168C207.37 15.168 205.872 13.754 205.872 11.612 205.872 9.652 207.3 8.07 209.302 8.07 211.332 8.07 212.62 9.61 212.62 11.738L212.62 12.102 207.412 12.102C207.524 13.11 208.28 13.964 209.554 13.964 210.226 13.964 210.996 13.698 211.486 13.208L212.158 14.174C211.472 14.818 210.478 15.168 209.414 15.168zM211.206 11.052C211.164 10.254 210.618 9.274 209.288 9.274 208.042 9.274 207.454 10.24 207.398 11.052L211.206 11.052zM216.12 15.168C214.972 15.168 214.384 14.552 214.384 13.418L214.384 9.512 213.264 9.512 213.264 8.238 214.384 8.238 214.384 6.39 215.854 6.39 215.854 8.238 217.226 8.238 217.226 9.512 215.854 9.512 215.854 13.054C215.854 13.516 216.078 13.866 216.498 13.866 216.778 13.866 217.03 13.74 217.142 13.614L217.492 14.734C217.226 14.972 216.792 15.168 216.12 15.168zM220.586 15.168C219.438 15.168 218.85 14.552 218.85 13.418L218.85 9.512 217.73 9.512 217.73 8.238 218.85 8.238 218.85 6.39 220.32 6.39 220.32 8.238 221.692 8.238 221.692 9.512 220.32 9.512 220.32 13.054C220.32 13.516 220.544 13.866 220.964 13.866 221.244 13.866 221.496 13.74 221.608 13.614L221.958 14.734C221.692 14.972 221.258 15.168 220.586 15.168zM228.622 15L227.152 15 227.152 14.258C226.648 14.846 225.85 15.168 224.954 15.168 223.862 15.168 222.616 14.412 222.616 12.928 222.616 11.36 223.848 10.716 224.954 10.716 225.878 10.716 226.648 11.01 227.152 11.584L227.152 10.576C227.152 9.792 226.494 9.316 225.57 9.316 224.814 9.316 224.142 9.596 223.568 10.184L222.952 9.162C223.736 8.406 224.716 8.07 225.794 8.07 227.306 8.07 228.622 8.7 228.622 10.506L228.622 15zM225.542 14.16C226.172 14.16 226.802 13.922 227.152 13.46L227.152 12.424C226.802 11.962 226.172 11.724 225.542 11.724 224.716 11.724 224.086 12.214 224.086 12.942 224.086 13.684 224.716 14.16 225.542 14.16z" transform="translate(0 30)"/>
        <path d="M2.786 13L1.316 13 1.316 7.512.196 7.512.196 6.238 1.316 6.238 1.316 5.86C1.316 4.348 2.212 3.522 3.444 3.522 3.92 3.522 4.326 3.606 4.634 3.774L4.312 4.88C4.158 4.782 3.962 4.726 3.724 4.726 3.136 4.726 2.786 5.104 2.786 5.86L2.786 6.238 4.158 6.238 4.158 7.512 2.786 7.512 2.786 13zM6.02 5.412C5.516 5.412 5.11 5.006 5.11 4.502 5.11 3.998 5.516 3.592 6.02 3.592 6.524 3.592 6.93 3.998 6.93 4.502 6.93 5.006 6.524 5.412 6.02 5.412zM6.748 13L5.278 13 5.278 6.238 6.748 6.238 6.748 13zM10.122 13L8.652 13 8.652 6.238 10.122 6.238 10.122 7.218C10.64 6.574 11.452 6.07 12.32 6.07L12.32 7.526C12.194 7.498 12.054 7.484 11.872 7.484 11.242 7.484 10.416 7.904 10.122 8.394L10.122 13zM15.834 13.168C14.672 13.168 13.636 12.79 12.936 12.104L13.608 11.054C14.084 11.544 15.022 11.992 15.89 11.992 16.772 11.992 17.234 11.628 17.234 11.096 17.234 9.766 13.146 10.718 13.146 8.114 13.146 7.008 14.098 6.07 15.806 6.07 16.954 6.07 17.822 6.476 18.424 7.008L17.808 8.044C17.402 7.596 16.66 7.232 15.806 7.232 15.036 7.232 14.56 7.596 14.56 8.072 14.56 9.262 18.648 8.366 18.648 11.054 18.648 12.258 17.654 13.168 15.834 13.168zM22.162 13.168C21.014 13.168 20.426 12.552 20.426 11.418L20.426 7.512 19.306 7.512 19.306 6.238 20.426 6.238 20.426 4.39 21.896 4.39 21.896 6.238 23.268 6.238 23.268 7.512 21.896 7.512 21.896 11.054C21.896 11.516 22.12 11.866 22.54 11.866 22.82 11.866 23.072 11.74 23.184 11.614L23.534 12.734C23.268 12.972 22.834 13.168 22.162 13.168zM31.57 14.568L23.59 14.568 23.59 13.56 31.57 13.56 31.57 14.568zM38.528 13L37.058 13 37.058 8.772C37.058 7.708 36.512 7.372 35.686 7.372 34.944 7.372 34.3 7.82 33.95 8.268L33.95 13 32.48 13 32.48 6.238 33.95 6.238 33.95 7.148C34.398 6.616 35.28 6.07 36.344 6.07 37.8 6.07 38.528 6.854 38.528 8.24L38.528 13zM46.046 13L44.576 13 44.576 12.258C44.072 12.846 43.274 13.168 42.378 13.168 41.286 13.168 40.04 12.412 40.04 10.928 40.04 9.36 41.272 8.716 42.378 8.716 43.302 8.716 44.072 9.01 44.576 9.584L44.576 8.576C44.576 7.792 43.918 7.316 42.994 7.316 42.238 7.316 41.566 7.596 40.992 8.184L40.376 7.162C41.16 6.406 42.14 6.07 43.218 6.07 44.73 6.07 46.046 6.7 46.046 8.506L46.046 13zM42.966 12.16C43.596 12.16 44.226 11.922 44.576 11.46L44.576 10.424C44.226 9.962 43.596 9.724 42.966 9.724 42.14 9.724 41.51 10.214 41.51 10.942 41.51 11.684 42.14 12.16 42.966 12.16zM57.722 13L56.252 13 56.252 8.59C56.252 7.862 55.93 7.372 55.132 7.372 54.474 7.372 53.858 7.82 53.564 8.268L53.564 13 52.094 13 52.094 8.59C52.094 7.862 51.786 7.372 50.988 7.372 50.33 7.372 49.728 7.834 49.42 8.268L49.42 13 47.95 13 47.95 6.238 49.42 6.238 49.42 7.148C49.714 6.742 50.596 6.07 51.632 6.07 52.64 6.07 53.256 6.574 53.48 7.302 53.858 6.7 54.754 6.07 55.776 6.07 57.008 6.07 57.722 6.742 57.722 8.114L57.722 13zM62.762 13.168C60.718 13.168 59.22 11.754 59.22 9.612 59.22 7.652 60.648 6.07 62.65 6.07 64.68 6.07 65.968 7.61 65.968 9.738L65.968 10.102 60.76 10.102C60.872 11.11 61.628 11.964 62.902 11.964 63.574 11.964 64.344 11.698 64.834 11.208L65.506 12.174C64.82 12.818 63.826 13.168 62.762 13.168zM64.554 9.052C64.512 8.254 63.966 7.274 62.636 7.274 61.39 7.274 60.802 8.24 60.746 9.052L64.554 9.052zM184.858 13L183.22 13 183.22 5.104 180.392 5.104 180.392 3.662 187.686 3.662 187.686 5.104 184.858 5.104 184.858 13zM190.626 13.168C188.47 13.168 187.154 11.544 187.154 9.612 187.154 7.666 188.47 6.07 190.626 6.07 192.782 6.07 194.098 7.666 194.098 9.612 194.098 11.544 192.782 13.168 190.626 13.168zM190.626 11.866C191.886 11.866 192.572 10.816 192.572 9.612 192.572 8.422 191.886 7.372 190.626 7.372 189.38 7.372 188.68 8.422 188.68 9.612 188.68 10.816 189.38 11.866 190.626 11.866zM201.644 13L200.174 13 200.174 8.772C200.174 7.708 199.628 7.372 198.802 7.372 198.06 7.372 197.416 7.82 197.066 8.268L197.066 13 195.596 13 195.596 6.238 197.066 6.238 197.066 7.148C197.514 6.616 198.396 6.07 199.46 6.07 200.916 6.07 201.644 6.854 201.644 8.24L201.644 13zM206.306 15.744C205.158 15.744 204.304 15.492 203.464 14.736L204.15 13.672C204.71 14.302 205.41 14.54 206.306 14.54 207.272 14.54 208.308 14.092 208.308 12.65L208.308 11.88C207.79 12.566 207.02 13.014 206.138 13.014 204.416 13.014 203.142 11.768 203.142 9.542 203.142 7.344 204.388 6.07 206.138 6.07 206.992 6.07 207.762 6.448 208.308 7.176L208.308 6.238 209.778 6.238 209.778 12.65C209.778 15.086 207.958 15.744 206.306 15.744zM206.572 11.698C207.258 11.698 207.972 11.292 208.308 10.802L208.308 8.268C207.972 7.778 207.258 7.372 206.572 7.372 205.396 7.372 204.654 8.24 204.654 9.542 204.654 10.844 205.396 11.698 206.572 11.698zM217.73 13L216.26 13 216.26 8.744C216.26 7.68 215.728 7.372 214.902 7.372 214.146 7.372 213.502 7.82 213.166 8.268L213.166 13 211.696 13 211.696 3.662 213.166 3.662 213.166 7.148C213.614 6.616 214.482 6.07 215.546 6.07 217.002 6.07 217.73 6.826 217.73 8.212L217.73 13zM219.354 15.646L219.564 14.33C219.718 14.4 219.956 14.442 220.124 14.442 220.6 14.442 220.908 14.302 221.104 13.854L221.44 13.084 218.654 6.238 220.236 6.238 222.21 11.306 224.184 6.238 225.752 6.238 222.49 14.218C222.028 15.366 221.23 15.73 220.18 15.744 219.97 15.744 219.55 15.702 219.354 15.646zM229.742 13.168C227.586 13.168 226.27 11.544 226.27 9.612 226.27 7.666 227.586 6.07 229.742 6.07 231.898 6.07 233.214 7.666 233.214 9.612 233.214 11.544 231.898 13.168 229.742 13.168zM229.742 11.866C231.002 11.866 231.688 10.816 231.688 9.612 231.688 8.422 231.002 7.372 229.742 7.372 228.496 7.372 227.796 8.422 227.796 9.612 227.796 10.816 228.496 11.866 229.742 11.866zM240.76 13L239.29 13 239.29 8.772C239.29 7.708 238.744 7.372 237.918 7.372 237.176 7.372 236.532 7.82 236.182 8.268L236.182 13 234.712 13 234.712 6.238 236.182 6.238 236.182 7.148C236.63 6.616 237.512 6.07 238.576 6.07 240.032 6.07 240.76 6.854 240.76 8.24L240.76 13z" transform="translate(0 66)"/>
        <path d="M2.996 13.168C1.848 13.168 1.26 12.552 1.26 11.418L1.26 7.512.14 7.512.14 6.238 1.26 6.238 1.26 4.39 2.73 4.39 2.73 6.238 4.102 6.238 4.102 7.512 2.73 7.512 2.73 11.054C2.73 11.516 2.954 11.866 3.374 11.866 3.654 11.866 3.906 11.74 4.018 11.614L4.368 12.734C4.102 12.972 3.668 13.168 2.996 13.168zM6.888 13L5.418 13 5.418 6.238 6.888 6.238 6.888 7.218C7.406 6.574 8.218 6.07 9.086 6.07L9.086 7.526C8.96 7.498 8.82 7.484 8.638 7.484 8.008 7.484 7.182 7.904 6.888 8.394L6.888 13zM11.018 5.412C10.514 5.412 10.108 5.006 10.108 4.502 10.108 3.998 10.514 3.592 11.018 3.592 11.522 3.592 11.928 3.998 11.928 4.502 11.928 5.006 11.522 5.412 11.018 5.412zM11.746 13L10.276 13 10.276 6.238 11.746 6.238 11.746 13zM19.264 13L17.794 13 17.794 12.258C17.29 12.846 16.492 13.168 15.596 13.168 14.504 13.168 13.258 12.412 13.258 10.928 13.258 9.36 14.49 8.716 15.596 8.716 16.52 8.716 17.29 9.01 17.794 9.584L17.794 8.576C17.794 7.792 17.136 7.316 16.212 7.316 15.456 7.316 14.784 7.596 14.21 8.184L13.594 7.162C14.378 6.406 15.358 6.07 16.436 6.07 17.948 6.07 19.264 6.7 19.264 8.506L19.264 13zM16.184 12.16C16.814 12.16 17.444 11.922 17.794 11.46L17.794 10.424C17.444 9.962 16.814 9.724 16.184 9.724 15.358 9.724 14.728 10.214 14.728 10.942 14.728 11.684 15.358 12.16 16.184 12.16zM22.638 13L21.168 13 21.168 3.662 22.638 3.662 22.638 13zM31.528 14.568L23.548 14.568 23.548 13.56 31.528 13.56 31.528 14.568zM35.574 13.168C33.53 13.168 32.032 11.754 32.032 9.612 32.032 7.652 33.46 6.07 35.462 6.07 37.492 6.07 38.78 7.61 38.78 9.738L38.78 10.102 33.572 10.102C33.684 11.11 34.44 11.964 35.714 11.964 36.386 11.964 37.156 11.698 37.646 11.208L38.318 12.174C37.632 12.818 36.638 13.168 35.574 13.168zM37.366 9.052C37.324 8.254 36.778 7.274 35.448 7.274 34.202 7.274 33.614 8.24 33.558 9.052L37.366 9.052zM46.284 13L44.814 13 44.814 8.772C44.814 7.708 44.268 7.372 43.442 7.372 42.7 7.372 42.056 7.82 41.706 8.268L41.706 13 40.236 13 40.236 6.238 41.706 6.238 41.706 7.148C42.154 6.616 43.036 6.07 44.1 6.07 45.556 6.07 46.284 6.854 46.284 8.24L46.284 13zM54.418 13L52.948 13 52.948 12.076C52.43 12.748 51.66 13.168 50.778 13.168 49.056 13.168 47.782 11.852 47.782 9.612 47.782 7.428 49.042 6.07 50.778 6.07 51.632 6.07 52.416 6.448 52.948 7.176L52.948 3.662 54.418 3.662 54.418 13zM51.212 11.866C51.898 11.866 52.626 11.46 52.948 10.956L52.948 8.282C52.626 7.778 51.898 7.372 51.212 7.372 50.036 7.372 49.294 8.31 49.294 9.612 49.294 10.928 50.036 11.866 51.212 11.866zM58.646 13.168C57.484 13.168 56.448 12.79 55.748 12.104L56.42 11.054C56.896 11.544 57.834 11.992 58.702 11.992 59.584 11.992 60.046 11.628 60.046 11.096 60.046 9.766 55.958 10.718 55.958 8.114 55.958 7.008 56.91 6.07 58.618 6.07 59.766 6.07 60.634 6.476 61.236 7.008L60.62 8.044C60.214 7.596 59.472 7.232 58.618 7.232 57.848 7.232 57.372 7.596 57.372 8.072 57.372 9.262 61.46 8.366 61.46 11.054 61.46 12.258 60.466 13.168 58.646 13.168zM187.462 13L180.7 13 180.7 11.698C184.326 8.954 185.754 7.75 185.754 6.392 185.754 5.412 184.9 4.978 184.046 4.978 182.954 4.978 182.128 5.412 181.526 6.084L180.574 5.02C181.4 4.012 182.716 3.522 184.032 3.522 185.838 3.522 187.406 4.53 187.406 6.392 187.406 8.128 185.824 9.668 183.332 11.558L187.462 11.558 187.462 13zM192.656 13.168C190.024 13.168 188.918 10.676 188.918 8.338 188.918 5.986 190.024 3.522 192.656 3.522 195.274 3.522 196.38 5.986 196.38 8.338 196.38 10.676 195.274 13.168 192.656 13.168zM192.656 11.712C194.168 11.712 194.714 10.116 194.714 8.338 194.714 6.546 194.182 4.978 192.656 4.978 191.13 4.978 190.584 6.546 190.584 8.338 190.584 10.116 191.13 11.712 192.656 11.712zM204.43 13L197.668 13 197.668 11.698C201.294 8.954 202.722 7.75 202.722 6.392 202.722 5.412 201.868 4.978 201.014 4.978 199.922 4.978 199.096 5.412 198.494 6.084L197.542 5.02C198.368 4.012 199.684 3.522 201 3.522 202.806 3.522 204.374 4.53 204.374 6.392 204.374 8.128 202.792 9.668 200.3 11.558L204.43 11.558 204.43 13zM209.624 13.168C206.992 13.168 205.886 10.676 205.886 8.338 205.886 5.986 206.992 3.522 209.624 3.522 212.242 3.522 213.348 5.986 213.348 8.338 213.348 10.676 212.242 13.168 209.624 13.168zM209.624 11.712C211.136 11.712 211.682 10.116 211.682 8.338 211.682 6.546 211.15 4.978 209.624 4.978 208.098 4.978 207.552 6.546 207.552 8.338 207.552 10.116 208.098 11.712 209.624 11.712zM217.716 10.242L214.356 10.242 214.356 8.982 217.716 8.982 217.716 10.242zM222.462 13.168C219.83 13.168 218.724 10.676 218.724 8.338 218.724 5.986 219.83 3.522 222.462 3.522 225.08 3.522 226.186 5.986 226.186 8.338 226.186 10.676 225.08 13.168 222.462 13.168zM222.462 11.712C223.974 11.712 224.52 10.116 224.52 8.338 224.52 6.546 223.988 4.978 222.462 4.978 220.936 4.978 220.39 6.546 220.39 8.338 220.39 10.116 220.936 11.712 222.462 11.712zM234.236 13L227.474 13 227.474 11.698C231.1 8.954 232.528 7.75 232.528 6.392 232.528 5.412 231.674 4.978 230.82 4.978 229.728 4.978 228.902 5.412 228.3 6.084L227.348 5.02C228.174 4.012 229.49 3.522 230.806 3.522 232.612 3.522 234.18 4.53 234.18 6.392 234.18 8.128 232.598 9.668 230.106 11.558L234.236 11.558 234.236 13zM238.884 10.242L235.524 10.242 235.524 8.982 238.884 8.982 238.884 10.242zM246.766 13L240.004 13 240.004 11.698C243.63 8.954 245.058 7.75 245.058 6.392 245.058 5.412 244.204 4.978 243.35 4.978 242.258 4.978 241.432 5.412 240.83 6.084L239.878 5.02C240.704 4.012 242.02 3.522 243.336 3.522 245.142 3.522 246.71 4.53 246.71 6.392 246.71 8.128 245.128 9.668 242.636 11.558L246.766 11.558 246.766 13zM251.96 13L250.322 13 250.322 5.776 248.796 7.372 247.844 6.378 250.532 3.662 251.96 3.662 251.96 13z" transform="translate(0 100)"/>
      </g>
      <path fill="#384254" fill-rule="nonzero" d="M30.6 46.264C27.894 46.264 25.936 45.296 24.616 43.932L26.068 41.93C27.058 43.008 28.664 43.976 30.71 43.976 32.822 43.976 33.636 42.942 33.636 41.952 33.636 38.872 25.1 40.786 25.1 35.396 25.1 32.954 27.212 31.084 30.446 31.084 32.712 31.084 34.582 31.832 35.924 33.152L34.472 35.066C33.306 33.9 31.744 33.372 30.204 33.372 28.708 33.372 27.74 34.12 27.74 35.198 27.74 37.948 36.276 36.254 36.276 41.71 36.276 44.152 34.538 46.264 30.6 46.264zM39.73 34.076C38.938 34.076 38.3 33.438 38.3 32.646 38.3 31.854 38.938 31.216 39.73 31.216 40.522 31.216 41.16 31.854 41.16 32.646 41.16 33.438 40.522 34.076 39.73 34.076zM40.874 46L38.564 46 38.564 35.374 40.874 35.374 40.874 46zM48.2 50.312C46.396 50.312 45.054 49.916 43.734 48.728L44.812 47.056C45.692 48.046 46.792 48.42 48.2 48.42 49.718 48.42 51.346 47.716 51.346 45.45L51.346 44.24C50.532 45.318 49.322 46.022 47.936 46.022 45.23 46.022 43.228 44.064 43.228 40.566 43.228 37.112 45.186 35.11 47.936 35.11 49.278 35.11 50.488 35.704 51.346 36.848L51.346 35.374 53.656 35.374 53.656 45.45C53.656 49.278 50.796 50.312 48.2 50.312zM48.618 43.954C49.696 43.954 50.818 43.316 51.346 42.546L51.346 38.564C50.818 37.794 49.696 37.156 48.618 37.156 46.77 37.156 45.604 38.52 45.604 40.566 45.604 42.612 46.77 43.954 48.618 43.954zM66.152 46L63.842 46 63.842 39.356C63.842 37.684 62.984 37.156 61.686 37.156 60.52 37.156 59.508 37.86 58.958 38.564L58.958 46 56.648 46 56.648 35.374 58.958 35.374 58.958 36.804C59.662 35.968 61.048 35.11 62.72 35.11 65.008 35.11 66.152 36.342 66.152 38.52L66.152 46zM74.072 46.264C70.86 46.264 68.506 44.042 68.506 40.676 68.506 37.596 70.75 35.11 73.896 35.11 77.086 35.11 79.11 37.53 79.11 40.874L79.11 41.446 70.926 41.446C71.102 43.03 72.29 44.372 74.292 44.372 75.348 44.372 76.558 43.954 77.328 43.184L78.384 44.702C77.306 45.714 75.744 46.264 74.072 46.264zM76.888 39.796C76.822 38.542 75.964 37.002 73.874 37.002 71.916 37.002 70.992 38.52 70.904 39.796L76.888 39.796zM91.188 46L88.878 46 88.878 44.548C88.064 45.604 86.854 46.264 85.468 46.264 82.762 46.264 80.76 44.196 80.76 40.676 80.76 37.244 82.74 35.11 85.468 35.11 86.81 35.11 88.042 35.704 88.878 36.848L88.878 31.326 91.188 31.326 91.188 46zM86.15 44.218C87.228 44.218 88.372 43.58 88.878 42.788L88.878 38.586C88.372 37.794 87.228 37.156 86.15 37.156 84.302 37.156 83.136 38.63 83.136 40.676 83.136 42.744 84.302 44.218 86.15 44.218zM109.338 46L107.028 46 107.028 44.592C106.28 45.428 104.96 46.264 103.288 46.264 101 46.264 99.856 45.054 99.856 42.898L99.856 35.374 102.166 35.374 102.166 42.04C102.166 43.69 103.002 44.218 104.322 44.218 105.488 44.218 106.5 43.536 107.028 42.832L107.028 35.374 109.338 35.374 109.338 46zM118.05 46.264C116.708 46.264 115.52 45.648 114.64 44.526L114.64 50.048 112.33 50.048 112.33 35.374 114.64 35.374 114.64 36.826C115.432 35.77 116.664 35.11 118.05 35.11 120.8 35.11 122.758 37.178 122.758 40.676 122.758 44.174 120.8 46.264 118.05 46.264zM117.368 44.218C119.194 44.218 120.382 42.744 120.382 40.676 120.382 38.608 119.194 37.156 117.368 37.156 116.29 37.156 115.168 37.772 114.64 38.564L114.64 42.766C115.146 43.558 116.29 44.218 117.368 44.218zM52.44 72L46.938 72 46.938 62.662 48.1 62.662 48.1 70.964 52.44 70.964 52.44 72zM59.034 72L57.984 72 57.984 71.23C57.438 71.846 56.654 72.168 55.744 72.168 54.61 72.168 53.392 71.398 53.392 69.928 53.392 68.402 54.596 67.702 55.744 67.702 56.668 67.702 57.438 67.996 57.984 68.612L57.984 67.394C57.984 66.498 57.256 65.98 56.276 65.98 55.464 65.98 54.806 66.26 54.204 66.918L53.714 66.19C54.442 65.434 55.31 65.07 56.416 65.07 57.858 65.07 59.034 65.714 59.034 67.352L59.034 72zM56.136 71.412C56.864 71.412 57.578 71.132 57.984 70.572L57.984 69.284C57.578 68.738 56.864 68.458 56.136 68.458 55.142 68.458 54.456 69.074 54.456 69.928 54.456 70.796 55.142 71.412 56.136 71.412zM63.304 72.168C62.184 72.168 61.26 71.818 60.574 71.104L61.106 70.348C61.554 70.866 62.408 71.314 63.332 71.314 64.368 71.314 64.942 70.824 64.942 70.152 64.942 68.514 60.756 69.522 60.756 67.016 60.756 65.952 61.652 65.07 63.262 65.07 64.424 65.07 65.236 65.504 65.768 66.05L65.278 66.778C64.872 66.288 64.144 65.924 63.262 65.924 62.338 65.924 61.764 66.386 61.764 66.988 61.764 68.458 65.95 67.492 65.95 70.124 65.95 71.258 65.04 72.168 63.304 72.168zM69.38 72.168C68.372 72.168 67.868 71.594 67.868 70.586L67.868 66.162 66.748 66.162 66.748 65.238 67.868 65.238 67.868 63.39 68.932 63.39 68.932 65.238 70.304 65.238 70.304 66.162 68.932 66.162 68.932 70.362C68.932 70.866 69.156 71.23 69.604 71.23 69.912 71.23 70.178 71.09 70.318 70.936L70.626 71.734C70.36 71.986 69.982 72.168 69.38 72.168zM77.122 72.168C76.114 72.168 75.61 71.594 75.61 70.586L75.61 66.162 74.49 66.162 74.49 65.238 75.61 65.238 75.61 63.39 76.674 63.39 76.674 65.238 78.046 65.238 78.046 66.162 76.674 66.162 76.674 70.362C76.674 70.866 76.898 71.23 77.346 71.23 77.654 71.23 77.92 71.09 78.06 70.936L78.368 71.734C78.102 71.986 77.724 72.168 77.122 72.168zM80.566 72L79.516 72 79.516 65.238 80.566 65.238 80.566 66.316C81.112 65.616 81.896 65.084 82.82 65.084L82.82 66.162C82.694 66.148 82.568 66.134 82.414 66.134 81.756 66.134 80.874 66.666 80.566 67.212L80.566 72zM84.668 64.272C84.276 64.272 83.954 63.964 83.954 63.572 83.954 63.18 84.276 62.858 84.668 62.858 85.06 62.858 85.368 63.18 85.368 63.572 85.368 63.964 85.06 64.272 84.668 64.272zM85.186 72L84.136 72 84.136 65.238 85.186 65.238 85.186 72zM90.002 74.744C88.868 74.744 88.084 74.52 87.272 73.722L87.804 72.966C88.364 73.624 89.036 73.876 90.002 73.876 91.122 73.876 92.186 73.33 92.186 71.902L92.186 70.88C91.682 71.566 90.856 72.084 89.904 72.084 88.14 72.084 86.894 70.768 86.894 68.584 86.894 66.414 88.126 65.07 89.904 65.07 90.814 65.07 91.64 65.518 92.186 66.26L92.186 65.238 93.236 65.238 93.236 71.902C93.236 74.044 91.654 74.744 90.002 74.744zM90.17 71.146C90.996 71.146 91.808 70.642 92.186 70.054L92.186 67.086C91.808 66.512 90.996 66.008 90.17 66.008 88.798 66.008 87.986 67.086 87.986 68.584 87.986 70.068 88.798 71.146 90.17 71.146zM98.052 74.744C96.918 74.744 96.134 74.52 95.322 73.722L95.854 72.966C96.414 73.624 97.086 73.876 98.052 73.876 99.172 73.876 100.236 73.33 100.236 71.902L100.236 70.88C99.732 71.566 98.906 72.084 97.954 72.084 96.19 72.084 94.944 70.768 94.944 68.584 94.944 66.414 96.176 65.07 97.954 65.07 98.864 65.07 99.69 65.518 100.236 66.26L100.236 65.238 101.286 65.238 101.286 71.902C101.286 74.044 99.704 74.744 98.052 74.744zM98.22 71.146C99.046 71.146 99.858 70.642 100.236 70.054L100.236 67.086C99.858 66.512 99.046 66.008 98.22 66.008 96.848 66.008 96.036 67.086 96.036 68.584 96.036 70.068 96.848 71.146 98.22 71.146zM106.452 72.168C104.436 72.168 102.994 70.726 102.994 68.612 102.994 66.652 104.394 65.07 106.326 65.07 108.37 65.07 109.574 66.666 109.574 68.696L109.574 68.962 104.114 68.962C104.198 70.236 105.08 71.3 106.536 71.3 107.32 71.3 108.09 70.992 108.636 70.432L109.14 71.118C108.454 71.79 107.544 72.168 106.452 72.168zM108.538 68.178C108.524 67.184 107.852 65.938 106.312 65.938 104.87 65.938 104.156 67.156 104.1 68.178L108.538 68.178zM117.218 72L116.168 72 116.168 70.992C115.664 71.678 114.838 72.168 113.886 72.168 112.122 72.168 110.876 70.824 110.876 68.626 110.876 66.456 112.122 65.07 113.886 65.07 114.796 65.07 115.622 65.518 116.168 66.26L116.168 62.662 117.218 62.662 117.218 72zM114.152 71.23C114.978 71.23 115.804 70.74 116.168 70.152L116.168 67.1C115.804 66.512 114.978 66.008 114.152 66.008 112.78 66.008 111.968 67.128 111.968 68.626 111.968 70.124 112.78 71.23 114.152 71.23zM128.222 72L127.172 72 127.172 71.23C126.626 71.846 125.842 72.168 124.932 72.168 123.798 72.168 122.58 71.398 122.58 69.928 122.58 68.402 123.784 67.702 124.932 67.702 125.856 67.702 126.626 67.996 127.172 68.612L127.172 67.394C127.172 66.498 126.444 65.98 125.464 65.98 124.652 65.98 123.994 66.26 123.392 66.918L122.902 66.19C123.63 65.434 124.498 65.07 125.604 65.07 127.046 65.07 128.222 65.714 128.222 67.352L128.222 72zM125.324 71.412C126.052 71.412 126.766 71.132 127.172 70.572L127.172 69.284C126.766 68.738 126.052 68.458 125.324 68.458 124.33 68.458 123.644 69.074 123.644 69.928 123.644 70.796 124.33 71.412 125.324 71.412zM139.912 72L138.862 72 138.862 70.992C138.358 71.678 137.532 72.168 136.58 72.168 134.816 72.168 133.57 70.824 133.57 68.626 133.57 66.456 134.816 65.07 136.58 65.07 137.49 65.07 138.316 65.518 138.862 66.26L138.862 62.662 139.912 62.662 139.912 72zM136.846 71.23C137.672 71.23 138.498 70.74 138.862 70.152L138.862 67.1C138.498 66.512 137.672 66.008 136.846 66.008 135.474 66.008 134.662 67.128 134.662 68.626 134.662 70.124 135.474 71.23 136.846 71.23zM147.29 72L146.24 72 146.24 71.23C145.694 71.846 144.91 72.168 144 72.168 142.866 72.168 141.648 71.398 141.648 69.928 141.648 68.402 142.852 67.702 144 67.702 144.924 67.702 145.694 67.996 146.24 68.612L146.24 67.394C146.24 66.498 145.512 65.98 144.532 65.98 143.72 65.98 143.062 66.26 142.46 66.918L141.97 66.19C142.698 65.434 143.566 65.07 144.672 65.07 146.114 65.07 147.29 65.714 147.29 67.352L147.29 72zM144.392 71.412C145.12 71.412 145.834 71.132 146.24 70.572L146.24 69.284C145.834 68.738 145.12 68.458 144.392 68.458 143.398 68.458 142.712 69.074 142.712 69.928 142.712 70.796 143.398 71.412 144.392 71.412zM149.04 74.646L149.194 73.694C149.348 73.764 149.6 73.806 149.768 73.806 150.23 73.806 150.538 73.652 150.776 73.092L151.224 72.07 148.396 65.238 149.544 65.238 151.784 70.782 154.038 65.238 155.172 65.238 151.784 73.372C151.378 74.352 150.692 74.73 149.796 74.744 149.572 74.744 149.222 74.702 149.04 74.646zM165.168 72L164.118 72 164.118 71.23C163.572 71.846 162.788 72.168 161.878 72.168 160.744 72.168 159.526 71.398 159.526 69.928 159.526 68.402 160.73 67.702 161.878 67.702 162.802 67.702 163.572 67.996 164.118 68.612L164.118 67.394C164.118 66.498 163.39 65.98 162.41 65.98 161.598 65.98 160.94 66.26 160.338 66.918L159.848 66.19C160.576 65.434 161.444 65.07 162.55 65.07 163.992 65.07 165.168 65.714 165.168 67.352L165.168 72zM162.27 71.412C162.998 71.412 163.712 71.132 164.118 70.572L164.118 69.284C163.712 68.738 162.998 68.458 162.27 68.458 161.276 68.458 160.59 69.074 160.59 69.928 160.59 70.796 161.276 71.412 162.27 71.412zM169.998 74.744C168.864 74.744 168.08 74.52 167.268 73.722L167.8 72.966C168.36 73.624 169.032 73.876 169.998 73.876 171.118 73.876 172.182 73.33 172.182 71.902L172.182 70.88C171.678 71.566 170.852 72.084 169.9 72.084 168.136 72.084 166.89 70.768 166.89 68.584 166.89 66.414 168.122 65.07 169.9 65.07 170.81 65.07 171.636 65.518 172.182 66.26L172.182 65.238 173.232 65.238 173.232 71.902C173.232 74.044 171.65 74.744 169.998 74.744zM170.166 71.146C170.992 71.146 171.804 70.642 172.182 70.054L172.182 67.086C171.804 66.512 170.992 66.008 170.166 66.008 168.794 66.008 167.982 67.086 167.982 68.584 167.982 70.068 168.794 71.146 170.166 71.146zM178.286 72.168C176.228 72.168 174.94 70.572 174.94 68.612 174.94 66.652 176.228 65.07 178.286 65.07 180.344 65.07 181.632 66.652 181.632 68.612 181.632 70.572 180.344 72.168 178.286 72.168zM178.286 71.23C179.728 71.23 180.526 69.998 180.526 68.612 180.526 67.24 179.728 66.008 178.286 66.008 176.844 66.008 176.046 67.24 176.046 68.612 176.046 69.998 176.844 71.23 178.286 71.23z"/>
      <circle cx="28" cy="68" r="4" fill="#6FD350"/>
    </g>
    <g transform="rotate(39 76.224 740.256)">
      <rect width="18.48" height="18.333" x=".696" y="3.491" fill="#01B2D0" opacity=".1" rx="3"/>
      <rect width="16.48" height="16.333" x="4.203" y="1.331" stroke="#01B2D0" stroke-width="2" rx="3"/>
    </g>
    <g transform="rotate(-47 522.293 192.916)">
      <path fill="#6FD350" d="M18.6584492,12.8291371 L26.4876424,28.4531851 C27.4773353,30.4282301 26.6785496,32.8316251 24.7035045,33.8213181 C24.1472653,34.1000489 23.5336749,34.2451826 22.911507,34.2451826 L7.25312048,34.2451826 C5.04398148,34.2451826 3.25312048,32.4543216 3.25312048,30.2451826 C3.25312048,29.6230147 3.39825417,29.0094243 3.67698503,28.4531851 L11.5061783,12.8291371 C12.4958712,10.854092 14.8992662,10.0553063 16.8743113,11.0449992 C17.6459305,11.4316567 18.2717917,12.0575179 18.6584492,12.8291371 Z" opacity=".2"/>
      <path stroke="#6FD350" stroke-width="2" d="M23.9417665,7.81137471 C23.6517733,7.23266032 23.1823775,6.76326443 22.6036631,6.47327128 C21.1223793,5.73100159 19.319833,6.33009091 18.5775633,7.81137471 L10.7483701,23.4354226 C10.5393219,23.852602 10.4304716,24.3127948 10.4304716,24.7794208 C10.4304716,26.436275 11.7736174,27.7794208 13.4304716,27.7794208 L29.0888581,27.7794208 C29.5554841,27.7794208 30.0156769,27.6705705 30.4328563,27.4615224 C31.9141401,26.7192527 32.5132294,24.9167064 31.7709597,23.4354226 L23.9417665,7.81137471 Z"/>
    </g>
    <g transform="rotate(-35 55.606 -74.87)">
      <ellipse cx="18.234" cy="13.678" stroke="#FFC111" stroke-width="2" rx="12.091" ry="12.078"/>
      <ellipse cx="13.819" cy="17.585" fill="#FFC111" opacity=".2" rx="13.091" ry="13.078"/>
    </g>
  </g>
</svg>
