<svg xmlns="http://www.w3.org/2000/svg" xmlns:xlink="http://www.w3.org/1999/xlink" width="561" height="494" viewBox="0 0 561 494">
  <defs>
    <rect id="event-manager-b" width="453" height="224" rx="6"/>
    <filter id="event-manager-a" width="111.7%" height="123.7%" x="-5.8%" filterUnits="objectBoundingBox">
      <feMorphology in="SourceAlpha" operator="dilate" radius=".5" result="shadowSpreadOuter1"/>
      <feOffset dy="4" in="shadowSpreadOuter1" result="shadowOffsetOuter1"/>
      <feGaussianBlur in="shadowOffsetOuter1" result="shadowBlurOuter1" stdDeviation="8"/>
      <feComposite in="shadowBlurOuter1" in2="SourceAlpha" operator="out" result="shadowBlurOuter1"/>
      <feColorMatrix in="shadowBlurOuter1" values="0 0 0 0 0   0 0 0 0 0   0 0 0 0 0  0 0 0 0.12 0"/>
    </filter>
    <rect id="event-manager-d" width="378" height="273" rx="6"/>
    <filter id="event-manager-c" width="114%" height="119.4%" x="-7%" y="-8.2%" filterUnits="objectBoundingBox">
      <feMorphology in="SourceAlpha" operator="dilate" radius=".5" result="shadowSpreadOuter1"/>
      <feOffset dy="4" in="shadowSpreadOuter1" result="shadowOffsetOuter1"/>
      <feGaussianBlur in="shadowOffsetOuter1" result="shadowBlurOuter1" stdDeviation="8"/>
      <feComposite in="shadowBlurOuter1" in2="SourceAlpha" operator="out" result="shadowBlurOuter1"/>
      <feColorMatrix in="shadowBlurOuter1" values="0 0 0 0 0   0 0 0 0 0   0 0 0 0 0  0 0 0 0.12 0"/>
    </filter>
  </defs>
  <g fill="none" fill-rule="evenodd" transform="translate(16 12)">
    <rect width="453" height="215" x="32" y="90" fill="#E1F5DB"/>
    <use fill="#000" filter="url(#event-manager-a)" xlink:href="#event-manager-b"/>
    <use fill="#FFF" stroke="#8D8D8D" stroke-opacity=".24" xlink:href="#event-manager-b"/>
    <path fill="#384254" d="M29.093 34L27.806 34 27.806 32.339 24.308 32.339 24.308 31.305 27.322 26.663 29.093 26.663 29.093 31.206 30.072 31.206 30.072 32.339 29.093 32.339 29.093 34zM27.806 31.206L27.806 27.818 25.573 31.206 27.806 31.206zM33.779 34L32.492 34 32.492 28.324 31.293 29.578 30.545 28.797 32.657 26.663 33.779 26.663 33.779 34zM43.206 34L38.179 34 38.179 26.663 43.206 26.663 43.206 27.796 39.466 27.796 39.466 29.688 43.129 29.688 43.129 30.821 39.466 30.821 39.466 32.867 43.206 32.867 43.206 34zM47.133 34L45.89 34 43.723 28.687 44.966 28.687 46.517 32.669 48.068 28.687 49.3 28.687 47.133 34zM52.49 34.132C50.884 34.132 49.707 33.021 49.707 31.338 49.707 29.798 50.829 28.555 52.402 28.555 53.997 28.555 55.009 29.765 55.009 31.437L55.009 31.723 50.917 31.723C51.005 32.515 51.599 33.186 52.6 33.186 53.128 33.186 53.733 32.977 54.118 32.592L54.646 33.351C54.107 33.857 53.326 34.132 52.49 34.132zM53.898 30.898C53.865 30.271 53.436 29.501 52.391 29.501 51.412 29.501 50.95 30.26 50.906 30.898L53.898 30.898zM60.905 34L59.75 34 59.75 30.678C59.75 29.842 59.321 29.578 58.672 29.578 58.089 29.578 57.583 29.93 57.308 30.282L57.308 34 56.153 34 56.153 28.687 57.308 28.687 57.308 29.402C57.66 28.984 58.353 28.555 59.189 28.555 60.333 28.555 60.905 29.171 60.905 30.26L60.905 34zM64.007 34.132C63.105 34.132 62.643 33.648 62.643 32.757L62.643 29.688 61.763 29.688 61.763 28.687 62.643 28.687 62.643 27.235 63.798 27.235 63.798 28.687 64.876 28.687 64.876 29.688 63.798 29.688 63.798 32.471C63.798 32.834 63.974 33.109 64.304 33.109 64.524 33.109 64.722 33.01 64.81 32.911L65.085 33.791C64.876 33.978 64.535 34.132 64.007 34.132zM67.736 34.132C66.823 34.132 66.009 33.835 65.459 33.296L65.987 32.471C66.361 32.856 67.098 33.208 67.78 33.208 68.473 33.208 68.836 32.922 68.836 32.504 68.836 31.459 65.624 32.207 65.624 30.161 65.624 29.292 66.372 28.555 67.714 28.555 68.616 28.555 69.298 28.874 69.771 29.292L69.287 30.106C68.968 29.754 68.385 29.468 67.714 29.468 67.109 29.468 66.735 29.754 66.735 30.128 66.735 31.063 69.947 30.359 69.947 32.471 69.947 33.417 69.166 34.132 67.736 34.132zM75.546 34.132C74.644 34.132 74.182 33.648 74.182 32.757L74.182 29.688 73.302 29.688 73.302 28.687 74.182 28.687 74.182 27.235 75.337 27.235 75.337 28.687 76.415 28.687 76.415 29.688 75.337 29.688 75.337 32.471C75.337 32.834 75.513 33.109 75.843 33.109 76.063 33.109 76.261 33.01 76.349 32.911L76.624 33.791C76.415 33.978 76.074 34.132 75.546 34.132zM78.604 34L77.449 34 77.449 28.687 78.604 28.687 78.604 29.457C79.011 28.951 79.649 28.555 80.331 28.555L80.331 29.699C80.232 29.677 80.122 29.666 79.979 29.666 79.484 29.666 78.835 29.996 78.604 30.381L78.604 34zM85.677 34L84.522 34 84.522 33.417C84.126 33.879 83.499 34.132 82.795 34.132 81.937 34.132 80.958 33.538 80.958 32.372 80.958 31.14 81.926 30.634 82.795 30.634 83.521 30.634 84.126 30.865 84.522 31.316L84.522 30.524C84.522 29.908 84.005 29.534 83.279 29.534 82.685 29.534 82.157 29.754 81.706 30.216L81.222 29.413C81.838 28.819 82.608 28.555 83.455 28.555 84.643 28.555 85.677 29.05 85.677 30.469L85.677 34zM83.257 33.34C83.752 33.34 84.247 33.153 84.522 32.79L84.522 31.976C84.247 31.613 83.752 31.426 83.257 31.426 82.608 31.426 82.113 31.811 82.113 32.383 82.113 32.966 82.608 33.34 83.257 33.34zM89.593 34.132C87.987 34.132 86.854 32.944 86.854 31.338 86.854 29.732 87.987 28.555 89.593 28.555 90.638 28.555 91.254 28.995 91.628 29.501L90.869 30.194C90.572 29.776 90.165 29.578 89.648 29.578 88.691 29.578 88.042 30.304 88.042 31.338 88.042 32.372 88.691 33.109 89.648 33.109 90.165 33.109 90.572 32.889 90.869 32.471L91.628 33.186C91.254 33.681 90.638 34.132 89.593 34.132zM97.623 34L96.171 34 94.554 31.8 93.806 32.57 93.806 34 92.651 34 92.651 26.663 93.806 26.663 93.806 31.25 96.149 28.687 97.579 28.687 95.379 31.096 97.623 34zM100.857 34.132C99.251 34.132 98.074 33.021 98.074 31.338 98.074 29.798 99.196 28.555 100.769 28.555 102.364 28.555 103.376 29.765 103.376 31.437L103.376 31.723 99.284 31.723C99.372 32.515 99.966 33.186 100.967 33.186 101.495 33.186 102.1 32.977 102.485 32.592L103.013 33.351C102.474 33.857 101.693 34.132 100.857 34.132zM102.265 30.898C102.232 30.271 101.803 29.501 100.758 29.501 99.779 29.501 99.317 30.26 99.273 30.898L102.265 30.898zM109.415 34L108.26 34 108.26 33.274C107.853 33.802 107.248 34.132 106.555 34.132 105.202 34.132 104.201 33.098 104.201 31.338 104.201 29.622 105.191 28.555 106.555 28.555 107.226 28.555 107.842 28.852 108.26 29.424L108.26 26.663 109.415 26.663 109.415 34zM106.896 33.109C107.435 33.109 108.007 32.79 108.26 32.394L108.26 30.293C108.007 29.897 107.435 29.578 106.896 29.578 105.972 29.578 105.389 30.315 105.389 31.338 105.389 32.372 105.972 33.109 106.896 33.109zM31.788 71L30.432 71 26.256 65.276 26.256 71 24.852 71 24.852 62.996 26.292 62.996 30.384 68.54 30.384 62.996 31.788 62.996 31.788 71zM40.704 71L39.108 71 38.52 69.452 34.848 69.452 34.26 71 32.664 71 35.808 62.996 37.56 62.996 40.704 71zM38.124 68.216L36.684 64.4 35.244 68.216 38.124 68.216zM49.884 71L48.48 71 48.48 64.82 46.032 71 45.432 71 42.972 64.82 42.972 71 41.568 71 41.568 62.996 43.548 62.996 45.732 68.492 47.904 62.996 49.884 62.996 49.884 71zM57.072 71L51.588 71 51.588 62.996 57.072 62.996 57.072 64.232 52.992 64.232 52.992 66.296 56.988 66.296 56.988 67.532 52.992 67.532 52.992 69.764 57.072 69.764 57.072 71zM200.704 71.144C198.34 71.144 196.504 69.464 196.504 67.004 196.504 64.532 198.34 62.864 200.704 62.864 202.312 62.864 203.32 63.692 203.908 64.652L202.72 65.276C202.336 64.604 201.556 64.112 200.704 64.112 199.12 64.112 197.944 65.312 197.944 67.004 197.944 68.672 199.12 69.896 200.704 69.896 201.556 69.896 202.336 69.392 202.72 68.732L203.92 69.332C203.308 70.292 202.312 71.144 200.704 71.144zM212.188 71L210.592 71 210.004 69.452 206.332 69.452 205.744 71 204.148 71 207.292 62.996 209.044 62.996 212.188 71zM209.608 68.216L208.168 64.4 206.728 68.216 209.608 68.216zM221.368 71L219.964 71 219.964 64.82 217.516 71 216.916 71 214.456 64.82 214.456 71 213.052 71 213.052 62.996 215.032 62.996 217.216 68.492 219.388 62.996 221.368 62.996 221.368 71zM224.476 71L223.072 71 223.072 62.996 226.6 62.996C228.28 62.996 229.204 64.136 229.204 65.504 229.204 66.86 228.268 68 226.6 68L224.476 68 224.476 71zM226.408 66.764C227.2 66.764 227.764 66.26 227.764 65.504 227.764 64.736 227.2 64.232 226.408 64.232L224.476 64.232 224.476 66.764 226.408 66.764zM236.692 71L235.096 71 234.508 69.452 230.836 69.452 230.248 71 228.652 71 231.796 62.996 233.548 62.996 236.692 71zM234.112 68.216L232.672 64.4 231.232 68.216 234.112 68.216zM238.96 71L237.556 71 237.556 62.996 238.96 62.996 238.96 71zM244.516 71.156C242.188 71.156 240.316 69.512 240.316 67.004 240.316 64.484 242.188 62.864 244.516 62.864 246.076 62.864 247.096 63.608 247.732 64.52L246.592 65.18C246.16 64.58 245.404 64.112 244.516 64.112 242.932 64.112 241.756 65.312 241.756 67.004 241.756 68.672 242.932 69.896 244.516 69.896 245.332 69.896 246.052 69.524 246.412 69.176L246.412 67.94 244.012 67.94 244.012 66.704 247.804 66.704 247.804 69.692C247.024 70.568 245.896 71.156 244.516 71.156zM256.204 71L254.848 71 250.672 65.276 250.672 71 249.268 71 249.268 62.996 250.708 62.996 254.8 68.54 254.8 62.996 256.204 62.996 256.204 71zM260.656 71.144C259.18 71.144 258.112 70.616 257.392 69.872L258.184 68.78C258.724 69.368 259.6 69.896 260.716 69.896 261.868 69.896 262.312 69.332 262.312 68.792 262.312 67.112 257.656 68.156 257.656 65.216 257.656 63.884 258.808 62.864 260.572 62.864 261.808 62.864 262.828 63.272 263.56 63.992L262.768 65.036C262.132 64.4 261.28 64.112 260.44 64.112 259.624 64.112 259.096 64.52 259.096 65.108 259.096 66.608 263.752 65.684 263.752 68.66 263.752 69.992 262.804 71.144 260.656 71.144zM325.688 71L320.756 71 320.756 62.996 322.16 62.996 322.16 69.764 325.688 69.764 325.688 71zM334.136 71L332.54 71 331.952 69.452 328.28 69.452 327.692 71 326.096 71 329.24 62.996 330.992 62.996 334.136 71zM331.556 68.216L330.116 64.4 328.676 68.216 331.556 68.216zM337.628 71.144C336.152 71.144 335.084 70.616 334.364 69.872L335.156 68.78C335.696 69.368 336.572 69.896 337.688 69.896 338.84 69.896 339.284 69.332 339.284 68.792 339.284 67.112 334.628 68.156 334.628 65.216 334.628 63.884 335.78 62.864 337.544 62.864 338.78 62.864 339.8 63.272 340.532 63.992L339.74 65.036C339.104 64.4 338.252 64.112 337.412 64.112 336.596 64.112 336.068 64.52 336.068 65.108 336.068 66.608 340.724 65.684 340.724 68.66 340.724 69.992 339.776 71.144 337.628 71.144zM345.2 71L343.796 71 343.796 64.232 341.372 64.232 341.372 62.996 347.624 62.996 347.624 64.232 345.2 64.232 345.2 71zM354.656 71.144C353.18 71.144 352.112 70.616 351.392 69.872L352.184 68.78C352.724 69.368 353.6 69.896 354.716 69.896 355.868 69.896 356.312 69.332 356.312 68.792 356.312 67.112 351.656 68.156 351.656 65.216 351.656 63.884 352.808 62.864 354.572 62.864 355.808 62.864 356.828 63.272 357.56 63.992L356.768 65.036C356.132 64.4 355.28 64.112 354.44 64.112 353.624 64.112 353.096 64.52 353.096 65.108 353.096 66.608 357.752 65.684 357.752 68.66 357.752 69.992 356.804 71.144 354.656 71.144zM364.52 71L359.036 71 359.036 62.996 364.52 62.996 364.52 64.232 360.44 64.232 360.44 66.296 364.436 66.296 364.436 67.532 360.44 67.532 360.44 69.764 364.52 69.764 364.52 71zM371.444 71L365.96 71 365.96 62.996 371.444 62.996 371.444 64.232 367.364 64.232 367.364 66.296 371.36 66.296 371.36 67.532 367.364 67.532 367.364 69.764 371.444 69.764 371.444 71zM379.82 71L378.464 71 374.288 65.276 374.288 71 372.884 71 372.884 62.996 374.324 62.996 378.416 68.54 378.416 62.996 379.82 62.996 379.82 71z" opacity=".5"/>
    <g transform="translate(36 172)">
      <path fill="#01B2D0" d="M32.408,13 L30.546,13 L29.86,11.194 L25.576,11.194 L24.89,13 L23.028,13 L26.696,3.662 L28.74,3.662 L32.408,13 Z M29.398,9.752 L27.718,5.3 L26.038,9.752 L29.398,9.752 Z M36.454,13.168 C34.41,13.168 32.968,11.656 32.968,9.612 C32.968,7.568 34.41,6.07 36.454,6.07 C37.784,6.07 38.568,6.63 39.044,7.274 L38.078,8.156 C37.7,7.624 37.182,7.372 36.524,7.372 C35.306,7.372 34.48,8.296 34.48,9.612 C34.48,10.928 35.306,11.866 36.524,11.866 C37.182,11.866 37.7,11.586 38.078,11.054 L39.044,11.964 C38.568,12.594 37.784,13.168 36.454,13.168 Z M42.39,13.168 C41.242,13.168 40.654,12.552 40.654,11.418 L40.654,7.512 L39.534,7.512 L39.534,6.238 L40.654,6.238 L40.654,4.39 L42.124,4.39 L42.124,6.238 L43.496,6.238 L43.496,7.512 L42.124,7.512 L42.124,11.054 C42.124,11.516 42.348,11.866 42.768,11.866 C43.048,11.866 43.3,11.74 43.412,11.614 L43.762,12.734 C43.496,12.972 43.062,13.168 42.39,13.168 Z M45.554,5.412 C45.05,5.412 44.644,5.006 44.644,4.502 C44.644,3.998 45.05,3.592 45.554,3.592 C46.058,3.592 46.464,3.998 46.464,4.502 C46.464,5.006 46.058,5.412 45.554,5.412 Z M46.282,13 L44.812,13 L44.812,6.238 L46.282,6.238 L46.282,13 Z M51.546,13 L49.964,13 L47.206,6.238 L48.788,6.238 L50.762,11.306 L52.736,6.238 L54.304,6.238 L51.546,13 Z M60.842,13 L59.372,13 L59.372,12.258 C58.868,12.846 58.07,13.168 57.174,13.168 C56.082,13.168 54.836,12.412 54.836,10.928 C54.836,9.36 56.068,8.716 57.174,8.716 C58.098,8.716 58.868,9.01 59.372,9.584 L59.372,8.576 C59.372,7.792 58.714,7.316 57.79,7.316 C57.034,7.316 56.362,7.596 55.788,8.184 L55.172,7.162 C55.956,6.406 56.936,6.07 58.014,6.07 C59.526,6.07 60.842,6.7 60.842,8.506 L60.842,13 Z M57.762,12.16 C58.392,12.16 59.022,11.922 59.372,11.46 L59.372,10.424 C59.022,9.962 58.392,9.724 57.762,9.724 C56.936,9.724 56.306,10.214 56.306,10.942 C56.306,11.684 56.936,12.16 57.762,12.16 Z M64.79,13.168 C63.642,13.168 63.054,12.552 63.054,11.418 L63.054,7.512 L61.934,7.512 L61.934,6.238 L63.054,6.238 L63.054,4.39 L64.524,4.39 L64.524,6.238 L65.896,6.238 L65.896,7.512 L64.524,7.512 L64.524,11.054 C64.524,11.516 64.748,11.866 65.168,11.866 C65.448,11.866 65.7,11.74 65.812,11.614 L66.162,12.734 C65.896,12.972 65.462,13.168 64.79,13.168 Z M70.348,13.168 C68.304,13.168 66.806,11.754 66.806,9.612 C66.806,7.652 68.234,6.07 70.236,6.07 C72.266,6.07 73.554,7.61 73.554,9.738 L73.554,10.102 L68.346,10.102 C68.458,11.11 69.214,11.964 70.488,11.964 C71.16,11.964 71.93,11.698 72.42,11.208 L73.092,12.174 C72.406,12.818 71.412,13.168 70.348,13.168 Z M72.14,9.052 C72.098,8.254 71.552,7.274 70.222,7.274 C68.976,7.274 68.388,8.24 68.332,9.052 L72.14,9.052 Z M81.24,13 L79.77,13 L79.77,12.076 C79.252,12.748 78.482,13.168 77.6,13.168 C75.878,13.168 74.604,11.852 74.604,9.612 C74.604,7.428 75.864,6.07 77.6,6.07 C78.454,6.07 79.238,6.448 79.77,7.176 L79.77,3.662 L81.24,3.662 L81.24,13 Z M78.034,11.866 C78.72,11.866 79.448,11.46 79.77,10.956 L79.77,8.282 C79.448,7.778 78.72,7.372 78.034,7.372 C76.858,7.372 76.116,8.31 76.116,9.612 C76.116,10.928 76.858,11.866 78.034,11.866 Z M92.37,13 L90.9,13 L90.9,12.258 C90.396,12.846 89.598,13.168 88.702,13.168 C87.61,13.168 86.364,12.412 86.364,10.928 C86.364,9.36 87.596,8.716 88.702,8.716 C89.626,8.716 90.396,9.01 90.9,9.584 L90.9,8.576 C90.9,7.792 90.242,7.316 89.318,7.316 C88.562,7.316 87.89,7.596 87.316,8.184 L86.7,7.162 C87.484,6.406 88.464,6.07 89.542,6.07 C91.054,6.07 92.37,6.7 92.37,8.506 L92.37,13 Z M89.29,12.16 C89.92,12.16 90.55,11.922 90.9,11.46 L90.9,10.424 C90.55,9.962 89.92,9.724 89.29,9.724 C88.464,9.724 87.834,10.214 87.834,10.942 C87.834,11.684 88.464,12.16 89.29,12.16 Z M97.354,13.168 C95.31,13.168 93.868,11.656 93.868,9.612 C93.868,7.568 95.31,6.07 97.354,6.07 C98.684,6.07 99.468,6.63 99.944,7.274 L98.978,8.156 C98.6,7.624 98.082,7.372 97.424,7.372 C96.206,7.372 95.38,8.296 95.38,9.612 C95.38,10.928 96.206,11.866 97.424,11.866 C98.082,11.866 98.6,11.586 98.978,11.054 L99.944,11.964 C99.468,12.594 98.684,13.168 97.354,13.168 Z M104.326,13.168 C102.282,13.168 100.84,11.656 100.84,9.612 C100.84,7.568 102.282,6.07 104.326,6.07 C105.656,6.07 106.44,6.63 106.916,7.274 L105.95,8.156 C105.572,7.624 105.054,7.372 104.396,7.372 C103.178,7.372 102.352,8.296 102.352,9.612 C102.352,10.928 103.178,11.866 104.396,11.866 C105.054,11.866 105.572,11.586 105.95,11.054 L106.916,11.964 C106.44,12.594 105.656,13.168 104.326,13.168 Z M111.284,13.168 C109.128,13.168 107.812,11.544 107.812,9.612 C107.812,7.666 109.128,6.07 111.284,6.07 C113.44,6.07 114.756,7.666 114.756,9.612 C114.756,11.544 113.44,13.168 111.284,13.168 Z M111.284,11.866 C112.544,11.866 113.23,10.816 113.23,9.612 C113.23,8.422 112.544,7.372 111.284,7.372 C110.038,7.372 109.338,8.422 109.338,9.612 C109.338,10.816 110.038,11.866 111.284,11.866 Z M122.288,13 L120.818,13 L120.818,12.104 C120.342,12.636 119.502,13.168 118.438,13.168 C116.982,13.168 116.254,12.398 116.254,11.026 L116.254,6.238 L117.724,6.238 L117.724,10.48 C117.724,11.53 118.256,11.866 119.096,11.866 C119.838,11.866 120.482,11.432 120.818,10.984 L120.818,6.238 L122.288,6.238 L122.288,13 Z M130.24,13 L128.77,13 L128.77,8.772 C128.77,7.708 128.224,7.372 127.398,7.372 C126.656,7.372 126.012,7.82 125.662,8.268 L125.662,13 L124.192,13 L124.192,6.238 L125.662,6.238 L125.662,7.148 C126.11,6.616 126.992,6.07 128.056,6.07 C129.512,6.07 130.24,6.854 130.24,8.24 L130.24,13 Z M134.188,13.168 C133.04,13.168 132.452,12.552 132.452,11.418 L132.452,7.512 L131.332,7.512 L131.332,6.238 L132.452,6.238 L132.452,4.39 L133.922,4.39 L133.922,6.238 L135.294,6.238 L135.294,7.512 L133.922,7.512 L133.922,11.054 C133.922,11.516 134.146,11.866 134.566,11.866 C134.846,11.866 135.098,11.74 135.21,11.614 L135.56,12.734 C135.294,12.972 134.86,13.168 134.188,13.168 Z"/>
      <path fill="#384254" d="M164.326 13.168C161.694 13.168 160.588 10.676 160.588 8.338 160.588 5.986 161.694 3.522 164.326 3.522 166.944 3.522 168.05 5.986 168.05 8.338 168.05 10.676 166.944 13.168 164.326 13.168zM164.326 11.712C165.838 11.712 166.384 10.116 166.384 8.338 166.384 6.546 165.852 4.978 164.326 4.978 162.8 4.978 162.254 6.546 162.254 8.338 162.254 10.116 162.8 11.712 164.326 11.712zM310.256 13.168C308.66 13.168 307.554 12.608 306.798 11.726L307.736 10.592C308.352 11.32 309.206 11.712 310.242 11.712 311.432 11.712 312.16 10.984 312.16 10.06 312.16 9.066 311.432 8.408 310.284 8.408 309.5 8.408 308.842 8.646 308.24 9.206L307.078 8.87 307.078 3.662 313.196 3.662 313.196 5.104 308.716 5.104 308.716 7.792C309.178 7.358 309.934 6.994 310.83 6.994 312.412 6.994 313.826 8.086 313.826 10.004 313.826 11.936 312.342 13.168 310.256 13.168zM325.194 13L323.724 13 323.724 12.076C323.206 12.748 322.436 13.168 321.554 13.168 319.832 13.168 318.558 11.852 318.558 9.612 318.558 7.428 319.818 6.07 321.554 6.07 322.408 6.07 323.192 6.448 323.724 7.176L323.724 3.662 325.194 3.662 325.194 13zM321.988 11.866C322.674 11.866 323.402 11.46 323.724 10.956L323.724 8.282C323.402 7.778 322.674 7.372 321.988 7.372 320.812 7.372 320.07 8.31 320.07 9.612 320.07 10.928 320.812 11.866 321.988 11.866zM332.712 13L331.242 13 331.242 12.258C330.738 12.846 329.94 13.168 329.044 13.168 327.952 13.168 326.706 12.412 326.706 10.928 326.706 9.36 327.938 8.716 329.044 8.716 329.968 8.716 330.738 9.01 331.242 9.584L331.242 8.576C331.242 7.792 330.584 7.316 329.66 7.316 328.904 7.316 328.232 7.596 327.658 8.184L327.042 7.162C327.826 6.406 328.806 6.07 329.884 6.07 331.396 6.07 332.712 6.7 332.712 8.506L332.712 13zM329.632 12.16C330.262 12.16 330.892 11.922 331.242 11.46L331.242 10.424C330.892 9.962 330.262 9.724 329.632 9.724 328.806 9.724 328.176 10.214 328.176 10.942 328.176 11.684 328.806 12.16 329.632 12.16zM334.336 15.646L334.546 14.33C334.7 14.4 334.938 14.442 335.106 14.442 335.582 14.442 335.89 14.302 336.086 13.854L336.422 13.084 333.636 6.238 335.218 6.238 337.192 11.306 339.166 6.238 340.734 6.238 337.472 14.218C337.01 15.366 336.212 15.73 335.162 15.744 334.952 15.744 334.532 15.702 334.336 15.646zM343.982 13.168C342.82 13.168 341.784 12.79 341.084 12.104L341.756 11.054C342.232 11.544 343.17 11.992 344.038 11.992 344.92 11.992 345.382 11.628 345.382 11.096 345.382 9.766 341.294 10.718 341.294 8.114 341.294 7.008 342.246 6.07 343.954 6.07 345.102 6.07 345.97 6.476 346.572 7.008L345.956 8.044C345.55 7.596 344.808 7.232 343.954 7.232 343.184 7.232 342.708 7.596 342.708 8.072 342.708 9.262 346.796 8.366 346.796 11.054 346.796 12.258 345.802 13.168 343.982 13.168zM357.492 13L356.022 13 356.022 12.258C355.518 12.846 354.72 13.168 353.824 13.168 352.732 13.168 351.486 12.412 351.486 10.928 351.486 9.36 352.718 8.716 353.824 8.716 354.748 8.716 355.518 9.01 356.022 9.584L356.022 8.576C356.022 7.792 355.364 7.316 354.44 7.316 353.684 7.316 353.012 7.596 352.438 8.184L351.822 7.162C352.606 6.406 353.586 6.07 354.664 6.07 356.176 6.07 357.492 6.7 357.492 8.506L357.492 13zM354.412 12.16C355.042 12.16 355.672 11.922 356.022 11.46L356.022 10.424C355.672 9.962 355.042 9.724 354.412 9.724 353.586 9.724 352.956 10.214 352.956 10.942 352.956 11.684 353.586 12.16 354.412 12.16zM362.154 15.744C361.006 15.744 360.152 15.492 359.312 14.736L359.998 13.672C360.558 14.302 361.258 14.54 362.154 14.54 363.12 14.54 364.156 14.092 364.156 12.65L364.156 11.88C363.638 12.566 362.868 13.014 361.986 13.014 360.264 13.014 358.99 11.768 358.99 9.542 358.99 7.344 360.236 6.07 361.986 6.07 362.84 6.07 363.61 6.448 364.156 7.176L364.156 6.238 365.626 6.238 365.626 12.65C365.626 15.086 363.806 15.744 362.154 15.744zM362.42 11.698C363.106 11.698 363.82 11.292 364.156 10.802L364.156 8.268C363.82 7.778 363.106 7.372 362.42 7.372 361.244 7.372 360.502 8.24 360.502 9.542 360.502 10.844 361.244 11.698 362.42 11.698zM370.596 13.168C368.44 13.168 367.124 11.544 367.124 9.612 367.124 7.666 368.44 6.07 370.596 6.07 372.752 6.07 374.068 7.666 374.068 9.612 374.068 11.544 372.752 13.168 370.596 13.168zM370.596 11.866C371.856 11.866 372.542 10.816 372.542 9.612 372.542 8.422 371.856 7.372 370.596 7.372 369.35 7.372 368.65 8.422 368.65 9.612 368.65 10.816 369.35 11.866 370.596 11.866z"/>
      <circle cx="288" cy="9" r="4" fill="#6FD350"/>
      <path fill="#01B2D0" fill-opacity=".2" fill-rule="nonzero" d="M12.8331659,8.01477569 C13.2077336,7.60083171 12.9105975,6.94370779 12.348854,6.94370779 L8.16444183,6.94370776 L10.1092948,0.839273991 C10.3193495,0.179517246 9.47153582,-0.29763087 9.0051023,0.217836309 L0.166834064,9.98522431 C-0.207733621,10.3991683 0.0894025115,11.0562922 0.651146022,11.0562922 L4.83279727,11.0562927 L2.89070519,17.160726 C2.68065048,17.8204828 3.52846418,18.2976309 3.9948977,17.7821637 L12.8331659,8.01477569 Z"/>
    </g>
    <g transform="translate(24 122)">
      <rect width="405" height="38" fill="#9D9D9D" opacity=".06"/>
      <g transform="translate(12 10)">
        <path fill="#01B2D0" d="M32.408,13 L30.546,13 L29.86,11.194 L25.576,11.194 L24.89,13 L23.028,13 L26.696,3.662 L28.74,3.662 L32.408,13 Z M29.398,9.752 L27.718,5.3 L26.038,9.752 L29.398,9.752 Z M36.454,13.168 C34.41,13.168 32.968,11.656 32.968,9.612 C32.968,7.568 34.41,6.07 36.454,6.07 C37.784,6.07 38.568,6.63 39.044,7.274 L38.078,8.156 C37.7,7.624 37.182,7.372 36.524,7.372 C35.306,7.372 34.48,8.296 34.48,9.612 C34.48,10.928 35.306,11.866 36.524,11.866 C37.182,11.866 37.7,11.586 38.078,11.054 L39.044,11.964 C38.568,12.594 37.784,13.168 36.454,13.168 Z M43.426,13.168 C41.382,13.168 39.94,11.656 39.94,9.612 C39.94,7.568 41.382,6.07 43.426,6.07 C44.756,6.07 45.54,6.63 46.016,7.274 L45.05,8.156 C44.672,7.624 44.154,7.372 43.496,7.372 C42.278,7.372 41.452,8.296 41.452,9.612 C41.452,10.928 42.278,11.866 43.496,11.866 C44.154,11.866 44.672,11.586 45.05,11.054 L46.016,11.964 C45.54,12.594 44.756,13.168 43.426,13.168 Z M50.384,13.168 C48.228,13.168 46.912,11.544 46.912,9.612 C46.912,7.666 48.228,6.07 50.384,6.07 C52.54,6.07 53.856,7.666 53.856,9.612 C53.856,11.544 52.54,13.168 50.384,13.168 Z M50.384,11.866 C51.644,11.866 52.33,10.816 52.33,9.612 C52.33,8.422 51.644,7.372 50.384,7.372 C49.138,7.372 48.438,8.422 48.438,9.612 C48.438,10.816 49.138,11.866 50.384,11.866 Z M61.388,13 L59.918,13 L59.918,12.104 C59.442,12.636 58.602,13.168 57.538,13.168 C56.082,13.168 55.354,12.398 55.354,11.026 L55.354,6.238 L56.824,6.238 L56.824,10.48 C56.824,11.53 57.356,11.866 58.196,11.866 C58.938,11.866 59.582,11.432 59.918,10.984 L59.918,6.238 L61.388,6.238 L61.388,13 Z M69.34,13 L67.87,13 L67.87,8.772 C67.87,7.708 67.324,7.372 66.498,7.372 C65.756,7.372 65.112,7.82 64.762,8.268 L64.762,13 L63.292,13 L63.292,6.238 L64.762,6.238 L64.762,7.148 C65.21,6.616 66.092,6.07 67.156,6.07 C68.612,6.07 69.34,6.854 69.34,8.24 L69.34,13 Z M73.288,13.168 C72.14,13.168 71.552,12.552 71.552,11.418 L71.552,7.512 L70.432,7.512 L70.432,6.238 L71.552,6.238 L71.552,4.39 L73.022,4.39 L73.022,6.238 L74.394,6.238 L74.394,7.512 L73.022,7.512 L73.022,11.054 C73.022,11.516 73.246,11.866 73.666,11.866 C73.946,11.866 74.198,11.74 74.31,11.614 L74.66,12.734 C74.394,12.972 73.96,13.168 73.288,13.168 Z M82.402,13.168 C80.358,13.168 78.916,11.656 78.916,9.612 C78.916,7.568 80.358,6.07 82.402,6.07 C83.732,6.07 84.516,6.63 84.992,7.274 L84.026,8.156 C83.648,7.624 83.13,7.372 82.472,7.372 C81.254,7.372 80.428,8.296 80.428,9.612 C80.428,10.928 81.254,11.866 82.472,11.866 C83.13,11.866 83.648,11.586 84.026,11.054 L84.992,11.964 C84.516,12.594 83.732,13.168 82.402,13.168 Z M87.764,13 L86.294,13 L86.294,6.238 L87.764,6.238 L87.764,7.218 C88.282,6.574 89.094,6.07 89.962,6.07 L89.962,7.526 C89.836,7.498 89.696,7.484 89.514,7.484 C88.884,7.484 88.058,7.904 87.764,8.394 L87.764,13 Z M94.288,13.168 C92.244,13.168 90.746,11.754 90.746,9.612 C90.746,7.652 92.174,6.07 94.176,6.07 C96.206,6.07 97.494,7.61 97.494,9.738 L97.494,10.102 L92.286,10.102 C92.398,11.11 93.154,11.964 94.428,11.964 C95.1,11.964 95.87,11.698 96.36,11.208 L97.032,12.174 C96.346,12.818 95.352,13.168 94.288,13.168 Z M96.08,9.052 C96.038,8.254 95.492,7.274 94.162,7.274 C92.916,7.274 92.328,8.24 92.272,9.052 L96.08,9.052 Z M104.564,13 L103.094,13 L103.094,12.258 C102.59,12.846 101.792,13.168 100.896,13.168 C99.804,13.168 98.558,12.412 98.558,10.928 C98.558,9.36 99.79,8.716 100.896,8.716 C101.82,8.716 102.59,9.01 103.094,9.584 L103.094,8.576 C103.094,7.792 102.436,7.316 101.512,7.316 C100.756,7.316 100.084,7.596 99.51,8.184 L98.894,7.162 C99.678,6.406 100.658,6.07 101.736,6.07 C103.248,6.07 104.564,6.7 104.564,8.506 L104.564,13 Z M101.484,12.16 C102.114,12.16 102.744,11.922 103.094,11.46 L103.094,10.424 C102.744,9.962 102.114,9.724 101.484,9.724 C100.658,9.724 100.028,10.214 100.028,10.942 C100.028,11.684 100.658,12.16 101.484,12.16 Z M108.512,13.168 C107.364,13.168 106.776,12.552 106.776,11.418 L106.776,7.512 L105.656,7.512 L105.656,6.238 L106.776,6.238 L106.776,4.39 L108.246,4.39 L108.246,6.238 L109.618,6.238 L109.618,7.512 L108.246,7.512 L108.246,11.054 C108.246,11.516 108.47,11.866 108.89,11.866 C109.17,11.866 109.422,11.74 109.534,11.614 L109.884,12.734 C109.618,12.972 109.184,13.168 108.512,13.168 Z M114.07,13.168 C112.026,13.168 110.528,11.754 110.528,9.612 C110.528,7.652 111.956,6.07 113.958,6.07 C115.988,6.07 117.276,7.61 117.276,9.738 L117.276,10.102 L112.068,10.102 C112.18,11.11 112.936,11.964 114.21,11.964 C114.882,11.964 115.652,11.698 116.142,11.208 L116.814,12.174 C116.128,12.818 115.134,13.168 114.07,13.168 Z M115.862,9.052 C115.82,8.254 115.274,7.274 113.944,7.274 C112.698,7.274 112.11,8.24 112.054,9.052 L115.862,9.052 Z M124.962,13 L123.492,13 L123.492,12.076 C122.974,12.748 122.204,13.168 121.322,13.168 C119.6,13.168 118.326,11.852 118.326,9.612 C118.326,7.428 119.586,6.07 121.322,6.07 C122.176,6.07 122.96,6.448 123.492,7.176 L123.492,3.662 L124.962,3.662 L124.962,13 Z M121.756,11.866 C122.442,11.866 123.17,11.46 123.492,10.956 L123.492,8.282 C123.17,7.778 122.442,7.372 121.756,7.372 C120.58,7.372 119.838,8.31 119.838,9.612 C119.838,10.928 120.58,11.866 121.756,11.866 Z"/>
        <polygon fill="#384254" points="164.326 13 162.688 13 162.688 5.776 161.162 7.372 160.21 6.378 162.898 3.662 164.326 3.662"/>
        <path fill="#384254" d="M312.566,13 L311.096,13 L311.096,12.258 C310.592,12.846 309.794,13.168 308.898,13.168 C307.806,13.168 306.56,12.412 306.56,10.928 C306.56,9.36 307.792,8.716 308.898,8.716 C309.822,8.716 310.592,9.01 311.096,9.584 L311.096,8.576 C311.096,7.792 310.438,7.316 309.514,7.316 C308.758,7.316 308.086,7.596 307.512,8.184 L306.896,7.162 C307.68,6.406 308.66,6.07 309.738,6.07 C311.25,6.07 312.566,6.7 312.566,8.506 L312.566,13 Z M309.486,12.16 C310.116,12.16 310.746,11.922 311.096,11.46 L311.096,10.424 C310.746,9.962 310.116,9.724 309.486,9.724 C308.66,9.724 308.03,10.214 308.03,10.942 C308.03,11.684 308.66,12.16 309.486,12.16 Z M324.312,13 L322.842,13 L322.842,12.076 C322.324,12.748 321.554,13.168 320.672,13.168 C318.95,13.168 317.676,11.852 317.676,9.612 C317.676,7.428 318.936,6.07 320.672,6.07 C321.526,6.07 322.31,6.448 322.842,7.176 L322.842,3.662 L324.312,3.662 L324.312,13 Z M321.106,11.866 C321.792,11.866 322.52,11.46 322.842,10.956 L322.842,8.282 C322.52,7.778 321.792,7.372 321.106,7.372 C319.93,7.372 319.188,8.31 319.188,9.612 C319.188,10.928 319.93,11.866 321.106,11.866 Z M331.83,13 L330.36,13 L330.36,12.258 C329.856,12.846 329.058,13.168 328.162,13.168 C327.07,13.168 325.824,12.412 325.824,10.928 C325.824,9.36 327.056,8.716 328.162,8.716 C329.086,8.716 329.856,9.01 330.36,9.584 L330.36,8.576 C330.36,7.792 329.702,7.316 328.778,7.316 C328.022,7.316 327.35,7.596 326.776,8.184 L326.16,7.162 C326.944,6.406 327.924,6.07 329.002,6.07 C330.514,6.07 331.83,6.7 331.83,8.506 L331.83,13 Z M328.75,12.16 C329.38,12.16 330.01,11.922 330.36,11.46 L330.36,10.424 C330.01,9.962 329.38,9.724 328.75,9.724 C327.924,9.724 327.294,10.214 327.294,10.942 C327.294,11.684 327.924,12.16 328.75,12.16 Z M333.454,15.646 L333.664,14.33 C333.818,14.4 334.056,14.442 334.224,14.442 C334.7,14.442 335.008,14.302 335.204,13.854 L335.54,13.084 L332.754,6.238 L334.336,6.238 L336.31,11.306 L338.284,6.238 L339.852,6.238 L336.59,14.218 C336.128,15.366 335.33,15.73 334.28,15.744 C334.07,15.744 333.65,15.702 333.454,15.646 Z M350.002,13 L348.532,13 L348.532,12.258 C348.028,12.846 347.23,13.168 346.334,13.168 C345.242,13.168 343.996,12.412 343.996,10.928 C343.996,9.36 345.228,8.716 346.334,8.716 C347.258,8.716 348.028,9.01 348.532,9.584 L348.532,8.576 C348.532,7.792 347.874,7.316 346.95,7.316 C346.194,7.316 345.522,7.596 344.948,8.184 L344.332,7.162 C345.116,6.406 346.096,6.07 347.174,6.07 C348.686,6.07 350.002,6.7 350.002,8.506 L350.002,13 Z M346.922,12.16 C347.552,12.16 348.182,11.922 348.532,11.46 L348.532,10.424 C348.182,9.962 347.552,9.724 346.922,9.724 C346.096,9.724 345.466,10.214 345.466,10.942 C345.466,11.684 346.096,12.16 346.922,12.16 Z M354.664,15.744 C353.516,15.744 352.662,15.492 351.822,14.736 L352.508,13.672 C353.068,14.302 353.768,14.54 354.664,14.54 C355.63,14.54 356.666,14.092 356.666,12.65 L356.666,11.88 C356.148,12.566 355.378,13.014 354.496,13.014 C352.774,13.014 351.5,11.768 351.5,9.542 C351.5,7.344 352.746,6.07 354.496,6.07 C355.35,6.07 356.12,6.448 356.666,7.176 L356.666,6.238 L358.136,6.238 L358.136,12.65 C358.136,15.086 356.316,15.744 354.664,15.744 Z M354.93,11.698 C355.616,11.698 356.33,11.292 356.666,10.802 L356.666,8.268 C356.33,7.778 355.616,7.372 354.93,7.372 C353.754,7.372 353.012,8.24 353.012,9.542 C353.012,10.844 353.754,11.698 354.93,11.698 Z M363.106,13.168 C360.95,13.168 359.634,11.544 359.634,9.612 C359.634,7.666 360.95,6.07 363.106,6.07 C365.262,6.07 366.578,7.666 366.578,9.612 C366.578,11.544 365.262,13.168 363.106,13.168 Z M363.106,11.866 C364.366,11.866 365.052,10.816 365.052,9.612 C365.052,8.422 364.366,7.372 363.106,7.372 C361.86,7.372 361.16,8.422 361.16,9.612 C361.16,10.816 361.86,11.866 363.106,11.866 Z"/>
        <circle cx="288" cy="9" r="4" fill="#6FD350"/>
        <path fill="#01B2D0" fill-opacity=".2" fill-rule="nonzero" d="M12.8331659,8.01477569 C13.2077336,7.60083171 12.9105975,6.94370779 12.348854,6.94370779 L8.16444183,6.94370776 L10.1092948,0.839273991 C10.3193495,0.179517246 9.47153582,-0.29763087 9.0051023,0.217836309 L0.166834064,9.98522431 C-0.207733621,10.3991683 0.0894025115,11.0562922 0.651146022,11.0562922 L4.83279727,11.0562927 L2.89070519,17.160726 C2.68065048,17.8204828 3.52846418,18.2976309 3.9948977,17.7821637 L12.8331659,8.01477569 Z"/>
      </g>
    </g>
    <g transform="translate(36 92)">
      <path fill="#01B2D0" d="M32.408,14 L30.546,14 L29.86,12.194 L25.576,12.194 L24.89,14 L23.028,14 L26.696,4.662 L28.74,4.662 L32.408,14 Z M29.398,10.752 L27.718,6.3 L26.038,10.752 L29.398,10.752 Z M36.454,14.168 C34.41,14.168 32.968,12.656 32.968,10.612 C32.968,8.568 34.41,7.07 36.454,7.07 C37.784,7.07 38.568,7.63 39.044,8.274 L38.078,9.156 C37.7,8.624 37.182,8.372 36.524,8.372 C35.306,8.372 34.48,9.296 34.48,10.612 C34.48,11.928 35.306,12.866 36.524,12.866 C37.182,12.866 37.7,12.586 38.078,12.054 L39.044,12.964 C38.568,13.594 37.784,14.168 36.454,14.168 Z M43.426,14.168 C41.382,14.168 39.94,12.656 39.94,10.612 C39.94,8.568 41.382,7.07 43.426,7.07 C44.756,7.07 45.54,7.63 46.016,8.274 L45.05,9.156 C44.672,8.624 44.154,8.372 43.496,8.372 C42.278,8.372 41.452,9.296 41.452,10.612 C41.452,11.928 42.278,12.866 43.496,12.866 C44.154,12.866 44.672,12.586 45.05,12.054 L46.016,12.964 C45.54,13.594 44.756,14.168 43.426,14.168 Z M50.454,14.168 C48.41,14.168 46.912,12.754 46.912,10.612 C46.912,8.652 48.34,7.07 50.342,7.07 C52.372,7.07 53.66,8.61 53.66,10.738 L53.66,11.102 L48.452,11.102 C48.564,12.11 49.32,12.964 50.594,12.964 C51.266,12.964 52.036,12.698 52.526,12.208 L53.198,13.174 C52.512,13.818 51.518,14.168 50.454,14.168 Z M52.246,10.052 C52.204,9.254 51.658,8.274 50.328,8.274 C49.082,8.274 48.494,9.24 48.438,10.052 L52.246,10.052 Z M58.756,14.168 C57.902,14.168 57.146,13.776 56.586,13.062 L56.586,16.576 L55.116,16.576 L55.116,7.238 L56.586,7.238 L56.586,8.162 C57.09,7.49 57.874,7.07 58.756,7.07 C60.506,7.07 61.752,8.386 61.752,10.612 C61.752,12.838 60.506,14.168 58.756,14.168 Z M58.322,12.866 C59.484,12.866 60.24,11.928 60.24,10.612 C60.24,9.296 59.484,8.372 58.322,8.372 C57.636,8.372 56.922,8.764 56.586,9.268 L56.586,11.942 C56.908,12.446 57.636,12.866 58.322,12.866 Z M65.266,14.168 C64.118,14.168 63.53,13.552 63.53,12.418 L63.53,8.512 L62.41,8.512 L62.41,7.238 L63.53,7.238 L63.53,5.39 L65,5.39 L65,7.238 L66.372,7.238 L66.372,8.512 L65,8.512 L65,12.054 C65,12.516 65.224,12.866 65.644,12.866 C65.924,12.866 66.176,12.74 66.288,12.614 L66.638,13.734 C66.372,13.972 65.938,14.168 65.266,14.168 Z M70.824,14.168 C68.78,14.168 67.282,12.754 67.282,10.612 C67.282,8.652 68.71,7.07 70.712,7.07 C72.742,7.07 74.03,8.61 74.03,10.738 L74.03,11.102 L68.822,11.102 C68.934,12.11 69.69,12.964 70.964,12.964 C71.636,12.964 72.406,12.698 72.896,12.208 L73.568,13.174 C72.882,13.818 71.888,14.168 70.824,14.168 Z M72.616,10.052 C72.574,9.254 72.028,8.274 70.698,8.274 C69.452,8.274 68.864,9.24 68.808,10.052 L72.616,10.052 Z M81.716,14 L80.246,14 L80.246,13.076 C79.728,13.748 78.958,14.168 78.076,14.168 C76.354,14.168 75.08,12.852 75.08,10.612 C75.08,8.428 76.34,7.07 78.076,7.07 C78.93,7.07 79.714,7.448 80.246,8.176 L80.246,4.662 L81.716,4.662 L81.716,14 Z M78.51,12.866 C79.196,12.866 79.924,12.46 80.246,11.956 L80.246,9.282 C79.924,8.778 79.196,8.372 78.51,8.372 C77.334,8.372 76.592,9.31 76.592,10.612 C76.592,11.928 77.334,12.866 78.51,12.866 Z M87.974,6.412 C87.47,6.412 87.064,6.006 87.064,5.502 C87.064,4.998 87.47,4.592 87.974,4.592 C88.478,4.592 88.884,4.998 88.884,5.502 C88.884,6.006 88.478,6.412 87.974,6.412 Z M88.702,14 L87.232,14 L87.232,7.238 L88.702,7.238 L88.702,14 Z M96.654,14 L95.184,14 L95.184,9.772 C95.184,8.708 94.638,8.372 93.812,8.372 C93.07,8.372 92.426,8.82 92.076,9.268 L92.076,14 L90.606,14 L90.606,7.238 L92.076,7.238 L92.076,8.148 C92.524,7.616 93.406,7.07 94.47,7.07 C95.926,7.07 96.654,7.854 96.654,9.24 L96.654,14 Z M101.918,14 L100.336,14 L97.578,7.238 L99.16,7.238 L101.134,12.306 L103.108,7.238 L104.676,7.238 L101.918,14 Z M106.342,6.412 C105.838,6.412 105.432,6.006 105.432,5.502 C105.432,4.998 105.838,4.592 106.342,4.592 C106.846,4.592 107.252,4.998 107.252,5.502 C107.252,6.006 106.846,6.412 106.342,6.412 Z M107.07,14 L105.6,14 L105.6,7.238 L107.07,7.238 L107.07,14 Z M111.018,14.168 C109.87,14.168 109.282,13.552 109.282,12.418 L109.282,8.512 L108.162,8.512 L108.162,7.238 L109.282,7.238 L109.282,5.39 L110.752,5.39 L110.752,7.238 L112.124,7.238 L112.124,8.512 L110.752,8.512 L110.752,12.054 C110.752,12.516 110.976,12.866 111.396,12.866 C111.676,12.866 111.928,12.74 112.04,12.614 L112.39,13.734 C112.124,13.972 111.69,14.168 111.018,14.168 Z M116.576,14.168 C114.532,14.168 113.034,12.754 113.034,10.612 C113.034,8.652 114.462,7.07 116.464,7.07 C118.494,7.07 119.782,8.61 119.782,10.738 L119.782,11.102 L114.574,11.102 C114.686,12.11 115.442,12.964 116.716,12.964 C117.388,12.964 118.158,12.698 118.648,12.208 L119.32,13.174 C118.634,13.818 117.64,14.168 116.576,14.168 Z M118.368,10.052 C118.326,9.254 117.78,8.274 116.45,8.274 C115.204,8.274 114.616,9.24 114.56,10.052 L118.368,10.052 Z"/>
      <path fill="#384254" d="M164.326 14.168C161.694 14.168 160.588 11.676 160.588 9.338 160.588 6.986 161.694 4.522 164.326 4.522 166.944 4.522 168.05 6.986 168.05 9.338 168.05 11.676 166.944 14.168 164.326 14.168zM164.326 12.712C165.838 12.712 166.384 11.116 166.384 9.338 166.384 7.546 165.852 5.978 164.326 5.978 162.8 5.978 162.254 7.546 162.254 9.338 162.254 11.116 162.8 12.712 164.326 12.712zM309.864 14.168C308.212 14.168 306.98 13.496 306.336 12.656L307.232 11.578C307.834 12.278 308.814 12.712 309.808 12.712 311.04 12.712 311.754 12.138 311.754 11.284 311.754 10.36 311.026 9.954 309.682 9.954 309.29 9.954 308.758 9.968 308.618 9.982L308.618 8.498C308.772 8.512 309.318 8.512 309.682 8.512 310.788 8.512 311.614 8.134 311.614 7.28 311.614 6.426 310.76 5.978 309.724 5.978 308.758 5.978 307.974 6.328 307.302 7.014L306.462 5.992C307.19 5.138 308.324 4.522 309.878 4.522 311.894 4.522 313.238 5.474 313.238 7.028 313.238 8.288 312.174 9.016 311.222 9.17 312.118 9.268 313.392 9.996 313.392 11.438 313.392 13.034 312.034 14.168 309.864 14.168zM324.83 14L323.36 14 323.36 13.076C322.842 13.748 322.072 14.168 321.19 14.168 319.468 14.168 318.194 12.852 318.194 10.612 318.194 8.428 319.454 7.07 321.19 7.07 322.044 7.07 322.828 7.448 323.36 8.176L323.36 4.662 324.83 4.662 324.83 14zM321.624 12.866C322.31 12.866 323.038 12.46 323.36 11.956L323.36 9.282C323.038 8.778 322.31 8.372 321.624 8.372 320.448 8.372 319.706 9.31 319.706 10.612 319.706 11.928 320.448 12.866 321.624 12.866zM332.348 14L330.878 14 330.878 13.258C330.374 13.846 329.576 14.168 328.68 14.168 327.588 14.168 326.342 13.412 326.342 11.928 326.342 10.36 327.574 9.716 328.68 9.716 329.604 9.716 330.374 10.01 330.878 10.584L330.878 9.576C330.878 8.792 330.22 8.316 329.296 8.316 328.54 8.316 327.868 8.596 327.294 9.184L326.678 8.162C327.462 7.406 328.442 7.07 329.52 7.07 331.032 7.07 332.348 7.7 332.348 9.506L332.348 14zM329.268 13.16C329.898 13.16 330.528 12.922 330.878 12.46L330.878 11.424C330.528 10.962 329.898 10.724 329.268 10.724 328.442 10.724 327.812 11.214 327.812 11.942 327.812 12.684 328.442 13.16 329.268 13.16zM333.972 16.646L334.182 15.33C334.336 15.4 334.574 15.442 334.742 15.442 335.218 15.442 335.526 15.302 335.722 14.854L336.058 14.084 333.272 7.238 334.854 7.238 336.828 12.306 338.802 7.238 340.37 7.238 337.108 15.218C336.646 16.366 335.848 16.73 334.798 16.744 334.588 16.744 334.168 16.702 333.972 16.646zM343.618 14.168C342.456 14.168 341.42 13.79 340.72 13.104L341.392 12.054C341.868 12.544 342.806 12.992 343.674 12.992 344.556 12.992 345.018 12.628 345.018 12.096 345.018 10.766 340.93 11.718 340.93 9.114 340.93 8.008 341.882 7.07 343.59 7.07 344.738 7.07 345.606 7.476 346.208 8.008L345.592 9.044C345.186 8.596 344.444 8.232 343.59 8.232 342.82 8.232 342.344 8.596 342.344 9.072 342.344 10.262 346.432 9.366 346.432 12.054 346.432 13.258 345.438 14.168 343.618 14.168zM357.128 14L355.658 14 355.658 13.258C355.154 13.846 354.356 14.168 353.46 14.168 352.368 14.168 351.122 13.412 351.122 11.928 351.122 10.36 352.354 9.716 353.46 9.716 354.384 9.716 355.154 10.01 355.658 10.584L355.658 9.576C355.658 8.792 355 8.316 354.076 8.316 353.32 8.316 352.648 8.596 352.074 9.184L351.458 8.162C352.242 7.406 353.222 7.07 354.3 7.07 355.812 7.07 357.128 7.7 357.128 9.506L357.128 14zM354.048 13.16C354.678 13.16 355.308 12.922 355.658 12.46L355.658 11.424C355.308 10.962 354.678 10.724 354.048 10.724 353.222 10.724 352.592 11.214 352.592 11.942 352.592 12.684 353.222 13.16 354.048 13.16zM361.79 16.744C360.642 16.744 359.788 16.492 358.948 15.736L359.634 14.672C360.194 15.302 360.894 15.54 361.79 15.54 362.756 15.54 363.792 15.092 363.792 13.65L363.792 12.88C363.274 13.566 362.504 14.014 361.622 14.014 359.9 14.014 358.626 12.768 358.626 10.542 358.626 8.344 359.872 7.07 361.622 7.07 362.476 7.07 363.246 7.448 363.792 8.176L363.792 7.238 365.262 7.238 365.262 13.65C365.262 16.086 363.442 16.744 361.79 16.744zM362.056 12.698C362.742 12.698 363.456 12.292 363.792 11.802L363.792 9.268C363.456 8.778 362.742 8.372 362.056 8.372 360.88 8.372 360.138 9.24 360.138 10.542 360.138 11.844 360.88 12.698 362.056 12.698zM370.232 14.168C368.076 14.168 366.76 12.544 366.76 10.612 366.76 8.666 368.076 7.07 370.232 7.07 372.388 7.07 373.704 8.666 373.704 10.612 373.704 12.544 372.388 14.168 370.232 14.168zM370.232 12.866C371.492 12.866 372.178 11.816 372.178 10.612 372.178 9.422 371.492 8.372 370.232 8.372 368.986 8.372 368.286 9.422 368.286 10.612 368.286 11.816 368.986 12.866 370.232 12.866z"/>
      <circle cx="288" cy="11" r="4" fill="#6FD350"/>
      <path fill="#01B2D0" fill-opacity=".2" fill-rule="nonzero" d="M12.8331659,8.01477569 C13.2077336,7.60083171 12.9105975,6.94370779 12.348854,6.94370779 L8.16444183,6.94370776 L10.1092948,0.839273991 C10.3193495,0.179517246 9.47153582,-0.29763087 9.0051023,0.217836309 L0.166834064,9.98522431 C-0.207733621,10.3991683 0.0894025115,11.0562922 0.651146022,11.0562922 L4.83279727,11.0562927 L2.89070519,17.160726 C2.68065048,17.8204828 3.52846418,18.2976309 3.9948977,17.7821637 L12.8331659,8.01477569 Z"/>
    </g>
    <g transform="translate(146 189)">
      <use fill="#000" filter="url(#event-manager-c)" xlink:href="#event-manager-d"/>
      <use fill="#FFF" stroke="#8D8D8D" stroke-opacity=".24" xlink:href="#event-manager-d"/>
      <g transform="translate(24 101)">
        <rect width="330" height="1" y="41" fill="#E1E1E1"/>
        <path fill="#FFF" stroke="#E1E1E1" d="M0.5,41.5 L303.5,41.5 L303.5,4 C303.5,2.06700338 301.932997,0.5 300,0.5 L4,0.5 C2.06700338,0.5 0.5,2.06700338 0.5,4 L0.5,41.5 Z"/>
        <path fill="#384254" d="M20.232 25L18.328 25 16.27 21.514 14.632 21.514 14.632 25 12.994 25 12.994 15.662 17.096 15.662C18.944 15.662 20.162 16.852 20.162 18.588 20.162 20.24 19.07 21.15 17.936 21.332L20.232 25zM16.886 20.072C17.81 20.072 18.482 19.484 18.482 18.574 18.482 17.678 17.81 17.104 16.886 17.104L14.632 17.104 14.632 20.072 16.886 20.072zM24.474 25.168C22.43 25.168 20.932 23.754 20.932 21.612 20.932 19.652 22.36 18.07 24.362 18.07 26.392 18.07 27.68 19.61 27.68 21.738L27.68 22.102 22.472 22.102C22.584 23.11 23.34 23.964 24.614 23.964 25.286 23.964 26.056 23.698 26.546 23.208L27.218 24.174C26.532 24.818 25.538 25.168 24.474 25.168zM26.266 21.052C26.224 20.254 25.678 19.274 24.348 19.274 23.102 19.274 22.514 20.24 22.458 21.052L26.266 21.052zM32.216 25.168C30.172 25.168 28.73 23.656 28.73 21.612 28.73 19.568 30.172 18.07 32.216 18.07 33.546 18.07 34.33 18.63 34.806 19.274L33.84 20.156C33.462 19.624 32.944 19.372 32.286 19.372 31.068 19.372 30.242 20.296 30.242 21.612 30.242 22.928 31.068 23.866 32.286 23.866 32.944 23.866 33.462 23.586 33.84 23.054L34.806 23.964C34.33 24.594 33.546 25.168 32.216 25.168zM39.244 25.168C37.2 25.168 35.702 23.754 35.702 21.612 35.702 19.652 37.13 18.07 39.132 18.07 41.162 18.07 42.45 19.61 42.45 21.738L42.45 22.102 37.242 22.102C37.354 23.11 38.11 23.964 39.384 23.964 40.056 23.964 40.826 23.698 41.316 23.208L41.988 24.174C41.302 24.818 40.308 25.168 39.244 25.168zM41.036 21.052C40.994 20.254 40.448 19.274 39.118 19.274 37.872 19.274 37.284 20.24 37.228 21.052L41.036 21.052zM49.954 25L48.484 25 48.484 20.772C48.484 19.708 47.938 19.372 47.112 19.372 46.37 19.372 45.726 19.82 45.376 20.268L45.376 25 43.906 25 43.906 18.238 45.376 18.238 45.376 19.148C45.824 18.616 46.706 18.07 47.77 18.07 49.226 18.07 49.954 18.854 49.954 20.24L49.954 25zM53.902 25.168C52.754 25.168 52.166 24.552 52.166 23.418L52.166 19.512 51.046 19.512 51.046 18.238 52.166 18.238 52.166 16.39 53.636 16.39 53.636 18.238 55.008 18.238 55.008 19.512 53.636 19.512 53.636 23.054C53.636 23.516 53.86 23.866 54.28 23.866 54.56 23.866 54.812 23.74 54.924 23.614L55.274 24.734C55.008 24.972 54.574 25.168 53.902 25.168zM79.632 25L77.994 25 77.994 15.662 82.11 15.662C84.07 15.662 85.148 16.992 85.148 18.588 85.148 20.17 84.056 21.5 82.11 21.5L79.632 21.5 79.632 25zM81.886 20.058C82.81 20.058 83.468 19.47 83.468 18.588 83.468 17.692 82.81 17.104 81.886 17.104L79.632 17.104 79.632 20.058 81.886 20.058zM87.948 25L86.478 25 86.478 18.238 87.948 18.238 87.948 19.218C88.466 18.574 89.278 18.07 90.146 18.07L90.146 19.526C90.02 19.498 89.88 19.484 89.698 19.484 89.068 19.484 88.242 19.904 87.948 20.394L87.948 25zM94.402 25.168C92.246 25.168 90.93 23.544 90.93 21.612 90.93 19.666 92.246 18.07 94.402 18.07 96.558 18.07 97.874 19.666 97.874 21.612 97.874 23.544 96.558 25.168 94.402 25.168zM94.402 23.866C95.662 23.866 96.348 22.816 96.348 21.612 96.348 20.422 95.662 19.372 94.402 19.372 93.156 19.372 92.456 20.422 92.456 21.612 92.456 22.816 93.156 23.866 94.402 23.866zM103.012 25.168C102.158 25.168 101.402 24.776 100.842 24.062L100.842 27.576 99.372 27.576 99.372 18.238 100.842 18.238 100.842 19.162C101.346 18.49 102.13 18.07 103.012 18.07 104.762 18.07 106.008 19.386 106.008 21.612 106.008 23.838 104.762 25.168 103.012 25.168zM102.578 23.866C103.74 23.866 104.496 22.928 104.496 21.612 104.496 20.296 103.74 19.372 102.578 19.372 101.892 19.372 101.178 19.764 100.842 20.268L100.842 22.942C101.164 23.446 101.892 23.866 102.578 23.866zM110.614 25.168C108.57 25.168 107.072 23.754 107.072 21.612 107.072 19.652 108.5 18.07 110.502 18.07 112.532 18.07 113.82 19.61 113.82 21.738L113.82 22.102 108.612 22.102C108.724 23.11 109.48 23.964 110.754 23.964 111.426 23.964 112.196 23.698 112.686 23.208L113.358 24.174C112.672 24.818 111.678 25.168 110.614 25.168zM112.406 21.052C112.364 20.254 111.818 19.274 110.488 19.274 109.242 19.274 108.654 20.24 108.598 21.052L112.406 21.052zM116.746 25L115.276 25 115.276 18.238 116.746 18.238 116.746 19.218C117.264 18.574 118.076 18.07 118.944 18.07L118.944 19.526C118.818 19.498 118.678 19.484 118.496 19.484 117.866 19.484 117.04 19.904 116.746 20.394L116.746 25zM122.178 25.168C121.03 25.168 120.442 24.552 120.442 23.418L120.442 19.512 119.322 19.512 119.322 18.238 120.442 18.238 120.442 16.39 121.912 16.39 121.912 18.238 123.284 18.238 123.284 19.512 121.912 19.512 121.912 23.054C121.912 23.516 122.136 23.866 122.556 23.866 122.836 23.866 123.088 23.74 123.2 23.614L123.55 24.734C123.284 24.972 122.85 25.168 122.178 25.168zM125.342 17.412C124.838 17.412 124.432 17.006 124.432 16.502 124.432 15.998 124.838 15.592 125.342 15.592 125.846 15.592 126.252 15.998 126.252 16.502 126.252 17.006 125.846 17.412 125.342 17.412zM126.07 25L124.6 25 124.6 18.238 126.07 18.238 126.07 25zM131.11 25.168C129.066 25.168 127.568 23.754 127.568 21.612 127.568 19.652 128.996 18.07 130.998 18.07 133.028 18.07 134.316 19.61 134.316 21.738L134.316 22.102 129.108 22.102C129.22 23.11 129.976 23.964 131.25 23.964 131.922 23.964 132.692 23.698 133.182 23.208L133.854 24.174C133.168 24.818 132.174 25.168 131.11 25.168zM132.902 21.052C132.86 20.254 132.314 19.274 130.984 19.274 129.738 19.274 129.15 20.24 129.094 21.052L132.902 21.052zM138.096 25.168C136.934 25.168 135.898 24.79 135.198 24.104L135.87 23.054C136.346 23.544 137.284 23.992 138.152 23.992 139.034 23.992 139.496 23.628 139.496 23.096 139.496 21.766 135.408 22.718 135.408 20.114 135.408 19.008 136.36 18.07 138.068 18.07 139.216 18.07 140.084 18.476 140.686 19.008L140.07 20.044C139.664 19.596 138.922 19.232 138.068 19.232 137.298 19.232 136.822 19.596 136.822 20.072 136.822 21.262 140.91 20.366 140.91 23.054 140.91 24.258 139.916 25.168 138.096 25.168zM168.488 25.168C165.73 25.168 163.588 23.208 163.588 20.338 163.588 17.454 165.73 15.508 168.488 15.508 170.364 15.508 171.54 16.474 172.226 17.594L170.84 18.322C170.392 17.538 169.482 16.964 168.488 16.964 166.64 16.964 165.268 18.364 165.268 20.338 165.268 22.284 166.64 23.712 168.488 23.712 169.482 23.712 170.392 23.124 170.84 22.354L172.24 23.054C171.526 24.174 170.364 25.168 168.488 25.168zM179.114 25L177.644 25 177.644 24.258C177.14 24.846 176.342 25.168 175.446 25.168 174.354 25.168 173.108 24.412 173.108 22.928 173.108 21.36 174.34 20.716 175.446 20.716 176.37 20.716 177.14 21.01 177.644 21.584L177.644 20.576C177.644 19.792 176.986 19.316 176.062 19.316 175.306 19.316 174.634 19.596 174.06 20.184L173.444 19.162C174.228 18.406 175.208 18.07 176.286 18.07 177.798 18.07 179.114 18.7 179.114 20.506L179.114 25zM176.034 24.16C176.664 24.16 177.294 23.922 177.644 23.46L177.644 22.424C177.294 21.962 176.664 21.724 176.034 21.724 175.208 21.724 174.578 22.214 174.578 22.942 174.578 23.684 175.208 24.16 176.034 24.16zM190.79 25L189.32 25 189.32 20.59C189.32 19.862 188.998 19.372 188.2 19.372 187.542 19.372 186.926 19.82 186.632 20.268L186.632 25 185.162 25 185.162 20.59C185.162 19.862 184.854 19.372 184.056 19.372 183.398 19.372 182.796 19.834 182.488 20.268L182.488 25 181.018 25 181.018 18.238 182.488 18.238 182.488 19.148C182.782 18.742 183.664 18.07 184.7 18.07 185.708 18.07 186.324 18.574 186.548 19.302 186.926 18.7 187.822 18.07 188.844 18.07 190.076 18.07 190.79 18.742 190.79 20.114L190.79 25zM196.334 25.168C195.48 25.168 194.724 24.776 194.164 24.062L194.164 27.576 192.694 27.576 192.694 18.238 194.164 18.238 194.164 19.162C194.668 18.49 195.452 18.07 196.334 18.07 198.084 18.07 199.33 19.386 199.33 21.612 199.33 23.838 198.084 25.168 196.334 25.168zM195.9 23.866C197.062 23.866 197.818 22.928 197.818 21.612 197.818 20.296 197.062 19.372 195.9 19.372 195.214 19.372 194.5 19.764 194.164 20.268L194.164 22.942C194.486 23.446 195.214 23.866 195.9 23.866zM206.414 25L204.944 25 204.944 24.258C204.44 24.846 203.642 25.168 202.746 25.168 201.654 25.168 200.408 24.412 200.408 22.928 200.408 21.36 201.64 20.716 202.746 20.716 203.67 20.716 204.44 21.01 204.944 21.584L204.944 20.576C204.944 19.792 204.286 19.316 203.362 19.316 202.606 19.316 201.934 19.596 201.36 20.184L200.744 19.162C201.528 18.406 202.508 18.07 203.586 18.07 205.098 18.07 206.414 18.7 206.414 20.506L206.414 25zM203.334 24.16C203.964 24.16 204.594 23.922 204.944 23.46L204.944 22.424C204.594 21.962 203.964 21.724 203.334 21.724 202.508 21.724 201.878 22.214 201.878 22.942 201.878 23.684 202.508 24.16 203.334 24.16zM209.06 17.412C208.556 17.412 208.15 17.006 208.15 16.502 208.15 15.998 208.556 15.592 209.06 15.592 209.564 15.592 209.97 15.998 209.97 16.502 209.97 17.006 209.564 17.412 209.06 17.412zM209.788 25L208.318 25 208.318 18.238 209.788 18.238 209.788 25zM214.45 27.744C213.302 27.744 212.448 27.492 211.608 26.736L212.294 25.672C212.854 26.302 213.554 26.54 214.45 26.54 215.416 26.54 216.452 26.092 216.452 24.65L216.452 23.88C215.934 24.566 215.164 25.014 214.282 25.014 212.56 25.014 211.286 23.768 211.286 21.542 211.286 19.344 212.532 18.07 214.282 18.07 215.136 18.07 215.906 18.448 216.452 19.176L216.452 18.238 217.922 18.238 217.922 24.65C217.922 27.086 216.102 27.744 214.45 27.744zM214.716 23.698C215.402 23.698 216.116 23.292 216.452 22.802L216.452 20.268C216.116 19.778 215.402 19.372 214.716 19.372 213.54 19.372 212.798 20.24 212.798 21.542 212.798 22.844 213.54 23.698 214.716 23.698zM225.874 25L224.404 25 224.404 20.772C224.404 19.708 223.858 19.372 223.032 19.372 222.29 19.372 221.646 19.82 221.296 20.268L221.296 25 219.826 25 219.826 18.238 221.296 18.238 221.296 19.148C221.744 18.616 222.626 18.07 223.69 18.07 225.146 18.07 225.874 18.854 225.874 20.24L225.874 25zM230.102 25.168C228.94 25.168 227.904 24.79 227.204 24.104L227.876 23.054C228.352 23.544 229.29 23.992 230.158 23.992 231.04 23.992 231.502 23.628 231.502 23.096 231.502 21.766 227.414 22.718 227.414 20.114 227.414 19.008 228.366 18.07 230.074 18.07 231.222 18.07 232.09 18.476 232.692 19.008L232.076 20.044C231.67 19.596 230.928 19.232 230.074 19.232 229.304 19.232 228.828 19.596 228.828 20.072 228.828 21.262 232.916 20.366 232.916 23.054 232.916 24.258 231.922 25.168 230.102 25.168zM259.2 25.168C257.478 25.168 256.232 24.552 255.392 23.684L256.316 22.41C256.946 23.096 257.968 23.712 259.27 23.712 260.614 23.712 261.132 23.054 261.132 22.424 261.132 20.464 255.7 21.682 255.7 18.252 255.7 16.698 257.044 15.508 259.102 15.508 260.544 15.508 261.734 15.984 262.588 16.824L261.664 18.042C260.922 17.3 259.928 16.964 258.948 16.964 257.996 16.964 257.38 17.44 257.38 18.126 257.38 19.876 262.812 18.798 262.812 22.27 262.812 23.824 261.706 25.168 259.2 25.168zM267.404 25.168C265.36 25.168 263.862 23.754 263.862 21.612 263.862 19.652 265.29 18.07 267.292 18.07 269.322 18.07 270.61 19.61 270.61 21.738L270.61 22.102 265.402 22.102C265.514 23.11 266.27 23.964 267.544 23.964 268.216 23.964 268.986 23.698 269.476 23.208L270.148 24.174C269.462 24.818 268.468 25.168 267.404 25.168zM269.196 21.052C269.154 20.254 268.608 19.274 267.278 19.274 266.032 19.274 265.444 20.24 265.388 21.052L269.196 21.052zM274.11 25.168C272.962 25.168 272.374 24.552 272.374 23.418L272.374 19.512 271.254 19.512 271.254 18.238 272.374 18.238 272.374 16.39 273.844 16.39 273.844 18.238 275.216 18.238 275.216 19.512 273.844 19.512 273.844 23.054C273.844 23.516 274.068 23.866 274.488 23.866 274.768 23.866 275.02 23.74 275.132 23.614L275.482 24.734C275.216 24.972 274.782 25.168 274.11 25.168zM282.566 25L281.096 25 281.096 24.104C280.62 24.636 279.78 25.168 278.716 25.168 277.26 25.168 276.532 24.398 276.532 23.026L276.532 18.238 278.002 18.238 278.002 22.48C278.002 23.53 278.534 23.866 279.374 23.866 280.116 23.866 280.76 23.432 281.096 22.984L281.096 18.238 282.566 18.238 282.566 25zM288.11 25.168C287.256 25.168 286.5 24.776 285.94 24.062L285.94 27.576 284.47 27.576 284.47 18.238 285.94 18.238 285.94 19.162C286.444 18.49 287.228 18.07 288.11 18.07 289.86 18.07 291.106 19.386 291.106 21.612 291.106 23.838 289.86 25.168 288.11 25.168zM287.676 23.866C288.838 23.866 289.594 22.928 289.594 21.612 289.594 20.296 288.838 19.372 287.676 19.372 286.99 19.372 286.276 19.764 285.94 20.268L285.94 22.942C286.262 23.446 286.99 23.866 287.676 23.866z"/>
        <rect width="65" height="1" y="41" fill="#FFF"/>
        <rect width="1" height="42" x="64" fill="#D8D8D8"/>
        <rect width="1" height="42" x="150" fill="#D8D8D8"/>
        <rect width="1" height="42" x="242" fill="#D8D8D8"/>
      </g>
      <g transform="translate(24 169)">
        <path fill="#384254" d="M4.704 9.144C2.34 9.144.504 7.464.504 5.004.504 2.532 2.34.864 4.704.864 6.312.864 7.32 1.692 7.908 2.652L6.72 3.276C6.336 2.604 5.556 2.112 4.704 2.112 3.12 2.112 1.944 3.312 1.944 5.004 1.944 6.672 3.12 7.896 4.704 7.896 5.556 7.896 6.336 7.392 6.72 6.732L7.92 7.332C7.308 8.292 6.312 9.144 4.704 9.144zM16.188 9L14.592 9 14.004 7.452 10.332 7.452 9.744 9 8.148 9 11.292.996 13.044.996 16.188 9zM13.608 6.216L12.168 2.4 10.728 6.216 13.608 6.216zM25.368 9L23.964 9 23.964 2.82 21.516 9 20.916 9 18.456 2.82 18.456 9 17.052 9 17.052.996 19.032.996 21.216 6.492 23.388.996 25.368.996 25.368 9zM28.476 9L27.072 9 27.072.996 30.6.996C32.28.996 33.204 2.136 33.204 3.504 33.204 4.86 32.268 6 30.6 6L28.476 6 28.476 9zM30.408 4.764C31.2 4.764 31.764 4.26 31.764 3.504 31.764 2.736 31.2 2.232 30.408 2.232L28.476 2.232 28.476 4.764 30.408 4.764zM40.692 9L39.096 9 38.508 7.452 34.836 7.452 34.248 9 32.652 9 35.796.996 37.548.996 40.692 9zM38.112 6.216L36.672 2.4 35.232 6.216 38.112 6.216zM42.96 9L41.556 9 41.556.996 42.96.996 42.96 9zM48.516 9.156C46.188 9.156 44.316 7.512 44.316 5.004 44.316 2.484 46.188.864 48.516.864 50.076.864 51.096 1.608 51.732 2.52L50.592 3.18C50.16 2.58 49.404 2.112 48.516 2.112 46.932 2.112 45.756 3.312 45.756 5.004 45.756 6.672 46.932 7.896 48.516 7.896 49.332 7.896 50.052 7.524 50.412 7.176L50.412 5.94 48.012 5.94 48.012 4.704 51.804 4.704 51.804 7.692C51.024 8.568 49.896 9.156 48.516 9.156zM60.204 9L58.848 9 54.672 3.276 54.672 9 53.268 9 53.268.996 54.708.996 58.8 6.54 58.8.996 60.204.996 60.204 9zM248.164 9L246.76 9 246.76 2.232 244.336 2.232 244.336.996 250.588.996 250.588 2.232 248.164 2.232 248.164 9zM253.18 9L251.776 9 251.776.996 253.18.996 253.18 9zM263.2 9L261.796 9 261.796 2.82 259.348 9 258.748 9 256.288 2.82 256.288 9 254.884 9 254.884.996 256.864.996 259.048 6.492 261.22.996 263.2.996 263.2 9zM266.308 9L264.904 9 264.904.996 266.308.996 266.308 9zM274.948 9L273.592 9 269.416 3.276 269.416 9 268.012 9 268.012.996 269.452.996 273.544 6.54 273.544.996 274.948.996 274.948 9zM280.504 9.156C278.176 9.156 276.304 7.512 276.304 5.004 276.304 2.484 278.176.864 280.504.864 282.064.864 283.084 1.608 283.72 2.52L282.58 3.18C282.148 2.58 281.392 2.112 280.504 2.112 278.92 2.112 277.744 3.312 277.744 5.004 277.744 6.672 278.92 7.896 280.504 7.896 281.32 7.896 282.04 7.524 282.4 7.176L282.4 5.94 280 5.94 280 4.704 283.792 4.704 283.792 7.692C283.012 8.568 281.884 9.156 280.504 9.156z" opacity=".5"/>
        <g transform="translate(0 28)">
          <path fill="#01B2D0" d="M4.018,13.168 C1.862,13.168 0.546,11.544 0.546,9.612 C0.546,7.666 1.862,6.07 4.018,6.07 C6.174,6.07 7.49,7.666 7.49,9.612 C7.49,11.544 6.174,13.168 4.018,13.168 Z M4.018,11.866 C5.278,11.866 5.964,10.816 5.964,9.612 C5.964,8.422 5.278,7.372 4.018,7.372 C2.772,7.372 2.072,8.422 2.072,9.612 C2.072,10.816 2.772,11.866 4.018,11.866 Z M16.436,13 L14.896,13 L13.314,8.044 L11.746,13 L10.206,13 L8.106,6.238 L9.632,6.238 L11.06,11.152 L12.67,6.238 L13.972,6.238 L15.568,11.152 L16.996,6.238 L18.536,6.238 L16.436,13 Z M22.694,13.168 C20.65,13.168 19.152,11.754 19.152,9.612 C19.152,7.652 20.58,6.07 22.582,6.07 C24.612,6.07 25.9,7.61 25.9,9.738 L25.9,10.102 L20.692,10.102 C20.804,11.11 21.56,11.964 22.834,11.964 C23.506,11.964 24.276,11.698 24.766,11.208 L25.438,12.174 C24.752,12.818 23.758,13.168 22.694,13.168 Z M24.486,9.052 C24.444,8.254 23.898,7.274 22.568,7.274 C21.322,7.274 20.734,8.24 20.678,9.052 L24.486,9.052 Z M28.826,13 L27.356,13 L27.356,3.662 L28.826,3.662 L28.826,13 Z M33.054,13.168 C31.892,13.168 30.856,12.79 30.156,12.104 L30.828,11.054 C31.304,11.544 32.242,11.992 33.11,11.992 C33.992,11.992 34.454,11.628 34.454,11.096 C34.454,9.766 30.366,10.718 30.366,8.114 C30.366,7.008 31.318,6.07 33.026,6.07 C34.174,6.07 35.042,6.476 35.644,7.008 L35.028,8.044 C34.622,7.596 33.88,7.232 33.026,7.232 C32.256,7.232 31.78,7.596 31.78,8.072 C31.78,9.262 35.868,8.366 35.868,11.054 C35.868,12.258 34.874,13.168 33.054,13.168 Z M41.314,13.98 C38.766,13.98 36.876,12.062 36.876,9.584 C36.876,6.574 39.522,4.068 42.434,4.068 C45.108,4.068 46.844,6.028 46.844,8.422 C46.844,10.69 45.43,11.81 44.226,11.81 C43.414,11.81 42.98,11.292 42.91,10.732 L42.896,10.634 C42.406,11.334 41.608,11.81 40.796,11.81 C39.452,11.81 38.626,10.844 38.626,9.486 C38.626,7.582 40.208,6.014 41.846,6.014 C42.728,6.014 43.33,6.462 43.624,7.022 L43.778,6.224 L45.094,6.224 L44.338,9.808 C44.324,9.878 44.31,10.046 44.31,10.116 C44.31,10.564 44.562,10.788 44.884,10.788 C45.43,10.788 46.298,10.158 46.298,8.408 C46.298,6.168 44.758,4.586 42.392,4.586 C39.704,4.586 37.408,6.938 37.408,9.556 C37.408,11.768 39.074,13.476 41.384,13.476 C42.35,13.476 43.19,13.182 43.946,12.692 L44.226,13.098 C43.358,13.658 42.35,13.98 41.314,13.98 Z M41.272,10.746 C42.098,10.746 42.7,10.186 43.05,9.682 L43.414,7.918 C43.274,7.554 42.868,7.078 42.154,7.078 C40.908,7.078 39.998,8.212 39.998,9.388 C39.998,10.186 40.474,10.746 41.272,10.746 Z M49.77,10.97 C50.106,11.474 50.82,11.866 51.52,11.866 C52.682,11.866 53.424,10.928 53.424,9.612 C53.424,8.31 52.682,7.372 51.52,7.372 C50.82,7.372 50.106,7.778 49.77,8.282 L49.77,10.97 Z M49.77,13 L48.3,13 L48.3,3.662 L49.77,3.662 L49.77,7.176 C50.316,6.448 51.1,6.07 51.94,6.07 C53.69,6.07 54.95,7.428 54.95,9.612 C54.95,11.852 53.676,13.168 51.94,13.168 C51.072,13.168 50.288,12.748 49.77,12.076 L49.77,13 Z M57.176,5.412 C56.672,5.412 56.266,5.006 56.266,4.502 C56.266,3.998 56.672,3.592 57.176,3.592 C57.68,3.592 58.086,3.998 58.086,4.502 C58.086,5.006 57.68,5.412 57.176,5.412 Z M57.904,13 L56.434,13 L56.434,6.238 L57.904,6.238 L57.904,13 Z M62.566,15.744 C61.418,15.744 60.564,15.492 59.724,14.736 L60.41,13.672 C60.97,14.302 61.67,14.54 62.566,14.54 C63.532,14.54 64.568,14.092 64.568,12.65 L64.568,11.88 C64.05,12.566 63.28,13.014 62.398,13.014 C60.676,13.014 59.402,11.768 59.402,9.542 C59.402,7.344 60.648,6.07 62.398,6.07 C63.252,6.07 64.022,6.448 64.568,7.176 L64.568,6.238 L66.038,6.238 L66.038,12.65 C66.038,15.086 64.218,15.744 62.566,15.744 Z M62.832,11.698 C63.518,11.698 64.232,11.292 64.568,10.802 L64.568,8.268 C64.232,7.778 63.518,7.372 62.832,7.372 C61.656,7.372 60.914,8.24 60.914,9.542 C60.914,10.844 61.656,11.698 62.832,11.698 Z M69.412,10.97 C69.748,11.474 70.462,11.866 71.162,11.866 C72.324,11.866 73.066,10.928 73.066,9.612 C73.066,8.31 72.324,7.372 71.162,7.372 C70.462,7.372 69.748,7.778 69.412,8.282 L69.412,10.97 Z M69.412,13 L67.942,13 L67.942,3.662 L69.412,3.662 L69.412,7.176 C69.958,6.448 70.742,6.07 71.582,6.07 C73.332,6.07 74.592,7.428 74.592,9.612 C74.592,11.852 73.318,13.168 71.582,13.168 C70.714,13.168 69.93,12.748 69.412,12.076 L69.412,13 Z M77.546,13 L76.076,13 L76.076,6.238 L77.546,6.238 L77.546,7.218 C78.064,6.574 78.876,6.07 79.744,6.07 L79.744,7.526 C79.618,7.498 79.478,7.484 79.296,7.484 C78.666,7.484 77.84,7.904 77.546,8.394 L77.546,13 Z M84,13.168 C81.844,13.168 80.528,11.544 80.528,9.612 C80.528,7.666 81.844,6.07 84,6.07 C86.156,6.07 87.472,7.666 87.472,9.612 C87.472,11.544 86.156,13.168 84,13.168 Z M84,11.866 C85.26,11.866 85.946,10.816 85.946,9.612 C85.946,8.422 85.26,7.372 84,7.372 C82.754,7.372 82.054,8.422 82.054,9.612 C82.054,10.816 82.754,11.866 84,11.866 Z M98.742,13 L97.272,13 L97.272,8.59 C97.272,7.862 96.95,7.372 96.152,7.372 C95.494,7.372 94.878,7.82 94.584,8.268 L94.584,13 L93.114,13 L93.114,8.59 C93.114,7.862 92.806,7.372 92.008,7.372 C91.35,7.372 90.748,7.834 90.44,8.268 L90.44,13 L88.97,13 L88.97,6.238 L90.44,6.238 L90.44,7.148 C90.734,6.742 91.616,6.07 92.652,6.07 C93.66,6.07 94.276,6.574 94.5,7.302 C94.878,6.7 95.774,6.07 96.796,6.07 C98.028,6.07 98.742,6.742 98.742,8.114 L98.742,13 Z M106.26,13 L104.79,13 L104.79,12.258 C104.286,12.846 103.488,13.168 102.592,13.168 C101.5,13.168 100.254,12.412 100.254,10.928 C100.254,9.36 101.486,8.716 102.592,8.716 C103.516,8.716 104.286,9.01 104.79,9.584 L104.79,8.576 C104.79,7.792 104.132,7.316 103.208,7.316 C102.452,7.316 101.78,7.596 101.206,8.184 L100.59,7.162 C101.374,6.406 102.354,6.07 103.432,6.07 C104.944,6.07 106.26,6.7 106.26,8.506 L106.26,13 Z M103.18,12.16 C103.81,12.16 104.44,11.922 104.79,11.46 L104.79,10.424 C104.44,9.962 103.81,9.724 103.18,9.724 C102.354,9.724 101.724,10.214 101.724,10.942 C101.724,11.684 102.354,12.16 103.18,12.16 Z M108.906,5.412 C108.402,5.412 107.996,5.006 107.996,4.502 C107.996,3.998 108.402,3.592 108.906,3.592 C109.41,3.592 109.816,3.998 109.816,4.502 C109.816,5.006 109.41,5.412 108.906,5.412 Z M109.634,13 L108.164,13 L108.164,6.238 L109.634,6.238 L109.634,13 Z M113.008,13 L111.538,13 L111.538,3.662 L113.008,3.662 L113.008,13 Z M115.682,13.154 C115.15,13.154 114.702,12.692 114.702,12.16 C114.702,11.642 115.15,11.194 115.682,11.194 C116.214,11.194 116.662,11.642 116.662,12.16 C116.662,12.692 116.214,13.154 115.682,13.154 Z M121.366,13.168 C119.322,13.168 117.88,11.656 117.88,9.612 C117.88,7.568 119.322,6.07 121.366,6.07 C122.696,6.07 123.48,6.63 123.956,7.274 L122.99,8.156 C122.612,7.624 122.094,7.372 121.436,7.372 C120.218,7.372 119.392,8.296 119.392,9.612 C119.392,10.928 120.218,11.866 121.436,11.866 C122.094,11.866 122.612,11.586 122.99,11.054 L123.956,11.964 C123.48,12.594 122.696,13.168 121.366,13.168 Z M128.324,13.168 C126.168,13.168 124.852,11.544 124.852,9.612 C124.852,7.666 126.168,6.07 128.324,6.07 C130.48,6.07 131.796,7.666 131.796,9.612 C131.796,11.544 130.48,13.168 128.324,13.168 Z M128.324,11.866 C129.584,11.866 130.27,10.816 130.27,9.612 C130.27,8.422 129.584,7.372 128.324,7.372 C127.078,7.372 126.378,8.422 126.378,9.612 C126.378,10.816 127.078,11.866 128.324,11.866 Z M143.066,13 L141.596,13 L141.596,8.59 C141.596,7.862 141.274,7.372 140.476,7.372 C139.818,7.372 139.202,7.82 138.908,8.268 L138.908,13 L137.438,13 L137.438,8.59 C137.438,7.862 137.13,7.372 136.332,7.372 C135.674,7.372 135.072,7.834 134.764,8.268 L134.764,13 L133.294,13 L133.294,6.238 L134.764,6.238 L134.764,7.148 C135.058,6.742 135.94,6.07 136.976,6.07 C137.984,6.07 138.6,6.574 138.824,7.302 C139.202,6.7 140.098,6.07 141.12,6.07 C142.352,6.07 143.066,6.742 143.066,8.114 L143.066,13 Z"/>
          <path fill="#384254" d="M250.566,13 L249.096,13 L249.096,12.258 C248.592,12.846 247.794,13.168 246.898,13.168 C245.806,13.168 244.56,12.412 244.56,10.928 C244.56,9.36 245.792,8.716 246.898,8.716 C247.822,8.716 248.592,9.01 249.096,9.584 L249.096,8.576 C249.096,7.792 248.438,7.316 247.514,7.316 C246.758,7.316 246.086,7.596 245.512,8.184 L244.896,7.162 C245.68,6.406 246.66,6.07 247.738,6.07 C249.25,6.07 250.566,6.7 250.566,8.506 L250.566,13 Z M247.486,12.16 C248.116,12.16 248.746,11.922 249.096,11.46 L249.096,10.424 C248.746,9.962 248.116,9.724 247.486,9.724 C246.66,9.724 246.03,10.214 246.03,10.942 C246.03,11.684 246.66,12.16 247.486,12.16 Z M262.312,13 L260.842,13 L260.842,12.076 C260.324,12.748 259.554,13.168 258.672,13.168 C256.95,13.168 255.676,11.852 255.676,9.612 C255.676,7.428 256.936,6.07 258.672,6.07 C259.526,6.07 260.31,6.448 260.842,7.176 L260.842,3.662 L262.312,3.662 L262.312,13 Z M259.106,11.866 C259.792,11.866 260.52,11.46 260.842,10.956 L260.842,8.282 C260.52,7.778 259.792,7.372 259.106,7.372 C257.93,7.372 257.188,8.31 257.188,9.612 C257.188,10.928 257.93,11.866 259.106,11.866 Z M269.83,13 L268.36,13 L268.36,12.258 C267.856,12.846 267.058,13.168 266.162,13.168 C265.07,13.168 263.824,12.412 263.824,10.928 C263.824,9.36 265.056,8.716 266.162,8.716 C267.086,8.716 267.856,9.01 268.36,9.584 L268.36,8.576 C268.36,7.792 267.702,7.316 266.778,7.316 C266.022,7.316 265.35,7.596 264.776,8.184 L264.16,7.162 C264.944,6.406 265.924,6.07 267.002,6.07 C268.514,6.07 269.83,6.7 269.83,8.506 L269.83,13 Z M266.75,12.16 C267.38,12.16 268.01,11.922 268.36,11.46 L268.36,10.424 C268.01,9.962 267.38,9.724 266.75,9.724 C265.924,9.724 265.294,10.214 265.294,10.942 C265.294,11.684 265.924,12.16 266.75,12.16 Z M271.454,15.646 L271.664,14.33 C271.818,14.4 272.056,14.442 272.224,14.442 C272.7,14.442 273.008,14.302 273.204,13.854 L273.54,13.084 L270.754,6.238 L272.336,6.238 L274.31,11.306 L276.284,6.238 L277.852,6.238 L274.59,14.218 C274.128,15.366 273.33,15.73 272.28,15.744 C272.07,15.744 271.65,15.702 271.454,15.646 Z M288.002,13 L286.532,13 L286.532,12.258 C286.028,12.846 285.23,13.168 284.334,13.168 C283.242,13.168 281.996,12.412 281.996,10.928 C281.996,9.36 283.228,8.716 284.334,8.716 C285.258,8.716 286.028,9.01 286.532,9.584 L286.532,8.576 C286.532,7.792 285.874,7.316 284.95,7.316 C284.194,7.316 283.522,7.596 282.948,8.184 L282.332,7.162 C283.116,6.406 284.096,6.07 285.174,6.07 C286.686,6.07 288.002,6.7 288.002,8.506 L288.002,13 Z M284.922,12.16 C285.552,12.16 286.182,11.922 286.532,11.46 L286.532,10.424 C286.182,9.962 285.552,9.724 284.922,9.724 C284.096,9.724 283.466,10.214 283.466,10.942 C283.466,11.684 284.096,12.16 284.922,12.16 Z M292.664,15.744 C291.516,15.744 290.662,15.492 289.822,14.736 L290.508,13.672 C291.068,14.302 291.768,14.54 292.664,14.54 C293.63,14.54 294.666,14.092 294.666,12.65 L294.666,11.88 C294.148,12.566 293.378,13.014 292.496,13.014 C290.774,13.014 289.5,11.768 289.5,9.542 C289.5,7.344 290.746,6.07 292.496,6.07 C293.35,6.07 294.12,6.448 294.666,7.176 L294.666,6.238 L296.136,6.238 L296.136,12.65 C296.136,15.086 294.316,15.744 292.664,15.744 Z M292.93,11.698 C293.616,11.698 294.33,11.292 294.666,10.802 L294.666,8.268 C294.33,7.778 293.616,7.372 292.93,7.372 C291.754,7.372 291.012,8.24 291.012,9.542 C291.012,10.844 291.754,11.698 292.93,11.698 Z M301.106,13.168 C298.95,13.168 297.634,11.544 297.634,9.612 C297.634,7.666 298.95,6.07 301.106,6.07 C303.262,6.07 304.578,7.666 304.578,9.612 C304.578,11.544 303.262,13.168 301.106,13.168 Z M301.106,11.866 C302.366,11.866 303.052,10.816 303.052,9.612 C303.052,8.422 302.366,7.372 301.106,7.372 C299.86,7.372 299.16,8.422 299.16,9.612 C299.16,10.816 299.86,11.866 301.106,11.866 Z"/>
        </g>
        <g transform="translate(0 62)">
          <path fill="#01B2D0" d="M4.088,13.168 C2.044,13.168 0.546,11.754 0.546,9.612 C0.546,7.652 1.974,6.07 3.976,6.07 C6.006,6.07 7.294,7.61 7.294,9.738 L7.294,10.102 L2.086,10.102 C2.198,11.11 2.954,11.964 4.228,11.964 C4.9,11.964 5.67,11.698 6.16,11.208 L6.832,12.174 C6.146,12.818 5.152,13.168 4.088,13.168 Z M5.88,9.052 C5.838,8.254 5.292,7.274 3.962,7.274 C2.716,7.274 2.128,8.24 2.072,9.052 L5.88,9.052 Z M14.798,13 L13.328,13 L13.328,8.744 C13.328,7.68 12.796,7.372 11.97,7.372 C11.214,7.372 10.57,7.82 10.234,8.268 L10.234,13 L8.764,13 L8.764,3.662 L10.234,3.662 L10.234,7.148 C10.682,6.616 11.55,6.07 12.614,6.07 C14.07,6.07 14.798,6.826 14.798,8.212 L14.798,13 Z M19.838,13.168 C17.794,13.168 16.296,11.754 16.296,9.612 C16.296,7.652 17.724,6.07 19.726,6.07 C21.756,6.07 23.044,7.61 23.044,9.738 L23.044,10.102 L17.836,10.102 C17.948,11.11 18.704,11.964 19.978,11.964 C20.65,11.964 21.42,11.698 21.91,11.208 L22.582,12.174 C21.896,12.818 20.902,13.168 19.838,13.168 Z M21.63,9.052 C21.588,8.254 21.042,7.274 19.712,7.274 C18.466,7.274 17.878,8.24 17.822,9.052 L21.63,9.052 Z M34.272,13 L32.802,13 L32.802,8.59 C32.802,7.862 32.48,7.372 31.682,7.372 C31.024,7.372 30.408,7.82 30.114,8.268 L30.114,13 L28.644,13 L28.644,8.59 C28.644,7.862 28.336,7.372 27.538,7.372 C26.88,7.372 26.278,7.834 25.97,8.268 L25.97,13 L24.5,13 L24.5,6.238 L25.97,6.238 L25.97,7.148 C26.264,6.742 27.146,6.07 28.182,6.07 C29.19,6.07 29.806,6.574 30.03,7.302 C30.408,6.7 31.304,6.07 32.326,6.07 C33.558,6.07 34.272,6.742 34.272,8.114 L34.272,13 Z M36.918,5.412 C36.414,5.412 36.008,5.006 36.008,4.502 C36.008,3.998 36.414,3.592 36.918,3.592 C37.422,3.592 37.828,3.998 37.828,4.502 C37.828,5.006 37.422,5.412 36.918,5.412 Z M37.646,13 L36.176,13 L36.176,6.238 L37.646,6.238 L37.646,13 Z M45.598,13 L44.128,13 L44.128,8.772 C44.128,7.708 43.582,7.372 42.756,7.372 C42.014,7.372 41.37,7.82 41.02,8.268 L41.02,13 L39.55,13 L39.55,6.238 L41.02,6.238 L41.02,7.148 C41.468,6.616 42.35,6.07 43.414,6.07 C44.87,6.07 45.598,6.854 45.598,8.24 L45.598,13 Z M50.26,15.744 C49.112,15.744 48.258,15.492 47.418,14.736 L48.104,13.672 C48.664,14.302 49.364,14.54 50.26,14.54 C51.226,14.54 52.262,14.092 52.262,12.65 L52.262,11.88 C51.744,12.566 50.974,13.014 50.092,13.014 C48.37,13.014 47.096,11.768 47.096,9.542 C47.096,7.344 48.342,6.07 50.092,6.07 C50.946,6.07 51.716,6.448 52.262,7.176 L52.262,6.238 L53.732,6.238 L53.732,12.65 C53.732,15.086 51.912,15.744 50.26,15.744 Z M50.526,11.698 C51.212,11.698 51.926,11.292 52.262,10.802 L52.262,8.268 C51.926,7.778 51.212,7.372 50.526,7.372 C49.35,7.372 48.608,8.24 48.608,9.542 C48.608,10.844 49.35,11.698 50.526,11.698 Z M61.684,13 L60.214,13 L60.214,8.744 C60.214,7.68 59.682,7.372 58.856,7.372 C58.1,7.372 57.456,7.82 57.12,8.268 L57.12,13 L55.65,13 L55.65,3.662 L57.12,3.662 L57.12,7.148 C57.568,6.616 58.436,6.07 59.5,6.07 C60.956,6.07 61.684,6.826 61.684,8.212 L61.684,13 Z M69.202,13 L67.732,13 L67.732,12.258 C67.228,12.846 66.43,13.168 65.534,13.168 C64.442,13.168 63.196,12.412 63.196,10.928 C63.196,9.36 64.428,8.716 65.534,8.716 C66.458,8.716 67.228,9.01 67.732,9.584 L67.732,8.576 C67.732,7.792 67.074,7.316 66.15,7.316 C65.394,7.316 64.722,7.596 64.148,8.184 L63.532,7.162 C64.316,6.406 65.296,6.07 66.374,6.07 C67.886,6.07 69.202,6.7 69.202,8.506 L69.202,13 Z M66.122,12.16 C66.752,12.16 67.382,11.922 67.732,11.46 L67.732,10.424 C67.382,9.962 66.752,9.724 66.122,9.724 C65.296,9.724 64.666,10.214 64.666,10.942 C64.666,11.684 65.296,12.16 66.122,12.16 Z M80.878,13 L79.408,13 L79.408,8.59 C79.408,7.862 79.086,7.372 78.288,7.372 C77.63,7.372 77.014,7.82 76.72,8.268 L76.72,13 L75.25,13 L75.25,8.59 C75.25,7.862 74.942,7.372 74.144,7.372 C73.486,7.372 72.884,7.834 72.576,8.268 L72.576,13 L71.106,13 L71.106,6.238 L72.576,6.238 L72.576,7.148 C72.87,6.742 73.752,6.07 74.788,6.07 C75.796,6.07 76.412,6.574 76.636,7.302 C77.014,6.7 77.91,6.07 78.932,6.07 C80.164,6.07 80.878,6.742 80.878,8.114 L80.878,13 Z M86.758,13.98 C84.21,13.98 82.32,12.062 82.32,9.584 C82.32,6.574 84.966,4.068 87.878,4.068 C90.552,4.068 92.288,6.028 92.288,8.422 C92.288,10.69 90.874,11.81 89.67,11.81 C88.858,11.81 88.424,11.292 88.354,10.732 L88.34,10.634 C87.85,11.334 87.052,11.81 86.24,11.81 C84.896,11.81 84.07,10.844 84.07,9.486 C84.07,7.582 85.652,6.014 87.29,6.014 C88.172,6.014 88.774,6.462 89.068,7.022 L89.222,6.224 L90.538,6.224 L89.782,9.808 C89.768,9.878 89.754,10.046 89.754,10.116 C89.754,10.564 90.006,10.788 90.328,10.788 C90.874,10.788 91.742,10.158 91.742,8.408 C91.742,6.168 90.202,4.586 87.836,4.586 C85.148,4.586 82.852,6.938 82.852,9.556 C82.852,11.768 84.518,13.476 86.828,13.476 C87.794,13.476 88.634,13.182 89.39,12.692 L89.67,13.098 C88.802,13.658 87.794,13.98 86.758,13.98 Z M86.716,10.746 C87.542,10.746 88.144,10.186 88.494,9.682 L88.858,7.918 C88.718,7.554 88.312,7.078 87.598,7.078 C86.352,7.078 85.442,8.212 85.442,9.388 C85.442,10.186 85.918,10.746 86.716,10.746 Z M103.516,13 L102.046,13 L102.046,8.59 C102.046,7.862 101.724,7.372 100.926,7.372 C100.268,7.372 99.652,7.82 99.358,8.268 L99.358,13 L97.888,13 L97.888,8.59 C97.888,7.862 97.58,7.372 96.782,7.372 C96.124,7.372 95.522,7.834 95.214,8.268 L95.214,13 L93.744,13 L93.744,6.238 L95.214,6.238 L95.214,7.148 C95.508,6.742 96.39,6.07 97.426,6.07 C98.434,6.07 99.05,6.574 99.274,7.302 C99.652,6.7 100.548,6.07 101.57,6.07 C102.802,6.07 103.516,6.742 103.516,8.114 L103.516,13 Z M111.034,13 L109.564,13 L109.564,12.258 C109.06,12.846 108.262,13.168 107.366,13.168 C106.274,13.168 105.028,12.412 105.028,10.928 C105.028,9.36 106.26,8.716 107.366,8.716 C108.29,8.716 109.06,9.01 109.564,9.584 L109.564,8.576 C109.564,7.792 108.906,7.316 107.982,7.316 C107.226,7.316 106.554,7.596 105.98,8.184 L105.364,7.162 C106.148,6.406 107.128,6.07 108.206,6.07 C109.718,6.07 111.034,6.7 111.034,8.506 L111.034,13 Z M107.954,12.16 C108.584,12.16 109.214,11.922 109.564,11.46 L109.564,10.424 C109.214,9.962 108.584,9.724 107.954,9.724 C107.128,9.724 106.498,10.214 106.498,10.942 C106.498,11.684 107.128,12.16 107.954,12.16 Z M114.408,13 L112.938,13 L112.938,6.238 L114.408,6.238 L114.408,7.218 C114.926,6.574 115.738,6.07 116.606,6.07 L116.606,7.526 C116.48,7.498 116.34,7.484 116.158,7.484 C115.528,7.484 114.702,7.904 114.408,8.394 L114.408,13 Z M119.266,13 L117.796,13 L117.796,3.662 L119.266,3.662 L119.266,13 Z M121.912,5.412 C121.408,5.412 121.002,5.006 121.002,4.502 C121.002,3.998 121.408,3.592 121.912,3.592 C122.416,3.592 122.822,3.998 122.822,4.502 C122.822,5.006 122.416,5.412 121.912,5.412 Z M122.64,13 L121.17,13 L121.17,6.238 L122.64,6.238 L122.64,13 Z M130.592,13 L129.122,13 L129.122,8.772 C129.122,7.708 128.576,7.372 127.75,7.372 C127.008,7.372 126.364,7.82 126.014,8.268 L126.014,13 L124.544,13 L124.544,6.238 L126.014,6.238 L126.014,7.148 C126.462,6.616 127.344,6.07 128.408,6.07 C129.864,6.07 130.592,6.854 130.592,8.24 L130.592,13 Z M142.268,13 L140.798,13 L140.798,8.59 C140.798,7.862 140.476,7.372 139.678,7.372 C139.02,7.372 138.404,7.82 138.11,8.268 L138.11,13 L136.64,13 L136.64,8.59 C136.64,7.862 136.332,7.372 135.534,7.372 C134.876,7.372 134.274,7.834 133.966,8.268 L133.966,13 L132.496,13 L132.496,6.238 L133.966,6.238 L133.966,7.148 C134.26,6.742 135.142,6.07 136.178,6.07 C137.186,6.07 137.802,6.574 138.026,7.302 C138.404,6.7 139.3,6.07 140.322,6.07 C141.554,6.07 142.268,6.742 142.268,8.114 L142.268,13 Z M149.786,13 L148.316,13 L148.316,12.258 C147.812,12.846 147.014,13.168 146.118,13.168 C145.026,13.168 143.78,12.412 143.78,10.928 C143.78,9.36 145.012,8.716 146.118,8.716 C147.042,8.716 147.812,9.01 148.316,9.584 L148.316,8.576 C148.316,7.792 147.658,7.316 146.734,7.316 C145.978,7.316 145.306,7.596 144.732,8.184 L144.116,7.162 C144.9,6.406 145.88,6.07 146.958,6.07 C148.47,6.07 149.786,6.7 149.786,8.506 L149.786,13 Z M146.706,12.16 C147.336,12.16 147.966,11.922 148.316,11.46 L148.316,10.424 C147.966,9.962 147.336,9.724 146.706,9.724 C145.88,9.724 145.25,10.214 145.25,10.942 C145.25,11.684 145.88,12.16 146.706,12.16 Z M152.432,5.412 C151.928,5.412 151.522,5.006 151.522,4.502 C151.522,3.998 151.928,3.592 152.432,3.592 C152.936,3.592 153.342,3.998 153.342,4.502 C153.342,5.006 152.936,5.412 152.432,5.412 Z M153.16,13 L151.69,13 L151.69,6.238 L153.16,6.238 L153.16,13 Z M156.534,13 L155.064,13 L155.064,3.662 L156.534,3.662 L156.534,13 Z M159.208,13.154 C158.676,13.154 158.228,12.692 158.228,12.16 C158.228,11.642 158.676,11.194 159.208,11.194 C159.74,11.194 160.188,11.642 160.188,12.16 C160.188,12.692 159.74,13.154 159.208,13.154 Z M164.892,13.168 C162.848,13.168 161.406,11.656 161.406,9.612 C161.406,7.568 162.848,6.07 164.892,6.07 C166.222,6.07 167.006,6.63 167.482,7.274 L166.516,8.156 C166.138,7.624 165.62,7.372 164.962,7.372 C163.744,7.372 162.918,8.296 162.918,9.612 C162.918,10.928 163.744,11.866 164.962,11.866 C165.62,11.866 166.138,11.586 166.516,11.054 L167.482,11.964 C167.006,12.594 166.222,13.168 164.892,13.168 Z M171.85,13.168 C169.694,13.168 168.378,11.544 168.378,9.612 C168.378,7.666 169.694,6.07 171.85,6.07 C174.006,6.07 175.322,7.666 175.322,9.612 C175.322,11.544 174.006,13.168 171.85,13.168 Z M171.85,11.866 C173.11,11.866 173.796,10.816 173.796,9.612 C173.796,8.422 173.11,7.372 171.85,7.372 C170.604,7.372 169.904,8.422 169.904,9.612 C169.904,10.816 170.604,11.866 171.85,11.866 Z M186.592,13 L185.122,13 L185.122,8.59 C185.122,7.862 184.8,7.372 184.002,7.372 C183.344,7.372 182.728,7.82 182.434,8.268 L182.434,13 L180.964,13 L180.964,8.59 C180.964,7.862 180.656,7.372 179.858,7.372 C179.2,7.372 178.598,7.834 178.29,8.268 L178.29,13 L176.82,13 L176.82,6.238 L178.29,6.238 L178.29,7.148 C178.584,6.742 179.466,6.07 180.502,6.07 C181.51,6.07 182.126,6.574 182.35,7.302 C182.728,6.7 183.624,6.07 184.646,6.07 C185.878,6.07 186.592,6.742 186.592,8.114 L186.592,13 Z"/>
          <path fill="#384254" d="M248.256,13.168 C246.66,13.168 245.554,12.608 244.798,11.726 L245.736,10.592 C246.352,11.32 247.206,11.712 248.242,11.712 C249.432,11.712 250.16,10.984 250.16,10.06 C250.16,9.066 249.432,8.408 248.284,8.408 C247.5,8.408 246.842,8.646 246.24,9.206 L245.078,8.87 L245.078,3.662 L251.196,3.662 L251.196,5.104 L246.716,5.104 L246.716,7.792 C247.178,7.358 247.934,6.994 248.83,6.994 C250.412,6.994 251.826,8.086 251.826,10.004 C251.826,11.936 250.342,13.168 248.256,13.168 Z M263.194,13 L261.724,13 L261.724,12.076 C261.206,12.748 260.436,13.168 259.554,13.168 C257.832,13.168 256.558,11.852 256.558,9.612 C256.558,7.428 257.818,6.07 259.554,6.07 C260.408,6.07 261.192,6.448 261.724,7.176 L261.724,3.662 L263.194,3.662 L263.194,13 Z M259.988,11.866 C260.674,11.866 261.402,11.46 261.724,10.956 L261.724,8.282 C261.402,7.778 260.674,7.372 259.988,7.372 C258.812,7.372 258.07,8.31 258.07,9.612 C258.07,10.928 258.812,11.866 259.988,11.866 Z M270.712,13 L269.242,13 L269.242,12.258 C268.738,12.846 267.94,13.168 267.044,13.168 C265.952,13.168 264.706,12.412 264.706,10.928 C264.706,9.36 265.938,8.716 267.044,8.716 C267.968,8.716 268.738,9.01 269.242,9.584 L269.242,8.576 C269.242,7.792 268.584,7.316 267.66,7.316 C266.904,7.316 266.232,7.596 265.658,8.184 L265.042,7.162 C265.826,6.406 266.806,6.07 267.884,6.07 C269.396,6.07 270.712,6.7 270.712,8.506 L270.712,13 Z M267.632,12.16 C268.262,12.16 268.892,11.922 269.242,11.46 L269.242,10.424 C268.892,9.962 268.262,9.724 267.632,9.724 C266.806,9.724 266.176,10.214 266.176,10.942 C266.176,11.684 266.806,12.16 267.632,12.16 Z M272.336,15.646 L272.546,14.33 C272.7,14.4 272.938,14.442 273.106,14.442 C273.582,14.442 273.89,14.302 274.086,13.854 L274.422,13.084 L271.636,6.238 L273.218,6.238 L275.192,11.306 L277.166,6.238 L278.734,6.238 L275.472,14.218 C275.01,15.366 274.212,15.73 273.162,15.744 C272.952,15.744 272.532,15.702 272.336,15.646 Z M281.982,13.168 C280.82,13.168 279.784,12.79 279.084,12.104 L279.756,11.054 C280.232,11.544 281.17,11.992 282.038,11.992 C282.92,11.992 283.382,11.628 283.382,11.096 C283.382,9.766 279.294,10.718 279.294,8.114 C279.294,7.008 280.246,6.07 281.954,6.07 C283.102,6.07 283.97,6.476 284.572,7.008 L283.956,8.044 C283.55,7.596 282.808,7.232 281.954,7.232 C281.184,7.232 280.708,7.596 280.708,8.072 C280.708,9.262 284.796,8.366 284.796,11.054 C284.796,12.258 283.802,13.168 281.982,13.168 Z M295.492,13 L294.022,13 L294.022,12.258 C293.518,12.846 292.72,13.168 291.824,13.168 C290.732,13.168 289.486,12.412 289.486,10.928 C289.486,9.36 290.718,8.716 291.824,8.716 C292.748,8.716 293.518,9.01 294.022,9.584 L294.022,8.576 C294.022,7.792 293.364,7.316 292.44,7.316 C291.684,7.316 291.012,7.596 290.438,8.184 L289.822,7.162 C290.606,6.406 291.586,6.07 292.664,6.07 C294.176,6.07 295.492,6.7 295.492,8.506 L295.492,13 Z M292.412,12.16 C293.042,12.16 293.672,11.922 294.022,11.46 L294.022,10.424 C293.672,9.962 293.042,9.724 292.412,9.724 C291.586,9.724 290.956,10.214 290.956,10.942 C290.956,11.684 291.586,12.16 292.412,12.16 Z M300.154,15.744 C299.006,15.744 298.152,15.492 297.312,14.736 L297.998,13.672 C298.558,14.302 299.258,14.54 300.154,14.54 C301.12,14.54 302.156,14.092 302.156,12.65 L302.156,11.88 C301.638,12.566 300.868,13.014 299.986,13.014 C298.264,13.014 296.99,11.768 296.99,9.542 C296.99,7.344 298.236,6.07 299.986,6.07 C300.84,6.07 301.61,6.448 302.156,7.176 L302.156,6.238 L303.626,6.238 L303.626,12.65 C303.626,15.086 301.806,15.744 300.154,15.744 Z M300.42,11.698 C301.106,11.698 301.82,11.292 302.156,10.802 L302.156,8.268 C301.82,7.778 301.106,7.372 300.42,7.372 C299.244,7.372 298.502,8.24 298.502,9.542 C298.502,10.844 299.244,11.698 300.42,11.698 Z M308.596,13.168 C306.44,13.168 305.124,11.544 305.124,9.612 C305.124,7.666 306.44,6.07 308.596,6.07 C310.752,6.07 312.068,7.666 312.068,9.612 C312.068,11.544 310.752,13.168 308.596,13.168 Z M308.596,11.866 C309.856,11.866 310.542,10.816 310.542,9.612 C310.542,8.422 309.856,7.372 308.596,7.372 C307.35,7.372 306.65,8.422 306.65,9.612 C306.65,10.816 307.35,11.866 308.596,11.866 Z"/>
        </g>
      </g>
      <path fill="#384254" d="M38.784 46L35.858 46 34.78 43.162 28.048 43.162 26.97 46 24.044 46 29.808 31.326 33.02 31.326 38.784 46zM34.054 40.896L31.414 33.9 28.774 40.896 34.054 40.896zM45.142 46.264C41.93 46.264 39.664 43.888 39.664 40.676 39.664 37.464 41.93 35.11 45.142 35.11 47.232 35.11 48.464 35.99 49.212 37.002L47.694 38.388C47.1 37.552 46.286 37.156 45.252 37.156 43.338 37.156 42.04 38.608 42.04 40.676 42.04 42.744 43.338 44.218 45.252 44.218 46.286 44.218 47.1 43.778 47.694 42.942L49.212 44.372C48.464 45.362 47.232 46.264 45.142 46.264zM56.098 46.264C52.886 46.264 50.62 43.888 50.62 40.676 50.62 37.464 52.886 35.11 56.098 35.11 58.188 35.11 59.42 35.99 60.168 37.002L58.65 38.388C58.056 37.552 57.242 37.156 56.208 37.156 54.294 37.156 52.996 38.608 52.996 40.676 52.996 42.744 54.294 44.218 56.208 44.218 57.242 44.218 58.056 43.778 58.65 42.942L60.168 44.372C59.42 45.362 58.188 46.264 56.098 46.264zM67.032 46.264C63.644 46.264 61.576 43.712 61.576 40.676 61.576 37.618 63.644 35.11 67.032 35.11 70.42 35.11 72.488 37.618 72.488 40.676 72.488 43.712 70.42 46.264 67.032 46.264zM67.032 44.218C69.012 44.218 70.09 42.568 70.09 40.676 70.09 38.806 69.012 37.156 67.032 37.156 65.074 37.156 63.974 38.806 63.974 40.676 63.974 42.568 65.074 44.218 67.032 44.218zM84.324 46L82.014 46 82.014 44.592C81.266 45.428 79.946 46.264 78.274 46.264 75.986 46.264 74.842 45.054 74.842 42.898L74.842 35.374 77.152 35.374 77.152 42.04C77.152 43.69 77.988 44.218 79.308 44.218 80.474 44.218 81.486 43.536 82.014 42.832L82.014 35.374 84.324 35.374 84.324 46zM96.82 46L94.51 46 94.51 39.356C94.51 37.684 93.652 37.156 92.354 37.156 91.188 37.156 90.176 37.86 89.626 38.564L89.626 46 87.316 46 87.316 35.374 89.626 35.374 89.626 36.804C90.33 35.968 91.716 35.11 93.388 35.11 95.676 35.11 96.82 36.342 96.82 38.52L96.82 46zM103.024 46.264C101.22 46.264 100.296 45.296 100.296 43.514L100.296 37.376 98.536 37.376 98.536 35.374 100.296 35.374 100.296 32.47 102.606 32.47 102.606 35.374 104.762 35.374 104.762 37.376 102.606 37.376 102.606 42.942C102.606 43.668 102.958 44.218 103.618 44.218 104.058 44.218 104.454 44.02 104.63 43.822L105.18 45.582C104.762 45.956 104.08 46.264 103.024 46.264zM117.346 46.264C114.134 46.264 111.868 43.888 111.868 40.676 111.868 37.464 114.134 35.11 117.346 35.11 119.436 35.11 120.668 35.99 121.416 37.002L119.898 38.388C119.304 37.552 118.49 37.156 117.456 37.156 115.542 37.156 114.244 38.608 114.244 40.676 114.244 42.744 115.542 44.218 117.456 44.218 118.49 44.218 119.304 43.778 119.898 42.942L121.416 44.372C120.668 45.362 119.436 46.264 117.346 46.264zM125.772 46L123.462 46 123.462 35.374 125.772 35.374 125.772 36.914C126.586 35.902 127.862 35.11 129.226 35.11L129.226 37.398C129.028 37.354 128.808 37.332 128.522 37.332 127.532 37.332 126.234 37.992 125.772 38.762L125.772 46zM136.024 46.264C132.812 46.264 130.458 44.042 130.458 40.676 130.458 37.596 132.702 35.11 135.848 35.11 139.038 35.11 141.062 37.53 141.062 40.874L141.062 41.446 132.878 41.446C133.054 43.03 134.242 44.372 136.244 44.372 137.3 44.372 138.51 43.954 139.28 43.184L140.336 44.702C139.258 45.714 137.696 46.264 136.024 46.264zM138.84 39.796C138.774 38.542 137.916 37.002 135.826 37.002 133.868 37.002 132.944 38.52 132.856 39.796L138.84 39.796zM152.172 46L149.862 46 149.862 44.834C149.07 45.758 147.816 46.264 146.408 46.264 144.692 46.264 142.734 45.076 142.734 42.744 142.734 40.28 144.67 39.268 146.408 39.268 147.86 39.268 149.07 39.73 149.862 40.632L149.862 39.048C149.862 37.816 148.828 37.068 147.376 37.068 146.188 37.068 145.132 37.508 144.23 38.432L143.262 36.826C144.494 35.638 146.034 35.11 147.728 35.11 150.104 35.11 152.172 36.1 152.172 38.938L152.172 46zM147.332 44.68C148.322 44.68 149.312 44.306 149.862 43.58L149.862 41.952C149.312 41.226 148.322 40.852 147.332 40.852 146.034 40.852 145.044 41.622 145.044 42.766 145.044 43.932 146.034 44.68 147.332 44.68zM158.376 46.264C156.572 46.264 155.648 45.296 155.648 43.514L155.648 37.376 153.888 37.376 153.888 35.374 155.648 35.374 155.648 32.47 157.958 32.47 157.958 35.374 160.114 35.374 160.114 37.376 157.958 37.376 157.958 42.942C157.958 43.668 158.31 44.218 158.97 44.218 159.41 44.218 159.806 44.02 159.982 43.822L160.532 45.582C160.114 45.956 159.432 46.264 158.376 46.264zM167.11 46.264C163.898 46.264 161.544 44.042 161.544 40.676 161.544 37.596 163.788 35.11 166.934 35.11 170.124 35.11 172.148 37.53 172.148 40.874L172.148 41.446 163.964 41.446C164.14 43.03 165.328 44.372 167.33 44.372 168.386 44.372 169.596 43.954 170.366 43.184L171.422 44.702C170.344 45.714 168.782 46.264 167.11 46.264zM169.926 39.796C169.86 38.542 169.002 37.002 166.912 37.002 164.954 37.002 164.03 38.52 163.942 39.796L169.926 39.796zM184.226 46L181.916 46 181.916 44.548C181.102 45.604 179.892 46.264 178.506 46.264 175.8 46.264 173.798 44.196 173.798 40.676 173.798 37.244 175.778 35.11 178.506 35.11 179.848 35.11 181.08 35.704 181.916 36.848L181.916 31.326 184.226 31.326 184.226 46zM179.188 44.218C180.266 44.218 181.41 43.58 181.916 42.788L181.916 38.586C181.41 37.794 180.266 37.156 179.188 37.156 177.34 37.156 176.174 38.63 176.174 40.676 176.174 42.744 177.34 44.218 179.188 44.218zM52.44 72L46.938 72 46.938 62.662 48.1 62.662 48.1 70.964 52.44 70.964 52.44 72zM59.034 72L57.984 72 57.984 71.23C57.438 71.846 56.654 72.168 55.744 72.168 54.61 72.168 53.392 71.398 53.392 69.928 53.392 68.402 54.596 67.702 55.744 67.702 56.668 67.702 57.438 67.996 57.984 68.612L57.984 67.394C57.984 66.498 57.256 65.98 56.276 65.98 55.464 65.98 54.806 66.26 54.204 66.918L53.714 66.19C54.442 65.434 55.31 65.07 56.416 65.07 57.858 65.07 59.034 65.714 59.034 67.352L59.034 72zM56.136 71.412C56.864 71.412 57.578 71.132 57.984 70.572L57.984 69.284C57.578 68.738 56.864 68.458 56.136 68.458 55.142 68.458 54.456 69.074 54.456 69.928 54.456 70.796 55.142 71.412 56.136 71.412zM63.304 72.168C62.184 72.168 61.26 71.818 60.574 71.104L61.106 70.348C61.554 70.866 62.408 71.314 63.332 71.314 64.368 71.314 64.942 70.824 64.942 70.152 64.942 68.514 60.756 69.522 60.756 67.016 60.756 65.952 61.652 65.07 63.262 65.07 64.424 65.07 65.236 65.504 65.768 66.05L65.278 66.778C64.872 66.288 64.144 65.924 63.262 65.924 62.338 65.924 61.764 66.386 61.764 66.988 61.764 68.458 65.95 67.492 65.95 70.124 65.95 71.258 65.04 72.168 63.304 72.168zM69.38 72.168C68.372 72.168 67.868 71.594 67.868 70.586L67.868 66.162 66.748 66.162 66.748 65.238 67.868 65.238 67.868 63.39 68.932 63.39 68.932 65.238 70.304 65.238 70.304 66.162 68.932 66.162 68.932 70.362C68.932 70.866 69.156 71.23 69.604 71.23 69.912 71.23 70.178 71.09 70.318 70.936L70.626 71.734C70.36 71.986 69.982 72.168 69.38 72.168zM77.122 72.168C76.114 72.168 75.61 71.594 75.61 70.586L75.61 66.162 74.49 66.162 74.49 65.238 75.61 65.238 75.61 63.39 76.674 63.39 76.674 65.238 78.046 65.238 78.046 66.162 76.674 66.162 76.674 70.362C76.674 70.866 76.898 71.23 77.346 71.23 77.654 71.23 77.92 71.09 78.06 70.936L78.368 71.734C78.102 71.986 77.724 72.168 77.122 72.168zM80.566 72L79.516 72 79.516 65.238 80.566 65.238 80.566 66.316C81.112 65.616 81.896 65.084 82.82 65.084L82.82 66.162C82.694 66.148 82.568 66.134 82.414 66.134 81.756 66.134 80.874 66.666 80.566 67.212L80.566 72zM84.668 64.272C84.276 64.272 83.954 63.964 83.954 63.572 83.954 63.18 84.276 62.858 84.668 62.858 85.06 62.858 85.368 63.18 85.368 63.572 85.368 63.964 85.06 64.272 84.668 64.272zM85.186 72L84.136 72 84.136 65.238 85.186 65.238 85.186 72zM90.002 74.744C88.868 74.744 88.084 74.52 87.272 73.722L87.804 72.966C88.364 73.624 89.036 73.876 90.002 73.876 91.122 73.876 92.186 73.33 92.186 71.902L92.186 70.88C91.682 71.566 90.856 72.084 89.904 72.084 88.14 72.084 86.894 70.768 86.894 68.584 86.894 66.414 88.126 65.07 89.904 65.07 90.814 65.07 91.64 65.518 92.186 66.26L92.186 65.238 93.236 65.238 93.236 71.902C93.236 74.044 91.654 74.744 90.002 74.744zM90.17 71.146C90.996 71.146 91.808 70.642 92.186 70.054L92.186 67.086C91.808 66.512 90.996 66.008 90.17 66.008 88.798 66.008 87.986 67.086 87.986 68.584 87.986 70.068 88.798 71.146 90.17 71.146zM98.052 74.744C96.918 74.744 96.134 74.52 95.322 73.722L95.854 72.966C96.414 73.624 97.086 73.876 98.052 73.876 99.172 73.876 100.236 73.33 100.236 71.902L100.236 70.88C99.732 71.566 98.906 72.084 97.954 72.084 96.19 72.084 94.944 70.768 94.944 68.584 94.944 66.414 96.176 65.07 97.954 65.07 98.864 65.07 99.69 65.518 100.236 66.26L100.236 65.238 101.286 65.238 101.286 71.902C101.286 74.044 99.704 74.744 98.052 74.744zM98.22 71.146C99.046 71.146 99.858 70.642 100.236 70.054L100.236 67.086C99.858 66.512 99.046 66.008 98.22 66.008 96.848 66.008 96.036 67.086 96.036 68.584 96.036 70.068 96.848 71.146 98.22 71.146zM106.452 72.168C104.436 72.168 102.994 70.726 102.994 68.612 102.994 66.652 104.394 65.07 106.326 65.07 108.37 65.07 109.574 66.666 109.574 68.696L109.574 68.962 104.114 68.962C104.198 70.236 105.08 71.3 106.536 71.3 107.32 71.3 108.09 70.992 108.636 70.432L109.14 71.118C108.454 71.79 107.544 72.168 106.452 72.168zM108.538 68.178C108.524 67.184 107.852 65.938 106.312 65.938 104.87 65.938 104.156 67.156 104.1 68.178L108.538 68.178zM117.218 72L116.168 72 116.168 70.992C115.664 71.678 114.838 72.168 113.886 72.168 112.122 72.168 110.876 70.824 110.876 68.626 110.876 66.456 112.122 65.07 113.886 65.07 114.796 65.07 115.622 65.518 116.168 66.26L116.168 62.662 117.218 62.662 117.218 72zM114.152 71.23C114.978 71.23 115.804 70.74 116.168 70.152L116.168 67.1C115.804 66.512 114.978 66.008 114.152 66.008 112.78 66.008 111.968 67.128 111.968 68.626 111.968 70.124 112.78 71.23 114.152 71.23zM128.222 72L127.172 72 127.172 71.23C126.626 71.846 125.842 72.168 124.932 72.168 123.798 72.168 122.58 71.398 122.58 69.928 122.58 68.402 123.784 67.702 124.932 67.702 125.856 67.702 126.626 67.996 127.172 68.612L127.172 67.394C127.172 66.498 126.444 65.98 125.464 65.98 124.652 65.98 123.994 66.26 123.392 66.918L122.902 66.19C123.63 65.434 124.498 65.07 125.604 65.07 127.046 65.07 128.222 65.714 128.222 67.352L128.222 72zM125.324 71.412C126.052 71.412 126.766 71.132 127.172 70.572L127.172 69.284C126.766 68.738 126.052 68.458 125.324 68.458 124.33 68.458 123.644 69.074 123.644 69.928 123.644 70.796 124.33 71.412 125.324 71.412zM139.912 72L138.862 72 138.862 70.992C138.358 71.678 137.532 72.168 136.58 72.168 134.816 72.168 133.57 70.824 133.57 68.626 133.57 66.456 134.816 65.07 136.58 65.07 137.49 65.07 138.316 65.518 138.862 66.26L138.862 62.662 139.912 62.662 139.912 72zM136.846 71.23C137.672 71.23 138.498 70.74 138.862 70.152L138.862 67.1C138.498 66.512 137.672 66.008 136.846 66.008 135.474 66.008 134.662 67.128 134.662 68.626 134.662 70.124 135.474 71.23 136.846 71.23zM147.29 72L146.24 72 146.24 71.23C145.694 71.846 144.91 72.168 144 72.168 142.866 72.168 141.648 71.398 141.648 69.928 141.648 68.402 142.852 67.702 144 67.702 144.924 67.702 145.694 67.996 146.24 68.612L146.24 67.394C146.24 66.498 145.512 65.98 144.532 65.98 143.72 65.98 143.062 66.26 142.46 66.918L141.97 66.19C142.698 65.434 143.566 65.07 144.672 65.07 146.114 65.07 147.29 65.714 147.29 67.352L147.29 72zM144.392 71.412C145.12 71.412 145.834 71.132 146.24 70.572L146.24 69.284C145.834 68.738 145.12 68.458 144.392 68.458 143.398 68.458 142.712 69.074 142.712 69.928 142.712 70.796 143.398 71.412 144.392 71.412zM149.04 74.646L149.194 73.694C149.348 73.764 149.6 73.806 149.768 73.806 150.23 73.806 150.538 73.652 150.776 73.092L151.224 72.07 148.396 65.238 149.544 65.238 151.784 70.782 154.038 65.238 155.172 65.238 151.784 73.372C151.378 74.352 150.692 74.73 149.796 74.744 149.572 74.744 149.222 74.702 149.04 74.646zM165.168 72L164.118 72 164.118 71.23C163.572 71.846 162.788 72.168 161.878 72.168 160.744 72.168 159.526 71.398 159.526 69.928 159.526 68.402 160.73 67.702 161.878 67.702 162.802 67.702 163.572 67.996 164.118 68.612L164.118 67.394C164.118 66.498 163.39 65.98 162.41 65.98 161.598 65.98 160.94 66.26 160.338 66.918L159.848 66.19C160.576 65.434 161.444 65.07 162.55 65.07 163.992 65.07 165.168 65.714 165.168 67.352L165.168 72zM162.27 71.412C162.998 71.412 163.712 71.132 164.118 70.572L164.118 69.284C163.712 68.738 162.998 68.458 162.27 68.458 161.276 68.458 160.59 69.074 160.59 69.928 160.59 70.796 161.276 71.412 162.27 71.412zM169.998 74.744C168.864 74.744 168.08 74.52 167.268 73.722L167.8 72.966C168.36 73.624 169.032 73.876 169.998 73.876 171.118 73.876 172.182 73.33 172.182 71.902L172.182 70.88C171.678 71.566 170.852 72.084 169.9 72.084 168.136 72.084 166.89 70.768 166.89 68.584 166.89 66.414 168.122 65.07 169.9 65.07 170.81 65.07 171.636 65.518 172.182 66.26L172.182 65.238 173.232 65.238 173.232 71.902C173.232 74.044 171.65 74.744 169.998 74.744zM170.166 71.146C170.992 71.146 171.804 70.642 172.182 70.054L172.182 67.086C171.804 66.512 170.992 66.008 170.166 66.008 168.794 66.008 167.982 67.086 167.982 68.584 167.982 70.068 168.794 71.146 170.166 71.146zM178.286 72.168C176.228 72.168 174.94 70.572 174.94 68.612 174.94 66.652 176.228 65.07 178.286 65.07 180.344 65.07 181.632 66.652 181.632 68.612 181.632 70.572 180.344 72.168 178.286 72.168zM178.286 71.23C179.728 71.23 180.526 69.998 180.526 68.612 180.526 67.24 179.728 66.008 178.286 66.008 176.844 66.008 176.046 67.24 176.046 68.612 176.046 69.998 176.844 71.23 178.286 71.23z"/>
      <circle cx="28" cy="68" r="4" fill="#6FD350"/>
    </g>
    <g transform="rotate(-13 1015.084 -1849.218)">
      <rect width="18.48" height="17.5" x=".696" y="3.332" fill="#01B2D0" opacity=".1" rx="3"/>
      <rect width="16.48" height="15.5" x="4.203" y="1.316" stroke="#01B2D0" stroke-width="2" rx="3"/>
    </g>
    <g transform="rotate(39 -508.37 588.154)">
      <rect width="18.48" height="18.333" x=".696" y="3.491" fill="#01B2D0" opacity=".1" rx="3"/>
      <rect width="16.48" height="16.333" x="4.203" y="1.331" stroke="#01B2D0" stroke-width="2" rx="3"/>
    </g>
    <g transform="rotate(112 271.95 198.988)">
      <path fill="#6FD350" d="M21.5944411,14.0074966 L32.2191148,35.308862 C33.2051403,37.2857406 32.4018952,39.6876489 30.4250167,40.6736744 C29.8705056,40.9502529 29.2593193,41.0942191 28.6396595,41.0942191 L7.39031215,41.0942191 C5.18117315,41.0942191 3.39031215,39.3033581 3.39031215,37.0942191 C3.39031215,36.4745594 3.53427841,35.8633731 3.81085688,35.308862 L14.4355306,14.0074966 C15.4215561,12.0306181 17.8234644,11.227373 19.800343,12.2133985 C20.5772241,12.6008905 21.2069491,13.2306154 21.5944411,14.0074966 Z" opacity=".2"/>
      <path stroke="#6FD350" stroke-width="2" d="M28.0780801,7.89492174 C27.7874611,7.31226085 27.3151673,6.83996714 26.7325065,6.54934813 C25.2498475,5.809829 23.4484163,6.41226283 22.7088972,7.89492174 L12.0842235,29.1962871 C11.8767896,29.6121704 11.7688149,30.0705602 11.7688149,30.535305 C11.7688149,32.1921592 13.1119607,33.535305 14.7688149,33.535305 L36.0181623,33.535305 C36.4829071,33.535305 36.9412969,33.4273303 37.3571802,33.2198964 C38.8398391,32.4803773 39.4422729,30.678946 38.7027538,29.1962871 L28.0780801,7.89492174 Z"/>
    </g>
    <g transform="rotate(-47 454.847 181.365)">
      <path fill="#6FD350" d="M18.6584492,12.8291371 L26.4876424,28.4531851 C27.4773353,30.4282301 26.6785496,32.8316251 24.7035045,33.8213181 C24.1472653,34.1000489 23.5336749,34.2451826 22.911507,34.2451826 L7.25312048,34.2451826 C5.04398148,34.2451826 3.25312048,32.4543216 3.25312048,30.2451826 C3.25312048,29.6230147 3.39825417,29.0094243 3.67698503,28.4531851 L11.5061783,12.8291371 C12.4958712,10.854092 14.8992662,10.0553063 16.8743113,11.0449992 C17.6459305,11.4316567 18.2717917,12.0575179 18.6584492,12.8291371 Z" opacity=".2"/>
      <path stroke="#6FD350" stroke-width="2" d="M23.9417665,7.81137471 C23.6517733,7.23266032 23.1823775,6.76326443 22.6036631,6.47327128 C21.1223793,5.73100159 19.319833,6.33009091 18.5775633,7.81137471 L10.7483701,23.4354226 C10.5393219,23.852602 10.4304716,24.3127948 10.4304716,24.7794208 C10.4304716,26.436275 11.7736174,27.7794208 13.4304716,27.7794208 L29.0888581,27.7794208 C29.5554841,27.7794208 30.0156769,27.6705705 30.4328563,27.4615224 C31.9141401,26.7192527 32.5132294,24.9167064 31.7709597,23.4354226 L23.9417665,7.81137471 Z"/>
    </g>
    <g transform="rotate(-35 476.813 -11.802)">
      <ellipse cx="18.234" cy="13.678" stroke="#FFC111" stroke-width="2" rx="12.091" ry="12.078"/>
      <ellipse cx="13.819" cy="17.585" fill="#FFC111" opacity=".2" rx="13.091" ry="13.078"/>
    </g>
  </g>
</svg>
