<svg xmlns="http://www.w3.org/2000/svg" xmlns:xlink="http://www.w3.org/1999/xlink" width="574" height="513" viewBox="0 0 574 513">
  <defs>
    <rect id="event-manager-b" width="453" height="240" rx="6"/>
    <filter id="event-manager-a" width="111.7%" height="122.1%" x="-5.8%" y="-9.4%" filterUnits="objectBoundingBox">
      <feMorphology in="SourceAlpha" operator="dilate" radius=".5" result="shadowSpreadOuter1"/>
      <feOffset dy="4" in="shadowSpreadOuter1" result="shadowOffsetOuter1"/>
      <feGaussianBlur in="shadowOffsetOuter1" result="shadowBlurOuter1" stdDeviation="8"/>
      <feComposite in="shadowBlurOuter1" in2="SourceAlpha" operator="out" result="shadowBlurOuter1"/>
      <feColorMatrix in="shadowBlurOuter1" values="0 0 0 0 0   0 0 0 0 0   0 0 0 0 0  0 0 0 0.12 0"/>
    </filter>
    <rect id="event-manager-d" width="396" height="292" rx="6"/>
    <filter id="event-manager-c" width="113.4%" height="118.2%" x="-6.7%" y="-7.7%" filterUnits="objectBoundingBox">
      <feMorphology in="SourceAlpha" operator="dilate" radius=".5" result="shadowSpreadOuter1"/>
      <feOffset dy="4" in="shadowSpreadOuter1" result="shadowOffsetOuter1"/>
      <feGaussianBlur in="shadowOffsetOuter1" result="shadowBlurOuter1" stdDeviation="8"/>
      <feComposite in="shadowBlurOuter1" in2="SourceAlpha" operator="out" result="shadowBlurOuter1"/>
      <feColorMatrix in="shadowBlurOuter1" values="0 0 0 0 0   0 0 0 0 0   0 0 0 0 0  0 0 0 0.12 0"/>
    </filter>
  </defs>
  <g fill="none" fill-rule="evenodd" transform="translate(16 12)">
    <rect width="453" height="215" x="32" y="90" fill="#E1F5DB"/>
    <use fill="#000" filter="url(#event-manager-a)" xlink:href="#event-manager-b"/>
    <use fill="#FFF" stroke="#8D8D8D" stroke-opacity=".24" xlink:href="#event-manager-b"/>
    <path fill="#384254" d="M29.093 34L27.806 34 27.806 32.339 24.308 32.339 24.308 31.305 27.322 26.663 29.093 26.663 29.093 31.206 30.072 31.206 30.072 32.339 29.093 32.339 29.093 34zM27.806 31.206L27.806 27.818 25.573 31.206 27.806 31.206zM33.779 34L32.492 34 32.492 28.324 31.293 29.578 30.545 28.797 32.657 26.663 33.779 26.663 33.779 34zM43.206 34L38.179 34 38.179 26.663 43.206 26.663 43.206 27.796 39.466 27.796 39.466 29.688 43.129 29.688 43.129 30.821 39.466 30.821 39.466 32.867 43.206 32.867 43.206 34zM47.133 34L45.89 34 43.723 28.687 44.966 28.687 46.517 32.669 48.068 28.687 49.3 28.687 47.133 34zM52.49 34.132C50.884 34.132 49.707 33.021 49.707 31.338 49.707 29.798 50.829 28.555 52.402 28.555 53.997 28.555 55.009 29.765 55.009 31.437L55.009 31.723 50.917 31.723C51.005 32.515 51.599 33.186 52.6 33.186 53.128 33.186 53.733 32.977 54.118 32.592L54.646 33.351C54.107 33.857 53.326 34.132 52.49 34.132zM53.898 30.898C53.865 30.271 53.436 29.501 52.391 29.501 51.412 29.501 50.95 30.26 50.906 30.898L53.898 30.898zM60.905 34L59.75 34 59.75 30.678C59.75 29.842 59.321 29.578 58.672 29.578 58.089 29.578 57.583 29.93 57.308 30.282L57.308 34 56.153 34 56.153 28.687 57.308 28.687 57.308 29.402C57.66 28.984 58.353 28.555 59.189 28.555 60.333 28.555 60.905 29.171 60.905 30.26L60.905 34zM64.007 34.132C63.105 34.132 62.643 33.648 62.643 32.757L62.643 29.688 61.763 29.688 61.763 28.687 62.643 28.687 62.643 27.235 63.798 27.235 63.798 28.687 64.876 28.687 64.876 29.688 63.798 29.688 63.798 32.471C63.798 32.834 63.974 33.109 64.304 33.109 64.524 33.109 64.722 33.01 64.81 32.911L65.085 33.791C64.876 33.978 64.535 34.132 64.007 34.132zM67.736 34.132C66.823 34.132 66.009 33.835 65.459 33.296L65.987 32.471C66.361 32.856 67.098 33.208 67.78 33.208 68.473 33.208 68.836 32.922 68.836 32.504 68.836 31.459 65.624 32.207 65.624 30.161 65.624 29.292 66.372 28.555 67.714 28.555 68.616 28.555 69.298 28.874 69.771 29.292L69.287 30.106C68.968 29.754 68.385 29.468 67.714 29.468 67.109 29.468 66.735 29.754 66.735 30.128 66.735 31.063 69.947 30.359 69.947 32.471 69.947 33.417 69.166 34.132 67.736 34.132zM75.546 34.132C74.644 34.132 74.182 33.648 74.182 32.757L74.182 29.688 73.302 29.688 73.302 28.687 74.182 28.687 74.182 27.235 75.337 27.235 75.337 28.687 76.415 28.687 76.415 29.688 75.337 29.688 75.337 32.471C75.337 32.834 75.513 33.109 75.843 33.109 76.063 33.109 76.261 33.01 76.349 32.911L76.624 33.791C76.415 33.978 76.074 34.132 75.546 34.132zM78.604 34L77.449 34 77.449 28.687 78.604 28.687 78.604 29.457C79.011 28.951 79.649 28.555 80.331 28.555L80.331 29.699C80.232 29.677 80.122 29.666 79.979 29.666 79.484 29.666 78.835 29.996 78.604 30.381L78.604 34zM85.677 34L84.522 34 84.522 33.417C84.126 33.879 83.499 34.132 82.795 34.132 81.937 34.132 80.958 33.538 80.958 32.372 80.958 31.14 81.926 30.634 82.795 30.634 83.521 30.634 84.126 30.865 84.522 31.316L84.522 30.524C84.522 29.908 84.005 29.534 83.279 29.534 82.685 29.534 82.157 29.754 81.706 30.216L81.222 29.413C81.838 28.819 82.608 28.555 83.455 28.555 84.643 28.555 85.677 29.05 85.677 30.469L85.677 34zM83.257 33.34C83.752 33.34 84.247 33.153 84.522 32.79L84.522 31.976C84.247 31.613 83.752 31.426 83.257 31.426 82.608 31.426 82.113 31.811 82.113 32.383 82.113 32.966 82.608 33.34 83.257 33.34zM89.593 34.132C87.987 34.132 86.854 32.944 86.854 31.338 86.854 29.732 87.987 28.555 89.593 28.555 90.638 28.555 91.254 28.995 91.628 29.501L90.869 30.194C90.572 29.776 90.165 29.578 89.648 29.578 88.691 29.578 88.042 30.304 88.042 31.338 88.042 32.372 88.691 33.109 89.648 33.109 90.165 33.109 90.572 32.889 90.869 32.471L91.628 33.186C91.254 33.681 90.638 34.132 89.593 34.132zM97.623 34L96.171 34 94.554 31.8 93.806 32.57 93.806 34 92.651 34 92.651 26.663 93.806 26.663 93.806 31.25 96.149 28.687 97.579 28.687 95.379 31.096 97.623 34zM100.857 34.132C99.251 34.132 98.074 33.021 98.074 31.338 98.074 29.798 99.196 28.555 100.769 28.555 102.364 28.555 103.376 29.765 103.376 31.437L103.376 31.723 99.284 31.723C99.372 32.515 99.966 33.186 100.967 33.186 101.495 33.186 102.1 32.977 102.485 32.592L103.013 33.351C102.474 33.857 101.693 34.132 100.857 34.132zM102.265 30.898C102.232 30.271 101.803 29.501 100.758 29.501 99.779 29.501 99.317 30.26 99.273 30.898L102.265 30.898zM109.415 34L108.26 34 108.26 33.274C107.853 33.802 107.248 34.132 106.555 34.132 105.202 34.132 104.201 33.098 104.201 31.338 104.201 29.622 105.191 28.555 106.555 28.555 107.226 28.555 107.842 28.852 108.26 29.424L108.26 26.663 109.415 26.663 109.415 34zM106.896 33.109C107.435 33.109 108.007 32.79 108.26 32.394L108.26 30.293C108.007 29.897 107.435 29.578 106.896 29.578 105.972 29.578 105.389 30.315 105.389 31.338 105.389 32.372 105.972 33.109 106.896 33.109zM31.788 71L30.432 71 26.256 65.276 26.256 71 24.852 71 24.852 62.996 26.292 62.996 30.384 68.54 30.384 62.996 31.788 62.996 31.788 71zM40.704 71L39.108 71 38.52 69.452 34.848 69.452 34.26 71 32.664 71 35.808 62.996 37.56 62.996 40.704 71zM38.124 68.216L36.684 64.4 35.244 68.216 38.124 68.216zM49.884 71L48.48 71 48.48 64.82 46.032 71 45.432 71 42.972 64.82 42.972 71 41.568 71 41.568 62.996 43.548 62.996 45.732 68.492 47.904 62.996 49.884 62.996 49.884 71zM57.072 71L51.588 71 51.588 62.996 57.072 62.996 57.072 64.232 52.992 64.232 52.992 66.296 56.988 66.296 56.988 67.532 52.992 67.532 52.992 69.764 57.072 69.764 57.072 71zM200.704 71.144C198.34 71.144 196.504 69.464 196.504 67.004 196.504 64.532 198.34 62.864 200.704 62.864 202.312 62.864 203.32 63.692 203.908 64.652L202.72 65.276C202.336 64.604 201.556 64.112 200.704 64.112 199.12 64.112 197.944 65.312 197.944 67.004 197.944 68.672 199.12 69.896 200.704 69.896 201.556 69.896 202.336 69.392 202.72 68.732L203.92 69.332C203.308 70.292 202.312 71.144 200.704 71.144zM212.188 71L210.592 71 210.004 69.452 206.332 69.452 205.744 71 204.148 71 207.292 62.996 209.044 62.996 212.188 71zM209.608 68.216L208.168 64.4 206.728 68.216 209.608 68.216zM221.368 71L219.964 71 219.964 64.82 217.516 71 216.916 71 214.456 64.82 214.456 71 213.052 71 213.052 62.996 215.032 62.996 217.216 68.492 219.388 62.996 221.368 62.996 221.368 71zM224.476 71L223.072 71 223.072 62.996 226.6 62.996C228.28 62.996 229.204 64.136 229.204 65.504 229.204 66.86 228.268 68 226.6 68L224.476 68 224.476 71zM226.408 66.764C227.2 66.764 227.764 66.26 227.764 65.504 227.764 64.736 227.2 64.232 226.408 64.232L224.476 64.232 224.476 66.764 226.408 66.764zM236.692 71L235.096 71 234.508 69.452 230.836 69.452 230.248 71 228.652 71 231.796 62.996 233.548 62.996 236.692 71zM234.112 68.216L232.672 64.4 231.232 68.216 234.112 68.216zM238.96 71L237.556 71 237.556 62.996 238.96 62.996 238.96 71zM244.516 71.156C242.188 71.156 240.316 69.512 240.316 67.004 240.316 64.484 242.188 62.864 244.516 62.864 246.076 62.864 247.096 63.608 247.732 64.52L246.592 65.18C246.16 64.58 245.404 64.112 244.516 64.112 242.932 64.112 241.756 65.312 241.756 67.004 241.756 68.672 242.932 69.896 244.516 69.896 245.332 69.896 246.052 69.524 246.412 69.176L246.412 67.94 244.012 67.94 244.012 66.704 247.804 66.704 247.804 69.692C247.024 70.568 245.896 71.156 244.516 71.156zM256.204 71L254.848 71 250.672 65.276 250.672 71 249.268 71 249.268 62.996 250.708 62.996 254.8 68.54 254.8 62.996 256.204 62.996 256.204 71zM260.656 71.144C259.18 71.144 258.112 70.616 257.392 69.872L258.184 68.78C258.724 69.368 259.6 69.896 260.716 69.896 261.868 69.896 262.312 69.332 262.312 68.792 262.312 67.112 257.656 68.156 257.656 65.216 257.656 63.884 258.808 62.864 260.572 62.864 261.808 62.864 262.828 63.272 263.56 63.992L262.768 65.036C262.132 64.4 261.28 64.112 260.44 64.112 259.624 64.112 259.096 64.52 259.096 65.108 259.096 66.608 263.752 65.684 263.752 68.66 263.752 69.992 262.804 71.144 260.656 71.144zM325.688 71L320.756 71 320.756 62.996 322.16 62.996 322.16 69.764 325.688 69.764 325.688 71zM334.136 71L332.54 71 331.952 69.452 328.28 69.452 327.692 71 326.096 71 329.24 62.996 330.992 62.996 334.136 71zM331.556 68.216L330.116 64.4 328.676 68.216 331.556 68.216zM337.628 71.144C336.152 71.144 335.084 70.616 334.364 69.872L335.156 68.78C335.696 69.368 336.572 69.896 337.688 69.896 338.84 69.896 339.284 69.332 339.284 68.792 339.284 67.112 334.628 68.156 334.628 65.216 334.628 63.884 335.78 62.864 337.544 62.864 338.78 62.864 339.8 63.272 340.532 63.992L339.74 65.036C339.104 64.4 338.252 64.112 337.412 64.112 336.596 64.112 336.068 64.52 336.068 65.108 336.068 66.608 340.724 65.684 340.724 68.66 340.724 69.992 339.776 71.144 337.628 71.144zM345.2 71L343.796 71 343.796 64.232 341.372 64.232 341.372 62.996 347.624 62.996 347.624 64.232 345.2 64.232 345.2 71zM354.656 71.144C353.18 71.144 352.112 70.616 351.392 69.872L352.184 68.78C352.724 69.368 353.6 69.896 354.716 69.896 355.868 69.896 356.312 69.332 356.312 68.792 356.312 67.112 351.656 68.156 351.656 65.216 351.656 63.884 352.808 62.864 354.572 62.864 355.808 62.864 356.828 63.272 357.56 63.992L356.768 65.036C356.132 64.4 355.28 64.112 354.44 64.112 353.624 64.112 353.096 64.52 353.096 65.108 353.096 66.608 357.752 65.684 357.752 68.66 357.752 69.992 356.804 71.144 354.656 71.144zM364.52 71L359.036 71 359.036 62.996 364.52 62.996 364.52 64.232 360.44 64.232 360.44 66.296 364.436 66.296 364.436 67.532 360.44 67.532 360.44 69.764 364.52 69.764 364.52 71zM371.444 71L365.96 71 365.96 62.996 371.444 62.996 371.444 64.232 367.364 64.232 367.364 66.296 371.36 66.296 371.36 67.532 367.364 67.532 367.364 69.764 371.444 69.764 371.444 71zM379.82 71L378.464 71 374.288 65.276 374.288 71 372.884 71 372.884 62.996 374.324 62.996 378.416 68.54 378.416 62.996 379.82 62.996 379.82 71z" opacity=".5"/>
    <g transform="translate(36 188)">
      <path fill="#01B2D0" d="M32.408,13 L30.546,13 L29.86,11.194 L25.576,11.194 L24.89,13 L23.028,13 L26.696,3.662 L28.74,3.662 L32.408,13 Z M29.398,9.752 L27.718,5.3 L26.038,9.752 L29.398,9.752 Z M36.454,13.168 C34.41,13.168 32.968,11.656 32.968,9.612 C32.968,7.568 34.41,6.07 36.454,6.07 C37.784,6.07 38.568,6.63 39.044,7.274 L38.078,8.156 C37.7,7.624 37.182,7.372 36.524,7.372 C35.306,7.372 34.48,8.296 34.48,9.612 C34.48,10.928 35.306,11.866 36.524,11.866 C37.182,11.866 37.7,11.586 38.078,11.054 L39.044,11.964 C38.568,12.594 37.784,13.168 36.454,13.168 Z M42.39,13.168 C41.242,13.168 40.654,12.552 40.654,11.418 L40.654,7.512 L39.534,7.512 L39.534,6.238 L40.654,6.238 L40.654,4.39 L42.124,4.39 L42.124,6.238 L43.496,6.238 L43.496,7.512 L42.124,7.512 L42.124,11.054 C42.124,11.516 42.348,11.866 42.768,11.866 C43.048,11.866 43.3,11.74 43.412,11.614 L43.762,12.734 C43.496,12.972 43.062,13.168 42.39,13.168 Z M45.554,5.412 C45.05,5.412 44.644,5.006 44.644,4.502 C44.644,3.998 45.05,3.592 45.554,3.592 C46.058,3.592 46.464,3.998 46.464,4.502 C46.464,5.006 46.058,5.412 45.554,5.412 Z M46.282,13 L44.812,13 L44.812,6.238 L46.282,6.238 L46.282,13 Z M51.546,13 L49.964,13 L47.206,6.238 L48.788,6.238 L50.762,11.306 L52.736,6.238 L54.304,6.238 L51.546,13 Z M60.842,13 L59.372,13 L59.372,12.258 C58.868,12.846 58.07,13.168 57.174,13.168 C56.082,13.168 54.836,12.412 54.836,10.928 C54.836,9.36 56.068,8.716 57.174,8.716 C58.098,8.716 58.868,9.01 59.372,9.584 L59.372,8.576 C59.372,7.792 58.714,7.316 57.79,7.316 C57.034,7.316 56.362,7.596 55.788,8.184 L55.172,7.162 C55.956,6.406 56.936,6.07 58.014,6.07 C59.526,6.07 60.842,6.7 60.842,8.506 L60.842,13 Z M57.762,12.16 C58.392,12.16 59.022,11.922 59.372,11.46 L59.372,10.424 C59.022,9.962 58.392,9.724 57.762,9.724 C56.936,9.724 56.306,10.214 56.306,10.942 C56.306,11.684 56.936,12.16 57.762,12.16 Z M64.79,13.168 C63.642,13.168 63.054,12.552 63.054,11.418 L63.054,7.512 L61.934,7.512 L61.934,6.238 L63.054,6.238 L63.054,4.39 L64.524,4.39 L64.524,6.238 L65.896,6.238 L65.896,7.512 L64.524,7.512 L64.524,11.054 C64.524,11.516 64.748,11.866 65.168,11.866 C65.448,11.866 65.7,11.74 65.812,11.614 L66.162,12.734 C65.896,12.972 65.462,13.168 64.79,13.168 Z M70.348,13.168 C68.304,13.168 66.806,11.754 66.806,9.612 C66.806,7.652 68.234,6.07 70.236,6.07 C72.266,6.07 73.554,7.61 73.554,9.738 L73.554,10.102 L68.346,10.102 C68.458,11.11 69.214,11.964 70.488,11.964 C71.16,11.964 71.93,11.698 72.42,11.208 L73.092,12.174 C72.406,12.818 71.412,13.168 70.348,13.168 Z M72.14,9.052 C72.098,8.254 71.552,7.274 70.222,7.274 C68.976,7.274 68.388,8.24 68.332,9.052 L72.14,9.052 Z M81.24,13 L79.77,13 L79.77,12.076 C79.252,12.748 78.482,13.168 77.6,13.168 C75.878,13.168 74.604,11.852 74.604,9.612 C74.604,7.428 75.864,6.07 77.6,6.07 C78.454,6.07 79.238,6.448 79.77,7.176 L79.77,3.662 L81.24,3.662 L81.24,13 Z M78.034,11.866 C78.72,11.866 79.448,11.46 79.77,10.956 L79.77,8.282 C79.448,7.778 78.72,7.372 78.034,7.372 C76.858,7.372 76.116,8.31 76.116,9.612 C76.116,10.928 76.858,11.866 78.034,11.866 Z M92.37,13 L90.9,13 L90.9,12.258 C90.396,12.846 89.598,13.168 88.702,13.168 C87.61,13.168 86.364,12.412 86.364,10.928 C86.364,9.36 87.596,8.716 88.702,8.716 C89.626,8.716 90.396,9.01 90.9,9.584 L90.9,8.576 C90.9,7.792 90.242,7.316 89.318,7.316 C88.562,7.316 87.89,7.596 87.316,8.184 L86.7,7.162 C87.484,6.406 88.464,6.07 89.542,6.07 C91.054,6.07 92.37,6.7 92.37,8.506 L92.37,13 Z M89.29,12.16 C89.92,12.16 90.55,11.922 90.9,11.46 L90.9,10.424 C90.55,9.962 89.92,9.724 89.29,9.724 C88.464,9.724 87.834,10.214 87.834,10.942 C87.834,11.684 88.464,12.16 89.29,12.16 Z M97.354,13.168 C95.31,13.168 93.868,11.656 93.868,9.612 C93.868,7.568 95.31,6.07 97.354,6.07 C98.684,6.07 99.468,6.63 99.944,7.274 L98.978,8.156 C98.6,7.624 98.082,7.372 97.424,7.372 C96.206,7.372 95.38,8.296 95.38,9.612 C95.38,10.928 96.206,11.866 97.424,11.866 C98.082,11.866 98.6,11.586 98.978,11.054 L99.944,11.964 C99.468,12.594 98.684,13.168 97.354,13.168 Z M104.326,13.168 C102.282,13.168 100.84,11.656 100.84,9.612 C100.84,7.568 102.282,6.07 104.326,6.07 C105.656,6.07 106.44,6.63 106.916,7.274 L105.95,8.156 C105.572,7.624 105.054,7.372 104.396,7.372 C103.178,7.372 102.352,8.296 102.352,9.612 C102.352,10.928 103.178,11.866 104.396,11.866 C105.054,11.866 105.572,11.586 105.95,11.054 L106.916,11.964 C106.44,12.594 105.656,13.168 104.326,13.168 Z M111.284,13.168 C109.128,13.168 107.812,11.544 107.812,9.612 C107.812,7.666 109.128,6.07 111.284,6.07 C113.44,6.07 114.756,7.666 114.756,9.612 C114.756,11.544 113.44,13.168 111.284,13.168 Z M111.284,11.866 C112.544,11.866 113.23,10.816 113.23,9.612 C113.23,8.422 112.544,7.372 111.284,7.372 C110.038,7.372 109.338,8.422 109.338,9.612 C109.338,10.816 110.038,11.866 111.284,11.866 Z M122.288,13 L120.818,13 L120.818,12.104 C120.342,12.636 119.502,13.168 118.438,13.168 C116.982,13.168 116.254,12.398 116.254,11.026 L116.254,6.238 L117.724,6.238 L117.724,10.48 C117.724,11.53 118.256,11.866 119.096,11.866 C119.838,11.866 120.482,11.432 120.818,10.984 L120.818,6.238 L122.288,6.238 L122.288,13 Z M130.24,13 L128.77,13 L128.77,8.772 C128.77,7.708 128.224,7.372 127.398,7.372 C126.656,7.372 126.012,7.82 125.662,8.268 L125.662,13 L124.192,13 L124.192,6.238 L125.662,6.238 L125.662,7.148 C126.11,6.616 126.992,6.07 128.056,6.07 C129.512,6.07 130.24,6.854 130.24,8.24 L130.24,13 Z M134.188,13.168 C133.04,13.168 132.452,12.552 132.452,11.418 L132.452,7.512 L131.332,7.512 L131.332,6.238 L132.452,6.238 L132.452,4.39 L133.922,4.39 L133.922,6.238 L135.294,6.238 L135.294,7.512 L133.922,7.512 L133.922,11.054 C133.922,11.516 134.146,11.866 134.566,11.866 C134.846,11.866 135.098,11.74 135.21,11.614 L135.56,12.734 C135.294,12.972 134.86,13.168 134.188,13.168 Z"/>
      <text fill="#384254" font-family="ProximaNova-Semibold, Proxima Nova" font-size="14" font-weight="500">
        <tspan x="160" y="14">0</tspan>
      </text>
      <text fill="#384254" font-family="ProximaNova-Semibold, Proxima Nova" font-size="14" font-weight="500">
        <tspan x="306" y="14">5 days ago</tspan>
      </text>
      <circle cx="288" cy="9" r="4" fill="#6FD350"/>
      <path fill="#01B2D0" fill-opacity=".2" fill-rule="nonzero" d="M12.8331659,8.01477569 C13.2077336,7.60083171 12.9105975,6.94370779 12.348854,6.94370779 L8.16444183,6.94370776 L10.1092948,0.839273991 C10.3193495,0.179517246 9.47153582,-0.29763087 9.0051023,0.217836309 L0.166834064,9.98522431 C-0.207733621,10.3991683 0.0894025115,11.0562922 0.651146022,11.0562922 L4.83279727,11.0562927 L2.89070519,17.160726 C2.68065048,17.8204828 3.52846418,18.2976309 3.9948977,17.7821637 L12.8331659,8.01477569 Z"/>
    </g>
    <g transform="translate(24 138)">
      <rect width="405" height="38" fill="#9D9D9D" opacity=".06"/>
      <g transform="translate(12 10)">
        <path fill="#01B2D0" d="M32.408,13 L30.546,13 L29.86,11.194 L25.576,11.194 L24.89,13 L23.028,13 L26.696,3.662 L28.74,3.662 L32.408,13 Z M29.398,9.752 L27.718,5.3 L26.038,9.752 L29.398,9.752 Z M36.454,13.168 C34.41,13.168 32.968,11.656 32.968,9.612 C32.968,7.568 34.41,6.07 36.454,6.07 C37.784,6.07 38.568,6.63 39.044,7.274 L38.078,8.156 C37.7,7.624 37.182,7.372 36.524,7.372 C35.306,7.372 34.48,8.296 34.48,9.612 C34.48,10.928 35.306,11.866 36.524,11.866 C37.182,11.866 37.7,11.586 38.078,11.054 L39.044,11.964 C38.568,12.594 37.784,13.168 36.454,13.168 Z M43.426,13.168 C41.382,13.168 39.94,11.656 39.94,9.612 C39.94,7.568 41.382,6.07 43.426,6.07 C44.756,6.07 45.54,6.63 46.016,7.274 L45.05,8.156 C44.672,7.624 44.154,7.372 43.496,7.372 C42.278,7.372 41.452,8.296 41.452,9.612 C41.452,10.928 42.278,11.866 43.496,11.866 C44.154,11.866 44.672,11.586 45.05,11.054 L46.016,11.964 C45.54,12.594 44.756,13.168 43.426,13.168 Z M50.384,13.168 C48.228,13.168 46.912,11.544 46.912,9.612 C46.912,7.666 48.228,6.07 50.384,6.07 C52.54,6.07 53.856,7.666 53.856,9.612 C53.856,11.544 52.54,13.168 50.384,13.168 Z M50.384,11.866 C51.644,11.866 52.33,10.816 52.33,9.612 C52.33,8.422 51.644,7.372 50.384,7.372 C49.138,7.372 48.438,8.422 48.438,9.612 C48.438,10.816 49.138,11.866 50.384,11.866 Z M61.388,13 L59.918,13 L59.918,12.104 C59.442,12.636 58.602,13.168 57.538,13.168 C56.082,13.168 55.354,12.398 55.354,11.026 L55.354,6.238 L56.824,6.238 L56.824,10.48 C56.824,11.53 57.356,11.866 58.196,11.866 C58.938,11.866 59.582,11.432 59.918,10.984 L59.918,6.238 L61.388,6.238 L61.388,13 Z M69.34,13 L67.87,13 L67.87,8.772 C67.87,7.708 67.324,7.372 66.498,7.372 C65.756,7.372 65.112,7.82 64.762,8.268 L64.762,13 L63.292,13 L63.292,6.238 L64.762,6.238 L64.762,7.148 C65.21,6.616 66.092,6.07 67.156,6.07 C68.612,6.07 69.34,6.854 69.34,8.24 L69.34,13 Z M73.288,13.168 C72.14,13.168 71.552,12.552 71.552,11.418 L71.552,7.512 L70.432,7.512 L70.432,6.238 L71.552,6.238 L71.552,4.39 L73.022,4.39 L73.022,6.238 L74.394,6.238 L74.394,7.512 L73.022,7.512 L73.022,11.054 C73.022,11.516 73.246,11.866 73.666,11.866 C73.946,11.866 74.198,11.74 74.31,11.614 L74.66,12.734 C74.394,12.972 73.96,13.168 73.288,13.168 Z M82.402,13.168 C80.358,13.168 78.916,11.656 78.916,9.612 C78.916,7.568 80.358,6.07 82.402,6.07 C83.732,6.07 84.516,6.63 84.992,7.274 L84.026,8.156 C83.648,7.624 83.13,7.372 82.472,7.372 C81.254,7.372 80.428,8.296 80.428,9.612 C80.428,10.928 81.254,11.866 82.472,11.866 C83.13,11.866 83.648,11.586 84.026,11.054 L84.992,11.964 C84.516,12.594 83.732,13.168 82.402,13.168 Z M87.764,13 L86.294,13 L86.294,6.238 L87.764,6.238 L87.764,7.218 C88.282,6.574 89.094,6.07 89.962,6.07 L89.962,7.526 C89.836,7.498 89.696,7.484 89.514,7.484 C88.884,7.484 88.058,7.904 87.764,8.394 L87.764,13 Z M94.288,13.168 C92.244,13.168 90.746,11.754 90.746,9.612 C90.746,7.652 92.174,6.07 94.176,6.07 C96.206,6.07 97.494,7.61 97.494,9.738 L97.494,10.102 L92.286,10.102 C92.398,11.11 93.154,11.964 94.428,11.964 C95.1,11.964 95.87,11.698 96.36,11.208 L97.032,12.174 C96.346,12.818 95.352,13.168 94.288,13.168 Z M96.08,9.052 C96.038,8.254 95.492,7.274 94.162,7.274 C92.916,7.274 92.328,8.24 92.272,9.052 L96.08,9.052 Z M104.564,13 L103.094,13 L103.094,12.258 C102.59,12.846 101.792,13.168 100.896,13.168 C99.804,13.168 98.558,12.412 98.558,10.928 C98.558,9.36 99.79,8.716 100.896,8.716 C101.82,8.716 102.59,9.01 103.094,9.584 L103.094,8.576 C103.094,7.792 102.436,7.316 101.512,7.316 C100.756,7.316 100.084,7.596 99.51,8.184 L98.894,7.162 C99.678,6.406 100.658,6.07 101.736,6.07 C103.248,6.07 104.564,6.7 104.564,8.506 L104.564,13 Z M101.484,12.16 C102.114,12.16 102.744,11.922 103.094,11.46 L103.094,10.424 C102.744,9.962 102.114,9.724 101.484,9.724 C100.658,9.724 100.028,10.214 100.028,10.942 C100.028,11.684 100.658,12.16 101.484,12.16 Z M108.512,13.168 C107.364,13.168 106.776,12.552 106.776,11.418 L106.776,7.512 L105.656,7.512 L105.656,6.238 L106.776,6.238 L106.776,4.39 L108.246,4.39 L108.246,6.238 L109.618,6.238 L109.618,7.512 L108.246,7.512 L108.246,11.054 C108.246,11.516 108.47,11.866 108.89,11.866 C109.17,11.866 109.422,11.74 109.534,11.614 L109.884,12.734 C109.618,12.972 109.184,13.168 108.512,13.168 Z M114.07,13.168 C112.026,13.168 110.528,11.754 110.528,9.612 C110.528,7.652 111.956,6.07 113.958,6.07 C115.988,6.07 117.276,7.61 117.276,9.738 L117.276,10.102 L112.068,10.102 C112.18,11.11 112.936,11.964 114.21,11.964 C114.882,11.964 115.652,11.698 116.142,11.208 L116.814,12.174 C116.128,12.818 115.134,13.168 114.07,13.168 Z M115.862,9.052 C115.82,8.254 115.274,7.274 113.944,7.274 C112.698,7.274 112.11,8.24 112.054,9.052 L115.862,9.052 Z M124.962,13 L123.492,13 L123.492,12.076 C122.974,12.748 122.204,13.168 121.322,13.168 C119.6,13.168 118.326,11.852 118.326,9.612 C118.326,7.428 119.586,6.07 121.322,6.07 C122.176,6.07 122.96,6.448 123.492,7.176 L123.492,3.662 L124.962,3.662 L124.962,13 Z M121.756,11.866 C122.442,11.866 123.17,11.46 123.492,10.956 L123.492,8.282 C123.17,7.778 122.442,7.372 121.756,7.372 C120.58,7.372 119.838,8.31 119.838,9.612 C119.838,10.928 120.58,11.866 121.756,11.866 Z"/>
        <polygon fill="#384254" points="164.326 13 162.688 13 162.688 5.776 161.162 7.372 160.21 6.378 162.898 3.662 164.326 3.662"/>
        <path fill="#384254" d="M312.566,13 L311.096,13 L311.096,12.258 C310.592,12.846 309.794,13.168 308.898,13.168 C307.806,13.168 306.56,12.412 306.56,10.928 C306.56,9.36 307.792,8.716 308.898,8.716 C309.822,8.716 310.592,9.01 311.096,9.584 L311.096,8.576 C311.096,7.792 310.438,7.316 309.514,7.316 C308.758,7.316 308.086,7.596 307.512,8.184 L306.896,7.162 C307.68,6.406 308.66,6.07 309.738,6.07 C311.25,6.07 312.566,6.7 312.566,8.506 L312.566,13 Z M309.486,12.16 C310.116,12.16 310.746,11.922 311.096,11.46 L311.096,10.424 C310.746,9.962 310.116,9.724 309.486,9.724 C308.66,9.724 308.03,10.214 308.03,10.942 C308.03,11.684 308.66,12.16 309.486,12.16 Z M324.312,13 L322.842,13 L322.842,12.076 C322.324,12.748 321.554,13.168 320.672,13.168 C318.95,13.168 317.676,11.852 317.676,9.612 C317.676,7.428 318.936,6.07 320.672,6.07 C321.526,6.07 322.31,6.448 322.842,7.176 L322.842,3.662 L324.312,3.662 L324.312,13 Z M321.106,11.866 C321.792,11.866 322.52,11.46 322.842,10.956 L322.842,8.282 C322.52,7.778 321.792,7.372 321.106,7.372 C319.93,7.372 319.188,8.31 319.188,9.612 C319.188,10.928 319.93,11.866 321.106,11.866 Z M331.83,13 L330.36,13 L330.36,12.258 C329.856,12.846 329.058,13.168 328.162,13.168 C327.07,13.168 325.824,12.412 325.824,10.928 C325.824,9.36 327.056,8.716 328.162,8.716 C329.086,8.716 329.856,9.01 330.36,9.584 L330.36,8.576 C330.36,7.792 329.702,7.316 328.778,7.316 C328.022,7.316 327.35,7.596 326.776,8.184 L326.16,7.162 C326.944,6.406 327.924,6.07 329.002,6.07 C330.514,6.07 331.83,6.7 331.83,8.506 L331.83,13 Z M328.75,12.16 C329.38,12.16 330.01,11.922 330.36,11.46 L330.36,10.424 C330.01,9.962 329.38,9.724 328.75,9.724 C327.924,9.724 327.294,10.214 327.294,10.942 C327.294,11.684 327.924,12.16 328.75,12.16 Z M333.454,15.646 L333.664,14.33 C333.818,14.4 334.056,14.442 334.224,14.442 C334.7,14.442 335.008,14.302 335.204,13.854 L335.54,13.084 L332.754,6.238 L334.336,6.238 L336.31,11.306 L338.284,6.238 L339.852,6.238 L336.59,14.218 C336.128,15.366 335.33,15.73 334.28,15.744 C334.07,15.744 333.65,15.702 333.454,15.646 Z M350.002,13 L348.532,13 L348.532,12.258 C348.028,12.846 347.23,13.168 346.334,13.168 C345.242,13.168 343.996,12.412 343.996,10.928 C343.996,9.36 345.228,8.716 346.334,8.716 C347.258,8.716 348.028,9.01 348.532,9.584 L348.532,8.576 C348.532,7.792 347.874,7.316 346.95,7.316 C346.194,7.316 345.522,7.596 344.948,8.184 L344.332,7.162 C345.116,6.406 346.096,6.07 347.174,6.07 C348.686,6.07 350.002,6.7 350.002,8.506 L350.002,13 Z M346.922,12.16 C347.552,12.16 348.182,11.922 348.532,11.46 L348.532,10.424 C348.182,9.962 347.552,9.724 346.922,9.724 C346.096,9.724 345.466,10.214 345.466,10.942 C345.466,11.684 346.096,12.16 346.922,12.16 Z M354.664,15.744 C353.516,15.744 352.662,15.492 351.822,14.736 L352.508,13.672 C353.068,14.302 353.768,14.54 354.664,14.54 C355.63,14.54 356.666,14.092 356.666,12.65 L356.666,11.88 C356.148,12.566 355.378,13.014 354.496,13.014 C352.774,13.014 351.5,11.768 351.5,9.542 C351.5,7.344 352.746,6.07 354.496,6.07 C355.35,6.07 356.12,6.448 356.666,7.176 L356.666,6.238 L358.136,6.238 L358.136,12.65 C358.136,15.086 356.316,15.744 354.664,15.744 Z M354.93,11.698 C355.616,11.698 356.33,11.292 356.666,10.802 L356.666,8.268 C356.33,7.778 355.616,7.372 354.93,7.372 C353.754,7.372 353.012,8.24 353.012,9.542 C353.012,10.844 353.754,11.698 354.93,11.698 Z M363.106,13.168 C360.95,13.168 359.634,11.544 359.634,9.612 C359.634,7.666 360.95,6.07 363.106,6.07 C365.262,6.07 366.578,7.666 366.578,9.612 C366.578,11.544 365.262,13.168 363.106,13.168 Z M363.106,11.866 C364.366,11.866 365.052,10.816 365.052,9.612 C365.052,8.422 364.366,7.372 363.106,7.372 C361.86,7.372 361.16,8.422 361.16,9.612 C361.16,10.816 361.86,11.866 363.106,11.866 Z"/>
        <circle cx="288" cy="9" r="4" fill="#6FD350"/>
        <path fill="#01B2D0" fill-opacity=".2" fill-rule="nonzero" d="M12.8331659,8.01477569 C13.2077336,7.60083171 12.9105975,6.94370779 12.348854,6.94370779 L8.16444183,6.94370776 L10.1092948,0.839273991 C10.3193495,0.179517246 9.47153582,-0.29763087 9.0051023,0.217836309 L0.166834064,9.98522431 C-0.207733621,10.3991683 0.0894025115,11.0562922 0.651146022,11.0562922 L4.83279727,11.0562927 L2.89070519,17.160726 C2.68065048,17.8204828 3.52846418,18.2976309 3.9948977,17.7821637 L12.8331659,8.01477569 Z"/>
      </g>
    </g>
    <g transform="translate(36 108)">
      <path fill="#01B2D0" d="M32.408,13 L30.546,13 L29.86,11.194 L25.576,11.194 L24.89,13 L23.028,13 L26.696,3.662 L28.74,3.662 L32.408,13 Z M29.398,9.752 L27.718,5.3 L26.038,9.752 L29.398,9.752 Z M36.454,13.168 C34.41,13.168 32.968,11.656 32.968,9.612 C32.968,7.568 34.41,6.07 36.454,6.07 C37.784,6.07 38.568,6.63 39.044,7.274 L38.078,8.156 C37.7,7.624 37.182,7.372 36.524,7.372 C35.306,7.372 34.48,8.296 34.48,9.612 C34.48,10.928 35.306,11.866 36.524,11.866 C37.182,11.866 37.7,11.586 38.078,11.054 L39.044,11.964 C38.568,12.594 37.784,13.168 36.454,13.168 Z M43.426,13.168 C41.382,13.168 39.94,11.656 39.94,9.612 C39.94,7.568 41.382,6.07 43.426,6.07 C44.756,6.07 45.54,6.63 46.016,7.274 L45.05,8.156 C44.672,7.624 44.154,7.372 43.496,7.372 C42.278,7.372 41.452,8.296 41.452,9.612 C41.452,10.928 42.278,11.866 43.496,11.866 C44.154,11.866 44.672,11.586 45.05,11.054 L46.016,11.964 C45.54,12.594 44.756,13.168 43.426,13.168 Z M50.454,13.168 C48.41,13.168 46.912,11.754 46.912,9.612 C46.912,7.652 48.34,6.07 50.342,6.07 C52.372,6.07 53.66,7.61 53.66,9.738 L53.66,10.102 L48.452,10.102 C48.564,11.11 49.32,11.964 50.594,11.964 C51.266,11.964 52.036,11.698 52.526,11.208 L53.198,12.174 C52.512,12.818 51.518,13.168 50.454,13.168 Z M52.246,9.052 C52.204,8.254 51.658,7.274 50.328,7.274 C49.082,7.274 48.494,8.24 48.438,9.052 L52.246,9.052 Z M58.756,13.168 C57.902,13.168 57.146,12.776 56.586,12.062 L56.586,15.576 L55.116,15.576 L55.116,6.238 L56.586,6.238 L56.586,7.162 C57.09,6.49 57.874,6.07 58.756,6.07 C60.506,6.07 61.752,7.386 61.752,9.612 C61.752,11.838 60.506,13.168 58.756,13.168 Z M58.322,11.866 C59.484,11.866 60.24,10.928 60.24,9.612 C60.24,8.296 59.484,7.372 58.322,7.372 C57.636,7.372 56.922,7.764 56.586,8.268 L56.586,10.942 C56.908,11.446 57.636,11.866 58.322,11.866 Z M65.266,13.168 C64.118,13.168 63.53,12.552 63.53,11.418 L63.53,7.512 L62.41,7.512 L62.41,6.238 L63.53,6.238 L63.53,4.39 L65,4.39 L65,6.238 L66.372,6.238 L66.372,7.512 L65,7.512 L65,11.054 C65,11.516 65.224,11.866 65.644,11.866 C65.924,11.866 66.176,11.74 66.288,11.614 L66.638,12.734 C66.372,12.972 65.938,13.168 65.266,13.168 Z M70.824,13.168 C68.78,13.168 67.282,11.754 67.282,9.612 C67.282,7.652 68.71,6.07 70.712,6.07 C72.742,6.07 74.03,7.61 74.03,9.738 L74.03,10.102 L68.822,10.102 C68.934,11.11 69.69,11.964 70.964,11.964 C71.636,11.964 72.406,11.698 72.896,11.208 L73.568,12.174 C72.882,12.818 71.888,13.168 70.824,13.168 Z M72.616,9.052 C72.574,8.254 72.028,7.274 70.698,7.274 C69.452,7.274 68.864,8.24 68.808,9.052 L72.616,9.052 Z M81.716,13 L80.246,13 L80.246,12.076 C79.728,12.748 78.958,13.168 78.076,13.168 C76.354,13.168 75.08,11.852 75.08,9.612 C75.08,7.428 76.34,6.07 78.076,6.07 C78.93,6.07 79.714,6.448 80.246,7.176 L80.246,3.662 L81.716,3.662 L81.716,13 Z M78.51,11.866 C79.196,11.866 79.924,11.46 80.246,10.956 L80.246,8.282 C79.924,7.778 79.196,7.372 78.51,7.372 C77.334,7.372 76.592,8.31 76.592,9.612 C76.592,10.928 77.334,11.866 78.51,11.866 Z M87.974,5.412 C87.47,5.412 87.064,5.006 87.064,4.502 C87.064,3.998 87.47,3.592 87.974,3.592 C88.478,3.592 88.884,3.998 88.884,4.502 C88.884,5.006 88.478,5.412 87.974,5.412 Z M88.702,13 L87.232,13 L87.232,6.238 L88.702,6.238 L88.702,13 Z M96.654,13 L95.184,13 L95.184,8.772 C95.184,7.708 94.638,7.372 93.812,7.372 C93.07,7.372 92.426,7.82 92.076,8.268 L92.076,13 L90.606,13 L90.606,6.238 L92.076,6.238 L92.076,7.148 C92.524,6.616 93.406,6.07 94.47,6.07 C95.926,6.07 96.654,6.854 96.654,8.24 L96.654,13 Z M101.918,13 L100.336,13 L97.578,6.238 L99.16,6.238 L101.134,11.306 L103.108,6.238 L104.676,6.238 L101.918,13 Z M106.342,5.412 C105.838,5.412 105.432,5.006 105.432,4.502 C105.432,3.998 105.838,3.592 106.342,3.592 C106.846,3.592 107.252,3.998 107.252,4.502 C107.252,5.006 106.846,5.412 106.342,5.412 Z M107.07,13 L105.6,13 L105.6,6.238 L107.07,6.238 L107.07,13 Z M111.018,13.168 C109.87,13.168 109.282,12.552 109.282,11.418 L109.282,7.512 L108.162,7.512 L108.162,6.238 L109.282,6.238 L109.282,4.39 L110.752,4.39 L110.752,6.238 L112.124,6.238 L112.124,7.512 L110.752,7.512 L110.752,11.054 C110.752,11.516 110.976,11.866 111.396,11.866 C111.676,11.866 111.928,11.74 112.04,11.614 L112.39,12.734 C112.124,12.972 111.69,13.168 111.018,13.168 Z M116.576,13.168 C114.532,13.168 113.034,11.754 113.034,9.612 C113.034,7.652 114.462,6.07 116.464,6.07 C118.494,6.07 119.782,7.61 119.782,9.738 L119.782,10.102 L114.574,10.102 C114.686,11.11 115.442,11.964 116.716,11.964 C117.388,11.964 118.158,11.698 118.648,11.208 L119.32,12.174 C118.634,12.818 117.64,13.168 116.576,13.168 Z M118.368,9.052 C118.326,8.254 117.78,7.274 116.45,7.274 C115.204,7.274 114.616,8.24 114.56,9.052 L118.368,9.052 Z"/>
      <path fill="#384254" d="M164.326 15.168C161.694 15.168 160.588 12.676 160.588 10.338 160.588 7.986 161.694 5.522 164.326 5.522 166.944 5.522 168.05 7.986 168.05 10.338 168.05 12.676 166.944 15.168 164.326 15.168zM164.326 13.712C165.838 13.712 166.384 12.116 166.384 10.338 166.384 8.546 165.852 6.978 164.326 6.978 162.8 6.978 162.254 8.546 162.254 10.338 162.254 12.116 162.8 13.712 164.326 13.712zM309.864 15.168C308.212 15.168 306.98 14.496 306.336 13.656L307.232 12.578C307.834 13.278 308.814 13.712 309.808 13.712 311.04 13.712 311.754 13.138 311.754 12.284 311.754 11.36 311.026 10.954 309.682 10.954 309.29 10.954 308.758 10.968 308.618 10.982L308.618 9.498C308.772 9.512 309.318 9.512 309.682 9.512 310.788 9.512 311.614 9.134 311.614 8.28 311.614 7.426 310.76 6.978 309.724 6.978 308.758 6.978 307.974 7.328 307.302 8.014L306.462 6.992C307.19 6.138 308.324 5.522 309.878 5.522 311.894 5.522 313.238 6.474 313.238 8.028 313.238 9.288 312.174 10.016 311.222 10.17 312.118 10.268 313.392 10.996 313.392 12.438 313.392 14.034 312.034 15.168 309.864 15.168zM324.83 15L323.36 15 323.36 14.076C322.842 14.748 322.072 15.168 321.19 15.168 319.468 15.168 318.194 13.852 318.194 11.612 318.194 9.428 319.454 8.07 321.19 8.07 322.044 8.07 322.828 8.448 323.36 9.176L323.36 5.662 324.83 5.662 324.83 15zM321.624 13.866C322.31 13.866 323.038 13.46 323.36 12.956L323.36 10.282C323.038 9.778 322.31 9.372 321.624 9.372 320.448 9.372 319.706 10.31 319.706 11.612 319.706 12.928 320.448 13.866 321.624 13.866zM332.348 15L330.878 15 330.878 14.258C330.374 14.846 329.576 15.168 328.68 15.168 327.588 15.168 326.342 14.412 326.342 12.928 326.342 11.36 327.574 10.716 328.68 10.716 329.604 10.716 330.374 11.01 330.878 11.584L330.878 10.576C330.878 9.792 330.22 9.316 329.296 9.316 328.54 9.316 327.868 9.596 327.294 10.184L326.678 9.162C327.462 8.406 328.442 8.07 329.52 8.07 331.032 8.07 332.348 8.7 332.348 10.506L332.348 15zM329.268 14.16C329.898 14.16 330.528 13.922 330.878 13.46L330.878 12.424C330.528 11.962 329.898 11.724 329.268 11.724 328.442 11.724 327.812 12.214 327.812 12.942 327.812 13.684 328.442 14.16 329.268 14.16zM333.972 17.646L334.182 16.33C334.336 16.4 334.574 16.442 334.742 16.442 335.218 16.442 335.526 16.302 335.722 15.854L336.058 15.084 333.272 8.238 334.854 8.238 336.828 13.306 338.802 8.238 340.37 8.238 337.108 16.218C336.646 17.366 335.848 17.73 334.798 17.744 334.588 17.744 334.168 17.702 333.972 17.646zM343.618 15.168C342.456 15.168 341.42 14.79 340.72 14.104L341.392 13.054C341.868 13.544 342.806 13.992 343.674 13.992 344.556 13.992 345.018 13.628 345.018 13.096 345.018 11.766 340.93 12.718 340.93 10.114 340.93 9.008 341.882 8.07 343.59 8.07 344.738 8.07 345.606 8.476 346.208 9.008L345.592 10.044C345.186 9.596 344.444 9.232 343.59 9.232 342.82 9.232 342.344 9.596 342.344 10.072 342.344 11.262 346.432 10.366 346.432 13.054 346.432 14.258 345.438 15.168 343.618 15.168zM357.128 15L355.658 15 355.658 14.258C355.154 14.846 354.356 15.168 353.46 15.168 352.368 15.168 351.122 14.412 351.122 12.928 351.122 11.36 352.354 10.716 353.46 10.716 354.384 10.716 355.154 11.01 355.658 11.584L355.658 10.576C355.658 9.792 355 9.316 354.076 9.316 353.32 9.316 352.648 9.596 352.074 10.184L351.458 9.162C352.242 8.406 353.222 8.07 354.3 8.07 355.812 8.07 357.128 8.7 357.128 10.506L357.128 15zM354.048 14.16C354.678 14.16 355.308 13.922 355.658 13.46L355.658 12.424C355.308 11.962 354.678 11.724 354.048 11.724 353.222 11.724 352.592 12.214 352.592 12.942 352.592 13.684 353.222 14.16 354.048 14.16zM361.79 17.744C360.642 17.744 359.788 17.492 358.948 16.736L359.634 15.672C360.194 16.302 360.894 16.54 361.79 16.54 362.756 16.54 363.792 16.092 363.792 14.65L363.792 13.88C363.274 14.566 362.504 15.014 361.622 15.014 359.9 15.014 358.626 13.768 358.626 11.542 358.626 9.344 359.872 8.07 361.622 8.07 362.476 8.07 363.246 8.448 363.792 9.176L363.792 8.238 365.262 8.238 365.262 14.65C365.262 17.086 363.442 17.744 361.79 17.744zM362.056 13.698C362.742 13.698 363.456 13.292 363.792 12.802L363.792 10.268C363.456 9.778 362.742 9.372 362.056 9.372 360.88 9.372 360.138 10.24 360.138 11.542 360.138 12.844 360.88 13.698 362.056 13.698zM370.232 15.168C368.076 15.168 366.76 13.544 366.76 11.612 366.76 9.666 368.076 8.07 370.232 8.07 372.388 8.07 373.704 9.666 373.704 11.612 373.704 13.544 372.388 15.168 370.232 15.168zM370.232 13.866C371.492 13.866 372.178 12.816 372.178 11.612 372.178 10.422 371.492 9.372 370.232 9.372 368.986 9.372 368.286 10.422 368.286 11.612 368.286 12.816 368.986 13.866 370.232 13.866z"/>
      <circle cx="288" cy="11" r="4" fill="#6FD350"/>
      <path fill="#01B2D0" fill-opacity=".2" fill-rule="nonzero" d="M12.8331659,8.01477569 C13.2077336,7.60083171 12.9105975,6.94370779 12.348854,6.94370779 L8.16444183,6.94370776 L10.1092948,0.839273991 C10.3193495,0.179517246 9.47153582,-0.29763087 9.0051023,0.217836309 L0.166834064,9.98522431 C-0.207733621,10.3991683 0.0894025115,11.0562922 0.651146022,11.0562922 L4.83279727,11.0562927 L2.89070519,17.160726 C2.68065048,17.8204828 3.52846418,18.2976309 3.9948977,17.7821637 L12.8331659,8.01477569 Z"/>
    </g>
    <g transform="translate(146 189)">
      <use fill="#000" filter="url(#event-manager-c)" xlink:href="#event-manager-d"/>
      <use fill="#FFF" stroke="#8D8D8D" stroke-opacity=".24" xlink:href="#event-manager-d"/>
      <g transform="translate(23 98)">
        <rect width="348" height="1" x="1" y="42" fill="#E1E1E1"/>
        <g transform="translate(1)">
          <path fill="#FFF" stroke="#E1E1E1" d="M0.5,42.5 L301.5,42.5 L301.5,4 C301.5,2.06700338 299.932997,0.5 298,0.5 L4,0.5 C2.06700338,0.5 0.5,2.06700338 0.5,4 L0.5,42.5 Z"/>
          <path fill="#384254" d="M20.232 26L18.328 26 16.27 22.514 14.632 22.514 14.632 26 12.994 26 12.994 16.662 17.096 16.662C18.944 16.662 20.162 17.852 20.162 19.588 20.162 21.24 19.07 22.15 17.936 22.332L20.232 26zM16.886 21.072C17.81 21.072 18.482 20.484 18.482 19.574 18.482 18.678 17.81 18.104 16.886 18.104L14.632 18.104 14.632 21.072 16.886 21.072zM24.474 26.168C22.43 26.168 20.932 24.754 20.932 22.612 20.932 20.652 22.36 19.07 24.362 19.07 26.392 19.07 27.68 20.61 27.68 22.738L27.68 23.102 22.472 23.102C22.584 24.11 23.34 24.964 24.614 24.964 25.286 24.964 26.056 24.698 26.546 24.208L27.218 25.174C26.532 25.818 25.538 26.168 24.474 26.168zM26.266 22.052C26.224 21.254 25.678 20.274 24.348 20.274 23.102 20.274 22.514 21.24 22.458 22.052L26.266 22.052zM32.216 26.168C30.172 26.168 28.73 24.656 28.73 22.612 28.73 20.568 30.172 19.07 32.216 19.07 33.546 19.07 34.33 19.63 34.806 20.274L33.84 21.156C33.462 20.624 32.944 20.372 32.286 20.372 31.068 20.372 30.242 21.296 30.242 22.612 30.242 23.928 31.068 24.866 32.286 24.866 32.944 24.866 33.462 24.586 33.84 24.054L34.806 24.964C34.33 25.594 33.546 26.168 32.216 26.168zM39.244 26.168C37.2 26.168 35.702 24.754 35.702 22.612 35.702 20.652 37.13 19.07 39.132 19.07 41.162 19.07 42.45 20.61 42.45 22.738L42.45 23.102 37.242 23.102C37.354 24.11 38.11 24.964 39.384 24.964 40.056 24.964 40.826 24.698 41.316 24.208L41.988 25.174C41.302 25.818 40.308 26.168 39.244 26.168zM41.036 22.052C40.994 21.254 40.448 20.274 39.118 20.274 37.872 20.274 37.284 21.24 37.228 22.052L41.036 22.052zM49.954 26L48.484 26 48.484 21.772C48.484 20.708 47.938 20.372 47.112 20.372 46.37 20.372 45.726 20.82 45.376 21.268L45.376 26 43.906 26 43.906 19.238 45.376 19.238 45.376 20.148C45.824 19.616 46.706 19.07 47.77 19.07 49.226 19.07 49.954 19.854 49.954 21.24L49.954 26zM53.902 26.168C52.754 26.168 52.166 25.552 52.166 24.418L52.166 20.512 51.046 20.512 51.046 19.238 52.166 19.238 52.166 17.39 53.636 17.39 53.636 19.238 55.008 19.238 55.008 20.512 53.636 20.512 53.636 24.054C53.636 24.516 53.86 24.866 54.28 24.866 54.56 24.866 54.812 24.74 54.924 24.614L55.274 25.734C55.008 25.972 54.574 26.168 53.902 26.168zM79.632 26L77.994 26 77.994 16.662 82.11 16.662C84.07 16.662 85.148 17.992 85.148 19.588 85.148 21.17 84.056 22.5 82.11 22.5L79.632 22.5 79.632 26zM81.886 21.058C82.81 21.058 83.468 20.47 83.468 19.588 83.468 18.692 82.81 18.104 81.886 18.104L79.632 18.104 79.632 21.058 81.886 21.058zM87.948 26L86.478 26 86.478 19.238 87.948 19.238 87.948 20.218C88.466 19.574 89.278 19.07 90.146 19.07L90.146 20.526C90.02 20.498 89.88 20.484 89.698 20.484 89.068 20.484 88.242 20.904 87.948 21.394L87.948 26zM94.402 26.168C92.246 26.168 90.93 24.544 90.93 22.612 90.93 20.666 92.246 19.07 94.402 19.07 96.558 19.07 97.874 20.666 97.874 22.612 97.874 24.544 96.558 26.168 94.402 26.168zM94.402 24.866C95.662 24.866 96.348 23.816 96.348 22.612 96.348 21.422 95.662 20.372 94.402 20.372 93.156 20.372 92.456 21.422 92.456 22.612 92.456 23.816 93.156 24.866 94.402 24.866zM103.012 26.168C102.158 26.168 101.402 25.776 100.842 25.062L100.842 28.576 99.372 28.576 99.372 19.238 100.842 19.238 100.842 20.162C101.346 19.49 102.13 19.07 103.012 19.07 104.762 19.07 106.008 20.386 106.008 22.612 106.008 24.838 104.762 26.168 103.012 26.168zM102.578 24.866C103.74 24.866 104.496 23.928 104.496 22.612 104.496 21.296 103.74 20.372 102.578 20.372 101.892 20.372 101.178 20.764 100.842 21.268L100.842 23.942C101.164 24.446 101.892 24.866 102.578 24.866zM110.614 26.168C108.57 26.168 107.072 24.754 107.072 22.612 107.072 20.652 108.5 19.07 110.502 19.07 112.532 19.07 113.82 20.61 113.82 22.738L113.82 23.102 108.612 23.102C108.724 24.11 109.48 24.964 110.754 24.964 111.426 24.964 112.196 24.698 112.686 24.208L113.358 25.174C112.672 25.818 111.678 26.168 110.614 26.168zM112.406 22.052C112.364 21.254 111.818 20.274 110.488 20.274 109.242 20.274 108.654 21.24 108.598 22.052L112.406 22.052zM116.746 26L115.276 26 115.276 19.238 116.746 19.238 116.746 20.218C117.264 19.574 118.076 19.07 118.944 19.07L118.944 20.526C118.818 20.498 118.678 20.484 118.496 20.484 117.866 20.484 117.04 20.904 116.746 21.394L116.746 26zM122.178 26.168C121.03 26.168 120.442 25.552 120.442 24.418L120.442 20.512 119.322 20.512 119.322 19.238 120.442 19.238 120.442 17.39 121.912 17.39 121.912 19.238 123.284 19.238 123.284 20.512 121.912 20.512 121.912 24.054C121.912 24.516 122.136 24.866 122.556 24.866 122.836 24.866 123.088 24.74 123.2 24.614L123.55 25.734C123.284 25.972 122.85 26.168 122.178 26.168zM125.342 18.412C124.838 18.412 124.432 18.006 124.432 17.502 124.432 16.998 124.838 16.592 125.342 16.592 125.846 16.592 126.252 16.998 126.252 17.502 126.252 18.006 125.846 18.412 125.342 18.412zM126.07 26L124.6 26 124.6 19.238 126.07 19.238 126.07 26zM131.11 26.168C129.066 26.168 127.568 24.754 127.568 22.612 127.568 20.652 128.996 19.07 130.998 19.07 133.028 19.07 134.316 20.61 134.316 22.738L134.316 23.102 129.108 23.102C129.22 24.11 129.976 24.964 131.25 24.964 131.922 24.964 132.692 24.698 133.182 24.208L133.854 25.174C133.168 25.818 132.174 26.168 131.11 26.168zM132.902 22.052C132.86 21.254 132.314 20.274 130.984 20.274 129.738 20.274 129.15 21.24 129.094 22.052L132.902 22.052zM138.096 26.168C136.934 26.168 135.898 25.79 135.198 25.104L135.87 24.054C136.346 24.544 137.284 24.992 138.152 24.992 139.034 24.992 139.496 24.628 139.496 24.096 139.496 22.766 135.408 23.718 135.408 21.114 135.408 20.008 136.36 19.07 138.068 19.07 139.216 19.07 140.084 19.476 140.686 20.008L140.07 21.044C139.664 20.596 138.922 20.232 138.068 20.232 137.298 20.232 136.822 20.596 136.822 21.072 136.822 22.262 140.91 21.366 140.91 24.054 140.91 25.258 139.916 26.168 138.096 26.168zM168.488 26.168C165.73 26.168 163.588 24.208 163.588 21.338 163.588 18.454 165.73 16.508 168.488 16.508 170.364 16.508 171.54 17.474 172.226 18.594L170.84 19.322C170.392 18.538 169.482 17.964 168.488 17.964 166.64 17.964 165.268 19.364 165.268 21.338 165.268 23.284 166.64 24.712 168.488 24.712 169.482 24.712 170.392 24.124 170.84 23.354L172.24 24.054C171.526 25.174 170.364 26.168 168.488 26.168zM179.114 26L177.644 26 177.644 25.258C177.14 25.846 176.342 26.168 175.446 26.168 174.354 26.168 173.108 25.412 173.108 23.928 173.108 22.36 174.34 21.716 175.446 21.716 176.37 21.716 177.14 22.01 177.644 22.584L177.644 21.576C177.644 20.792 176.986 20.316 176.062 20.316 175.306 20.316 174.634 20.596 174.06 21.184L173.444 20.162C174.228 19.406 175.208 19.07 176.286 19.07 177.798 19.07 179.114 19.7 179.114 21.506L179.114 26zM176.034 25.16C176.664 25.16 177.294 24.922 177.644 24.46L177.644 23.424C177.294 22.962 176.664 22.724 176.034 22.724 175.208 22.724 174.578 23.214 174.578 23.942 174.578 24.684 175.208 25.16 176.034 25.16zM190.79 26L189.32 26 189.32 21.59C189.32 20.862 188.998 20.372 188.2 20.372 187.542 20.372 186.926 20.82 186.632 21.268L186.632 26 185.162 26 185.162 21.59C185.162 20.862 184.854 20.372 184.056 20.372 183.398 20.372 182.796 20.834 182.488 21.268L182.488 26 181.018 26 181.018 19.238 182.488 19.238 182.488 20.148C182.782 19.742 183.664 19.07 184.7 19.07 185.708 19.07 186.324 19.574 186.548 20.302 186.926 19.7 187.822 19.07 188.844 19.07 190.076 19.07 190.79 19.742 190.79 21.114L190.79 26zM196.334 26.168C195.48 26.168 194.724 25.776 194.164 25.062L194.164 28.576 192.694 28.576 192.694 19.238 194.164 19.238 194.164 20.162C194.668 19.49 195.452 19.07 196.334 19.07 198.084 19.07 199.33 20.386 199.33 22.612 199.33 24.838 198.084 26.168 196.334 26.168zM195.9 24.866C197.062 24.866 197.818 23.928 197.818 22.612 197.818 21.296 197.062 20.372 195.9 20.372 195.214 20.372 194.5 20.764 194.164 21.268L194.164 23.942C194.486 24.446 195.214 24.866 195.9 24.866zM206.414 26L204.944 26 204.944 25.258C204.44 25.846 203.642 26.168 202.746 26.168 201.654 26.168 200.408 25.412 200.408 23.928 200.408 22.36 201.64 21.716 202.746 21.716 203.67 21.716 204.44 22.01 204.944 22.584L204.944 21.576C204.944 20.792 204.286 20.316 203.362 20.316 202.606 20.316 201.934 20.596 201.36 21.184L200.744 20.162C201.528 19.406 202.508 19.07 203.586 19.07 205.098 19.07 206.414 19.7 206.414 21.506L206.414 26zM203.334 25.16C203.964 25.16 204.594 24.922 204.944 24.46L204.944 23.424C204.594 22.962 203.964 22.724 203.334 22.724 202.508 22.724 201.878 23.214 201.878 23.942 201.878 24.684 202.508 25.16 203.334 25.16zM209.06 18.412C208.556 18.412 208.15 18.006 208.15 17.502 208.15 16.998 208.556 16.592 209.06 16.592 209.564 16.592 209.97 16.998 209.97 17.502 209.97 18.006 209.564 18.412 209.06 18.412zM209.788 26L208.318 26 208.318 19.238 209.788 19.238 209.788 26zM214.45 28.744C213.302 28.744 212.448 28.492 211.608 27.736L212.294 26.672C212.854 27.302 213.554 27.54 214.45 27.54 215.416 27.54 216.452 27.092 216.452 25.65L216.452 24.88C215.934 25.566 215.164 26.014 214.282 26.014 212.56 26.014 211.286 24.768 211.286 22.542 211.286 20.344 212.532 19.07 214.282 19.07 215.136 19.07 215.906 19.448 216.452 20.176L216.452 19.238 217.922 19.238 217.922 25.65C217.922 28.086 216.102 28.744 214.45 28.744zM214.716 24.698C215.402 24.698 216.116 24.292 216.452 23.802L216.452 21.268C216.116 20.778 215.402 20.372 214.716 20.372 213.54 20.372 212.798 21.24 212.798 22.542 212.798 23.844 213.54 24.698 214.716 24.698zM225.874 26L224.404 26 224.404 21.772C224.404 20.708 223.858 20.372 223.032 20.372 222.29 20.372 221.646 20.82 221.296 21.268L221.296 26 219.826 26 219.826 19.238 221.296 19.238 221.296 20.148C221.744 19.616 222.626 19.07 223.69 19.07 225.146 19.07 225.874 19.854 225.874 21.24L225.874 26zM230.102 26.168C228.94 26.168 227.904 25.79 227.204 25.104L227.876 24.054C228.352 24.544 229.29 24.992 230.158 24.992 231.04 24.992 231.502 24.628 231.502 24.096 231.502 22.766 227.414 23.718 227.414 21.114 227.414 20.008 228.366 19.07 230.074 19.07 231.222 19.07 232.09 19.476 232.692 20.008L232.076 21.044C231.67 20.596 230.928 20.232 230.074 20.232 229.304 20.232 228.828 20.596 228.828 21.072 228.828 22.262 232.916 21.366 232.916 24.054 232.916 25.258 231.922 26.168 230.102 26.168zM259.2 26.168C257.478 26.168 256.232 25.552 255.392 24.684L256.316 23.41C256.946 24.096 257.968 24.712 259.27 24.712 260.614 24.712 261.132 24.054 261.132 23.424 261.132 21.464 255.7 22.682 255.7 19.252 255.7 17.698 257.044 16.508 259.102 16.508 260.544 16.508 261.734 16.984 262.588 17.824L261.664 19.042C260.922 18.3 259.928 17.964 258.948 17.964 257.996 17.964 257.38 18.44 257.38 19.126 257.38 20.876 262.812 19.798 262.812 23.27 262.812 24.824 261.706 26.168 259.2 26.168zM267.404 26.168C265.36 26.168 263.862 24.754 263.862 22.612 263.862 20.652 265.29 19.07 267.292 19.07 269.322 19.07 270.61 20.61 270.61 22.738L270.61 23.102 265.402 23.102C265.514 24.11 266.27 24.964 267.544 24.964 268.216 24.964 268.986 24.698 269.476 24.208L270.148 25.174C269.462 25.818 268.468 26.168 267.404 26.168zM269.196 22.052C269.154 21.254 268.608 20.274 267.278 20.274 266.032 20.274 265.444 21.24 265.388 22.052L269.196 22.052zM274.11 26.168C272.962 26.168 272.374 25.552 272.374 24.418L272.374 20.512 271.254 20.512 271.254 19.238 272.374 19.238 272.374 17.39 273.844 17.39 273.844 19.238 275.216 19.238 275.216 20.512 273.844 20.512 273.844 24.054C273.844 24.516 274.068 24.866 274.488 24.866 274.768 24.866 275.02 24.74 275.132 24.614L275.482 25.734C275.216 25.972 274.782 26.168 274.11 26.168zM282.566 26L281.096 26 281.096 25.104C280.62 25.636 279.78 26.168 278.716 26.168 277.26 26.168 276.532 25.398 276.532 24.026L276.532 19.238 278.002 19.238 278.002 23.48C278.002 24.53 278.534 24.866 279.374 24.866 280.116 24.866 280.76 24.432 281.096 23.984L281.096 19.238 282.566 19.238 282.566 26zM288.11 26.168C287.256 26.168 286.5 25.776 285.94 25.062L285.94 28.576 284.47 28.576 284.47 19.238 285.94 19.238 285.94 20.162C286.444 19.49 287.228 19.07 288.11 19.07 289.86 19.07 291.106 20.386 291.106 22.612 291.106 24.838 289.86 26.168 288.11 26.168zM287.676 24.866C288.838 24.866 289.594 23.928 289.594 22.612 289.594 21.296 288.838 20.372 287.676 20.372 286.99 20.372 286.276 20.764 285.94 21.268L285.94 23.942C286.262 24.446 286.99 24.866 287.676 24.866z"/>
        </g>
        <rect width="66" height="1" y="42" fill="#FFF"/>
        <rect width="1" height="42" x="65" y="1" fill="#D8D8D8"/>
        <rect width="1" height="42" x="151" y="1" fill="#D8D8D8"/>
        <rect width="1" height="42" x="243" y="1" fill="#D8D8D8"/>
      </g>
      <g transform="translate(24 165)">
        <path fill="#384254" d="M4.704 9.144C2.34 9.144.504 7.464.504 5.004.504 2.532 2.34.864 4.704.864 6.312.864 7.32 1.692 7.908 2.652L6.72 3.276C6.336 2.604 5.556 2.112 4.704 2.112 3.12 2.112 1.944 3.312 1.944 5.004 1.944 6.672 3.12 7.896 4.704 7.896 5.556 7.896 6.336 7.392 6.72 6.732L7.92 7.332C7.308 8.292 6.312 9.144 4.704 9.144zM16.188 9L14.592 9 14.004 7.452 10.332 7.452 9.744 9 8.148 9 11.292.996 13.044.996 16.188 9zM13.608 6.216L12.168 2.4 10.728 6.216 13.608 6.216zM25.368 9L23.964 9 23.964 2.82 21.516 9 20.916 9 18.456 2.82 18.456 9 17.052 9 17.052.996 19.032.996 21.216 6.492 23.388.996 25.368.996 25.368 9zM28.476 9L27.072 9 27.072.996 30.6.996C32.28.996 33.204 2.136 33.204 3.504 33.204 4.86 32.268 6 30.6 6L28.476 6 28.476 9zM30.408 4.764C31.2 4.764 31.764 4.26 31.764 3.504 31.764 2.736 31.2 2.232 30.408 2.232L28.476 2.232 28.476 4.764 30.408 4.764zM40.692 9L39.096 9 38.508 7.452 34.836 7.452 34.248 9 32.652 9 35.796.996 37.548.996 40.692 9zM38.112 6.216L36.672 2.4 35.232 6.216 38.112 6.216zM42.96 9L41.556 9 41.556.996 42.96.996 42.96 9zM48.516 9.156C46.188 9.156 44.316 7.512 44.316 5.004 44.316 2.484 46.188.864 48.516.864 50.076.864 51.096 1.608 51.732 2.52L50.592 3.18C50.16 2.58 49.404 2.112 48.516 2.112 46.932 2.112 45.756 3.312 45.756 5.004 45.756 6.672 46.932 7.896 48.516 7.896 49.332 7.896 50.052 7.524 50.412 7.176L50.412 5.94 48.012 5.94 48.012 4.704 51.804 4.704 51.804 7.692C51.024 8.568 49.896 9.156 48.516 9.156zM60.204 9L58.848 9 54.672 3.276 54.672 9 53.268 9 53.268.996 54.708.996 58.8 6.54 58.8.996 60.204.996 60.204 9zM248.164 9L246.76 9 246.76 2.232 244.336 2.232 244.336.996 250.588.996 250.588 2.232 248.164 2.232 248.164 9zM253.18 9L251.776 9 251.776.996 253.18.996 253.18 9zM263.2 9L261.796 9 261.796 2.82 259.348 9 258.748 9 256.288 2.82 256.288 9 254.884 9 254.884.996 256.864.996 259.048 6.492 261.22.996 263.2.996 263.2 9zM266.308 9L264.904 9 264.904.996 266.308.996 266.308 9zM274.948 9L273.592 9 269.416 3.276 269.416 9 268.012 9 268.012.996 269.452.996 273.544 6.54 273.544.996 274.948.996 274.948 9zM280.504 9.156C278.176 9.156 276.304 7.512 276.304 5.004 276.304 2.484 278.176.864 280.504.864 282.064.864 283.084 1.608 283.72 2.52L282.58 3.18C282.148 2.58 281.392 2.112 280.504 2.112 278.92 2.112 277.744 3.312 277.744 5.004 277.744 6.672 278.92 7.896 280.504 7.896 281.32 7.896 282.04 7.524 282.4 7.176L282.4 5.94 280 5.94 280 4.704 283.792 4.704 283.792 7.692C283.012 8.568 281.884 9.156 280.504 9.156z" opacity=".5"/>
        <g transform="translate(1 32)">
          <path fill="#01B2D0" d="M3.472,9.576 C1.316,9.576 0,7.952 0,6.02 C0,4.074 1.316,2.478 3.472,2.478 C5.628,2.478 6.944,4.074 6.944,6.02 C6.944,7.952 5.628,9.576 3.472,9.576 Z M3.472,8.274 C4.732,8.274 5.418,7.224 5.418,6.02 C5.418,4.83 4.732,3.78 3.472,3.78 C2.226,3.78 1.526,4.83 1.526,6.02 C1.526,7.224 2.226,8.274 3.472,8.274 Z M15.89,9.408 L14.35,9.408 L12.768,4.452 L11.2,9.408 L9.66,9.408 L7.56,2.646 L9.086,2.646 L10.514,7.56 L12.124,2.646 L13.426,2.646 L15.022,7.56 L16.45,2.646 L17.99,2.646 L15.89,9.408 Z M22.148,9.576 C20.104,9.576 18.606,8.162 18.606,6.02 C18.606,4.06 20.034,2.478 22.036,2.478 C24.066,2.478 25.354,4.018 25.354,6.146 L25.354,6.51 L20.146,6.51 C20.258,7.518 21.014,8.372 22.288,8.372 C22.96,8.372 23.73,8.106 24.22,7.616 L24.892,8.582 C24.206,9.226 23.212,9.576 22.148,9.576 Z M23.94,5.46 C23.898,4.662 23.352,3.682 22.022,3.682 C20.776,3.682 20.188,4.648 20.132,5.46 L23.94,5.46 Z M28.28,9.408 L26.81,9.408 L26.81,0.07 L28.28,0.07 L28.28,9.408 Z M32.508,9.576 C31.346,9.576 30.31,9.198 29.61,8.512 L30.282,7.462 C30.758,7.952 31.696,8.4 32.564,8.4 C33.446,8.4 33.908,8.036 33.908,7.504 C33.908,6.174 29.82,7.126 29.82,4.522 C29.82,3.416 30.772,2.478 32.48,2.478 C33.628,2.478 34.496,2.884 35.098,3.416 L34.482,4.452 C34.076,4.004 33.334,3.64 32.48,3.64 C31.71,3.64 31.234,4.004 31.234,4.48 C31.234,5.67 35.322,4.774 35.322,7.462 C35.322,8.666 34.328,9.576 32.508,9.576 Z M40.768,10.388 C38.22,10.388 36.33,8.47 36.33,5.992 C36.33,2.982 38.976,0.476 41.888,0.476 C44.562,0.476 46.298,2.436 46.298,4.83 C46.298,7.098 44.884,8.218 43.68,8.218 C42.868,8.218 42.434,7.7 42.364,7.14 L42.35,7.042 C41.86,7.742 41.062,8.218 40.25,8.218 C38.906,8.218 38.08,7.252 38.08,5.894 C38.08,3.99 39.662,2.422 41.3,2.422 C42.182,2.422 42.784,2.87 43.078,3.43 L43.232,2.632 L44.548,2.632 L43.792,6.216 C43.778,6.286 43.764,6.454 43.764,6.524 C43.764,6.972 44.016,7.196 44.338,7.196 C44.884,7.196 45.752,6.566 45.752,4.816 C45.752,2.576 44.212,0.994 41.846,0.994 C39.158,0.994 36.862,3.346 36.862,5.964 C36.862,8.176 38.528,9.884 40.838,9.884 C41.804,9.884 42.644,9.59 43.4,9.1 L43.68,9.506 C42.812,10.066 41.804,10.388 40.768,10.388 Z M40.726,7.154 C41.552,7.154 42.154,6.594 42.504,6.09 L42.868,4.326 C42.728,3.962 42.322,3.486 41.608,3.486 C40.362,3.486 39.452,4.62 39.452,5.796 C39.452,6.594 39.928,7.154 40.726,7.154 Z M49.224,7.378 C49.56,7.882 50.274,8.274 50.974,8.274 C52.136,8.274 52.878,7.336 52.878,6.02 C52.878,4.718 52.136,3.78 50.974,3.78 C50.274,3.78 49.56,4.186 49.224,4.69 L49.224,7.378 Z M49.224,9.408 L47.754,9.408 L47.754,0.07 L49.224,0.07 L49.224,3.584 C49.77,2.856 50.554,2.478 51.394,2.478 C53.144,2.478 54.404,3.836 54.404,6.02 C54.404,8.26 53.13,9.576 51.394,9.576 C50.526,9.576 49.742,9.156 49.224,8.484 L49.224,9.408 Z M56.63,1.82 C56.126,1.82 55.72,1.414 55.72,0.91 C55.72,0.406 56.126,0 56.63,0 C57.134,0 57.54,0.406 57.54,0.91 C57.54,1.414 57.134,1.82 56.63,1.82 Z M57.358,9.408 L55.888,9.408 L55.888,2.646 L57.358,2.646 L57.358,9.408 Z M62.02,12.152 C60.872,12.152 60.018,11.9 59.178,11.144 L59.864,10.08 C60.424,10.71 61.124,10.948 62.02,10.948 C62.986,10.948 64.022,10.5 64.022,9.058 L64.022,8.288 C63.504,8.974 62.734,9.422 61.852,9.422 C60.13,9.422 58.856,8.176 58.856,5.95 C58.856,3.752 60.102,2.478 61.852,2.478 C62.706,2.478 63.476,2.856 64.022,3.584 L64.022,2.646 L65.492,2.646 L65.492,9.058 C65.492,11.494 63.672,12.152 62.02,12.152 Z M62.286,8.106 C62.972,8.106 63.686,7.7 64.022,7.21 L64.022,4.676 C63.686,4.186 62.972,3.78 62.286,3.78 C61.11,3.78 60.368,4.648 60.368,5.95 C60.368,7.252 61.11,8.106 62.286,8.106 Z M68.866,7.378 C69.202,7.882 69.916,8.274 70.616,8.274 C71.778,8.274 72.52,7.336 72.52,6.02 C72.52,4.718 71.778,3.78 70.616,3.78 C69.916,3.78 69.202,4.186 68.866,4.69 L68.866,7.378 Z M68.866,9.408 L67.396,9.408 L67.396,0.07 L68.866,0.07 L68.866,3.584 C69.412,2.856 70.196,2.478 71.036,2.478 C72.786,2.478 74.046,3.836 74.046,6.02 C74.046,8.26 72.772,9.576 71.036,9.576 C70.168,9.576 69.384,9.156 68.866,8.484 L68.866,9.408 Z M77,9.408 L75.53,9.408 L75.53,2.646 L77,2.646 L77,3.626 C77.518,2.982 78.33,2.478 79.198,2.478 L79.198,3.934 C79.072,3.906 78.932,3.892 78.75,3.892 C78.12,3.892 77.294,4.312 77,4.802 L77,9.408 Z M83.454,9.576 C81.298,9.576 79.982,7.952 79.982,6.02 C79.982,4.074 81.298,2.478 83.454,2.478 C85.61,2.478 86.926,4.074 86.926,6.02 C86.926,7.952 85.61,9.576 83.454,9.576 Z M83.454,8.274 C84.714,8.274 85.4,7.224 85.4,6.02 C85.4,4.83 84.714,3.78 83.454,3.78 C82.208,3.78 81.508,4.83 81.508,6.02 C81.508,7.224 82.208,8.274 83.454,8.274 Z M98.196,9.408 L96.726,9.408 L96.726,4.998 C96.726,4.27 96.404,3.78 95.606,3.78 C94.948,3.78 94.332,4.228 94.038,4.676 L94.038,9.408 L92.568,9.408 L92.568,4.998 C92.568,4.27 92.26,3.78 91.462,3.78 C90.804,3.78 90.202,4.242 89.894,4.676 L89.894,9.408 L88.424,9.408 L88.424,2.646 L89.894,2.646 L89.894,3.556 C90.188,3.15 91.07,2.478 92.106,2.478 C93.114,2.478 93.73,2.982 93.954,3.71 C94.332,3.108 95.228,2.478 96.25,2.478 C97.482,2.478 98.196,3.15 98.196,4.522 L98.196,9.408 Z M105.714,9.408 L104.244,9.408 L104.244,8.666 C103.74,9.254 102.942,9.576 102.046,9.576 C100.954,9.576 99.708,8.82 99.708,7.336 C99.708,5.768 100.94,5.124 102.046,5.124 C102.97,5.124 103.74,5.418 104.244,5.992 L104.244,4.984 C104.244,4.2 103.586,3.724 102.662,3.724 C101.906,3.724 101.234,4.004 100.66,4.592 L100.044,3.57 C100.828,2.814 101.808,2.478 102.886,2.478 C104.398,2.478 105.714,3.108 105.714,4.914 L105.714,9.408 Z M102.634,8.568 C103.264,8.568 103.894,8.33 104.244,7.868 L104.244,6.832 C103.894,6.37 103.264,6.132 102.634,6.132 C101.808,6.132 101.178,6.622 101.178,7.35 C101.178,8.092 101.808,8.568 102.634,8.568 Z M108.36,1.82 C107.856,1.82 107.45,1.414 107.45,0.91 C107.45,0.406 107.856,0 108.36,0 C108.864,0 109.27,0.406 109.27,0.91 C109.27,1.414 108.864,1.82 108.36,1.82 Z M109.088,9.408 L107.618,9.408 L107.618,2.646 L109.088,2.646 L109.088,9.408 Z M112.462,9.408 L110.992,9.408 L110.992,0.07 L112.462,0.07 L112.462,9.408 Z M115.136,9.562 C114.604,9.562 114.156,9.1 114.156,8.568 C114.156,8.05 114.604,7.602 115.136,7.602 C115.668,7.602 116.116,8.05 116.116,8.568 C116.116,9.1 115.668,9.562 115.136,9.562 Z M120.82,9.576 C118.776,9.576 117.334,8.064 117.334,6.02 C117.334,3.976 118.776,2.478 120.82,2.478 C122.15,2.478 122.934,3.038 123.41,3.682 L122.444,4.564 C122.066,4.032 121.548,3.78 120.89,3.78 C119.672,3.78 118.846,4.704 118.846,6.02 C118.846,7.336 119.672,8.274 120.89,8.274 C121.548,8.274 122.066,7.994 122.444,7.462 L123.41,8.372 C122.934,9.002 122.15,9.576 120.82,9.576 Z M127.778,9.576 C125.622,9.576 124.306,7.952 124.306,6.02 C124.306,4.074 125.622,2.478 127.778,2.478 C129.934,2.478 131.25,4.074 131.25,6.02 C131.25,7.952 129.934,9.576 127.778,9.576 Z M127.778,8.274 C129.038,8.274 129.724,7.224 129.724,6.02 C129.724,4.83 129.038,3.78 127.778,3.78 C126.532,3.78 125.832,4.83 125.832,6.02 C125.832,7.224 126.532,8.274 127.778,8.274 Z M142.52,9.408 L141.05,9.408 L141.05,4.998 C141.05,4.27 140.728,3.78 139.93,3.78 C139.272,3.78 138.656,4.228 138.362,4.676 L138.362,9.408 L136.892,9.408 L136.892,4.998 C136.892,4.27 136.584,3.78 135.786,3.78 C135.128,3.78 134.526,4.242 134.218,4.676 L134.218,9.408 L132.748,9.408 L132.748,2.646 L134.218,2.646 L134.218,3.556 C134.512,3.15 135.394,2.478 136.43,2.478 C137.438,2.478 138.054,2.982 138.278,3.71 C138.656,3.108 139.552,2.478 140.574,2.478 C141.806,2.478 142.52,3.15 142.52,4.522 L142.52,9.408 Z"/>
          <path fill="#384254" d="M250.006,9.338 L248.536,9.338 L248.536,8.596 C248.032,9.184 247.234,9.506 246.338,9.506 C245.246,9.506 244,8.75 244,7.266 C244,5.698 245.232,5.054 246.338,5.054 C247.262,5.054 248.032,5.348 248.536,5.922 L248.536,4.914 C248.536,4.13 247.878,3.654 246.954,3.654 C246.198,3.654 245.526,3.934 244.952,4.522 L244.336,3.5 C245.12,2.744 246.1,2.408 247.178,2.408 C248.69,2.408 250.006,3.038 250.006,4.844 L250.006,9.338 Z M246.926,8.498 C247.556,8.498 248.186,8.26 248.536,7.798 L248.536,6.762 C248.186,6.3 247.556,6.062 246.926,6.062 C246.1,6.062 245.47,6.552 245.47,7.28 C245.47,8.022 246.1,8.498 246.926,8.498 Z M261.752,9.338 L260.282,9.338 L260.282,8.414 C259.764,9.086 258.994,9.506 258.112,9.506 C256.39,9.506 255.116,8.19 255.116,5.95 C255.116,3.766 256.376,2.408 258.112,2.408 C258.966,2.408 259.75,2.786 260.282,3.514 L260.282,0 L261.752,0 L261.752,9.338 Z M258.546,8.204 C259.232,8.204 259.96,7.798 260.282,7.294 L260.282,4.62 C259.96,4.116 259.232,3.71 258.546,3.71 C257.37,3.71 256.628,4.648 256.628,5.95 C256.628,7.266 257.37,8.204 258.546,8.204 Z M269.27,9.338 L267.8,9.338 L267.8,8.596 C267.296,9.184 266.498,9.506 265.602,9.506 C264.51,9.506 263.264,8.75 263.264,7.266 C263.264,5.698 264.496,5.054 265.602,5.054 C266.526,5.054 267.296,5.348 267.8,5.922 L267.8,4.914 C267.8,4.13 267.142,3.654 266.218,3.654 C265.462,3.654 264.79,3.934 264.216,4.522 L263.6,3.5 C264.384,2.744 265.364,2.408 266.442,2.408 C267.954,2.408 269.27,3.038 269.27,4.844 L269.27,9.338 Z M266.19,8.498 C266.82,8.498 267.45,8.26 267.8,7.798 L267.8,6.762 C267.45,6.3 266.82,6.062 266.19,6.062 C265.364,6.062 264.734,6.552 264.734,7.28 C264.734,8.022 265.364,8.498 266.19,8.498 Z M270.894,11.984 L271.104,10.668 C271.258,10.738 271.496,10.78 271.664,10.78 C272.14,10.78 272.448,10.64 272.644,10.192 L272.98,9.422 L270.194,2.576 L271.776,2.576 L273.75,7.644 L275.724,2.576 L277.292,2.576 L274.03,10.556 C273.568,11.704 272.77,12.068 271.72,12.082 C271.51,12.082 271.09,12.04 270.894,11.984 Z M287.442,9.338 L285.972,9.338 L285.972,8.596 C285.468,9.184 284.67,9.506 283.774,9.506 C282.682,9.506 281.436,8.75 281.436,7.266 C281.436,5.698 282.668,5.054 283.774,5.054 C284.698,5.054 285.468,5.348 285.972,5.922 L285.972,4.914 C285.972,4.13 285.314,3.654 284.39,3.654 C283.634,3.654 282.962,3.934 282.388,4.522 L281.772,3.5 C282.556,2.744 283.536,2.408 284.614,2.408 C286.126,2.408 287.442,3.038 287.442,4.844 L287.442,9.338 Z M284.362,8.498 C284.992,8.498 285.622,8.26 285.972,7.798 L285.972,6.762 C285.622,6.3 284.992,6.062 284.362,6.062 C283.536,6.062 282.906,6.552 282.906,7.28 C282.906,8.022 283.536,8.498 284.362,8.498 Z M292.104,12.082 C290.956,12.082 290.102,11.83 289.262,11.074 L289.948,10.01 C290.508,10.64 291.208,10.878 292.104,10.878 C293.07,10.878 294.106,10.43 294.106,8.988 L294.106,8.218 C293.588,8.904 292.818,9.352 291.936,9.352 C290.214,9.352 288.94,8.106 288.94,5.88 C288.94,3.682 290.186,2.408 291.936,2.408 C292.79,2.408 293.56,2.786 294.106,3.514 L294.106,2.576 L295.576,2.576 L295.576,8.988 C295.576,11.424 293.756,12.082 292.104,12.082 Z M292.37,8.036 C293.056,8.036 293.77,7.63 294.106,7.14 L294.106,4.606 C293.77,4.116 293.056,3.71 292.37,3.71 C291.194,3.71 290.452,4.578 290.452,5.88 C290.452,7.182 291.194,8.036 292.37,8.036 Z M300.546,9.506 C298.39,9.506 297.074,7.882 297.074,5.95 C297.074,4.004 298.39,2.408 300.546,2.408 C302.702,2.408 304.018,4.004 304.018,5.95 C304.018,7.882 302.702,9.506 300.546,9.506 Z M300.546,8.204 C301.806,8.204 302.492,7.154 302.492,5.95 C302.492,4.76 301.806,3.71 300.546,3.71 C299.3,3.71 298.6,4.76 298.6,5.95 C298.6,7.154 299.3,8.204 300.546,8.204 Z"/>
        </g>
        <g transform="translate(0 67)">
          <path fill="#01B2D0" d="M4.088,10.168 C2.044,10.168 0.546,8.754 0.546,6.612 C0.546,4.652 1.974,3.07 3.976,3.07 C6.006,3.07 7.294,4.61 7.294,6.738 L7.294,7.102 L2.086,7.102 C2.198,8.11 2.954,8.964 4.228,8.964 C4.9,8.964 5.67,8.698 6.16,8.208 L6.832,9.174 C6.146,9.818 5.152,10.168 4.088,10.168 Z M5.88,6.052 C5.838,5.254 5.292,4.274 3.962,4.274 C2.716,4.274 2.128,5.24 2.072,6.052 L5.88,6.052 Z M14.798,10 L13.328,10 L13.328,5.744 C13.328,4.68 12.796,4.372 11.97,4.372 C11.214,4.372 10.57,4.82 10.234,5.268 L10.234,10 L8.764,10 L8.764,0.662 L10.234,0.662 L10.234,4.148 C10.682,3.616 11.55,3.07 12.614,3.07 C14.07,3.07 14.798,3.826 14.798,5.212 L14.798,10 Z M19.838,10.168 C17.794,10.168 16.296,8.754 16.296,6.612 C16.296,4.652 17.724,3.07 19.726,3.07 C21.756,3.07 23.044,4.61 23.044,6.738 L23.044,7.102 L17.836,7.102 C17.948,8.11 18.704,8.964 19.978,8.964 C20.65,8.964 21.42,8.698 21.91,8.208 L22.582,9.174 C21.896,9.818 20.902,10.168 19.838,10.168 Z M21.63,6.052 C21.588,5.254 21.042,4.274 19.712,4.274 C18.466,4.274 17.878,5.24 17.822,6.052 L21.63,6.052 Z M34.272,10 L32.802,10 L32.802,5.59 C32.802,4.862 32.48,4.372 31.682,4.372 C31.024,4.372 30.408,4.82 30.114,5.268 L30.114,10 L28.644,10 L28.644,5.59 C28.644,4.862 28.336,4.372 27.538,4.372 C26.88,4.372 26.278,4.834 25.97,5.268 L25.97,10 L24.5,10 L24.5,3.238 L25.97,3.238 L25.97,4.148 C26.264,3.742 27.146,3.07 28.182,3.07 C29.19,3.07 29.806,3.574 30.03,4.302 C30.408,3.7 31.304,3.07 32.326,3.07 C33.558,3.07 34.272,3.742 34.272,5.114 L34.272,10 Z M36.918,2.412 C36.414,2.412 36.008,2.006 36.008,1.502 C36.008,0.998 36.414,0.592 36.918,0.592 C37.422,0.592 37.828,0.998 37.828,1.502 C37.828,2.006 37.422,2.412 36.918,2.412 Z M37.646,10 L36.176,10 L36.176,3.238 L37.646,3.238 L37.646,10 Z M45.598,10 L44.128,10 L44.128,5.772 C44.128,4.708 43.582,4.372 42.756,4.372 C42.014,4.372 41.37,4.82 41.02,5.268 L41.02,10 L39.55,10 L39.55,3.238 L41.02,3.238 L41.02,4.148 C41.468,3.616 42.35,3.07 43.414,3.07 C44.87,3.07 45.598,3.854 45.598,5.24 L45.598,10 Z M50.26,12.744 C49.112,12.744 48.258,12.492 47.418,11.736 L48.104,10.672 C48.664,11.302 49.364,11.54 50.26,11.54 C51.226,11.54 52.262,11.092 52.262,9.65 L52.262,8.88 C51.744,9.566 50.974,10.014 50.092,10.014 C48.37,10.014 47.096,8.768 47.096,6.542 C47.096,4.344 48.342,3.07 50.092,3.07 C50.946,3.07 51.716,3.448 52.262,4.176 L52.262,3.238 L53.732,3.238 L53.732,9.65 C53.732,12.086 51.912,12.744 50.26,12.744 Z M50.526,8.698 C51.212,8.698 51.926,8.292 52.262,7.802 L52.262,5.268 C51.926,4.778 51.212,4.372 50.526,4.372 C49.35,4.372 48.608,5.24 48.608,6.542 C48.608,7.844 49.35,8.698 50.526,8.698 Z M61.684,10 L60.214,10 L60.214,5.744 C60.214,4.68 59.682,4.372 58.856,4.372 C58.1,4.372 57.456,4.82 57.12,5.268 L57.12,10 L55.65,10 L55.65,0.662 L57.12,0.662 L57.12,4.148 C57.568,3.616 58.436,3.07 59.5,3.07 C60.956,3.07 61.684,3.826 61.684,5.212 L61.684,10 Z M69.202,10 L67.732,10 L67.732,9.258 C67.228,9.846 66.43,10.168 65.534,10.168 C64.442,10.168 63.196,9.412 63.196,7.928 C63.196,6.36 64.428,5.716 65.534,5.716 C66.458,5.716 67.228,6.01 67.732,6.584 L67.732,5.576 C67.732,4.792 67.074,4.316 66.15,4.316 C65.394,4.316 64.722,4.596 64.148,5.184 L63.532,4.162 C64.316,3.406 65.296,3.07 66.374,3.07 C67.886,3.07 69.202,3.7 69.202,5.506 L69.202,10 Z M66.122,9.16 C66.752,9.16 67.382,8.922 67.732,8.46 L67.732,7.424 C67.382,6.962 66.752,6.724 66.122,6.724 C65.296,6.724 64.666,7.214 64.666,7.942 C64.666,8.684 65.296,9.16 66.122,9.16 Z M80.878,10 L79.408,10 L79.408,5.59 C79.408,4.862 79.086,4.372 78.288,4.372 C77.63,4.372 77.014,4.82 76.72,5.268 L76.72,10 L75.25,10 L75.25,5.59 C75.25,4.862 74.942,4.372 74.144,4.372 C73.486,4.372 72.884,4.834 72.576,5.268 L72.576,10 L71.106,10 L71.106,3.238 L72.576,3.238 L72.576,4.148 C72.87,3.742 73.752,3.07 74.788,3.07 C75.796,3.07 76.412,3.574 76.636,4.302 C77.014,3.7 77.91,3.07 78.932,3.07 C80.164,3.07 80.878,3.742 80.878,5.114 L80.878,10 Z M86.758,10.98 C84.21,10.98 82.32,9.062 82.32,6.584 C82.32,3.574 84.966,1.068 87.878,1.068 C90.552,1.068 92.288,3.028 92.288,5.422 C92.288,7.69 90.874,8.81 89.67,8.81 C88.858,8.81 88.424,8.292 88.354,7.732 L88.34,7.634 C87.85,8.334 87.052,8.81 86.24,8.81 C84.896,8.81 84.07,7.844 84.07,6.486 C84.07,4.582 85.652,3.014 87.29,3.014 C88.172,3.014 88.774,3.462 89.068,4.022 L89.222,3.224 L90.538,3.224 L89.782,6.808 C89.768,6.878 89.754,7.046 89.754,7.116 C89.754,7.564 90.006,7.788 90.328,7.788 C90.874,7.788 91.742,7.158 91.742,5.408 C91.742,3.168 90.202,1.586 87.836,1.586 C85.148,1.586 82.852,3.938 82.852,6.556 C82.852,8.768 84.518,10.476 86.828,10.476 C87.794,10.476 88.634,10.182 89.39,9.692 L89.67,10.098 C88.802,10.658 87.794,10.98 86.758,10.98 Z M86.716,7.746 C87.542,7.746 88.144,7.186 88.494,6.682 L88.858,4.918 C88.718,4.554 88.312,4.078 87.598,4.078 C86.352,4.078 85.442,5.212 85.442,6.388 C85.442,7.186 85.918,7.746 86.716,7.746 Z M103.516,10 L102.046,10 L102.046,5.59 C102.046,4.862 101.724,4.372 100.926,4.372 C100.268,4.372 99.652,4.82 99.358,5.268 L99.358,10 L97.888,10 L97.888,5.59 C97.888,4.862 97.58,4.372 96.782,4.372 C96.124,4.372 95.522,4.834 95.214,5.268 L95.214,10 L93.744,10 L93.744,3.238 L95.214,3.238 L95.214,4.148 C95.508,3.742 96.39,3.07 97.426,3.07 C98.434,3.07 99.05,3.574 99.274,4.302 C99.652,3.7 100.548,3.07 101.57,3.07 C102.802,3.07 103.516,3.742 103.516,5.114 L103.516,10 Z M111.034,10 L109.564,10 L109.564,9.258 C109.06,9.846 108.262,10.168 107.366,10.168 C106.274,10.168 105.028,9.412 105.028,7.928 C105.028,6.36 106.26,5.716 107.366,5.716 C108.29,5.716 109.06,6.01 109.564,6.584 L109.564,5.576 C109.564,4.792 108.906,4.316 107.982,4.316 C107.226,4.316 106.554,4.596 105.98,5.184 L105.364,4.162 C106.148,3.406 107.128,3.07 108.206,3.07 C109.718,3.07 111.034,3.7 111.034,5.506 L111.034,10 Z M107.954,9.16 C108.584,9.16 109.214,8.922 109.564,8.46 L109.564,7.424 C109.214,6.962 108.584,6.724 107.954,6.724 C107.128,6.724 106.498,7.214 106.498,7.942 C106.498,8.684 107.128,9.16 107.954,9.16 Z M114.408,10 L112.938,10 L112.938,3.238 L114.408,3.238 L114.408,4.218 C114.926,3.574 115.738,3.07 116.606,3.07 L116.606,4.526 C116.48,4.498 116.34,4.484 116.158,4.484 C115.528,4.484 114.702,4.904 114.408,5.394 L114.408,10 Z M119.266,10 L117.796,10 L117.796,0.662 L119.266,0.662 L119.266,10 Z M121.912,2.412 C121.408,2.412 121.002,2.006 121.002,1.502 C121.002,0.998 121.408,0.592 121.912,0.592 C122.416,0.592 122.822,0.998 122.822,1.502 C122.822,2.006 122.416,2.412 121.912,2.412 Z M122.64,10 L121.17,10 L121.17,3.238 L122.64,3.238 L122.64,10 Z M130.592,10 L129.122,10 L129.122,5.772 C129.122,4.708 128.576,4.372 127.75,4.372 C127.008,4.372 126.364,4.82 126.014,5.268 L126.014,10 L124.544,10 L124.544,3.238 L126.014,3.238 L126.014,4.148 C126.462,3.616 127.344,3.07 128.408,3.07 C129.864,3.07 130.592,3.854 130.592,5.24 L130.592,10 Z M142.268,10 L140.798,10 L140.798,5.59 C140.798,4.862 140.476,4.372 139.678,4.372 C139.02,4.372 138.404,4.82 138.11,5.268 L138.11,10 L136.64,10 L136.64,5.59 C136.64,4.862 136.332,4.372 135.534,4.372 C134.876,4.372 134.274,4.834 133.966,5.268 L133.966,10 L132.496,10 L132.496,3.238 L133.966,3.238 L133.966,4.148 C134.26,3.742 135.142,3.07 136.178,3.07 C137.186,3.07 137.802,3.574 138.026,4.302 C138.404,3.7 139.3,3.07 140.322,3.07 C141.554,3.07 142.268,3.742 142.268,5.114 L142.268,10 Z M149.786,10 L148.316,10 L148.316,9.258 C147.812,9.846 147.014,10.168 146.118,10.168 C145.026,10.168 143.78,9.412 143.78,7.928 C143.78,6.36 145.012,5.716 146.118,5.716 C147.042,5.716 147.812,6.01 148.316,6.584 L148.316,5.576 C148.316,4.792 147.658,4.316 146.734,4.316 C145.978,4.316 145.306,4.596 144.732,5.184 L144.116,4.162 C144.9,3.406 145.88,3.07 146.958,3.07 C148.47,3.07 149.786,3.7 149.786,5.506 L149.786,10 Z M146.706,9.16 C147.336,9.16 147.966,8.922 148.316,8.46 L148.316,7.424 C147.966,6.962 147.336,6.724 146.706,6.724 C145.88,6.724 145.25,7.214 145.25,7.942 C145.25,8.684 145.88,9.16 146.706,9.16 Z M152.432,2.412 C151.928,2.412 151.522,2.006 151.522,1.502 C151.522,0.998 151.928,0.592 152.432,0.592 C152.936,0.592 153.342,0.998 153.342,1.502 C153.342,2.006 152.936,2.412 152.432,2.412 Z M153.16,10 L151.69,10 L151.69,3.238 L153.16,3.238 L153.16,10 Z M156.534,10 L155.064,10 L155.064,0.662 L156.534,0.662 L156.534,10 Z M159.208,10.154 C158.676,10.154 158.228,9.692 158.228,9.16 C158.228,8.642 158.676,8.194 159.208,8.194 C159.74,8.194 160.188,8.642 160.188,9.16 C160.188,9.692 159.74,10.154 159.208,10.154 Z M164.892,10.168 C162.848,10.168 161.406,8.656 161.406,6.612 C161.406,4.568 162.848,3.07 164.892,3.07 C166.222,3.07 167.006,3.63 167.482,4.274 L166.516,5.156 C166.138,4.624 165.62,4.372 164.962,4.372 C163.744,4.372 162.918,5.296 162.918,6.612 C162.918,7.928 163.744,8.866 164.962,8.866 C165.62,8.866 166.138,8.586 166.516,8.054 L167.482,8.964 C167.006,9.594 166.222,10.168 164.892,10.168 Z M171.85,10.168 C169.694,10.168 168.378,8.544 168.378,6.612 C168.378,4.666 169.694,3.07 171.85,3.07 C174.006,3.07 175.322,4.666 175.322,6.612 C175.322,8.544 174.006,10.168 171.85,10.168 Z M171.85,8.866 C173.11,8.866 173.796,7.816 173.796,6.612 C173.796,5.422 173.11,4.372 171.85,4.372 C170.604,4.372 169.904,5.422 169.904,6.612 C169.904,7.816 170.604,8.866 171.85,8.866 Z M186.592,10 L185.122,10 L185.122,5.59 C185.122,4.862 184.8,4.372 184.002,4.372 C183.344,4.372 182.728,4.82 182.434,5.268 L182.434,10 L180.964,10 L180.964,5.59 C180.964,4.862 180.656,4.372 179.858,4.372 C179.2,4.372 178.598,4.834 178.29,5.268 L178.29,10 L176.82,10 L176.82,3.238 L178.29,3.238 L178.29,4.148 C178.584,3.742 179.466,3.07 180.502,3.07 C181.51,3.07 182.126,3.574 182.35,4.302 C182.728,3.7 183.624,3.07 184.646,3.07 C185.878,3.07 186.592,3.742 186.592,5.114 L186.592,10 Z"/>
          <path fill="#384254" d="M248.256,10.168 C246.66,10.168 245.554,9.608 244.798,8.726 L245.736,7.592 C246.352,8.32 247.206,8.712 248.242,8.712 C249.432,8.712 250.16,7.984 250.16,7.06 C250.16,6.066 249.432,5.408 248.284,5.408 C247.5,5.408 246.842,5.646 246.24,6.206 L245.078,5.87 L245.078,0.662 L251.196,0.662 L251.196,2.104 L246.716,2.104 L246.716,4.792 C247.178,4.358 247.934,3.994 248.83,3.994 C250.412,3.994 251.826,5.086 251.826,7.004 C251.826,8.936 250.342,10.168 248.256,10.168 Z M263.194,10 L261.724,10 L261.724,9.076 C261.206,9.748 260.436,10.168 259.554,10.168 C257.832,10.168 256.558,8.852 256.558,6.612 C256.558,4.428 257.818,3.07 259.554,3.07 C260.408,3.07 261.192,3.448 261.724,4.176 L261.724,0.662 L263.194,0.662 L263.194,10 Z M259.988,8.866 C260.674,8.866 261.402,8.46 261.724,7.956 L261.724,5.282 C261.402,4.778 260.674,4.372 259.988,4.372 C258.812,4.372 258.07,5.31 258.07,6.612 C258.07,7.928 258.812,8.866 259.988,8.866 Z M270.712,10 L269.242,10 L269.242,9.258 C268.738,9.846 267.94,10.168 267.044,10.168 C265.952,10.168 264.706,9.412 264.706,7.928 C264.706,6.36 265.938,5.716 267.044,5.716 C267.968,5.716 268.738,6.01 269.242,6.584 L269.242,5.576 C269.242,4.792 268.584,4.316 267.66,4.316 C266.904,4.316 266.232,4.596 265.658,5.184 L265.042,4.162 C265.826,3.406 266.806,3.07 267.884,3.07 C269.396,3.07 270.712,3.7 270.712,5.506 L270.712,10 Z M267.632,9.16 C268.262,9.16 268.892,8.922 269.242,8.46 L269.242,7.424 C268.892,6.962 268.262,6.724 267.632,6.724 C266.806,6.724 266.176,7.214 266.176,7.942 C266.176,8.684 266.806,9.16 267.632,9.16 Z M272.336,12.646 L272.546,11.33 C272.7,11.4 272.938,11.442 273.106,11.442 C273.582,11.442 273.89,11.302 274.086,10.854 L274.422,10.084 L271.636,3.238 L273.218,3.238 L275.192,8.306 L277.166,3.238 L278.734,3.238 L275.472,11.218 C275.01,12.366 274.212,12.73 273.162,12.744 C272.952,12.744 272.532,12.702 272.336,12.646 Z M281.982,10.168 C280.82,10.168 279.784,9.79 279.084,9.104 L279.756,8.054 C280.232,8.544 281.17,8.992 282.038,8.992 C282.92,8.992 283.382,8.628 283.382,8.096 C283.382,6.766 279.294,7.718 279.294,5.114 C279.294,4.008 280.246,3.07 281.954,3.07 C283.102,3.07 283.97,3.476 284.572,4.008 L283.956,5.044 C283.55,4.596 282.808,4.232 281.954,4.232 C281.184,4.232 280.708,4.596 280.708,5.072 C280.708,6.262 284.796,5.366 284.796,8.054 C284.796,9.258 283.802,10.168 281.982,10.168 Z M295.492,10 L294.022,10 L294.022,9.258 C293.518,9.846 292.72,10.168 291.824,10.168 C290.732,10.168 289.486,9.412 289.486,7.928 C289.486,6.36 290.718,5.716 291.824,5.716 C292.748,5.716 293.518,6.01 294.022,6.584 L294.022,5.576 C294.022,4.792 293.364,4.316 292.44,4.316 C291.684,4.316 291.012,4.596 290.438,5.184 L289.822,4.162 C290.606,3.406 291.586,3.07 292.664,3.07 C294.176,3.07 295.492,3.7 295.492,5.506 L295.492,10 Z M292.412,9.16 C293.042,9.16 293.672,8.922 294.022,8.46 L294.022,7.424 C293.672,6.962 293.042,6.724 292.412,6.724 C291.586,6.724 290.956,7.214 290.956,7.942 C290.956,8.684 291.586,9.16 292.412,9.16 Z M300.154,12.744 C299.006,12.744 298.152,12.492 297.312,11.736 L297.998,10.672 C298.558,11.302 299.258,11.54 300.154,11.54 C301.12,11.54 302.156,11.092 302.156,9.65 L302.156,8.88 C301.638,9.566 300.868,10.014 299.986,10.014 C298.264,10.014 296.99,8.768 296.99,6.542 C296.99,4.344 298.236,3.07 299.986,3.07 C300.84,3.07 301.61,3.448 302.156,4.176 L302.156,3.238 L303.626,3.238 L303.626,9.65 C303.626,12.086 301.806,12.744 300.154,12.744 Z M300.42,8.698 C301.106,8.698 301.82,8.292 302.156,7.802 L302.156,5.268 C301.82,4.778 301.106,4.372 300.42,4.372 C299.244,4.372 298.502,5.24 298.502,6.542 C298.502,7.844 299.244,8.698 300.42,8.698 Z M308.596,10.168 C306.44,10.168 305.124,8.544 305.124,6.612 C305.124,4.666 306.44,3.07 308.596,3.07 C310.752,3.07 312.068,4.666 312.068,6.612 C312.068,8.544 310.752,10.168 308.596,10.168 Z M308.596,8.866 C309.856,8.866 310.542,7.816 310.542,6.612 C310.542,5.422 309.856,4.372 308.596,4.372 C307.35,4.372 306.65,5.422 306.65,6.612 C306.65,7.816 307.35,8.866 308.596,8.866 Z"/>
        </g>
      </g>
      <path fill="#384254" d="M38.784 46L35.858 46 34.78 43.162 28.048 43.162 26.97 46 24.044 46 29.808 31.326 33.02 31.326 38.784 46zM34.054 40.896L31.414 33.9 28.774 40.896 34.054 40.896zM45.142 46.264C41.93 46.264 39.664 43.888 39.664 40.676 39.664 37.464 41.93 35.11 45.142 35.11 47.232 35.11 48.464 35.99 49.212 37.002L47.694 38.388C47.1 37.552 46.286 37.156 45.252 37.156 43.338 37.156 42.04 38.608 42.04 40.676 42.04 42.744 43.338 44.218 45.252 44.218 46.286 44.218 47.1 43.778 47.694 42.942L49.212 44.372C48.464 45.362 47.232 46.264 45.142 46.264zM56.098 46.264C52.886 46.264 50.62 43.888 50.62 40.676 50.62 37.464 52.886 35.11 56.098 35.11 58.188 35.11 59.42 35.99 60.168 37.002L58.65 38.388C58.056 37.552 57.242 37.156 56.208 37.156 54.294 37.156 52.996 38.608 52.996 40.676 52.996 42.744 54.294 44.218 56.208 44.218 57.242 44.218 58.056 43.778 58.65 42.942L60.168 44.372C59.42 45.362 58.188 46.264 56.098 46.264zM67.032 46.264C63.644 46.264 61.576 43.712 61.576 40.676 61.576 37.618 63.644 35.11 67.032 35.11 70.42 35.11 72.488 37.618 72.488 40.676 72.488 43.712 70.42 46.264 67.032 46.264zM67.032 44.218C69.012 44.218 70.09 42.568 70.09 40.676 70.09 38.806 69.012 37.156 67.032 37.156 65.074 37.156 63.974 38.806 63.974 40.676 63.974 42.568 65.074 44.218 67.032 44.218zM84.324 46L82.014 46 82.014 44.592C81.266 45.428 79.946 46.264 78.274 46.264 75.986 46.264 74.842 45.054 74.842 42.898L74.842 35.374 77.152 35.374 77.152 42.04C77.152 43.69 77.988 44.218 79.308 44.218 80.474 44.218 81.486 43.536 82.014 42.832L82.014 35.374 84.324 35.374 84.324 46zM96.82 46L94.51 46 94.51 39.356C94.51 37.684 93.652 37.156 92.354 37.156 91.188 37.156 90.176 37.86 89.626 38.564L89.626 46 87.316 46 87.316 35.374 89.626 35.374 89.626 36.804C90.33 35.968 91.716 35.11 93.388 35.11 95.676 35.11 96.82 36.342 96.82 38.52L96.82 46zM103.024 46.264C101.22 46.264 100.296 45.296 100.296 43.514L100.296 37.376 98.536 37.376 98.536 35.374 100.296 35.374 100.296 32.47 102.606 32.47 102.606 35.374 104.762 35.374 104.762 37.376 102.606 37.376 102.606 42.942C102.606 43.668 102.958 44.218 103.618 44.218 104.058 44.218 104.454 44.02 104.63 43.822L105.18 45.582C104.762 45.956 104.08 46.264 103.024 46.264zM117.346 46.264C114.134 46.264 111.868 43.888 111.868 40.676 111.868 37.464 114.134 35.11 117.346 35.11 119.436 35.11 120.668 35.99 121.416 37.002L119.898 38.388C119.304 37.552 118.49 37.156 117.456 37.156 115.542 37.156 114.244 38.608 114.244 40.676 114.244 42.744 115.542 44.218 117.456 44.218 118.49 44.218 119.304 43.778 119.898 42.942L121.416 44.372C120.668 45.362 119.436 46.264 117.346 46.264zM125.772 46L123.462 46 123.462 35.374 125.772 35.374 125.772 36.914C126.586 35.902 127.862 35.11 129.226 35.11L129.226 37.398C129.028 37.354 128.808 37.332 128.522 37.332 127.532 37.332 126.234 37.992 125.772 38.762L125.772 46zM136.024 46.264C132.812 46.264 130.458 44.042 130.458 40.676 130.458 37.596 132.702 35.11 135.848 35.11 139.038 35.11 141.062 37.53 141.062 40.874L141.062 41.446 132.878 41.446C133.054 43.03 134.242 44.372 136.244 44.372 137.3 44.372 138.51 43.954 139.28 43.184L140.336 44.702C139.258 45.714 137.696 46.264 136.024 46.264zM138.84 39.796C138.774 38.542 137.916 37.002 135.826 37.002 133.868 37.002 132.944 38.52 132.856 39.796L138.84 39.796zM152.172 46L149.862 46 149.862 44.834C149.07 45.758 147.816 46.264 146.408 46.264 144.692 46.264 142.734 45.076 142.734 42.744 142.734 40.28 144.67 39.268 146.408 39.268 147.86 39.268 149.07 39.73 149.862 40.632L149.862 39.048C149.862 37.816 148.828 37.068 147.376 37.068 146.188 37.068 145.132 37.508 144.23 38.432L143.262 36.826C144.494 35.638 146.034 35.11 147.728 35.11 150.104 35.11 152.172 36.1 152.172 38.938L152.172 46zM147.332 44.68C148.322 44.68 149.312 44.306 149.862 43.58L149.862 41.952C149.312 41.226 148.322 40.852 147.332 40.852 146.034 40.852 145.044 41.622 145.044 42.766 145.044 43.932 146.034 44.68 147.332 44.68zM158.376 46.264C156.572 46.264 155.648 45.296 155.648 43.514L155.648 37.376 153.888 37.376 153.888 35.374 155.648 35.374 155.648 32.47 157.958 32.47 157.958 35.374 160.114 35.374 160.114 37.376 157.958 37.376 157.958 42.942C157.958 43.668 158.31 44.218 158.97 44.218 159.41 44.218 159.806 44.02 159.982 43.822L160.532 45.582C160.114 45.956 159.432 46.264 158.376 46.264zM167.11 46.264C163.898 46.264 161.544 44.042 161.544 40.676 161.544 37.596 163.788 35.11 166.934 35.11 170.124 35.11 172.148 37.53 172.148 40.874L172.148 41.446 163.964 41.446C164.14 43.03 165.328 44.372 167.33 44.372 168.386 44.372 169.596 43.954 170.366 43.184L171.422 44.702C170.344 45.714 168.782 46.264 167.11 46.264zM169.926 39.796C169.86 38.542 169.002 37.002 166.912 37.002 164.954 37.002 164.03 38.52 163.942 39.796L169.926 39.796zM184.226 46L181.916 46 181.916 44.548C181.102 45.604 179.892 46.264 178.506 46.264 175.8 46.264 173.798 44.196 173.798 40.676 173.798 37.244 175.778 35.11 178.506 35.11 179.848 35.11 181.08 35.704 181.916 36.848L181.916 31.326 184.226 31.326 184.226 46zM179.188 44.218C180.266 44.218 181.41 43.58 181.916 42.788L181.916 38.586C181.41 37.794 180.266 37.156 179.188 37.156 177.34 37.156 176.174 38.63 176.174 40.676 176.174 42.744 177.34 44.218 179.188 44.218zM52.44 72L46.938 72 46.938 62.662 48.1 62.662 48.1 70.964 52.44 70.964 52.44 72zM59.034 72L57.984 72 57.984 71.23C57.438 71.846 56.654 72.168 55.744 72.168 54.61 72.168 53.392 71.398 53.392 69.928 53.392 68.402 54.596 67.702 55.744 67.702 56.668 67.702 57.438 67.996 57.984 68.612L57.984 67.394C57.984 66.498 57.256 65.98 56.276 65.98 55.464 65.98 54.806 66.26 54.204 66.918L53.714 66.19C54.442 65.434 55.31 65.07 56.416 65.07 57.858 65.07 59.034 65.714 59.034 67.352L59.034 72zM56.136 71.412C56.864 71.412 57.578 71.132 57.984 70.572L57.984 69.284C57.578 68.738 56.864 68.458 56.136 68.458 55.142 68.458 54.456 69.074 54.456 69.928 54.456 70.796 55.142 71.412 56.136 71.412zM63.304 72.168C62.184 72.168 61.26 71.818 60.574 71.104L61.106 70.348C61.554 70.866 62.408 71.314 63.332 71.314 64.368 71.314 64.942 70.824 64.942 70.152 64.942 68.514 60.756 69.522 60.756 67.016 60.756 65.952 61.652 65.07 63.262 65.07 64.424 65.07 65.236 65.504 65.768 66.05L65.278 66.778C64.872 66.288 64.144 65.924 63.262 65.924 62.338 65.924 61.764 66.386 61.764 66.988 61.764 68.458 65.95 67.492 65.95 70.124 65.95 71.258 65.04 72.168 63.304 72.168zM69.38 72.168C68.372 72.168 67.868 71.594 67.868 70.586L67.868 66.162 66.748 66.162 66.748 65.238 67.868 65.238 67.868 63.39 68.932 63.39 68.932 65.238 70.304 65.238 70.304 66.162 68.932 66.162 68.932 70.362C68.932 70.866 69.156 71.23 69.604 71.23 69.912 71.23 70.178 71.09 70.318 70.936L70.626 71.734C70.36 71.986 69.982 72.168 69.38 72.168zM77.122 72.168C76.114 72.168 75.61 71.594 75.61 70.586L75.61 66.162 74.49 66.162 74.49 65.238 75.61 65.238 75.61 63.39 76.674 63.39 76.674 65.238 78.046 65.238 78.046 66.162 76.674 66.162 76.674 70.362C76.674 70.866 76.898 71.23 77.346 71.23 77.654 71.23 77.92 71.09 78.06 70.936L78.368 71.734C78.102 71.986 77.724 72.168 77.122 72.168zM80.566 72L79.516 72 79.516 65.238 80.566 65.238 80.566 66.316C81.112 65.616 81.896 65.084 82.82 65.084L82.82 66.162C82.694 66.148 82.568 66.134 82.414 66.134 81.756 66.134 80.874 66.666 80.566 67.212L80.566 72zM84.668 64.272C84.276 64.272 83.954 63.964 83.954 63.572 83.954 63.18 84.276 62.858 84.668 62.858 85.06 62.858 85.368 63.18 85.368 63.572 85.368 63.964 85.06 64.272 84.668 64.272zM85.186 72L84.136 72 84.136 65.238 85.186 65.238 85.186 72zM90.002 74.744C88.868 74.744 88.084 74.52 87.272 73.722L87.804 72.966C88.364 73.624 89.036 73.876 90.002 73.876 91.122 73.876 92.186 73.33 92.186 71.902L92.186 70.88C91.682 71.566 90.856 72.084 89.904 72.084 88.14 72.084 86.894 70.768 86.894 68.584 86.894 66.414 88.126 65.07 89.904 65.07 90.814 65.07 91.64 65.518 92.186 66.26L92.186 65.238 93.236 65.238 93.236 71.902C93.236 74.044 91.654 74.744 90.002 74.744zM90.17 71.146C90.996 71.146 91.808 70.642 92.186 70.054L92.186 67.086C91.808 66.512 90.996 66.008 90.17 66.008 88.798 66.008 87.986 67.086 87.986 68.584 87.986 70.068 88.798 71.146 90.17 71.146zM98.052 74.744C96.918 74.744 96.134 74.52 95.322 73.722L95.854 72.966C96.414 73.624 97.086 73.876 98.052 73.876 99.172 73.876 100.236 73.33 100.236 71.902L100.236 70.88C99.732 71.566 98.906 72.084 97.954 72.084 96.19 72.084 94.944 70.768 94.944 68.584 94.944 66.414 96.176 65.07 97.954 65.07 98.864 65.07 99.69 65.518 100.236 66.26L100.236 65.238 101.286 65.238 101.286 71.902C101.286 74.044 99.704 74.744 98.052 74.744zM98.22 71.146C99.046 71.146 99.858 70.642 100.236 70.054L100.236 67.086C99.858 66.512 99.046 66.008 98.22 66.008 96.848 66.008 96.036 67.086 96.036 68.584 96.036 70.068 96.848 71.146 98.22 71.146zM106.452 72.168C104.436 72.168 102.994 70.726 102.994 68.612 102.994 66.652 104.394 65.07 106.326 65.07 108.37 65.07 109.574 66.666 109.574 68.696L109.574 68.962 104.114 68.962C104.198 70.236 105.08 71.3 106.536 71.3 107.32 71.3 108.09 70.992 108.636 70.432L109.14 71.118C108.454 71.79 107.544 72.168 106.452 72.168zM108.538 68.178C108.524 67.184 107.852 65.938 106.312 65.938 104.87 65.938 104.156 67.156 104.1 68.178L108.538 68.178zM117.218 72L116.168 72 116.168 70.992C115.664 71.678 114.838 72.168 113.886 72.168 112.122 72.168 110.876 70.824 110.876 68.626 110.876 66.456 112.122 65.07 113.886 65.07 114.796 65.07 115.622 65.518 116.168 66.26L116.168 62.662 117.218 62.662 117.218 72zM114.152 71.23C114.978 71.23 115.804 70.74 116.168 70.152L116.168 67.1C115.804 66.512 114.978 66.008 114.152 66.008 112.78 66.008 111.968 67.128 111.968 68.626 111.968 70.124 112.78 71.23 114.152 71.23zM128.222 72L127.172 72 127.172 71.23C126.626 71.846 125.842 72.168 124.932 72.168 123.798 72.168 122.58 71.398 122.58 69.928 122.58 68.402 123.784 67.702 124.932 67.702 125.856 67.702 126.626 67.996 127.172 68.612L127.172 67.394C127.172 66.498 126.444 65.98 125.464 65.98 124.652 65.98 123.994 66.26 123.392 66.918L122.902 66.19C123.63 65.434 124.498 65.07 125.604 65.07 127.046 65.07 128.222 65.714 128.222 67.352L128.222 72zM125.324 71.412C126.052 71.412 126.766 71.132 127.172 70.572L127.172 69.284C126.766 68.738 126.052 68.458 125.324 68.458 124.33 68.458 123.644 69.074 123.644 69.928 123.644 70.796 124.33 71.412 125.324 71.412zM139.912 72L138.862 72 138.862 70.992C138.358 71.678 137.532 72.168 136.58 72.168 134.816 72.168 133.57 70.824 133.57 68.626 133.57 66.456 134.816 65.07 136.58 65.07 137.49 65.07 138.316 65.518 138.862 66.26L138.862 62.662 139.912 62.662 139.912 72zM136.846 71.23C137.672 71.23 138.498 70.74 138.862 70.152L138.862 67.1C138.498 66.512 137.672 66.008 136.846 66.008 135.474 66.008 134.662 67.128 134.662 68.626 134.662 70.124 135.474 71.23 136.846 71.23zM147.29 72L146.24 72 146.24 71.23C145.694 71.846 144.91 72.168 144 72.168 142.866 72.168 141.648 71.398 141.648 69.928 141.648 68.402 142.852 67.702 144 67.702 144.924 67.702 145.694 67.996 146.24 68.612L146.24 67.394C146.24 66.498 145.512 65.98 144.532 65.98 143.72 65.98 143.062 66.26 142.46 66.918L141.97 66.19C142.698 65.434 143.566 65.07 144.672 65.07 146.114 65.07 147.29 65.714 147.29 67.352L147.29 72zM144.392 71.412C145.12 71.412 145.834 71.132 146.24 70.572L146.24 69.284C145.834 68.738 145.12 68.458 144.392 68.458 143.398 68.458 142.712 69.074 142.712 69.928 142.712 70.796 143.398 71.412 144.392 71.412zM149.04 74.646L149.194 73.694C149.348 73.764 149.6 73.806 149.768 73.806 150.23 73.806 150.538 73.652 150.776 73.092L151.224 72.07 148.396 65.238 149.544 65.238 151.784 70.782 154.038 65.238 155.172 65.238 151.784 73.372C151.378 74.352 150.692 74.73 149.796 74.744 149.572 74.744 149.222 74.702 149.04 74.646zM165.168 72L164.118 72 164.118 71.23C163.572 71.846 162.788 72.168 161.878 72.168 160.744 72.168 159.526 71.398 159.526 69.928 159.526 68.402 160.73 67.702 161.878 67.702 162.802 67.702 163.572 67.996 164.118 68.612L164.118 67.394C164.118 66.498 163.39 65.98 162.41 65.98 161.598 65.98 160.94 66.26 160.338 66.918L159.848 66.19C160.576 65.434 161.444 65.07 162.55 65.07 163.992 65.07 165.168 65.714 165.168 67.352L165.168 72zM162.27 71.412C162.998 71.412 163.712 71.132 164.118 70.572L164.118 69.284C163.712 68.738 162.998 68.458 162.27 68.458 161.276 68.458 160.59 69.074 160.59 69.928 160.59 70.796 161.276 71.412 162.27 71.412zM169.998 74.744C168.864 74.744 168.08 74.52 167.268 73.722L167.8 72.966C168.36 73.624 169.032 73.876 169.998 73.876 171.118 73.876 172.182 73.33 172.182 71.902L172.182 70.88C171.678 71.566 170.852 72.084 169.9 72.084 168.136 72.084 166.89 70.768 166.89 68.584 166.89 66.414 168.122 65.07 169.9 65.07 170.81 65.07 171.636 65.518 172.182 66.26L172.182 65.238 173.232 65.238 173.232 71.902C173.232 74.044 171.65 74.744 169.998 74.744zM170.166 71.146C170.992 71.146 171.804 70.642 172.182 70.054L172.182 67.086C171.804 66.512 170.992 66.008 170.166 66.008 168.794 66.008 167.982 67.086 167.982 68.584 167.982 70.068 168.794 71.146 170.166 71.146zM178.286 72.168C176.228 72.168 174.94 70.572 174.94 68.612 174.94 66.652 176.228 65.07 178.286 65.07 180.344 65.07 181.632 66.652 181.632 68.612 181.632 70.572 180.344 72.168 178.286 72.168zM178.286 71.23C179.728 71.23 180.526 69.998 180.526 68.612 180.526 67.24 179.728 66.008 178.286 66.008 176.844 66.008 176.046 67.24 176.046 68.612 176.046 69.998 176.844 71.23 178.286 71.23z"/>
      <circle cx="28" cy="68" r="4" fill="#6FD350"/>
    </g>
    <g transform="rotate(-13 641.79 -1967.321)">
      <rect width="18.48" height="17.5" x=".696" y="3.332" fill="#01B2D0" opacity=".1" rx="3"/>
      <rect width="16.48" height="15.5" x="4.203" y="1.316" stroke="#01B2D0" stroke-width="2" rx="3"/>
    </g>
    <g transform="rotate(39 -469.662 657.076)">
      <rect width="18.48" height="18.333" x=".696" y="3.491" fill="#01B2D0" opacity=".1" rx="3"/>
      <rect width="16.48" height="16.333" x="4.203" y="1.331" stroke="#01B2D0" stroke-width="2" rx="3"/>
    </g>
    <g transform="rotate(112 271.95 198.988)">
      <path fill="#6FD350" d="M21.5944411,14.0074966 L32.2191148,35.308862 C33.2051403,37.2857406 32.4018952,39.6876489 30.4250167,40.6736744 C29.8705056,40.9502529 29.2593193,41.0942191 28.6396595,41.0942191 L7.39031215,41.0942191 C5.18117315,41.0942191 3.39031215,39.3033581 3.39031215,37.0942191 C3.39031215,36.4745594 3.53427841,35.8633731 3.81085688,35.308862 L14.4355306,14.0074966 C15.4215561,12.0306181 17.8234644,11.227373 19.800343,12.2133985 C20.5772241,12.6008905 21.2069491,13.2306154 21.5944411,14.0074966 Z" opacity=".2"/>
      <path stroke="#6FD350" stroke-width="2" d="M28.0780801,7.89492174 C27.7874611,7.31226085 27.3151673,6.83996714 26.7325065,6.54934813 C25.2498475,5.809829 23.4484163,6.41226283 22.7088972,7.89492174 L12.0842235,29.1962871 C11.8767896,29.6121704 11.7688149,30.0705602 11.7688149,30.535305 C11.7688149,32.1921592 13.1119607,33.535305 14.7688149,33.535305 L36.0181623,33.535305 C36.4829071,33.535305 36.9412969,33.4273303 37.3571802,33.2198964 C38.8398391,32.4803773 39.4422729,30.678946 38.7027538,29.1962871 L28.0780801,7.89492174 Z"/>
    </g>
    <g transform="rotate(-47 337.3 12.463)">
      <path fill="#6FD350" d="M18.6584492,12.8291371 L26.4876424,28.4531851 C27.4773353,30.4282301 26.6785496,32.8316251 24.7035045,33.8213181 C24.1472653,34.1000489 23.5336749,34.2451826 22.911507,34.2451826 L7.25312048,34.2451826 C5.04398148,34.2451826 3.25312048,32.4543216 3.25312048,30.2451826 C3.25312048,29.6230147 3.39825417,29.0094243 3.67698503,28.4531851 L11.5061783,12.8291371 C12.4958712,10.854092 14.8992662,10.0553063 16.8743113,11.0449992 C17.6459305,11.4316567 18.2717917,12.0575179 18.6584492,12.8291371 Z" opacity=".2"/>
      <path stroke="#6FD350" stroke-width="2" d="M23.9417665,7.81137471 C23.6517733,7.23266032 23.1823775,6.76326443 22.6036631,6.47327128 C21.1223793,5.73100159 19.319833,6.33009091 18.5775633,7.81137471 L10.7483701,23.4354226 C10.5393219,23.852602 10.4304716,24.3127948 10.4304716,24.7794208 C10.4304716,26.436275 11.7736174,27.7794208 13.4304716,27.7794208 L29.0888581,27.7794208 C29.5554841,27.7794208 30.0156769,27.6705705 30.4328563,27.4615224 C31.9141401,26.7192527 32.5132294,24.9167064 31.7709597,23.4354226 L23.9417665,7.81137471 Z"/>
    </g>
    <g transform="rotate(-35 516.071 119.84)">
      <ellipse cx="18.234" cy="13.678" stroke="#FFC111" stroke-width="2" rx="12.091" ry="12.078"/>
      <ellipse cx="13.819" cy="17.585" fill="#FFC111" opacity=".2" rx="13.091" ry="13.078"/>
    </g>
  </g>
</svg>
