<svg xmlns="http://www.w3.org/2000/svg" width="50" height="50" viewBox="0 0 50 50">
  <g fill="none" fill-rule="evenodd" transform="translate(3 3)">
    <path fill="#ECB32D" d="M28.3674797,2.89756098 C27.6878049,0.858536585 25.5056911,-0.250406504 23.4666667,0.393495935 C21.4276423,1.07317073 20.3186992,3.25528455 20.9626016,5.29430894 L31.0146341,36.201626 C31.6943089,38.097561 33.7691057,39.1707317 35.7365854,38.598374 C37.8113821,37.9902439 39.0634146,35.8081301 38.3837398,33.804878 C38.3837398,33.7333333 28.3674797,2.89756098 28.3674797,2.89756098 Z"/>
    <path fill="#63C1A0" d="M12.8065041,7.94146341 C12.1268293,5.90243902 9.94471545,4.79349593 7.90569106,5.43739837 C5.86666667,6.11707317 4.75772358,8.29918699 5.40162602,10.3382114 L15.4536585,41.2455285 C16.1333333,43.1414634 18.2081301,44.2146341 20.1756098,43.6422764 C22.2504065,43.0341463 23.502439,40.8520325 22.8227642,38.8487805 C22.8227642,38.7772358 12.8065041,7.94146341 12.8065041,7.94146341 Z"/>
    <path fill="#E01A59" d="M41.0308943,28.4747967 C43.0699187,27.795122 44.1788618,25.6130081 43.5349593,23.5739837 C42.8552846,21.5349593 40.6731707,20.4260163 38.6341463,21.0699187 L7.69105691,31.1577236 C5.79512195,31.8373984 4.72195122,33.9121951 5.29430894,35.8796748 C5.90243902,37.9544715 8.08455285,39.2065041 10.0878049,38.5268293 C10.1593496,38.5268293 41.0308943,28.4747967 41.0308943,28.4747967 Z"/>
    <path fill="#331433" d="M14.1300813,37.2390244 C16.1333333,36.595122 18.7447154,35.7365854 21.5349593,34.8422764 C20.8910569,32.8390244 20.0325203,30.2276423 19.1382114,27.4373984 L11.7333333,29.8341463 L14.1300813,37.2390244 Z"/>
    <path fill="#D62027" d="M29.7268293,32.1593496 C32.5170732,31.2650407 35.1284553,30.4065041 37.1317073,29.7626016 C36.4878049,27.7593496 35.6292683,25.1479675 34.7349593,22.3577236 L27.3300813,24.7544715 L29.7268293,32.1593496 Z"/>
    <path fill="#89D3DF" d="M35.9512195,12.9138211 C37.9902439,12.2341463 39.099187,10.0520325 38.4552846,8.01300813 C37.7756098,5.97398374 35.5934959,4.86504065 33.5544715,5.50894309 L2.64715447,15.5609756 C0.751219512,16.2406504 -0.32195122,18.3154472 0.250406504,20.2829268 C0.858536585,22.3577236 3.04065041,23.6097561 5.04390244,22.9300813 C5.11544715,22.9300813 35.9512195,12.9138211 35.9512195,12.9138211 Z"/>
    <path fill="#258B74" d="M9.08617886,21.6422764 C11.0894309,20.998374 13.700813,20.1398374 16.4910569,19.2455285 C15.596748,16.4552846 14.7382114,13.8439024 14.0943089,11.8406504 L6.68943089,14.2373984 L9.08617886,21.6422764 Z"/>
    <path fill="#819C3C" d="M24.6471545,16.598374 C27.4373984,15.704065 30.0487805,14.8455285 32.0520325,14.201626 C31.1577236,11.4113821 30.299187,8.8 29.6552846,6.79674797 L22.2504065,9.19349593 L24.6471545,16.598374 Z"/>
  </g>
</svg>
