<svg xmlns="http://www.w3.org/2000/svg" xmlns:xlink="http://www.w3.org/1999/xlink" width="450" height="533" viewBox="0 0 450 533">
  <defs>
    <path id="personalization-b" d="M12.819426,-5.17920154e-16 L317.180574,5.17920154e-16 C321.638168,-3.00926524e-16 323.254599,0.464128056 324.884229,1.33566352 C326.513858,2.20719898 327.792801,3.48614185 328.664336,5.11577148 C329.535872,6.74540111 330,8.3618323 330,12.819426 L330,409.180574 C330,413.638168 329.535872,415.254599 328.664336,416.884229 C327.792801,418.513858 326.513858,419.792801 324.884229,420.664336 C323.254599,421.535872 321.638168,422 317.180574,422 L12.819426,422 C8.3618323,422 6.74540111,421.535872 5.11577148,420.664336 C3.48614185,419.792801 2.20719898,418.513858 1.33566352,416.884229 C0.464128056,415.254599 2.00617683e-16,413.638168 -3.45280103e-16,409.180574 L3.45280103e-16,12.819426 C-2.00617683e-16,8.3618323 0.464128056,6.74540111 1.33566352,5.11577148 C2.20719898,3.48614185 3.48614185,2.20719898 5.11577148,1.33566352 C6.74540111,0.464128056 8.3618323,3.00926524e-16 12.819426,-5.17920154e-16 Z"/>
    <filter id="personalization-a" width="116.1%" height="112.6%" x="-8%" y="-5.3%" filterUnits="objectBoundingBox">
      <feMorphology in="SourceAlpha" operator="dilate" radius=".5" result="shadowSpreadOuter1"/>
      <feOffset dy="4" in="shadowSpreadOuter1" result="shadowOffsetOuter1"/>
      <feGaussianBlur in="shadowOffsetOuter1" result="shadowBlurOuter1" stdDeviation="8"/>
      <feComposite in="shadowBlurOuter1" in2="SourceAlpha" operator="out" result="shadowBlurOuter1"/>
      <feColorMatrix in="shadowBlurOuter1" values="0 0 0 0 0   0 0 0 0 0   0 0 0 0 0  0 0 0 0.12 0"/>
    </filter>
    <path id="personalization-d" d="M12.819426,-5.17920154e-16 L187.180574,5.17920154e-16 C191.638168,-3.00926524e-16 193.254599,0.464128056 194.884229,1.33566352 C196.513858,2.20719898 197.792801,3.48614185 198.664336,5.11577148 C199.535872,6.74540111 200,8.3618323 200,12.819426 L200,81.180574 C200,85.6381677 199.535872,87.2545989 198.664336,88.8842285 C197.792801,90.5138581 196.513858,91.792801 194.884229,92.6643365 C193.254599,93.5358719 191.638168,94 187.180574,94 L12.819426,94 C8.3618323,94 6.74540111,93.5358719 5.11577148,92.6643365 C3.48614185,91.792801 2.20719898,90.5138581 1.33566352,88.8842285 C0.464128056,87.2545989 2.00617683e-16,85.6381677 -3.45280103e-16,81.180574 L3.45280103e-16,12.819426 C-2.00617683e-16,8.3618323 0.464128056,6.74540111 1.33566352,5.11577148 C2.20719898,3.48614185 3.48614185,2.20719898 5.11577148,1.33566352 C6.74540111,0.464128056 8.3618323,3.00926524e-16 12.819426,-5.17920154e-16 Z"/>
    <filter id="personalization-c" width="126.5%" height="156.4%" x="-13.3%" y="-23.9%" filterUnits="objectBoundingBox">
      <feMorphology in="SourceAlpha" operator="dilate" radius=".5" result="shadowSpreadOuter1"/>
      <feOffset dy="4" in="shadowSpreadOuter1" result="shadowOffsetOuter1"/>
      <feGaussianBlur in="shadowOffsetOuter1" result="shadowBlurOuter1" stdDeviation="8"/>
      <feComposite in="shadowBlurOuter1" in2="SourceAlpha" operator="out" result="shadowBlurOuter1"/>
      <feColorMatrix in="shadowBlurOuter1" values="0 0 0 0 0   0 0 0 0 0   0 0 0 0 0  0 0 0 0.12 0"/>
    </filter>
  </defs>
  <g fill="none" fill-rule="evenodd" transform="translate(16 10)">
    <rect width="312" height="298" x="37" y="49" fill="#C9EDF4"/>
    <g transform="translate(88 81)">
      <use fill="#000" filter="url(#personalization-a)" xlink:href="#personalization-b"/>
      <use fill="#FFF" stroke="#8D8D8D" stroke-opacity=".24" xlink:href="#personalization-b"/>
      <path fill="#F4F4F4" d="M27,24 L137,24 C138.656854,24 140,25.3431458 140,27 L140,27 C140,28.6568542 138.656854,30 137,30 L27,30 C25.3431458,30 24,28.6568542 24,27 L24,27 C24,25.3431458 25.3431458,24 27,24 Z"/>
      <rect width="282" height="1" x="24" y="90" fill="#D8D8D8"/>
      <path fill="#F4F4F4" d="M193 24L303 24C304.656854 24 306 25.3431458 306 27L306 27C306 28.6568542 304.656854 30 303 30L193 30C191.343146 30 190 28.6568542 190 27L190 27C190 25.3431458 191.343146 24 193 24zM27 42L111 42C112.656854 42 114 43.3431458 114 45L114 45C114 46.6568542 112.656854 48 111 48L27 48C25.3431458 48 24 46.6568542 24 45L24 45C24 43.3431458 25.3431458 42 27 42zM27 60L101 60C102.656854 60 104 61.3431458 104 63L104 63C104 64.6568542 102.656854 66 101 66L27 66C25.3431458 66 24 64.6568542 24 63L24 63C24 61.3431458 25.3431458 60 27 60zM115 60L133 60C134.656854 60 136 61.3431458 136 63L136 63C136 64.6568542 134.656854 66 133 66L115 66C113.343146 66 112 64.6568542 112 63L112 63C112 61.3431458 113.343146 60 115 60z"/>
      <text fill="#384254" font-family="ProximaNova-Semibold, Proxima Nova" font-size="14" font-weight="500">
        <tspan x="24" y="129">Hi {{user.name}!</tspan>
      </text>
      <path fill="#F4F4F4" d="M27 146L173 146C174.656854 146 176 147.343146 176 149L176 149C176 150.656854 174.656854 152 173 152L27 152C25.3431458 152 24 150.656854 24 149L24 149C24 147.343146 25.3431458 146 27 146zM187 146L303 146C304.656854 146 306 147.343146 306 149L306 149C306 150.656854 304.656854 152 303 152L187 152C185.343146 152 184 150.656854 184 149L184 149C184 147.343146 185.343146 146 187 146zM27 164L243 164C244.656854 164 246 165.343146 246 167L246 167C246 168.656854 244.656854 170 243 170L27 170C25.3431458 170 24 168.656854 24 167L24 167C24 165.343146 25.3431458 164 27 164zM27 182L263 182C264.656854 182 266 183.343146 266 185L266 185C266 186.656854 264.656854 188 263 188L27 188C25.3431458 188 24 186.656854 24 185L24 185C24 183.343146 25.3431458 182 27 182zM27 200L61 200C62.6568542 200 64 201.343146 64 203L64 203C64 204.656854 62.6568542 206 61 206L27 206C25.3431458 206 24 204.656854 24 203L24 203C24 201.343146 25.3431458 200 27 200zM75 200L149 200C150.656854 200 152 201.343146 152 203L152 203C152 204.656854 150.656854 206 149 206L75 206C73.3431458 206 72 204.656854 72 203L72 203C72 201.343146 73.3431458 200 75 200zM163 200L277 200C278.656854 200 280 201.343146 280 203L280 203C280 204.656854 278.656854 206 277 206L163 206C161.343146 206 160 204.656854 160 203L160 203C160 201.343146 161.343146 200 163 200zM27 218L173 218C174.656854 218 176 219.343146 176 221L176 221C176 222.656854 174.656854 224 173 224L27 224C25.3431458 224 24 222.656854 24 221L24 221C24 219.343146 25.3431458 218 27 218zM27 248L61 248C62.6568542 248 64 249.343146 64 251L64 251C64 252.656854 62.6568542 254 61 254L27 254C25.3431458 254 24 252.656854 24 251L24 251C24 249.343146 25.3431458 248 27 248zM75 248L149 248C150.656854 248 152 249.343146 152 251L152 251C152 252.656854 150.656854 254 149 254L75 254C73.3431458 254 72 252.656854 72 251L72 251C72 249.343146 73.3431458 248 75 248z"/>
      <g transform="translate(24 278)">
        <rect width="88" height="120" fill="#F4F4F4" rx="4"/>
        <rect width="88" height="120" x="97" fill="#F4F4F4" rx="4"/>
        <rect width="88" height="120" x="194" fill="#F4F4F4" rx="4"/>
        <circle cx="44" cy="60" r="20" fill="#01B2D0"/>
        <rect width="32" height="32" x="125" y="44" fill="#F15242"/>
        <polygon fill="#FFC111" points="238.5 43 256 78 221 78"/>
      </g>
    </g>
    <g transform="translate(0 2)">
      <use fill="#000" filter="url(#personalization-c)" xlink:href="#personalization-d"/>
      <use fill="#FFF" stroke="#8D8D8D" stroke-opacity=".24" xlink:href="#personalization-d"/>
      <text fill="#384254" font-family="ProximaNova-Regular, Proxima Nova" font-size="10">
        <tspan x="40" y="28">MESSAGES</tspan>
      </text>
      <path fill="#D8D8D8" d="M22.409713,16 L25.590287,16 C27.8190838,16 28.6272994,16.232064 29.4421143,16.6678318 C30.2569291,17.1035995 30.8964005,17.7430709 31.3321682,18.5578857 C31.767936,19.3727006 32,20.1809162 32,22.409713 L32,25.590287 C32,27.8190838 31.767936,28.6272994 31.3321682,29.4421143 C30.8964005,30.2569291 30.2569291,30.8964005 29.4421143,31.3321682 C28.6272994,31.767936 27.8190838,32 25.590287,32 L22.409713,32 C20.1809162,32 19.3727006,31.767936 18.5578857,31.3321682 C17.7430709,30.8964005 17.1035995,30.2569291 16.6678318,29.4421143 C16.232064,28.6272994 16,27.8190838 16,25.590287 L16,22.409713 C16,20.1809162 16.232064,19.3727006 16.6678318,18.5578857 C17.1035995,17.7430709 17.7430709,17.1035995 18.5578857,16.6678318 C19.3727006,16.232064 20.1809162,16 22.409713,16 Z"/>
      <text fill="#384254" font-family="ProximaNova-Semibold, Proxima Nova" font-size="14" font-weight="500">
        <tspan x="16" y="54">Malcolm Reynolds</tspan>
      </text>
      <text fill="#384254" font-family="ProximaNova-Regular, Proxima Nova" font-size="14">
        <tspan x="16" y="74">New sales alert</tspan>
      </text>
    </g>
    <g transform="rotate(97 -148.161 224.463)">
      <path fill="#6FD350" d="M23.5294807,15.1746907 L36.9457885,42.162653 C37.9291882,44.1408391 37.1227545,46.5416787 35.1445684,47.5250784 C34.5912973,47.8001216 33.9818312,47.9432556 33.3639658,47.9432556 L6.53135016,47.9432556 C4.32221116,47.9432556 2.53135016,46.1523946 2.53135016,43.9432556 C2.53135016,43.3253902 2.67448419,42.7159241 2.9495274,42.162653 L16.3658352,15.1746907 C17.3492349,13.1965046 19.7500745,12.3900709 21.7282606,13.3734706 C22.5089107,13.7615488 23.1414024,14.3940406 23.5294807,15.1746907 Z" opacity=".2"/>
      <path stroke="#6FD350" stroke-width="2" d="M31.2136794,7.96777482 C30.9226207,7.38228725 30.4482519,6.90791843 29.8627643,6.61685972 C28.3791248,5.87930997 26.578495,6.48413526 25.8409453,7.96777482 L12.4246375,34.9557371 C12.2183551,35.3706905 12.1110046,35.82779 12.1110046,36.2911891 C12.1110046,37.9480434 13.4541503,39.2911891 15.1110046,39.2911891 L41.9436202,39.2911891 C42.4070192,39.2911891 42.8641188,39.1838386 43.2790721,38.9775562 C44.7627117,38.2400064 45.367537,36.4393767 44.6299872,34.9557371 L31.2136794,7.96777482 Z"/>
    </g>
    <g transform="rotate(-91 145.47 -79.76)">
      <ellipse cx="18.234" cy="13.678" stroke="#FFC111" stroke-width="2" rx="12.091" ry="12.078"/>
      <ellipse cx="13.819" cy="17.585" fill="#FFC111" opacity=".2" rx="13.091" ry="13.078"/>
    </g>
    <g transform="rotate(24 183.231 870.069)">
      <rect width="15.96" height="15.833" x=".601" y="3.015" fill="#01B2D0" opacity=".1" rx="3"/>
      <rect width="13.96" height="13.833" x="3.766" y="1.286" stroke="#01B2D0" stroke-width="2" rx="3"/>
    </g>
    <g transform="rotate(-149 56.725 114.72)">
      <rect width="19.32" height="19.167" x=".728" y="3.65" fill="#01B2D0" opacity=".1" rx="3"/>
      <rect width="17.32" height="17.167" x="4.349" y="1.346" stroke="#01B2D0" stroke-width="2" rx="3"/>
    </g>
  </g>
</svg>
