<svg xmlns="http://www.w3.org/2000/svg" xmlns:xlink="http://www.w3.org/1999/xlink" width="649" height="514" viewBox="0 0 649 514">
  <defs>
    <path id="reporting-outline-a" d="M7.6916556,-3.10752092e-16 L426.308344,3.10752092e-16 C428.982901,-1.80555915e-16 429.952759,0.278476833 430.930537,0.801398111 C431.908315,1.32431939 432.675681,2.09168511 433.198602,3.06946289 C433.721523,4.04724067 434,5.01709938 434,7.6916556 L434,401.308344 C434,403.982901 433.721523,404.952759 433.198602,405.930537 C432.675681,406.908315 431.908315,407.675681 430.930537,408.198602 C429.952759,408.721523 428.982901,409 426.308344,409 L7.6916556,409 C5.01709938,409 4.04724067,408.721523 3.06946289,408.198602 C2.09168511,407.675681 1.32431939,406.908315 0.801398111,405.930537 C0.278476833,404.952759 1.2037061e-16,403.982901 -2.07168062e-16,401.308344 L2.07168062e-16,7.6916556 C-1.2037061e-16,5.01709938 0.278476833,4.04724067 0.801398111,3.06946289 C1.32431939,2.09168511 2.09168511,1.32431939 3.06946289,0.801398111 C4.04724067,0.278476833 5.01709938,1.80555915e-16 7.6916556,-3.10752092e-16 Z"/>
    <filter id="reporting-outline-b" width="112.2%" height="113%" x="-6.1%" y="-5.5%" filterUnits="objectBoundingBox">
      <feMorphology in="SourceAlpha" operator="dilate" radius=".5" result="shadowSpreadOuter1"/>
      <feOffset dy="4" in="shadowSpreadOuter1" result="shadowOffsetOuter1"/>
      <feGaussianBlur in="shadowOffsetOuter1" result="shadowBlurOuter1" stdDeviation="8"/>
      <feComposite in="shadowBlurOuter1" in2="SourceAlpha" operator="out" result="shadowBlurOuter1"/>
      <feColorMatrix in="shadowBlurOuter1" values="0 0 0 0 0   0 0 0 0 0   0 0 0 0 0  0 0 0 0.12 0"/>
    </filter>
    <path id="reporting-outline-e" d="M7.6916556,-3.10752092e-16 L509.308344,3.10752092e-16 C511.982901,-1.80555915e-16 512.952759,0.278476833 513.930537,0.801398111 C514.908315,1.32431939 515.675681,2.09168511 516.198602,3.06946289 C516.721523,4.04724067 517,5.01709938 517,7.6916556 L517,93.3083444 C517,95.9829006 516.721523,96.9527593 516.198602,97.9305371 C515.675681,98.9083149 514.908315,99.6756806 513.930537,100.198602 C512.952759,100.721523 511.982901,101 509.308344,101 L7.6916556,101 C5.01709938,101 4.04724067,100.721523 3.06946289,100.198602 C2.09168511,99.6756806 1.32431939,98.9083149 0.801398111,97.9305371 C0.278476833,96.9527593 1.2037061e-16,95.9829006 -2.07168062e-16,93.3083444 L2.07168062e-16,7.6916556 C-1.2037061e-16,5.01709938 0.278476833,4.04724067 0.801398111,3.06946289 C1.32431939,2.09168511 2.09168511,1.32431939 3.06946289,0.801398111 C4.04724067,0.278476833 5.01709938,1.80555915e-16 7.6916556,-3.10752092e-16 Z"/>
    <filter id="reporting-outline-d" width="110.3%" height="152.5%" x="-5.1%" y="-22.3%" filterUnits="objectBoundingBox">
      <feMorphology in="SourceAlpha" operator="dilate" radius=".5" result="shadowSpreadOuter1"/>
      <feOffset dy="4" in="shadowSpreadOuter1" result="shadowOffsetOuter1"/>
      <feGaussianBlur in="shadowOffsetOuter1" result="shadowBlurOuter1" stdDeviation="8"/>
      <feComposite in="shadowBlurOuter1" in2="SourceAlpha" operator="out" result="shadowBlurOuter1"/>
      <feColorMatrix in="shadowBlurOuter1" values="0 0 0 0 0   0 0 0 0 0   0 0 0 0 0  0 0 0 0.12 0"/>
    </filter>
  </defs>
  <g fill="none" fill-rule="evenodd" transform="translate(12 12)">
    <rect width="414" height="290" x="53" y="166" fill="#FFF3CF"/>
    <g transform="translate(126)">
      <mask id="reporting-outline-c" fill="#fff">
        <use xlink:href="#reporting-outline-a"/>
      </mask>
      <use fill="#000" filter="url(#reporting-outline-b)" xlink:href="#reporting-outline-a"/>
      <use fill="#FFF" stroke="#8D8D8D" stroke-opacity=".24" xlink:href="#reporting-outline-a"/>
      <text fill="#384254" font-family="ProximaNova-Bold, Proxima Nova" font-size="14" font-weight="bold" mask="url(#reporting-outline-c)">
        <tspan x="24" y="38">Content Breakdown</tspan>
      </text>
      <text fill="#384254" fill-opacity=".5" font-family="ProximaNova-Regular, Proxima Nova" font-size="14" mask="url(#reporting-outline-c)">
        <tspan x="24" y="58">Results for each version of and language</tspan>
      </text>
      <g mask="url(#reporting-outline-c)">
        <g transform="translate(42 171)">
          <path fill="#384254" fill-opacity=".5" d="M2.638,19 L1.476,19 L1.476,9.662 L7.594,9.662 L7.594,10.698 L2.638,10.698 L2.638,13.708 L7.496,13.708 L7.496,14.744 L2.638,14.744 L2.638,19 Z M10.198,19 L9.148,19 L9.148,12.238 L10.198,12.238 L10.198,13.316 C10.744,12.616 11.528,12.084 12.452,12.084 L12.452,13.162 C12.326,13.148 12.2,13.134 12.046,13.134 C11.388,13.134 10.506,13.666 10.198,14.212 L10.198,19 Z M16.834,19.168 C14.818,19.168 13.376,17.726 13.376,15.612 C13.376,13.652 14.776,12.07 16.708,12.07 C18.752,12.07 19.956,13.666 19.956,15.696 L19.956,15.962 L14.496,15.962 C14.58,17.236 15.462,18.3 16.918,18.3 C17.702,18.3 18.472,17.992 19.018,17.432 L19.522,18.118 C18.836,18.79 17.926,19.168 16.834,19.168 Z M18.92,15.178 C18.906,14.184 18.234,12.938 16.694,12.938 C15.252,12.938 14.538,14.156 14.482,15.178 L18.92,15.178 Z M27.264,19 L26.228,19 L26.228,14.576 C26.228,13.372 25.612,13.008 24.702,13.008 C23.876,13.008 23.106,13.512 22.7,14.058 L22.7,19 L21.65,19 L21.65,12.238 L22.7,12.238 L22.7,13.218 C23.176,12.644 24.1,12.07 25.122,12.07 C26.522,12.07 27.264,12.784 27.264,14.254 L27.264,19 Z M32.36,19.168 C30.344,19.168 28.986,17.614 28.986,15.612 C28.986,13.61 30.344,12.07 32.36,12.07 C33.592,12.07 34.32,12.574 34.838,13.246 L34.138,13.876 C33.69,13.26 33.116,13.008 32.416,13.008 C30.988,13.008 30.078,14.114 30.078,15.612 C30.078,17.11 30.988,18.23 32.416,18.23 C33.116,18.23 33.69,17.95 34.138,17.348 L34.838,17.992 C34.32,18.664 33.592,19.168 32.36,19.168 Z M41.95,19 L40.9,19 L40.9,14.548 C40.9,13.344 40.298,13.008 39.374,13.008 C38.562,13.008 37.778,13.512 37.386,14.058 L37.386,19 L36.336,19 L36.336,9.662 L37.386,9.662 L37.386,13.218 C37.848,12.644 38.772,12.07 39.794,12.07 C41.208,12.07 41.95,12.756 41.95,14.226 L41.95,19 Z"/>
          <path fill="#384254" d="M83.256,19.168 C81.66,19.168 80.554,18.608 79.798,17.726 L80.736,16.592 C81.352,17.32 82.206,17.712 83.242,17.712 C84.432,17.712 85.16,16.984 85.16,16.06 C85.16,15.066 84.432,14.408 83.284,14.408 C82.5,14.408 81.842,14.646 81.24,15.206 L80.078,14.87 L80.078,9.662 L86.196,9.662 L86.196,11.104 L81.716,11.104 L81.716,13.792 C82.178,13.358 82.934,12.994 83.83,12.994 C85.412,12.994 86.826,14.086 86.826,16.004 C86.826,17.936 85.342,19.168 83.256,19.168 Z M94.862,19 L88.1,19 L88.1,17.698 C91.726,14.954 93.154,13.75 93.154,12.392 C93.154,11.412 92.3,10.978 91.446,10.978 C90.354,10.978 89.528,11.412 88.926,12.084 L87.974,11.02 C88.8,10.012 90.116,9.522 91.432,9.522 C93.238,9.522 94.806,10.53 94.806,12.392 C94.806,14.128 93.224,15.668 90.732,17.558 L94.862,17.558 L94.862,19 Z M99.986,19.168 C98.39,19.168 97.284,18.608 96.528,17.726 L97.466,16.592 C98.082,17.32 98.936,17.712 99.972,17.712 C101.162,17.712 101.89,16.984 101.89,16.06 C101.89,15.066 101.162,14.408 100.014,14.408 C99.23,14.408 98.572,14.646 97.97,15.206 L96.808,14.87 L96.808,9.662 L102.926,9.662 L102.926,11.104 L98.446,11.104 L98.446,13.792 C98.908,13.358 99.664,12.994 100.56,12.994 C102.142,12.994 103.556,14.086 103.556,16.004 C103.556,17.936 102.072,19.168 99.986,19.168 Z"/>
          <g transform="translate(147)">
            <path fill="#384254" d="M4.172,13.168 C2.254,13.168 0.588,12.272 0.588,10.592 C0.588,9.416 1.554,8.562 2.688,8.184 C1.638,7.848 0.742,7.148 0.742,5.972 C0.742,4.236 2.52,3.522 4.172,3.522 C5.824,3.522 7.602,4.236 7.602,5.972 C7.602,7.148 6.706,7.848 5.656,8.184 C6.79,8.562 7.756,9.416 7.756,10.592 C7.756,12.272 6.076,13.168 4.172,13.168 Z M4.172,7.526 C4.746,7.428 5.936,7.092 5.936,6.224 C5.936,5.426 5.18,4.978 4.172,4.978 C3.164,4.978 2.408,5.426 2.408,6.224 C2.408,7.092 3.612,7.428 4.172,7.526 Z M4.172,11.712 C5.208,11.712 6.09,11.208 6.09,10.382 C6.09,9.416 4.746,8.996 4.172,8.912 C3.584,8.996 2.254,9.416 2.254,10.382 C2.254,11.208 3.108,11.712 4.172,11.712 Z M12.6,13.168 C11.004,13.168 9.898,12.608 9.142,11.726 L10.08,10.592 C10.696,11.32 11.55,11.712 12.586,11.712 C13.776,11.712 14.504,10.984 14.504,10.06 C14.504,9.066 13.776,8.408 12.628,8.408 C11.844,8.408 11.186,8.646 10.584,9.206 L9.422,8.87 L9.422,3.662 L15.54,3.662 L15.54,5.104 L11.06,5.104 L11.06,7.792 C11.522,7.358 12.278,6.994 13.174,6.994 C14.756,6.994 16.17,8.086 16.17,10.004 C16.17,11.936 14.686,13.168 12.6,13.168 Z M19.46,8.156 C18.074,8.156 17.136,7.148 17.136,5.846 C17.136,4.53 18.074,3.522 19.46,3.522 C20.86,3.522 21.784,4.53 21.784,5.846 C21.784,7.148 20.86,8.156 19.46,8.156 Z M19.488,13 L18.55,13 L24.514,3.662 L25.466,3.662 L19.488,13 Z M24.486,13.168 C23.1,13.168 22.162,12.16 22.162,10.858 C22.162,9.542 23.1,8.534 24.486,8.534 C25.872,8.534 26.81,9.542 26.81,10.858 C26.81,12.16 25.872,13.168 24.486,13.168 Z M19.46,7.218 C20.188,7.218 20.706,6.658 20.706,5.846 C20.706,5.02 20.188,4.446 19.46,4.446 C18.746,4.446 18.228,5.02 18.228,5.846 C18.228,6.658 18.746,7.218 19.46,7.218 Z M24.486,12.23 C25.214,12.23 25.732,11.67 25.732,10.858 C25.732,10.032 25.214,9.458 24.486,9.458 C23.758,9.458 23.24,10.032 23.24,10.858 C23.24,11.67 23.758,12.23 24.486,12.23 Z"/>
            <g transform="translate(0 22)">
              <rect width="100" height="8" fill="#F4F4F4" rx="4"/>
              <rect width="85" height="8" fill="#01B2D0" rx="4"/>
            </g>
          </g>
          <g transform="translate(263)">
            <path fill="#384254" d="M4.438,13.168 C1.694,13.168 0.588,10.942 0.588,8.338 C0.588,5.65 2.002,3.522 4.704,3.522 C5.852,3.522 6.748,3.928 7.378,4.558 L6.622,5.79 C6.132,5.286 5.586,4.978 4.704,4.978 C3.136,4.978 2.24,6.42 2.24,8.058 L2.24,8.324 C2.674,7.694 3.654,7.008 4.746,7.008 C6.426,7.008 7.882,8.044 7.882,10.032 C7.882,11.754 6.524,13.168 4.438,13.168 Z M4.34,11.712 C5.572,11.712 6.216,10.83 6.216,10.088 C6.216,8.94 5.32,8.422 4.312,8.422 C3.514,8.422 2.73,8.842 2.268,9.514 C2.352,10.522 2.912,11.712 4.34,11.712 Z M11.914,13 L10.108,13 L13.636,5.104 L8.792,5.104 L8.792,3.662 L15.526,3.662 L15.526,4.796 L11.914,13 Z M18.578,8.156 C17.192,8.156 16.254,7.148 16.254,5.846 C16.254,4.53 17.192,3.522 18.578,3.522 C19.978,3.522 20.902,4.53 20.902,5.846 C20.902,7.148 19.978,8.156 18.578,8.156 Z M18.606,13 L17.668,13 L23.632,3.662 L24.584,3.662 L18.606,13 Z M23.604,13.168 C22.218,13.168 21.28,12.16 21.28,10.858 C21.28,9.542 22.218,8.534 23.604,8.534 C24.99,8.534 25.928,9.542 25.928,10.858 C25.928,12.16 24.99,13.168 23.604,13.168 Z M18.578,7.218 C19.306,7.218 19.824,6.658 19.824,5.846 C19.824,5.02 19.306,4.446 18.578,4.446 C17.864,4.446 17.346,5.02 17.346,5.846 C17.346,6.658 17.864,7.218 18.578,7.218 Z M23.604,12.23 C24.332,12.23 24.85,11.67 24.85,10.858 C24.85,10.032 24.332,9.458 23.604,9.458 C22.876,9.458 22.358,10.032 22.358,10.858 C22.358,11.67 22.876,12.23 23.604,12.23 Z"/>
            <g transform="translate(0 22)">
              <rect width="100" height="8" fill="#F4F4F4" rx="4"/>
              <rect width="67" height="8" fill="#01B2D0" rx="4"/>
            </g>
          </g>
        </g>
      </g>
      <g mask="url(#reporting-outline-c)">
        <g transform="translate(40 217)">
          <path fill="#384254" fill-opacity=".5" d="M5.254,19 L2.062,19 L2.062,9.662 L5.254,9.662 C8.166,9.662 10.042,11.692 10.042,14.338 C10.042,16.998 8.166,19 5.254,19 Z M5.254,17.964 C7.522,17.964 8.838,16.34 8.838,14.338 C8.838,12.322 7.564,10.698 5.254,10.698 L3.224,10.698 L3.224,17.964 L5.254,17.964 Z M14.886,19.168 C12.87,19.168 11.428,17.726 11.428,15.612 C11.428,13.652 12.828,12.07 14.76,12.07 C16.804,12.07 18.008,13.666 18.008,15.696 L18.008,15.962 L12.548,15.962 C12.632,17.236 13.514,18.3 14.97,18.3 C15.754,18.3 16.524,17.992 17.07,17.432 L17.574,18.118 C16.888,18.79 15.978,19.168 14.886,19.168 Z M16.972,15.178 C16.958,14.184 16.286,12.938 14.746,12.938 C13.304,12.938 12.59,14.156 12.534,15.178 L16.972,15.178 Z M21.046,19 L19.996,19 L19.996,13.162 L18.876,13.162 L18.876,12.238 L19.996,12.238 L19.996,11.72 C19.996,10.334 20.766,9.522 21.956,9.522 C22.502,9.522 22.964,9.648 23.384,10.04 L22.95,10.712 C22.726,10.516 22.46,10.39 22.124,10.39 C21.424,10.39 21.046,10.852 21.046,11.72 L21.046,12.238 L22.418,12.238 L22.418,13.162 L21.046,13.162 L21.046,19 Z M28.956,19 L27.906,19 L27.906,18.23 C27.36,18.846 26.576,19.168 25.666,19.168 C24.532,19.168 23.314,18.398 23.314,16.928 C23.314,15.402 24.518,14.702 25.666,14.702 C26.59,14.702 27.36,14.996 27.906,15.612 L27.906,14.394 C27.906,13.498 27.178,12.98 26.198,12.98 C25.386,12.98 24.728,13.26 24.126,13.918 L23.636,13.19 C24.364,12.434 25.232,12.07 26.338,12.07 C27.78,12.07 28.956,12.714 28.956,14.352 L28.956,19 Z M26.058,18.412 C26.786,18.412 27.5,18.132 27.906,17.572 L27.906,16.284 C27.5,15.738 26.786,15.458 26.058,15.458 C25.064,15.458 24.378,16.074 24.378,16.928 C24.378,17.796 25.064,18.412 26.058,18.412 Z M36.684,19 L35.634,19 L35.634,18.048 C35.116,18.636 34.234,19.168 33.226,19.168 C31.812,19.168 31.07,18.468 31.07,17.012 L31.07,12.238 L32.12,12.238 L32.12,16.69 C32.12,17.88 32.722,18.23 33.646,18.23 C34.458,18.23 35.242,17.754 35.634,17.208 L35.634,12.238 L36.684,12.238 L36.684,19 Z M39.834,19 L38.784,19 L38.784,9.662 L39.834,9.662 L39.834,19 Z M43.656,19.168 C42.648,19.168 42.144,18.594 42.144,17.586 L42.144,13.162 L41.024,13.162 L41.024,12.238 L42.144,12.238 L42.144,10.39 L43.208,10.39 L43.208,12.238 L44.58,12.238 L44.58,13.162 L43.208,13.162 L43.208,17.362 C43.208,17.866 43.432,18.23 43.88,18.23 C44.188,18.23 44.454,18.09 44.594,17.936 L44.902,18.734 C44.636,18.986 44.258,19.168 43.656,19.168 Z"/>
          <path fill="#384254" d="M85.326,19 L83.688,19 L83.688,11.776 L82.162,13.372 L81.21,12.378 L83.898,9.662 L85.326,9.662 L85.326,19 Z M89.092,18.468 C89.092,19.434 88.56,20.316 87.79,20.862 L87.118,20.316 C87.566,20.05 88.042,19.476 88.126,19 C88.098,19.014 87.986,19.042 87.888,19.042 C87.426,19.042 87.062,18.664 87.062,18.146 C87.062,17.628 87.482,17.194 88.014,17.194 C88.588,17.194 89.092,17.656 89.092,18.468 Z M93.922,19.168 C92.004,19.168 90.338,18.272 90.338,16.592 C90.338,15.416 91.304,14.562 92.438,14.184 C91.388,13.848 90.492,13.148 90.492,11.972 C90.492,10.236 92.27,9.522 93.922,9.522 C95.574,9.522 97.352,10.236 97.352,11.972 C97.352,13.148 96.456,13.848 95.406,14.184 C96.54,14.562 97.506,15.416 97.506,16.592 C97.506,18.272 95.826,19.168 93.922,19.168 Z M93.922,13.526 C94.496,13.428 95.686,13.092 95.686,12.224 C95.686,11.426 94.93,10.978 93.922,10.978 C92.914,10.978 92.158,11.426 92.158,12.224 C92.158,13.092 93.362,13.428 93.922,13.526 Z M93.922,17.712 C94.958,17.712 95.84,17.208 95.84,16.382 C95.84,15.416 94.496,14.996 93.922,14.912 C93.334,14.996 92.004,15.416 92.004,16.382 C92.004,17.208 92.858,17.712 93.922,17.712 Z M101.594,19 L99.788,19 L103.316,11.104 L98.472,11.104 L98.472,9.662 L105.206,9.662 L105.206,10.796 L101.594,19 Z M109.98,19.168 C107.236,19.168 106.13,16.942 106.13,14.338 C106.13,11.65 107.544,9.522 110.246,9.522 C111.394,9.522 112.29,9.928 112.92,10.558 L112.164,11.79 C111.674,11.286 111.128,10.978 110.246,10.978 C108.678,10.978 107.782,12.42 107.782,14.058 L107.782,14.324 C108.216,13.694 109.196,13.008 110.288,13.008 C111.968,13.008 113.424,14.044 113.424,16.032 C113.424,17.754 112.066,19.168 109.98,19.168 Z M109.882,17.712 C111.114,17.712 111.758,16.83 111.758,16.088 C111.758,14.94 110.862,14.422 109.854,14.422 C109.056,14.422 108.272,14.842 107.81,15.514 C107.894,16.522 108.454,17.712 109.882,17.712 Z"/>
          <g transform="translate(149)">
            <path fill="#384254" d="M3.724,13.154 C2.562,13.154 1.666,12.734 1.036,12.118 L1.806,10.872 C2.296,11.39 2.828,11.698 3.724,11.698 C5.418,11.698 6.188,10.144 6.188,8.618 C6.188,8.534 6.188,8.436 6.174,8.352 C5.754,8.982 4.774,9.654 3.668,9.654 C1.988,9.654 0.546,8.632 0.546,6.644 C0.546,4.908 1.904,3.508 3.99,3.508 C6.734,3.508 7.84,5.734 7.84,8.324 C7.84,11.026 6.426,13.154 3.724,13.154 Z M4.116,8.254 C4.914,8.254 5.684,7.82 6.16,7.148 C6.062,6.14 5.516,4.964 4.074,4.964 C2.842,4.964 2.198,5.832 2.198,6.588 C2.198,7.736 3.094,8.254 4.116,8.254 Z M12.74,13 L11.102,13 L11.102,5.776 L9.576,7.372 L8.624,6.378 L11.312,3.662 L12.74,3.662 L12.74,13 Z M16.45,8.156 C15.064,8.156 14.126,7.148 14.126,5.846 C14.126,4.53 15.064,3.522 16.45,3.522 C17.85,3.522 18.774,4.53 18.774,5.846 C18.774,7.148 17.85,8.156 16.45,8.156 Z M16.478,13 L15.54,13 L21.504,3.662 L22.456,3.662 L16.478,13 Z M21.476,13.168 C20.09,13.168 19.152,12.16 19.152,10.858 C19.152,9.542 20.09,8.534 21.476,8.534 C22.862,8.534 23.8,9.542 23.8,10.858 C23.8,12.16 22.862,13.168 21.476,13.168 Z M16.45,7.218 C17.178,7.218 17.696,6.658 17.696,5.846 C17.696,5.02 17.178,4.446 16.45,4.446 C15.736,4.446 15.218,5.02 15.218,5.846 C15.218,6.658 15.736,7.218 16.45,7.218 Z M21.476,12.23 C22.204,12.23 22.722,11.67 22.722,10.858 C22.722,10.032 22.204,9.458 21.476,9.458 C20.748,9.458 20.23,10.032 20.23,10.858 C20.23,11.67 20.748,12.23 21.476,12.23 Z"/>
            <g transform="translate(0 22)">
              <rect width="100" height="8" fill="#F4F4F4" rx="4"/>
              <rect width="91" height="8" fill="#01B2D0" rx="4"/>
            </g>
          </g>
          <g transform="translate(265)">
            <path fill="#384254" d="M4.438,13.168 C1.694,13.168 0.588,10.942 0.588,8.338 C0.588,5.65 2.002,3.522 4.704,3.522 C5.852,3.522 6.748,3.928 7.378,4.558 L6.622,5.79 C6.132,5.286 5.586,4.978 4.704,4.978 C3.136,4.978 2.24,6.42 2.24,8.058 L2.24,8.324 C2.674,7.694 3.654,7.008 4.746,7.008 C6.426,7.008 7.882,8.044 7.882,10.032 C7.882,11.754 6.524,13.168 4.438,13.168 Z M4.34,11.712 C5.572,11.712 6.216,10.83 6.216,10.088 C6.216,8.94 5.32,8.422 4.312,8.422 C3.514,8.422 2.73,8.842 2.268,9.514 C2.352,10.522 2.912,11.712 4.34,11.712 Z M11.914,13 L10.108,13 L13.636,5.104 L8.792,5.104 L8.792,3.662 L15.526,3.662 L15.526,4.796 L11.914,13 Z M18.578,8.156 C17.192,8.156 16.254,7.148 16.254,5.846 C16.254,4.53 17.192,3.522 18.578,3.522 C19.978,3.522 20.902,4.53 20.902,5.846 C20.902,7.148 19.978,8.156 18.578,8.156 Z M18.606,13 L17.668,13 L23.632,3.662 L24.584,3.662 L18.606,13 Z M23.604,13.168 C22.218,13.168 21.28,12.16 21.28,10.858 C21.28,9.542 22.218,8.534 23.604,8.534 C24.99,8.534 25.928,9.542 25.928,10.858 C25.928,12.16 24.99,13.168 23.604,13.168 Z M18.578,7.218 C19.306,7.218 19.824,6.658 19.824,5.846 C19.824,5.02 19.306,4.446 18.578,4.446 C17.864,4.446 17.346,5.02 17.346,5.846 C17.346,6.658 17.864,7.218 18.578,7.218 Z M23.604,12.23 C24.332,12.23 24.85,11.67 24.85,10.858 C24.85,10.032 24.332,9.458 23.604,9.458 C22.876,9.458 22.358,10.032 22.358,10.858 C22.358,11.67 22.876,12.23 23.604,12.23 Z"/>
            <g transform="translate(0 22)">
              <rect width="100" height="8" fill="#F4F4F4" rx="4"/>
              <rect width="67" height="8" fill="#01B2D0" rx="4"/>
            </g>
          </g>
        </g>
      </g>
      <g mask="url(#reporting-outline-c)">
        <g transform="translate(25 263)">
          <path fill="#384254" d="M6.226 19L4.784 19 1.018 9.662 2.348 9.662 5.498 17.726 8.648 9.662 9.978 9.662 6.226 19zM13.38 19.168C11.364 19.168 9.922 17.726 9.922 15.612 9.922 13.652 11.322 12.07 13.254 12.07 15.298 12.07 16.502 13.666 16.502 15.696L16.502 15.962 11.042 15.962C11.126 17.236 12.008 18.3 13.464 18.3 14.248 18.3 15.018 17.992 15.564 17.432L16.068 18.118C15.382 18.79 14.472 19.168 13.38 19.168zM15.466 15.178C15.452 14.184 14.78 12.938 13.24 12.938 11.798 12.938 11.084 14.156 11.028 15.178L15.466 15.178zM19.246 19L18.196 19 18.196 12.238 19.246 12.238 19.246 13.316C19.792 12.616 20.576 12.084 21.5 12.084L21.5 13.162C21.374 13.148 21.248 13.134 21.094 13.134 20.436 13.134 19.554 13.666 19.246 14.212L19.246 19zM24.972 19.168C23.852 19.168 22.928 18.818 22.242 18.104L22.774 17.348C23.222 17.866 24.076 18.314 25 18.314 26.036 18.314 26.61 17.824 26.61 17.152 26.61 15.514 22.424 16.522 22.424 14.016 22.424 12.952 23.32 12.07 24.93 12.07 26.092 12.07 26.904 12.504 27.436 13.05L26.946 13.778C26.54 13.288 25.812 12.924 24.93 12.924 24.006 12.924 23.432 13.386 23.432 13.988 23.432 15.458 27.618 14.492 27.618 17.124 27.618 18.258 26.708 19.168 24.972 19.168zM29.858 11.272C29.466 11.272 29.144 10.964 29.144 10.572 29.144 10.18 29.466 9.858 29.858 9.858 30.25 9.858 30.558 10.18 30.558 10.572 30.558 10.964 30.25 11.272 29.858 11.272zM30.376 19L29.326 19 29.326 12.238 30.376 12.238 30.376 19zM35.43 19.168C33.372 19.168 32.084 17.572 32.084 15.612 32.084 13.652 33.372 12.07 35.43 12.07 37.488 12.07 38.776 13.652 38.776 15.612 38.776 17.572 37.488 19.168 35.43 19.168zM35.43 18.23C36.872 18.23 37.67 16.998 37.67 15.612 37.67 14.24 36.872 13.008 35.43 13.008 33.988 13.008 33.19 14.24 33.19 15.612 33.19 16.998 33.988 18.23 35.43 18.23zM46.098 19L45.062 19 45.062 14.576C45.062 13.372 44.446 13.008 43.536 13.008 42.71 13.008 41.94 13.512 41.534 14.058L41.534 19 40.484 19 40.484 12.238 41.534 12.238 41.534 13.218C42.01 12.644 42.934 12.07 43.956 12.07 45.356 12.07 46.098 12.784 46.098 14.254L46.098 19zM59.874 19L58.544 19 57.718 16.914 53.07 16.914 52.244 19 50.914 19 54.68 9.662 56.122 9.662 59.874 19zM57.382 15.892L55.394 10.852 53.42 15.892 57.382 15.892zM103.462 19L96.7 19 96.7 17.698C100.326 14.954 101.754 13.75 101.754 12.392 101.754 11.412 100.9 10.978 100.046 10.978 98.954 10.978 98.128 11.412 97.526 12.084L96.574 11.02C97.4 10.012 98.716 9.522 100.032 9.522 101.838 9.522 103.406 10.53 103.406 12.392 103.406 14.128 101.824 15.668 99.332 17.558L103.462 17.558 103.462 19zM107.102 18.468C107.102 19.434 106.57 20.316 105.8 20.862L105.128 20.316C105.576 20.05 106.052 19.476 106.136 19 106.108 19.014 105.996 19.042 105.898 19.042 105.436 19.042 105.072 18.664 105.072 18.146 105.072 17.628 105.492 17.194 106.024 17.194 106.598 17.194 107.102 17.656 107.102 18.468zM114.242 19L112.604 19 112.604 16.886 108.152 16.886 108.152 15.57 111.988 9.662 114.242 9.662 114.242 15.444 115.488 15.444 115.488 16.886 114.242 16.886 114.242 19zM112.604 15.444L112.604 11.132 109.762 15.444 112.604 15.444zM120.206 19.168C117.574 19.168 116.468 16.676 116.468 14.338 116.468 11.986 117.574 9.522 120.206 9.522 122.824 9.522 123.93 11.986 123.93 14.338 123.93 16.676 122.824 19.168 120.206 19.168zM120.206 17.712C121.718 17.712 122.264 16.116 122.264 14.338 122.264 12.546 121.732 10.978 120.206 10.978 118.68 10.978 118.134 12.546 118.134 14.338 118.134 16.116 118.68 17.712 120.206 17.712zM128.844 19.168C126.212 19.168 125.106 16.676 125.106 14.338 125.106 11.986 126.212 9.522 128.844 9.522 131.462 9.522 132.568 11.986 132.568 14.338 132.568 16.676 131.462 19.168 128.844 19.168zM128.844 17.712C130.356 17.712 130.902 16.116 130.902 14.338 130.902 12.546 130.37 10.978 128.844 10.978 127.318 10.978 126.772 12.546 126.772 14.338 126.772 16.116 127.318 17.712 128.844 17.712z"/>
          <g transform="translate(164)">
            <path fill="#384254" d="M3.5,13 L1.694,13 L5.222,5.104 L0.378,5.104 L0.378,3.662 L7.112,3.662 L7.112,4.796 L3.5,13 Z M11.62,13.168 C9.702,13.168 8.036,12.272 8.036,10.592 C8.036,9.416 9.002,8.562 10.136,8.184 C9.086,7.848 8.19,7.148 8.19,5.972 C8.19,4.236 9.968,3.522 11.62,3.522 C13.272,3.522 15.05,4.236 15.05,5.972 C15.05,7.148 14.154,7.848 13.104,8.184 C14.238,8.562 15.204,9.416 15.204,10.592 C15.204,12.272 13.524,13.168 11.62,13.168 Z M11.62,7.526 C12.194,7.428 13.384,7.092 13.384,6.224 C13.384,5.426 12.628,4.978 11.62,4.978 C10.612,4.978 9.856,5.426 9.856,6.224 C9.856,7.092 11.06,7.428 11.62,7.526 Z M11.62,11.712 C12.656,11.712 13.538,11.208 13.538,10.382 C13.538,9.416 12.194,8.996 11.62,8.912 C11.032,8.996 9.702,9.416 9.702,10.382 C9.702,11.208 10.556,11.712 11.62,11.712 Z M18.508,8.156 C17.122,8.156 16.184,7.148 16.184,5.846 C16.184,4.53 17.122,3.522 18.508,3.522 C19.908,3.522 20.832,4.53 20.832,5.846 C20.832,7.148 19.908,8.156 18.508,8.156 Z M18.536,13 L17.598,13 L23.562,3.662 L24.514,3.662 L18.536,13 Z M23.534,13.168 C22.148,13.168 21.21,12.16 21.21,10.858 C21.21,9.542 22.148,8.534 23.534,8.534 C24.92,8.534 25.858,9.542 25.858,10.858 C25.858,12.16 24.92,13.168 23.534,13.168 Z M18.508,7.218 C19.236,7.218 19.754,6.658 19.754,5.846 C19.754,5.02 19.236,4.446 18.508,4.446 C17.794,4.446 17.276,5.02 17.276,5.846 C17.276,6.658 17.794,7.218 18.508,7.218 Z M23.534,12.23 C24.262,12.23 24.78,11.67 24.78,10.858 C24.78,10.032 24.262,9.458 23.534,9.458 C22.806,9.458 22.288,10.032 22.288,10.858 C22.288,11.67 22.806,12.23 23.534,12.23 Z"/>
            <g transform="translate(0 22)">
              <rect width="100" height="8" fill="#F4F4F4" rx="4"/>
              <rect width="78" height="8" fill="#01B2D0" rx="4"/>
            </g>
          </g>
          <g transform="translate(280)">
            <path fill="#384254" d="M3.5,13 L1.694,13 L5.222,5.104 L0.378,5.104 L0.378,3.662 L7.112,3.662 L7.112,4.796 L3.5,13 Z M11.774,13 L10.136,13 L10.136,5.776 L8.61,7.372 L7.658,6.378 L10.346,3.662 L11.774,3.662 L11.774,13 Z M15.484,8.156 C14.098,8.156 13.16,7.148 13.16,5.846 C13.16,4.53 14.098,3.522 15.484,3.522 C16.884,3.522 17.808,4.53 17.808,5.846 C17.808,7.148 16.884,8.156 15.484,8.156 Z M15.512,13 L14.574,13 L20.538,3.662 L21.49,3.662 L15.512,13 Z M20.51,13.168 C19.124,13.168 18.186,12.16 18.186,10.858 C18.186,9.542 19.124,8.534 20.51,8.534 C21.896,8.534 22.834,9.542 22.834,10.858 C22.834,12.16 21.896,13.168 20.51,13.168 Z M15.484,7.218 C16.212,7.218 16.73,6.658 16.73,5.846 C16.73,5.02 16.212,4.446 15.484,4.446 C14.77,4.446 14.252,5.02 14.252,5.846 C14.252,6.658 14.77,7.218 15.484,7.218 Z M20.51,12.23 C21.238,12.23 21.756,11.67 21.756,10.858 C21.756,10.032 21.238,9.458 20.51,9.458 C19.782,9.458 19.264,10.032 19.264,10.858 C19.264,11.67 19.782,12.23 20.51,12.23 Z"/>
            <g transform="translate(0 22)">
              <rect width="100" height="8" fill="#F4F4F4" rx="4"/>
              <rect width="71" height="8" fill="#01B2D0" rx="4"/>
            </g>
          </g>
        </g>
      </g>
      <g mask="url(#reporting-outline-c)">
        <g transform="translate(42 309)">
          <path fill="#384254" fill-opacity=".5" d="M2.638,19 L1.476,19 L1.476,9.662 L7.594,9.662 L7.594,10.698 L2.638,10.698 L2.638,13.708 L7.496,13.708 L7.496,14.744 L2.638,14.744 L2.638,19 Z M10.198,19 L9.148,19 L9.148,12.238 L10.198,12.238 L10.198,13.316 C10.744,12.616 11.528,12.084 12.452,12.084 L12.452,13.162 C12.326,13.148 12.2,13.134 12.046,13.134 C11.388,13.134 10.506,13.666 10.198,14.212 L10.198,19 Z M16.834,19.168 C14.818,19.168 13.376,17.726 13.376,15.612 C13.376,13.652 14.776,12.07 16.708,12.07 C18.752,12.07 19.956,13.666 19.956,15.696 L19.956,15.962 L14.496,15.962 C14.58,17.236 15.462,18.3 16.918,18.3 C17.702,18.3 18.472,17.992 19.018,17.432 L19.522,18.118 C18.836,18.79 17.926,19.168 16.834,19.168 Z M18.92,15.178 C18.906,14.184 18.234,12.938 16.694,12.938 C15.252,12.938 14.538,14.156 14.482,15.178 L18.92,15.178 Z M27.264,19 L26.228,19 L26.228,14.576 C26.228,13.372 25.612,13.008 24.702,13.008 C23.876,13.008 23.106,13.512 22.7,14.058 L22.7,19 L21.65,19 L21.65,12.238 L22.7,12.238 L22.7,13.218 C23.176,12.644 24.1,12.07 25.122,12.07 C26.522,12.07 27.264,12.784 27.264,14.254 L27.264,19 Z M32.36,19.168 C30.344,19.168 28.986,17.614 28.986,15.612 C28.986,13.61 30.344,12.07 32.36,12.07 C33.592,12.07 34.32,12.574 34.838,13.246 L34.138,13.876 C33.69,13.26 33.116,13.008 32.416,13.008 C30.988,13.008 30.078,14.114 30.078,15.612 C30.078,17.11 30.988,18.23 32.416,18.23 C33.116,18.23 33.69,17.95 34.138,17.348 L34.838,17.992 C34.32,18.664 33.592,19.168 32.36,19.168 Z M41.95,19 L40.9,19 L40.9,14.548 C40.9,13.344 40.298,13.008 39.374,13.008 C38.562,13.008 37.778,13.512 37.386,14.058 L37.386,19 L36.336,19 L36.336,9.662 L37.386,9.662 L37.386,13.218 C37.848,12.644 38.772,12.07 39.794,12.07 C41.208,12.07 41.95,12.756 41.95,14.226 L41.95,19 Z"/>
          <path fill="#384254" d="M86.462,19 L79.7,19 L79.7,17.698 C83.326,14.954 84.754,13.75 84.754,12.392 C84.754,11.412 83.9,10.978 83.046,10.978 C81.954,10.978 81.128,11.412 80.526,12.084 L79.574,11.02 C80.4,10.012 81.716,9.522 83.032,9.522 C84.838,9.522 86.406,10.53 86.406,12.392 C86.406,14.128 84.824,15.668 82.332,17.558 L86.462,17.558 L86.462,19 Z M90.102,18.468 C90.102,19.434 89.57,20.316 88.8,20.862 L88.128,20.316 C88.576,20.05 89.052,19.476 89.136,19 C89.108,19.014 88.996,19.042 88.898,19.042 C88.436,19.042 88.072,18.664 88.072,18.146 C88.072,17.628 88.492,17.194 89.024,17.194 C89.598,17.194 90.102,17.656 90.102,18.468 Z M97.242,19 L95.604,19 L95.604,16.886 L91.152,16.886 L91.152,15.57 L94.988,9.662 L97.242,9.662 L97.242,15.444 L98.488,15.444 L98.488,16.886 L97.242,16.886 L97.242,19 Z M95.604,15.444 L95.604,11.132 L92.762,15.444 L95.604,15.444 Z M103.206,19.168 C100.574,19.168 99.468,16.676 99.468,14.338 C99.468,11.986 100.574,9.522 103.206,9.522 C105.824,9.522 106.93,11.986 106.93,14.338 C106.93,16.676 105.824,19.168 103.206,19.168 Z M103.206,17.712 C104.718,17.712 105.264,16.116 105.264,14.338 C105.264,12.546 104.732,10.978 103.206,10.978 C101.68,10.978 101.134,12.546 101.134,14.338 C101.134,16.116 101.68,17.712 103.206,17.712 Z M111.844,19.168 C109.212,19.168 108.106,16.676 108.106,14.338 C108.106,11.986 109.212,9.522 111.844,9.522 C114.462,9.522 115.568,11.986 115.568,14.338 C115.568,16.676 114.462,19.168 111.844,19.168 Z M111.844,17.712 C113.356,17.712 113.902,16.116 113.902,14.338 C113.902,12.546 113.37,10.978 111.844,10.978 C110.318,10.978 109.772,12.546 109.772,14.338 C109.772,16.116 110.318,17.712 111.844,17.712 Z"/>
          <g transform="translate(147)">
            <path fill="#384254" d="M3.724,13.154 C2.562,13.154 1.666,12.734 1.036,12.118 L1.806,10.872 C2.296,11.39 2.828,11.698 3.724,11.698 C5.418,11.698 6.188,10.144 6.188,8.618 C6.188,8.534 6.188,8.436 6.174,8.352 C5.754,8.982 4.774,9.654 3.668,9.654 C1.988,9.654 0.546,8.632 0.546,6.644 C0.546,4.908 1.904,3.508 3.99,3.508 C6.734,3.508 7.84,5.734 7.84,8.324 C7.84,11.026 6.426,13.154 3.724,13.154 Z M4.116,8.254 C4.914,8.254 5.684,7.82 6.16,7.148 C6.062,6.14 5.516,4.964 4.074,4.964 C2.842,4.964 2.198,5.832 2.198,6.588 C2.198,7.736 3.094,8.254 4.116,8.254 Z M12.74,13 L11.102,13 L11.102,5.776 L9.576,7.372 L8.624,6.378 L11.312,3.662 L12.74,3.662 L12.74,13 Z M16.45,8.156 C15.064,8.156 14.126,7.148 14.126,5.846 C14.126,4.53 15.064,3.522 16.45,3.522 C17.85,3.522 18.774,4.53 18.774,5.846 C18.774,7.148 17.85,8.156 16.45,8.156 Z M16.478,13 L15.54,13 L21.504,3.662 L22.456,3.662 L16.478,13 Z M21.476,13.168 C20.09,13.168 19.152,12.16 19.152,10.858 C19.152,9.542 20.09,8.534 21.476,8.534 C22.862,8.534 23.8,9.542 23.8,10.858 C23.8,12.16 22.862,13.168 21.476,13.168 Z M16.45,7.218 C17.178,7.218 17.696,6.658 17.696,5.846 C17.696,5.02 17.178,4.446 16.45,4.446 C15.736,4.446 15.218,5.02 15.218,5.846 C15.218,6.658 15.736,7.218 16.45,7.218 Z M21.476,12.23 C22.204,12.23 22.722,11.67 22.722,10.858 C22.722,10.032 22.204,9.458 21.476,9.458 C20.748,9.458 20.23,10.032 20.23,10.858 C20.23,11.67 20.748,12.23 21.476,12.23 Z"/>
            <g transform="translate(0 22)">
              <rect width="100" height="8" fill="#F4F4F4" rx="4"/>
              <rect width="91" height="8" fill="#01B2D0" rx="4"/>
            </g>
          </g>
          <g transform="translate(263)">
            <path fill="#384254" d="M4.172,13.168 C2.254,13.168 0.588,12.272 0.588,10.592 C0.588,9.416 1.554,8.562 2.688,8.184 C1.638,7.848 0.742,7.148 0.742,5.972 C0.742,4.236 2.52,3.522 4.172,3.522 C5.824,3.522 7.602,4.236 7.602,5.972 C7.602,7.148 6.706,7.848 5.656,8.184 C6.79,8.562 7.756,9.416 7.756,10.592 C7.756,12.272 6.076,13.168 4.172,13.168 Z M4.172,7.526 C4.746,7.428 5.936,7.092 5.936,6.224 C5.936,5.426 5.18,4.978 4.172,4.978 C3.164,4.978 2.408,5.426 2.408,6.224 C2.408,7.092 3.612,7.428 4.172,7.526 Z M4.172,11.712 C5.208,11.712 6.09,11.208 6.09,10.382 C6.09,9.416 4.746,8.996 4.172,8.912 C3.584,8.996 2.254,9.416 2.254,10.382 C2.254,11.208 3.108,11.712 4.172,11.712 Z M15.806,13 L9.044,13 L9.044,11.698 C12.67,8.954 14.098,7.75 14.098,6.392 C14.098,5.412 13.244,4.978 12.39,4.978 C11.298,4.978 10.472,5.412 9.87,6.084 L8.918,5.02 C9.744,4.012 11.06,3.522 12.376,3.522 C14.182,3.522 15.75,4.53 15.75,6.392 C15.75,8.128 14.168,9.668 11.676,11.558 L15.806,11.558 L15.806,13 Z M19.39,8.156 C18.004,8.156 17.066,7.148 17.066,5.846 C17.066,4.53 18.004,3.522 19.39,3.522 C20.79,3.522 21.714,4.53 21.714,5.846 C21.714,7.148 20.79,8.156 19.39,8.156 Z M19.418,13 L18.48,13 L24.444,3.662 L25.396,3.662 L19.418,13 Z M24.416,13.168 C23.03,13.168 22.092,12.16 22.092,10.858 C22.092,9.542 23.03,8.534 24.416,8.534 C25.802,8.534 26.74,9.542 26.74,10.858 C26.74,12.16 25.802,13.168 24.416,13.168 Z M19.39,7.218 C20.118,7.218 20.636,6.658 20.636,5.846 C20.636,5.02 20.118,4.446 19.39,4.446 C18.676,4.446 18.158,5.02 18.158,5.846 C18.158,6.658 18.676,7.218 19.39,7.218 Z M24.416,12.23 C25.144,12.23 25.662,11.67 25.662,10.858 C25.662,10.032 25.144,9.458 24.416,9.458 C23.688,9.458 23.17,10.032 23.17,10.858 C23.17,11.67 23.688,12.23 24.416,12.23 Z"/>
            <g transform="translate(0 22)">
              <rect width="100" height="8" fill="#F4F4F4" rx="4"/>
              <rect width="82" height="8" fill="#01B2D0" rx="4"/>
            </g>
          </g>
        </g>
      </g>
      <g mask="url(#reporting-outline-c)">
        <g transform="translate(40 355)">
          <path fill="#384254" fill-opacity=".5" d="M5.254,19 L2.062,19 L2.062,9.662 L5.254,9.662 C8.166,9.662 10.042,11.692 10.042,14.338 C10.042,16.998 8.166,19 5.254,19 Z M5.254,17.964 C7.522,17.964 8.838,16.34 8.838,14.338 C8.838,12.322 7.564,10.698 5.254,10.698 L3.224,10.698 L3.224,17.964 L5.254,17.964 Z M14.886,19.168 C12.87,19.168 11.428,17.726 11.428,15.612 C11.428,13.652 12.828,12.07 14.76,12.07 C16.804,12.07 18.008,13.666 18.008,15.696 L18.008,15.962 L12.548,15.962 C12.632,17.236 13.514,18.3 14.97,18.3 C15.754,18.3 16.524,17.992 17.07,17.432 L17.574,18.118 C16.888,18.79 15.978,19.168 14.886,19.168 Z M16.972,15.178 C16.958,14.184 16.286,12.938 14.746,12.938 C13.304,12.938 12.59,14.156 12.534,15.178 L16.972,15.178 Z M21.046,19 L19.996,19 L19.996,13.162 L18.876,13.162 L18.876,12.238 L19.996,12.238 L19.996,11.72 C19.996,10.334 20.766,9.522 21.956,9.522 C22.502,9.522 22.964,9.648 23.384,10.04 L22.95,10.712 C22.726,10.516 22.46,10.39 22.124,10.39 C21.424,10.39 21.046,10.852 21.046,11.72 L21.046,12.238 L22.418,12.238 L22.418,13.162 L21.046,13.162 L21.046,19 Z M28.956,19 L27.906,19 L27.906,18.23 C27.36,18.846 26.576,19.168 25.666,19.168 C24.532,19.168 23.314,18.398 23.314,16.928 C23.314,15.402 24.518,14.702 25.666,14.702 C26.59,14.702 27.36,14.996 27.906,15.612 L27.906,14.394 C27.906,13.498 27.178,12.98 26.198,12.98 C25.386,12.98 24.728,13.26 24.126,13.918 L23.636,13.19 C24.364,12.434 25.232,12.07 26.338,12.07 C27.78,12.07 28.956,12.714 28.956,14.352 L28.956,19 Z M26.058,18.412 C26.786,18.412 27.5,18.132 27.906,17.572 L27.906,16.284 C27.5,15.738 26.786,15.458 26.058,15.458 C25.064,15.458 24.378,16.074 24.378,16.928 C24.378,17.796 25.064,18.412 26.058,18.412 Z M36.684,19 L35.634,19 L35.634,18.048 C35.116,18.636 34.234,19.168 33.226,19.168 C31.812,19.168 31.07,18.468 31.07,17.012 L31.07,12.238 L32.12,12.238 L32.12,16.69 C32.12,17.88 32.722,18.23 33.646,18.23 C34.458,18.23 35.242,17.754 35.634,17.208 L35.634,12.238 L36.684,12.238 L36.684,19 Z M39.834,19 L38.784,19 L38.784,9.662 L39.834,9.662 L39.834,19 Z M43.656,19.168 C42.648,19.168 42.144,18.594 42.144,17.586 L42.144,13.162 L41.024,13.162 L41.024,12.238 L42.144,12.238 L42.144,10.39 L43.208,10.39 L43.208,12.238 L44.58,12.238 L44.58,13.162 L43.208,13.162 L43.208,17.362 C43.208,17.866 43.432,18.23 43.88,18.23 C44.188,18.23 44.454,18.09 44.594,17.936 L44.902,18.734 C44.636,18.986 44.258,19.168 43.656,19.168 Z"/>
          <path fill="#384254" d="M88.462,19 L81.7,19 L81.7,17.698 C85.326,14.954 86.754,13.75 86.754,12.392 C86.754,11.412 85.9,10.978 85.046,10.978 C83.954,10.978 83.128,11.412 82.526,12.084 L81.574,11.02 C82.4,10.012 83.716,9.522 85.032,9.522 C86.838,9.522 88.406,10.53 88.406,12.392 C88.406,14.128 86.824,15.668 84.332,17.558 L88.462,17.558 L88.462,19 Z M92.102,18.468 C92.102,19.434 91.57,20.316 90.8,20.862 L90.128,20.316 C90.576,20.05 91.052,19.476 91.136,19 C91.108,19.014 90.996,19.042 90.898,19.042 C90.436,19.042 90.072,18.664 90.072,18.146 C90.072,17.628 90.492,17.194 91.024,17.194 C91.598,17.194 92.102,17.656 92.102,18.468 Z M99.242,19 L97.604,19 L97.604,16.886 L93.152,16.886 L93.152,15.57 L96.988,9.662 L99.242,9.662 L99.242,15.444 L100.488,15.444 L100.488,16.886 L99.242,16.886 L99.242,19 Z M97.604,15.444 L97.604,11.132 L94.762,15.444 L97.604,15.444 Z M105.206,19.168 C102.574,19.168 101.468,16.676 101.468,14.338 C101.468,11.986 102.574,9.522 105.206,9.522 C107.824,9.522 108.93,11.986 108.93,14.338 C108.93,16.676 107.824,19.168 105.206,19.168 Z M105.206,17.712 C106.718,17.712 107.264,16.116 107.264,14.338 C107.264,12.546 106.732,10.978 105.206,10.978 C103.68,10.978 103.134,12.546 103.134,14.338 C103.134,16.116 103.68,17.712 105.206,17.712 Z M113.844,19.168 C111.212,19.168 110.106,16.676 110.106,14.338 C110.106,11.986 111.212,9.522 113.844,9.522 C116.462,9.522 117.568,11.986 117.568,14.338 C117.568,16.676 116.462,19.168 113.844,19.168 Z M113.844,17.712 C115.356,17.712 115.902,16.116 115.902,14.338 C115.902,12.546 115.37,10.978 113.844,10.978 C112.318,10.978 111.772,12.546 111.772,14.338 C111.772,16.116 112.318,17.712 113.844,17.712 Z"/>
          <g transform="translate(149)">
            <path fill="#384254" d="M3.5,13 L1.694,13 L5.222,5.104 L0.378,5.104 L0.378,3.662 L7.112,3.662 L7.112,4.796 L3.5,13 Z M14.91,13 L8.148,13 L8.148,11.698 C11.774,8.954 13.202,7.75 13.202,6.392 C13.202,5.412 12.348,4.978 11.494,4.978 C10.402,4.978 9.576,5.412 8.974,6.084 L8.022,5.02 C8.848,4.012 10.164,3.522 11.48,3.522 C13.286,3.522 14.854,4.53 14.854,6.392 C14.854,8.128 13.272,9.668 10.78,11.558 L14.91,11.558 L14.91,13 Z M18.494,8.156 C17.108,8.156 16.17,7.148 16.17,5.846 C16.17,4.53 17.108,3.522 18.494,3.522 C19.894,3.522 20.818,4.53 20.818,5.846 C20.818,7.148 19.894,8.156 18.494,8.156 Z M18.522,13 L17.584,13 L23.548,3.662 L24.5,3.662 L18.522,13 Z M23.52,13.168 C22.134,13.168 21.196,12.16 21.196,10.858 C21.196,9.542 22.134,8.534 23.52,8.534 C24.906,8.534 25.844,9.542 25.844,10.858 C25.844,12.16 24.906,13.168 23.52,13.168 Z M18.494,7.218 C19.222,7.218 19.74,6.658 19.74,5.846 C19.74,5.02 19.222,4.446 18.494,4.446 C17.78,4.446 17.262,5.02 17.262,5.846 C17.262,6.658 17.78,7.218 18.494,7.218 Z M23.52,12.23 C24.248,12.23 24.766,11.67 24.766,10.858 C24.766,10.032 24.248,9.458 23.52,9.458 C22.792,9.458 22.274,10.032 22.274,10.858 C22.274,11.67 22.792,12.23 23.52,12.23 Z"/>
            <g transform="translate(0 22)">
              <rect width="100" height="8" fill="#F4F4F4" rx="4"/>
              <rect width="72" height="8" fill="#01B2D0" rx="4"/>
            </g>
          </g>
          <g transform="translate(265)">
            <path fill="#384254" d="M4.438,13.168 C1.694,13.168 0.588,10.942 0.588,8.338 C0.588,5.65 2.002,3.522 4.704,3.522 C5.852,3.522 6.748,3.928 7.378,4.558 L6.622,5.79 C6.132,5.286 5.586,4.978 4.704,4.978 C3.136,4.978 2.24,6.42 2.24,8.058 L2.24,8.324 C2.674,7.694 3.654,7.008 4.746,7.008 C6.426,7.008 7.882,8.044 7.882,10.032 C7.882,11.754 6.524,13.168 4.438,13.168 Z M4.34,11.712 C5.572,11.712 6.216,10.83 6.216,10.088 C6.216,8.94 5.32,8.422 4.312,8.422 C3.514,8.422 2.73,8.842 2.268,9.514 C2.352,10.522 2.912,11.712 4.34,11.712 Z M11.914,13 L10.108,13 L13.636,5.104 L8.792,5.104 L8.792,3.662 L15.526,3.662 L15.526,4.796 L11.914,13 Z M18.578,8.156 C17.192,8.156 16.254,7.148 16.254,5.846 C16.254,4.53 17.192,3.522 18.578,3.522 C19.978,3.522 20.902,4.53 20.902,5.846 C20.902,7.148 19.978,8.156 18.578,8.156 Z M18.606,13 L17.668,13 L23.632,3.662 L24.584,3.662 L18.606,13 Z M23.604,13.168 C22.218,13.168 21.28,12.16 21.28,10.858 C21.28,9.542 22.218,8.534 23.604,8.534 C24.99,8.534 25.928,9.542 25.928,10.858 C25.928,12.16 24.99,13.168 23.604,13.168 Z M18.578,7.218 C19.306,7.218 19.824,6.658 19.824,5.846 C19.824,5.02 19.306,4.446 18.578,4.446 C17.864,4.446 17.346,5.02 17.346,5.846 C17.346,6.658 17.864,7.218 18.578,7.218 Z M23.604,12.23 C24.332,12.23 24.85,11.67 24.85,10.858 C24.85,10.032 24.332,9.458 23.604,9.458 C22.876,9.458 22.358,10.032 22.358,10.858 C22.358,11.67 22.876,12.23 23.604,12.23 Z"/>
            <g transform="translate(0 22)">
              <rect width="100" height="8" fill="#F4F4F4" rx="4"/>
              <rect width="67" height="8" fill="#01B2D0" rx="4"/>
            </g>
          </g>
        </g>
      </g>
      <g mask="url(#reporting-outline-c)">
        <g transform="translate(24 125)">
          <path fill="#384254" d="M5.516 19.168C2.828 19.168.714 17.208.714 14.338.714 11.468 2.828 9.508 5.516 9.508 7.168 9.508 8.316 10.292 9.058 11.356L8.092 11.902C7.56 11.104 6.58 10.544 5.516 10.544 3.472 10.544 1.918 12.098 1.918 14.338 1.918 16.55 3.472 18.132 5.516 18.132 6.58 18.132 7.56 17.558 8.092 16.774L9.072 17.306C8.288 18.384 7.168 19.168 5.516 19.168zM13.468 19.168C11.41 19.168 10.122 17.572 10.122 15.612 10.122 13.652 11.41 12.07 13.468 12.07 15.526 12.07 16.814 13.652 16.814 15.612 16.814 17.572 15.526 19.168 13.468 19.168zM13.468 18.23C14.91 18.23 15.708 16.998 15.708 15.612 15.708 14.24 14.91 13.008 13.468 13.008 12.026 13.008 11.228 14.24 11.228 15.612 11.228 16.998 12.026 18.23 13.468 18.23zM24.136 19L23.1 19 23.1 14.576C23.1 13.372 22.484 13.008 21.574 13.008 20.748 13.008 19.978 13.512 19.572 14.058L19.572 19 18.522 19 18.522 12.238 19.572 12.238 19.572 13.218C20.048 12.644 20.972 12.07 21.994 12.07 23.394 12.07 24.136 12.784 24.136 14.254L24.136 19zM27.972 19.168C26.964 19.168 26.46 18.594 26.46 17.586L26.46 13.162 25.34 13.162 25.34 12.238 26.46 12.238 26.46 10.39 27.524 10.39 27.524 12.238 28.896 12.238 28.896 13.162 27.524 13.162 27.524 17.362C27.524 17.866 27.748 18.23 28.196 18.23 28.504 18.23 28.77 18.09 28.91 17.936L29.218 18.734C28.952 18.986 28.574 19.168 27.972 19.168zM31.416 19L30.366 19 30.366 12.238 31.416 12.238 31.416 13.316C31.962 12.616 32.746 12.084 33.67 12.084L33.67 13.162C33.544 13.148 33.418 13.134 33.264 13.134 32.606 13.134 31.724 13.666 31.416 14.212L31.416 19zM37.94 19.168C35.882 19.168 34.594 17.572 34.594 15.612 34.594 13.652 35.882 12.07 37.94 12.07 39.998 12.07 41.286 13.652 41.286 15.612 41.286 17.572 39.998 19.168 37.94 19.168zM37.94 18.23C39.382 18.23 40.18 16.998 40.18 15.612 40.18 14.24 39.382 13.008 37.94 13.008 36.498 13.008 35.7 14.24 35.7 15.612 35.7 16.998 36.498 18.23 37.94 18.23zM44.044 19L42.994 19 42.994 9.662 44.044 9.662 44.044 19zM104.462 19L97.7 19 97.7 17.698C101.326 14.954 102.754 13.75 102.754 12.392 102.754 11.412 101.9 10.978 101.046 10.978 99.954 10.978 99.128 11.412 98.526 12.084L97.574 11.02C98.4 10.012 99.716 9.522 101.032 9.522 102.838 9.522 104.406 10.53 104.406 12.392 104.406 14.128 102.824 15.668 100.332 17.558L104.462 17.558 104.462 19zM108.102 18.468C108.102 19.434 107.57 20.316 106.8 20.862L106.128 20.316C106.576 20.05 107.052 19.476 107.136 19 107.108 19.014 106.996 19.042 106.898 19.042 106.436 19.042 106.072 18.664 106.072 18.146 106.072 17.628 106.492 17.194 107.024 17.194 107.598 17.194 108.102 17.656 108.102 18.468zM115.242 19L113.604 19 113.604 16.886 109.152 16.886 109.152 15.57 112.988 9.662 115.242 9.662 115.242 15.444 116.488 15.444 116.488 16.886 115.242 16.886 115.242 19zM113.604 15.444L113.604 11.132 110.762 15.444 113.604 15.444zM121.206 19.168C118.574 19.168 117.468 16.676 117.468 14.338 117.468 11.986 118.574 9.522 121.206 9.522 123.824 9.522 124.93 11.986 124.93 14.338 124.93 16.676 123.824 19.168 121.206 19.168zM121.206 17.712C122.718 17.712 123.264 16.116 123.264 14.338 123.264 12.546 122.732 10.978 121.206 10.978 119.68 10.978 119.134 12.546 119.134 14.338 119.134 16.116 119.68 17.712 121.206 17.712zM129.844 19.168C127.212 19.168 126.106 16.676 126.106 14.338 126.106 11.986 127.212 9.522 129.844 9.522 132.462 9.522 133.568 11.986 133.568 14.338 133.568 16.676 132.462 19.168 129.844 19.168zM129.844 17.712C131.356 17.712 131.902 16.116 131.902 14.338 131.902 12.546 131.37 10.978 129.844 10.978 128.318 10.978 127.772 12.546 127.772 14.338 127.772 16.116 128.318 17.712 129.844 17.712z"/>
          <g transform="translate(165)">
            <path fill="#384254" d="M4.172,13.168 C2.254,13.168 0.588,12.272 0.588,10.592 C0.588,9.416 1.554,8.562 2.688,8.184 C1.638,7.848 0.742,7.148 0.742,5.972 C0.742,4.236 2.52,3.522 4.172,3.522 C5.824,3.522 7.602,4.236 7.602,5.972 C7.602,7.148 6.706,7.848 5.656,8.184 C6.79,8.562 7.756,9.416 7.756,10.592 C7.756,12.272 6.076,13.168 4.172,13.168 Z M4.172,7.526 C4.746,7.428 5.936,7.092 5.936,6.224 C5.936,5.426 5.18,4.978 4.172,4.978 C3.164,4.978 2.408,5.426 2.408,6.224 C2.408,7.092 3.612,7.428 4.172,7.526 Z M4.172,11.712 C5.208,11.712 6.09,11.208 6.09,10.382 C6.09,9.416 4.746,8.996 4.172,8.912 C3.584,8.996 2.254,9.416 2.254,10.382 C2.254,11.208 3.108,11.712 4.172,11.712 Z M12.068,13.154 C10.906,13.154 10.01,12.734 9.38,12.118 L10.15,10.872 C10.64,11.39 11.172,11.698 12.068,11.698 C13.762,11.698 14.532,10.144 14.532,8.618 C14.532,8.534 14.532,8.436 14.518,8.352 C14.098,8.982 13.118,9.654 12.012,9.654 C10.332,9.654 8.89,8.632 8.89,6.644 C8.89,4.908 10.248,3.508 12.334,3.508 C15.078,3.508 16.184,5.734 16.184,8.324 C16.184,11.026 14.77,13.154 12.068,13.154 Z M12.46,8.254 C13.258,8.254 14.028,7.82 14.504,7.148 C14.406,6.14 13.86,4.964 12.418,4.964 C11.186,4.964 10.542,5.832 10.542,6.588 C10.542,7.736 11.438,8.254 12.46,8.254 Z M19.474,8.156 C18.088,8.156 17.15,7.148 17.15,5.846 C17.15,4.53 18.088,3.522 19.474,3.522 C20.874,3.522 21.798,4.53 21.798,5.846 C21.798,7.148 20.874,8.156 19.474,8.156 Z M19.502,13 L18.564,13 L24.528,3.662 L25.48,3.662 L19.502,13 Z M24.5,13.168 C23.114,13.168 22.176,12.16 22.176,10.858 C22.176,9.542 23.114,8.534 24.5,8.534 C25.886,8.534 26.824,9.542 26.824,10.858 C26.824,12.16 25.886,13.168 24.5,13.168 Z M19.474,7.218 C20.202,7.218 20.72,6.658 20.72,5.846 C20.72,5.02 20.202,4.446 19.474,4.446 C18.76,4.446 18.242,5.02 18.242,5.846 C18.242,6.658 18.76,7.218 19.474,7.218 Z M24.5,12.23 C25.228,12.23 25.746,11.67 25.746,10.858 C25.746,10.032 25.228,9.458 24.5,9.458 C23.772,9.458 23.254,10.032 23.254,10.858 C23.254,11.67 23.772,12.23 24.5,12.23 Z"/>
            <g transform="translate(0 22)">
              <rect width="100" height="8" fill="#F4F4F4" rx="4"/>
              <rect width="89" height="8" fill="#01B2D0" rx="4"/>
            </g>
          </g>
          <g transform="translate(281 3)">
            <path fill="#384254" d="M4.172,10.168 C2.254,10.168 0.588,9.272 0.588,7.592 C0.588,6.416 1.554,5.562 2.688,5.184 C1.638,4.848 0.742,4.148 0.742,2.972 C0.742,1.236 2.52,0.522 4.172,0.522 C5.824,0.522 7.602,1.236 7.602,2.972 C7.602,4.148 6.706,4.848 5.656,5.184 C6.79,5.562 7.756,6.416 7.756,7.592 C7.756,9.272 6.076,10.168 4.172,10.168 Z M4.172,4.526 C4.746,4.428 5.936,4.092 5.936,3.224 C5.936,2.426 5.18,1.978 4.172,1.978 C3.164,1.978 2.408,2.426 2.408,3.224 C2.408,4.092 3.612,4.428 4.172,4.526 Z M4.172,8.712 C5.208,8.712 6.09,8.208 6.09,7.382 C6.09,6.416 4.746,5.996 4.172,5.912 C3.584,5.996 2.254,6.416 2.254,7.382 C2.254,8.208 3.108,8.712 4.172,8.712 Z M12.068,10.154 C10.906,10.154 10.01,9.734 9.38,9.118 L10.15,7.872 C10.64,8.39 11.172,8.698 12.068,8.698 C13.762,8.698 14.532,7.144 14.532,5.618 C14.532,5.534 14.532,5.436 14.518,5.352 C14.098,5.982 13.118,6.654 12.012,6.654 C10.332,6.654 8.89,5.632 8.89,3.644 C8.89,1.908 10.248,0.508 12.334,0.508 C15.078,0.508 16.184,2.734 16.184,5.324 C16.184,8.026 14.77,10.154 12.068,10.154 Z M12.46,5.254 C13.258,5.254 14.028,4.82 14.504,4.148 C14.406,3.14 13.86,1.964 12.418,1.964 C11.186,1.964 10.542,2.832 10.542,3.588 C10.542,4.736 11.438,5.254 12.46,5.254 Z M19.474,5.156 C18.088,5.156 17.15,4.148 17.15,2.846 C17.15,1.53 18.088,0.522 19.474,0.522 C20.874,0.522 21.798,1.53 21.798,2.846 C21.798,4.148 20.874,5.156 19.474,5.156 Z M19.502,10 L18.564,10 L24.528,0.662 L25.48,0.662 L19.502,10 Z M24.5,10.168 C23.114,10.168 22.176,9.16 22.176,7.858 C22.176,6.542 23.114,5.534 24.5,5.534 C25.886,5.534 26.824,6.542 26.824,7.858 C26.824,9.16 25.886,10.168 24.5,10.168 Z M19.474,4.218 C20.202,4.218 20.72,3.658 20.72,2.846 C20.72,2.02 20.202,1.446 19.474,1.446 C18.76,1.446 18.242,2.02 18.242,2.846 C18.242,3.658 18.76,4.218 19.474,4.218 Z M24.5,9.23 C25.228,9.23 25.746,8.67 25.746,7.858 C25.746,7.032 25.228,6.458 24.5,6.458 C23.772,6.458 23.254,7.032 23.254,7.858 C23.254,8.67 23.772,9.23 24.5,9.23 Z"/>
            <g transform="translate(0 19)">
              <rect width="100" height="8" fill="#F4F4F4" rx="4"/>
              <rect width="89" height="8" fill="#01B2D0" rx="4"/>
            </g>
          </g>
        </g>
      </g>
      <path fill="#384254" d="M31.788 101L30.432 101 26.256 95.276 26.256 101 24.852 101 24.852 92.996 26.292 92.996 30.384 98.54 30.384 92.996 31.788 92.996 31.788 101zM40.704 101L39.108 101 38.52 99.452 34.848 99.452 34.26 101 32.664 101 35.808 92.996 37.56 92.996 40.704 101zM38.124 98.216L36.684 94.4 35.244 98.216 38.124 98.216zM49.884 101L48.48 101 48.48 94.82 46.032 101 45.432 101 42.972 94.82 42.972 101 41.568 101 41.568 92.996 43.548 92.996 45.732 98.492 47.904 92.996 49.884 92.996 49.884 101zM57.072 101L51.588 101 51.588 92.996 57.072 92.996 57.072 94.232 52.992 94.232 52.992 96.296 56.988 96.296 56.988 97.532 52.992 97.532 52.992 99.764 57.072 99.764 57.072 101zM125.6 101.144C124.124 101.144 123.056 100.616 122.336 99.872L123.128 98.78C123.668 99.368 124.544 99.896 125.66 99.896 126.812 99.896 127.256 99.332 127.256 98.792 127.256 97.112 122.6 98.156 122.6 95.216 122.6 93.884 123.752 92.864 125.516 92.864 126.752 92.864 127.772 93.272 128.504 93.992L127.712 95.036C127.076 94.4 126.224 94.112 125.384 94.112 124.568 94.112 124.04 94.52 124.04 95.108 124.04 96.608 128.696 95.684 128.696 98.66 128.696 99.992 127.748 101.144 125.6 101.144zM135.464 101L129.98 101 129.98 92.996 135.464 92.996 135.464 94.232 131.384 94.232 131.384 96.296 135.38 96.296 135.38 97.532 131.384 97.532 131.384 99.764 135.464 99.764 135.464 101zM143.84 101L142.484 101 138.308 95.276 138.308 101 136.904 101 136.904 92.996 138.344 92.996 142.436 98.54 142.436 92.996 143.84 92.996 143.84 101zM148.856 101L147.452 101 147.452 94.232 145.028 94.232 145.028 92.996 151.28 92.996 151.28 94.232 148.856 94.232 148.856 101zM192.84 101L189.852 101 189.852 92.996 192.828 92.996C195.336 92.996 197.016 94.652 197.016 96.992 197.016 99.356 195.336 101 192.84 101zM192.828 99.764C194.568 99.764 195.576 98.516 195.576 96.992 195.576 95.456 194.616 94.232 192.84 94.232L191.256 94.232 191.256 99.764 192.828 99.764zM203.856 101L198.372 101 198.372 92.996 203.856 92.996 203.856 94.232 199.776 94.232 199.776 96.296 203.772 96.296 203.772 97.532 199.776 97.532 199.776 99.764 203.856 99.764 203.856 101zM210.132 101L205.2 101 205.2 92.996 206.604 92.996 206.604 99.764 210.132 99.764 210.132 101zM212.772 101L211.368 101 211.368 92.996 212.772 92.996 212.772 101zM218.544 101L216.792 101 213.648 92.996 215.244 92.996 217.668 99.464 220.092 92.996 221.688 92.996 218.544 101zM228.036 101L222.552 101 222.552 92.996 228.036 92.996 228.036 94.232 223.956 94.232 223.956 96.296 227.952 96.296 227.952 97.532 223.956 97.532 223.956 99.764 228.036 99.764 228.036 101zM235.68 101L234.048 101 232.284 98.012 230.88 98.012 230.88 101 229.476 101 229.476 92.996 232.992 92.996C234.576 92.996 235.62 94.016 235.62 95.504 235.62 96.92 234.684 97.7 233.712 97.856L235.68 101zM232.812 96.776C233.604 96.776 234.18 96.272 234.18 95.492 234.18 94.724 233.604 94.232 232.812 94.232L230.88 94.232 230.88 96.776 232.812 96.776zM242.508 101L237.024 101 237.024 92.996 242.508 92.996 242.508 94.232 238.428 94.232 238.428 96.296 242.424 96.296 242.424 97.532 238.428 97.532 238.428 99.764 242.508 99.764 242.508 101zM246.936 101L243.948 101 243.948 92.996 246.924 92.996C249.432 92.996 251.112 94.652 251.112 96.992 251.112 99.356 249.432 101 246.936 101zM246.924 99.764C248.664 99.764 249.672 98.516 249.672 96.992 249.672 95.456 248.712 94.232 246.936 94.232L245.352 94.232 245.352 99.764 246.924 99.764zM309.596 101.144C307.196 101.144 305.504 99.392 305.504 97.004 305.504 94.616 307.196 92.864 309.596 92.864 311.984 92.864 313.688 94.616 313.688 97.004 313.688 99.392 311.984 101.144 309.596 101.144zM309.596 99.896C311.204 99.896 312.248 98.648 312.248 97.004 312.248 95.348 311.204 94.112 309.596 94.112 307.976 94.112 306.944 95.348 306.944 97.004 306.944 98.648 307.976 99.896 309.596 99.896zM316.436 101L315.032 101 315.032 92.996 318.56 92.996C320.24 92.996 321.164 94.136 321.164 95.504 321.164 96.86 320.228 98 318.56 98L316.436 98 316.436 101zM318.368 96.764C319.16 96.764 319.724 96.26 319.724 95.504 319.724 94.736 319.16 94.232 318.368 94.232L316.436 94.232 316.436 96.764 318.368 96.764zM327.824 101L322.34 101 322.34 92.996 327.824 92.996 327.824 94.232 323.744 94.232 323.744 96.296 327.74 96.296 327.74 97.532 323.744 97.532 323.744 99.764 327.824 99.764 327.824 101zM336.2 101L334.844 101 330.668 95.276 330.668 101 329.264 101 329.264 92.996 330.704 92.996 334.796 98.54 334.796 92.996 336.2 92.996 336.2 101zM343.388 101L337.904 101 337.904 92.996 343.388 92.996 343.388 94.232 339.308 94.232 339.308 96.296 343.304 96.296 343.304 97.532 339.308 97.532 339.308 99.764 343.388 99.764 343.388 101zM347.816 101L344.828 101 344.828 92.996 347.804 92.996C350.312 92.996 351.992 94.652 351.992 96.992 351.992 99.356 350.312 101 347.816 101zM347.804 99.764C349.544 99.764 350.552 98.516 350.552 96.992 350.552 95.456 349.592 94.232 347.816 94.232L346.232 94.232 346.232 99.764 347.804 99.764z" mask="url(#reporting-outline-c)" opacity=".5"/>
    </g>
    <g transform="translate(4 379)">
      <use fill="#000" filter="url(#reporting-outline-d)" xlink:href="#reporting-outline-e"/>
      <use fill="#FFF" stroke="#8D8D8D" stroke-opacity=".24" xlink:href="#reporting-outline-e"/>
      <path fill="#384254" d="M81.624,46.264 C77.29,46.264 73.924,43.184 73.924,38.674 C73.924,34.142 77.29,31.084 81.624,31.084 C84.572,31.084 86.42,32.602 87.498,34.362 L85.32,35.506 C84.616,34.274 83.186,33.372 81.624,33.372 C78.72,33.372 76.564,35.572 76.564,38.674 C76.564,41.732 78.72,43.976 81.624,43.976 C83.186,43.976 84.616,43.052 85.32,41.842 L87.52,42.942 C86.398,44.702 84.572,46.264 81.624,46.264 Z M98.982,46 L96.672,46 L96.672,44.592 C95.924,45.428 94.604,46.264 92.932,46.264 C90.644,46.264 89.5,45.054 89.5,42.898 L89.5,35.374 L91.81,35.374 L91.81,42.04 C91.81,43.69 92.646,44.218 93.966,44.218 C95.132,44.218 96.144,43.536 96.672,42.832 L96.672,35.374 L98.982,35.374 L98.982,46 Z M105.626,46.264 C103.8,46.264 102.172,45.67 101.072,44.592 L102.128,42.942 C102.876,43.712 104.35,44.416 105.714,44.416 C107.1,44.416 107.826,43.844 107.826,43.008 C107.826,40.918 101.402,42.414 101.402,38.322 C101.402,36.584 102.898,35.11 105.582,35.11 C107.386,35.11 108.75,35.748 109.696,36.584 L108.728,38.212 C108.09,37.508 106.924,36.936 105.582,36.936 C104.372,36.936 103.624,37.508 103.624,38.256 C103.624,40.126 110.048,38.718 110.048,42.942 C110.048,44.834 108.486,46.264 105.626,46.264 Z M115.57,46.264 C113.766,46.264 112.842,45.296 112.842,43.514 L112.842,37.376 L111.082,37.376 L111.082,35.374 L112.842,35.374 L112.842,32.47 L115.152,32.47 L115.152,35.374 L117.308,35.374 L117.308,37.376 L115.152,37.376 L115.152,42.942 C115.152,43.668 115.504,44.218 116.164,44.218 C116.604,44.218 117,44.02 117.176,43.822 L117.726,45.582 C117.308,45.956 116.626,46.264 115.57,46.264 Z M124.194,46.264 C120.806,46.264 118.738,43.712 118.738,40.676 C118.738,37.618 120.806,35.11 124.194,35.11 C127.582,35.11 129.65,37.618 129.65,40.676 C129.65,43.712 127.582,46.264 124.194,46.264 Z M124.194,44.218 C126.174,44.218 127.252,42.568 127.252,40.676 C127.252,38.806 126.174,37.156 124.194,37.156 C122.236,37.156 121.136,38.806 121.136,40.676 C121.136,42.568 122.236,44.218 124.194,44.218 Z M147.36,46 L145.05,46 L145.05,39.07 C145.05,37.926 144.544,37.156 143.29,37.156 C142.256,37.156 141.288,37.86 140.826,38.564 L140.826,46 L138.516,46 L138.516,39.07 C138.516,37.926 138.032,37.156 136.778,37.156 C135.744,37.156 134.798,37.882 134.314,38.564 L134.314,46 L132.004,46 L132.004,35.374 L134.314,35.374 L134.314,36.804 C134.776,36.166 136.162,35.11 137.79,35.11 C139.374,35.11 140.342,35.902 140.694,37.046 C141.288,36.1 142.696,35.11 144.302,35.11 C146.238,35.11 147.36,36.166 147.36,38.322 L147.36,46 Z M155.28,46.264 C152.068,46.264 149.714,44.042 149.714,40.676 C149.714,37.596 151.958,35.11 155.104,35.11 C158.294,35.11 160.318,37.53 160.318,40.874 L160.318,41.446 L152.134,41.446 C152.31,43.03 153.498,44.372 155.5,44.372 C156.556,44.372 157.766,43.954 158.536,43.184 L159.592,44.702 C158.514,45.714 156.952,46.264 155.28,46.264 Z M158.096,39.796 C158.03,38.542 157.172,37.002 155.082,37.002 C153.124,37.002 152.2,38.52 152.112,39.796 L158.096,39.796 Z M164.916,46 L162.606,46 L162.606,35.374 L164.916,35.374 L164.916,36.914 C165.73,35.902 167.006,35.11 168.37,35.11 L168.37,37.398 C168.172,37.354 167.952,37.332 167.666,37.332 C166.676,37.332 165.378,37.992 164.916,38.762 L164.916,46 Z M180.734,46.264 C177.346,46.264 175.278,43.712 175.278,40.676 C175.278,37.618 177.346,35.11 180.734,35.11 C184.122,35.11 186.19,37.618 186.19,40.676 C186.19,43.712 184.122,46.264 180.734,46.264 Z M180.734,44.218 C182.714,44.218 183.792,42.568 183.792,40.676 C183.792,38.806 182.714,37.156 180.734,37.156 C178.776,37.156 177.676,38.806 177.676,40.676 C177.676,42.568 178.776,44.218 180.734,44.218 Z M198.048,46 L195.738,46 L195.738,39.356 C195.738,37.684 194.88,37.156 193.582,37.156 C192.416,37.156 191.404,37.86 190.854,38.564 L190.854,46 L188.544,46 L188.544,35.374 L190.854,35.374 L190.854,36.804 C191.558,35.968 192.944,35.11 194.616,35.11 C196.904,35.11 198.048,36.342 198.048,38.52 L198.048,46 Z M203.35,42.81 C203.878,43.602 205,44.218 206.1,44.218 C207.926,44.218 209.092,42.744 209.092,40.676 C209.092,38.63 207.926,37.156 206.1,37.156 C205,37.156 203.878,37.794 203.35,38.586 L203.35,42.81 Z M203.35,46 L201.04,46 L201.04,31.326 L203.35,31.326 L203.35,36.848 C204.208,35.704 205.44,35.11 206.76,35.11 C209.51,35.11 211.49,37.244 211.49,40.676 C211.49,44.196 209.488,46.264 206.76,46.264 C205.396,46.264 204.164,45.604 203.35,44.548 L203.35,46 Z M218.64,46.264 C215.252,46.264 213.184,43.712 213.184,40.676 C213.184,37.618 215.252,35.11 218.64,35.11 C222.028,35.11 224.096,37.618 224.096,40.676 C224.096,43.712 222.028,46.264 218.64,46.264 Z M218.64,44.218 C220.62,44.218 221.698,42.568 221.698,40.676 C221.698,38.806 220.62,37.156 218.64,37.156 C216.682,37.156 215.582,38.806 215.582,40.676 C215.582,42.568 216.682,44.218 218.64,44.218 Z M235.272,46 L232.962,46 L232.962,44.834 C232.17,45.758 230.916,46.264 229.508,46.264 C227.792,46.264 225.834,45.076 225.834,42.744 C225.834,40.28 227.77,39.268 229.508,39.268 C230.96,39.268 232.17,39.73 232.962,40.632 L232.962,39.048 C232.962,37.816 231.928,37.068 230.476,37.068 C229.288,37.068 228.232,37.508 227.33,38.432 L226.362,36.826 C227.594,35.638 229.134,35.11 230.828,35.11 C233.204,35.11 235.272,36.1 235.272,38.938 L235.272,46 Z M230.432,44.68 C231.422,44.68 232.412,44.306 232.962,43.58 L232.962,41.952 C232.412,41.226 231.422,40.852 230.432,40.852 C229.134,40.852 228.144,41.622 228.144,42.766 C228.144,43.932 229.134,44.68 230.432,44.68 Z M240.574,46 L238.264,46 L238.264,35.374 L240.574,35.374 L240.574,36.914 C241.388,35.902 242.664,35.11 244.028,35.11 L244.028,37.398 C243.83,37.354 243.61,37.332 243.324,37.332 C242.334,37.332 241.036,37.992 240.574,38.762 L240.574,46 Z M255.688,46 L253.378,46 L253.378,44.548 C252.564,45.604 251.354,46.264 249.968,46.264 C247.262,46.264 245.26,44.196 245.26,40.676 C245.26,37.244 247.24,35.11 249.968,35.11 C251.31,35.11 252.542,35.704 253.378,36.848 L253.378,31.326 L255.688,31.326 L255.688,46 Z M250.65,44.218 C251.728,44.218 252.872,43.58 253.378,42.788 L253.378,38.586 C252.872,37.794 251.728,37.156 250.65,37.156 C248.802,37.156 247.636,38.63 247.636,40.676 C247.636,42.744 248.802,44.218 250.65,44.218 Z M259.846,34.076 C259.054,34.076 258.416,33.438 258.416,32.646 C258.416,31.854 259.054,31.216 259.846,31.216 C260.638,31.216 261.276,31.854 261.276,32.646 C261.276,33.438 260.638,34.076 259.846,34.076 Z M260.99,46 L258.68,46 L258.68,35.374 L260.99,35.374 L260.99,46 Z M273.486,46 L271.176,46 L271.176,39.356 C271.176,37.684 270.318,37.156 269.02,37.156 C267.854,37.156 266.842,37.86 266.292,38.564 L266.292,46 L263.982,46 L263.982,35.374 L266.292,35.374 L266.292,36.804 C266.996,35.968 268.382,35.11 270.054,35.11 C272.342,35.11 273.486,36.342 273.486,38.52 L273.486,46 Z M280.812,50.312 C279.008,50.312 277.666,49.916 276.346,48.728 L277.424,47.056 C278.304,48.046 279.404,48.42 280.812,48.42 C282.33,48.42 283.958,47.716 283.958,45.45 L283.958,44.24 C283.144,45.318 281.934,46.022 280.548,46.022 C277.842,46.022 275.84,44.064 275.84,40.566 C275.84,37.112 277.798,35.11 280.548,35.11 C281.89,35.11 283.1,35.704 283.958,36.848 L283.958,35.374 L286.268,35.374 L286.268,45.45 C286.268,49.278 283.408,50.312 280.812,50.312 Z M281.23,43.954 C282.308,43.954 283.43,43.316 283.958,42.546 L283.958,38.564 C283.43,37.794 282.308,37.156 281.23,37.156 C279.382,37.156 278.216,38.52 278.216,40.566 C278.216,42.612 279.382,43.954 281.23,43.954 Z"/>
      <path fill="#01B2D0" d="M26,53 C27.1045695,53 28,53.8954305 28,55 L28,61 C28,62.1045695 27.1045695,63 26,63 C24.8954305,63 24,62.1045695 24,61 L24,55 C24,53.8954305 24.8954305,53 26,53 Z M33,48 C34.1045695,48 35,48.8954305 35,50 L35,61 C35,62.1045695 34.1045695,63 33,63 C31.8954305,63 31,62.1045695 31,61 L31,50 C31,48.8954305 31.8954305,48 33,48 Z M40,43 C41.1045695,43 42,43.8954305 42,45 L42,61 C42,62.1045695 41.1045695,63 40,63 C38.8954305,63 38,62.1045695 38,61 L38,45 C38,43.8954305 38.8954305,43 40,43 Z M47,38 C48.1045695,38 49,38.8954305 49,40 L49,61 C49,62.1045695 48.1045695,63 47,63 C45.8954305,63 45,62.1045695 45,61 L45,40 C45,38.8954305 45.8954305,38 47,38 Z"/>
      <path fill="#384254" d="M77.116,71.168 C75.506,71.168 74.302,70.552 73.532,69.684 L74.232,68.788 C74.834,69.488 75.842,70.132 77.158,70.132 C78.824,70.132 79.356,69.236 79.356,68.508 C79.356,66.1 73.826,67.444 73.826,64.112 C73.826,62.572 75.198,61.508 77.046,61.508 C78.46,61.508 79.566,61.998 80.35,62.824 L79.65,63.678 C78.95,62.894 77.97,62.558 76.948,62.558 C75.842,62.558 75.03,63.16 75.03,64.042 C75.03,66.142 80.56,64.938 80.56,68.424 C80.56,69.768 79.636,71.168 77.116,71.168 Z M87.882,71 L86.832,71 L86.832,66.548 C86.832,65.344 86.23,65.008 85.306,65.008 C84.494,65.008 83.71,65.512 83.318,66.058 L83.318,71 L82.268,71 L82.268,61.662 L83.318,61.662 L83.318,65.218 C83.78,64.644 84.704,64.07 85.726,64.07 C87.14,64.07 87.882,64.756 87.882,66.226 L87.882,71 Z M92.936,71.168 C90.878,71.168 89.59,69.572 89.59,67.612 C89.59,65.652 90.878,64.07 92.936,64.07 C94.994,64.07 96.282,65.652 96.282,67.612 C96.282,69.572 94.994,71.168 92.936,71.168 Z M92.936,70.23 C94.378,70.23 95.176,68.998 95.176,67.612 C95.176,66.24 94.378,65.008 92.936,65.008 C91.494,65.008 90.696,66.24 90.696,67.612 C90.696,68.998 91.494,70.23 92.936,70.23 Z M104.906,71 L103.842,71 L102.078,65.568 L100.314,71 L99.264,71 L97.108,64.238 L98.2,64.238 L99.852,69.628 L101.63,64.238 L102.54,64.238 L104.304,69.628 L105.956,64.238 L107.062,64.238 L104.906,71 Z M108.798,63.272 C108.406,63.272 108.084,62.964 108.084,62.572 C108.084,62.18 108.406,61.858 108.798,61.858 C109.19,61.858 109.498,62.18 109.498,62.572 C109.498,62.964 109.19,63.272 108.798,63.272 Z M109.316,71 L108.266,71 L108.266,64.238 L109.316,64.238 L109.316,71 Z M117.03,71 L115.994,71 L115.994,66.576 C115.994,65.372 115.378,65.008 114.468,65.008 C113.642,65.008 112.872,65.512 112.466,66.058 L112.466,71 L111.416,71 L111.416,64.238 L112.466,64.238 L112.466,65.218 C112.942,64.644 113.866,64.07 114.888,64.07 C116.288,64.07 117.03,64.784 117.03,66.254 L117.03,71 Z M121.86,73.744 C120.726,73.744 119.942,73.52 119.13,72.722 L119.662,71.966 C120.222,72.624 120.894,72.876 121.86,72.876 C122.98,72.876 124.044,72.33 124.044,70.902 L124.044,69.88 C123.54,70.566 122.714,71.084 121.762,71.084 C119.998,71.084 118.752,69.768 118.752,67.584 C118.752,65.414 119.984,64.07 121.762,64.07 C122.672,64.07 123.498,64.518 124.044,65.26 L124.044,64.238 L125.094,64.238 L125.094,70.902 C125.094,73.044 123.512,73.744 121.86,73.744 Z M122.028,70.146 C122.854,70.146 123.666,69.642 124.044,69.054 L124.044,66.086 C123.666,65.512 122.854,65.008 122.028,65.008 C120.656,65.008 119.844,66.086 119.844,67.584 C119.844,69.068 120.656,70.146 122.028,70.146 Z M131.87,71 L130.82,71 L130.82,64.238 L131.87,64.238 L131.87,65.316 C132.416,64.616 133.2,64.084 134.124,64.084 L134.124,65.162 C133.998,65.148 133.872,65.134 133.718,65.134 C133.06,65.134 132.178,65.666 131.87,66.212 L131.87,71 Z M138.506,71.168 C136.49,71.168 135.048,69.726 135.048,67.612 C135.048,65.652 136.448,64.07 138.38,64.07 C140.424,64.07 141.628,65.666 141.628,67.696 L141.628,67.962 L136.168,67.962 C136.252,69.236 137.134,70.3 138.59,70.3 C139.374,70.3 140.144,69.992 140.69,69.432 L141.194,70.118 C140.508,70.79 139.598,71.168 138.506,71.168 Z M140.592,67.178 C140.578,66.184 139.906,64.938 138.366,64.938 C136.924,64.938 136.21,66.156 136.154,67.178 L140.592,67.178 Z M146.654,71.168 C145.73,71.168 144.932,70.72 144.372,69.978 L144.372,73.576 L143.322,73.576 L143.322,64.238 L144.372,64.238 L144.372,65.246 C144.862,64.56 145.702,64.07 146.654,64.07 C148.432,64.07 149.664,65.414 149.664,67.612 C149.664,69.796 148.432,71.168 146.654,71.168 Z M146.388,70.23 C147.746,70.23 148.558,69.11 148.558,67.612 C148.558,66.114 147.746,65.008 146.388,65.008 C145.562,65.008 144.736,65.498 144.372,66.086 L144.372,69.138 C144.736,69.726 145.562,70.23 146.388,70.23 Z M154.284,71.168 C152.226,71.168 150.938,69.572 150.938,67.612 C150.938,65.652 152.226,64.07 154.284,64.07 C156.342,64.07 157.63,65.652 157.63,67.612 C157.63,69.572 156.342,71.168 154.284,71.168 Z M154.284,70.23 C155.726,70.23 156.524,68.998 156.524,67.612 C156.524,66.24 155.726,65.008 154.284,65.008 C152.842,65.008 152.044,66.24 152.044,67.612 C152.044,68.998 152.842,70.23 154.284,70.23 Z M160.388,71 L159.338,71 L159.338,64.238 L160.388,64.238 L160.388,65.316 C160.934,64.616 161.718,64.084 162.642,64.084 L162.642,65.162 C162.516,65.148 162.39,65.134 162.236,65.134 C161.578,65.134 160.696,65.666 160.388,66.212 L160.388,71 Z M165.68,71.168 C164.672,71.168 164.168,70.594 164.168,69.586 L164.168,65.162 L163.048,65.162 L163.048,64.238 L164.168,64.238 L164.168,62.39 L165.232,62.39 L165.232,64.238 L166.604,64.238 L166.604,65.162 L165.232,65.162 L165.232,69.362 C165.232,69.866 165.456,70.23 165.904,70.23 C166.212,70.23 166.478,70.09 166.618,69.936 L166.926,70.734 C166.66,70.986 166.282,71.168 165.68,71.168 Z M173.044,71 L171.994,71 L171.994,65.162 L170.874,65.162 L170.874,64.238 L171.994,64.238 L171.994,63.72 C171.994,62.334 172.764,61.522 173.954,61.522 C174.5,61.522 174.962,61.648 175.382,62.04 L174.948,62.712 C174.724,62.516 174.458,62.39 174.122,62.39 C173.422,62.39 173.044,62.852 173.044,63.72 L173.044,64.238 L174.416,64.238 L174.416,65.162 L173.044,65.162 L173.044,71 Z M178.63,71.168 C176.572,71.168 175.284,69.572 175.284,67.612 C175.284,65.652 176.572,64.07 178.63,64.07 C180.688,64.07 181.976,65.652 181.976,67.612 C181.976,69.572 180.688,71.168 178.63,71.168 Z M178.63,70.23 C180.072,70.23 180.87,68.998 180.87,67.612 C180.87,66.24 180.072,65.008 178.63,65.008 C177.188,65.008 176.39,66.24 176.39,67.612 C176.39,68.998 177.188,70.23 178.63,70.23 Z M184.734,71 L183.684,71 L183.684,64.238 L184.734,64.238 L184.734,65.316 C185.28,64.616 186.064,64.084 186.988,64.084 L186.988,65.162 C186.862,65.148 186.736,65.134 186.582,65.134 C185.924,65.134 185.042,65.666 184.734,66.212 L184.734,71 Z M198.342,71 L191.58,71 L191.58,69.698 C195.206,66.954 196.634,65.75 196.634,64.392 C196.634,63.412 195.78,62.978 194.926,62.978 C193.834,62.978 193.008,63.412 192.406,64.084 L191.454,63.02 C192.28,62.012 193.596,61.522 194.912,61.522 C196.718,61.522 198.286,62.53 198.286,64.392 C198.286,66.128 196.704,67.668 194.212,69.558 L198.342,69.558 L198.342,71 Z M206.672,71 L199.91,71 L199.91,69.698 C203.536,66.954 204.964,65.75 204.964,64.392 C204.964,63.412 204.11,62.978 203.256,62.978 C202.164,62.978 201.338,63.412 200.736,64.084 L199.784,63.02 C200.61,62.012 201.926,61.522 203.242,61.522 C205.048,61.522 206.616,62.53 206.616,64.392 C206.616,66.128 205.034,67.668 202.542,69.558 L206.672,69.558 L206.672,71 Z M214.54,71 L213.07,71 L213.07,66.772 C213.07,65.708 212.524,65.372 211.698,65.372 C210.956,65.372 210.312,65.82 209.962,66.268 L209.962,71 L208.492,71 L208.492,64.238 L209.962,64.238 L209.962,65.148 C210.41,64.616 211.292,64.07 212.356,64.07 C213.812,64.07 214.54,64.854 214.54,66.24 L214.54,71 Z M222.674,71 L221.204,71 L221.204,70.076 C220.686,70.748 219.916,71.168 219.034,71.168 C217.312,71.168 216.038,69.852 216.038,67.612 C216.038,65.428 217.298,64.07 219.034,64.07 C219.888,64.07 220.672,64.448 221.204,65.176 L221.204,61.662 L222.674,61.662 L222.674,71 Z M219.468,69.866 C220.154,69.866 220.882,69.46 221.204,68.956 L221.204,66.282 C220.882,65.778 220.154,65.372 219.468,65.372 C218.292,65.372 217.55,66.31 217.55,67.612 C217.55,68.928 218.292,69.866 219.468,69.866 Z M229.842,71.168 C228.876,71.168 228.022,70.874 227.35,70.174 L228.12,68.928 C228.484,69.348 229.002,69.712 229.716,69.712 C230.71,69.712 231.354,69.026 231.354,68.018 L231.354,61.662 L232.992,61.662 L232.992,68.032 C232.992,70.16 231.648,71.168 229.842,71.168 Z M240.552,71 L239.082,71 L239.082,70.258 C238.578,70.846 237.78,71.168 236.884,71.168 C235.792,71.168 234.546,70.412 234.546,68.928 C234.546,67.36 235.778,66.716 236.884,66.716 C237.808,66.716 238.578,67.01 239.082,67.584 L239.082,66.576 C239.082,65.792 238.424,65.316 237.5,65.316 C236.744,65.316 236.072,65.596 235.498,66.184 L234.882,65.162 C235.666,64.406 236.646,64.07 237.724,64.07 C239.236,64.07 240.552,64.7 240.552,66.506 L240.552,71 Z M237.472,70.16 C238.102,70.16 238.732,69.922 239.082,69.46 L239.082,68.424 C238.732,67.962 238.102,67.724 237.472,67.724 C236.646,67.724 236.016,68.214 236.016,68.942 C236.016,69.684 236.646,70.16 237.472,70.16 Z M248.504,71 L247.034,71 L247.034,66.772 C247.034,65.708 246.488,65.372 245.662,65.372 C244.92,65.372 244.276,65.82 243.926,66.268 L243.926,71 L242.456,71 L242.456,64.238 L243.926,64.238 L243.926,65.148 C244.374,64.616 245.256,64.07 246.32,64.07 C247.776,64.07 248.504,64.854 248.504,66.24 L248.504,71 Z M256.848,68.242 L253.488,68.242 L253.488,66.982 L256.848,66.982 L256.848,68.242 Z M264.744,71.168 C263.092,71.168 261.86,70.496 261.216,69.656 L262.112,68.578 C262.714,69.278 263.694,69.712 264.688,69.712 C265.92,69.712 266.634,69.138 266.634,68.284 C266.634,67.36 265.906,66.954 264.562,66.954 C264.17,66.954 263.638,66.968 263.498,66.982 L263.498,65.498 C263.652,65.512 264.198,65.512 264.562,65.512 C265.668,65.512 266.494,65.134 266.494,64.28 C266.494,63.426 265.64,62.978 264.604,62.978 C263.638,62.978 262.854,63.328 262.182,64.014 L261.342,62.992 C262.07,62.138 263.204,61.522 264.758,61.522 C266.774,61.522 268.118,62.474 268.118,64.028 C268.118,65.288 267.054,66.016 266.102,66.17 C266.998,66.268 268.272,66.996 268.272,68.438 C268.272,70.034 266.914,71.168 264.744,71.168 Z M271.338,71 L269.868,71 L269.868,64.238 L271.338,64.238 L271.338,65.218 C271.856,64.574 272.668,64.07 273.536,64.07 L273.536,65.526 C273.41,65.498 273.27,65.484 273.088,65.484 C272.458,65.484 271.632,65.904 271.338,66.394 L271.338,71 Z M280.956,71 L279.486,71 L279.486,70.076 C278.968,70.748 278.198,71.168 277.316,71.168 C275.594,71.168 274.32,69.852 274.32,67.612 C274.32,65.428 275.58,64.07 277.316,64.07 C278.17,64.07 278.954,64.448 279.486,65.176 L279.486,61.662 L280.956,61.662 L280.956,71 Z M277.75,69.866 C278.436,69.866 279.164,69.46 279.486,68.956 L279.486,66.282 C279.164,65.778 278.436,65.372 277.75,65.372 C276.574,65.372 275.832,66.31 275.832,67.612 C275.832,68.928 276.574,69.866 277.75,69.866 Z M288.152,71 L286.514,71 L286.514,61.662 L292.912,61.662 L292.912,63.104 L288.152,63.104 L288.152,65.512 L292.814,65.512 L292.814,66.954 L288.152,66.954 L288.152,71 Z M297.49,71.168 C295.446,71.168 293.948,69.754 293.948,67.612 C293.948,65.652 295.376,64.07 297.378,64.07 C299.408,64.07 300.696,65.61 300.696,67.738 L300.696,68.102 L295.488,68.102 C295.6,69.11 296.356,69.964 297.63,69.964 C298.302,69.964 299.072,69.698 299.562,69.208 L300.234,70.174 C299.548,70.818 298.554,71.168 297.49,71.168 Z M299.282,67.052 C299.24,66.254 298.694,65.274 297.364,65.274 C296.118,65.274 295.53,66.24 295.474,67.052 L299.282,67.052 Z M303.622,68.97 C303.958,69.474 304.672,69.866 305.372,69.866 C306.534,69.866 307.276,68.928 307.276,67.612 C307.276,66.31 306.534,65.372 305.372,65.372 C304.672,65.372 303.958,65.778 303.622,66.282 L303.622,68.97 Z M303.622,71 L302.152,71 L302.152,61.662 L303.622,61.662 L303.622,65.176 C304.168,64.448 304.952,64.07 305.792,64.07 C307.542,64.07 308.802,65.428 308.802,67.612 C308.802,69.852 307.528,71.168 305.792,71.168 C304.924,71.168 304.14,70.748 303.622,70.076 L303.622,71 Z" opacity=".5"/>
      <path fill="#384254" d="M374.44,55 L368.938,55 L368.938,45.662 L370.1,45.662 L370.1,53.964 L374.44,53.964 L374.44,55 Z M376.484,47.272 C376.092,47.272 375.77,46.964 375.77,46.572 C375.77,46.18 376.092,45.858 376.484,45.858 C376.876,45.858 377.184,46.18 377.184,46.572 C377.184,46.964 376.876,47.272 376.484,47.272 Z M377.002,55 L375.952,55 L375.952,48.238 L377.002,48.238 L377.002,55 Z M382.056,55 L380.908,55 L378.094,48.238 L379.242,48.238 L381.482,53.782 L383.736,48.238 L384.87,48.238 L382.056,55 Z M389.028,55.168 C387.012,55.168 385.57,53.726 385.57,51.612 C385.57,49.652 386.97,48.07 388.902,48.07 C390.946,48.07 392.15,49.666 392.15,51.696 L392.15,51.962 L386.69,51.962 C386.774,53.236 387.656,54.3 389.112,54.3 C389.896,54.3 390.666,53.992 391.212,53.432 L391.716,54.118 C391.03,54.79 390.12,55.168 389.028,55.168 Z M391.114,51.178 C391.1,50.184 390.428,48.938 388.888,48.938 C387.446,48.938 386.732,50.156 386.676,51.178 L391.114,51.178 Z"/>
      <rect width="1" height="16" x="403" y="43" fill="#D8D8D8"/>
      <path fill="#384254" d="M419.348,55 L415.092,55 L415.092,45.662 L419.25,45.662 C420.874,45.662 421.868,46.642 421.868,48.042 C421.868,49.218 421.084,50.002 420.23,50.184 C421.224,50.338 422.05,51.36 422.05,52.48 C422.05,53.978 421.056,55 419.348,55 Z M419.054,49.708 C420.104,49.708 420.664,49.064 420.664,48.21 C420.664,47.37 420.104,46.698 419.054,46.698 L416.254,46.698 L416.254,49.708 L419.054,49.708 Z M419.124,53.964 C420.202,53.964 420.846,53.348 420.846,52.354 C420.846,51.5 420.258,50.744 419.124,50.744 L416.254,50.744 L416.254,53.964 L419.124,53.964 Z M426.922,55.168 C424.906,55.168 423.464,53.726 423.464,51.612 C423.464,49.652 424.864,48.07 426.796,48.07 C428.84,48.07 430.044,49.666 430.044,51.696 L430.044,51.962 L424.584,51.962 C424.668,53.236 425.55,54.3 427.006,54.3 C427.79,54.3 428.56,53.992 429.106,53.432 L429.61,54.118 C428.924,54.79 428.014,55.168 426.922,55.168 Z M429.008,51.178 C428.994,50.184 428.322,48.938 426.782,48.938 C425.34,48.938 424.626,50.156 424.57,51.178 L429.008,51.178 Z M437.366,55 L436.316,55 L436.316,50.548 C436.316,49.344 435.714,49.008 434.79,49.008 C433.978,49.008 433.194,49.512 432.802,50.058 L432.802,55 L431.752,55 L431.752,45.662 L432.802,45.662 L432.802,49.218 C433.264,48.644 434.188,48.07 435.21,48.07 C436.624,48.07 437.366,48.756 437.366,50.226 L437.366,55 Z M444.744,55 L443.694,55 L443.694,54.23 C443.148,54.846 442.364,55.168 441.454,55.168 C440.32,55.168 439.102,54.398 439.102,52.928 C439.102,51.402 440.306,50.702 441.454,50.702 C442.378,50.702 443.148,50.996 443.694,51.612 L443.694,50.394 C443.694,49.498 442.966,48.98 441.986,48.98 C441.174,48.98 440.516,49.26 439.914,49.918 L439.424,49.19 C440.152,48.434 441.02,48.07 442.126,48.07 C443.568,48.07 444.744,48.714 444.744,50.352 L444.744,55 Z M441.846,54.412 C442.574,54.412 443.288,54.132 443.694,53.572 L443.694,52.284 C443.288,51.738 442.574,51.458 441.846,51.458 C440.852,51.458 440.166,52.074 440.166,52.928 C440.166,53.796 440.852,54.412 441.846,54.412 Z M449.812,55 L448.664,55 L445.85,48.238 L446.998,48.238 L449.238,53.782 L451.492,48.238 L452.626,48.238 L449.812,55 Z M454.25,47.272 C453.858,47.272 453.536,46.964 453.536,46.572 C453.536,46.18 453.858,45.858 454.25,45.858 C454.642,45.858 454.95,46.18 454.95,46.572 C454.95,46.964 454.642,47.272 454.25,47.272 Z M454.768,55 L453.718,55 L453.718,48.238 L454.768,48.238 L454.768,55 Z M459.822,55.168 C457.764,55.168 456.476,53.572 456.476,51.612 C456.476,49.652 457.764,48.07 459.822,48.07 C461.88,48.07 463.168,49.652 463.168,51.612 C463.168,53.572 461.88,55.168 459.822,55.168 Z M459.822,54.23 C461.264,54.23 462.062,52.998 462.062,51.612 C462.062,50.24 461.264,49.008 459.822,49.008 C458.38,49.008 457.582,50.24 457.582,51.612 C457.582,52.998 458.38,54.23 459.822,54.23 Z M470.49,55 L469.44,55 L469.44,54.048 C468.922,54.636 468.04,55.168 467.032,55.168 C465.618,55.168 464.876,54.468 464.876,53.012 L464.876,48.238 L465.926,48.238 L465.926,52.69 C465.926,53.88 466.528,54.23 467.452,54.23 C468.264,54.23 469.048,53.754 469.44,53.208 L469.44,48.238 L470.49,48.238 L470.49,55 Z M473.64,55 L472.59,55 L472.59,48.238 L473.64,48.238 L473.64,49.316 C474.186,48.616 474.97,48.084 475.894,48.084 L475.894,49.162 C475.768,49.148 475.642,49.134 475.488,49.134 C474.83,49.134 473.948,49.666 473.64,50.212 L473.64,55 Z M482.488,55 L481.438,55 L481.438,54.23 C480.892,54.846 480.108,55.168 479.198,55.168 C478.064,55.168 476.846,54.398 476.846,52.928 C476.846,51.402 478.05,50.702 479.198,50.702 C480.122,50.702 480.892,50.996 481.438,51.612 L481.438,50.394 C481.438,49.498 480.71,48.98 479.73,48.98 C478.918,48.98 478.26,49.26 477.658,49.918 L477.168,49.19 C477.896,48.434 478.764,48.07 479.87,48.07 C481.312,48.07 482.488,48.714 482.488,50.352 L482.488,55 Z M479.59,54.412 C480.318,54.412 481.032,54.132 481.438,53.572 L481.438,52.284 C481.032,51.738 480.318,51.458 479.59,51.458 C478.596,51.458 477.91,52.074 477.91,52.928 C477.91,53.796 478.596,54.412 479.59,54.412 Z M485.652,55 L484.602,55 L484.602,45.662 L485.652,45.662 L485.652,55 Z"/>
    </g>
    <g transform="rotate(-33 916.093 -745.828)">
      <rect width="21" height="20.833" x=".791" y="3.967" fill="#01B2D0" opacity=".1" rx="3"/>
      <rect width="19" height="18.833" x="4.64" y="1.376" stroke="#01B2D0" stroke-width="2" rx="3"/>
    </g>
    <g transform="rotate(38 -600.814 481.638)">
      <rect width="19.32" height="19.167" x=".728" y="3.65" fill="#01B2D0" opacity=".1" rx="3"/>
      <rect width="17.32" height="17.167" x="4.349" y="1.346" stroke="#01B2D0" stroke-width="2" rx="3"/>
    </g>
    <g transform="rotate(20 281.738 1658.706)">
      <ellipse cx="22.223" cy="16.766" stroke="#FFC111" stroke-width="2" rx="14.955" ry="15.031"/>
      <ellipse cx="16.842" cy="21.556" fill="#FFC111" opacity=".2" rx="15.955" ry="16.031"/>
    </g>
    <g transform="rotate(34 -115.583 72.337)">
      <ellipse cx="22.223" cy="16.325" stroke="#FFC111" stroke-width="2" rx="14.955" ry="14.609"/>
      <ellipse cx="16.842" cy="20.989" fill="#FFC111" opacity=".2" rx="15.955" ry="15.609"/>
    </g>
    <g transform="rotate(-30 600.564 -1043.347)">
      <path fill="#6FD350" d="M16.5321914,12.4496462 L22.0600555,23.5053743 C23.0480125,25.4812882 22.2471151,27.8839804 20.2712011,28.8719374 C19.7157794,29.1496483 19.1033271,29.2942286 18.4823467,29.2942286 L7.42661863,29.2942286 C5.21747963,29.2942286 3.42661863,27.5033676 3.42661863,25.2942286 C3.42661863,24.6732483 3.57119899,24.060796 3.84890986,23.5053743 L9.37677391,12.4496462 C10.3647309,10.4737322 12.7674231,9.67283479 14.7433371,10.6607918 C15.5174467,11.0478466 16.1451366,11.6755366 16.5321914,12.4496462 Z" opacity=".2"/>
      <path stroke="#6FD350" stroke-width="2" d="M20.8698151,7.83468193 C20.5795239,7.25409972 20.1087565,6.78333225 19.5281743,6.49304114 C18.0462388,5.7520734 16.2442197,6.35274644 15.5032519,7.83468193 L9.97538786,18.89041 C9.76710471,19.3069763 9.65866943,19.7663155 9.65866943,20.2320508 C9.65866943,21.8889051 11.0018152,23.2320508 12.6586694,23.2320508 L23.7143975,23.2320508 C24.1801328,23.2320508 24.639472,23.1236155 25.0560383,22.9153324 C26.5379738,22.1743646 27.1386468,20.3723455 26.3976791,18.89041 L20.8698151,7.83468193 Z"/>
    </g>
  </g>
</svg>
