<svg xmlns="http://www.w3.org/2000/svg" xmlns:xlink="http://www.w3.org/1999/xlink" width="628" height="536" viewBox="0 0 628 536">
  <defs>
    <path id="reporting-a" d="M7.6916556,-3.10752092e-16 L426.308344,3.10752092e-16 C428.982901,-1.80555915e-16 429.952759,0.278476833 430.930537,0.801398111 C431.908315,1.32431939 432.675681,2.09168511 433.198602,3.06946289 C433.721523,4.04724067 434,5.01709938 434,7.6916556 L434,401.308344 C434,403.982901 433.721523,404.952759 433.198602,405.930537 C432.675681,406.908315 431.908315,407.675681 430.930537,408.198602 C429.952759,408.721523 428.982901,409 426.308344,409 L7.6916556,409 C5.01709938,409 4.04724067,408.721523 3.06946289,408.198602 C2.09168511,407.675681 1.32431939,406.908315 0.801398111,405.930537 C0.278476833,404.952759 1.2037061e-16,403.982901 -2.07168062e-16,401.308344 L2.07168062e-16,7.6916556 C-1.2037061e-16,5.01709938 0.278476833,4.04724067 0.801398111,3.06946289 C1.32431939,2.09168511 2.09168511,1.32431939 3.06946289,0.801398111 C4.04724067,0.278476833 5.01709938,1.80555915e-16 7.6916556,-3.10752092e-16 Z"/>
    <filter id="reporting-b" width="112.2%" height="113%" x="-6.1%" y="-5.5%" filterUnits="objectBoundingBox">
      <feMorphology in="SourceAlpha" operator="dilate" radius=".5" result="shadowSpreadOuter1"/>
      <feOffset dy="4" in="shadowSpreadOuter1" result="shadowOffsetOuter1"/>
      <feGaussianBlur in="shadowOffsetOuter1" result="shadowBlurOuter1" stdDeviation="8"/>
      <feComposite in="shadowBlurOuter1" in2="SourceAlpha" operator="out" result="shadowBlurOuter1"/>
      <feColorMatrix in="shadowBlurOuter1" values="0 0 0 0 0   0 0 0 0 0   0 0 0 0 0  0 0 0 0.12 0"/>
    </filter>
    <path id="reporting-e" d="M7.6916556,-3.10752092e-16 L509.308344,3.10752092e-16 C511.982901,-1.80555915e-16 512.952759,0.278476833 513.930537,0.801398111 C514.908315,1.32431939 515.675681,2.09168511 516.198602,3.06946289 C516.721523,4.04724067 517,5.01709938 517,7.6916556 L517,93.3083444 C517,95.9829006 516.721523,96.9527593 516.198602,97.9305371 C515.675681,98.9083149 514.908315,99.6756806 513.930537,100.198602 C512.952759,100.721523 511.982901,101 509.308344,101 L7.6916556,101 C5.01709938,101 4.04724067,100.721523 3.06946289,100.198602 C2.09168511,99.6756806 1.32431939,98.9083149 0.801398111,97.9305371 C0.278476833,96.9527593 1.2037061e-16,95.9829006 -2.07168062e-16,93.3083444 L2.07168062e-16,7.6916556 C-1.2037061e-16,5.01709938 0.278476833,4.04724067 0.801398111,3.06946289 C1.32431939,2.09168511 2.09168511,1.32431939 3.06946289,0.801398111 C4.04724067,0.278476833 5.01709938,1.80555915e-16 7.6916556,-3.10752092e-16 Z"/>
    <filter id="reporting-d" width="110.3%" height="152.5%" x="-5.1%" y="-22.3%" filterUnits="objectBoundingBox">
      <feMorphology in="SourceAlpha" operator="dilate" radius=".5" result="shadowSpreadOuter1"/>
      <feOffset dy="4" in="shadowSpreadOuter1" result="shadowOffsetOuter1"/>
      <feGaussianBlur in="shadowOffsetOuter1" result="shadowBlurOuter1" stdDeviation="8"/>
      <feComposite in="shadowBlurOuter1" in2="SourceAlpha" operator="out" result="shadowBlurOuter1"/>
      <feColorMatrix in="shadowBlurOuter1" values="0 0 0 0 0   0 0 0 0 0   0 0 0 0 0  0 0 0 0.12 0"/>
    </filter>
  </defs>
  <g fill="none" fill-rule="evenodd" transform="translate(12 12)">
    <rect width="414" height="290" x="53" y="166" fill="#FFF3CF"/>
    <g transform="translate(126)">
      <mask id="reporting-c" fill="#fff">
        <use xlink:href="#reporting-a"/>
      </mask>
      <use fill="#000" filter="url(#reporting-b)" xlink:href="#reporting-a"/>
      <use fill="#FFF" stroke="#8D8D8D" stroke-opacity=".24" xlink:href="#reporting-a"/>
      <path fill="#384254" fill-rule="nonzero" d="M29.46,37.168 C26.646,37.168 24.476,35.208 24.476,32.338 C24.476,29.454 26.646,27.508 29.46,27.508 C31.504,27.508 32.694,28.614 33.352,29.79 L31.644,30.63 C31.252,29.874 30.412,29.272 29.46,29.272 C27.752,29.272 26.52,30.574 26.52,32.338 C26.52,34.102 27.752,35.404 29.46,35.404 C30.412,35.404 31.252,34.802 31.644,34.046 L33.352,34.872 C32.694,36.034 31.504,37.168 29.46,37.168 Z M37.636,37.168 C35.41,37.168 34.066,35.53 34.066,33.612 C34.066,31.694 35.41,30.07 37.636,30.07 C39.876,30.07 41.22,31.694 41.22,33.612 C41.22,35.53 39.876,37.168 37.636,37.168 Z M37.636,35.586 C38.756,35.586 39.372,34.676 39.372,33.612 C39.372,32.562 38.756,31.652 37.636,31.652 C36.53,31.652 35.914,32.562 35.914,33.612 C35.914,34.676 36.53,35.586 37.636,35.586 Z M48.906,37 L47.114,37 L47.114,32.912 C47.114,31.974 46.624,31.652 45.868,31.652 C45.168,31.652 44.636,32.044 44.328,32.436 L44.328,37 L42.55,37 L42.55,30.238 L44.328,30.238 L44.328,31.106 C44.762,30.602 45.602,30.07 46.694,30.07 C48.192,30.07 48.906,30.91 48.906,32.226 L48.906,37 Z M52.924,37.168 C51.678,37.168 51.02,36.524 51.02,35.306 L51.02,31.792 L49.9,31.792 L49.9,30.238 L51.02,30.238 L51.02,28.39 L52.798,28.39 L52.798,30.238 L54.17,30.238 L54.17,31.792 L52.798,31.792 L52.798,34.83 C52.798,35.264 53.022,35.586 53.414,35.586 C53.68,35.586 53.932,35.488 54.03,35.376 L54.408,36.734 C54.142,36.972 53.666,37.168 52.924,37.168 Z M58.566,37.168 C56.508,37.168 54.954,35.782 54.954,33.612 C54.954,31.652 56.41,30.07 58.454,30.07 C60.484,30.07 61.842,31.582 61.842,33.78 L61.842,34.2 L56.816,34.2 C56.942,35.026 57.614,35.712 58.762,35.712 C59.336,35.712 60.12,35.474 60.554,35.054 L61.352,36.23 C60.68,36.846 59.616,37.168 58.566,37.168 Z M60.134,32.968 C60.078,32.324 59.63,31.526 58.454,31.526 C57.348,31.526 56.872,32.296 56.802,32.968 L60.134,32.968 Z M69.486,37 L67.694,37 L67.694,32.912 C67.694,31.974 67.204,31.652 66.448,31.652 C65.748,31.652 65.216,32.044 64.908,32.436 L64.908,37 L63.13,37 L63.13,30.238 L64.908,30.238 L64.908,31.106 C65.342,30.602 66.182,30.07 67.274,30.07 C68.772,30.07 69.486,30.91 69.486,32.226 L69.486,37 Z M73.504,37.168 C72.258,37.168 71.6,36.524 71.6,35.306 L71.6,31.792 L70.48,31.792 L70.48,30.238 L71.6,30.238 L71.6,28.39 L73.378,28.39 L73.378,30.238 L74.75,30.238 L74.75,31.792 L73.378,31.792 L73.378,34.83 C73.378,35.264 73.602,35.586 73.994,35.586 C74.26,35.586 74.512,35.488 74.61,35.376 L74.988,36.734 C74.722,36.972 74.246,37.168 73.504,37.168 Z M84.676,37 L79.608,37 L79.608,27.662 L84.522,27.662 C86.3,27.662 87.21,28.796 87.21,30.042 C87.21,31.204 86.482,32.002 85.6,32.184 C86.608,32.338 87.392,33.304 87.392,34.466 C87.392,35.88 86.468,37 84.676,37 Z M84.088,31.372 C84.76,31.372 85.18,30.994 85.18,30.392 C85.18,29.818 84.76,29.412 84.088,29.412 L81.596,29.412 L81.596,31.372 L84.088,31.372 Z M84.172,35.25 C84.914,35.25 85.362,34.858 85.362,34.186 C85.362,33.598 84.942,33.122 84.172,33.122 L81.596,33.122 L81.596,35.25 L84.172,35.25 Z M90.626,37 L88.848,37 L88.848,30.238 L90.626,30.238 L90.626,31.148 C91.116,30.56 91.942,30.07 92.782,30.07 L92.782,31.806 C92.656,31.778 92.502,31.764 92.292,31.764 C91.704,31.764 90.92,32.1 90.626,32.534 L90.626,37 Z M97.066,37.168 C95.008,37.168 93.454,35.782 93.454,33.612 C93.454,31.652 94.91,30.07 96.954,30.07 C98.984,30.07 100.342,31.582 100.342,33.78 L100.342,34.2 L95.316,34.2 C95.442,35.026 96.114,35.712 97.262,35.712 C97.836,35.712 98.62,35.474 99.054,35.054 L99.852,36.23 C99.18,36.846 98.116,37.168 97.066,37.168 Z M98.634,32.968 C98.578,32.324 98.13,31.526 96.954,31.526 C95.848,31.526 95.372,32.296 95.302,32.968 L98.634,32.968 Z M107.482,37 L105.69,37 L105.69,36.286 C105.228,36.846 104.43,37.168 103.548,37.168 C102.47,37.168 101.21,36.44 101.21,34.928 C101.21,33.332 102.47,32.744 103.548,32.744 C104.458,32.744 105.242,33.038 105.69,33.57 L105.69,32.716 C105.69,32.03 105.102,31.582 104.206,31.582 C103.492,31.582 102.82,31.862 102.26,32.38 L101.56,31.134 C102.386,30.392 103.45,30.07 104.514,30.07 C106.068,30.07 107.482,30.686 107.482,32.632 L107.482,37 Z M104.262,35.964 C104.836,35.964 105.396,35.768 105.69,35.376 L105.69,34.536 C105.396,34.144 104.836,33.934 104.262,33.934 C103.562,33.934 102.988,34.312 102.988,34.956 C102.988,35.6 103.562,35.964 104.262,35.964 Z M115.84,37 L113.614,37 L111.822,34.396 L111.01,35.264 L111.01,37 L109.232,37 L109.232,27.662 L111.01,27.662 L111.01,33.248 L113.572,30.238 L115.756,30.238 L113.082,33.304 L115.84,37 Z M123.078,37 L121.286,37 L121.286,36.132 C120.754,36.804 120.026,37.168 119.2,37.168 C117.506,37.168 116.204,35.88 116.204,33.612 C116.204,31.414 117.478,30.07 119.2,30.07 C119.998,30.07 120.754,30.406 121.286,31.106 L121.286,27.662 L123.078,27.662 L123.078,37 Z M119.76,35.586 C120.348,35.586 120.992,35.264 121.286,34.816 L121.286,32.422 C120.992,31.974 120.348,31.652 119.76,31.652 C118.738,31.652 118.038,32.45 118.038,33.612 C118.038,34.788 118.738,35.586 119.76,35.586 Z M127.978,37.168 C125.752,37.168 124.408,35.53 124.408,33.612 C124.408,31.694 125.752,30.07 127.978,30.07 C130.218,30.07 131.562,31.694 131.562,33.612 C131.562,35.53 130.218,37.168 127.978,37.168 Z M127.978,35.586 C129.098,35.586 129.714,34.676 129.714,33.612 C129.714,32.562 129.098,31.652 127.978,31.652 C126.872,31.652 126.256,32.562 126.256,33.612 C126.256,34.676 126.872,35.586 127.978,35.586 Z M140.732,37 L138.828,37 L137.4,32.394 L135.972,37 L134.068,37 L132.01,30.238 L133.858,30.238 L135.118,34.788 L136.602,30.238 L138.184,30.238 L139.668,34.788 L140.928,30.238 L142.79,30.238 L140.732,37 Z M150.028,37 L148.236,37 L148.236,32.912 C148.236,31.974 147.746,31.652 146.99,31.652 C146.29,31.652 145.758,32.044 145.45,32.436 L145.45,37 L143.672,37 L143.672,30.238 L145.45,30.238 L145.45,31.106 C145.884,30.602 146.724,30.07 147.816,30.07 C149.314,30.07 150.028,30.91 150.028,32.226 L150.028,37 Z" mask="url(#reporting-c)"/>
      <path fill="#384254" fill-opacity=".5" fill-rule="nonzero" d="M31.868,57 L30.496,57 L28.13,53.29 L26.254,53.29 L26.254,57 L25.092,57 L25.092,47.662 L28.844,47.662 C30.552,47.662 31.784,48.754 31.784,50.476 C31.784,52.156 30.622,53.08 29.348,53.192 L31.868,57 Z M28.704,52.268 C29.81,52.268 30.58,51.526 30.58,50.476 C30.58,49.412 29.81,48.698 28.704,48.698 L26.254,48.698 L26.254,52.268 L28.704,52.268 Z M36.222,57.168 C34.206,57.168 32.764,55.726 32.764,53.612 C32.764,51.652 34.164,50.07 36.096,50.07 C38.14,50.07 39.344,51.666 39.344,53.696 L39.344,53.962 L33.884,53.962 C33.968,55.236 34.85,56.3 36.306,56.3 C37.09,56.3 37.86,55.992 38.406,55.432 L38.91,56.118 C38.224,56.79 37.314,57.168 36.222,57.168 Z M38.308,53.178 C38.294,52.184 37.622,50.938 36.082,50.938 C34.64,50.938 33.926,52.156 33.87,53.178 L38.308,53.178 Z M43.194,57.168 C42.074,57.168 41.15,56.818 40.464,56.104 L40.996,55.348 C41.444,55.866 42.298,56.314 43.222,56.314 C44.258,56.314 44.832,55.824 44.832,55.152 C44.832,53.514 40.646,54.522 40.646,52.016 C40.646,50.952 41.542,50.07 43.152,50.07 C44.314,50.07 45.126,50.504 45.658,51.05 L45.168,51.778 C44.762,51.288 44.034,50.924 43.152,50.924 C42.228,50.924 41.654,51.386 41.654,51.988 C41.654,53.458 45.84,52.492 45.84,55.124 C45.84,56.258 44.93,57.168 43.194,57.168 Z M53.162,57 L52.112,57 L52.112,56.048 C51.594,56.636 50.712,57.168 49.704,57.168 C48.29,57.168 47.548,56.468 47.548,55.012 L47.548,50.238 L48.598,50.238 L48.598,54.69 C48.598,55.88 49.2,56.23 50.124,56.23 C50.936,56.23 51.72,55.754 52.112,55.208 L52.112,50.238 L53.162,50.238 L53.162,57 Z M56.312,57 L55.262,57 L55.262,47.662 L56.312,47.662 L56.312,57 Z M60.134,57.168 C59.126,57.168 58.622,56.594 58.622,55.586 L58.622,51.162 L57.502,51.162 L57.502,50.238 L58.622,50.238 L58.622,48.39 L59.686,48.39 L59.686,50.238 L61.058,50.238 L61.058,51.162 L59.686,51.162 L59.686,55.362 C59.686,55.866 59.91,56.23 60.358,56.23 C60.666,56.23 60.932,56.09 61.072,55.936 L61.38,56.734 C61.114,56.986 60.736,57.168 60.134,57.168 Z M64.684,57.168 C63.564,57.168 62.64,56.818 61.954,56.104 L62.486,55.348 C62.934,55.866 63.788,56.314 64.712,56.314 C65.748,56.314 66.322,55.824 66.322,55.152 C66.322,53.514 62.136,54.522 62.136,52.016 C62.136,50.952 63.032,50.07 64.642,50.07 C65.804,50.07 66.616,50.504 67.148,51.05 L66.658,51.778 C66.252,51.288 65.524,50.924 64.642,50.924 C63.718,50.924 63.144,51.386 63.144,51.988 C63.144,53.458 67.33,52.492 67.33,55.124 C67.33,56.258 66.42,57.168 64.684,57.168 Z M74.008,57 L72.958,57 L72.958,51.162 L71.838,51.162 L71.838,50.238 L72.958,50.238 L72.958,49.72 C72.958,48.334 73.728,47.522 74.918,47.522 C75.464,47.522 75.926,47.648 76.346,48.04 L75.912,48.712 C75.688,48.516 75.422,48.39 75.086,48.39 C74.386,48.39 74.008,48.852 74.008,49.72 L74.008,50.238 L75.38,50.238 L75.38,51.162 L74.008,51.162 L74.008,57 Z M79.594,57.168 C77.536,57.168 76.248,55.572 76.248,53.612 C76.248,51.652 77.536,50.07 79.594,50.07 C81.652,50.07 82.94,51.652 82.94,53.612 C82.94,55.572 81.652,57.168 79.594,57.168 Z M79.594,56.23 C81.036,56.23 81.834,54.998 81.834,53.612 C81.834,52.24 81.036,51.008 79.594,51.008 C78.152,51.008 77.354,52.24 77.354,53.612 C77.354,54.998 78.152,56.23 79.594,56.23 Z M85.698,57 L84.648,57 L84.648,50.238 L85.698,50.238 L85.698,51.316 C86.244,50.616 87.028,50.084 87.952,50.084 L87.952,51.162 C87.826,51.148 87.7,51.134 87.546,51.134 C86.888,51.134 86.006,51.666 85.698,52.212 L85.698,57 Z M95.96,57.168 C93.944,57.168 92.502,55.726 92.502,53.612 C92.502,51.652 93.902,50.07 95.834,50.07 C97.878,50.07 99.082,51.666 99.082,53.696 L99.082,53.962 L93.622,53.962 C93.706,55.236 94.588,56.3 96.044,56.3 C96.828,56.3 97.598,55.992 98.144,55.432 L98.648,56.118 C97.962,56.79 97.052,57.168 95.96,57.168 Z M98.046,53.178 C98.032,52.184 97.36,50.938 95.82,50.938 C94.378,50.938 93.664,52.156 93.608,53.178 L98.046,53.178 Z M106.054,57 L105.004,57 L105.004,56.23 C104.458,56.846 103.674,57.168 102.764,57.168 C101.63,57.168 100.412,56.398 100.412,54.928 C100.412,53.402 101.616,52.702 102.764,52.702 C103.688,52.702 104.458,52.996 105.004,53.612 L105.004,52.394 C105.004,51.498 104.276,50.98 103.296,50.98 C102.484,50.98 101.826,51.26 101.224,51.918 L100.734,51.19 C101.462,50.434 102.33,50.07 103.436,50.07 C104.878,50.07 106.054,50.714 106.054,52.352 L106.054,57 Z M103.156,56.412 C103.884,56.412 104.598,56.132 105.004,55.572 L105.004,54.284 C104.598,53.738 103.884,53.458 103.156,53.458 C102.162,53.458 101.476,54.074 101.476,54.928 C101.476,55.796 102.162,56.412 103.156,56.412 Z M111.15,57.168 C109.134,57.168 107.776,55.614 107.776,53.612 C107.776,51.61 109.134,50.07 111.15,50.07 C112.382,50.07 113.11,50.574 113.628,51.246 L112.928,51.876 C112.48,51.26 111.906,51.008 111.206,51.008 C109.778,51.008 108.868,52.114 108.868,53.612 C108.868,55.11 109.778,56.23 111.206,56.23 C111.906,56.23 112.48,55.95 112.928,55.348 L113.628,55.992 C113.11,56.664 112.382,57.168 111.15,57.168 Z M120.74,57 L119.69,57 L119.69,52.548 C119.69,51.344 119.088,51.008 118.164,51.008 C117.352,51.008 116.568,51.512 116.176,52.058 L116.176,57 L115.126,57 L115.126,47.662 L116.176,47.662 L116.176,51.218 C116.638,50.644 117.562,50.07 118.584,50.07 C119.998,50.07 120.74,50.756 120.74,52.226 L120.74,57 Z M129.42,57 L128.272,57 L125.458,50.238 L126.606,50.238 L128.846,55.782 L131.1,50.238 L132.234,50.238 L129.42,57 Z M136.392,57.168 C134.376,57.168 132.934,55.726 132.934,53.612 C132.934,51.652 134.334,50.07 136.266,50.07 C138.31,50.07 139.514,51.666 139.514,53.696 L139.514,53.962 L134.054,53.962 C134.138,55.236 135.02,56.3 136.476,56.3 C137.26,56.3 138.03,55.992 138.576,55.432 L139.08,56.118 C138.394,56.79 137.484,57.168 136.392,57.168 Z M138.478,53.178 C138.464,52.184 137.792,50.938 136.252,50.938 C134.81,50.938 134.096,52.156 134.04,53.178 L138.478,53.178 Z M142.258,57 L141.208,57 L141.208,50.238 L142.258,50.238 L142.258,51.316 C142.804,50.616 143.588,50.084 144.512,50.084 L144.512,51.162 C144.386,51.148 144.26,51.134 144.106,51.134 C143.448,51.134 142.566,51.666 142.258,52.212 L142.258,57 Z M147.984,57.168 C146.864,57.168 145.94,56.818 145.254,56.104 L145.786,55.348 C146.234,55.866 147.088,56.314 148.012,56.314 C149.048,56.314 149.622,55.824 149.622,55.152 C149.622,53.514 145.436,54.522 145.436,52.016 C145.436,50.952 146.332,50.07 147.942,50.07 C149.104,50.07 149.916,50.504 150.448,51.05 L149.958,51.778 C149.552,51.288 148.824,50.924 147.942,50.924 C147.018,50.924 146.444,51.386 146.444,51.988 C146.444,53.458 150.63,52.492 150.63,55.124 C150.63,56.258 149.72,57.168 147.984,57.168 Z M152.87,49.272 C152.478,49.272 152.156,48.964 152.156,48.572 C152.156,48.18 152.478,47.858 152.87,47.858 C153.262,47.858 153.57,48.18 153.57,48.572 C153.57,48.964 153.262,49.272 152.87,49.272 Z M153.388,57 L152.338,57 L152.338,50.238 L153.388,50.238 L153.388,57 Z M158.442,57.168 C156.384,57.168 155.096,55.572 155.096,53.612 C155.096,51.652 156.384,50.07 158.442,50.07 C160.5,50.07 161.788,51.652 161.788,53.612 C161.788,55.572 160.5,57.168 158.442,57.168 Z M158.442,56.23 C159.884,56.23 160.682,54.998 160.682,53.612 C160.682,52.24 159.884,51.008 158.442,51.008 C157,51.008 156.202,52.24 156.202,53.612 C156.202,54.998 157,56.23 158.442,56.23 Z M169.11,57 L168.074,57 L168.074,52.576 C168.074,51.372 167.458,51.008 166.548,51.008 C165.722,51.008 164.952,51.512 164.546,52.058 L164.546,57 L163.496,57 L163.496,50.238 L164.546,50.238 L164.546,51.218 C165.022,50.644 165.946,50.07 166.968,50.07 C168.368,50.07 169.11,50.784 169.11,52.254 L169.11,57 Z M177.804,57.168 C175.746,57.168 174.458,55.572 174.458,53.612 C174.458,51.652 175.746,50.07 177.804,50.07 C179.862,50.07 181.15,51.652 181.15,53.612 C181.15,55.572 179.862,57.168 177.804,57.168 Z M177.804,56.23 C179.246,56.23 180.044,54.998 180.044,53.612 C180.044,52.24 179.246,51.008 177.804,51.008 C176.362,51.008 175.564,52.24 175.564,53.612 C175.564,54.998 176.362,56.23 177.804,56.23 Z M184.202,57 L183.152,57 L183.152,51.162 L182.032,51.162 L182.032,50.238 L183.152,50.238 L183.152,49.72 C183.152,48.334 183.922,47.522 185.112,47.522 C185.658,47.522 186.12,47.648 186.54,48.04 L186.106,48.712 C185.882,48.516 185.616,48.39 185.28,48.39 C184.58,48.39 184.202,48.852 184.202,49.72 L184.202,50.238 L185.574,50.238 L185.574,51.162 L184.202,51.162 L184.202,57 Z M195.738,57 L194.688,57 L194.688,56.23 C194.142,56.846 193.358,57.168 192.448,57.168 C191.314,57.168 190.096,56.398 190.096,54.928 C190.096,53.402 191.3,52.702 192.448,52.702 C193.372,52.702 194.142,52.996 194.688,53.612 L194.688,52.394 C194.688,51.498 193.96,50.98 192.98,50.98 C192.168,50.98 191.51,51.26 190.908,51.918 L190.418,51.19 C191.146,50.434 192.014,50.07 193.12,50.07 C194.562,50.07 195.738,50.714 195.738,52.352 L195.738,57 Z M192.84,56.412 C193.568,56.412 194.282,56.132 194.688,55.572 L194.688,54.284 C194.282,53.738 193.568,53.458 192.84,53.458 C191.846,53.458 191.16,54.074 191.16,54.928 C191.16,55.796 191.846,56.412 192.84,56.412 Z M203.466,57 L202.43,57 L202.43,52.576 C202.43,51.372 201.814,51.008 200.904,51.008 C200.078,51.008 199.308,51.512 198.902,52.058 L198.902,57 L197.852,57 L197.852,50.238 L198.902,50.238 L198.902,51.218 C199.378,50.644 200.302,50.07 201.324,50.07 C202.724,50.07 203.466,50.784 203.466,52.254 L203.466,57 Z M211.53,57 L210.48,57 L210.48,55.992 C209.976,56.678 209.15,57.168 208.198,57.168 C206.434,57.168 205.188,55.824 205.188,53.626 C205.188,51.456 206.434,50.07 208.198,50.07 C209.108,50.07 209.934,50.518 210.48,51.26 L210.48,47.662 L211.53,47.662 L211.53,57 Z M208.464,56.23 C209.29,56.23 210.116,55.74 210.48,55.152 L210.48,52.1 C210.116,51.512 209.29,51.008 208.464,51.008 C207.092,51.008 206.28,52.128 206.28,53.626 C206.28,55.124 207.092,56.23 208.464,56.23 Z M218.306,57 L217.256,57 L217.256,47.662 L218.306,47.662 L218.306,57 Z M225.684,57 L224.634,57 L224.634,56.23 C224.088,56.846 223.304,57.168 222.394,57.168 C221.26,57.168 220.042,56.398 220.042,54.928 C220.042,53.402 221.246,52.702 222.394,52.702 C223.318,52.702 224.088,52.996 224.634,53.612 L224.634,52.394 C224.634,51.498 223.906,50.98 222.926,50.98 C222.114,50.98 221.456,51.26 220.854,51.918 L220.364,51.19 C221.092,50.434 221.96,50.07 223.066,50.07 C224.508,50.07 225.684,50.714 225.684,52.352 L225.684,57 Z M222.786,56.412 C223.514,56.412 224.228,56.132 224.634,55.572 L224.634,54.284 C224.228,53.738 223.514,53.458 222.786,53.458 C221.792,53.458 221.106,54.074 221.106,54.928 C221.106,55.796 221.792,56.412 222.786,56.412 Z M233.412,57 L232.376,57 L232.376,52.576 C232.376,51.372 231.76,51.008 230.85,51.008 C230.024,51.008 229.254,51.512 228.848,52.058 L228.848,57 L227.798,57 L227.798,50.238 L228.848,50.238 L228.848,51.218 C229.324,50.644 230.248,50.07 231.27,50.07 C232.67,50.07 233.412,50.784 233.412,52.254 L233.412,57 Z M238.242,59.744 C237.108,59.744 236.324,59.52 235.512,58.722 L236.044,57.966 C236.604,58.624 237.276,58.876 238.242,58.876 C239.362,58.876 240.426,58.33 240.426,56.902 L240.426,55.88 C239.922,56.566 239.096,57.084 238.144,57.084 C236.38,57.084 235.134,55.768 235.134,53.584 C235.134,51.414 236.366,50.07 238.144,50.07 C239.054,50.07 239.88,50.518 240.426,51.26 L240.426,50.238 L241.476,50.238 L241.476,56.902 C241.476,59.044 239.894,59.744 238.242,59.744 Z M238.41,56.146 C239.236,56.146 240.048,55.642 240.426,55.054 L240.426,52.086 C240.048,51.512 239.236,51.008 238.41,51.008 C237.038,51.008 236.226,52.086 236.226,53.584 C236.226,55.068 237.038,56.146 238.41,56.146 Z M249.19,57 L248.14,57 L248.14,56.048 C247.622,56.636 246.74,57.168 245.732,57.168 C244.318,57.168 243.576,56.468 243.576,55.012 L243.576,50.238 L244.626,50.238 L244.626,54.69 C244.626,55.88 245.228,56.23 246.152,56.23 C246.964,56.23 247.748,55.754 248.14,55.208 L248.14,50.238 L249.19,50.238 L249.19,57 Z M256.568,57 L255.518,57 L255.518,56.23 C254.972,56.846 254.188,57.168 253.278,57.168 C252.144,57.168 250.926,56.398 250.926,54.928 C250.926,53.402 252.13,52.702 253.278,52.702 C254.202,52.702 254.972,52.996 255.518,53.612 L255.518,52.394 C255.518,51.498 254.79,50.98 253.81,50.98 C252.998,50.98 252.34,51.26 251.738,51.918 L251.248,51.19 C251.976,50.434 252.844,50.07 253.95,50.07 C255.392,50.07 256.568,50.714 256.568,52.352 L256.568,57 Z M253.67,56.412 C254.398,56.412 255.112,56.132 255.518,55.572 L255.518,54.284 C255.112,53.738 254.398,53.458 253.67,53.458 C252.676,53.458 251.99,54.074 251.99,54.928 C251.99,55.796 252.676,56.412 253.67,56.412 Z M261.398,59.744 C260.264,59.744 259.48,59.52 258.668,58.722 L259.2,57.966 C259.76,58.624 260.432,58.876 261.398,58.876 C262.518,58.876 263.582,58.33 263.582,56.902 L263.582,55.88 C263.078,56.566 262.252,57.084 261.3,57.084 C259.536,57.084 258.29,55.768 258.29,53.584 C258.29,51.414 259.522,50.07 261.3,50.07 C262.21,50.07 263.036,50.518 263.582,51.26 L263.582,50.238 L264.632,50.238 L264.632,56.902 C264.632,59.044 263.05,59.744 261.398,59.744 Z M261.566,56.146 C262.392,56.146 263.204,55.642 263.582,55.054 L263.582,52.086 C263.204,51.512 262.392,51.008 261.566,51.008 C260.194,51.008 259.382,52.086 259.382,53.584 C259.382,55.068 260.194,56.146 261.566,56.146 Z M269.798,57.168 C267.782,57.168 266.34,55.726 266.34,53.612 C266.34,51.652 267.74,50.07 269.672,50.07 C271.716,50.07 272.92,51.666 272.92,53.696 L272.92,53.962 L267.46,53.962 C267.544,55.236 268.426,56.3 269.882,56.3 C270.666,56.3 271.436,55.992 271.982,55.432 L272.486,56.118 C271.8,56.79 270.89,57.168 269.798,57.168 Z M271.884,53.178 C271.87,52.184 271.198,50.938 269.658,50.938 C268.216,50.938 267.502,52.156 267.446,53.178 L271.884,53.178 Z" mask="url(#reporting-c)"/>
      <g mask="url(#reporting-c)">
        <g transform="translate(42 171)">
          <path fill="#384254" fill-opacity=".5" fill-rule="nonzero" d="M2.638,19 L1.476,19 L1.476,9.662 L7.594,9.662 L7.594,10.698 L2.638,10.698 L2.638,13.708 L7.496,13.708 L7.496,14.744 L2.638,14.744 L2.638,19 Z M10.198,19 L9.148,19 L9.148,12.238 L10.198,12.238 L10.198,13.316 C10.744,12.616 11.528,12.084 12.452,12.084 L12.452,13.162 C12.326,13.148 12.2,13.134 12.046,13.134 C11.388,13.134 10.506,13.666 10.198,14.212 L10.198,19 Z M16.834,19.168 C14.818,19.168 13.376,17.726 13.376,15.612 C13.376,13.652 14.776,12.07 16.708,12.07 C18.752,12.07 19.956,13.666 19.956,15.696 L19.956,15.962 L14.496,15.962 C14.58,17.236 15.462,18.3 16.918,18.3 C17.702,18.3 18.472,17.992 19.018,17.432 L19.522,18.118 C18.836,18.79 17.926,19.168 16.834,19.168 Z M18.92,15.178 C18.906,14.184 18.234,12.938 16.694,12.938 C15.252,12.938 14.538,14.156 14.482,15.178 L18.92,15.178 Z M27.264,19 L26.228,19 L26.228,14.576 C26.228,13.372 25.612,13.008 24.702,13.008 C23.876,13.008 23.106,13.512 22.7,14.058 L22.7,19 L21.65,19 L21.65,12.238 L22.7,12.238 L22.7,13.218 C23.176,12.644 24.1,12.07 25.122,12.07 C26.522,12.07 27.264,12.784 27.264,14.254 L27.264,19 Z M32.36,19.168 C30.344,19.168 28.986,17.614 28.986,15.612 C28.986,13.61 30.344,12.07 32.36,12.07 C33.592,12.07 34.32,12.574 34.838,13.246 L34.138,13.876 C33.69,13.26 33.116,13.008 32.416,13.008 C30.988,13.008 30.078,14.114 30.078,15.612 C30.078,17.11 30.988,18.23 32.416,18.23 C33.116,18.23 33.69,17.95 34.138,17.348 L34.838,17.992 C34.32,18.664 33.592,19.168 32.36,19.168 Z M41.95,19 L40.9,19 L40.9,14.548 C40.9,13.344 40.298,13.008 39.374,13.008 C38.562,13.008 37.778,13.512 37.386,14.058 L37.386,19 L36.336,19 L36.336,9.662 L37.386,9.662 L37.386,13.218 C37.848,12.644 38.772,12.07 39.794,12.07 C41.208,12.07 41.95,12.756 41.95,14.226 L41.95,19 Z"/>
          <path fill="#384254" fill-rule="nonzero" d="M83.326,19 L81.688,19 L81.688,11.776 L80.162,13.372 L79.21,12.378 L81.898,9.662 L83.326,9.662 L83.326,19 Z M87.092,18.468 C87.092,19.434 86.56,20.316 85.79,20.862 L85.118,20.316 C85.566,20.05 86.042,19.476 86.126,19 C86.098,19.014 85.986,19.042 85.888,19.042 C85.426,19.042 85.062,18.664 85.062,18.146 C85.062,17.628 85.482,17.194 86.014,17.194 C86.588,17.194 87.092,17.656 87.092,18.468 Z M91.726,19.168 C89.094,19.168 87.988,16.676 87.988,14.338 C87.988,11.986 89.094,9.522 91.726,9.522 C94.344,9.522 95.45,11.986 95.45,14.338 C95.45,16.676 94.344,19.168 91.726,19.168 Z M91.726,17.712 C93.238,17.712 93.784,16.116 93.784,14.338 C93.784,12.546 93.252,10.978 91.726,10.978 C90.2,10.978 89.654,12.546 89.654,14.338 C89.654,16.116 90.2,17.712 91.726,17.712 Z M100.294,19.168 C98.698,19.168 97.592,18.608 96.836,17.726 L97.774,16.592 C98.39,17.32 99.244,17.712 100.28,17.712 C101.47,17.712 102.198,16.984 102.198,16.06 C102.198,15.066 101.47,14.408 100.322,14.408 C99.538,14.408 98.88,14.646 98.278,15.206 L97.116,14.87 L97.116,9.662 L103.234,9.662 L103.234,11.104 L98.754,11.104 L98.754,13.792 C99.216,13.358 99.972,12.994 100.868,12.994 C102.45,12.994 103.864,14.086 103.864,16.004 C103.864,17.936 102.38,19.168 100.294,19.168 Z M110.92,19 L109.282,19 L109.282,16.886 L104.83,16.886 L104.83,15.57 L108.666,9.662 L110.92,9.662 L110.92,15.444 L112.166,15.444 L112.166,16.886 L110.92,16.886 L110.92,19 Z M109.282,15.444 L109.282,11.132 L106.44,15.444 L109.282,15.444 Z"/>
          <g transform="translate(147)">
            <path fill="#384254" fill-rule="nonzero" d="M3.724,13.154 C2.562,13.154 1.666,12.734 1.036,12.118 L1.806,10.872 C2.296,11.39 2.828,11.698 3.724,11.698 C5.418,11.698 6.188,10.144 6.188,8.618 C6.188,8.534 6.188,8.436 6.174,8.352 C5.754,8.982 4.774,9.654 3.668,9.654 C1.988,9.654 0.546,8.632 0.546,6.644 C0.546,4.908 1.904,3.508 3.99,3.508 C6.734,3.508 7.84,5.734 7.84,8.324 C7.84,11.026 6.426,13.154 3.724,13.154 Z M4.116,8.254 C4.914,8.254 5.684,7.82 6.16,7.148 C6.062,6.14 5.516,4.964 4.074,4.964 C2.842,4.964 2.198,5.832 2.198,6.588 C2.198,7.736 3.094,8.254 4.116,8.254 Z M12.586,13.168 C10.668,13.168 9.002,12.272 9.002,10.592 C9.002,9.416 9.968,8.562 11.102,8.184 C10.052,7.848 9.156,7.148 9.156,5.972 C9.156,4.236 10.934,3.522 12.586,3.522 C14.238,3.522 16.016,4.236 16.016,5.972 C16.016,7.148 15.12,7.848 14.07,8.184 C15.204,8.562 16.17,9.416 16.17,10.592 C16.17,12.272 14.49,13.168 12.586,13.168 Z M12.586,7.526 C13.16,7.428 14.35,7.092 14.35,6.224 C14.35,5.426 13.594,4.978 12.586,4.978 C11.578,4.978 10.822,5.426 10.822,6.224 C10.822,7.092 12.026,7.428 12.586,7.526 Z M12.586,11.712 C13.622,11.712 14.504,11.208 14.504,10.382 C14.504,9.416 13.16,8.996 12.586,8.912 C11.998,8.996 10.668,9.416 10.668,10.382 C10.668,11.208 11.522,11.712 12.586,11.712 Z M19.474,8.156 C18.088,8.156 17.15,7.148 17.15,5.846 C17.15,4.53 18.088,3.522 19.474,3.522 C20.874,3.522 21.798,4.53 21.798,5.846 C21.798,7.148 20.874,8.156 19.474,8.156 Z M19.502,13 L18.564,13 L24.528,3.662 L25.48,3.662 L19.502,13 Z M24.5,13.168 C23.114,13.168 22.176,12.16 22.176,10.858 C22.176,9.542 23.114,8.534 24.5,8.534 C25.886,8.534 26.824,9.542 26.824,10.858 C26.824,12.16 25.886,13.168 24.5,13.168 Z M19.474,7.218 C20.202,7.218 20.72,6.658 20.72,5.846 C20.72,5.02 20.202,4.446 19.474,4.446 C18.76,4.446 18.242,5.02 18.242,5.846 C18.242,6.658 18.76,7.218 19.474,7.218 Z M24.5,12.23 C25.228,12.23 25.746,11.67 25.746,10.858 C25.746,10.032 25.228,9.458 24.5,9.458 C23.772,9.458 23.254,10.032 23.254,10.858 C23.254,11.67 23.772,12.23 24.5,12.23 Z"/>
            <g transform="translate(0 22)">
              <rect width="100" height="8" fill="#F4F4F4" rx="4"/>
              <rect width="98" height="8" fill="#01B2D0" rx="4"/>
            </g>
          </g>
          <g transform="translate(263)">
            <path fill="#384254" fill-rule="nonzero" d="M6.482,13 L4.844,13 L4.844,10.886 L0.392,10.886 L0.392,9.57 L4.228,3.662 L6.482,3.662 L6.482,9.444 L7.728,9.444 L7.728,10.886 L6.482,10.886 L6.482,13 Z M4.844,9.444 L4.844,5.132 L2.002,9.444 L4.844,9.444 Z M15.582,13 L8.82,13 L8.82,11.698 C12.446,8.954 13.874,7.75 13.874,6.392 C13.874,5.412 13.02,4.978 12.166,4.978 C11.074,4.978 10.248,5.412 9.646,6.084 L8.694,5.02 C9.52,4.012 10.836,3.522 12.152,3.522 C13.958,3.522 15.526,4.53 15.526,6.392 C15.526,8.128 13.944,9.668 11.452,11.558 L15.582,11.558 L15.582,13 Z M19.166,8.156 C17.78,8.156 16.842,7.148 16.842,5.846 C16.842,4.53 17.78,3.522 19.166,3.522 C20.566,3.522 21.49,4.53 21.49,5.846 C21.49,7.148 20.566,8.156 19.166,8.156 Z M19.194,13 L18.256,13 L24.22,3.662 L25.172,3.662 L19.194,13 Z M24.192,13.168 C22.806,13.168 21.868,12.16 21.868,10.858 C21.868,9.542 22.806,8.534 24.192,8.534 C25.578,8.534 26.516,9.542 26.516,10.858 C26.516,12.16 25.578,13.168 24.192,13.168 Z M19.166,7.218 C19.894,7.218 20.412,6.658 20.412,5.846 C20.412,5.02 19.894,4.446 19.166,4.446 C18.452,4.446 17.934,5.02 17.934,5.846 C17.934,6.658 18.452,7.218 19.166,7.218 Z M24.192,12.23 C24.92,12.23 25.438,11.67 25.438,10.858 C25.438,10.032 24.92,9.458 24.192,9.458 C23.464,9.458 22.946,10.032 22.946,10.858 C22.946,11.67 23.464,12.23 24.192,12.23 Z"/>
            <g transform="translate(0 22)">
              <rect width="100" height="8" fill="#F4F4F4" rx="4"/>
              <rect width="57" height="8" fill="#01B2D0" rx="4"/>
            </g>
          </g>
        </g>
      </g>
      <g mask="url(#reporting-c)">
        <g transform="translate(40 217)">
          <path fill="#384254" fill-opacity=".5" fill-rule="nonzero" d="M5.254,19 L2.062,19 L2.062,9.662 L5.254,9.662 C8.166,9.662 10.042,11.692 10.042,14.338 C10.042,16.998 8.166,19 5.254,19 Z M5.254,17.964 C7.522,17.964 8.838,16.34 8.838,14.338 C8.838,12.322 7.564,10.698 5.254,10.698 L3.224,10.698 L3.224,17.964 L5.254,17.964 Z M14.886,19.168 C12.87,19.168 11.428,17.726 11.428,15.612 C11.428,13.652 12.828,12.07 14.76,12.07 C16.804,12.07 18.008,13.666 18.008,15.696 L18.008,15.962 L12.548,15.962 C12.632,17.236 13.514,18.3 14.97,18.3 C15.754,18.3 16.524,17.992 17.07,17.432 L17.574,18.118 C16.888,18.79 15.978,19.168 14.886,19.168 Z M16.972,15.178 C16.958,14.184 16.286,12.938 14.746,12.938 C13.304,12.938 12.59,14.156 12.534,15.178 L16.972,15.178 Z M21.046,19 L19.996,19 L19.996,13.162 L18.876,13.162 L18.876,12.238 L19.996,12.238 L19.996,11.72 C19.996,10.334 20.766,9.522 21.956,9.522 C22.502,9.522 22.964,9.648 23.384,10.04 L22.95,10.712 C22.726,10.516 22.46,10.39 22.124,10.39 C21.424,10.39 21.046,10.852 21.046,11.72 L21.046,12.238 L22.418,12.238 L22.418,13.162 L21.046,13.162 L21.046,19 Z M28.956,19 L27.906,19 L27.906,18.23 C27.36,18.846 26.576,19.168 25.666,19.168 C24.532,19.168 23.314,18.398 23.314,16.928 C23.314,15.402 24.518,14.702 25.666,14.702 C26.59,14.702 27.36,14.996 27.906,15.612 L27.906,14.394 C27.906,13.498 27.178,12.98 26.198,12.98 C25.386,12.98 24.728,13.26 24.126,13.918 L23.636,13.19 C24.364,12.434 25.232,12.07 26.338,12.07 C27.78,12.07 28.956,12.714 28.956,14.352 L28.956,19 Z M26.058,18.412 C26.786,18.412 27.5,18.132 27.906,17.572 L27.906,16.284 C27.5,15.738 26.786,15.458 26.058,15.458 C25.064,15.458 24.378,16.074 24.378,16.928 C24.378,17.796 25.064,18.412 26.058,18.412 Z M36.684,19 L35.634,19 L35.634,18.048 C35.116,18.636 34.234,19.168 33.226,19.168 C31.812,19.168 31.07,18.468 31.07,17.012 L31.07,12.238 L32.12,12.238 L32.12,16.69 C32.12,17.88 32.722,18.23 33.646,18.23 C34.458,18.23 35.242,17.754 35.634,17.208 L35.634,12.238 L36.684,12.238 L36.684,19 Z M39.834,19 L38.784,19 L38.784,9.662 L39.834,9.662 L39.834,19 Z M43.656,19.168 C42.648,19.168 42.144,18.594 42.144,17.586 L42.144,13.162 L41.024,13.162 L41.024,12.238 L42.144,12.238 L42.144,10.39 L43.208,10.39 L43.208,12.238 L44.58,12.238 L44.58,13.162 L43.208,13.162 L43.208,17.362 C43.208,17.866 43.432,18.23 43.88,18.23 C44.188,18.23 44.454,18.09 44.594,17.936 L44.902,18.734 C44.636,18.986 44.258,19.168 43.656,19.168 Z"/>
          <path fill="#384254" fill-rule="nonzero" d="M85.326,19 L83.688,19 L83.688,11.776 L82.162,13.372 L81.21,12.378 L83.898,9.662 L85.326,9.662 L85.326,19 Z M89.092,18.468 C89.092,19.434 88.56,20.316 87.79,20.862 L87.118,20.316 C87.566,20.05 88.042,19.476 88.126,19 C88.098,19.014 87.986,19.042 87.888,19.042 C87.426,19.042 87.062,18.664 87.062,18.146 C87.062,17.628 87.482,17.194 88.014,17.194 C88.588,17.194 89.092,17.656 89.092,18.468 Z M93.614,19.168 C91.962,19.168 90.73,18.496 90.086,17.656 L90.982,16.578 C91.584,17.278 92.564,17.712 93.558,17.712 C94.79,17.712 95.504,17.138 95.504,16.284 C95.504,15.36 94.776,14.954 93.432,14.954 C93.04,14.954 92.508,14.968 92.368,14.982 L92.368,13.498 C92.522,13.512 93.068,13.512 93.432,13.512 C94.538,13.512 95.364,13.134 95.364,12.28 C95.364,11.426 94.51,10.978 93.474,10.978 C92.508,10.978 91.724,11.328 91.052,12.014 L90.212,10.992 C90.94,10.138 92.074,9.522 93.628,9.522 C95.644,9.522 96.988,10.474 96.988,12.028 C96.988,13.288 95.924,14.016 94.972,14.17 C95.868,14.268 97.142,14.996 97.142,16.438 C97.142,18.034 95.784,19.168 93.614,19.168 Z M104.268,19 L102.63,19 L102.63,16.886 L98.178,16.886 L98.178,15.57 L102.014,9.662 L104.268,9.662 L104.268,15.444 L105.514,15.444 L105.514,16.886 L104.268,16.886 L104.268,19 Z M102.63,15.444 L102.63,11.132 L99.788,15.444 L102.63,15.444 Z M110.344,19.168 C107.6,19.168 106.494,16.942 106.494,14.338 C106.494,11.65 107.908,9.522 110.61,9.522 C111.758,9.522 112.654,9.928 113.284,10.558 L112.528,11.79 C112.038,11.286 111.492,10.978 110.61,10.978 C109.042,10.978 108.146,12.42 108.146,14.058 L108.146,14.324 C108.58,13.694 109.56,13.008 110.652,13.008 C112.332,13.008 113.788,14.044 113.788,16.032 C113.788,17.754 112.43,19.168 110.344,19.168 Z M110.246,17.712 C111.478,17.712 112.122,16.83 112.122,16.088 C112.122,14.94 111.226,14.422 110.218,14.422 C109.42,14.422 108.636,14.842 108.174,15.514 C108.258,16.522 108.818,17.712 110.246,17.712 Z"/>
          <g transform="translate(149)">
            <path fill="#384254" fill-rule="nonzero" d="M3.724,13.154 C2.562,13.154 1.666,12.734 1.036,12.118 L1.806,10.872 C2.296,11.39 2.828,11.698 3.724,11.698 C5.418,11.698 6.188,10.144 6.188,8.618 C6.188,8.534 6.188,8.436 6.174,8.352 C5.754,8.982 4.774,9.654 3.668,9.654 C1.988,9.654 0.546,8.632 0.546,6.644 C0.546,4.908 1.904,3.508 3.99,3.508 C6.734,3.508 7.84,5.734 7.84,8.324 C7.84,11.026 6.426,13.154 3.724,13.154 Z M4.116,8.254 C4.914,8.254 5.684,7.82 6.16,7.148 C6.062,6.14 5.516,4.964 4.074,4.964 C2.842,4.964 2.198,5.832 2.198,6.588 C2.198,7.736 3.094,8.254 4.116,8.254 Z M11.914,13 L10.108,13 L13.636,5.104 L8.792,5.104 L8.792,3.662 L15.526,3.662 L15.526,4.796 L11.914,13 Z M18.578,8.156 C17.192,8.156 16.254,7.148 16.254,5.846 C16.254,4.53 17.192,3.522 18.578,3.522 C19.978,3.522 20.902,4.53 20.902,5.846 C20.902,7.148 19.978,8.156 18.578,8.156 Z M18.606,13 L17.668,13 L23.632,3.662 L24.584,3.662 L18.606,13 Z M23.604,13.168 C22.218,13.168 21.28,12.16 21.28,10.858 C21.28,9.542 22.218,8.534 23.604,8.534 C24.99,8.534 25.928,9.542 25.928,10.858 C25.928,12.16 24.99,13.168 23.604,13.168 Z M18.578,7.218 C19.306,7.218 19.824,6.658 19.824,5.846 C19.824,5.02 19.306,4.446 18.578,4.446 C17.864,4.446 17.346,5.02 17.346,5.846 C17.346,6.658 17.864,7.218 18.578,7.218 Z M23.604,12.23 C24.332,12.23 24.85,11.67 24.85,10.858 C24.85,10.032 24.332,9.458 23.604,9.458 C22.876,9.458 22.358,10.032 22.358,10.858 C22.358,11.67 22.876,12.23 23.604,12.23 Z"/>
            <g transform="translate(0 22)">
              <rect width="100" height="8" fill="#F4F4F4" rx="4"/>
              <rect width="98" height="8" fill="#01B2D0" rx="4"/>
            </g>
          </g>
          <g transform="translate(265)">
            <path fill="#384254" fill-rule="nonzero" d="M3.864,13.168 C2.212,13.168 0.98,12.496 0.336,11.656 L1.232,10.578 C1.834,11.278 2.814,11.712 3.808,11.712 C5.04,11.712 5.754,11.138 5.754,10.284 C5.754,9.36 5.026,8.954 3.682,8.954 C3.29,8.954 2.758,8.968 2.618,8.982 L2.618,7.498 C2.772,7.512 3.318,7.512 3.682,7.512 C4.788,7.512 5.614,7.134 5.614,6.28 C5.614,5.426 4.76,4.978 3.724,4.978 C2.758,4.978 1.974,5.328 1.302,6.014 L0.462,4.992 C1.19,4.138 2.324,3.522 3.878,3.522 C5.894,3.522 7.238,4.474 7.238,6.028 C7.238,7.288 6.174,8.016 5.222,8.17 C6.118,8.268 7.392,8.996 7.392,10.438 C7.392,12.034 6.034,13.168 3.864,13.168 Z M11.536,13 L9.73,13 L13.258,5.104 L8.414,5.104 L8.414,3.662 L15.148,3.662 L15.148,4.796 L11.536,13 Z M18.2,8.156 C16.814,8.156 15.876,7.148 15.876,5.846 C15.876,4.53 16.814,3.522 18.2,3.522 C19.6,3.522 20.524,4.53 20.524,5.846 C20.524,7.148 19.6,8.156 18.2,8.156 Z M18.228,13 L17.29,13 L23.254,3.662 L24.206,3.662 L18.228,13 Z M23.226,13.168 C21.84,13.168 20.902,12.16 20.902,10.858 C20.902,9.542 21.84,8.534 23.226,8.534 C24.612,8.534 25.55,9.542 25.55,10.858 C25.55,12.16 24.612,13.168 23.226,13.168 Z M18.2,7.218 C18.928,7.218 19.446,6.658 19.446,5.846 C19.446,5.02 18.928,4.446 18.2,4.446 C17.486,4.446 16.968,5.02 16.968,5.846 C16.968,6.658 17.486,7.218 18.2,7.218 Z M23.226,12.23 C23.954,12.23 24.472,11.67 24.472,10.858 C24.472,10.032 23.954,9.458 23.226,9.458 C22.498,9.458 21.98,10.032 21.98,10.858 C21.98,11.67 22.498,12.23 23.226,12.23 Z"/>
            <g transform="translate(0 22)">
              <rect width="100" height="8" fill="#F4F4F4" rx="4"/>
              <rect width="67" height="8" fill="#01B2D0" rx="4"/>
            </g>
          </g>
        </g>
      </g>
      <g mask="url(#reporting-c)">
        <g transform="translate(25 263)">
          <path fill="#384254" fill-rule="nonzero" d="M6.226 19L4.784 19 1.018 9.662 2.348 9.662 5.498 17.726 8.648 9.662 9.978 9.662 6.226 19zM13.38 19.168C11.364 19.168 9.922 17.726 9.922 15.612 9.922 13.652 11.322 12.07 13.254 12.07 15.298 12.07 16.502 13.666 16.502 15.696L16.502 15.962 11.042 15.962C11.126 17.236 12.008 18.3 13.464 18.3 14.248 18.3 15.018 17.992 15.564 17.432L16.068 18.118C15.382 18.79 14.472 19.168 13.38 19.168zM15.466 15.178C15.452 14.184 14.78 12.938 13.24 12.938 11.798 12.938 11.084 14.156 11.028 15.178L15.466 15.178zM19.246 19L18.196 19 18.196 12.238 19.246 12.238 19.246 13.316C19.792 12.616 20.576 12.084 21.5 12.084L21.5 13.162C21.374 13.148 21.248 13.134 21.094 13.134 20.436 13.134 19.554 13.666 19.246 14.212L19.246 19zM24.972 19.168C23.852 19.168 22.928 18.818 22.242 18.104L22.774 17.348C23.222 17.866 24.076 18.314 25 18.314 26.036 18.314 26.61 17.824 26.61 17.152 26.61 15.514 22.424 16.522 22.424 14.016 22.424 12.952 23.32 12.07 24.93 12.07 26.092 12.07 26.904 12.504 27.436 13.05L26.946 13.778C26.54 13.288 25.812 12.924 24.93 12.924 24.006 12.924 23.432 13.386 23.432 13.988 23.432 15.458 27.618 14.492 27.618 17.124 27.618 18.258 26.708 19.168 24.972 19.168zM29.858 11.272C29.466 11.272 29.144 10.964 29.144 10.572 29.144 10.18 29.466 9.858 29.858 9.858 30.25 9.858 30.558 10.18 30.558 10.572 30.558 10.964 30.25 11.272 29.858 11.272zM30.376 19L29.326 19 29.326 12.238 30.376 12.238 30.376 19zM35.43 19.168C33.372 19.168 32.084 17.572 32.084 15.612 32.084 13.652 33.372 12.07 35.43 12.07 37.488 12.07 38.776 13.652 38.776 15.612 38.776 17.572 37.488 19.168 35.43 19.168zM35.43 18.23C36.872 18.23 37.67 16.998 37.67 15.612 37.67 14.24 36.872 13.008 35.43 13.008 33.988 13.008 33.19 14.24 33.19 15.612 33.19 16.998 33.988 18.23 35.43 18.23zM46.098 19L45.062 19 45.062 14.576C45.062 13.372 44.446 13.008 43.536 13.008 42.71 13.008 41.94 13.512 41.534 14.058L41.534 19 40.484 19 40.484 12.238 41.534 12.238 41.534 13.218C42.01 12.644 42.934 12.07 43.956 12.07 45.356 12.07 46.098 12.784 46.098 14.254L46.098 19zM59.874 19L58.544 19 57.718 16.914 53.07 16.914 52.244 19 50.914 19 54.68 9.662 56.122 9.662 59.874 19zM57.382 15.892L55.394 10.852 53.42 15.892 57.382 15.892zM103.462 19L96.7 19 96.7 17.698C100.326 14.954 101.754 13.75 101.754 12.392 101.754 11.412 100.9 10.978 100.046 10.978 98.954 10.978 98.128 11.412 97.526 12.084L96.574 11.02C97.4 10.012 98.716 9.522 100.032 9.522 101.838 9.522 103.406 10.53 103.406 12.392 103.406 14.128 101.824 15.668 99.332 17.558L103.462 17.558 103.462 19zM107.102 18.468C107.102 19.434 106.57 20.316 105.8 20.862L105.128 20.316C105.576 20.05 106.052 19.476 106.136 19 106.108 19.014 105.996 19.042 105.898 19.042 105.436 19.042 105.072 18.664 105.072 18.146 105.072 17.628 105.492 17.194 106.024 17.194 106.598 17.194 107.102 17.656 107.102 18.468zM111.624 19.168C109.972 19.168 108.74 18.496 108.096 17.656L108.992 16.578C109.594 17.278 110.574 17.712 111.568 17.712 112.8 17.712 113.514 17.138 113.514 16.284 113.514 15.36 112.786 14.954 111.442 14.954 111.05 14.954 110.518 14.968 110.378 14.982L110.378 13.498C110.532 13.512 111.078 13.512 111.442 13.512 112.548 13.512 113.374 13.134 113.374 12.28 113.374 11.426 112.52 10.978 111.484 10.978 110.518 10.978 109.734 11.328 109.062 12.014L108.222 10.992C108.95 10.138 110.084 9.522 111.638 9.522 113.654 9.522 114.998 10.474 114.998 12.028 114.998 13.288 113.934 14.016 112.982 14.17 113.878 14.268 115.152 14.996 115.152 16.438 115.152 18.034 113.794 19.168 111.624 19.168zM120.122 19.168C117.49 19.168 116.384 16.676 116.384 14.338 116.384 11.986 117.49 9.522 120.122 9.522 122.74 9.522 123.846 11.986 123.846 14.338 123.846 16.676 122.74 19.168 120.122 19.168zM120.122 17.712C121.634 17.712 122.18 16.116 122.18 14.338 122.18 12.546 121.648 10.978 120.122 10.978 118.596 10.978 118.05 12.546 118.05 14.338 118.05 16.116 118.596 17.712 120.122 17.712zM128.76 19.168C126.128 19.168 125.022 16.676 125.022 14.338 125.022 11.986 126.128 9.522 128.76 9.522 131.378 9.522 132.484 11.986 132.484 14.338 132.484 16.676 131.378 19.168 128.76 19.168zM128.76 17.712C130.272 17.712 130.818 16.116 130.818 14.338 130.818 12.546 130.286 10.978 128.76 10.978 127.234 10.978 126.688 12.546 126.688 14.338 126.688 16.116 127.234 17.712 128.76 17.712z"/>
          <g transform="translate(164)">
            <path fill="#384254" fill-rule="nonzero" d="M3.724,13.154 C2.562,13.154 1.666,12.734 1.036,12.118 L1.806,10.872 C2.296,11.39 2.828,11.698 3.724,11.698 C5.418,11.698 6.188,10.144 6.188,8.618 C6.188,8.534 6.188,8.436 6.174,8.352 C5.754,8.982 4.774,9.654 3.668,9.654 C1.988,9.654 0.546,8.632 0.546,6.644 C0.546,4.908 1.904,3.508 3.99,3.508 C6.734,3.508 7.84,5.734 7.84,8.324 C7.84,11.026 6.426,13.154 3.724,13.154 Z M4.116,8.254 C4.914,8.254 5.684,7.82 6.16,7.148 C6.062,6.14 5.516,4.964 4.074,4.964 C2.842,4.964 2.198,5.832 2.198,6.588 C2.198,7.736 3.094,8.254 4.116,8.254 Z M11.914,13 L10.108,13 L13.636,5.104 L8.792,5.104 L8.792,3.662 L15.526,3.662 L15.526,4.796 L11.914,13 Z M18.578,8.156 C17.192,8.156 16.254,7.148 16.254,5.846 C16.254,4.53 17.192,3.522 18.578,3.522 C19.978,3.522 20.902,4.53 20.902,5.846 C20.902,7.148 19.978,8.156 18.578,8.156 Z M18.606,13 L17.668,13 L23.632,3.662 L24.584,3.662 L18.606,13 Z M23.604,13.168 C22.218,13.168 21.28,12.16 21.28,10.858 C21.28,9.542 22.218,8.534 23.604,8.534 C24.99,8.534 25.928,9.542 25.928,10.858 C25.928,12.16 24.99,13.168 23.604,13.168 Z M18.578,7.218 C19.306,7.218 19.824,6.658 19.824,5.846 C19.824,5.02 19.306,4.446 18.578,4.446 C17.864,4.446 17.346,5.02 17.346,5.846 C17.346,6.658 17.864,7.218 18.578,7.218 Z M23.604,12.23 C24.332,12.23 24.85,11.67 24.85,10.858 C24.85,10.032 24.332,9.458 23.604,9.458 C22.876,9.458 22.358,10.032 22.358,10.858 C22.358,11.67 22.876,12.23 23.604,12.23 Z"/>
            <g transform="translate(0 22)">
              <rect width="100" height="8" fill="#F4F4F4" rx="4"/>
              <rect width="97" height="8" fill="#01B2D0" rx="4"/>
            </g>
          </g>
          <g transform="translate(280)">
            <path fill="#384254" fill-rule="nonzero" d="M6.482,13 L4.844,13 L4.844,10.886 L0.392,10.886 L0.392,9.57 L4.228,3.662 L6.482,3.662 L6.482,9.444 L7.728,9.444 L7.728,10.886 L6.482,10.886 L6.482,13 Z M4.844,9.444 L4.844,5.132 L2.002,9.444 L4.844,9.444 Z M11.844,13.154 C10.682,13.154 9.786,12.734 9.156,12.118 L9.926,10.872 C10.416,11.39 10.948,11.698 11.844,11.698 C13.538,11.698 14.308,10.144 14.308,8.618 C14.308,8.534 14.308,8.436 14.294,8.352 C13.874,8.982 12.894,9.654 11.788,9.654 C10.108,9.654 8.666,8.632 8.666,6.644 C8.666,4.908 10.024,3.508 12.11,3.508 C14.854,3.508 15.96,5.734 15.96,8.324 C15.96,11.026 14.546,13.154 11.844,13.154 Z M12.236,8.254 C13.034,8.254 13.804,7.82 14.28,7.148 C14.182,6.14 13.636,4.964 12.194,4.964 C10.962,4.964 10.318,5.832 10.318,6.588 C10.318,7.736 11.214,8.254 12.236,8.254 Z M19.25,8.156 C17.864,8.156 16.926,7.148 16.926,5.846 C16.926,4.53 17.864,3.522 19.25,3.522 C20.65,3.522 21.574,4.53 21.574,5.846 C21.574,7.148 20.65,8.156 19.25,8.156 Z M19.278,13 L18.34,13 L24.304,3.662 L25.256,3.662 L19.278,13 Z M24.276,13.168 C22.89,13.168 21.952,12.16 21.952,10.858 C21.952,9.542 22.89,8.534 24.276,8.534 C25.662,8.534 26.6,9.542 26.6,10.858 C26.6,12.16 25.662,13.168 24.276,13.168 Z M19.25,7.218 C19.978,7.218 20.496,6.658 20.496,5.846 C20.496,5.02 19.978,4.446 19.25,4.446 C18.536,4.446 18.018,5.02 18.018,5.846 C18.018,6.658 18.536,7.218 19.25,7.218 Z M24.276,12.23 C25.004,12.23 25.522,11.67 25.522,10.858 C25.522,10.032 25.004,9.458 24.276,9.458 C23.548,9.458 23.03,10.032 23.03,10.858 C23.03,11.67 23.548,12.23 24.276,12.23 Z"/>
            <g transform="translate(0 22)">
              <rect width="100" height="8" fill="#F4F4F4" rx="4"/>
              <rect width="49" height="8" fill="#01B2D0" rx="4"/>
            </g>
          </g>
        </g>
      </g>
      <g mask="url(#reporting-c)">
        <g transform="translate(42 309)">
          <text fill-opacity=".5" font-family="ProximaNova-Regular, Proxima Nova" font-size="14">
            <tspan x=".384" y="20" fill="#384254">French</tspan>
          </text>
          <text font-family="ProximaNova-Semibold, Proxima Nova" font-size="14" font-weight="500">
            <tspan x="79" y="20" fill="#384254">1,098</tspan>
          </text>
          <g transform="translate(147)">
            <text fill="#384254" font-family="ProximaNova-Semibold, Proxima Nova" font-size="14" font-weight="500">
              <tspan x="0" y="14">99%</tspan>
            </text>
            <g transform="translate(0 22)">
              <rect width="100" height="8" fill="#F4F4F4" rx="4"/>
              <rect width="99" height="8" fill="#01B2D0" rx="4"/>
            </g>
          </g>
          <g transform="translate(263)">
            <path fill="#384254" fill-rule="nonzero" d="M3.864,13.168 C2.212,13.168 0.98,12.496 0.336,11.656 L1.232,10.578 C1.834,11.278 2.814,11.712 3.808,11.712 C5.04,11.712 5.754,11.138 5.754,10.284 C5.754,9.36 5.026,8.954 3.682,8.954 C3.29,8.954 2.758,8.968 2.618,8.982 L2.618,7.498 C2.772,7.512 3.318,7.512 3.682,7.512 C4.788,7.512 5.614,7.134 5.614,6.28 C5.614,5.426 4.76,4.978 3.724,4.978 C2.758,4.978 1.974,5.328 1.302,6.014 L0.462,4.992 C1.19,4.138 2.324,3.522 3.878,3.522 C5.894,3.522 7.238,4.474 7.238,6.028 C7.238,7.288 6.174,8.016 5.222,8.17 C6.118,8.268 7.392,8.996 7.392,10.438 C7.392,12.034 6.034,13.168 3.864,13.168 Z M12.474,13.168 C9.73,13.168 8.624,10.942 8.624,8.338 C8.624,5.65 10.038,3.522 12.74,3.522 C13.888,3.522 14.784,3.928 15.414,4.558 L14.658,5.79 C14.168,5.286 13.622,4.978 12.74,4.978 C11.172,4.978 10.276,6.42 10.276,8.058 L10.276,8.324 C10.71,7.694 11.69,7.008 12.782,7.008 C14.462,7.008 15.918,8.044 15.918,10.032 C15.918,11.754 14.56,13.168 12.474,13.168 Z M12.376,11.712 C13.608,11.712 14.252,10.83 14.252,10.088 C14.252,8.94 13.356,8.422 12.348,8.422 C11.55,8.422 10.766,8.842 10.304,9.514 C10.388,10.522 10.948,11.712 12.376,11.712 Z M19.166,8.156 C17.78,8.156 16.842,7.148 16.842,5.846 C16.842,4.53 17.78,3.522 19.166,3.522 C20.566,3.522 21.49,4.53 21.49,5.846 C21.49,7.148 20.566,8.156 19.166,8.156 Z M19.194,13 L18.256,13 L24.22,3.662 L25.172,3.662 L19.194,13 Z M24.192,13.168 C22.806,13.168 21.868,12.16 21.868,10.858 C21.868,9.542 22.806,8.534 24.192,8.534 C25.578,8.534 26.516,9.542 26.516,10.858 C26.516,12.16 25.578,13.168 24.192,13.168 Z M19.166,7.218 C19.894,7.218 20.412,6.658 20.412,5.846 C20.412,5.02 19.894,4.446 19.166,4.446 C18.452,4.446 17.934,5.02 17.934,5.846 C17.934,6.658 18.452,7.218 19.166,7.218 Z M24.192,12.23 C24.92,12.23 25.438,11.67 25.438,10.858 C25.438,10.032 24.92,9.458 24.192,9.458 C23.464,9.458 22.946,10.032 22.946,10.858 C22.946,11.67 23.464,12.23 24.192,12.23 Z"/>
            <g transform="translate(0 22)">
              <rect width="100" height="8" fill="#F4F4F4" rx="4"/>
              <rect width="62" height="8" fill="#01B2D0" rx="4"/>
            </g>
          </g>
        </g>
      </g>
      <g mask="url(#reporting-c)">
        <g transform="translate(40 355)">
          <path fill="#384254" fill-opacity=".5" fill-rule="nonzero" d="M5.254,19 L2.062,19 L2.062,9.662 L5.254,9.662 C8.166,9.662 10.042,11.692 10.042,14.338 C10.042,16.998 8.166,19 5.254,19 Z M5.254,17.964 C7.522,17.964 8.838,16.34 8.838,14.338 C8.838,12.322 7.564,10.698 5.254,10.698 L3.224,10.698 L3.224,17.964 L5.254,17.964 Z M14.886,19.168 C12.87,19.168 11.428,17.726 11.428,15.612 C11.428,13.652 12.828,12.07 14.76,12.07 C16.804,12.07 18.008,13.666 18.008,15.696 L18.008,15.962 L12.548,15.962 C12.632,17.236 13.514,18.3 14.97,18.3 C15.754,18.3 16.524,17.992 17.07,17.432 L17.574,18.118 C16.888,18.79 15.978,19.168 14.886,19.168 Z M16.972,15.178 C16.958,14.184 16.286,12.938 14.746,12.938 C13.304,12.938 12.59,14.156 12.534,15.178 L16.972,15.178 Z M21.046,19 L19.996,19 L19.996,13.162 L18.876,13.162 L18.876,12.238 L19.996,12.238 L19.996,11.72 C19.996,10.334 20.766,9.522 21.956,9.522 C22.502,9.522 22.964,9.648 23.384,10.04 L22.95,10.712 C22.726,10.516 22.46,10.39 22.124,10.39 C21.424,10.39 21.046,10.852 21.046,11.72 L21.046,12.238 L22.418,12.238 L22.418,13.162 L21.046,13.162 L21.046,19 Z M28.956,19 L27.906,19 L27.906,18.23 C27.36,18.846 26.576,19.168 25.666,19.168 C24.532,19.168 23.314,18.398 23.314,16.928 C23.314,15.402 24.518,14.702 25.666,14.702 C26.59,14.702 27.36,14.996 27.906,15.612 L27.906,14.394 C27.906,13.498 27.178,12.98 26.198,12.98 C25.386,12.98 24.728,13.26 24.126,13.918 L23.636,13.19 C24.364,12.434 25.232,12.07 26.338,12.07 C27.78,12.07 28.956,12.714 28.956,14.352 L28.956,19 Z M26.058,18.412 C26.786,18.412 27.5,18.132 27.906,17.572 L27.906,16.284 C27.5,15.738 26.786,15.458 26.058,15.458 C25.064,15.458 24.378,16.074 24.378,16.928 C24.378,17.796 25.064,18.412 26.058,18.412 Z M36.684,19 L35.634,19 L35.634,18.048 C35.116,18.636 34.234,19.168 33.226,19.168 C31.812,19.168 31.07,18.468 31.07,17.012 L31.07,12.238 L32.12,12.238 L32.12,16.69 C32.12,17.88 32.722,18.23 33.646,18.23 C34.458,18.23 35.242,17.754 35.634,17.208 L35.634,12.238 L36.684,12.238 L36.684,19 Z M39.834,19 L38.784,19 L38.784,9.662 L39.834,9.662 L39.834,19 Z M43.656,19.168 C42.648,19.168 42.144,18.594 42.144,17.586 L42.144,13.162 L41.024,13.162 L41.024,12.238 L42.144,12.238 L42.144,10.39 L43.208,10.39 L43.208,12.238 L44.58,12.238 L44.58,13.162 L43.208,13.162 L43.208,17.362 C43.208,17.866 43.432,18.23 43.88,18.23 C44.188,18.23 44.454,18.09 44.594,17.936 L44.902,18.734 C44.636,18.986 44.258,19.168 43.656,19.168 Z"/>
          <path fill="#384254" fill-rule="nonzero" d="M85.326,19 L83.688,19 L83.688,11.776 L82.162,13.372 L81.21,12.378 L83.898,9.662 L85.326,9.662 L85.326,19 Z M89.092,18.468 C89.092,19.434 88.56,20.316 87.79,20.862 L87.118,20.316 C87.566,20.05 88.042,19.476 88.126,19 C88.098,19.014 87.986,19.042 87.888,19.042 C87.426,19.042 87.062,18.664 87.062,18.146 C87.062,17.628 87.482,17.194 88.014,17.194 C88.588,17.194 89.092,17.656 89.092,18.468 Z M97.212,19 L90.45,19 L90.45,17.698 C94.076,14.954 95.504,13.75 95.504,12.392 C95.504,11.412 94.65,10.978 93.796,10.978 C92.704,10.978 91.878,11.412 91.276,12.084 L90.324,11.02 C91.15,10.012 92.466,9.522 93.782,9.522 C95.588,9.522 97.156,10.53 97.156,12.392 C97.156,14.128 95.574,15.668 93.082,17.558 L97.212,17.558 L97.212,19 Z M102.406,19.168 C99.774,19.168 98.668,16.676 98.668,14.338 C98.668,11.986 99.774,9.522 102.406,9.522 C105.024,9.522 106.13,11.986 106.13,14.338 C106.13,16.676 105.024,19.168 102.406,19.168 Z M102.406,17.712 C103.918,17.712 104.464,16.116 104.464,14.338 C104.464,12.546 103.932,10.978 102.406,10.978 C100.88,10.978 100.334,12.546 100.334,14.338 C100.334,16.116 100.88,17.712 102.406,17.712 Z M114.18,19 L107.418,19 L107.418,17.698 C111.044,14.954 112.472,13.75 112.472,12.392 C112.472,11.412 111.618,10.978 110.764,10.978 C109.672,10.978 108.846,11.412 108.244,12.084 L107.292,11.02 C108.118,10.012 109.434,9.522 110.75,9.522 C112.556,9.522 114.124,10.53 114.124,12.392 C114.124,14.128 112.542,15.668 110.05,17.558 L114.18,17.558 L114.18,19 Z"/>
          <g transform="translate(149)">
            <path fill="#384254" fill-rule="nonzero" d="M3.724,13.154 C2.562,13.154 1.666,12.734 1.036,12.118 L1.806,10.872 C2.296,11.39 2.828,11.698 3.724,11.698 C5.418,11.698 6.188,10.144 6.188,8.618 C6.188,8.534 6.188,8.436 6.174,8.352 C5.754,8.982 4.774,9.654 3.668,9.654 C1.988,9.654 0.546,8.632 0.546,6.644 C0.546,4.908 1.904,3.508 3.99,3.508 C6.734,3.508 7.84,5.734 7.84,8.324 C7.84,11.026 6.426,13.154 3.724,13.154 Z M4.116,8.254 C4.914,8.254 5.684,7.82 6.16,7.148 C6.062,6.14 5.516,4.964 4.074,4.964 C2.842,4.964 2.198,5.832 2.198,6.588 C2.198,7.736 3.094,8.254 4.116,8.254 Z M12.586,13.168 C10.668,13.168 9.002,12.272 9.002,10.592 C9.002,9.416 9.968,8.562 11.102,8.184 C10.052,7.848 9.156,7.148 9.156,5.972 C9.156,4.236 10.934,3.522 12.586,3.522 C14.238,3.522 16.016,4.236 16.016,5.972 C16.016,7.148 15.12,7.848 14.07,8.184 C15.204,8.562 16.17,9.416 16.17,10.592 C16.17,12.272 14.49,13.168 12.586,13.168 Z M12.586,7.526 C13.16,7.428 14.35,7.092 14.35,6.224 C14.35,5.426 13.594,4.978 12.586,4.978 C11.578,4.978 10.822,5.426 10.822,6.224 C10.822,7.092 12.026,7.428 12.586,7.526 Z M12.586,11.712 C13.622,11.712 14.504,11.208 14.504,10.382 C14.504,9.416 13.16,8.996 12.586,8.912 C11.998,8.996 10.668,9.416 10.668,10.382 C10.668,11.208 11.522,11.712 12.586,11.712 Z M19.474,8.156 C18.088,8.156 17.15,7.148 17.15,5.846 C17.15,4.53 18.088,3.522 19.474,3.522 C20.874,3.522 21.798,4.53 21.798,5.846 C21.798,7.148 20.874,8.156 19.474,8.156 Z M19.502,13 L18.564,13 L24.528,3.662 L25.48,3.662 L19.502,13 Z M24.5,13.168 C23.114,13.168 22.176,12.16 22.176,10.858 C22.176,9.542 23.114,8.534 24.5,8.534 C25.886,8.534 26.824,9.542 26.824,10.858 C26.824,12.16 25.886,13.168 24.5,13.168 Z M19.474,7.218 C20.202,7.218 20.72,6.658 20.72,5.846 C20.72,5.02 20.202,4.446 19.474,4.446 C18.76,4.446 18.242,5.02 18.242,5.846 C18.242,6.658 18.76,7.218 19.474,7.218 Z M24.5,12.23 C25.228,12.23 25.746,11.67 25.746,10.858 C25.746,10.032 25.228,9.458 24.5,9.458 C23.772,9.458 23.254,10.032 23.254,10.858 C23.254,11.67 23.772,12.23 24.5,12.23 Z"/>
            <g transform="translate(0 22)">
              <rect width="100" height="8" fill="#F4F4F4" rx="4"/>
              <rect width="98" height="8" fill="#01B2D0" rx="4"/>
            </g>
          </g>
          <g transform="translate(265)">
            <path fill="#384254" fill-rule="nonzero" d="M6.482,13 L4.844,13 L4.844,10.886 L0.392,10.886 L0.392,9.57 L4.228,3.662 L6.482,3.662 L6.482,9.444 L7.728,9.444 L7.728,10.886 L6.482,10.886 L6.482,13 Z M4.844,9.444 L4.844,5.132 L2.002,9.444 L4.844,9.444 Z M11.984,13.168 C10.332,13.168 9.1,12.496 8.456,11.656 L9.352,10.578 C9.954,11.278 10.934,11.712 11.928,11.712 C13.16,11.712 13.874,11.138 13.874,10.284 C13.874,9.36 13.146,8.954 11.802,8.954 C11.41,8.954 10.878,8.968 10.738,8.982 L10.738,7.498 C10.892,7.512 11.438,7.512 11.802,7.512 C12.908,7.512 13.734,7.134 13.734,6.28 C13.734,5.426 12.88,4.978 11.844,4.978 C10.878,4.978 10.094,5.328 9.422,6.014 L8.582,4.992 C9.31,4.138 10.444,3.522 11.998,3.522 C14.014,3.522 15.358,4.474 15.358,6.028 C15.358,7.288 14.294,8.016 13.342,8.17 C14.238,8.268 15.512,8.996 15.512,10.438 C15.512,12.034 14.154,13.168 11.984,13.168 Z M18.872,8.156 C17.486,8.156 16.548,7.148 16.548,5.846 C16.548,4.53 17.486,3.522 18.872,3.522 C20.272,3.522 21.196,4.53 21.196,5.846 C21.196,7.148 20.272,8.156 18.872,8.156 Z M18.9,13 L17.962,13 L23.926,3.662 L24.878,3.662 L18.9,13 Z M23.898,13.168 C22.512,13.168 21.574,12.16 21.574,10.858 C21.574,9.542 22.512,8.534 23.898,8.534 C25.284,8.534 26.222,9.542 26.222,10.858 C26.222,12.16 25.284,13.168 23.898,13.168 Z M18.872,7.218 C19.6,7.218 20.118,6.658 20.118,5.846 C20.118,5.02 19.6,4.446 18.872,4.446 C18.158,4.446 17.64,5.02 17.64,5.846 C17.64,6.658 18.158,7.218 18.872,7.218 Z M23.898,12.23 C24.626,12.23 25.144,11.67 25.144,10.858 C25.144,10.032 24.626,9.458 23.898,9.458 C23.17,9.458 22.652,10.032 22.652,10.858 C22.652,11.67 23.17,12.23 23.898,12.23 Z"/>
            <g transform="translate(0 22)">
              <rect width="100" height="8" fill="#F4F4F4" rx="4"/>
              <rect width="52" height="8" fill="#01B2D0" rx="4"/>
            </g>
          </g>
        </g>
      </g>
      <g mask="url(#reporting-c)">
        <g transform="translate(39 125)">
          <path fill="#384254" fill-rule="nonzero" d="M6.422 19.168C3.734 19.168 1.62 17.208 1.62 14.338 1.62 11.468 3.734 9.508 6.422 9.508 8.074 9.508 9.222 10.292 9.964 11.356L8.998 11.902C8.466 11.104 7.486 10.544 6.422 10.544 4.378 10.544 2.824 12.098 2.824 14.338 2.824 16.55 4.378 18.132 6.422 18.132 7.486 18.132 8.466 17.558 8.998 16.774L9.978 17.306C9.194 18.384 8.074 19.168 6.422 19.168zM14.374 19.168C12.316 19.168 11.028 17.572 11.028 15.612 11.028 13.652 12.316 12.07 14.374 12.07 16.432 12.07 17.72 13.652 17.72 15.612 17.72 17.572 16.432 19.168 14.374 19.168zM14.374 18.23C15.816 18.23 16.614 16.998 16.614 15.612 16.614 14.24 15.816 13.008 14.374 13.008 12.932 13.008 12.134 14.24 12.134 15.612 12.134 16.998 12.932 18.23 14.374 18.23zM25.042 19L24.006 19 24.006 14.576C24.006 13.372 23.39 13.008 22.48 13.008 21.654 13.008 20.884 13.512 20.478 14.058L20.478 19 19.428 19 19.428 12.238 20.478 12.238 20.478 13.218C20.954 12.644 21.878 12.07 22.9 12.07 24.3 12.07 25.042 12.784 25.042 14.254L25.042 19zM28.878 19.168C27.87 19.168 27.366 18.594 27.366 17.586L27.366 13.162 26.246 13.162 26.246 12.238 27.366 12.238 27.366 10.39 28.43 10.39 28.43 12.238 29.802 12.238 29.802 13.162 28.43 13.162 28.43 17.362C28.43 17.866 28.654 18.23 29.102 18.23 29.41 18.23 29.676 18.09 29.816 17.936L30.124 18.734C29.858 18.986 29.48 19.168 28.878 19.168zM32.322 19L31.272 19 31.272 12.238 32.322 12.238 32.322 13.316C32.868 12.616 33.652 12.084 34.576 12.084L34.576 13.162C34.45 13.148 34.324 13.134 34.17 13.134 33.512 13.134 32.63 13.666 32.322 14.212L32.322 19zM38.846 19.168C36.788 19.168 35.5 17.572 35.5 15.612 35.5 13.652 36.788 12.07 38.846 12.07 40.904 12.07 42.192 13.652 42.192 15.612 42.192 17.572 40.904 19.168 38.846 19.168zM38.846 18.23C40.288 18.23 41.086 16.998 41.086 15.612 41.086 14.24 40.288 13.008 38.846 13.008 37.404 13.008 36.606 14.24 36.606 15.612 36.606 16.998 37.404 18.23 38.846 18.23zM44.95 19L43.9 19 43.9 9.662 44.95 9.662 44.95 19zM89.462 19L82.7 19 82.7 17.698C86.326 14.954 87.754 13.75 87.754 12.392 87.754 11.412 86.9 10.978 86.046 10.978 84.954 10.978 84.128 11.412 83.526 12.084L82.574 11.02C83.4 10.012 84.716 9.522 86.032 9.522 87.838 9.522 89.406 10.53 89.406 12.392 89.406 14.128 87.824 15.668 85.332 17.558L89.462 17.558 89.462 19zM93.102 18.468C93.102 19.434 92.57 20.316 91.8 20.862L91.128 20.316C91.576 20.05 92.052 19.476 92.136 19 92.108 19.014 91.996 19.042 91.898 19.042 91.436 19.042 91.072 18.664 91.072 18.146 91.072 17.628 91.492 17.194 92.024 17.194 92.598 17.194 93.102 17.656 93.102 18.468zM100.242 19L98.604 19 98.604 16.886 94.152 16.886 94.152 15.57 97.988 9.662 100.242 9.662 100.242 15.444 101.488 15.444 101.488 16.886 100.242 16.886 100.242 19zM98.604 15.444L98.604 11.132 95.762 15.444 98.604 15.444zM106.206 19.168C103.574 19.168 102.468 16.676 102.468 14.338 102.468 11.986 103.574 9.522 106.206 9.522 108.824 9.522 109.93 11.986 109.93 14.338 109.93 16.676 108.824 19.168 106.206 19.168zM106.206 17.712C107.718 17.712 108.264 16.116 108.264 14.338 108.264 12.546 107.732 10.978 106.206 10.978 104.68 10.978 104.134 12.546 104.134 14.338 104.134 16.116 104.68 17.712 106.206 17.712zM114.844 19.168C112.212 19.168 111.106 16.676 111.106 14.338 111.106 11.986 112.212 9.522 114.844 9.522 117.462 9.522 118.568 11.986 118.568 14.338 118.568 16.676 117.462 19.168 114.844 19.168zM114.844 17.712C116.356 17.712 116.902 16.116 116.902 14.338 116.902 12.546 116.37 10.978 114.844 10.978 113.318 10.978 112.772 12.546 112.772 14.338 112.772 16.116 113.318 17.712 114.844 17.712z"/>
          <g transform="translate(150)">
            <path fill="#384254" fill-rule="nonzero" d="M3.724,13.154 C2.562,13.154 1.666,12.734 1.036,12.118 L1.806,10.872 C2.296,11.39 2.828,11.698 3.724,11.698 C5.418,11.698 6.188,10.144 6.188,8.618 C6.188,8.534 6.188,8.436 6.174,8.352 C5.754,8.982 4.774,9.654 3.668,9.654 C1.988,9.654 0.546,8.632 0.546,6.644 C0.546,4.908 1.904,3.508 3.99,3.508 C6.734,3.508 7.84,5.734 7.84,8.324 C7.84,11.026 6.426,13.154 3.724,13.154 Z M4.116,8.254 C4.914,8.254 5.684,7.82 6.16,7.148 C6.062,6.14 5.516,4.964 4.074,4.964 C2.842,4.964 2.198,5.832 2.198,6.588 C2.198,7.736 3.094,8.254 4.116,8.254 Z M12.138,13.154 C10.976,13.154 10.08,12.734 9.45,12.118 L10.22,10.872 C10.71,11.39 11.242,11.698 12.138,11.698 C13.832,11.698 14.602,10.144 14.602,8.618 C14.602,8.534 14.602,8.436 14.588,8.352 C14.168,8.982 13.188,9.654 12.082,9.654 C10.402,9.654 8.96,8.632 8.96,6.644 C8.96,4.908 10.318,3.508 12.404,3.508 C15.148,3.508 16.254,5.734 16.254,8.324 C16.254,11.026 14.84,13.154 12.138,13.154 Z M12.53,8.254 C13.328,8.254 14.098,7.82 14.574,7.148 C14.476,6.14 13.93,4.964 12.488,4.964 C11.256,4.964 10.612,5.832 10.612,6.588 C10.612,7.736 11.508,8.254 12.53,8.254 Z M19.544,8.156 C18.158,8.156 17.22,7.148 17.22,5.846 C17.22,4.53 18.158,3.522 19.544,3.522 C20.944,3.522 21.868,4.53 21.868,5.846 C21.868,7.148 20.944,8.156 19.544,8.156 Z M19.572,13 L18.634,13 L24.598,3.662 L25.55,3.662 L19.572,13 Z M24.57,13.168 C23.184,13.168 22.246,12.16 22.246,10.858 C22.246,9.542 23.184,8.534 24.57,8.534 C25.956,8.534 26.894,9.542 26.894,10.858 C26.894,12.16 25.956,13.168 24.57,13.168 Z M19.544,7.218 C20.272,7.218 20.79,6.658 20.79,5.846 C20.79,5.02 20.272,4.446 19.544,4.446 C18.83,4.446 18.312,5.02 18.312,5.846 C18.312,6.658 18.83,7.218 19.544,7.218 Z M24.57,12.23 C25.298,12.23 25.816,11.67 25.816,10.858 C25.816,10.032 25.298,9.458 24.57,9.458 C23.842,9.458 23.324,10.032 23.324,10.858 C23.324,11.67 23.842,12.23 24.57,12.23 Z"/>
            <g transform="translate(0 22)">
              <rect width="100" height="8" fill="#F4F4F4" rx="4"/>
              <rect width="99" height="8" fill="#01B2D0" rx="4"/>
            </g>
          </g>
          <g transform="translate(266)">
            <path fill="#384254" fill-rule="nonzero" d="M3.864,13.168 C2.212,13.168 0.98,12.496 0.336,11.656 L1.232,10.578 C1.834,11.278 2.814,11.712 3.808,11.712 C5.04,11.712 5.754,11.138 5.754,10.284 C5.754,9.36 5.026,8.954 3.682,8.954 C3.29,8.954 2.758,8.968 2.618,8.982 L2.618,7.498 C2.772,7.512 3.318,7.512 3.682,7.512 C4.788,7.512 5.614,7.134 5.614,6.28 C5.614,5.426 4.76,4.978 3.724,4.978 C2.758,4.978 1.974,5.328 1.302,6.014 L0.462,4.992 C1.19,4.138 2.324,3.522 3.878,3.522 C5.894,3.522 7.238,4.474 7.238,6.028 C7.238,7.288 6.174,8.016 5.222,8.17 C6.118,8.268 7.392,8.996 7.392,10.438 C7.392,12.034 6.034,13.168 3.864,13.168 Z M14.518,13 L12.88,13 L12.88,10.886 L8.428,10.886 L8.428,9.57 L12.264,3.662 L14.518,3.662 L14.518,9.444 L15.764,9.444 L15.764,10.886 L14.518,10.886 L14.518,13 Z M12.88,9.444 L12.88,5.132 L10.038,9.444 L12.88,9.444 Z M18.872,8.156 C17.486,8.156 16.548,7.148 16.548,5.846 C16.548,4.53 17.486,3.522 18.872,3.522 C20.272,3.522 21.196,4.53 21.196,5.846 C21.196,7.148 20.272,8.156 18.872,8.156 Z M18.9,13 L17.962,13 L23.926,3.662 L24.878,3.662 L18.9,13 Z M23.898,13.168 C22.512,13.168 21.574,12.16 21.574,10.858 C21.574,9.542 22.512,8.534 23.898,8.534 C25.284,8.534 26.222,9.542 26.222,10.858 C26.222,12.16 25.284,13.168 23.898,13.168 Z M18.872,7.218 C19.6,7.218 20.118,6.658 20.118,5.846 C20.118,5.02 19.6,4.446 18.872,4.446 C18.158,4.446 17.64,5.02 17.64,5.846 C17.64,6.658 18.158,7.218 18.872,7.218 Z M23.898,12.23 C24.626,12.23 25.144,11.67 25.144,10.858 C25.144,10.032 24.626,9.458 23.898,9.458 C23.17,9.458 22.652,10.032 22.652,10.858 C22.652,11.67 23.17,12.23 23.898,12.23 Z"/>
            <g transform="translate(0 22)">
              <rect width="100" height="8" fill="#F4F4F4" rx="4"/>
              <rect width="34" height="8" fill="#01B2D0" rx="4"/>
            </g>
          </g>
        </g>
      </g>
      <path fill="#384254" fill-rule="nonzero" d="M31.788 101L30.432 101 26.256 95.276 26.256 101 24.852 101 24.852 92.996 26.292 92.996 30.384 98.54 30.384 92.996 31.788 92.996 31.788 101zM40.704 101L39.108 101 38.52 99.452 34.848 99.452 34.26 101 32.664 101 35.808 92.996 37.56 92.996 40.704 101zM38.124 98.216L36.684 94.4 35.244 98.216 38.124 98.216zM49.884 101L48.48 101 48.48 94.82 46.032 101 45.432 101 42.972 94.82 42.972 101 41.568 101 41.568 92.996 43.548 92.996 45.732 98.492 47.904 92.996 49.884 92.996 49.884 101zM57.072 101L51.588 101 51.588 92.996 57.072 92.996 57.072 94.232 52.992 94.232 52.992 96.296 56.988 96.296 56.988 97.532 52.992 97.532 52.992 99.764 57.072 99.764 57.072 101zM125.6 101.144C124.124 101.144 123.056 100.616 122.336 99.872L123.128 98.78C123.668 99.368 124.544 99.896 125.66 99.896 126.812 99.896 127.256 99.332 127.256 98.792 127.256 97.112 122.6 98.156 122.6 95.216 122.6 93.884 123.752 92.864 125.516 92.864 126.752 92.864 127.772 93.272 128.504 93.992L127.712 95.036C127.076 94.4 126.224 94.112 125.384 94.112 124.568 94.112 124.04 94.52 124.04 95.108 124.04 96.608 128.696 95.684 128.696 98.66 128.696 99.992 127.748 101.144 125.6 101.144zM135.464 101L129.98 101 129.98 92.996 135.464 92.996 135.464 94.232 131.384 94.232 131.384 96.296 135.38 96.296 135.38 97.532 131.384 97.532 131.384 99.764 135.464 99.764 135.464 101zM143.84 101L142.484 101 138.308 95.276 138.308 101 136.904 101 136.904 92.996 138.344 92.996 142.436 98.54 142.436 92.996 143.84 92.996 143.84 101zM148.856 101L147.452 101 147.452 94.232 145.028 94.232 145.028 92.996 151.28 92.996 151.28 94.232 148.856 94.232 148.856 101zM192.84 101L189.852 101 189.852 92.996 192.828 92.996C195.336 92.996 197.016 94.652 197.016 96.992 197.016 99.356 195.336 101 192.84 101zM192.828 99.764C194.568 99.764 195.576 98.516 195.576 96.992 195.576 95.456 194.616 94.232 192.84 94.232L191.256 94.232 191.256 99.764 192.828 99.764zM203.856 101L198.372 101 198.372 92.996 203.856 92.996 203.856 94.232 199.776 94.232 199.776 96.296 203.772 96.296 203.772 97.532 199.776 97.532 199.776 99.764 203.856 99.764 203.856 101zM210.132 101L205.2 101 205.2 92.996 206.604 92.996 206.604 99.764 210.132 99.764 210.132 101zM212.772 101L211.368 101 211.368 92.996 212.772 92.996 212.772 101zM218.544 101L216.792 101 213.648 92.996 215.244 92.996 217.668 99.464 220.092 92.996 221.688 92.996 218.544 101zM228.036 101L222.552 101 222.552 92.996 228.036 92.996 228.036 94.232 223.956 94.232 223.956 96.296 227.952 96.296 227.952 97.532 223.956 97.532 223.956 99.764 228.036 99.764 228.036 101zM235.68 101L234.048 101 232.284 98.012 230.88 98.012 230.88 101 229.476 101 229.476 92.996 232.992 92.996C234.576 92.996 235.62 94.016 235.62 95.504 235.62 96.92 234.684 97.7 233.712 97.856L235.68 101zM232.812 96.776C233.604 96.776 234.18 96.272 234.18 95.492 234.18 94.724 233.604 94.232 232.812 94.232L230.88 94.232 230.88 96.776 232.812 96.776zM242.508 101L237.024 101 237.024 92.996 242.508 92.996 242.508 94.232 238.428 94.232 238.428 96.296 242.424 96.296 242.424 97.532 238.428 97.532 238.428 99.764 242.508 99.764 242.508 101zM246.936 101L243.948 101 243.948 92.996 246.924 92.996C249.432 92.996 251.112 94.652 251.112 96.992 251.112 99.356 249.432 101 246.936 101zM246.924 99.764C248.664 99.764 249.672 98.516 249.672 96.992 249.672 95.456 248.712 94.232 246.936 94.232L245.352 94.232 245.352 99.764 246.924 99.764zM309.596 101.144C307.196 101.144 305.504 99.392 305.504 97.004 305.504 94.616 307.196 92.864 309.596 92.864 311.984 92.864 313.688 94.616 313.688 97.004 313.688 99.392 311.984 101.144 309.596 101.144zM309.596 99.896C311.204 99.896 312.248 98.648 312.248 97.004 312.248 95.348 311.204 94.112 309.596 94.112 307.976 94.112 306.944 95.348 306.944 97.004 306.944 98.648 307.976 99.896 309.596 99.896zM316.436 101L315.032 101 315.032 92.996 318.56 92.996C320.24 92.996 321.164 94.136 321.164 95.504 321.164 96.86 320.228 98 318.56 98L316.436 98 316.436 101zM318.368 96.764C319.16 96.764 319.724 96.26 319.724 95.504 319.724 94.736 319.16 94.232 318.368 94.232L316.436 94.232 316.436 96.764 318.368 96.764zM327.824 101L322.34 101 322.34 92.996 327.824 92.996 327.824 94.232 323.744 94.232 323.744 96.296 327.74 96.296 327.74 97.532 323.744 97.532 323.744 99.764 327.824 99.764 327.824 101zM336.2 101L334.844 101 330.668 95.276 330.668 101 329.264 101 329.264 92.996 330.704 92.996 334.796 98.54 334.796 92.996 336.2 92.996 336.2 101zM343.388 101L337.904 101 337.904 92.996 343.388 92.996 343.388 94.232 339.308 94.232 339.308 96.296 343.304 96.296 343.304 97.532 339.308 97.532 339.308 99.764 343.388 99.764 343.388 101zM347.816 101L344.828 101 344.828 92.996 347.804 92.996C350.312 92.996 351.992 94.652 351.992 96.992 351.992 99.356 350.312 101 347.816 101zM347.804 99.764C349.544 99.764 350.552 98.516 350.552 96.992 350.552 95.456 349.592 94.232 347.816 94.232L346.232 94.232 346.232 99.764 347.804 99.764z" mask="url(#reporting-c)" opacity=".5"/>
    </g>
    <g transform="translate(4 403)">
      <use fill="#000" filter="url(#reporting-d)" xlink:href="#reporting-e"/>
      <use fill="#FFF" stroke="#8D8D8D" stroke-opacity=".24" xlink:href="#reporting-e"/>
      <path fill="#384254" fill-rule="nonzero" d="M81.624,46.264 C77.29,46.264 73.924,43.184 73.924,38.674 C73.924,34.142 77.29,31.084 81.624,31.084 C84.572,31.084 86.42,32.602 87.498,34.362 L85.32,35.506 C84.616,34.274 83.186,33.372 81.624,33.372 C78.72,33.372 76.564,35.572 76.564,38.674 C76.564,41.732 78.72,43.976 81.624,43.976 C83.186,43.976 84.616,43.052 85.32,41.842 L87.52,42.942 C86.398,44.702 84.572,46.264 81.624,46.264 Z M98.982,46 L96.672,46 L96.672,44.592 C95.924,45.428 94.604,46.264 92.932,46.264 C90.644,46.264 89.5,45.054 89.5,42.898 L89.5,35.374 L91.81,35.374 L91.81,42.04 C91.81,43.69 92.646,44.218 93.966,44.218 C95.132,44.218 96.144,43.536 96.672,42.832 L96.672,35.374 L98.982,35.374 L98.982,46 Z M105.626,46.264 C103.8,46.264 102.172,45.67 101.072,44.592 L102.128,42.942 C102.876,43.712 104.35,44.416 105.714,44.416 C107.1,44.416 107.826,43.844 107.826,43.008 C107.826,40.918 101.402,42.414 101.402,38.322 C101.402,36.584 102.898,35.11 105.582,35.11 C107.386,35.11 108.75,35.748 109.696,36.584 L108.728,38.212 C108.09,37.508 106.924,36.936 105.582,36.936 C104.372,36.936 103.624,37.508 103.624,38.256 C103.624,40.126 110.048,38.718 110.048,42.942 C110.048,44.834 108.486,46.264 105.626,46.264 Z M115.57,46.264 C113.766,46.264 112.842,45.296 112.842,43.514 L112.842,37.376 L111.082,37.376 L111.082,35.374 L112.842,35.374 L112.842,32.47 L115.152,32.47 L115.152,35.374 L117.308,35.374 L117.308,37.376 L115.152,37.376 L115.152,42.942 C115.152,43.668 115.504,44.218 116.164,44.218 C116.604,44.218 117,44.02 117.176,43.822 L117.726,45.582 C117.308,45.956 116.626,46.264 115.57,46.264 Z M124.194,46.264 C120.806,46.264 118.738,43.712 118.738,40.676 C118.738,37.618 120.806,35.11 124.194,35.11 C127.582,35.11 129.65,37.618 129.65,40.676 C129.65,43.712 127.582,46.264 124.194,46.264 Z M124.194,44.218 C126.174,44.218 127.252,42.568 127.252,40.676 C127.252,38.806 126.174,37.156 124.194,37.156 C122.236,37.156 121.136,38.806 121.136,40.676 C121.136,42.568 122.236,44.218 124.194,44.218 Z M147.36,46 L145.05,46 L145.05,39.07 C145.05,37.926 144.544,37.156 143.29,37.156 C142.256,37.156 141.288,37.86 140.826,38.564 L140.826,46 L138.516,46 L138.516,39.07 C138.516,37.926 138.032,37.156 136.778,37.156 C135.744,37.156 134.798,37.882 134.314,38.564 L134.314,46 L132.004,46 L132.004,35.374 L134.314,35.374 L134.314,36.804 C134.776,36.166 136.162,35.11 137.79,35.11 C139.374,35.11 140.342,35.902 140.694,37.046 C141.288,36.1 142.696,35.11 144.302,35.11 C146.238,35.11 147.36,36.166 147.36,38.322 L147.36,46 Z M155.28,46.264 C152.068,46.264 149.714,44.042 149.714,40.676 C149.714,37.596 151.958,35.11 155.104,35.11 C158.294,35.11 160.318,37.53 160.318,40.874 L160.318,41.446 L152.134,41.446 C152.31,43.03 153.498,44.372 155.5,44.372 C156.556,44.372 157.766,43.954 158.536,43.184 L159.592,44.702 C158.514,45.714 156.952,46.264 155.28,46.264 Z M158.096,39.796 C158.03,38.542 157.172,37.002 155.082,37.002 C153.124,37.002 152.2,38.52 152.112,39.796 L158.096,39.796 Z M164.916,46 L162.606,46 L162.606,35.374 L164.916,35.374 L164.916,36.914 C165.73,35.902 167.006,35.11 168.37,35.11 L168.37,37.398 C168.172,37.354 167.952,37.332 167.666,37.332 C166.676,37.332 165.378,37.992 164.916,38.762 L164.916,46 Z M180.734,46.264 C177.346,46.264 175.278,43.712 175.278,40.676 C175.278,37.618 177.346,35.11 180.734,35.11 C184.122,35.11 186.19,37.618 186.19,40.676 C186.19,43.712 184.122,46.264 180.734,46.264 Z M180.734,44.218 C182.714,44.218 183.792,42.568 183.792,40.676 C183.792,38.806 182.714,37.156 180.734,37.156 C178.776,37.156 177.676,38.806 177.676,40.676 C177.676,42.568 178.776,44.218 180.734,44.218 Z M198.048,46 L195.738,46 L195.738,39.356 C195.738,37.684 194.88,37.156 193.582,37.156 C192.416,37.156 191.404,37.86 190.854,38.564 L190.854,46 L188.544,46 L188.544,35.374 L190.854,35.374 L190.854,36.804 C191.558,35.968 192.944,35.11 194.616,35.11 C196.904,35.11 198.048,36.342 198.048,38.52 L198.048,46 Z M203.35,42.81 C203.878,43.602 205,44.218 206.1,44.218 C207.926,44.218 209.092,42.744 209.092,40.676 C209.092,38.63 207.926,37.156 206.1,37.156 C205,37.156 203.878,37.794 203.35,38.586 L203.35,42.81 Z M203.35,46 L201.04,46 L201.04,31.326 L203.35,31.326 L203.35,36.848 C204.208,35.704 205.44,35.11 206.76,35.11 C209.51,35.11 211.49,37.244 211.49,40.676 C211.49,44.196 209.488,46.264 206.76,46.264 C205.396,46.264 204.164,45.604 203.35,44.548 L203.35,46 Z M218.64,46.264 C215.252,46.264 213.184,43.712 213.184,40.676 C213.184,37.618 215.252,35.11 218.64,35.11 C222.028,35.11 224.096,37.618 224.096,40.676 C224.096,43.712 222.028,46.264 218.64,46.264 Z M218.64,44.218 C220.62,44.218 221.698,42.568 221.698,40.676 C221.698,38.806 220.62,37.156 218.64,37.156 C216.682,37.156 215.582,38.806 215.582,40.676 C215.582,42.568 216.682,44.218 218.64,44.218 Z M235.272,46 L232.962,46 L232.962,44.834 C232.17,45.758 230.916,46.264 229.508,46.264 C227.792,46.264 225.834,45.076 225.834,42.744 C225.834,40.28 227.77,39.268 229.508,39.268 C230.96,39.268 232.17,39.73 232.962,40.632 L232.962,39.048 C232.962,37.816 231.928,37.068 230.476,37.068 C229.288,37.068 228.232,37.508 227.33,38.432 L226.362,36.826 C227.594,35.638 229.134,35.11 230.828,35.11 C233.204,35.11 235.272,36.1 235.272,38.938 L235.272,46 Z M230.432,44.68 C231.422,44.68 232.412,44.306 232.962,43.58 L232.962,41.952 C232.412,41.226 231.422,40.852 230.432,40.852 C229.134,40.852 228.144,41.622 228.144,42.766 C228.144,43.932 229.134,44.68 230.432,44.68 Z M240.574,46 L238.264,46 L238.264,35.374 L240.574,35.374 L240.574,36.914 C241.388,35.902 242.664,35.11 244.028,35.11 L244.028,37.398 C243.83,37.354 243.61,37.332 243.324,37.332 C242.334,37.332 241.036,37.992 240.574,38.762 L240.574,46 Z M255.688,46 L253.378,46 L253.378,44.548 C252.564,45.604 251.354,46.264 249.968,46.264 C247.262,46.264 245.26,44.196 245.26,40.676 C245.26,37.244 247.24,35.11 249.968,35.11 C251.31,35.11 252.542,35.704 253.378,36.848 L253.378,31.326 L255.688,31.326 L255.688,46 Z M250.65,44.218 C251.728,44.218 252.872,43.58 253.378,42.788 L253.378,38.586 C252.872,37.794 251.728,37.156 250.65,37.156 C248.802,37.156 247.636,38.63 247.636,40.676 C247.636,42.744 248.802,44.218 250.65,44.218 Z M259.846,34.076 C259.054,34.076 258.416,33.438 258.416,32.646 C258.416,31.854 259.054,31.216 259.846,31.216 C260.638,31.216 261.276,31.854 261.276,32.646 C261.276,33.438 260.638,34.076 259.846,34.076 Z M260.99,46 L258.68,46 L258.68,35.374 L260.99,35.374 L260.99,46 Z M273.486,46 L271.176,46 L271.176,39.356 C271.176,37.684 270.318,37.156 269.02,37.156 C267.854,37.156 266.842,37.86 266.292,38.564 L266.292,46 L263.982,46 L263.982,35.374 L266.292,35.374 L266.292,36.804 C266.996,35.968 268.382,35.11 270.054,35.11 C272.342,35.11 273.486,36.342 273.486,38.52 L273.486,46 Z M280.812,50.312 C279.008,50.312 277.666,49.916 276.346,48.728 L277.424,47.056 C278.304,48.046 279.404,48.42 280.812,48.42 C282.33,48.42 283.958,47.716 283.958,45.45 L283.958,44.24 C283.144,45.318 281.934,46.022 280.548,46.022 C277.842,46.022 275.84,44.064 275.84,40.566 C275.84,37.112 277.798,35.11 280.548,35.11 C281.89,35.11 283.1,35.704 283.958,36.848 L283.958,35.374 L286.268,35.374 L286.268,45.45 C286.268,49.278 283.408,50.312 280.812,50.312 Z M281.23,43.954 C282.308,43.954 283.43,43.316 283.958,42.546 L283.958,38.564 C283.43,37.794 282.308,37.156 281.23,37.156 C279.382,37.156 278.216,38.52 278.216,40.566 C278.216,42.612 279.382,43.954 281.23,43.954 Z"/>
      <path fill="#01B2D0" d="M26,53 C27.1045695,53 28,53.8954305 28,55 L28,61 C28,62.1045695 27.1045695,63 26,63 C24.8954305,63 24,62.1045695 24,61 L24,55 C24,53.8954305 24.8954305,53 26,53 Z M33,48 C34.1045695,48 35,48.8954305 35,50 L35,61 C35,62.1045695 34.1045695,63 33,63 C31.8954305,63 31,62.1045695 31,61 L31,50 C31,48.8954305 31.8954305,48 33,48 Z M40,43 C41.1045695,43 42,43.8954305 42,45 L42,61 C42,62.1045695 41.1045695,63 40,63 C38.8954305,63 38,62.1045695 38,61 L38,45 C38,43.8954305 38.8954305,43 40,43 Z M47,38 C48.1045695,38 49,38.8954305 49,40 L49,61 C49,62.1045695 48.1045695,63 47,63 C45.8954305,63 45,62.1045695 45,61 L45,40 C45,38.8954305 45.8954305,38 47,38 Z"/>
      <path fill="#384254" fill-rule="nonzero" d="M77.116,71.168 C75.506,71.168 74.302,70.552 73.532,69.684 L74.232,68.788 C74.834,69.488 75.842,70.132 77.158,70.132 C78.824,70.132 79.356,69.236 79.356,68.508 C79.356,66.1 73.826,67.444 73.826,64.112 C73.826,62.572 75.198,61.508 77.046,61.508 C78.46,61.508 79.566,61.998 80.35,62.824 L79.65,63.678 C78.95,62.894 77.97,62.558 76.948,62.558 C75.842,62.558 75.03,63.16 75.03,64.042 C75.03,66.142 80.56,64.938 80.56,68.424 C80.56,69.768 79.636,71.168 77.116,71.168 Z M87.882,71 L86.832,71 L86.832,66.548 C86.832,65.344 86.23,65.008 85.306,65.008 C84.494,65.008 83.71,65.512 83.318,66.058 L83.318,71 L82.268,71 L82.268,61.662 L83.318,61.662 L83.318,65.218 C83.78,64.644 84.704,64.07 85.726,64.07 C87.14,64.07 87.882,64.756 87.882,66.226 L87.882,71 Z M92.936,71.168 C90.878,71.168 89.59,69.572 89.59,67.612 C89.59,65.652 90.878,64.07 92.936,64.07 C94.994,64.07 96.282,65.652 96.282,67.612 C96.282,69.572 94.994,71.168 92.936,71.168 Z M92.936,70.23 C94.378,70.23 95.176,68.998 95.176,67.612 C95.176,66.24 94.378,65.008 92.936,65.008 C91.494,65.008 90.696,66.24 90.696,67.612 C90.696,68.998 91.494,70.23 92.936,70.23 Z M104.906,71 L103.842,71 L102.078,65.568 L100.314,71 L99.264,71 L97.108,64.238 L98.2,64.238 L99.852,69.628 L101.63,64.238 L102.54,64.238 L104.304,69.628 L105.956,64.238 L107.062,64.238 L104.906,71 Z M108.798,63.272 C108.406,63.272 108.084,62.964 108.084,62.572 C108.084,62.18 108.406,61.858 108.798,61.858 C109.19,61.858 109.498,62.18 109.498,62.572 C109.498,62.964 109.19,63.272 108.798,63.272 Z M109.316,71 L108.266,71 L108.266,64.238 L109.316,64.238 L109.316,71 Z M117.03,71 L115.994,71 L115.994,66.576 C115.994,65.372 115.378,65.008 114.468,65.008 C113.642,65.008 112.872,65.512 112.466,66.058 L112.466,71 L111.416,71 L111.416,64.238 L112.466,64.238 L112.466,65.218 C112.942,64.644 113.866,64.07 114.888,64.07 C116.288,64.07 117.03,64.784 117.03,66.254 L117.03,71 Z M121.86,73.744 C120.726,73.744 119.942,73.52 119.13,72.722 L119.662,71.966 C120.222,72.624 120.894,72.876 121.86,72.876 C122.98,72.876 124.044,72.33 124.044,70.902 L124.044,69.88 C123.54,70.566 122.714,71.084 121.762,71.084 C119.998,71.084 118.752,69.768 118.752,67.584 C118.752,65.414 119.984,64.07 121.762,64.07 C122.672,64.07 123.498,64.518 124.044,65.26 L124.044,64.238 L125.094,64.238 L125.094,70.902 C125.094,73.044 123.512,73.744 121.86,73.744 Z M122.028,70.146 C122.854,70.146 123.666,69.642 124.044,69.054 L124.044,66.086 C123.666,65.512 122.854,65.008 122.028,65.008 C120.656,65.008 119.844,66.086 119.844,67.584 C119.844,69.068 120.656,70.146 122.028,70.146 Z M131.87,71 L130.82,71 L130.82,64.238 L131.87,64.238 L131.87,65.316 C132.416,64.616 133.2,64.084 134.124,64.084 L134.124,65.162 C133.998,65.148 133.872,65.134 133.718,65.134 C133.06,65.134 132.178,65.666 131.87,66.212 L131.87,71 Z M138.506,71.168 C136.49,71.168 135.048,69.726 135.048,67.612 C135.048,65.652 136.448,64.07 138.38,64.07 C140.424,64.07 141.628,65.666 141.628,67.696 L141.628,67.962 L136.168,67.962 C136.252,69.236 137.134,70.3 138.59,70.3 C139.374,70.3 140.144,69.992 140.69,69.432 L141.194,70.118 C140.508,70.79 139.598,71.168 138.506,71.168 Z M140.592,67.178 C140.578,66.184 139.906,64.938 138.366,64.938 C136.924,64.938 136.21,66.156 136.154,67.178 L140.592,67.178 Z M146.654,71.168 C145.73,71.168 144.932,70.72 144.372,69.978 L144.372,73.576 L143.322,73.576 L143.322,64.238 L144.372,64.238 L144.372,65.246 C144.862,64.56 145.702,64.07 146.654,64.07 C148.432,64.07 149.664,65.414 149.664,67.612 C149.664,69.796 148.432,71.168 146.654,71.168 Z M146.388,70.23 C147.746,70.23 148.558,69.11 148.558,67.612 C148.558,66.114 147.746,65.008 146.388,65.008 C145.562,65.008 144.736,65.498 144.372,66.086 L144.372,69.138 C144.736,69.726 145.562,70.23 146.388,70.23 Z M154.284,71.168 C152.226,71.168 150.938,69.572 150.938,67.612 C150.938,65.652 152.226,64.07 154.284,64.07 C156.342,64.07 157.63,65.652 157.63,67.612 C157.63,69.572 156.342,71.168 154.284,71.168 Z M154.284,70.23 C155.726,70.23 156.524,68.998 156.524,67.612 C156.524,66.24 155.726,65.008 154.284,65.008 C152.842,65.008 152.044,66.24 152.044,67.612 C152.044,68.998 152.842,70.23 154.284,70.23 Z M160.388,71 L159.338,71 L159.338,64.238 L160.388,64.238 L160.388,65.316 C160.934,64.616 161.718,64.084 162.642,64.084 L162.642,65.162 C162.516,65.148 162.39,65.134 162.236,65.134 C161.578,65.134 160.696,65.666 160.388,66.212 L160.388,71 Z M165.68,71.168 C164.672,71.168 164.168,70.594 164.168,69.586 L164.168,65.162 L163.048,65.162 L163.048,64.238 L164.168,64.238 L164.168,62.39 L165.232,62.39 L165.232,64.238 L166.604,64.238 L166.604,65.162 L165.232,65.162 L165.232,69.362 C165.232,69.866 165.456,70.23 165.904,70.23 C166.212,70.23 166.478,70.09 166.618,69.936 L166.926,70.734 C166.66,70.986 166.282,71.168 165.68,71.168 Z M173.044,71 L171.994,71 L171.994,65.162 L170.874,65.162 L170.874,64.238 L171.994,64.238 L171.994,63.72 C171.994,62.334 172.764,61.522 173.954,61.522 C174.5,61.522 174.962,61.648 175.382,62.04 L174.948,62.712 C174.724,62.516 174.458,62.39 174.122,62.39 C173.422,62.39 173.044,62.852 173.044,63.72 L173.044,64.238 L174.416,64.238 L174.416,65.162 L173.044,65.162 L173.044,71 Z M178.63,71.168 C176.572,71.168 175.284,69.572 175.284,67.612 C175.284,65.652 176.572,64.07 178.63,64.07 C180.688,64.07 181.976,65.652 181.976,67.612 C181.976,69.572 180.688,71.168 178.63,71.168 Z M178.63,70.23 C180.072,70.23 180.87,68.998 180.87,67.612 C180.87,66.24 180.072,65.008 178.63,65.008 C177.188,65.008 176.39,66.24 176.39,67.612 C176.39,68.998 177.188,70.23 178.63,70.23 Z M184.734,71 L183.684,71 L183.684,64.238 L184.734,64.238 L184.734,65.316 C185.28,64.616 186.064,64.084 186.988,64.084 L186.988,65.162 C186.862,65.148 186.736,65.134 186.582,65.134 C185.924,65.134 185.042,65.666 184.734,66.212 L184.734,71 Z M198.342,71 L191.58,71 L191.58,69.698 C195.206,66.954 196.634,65.75 196.634,64.392 C196.634,63.412 195.78,62.978 194.926,62.978 C193.834,62.978 193.008,63.412 192.406,64.084 L191.454,63.02 C192.28,62.012 193.596,61.522 194.912,61.522 C196.718,61.522 198.286,62.53 198.286,64.392 C198.286,66.128 196.704,67.668 194.212,69.558 L198.342,69.558 L198.342,71 Z M206.672,71 L199.91,71 L199.91,69.698 C203.536,66.954 204.964,65.75 204.964,64.392 C204.964,63.412 204.11,62.978 203.256,62.978 C202.164,62.978 201.338,63.412 200.736,64.084 L199.784,63.02 C200.61,62.012 201.926,61.522 203.242,61.522 C205.048,61.522 206.616,62.53 206.616,64.392 C206.616,66.128 205.034,67.668 202.542,69.558 L206.672,69.558 L206.672,71 Z M214.54,71 L213.07,71 L213.07,66.772 C213.07,65.708 212.524,65.372 211.698,65.372 C210.956,65.372 210.312,65.82 209.962,66.268 L209.962,71 L208.492,71 L208.492,64.238 L209.962,64.238 L209.962,65.148 C210.41,64.616 211.292,64.07 212.356,64.07 C213.812,64.07 214.54,64.854 214.54,66.24 L214.54,71 Z M222.674,71 L221.204,71 L221.204,70.076 C220.686,70.748 219.916,71.168 219.034,71.168 C217.312,71.168 216.038,69.852 216.038,67.612 C216.038,65.428 217.298,64.07 219.034,64.07 C219.888,64.07 220.672,64.448 221.204,65.176 L221.204,61.662 L222.674,61.662 L222.674,71 Z M219.468,69.866 C220.154,69.866 220.882,69.46 221.204,68.956 L221.204,66.282 C220.882,65.778 220.154,65.372 219.468,65.372 C218.292,65.372 217.55,66.31 217.55,67.612 C217.55,68.928 218.292,69.866 219.468,69.866 Z M229.842,71.168 C228.876,71.168 228.022,70.874 227.35,70.174 L228.12,68.928 C228.484,69.348 229.002,69.712 229.716,69.712 C230.71,69.712 231.354,69.026 231.354,68.018 L231.354,61.662 L232.992,61.662 L232.992,68.032 C232.992,70.16 231.648,71.168 229.842,71.168 Z M240.552,71 L239.082,71 L239.082,70.258 C238.578,70.846 237.78,71.168 236.884,71.168 C235.792,71.168 234.546,70.412 234.546,68.928 C234.546,67.36 235.778,66.716 236.884,66.716 C237.808,66.716 238.578,67.01 239.082,67.584 L239.082,66.576 C239.082,65.792 238.424,65.316 237.5,65.316 C236.744,65.316 236.072,65.596 235.498,66.184 L234.882,65.162 C235.666,64.406 236.646,64.07 237.724,64.07 C239.236,64.07 240.552,64.7 240.552,66.506 L240.552,71 Z M237.472,70.16 C238.102,70.16 238.732,69.922 239.082,69.46 L239.082,68.424 C238.732,67.962 238.102,67.724 237.472,67.724 C236.646,67.724 236.016,68.214 236.016,68.942 C236.016,69.684 236.646,70.16 237.472,70.16 Z M248.504,71 L247.034,71 L247.034,66.772 C247.034,65.708 246.488,65.372 245.662,65.372 C244.92,65.372 244.276,65.82 243.926,66.268 L243.926,71 L242.456,71 L242.456,64.238 L243.926,64.238 L243.926,65.148 C244.374,64.616 245.256,64.07 246.32,64.07 C247.776,64.07 248.504,64.854 248.504,66.24 L248.504,71 Z M256.848,68.242 L253.488,68.242 L253.488,66.982 L256.848,66.982 L256.848,68.242 Z M264.744,71.168 C263.092,71.168 261.86,70.496 261.216,69.656 L262.112,68.578 C262.714,69.278 263.694,69.712 264.688,69.712 C265.92,69.712 266.634,69.138 266.634,68.284 C266.634,67.36 265.906,66.954 264.562,66.954 C264.17,66.954 263.638,66.968 263.498,66.982 L263.498,65.498 C263.652,65.512 264.198,65.512 264.562,65.512 C265.668,65.512 266.494,65.134 266.494,64.28 C266.494,63.426 265.64,62.978 264.604,62.978 C263.638,62.978 262.854,63.328 262.182,64.014 L261.342,62.992 C262.07,62.138 263.204,61.522 264.758,61.522 C266.774,61.522 268.118,62.474 268.118,64.028 C268.118,65.288 267.054,66.016 266.102,66.17 C266.998,66.268 268.272,66.996 268.272,68.438 C268.272,70.034 266.914,71.168 264.744,71.168 Z M271.338,71 L269.868,71 L269.868,64.238 L271.338,64.238 L271.338,65.218 C271.856,64.574 272.668,64.07 273.536,64.07 L273.536,65.526 C273.41,65.498 273.27,65.484 273.088,65.484 C272.458,65.484 271.632,65.904 271.338,66.394 L271.338,71 Z M280.956,71 L279.486,71 L279.486,70.076 C278.968,70.748 278.198,71.168 277.316,71.168 C275.594,71.168 274.32,69.852 274.32,67.612 C274.32,65.428 275.58,64.07 277.316,64.07 C278.17,64.07 278.954,64.448 279.486,65.176 L279.486,61.662 L280.956,61.662 L280.956,71 Z M277.75,69.866 C278.436,69.866 279.164,69.46 279.486,68.956 L279.486,66.282 C279.164,65.778 278.436,65.372 277.75,65.372 C276.574,65.372 275.832,66.31 275.832,67.612 C275.832,68.928 276.574,69.866 277.75,69.866 Z M288.152,71 L286.514,71 L286.514,61.662 L292.912,61.662 L292.912,63.104 L288.152,63.104 L288.152,65.512 L292.814,65.512 L292.814,66.954 L288.152,66.954 L288.152,71 Z M297.49,71.168 C295.446,71.168 293.948,69.754 293.948,67.612 C293.948,65.652 295.376,64.07 297.378,64.07 C299.408,64.07 300.696,65.61 300.696,67.738 L300.696,68.102 L295.488,68.102 C295.6,69.11 296.356,69.964 297.63,69.964 C298.302,69.964 299.072,69.698 299.562,69.208 L300.234,70.174 C299.548,70.818 298.554,71.168 297.49,71.168 Z M299.282,67.052 C299.24,66.254 298.694,65.274 297.364,65.274 C296.118,65.274 295.53,66.24 295.474,67.052 L299.282,67.052 Z M303.622,68.97 C303.958,69.474 304.672,69.866 305.372,69.866 C306.534,69.866 307.276,68.928 307.276,67.612 C307.276,66.31 306.534,65.372 305.372,65.372 C304.672,65.372 303.958,65.778 303.622,66.282 L303.622,68.97 Z M303.622,71 L302.152,71 L302.152,61.662 L303.622,61.662 L303.622,65.176 C304.168,64.448 304.952,64.07 305.792,64.07 C307.542,64.07 308.802,65.428 308.802,67.612 C308.802,69.852 307.528,71.168 305.792,71.168 C304.924,71.168 304.14,70.748 303.622,70.076 L303.622,71 Z" opacity=".5"/>
      <path fill="#384254" fill-rule="nonzero" d="M374.44,55 L368.938,55 L368.938,45.662 L370.1,45.662 L370.1,53.964 L374.44,53.964 L374.44,55 Z M376.484,47.272 C376.092,47.272 375.77,46.964 375.77,46.572 C375.77,46.18 376.092,45.858 376.484,45.858 C376.876,45.858 377.184,46.18 377.184,46.572 C377.184,46.964 376.876,47.272 376.484,47.272 Z M377.002,55 L375.952,55 L375.952,48.238 L377.002,48.238 L377.002,55 Z M382.056,55 L380.908,55 L378.094,48.238 L379.242,48.238 L381.482,53.782 L383.736,48.238 L384.87,48.238 L382.056,55 Z M389.028,55.168 C387.012,55.168 385.57,53.726 385.57,51.612 C385.57,49.652 386.97,48.07 388.902,48.07 C390.946,48.07 392.15,49.666 392.15,51.696 L392.15,51.962 L386.69,51.962 C386.774,53.236 387.656,54.3 389.112,54.3 C389.896,54.3 390.666,53.992 391.212,53.432 L391.716,54.118 C391.03,54.79 390.12,55.168 389.028,55.168 Z M391.114,51.178 C391.1,50.184 390.428,48.938 388.888,48.938 C387.446,48.938 386.732,50.156 386.676,51.178 L391.114,51.178 Z"/>
      <rect width="1" height="16" x="403" y="43" fill="#D8D8D8"/>
      <path fill="#384254" fill-rule="nonzero" d="M419.348,55 L415.092,55 L415.092,45.662 L419.25,45.662 C420.874,45.662 421.868,46.642 421.868,48.042 C421.868,49.218 421.084,50.002 420.23,50.184 C421.224,50.338 422.05,51.36 422.05,52.48 C422.05,53.978 421.056,55 419.348,55 Z M419.054,49.708 C420.104,49.708 420.664,49.064 420.664,48.21 C420.664,47.37 420.104,46.698 419.054,46.698 L416.254,46.698 L416.254,49.708 L419.054,49.708 Z M419.124,53.964 C420.202,53.964 420.846,53.348 420.846,52.354 C420.846,51.5 420.258,50.744 419.124,50.744 L416.254,50.744 L416.254,53.964 L419.124,53.964 Z M426.922,55.168 C424.906,55.168 423.464,53.726 423.464,51.612 C423.464,49.652 424.864,48.07 426.796,48.07 C428.84,48.07 430.044,49.666 430.044,51.696 L430.044,51.962 L424.584,51.962 C424.668,53.236 425.55,54.3 427.006,54.3 C427.79,54.3 428.56,53.992 429.106,53.432 L429.61,54.118 C428.924,54.79 428.014,55.168 426.922,55.168 Z M429.008,51.178 C428.994,50.184 428.322,48.938 426.782,48.938 C425.34,48.938 424.626,50.156 424.57,51.178 L429.008,51.178 Z M437.366,55 L436.316,55 L436.316,50.548 C436.316,49.344 435.714,49.008 434.79,49.008 C433.978,49.008 433.194,49.512 432.802,50.058 L432.802,55 L431.752,55 L431.752,45.662 L432.802,45.662 L432.802,49.218 C433.264,48.644 434.188,48.07 435.21,48.07 C436.624,48.07 437.366,48.756 437.366,50.226 L437.366,55 Z M444.744,55 L443.694,55 L443.694,54.23 C443.148,54.846 442.364,55.168 441.454,55.168 C440.32,55.168 439.102,54.398 439.102,52.928 C439.102,51.402 440.306,50.702 441.454,50.702 C442.378,50.702 443.148,50.996 443.694,51.612 L443.694,50.394 C443.694,49.498 442.966,48.98 441.986,48.98 C441.174,48.98 440.516,49.26 439.914,49.918 L439.424,49.19 C440.152,48.434 441.02,48.07 442.126,48.07 C443.568,48.07 444.744,48.714 444.744,50.352 L444.744,55 Z M441.846,54.412 C442.574,54.412 443.288,54.132 443.694,53.572 L443.694,52.284 C443.288,51.738 442.574,51.458 441.846,51.458 C440.852,51.458 440.166,52.074 440.166,52.928 C440.166,53.796 440.852,54.412 441.846,54.412 Z M449.812,55 L448.664,55 L445.85,48.238 L446.998,48.238 L449.238,53.782 L451.492,48.238 L452.626,48.238 L449.812,55 Z M454.25,47.272 C453.858,47.272 453.536,46.964 453.536,46.572 C453.536,46.18 453.858,45.858 454.25,45.858 C454.642,45.858 454.95,46.18 454.95,46.572 C454.95,46.964 454.642,47.272 454.25,47.272 Z M454.768,55 L453.718,55 L453.718,48.238 L454.768,48.238 L454.768,55 Z M459.822,55.168 C457.764,55.168 456.476,53.572 456.476,51.612 C456.476,49.652 457.764,48.07 459.822,48.07 C461.88,48.07 463.168,49.652 463.168,51.612 C463.168,53.572 461.88,55.168 459.822,55.168 Z M459.822,54.23 C461.264,54.23 462.062,52.998 462.062,51.612 C462.062,50.24 461.264,49.008 459.822,49.008 C458.38,49.008 457.582,50.24 457.582,51.612 C457.582,52.998 458.38,54.23 459.822,54.23 Z M470.49,55 L469.44,55 L469.44,54.048 C468.922,54.636 468.04,55.168 467.032,55.168 C465.618,55.168 464.876,54.468 464.876,53.012 L464.876,48.238 L465.926,48.238 L465.926,52.69 C465.926,53.88 466.528,54.23 467.452,54.23 C468.264,54.23 469.048,53.754 469.44,53.208 L469.44,48.238 L470.49,48.238 L470.49,55 Z M473.64,55 L472.59,55 L472.59,48.238 L473.64,48.238 L473.64,49.316 C474.186,48.616 474.97,48.084 475.894,48.084 L475.894,49.162 C475.768,49.148 475.642,49.134 475.488,49.134 C474.83,49.134 473.948,49.666 473.64,50.212 L473.64,55 Z M482.488,55 L481.438,55 L481.438,54.23 C480.892,54.846 480.108,55.168 479.198,55.168 C478.064,55.168 476.846,54.398 476.846,52.928 C476.846,51.402 478.05,50.702 479.198,50.702 C480.122,50.702 480.892,50.996 481.438,51.612 L481.438,50.394 C481.438,49.498 480.71,48.98 479.73,48.98 C478.918,48.98 478.26,49.26 477.658,49.918 L477.168,49.19 C477.896,48.434 478.764,48.07 479.87,48.07 C481.312,48.07 482.488,48.714 482.488,50.352 L482.488,55 Z M479.59,54.412 C480.318,54.412 481.032,54.132 481.438,53.572 L481.438,52.284 C481.032,51.738 480.318,51.458 479.59,51.458 C478.596,51.458 477.91,52.074 477.91,52.928 C477.91,53.796 478.596,54.412 479.59,54.412 Z M485.652,55 L484.602,55 L484.602,45.662 L485.652,45.662 L485.652,55 Z"/>
    </g>
    <g transform="rotate(-33 589.574 108.541)">
      <rect width="21" height="20.833" x=".791" y="3.967" fill="#01B2D0" opacity=".1" rx="3"/>
      <rect width="19" height="18.833" x="4.64" y="1.376" stroke="#01B2D0" stroke-width="2" rx="3"/>
    </g>
    <g transform="rotate(20 281.738 1658.706)">
      <ellipse cx="22.223" cy="16.766" stroke="#FFC111" stroke-width="2" rx="14.955" ry="15.031"/>
      <ellipse cx="16.842" cy="21.556" fill="#FFC111" opacity=".2" rx="15.955" ry="16.031"/>
    </g>
    <g transform="rotate(34 -115.583 72.337)">
      <ellipse cx="22.223" cy="16.325" stroke="#FFC111" stroke-width="2" rx="14.955" ry="14.609"/>
      <ellipse cx="16.842" cy="20.989" fill="#FFC111" opacity=".2" rx="15.955" ry="15.609"/>
    </g>
    <g transform="rotate(-30 1094.52 -826.724)">
      <path fill="#6FD350" d="M16.5321914,12.4496462 L22.0600555,23.5053743 C23.0480125,25.4812882 22.2471151,27.8839804 20.2712011,28.8719374 C19.7157794,29.1496483 19.1033271,29.2942286 18.4823467,29.2942286 L7.42661863,29.2942286 C5.21747963,29.2942286 3.42661863,27.5033676 3.42661863,25.2942286 C3.42661863,24.6732483 3.57119899,24.060796 3.84890986,23.5053743 L9.37677391,12.4496462 C10.3647309,10.4737322 12.7674231,9.67283479 14.7433371,10.6607918 C15.5174467,11.0478466 16.1451366,11.6755366 16.5321914,12.4496462 Z" opacity=".2"/>
      <path stroke="#6FD350" stroke-width="2" d="M20.8698151,7.83468193 C20.5795239,7.25409972 20.1087565,6.78333225 19.5281743,6.49304114 C18.0462388,5.7520734 16.2442197,6.35274644 15.5032519,7.83468193 L9.97538786,18.89041 C9.76710471,19.3069763 9.65866943,19.7663155 9.65866943,20.2320508 C9.65866943,21.8889051 11.0018152,23.2320508 12.6586694,23.2320508 L23.7143975,23.2320508 C24.1801328,23.2320508 24.639472,23.1236155 25.0560383,22.9153324 C26.5379738,22.1743646 27.1386468,20.3723455 26.3976791,18.89041 L20.8698151,7.83468193 Z"/>
    </g>
  </g>
</svg>
