<svg xmlns="http://www.w3.org/2000/svg" xmlns:xlink="http://www.w3.org/1999/xlink" width="481" height="514" viewBox="0 0 481 514">
  <defs>
    <circle id="webhook-b" cx="30" cy="30" r="30"/>
    <filter id="webhook-a" width="161.1%" height="161.1%" x="-30.6%" y="-25.6%" filterUnits="objectBoundingBox">
      <feMorphology in="SourceAlpha" operator="dilate" radius=".333" result="shadowSpreadOuter1"/>
      <feOffset dy="3" in="shadowSpreadOuter1" result="shadowOffsetOuter1"/>
      <feGaussianBlur in="shadowOffsetOuter1" result="shadowBlurOuter1" stdDeviation="5.5"/>
      <feComposite in="shadowBlurOuter1" in2="SourceAlpha" operator="out" result="shadowBlurOuter1"/>
      <feColorMatrix in="shadowBlurOuter1" values="0 0 0 0 0   0 0 0 0 0   0 0 0 0 0  0 0 0 0.12 0"/>
    </filter>
    <rect id="webhook-d" width="120" height="120" rx="24"/>
    <filter id="webhook-c" width="144.2%" height="144.2%" x="-22.1%" y="-18.8%" filterUnits="objectBoundingBox">
      <feMorphology in="SourceAlpha" operator="dilate" radius=".5" result="shadowSpreadOuter1"/>
      <feOffset dy="4" in="shadowSpreadOuter1" result="shadowOffsetOuter1"/>
      <feGaussianBlur in="shadowOffsetOuter1" result="shadowBlurOuter1" stdDeviation="8"/>
      <feComposite in="shadowBlurOuter1" in2="SourceAlpha" operator="out" result="shadowBlurOuter1"/>
      <feColorMatrix in="shadowBlurOuter1" values="0 0 0 0 0   0 0 0 0 0   0 0 0 0 0  0 0 0 0.12 0"/>
    </filter>
    <path id="webhook-e" d="M46.7107365,0.00311410873 C46.6445597,0.000996514793 46.5780131,0 46.5114666,0 L46.5114666,0 L6.43122944,0 C6.39253386,0 6.35396152,0.000249128698 6.31538918,0.000996514793 L6.31538918,0.000996514793 C6.27743301,0.000249128698 6.23960007,0 6.20152067,0 L6.20152067,0 C2.75083648,0 0,2.7805254 0,6.26832718 L0,6.26832718 C0,7.05071586 0.148127652,7.80134062 0.418750218,8.49267276 L0.418750218,8.49267276 C0.545311864,8.88218548 0.711554961,9.26459803 0.918711853,9.63480328 L0.918711853,9.63480328 L20.9588304,44.6916955 C21.2462129,45.1939389 21.5908993,45.6405021 21.9792106,46.0282709 L21.9792106,46.0282709 C23.1077905,47.2380399 24.7222833,48 26.528652,48 L26.528652,48 C28.0376562,48 29.4267535,47.4309901 30.4959344,46.4958855 L30.4959344,46.4958855 C31.1017543,46.014818 31.6301831,45.4100581 32.0411696,44.6916955 L32.0411696,44.6916955 L52.0812881,9.63480328 C52.2845015,9.27182277 52.4481567,8.8971332 52.5738557,8.5155926 L52.5738557,8.5155926 C52.8486683,7.81778312 53,7.05943536 53,6.26832718 L53,6.26832718 C53,2.7805254 50.2491635,0 46.9133337,0 L46.9133337,0 C46.8454316,0 46.7778992,0.000996514793 46.7107365,0.00311410873 L46.7107365,0.00311410873 Z M28.4810533,32.9673252 L44.3293565,5.165559 C44.3862908,5.08695889 44.4235075,5.02704344 44.4442109,4.99141804 L44.4442109,4.99141804 C44.9131175,4.08184916 45.8238191,3.48232095 46.9133337,3.48232095 L46.9133337,3.48232095 C48.3474115,3.48232095 49.5547381,4.70429721 49.5547381,6.26832718 L49.5547381,6.26832718 C49.5547381,6.8028328 49.3801151,7.32787153 49.0953206,7.77742427 L49.0953206,7.77742427 C49.0636494,7.80158975 49.042946,7.83995557 49.0380166,7.89351824 L49.0380166,7.89351824 L31.581752,38.4231191 L28.4810533,32.9673252 Z M6.43122944,3.48232095 L41.3433889,3.48232095 L38.2426902,8.938364 L6.43122944,8.938364 C6.3768831,8.938364 6.32376911,8.9366201 6.25894786,8.938364 L6.25894786,8.938364 C6.21926641,8.9366201 6.16713829,8.938364 6.08678951,8.938364 L6.08678951,8.938364 C4.59577748,8.938364 3.38795791,7.716886 3.38795791,6.26832718 L3.38795791,6.26832718 C3.38795791,4.70379895 4.59577748,3.48232095 6.08678951,3.48232095 L6.08678951,3.48232095 C6.16713829,3.48232095 6.21914317,3.48394028 6.25894786,3.48232095 L6.25894786,3.48232095 C6.28051386,3.48294377 6.30084753,3.48306833 6.32031855,3.48306833 L6.32031855,3.48306833 C6.35926059,3.48306833 6.39487531,3.48232095 6.43122944,3.48232095 L6.43122944,3.48232095 Z M16.7419985,12.4206849 L36.2581247,12.4206849 L26.4999384,29.4909834 L16.7419985,12.4206849 Z M24.0022252,43.0665044 C24.0060455,43.0255227 23.9868209,42.9933851 23.9446748,42.9504104 L23.9446748,42.9504104 L6.54596059,12.4206849 L12.7476045,12.4206849 L28.6533349,40.2224512 C28.674408,40.29856 28.7089136,40.365451 28.768066,40.4546391 L28.768066,40.4546391 C29.0118235,40.8635839 29.1700564,41.3786575 29.1700564,41.9636116 L29.1700564,41.9636116 C29.1700564,43.412295 27.9633459,44.6336485 26.528652,44.6336485 L26.528652,44.6336485 C25.3960053,44.6336485 24.453879,43.9829243 24.0022252,43.0665044 L24.0022252,43.0665044 Z"/>
    <circle id="webhook-g" cx="42.5" cy="42.5" r="42.5"/>
    <filter id="webhook-f" width="158.8%" height="158.8%" x="-29.4%" y="-24.7%" filterUnits="objectBoundingBox">
      <feMorphology in="SourceAlpha" operator="dilate" radius=".469" result="shadowSpreadOuter1"/>
      <feOffset dy="4" in="shadowSpreadOuter1" result="shadowOffsetOuter1"/>
      <feGaussianBlur in="shadowOffsetOuter1" result="shadowBlurOuter1" stdDeviation="7.5"/>
      <feComposite in="shadowBlurOuter1" in2="SourceAlpha" operator="out" result="shadowBlurOuter1"/>
      <feColorMatrix in="shadowBlurOuter1" values="0 0 0 0 0   0 0 0 0 0   0 0 0 0 0  0 0 0 0.12 0"/>
    </filter>
    <circle id="webhook-i" cx="55.5" cy="55.5" r="55.5"/>
    <filter id="webhook-h" width="171.6%" height="171.6%" x="-35.8%" y="-30.4%" filterUnits="objectBoundingBox">
      <feMorphology in="SourceAlpha" operator="dilate" radius=".75" result="shadowSpreadOuter1"/>
      <feOffset dy="6" in="shadowSpreadOuter1" result="shadowOffsetOuter1"/>
      <feGaussianBlur in="shadowOffsetOuter1" result="shadowBlurOuter1" stdDeviation="12"/>
      <feComposite in="shadowBlurOuter1" in2="SourceAlpha" operator="out" result="shadowBlurOuter1"/>
      <feColorMatrix in="shadowBlurOuter1" values="0 0 0 0 0   0 0 0 0 0   0 0 0 0 0  0 0 0 0.12 0"/>
    </filter>
    <circle id="webhook-k" cx="28" cy="28" r="28"/>
    <filter id="webhook-j" width="171%" height="171%" x="-35.5%" y="-30.1%" filterUnits="objectBoundingBox">
      <feMorphology in="SourceAlpha" operator="dilate" radius=".375" result="shadowSpreadOuter1"/>
      <feOffset dy="3" in="shadowSpreadOuter1" result="shadowOffsetOuter1"/>
      <feGaussianBlur in="shadowOffsetOuter1" result="shadowBlurOuter1" stdDeviation="6"/>
      <feComposite in="shadowBlurOuter1" in2="SourceAlpha" operator="out" result="shadowBlurOuter1"/>
      <feColorMatrix in="shadowBlurOuter1" values="0 0 0 0 0   0 0 0 0 0   0 0 0 0 0  0 0 0 0.12 0"/>
    </filter>
    <circle id="webhook-m" cx="37" cy="37" r="37"/>
    <filter id="webhook-l" width="171.6%" height="171.6%" x="-35.8%" y="-30.4%" filterUnits="objectBoundingBox">
      <feMorphology in="SourceAlpha" operator="dilate" radius=".5" result="shadowSpreadOuter1"/>
      <feOffset dy="4" in="shadowSpreadOuter1" result="shadowOffsetOuter1"/>
      <feGaussianBlur in="shadowOffsetOuter1" result="shadowBlurOuter1" stdDeviation="8"/>
      <feComposite in="shadowBlurOuter1" in2="SourceAlpha" operator="out" result="shadowBlurOuter1"/>
      <feColorMatrix in="shadowBlurOuter1" values="0 0 0 0 0   0 0 0 0 0   0 0 0 0 0  0 0 0 0.12 0"/>
    </filter>
    <rect id="webhook-o" width="166" height="60" rx="30"/>
    <filter id="webhook-n" width="131.9%" height="188.3%" x="-16%" y="-37.5%" filterUnits="objectBoundingBox">
      <feMorphology in="SourceAlpha" operator="dilate" radius=".5" result="shadowSpreadOuter1"/>
      <feOffset dy="4" in="shadowSpreadOuter1" result="shadowOffsetOuter1"/>
      <feGaussianBlur in="shadowOffsetOuter1" result="shadowBlurOuter1" stdDeviation="8"/>
      <feComposite in="shadowBlurOuter1" in2="SourceAlpha" operator="out" result="shadowBlurOuter1"/>
      <feColorMatrix in="shadowBlurOuter1" values="0 0 0 0 0   0 0 0 0 0   0 0 0 0 0  0 0 0 0.12 0"/>
    </filter>
    <circle id="webhook-q" cx="51" cy="51" r="51"/>
    <filter id="webhook-p" width="152%" height="152%" x="-26%" y="-22.1%" filterUnits="objectBoundingBox">
      <feMorphology in="SourceAlpha" operator="dilate" radius=".5" result="shadowSpreadOuter1"/>
      <feOffset dy="4" in="shadowSpreadOuter1" result="shadowOffsetOuter1"/>
      <feGaussianBlur in="shadowOffsetOuter1" result="shadowBlurOuter1" stdDeviation="8"/>
      <feComposite in="shadowBlurOuter1" in2="SourceAlpha" operator="out" result="shadowBlurOuter1"/>
      <feColorMatrix in="shadowBlurOuter1" values="0 0 0 0 0   0 0 0 0 0   0 0 0 0 0  0 0 0 0.12 0"/>
    </filter>
  </defs>
  <g fill="none" fill-rule="evenodd" transform="translate(16 -10)">
    <rect width="241" height="258" x="145" y="168" fill="#E1F5DB"/>
    <g transform="translate(233 143)">
      <use fill="#000" filter="url(#webhook-a)" xlink:href="#webhook-b"/>
      <use fill="#FFF" stroke="#8D8D8D" stroke-opacity=".24" stroke-width=".667" xlink:href="#webhook-b"/>
      <path fill="#286EFA" d="M21,0 L3,0 C1.34325,0 0,1.34325 0,3 L0,21 C0,22.65675 1.34325,24 3,24 L21,24 C22.65675,24 24,22.65675 24,21 L24,3 C24,1.34325 22.65675,0 21,0 Z M15.1995,4.40025 C15.1995,3.9585 15.558,3.6 15.99975,3.6 C16.4415,3.6 16.8,3.9585 16.8,4.40025 L16.8,15.0885 C16.8,15.53025 16.4415,15.88875 15.99975,15.88875 C15.558,15.88875 15.1995,15.53025 15.1995,15.0885 L15.1995,4.40025 Z M11.19975,3.99525 C11.19975,3.5535 11.55825,3.195 12,3.195 C12.44175,3.195 12.80025,3.5535 12.80025,3.99525 L12.80025,15.5955 C12.80025,16.03725 12.44175,16.39575 12,16.39575 C11.55825,16.39575 11.19975,16.03725 11.19975,15.5955 L11.19975,3.99525 Z M7.2,4.40025 C7.2,3.9585 7.5585,3.6 8.00025,3.6 C8.442,3.6 8.79975,3.9585 8.79975,4.40025 L8.79975,15.0885 C8.79975,15.53025 8.442,15.88875 8.00025,15.88875 C7.5585,15.88875 7.2,15.53025 7.2,15.0885 L7.2,4.40025 Z M3.20025,6 C3.20025,5.55825 3.558,5.19975 3.99975,5.19975 C4.4415,5.19975 4.8,5.55825 4.8,6 L4.8,13.1955 C4.8,13.63725 4.4415,13.99575 3.99975,13.99575 C3.558,13.99575 3.20025,13.63725 3.20025,13.1955 L3.20025,6 Z M20.52075,18.2025 C20.39775,18.309 17.43375,20.79525 12,20.79525 C6.56625,20.79525 3.60375,18.309 3.47925,18.2025 C3.144,17.91525 3.10425,17.4105 3.39225,17.0745 C3.67875,16.74 4.18275,16.70025 4.518,16.98675 C4.5645,17.02575 7.21125,19.1955 11.99925,19.1955 C16.84725,19.1955 19.45275,17.01 19.47825,16.98825 C19.81275,16.70025 20.319,16.73925 20.6055,17.0745 C20.89425,17.4105 20.856,17.91525 20.52075,18.2025 Z M20.79975,13.1955 C20.79975,13.63725 20.44125,13.99575 19.9995,13.99575 C19.55775,13.99575 19.2,13.63725 19.2,13.1955 L19.2,6 C19.2,5.55825 19.55775,5.19975 19.9995,5.19975 C20.44125,5.19975 20.79975,5.55825 20.79975,6 L20.79975,13.1955 Z" transform="translate(18 18)"/>
    </g>
    <g transform="translate(214 237)">
      <use fill="#000" filter="url(#webhook-c)" xlink:href="#webhook-d"/>
      <use fill="#FFF" stroke="#8D8D8D" stroke-opacity=".24" xlink:href="#webhook-d"/>
      <use fill="#0AA6D2" transform="translate(34 36)" xlink:href="#webhook-e"/>
    </g>
    <g transform="translate(364 103)">
      <use fill="#000" filter="url(#webhook-f)" xlink:href="#webhook-g"/>
      <use fill="#FFF" stroke="#8D8D8D" stroke-opacity=".24" stroke-width=".938" xlink:href="#webhook-g"/>
      <g transform="translate(22.1 22.1)">
        <path fill="#E01E5A" d="M8.68645161 4.34322581C8.68645161 6.67935484 6.77806452 8.58774194 4.44193548 8.58774194 2.10580645 8.58774194.197419355 6.67935484.197419355 4.34322581.197419355 2.00709677 2.10580645.0987096774 4.44193548.0987096774L8.68645161.0987096774 8.68645161 4.34322581zM10.8251613 4.34322581C10.8251613 2.00709677 12.7335484.0987096774 15.0696774.0987096774 17.4058065.0987096774 19.3141935 2.00709677 19.3141935 4.34322581L19.3141935 14.9709677C19.3141935 17.3070968 17.4058065 19.2154839 15.0696774 19.2154839 12.7335484 19.2154839 10.8251613 17.3070968 10.8251613 14.9709677L10.8251613 4.34322581z" transform="translate(0 21.387)"/>
        <path fill="#36C5F0" d="M15.0696774 8.68645161C12.7335484 8.68645161 10.8251613 6.77806452 10.8251613 4.44193548 10.8251613 2.10580645 12.7335484.197419355 15.0696774.197419355 17.4058065.197419355 19.3141935 2.10580645 19.3141935 4.44193548L19.3141935 8.68645161 15.0696774 8.68645161zM15.0696774 10.8251613C17.4058065 10.8251613 19.3141935 12.7335484 19.3141935 15.0696774 19.3141935 17.4058065 17.4058065 19.3141935 15.0696774 19.3141935L4.44193548 19.3141935C2.10580645 19.3141935.197419355 17.4058065.197419355 15.0696774.197419355 12.7335484 2.10580645 10.8251613 4.44193548 10.8251613L15.0696774 10.8251613z"/>
        <path fill="#2EB67D" d="M10.7264516 15.0696774C10.7264516 12.7335484 12.6348387 10.8251613 14.9709677 10.8251613 17.3070968 10.8251613 19.2154839 12.7335484 19.2154839 15.0696774 19.2154839 17.4058065 17.3070968 19.3141935 14.9709677 19.3141935L10.7264516 19.3141935 10.7264516 15.0696774zM8.58774194 15.0696774C8.58774194 17.4058065 6.67935484 19.3141935 4.34322581 19.3141935 2.00709677 19.3141935.0987096774 17.4058065.0987096774 15.0696774L.0987096774 4.44193548C.0987096774 2.10580645 2.00709677.197419355 4.34322581.197419355 6.67935484.197419355 8.58774194 2.10580645 8.58774194 4.44193548L8.58774194 15.0696774z" transform="translate(21.387)"/>
        <path fill="#ECB22E" d="M4.34322581 10.7264516C6.67935484 10.7264516 8.58774194 12.6348387 8.58774194 14.9709677 8.58774194 17.3070968 6.67935484 19.2154839 4.34322581 19.2154839 2.00709677 19.2154839.0987096774 17.3070968.0987096774 14.9709677L.0987096774 10.7264516 4.34322581 10.7264516zM4.34322581 8.58774194C2.00709677 8.58774194.0987096774 6.67935484.0987096774 4.34322581.0987096774 2.00709677 2.00709677.0987096774 4.34322581.0987096774L14.9709677.0987096774C17.3070968.0987096774 19.2154839 2.00709677 19.2154839 4.34322581 19.2154839 6.67935484 17.3070968 8.58774194 14.9709677 8.58774194L4.34322581 8.58774194z" transform="translate(21.387 21.387)"/>
      </g>
    </g>
    <g transform="translate(48 77)">
      <use fill="#000" filter="url(#webhook-h)" xlink:href="#webhook-i"/>
      <use fill="#FFF" stroke="#8D8D8D" stroke-opacity=".24" stroke-width="1.5" xlink:href="#webhook-i"/>
      <path fill="#FF4A00" fill-rule="nonzero" d="M36.375,30.0110925 C36.373725,31.9059975 36.0273075,33.7200675 35.3958,35.3946525 C33.72147,36.02667 31.906635,36.3738525 30.010965,36.3751275 L29.989035,36.3751275 C28.094385,36.3738525 26.28006,36.02769 24.60573,35.3959275 C23.974095,33.7218525 23.626275,31.9070175 23.625,30.0116025 L23.625,29.989545 C23.626275,28.09464 23.97333,26.28057 24.603945,24.6061125 C26.27904,23.9744775 28.09362,23.6269125 29.989035,23.6256375 L30.010965,23.6256375 C31.906635,23.6269125 33.72147,23.9744775 35.3956725,24.6061125 C36.0267975,26.2806975 36.3735975,28.0947675 36.3748725,29.9896725 L36.3748725,30.01173 L36.3748725,30.011475 L36.375,30.0110925 Z M55.14555,25.7500425 L40.260435,25.7500425 L50.78556,15.2249175 C49.9592241,14.0643948 49.0375182,12.9748269 48.03003,11.9675475 L48.02952,11.9665275 C47.0230477,10.9602026 45.9345158,10.0394455 44.77521,9.2138025 L34.250085,19.7389275 L34.250085,4.854705 C32.8500554,4.61945772 31.4329161,4.50081548 30.01326,4.5 L29.98623,4.5 C28.5667512,4.50075826 27.1497836,4.61931511 25.749915,4.85445 L25.749915,19.7396925 L15.22479,9.2145675 C14.0649079,10.0405004 12.9758993,10.9616904 11.9690775,11.9685675 L11.9652525,11.97201 C10.9598118,12.9780732 10.0398676,14.0660902 9.21495,15.22479 L19.740075,25.749915 L4.85445,25.749915 C4.85445,25.749915 4.50051,28.54599 4.5,29.990565 L4.5,30.0090525 C4.50053117,31.4302319 4.61908862,32.8489125 4.85445,34.2504675 L19.739565,34.2504675 L9.21444,44.7755925 C10.869613,47.0994237 12.9009588,49.1307695 15.22479,50.7859425 L25.749915,40.2610725 L25.749915,55.14555 C27.1484486,55.3803921 28.5640365,55.4989477 29.98215,55.5 L30.018615,55.5 C31.4365559,55.4988652 32.8519676,55.3803101 34.25034,55.14555 L34.25034,40.2603075 L44.775465,50.7854325 C45.934964,49.9597398 47.0236681,49.0388961 48.030285,48.0324525 L48.032835,48.03054 C49.0391222,47.0238959 49.9598757,45.9352403 50.78556,44.7758475 L40.260435,34.2504675 L55.14555,34.2504675 C55.380364,32.8521019 55.4989195,31.4366857 55.5,30.0187425 L55.5,29.98215 C55.4988652,28.5642091 55.3803101,27.1487974 55.14555,25.750425 L55.14555,25.7500425 Z" transform="translate(25.5 25.5)"/>
    </g>
    <g transform="translate(274 21)">
      <use fill="#000" filter="url(#webhook-j)" xlink:href="#webhook-k"/>
      <use fill="#FFF" stroke="#8D8D8D" stroke-opacity=".24" stroke-width=".75" xlink:href="#webhook-k"/>
      <path fill="#FF4A00" fill-rule="nonzero" d="M18.3513514,15.1407314 C18.3507081,16.0967195 18.1759389,17.0119259 17.8573405,17.8567616 C17.0126335,18.1756173 16.0970411,18.3507724 15.140667,18.3514157 L15.1296032,18.3514157 C14.1737438,18.3507724 13.2584086,18.1761319 12.4137016,17.8574049 C12.0950389,17.0128265 11.9195622,16.0972341 11.9189189,15.1409886 L11.9189189,15.1298605 C11.9195622,14.1738724 12.094653,13.2586659 12.4128011,12.4138946 C13.2578941,12.0952319 14.1733578,11.9198838 15.1296032,11.9192405 L15.140667,11.9192405 C16.0970411,11.9198838 17.0126335,12.0952319 17.8572762,12.4138946 C18.1756816,13.2587303 18.3506438,14.1739368 18.351287,15.1299249 L18.351287,15.141053 L18.351287,15.1409243 L18.3513514,15.1407314 Z M27.8211784,12.9910124 L20.3115708,12.9910124 L25.6215438,7.68103946 C25.2046536,7.09555051 24.7396488,6.54585859 24.2313665,6.03768162 L24.2311092,6.03716703 C23.7233394,5.52947157 23.1741701,5.0649455 22.5892951,4.64840486 L17.2793222,9.95837784 L17.2793222,2.44922054 C16.5730009,2.33053723 15.8580478,2.27068168 15.1418249,2.27027027 L15.1281881,2.27027027 C14.4120547,2.27065282 13.6971881,2.33046528 12.9909481,2.44909189 L12.9909481,9.95876378 L7.68097514,4.64879081 C7.09580941,5.06547768 6.54639963,5.53022219 6.03845351,6.03819622 L6.03652378,6.03993297 C5.52927441,6.5474964 5.06515845,7.09640588 4.64898378,7.68097514 L9.95895676,12.9909481 L2.44909189,12.9909481 C2.44909189,12.9909481 2.27052757,14.4015805 2.27027027,15.1303751 L2.27027027,15.1397022 C2.27053825,15.8566936 2.33035101,16.5724243 2.44909189,17.2795151 L9.95869946,17.2795151 L4.64872649,22.5894881 C5.4837687,23.7618714 6.50859184,24.7866945 7.68097514,25.6217368 L12.9909481,20.3118924 L12.9909481,27.8211784 C13.6965146,27.9396573 14.4106851,27.9994691 15.1261297,28 L15.1445265,28 C15.859884,27.9994275 16.5739656,27.9396159 17.2794508,27.8211784 L17.2794508,20.3115065 L22.5894238,25.6214795 C23.1743962,25.2049138 23.7236524,24.740344 24.2314951,24.2325886 L24.2327816,24.2316238 C24.740458,23.7237673 25.2049823,23.1745356 25.6215438,22.5896168 L20.3115708,17.2795151 L27.8211784,17.2795151 C27.9396431,16.5740334 27.9994549,15.8599495 28,15.1445908 L28,15.1261297 C27.9994275,14.4107722 27.9396159,13.6966906 27.8211784,12.9912054 L27.8211784,12.9910124 Z" transform="translate(12.865 12.865)"/>
    </g>
    <g transform="translate(375 319)">
      <use fill="#000" filter="url(#webhook-l)" xlink:href="#webhook-m"/>
      <use fill="#FFF" stroke="#8D8D8D" stroke-opacity=".24" xlink:href="#webhook-m"/>
      <g fill="#F90" fill-rule="nonzero" transform="translate(21 20)">
        <path d="M32.1538462,33.9160494 L23.8141538,33.9160494 C23.553769,33.9153181 23.316888,33.7664721 23.2049231,33.5332346 L11.4129231,9.06666667 L6.424,9.06666667 C6.05014571,9.06666667 5.74707692,8.76597889 5.74707692,8.39506173 L5.74707692,1.00740741 C5.74707692,0.636490242 6.05014571,0.335802469 6.424,0.335802469 L16.8486154,0.335802469 C17.1090002,0.336533778 17.3458813,0.48537978 17.4578462,0.718617284 L29.1956923,25.1851852 L32.1538462,25.1851852 C32.5277004,25.1851852 32.8307692,25.485873 32.8307692,25.8567901 L32.8307692,33.2444444 C32.8307692,33.6153616 32.5277004,33.9160494 32.1538462,33.9160494 Z M24.2406154,32.5728395 L31.4769231,32.5728395 L31.4769231,26.5283951 L28.7692308,26.5283951 C28.5088459,26.5276638 28.2719649,26.3788178 28.16,26.1455802 L16.4221538,1.67901235 L7.10769231,1.67901235 L7.10769231,7.72345679 L11.8461538,7.72345679 C12.1065387,7.7241881 12.3434197,7.8730341 12.4553846,8.1062716 L24.2406154,32.5728395 Z"/>
        <path d="M9.80184615,33.9160494 L1.00184615,33.9160494 C0.767968236,33.9165137 0.550416615,33.7971655 0.426461538,33.6003951 C0.294896702,33.3986534 0.281989942,33.1425462 0.392615385,32.9287901 L9.59876923,13.8484938 C9.71073412,13.6152563 9.94761515,13.4664103 10.208,13.465679 L10.208,13.465679 C10.4668521,13.4651651 10.7033361,13.6111547 10.8172308,13.8417778 L15.224,22.8345679 C15.3138679,23.019129 15.3138679,23.2343031 15.224,23.4188642 L10.4178462,33.4929383 C10.3170693,33.7441341 10.0743008,33.9108842 9.80184615,33.9160494 L9.80184615,33.9160494 Z M2.08492308,32.5728395 L9.37538462,32.5728395 L13.8633846,23.1703704 L10.2147692,15.6819753 L2.08492308,32.5728395 Z"/>
      </g>
    </g>
    <g transform="translate(0 253)">
      <use fill="#000" filter="url(#webhook-n)" xlink:href="#webhook-o"/>
      <use fill="#FFF" stroke="#8D8D8D" stroke-opacity=".24" xlink:href="#webhook-o"/>
      <g fill="#000" transform="translate(24 16)">
        <path d="M6.19380488,13.8876471 C6.19380488,10.702 7.9114439,9.56764706 9.51827317,9.56764706 C11.4901951,9.56764706 12.8149951,11.2910588 12.8149951,13.858 C12.8149951,16.7856471 11.1296683,18.0934706 9.46278049,18.0934706 C7.21515122,18.0934706 6.19380488,15.9108824 6.19380488,13.8876471 Z M10.3100976,5.81976471 C7.96553171,5.81976471 6.6082439,6.88829412 5.95357073,7.62576471 C5.87489756,6.98994118 5.46203902,6.16494118 3.84923902,6.16494118 L0.346,6.16494118 L0.346,9.88335294 L1.78178537,9.88335294 C2.02518049,9.88335294 2.10367805,9.96152941 2.10367805,10.2084118 L2.10367805,27.1878824 L6.27862439,27.1878824 L6.27862439,20.8151765 C6.27862439,20.6432941 6.27546341,20.4823529 6.27089756,20.3387059 C6.92240976,20.9447059 8.1687122,21.7822353 10.1144683,21.7822353 C14.1952878,21.7822353 17.05,18.5012941 17.05,13.8017059 C17.05,9.02729412 14.3401659,5.81976471 10.3100976,5.81976471 Z"/>
        <path d="M22.6565171,17.4230588 L22.6565171,8.42552941 C22.6565171,6.90541176 21.9340585,6.16494118 20.4536683,6.16494118 L16.7224878,6.16494118 L16.7224878,9.88317647 L18.159678,9.88317647 C18.4016683,9.88317647 18.4801659,9.96294118 18.4801659,10.2082353 L18.4801659,19.1745294 C18.4801659,20.7181176 19.1796195,21.4351176 20.6784488,21.4351176 L24.4141951,21.4351176 L24.4141951,17.7497059 L22.9770049,17.7497059 C22.7459024,17.7497059 22.6565171,17.6558235 22.6565171,17.4232353"/>
        <path d="M32.7119317,18.0934706 C30.4704488,18.0934706 29.444361,15.9108824 29.444361,13.8876471 C29.444361,10.702 31.1621756,9.56764706 32.7704098,9.56764706 C34.7423317,9.56764706 36.0671317,11.2910588 36.0671317,13.858 C36.0671317,16.7856471 34.3833854,18.0934706 32.7119317,18.0934706 Z M33.563639,5.81976471 C31.2160878,5.81976471 29.8617854,6.88829412 29.2041268,7.62576471 C29.1270341,6.98994118 28.7157561,6.16494118 27.1027805,6.16494118 L23.5981366,6.16494118 L23.5981366,9.88335294 L25.033922,9.88335294 C25.2757366,9.88335294 25.3542341,9.96152941 25.3542341,10.2084118 L25.3542341,27.1878824 L29.5323415,27.1878824 L29.5323415,20.8151765 C29.5323415,20.6432941 29.5277756,20.4823529 29.5232098,20.3387059 C30.1717366,20.9447059 31.4226049,21.7822353 33.3667805,21.7822353 C37.4491805,21.7822353 40.3007317,18.5012941 40.3007317,13.8017059 C40.3007317,9.02729412 37.592478,5.81976471 33.5639902,5.81976471 L33.563639,5.81976471 Z M45.0081268,11.5977647 C45.4610244,10.0995294 46.5931805,9.24947059 48.1585659,9.24947059 C49.4155805,9.24947059 50.3830146,10.2197059 50.5538829,11.5977647 L45.0081268,11.5977647 Z M48.1585659,5.82011765 C43.6601463,5.82011765 40.5142732,9.10264706 40.5142732,13.8022353 C40.5142732,18.4252353 43.9081073,21.7825882 48.5852976,21.7825882 C52.2639707,21.7825882 54.5116,19.5735294 54.6069561,19.4796471 L54.7750146,19.3111176 L52.9556976,16.2504118 L52.685961,16.5098235 C52.667522,16.5239412 51.0176683,18.0657647 48.8378244,18.0657647 C46.7457854,18.0657647 45.2144683,16.7706471 44.8525366,14.7396471 L54.7534146,14.7396471 L54.7765951,14.4615294 C54.784322,14.4239412 54.8658049,13.5227059 54.8658049,13.0818824 C54.8658049,8.73858824 52.1700195,5.82011765 48.1583902,5.82011765 L48.1585659,5.82011765 Z M62.6058049,18.0934706 C60.6200098,18.0934706 59.3352488,16.4076471 59.3352488,13.8017059 C59.3352488,11.2675882 60.6725171,9.56782353 62.662878,9.56782353 C64.919639,9.56782353 65.9318537,11.6784118 65.9318537,13.7736471 C65.9318537,16.9607059 64.2126341,18.0936471 62.6058049,18.0936471 L62.6058049,18.0934706 Z M70.0511317,17.4232353 L70.0511317,2.67629412 C70.0511317,1.15617647 69.3193659,0.415705882 67.8189561,0.415705882 L64.0877756,0.415705882 L64.0877756,4.13552941 L65.5251415,4.13552941 C65.7669561,4.13552941 65.8454537,4.21370588 65.8454537,4.46041176 L65.8454537,7.12582353 C65.2294146,6.56182353 64.0261366,5.81976471 61.9541171,5.81976471 C57.9026244,5.81976471 55.0756585,9.10211765 55.0756585,13.8017059 C55.0756585,18.5762941 57.7839122,21.7822353 61.8139805,21.7822353 C64.1171024,21.7822353 65.4450634,20.698 66.0935902,19.9416471 C66.1782341,20.6011176 66.5988195,21.4352941 68.1608683,21.4352941 L71.778078,21.4352941 L71.778078,17.7497059 L70.3714439,17.7497059 C70.1405171,17.7497059 70.0511317,17.6561765 70.0511317,17.4232353 Z M81.0688878,5.96323529 C79.3312293,5.96323529 77.7321268,6.98041176 76.7831317,8.60058824 L76.7831317,8.25205882 C76.7831317,6.86782353 76.0297659,6.16476471 74.5509561,6.16476471 L70.9614927,6.16476471 L70.9614927,9.88317647 L72.397278,9.88317647 C72.6390927,9.88317647 72.7191707,9.96135294 72.7191707,10.2082353 L72.7191707,21.4352941 L76.8942927,21.4352941 L76.8942927,15.3248235 C76.8942927,14.5201176 76.9959707,13.7454118 77.1930049,13.0282353 C77.8216878,10.9206471 79.491561,10.1706471 80.8425268,10.1706471 C81.3217659,10.1706471 81.6698244,10.2221765 81.6759707,10.2237647 L82.0242049,10.2768823 L82.0242049,6.06805882 L81.769922,6.02429412 C81.7576293,6.02111765 81.4034244,5.96323529 81.0690634,5.96323529 L81.0688878,5.96323529 Z M87.9666634,17.4230588 L87.9666634,8.42552941 C87.9666634,6.90541176 87.2473659,6.16494118 85.7668,6.16494118 L82.3915805,6.16494118 L82.3915805,9.88317647 L83.4698244,9.88317647 C83.7133951,9.88317647 83.7903122,9.96294118 83.7903122,10.2082353 L83.7903122,19.1745294 C83.7903122,20.7181176 84.4913463,21.4351176 85.9933366,21.4351176 L89.7260976,21.4351176 L89.7260976,17.7497059 L88.2871512,17.7497059 C88.0560488,17.7497059 87.9666634,17.6558235 87.9666634,17.4232353 L87.9666634,17.4230588 Z"/>
        <path d="M103.728868,6.16511765 L101.501259,6.16511765 C100.199463,6.16511765 99.5015902,6.62288235 99.0887317,7.74629412 L96.3667805,15.4562941 C96.2726537,15.7421765 96.1848488,16.0626471 96.1093366,16.3704118 C96.030839,16.0626471 95.9368878,15.7375882 95.8336293,15.4517059 L93.1115024,7.74470588 C92.694078,6.60894118 92.0192098,6.16529412 90.7005561,6.16529412 L88.3312293,6.16529412 L88.3312293,9.88352941 L88.9458634,9.88352941 C89.2724976,9.88352941 89.3773366,9.99594118 89.4542537,10.2022353 L93.6676585,21.4354706 L98.3631122,21.4354706 L102.576517,10.2022353 C102.653434,9.99594118 102.761434,9.88352941 103.087893,9.88352941 L103.728868,9.88352941 L103.728868,6.16529412 L103.728868,6.16511765 Z M107.768244,11.5977647 C108.225883,10.0995294 109.353649,9.24947059 110.917278,9.24947059 C112.177454,9.24947059 113.143307,10.2197059 113.314351,11.5977647 L107.768244,11.5977647 Z M110.917278,5.82011765 C106.420439,5.82011765 103.276146,9.10264706 103.276146,13.8022353 C103.276146,18.4252353 106.66682,21.7825882 111.34401,21.7825882 C115.024263,21.7825882 117.273473,19.5735294 117.367424,19.4796471 L117.536888,19.3111176 L115.722137,16.2504118 L115.444673,16.5098235 C115.430976,16.5239412 113.771815,18.0657647 111.599698,18.0657647 C109.506078,18.0657647 107.974761,16.7706471 107.612829,14.7396471 L117.516868,14.7396471 L117.539873,14.4615294 C117.544615,14.4239412 117.629434,13.5227059 117.629434,13.0818824 C117.629434,8.73858824 114.931893,5.82011765 110.917278,5.82011765 Z M22.3709756,0.416588235 L18.6489268,0.416588235 L18.6489268,4.39282353 L22.3709756,4.39282353 L22.3709756,0.416588235 Z M87.6830537,0.416588235 L83.9596,0.416588235 L83.9596,4.39282353 L87.6830537,4.39282353 L87.6830537,0.416588235 Z"/>
      </g>
    </g>
    <g transform="translate(153 402)">
      <use fill="#000" filter="url(#webhook-p)" xlink:href="#webhook-q"/>
      <use fill="#FFF" stroke="#8D8D8D" stroke-opacity=".24" xlink:href="#webhook-q"/>
      <path fill="#3197D6" fill-rule="nonzero" d="M2.77197452,27.1538028 L16.3220382,13.5769014 C18.0749045,11.8369014 19.1673885,9.41887324 19.1673885,6.75577465 C19.1673885,4.12535211 18.1075159,1.74 16.395414,0 L2.84535032,13.5769014 C1.08433121,15.3169014 0,17.7267606 0,20.3980282 C0,23.0284507 1.05987261,25.4138028 2.77197452,27.1538028 Z M35.5628025,19.1890141 L22.0127389,32.7659155 C20.2598726,34.5059155 19.1673885,36.9239437 19.1673885,39.5870423 C19.1673885,42.2174648 20.2272611,44.6028169 21.9393631,46.3428169 L35.4894268,32.7659155 C37.242293,31.0259155 38.3347771,28.6078873 38.3347771,25.9447887 C38.3347771,23.3143662 37.2749045,20.9290141 35.5628025,19.1890141 Z M35.4812739,13.5769014 C37.2341401,11.8369014 38.3184713,9.42704225 38.3184713,6.75577465 C38.3184713,4.12535211 37.2585987,1.74 35.5464968,0.00816901408 L2.84535032,32.7740845 C1.09248408,34.5140845 0,36.9321127 0,39.5952113 C0,42.2256338 1.05987261,44.6109859 2.77197452,46.3428169 L35.4812739,13.5769014 Z" transform="translate(31.8 28.6)"/>
    </g>
    <g transform="rotate(-33 579.957 -571.82)">
      <rect width="21" height="20.833" x=".791" y="3.967" fill="#01B2D0" opacity=".1" rx="3"/>
      <rect width="19" height="18.833" x="4.64" y="1.376" stroke="#01B2D0" stroke-width="2" rx="3"/>
    </g>
    <g transform="rotate(38 -572.921 355.087)">
      <rect width="19.32" height="19.167" x=".728" y="3.65" fill="#01B2D0" opacity=".1" rx="3"/>
      <rect width="17.32" height="17.167" x="4.349" y="1.346" stroke="#01B2D0" stroke-width="2" rx="3"/>
    </g>
    <g transform="rotate(34 -558.368 817.518)">
      <ellipse cx="22.223" cy="16.325" stroke="#FFC111" stroke-width="2" rx="14.955" ry="14.609"/>
      <ellipse cx="16.842" cy="20.989" fill="#FFC111" opacity=".2" rx="15.955" ry="15.609"/>
    </g>
    <g transform="rotate(-30 70.423 -147.13)">
      <path fill="#6FD350" d="M16.5321914,12.4496462 L22.0600555,23.5053743 C23.0480125,25.4812882 22.2471151,27.8839804 20.2712011,28.8719374 C19.7157794,29.1496483 19.1033271,29.2942286 18.4823467,29.2942286 L7.42661863,29.2942286 C5.21747963,29.2942286 3.42661863,27.5033676 3.42661863,25.2942286 C3.42661863,24.6732483 3.57119899,24.060796 3.84890986,23.5053743 L9.37677391,12.4496462 C10.3647309,10.4737322 12.7674231,9.67283479 14.7433371,10.6607918 C15.5174467,11.0478466 16.1451366,11.6755366 16.5321914,12.4496462 Z" opacity=".2"/>
      <path stroke="#6FD350" stroke-width="2" d="M20.8698151,7.83468193 C20.5795239,7.25409972 20.1087565,6.78333225 19.5281743,6.49304114 C18.0462388,5.7520734 16.2442197,6.35274644 15.5032519,7.83468193 L9.97538786,18.89041 C9.76710471,19.3069763 9.65866943,19.7663155 9.65866943,20.2320508 C9.65866943,21.8889051 11.0018152,23.2320508 12.6586694,23.2320508 L23.7143975,23.2320508 C24.1801328,23.2320508 24.639472,23.1236155 25.0560383,22.9153324 C26.5379738,22.1743646 27.1386468,20.3723455 26.3976791,18.89041 L20.8698151,7.83468193 Z"/>
    </g>
  </g>
</svg>
