<svg xmlns="http://www.w3.org/2000/svg" xmlns:xlink="http://www.w3.org/1999/xlink" width="576" height="593" viewBox="0 0 576 593">
  <defs>
    <rect id="workflows-2-b" width="240" height="104" rx="10"/>
    <filter id="workflows-2-a" width="122.1%" height="151%" x="-11%" y="-21.6%" filterUnits="objectBoundingBox">
      <feMorphology in="SourceAlpha" operator="dilate" radius=".5" result="shadowSpreadOuter1"/>
      <feOffset dy="4" in="shadowSpreadOuter1" result="shadowOffsetOuter1"/>
      <feGaussianBlur in="shadowOffsetOuter1" result="shadowBlurOuter1" stdDeviation="8"/>
      <feComposite in="shadowBlurOuter1" in2="SourceAlpha" operator="out" result="shadowBlurOuter1"/>
      <feColorMatrix in="shadowBlurOuter1" values="0 0 0 0 0   0 0 0 0 0   0 0 0 0 0  0 0 0 0.12 0"/>
    </filter>
    <rect id="workflows-2-d" width="240" height="171" rx="10"/>
    <filter id="workflows-2-c" width="122.1%" height="131%" x="-11%" y="-13.2%" filterUnits="objectBoundingBox">
      <feMorphology in="SourceAlpha" operator="dilate" radius=".5" result="shadowSpreadOuter1"/>
      <feOffset dy="4" in="shadowSpreadOuter1" result="shadowOffsetOuter1"/>
      <feGaussianBlur in="shadowOffsetOuter1" result="shadowBlurOuter1" stdDeviation="8"/>
      <feComposite in="shadowBlurOuter1" in2="SourceAlpha" operator="out" result="shadowBlurOuter1"/>
      <feColorMatrix in="shadowBlurOuter1" values="0 0 0 0 0   0 0 0 0 0   0 0 0 0 0  0 0 0 0.12 0"/>
    </filter>
    <rect id="workflows-2-f" width="240" height="84" rx="10"/>
    <filter id="workflows-2-e" width="122.1%" height="163.1%" x="-11%" y="-26.8%" filterUnits="objectBoundingBox">
      <feMorphology in="SourceAlpha" operator="dilate" radius=".5" result="shadowSpreadOuter1"/>
      <feOffset dy="4" in="shadowSpreadOuter1" result="shadowOffsetOuter1"/>
      <feGaussianBlur in="shadowOffsetOuter1" result="shadowBlurOuter1" stdDeviation="8"/>
      <feComposite in="shadowBlurOuter1" in2="SourceAlpha" operator="out" result="shadowBlurOuter1"/>
      <feColorMatrix in="shadowBlurOuter1" values="0 0 0 0 0   0 0 0 0 0   0 0 0 0 0  0 0 0 0.12 0"/>
    </filter>
    <rect id="workflows-2-h" width="240" height="122" rx="10"/>
    <filter id="workflows-2-g" width="122.1%" height="143.4%" x="-11%" y="-18.4%" filterUnits="objectBoundingBox">
      <feMorphology in="SourceAlpha" operator="dilate" radius=".5" result="shadowSpreadOuter1"/>
      <feOffset dy="4" in="shadowSpreadOuter1" result="shadowOffsetOuter1"/>
      <feGaussianBlur in="shadowOffsetOuter1" result="shadowBlurOuter1" stdDeviation="8"/>
      <feComposite in="shadowBlurOuter1" in2="SourceAlpha" operator="out" result="shadowBlurOuter1"/>
      <feColorMatrix in="shadowBlurOuter1" values="0 0 0 0 0   0 0 0 0 0   0 0 0 0 0  0 0 0 0.12 0"/>
    </filter>
    <rect id="workflows-2-j" width="240" height="104" rx="10"/>
    <filter id="workflows-2-i" width="122.1%" height="151%" x="-11%" y="-21.6%" filterUnits="objectBoundingBox">
      <feMorphology in="SourceAlpha" operator="dilate" radius=".5" result="shadowSpreadOuter1"/>
      <feOffset dy="4" in="shadowSpreadOuter1" result="shadowOffsetOuter1"/>
      <feGaussianBlur in="shadowOffsetOuter1" result="shadowBlurOuter1" stdDeviation="8"/>
      <feComposite in="shadowBlurOuter1" in2="SourceAlpha" operator="out" result="shadowBlurOuter1"/>
      <feColorMatrix in="shadowBlurOuter1" values="0 0 0 0 0   0 0 0 0 0   0 0 0 0 0  0 0 0 0.12 0"/>
    </filter>
  </defs>
  <g fill="none" fill-rule="evenodd" transform="translate(16 12)">
    <rect width="309" height="356" x="189" y="100" fill="#FFF3CF"/>
    <path stroke="#01B2D0" stroke-width="2" d="M273.5,83 L273.5,127.868678"/>
    <path stroke="#A96EFD" stroke-width="2" d="M273.5,203 L273.5,247.868678"/>
    <path stroke="#FFC111" stroke-linecap="round" stroke-linejoin="round" stroke-width="2" d="M217.5,405 L217.5,413.929687 C217.5,419.452535 213.022847,423.929687 207.5,423.929687 L134,423.929687 C128.477153,423.929687 124,428.40684 124,433.929687 L124,441.063991"/>
    <path stroke="#FFC111" stroke-linecap="round" stroke-linejoin="round" stroke-width="2" d="M424.5,405 L424.5,413.929687 C424.5,419.452535 420.022847,423.929687 414.5,423.929687 L341,423.929687 C335.477153,423.929687 331,428.40684 331,433.929687 L331,441.063991" transform="matrix(-1 0 0 1 755.5 0)"/>
    <g transform="translate(153)">
      <use fill="#000" filter="url(#workflows-2-a)" xlink:href="#workflows-2-b"/>
      <use fill="#FFF" stroke="#8D8D8D" stroke-opacity=".24" xlink:href="#workflows-2-b"/>
      <path fill="#384254" fill-rule="nonzero" d="M25.128,63 L23.49,63 L23.49,58.912 L18.632,58.912 L18.632,63 L16.994,63 L16.994,53.662 L18.632,53.662 L18.632,57.47 L23.49,57.47 L23.49,53.662 L25.128,53.662 L25.128,63 Z M30.21,63.168 C28.166,63.168 26.668,61.754 26.668,59.612 C26.668,57.652 28.096,56.07 30.098,56.07 C32.128,56.07 33.416,57.61 33.416,59.738 L33.416,60.102 L28.208,60.102 C28.32,61.11 29.076,61.964 30.35,61.964 C31.022,61.964 31.792,61.698 32.282,61.208 L32.954,62.174 C32.268,62.818 31.274,63.168 30.21,63.168 Z M32.002,59.052 C31.96,58.254 31.414,57.274 30.084,57.274 C28.838,57.274 28.25,58.24 28.194,59.052 L32.002,59.052 Z M34.592,65.646 L34.802,64.33 C34.956,64.4 35.194,64.442 35.362,64.442 C35.838,64.442 36.146,64.302 36.342,63.854 L36.678,63.084 L33.892,56.238 L35.474,56.238 L37.448,61.306 L39.422,56.238 L40.99,56.238 L37.728,64.218 C37.266,65.366 36.468,65.73 35.418,65.744 C35.208,65.744 34.788,65.702 34.592,65.646 Z M48.774,63.168 C47.052,63.168 45.806,62.552 44.966,61.684 L45.89,60.41 C46.52,61.096 47.542,61.712 48.844,61.712 C50.188,61.712 50.706,61.054 50.706,60.424 C50.706,58.464 45.274,59.682 45.274,56.252 C45.274,54.698 46.618,53.508 48.676,53.508 C50.118,53.508 51.308,53.984 52.162,54.824 L51.238,56.042 C50.496,55.3 49.502,54.964 48.522,54.964 C47.57,54.964 46.954,55.44 46.954,56.126 C46.954,57.876 52.386,56.798 52.386,60.27 C52.386,61.824 51.28,63.168 48.774,63.168 Z M59.456,63 L57.986,63 L57.986,62.258 C57.482,62.846 56.684,63.168 55.788,63.168 C54.696,63.168 53.45,62.412 53.45,60.928 C53.45,59.36 54.682,58.716 55.788,58.716 C56.712,58.716 57.482,59.01 57.986,59.584 L57.986,58.576 C57.986,57.792 57.328,57.316 56.404,57.316 C55.648,57.316 54.976,57.596 54.402,58.184 L53.786,57.162 C54.57,56.406 55.55,56.07 56.628,56.07 C58.14,56.07 59.456,56.7 59.456,58.506 L59.456,63 Z M56.376,62.16 C57.006,62.16 57.636,61.922 57.986,61.46 L57.986,60.424 C57.636,59.962 57.006,59.724 56.376,59.724 C55.55,59.724 54.92,60.214 54.92,60.942 C54.92,61.684 55.55,62.16 56.376,62.16 Z M62.83,63 L61.36,63 L61.36,56.238 L62.83,56.238 L62.83,57.218 C63.348,56.574 64.16,56.07 65.028,56.07 L65.028,57.526 C64.902,57.498 64.762,57.484 64.58,57.484 C63.95,57.484 63.124,57.904 62.83,58.394 L62.83,63 Z M71.832,63 L70.362,63 L70.362,62.258 C69.858,62.846 69.06,63.168 68.164,63.168 C67.072,63.168 65.826,62.412 65.826,60.928 C65.826,59.36 67.058,58.716 68.164,58.716 C69.088,58.716 69.858,59.01 70.362,59.584 L70.362,58.576 C70.362,57.792 69.704,57.316 68.78,57.316 C68.024,57.316 67.352,57.596 66.778,58.184 L66.162,57.162 C66.946,56.406 67.926,56.07 69.004,56.07 C70.516,56.07 71.832,56.7 71.832,58.506 L71.832,63 Z M68.752,62.16 C69.382,62.16 70.012,61.922 70.362,61.46 L70.362,60.424 C70.012,59.962 69.382,59.724 68.752,59.724 C67.926,59.724 67.296,60.214 67.296,60.942 C67.296,61.684 67.926,62.16 68.752,62.16 Z M79.784,63 L78.314,63 L78.314,58.744 C78.314,57.68 77.782,57.372 76.956,57.372 C76.2,57.372 75.556,57.82 75.22,58.268 L75.22,63 L73.75,63 L73.75,53.662 L75.22,53.662 L75.22,57.148 C75.668,56.616 76.536,56.07 77.6,56.07 C79.056,56.07 79.784,56.826 79.784,58.212 L79.784,63 Z"/>
      <path fill="#384254" fill-rule="nonzero" d="M17.638,83 L16.588,83 L17.876,77.162 L16.756,77.162 L16.966,76.238 L18.086,76.238 L18.198,75.72 C18.492,74.446 19.122,73.522 20.424,73.522 C21.04,73.522 21.516,73.69 21.922,74.096 L21.362,74.74 C21.166,74.516 20.914,74.39 20.508,74.39 C19.794,74.39 19.43,74.88 19.248,75.72 L19.136,76.238 L20.508,76.238 L20.298,77.162 L18.926,77.162 L17.638,83 Z M21.32,83 L20.27,83 L21.768,76.238 L22.818,76.238 L22.58,77.26 C23.252,76.504 23.938,76.084 25.1,76.084 L24.862,77.176 C24.778,77.148 24.568,77.12 24.33,77.12 C23.546,77.12 22.804,77.652 22.37,78.226 L21.32,83 Z M28.25,83.168 C26.318,83.168 25.156,81.95 25.156,80.158 C25.156,78.03 26.752,76.07 28.922,76.07 C30.854,76.07 32.016,77.288 32.016,79.066 C32.016,81.208 30.42,83.168 28.25,83.168 Z M28.278,82.23 C29.818,82.23 30.91,80.704 30.91,79.108 C30.91,77.834 30.168,77.008 28.894,77.008 C27.368,77.008 26.262,78.534 26.262,80.13 C26.262,81.404 27.004,82.23 28.278,82.23 Z M42.11,83 L41.06,83 L42.068,78.464 C42.082,78.394 42.11,78.226 42.11,78.086 C42.11,77.386 41.578,77.008 40.962,77.008 C40.304,77.008 39.59,77.512 39.114,78.072 L38.022,83 L36.972,83 L37.98,78.464 C38.022,78.282 38.036,78.184 38.036,78.03 C38.036,77.442 37.63,77.008 36.86,77.008 C36.216,77.008 35.516,77.526 35.04,78.072 L33.948,83 L32.898,83 L34.396,76.238 L35.446,76.238 L35.222,77.218 C35.6,76.784 36.384,76.07 37.35,76.07 C38.554,76.07 39.128,76.938 39.128,77.414 L39.128,77.428 C39.66,76.756 40.458,76.07 41.438,76.07 C42.376,76.07 43.216,76.644 43.216,77.736 C43.216,77.89 43.174,78.142 43.146,78.31 L42.11,83 Z M52.4,83 L50.762,83 L50.762,75.104 L47.934,75.104 L47.934,73.662 L55.228,73.662 L55.228,75.104 L52.4,75.104 L52.4,83 Z M56.992,83 L55.522,83 L55.522,76.238 L56.992,76.238 L56.992,77.218 C57.51,76.574 58.322,76.07 59.19,76.07 L59.19,77.526 C59.064,77.498 58.924,77.484 58.742,77.484 C58.112,77.484 57.286,77.904 56.992,78.394 L56.992,83 Z M66.414,83 L64.944,83 L64.944,82.104 C64.468,82.636 63.628,83.168 62.564,83.168 C61.108,83.168 60.38,82.398 60.38,81.026 L60.38,76.238 L61.85,76.238 L61.85,80.48 C61.85,81.53 62.382,81.866 63.222,81.866 C63.964,81.866 64.608,81.432 64.944,80.984 L64.944,76.238 L66.414,76.238 L66.414,83 Z M71.454,83.168 C69.41,83.168 67.912,81.754 67.912,79.612 C67.912,77.652 69.34,76.07 71.342,76.07 C73.372,76.07 74.66,77.61 74.66,79.738 L74.66,80.102 L69.452,80.102 C69.564,81.11 70.32,81.964 71.594,81.964 C72.266,81.964 73.036,81.698 73.526,81.208 L74.198,82.174 C73.512,82.818 72.518,83.168 71.454,83.168 Z M73.246,79.052 C73.204,78.254 72.658,77.274 71.328,77.274 C70.082,77.274 69.494,78.24 69.438,79.052 L73.246,79.052 Z M82.976,83.168 C81.254,83.168 80.008,82.552 79.168,81.684 L80.092,80.41 C80.722,81.096 81.744,81.712 83.046,81.712 C84.39,81.712 84.908,81.054 84.908,80.424 C84.908,78.464 79.476,79.682 79.476,76.252 C79.476,74.698 80.82,73.508 82.878,73.508 C84.32,73.508 85.51,73.984 86.364,74.824 L85.44,76.042 C84.698,75.3 83.704,74.964 82.724,74.964 C81.772,74.964 81.156,75.44 81.156,76.126 C81.156,77.876 86.588,76.798 86.588,80.27 C86.588,81.824 85.482,83.168 82.976,83.168 Z M89.878,83.168 C88.73,83.168 88.142,82.552 88.142,81.418 L88.142,77.512 L87.022,77.512 L87.022,76.238 L88.142,76.238 L88.142,74.39 L89.612,74.39 L89.612,76.238 L90.984,76.238 L90.984,77.512 L89.612,77.512 L89.612,81.054 C89.612,81.516 89.836,81.866 90.256,81.866 C90.536,81.866 90.788,81.74 90.9,81.614 L91.25,82.734 C90.984,82.972 90.55,83.168 89.878,83.168 Z M95.366,83.168 C93.21,83.168 91.894,81.544 91.894,79.612 C91.894,77.666 93.21,76.07 95.366,76.07 C97.522,76.07 98.838,77.666 98.838,79.612 C98.838,81.544 97.522,83.168 95.366,83.168 Z M95.366,81.866 C96.626,81.866 97.312,80.816 97.312,79.612 C97.312,78.422 96.626,77.372 95.366,77.372 C94.12,77.372 93.42,78.422 93.42,79.612 C93.42,80.816 94.12,81.866 95.366,81.866 Z M101.806,83 L100.336,83 L100.336,76.238 L101.806,76.238 L101.806,77.218 C102.324,76.574 103.136,76.07 104.004,76.07 L104.004,77.526 C103.878,77.498 103.738,77.484 103.556,77.484 C102.926,77.484 102.1,77.904 101.806,78.394 L101.806,83 Z M104.914,85.646 L105.124,84.33 C105.278,84.4 105.516,84.442 105.684,84.442 C106.16,84.442 106.468,84.302 106.664,83.854 L107,83.084 L104.214,76.238 L105.796,76.238 L107.77,81.306 L109.744,76.238 L111.312,76.238 L108.05,84.218 C107.588,85.366 106.79,85.73 105.74,85.744 C105.53,85.744 105.11,85.702 104.914,85.646 Z" opacity=".5"/>
      <path fill="#384254" fill-rule="nonzero" d="M53.708,34 L51.458,34 L49.136,25.126 L46.796,34 L44.546,34 L41.126,21.994 L43.466,21.994 L45.806,31.228 L48.29,21.994 L49.964,21.994 L52.448,31.228 L54.788,21.994 L57.146,21.994 L53.708,34 Z M61.79,34.216 C59.162,34.216 57.236,32.398 57.236,29.644 C57.236,27.124 59.072,25.09 61.646,25.09 C64.256,25.09 65.912,27.07 65.912,29.806 L65.912,30.274 L59.216,30.274 C59.36,31.57 60.332,32.668 61.97,32.668 C62.834,32.668 63.824,32.326 64.454,31.696 L65.318,32.938 C64.436,33.766 63.158,34.216 61.79,34.216 Z M64.094,28.924 C64.04,27.898 63.338,26.638 61.628,26.638 C60.026,26.638 59.27,27.88 59.198,28.924 L64.094,28.924 Z M69.674,34 L67.784,34 L67.784,21.994 L69.674,21.994 L69.674,34 Z M76.082,34.216 C73.454,34.216 71.6,32.272 71.6,29.644 C71.6,27.016 73.454,25.09 76.082,25.09 C77.792,25.09 78.8,25.81 79.412,26.638 L78.17,27.772 C77.684,27.088 77.018,26.764 76.172,26.764 C74.606,26.764 73.544,27.952 73.544,29.644 C73.544,31.336 74.606,32.542 76.172,32.542 C77.018,32.542 77.684,32.182 78.17,31.498 L79.412,32.668 C78.8,33.478 77.792,34.216 76.082,34.216 Z M85.028,34.216 C82.256,34.216 80.564,32.128 80.564,29.644 C80.564,27.142 82.256,25.09 85.028,25.09 C87.8,25.09 89.492,27.142 89.492,29.644 C89.492,32.128 87.8,34.216 85.028,34.216 Z M85.028,32.542 C86.648,32.542 87.53,31.192 87.53,29.644 C87.53,28.114 86.648,26.764 85.028,26.764 C83.426,26.764 82.526,28.114 82.526,29.644 C82.526,31.192 83.426,32.542 85.028,32.542 Z M103.982,34 L102.092,34 L102.092,28.33 C102.092,27.394 101.678,26.764 100.652,26.764 C99.806,26.764 99.014,27.34 98.636,27.916 L98.636,34 L96.746,34 L96.746,28.33 C96.746,27.394 96.35,26.764 95.324,26.764 C94.478,26.764 93.704,27.358 93.308,27.916 L93.308,34 L91.418,34 L91.418,25.306 L93.308,25.306 L93.308,26.476 C93.686,25.954 94.82,25.09 96.152,25.09 C97.448,25.09 98.24,25.738 98.528,26.674 C99.014,25.9 100.166,25.09 101.48,25.09 C103.064,25.09 103.982,25.954 103.982,27.718 L103.982,34 Z M110.462,34.216 C107.834,34.216 105.908,32.398 105.908,29.644 C105.908,27.124 107.744,25.09 110.318,25.09 C112.928,25.09 114.584,27.07 114.584,29.806 L114.584,30.274 L107.888,30.274 C108.032,31.57 109.004,32.668 110.642,32.668 C111.506,32.668 112.496,32.326 113.126,31.696 L113.99,32.938 C113.108,33.766 111.83,34.216 110.462,34.216 Z M112.766,28.924 C112.712,27.898 112.01,26.638 110.3,26.638 C108.698,26.638 107.942,27.88 107.87,28.924 L112.766,28.924 Z"/>
      <path fill="#01B2D0" d="M2,5.99201702 C2,4.8918564 2.89339733,4 3.99188419,4 L15.0081158,4 C16.1082031,4 17,4.90017617 17,5.99201702 L17,13.007983 C17,14.1081436 16.1066027,15 15.0081158,15 L3.99188419,15 C2.89179693,15 2,14.0998238 2,13.007983 L2,5.99201702 Z M9.5,10.7956346 L4.35364752,5.64654076 C4.15843737,5.45122663 3.84185489,5.45114234 3.64654076,5.64635248 C3.45122663,5.84156263 3.45114234,6.15814511 3.64635248,6.35345924 L9.14635248,11.8563889 C9.34163614,12.0517766 9.65836386,12.0517766 9.85364752,11.8563889 L15.3536475,6.35345924 C15.5488577,6.15814511 15.5487734,5.84156263 15.3534592,5.64635248 C15.1581451,5.45114234 14.8415626,5.45122663 14.6463525,5.64654076 L9.5,10.7956346 Z" transform="translate(16 18)"/>
    </g>
    <g transform="translate(153 236)">
      <use fill="#000" filter="url(#workflows-2-c)" xlink:href="#workflows-2-d"/>
      <use fill="#FFF" stroke="#8D8D8D" stroke-opacity=".24" xlink:href="#workflows-2-d"/>
      <rect width="240" height="1" y="122" fill="#E1E1E1"/>
      <rect width="1" height="48" x="120" y="123" fill="#E1E1E1"/>
      <path fill="#384254" fill-rule="nonzero" d="M25.128 63L23.49 63 23.49 58.912 18.632 58.912 18.632 63 16.994 63 16.994 53.662 18.632 53.662 18.632 57.47 23.49 57.47 23.49 53.662 25.128 53.662 25.128 63zM32.688 63L31.218 63 31.218 62.258C30.714 62.846 29.916 63.168 29.02 63.168 27.928 63.168 26.682 62.412 26.682 60.928 26.682 59.36 27.914 58.716 29.02 58.716 29.944 58.716 30.714 59.01 31.218 59.584L31.218 58.576C31.218 57.792 30.56 57.316 29.636 57.316 28.88 57.316 28.208 57.596 27.634 58.184L27.018 57.162C27.802 56.406 28.782 56.07 29.86 56.07 31.372 56.07 32.688 56.7 32.688 58.506L32.688 63zM29.608 62.16C30.238 62.16 30.868 61.922 31.218 61.46L31.218 60.424C30.868 59.962 30.238 59.724 29.608 59.724 28.782 59.724 28.152 60.214 28.152 60.942 28.152 61.684 28.782 62.16 29.608 62.16zM36.916 63.168C35.754 63.168 34.718 62.79 34.018 62.104L34.69 61.054C35.166 61.544 36.104 61.992 36.972 61.992 37.854 61.992 38.316 61.628 38.316 61.096 38.316 59.766 34.228 60.718 34.228 58.114 34.228 57.008 35.18 56.07 36.888 56.07 38.036 56.07 38.904 56.476 39.506 57.008L38.89 58.044C38.484 57.596 37.742 57.232 36.888 57.232 36.118 57.232 35.642 57.596 35.642 58.072 35.642 59.262 39.73 58.366 39.73 61.054 39.73 62.258 38.736 63.168 36.916 63.168zM46.856 63.168C45.708 63.168 45.12 62.552 45.12 61.418L45.12 57.512 44 57.512 44 56.238 45.12 56.238 45.12 54.39 46.59 54.39 46.59 56.238 47.962 56.238 47.962 57.512 46.59 57.512 46.59 61.054C46.59 61.516 46.814 61.866 47.234 61.866 47.514 61.866 47.766 61.74 47.878 61.614L48.228 62.734C47.962 62.972 47.528 63.168 46.856 63.168zM50.748 63L49.278 63 49.278 56.238 50.748 56.238 50.748 57.218C51.266 56.574 52.078 56.07 52.946 56.07L52.946 57.526C52.82 57.498 52.68 57.484 52.498 57.484 51.868 57.484 51.042 57.904 50.748 58.394L50.748 63zM54.878 55.412C54.374 55.412 53.968 55.006 53.968 54.502 53.968 53.998 54.374 53.592 54.878 53.592 55.382 53.592 55.788 53.998 55.788 54.502 55.788 55.006 55.382 55.412 54.878 55.412zM55.606 63L54.136 63 54.136 56.238 55.606 56.238 55.606 63zM60.268 65.744C59.12 65.744 58.266 65.492 57.426 64.736L58.112 63.672C58.672 64.302 59.372 64.54 60.268 64.54 61.234 64.54 62.27 64.092 62.27 62.65L62.27 61.88C61.752 62.566 60.982 63.014 60.1 63.014 58.378 63.014 57.104 61.768 57.104 59.542 57.104 57.344 58.35 56.07 60.1 56.07 60.954 56.07 61.724 56.448 62.27 57.176L62.27 56.238 63.74 56.238 63.74 62.65C63.74 65.086 61.92 65.744 60.268 65.744zM60.534 61.698C61.22 61.698 61.934 61.292 62.27 60.802L62.27 58.268C61.934 57.778 61.22 57.372 60.534 57.372 59.358 57.372 58.616 58.24 58.616 59.542 58.616 60.844 59.358 61.698 60.534 61.698zM68.402 65.744C67.254 65.744 66.4 65.492 65.56 64.736L66.246 63.672C66.806 64.302 67.506 64.54 68.402 64.54 69.368 64.54 70.404 64.092 70.404 62.65L70.404 61.88C69.886 62.566 69.116 63.014 68.234 63.014 66.512 63.014 65.238 61.768 65.238 59.542 65.238 57.344 66.484 56.07 68.234 56.07 69.088 56.07 69.858 56.448 70.404 57.176L70.404 56.238 71.874 56.238 71.874 62.65C71.874 65.086 70.054 65.744 68.402 65.744zM68.668 61.698C69.354 61.698 70.068 61.292 70.404 60.802L70.404 58.268C70.068 57.778 69.354 57.372 68.668 57.372 67.492 57.372 66.75 58.24 66.75 59.542 66.75 60.844 67.492 61.698 68.668 61.698zM76.914 63.168C74.87 63.168 73.372 61.754 73.372 59.612 73.372 57.652 74.8 56.07 76.802 56.07 78.832 56.07 80.12 57.61 80.12 59.738L80.12 60.102 74.912 60.102C75.024 61.11 75.78 61.964 77.054 61.964 77.726 61.964 78.496 61.698 78.986 61.208L79.658 62.174C78.972 62.818 77.978 63.168 76.914 63.168zM78.706 59.052C78.664 58.254 78.118 57.274 76.788 57.274 75.542 57.274 74.954 58.24 74.898 59.052L78.706 59.052zM83.046 63L81.576 63 81.576 56.238 83.046 56.238 83.046 57.218C83.564 56.574 84.376 56.07 85.244 56.07L85.244 57.526C85.118 57.498 84.978 57.484 84.796 57.484 84.166 57.484 83.34 57.904 83.046 58.394L83.046 63zM89.57 63.168C87.526 63.168 86.028 61.754 86.028 59.612 86.028 57.652 87.456 56.07 89.458 56.07 91.488 56.07 92.776 57.61 92.776 59.738L92.776 60.102 87.568 60.102C87.68 61.11 88.436 61.964 89.71 61.964 90.382 61.964 91.152 61.698 91.642 61.208L92.314 62.174C91.628 62.818 90.634 63.168 89.57 63.168zM91.362 59.052C91.32 58.254 90.774 57.274 89.444 57.274 88.198 57.274 87.61 58.24 87.554 59.052L91.362 59.052zM100.462 63L98.992 63 98.992 62.076C98.474 62.748 97.704 63.168 96.822 63.168 95.1 63.168 93.826 61.852 93.826 59.612 93.826 57.428 95.086 56.07 96.822 56.07 97.676 56.07 98.46 56.448 98.992 57.176L98.992 53.662 100.462 53.662 100.462 63zM97.256 61.866C97.942 61.866 98.67 61.46 98.992 60.956L98.992 58.282C98.67 57.778 97.942 57.372 97.256 57.372 96.08 57.372 95.338 58.31 95.338 59.612 95.338 60.928 96.08 61.866 97.256 61.866zM111.592 63L110.122 63 110.122 62.258C109.618 62.846 108.82 63.168 107.924 63.168 106.832 63.168 105.586 62.412 105.586 60.928 105.586 59.36 106.818 58.716 107.924 58.716 108.848 58.716 109.618 59.01 110.122 59.584L110.122 58.576C110.122 57.792 109.464 57.316 108.54 57.316 107.784 57.316 107.112 57.596 106.538 58.184L105.922 57.162C106.706 56.406 107.686 56.07 108.764 56.07 110.276 56.07 111.592 56.7 111.592 58.506L111.592 63zM108.512 62.16C109.142 62.16 109.772 61.922 110.122 61.46L110.122 60.424C109.772 59.962 109.142 59.724 108.512 59.724 107.686 59.724 107.056 60.214 107.056 60.942 107.056 61.684 107.686 62.16 108.512 62.16zM119.544 63L118.074 63 118.074 58.772C118.074 57.708 117.528 57.372 116.702 57.372 115.96 57.372 115.316 57.82 114.966 58.268L114.966 63 113.496 63 113.496 56.238 114.966 56.238 114.966 57.148C115.414 56.616 116.296 56.07 117.36 56.07 118.816 56.07 119.544 56.854 119.544 58.24L119.544 63zM128.196 63.168C126.152 63.168 124.654 61.754 124.654 59.612 124.654 57.652 126.082 56.07 128.084 56.07 130.114 56.07 131.402 57.61 131.402 59.738L131.402 60.102 126.194 60.102C126.306 61.11 127.062 61.964 128.336 61.964 129.008 61.964 129.778 61.698 130.268 61.208L130.94 62.174C130.254 62.818 129.26 63.168 128.196 63.168zM129.988 59.052C129.946 58.254 129.4 57.274 128.07 57.274 126.824 57.274 126.236 58.24 126.18 59.052L129.988 59.052zM136.218 63L134.636 63 131.878 56.238 133.46 56.238 135.434 61.306 137.408 56.238 138.976 56.238 136.218 63zM143.036 63.168C140.992 63.168 139.494 61.754 139.494 59.612 139.494 57.652 140.922 56.07 142.924 56.07 144.954 56.07 146.242 57.61 146.242 59.738L146.242 60.102 141.034 60.102C141.146 61.11 141.902 61.964 143.176 61.964 143.848 61.964 144.618 61.698 145.108 61.208L145.78 62.174C145.094 62.818 144.1 63.168 143.036 63.168zM144.828 59.052C144.786 58.254 144.24 57.274 142.91 57.274 141.664 57.274 141.076 58.24 141.02 59.052L144.828 59.052zM153.746 63L152.276 63 152.276 58.772C152.276 57.708 151.73 57.372 150.904 57.372 150.162 57.372 149.518 57.82 149.168 58.268L149.168 63 147.698 63 147.698 56.238 149.168 56.238 149.168 57.148C149.616 56.616 150.498 56.07 151.562 56.07 153.018 56.07 153.746 56.854 153.746 58.24L153.746 63zM157.694 63.168C156.546 63.168 155.958 62.552 155.958 61.418L155.958 57.512 154.838 57.512 154.838 56.238 155.958 56.238 155.958 54.39 157.428 54.39 157.428 56.238 158.8 56.238 158.8 57.512 157.428 57.512 157.428 61.054C157.428 61.516 157.652 61.866 158.072 61.866 158.352 61.866 158.604 61.74 158.716 61.614L159.066 62.734C158.8 62.972 158.366 63.168 157.694 63.168zM51.047 151L49.409 151 49.409 143.104 46.581 143.104 46.581 141.662 53.875 141.662 53.875 143.104 51.047 143.104 51.047 151zM55.639 151L54.169 151 54.169 144.238 55.639 144.238 55.639 145.218C56.157 144.574 56.969 144.07 57.837 144.07L57.837 145.526C57.711 145.498 57.571 145.484 57.389 145.484 56.759 145.484 55.933 145.904 55.639 146.394L55.639 151zM65.061 151L63.591 151 63.591 150.104C63.115 150.636 62.275 151.168 61.211 151.168 59.755 151.168 59.027 150.398 59.027 149.026L59.027 144.238 60.497 144.238 60.497 148.48C60.497 149.53 61.029 149.866 61.869 149.866 62.611 149.866 63.255 149.432 63.591 148.984L63.591 144.238 65.061 144.238 65.061 151zM70.101 151.168C68.057 151.168 66.559 149.754 66.559 147.612 66.559 145.652 67.987 144.07 69.989 144.07 72.019 144.07 73.307 145.61 73.307 147.738L73.307 148.102 68.099 148.102C68.211 149.11 68.967 149.964 70.241 149.964 70.913 149.964 71.683 149.698 72.173 149.208L72.845 150.174C72.159 150.818 71.165 151.168 70.101 151.168zM71.893 147.052C71.851 146.254 71.305 145.274 69.975 145.274 68.729 145.274 68.141 146.24 68.085 147.052L71.893 147.052zM166.042 151L164.404 151 164.404 141.662 170.802 141.662 170.802 143.104 166.042 143.104 166.042 145.512 170.704 145.512 170.704 146.954 166.042 146.954 166.042 151zM177.858 151L176.388 151 176.388 150.258C175.884 150.846 175.086 151.168 174.19 151.168 173.098 151.168 171.852 150.412 171.852 148.928 171.852 147.36 173.084 146.716 174.19 146.716 175.114 146.716 175.884 147.01 176.388 147.584L176.388 146.576C176.388 145.792 175.73 145.316 174.806 145.316 174.05 145.316 173.378 145.596 172.804 146.184L172.188 145.162C172.972 144.406 173.952 144.07 175.03 144.07 176.542 144.07 177.858 144.7 177.858 146.506L177.858 151zM174.778 150.16C175.408 150.16 176.038 149.922 176.388 149.46L176.388 148.424C176.038 147.962 175.408 147.724 174.778 147.724 173.952 147.724 173.322 148.214 173.322 148.942 173.322 149.684 173.952 150.16 174.778 150.16zM181.232 151L179.762 151 179.762 141.662 181.232 141.662 181.232 151zM185.46 151.168C184.298 151.168 183.262 150.79 182.562 150.104L183.234 149.054C183.71 149.544 184.648 149.992 185.516 149.992 186.398 149.992 186.86 149.628 186.86 149.096 186.86 147.766 182.772 148.718 182.772 146.114 182.772 145.008 183.724 144.07 185.432 144.07 186.58 144.07 187.448 144.476 188.05 145.008L187.434 146.044C187.028 145.596 186.286 145.232 185.432 145.232 184.662 145.232 184.186 145.596 184.186 146.072 184.186 147.262 188.274 146.366 188.274 149.054 188.274 150.258 187.28 151.168 185.46 151.168zM192.88 151.168C190.836 151.168 189.338 149.754 189.338 147.612 189.338 145.652 190.766 144.07 192.768 144.07 194.798 144.07 196.086 145.61 196.086 147.738L196.086 148.102 190.878 148.102C190.99 149.11 191.746 149.964 193.02 149.964 193.692 149.964 194.462 149.698 194.952 149.208L195.624 150.174C194.938 150.818 193.944 151.168 192.88 151.168zM194.672 147.052C194.63 146.254 194.084 145.274 192.754 145.274 191.508 145.274 190.92 146.24 190.864 147.052L194.672 147.052z"/>
      <path fill="#384254" fill-rule="nonzero" d="M18.254,83 L17.092,83 L17.092,73.662 L20.844,73.662 C22.72,73.662 23.77,74.95 23.77,76.476 C23.77,78.002 22.706,79.29 20.844,79.29 L18.254,79.29 L18.254,83 Z M20.704,78.254 C21.81,78.254 22.566,77.526 22.566,76.476 C22.566,75.426 21.81,74.698 20.704,74.698 L18.254,74.698 L18.254,78.254 L20.704,78.254 Z M30.882,83 L29.832,83 L29.832,82.048 C29.314,82.636 28.432,83.168 27.424,83.168 C26.01,83.168 25.268,82.468 25.268,81.012 L25.268,76.238 L26.318,76.238 L26.318,80.69 C26.318,81.88 26.92,82.23 27.844,82.23 C28.656,82.23 29.44,81.754 29.832,81.208 L29.832,76.238 L30.882,76.238 L30.882,83 Z M34.032,83 L32.982,83 L32.982,76.238 L34.032,76.238 L34.032,77.316 C34.578,76.616 35.362,76.084 36.286,76.084 L36.286,77.162 C36.16,77.148 36.034,77.134 35.88,77.134 C35.222,77.134 34.34,77.666 34.032,78.212 L34.032,83 Z M40.584,83.168 C38.568,83.168 37.21,81.614 37.21,79.612 C37.21,77.61 38.568,76.07 40.584,76.07 C41.816,76.07 42.544,76.574 43.062,77.246 L42.362,77.876 C41.914,77.26 41.34,77.008 40.64,77.008 C39.212,77.008 38.302,78.114 38.302,79.612 C38.302,81.11 39.212,82.23 40.64,82.23 C41.34,82.23 41.914,81.95 42.362,81.348 L43.062,81.992 C42.544,82.664 41.816,83.168 40.584,83.168 Z M50.174,83 L49.124,83 L49.124,78.548 C49.124,77.344 48.522,77.008 47.598,77.008 C46.786,77.008 46.002,77.512 45.61,78.058 L45.61,83 L44.56,83 L44.56,73.662 L45.61,73.662 L45.61,77.218 C46.072,76.644 46.996,76.07 48.018,76.07 C49.432,76.07 50.174,76.756 50.174,78.226 L50.174,83 Z M57.552,83 L56.502,83 L56.502,82.23 C55.956,82.846 55.172,83.168 54.262,83.168 C53.128,83.168 51.91,82.398 51.91,80.928 C51.91,79.402 53.114,78.702 54.262,78.702 C55.186,78.702 55.956,78.996 56.502,79.612 L56.502,78.394 C56.502,77.498 55.774,76.98 54.794,76.98 C53.982,76.98 53.324,77.26 52.722,77.918 L52.232,77.19 C52.96,76.434 53.828,76.07 54.934,76.07 C56.376,76.07 57.552,76.714 57.552,78.352 L57.552,83 Z M54.654,82.412 C55.382,82.412 56.096,82.132 56.502,81.572 L56.502,80.284 C56.096,79.738 55.382,79.458 54.654,79.458 C53.66,79.458 52.974,80.074 52.974,80.928 C52.974,81.796 53.66,82.412 54.654,82.412 Z M61.822,83.168 C60.702,83.168 59.778,82.818 59.092,82.104 L59.624,81.348 C60.072,81.866 60.926,82.314 61.85,82.314 C62.886,82.314 63.46,81.824 63.46,81.152 C63.46,79.514 59.274,80.522 59.274,78.016 C59.274,76.952 60.17,76.07 61.78,76.07 C62.942,76.07 63.754,76.504 64.286,77.05 L63.796,77.778 C63.39,77.288 62.662,76.924 61.78,76.924 C60.856,76.924 60.282,77.386 60.282,77.988 C60.282,79.458 64.468,78.492 64.468,81.124 C64.468,82.258 63.558,83.168 61.822,83.168 Z M69.242,83.168 C67.226,83.168 65.784,81.726 65.784,79.612 C65.784,77.652 67.184,76.07 69.116,76.07 C71.16,76.07 72.364,77.666 72.364,79.696 L72.364,79.962 L66.904,79.962 C66.988,81.236 67.87,82.3 69.326,82.3 C70.11,82.3 70.88,81.992 71.426,81.432 L71.93,82.118 C71.244,82.79 70.334,83.168 69.242,83.168 Z M71.328,79.178 C71.314,78.184 70.642,76.938 69.102,76.938 C67.66,76.938 66.946,78.156 66.89,79.178 L71.328,79.178 Z M80.008,83 L78.958,83 L78.958,81.992 C78.454,82.678 77.628,83.168 76.676,83.168 C74.912,83.168 73.666,81.824 73.666,79.626 C73.666,77.456 74.912,76.07 76.676,76.07 C77.586,76.07 78.412,76.518 78.958,77.26 L78.958,73.662 L80.008,73.662 L80.008,83 Z M76.942,82.23 C77.768,82.23 78.594,81.74 78.958,81.152 L78.958,78.1 C78.594,77.512 77.768,77.008 76.942,77.008 C75.57,77.008 74.758,78.128 74.758,79.626 C74.758,81.124 75.57,82.23 76.942,82.23 Z M86.266,75.272 C85.874,75.272 85.552,74.964 85.552,74.572 C85.552,74.18 85.874,73.858 86.266,73.858 C86.658,73.858 86.966,74.18 86.966,74.572 C86.966,74.964 86.658,75.272 86.266,75.272 Z M86.784,83 L85.734,83 L85.734,76.238 L86.784,76.238 L86.784,83 Z M90.606,83.168 C89.598,83.168 89.094,82.594 89.094,81.586 L89.094,77.162 L87.974,77.162 L87.974,76.238 L89.094,76.238 L89.094,74.39 L90.158,74.39 L90.158,76.238 L91.53,76.238 L91.53,77.162 L90.158,77.162 L90.158,81.362 C90.158,81.866 90.382,82.23 90.83,82.23 C91.138,82.23 91.404,82.09 91.544,81.936 L91.852,82.734 C91.586,82.986 91.208,83.168 90.606,83.168 Z M96.066,83.168 C94.05,83.168 92.608,81.726 92.608,79.612 C92.608,77.652 94.008,76.07 95.94,76.07 C97.984,76.07 99.188,77.666 99.188,79.696 L99.188,79.962 L93.728,79.962 C93.812,81.236 94.694,82.3 96.15,82.3 C96.934,82.3 97.704,81.992 98.25,81.432 L98.754,82.118 C98.068,82.79 97.158,83.168 96.066,83.168 Z M98.152,79.178 C98.138,78.184 97.466,76.938 95.926,76.938 C94.484,76.938 93.77,78.156 93.714,79.178 L98.152,79.178 Z M110.094,83 L109.044,83 L109.044,78.408 C109.044,77.554 108.68,77.008 107.798,77.008 C107.098,77.008 106.356,77.498 106.006,78.044 L106.006,83 L104.956,83 L104.956,78.408 C104.956,77.554 104.606,77.008 103.71,77.008 C103.024,77.008 102.296,77.512 101.932,78.058 L101.932,83 L100.882,83 L100.882,76.238 L101.932,76.238 L101.932,77.218 C102.226,76.784 103.122,76.07 104.13,76.07 C105.152,76.07 105.74,76.63 105.936,77.33 C106.314,76.714 107.224,76.07 108.204,76.07 C109.436,76.07 110.094,76.756 110.094,78.114 L110.094,83 Z M118.536,85.744 C117.402,85.744 116.618,85.52 115.806,84.722 L116.338,83.966 C116.898,84.624 117.57,84.876 118.536,84.876 C119.656,84.876 120.72,84.33 120.72,82.902 L120.72,81.88 C120.216,82.566 119.39,83.084 118.438,83.084 C116.674,83.084 115.428,81.768 115.428,79.584 C115.428,77.414 116.66,76.07 118.438,76.07 C119.348,76.07 120.174,76.518 120.72,77.26 L120.72,76.238 L121.77,76.238 L121.77,82.902 C121.77,85.044 120.188,85.744 118.536,85.744 Z M118.704,82.146 C119.53,82.146 120.342,81.642 120.72,81.054 L120.72,78.086 C120.342,77.512 119.53,77.008 118.704,77.008 C117.332,77.008 116.52,78.086 116.52,79.584 C116.52,81.068 117.332,82.146 118.704,82.146 Z M124.92,83 L123.87,83 L123.87,76.238 L124.92,76.238 L124.92,77.316 C125.466,76.616 126.25,76.084 127.174,76.084 L127.174,77.162 C127.048,77.148 126.922,77.134 126.768,77.134 C126.11,77.134 125.228,77.666 124.92,78.212 L124.92,83 Z M131.556,83.168 C129.54,83.168 128.098,81.726 128.098,79.612 C128.098,77.652 129.498,76.07 131.43,76.07 C133.474,76.07 134.678,77.666 134.678,79.696 L134.678,79.962 L129.218,79.962 C129.302,81.236 130.184,82.3 131.64,82.3 C132.424,82.3 133.194,81.992 133.74,81.432 L134.244,82.118 C133.558,82.79 132.648,83.168 131.556,83.168 Z M133.642,79.178 C133.628,78.184 132.956,76.938 131.416,76.938 C129.974,76.938 129.26,78.156 129.204,79.178 L133.642,79.178 Z M141.65,83 L140.6,83 L140.6,82.23 C140.054,82.846 139.27,83.168 138.36,83.168 C137.226,83.168 136.008,82.398 136.008,80.928 C136.008,79.402 137.212,78.702 138.36,78.702 C139.284,78.702 140.054,78.996 140.6,79.612 L140.6,78.394 C140.6,77.498 139.872,76.98 138.892,76.98 C138.08,76.98 137.422,77.26 136.82,77.918 L136.33,77.19 C137.058,76.434 137.926,76.07 139.032,76.07 C140.474,76.07 141.65,76.714 141.65,78.352 L141.65,83 Z M138.752,82.412 C139.48,82.412 140.194,82.132 140.6,81.572 L140.6,80.284 C140.194,79.738 139.48,79.458 138.752,79.458 C137.758,79.458 137.072,80.074 137.072,80.928 C137.072,81.796 137.758,82.412 138.752,82.412 Z M145.486,83.168 C144.478,83.168 143.974,82.594 143.974,81.586 L143.974,77.162 L142.854,77.162 L142.854,76.238 L143.974,76.238 L143.974,74.39 L145.038,74.39 L145.038,76.238 L146.41,76.238 L146.41,77.162 L145.038,77.162 L145.038,81.362 C145.038,81.866 145.262,82.23 145.71,82.23 C146.018,82.23 146.284,82.09 146.424,81.936 L146.732,82.734 C146.466,82.986 146.088,83.168 145.486,83.168 Z M150.946,83.168 C148.93,83.168 147.488,81.726 147.488,79.612 C147.488,77.652 148.888,76.07 150.82,76.07 C152.864,76.07 154.068,77.666 154.068,79.696 L154.068,79.962 L148.608,79.962 C148.692,81.236 149.574,82.3 151.03,82.3 C151.814,82.3 152.584,81.992 153.13,81.432 L153.634,82.118 C152.948,82.79 152.038,83.168 150.946,83.168 Z M153.032,79.178 C153.018,78.184 152.346,76.938 150.806,76.938 C149.364,76.938 148.65,78.156 148.594,79.178 L153.032,79.178 Z M156.812,83 L155.762,83 L155.762,76.238 L156.812,76.238 L156.812,77.316 C157.358,76.616 158.142,76.084 159.066,76.084 L159.066,77.162 C158.94,77.148 158.814,77.134 158.66,77.134 C158.002,77.134 157.12,77.666 156.812,78.212 L156.812,83 Z M165.73,83.168 C164.722,83.168 164.218,82.594 164.218,81.586 L164.218,77.162 L163.098,77.162 L163.098,76.238 L164.218,76.238 L164.218,74.39 L165.282,74.39 L165.282,76.238 L166.654,76.238 L166.654,77.162 L165.282,77.162 L165.282,81.362 C165.282,81.866 165.506,82.23 165.954,82.23 C166.262,82.23 166.528,82.09 166.668,81.936 L166.976,82.734 C166.71,82.986 166.332,83.168 165.73,83.168 Z M173.752,83 L172.702,83 L172.702,78.548 C172.702,77.344 172.1,77.008 171.176,77.008 C170.364,77.008 169.58,77.512 169.188,78.058 L169.188,83 L168.138,83 L168.138,73.662 L169.188,73.662 L169.188,77.218 C169.65,76.644 170.574,76.07 171.596,76.07 C173.01,76.07 173.752,76.756 173.752,78.226 L173.752,83 Z M181.13,83 L180.08,83 L180.08,82.23 C179.534,82.846 178.75,83.168 177.84,83.168 C176.706,83.168 175.488,82.398 175.488,80.928 C175.488,79.402 176.692,78.702 177.84,78.702 C178.764,78.702 179.534,78.996 180.08,79.612 L180.08,78.394 C180.08,77.498 179.352,76.98 178.372,76.98 C177.56,76.98 176.902,77.26 176.3,77.918 L175.81,77.19 C176.538,76.434 177.406,76.07 178.512,76.07 C179.954,76.07 181.13,76.714 181.13,78.352 L181.13,83 Z M178.232,82.412 C178.96,82.412 179.674,82.132 180.08,81.572 L180.08,80.284 C179.674,79.738 178.96,79.458 178.232,79.458 C177.238,79.458 176.552,80.074 176.552,80.928 C176.552,81.796 177.238,82.412 178.232,82.412 Z M188.858,83 L187.822,83 L187.822,78.576 C187.822,77.372 187.206,77.008 186.296,77.008 C185.47,77.008 184.7,77.512 184.294,78.058 L184.294,83 L183.244,83 L183.244,76.238 L184.294,76.238 L184.294,77.218 C184.77,76.644 185.694,76.07 186.716,76.07 C188.116,76.07 188.858,76.784 188.858,78.254 L188.858,83 Z M20.004,101.168 C17.946,101.168 16.658,99.572 16.658,97.612 C16.658,95.652 17.946,94.07 20.004,94.07 C22.062,94.07 23.35,95.652 23.35,97.612 C23.35,99.572 22.062,101.168 20.004,101.168 Z M20.004,100.23 C21.446,100.23 22.244,98.998 22.244,97.612 C22.244,96.24 21.446,95.008 20.004,95.008 C18.562,95.008 17.764,96.24 17.764,97.612 C17.764,98.998 18.562,100.23 20.004,100.23 Z M26.108,101 L25.058,101 L25.058,94.238 L26.108,94.238 L26.108,95.316 C26.654,94.616 27.438,94.084 28.362,94.084 L28.362,95.162 C28.236,95.148 28.11,95.134 27.956,95.134 C27.298,95.134 26.416,95.666 26.108,96.212 L26.108,101 Z M36.37,101.168 C34.354,101.168 32.912,99.726 32.912,97.612 C32.912,95.652 34.312,94.07 36.244,94.07 C38.288,94.07 39.492,95.666 39.492,97.696 L39.492,97.962 L34.032,97.962 C34.116,99.236 34.998,100.3 36.454,100.3 C37.238,100.3 38.008,99.992 38.554,99.432 L39.058,100.118 C38.372,100.79 37.462,101.168 36.37,101.168 Z M38.456,97.178 C38.442,96.184 37.77,94.938 36.23,94.938 C34.788,94.938 34.074,96.156 34.018,97.178 L38.456,97.178 Z M44.028,100.23 C44.854,100.23 45.68,99.726 46.044,99.138 L46.044,96.086 C45.68,95.498 44.854,95.008 44.028,95.008 C42.67,95.008 41.858,96.114 41.858,97.612 C41.858,99.11 42.67,100.23 44.028,100.23 Z M43.762,101.168 C41.984,101.168 40.752,99.796 40.752,97.612 C40.752,95.414 41.984,94.07 43.762,94.07 C44.714,94.07 45.554,94.56 46.044,95.246 L46.044,94.238 L47.094,94.238 L47.094,103.576 L46.044,103.576 L46.044,99.978 C45.484,100.72 44.686,101.168 43.762,101.168 Z M54.808,101 L53.758,101 L53.758,100.048 C53.24,100.636 52.358,101.168 51.35,101.168 C49.936,101.168 49.194,100.468 49.194,99.012 L49.194,94.238 L50.244,94.238 L50.244,98.69 C50.244,99.88 50.846,100.23 51.77,100.23 C52.582,100.23 53.366,99.754 53.758,99.208 L53.758,94.238 L54.808,94.238 L54.808,101 Z M62.186,101 L61.136,101 L61.136,100.23 C60.59,100.846 59.806,101.168 58.896,101.168 C57.762,101.168 56.544,100.398 56.544,98.928 C56.544,97.402 57.748,96.702 58.896,96.702 C59.82,96.702 60.59,96.996 61.136,97.612 L61.136,96.394 C61.136,95.498 60.408,94.98 59.428,94.98 C58.616,94.98 57.958,95.26 57.356,95.918 L56.866,95.19 C57.594,94.434 58.462,94.07 59.568,94.07 C61.01,94.07 62.186,94.714 62.186,96.352 L62.186,101 Z M59.288,100.412 C60.016,100.412 60.73,100.132 61.136,99.572 L61.136,98.284 C60.73,97.738 60.016,97.458 59.288,97.458 C58.294,97.458 57.608,98.074 57.608,98.928 C57.608,99.796 58.294,100.412 59.288,100.412 Z M65.35,101 L64.3,101 L64.3,91.662 L65.35,91.662 L65.35,101 Z M72.798,101.168 C71.79,101.168 71.286,100.594 71.286,99.586 L71.286,95.162 L70.166,95.162 L70.166,94.238 L71.286,94.238 L71.286,92.39 L72.35,92.39 L72.35,94.238 L73.722,94.238 L73.722,95.162 L72.35,95.162 L72.35,99.362 C72.35,99.866 72.574,100.23 73.022,100.23 C73.33,100.23 73.596,100.09 73.736,99.936 L74.044,100.734 C73.778,100.986 73.4,101.168 72.798,101.168 Z M78.146,101.168 C76.088,101.168 74.8,99.572 74.8,97.612 C74.8,95.652 76.088,94.07 78.146,94.07 C80.204,94.07 81.492,95.652 81.492,97.612 C81.492,99.572 80.204,101.168 78.146,101.168 Z M78.146,100.23 C79.588,100.23 80.386,98.998 80.386,97.612 C80.386,96.24 79.588,95.008 78.146,95.008 C76.704,95.008 75.906,96.24 75.906,97.612 C75.906,98.998 76.704,100.23 78.146,100.23 Z M89.43,101 L88.268,101 L88.268,93.188 L86.77,94.784 L86.07,94.07 L88.408,91.662 L89.43,91.662 L89.43,101 Z M96.92,101.168 C95.912,101.168 95.408,100.594 95.408,99.586 L95.408,95.162 L94.288,95.162 L94.288,94.238 L95.408,94.238 L95.408,92.39 L96.472,92.39 L96.472,94.238 L97.844,94.238 L97.844,95.162 L96.472,95.162 L96.472,99.362 C96.472,99.866 96.696,100.23 97.144,100.23 C97.452,100.23 97.718,100.09 97.858,99.936 L98.166,100.734 C97.9,100.986 97.522,101.168 96.92,101.168 Z M99.846,93.272 C99.454,93.272 99.132,92.964 99.132,92.572 C99.132,92.18 99.454,91.858 99.846,91.858 C100.238,91.858 100.546,92.18 100.546,92.572 C100.546,92.964 100.238,93.272 99.846,93.272 Z M100.364,101 L99.314,101 L99.314,94.238 L100.364,94.238 L100.364,101 Z M111.676,101 L110.626,101 L110.626,96.408 C110.626,95.554 110.262,95.008 109.38,95.008 C108.68,95.008 107.938,95.498 107.588,96.044 L107.588,101 L106.538,101 L106.538,96.408 C106.538,95.554 106.188,95.008 105.292,95.008 C104.606,95.008 103.878,95.512 103.514,96.058 L103.514,101 L102.464,101 L102.464,94.238 L103.514,94.238 L103.514,95.218 C103.808,94.784 104.704,94.07 105.712,94.07 C106.734,94.07 107.322,94.63 107.518,95.33 C107.896,94.714 108.806,94.07 109.786,94.07 C111.018,94.07 111.676,94.756 111.676,96.114 L111.676,101 Z M116.842,101.168 C114.826,101.168 113.384,99.726 113.384,97.612 C113.384,95.652 114.784,94.07 116.716,94.07 C118.76,94.07 119.964,95.666 119.964,97.696 L119.964,97.962 L114.504,97.962 C114.588,99.236 115.47,100.3 116.926,100.3 C117.71,100.3 118.48,99.992 119.026,99.432 L119.53,100.118 C118.844,100.79 117.934,101.168 116.842,101.168 Z M118.928,97.178 C118.914,96.184 118.242,94.938 116.702,94.938 C115.26,94.938 114.546,96.156 114.49,97.178 L118.928,97.178 Z M123.814,101.168 C122.694,101.168 121.77,100.818 121.084,100.104 L121.616,99.348 C122.064,99.866 122.918,100.314 123.842,100.314 C124.878,100.314 125.452,99.824 125.452,99.152 C125.452,97.514 121.266,98.522 121.266,96.016 C121.266,94.952 122.162,94.07 123.772,94.07 C124.934,94.07 125.746,94.504 126.278,95.05 L125.788,95.778 C125.382,95.288 124.654,94.924 123.772,94.924 C122.848,94.924 122.274,95.386 122.274,95.988 C122.274,97.458 126.46,96.492 126.46,99.124 C126.46,100.258 125.55,101.168 123.814,101.168 Z M134.748,101.168 C132.69,101.168 131.402,99.572 131.402,97.612 C131.402,95.652 132.69,94.07 134.748,94.07 C136.806,94.07 138.094,95.652 138.094,97.612 C138.094,99.572 136.806,101.168 134.748,101.168 Z M134.748,100.23 C136.19,100.23 136.988,98.998 136.988,97.612 C136.988,96.24 136.19,95.008 134.748,95.008 C133.306,95.008 132.508,96.24 132.508,97.612 C132.508,98.998 133.306,100.23 134.748,100.23 Z M142.756,101 L141.608,101 L138.794,94.238 L139.942,94.238 L142.182,99.782 L144.436,94.238 L145.57,94.238 L142.756,101 Z M149.728,101.168 C147.712,101.168 146.27,99.726 146.27,97.612 C146.27,95.652 147.67,94.07 149.602,94.07 C151.646,94.07 152.85,95.666 152.85,97.696 L152.85,97.962 L147.39,97.962 C147.474,99.236 148.356,100.3 149.812,100.3 C150.596,100.3 151.366,99.992 151.912,99.432 L152.416,100.118 C151.73,100.79 150.82,101.168 149.728,101.168 Z M151.814,97.178 C151.8,96.184 151.128,94.938 149.588,94.938 C148.146,94.938 147.432,96.156 147.376,97.178 L151.814,97.178 Z M155.594,101 L154.544,101 L154.544,94.238 L155.594,94.238 L155.594,95.316 C156.14,94.616 156.924,94.084 157.848,94.084 L157.848,95.162 C157.722,95.148 157.596,95.134 157.442,95.134 C156.784,95.134 155.902,95.666 155.594,96.212 L155.594,101 Z" opacity=".5"/>
      <path fill="#384254" fill-rule="nonzero" d="M48.344,34 L42.278,34 L42.278,21.994 L48.182,21.994 C50.396,21.994 51.602,23.362 51.602,25.054 C51.602,26.548 50.63,27.574 49.514,27.808 C50.81,28.006 51.836,29.284 51.836,30.742 C51.836,32.614 50.612,34 48.344,34 Z M47.768,26.944 C48.83,26.944 49.442,26.314 49.442,25.396 C49.442,24.514 48.83,23.848 47.768,23.848 L44.384,23.848 L44.384,26.944 L47.768,26.944 Z M47.858,32.146 C48.992,32.146 49.676,31.516 49.676,30.472 C49.676,29.572 49.046,28.798 47.858,28.798 L44.384,28.798 L44.384,32.146 L47.858,32.146 Z M55.796,34 L53.906,34 L53.906,25.306 L55.796,25.306 L55.796,26.566 C56.462,25.738 57.506,25.09 58.622,25.09 L58.622,26.962 C58.46,26.926 58.28,26.908 58.046,26.908 C57.236,26.908 56.174,27.448 55.796,28.078 L55.796,34 Z M67.37,34 L65.48,34 L65.48,33.046 C64.832,33.802 63.806,34.216 62.654,34.216 C61.25,34.216 59.648,33.244 59.648,31.336 C59.648,29.32 61.232,28.492 62.654,28.492 C63.842,28.492 64.832,28.87 65.48,29.608 L65.48,28.312 C65.48,27.304 64.634,26.692 63.446,26.692 C62.474,26.692 61.61,27.052 60.872,27.808 L60.08,26.494 C61.088,25.522 62.348,25.09 63.734,25.09 C65.678,25.09 67.37,25.9 67.37,28.222 L67.37,34 Z M63.41,32.92 C64.22,32.92 65.03,32.614 65.48,32.02 L65.48,30.688 C65.03,30.094 64.22,29.788 63.41,29.788 C62.348,29.788 61.538,30.418 61.538,31.354 C61.538,32.308 62.348,32.92 63.41,32.92 Z M77.594,34 L75.704,34 L75.704,28.564 C75.704,27.196 75.002,26.764 73.94,26.764 C72.986,26.764 72.158,27.34 71.708,27.916 L71.708,34 L69.818,34 L69.818,25.306 L71.708,25.306 L71.708,26.476 C72.284,25.792 73.418,25.09 74.786,25.09 C76.658,25.09 77.594,26.098 77.594,27.88 L77.594,34 Z M84.002,34.216 C81.374,34.216 79.52,32.272 79.52,29.644 C79.52,27.016 81.374,25.09 84.002,25.09 C85.712,25.09 86.72,25.81 87.332,26.638 L86.09,27.772 C85.604,27.088 84.938,26.764 84.092,26.764 C82.526,26.764 81.464,27.952 81.464,29.644 C81.464,31.336 82.526,32.542 84.092,32.542 C84.938,32.542 85.604,32.182 86.09,31.498 L87.332,32.668 C86.72,33.478 85.712,34.216 84.002,34.216 Z M96.782,34 L94.892,34 L94.892,28.528 C94.892,27.16 94.208,26.764 93.146,26.764 C92.174,26.764 91.346,27.34 90.914,27.916 L90.914,34 L89.024,34 L89.024,21.994 L90.914,21.994 L90.914,26.476 C91.49,25.792 92.606,25.09 93.974,25.09 C95.846,25.09 96.782,26.062 96.782,27.844 L96.782,34 Z"/>
      <path fill="#FFC111" d="M7,13 L7.89623853,13 C8.1723809,13 8.39623853,13.2238576 8.39623853,13.5 C8.39623853,13.6211109 8.35227992,13.7381052 8.27252825,13.8292507 L5.87443252,16.5699546 C5.69259236,16.7777737 5.37671114,16.7988338 5.16889207,16.6169936 C5.15218662,16.6023764 5.13647311,16.5866631 5.12185583,16.5699577 L2.72371978,13.8292539 C2.54187789,13.6214363 2.56293532,13.3055549 2.77075288,13.123713 C2.86189884,13.0439596 2.97889446,13 3.10000675,13 L4,13 L4,11 L4,10.25 C4,10.0926213 4.07409708,9.94442719 4.2,9.85 L7.8,7.15 C7.92590292,7.05557281 8,6.90737865 8,6.75 L8,2.5 C8,2.22385763 8.22385763,2 8.5,2 L10.5,2 C10.7761424,2 11,2.22385763 11,2.5 L11,6 L11.0015869,6 L11.0015869,6.75 C11.0015869,6.90737865 11.075684,7.05557281 11.2015869,7.15 L14.8015869,9.85 C14.9274898,9.94442719 15.0015869,10.0926213 15.0015869,10.25 L15.0015869,11 L15,11.000529 L15,13 L15.896239,13 C16.1723814,13 16.396239,13.2238576 16.396239,13.5 C16.396239,13.6211109 16.3522804,13.7381052 16.2725287,13.8292507 L13.874433,16.5699546 C13.6925928,16.7777737 13.3767116,16.7988338 13.1688925,16.6169936 C13.1521871,16.6023764 13.1364736,16.5866631 13.1218563,16.5699577 L10.7237203,13.8292539 C10.5418784,13.6214363 10.5629358,13.3055549 10.7707534,13.123713 C10.8618993,13.0439596 10.9788949,13 11.1000072,13 L12,13 L12,11.2101631 C11.9886391,11.0678588 11.9168065,10.9364147 11.8015869,10.85 L9.50079346,9.12440491 L7.2,10.85 C7.07409708,10.9444272 7,11.0926213 7,11.25 L7,12 L7,13 Z" opacity=".6" transform="translate(16 18)"/>
    </g>
    <g transform="translate(153 128)">
      <use fill="#000" filter="url(#workflows-2-e)" xlink:href="#workflows-2-f"/>
      <use fill="#FFF" stroke="#8D8D8D" stroke-opacity=".24" xlink:href="#workflows-2-f"/>
      <path fill="#384254" fill-rule="nonzero" d="M25.492 63L24.232 63 22.174 55.468 20.116 63 18.856 63 16.196 53.662 17.484 53.662 19.556 61.446 21.698 53.662 22.664 53.662 24.806 61.446 26.864 53.662 28.166 53.662 25.492 63zM34.13 63L33.08 63 33.08 62.23C32.534 62.846 31.75 63.168 30.84 63.168 29.706 63.168 28.488 62.398 28.488 60.928 28.488 59.402 29.692 58.702 30.84 58.702 31.764 58.702 32.534 58.996 33.08 59.612L33.08 58.394C33.08 57.498 32.352 56.98 31.372 56.98 30.56 56.98 29.902 57.26 29.3 57.918L28.81 57.19C29.538 56.434 30.406 56.07 31.512 56.07 32.954 56.07 34.13 56.714 34.13 58.352L34.13 63zM31.232 62.412C31.96 62.412 32.674 62.132 33.08 61.572L33.08 60.284C32.674 59.738 31.96 59.458 31.232 59.458 30.238 59.458 29.552 60.074 29.552 60.928 29.552 61.796 30.238 62.412 31.232 62.412zM36.776 55.272C36.384 55.272 36.062 54.964 36.062 54.572 36.062 54.18 36.384 53.858 36.776 53.858 37.168 53.858 37.476 54.18 37.476 54.572 37.476 54.964 37.168 55.272 36.776 55.272zM37.294 63L36.244 63 36.244 56.238 37.294 56.238 37.294 63zM41.116 63.168C40.108 63.168 39.604 62.594 39.604 61.586L39.604 57.162 38.484 57.162 38.484 56.238 39.604 56.238 39.604 54.39 40.668 54.39 40.668 56.238 42.04 56.238 42.04 57.162 40.668 57.162 40.668 61.362C40.668 61.866 40.892 62.23 41.34 62.23 41.648 62.23 41.914 62.09 42.054 61.936L42.362 62.734C42.096 62.986 41.718 63.168 41.116 63.168zM48.48 63L47.43 63 47.43 57.162 46.31 57.162 46.31 56.238 47.43 56.238 47.43 55.72C47.43 54.334 48.2 53.522 49.39 53.522 49.936 53.522 50.398 53.648 50.818 54.04L50.384 54.712C50.16 54.516 49.894 54.39 49.558 54.39 48.858 54.39 48.48 54.852 48.48 55.72L48.48 56.238 49.852 56.238 49.852 57.162 48.48 57.162 48.48 63zM54.066 63.168C52.008 63.168 50.72 61.572 50.72 59.612 50.72 57.652 52.008 56.07 54.066 56.07 56.124 56.07 57.412 57.652 57.412 59.612 57.412 61.572 56.124 63.168 54.066 63.168zM54.066 62.23C55.508 62.23 56.306 60.998 56.306 59.612 56.306 58.24 55.508 57.008 54.066 57.008 52.624 57.008 51.826 58.24 51.826 59.612 51.826 60.998 52.624 62.23 54.066 62.23zM60.17 63L59.12 63 59.12 56.238 60.17 56.238 60.17 57.316C60.716 56.616 61.5 56.084 62.424 56.084L62.424 57.162C62.298 57.148 62.172 57.134 62.018 57.134 61.36 57.134 60.478 57.666 60.17 58.212L60.17 63zM70.642 63L69.004 63 69.004 55.776 67.478 57.372 66.526 56.378 69.214 53.662 70.642 53.662 70.642 63zM82.43 63L80.96 63 80.96 62.076C80.442 62.748 79.672 63.168 78.79 63.168 77.068 63.168 75.794 61.852 75.794 59.612 75.794 57.428 77.054 56.07 78.79 56.07 79.644 56.07 80.428 56.448 80.96 57.176L80.96 53.662 82.43 53.662 82.43 63zM79.224 61.866C79.91 61.866 80.638 61.46 80.96 60.956L80.96 58.282C80.638 57.778 79.91 57.372 79.224 57.372 78.048 57.372 77.306 58.31 77.306 59.612 77.306 60.928 78.048 61.866 79.224 61.866zM89.948 63L88.478 63 88.478 62.258C87.974 62.846 87.176 63.168 86.28 63.168 85.188 63.168 83.942 62.412 83.942 60.928 83.942 59.36 85.174 58.716 86.28 58.716 87.204 58.716 87.974 59.01 88.478 59.584L88.478 58.576C88.478 57.792 87.82 57.316 86.896 57.316 86.14 57.316 85.468 57.596 84.894 58.184L84.278 57.162C85.062 56.406 86.042 56.07 87.12 56.07 88.632 56.07 89.948 56.7 89.948 58.506L89.948 63zM86.868 62.16C87.498 62.16 88.128 61.922 88.478 61.46L88.478 60.424C88.128 59.962 87.498 59.724 86.868 59.724 86.042 59.724 85.412 60.214 85.412 60.942 85.412 61.684 86.042 62.16 86.868 62.16zM91.572 65.646L91.782 64.33C91.936 64.4 92.174 64.442 92.342 64.442 92.818 64.442 93.126 64.302 93.322 63.854L93.658 63.084 90.872 56.238 92.454 56.238 94.428 61.306 96.402 56.238 97.97 56.238 94.708 64.218C94.246 65.366 93.448 65.73 92.398 65.744 92.188 65.744 91.768 65.702 91.572 65.646zM46.76 34L42.278 34 42.278 21.994 46.742 21.994C50.504 21.994 53.024 24.478 53.024 27.988 53.024 31.534 50.504 34 46.76 34zM46.742 32.146C49.352 32.146 50.864 30.274 50.864 27.988 50.864 25.684 49.424 23.848 46.76 23.848L44.384 23.848 44.384 32.146 46.742 32.146zM59.036 34.216C56.408 34.216 54.482 32.398 54.482 29.644 54.482 27.124 56.318 25.09 58.892 25.09 61.502 25.09 63.158 27.07 63.158 29.806L63.158 30.274 56.462 30.274C56.606 31.57 57.578 32.668 59.216 32.668 60.08 32.668 61.07 32.326 61.7 31.696L62.564 32.938C61.682 33.766 60.404 34.216 59.036 34.216zM61.34 28.924C61.286 27.898 60.584 26.638 58.874 26.638 57.272 26.638 56.516 27.88 56.444 28.924L61.34 28.924zM66.92 34L65.03 34 65.03 21.994 66.92 21.994 66.92 34zM76.586 34L74.696 34 74.696 33.046C74.048 33.802 73.022 34.216 71.87 34.216 70.466 34.216 68.864 33.244 68.864 31.336 68.864 29.32 70.448 28.492 71.87 28.492 73.058 28.492 74.048 28.87 74.696 29.608L74.696 28.312C74.696 27.304 73.85 26.692 72.662 26.692 71.69 26.692 70.826 27.052 70.088 27.808L69.296 26.494C70.304 25.522 71.564 25.09 72.95 25.09 74.894 25.09 76.586 25.9 76.586 28.222L76.586 34zM72.626 32.92C73.436 32.92 74.246 32.614 74.696 32.02L74.696 30.688C74.246 30.094 73.436 29.788 72.626 29.788 71.564 29.788 70.754 30.418 70.754 31.354 70.754 32.308 71.564 32.92 72.626 32.92zM78.674 37.402L78.944 35.71C79.142 35.8 79.448 35.854 79.664 35.854 80.276 35.854 80.672 35.674 80.924 35.098L81.356 34.108 77.774 25.306 79.808 25.306 82.346 31.822 84.884 25.306 86.9 25.306 82.706 35.566C82.112 37.042 81.086 37.51 79.736 37.528 79.466 37.528 78.926 37.474 78.674 37.402z"/>
      <path fill="#6F0DFB" d="M9.62707525,11.334182 L11.267767,12.9748737 C11.4630291,13.1701359 11.7796116,13.1701359 11.9748737,12.9748737 C12.1701359,12.7796116 12.1701359,12.4630291 11.9748737,12.267767 L10.334182,10.6270753 C10.3729782,10.3710239 10.2937913,10.1005486 10.0966213,9.90337865 C10.0660659,9.87282319 10.0337499,9.84510117 10,9.82021261 L10,6.5 C10,6.22385763 9.77614237,6 9.5,6 C9.22385763,6 9,6.22385763 9,6.5 L9,9.82021261 C8.96625007,9.84510117 8.93393412,9.87282319 8.90337865,9.90337865 C8.57387378,10.2328835 8.57387378,10.7671165 8.90337865,11.0966213 C9.10054863,11.2937913 9.37102391,11.3729782 9.62707525,11.334182 Z M9,4.01914112 L9,3 L8,3 C7.72385763,3 7.5,2.77614237 7.5,2.5 C7.5,2.22385763 7.72385763,2 8,2 L11,2 C11.2761424,2 11.5,2.22385763 11.5,2.5 C11.5,2.77614237 11.2761424,3 11,3 L10,3 L10,4.01914112 C11.4931291,4.13364385 12.9542536,4.76186545 14.0961941,5.90380592 C16.634602,8.44221382 16.634602,12.5577862 14.0961941,15.0961941 C11.5577862,17.634602 7.44221382,17.634602 4.90380592,15.0961941 C2.36539803,12.5577862 2.36539803,8.44221382 4.90380592,5.90380592 C6.0457464,4.76186545 7.50687086,4.13364385 9,4.01914112 Z" opacity=".6" transform="translate(16 18)"/>
    </g>
    <g transform="translate(0 439)">
      <use fill="#000" filter="url(#workflows-2-g)" xlink:href="#workflows-2-h"/>
      <use fill="#FFF" stroke="#8D8D8D" stroke-opacity=".24" xlink:href="#workflows-2-h"/>
      <path fill="#384254" fill-rule="nonzero" d="M20.326,63 L18.688,63 L18.688,55.776 L17.162,57.372 L16.21,56.378 L18.898,53.662 L20.326,53.662 L20.326,63 Z M25.646,63.168 C23.014,63.168 21.908,60.676 21.908,58.338 C21.908,55.986 23.014,53.522 25.646,53.522 C28.264,53.522 29.37,55.986 29.37,58.338 C29.37,60.676 28.264,63.168 25.646,63.168 Z M25.646,61.712 C27.158,61.712 27.704,60.116 27.704,58.338 C27.704,56.546 27.172,54.978 25.646,54.978 C24.12,54.978 23.574,56.546 23.574,58.338 C23.574,60.116 24.12,61.712 25.646,61.712 Z M32.674,58.156 C31.288,58.156 30.35,57.148 30.35,55.846 C30.35,54.53 31.288,53.522 32.674,53.522 C34.074,53.522 34.998,54.53 34.998,55.846 C34.998,57.148 34.074,58.156 32.674,58.156 Z M32.702,63 L31.764,63 L37.728,53.662 L38.68,53.662 L32.702,63 Z M37.7,63.168 C36.314,63.168 35.376,62.16 35.376,60.858 C35.376,59.542 36.314,58.534 37.7,58.534 C39.086,58.534 40.024,59.542 40.024,60.858 C40.024,62.16 39.086,63.168 37.7,63.168 Z M32.674,57.218 C33.402,57.218 33.92,56.658 33.92,55.846 C33.92,55.02 33.402,54.446 32.674,54.446 C31.96,54.446 31.442,55.02 31.442,55.846 C31.442,56.658 31.96,57.218 32.674,57.218 Z M37.7,62.23 C38.428,62.23 38.946,61.67 38.946,60.858 C38.946,60.032 38.428,59.458 37.7,59.458 C36.972,59.458 36.454,60.032 36.454,60.858 C36.454,61.67 36.972,62.23 37.7,62.23 Z M51.21,63 L49.74,63 L49.74,62.076 C49.222,62.748 48.452,63.168 47.57,63.168 C45.848,63.168 44.574,61.852 44.574,59.612 C44.574,57.428 45.834,56.07 47.57,56.07 C48.424,56.07 49.208,56.448 49.74,57.176 L49.74,53.662 L51.21,53.662 L51.21,63 Z M48.004,61.866 C48.69,61.866 49.418,61.46 49.74,60.956 L49.74,58.282 C49.418,57.778 48.69,57.372 48.004,57.372 C46.828,57.372 46.086,58.31 46.086,59.612 C46.086,60.928 46.828,61.866 48.004,61.866 Z M53.856,55.412 C53.352,55.412 52.946,55.006 52.946,54.502 C52.946,53.998 53.352,53.592 53.856,53.592 C54.36,53.592 54.766,53.998 54.766,54.502 C54.766,55.006 54.36,55.412 53.856,55.412 Z M54.584,63 L53.114,63 L53.114,56.238 L54.584,56.238 L54.584,63 Z M58.812,63.168 C57.65,63.168 56.614,62.79 55.914,62.104 L56.586,61.054 C57.062,61.544 58,61.992 58.868,61.992 C59.75,61.992 60.212,61.628 60.212,61.096 C60.212,59.766 56.124,60.718 56.124,58.114 C56.124,57.008 57.076,56.07 58.784,56.07 C59.932,56.07 60.8,56.476 61.402,57.008 L60.786,58.044 C60.38,57.596 59.638,57.232 58.784,57.232 C58.014,57.232 57.538,57.596 57.538,58.072 C57.538,59.262 61.626,58.366 61.626,61.054 C61.626,62.258 60.632,63.168 58.812,63.168 Z M66.176,63.168 C64.132,63.168 62.69,61.656 62.69,59.612 C62.69,57.568 64.132,56.07 66.176,56.07 C67.506,56.07 68.29,56.63 68.766,57.274 L67.8,58.156 C67.422,57.624 66.904,57.372 66.246,57.372 C65.028,57.372 64.202,58.296 64.202,59.612 C64.202,60.928 65.028,61.866 66.246,61.866 C66.904,61.866 67.422,61.586 67.8,61.054 L68.766,61.964 C68.29,62.594 67.506,63.168 66.176,63.168 Z M73.134,63.168 C70.978,63.168 69.662,61.544 69.662,59.612 C69.662,57.666 70.978,56.07 73.134,56.07 C75.29,56.07 76.606,57.666 76.606,59.612 C76.606,61.544 75.29,63.168 73.134,63.168 Z M73.134,61.866 C74.394,61.866 75.08,60.816 75.08,59.612 C75.08,58.422 74.394,57.372 73.134,57.372 C71.888,57.372 71.188,58.422 71.188,59.612 C71.188,60.816 71.888,61.866 73.134,61.866 Z M84.138,63 L82.668,63 L82.668,62.104 C82.192,62.636 81.352,63.168 80.288,63.168 C78.832,63.168 78.104,62.398 78.104,61.026 L78.104,56.238 L79.574,56.238 L79.574,60.48 C79.574,61.53 80.106,61.866 80.946,61.866 C81.688,61.866 82.332,61.432 82.668,60.984 L82.668,56.238 L84.138,56.238 L84.138,63 Z M92.09,63 L90.62,63 L90.62,58.772 C90.62,57.708 90.074,57.372 89.248,57.372 C88.506,57.372 87.862,57.82 87.512,58.268 L87.512,63 L86.042,63 L86.042,56.238 L87.512,56.238 L87.512,57.148 C87.96,56.616 88.842,56.07 89.906,56.07 C91.362,56.07 92.09,56.854 92.09,58.24 L92.09,63 Z M96.038,63.168 C94.89,63.168 94.302,62.552 94.302,61.418 L94.302,57.512 L93.182,57.512 L93.182,56.238 L94.302,56.238 L94.302,54.39 L95.772,54.39 L95.772,56.238 L97.144,56.238 L97.144,57.512 L95.772,57.512 L95.772,61.054 C95.772,61.516 95.996,61.866 96.416,61.866 C96.696,61.866 96.948,61.74 97.06,61.614 L97.41,62.734 C97.144,62.972 96.71,63.168 96.038,63.168 Z M103.906,63 L102.436,63 L102.436,57.512 L101.316,57.512 L101.316,56.238 L102.436,56.238 L102.436,55.86 C102.436,54.39 103.29,53.522 104.564,53.522 C105.18,53.522 105.782,53.676 106.188,54.11 L105.614,55.02 C105.418,54.838 105.166,54.726 104.844,54.726 C104.256,54.726 103.906,55.104 103.906,55.86 L103.906,56.238 L105.278,56.238 L105.278,57.512 L103.906,57.512 L103.906,63 Z M109.464,63.168 C107.308,63.168 105.992,61.544 105.992,59.612 C105.992,57.666 107.308,56.07 109.464,56.07 C111.62,56.07 112.936,57.666 112.936,59.612 C112.936,61.544 111.62,63.168 109.464,63.168 Z M109.464,61.866 C110.724,61.866 111.41,60.816 111.41,59.612 C111.41,58.422 110.724,57.372 109.464,57.372 C108.218,57.372 107.518,58.422 107.518,59.612 C107.518,60.816 108.218,61.866 109.464,61.866 Z M115.904,63 L114.434,63 L114.434,56.238 L115.904,56.238 L115.904,57.218 C116.422,56.574 117.234,56.07 118.102,56.07 L118.102,57.526 C117.976,57.498 117.836,57.484 117.654,57.484 C117.024,57.484 116.198,57.904 115.904,58.394 L115.904,63 Z M122.624,65.646 L122.834,64.33 C122.988,64.4 123.226,64.442 123.394,64.442 C123.87,64.442 124.178,64.302 124.374,63.854 L124.71,63.084 L121.924,56.238 L123.506,56.238 L125.48,61.306 L127.454,56.238 L129.022,56.238 L125.76,64.218 C125.298,65.366 124.5,65.73 123.45,65.744 C123.24,65.744 122.82,65.702 122.624,65.646 Z M133.012,63.168 C130.856,63.168 129.54,61.544 129.54,59.612 C129.54,57.666 130.856,56.07 133.012,56.07 C135.168,56.07 136.484,57.666 136.484,59.612 C136.484,61.544 135.168,63.168 133.012,63.168 Z M133.012,61.866 C134.272,61.866 134.958,60.816 134.958,59.612 C134.958,58.422 134.272,57.372 133.012,57.372 C131.766,57.372 131.066,58.422 131.066,59.612 C131.066,60.816 131.766,61.866 133.012,61.866 Z M144.016,63 L142.546,63 L142.546,62.104 C142.07,62.636 141.23,63.168 140.166,63.168 C138.71,63.168 137.982,62.398 137.982,61.026 L137.982,56.238 L139.452,56.238 L139.452,60.48 C139.452,61.53 139.984,61.866 140.824,61.866 C141.566,61.866 142.21,61.432 142.546,60.984 L142.546,56.238 L144.016,56.238 L144.016,63 Z M155.146,63 L153.676,63 L153.676,62.258 C153.172,62.846 152.374,63.168 151.478,63.168 C150.386,63.168 149.14,62.412 149.14,60.928 C149.14,59.36 150.372,58.716 151.478,58.716 C152.402,58.716 153.172,59.01 153.676,59.584 L153.676,58.576 C153.676,57.792 153.018,57.316 152.094,57.316 C151.338,57.316 150.666,57.596 150.092,58.184 L149.476,57.162 C150.26,56.406 151.24,56.07 152.318,56.07 C153.83,56.07 155.146,56.7 155.146,58.506 L155.146,63 Z M152.066,62.16 C152.696,62.16 153.326,61.922 153.676,61.46 L153.676,60.424 C153.326,59.962 152.696,59.724 152.066,59.724 C151.24,59.724 150.61,60.214 150.61,60.942 C150.61,61.684 151.24,62.16 152.066,62.16 Z M163.098,63 L161.628,63 L161.628,58.772 C161.628,57.708 161.082,57.372 160.256,57.372 C159.514,57.372 158.87,57.82 158.52,58.268 L158.52,63 L157.05,63 L157.05,56.238 L158.52,56.238 L158.52,57.148 C158.968,56.616 159.85,56.07 160.914,56.07 C162.37,56.07 163.098,56.854 163.098,58.24 L163.098,63 Z M171.232,63 L169.762,63 L169.762,62.076 C169.244,62.748 168.474,63.168 167.592,63.168 C165.87,63.168 164.596,61.852 164.596,59.612 C164.596,57.428 165.856,56.07 167.592,56.07 C168.446,56.07 169.23,56.448 169.762,57.176 L169.762,53.662 L171.232,53.662 L171.232,63 Z M168.026,61.866 C168.712,61.866 169.44,61.46 169.762,60.956 L169.762,58.282 C169.44,57.778 168.712,57.372 168.026,57.372 C166.85,57.372 166.108,58.31 166.108,59.612 C166.108,60.928 166.85,61.866 168.026,61.866 Z M176.468,65.646 L176.678,64.33 C176.832,64.4 177.07,64.442 177.238,64.442 C177.714,64.442 178.022,64.302 178.218,63.854 L178.554,63.084 L175.768,56.238 L177.35,56.238 L179.324,61.306 L181.298,56.238 L182.866,56.238 L179.604,64.218 C179.142,65.366 178.344,65.73 177.294,65.744 C177.084,65.744 176.664,65.702 176.468,65.646 Z M186.856,63.168 C184.7,63.168 183.384,61.544 183.384,59.612 C183.384,57.666 184.7,56.07 186.856,56.07 C189.012,56.07 190.328,57.666 190.328,59.612 C190.328,61.544 189.012,63.168 186.856,63.168 Z M186.856,61.866 C188.116,61.866 188.802,60.816 188.802,59.612 C188.802,58.422 188.116,57.372 186.856,57.372 C185.61,57.372 184.91,58.422 184.91,59.612 C184.91,60.816 185.61,61.866 186.856,61.866 Z M197.86,63 L196.39,63 L196.39,62.104 C195.914,62.636 195.074,63.168 194.01,63.168 C192.554,63.168 191.826,62.398 191.826,61.026 L191.826,56.238 L193.296,56.238 L193.296,60.48 C193.296,61.53 193.828,61.866 194.668,61.866 C195.41,61.866 196.054,61.432 196.39,60.984 L196.39,56.238 L197.86,56.238 L197.86,63 Z M201.234,63 L199.764,63 L199.764,56.238 L201.234,56.238 L201.234,57.218 C201.752,56.574 202.564,56.07 203.432,56.07 L203.432,57.526 C203.306,57.498 203.166,57.484 202.984,57.484 C202.354,57.484 201.528,57.904 201.234,58.394 L201.234,63 Z M18.786,81 L17.316,81 L17.316,75.512 L16.196,75.512 L16.196,74.238 L17.316,74.238 L17.316,73.86 C17.316,72.39 18.17,71.522 19.444,71.522 C20.06,71.522 20.662,71.676 21.068,72.11 L20.494,73.02 C20.298,72.838 20.046,72.726 19.724,72.726 C19.136,72.726 18.786,73.104 18.786,73.86 L18.786,74.238 L20.158,74.238 L20.158,75.512 L18.786,75.512 L18.786,81 Z M22.748,81 L21.278,81 L21.278,74.238 L22.748,74.238 L22.748,75.218 C23.266,74.574 24.078,74.07 24.946,74.07 L24.946,75.526 C24.82,75.498 24.68,75.484 24.498,75.484 C23.868,75.484 23.042,75.904 22.748,76.394 L22.748,81 Z M26.878,73.412 C26.374,73.412 25.968,73.006 25.968,72.502 C25.968,71.998 26.374,71.592 26.878,71.592 C27.382,71.592 27.788,71.998 27.788,72.502 C27.788,73.006 27.382,73.412 26.878,73.412 Z M27.606,81 L26.136,81 L26.136,74.238 L27.606,74.238 L27.606,81 Z M32.646,81.168 C30.602,81.168 29.104,79.754 29.104,77.612 C29.104,75.652 30.532,74.07 32.534,74.07 C34.564,74.07 35.852,75.61 35.852,77.738 L35.852,78.102 L30.644,78.102 C30.756,79.11 31.512,79.964 32.786,79.964 C33.458,79.964 34.228,79.698 34.718,79.208 L35.39,80.174 C34.704,80.818 33.71,81.168 32.646,81.168 Z M34.438,77.052 C34.396,76.254 33.85,75.274 32.52,75.274 C31.274,75.274 30.686,76.24 30.63,77.052 L34.438,77.052 Z M43.356,81 L41.886,81 L41.886,76.772 C41.886,75.708 41.34,75.372 40.514,75.372 C39.772,75.372 39.128,75.82 38.778,76.268 L38.778,81 L37.308,81 L37.308,74.238 L38.778,74.238 L38.778,75.148 C39.226,74.616 40.108,74.07 41.172,74.07 C42.628,74.07 43.356,74.854 43.356,76.24 L43.356,81 Z M51.49,81 L50.02,81 L50.02,80.076 C49.502,80.748 48.732,81.168 47.85,81.168 C46.128,81.168 44.854,79.852 44.854,77.612 C44.854,75.428 46.114,74.07 47.85,74.07 C48.704,74.07 49.488,74.448 50.02,75.176 L50.02,71.662 L51.49,71.662 L51.49,81 Z M48.284,79.866 C48.97,79.866 49.698,79.46 50.02,78.956 L50.02,76.282 C49.698,75.778 48.97,75.372 48.284,75.372 C47.108,75.372 46.366,76.31 46.366,77.612 C46.366,78.928 47.108,79.866 48.284,79.866 Z M55.718,81.168 C54.556,81.168 53.52,80.79 52.82,80.104 L53.492,79.054 C53.968,79.544 54.906,79.992 55.774,79.992 C56.656,79.992 57.118,79.628 57.118,79.096 C57.118,77.766 53.03,78.718 53.03,76.114 C53.03,75.008 53.982,74.07 55.69,74.07 C56.838,74.07 57.706,74.476 58.308,75.008 L57.692,76.044 C57.286,75.596 56.544,75.232 55.69,75.232 C54.92,75.232 54.444,75.596 54.444,76.072 C54.444,77.262 58.532,76.366 58.532,79.054 C58.532,80.258 57.538,81.168 55.718,81.168 Z"/>
      <path fill="#384254" fill-rule="nonzero" d="M17.638,101 L16.588,101 L17.876,95.162 L16.756,95.162 L16.966,94.238 L18.086,94.238 L18.198,93.72 C18.492,92.446 19.122,91.522 20.424,91.522 C21.04,91.522 21.516,91.69 21.922,92.096 L21.362,92.74 C21.166,92.516 20.914,92.39 20.508,92.39 C19.794,92.39 19.43,92.88 19.248,93.72 L19.136,94.238 L20.508,94.238 L20.298,95.162 L18.926,95.162 L17.638,101 Z M21.32,101 L20.27,101 L21.768,94.238 L22.818,94.238 L22.58,95.26 C23.252,94.504 23.938,94.084 25.1,94.084 L24.862,95.176 C24.778,95.148 24.568,95.12 24.33,95.12 C23.546,95.12 22.804,95.652 22.37,96.226 L21.32,101 Z M28.25,101.168 C26.318,101.168 25.156,99.95 25.156,98.158 C25.156,96.03 26.752,94.07 28.922,94.07 C30.854,94.07 32.016,95.288 32.016,97.066 C32.016,99.208 30.42,101.168 28.25,101.168 Z M28.278,100.23 C29.818,100.23 30.91,98.704 30.91,97.108 C30.91,95.834 30.168,95.008 28.894,95.008 C27.368,95.008 26.262,96.534 26.262,98.13 C26.262,99.404 27.004,100.23 28.278,100.23 Z M42.11,101 L41.06,101 L42.068,96.464 C42.082,96.394 42.11,96.226 42.11,96.086 C42.11,95.386 41.578,95.008 40.962,95.008 C40.304,95.008 39.59,95.512 39.114,96.072 L38.022,101 L36.972,101 L37.98,96.464 C38.022,96.282 38.036,96.184 38.036,96.03 C38.036,95.442 37.63,95.008 36.86,95.008 C36.216,95.008 35.516,95.526 35.04,96.072 L33.948,101 L32.898,101 L34.396,94.238 L35.446,94.238 L35.222,95.218 C35.6,94.784 36.384,94.07 37.35,94.07 C38.554,94.07 39.128,94.938 39.128,95.414 L39.128,95.428 C39.66,94.756 40.458,94.07 41.438,94.07 C42.376,94.07 43.216,94.644 43.216,95.736 C43.216,95.89 43.174,96.142 43.146,96.31 L42.11,101 Z M52.4,101 L50.762,101 L50.762,93.104 L47.934,93.104 L47.934,91.662 L55.228,91.662 L55.228,93.104 L52.4,93.104 L52.4,101 Z M56.992,101 L55.522,101 L55.522,94.238 L56.992,94.238 L56.992,95.218 C57.51,94.574 58.322,94.07 59.19,94.07 L59.19,95.526 C59.064,95.498 58.924,95.484 58.742,95.484 C58.112,95.484 57.286,95.904 56.992,96.394 L56.992,101 Z M66.414,101 L64.944,101 L64.944,100.104 C64.468,100.636 63.628,101.168 62.564,101.168 C61.108,101.168 60.38,100.398 60.38,99.026 L60.38,94.238 L61.85,94.238 L61.85,98.48 C61.85,99.53 62.382,99.866 63.222,99.866 C63.964,99.866 64.608,99.432 64.944,98.984 L64.944,94.238 L66.414,94.238 L66.414,101 Z M71.454,101.168 C69.41,101.168 67.912,99.754 67.912,97.612 C67.912,95.652 69.34,94.07 71.342,94.07 C73.372,94.07 74.66,95.61 74.66,97.738 L74.66,98.102 L69.452,98.102 C69.564,99.11 70.32,99.964 71.594,99.964 C72.266,99.964 73.036,99.698 73.526,99.208 L74.198,100.174 C73.512,100.818 72.518,101.168 71.454,101.168 Z M73.246,97.052 C73.204,96.254 72.658,95.274 71.328,95.274 C70.082,95.274 69.494,96.24 69.438,97.052 L73.246,97.052 Z M82.976,101.168 C81.254,101.168 80.008,100.552 79.168,99.684 L80.092,98.41 C80.722,99.096 81.744,99.712 83.046,99.712 C84.39,99.712 84.908,99.054 84.908,98.424 C84.908,96.464 79.476,97.682 79.476,94.252 C79.476,92.698 80.82,91.508 82.878,91.508 C84.32,91.508 85.51,91.984 86.364,92.824 L85.44,94.042 C84.698,93.3 83.704,92.964 82.724,92.964 C81.772,92.964 81.156,93.44 81.156,94.126 C81.156,95.876 86.588,94.798 86.588,98.27 C86.588,99.824 85.482,101.168 82.976,101.168 Z M89.878,101.168 C88.73,101.168 88.142,100.552 88.142,99.418 L88.142,95.512 L87.022,95.512 L87.022,94.238 L88.142,94.238 L88.142,92.39 L89.612,92.39 L89.612,94.238 L90.984,94.238 L90.984,95.512 L89.612,95.512 L89.612,99.054 C89.612,99.516 89.836,99.866 90.256,99.866 C90.536,99.866 90.788,99.74 90.9,99.614 L91.25,100.734 C90.984,100.972 90.55,101.168 89.878,101.168 Z M95.366,101.168 C93.21,101.168 91.894,99.544 91.894,97.612 C91.894,95.666 93.21,94.07 95.366,94.07 C97.522,94.07 98.838,95.666 98.838,97.612 C98.838,99.544 97.522,101.168 95.366,101.168 Z M95.366,99.866 C96.626,99.866 97.312,98.816 97.312,97.612 C97.312,96.422 96.626,95.372 95.366,95.372 C94.12,95.372 93.42,96.422 93.42,97.612 C93.42,98.816 94.12,99.866 95.366,99.866 Z M101.806,101 L100.336,101 L100.336,94.238 L101.806,94.238 L101.806,95.218 C102.324,94.574 103.136,94.07 104.004,94.07 L104.004,95.526 C103.878,95.498 103.738,95.484 103.556,95.484 C102.926,95.484 102.1,95.904 101.806,96.394 L101.806,101 Z M104.914,103.646 L105.124,102.33 C105.278,102.4 105.516,102.442 105.684,102.442 C106.16,102.442 106.468,102.302 106.664,101.854 L107,101.084 L104.214,94.238 L105.796,94.238 L107.77,99.306 L109.744,94.238 L111.312,94.238 L108.05,102.218 C107.588,103.366 106.79,103.73 105.74,103.744 C105.53,103.744 105.11,103.702 104.914,103.646 Z" opacity=".5"/>
      <path fill="#384254" fill-rule="nonzero" d="M53.584,34 L51.136,34 L48.49,29.518 L46.384,29.518 L46.384,34 L44.278,34 L44.278,21.994 L49.552,21.994 C51.928,21.994 53.494,23.524 53.494,25.756 C53.494,27.88 52.09,29.05 50.632,29.284 L53.584,34 Z M49.282,27.664 C50.47,27.664 51.334,26.908 51.334,25.738 C51.334,24.586 50.47,23.848 49.282,23.848 L46.384,23.848 L46.384,27.664 L49.282,27.664 Z M59.038,34.216 C56.41,34.216 54.484,32.398 54.484,29.644 C54.484,27.124 56.32,25.09 58.894,25.09 C61.504,25.09 63.16,27.07 63.16,29.806 L63.16,30.274 L56.464,30.274 C56.608,31.57 57.58,32.668 59.218,32.668 C60.082,32.668 61.072,32.326 61.702,31.696 L62.566,32.938 C61.684,33.766 60.406,34.216 59.038,34.216 Z M61.342,28.924 C61.288,27.898 60.586,26.638 58.876,26.638 C57.274,26.638 56.518,27.88 56.446,28.924 L61.342,28.924 Z M67.39,34 L65.5,34 L65.5,26.944 L64.06,26.944 L64.06,25.306 L65.5,25.306 L65.5,24.82 C65.5,22.93 66.598,21.814 68.236,21.814 C69.028,21.814 69.802,22.012 70.324,22.57 L69.586,23.74 C69.334,23.506 69.01,23.362 68.596,23.362 C67.84,23.362 67.39,23.848 67.39,24.82 L67.39,25.306 L69.154,25.306 L69.154,26.944 L67.39,26.944 L67.39,34 Z M74.626,34.216 C71.998,34.216 70.072,32.398 70.072,29.644 C70.072,27.124 71.908,25.09 74.482,25.09 C77.092,25.09 78.748,27.07 78.748,29.806 L78.748,30.274 L72.052,30.274 C72.196,31.57 73.168,32.668 74.806,32.668 C75.67,32.668 76.66,32.326 77.29,31.696 L78.154,32.938 C77.272,33.766 75.994,34.216 74.626,34.216 Z M76.93,28.924 C76.876,27.898 76.174,26.638 74.464,26.638 C72.862,26.638 72.106,27.88 72.034,28.924 L76.93,28.924 Z M82.51,34 L80.62,34 L80.62,25.306 L82.51,25.306 L82.51,26.566 C83.176,25.738 84.22,25.09 85.336,25.09 L85.336,26.962 C85.174,26.926 84.994,26.908 84.76,26.908 C83.95,26.908 82.888,27.448 82.51,28.078 L82.51,34 Z M98.728,34 L96.838,34 L96.838,33.046 C96.19,33.802 95.164,34.216 94.012,34.216 C92.608,34.216 91.006,33.244 91.006,31.336 C91.006,29.32 92.59,28.492 94.012,28.492 C95.2,28.492 96.19,28.87 96.838,29.608 L96.838,28.312 C96.838,27.304 95.992,26.692 94.804,26.692 C93.832,26.692 92.968,27.052 92.23,27.808 L91.438,26.494 C92.446,25.522 93.706,25.09 95.092,25.09 C97.036,25.09 98.728,25.9 98.728,28.222 L98.728,34 Z M94.768,32.92 C95.578,32.92 96.388,32.614 96.838,32.02 L96.838,30.688 C96.388,30.094 95.578,29.788 94.768,29.788 C93.706,29.788 92.896,30.418 92.896,31.354 C92.896,32.308 93.706,32.92 94.768,32.92 Z M108.178,34 L106.288,34 L106.288,26.944 L104.848,26.944 L104.848,25.306 L106.288,25.306 L106.288,24.82 C106.288,22.93 107.386,21.814 109.024,21.814 C109.816,21.814 110.59,22.012 111.112,22.57 L110.374,23.74 C110.122,23.506 109.798,23.362 109.384,23.362 C108.628,23.362 108.178,23.848 108.178,24.82 L108.178,25.306 L109.942,25.306 L109.942,26.944 L108.178,26.944 L108.178,34 Z M113.272,34 L111.382,34 L111.382,25.306 L113.272,25.306 L113.272,26.566 C113.938,25.738 114.982,25.09 116.098,25.09 L116.098,26.962 C115.936,26.926 115.756,26.908 115.522,26.908 C114.712,26.908 113.65,27.448 113.272,28.078 L113.272,34 Z M118.582,24.244 C117.934,24.244 117.412,23.722 117.412,23.074 C117.412,22.426 117.934,21.904 118.582,21.904 C119.23,21.904 119.752,22.426 119.752,23.074 C119.752,23.722 119.23,24.244 118.582,24.244 Z M119.518,34 L117.628,34 L117.628,25.306 L119.518,25.306 L119.518,34 Z M125.998,34.216 C123.37,34.216 121.444,32.398 121.444,29.644 C121.444,27.124 123.28,25.09 125.854,25.09 C128.464,25.09 130.12,27.07 130.12,29.806 L130.12,30.274 L123.424,30.274 C123.568,31.57 124.54,32.668 126.178,32.668 C127.042,32.668 128.032,32.326 128.662,31.696 L129.526,32.938 C128.644,33.766 127.366,34.216 125.998,34.216 Z M128.302,28.924 C128.248,27.898 127.546,26.638 125.836,26.638 C124.234,26.638 123.478,27.88 123.406,28.924 L128.302,28.924 Z M139.768,34 L137.878,34 L137.878,28.564 C137.878,27.196 137.176,26.764 136.114,26.764 C135.16,26.764 134.332,27.34 133.882,27.916 L133.882,34 L131.992,34 L131.992,25.306 L133.882,25.306 L133.882,26.476 C134.458,25.792 135.592,25.09 136.96,25.09 C138.832,25.09 139.768,26.098 139.768,27.88 L139.768,34 Z M150.226,34 L148.336,34 L148.336,32.812 C147.67,33.676 146.68,34.216 145.546,34.216 C143.332,34.216 141.694,32.524 141.694,29.644 C141.694,26.836 143.314,25.09 145.546,25.09 C146.644,25.09 147.652,25.576 148.336,26.512 L148.336,21.994 L150.226,21.994 L150.226,34 Z M146.104,32.542 C146.986,32.542 147.922,32.02 148.336,31.372 L148.336,27.934 C147.922,27.286 146.986,26.764 146.104,26.764 C144.592,26.764 143.638,27.97 143.638,29.644 C143.638,31.336 144.592,32.542 146.104,32.542 Z M161.26,34.216 C158.488,34.216 156.796,32.128 156.796,29.644 C156.796,27.142 158.488,25.09 161.26,25.09 C164.032,25.09 165.724,27.142 165.724,29.644 C165.724,32.128 164.032,34.216 161.26,34.216 Z M161.26,32.542 C162.88,32.542 163.762,31.192 163.762,29.644 C163.762,28.114 162.88,26.764 161.26,26.764 C159.658,26.764 158.758,28.114 158.758,29.644 C158.758,31.192 159.658,32.542 161.26,32.542 Z M170.008,34 L168.118,34 L168.118,26.944 L166.678,26.944 L166.678,25.306 L168.118,25.306 L168.118,24.82 C168.118,22.93 169.216,21.814 170.854,21.814 C171.646,21.814 172.42,22.012 172.942,22.57 L172.204,23.74 C171.952,23.506 171.628,23.362 171.214,23.362 C170.458,23.362 170.008,23.848 170.008,24.82 L170.008,25.306 L171.772,25.306 L171.772,26.944 L170.008,26.944 L170.008,34 Z M175.57,34 L173.68,34 L173.68,26.944 L172.24,26.944 L172.24,25.306 L173.68,25.306 L173.68,24.82 C173.68,22.93 174.778,21.814 176.416,21.814 C177.208,21.814 177.982,22.012 178.504,22.57 L177.766,23.74 C177.514,23.506 177.19,23.362 176.776,23.362 C176.02,23.362 175.57,23.848 175.57,24.82 L175.57,25.306 L177.334,25.306 L177.334,26.944 L175.57,26.944 L175.57,34 Z M182.788,34.216 C180.16,34.216 178.234,32.398 178.234,29.644 C178.234,27.124 180.07,25.09 182.644,25.09 C185.254,25.09 186.91,27.07 186.91,29.806 L186.91,30.274 L180.214,30.274 C180.358,31.57 181.33,32.668 182.968,32.668 C183.832,32.668 184.822,32.326 185.452,31.696 L186.316,32.938 C185.434,33.766 184.156,34.216 182.788,34.216 Z M185.092,28.924 C185.038,27.898 184.336,26.638 182.626,26.638 C181.024,26.638 180.268,27.88 180.196,28.924 L185.092,28.924 Z M190.672,34 L188.782,34 L188.782,25.306 L190.672,25.306 L190.672,26.566 C191.338,25.738 192.382,25.09 193.498,25.09 L193.498,26.962 C193.336,26.926 193.156,26.908 192.922,26.908 C192.112,26.908 191.05,27.448 190.672,28.078 L190.672,34 Z"/>
      <path fill="#01B2D0" d="M2,5.99201702 C2,4.8918564 2.89339733,4 3.99188419,4 L15.0081158,4 C16.1082031,4 17,4.90017617 17,5.99201702 L17,13.007983 C17,14.1081436 16.1066027,15 15.0081158,15 L3.99188419,15 C2.89179693,15 2,14.0998238 2,13.007983 L2,5.99201702 Z M9.5,10.7956346 L4.35364752,5.64654076 C4.15843737,5.45122663 3.84185489,5.45114234 3.64654076,5.64635248 C3.45122663,5.84156263 3.45114234,6.15814511 3.64635248,6.35345924 L9.14635248,11.8563889 C9.34163614,12.0517766 9.65836386,12.0517766 9.85364752,11.8563889 L15.3536475,6.35345924 C15.5488577,6.15814511 15.5487734,5.84156263 15.3534592,5.64635248 C15.1581451,5.45114234 14.8415626,5.45122663 14.6463525,5.64654076 L9.5,10.7956346 Z" transform="translate(16 18)"/>
    </g>
    <g transform="translate(304 439)">
      <use fill="#000" filter="url(#workflows-2-i)" xlink:href="#workflows-2-j"/>
      <use fill="#FFF" stroke="#8D8D8D" stroke-opacity=".24" xlink:href="#workflows-2-j"/>
      <path fill="#384254" fill-rule="nonzero" d="M20.326,63 L18.688,63 L18.688,55.776 L17.162,57.372 L16.21,56.378 L18.898,53.662 L20.326,53.662 L20.326,63 Z M25.646,63.168 C23.014,63.168 21.908,60.676 21.908,58.338 C21.908,55.986 23.014,53.522 25.646,53.522 C28.264,53.522 29.37,55.986 29.37,58.338 C29.37,60.676 28.264,63.168 25.646,63.168 Z M25.646,61.712 C27.158,61.712 27.704,60.116 27.704,58.338 C27.704,56.546 27.172,54.978 25.646,54.978 C24.12,54.978 23.574,56.546 23.574,58.338 C23.574,60.116 24.12,61.712 25.646,61.712 Z M32.674,58.156 C31.288,58.156 30.35,57.148 30.35,55.846 C30.35,54.53 31.288,53.522 32.674,53.522 C34.074,53.522 34.998,54.53 34.998,55.846 C34.998,57.148 34.074,58.156 32.674,58.156 Z M32.702,63 L31.764,63 L37.728,53.662 L38.68,53.662 L32.702,63 Z M37.7,63.168 C36.314,63.168 35.376,62.16 35.376,60.858 C35.376,59.542 36.314,58.534 37.7,58.534 C39.086,58.534 40.024,59.542 40.024,60.858 C40.024,62.16 39.086,63.168 37.7,63.168 Z M32.674,57.218 C33.402,57.218 33.92,56.658 33.92,55.846 C33.92,55.02 33.402,54.446 32.674,54.446 C31.96,54.446 31.442,55.02 31.442,55.846 C31.442,56.658 31.96,57.218 32.674,57.218 Z M37.7,62.23 C38.428,62.23 38.946,61.67 38.946,60.858 C38.946,60.032 38.428,59.458 37.7,59.458 C36.972,59.458 36.454,60.032 36.454,60.858 C36.454,61.67 36.972,62.23 37.7,62.23 Z M48.046,63.168 C45.89,63.168 44.574,61.544 44.574,59.612 C44.574,57.666 45.89,56.07 48.046,56.07 C50.202,56.07 51.518,57.666 51.518,59.612 C51.518,61.544 50.202,63.168 48.046,63.168 Z M48.046,61.866 C49.306,61.866 49.992,60.816 49.992,59.612 C49.992,58.422 49.306,57.372 48.046,57.372 C46.8,57.372 46.1,58.422 46.1,59.612 C46.1,60.816 46.8,61.866 48.046,61.866 Z M54.85,63 L53.38,63 L53.38,57.512 L52.26,57.512 L52.26,56.238 L53.38,56.238 L53.38,55.86 C53.38,54.39 54.234,53.522 55.508,53.522 C56.124,53.522 56.726,53.676 57.132,54.11 L56.558,55.02 C56.362,54.838 56.11,54.726 55.788,54.726 C55.2,54.726 54.85,55.104 54.85,55.86 L54.85,56.238 L56.222,56.238 L56.222,57.512 L54.85,57.512 L54.85,63 Z M59.176,63 L57.706,63 L57.706,57.512 L56.586,57.512 L56.586,56.238 L57.706,56.238 L57.706,55.86 C57.706,54.39 58.56,53.522 59.834,53.522 C60.45,53.522 61.052,53.676 61.458,54.11 L60.884,55.02 C60.688,54.838 60.436,54.726 60.114,54.726 C59.526,54.726 59.176,55.104 59.176,55.86 L59.176,56.238 L60.548,56.238 L60.548,57.512 L59.176,57.512 L59.176,63 Z M64.986,65.646 L65.196,64.33 C65.35,64.4 65.588,64.442 65.756,64.442 C66.232,64.442 66.54,64.302 66.736,63.854 L67.072,63.084 L64.286,56.238 L65.868,56.238 L67.842,61.306 L69.816,56.238 L71.384,56.238 L68.122,64.218 C67.66,65.366 66.862,65.73 65.812,65.744 C65.602,65.744 65.182,65.702 64.986,65.646 Z M75.374,63.168 C73.218,63.168 71.902,61.544 71.902,59.612 C71.902,57.666 73.218,56.07 75.374,56.07 C77.53,56.07 78.846,57.666 78.846,59.612 C78.846,61.544 77.53,63.168 75.374,63.168 Z M75.374,61.866 C76.634,61.866 77.32,60.816 77.32,59.612 C77.32,58.422 76.634,57.372 75.374,57.372 C74.128,57.372 73.428,58.422 73.428,59.612 C73.428,60.816 74.128,61.866 75.374,61.866 Z M86.378,63 L84.908,63 L84.908,62.104 C84.432,62.636 83.592,63.168 82.528,63.168 C81.072,63.168 80.344,62.398 80.344,61.026 L80.344,56.238 L81.814,56.238 L81.814,60.48 C81.814,61.53 82.346,61.866 83.186,61.866 C83.928,61.866 84.572,61.432 84.908,60.984 L84.908,56.238 L86.378,56.238 L86.378,63 Z M89.752,63 L88.282,63 L88.282,56.238 L89.752,56.238 L89.752,57.218 C90.27,56.574 91.082,56.07 91.95,56.07 L91.95,57.526 C91.824,57.498 91.684,57.484 91.502,57.484 C90.872,57.484 90.046,57.904 89.752,58.394 L89.752,63 Z M98.586,63 L97.116,63 L97.116,57.512 L95.996,57.512 L95.996,56.238 L97.116,56.238 L97.116,55.86 C97.116,54.348 98.012,53.522 99.244,53.522 C99.72,53.522 100.126,53.606 100.434,53.774 L100.112,54.88 C99.958,54.782 99.762,54.726 99.524,54.726 C98.936,54.726 98.586,55.104 98.586,55.86 L98.586,56.238 L99.958,56.238 L99.958,57.512 L98.586,57.512 L98.586,63 Z M101.82,55.412 C101.316,55.412 100.91,55.006 100.91,54.502 C100.91,53.998 101.316,53.592 101.82,53.592 C102.324,53.592 102.73,53.998 102.73,54.502 C102.73,55.006 102.324,55.412 101.82,55.412 Z M102.548,63 L101.078,63 L101.078,56.238 L102.548,56.238 L102.548,63 Z M105.922,63 L104.452,63 L104.452,56.238 L105.922,56.238 L105.922,57.218 C106.44,56.574 107.252,56.07 108.12,56.07 L108.12,57.526 C107.994,57.498 107.854,57.484 107.672,57.484 C107.042,57.484 106.216,57.904 105.922,58.394 L105.922,63 Z M111.634,63.168 C110.472,63.168 109.436,62.79 108.736,62.104 L109.408,61.054 C109.884,61.544 110.822,61.992 111.69,61.992 C112.572,61.992 113.034,61.628 113.034,61.096 C113.034,59.766 108.946,60.718 108.946,58.114 C108.946,57.008 109.898,56.07 111.606,56.07 C112.754,56.07 113.622,56.476 114.224,57.008 L113.608,58.044 C113.202,57.596 112.46,57.232 111.606,57.232 C110.836,57.232 110.36,57.596 110.36,58.072 C110.36,59.262 114.448,58.366 114.448,61.054 C114.448,62.258 113.454,63.168 111.634,63.168 Z M117.962,63.168 C116.814,63.168 116.226,62.552 116.226,61.418 L116.226,57.512 L115.106,57.512 L115.106,56.238 L116.226,56.238 L116.226,54.39 L117.696,54.39 L117.696,56.238 L119.068,56.238 L119.068,57.512 L117.696,57.512 L117.696,61.054 C117.696,61.516 117.92,61.866 118.34,61.866 C118.62,61.866 118.872,61.74 118.984,61.614 L119.334,62.734 C119.068,62.972 118.634,63.168 117.962,63.168 Z M127.062,63.168 C124.906,63.168 123.59,61.544 123.59,59.612 C123.59,57.666 124.906,56.07 127.062,56.07 C129.218,56.07 130.534,57.666 130.534,59.612 C130.534,61.544 129.218,63.168 127.062,63.168 Z M127.062,61.866 C128.322,61.866 129.008,60.816 129.008,59.612 C129.008,58.422 128.322,57.372 127.062,57.372 C125.816,57.372 125.116,58.422 125.116,59.612 C125.116,60.816 125.816,61.866 127.062,61.866 Z M133.866,63 L132.396,63 L132.396,57.512 L131.276,57.512 L131.276,56.238 L132.396,56.238 L132.396,55.86 C132.396,54.39 133.25,53.522 134.524,53.522 C135.14,53.522 135.742,53.676 136.148,54.11 L135.574,55.02 C135.378,54.838 135.126,54.726 134.804,54.726 C134.216,54.726 133.866,55.104 133.866,55.86 L133.866,56.238 L135.238,56.238 L135.238,57.512 L133.866,57.512 L133.866,63 Z M138.192,63 L136.722,63 L136.722,57.512 L135.602,57.512 L135.602,56.238 L136.722,56.238 L136.722,55.86 C136.722,54.39 137.576,53.522 138.85,53.522 C139.466,53.522 140.068,53.676 140.474,54.11 L139.9,55.02 C139.704,54.838 139.452,54.726 139.13,54.726 C138.542,54.726 138.192,55.104 138.192,55.86 L138.192,56.238 L139.564,56.238 L139.564,57.512 L138.192,57.512 L138.192,63 Z M143.806,63.168 C141.762,63.168 140.264,61.754 140.264,59.612 C140.264,57.652 141.692,56.07 143.694,56.07 C145.724,56.07 147.012,57.61 147.012,59.738 L147.012,60.102 L141.804,60.102 C141.916,61.11 142.672,61.964 143.946,61.964 C144.618,61.964 145.388,61.698 145.878,61.208 L146.55,62.174 C145.864,62.818 144.87,63.168 143.806,63.168 Z M145.598,59.052 C145.556,58.254 145.01,57.274 143.68,57.274 C142.434,57.274 141.846,58.24 141.79,59.052 L145.598,59.052 Z M149.938,63 L148.468,63 L148.468,56.238 L149.938,56.238 L149.938,57.218 C150.456,56.574 151.268,56.07 152.136,56.07 L152.136,57.526 C152.01,57.498 151.87,57.484 151.688,57.484 C151.058,57.484 150.232,57.904 149.938,58.394 L149.938,63 Z"/>
      <path fill="#384254" fill-rule="nonzero" d="M17.638,83 L16.588,83 L17.876,77.162 L16.756,77.162 L16.966,76.238 L18.086,76.238 L18.198,75.72 C18.492,74.446 19.122,73.522 20.424,73.522 C21.04,73.522 21.516,73.69 21.922,74.096 L21.362,74.74 C21.166,74.516 20.914,74.39 20.508,74.39 C19.794,74.39 19.43,74.88 19.248,75.72 L19.136,76.238 L20.508,76.238 L20.298,77.162 L18.926,77.162 L17.638,83 Z M21.32,83 L20.27,83 L21.768,76.238 L22.818,76.238 L22.58,77.26 C23.252,76.504 23.938,76.084 25.1,76.084 L24.862,77.176 C24.778,77.148 24.568,77.12 24.33,77.12 C23.546,77.12 22.804,77.652 22.37,78.226 L21.32,83 Z M28.25,83.168 C26.318,83.168 25.156,81.95 25.156,80.158 C25.156,78.03 26.752,76.07 28.922,76.07 C30.854,76.07 32.016,77.288 32.016,79.066 C32.016,81.208 30.42,83.168 28.25,83.168 Z M28.278,82.23 C29.818,82.23 30.91,80.704 30.91,79.108 C30.91,77.834 30.168,77.008 28.894,77.008 C27.368,77.008 26.262,78.534 26.262,80.13 C26.262,81.404 27.004,82.23 28.278,82.23 Z M42.11,83 L41.06,83 L42.068,78.464 C42.082,78.394 42.11,78.226 42.11,78.086 C42.11,77.386 41.578,77.008 40.962,77.008 C40.304,77.008 39.59,77.512 39.114,78.072 L38.022,83 L36.972,83 L37.98,78.464 C38.022,78.282 38.036,78.184 38.036,78.03 C38.036,77.442 37.63,77.008 36.86,77.008 C36.216,77.008 35.516,77.526 35.04,78.072 L33.948,83 L32.898,83 L34.396,76.238 L35.446,76.238 L35.222,77.218 C35.6,76.784 36.384,76.07 37.35,76.07 C38.554,76.07 39.128,76.938 39.128,77.414 L39.128,77.428 C39.66,76.756 40.458,76.07 41.438,76.07 C42.376,76.07 43.216,76.644 43.216,77.736 C43.216,77.89 43.174,78.142 43.146,78.31 L42.11,83 Z M52.4,83 L50.762,83 L50.762,75.104 L47.934,75.104 L47.934,73.662 L55.228,73.662 L55.228,75.104 L52.4,75.104 L52.4,83 Z M56.992,83 L55.522,83 L55.522,76.238 L56.992,76.238 L56.992,77.218 C57.51,76.574 58.322,76.07 59.19,76.07 L59.19,77.526 C59.064,77.498 58.924,77.484 58.742,77.484 C58.112,77.484 57.286,77.904 56.992,78.394 L56.992,83 Z M66.414,83 L64.944,83 L64.944,82.104 C64.468,82.636 63.628,83.168 62.564,83.168 C61.108,83.168 60.38,82.398 60.38,81.026 L60.38,76.238 L61.85,76.238 L61.85,80.48 C61.85,81.53 62.382,81.866 63.222,81.866 C63.964,81.866 64.608,81.432 64.944,80.984 L64.944,76.238 L66.414,76.238 L66.414,83 Z M71.454,83.168 C69.41,83.168 67.912,81.754 67.912,79.612 C67.912,77.652 69.34,76.07 71.342,76.07 C73.372,76.07 74.66,77.61 74.66,79.738 L74.66,80.102 L69.452,80.102 C69.564,81.11 70.32,81.964 71.594,81.964 C72.266,81.964 73.036,81.698 73.526,81.208 L74.198,82.174 C73.512,82.818 72.518,83.168 71.454,83.168 Z M73.246,79.052 C73.204,78.254 72.658,77.274 71.328,77.274 C70.082,77.274 69.494,78.24 69.438,79.052 L73.246,79.052 Z M82.976,83.168 C81.254,83.168 80.008,82.552 79.168,81.684 L80.092,80.41 C80.722,81.096 81.744,81.712 83.046,81.712 C84.39,81.712 84.908,81.054 84.908,80.424 C84.908,78.464 79.476,79.682 79.476,76.252 C79.476,74.698 80.82,73.508 82.878,73.508 C84.32,73.508 85.51,73.984 86.364,74.824 L85.44,76.042 C84.698,75.3 83.704,74.964 82.724,74.964 C81.772,74.964 81.156,75.44 81.156,76.126 C81.156,77.876 86.588,76.798 86.588,80.27 C86.588,81.824 85.482,83.168 82.976,83.168 Z M89.878,83.168 C88.73,83.168 88.142,82.552 88.142,81.418 L88.142,77.512 L87.022,77.512 L87.022,76.238 L88.142,76.238 L88.142,74.39 L89.612,74.39 L89.612,76.238 L90.984,76.238 L90.984,77.512 L89.612,77.512 L89.612,81.054 C89.612,81.516 89.836,81.866 90.256,81.866 C90.536,81.866 90.788,81.74 90.9,81.614 L91.25,82.734 C90.984,82.972 90.55,83.168 89.878,83.168 Z M95.366,83.168 C93.21,83.168 91.894,81.544 91.894,79.612 C91.894,77.666 93.21,76.07 95.366,76.07 C97.522,76.07 98.838,77.666 98.838,79.612 C98.838,81.544 97.522,83.168 95.366,83.168 Z M95.366,81.866 C96.626,81.866 97.312,80.816 97.312,79.612 C97.312,78.422 96.626,77.372 95.366,77.372 C94.12,77.372 93.42,78.422 93.42,79.612 C93.42,80.816 94.12,81.866 95.366,81.866 Z M101.806,83 L100.336,83 L100.336,76.238 L101.806,76.238 L101.806,77.218 C102.324,76.574 103.136,76.07 104.004,76.07 L104.004,77.526 C103.878,77.498 103.738,77.484 103.556,77.484 C102.926,77.484 102.1,77.904 101.806,78.394 L101.806,83 Z M104.914,85.646 L105.124,84.33 C105.278,84.4 105.516,84.442 105.684,84.442 C106.16,84.442 106.468,84.302 106.664,83.854 L107,83.084 L104.214,76.238 L105.796,76.238 L107.77,81.306 L109.744,76.238 L111.312,76.238 L108.05,84.218 C107.588,85.366 106.79,85.73 105.74,85.744 C105.53,85.744 105.11,85.702 104.914,85.646 Z" opacity=".5"/>
      <path fill="#384254" fill-rule="nonzero" d="M48.76,34 L44.278,34 L44.278,21.994 L48.742,21.994 C52.504,21.994 55.024,24.478 55.024,27.988 C55.024,31.534 52.504,34 48.76,34 Z M48.742,32.146 C51.352,32.146 52.864,30.274 52.864,27.988 C52.864,25.684 51.424,23.848 48.76,23.848 L46.384,23.848 L46.384,32.146 L48.742,32.146 Z M57.958,24.244 C57.31,24.244 56.788,23.722 56.788,23.074 C56.788,22.426 57.31,21.904 57.958,21.904 C58.606,21.904 59.128,22.426 59.128,23.074 C59.128,23.722 58.606,24.244 57.958,24.244 Z M58.894,34 L57.004,34 L57.004,25.306 L58.894,25.306 L58.894,34 Z M64.33,34.216 C62.836,34.216 61.504,33.73 60.604,32.848 L61.468,31.498 C62.08,32.128 63.286,32.704 64.402,32.704 C65.536,32.704 66.13,32.236 66.13,31.552 C66.13,29.842 60.874,31.066 60.874,27.718 C60.874,26.296 62.098,25.09 64.294,25.09 C65.77,25.09 66.886,25.612 67.66,26.296 L66.868,27.628 C66.346,27.052 65.392,26.584 64.294,26.584 C63.304,26.584 62.692,27.052 62.692,27.664 C62.692,29.194 67.948,28.042 67.948,31.498 C67.948,33.046 66.67,34.216 64.33,34.216 Z M73.798,34.216 C71.17,34.216 69.316,32.272 69.316,29.644 C69.316,27.016 71.17,25.09 73.798,25.09 C75.508,25.09 76.516,25.81 77.128,26.638 L75.886,27.772 C75.4,27.088 74.734,26.764 73.888,26.764 C72.322,26.764 71.26,27.952 71.26,29.644 C71.26,31.336 72.322,32.542 73.888,32.542 C74.734,32.542 75.4,32.182 75.886,31.498 L77.128,32.668 C76.516,33.478 75.508,34.216 73.798,34.216 Z M82.744,34.216 C79.972,34.216 78.28,32.128 78.28,29.644 C78.28,27.142 79.972,25.09 82.744,25.09 C85.516,25.09 87.208,27.142 87.208,29.644 C87.208,32.128 85.516,34.216 82.744,34.216 Z M82.744,32.542 C84.364,32.542 85.246,31.192 85.246,29.644 C85.246,28.114 84.364,26.764 82.744,26.764 C81.142,26.764 80.242,28.114 80.242,29.644 C80.242,31.192 81.142,32.542 82.744,32.542 Z M96.892,34 L95.002,34 L95.002,32.848 C94.39,33.532 93.31,34.216 91.942,34.216 C90.07,34.216 89.134,33.226 89.134,31.462 L89.134,25.306 L91.024,25.306 L91.024,30.76 C91.024,32.11 91.708,32.542 92.788,32.542 C93.742,32.542 94.57,31.984 95.002,31.408 L95.002,25.306 L96.892,25.306 L96.892,34 Z M107.116,34 L105.226,34 L105.226,28.564 C105.226,27.196 104.524,26.764 103.462,26.764 C102.508,26.764 101.68,27.34 101.23,27.916 L101.23,34 L99.34,34 L99.34,25.306 L101.23,25.306 L101.23,26.476 C101.806,25.792 102.94,25.09 104.308,25.09 C106.18,25.09 107.116,26.098 107.116,27.88 L107.116,34 Z M112.192,34.216 C110.716,34.216 109.96,33.424 109.96,31.966 L109.96,26.944 L108.52,26.944 L108.52,25.306 L109.96,25.306 L109.96,22.93 L111.85,22.93 L111.85,25.306 L113.614,25.306 L113.614,26.944 L111.85,26.944 L111.85,31.498 C111.85,32.092 112.138,32.542 112.678,32.542 C113.038,32.542 113.362,32.38 113.506,32.218 L113.956,33.658 C113.614,33.964 113.056,34.216 112.192,34.216 Z M123.892,34.216 C121.12,34.216 119.428,32.128 119.428,29.644 C119.428,27.142 121.12,25.09 123.892,25.09 C126.664,25.09 128.356,27.142 128.356,29.644 C128.356,32.128 126.664,34.216 123.892,34.216 Z M123.892,32.542 C125.512,32.542 126.394,31.192 126.394,29.644 C126.394,28.114 125.512,26.764 123.892,26.764 C122.29,26.764 121.39,28.114 121.39,29.644 C121.39,31.192 122.29,32.542 123.892,32.542 Z M138.058,34 L136.168,34 L136.168,28.564 C136.168,27.196 135.466,26.764 134.404,26.764 C133.45,26.764 132.622,27.34 132.172,27.916 L132.172,34 L130.282,34 L130.282,25.306 L132.172,25.306 L132.172,26.476 C132.748,25.792 133.882,25.09 135.25,25.09 C137.122,25.09 138.058,26.098 138.058,27.88 L138.058,34 Z M147.508,34 L145.618,34 L145.618,26.944 L144.178,26.944 L144.178,25.306 L145.618,25.306 L145.618,24.82 C145.618,22.876 146.77,21.814 148.354,21.814 C148.966,21.814 149.488,21.922 149.884,22.138 L149.47,23.56 C149.272,23.434 149.02,23.362 148.714,23.362 C147.958,23.362 147.508,23.848 147.508,24.82 L147.508,25.306 L149.272,25.306 L149.272,26.944 L147.508,26.944 L147.508,34 Z M151.666,24.244 C151.018,24.244 150.496,23.722 150.496,23.074 C150.496,22.426 151.018,21.904 151.666,21.904 C152.314,21.904 152.836,22.426 152.836,23.074 C152.836,23.722 152.314,24.244 151.666,24.244 Z M152.602,34 L150.712,34 L150.712,25.306 L152.602,25.306 L152.602,34 Z M156.94,34 L155.05,34 L155.05,25.306 L156.94,25.306 L156.94,26.566 C157.606,25.738 158.65,25.09 159.766,25.09 L159.766,26.962 C159.604,26.926 159.424,26.908 159.19,26.908 C158.38,26.908 157.318,27.448 156.94,28.078 L156.94,34 Z M164.284,34.216 C162.79,34.216 161.458,33.73 160.558,32.848 L161.422,31.498 C162.034,32.128 163.24,32.704 164.356,32.704 C165.49,32.704 166.084,32.236 166.084,31.552 C166.084,29.842 160.828,31.066 160.828,27.718 C160.828,26.296 162.052,25.09 164.248,25.09 C165.724,25.09 166.84,25.612 167.614,26.296 L166.822,27.628 C166.3,27.052 165.346,26.584 164.248,26.584 C163.258,26.584 162.646,27.052 162.646,27.664 C162.646,29.194 167.902,28.042 167.902,31.498 C167.902,33.046 166.624,34.216 164.284,34.216 Z M172.42,34.216 C170.944,34.216 170.188,33.424 170.188,31.966 L170.188,26.944 L168.748,26.944 L168.748,25.306 L170.188,25.306 L170.188,22.93 L172.078,22.93 L172.078,25.306 L173.842,25.306 L173.842,26.944 L172.078,26.944 L172.078,31.498 C172.078,32.092 172.366,32.542 172.906,32.542 C173.266,32.542 173.59,32.38 173.734,32.218 L174.184,33.658 C173.842,33.964 173.284,34.216 172.42,34.216 Z M184.12,34.216 C181.348,34.216 179.656,32.128 179.656,29.644 C179.656,27.142 181.348,25.09 184.12,25.09 C186.892,25.09 188.584,27.142 188.584,29.644 C188.584,32.128 186.892,34.216 184.12,34.216 Z M184.12,32.542 C185.74,32.542 186.622,31.192 186.622,29.644 C186.622,28.114 185.74,26.764 184.12,26.764 C182.518,26.764 181.618,28.114 181.618,29.644 C181.618,31.192 182.518,32.542 184.12,32.542 Z M192.868,34 L190.978,34 L190.978,26.944 L189.538,26.944 L189.538,25.306 L190.978,25.306 L190.978,24.82 C190.978,22.93 192.076,21.814 193.714,21.814 C194.506,21.814 195.28,22.012 195.802,22.57 L195.064,23.74 C194.812,23.506 194.488,23.362 194.074,23.362 C193.318,23.362 192.868,23.848 192.868,24.82 L192.868,25.306 L194.632,25.306 L194.632,26.944 L192.868,26.944 L192.868,34 Z M198.43,34 L196.54,34 L196.54,26.944 L195.1,26.944 L195.1,25.306 L196.54,25.306 L196.54,24.82 C196.54,22.93 197.638,21.814 199.276,21.814 C200.068,21.814 200.842,22.012 201.364,22.57 L200.626,23.74 C200.374,23.506 200.05,23.362 199.636,23.362 C198.88,23.362 198.43,23.848 198.43,24.82 L198.43,25.306 L200.194,25.306 L200.194,26.944 L198.43,26.944 L198.43,34 Z M205.648,34.216 C203.02,34.216 201.094,32.398 201.094,29.644 C201.094,27.124 202.93,25.09 205.504,25.09 C208.114,25.09 209.77,27.07 209.77,29.806 L209.77,30.274 L203.074,30.274 C203.218,31.57 204.19,32.668 205.828,32.668 C206.692,32.668 207.682,32.326 208.312,31.696 L209.176,32.938 C208.294,33.766 207.016,34.216 205.648,34.216 Z M207.952,28.924 C207.898,27.898 207.196,26.638 205.486,26.638 C203.884,26.638 203.128,27.88 203.056,28.924 L207.952,28.924 Z M213.532,34 L211.642,34 L211.642,25.306 L213.532,25.306 L213.532,26.566 C214.198,25.738 215.242,25.09 216.358,25.09 L216.358,26.962 C216.196,26.926 216.016,26.908 215.782,26.908 C214.972,26.908 213.91,27.448 213.532,28.078 L213.532,34 Z"/>
      <g fill="#96C775" transform="translate(16 18)">
        <path d="M7.5,3.5 L6.5,3.5 C5.94771525,3.5 5.5,3.94771525 5.5,4.5 L5.5,14.5 C5.5,15.0522847 5.94771525,15.5 6.5,15.5 L12.5,15.5 C13.0522847,15.5 13.5,15.0522847 13.5,14.5 L13.5,4.5 C13.5,3.94771525 13.0522847,3.5 12.5,3.5 L11.5,3.5 L11.5,4 C11.5,4.27614237 11.2761424,4.5 11,4.5 L8,4.5 C7.72385763,4.5 7.5,4.27614237 7.5,4 L7.5,3.5 Z M4,3.99188419 C4,2.89179693 4.90017617,2 5.99201702,2 L13.007983,2 C14.1081436,2 15,2.89339733 15,3.99188419 L15,15.0081158 C15,16.1082031 14.0998238,17 13.007983,17 L5.99201702,17 C4.8918564,17 4,16.1066027 4,15.0081158 L4,3.99188419 Z"/>
        <rect width="7" height="3" x="6" y="8" rx="1.5"/>
      </g>
    </g>
    <g transform="rotate(64 35.981 473.794)">
      <rect width="30.762" height="28.8" x=".687" y="6.547" fill="#01B2D0" opacity=".1" rx="3"/>
      <rect width="28.762" height="26.8" x="7.401" y="1.85" stroke="#01B2D0" stroke-width="2" rx="3"/>
    </g>
    <g transform="rotate(-103 49.647 20.722)">
      <rect width="21" height="20" x=".791" y="3.808" fill="#01B2D0" opacity=".1" rx="3"/>
      <rect width="19" height="18" x="4.64" y="1.361" stroke="#01B2D0" stroke-width="2" rx="3"/>
    </g>
    <g transform="rotate(-55 321.42 -417.293)">
      <path fill="#6FD350" d="M18.9634503,13.1490117 L26.9913143,29.2047398 C27.9792713,31.1806538 27.1783739,33.5833459 25.2024599,34.5713029 C24.6470382,34.8490138 24.0345859,34.9935942 23.4136056,34.9935942 L7.35787748,34.9935942 C5.14873848,34.9935942 3.35787748,33.2027332 3.35787748,30.9935942 C3.35787748,30.3726138 3.50245784,29.7601615 3.78016871,29.2047398 L11.8080328,13.1490117 C12.7959898,11.1730977 15.1986819,10.3722003 17.1745959,11.3601573 C17.9487055,11.7472121 18.5763955,12.3749021 18.9634503,13.1490117 Z" opacity=".2"/>
      <path stroke="#6FD350" stroke-width="2" d="M24.8678151,7.61488533 C24.577524,7.03430313 24.1067565,6.56353565 23.5261743,6.27324455 C22.0442388,5.5322768 20.2422197,6.13294984 19.5012519,7.61488533 L11.4733879,23.6706134 C11.2651047,24.0871797 11.1566694,24.5465189 11.1566694,25.0122542 C11.1566694,26.6691085 12.4998152,28.0122542 14.1566694,28.0122542 L30.2123975,28.0122542 C30.6781328,28.0122542 31.137472,27.9038189 31.5540383,27.6955358 C33.0359738,26.954568 33.6366468,25.1525489 32.8956791,23.6706134 L24.8678151,7.61488533 Z"/>
    </g>
    <g transform="rotate(26 -741.897 798.647)">
      <path fill="#6FD350" d="M14.5657296,12.9362695 L18.7244126,21.6497005 C19.6759541,23.6434066 18.8311128,26.0310015 16.8374068,26.982543 C16.2993478,27.2393439 15.7106881,27.3726189 15.1144884,27.3726189 L6.79712241,27.3726189 C4.58798342,27.3726189 2.79712241,25.5817579 2.79712241,23.3726189 C2.79712241,22.7764191 2.9303974,22.1877595 3.18719826,21.6497005 L7.34588127,12.9362695 C8.29742279,10.9425634 10.6850177,10.0977221 12.6787238,11.0492637 C13.5051885,11.4437128 14.1712805,12.1098047 14.5657296,12.9362695 Z" opacity=".2"/>
      <path stroke="#6FD350" stroke-width="2" d="M18.8237364,8.53281195 C18.5278996,7.91296338 18.0283306,7.41339442 17.408482,7.1175576 C15.9132025,6.40390145 14.1225063,7.03753241 13.4088502,8.53281195 L9.25016718,17.246243 C9.05756653,17.6497872 8.95761029,18.091282 8.95761029,18.5384318 C8.95761029,20.195286 10.300756,21.5384318 11.9576103,21.5384318 L20.2749763,21.5384318 C20.7221261,21.5384318 21.1636208,21.4384755 21.5671651,21.2458749 C23.0624446,20.5322187 23.6960756,18.7415225 22.9824194,17.246243 L18.8237364,8.53281195 Z"/>
    </g>
    <g transform="rotate(-126 124.796 192.445)">
      <ellipse cx="15.955" cy="11.913" stroke="#FFC111" stroke-width="2" rx="10.455" ry="10.391"/>
      <ellipse cx="12.091" cy="15.316" fill="#FFC111" opacity=".2" rx="11.455" ry="11.391"/>
    </g>
  </g>
</svg>
