<svg width="41" height="40" xmlns="http://www.w3.org/2000/svg"><g fill="none"><path d="M17.906 3.423L2.956 9.61c-.832.344-.823 1.525.014 1.856l15.013 5.954a5.57 5.57 0 004.107 0l15.014-5.954c.836-.331.845-1.512.013-1.856l-14.95-6.187a5.571 5.571 0 00-4.26 0" fill="#FCB400"/><path d="M21.368 20.671v14.873c0 .708.714 1.192 1.371.931l16.73-6.493c.382-.152.632-.52.632-.931V14.178c0-.708-.713-1.192-1.37-.932L22 19.74a1 1 0 00-.633.931" fill="#18BFFF"/><path d="M17.462 21.439l-4.965 2.397-.504.243-10.48 5.022C.847 29.421 0 28.938 0 28.2V14.24c0-.267.137-.497.32-.671.077-.077.164-.14.254-.19.25-.15.608-.19.912-.07l15.893 6.296c.807.321.87 1.453.083 1.834" fill="#F82B60"/><path d="M17.462 21.439l-4.965 2.397L.321 13.569c.076-.077.163-.14.253-.19.25-.15.608-.19.912-.07l15.893 6.296c.807.321.87 1.453.083 1.834" fill-opacity=".25" fill="#000"/></g></svg>