<svg xmlns="http://www.w3.org/2000/svg" width="40" height="40" viewBox="0 0 40 40"><g fill="none" fill-rule="evenodd"><path fill="#252F3E" fill-rule="nonzero" d="M12.007 17.664c0 .433.047.785.129 1.042.094.258.21.54.375.844a.51.51 0 01.082.27c0 .117-.07.234-.223.351l-.738.492a.562.562 0 01-.305.106c-.117 0-.234-.059-.351-.164a3.625 3.625 0 01-.422-.551 9.071 9.071 0 01-.363-.691c-.914 1.078-2.063 1.617-3.445 1.617-.985 0-1.77-.282-2.344-.844-.574-.562-.867-1.312-.867-2.25 0-.996.352-1.804 1.066-2.414.715-.61 1.664-.914 2.871-.914.399 0 .809.035 1.242.094.434.059.88.152 1.348.258v-.856c0-.89-.188-1.511-.55-1.874-.376-.364-1.009-.54-1.91-.54a5.3 5.3 0 00-1.266.153 9.337 9.337 0 00-1.266.398 3.362 3.362 0 01-.41.153.719.719 0 01-.188.035c-.164 0-.246-.117-.246-.364v-.574c0-.187.024-.328.082-.41.059-.082.164-.164.329-.246a6.76 6.76 0 011.476-.527 7.104 7.104 0 011.828-.223c1.394 0 2.414.317 3.07.95.645.632.973 1.593.973 2.882v3.797h.023zm-4.757 1.78c.386 0 .785-.07 1.207-.21.421-.14.796-.399 1.113-.75a1.86 1.86 0 00.398-.75c.07-.281.117-.621.117-1.02v-.492a9.786 9.786 0 00-1.078-.199 8.83 8.83 0 00-1.101-.07c-.785 0-1.36.152-1.746.468-.387.317-.574.762-.574 1.348 0 .55.14.96.433 1.242.281.293.692.434 1.23.434zm9.41 1.266c-.212 0-.352-.035-.446-.117-.094-.07-.176-.234-.246-.457l-2.754-9.058c-.07-.234-.105-.387-.105-.469 0-.187.093-.293.28-.293h1.15c.222 0 .374.036.456.118.094.07.164.234.235.457l1.968 7.757 1.828-7.757c.059-.235.129-.387.223-.457.093-.07.258-.118.468-.118h.938c.223 0 .375.036.469.118.093.07.175.234.222.457l1.852 7.85 2.027-7.85c.07-.235.152-.387.234-.457.094-.07.246-.118.457-.118h1.09c.187 0 .293.094.293.293 0 .059-.012.118-.024.188-.011.07-.035.164-.082.293l-2.824 9.058c-.07.234-.152.386-.246.457-.093.07-.246.117-.445.117H22.67c-.222 0-.375-.035-.468-.117-.094-.082-.176-.235-.223-.469l-1.816-7.558-1.805 7.546c-.058.235-.129.387-.222.469-.094.082-.258.117-.47.117H16.66zm15.057.317c-.61 0-1.22-.07-1.805-.211-.586-.141-1.043-.293-1.348-.47-.187-.105-.316-.222-.363-.327a.827.827 0 01-.07-.328v-.598c0-.246.094-.363.27-.363.07 0 .14.012.21.035.07.023.176.07.293.117.399.176.832.317 1.29.41.468.094.925.14 1.394.14.738 0 1.312-.128 1.71-.386.399-.258.61-.633.61-1.113a1.14 1.14 0 00-.317-.82c-.21-.223-.609-.422-1.183-.61l-1.7-.527c-.855-.27-1.487-.668-1.874-1.195a2.792 2.792 0 01-.586-1.7c0-.491.106-.925.316-1.3a3.01 3.01 0 01.844-.96 3.72 3.72 0 011.219-.61c.469-.14.96-.2 1.476-.2.258 0 .528.012.785.048.27.035.516.082.762.128.234.06.457.118.668.188.21.07.375.14.492.21.164.095.281.188.352.294.07.094.105.222.105.387v.55c0 .246-.094.375-.27.375-.093 0-.245-.047-.445-.14-.668-.305-1.418-.457-2.25-.457-.667 0-1.195.105-1.558.328-.363.222-.55.562-.55 1.043 0 .328.116.609.35.832.235.222.669.445 1.29.644l1.664.527c.843.27 1.453.645 1.816 1.125s.539 1.031.539 1.64a3 3 0 01-.305 1.36c-.21.398-.492.75-.855 1.031-.363.293-.797.504-1.3.656a5.572 5.572 0 01-1.676.247z"/><g fill="#F90"><path d="M33.931 26.721c-3.855 2.848-9.456 4.36-14.272 4.36-6.75 0-12.831-2.496-17.425-6.645-.363-.328-.035-.773.399-.515 4.968 2.882 11.097 4.628 17.436 4.628 4.277 0 8.976-.89 13.3-2.718.644-.293 1.195.422.562.89z"/><path d="M35.537 24.893c-.493-.632-3.258-.304-4.512-.152-.375.047-.433-.281-.094-.527 2.203-1.547 5.824-1.102 6.246-.586.422.527-.117 4.148-2.18 5.882-.316.27-.62.13-.48-.222.469-1.16 1.512-3.774 1.02-4.395z"/></g></g></svg>