<svg xmlns="http://www.w3.org/2000/svg" width="87" height="40" viewBox="0 0 87 40"><g fill="none" transform="translate(.5 4)"><path fill="#333E48" d="M8.008 15.555c-2.154 0-3.778.671-4.878 2.225V7.633a.21.21 0 00-.211-.21H.983a.21.21 0 00-.21.21V31.15a.21.21 0 00.21.211H2.92a.21.21 0 00.21-.21v-1.78a5.214 5.214 0 002.108 1.725 6.728 6.728 0 002.77.562c1.83.088 3.593-.7 4.746-2.123 1.14-1.416 1.71-3.398 1.71-5.948 0-2.55-.565-4.521-1.694-5.916a5.776 5.776 0 00-4.761-2.115zm3.122 12.223a3.637 3.637 0 01-3.177 1.475 4.191 4.191 0 01-3.442-1.312c-.718-.874-1.077-2.33-1.077-4.37s.349-3.486 1.046-4.34c.697-.858 1.837-1.288 3.419-1.288a3.793 3.793 0 013.239 1.39 7.024 7.024 0 011.045 4.214 7.259 7.259 0 01-1.061 4.262l.008-.031zm39.18-12.254c-2.817 0-4.511 1.311-4.987 2.2v-1.708a.21.21 0 00-.21-.211h-1.936a.21.21 0 00-.211.21v15.119c0 .116.094.21.21.21h1.936a.21.21 0 00.21-.21v-7.735c0-2.024.378-3.476 1.133-4.355a4.558 4.558 0 013.574-1.561 3.52 3.52 0 012.709.937c.635.801.944 1.813.866 2.833v9.842c0 .116.094.21.21.21h1.936a.21.21 0 00.211-.21v-9.928c0-1.983-.474-3.427-1.42-4.332a5.9 5.9 0 00-4.23-1.311zm19.56.726a8.133 8.133 0 00-1.562-.484 10.612 10.612 0 00-2.24-.242 6.759 6.759 0 00-5.354 2.123c-1.254 1.415-1.88 3.424-1.88 6.025 0 2.602.616 4.56 1.849 5.877a6.634 6.634 0 005.221 2.076 8.632 8.632 0 003.81-.78.21.21 0 00.116-.187V29.01a.21.21 0 00-.28-.195 10.31 10.31 0 01-3.7.725 4.02 4.02 0 01-3.427-1.56 7.188 7.188 0 01-1.155-4.395c0-4.027 1.58-6.04 4.738-6.04.55.008 1.096.076 1.631.202.512.114 1.015.262 1.506.445a.203.203 0 00.266-.125l.585-1.623a.21.21 0 00-.125-.195zm-31.244.117c-.895-.822-2.268-1.233-4.12-1.233-.925 0-1.846.118-2.74.35-.812.209-1.597.507-2.342.89a.21.21 0 00-.093.266l.57 1.42a.21.21 0 00.28.11 10.03 10.03 0 014.192-1.093 3.239 3.239 0 012.513.874c.425.562.67 1.24.702 1.944h-2.177a8.632 8.632 0 00-3.122.5 7.126 7.126 0 00-2.654 1.755 5.924 5.924 0 00-1.56 4.629 5.05 5.05 0 002.255 3.754 5.768 5.768 0 003.348 1.069 5.55 5.55 0 001.858-.32 6.033 6.033 0 002.146-1.32v1.148a.21.21 0 00.21.211h1.827a.21.21 0 00.21-.21V20.424c.032-1.81-.413-3.23-1.303-4.058zm-.913 8.18c0 2.02-1.014 4.237-3.036 4.955a3.598 3.598 0 01-3.247-.476 3.653 3.653 0 01-.367-5.416 5.143 5.143 0 011.897-1.249 6.728 6.728 0 012.42-.367h2.341l-.008 2.552zm-11.582-8.742a11.465 11.465 0 00-1.678-.11c-2.763.102-4.683 1.882-4.683 2.061v-1.56a.21.21 0 00-.211-.212h-1.936a.21.21 0 00-.21.211v15.118c0 .117.094.21.21.21h1.936a.21.21 0 00.21-.21v-8.187a5.58 5.58 0 011.343-3.817 4.144 4.144 0 013.224-1.56c.498.005.995.06 1.483.163a.21.21 0 00.25-.172l.265-1.756a.21.21 0 00-.203-.18z"/><path fill="#333E48" d="M84.511 16.882a5.9 5.9 0 00-4.222-1.35c-2.818 0-4.511 1.31-4.988 2.2v-.163l-.101-2.857 2.529-1.56a1.936 1.936 0 10-.78-1.273l-1.788 1.1-.125-3.644 2.49-1.522a2.24 2.24 0 10-.835-1.257l-1.717 1.062-.102-2.912a2.037 2.037 0 10-1.467 0l-.187 6.034-1.866-1.187a2.341 2.341 0 10-.78 1.28l2.599 1.647-.133 4.41-.07 2.341v11.895c0 .116.094.21.21.21h1.952a.21.21 0 00.21-.21V23.39c0-2.024.378-3.476 1.132-4.355a4.48 4.48 0 013.208-1.514h.359a3.52 3.52 0 012.7.937c.636.801.945 1.813.867 2.833v9.849a.21.21 0 00.21.211h1.952a.21.21 0 00.21-.21v-9.928c-.036-1.988-.525-3.432-1.467-4.332z"/><circle cx="74.107" cy="2.818" r="1.233" fill="#4DA3DC"/><circle cx="78.767" cy="11.614" r="1.124" fill="#4DA3DC"/><circle cx="78.882" cy="6.092" r="1.319" fill="#4DA3DC" transform="rotate(-25.97 78.882 6.092)"/><circle cx="69.026" cy="9.022" r="1.428" fill="#4DA3DC"/></g></svg>