<svg xmlns="http://www.w3.org/2000/svg" width="40" height="40" viewBox="0 0 40 40"><g fill="none"><path fill="#EE5757" d="M.064 23.294v-7.111c0-.362.294-.651.653-.651h8.029c.363 0 .653.293.653.65v7.112a.652.652 0 01-.653.651H.717a.652.652 0 01-.653-.65z"/><path fill="#61DABF" d="M9.403 28.481v7.289a.65.65 0 01-.649.65l-8.029.073a.654.654 0 01-.66-.651v-7.365a.65.65 0 01.652-.65h8.029a.661.661 0 01.657.654z"/><path fill="#EE5757" d="M24.816 3.707a.652.652 0 00-.653-.65H.717a.652.652 0 00-.653.65v7.285c0 .361.294.65.653.65H24.16a.652.652 0 00.652-.65V3.707h.004z"/><path fill="#61DABF" d="M24.816 16.183a.652.652 0 00-.653-.651h-9.97a.652.652 0 00-.653.65v7.112c0 .362.294.651.653.651h9.966a.652.652 0 00.653-.65v-7.112h.004z"/></g></svg>