<svg xmlns="http://www.w3.org/2000/svg" width="40" height="40" viewBox="0 0 40 40"><g fill="none"><path fill="#6AC3E2" d="M36.132 27.29l-9.67 9.67H12.715l-9.712-9.712V13.502l9.713-9.713H26.46l-6.88 16.578.09.037 16.503-6.828v13.73l-.042-.017z"/><path fill="#6AC3E2" d="M12.716 3.79l-9.713 9.711 16.578 6.865z"/><path fill="#6E9FD4" d="M26.461 3.79H12.716l6.865 16.577z"/><path fill="#F2852F" d="M26.461 36.96l9.713-9.712-16.593-6.88z"/><path fill="#F1C32E" d="M12.716 36.96H26.46l-6.88-16.593z"/><path fill="#CBDC37" d="M3.003 27.248l9.713 9.712 6.865-16.593z"/><path fill="#B5D66D" d="M3.003 13.502v13.746l16.578-6.88z"/><path fill="#F26A21" d="M36.174 27.307V13.576L19.58 20.44z"/></g></svg>