<svg xmlns="http://www.w3.org/2000/svg" width="40" height="40" viewBox="0 0 40 40"><g fill="none"><path fill="#F9AB00" d="M35.999 32.99a4.402 4.402 0 01-4.921 4.395 4.515 4.515 0 01-3.853-4.576V6.606a4.517 4.517 0 013.86-4.575 4.402 4.402 0 014.914 4.395V32.99z"/><path fill="#E37400" d="M8.388 28.648a4.387 4.387 0 110 8.775 4.387 4.387 0 010-8.775zM19.932 15.35a4.515 4.515 0 00-4.267 4.613V31.75c0 3.198 1.407 5.14 3.47 5.553a4.394 4.394 0 005.267-4.32V19.76a4.402 4.402 0 00-4.395-4.41h-.075z"/></g></svg>