<svg width="30" height="40" xmlns="http://www.w3.org/2000/svg"><g fill="none"><path d="M10.246 9.411c.286-.751.68-1.443 1.264-2.004 2.338-2.278 6.202-1.705 7.789 1.157 1.193 2.171 2.457 4.294 3.685 6.441 2.052 3.567 4.127 7.133 6.155 10.711 1.706 2.994-.143 6.775-3.53 7.288-2.076.31-4.02-.644-5.094-2.505-1.8-3.137-3.614-6.274-5.415-9.399-.035-.071-.083-.13-.13-.19-.192-.156-.275-.382-.394-.585-.8-1.407-1.623-2.803-2.422-4.198-.513-.907-1.05-1.802-1.562-2.708a4.94 4.94 0 01-.656-2.624c.035-.477.095-.954.31-1.384" fill="#3C8BD9"/><path d="M10.246 9.411c-.108.43-.203.86-.227 1.312-.036 1.002.215 1.933.716 2.803 1.312 2.255 2.624 4.52 3.924 6.787.12.203.215.406.334.596a595.639 595.639 0 01-2.159 3.71c-1.002 1.73-2.004 3.47-3.018 5.2-.047 0-.06-.023-.071-.06-.012-.095.024-.178.048-.274.489-1.789.083-3.375-1.146-4.735-.75-.823-1.705-1.288-2.802-1.443-1.432-.203-2.696.167-3.83 1.061-.202.156-.333.382-.572.501-.047 0-.071-.023-.083-.06.572-.99 1.133-1.98 1.705-2.97a4124.39 4124.39 0 017.097-12.297c.024-.047.06-.083.084-.13" fill="#FABC04"/><path d="M1.407 24.846c.227-.203.442-.418.68-.609 2.899-2.29 7.252-.632 7.884 2.994.156.87.072 1.706-.19 2.54a1.248 1.248 0 01-.048.203c-.107.191-.203.394-.322.585-1.062 1.753-2.624 2.624-4.676 2.493-2.35-.167-4.198-1.933-4.52-4.27a4.772 4.772 0 01.656-3.173c.119-.215.262-.406.393-.62.06-.048.036-.143.143-.143" fill="#34A852"/><path d="M1.407 24.846c-.047.047-.047.13-.13.143-.013-.084.035-.131.083-.191l.047.048" fill="#FABC04"/><path d="M9.733 29.974c-.048-.083 0-.143.048-.202l.047.047-.095.155" fill="#E1C025"/></g></svg>