<svg height="33" width="276" xmlns="http://www.w3.org/2000/svg"><g fill="none"><path d="M53.35 15.456h-6.459a1.32 1.32 0 00-1.432 1.405v.66a1.32 1.32 0 001.432 1.405h3.537v3.16a7.918 7.918 0 01-3.57.819 6.525 6.525 0 01-.204-13.044 7.607 7.607 0 013.86.844c.818.383 1.431.324 1.979-.409l.732-.937a1.24 1.24 0 00-.35-1.98 11.777 11.777 0 00-6.201-1.576c-6.407 0-11.026 4.797-11.026 10.557 0 5.76 4.533 10.556 11.144 10.556a11.79 11.79 0 007.106-2.368 2.019 2.019 0 00.904-1.782v-5.938a1.32 1.32 0 00-1.451-1.372zm11.903-4.236c-4.763 0-8.333 3.51-8.333 7.838 0 4.329 3.57 7.839 8.333 7.839 4.764 0 8.333-3.51 8.333-7.839 0-4.328-3.563-7.838-8.333-7.838zm0 12.021a4.17 4.17 0 114.025-4.104 4.031 4.031 0 01-4.025 4.124zm22.083-14.6V7.53a1.32 1.32 0 00-1.432-1.405H71.918a1.267 1.267 0 00-1.405 1.406V8.64a1.267 1.267 0 001.405 1.405h4.678v15.176A1.267 1.267 0 0078 26.626h1.755a1.267 1.267 0 001.406-1.405V10.046h4.737a1.32 1.32 0 001.438-1.406z" fill="#53565a"/><path d="M92.595 11.22c-4.764 0-8.333 3.51-8.333 7.838s3.57 7.838 8.333 7.838 8.353-3.49 8.353-7.812-3.583-7.864-8.353-7.864zm0 12.021a4.17 4.17 0 114.038-4.15 4.031 4.031 0 01-4.038 4.17zM127.22 6.126h-.7a.805.805 0 00-.877.66l-5.12 16.053-4.797-15.38a.805.805 0 00-.877-.66h-.588a.825.825 0 00-.877.66l-4.797 15.38L103.5 6.786a.851.851 0 00-.877-.66h-.7c-.554 0-.818.35-.66.904l5.939 18.923a.851.851 0 00.877.66h.732a.805.805 0 00.878-.66l4.856-15.644 4.876 15.644a.851.851 0 00.877.66h.733a.845.845 0 00.877-.66l5.998-18.923c.132-.554-.132-.904-.686-.904zm8.28 5.556a7.634 7.634 0 00-7.805 7.693c0 4.124 3.16 7.541 8.188 7.541a8.366 8.366 0 005.529-1.9.785.785 0 00.178-1.227l-.231-.231a.779.779 0 00-1.082-.086 7.073 7.073 0 01-4.388 1.465c-3.596 0-6.142-2.395-5.938-5.641h12.074c.528 0 .851-.29.759-.792-.383-4.685-3.715-6.822-7.284-6.822zm-5.351 5.878a5.457 5.457 0 015.41-3.892c2.02 0 4.296.877 4.975 3.892zm23.396-5.878a6.374 6.374 0 00-5.7 3.187V6.245a.726.726 0 00-.792-.792h-.66a.713.713 0 00-.759.792v19.563a.713.713 0 00.759.792h.66a.726.726 0 00.791-.792v-2.052a6.314 6.314 0 005.701 3.187c4.447 0 7.31-3.425 7.31-7.601 0-4.177-2.87-7.66-7.31-7.66zm-.23 13.248c-3.22 0-5.497-2.342-5.53-5.614-.033-3.273 2.31-5.642 5.53-5.642 3.331 0 5.277 2.547 5.277 5.642s-1.946 5.614-5.284 5.614zm11.783-19.444a1.65 1.65 0 101.61 1.67 1.597 1.597 0 00-1.61-1.67zm.35 6.519h-.66a.739.739 0 00-.792.792v13.01a.726.726 0 00.792.793h.66a.713.713 0 00.758-.792V12.79a.713.713 0 00-.758-.785zm12.311-.323a5.173 5.173 0 00-5.087 3.424v-2.31a.726.726 0 00-.791-.791h-.66a.732.732 0 00-.759.792v13.01a.713.713 0 00.759.793h.66a.726.726 0 00.791-.792V19.52c0-4.71 3.332-5.846 4.942-5.846 1.841 0 3.682 1.109 3.682 4.619v7.488a.726.726 0 00.792.792h.66a.726.726 0 00.791-.792V18.32c.007-4.823-2.679-6.637-5.78-6.637zm23.047.323h-.66a.713.713 0 00-.759.792v2.105a6.387 6.387 0 00-5.733-3.22c-4.474 0-7.258 3.45-7.258 7.634s2.864 7.6 7.258 7.6a6.334 6.334 0 005.733-3.186v2.078a.7.7 0 00.759.792h.66a.726.726 0 00.792-.792V12.79a.726.726 0 00-.792-.785zm-6.902 12.925c-3.365 0-5.324-2.546-5.324-5.614s1.927-5.642 5.278-5.642c3.352 0 5.53 2.428 5.53 5.642a5.344 5.344 0 01-5.484 5.614zm18.455-13.189a6.09 6.09 0 00-.7-.06c-2.13 0-3.714 1.492-4.268 3.86v-2.75a.726.726 0 00-.792-.793h-.66a.732.732 0 00-.759.792v13.011a.713.713 0 00.759.792h.66a.726.726 0 00.792-.792v-4.763c0-5.556 2.25-7.192 4.123-7.192.265.006.53.026.792.06.383.118.587-.12.587-.66v-.614c-.013-.449-.099-.805-.534-.89z" fill="#53565a"/><path d="M27.639 18.86a4.341 4.341 0 00-4.757.172.871.871 0 01-.938.046l-4.308-2.487a.106.106 0 010-.185l4.289-2.474a.871.871 0 01.943.052 4.341 4.341 0 004.77.192 4.388 4.388 0 001.577-5.78 4.342 4.342 0 00-8.141 2.435.871.871 0 01-.43.83l-4.308 2.488a.106.106 0 01-.165-.092V9.076a.871.871 0 01.515-.786 4.342 4.342 0 10-3.629 0 .871.871 0 01.515.786v4.981a.106.106 0 01-.165.092l-4.309-2.487a.864.864 0 01-.428-.831 4.341 4.341 0 10-1.795 3.153.871.871 0 01.944-.052l4.288 2.474a.106.106 0 010 .185L7.8 19.078a.871.871 0 01-.937-.046 4.341 4.341 0 00-4.757-.172 4.388 4.388 0 00-1.57 5.773 4.342 4.342 0 008.141-2.46.871.871 0 01.429-.839l4.308-2.487a.106.106 0 01.165.092v4.982a.871.871 0 01-.514.785 4.341 4.341 0 103.629 0 .871.871 0 01-.515-.785v-4.982a.106.106 0 01.165-.092l4.308 2.487a.871.871 0 01.43.838 4.341 4.341 0 008.141 2.461 4.387 4.387 0 00-1.584-5.773z" fill="#00c0f3"/><path d="M240.028 19.947a.278.278 0 01.104.207v6.073c0 1.633-.747 3.211-3.513 3.211h-.033c-1.826 0-2.826-.922-3.052-1.836a.293.293 0 01.033-.26.354.354 0 01.21-.115c.091-.018 1.261 0 1.31 0a.334.334 0 01.269.14 1.491 1.491 0 001.608.799 1.432 1.432 0 001.332-1.236c.018-.083.07-.723.07-.723.019-.167 0-.278-.092-.334a.208.208 0 00-.164 0 .241.241 0 00-.09.052 2.664 2.664 0 01-1.776.686c-1.6 0-2.996-1.072-2.996-3.554v-.334c.063-.808.637-3.051 2.998-3.051a2.293 2.293 0 011.755.7.204.204 0 00.176.08c.117-.014.173-.144.2-.303v-.091a.334.334 0 01.073-.126.387.387 0 01.196-.06h1.188a.297.297 0 01.194.074zm-3.33 5.24h-.003c.968 0 1.642-.796 1.658-2.19 0-1.271-.938-1.897-1.666-1.897-.808 0-1.55.637-1.55 1.881 0 1.503.658 2.208 1.562 2.208zm-7.596-5.496a3.473 3.473 0 013.61 3.6v.02c0 2.542-1.762 3.7-3.61 3.7-1.849 0-2.828-1.013-3.294-2.034a4.044 4.044 0 01-.315-1.699c0-1.146.641-3.587 3.561-3.587zm-.065 5.902c.724 0 1.781-.395 1.781-2.222 0-1.447-.706-2.248-1.64-2.248-.933 0-1.804.612-1.804 2.239 0 1.625.912 2.231 1.664 2.231zm45.095-9.214a.886.886 0 110-1.771.886.886 0 010 1.771zm0-1.632a.746.746 0 100 1.491.746.746 0 000-1.491zm-48.797 10.42a.303.303 0 01.076.207v1.08a.39.39 0 010 .148.364.364 0 01-.334.204l-5.37-.018a.29.29 0 01-.21-.13.382.382 0 01-.053-.208v-8.91a.42.42 0 01.046-.19.334.334 0 01.217-.133h1.545a.244.244 0 01.206.1.413.413 0 01.07.249v6.976a1.456 1.456 0 000 .18.42.42 0 00.034.156.39.39 0 00.377.176h2.953c.092.004.185.015.278.034a.294.294 0 01.167.08zm29.848-5.491c2.553-.074 3.53 2.144 3.506 3.53 0 .111-.005.222-.018.334a.263.263 0 01-.093.174.449.449 0 01-.197.074 2.169 2.169 0 01-.269 0h-4.06a.444.444 0 00-.149.034.334.334 0 00-.204.334v.098c.047.46.427 1.334 1.731 1.334a1.663 1.663 0 001.332-.627c.032-.037.067-.088.096-.121a.427.427 0 01.293-.16h1.138a.16.16 0 01.139.143.19.19 0 010 .065.335.335 0 01-.019.16c-.085.226-.721 1.959-3.08 1.959-3.245 0-3.58-2.816-3.58-3.666 0-1.436.958-3.591 3.434-3.663zm1.473 2.806a.352.352 0 00.026-.335 1.478 1.478 0 00-1.378-1.076 1.545 1.545 0 00-1.57 1.155.515.515 0 000 .17.241.241 0 00.088.133c.09.052.193.074.297.07h2.26a.334.334 0 00.277-.117zm18.496-.36a7.995 7.995 0 11-15.988.002 7.995 7.995 0 1115.99 0zm-10.746 4.643a.62.62 0 00.052-.311v-8.782a.445.445 0 00-.074-.243.247.247 0 00-.202-.1h-1.505a.334.334 0 00-.246.14.696.696 0 00-.063.367v8.51c0 .095.005.19.016.284 0 .074.03.148.08.204a.39.39 0 00.206.078h1.462a.353.353 0 00.274-.147zm7.895-.181c.004-.158.008-4.128.008-4.285a3.26 3.26 0 00-.364-1.55 1.93 1.93 0 00-.85-.754 3.202 3.202 0 00-2.686.13 3.099 3.099 0 00-.493.415.17.17 0 01-.134.067c-.176-.004-.233-.416-.233-.466-.034-.207-.299-.207-.516-.207h-.766c-.213 0-.33.033-.382.107a.34.34 0 00-.078.204v6.187a.549.549 0 00.09.352.299.299 0 00.218.093c.096.024 1.194.033 1.332 0a.29.29 0 00.215-.176.445.445 0 00.04-.199v-2.756a9.992 9.992 0 01.084-1.332 1.332 1.332 0 011.362-1.176 1.169 1.169 0 011.239 1.168c.04.284.04.59.04.924v3.231a.401.401 0 00.064.206.274.274 0 00.193.117c.473.027.947.027 1.42 0a.283.283 0 00.197-.302zm-21.38.222l-1.28-.013a.352.352 0 01-.312-.133.27.27 0 01-.052-.176v-5.536a2.383 2.383 0 000-.282c-.01-.074-.05-.089-.078-.096-.026-.006-.089.046-.106.046a.896.896 0 00-.116.197c-.334.812-1.62 4.786-1.998 5.76a.293.293 0 01-.254.22h-1.232c-.154 0-.263-.13-.334-.297a941.674 941.674 0 01-1.929-5.45 1.332 1.332 0 00-.148-.31l-.052-.046a.185.185 0 00-.067-.026c-.08-.01-.111.093-.111.164v5.66a.28.28 0 01-.052.177.267.267 0 01-.204.119.508.508 0 01-.23.02h-1.186a.334.334 0 01-.204-.074.304.304 0 01-.093-.21 2.727 2.727 0 010-.289V17.71a2.01 2.01 0 010-.211.51.51 0 01.041-.156.334.334 0 01.217-.133.083.083 0 01.052 0h2.26a.556.556 0 01.333.092.373.373 0 01.13.197c.028.087 1.85 5.431 1.903 5.574.09.278.21.466.264.466s.104-.047.146-.136c.019-.024 1.826-5.59 1.872-5.732l.08-.218a.351.351 0 01.146-.177.334.334 0 01.21-.066h2.332a.297.297 0 01.193.053.311.311 0 01.148.303v8.96c0 .077-.03.153-.085.207a.34.34 0 01-.204.074zM233.1 8.891c.163 0 .275.163.217.315l-2.521 6.686-.49 1.205s-.287.698-1.187 1.004a3.32 3.32 0 01-.88.148c-.2 0-.758-.026-.758-.026-.367 0-.54-.256-.53-.552l-.008-.627a.38.38 0 01.392-.37s.295.015.393.015a7 7 0 00.263-.013.846.846 0 00.763-1.048 7.828 7.828 0 00-.29-.964 950.164 950.164 0 01-2.07-5.463.228.228 0 01.214-.31h1.346a.492.492 0 01.464.326l1.447 4.035 1.497-4.062a.456.456 0 01.428-.297zm-10.16 5.71c1.002 0 1.616-.945 1.616-2.21 0-1.267-.594-2.231-1.636-2.231-1.085 0-1.618.964-1.618 2.231 0 1.265.594 2.21 1.638 2.21zm2.987-4.441a5.02 5.02 0 01.532 2.17c0 .859-.224 2.046-.9 2.783-.675.738-1.495.921-2.188.921-.698 0-1.557-.408-1.904-.756a.1.1 0 00-.167.052l-.027.183a.375.375 0 01-.371.316h-1.024a.415.415 0 01-.416-.416V6.682a.43.43 0 01.43-.43h1.043a.408.408 0 01.408.407V9.31c0 .1.108.167.199.123l.107-.056c.358-.27 1.039-.67 1.905-.67 1.31 0 2.128.983 2.375 1.453zm47.917 4.865h.27c.06 0 .113.006.157.019a.29.29 0 01.108.05.204.204 0 01.065.08.26.26 0 01.018.105.237.237 0 01-.063.167.221.221 0 01-.072.056.363.363 0 01-.099.037.137.137 0 01.043.037l.278.366h-.115a.06.06 0 01-.052-.026l-.246-.328a.088.088 0 00-.024-.023.093.093 0 00-.041-.005h-.099v.382h-.127zm.13.099v.345h.136a.324.324 0 00.098-.013.204.204 0 00.072-.037.172.172 0 00.043-.056.204.204 0 00.015-.074c0-.056-.019-.097-.056-.125a.278.278 0 00-.167-.04z" fill="#a7a8aa"/></g></svg>