<svg width="33" height="40" xmlns="http://www.w3.org/2000/svg"><path d="M30.107 22.542a4.727 4.727 0 00-5.183.185.946.946 0 01-1.02.053l-4.697-2.711a.118.118 0 010-.205l4.67-2.696a.947.947 0 011.026.056 4.73 4.73 0 005.196.207c2.128-1.282 2.9-4.11 1.719-6.296a4.727 4.727 0 00-8.87 2.654.949.949 0 01-.465.908l-4.694 2.71a.118.118 0 01-.177-.102v-5.423c0-.37.22-.703.557-.858a4.73 4.73 0 002.72-4.86c-.249-2.151-2.002-3.895-4.154-4.134a4.73 4.73 0 00-2.519 8.993.947.947 0 01.558.859v5.423a.118.118 0 01-.177.102l-4.694-2.71a.944.944 0 01-.465-.906A4.726 4.726 0 006.58 9.03c-1.986-.855-4.367-.21-5.649 1.532a4.73 4.73 0 006.55 6.662.948.948 0 011.028-.057l4.67 2.695a.118.118 0 010 .205L8.484 22.78a.946.946 0 01-1.022-.054 4.73 4.73 0 00-5.182-.185C.157 23.824-.61 26.65.57 28.83a4.728 4.728 0 008.867-2.682.947.947 0 01.464-.913l4.697-2.711a.118.118 0 01.177.102v5.422c0 .371-.22.703-.557.858a4.73 4.73 0 00-2.72 4.86c.249 2.152 2.002 3.895 4.154 4.134a4.73 4.73 0 002.519-8.993.947.947 0 01-.559-.859v-5.422c0-.092.099-.148.178-.102l4.696 2.711a.947.947 0 01.464.913 4.728 4.728 0 008.868 2.682c1.18-2.18.411-5.004-1.71-6.288z" fill="#00C0F3"/></svg>