<svg width="35" height="40" xmlns="http://www.w3.org/2000/svg"><g fill="none"><path d="M34.485 26.781c0 1.736-1.228 3.863-2.732 4.726l-11.774 6.799c-1.504.863-3.96.863-5.464 0l-11.774-6.8c-1.495-.862-2.723-2.99-2.723-4.725V13.183c0-1.735 1.228-3.862 2.732-4.725l11.765-6.8c1.504-.863 3.96-.863 5.464 0l11.774 6.8c1.504.863 2.732 2.99 2.732 4.725v13.598z" fill="#F15A2B"/><path d="M13.9 16.832h15.601v-4.388H13.945c-2.225 0-4.076.766-5.482 2.27-3.4 3.613-3.488 12.726-3.488 12.726h24.42V19.2h-4.388v3.852H9.647c.098-1.432.756-4.004 2.002-5.33.57-.605 1.29-.89 2.252-.89z" fill="#FFF"/></g></svg>