<svg width="82" height="40" xmlns="http://www.w3.org/2000/svg"><path d="M81.873 24.128c0-.606-.35-.936-.672-.936-.759 0-.73 1.294-2.365 2.617a35.459 35.459 0 01-.38-4.739c0-2.838.643-4.931.643-5.84a1.017 1.017 0 00-.993-1.103 3.934 3.934 0 00-2.804 1.9c-.467.883-.759 4.685-.759 6.861 0 .91-.205 1.901-.993 1.901s-1.14-.881-1.14-3.72c0-2.837.673-4.93.673-5.84a1.043 1.043 0 00-1.052-1.102 3.988 3.988 0 00-2.803 1.9c-.409.883-.701 4.685-.701 6.861a10.225 10.225 0 00.085 1.246c.042.394-.357.655-.698.655-.671 0-.993-.881-.993-3.719s1.694-13.059 1.694-13.968A1.06 1.06 0 0067.564 6a3.978 3.978 0 00-2.804 1.873c-.438.91-1.723 12.839-1.723 15.015 0 .133.004.263.01.393a1.673 1.673 0 01-1.791 1.508c-.73 0-1.314-.881-1.314-3.719 0-1.158.234-3.306.496-5.455 1.198-.193 1.957-.413 2.453-.882.426-.65.678-1.4.73-2.176 0-.275-.087-.606-.409-.606-.642 0-1.576.55-2.394.771.263-1.818.467-3.278.467-3.636a1.043 1.043 0 00-1.051-1.102 4.032 4.032 0 00-2.803 1.873 25.298 25.298 0 00-.643 4.133c-1.051.413-1.81.826-1.81 1.13 0 .66.759.798 1.605.825-.32 2.893-.525 5.897-.525 6.971 0 .044.003.088.004.132 0 .006-.003.008-.003.014.032.945-.003 1.727-.615 1.727-.525 0-1.022-.634-1.022-2.59 0-1.763.322-3.14.322-4.573 0-1.873-.497-3.499-2.746-3.499a4.468 4.468 0 00-3.416 1.957c.409-3.858 1.139-8.403 1.139-8.982A1.034 1.034 0 0048.728 6a3.978 3.978 0 00-2.804 1.873c-.455.885-1.463 12.209-1.516 16.597.002.878-.474 1.044-.966 1.339a33.092 33.092 0 01-.38-4.739c0-2.838.701-4.931.701-5.84a1.06 1.06 0 00-1.051-1.103 3.742 3.742 0 00-2.103 1.02c-.263-.524-.847-1.02-2.249-1.02-2.219 0-5.578 1.929-5.578 7.632 0 .819.115 1.634.34 2.421-.189.327-.41.61-.803.61-.672 0-.993-.882-.993-3.72s.672-4.931.672-5.84a1.043 1.043 0 00-1.052-1.103 3.963 3.963 0 00-2.774 1.9c-.438.883-.73 4.685-.73 6.889 0 2.534.934 4.573 3.68 4.573a3.468 3.468 0 002.874-1.471 3.392 3.392 0 002.846 1.471 4.34 4.34 0 002.92-1.13c.088.359.205.772.263 1.158-3.358 1.184-6.717 2.011-6.717 4.738 0 1.516 1.402 3.196 4.556 3.196 5.227 0 6.104-3.306 6.104-5.042a19.11 19.11 0 00-.293-2.7c.33-.19.648-.402.953-.632.07.24.287.407.537.412 2.745 0 3.27-1.184 3.27-1.929 0-1.018-.028-1.542-.028-2.038 0-2.645.233-6.667 2.014-6.667.526 0 .672.495.672 1.24 0 1.322-.496 3.416-.496 4.821 0 2.534.963 4.573 3.65 4.573 1.08.02 2.11-.464 2.783-1.31a3.709 3.709 0 003.058 1.31 4.095 4.095 0 003.432-1.955 3.212 3.212 0 003.197 1.955 3.413 3.413 0 002.694-1.262 3.267 3.267 0 002.796 1.262 3.378 3.378 0 002.862-1.487l.35 1.515c-3.359 1.184-6.717 2.011-6.717 4.738 0 1.516 1.402 3.196 4.556 3.196 5.227 0 6.103-3.306 6.103-5.042a19.094 19.094 0 00-.291-2.7c2.365-1.377 2.803-2.81 2.803-3.581zm-42.155-2.655a4.285 4.285 0 01-.619 1.934 2.035 2.035 0 01-1.492.946c-.461.05-1.683.079-1.683-3.33a4.615 4.615 0 011.817-3.886v-.002c2.686-1.702 2.11 3.086 1.977 4.338zm-1.3 11.636a1.453 1.453 0 01-1.547-1.487c0-1.047 1.84-1.819 3.475-2.425.078.493.116.99.117 1.488 0 1.157-.788 2.424-2.044 2.424zm35.395 0a1.453 1.453 0 01-1.548-1.487c0-1.047 1.84-1.819 3.476-2.425.077.493.116.99.116 1.488 0 1.157-.788 2.424-2.044 2.424zM30.531 13.343c-.843 0-1.685-.323-1.685-2.247 0-1.705 1.716-2.501 2.731-2.501.932 0 1.745.412 1.745 1.483a3.06 3.06 0 01-2.79 3.265zM1.388 11.095c0-1.704 1.717-2.501 2.734-2.501.931 0 1.745.412 1.745 1.483a3.062 3.062 0 01-2.792 3.265c-.843 0-1.687-.323-1.687-2.247zm25.458 12.977c0 2.447-2.023 3.657-4.958 3.657a6.244 6.244 0 01-3.698-1.15 3.45 3.45 0 01-2.404.91c-2.333 0-3.616-1.513-3.616-3.99 0-1.402.437-3.302.437-4.54 0-.715-.175-1.21-.67-1.21-1.167 0-2.188 3.412-2.188 7.814 0 .743-.525 1.926-3.267 1.926-.389 0-.569-.273-.636-.738-.615.489-1.38.75-2.166.738C.935 27.49 0 25.45 0 22.916c0-2.204.292-6.006.73-6.888a3.963 3.963 0 012.775-1.9 1.043 1.043 0 011.051 1.101c0 .91-.672 3.003-.672 5.84 0 2.839.322 3.72.993 3.72a.983.983 0 001.1-.802c.072-.723.142-1.498.155-2.276.03-4.512.117-5.008.292-5.64.262-1.294 2.362-2.174 3.296-2.174a.863.863 0 01.962.99c0 .578-.408 1.376-.583 2.504.67-1.43 2.42-3.247 4.025-3.247 1.808 0 2.275 1.294 2.275 2.917 0 1.733-.467 3.467-.467 5.366 0 1.665.332 2.273.92 2.35a1.917 1.917 0 01-.065-.463c0-1.586 1.738-2.876 2.507-2.876.542 0 .713.457.77 1.21.008.115.023.237.04.361.164 1.126.732 2.542 2.04 2.542a1.097 1.097 0 001.254-1.13 2.48 2.48 0 00-.79-1.584 31.536 31.536 0 00-3.206-2.66 3.696 3.696 0 01-1.579-2.946 3.176 3.176 0 01.307-1.379c.628-1.291 2.18-1.923 4.213-1.905a6.04 6.04 0 011.875.311 4.538 4.538 0 012.288 1.606c.266.355.416.783.43 1.227a2.951 2.951 0 01-2.295 2.594c-.49-.004-.641-.42-.687-1.105a4.876 4.876 0 00-.117-.782c-.215-.916-.729-1.865-1.744-1.874a.995.995 0 00-1.144 1.017c.022.367.151.72.37 1.015a5.923 5.923 0 001.625 1.61c1.72 1.169 3.902 2.379 3.902 4.506z" fill="#FF5621"/></svg>