<svg width="33" height="40" xmlns="http://www.w3.org/2000/svg"><path d="M31.884 23.218l-3.996-2.09-11.668 6.105a.446.446 0 01-.416 0L4.137 21.128l-3.995 2.09c-.19.1-.19.37 0 .47l15.662 8.196a.45.45 0 00.416 0l15.664-8.197a.265.265 0 000-.469M3.07 18.574l12.734 6.664c.13.068.286.068.416 0l12.736-6.664c.19-.1.19-.371 0-.47l-3.652-1.911-9.084 4.753a.446.446 0 01-.416 0l-9.083-4.753-3.651 1.91c-.19.1-.19.371 0 .47m2.768-4.837l9.966 5.215c.13.069.286.069.416 0l9.967-5.215c.19-.099.19-.37 0-.47L16.22 8.051a.446.446 0 00-.416 0l-9.966 5.215a.266.266 0 000 .47" fill="#000" fill-rule="nonzero"/></svg>