<svg xmlns="http://www.w3.org/2000/svg" width="60" height="40" viewBox="0 0 60 40"><g fill="none"><path fill="#FFF" d="M16.016 10.89h28.069v18.455H16.016z"/><path fill="#F16462" d="M.02 27.72c.061-.326.041-.671.041-.996 0-.163.04-.204.203-.204h2.663c.162 0 .223-.04.223-.223l-.06-1.342c0-.142-.062-.183-.204-.162-.874.081-1.748.142-2.601.203-.143.02-.204 0-.183-.163v-1.768c0-.142.04-.183.183-.203a20.62 20.62 0 006.85-1.91 21.192 21.192 0 006.483-4.798l.122-.121c.02.345.04.67.04.995.02.529.02 1.057.041 1.586 0 .122-.04.223-.122.305-.59.488-1.158.996-1.748 1.483-.142.122-.203.224-.203.427.02 1.83.04 3.68.04 5.508 0 .204.062.224.245.224.548-.02 1.077 0 1.626 0 .162 0 .203.04.203.203 0 .549-.02 1.077 0 1.626 0 .183-.04.244-.224.244-.813-.02-1.605 0-2.418 0H.04c-.02-.325-.02-.63-.02-.914zm10.529-6.18c-.02 0-.061-.02-.082-.02-.752.488-1.504.956-2.256 1.443-.08.041-.08.122-.08.183v3.191c0 .143.04.183.182.183h2.073c.183 0 .203-.06.203-.223-.02-.427-.02-.854-.02-1.28-.02-1.16-.02-2.318-.02-3.476zM6.89 23.594c-.02 0-.06 0-.081.02a9.667 9.667 0 01-2.317.976c-.122.041-.142.102-.142.224v1.565c0 .163.06.183.203.183.711-.02 1.402-.04 2.114-.04.162 0 .183-.082.183-.204 0-.427.02-.854.02-1.3.02-.468.02-.936.02-1.424zm53.008 5.02H46.362c-.224 0-.285-.06-.285-.284.02-.528.02-1.057 0-1.565 0-.142.04-.203.203-.203h1.647c.162 0 .203-.04.203-.203 0-1.87.02-3.72.04-5.59a.404.404 0 00-.162-.345c-.59-.488-1.179-.996-1.768-1.504-.081-.061-.163-.122-.163-.265.04-.853.061-1.727.082-2.601.101 0 .121.081.162.142 3.212 3.435 7.114 5.59 11.748 6.443.508.102 1.016.142 1.524.203.143.02.183.061.183.204v1.768c0 .163-.06.183-.183.163-.873-.082-1.747-.143-2.642-.204-.142-.02-.162.041-.162.163-.02.447-.02.915-.061 1.362 0 .162.04.183.203.183h2.662c.183 0 .244.04.244.223 0 .346-.02.691.041 1.017.02.325.02.61.02.894zM49.472 21.52c-.041 0-.061.02-.102.02v4.838c0 .163.102.142.203.142h2.012c.183 0 .244-.04.244-.223-.02-.895-.04-1.789 0-2.683.02-.447-.122-.691-.508-.915-.63-.366-1.24-.792-1.85-1.179zm3.597 2.073v2.805c0 .102.061.122.142.122.732.02 1.484.02 2.216.041.122 0 .142-.04.142-.142.02-.55.02-1.098.04-1.647 0-.101-.02-.142-.121-.183a8.681 8.681 0 01-2.419-.996z"/><path fill="#22AAC2" d="M29.939 9.102c.996 0 1.972-.02 2.968 0 1.544.04 3.11.08 4.654.162 1.28.082 2.581.203 3.862.346.772.081 1.524.223 2.276.345.712.122 1.138.55 1.342 1.24.284.935.426 1.89.548 2.866.163 1.423.224 2.866.244 4.289.02.894.02 1.788.02 2.683-.02 1.443-.06 2.886-.203 4.329a28.409 28.409 0 01-.345 2.297c-.061.345-.203.67-.325.995-.204.59-.63.915-1.24 1.057-.691.163-1.382.326-2.073.427-.895.142-1.789.264-2.683.346-.712.06-1.423.142-2.114.183-1.789.142-3.598.122-5.407.183-.813.02-1.626.04-2.439.04a155.01 155.01 0 01-5.345-.142c-.468-.02-.935-.061-1.423-.102a161.548 161.548 0 01-3.11-.345 21.81 21.81 0 01-1.95-.346c-.468-.101-.916-.203-1.363-.366-.61-.203-.853-.731-1.036-1.3a13.538 13.538 0 01-.468-2.561c-.162-1.382-.223-2.785-.244-4.167-.02-.955-.02-1.93-.02-2.886 0-1.443.061-2.866.203-4.31.082-.772.204-1.524.346-2.276.122-.569.244-1.117.569-1.626a1.05 1.05 0 01.63-.447c.711-.183 1.423-.284 2.154-.366.63-.08 1.26-.162 1.89-.223.387-.04.773-.081 1.16-.102.792-.02 1.564-.122 2.357-.142 1.016-.02 2.033-.061 3.07-.102 1.178.02 2.336.041 3.495.02zM16.402 19.894c-.02 1.606 0 3.212.143 4.797.081.894.183 1.768.366 2.663.02.142.101.244.284.264.67.142 1.342.244 1.992.366 1.138.203 2.297.284 3.455.406.935.102 1.87.122 2.805.163 1.159.04 2.317.081 3.496.081.833 0 1.687.02 2.52-.02.773-.04 1.565-.02 2.338-.04.732-.041 1.463-.041 2.195-.102 1.037-.082 2.093-.163 3.13-.265.67-.06 1.362-.142 2.012-.264.529-.102 1.057-.183 1.586-.305.183-.04.284-.122.325-.284.101-.468.203-.935.264-1.423.142-1.077.224-2.155.244-3.232.04-1.951.06-3.882-.02-5.833-.061-1.179-.143-2.358-.305-3.516-.04-.224-.082-.244-.265-.122-.426.284-.833.59-1.26.894-.996.711-1.992 1.423-3.008 2.134-1.423 1.016-2.866 2.033-4.288 3.049a422.02 422.02 0 00-3.72 2.662c-.406.285-.955.305-1.362.02-1.24-.873-2.5-1.767-3.74-2.641l-2.804-2.013c-1.078-.772-2.155-1.524-3.232-2.296-.833-.59-1.687-1.2-2.52-1.789-.183-.142-.224-.122-.244.122-.041.345-.082.67-.122 1.016-.122.935-.163 1.87-.204 2.805-.101.874-.06 1.789-.06 2.703zm10.224-8.455c-1.83 0-3.272.102-4.715.183-.55.04-1.078.122-1.647.122-.305 0-.59.06-.894.081-.061 0-.142 0-.163.082-.02.08.061.08.102.121.203.163.427.285.63.448l4.39 3.11a897.738 897.738 0 015.427 3.881c.122.102.203.102.346 0 1.057-.772 2.134-1.524 3.19-2.276 1.464-1.037 2.928-2.073 4.39-3.11.956-.67 1.891-1.341 2.846-2.032.061-.04.163-.04.143-.142-.02-.061-.122-.061-.204-.082-.487-.02-.995-.06-1.483-.122-1.26-.142-2.52-.162-3.76-.244-1.383-.081-2.765-.06-4.126-.081-1.606 0-3.232.04-4.472.061z"/></g></svg>