<svg xmlns="http://www.w3.org/2000/svg" width="103" height="40" viewBox="0 0 103 40"><g fill="#00BEB7"><path d="M54.03 25.472c-1.453-1.47-2.358-3.47-2.358-5.696 0-2.226.905-4.225 2.357-5.696 1.472-1.453 3.47-2.358 5.696-2.358h1.85V8.006h-1.85a11.74 11.74 0 00-10.336 6.15c-2-3.66-5.866-6.15-10.337-6.15h-1.848v3.716h1.848c2.227 0 4.226.905 5.697 2.358 1.453 1.47 2.358 3.47 2.358 5.696 0 2.226-.905 4.225-2.358 5.696-1.471 1.453-3.47 2.358-5.697 2.358h-1.848v3.716h1.848c4.47 0 8.356-2.49 10.337-6.15 2 3.66 5.885 6.15 10.336 6.15h1.85v-3.697h-1.85a7.945 7.945 0 01-5.696-2.377"/><path d="M25.943 31.546c-6.488 0-11.75-5.262-11.77-11.77 0-6.489 5.263-11.751 11.77-11.77 6.49 0 11.752 5.263 11.77 11.77v1.849H20.267v-3.716H33.79a7.973 7.973 0 00-2.15-3.848c-1.471-1.453-3.47-2.358-5.697-2.358-2.225 0-4.225.905-5.696 2.358-1.452 1.471-2.358 3.47-2.358 5.696 0 2.226.906 4.225 2.358 5.697 1.471 1.452 3.47 2.357 5.696 2.357h1.849v3.716h-1.849v.02zm47.552-.056a11.72 11.72 0 01-11.732-11.733A11.721 11.721 0 0173.495 8.025a11.721 11.721 0 0111.733 11.732v1.849h-17.41v-3.697h13.505a7.95 7.95 0 00-2.132-3.83 7.995 7.995 0 00-5.677-2.357 7.997 7.997 0 00-5.678 2.358 7.995 7.995 0 00-2.357 5.677c0 2.226.905 4.225 2.357 5.678a7.996 7.996 0 005.678 2.357h1.848v3.698h-1.867zm-60.66.056c-6.508 0-11.79-5.281-11.79-11.789V8.025h3.716v11.732a8.09 8.09 0 002.358 5.716 8.005 8.005 0 005.715 2.357h1.867v3.716h-1.867zm74.562 0V19.814c0-6.508 5.281-11.789 11.788-11.789h1.849v3.716h-1.849a8.084 8.084 0 00-5.715 2.358 8.006 8.006 0 00-2.357 5.715v11.732h-3.716z"/></g></svg>