<svg xmlns="http://www.w3.org/2000/svg" width="92" height="40" viewBox="0 0 92 40"><g fill="#00BEB7"><path d="M48.61 25.016c-1.331-1.348-2.161-3.18-2.161-5.221 0-2.04.83-3.873 2.161-5.222 1.349-1.331 3.181-2.161 5.222-2.161h1.694V9.006h-1.694a10.76 10.76 0 00-9.475 5.636c-1.833-3.354-5.377-5.636-9.476-5.636h-1.694v3.406h1.694c2.041 0 3.874.83 5.222 2.161 1.332 1.349 2.162 3.181 2.162 5.222 0 2.04-.83 3.873-2.162 5.221-1.348 1.332-3.181 2.162-5.222 2.162h-1.694v3.406h1.694c4.098 0 7.66-2.282 9.476-5.637 1.832 3.355 5.394 5.637 9.475 5.637h1.694v-3.39h-1.694a7.283 7.283 0 01-5.222-2.178"/><path d="M22.865 30.584c-5.948 0-10.772-4.824-10.79-10.79 0-5.947 4.825-10.771 10.79-10.788 5.948 0 10.772 4.823 10.79 10.789v1.694H17.66v-3.406h12.398a7.309 7.309 0 00-1.972-3.527c-1.348-1.332-3.18-2.162-5.221-2.162-2.04 0-3.873.83-5.222 2.162-1.331 1.348-2.161 3.18-2.161 5.221 0 2.04.83 3.873 2.161 5.222 1.349 1.331 3.182 2.161 5.222 2.161h1.694v3.407h-1.694v.017zm43.589-.052a10.744 10.744 0 01-10.755-10.755A10.744 10.744 0 0166.454 9.023a10.744 10.744 0 0110.755 10.754v1.695h-15.96v-3.389h12.38a7.287 7.287 0 00-1.954-3.51 7.328 7.328 0 00-5.204-2.161 7.33 7.33 0 00-5.204 2.161 7.329 7.329 0 00-2.162 5.204c0 2.04.83 3.874 2.162 5.205a7.33 7.33 0 005.204 2.161h1.694v3.389h-1.711zm-55.606.052C4.883 30.584.042 25.743.042 19.778V9.023h3.406v10.755c0 2.057.83 3.89 2.161 5.238a7.338 7.338 0 005.239 2.162h1.712v3.406h-1.712zm68.349 0V19.829c0-5.965 4.841-10.806 10.806-10.806h1.695v3.406h-1.695a7.41 7.41 0 00-5.239 2.161 7.339 7.339 0 00-2.16 5.24v10.754h-3.407z"/></g></svg>