<svg xmlns="http://www.w3.org/2000/svg" width="40" height="40" viewBox="0 0 40 40">
  <path fill="#C02126" d="M14.9843571,9.31542857 C11.8587857,9.31542857 9.31542857,11.8587857 9.31542857,14.9843571 C9.31542857,18.1099286 11.8587857,20.6532857 14.9843571,20.6532857 C18.1099286,20.6532857 20.6532857,18.1099286 20.6532857,14.9843571 C20.6532857,11.8587857 18.1099286,9.31542857 14.9843571,9.31542857 Z M6.15921429,14.9843571 C6.15921429,10.1121429 10.1121429,6.15921429 14.9843571,6.15921429 C19.8565714,6.15921429 23.8095,10.1121429 23.8095,14.9843571 C23.8095,15.3214286 23.7788571,15.6278571 23.7482143,15.9342857 C23.6869286,16.7922857 24.2997857,17.4357857 25.1577857,17.4357857 C26.598,17.4357857 26.7512143,15.5665714 26.7512143,14.9537143 C26.7512143,8.42678571 21.4806429,3.15621429 14.9537143,3.15621429 C8.42678571,3.15621429 3.15621429,8.42678571 3.15621429,14.9537143 C3.15621429,21.4806429 8.42678571,26.7512143 14.9537143,26.7512143 C18.4163571,26.7512143 21.5112857,25.2497143 23.6869286,22.8902143 L26.1077143,24.9126429 C23.3805,27.9769286 19.3969286,29.9074286 14.9537143,29.9074286 C6.68014286,29.9074286 0,23.1966429 0,14.9537143 C0,6.68014286 6.71078571,-1.74184476e-14 14.9537143,-1.74184476e-14 C23.2272857,-1.74184476e-14 29.9074286,6.71078571 29.9074286,14.9537143 C29.9074286,18.2631429 28.314,20.9597143 25.1577857,20.9597143 C23.7482143,20.9597143 22.9208571,20.3162143 22.4305714,19.6114286 C20.8677857,22.1241429 18.1099286,23.7788571 14.9230714,23.7788571 C10.1121429,23.8095 6.15921429,19.8565714 6.15921429,14.9843571 Z M14.9843571,12.3797143 C16.4245714,12.3797143 17.589,13.5441429 17.589,14.9537143 C17.589,16.3939286 16.4245714,17.5583571 14.9843571,17.5583571 C13.5441429,17.5583571 12.3797143,16.3939286 12.3797143,14.9537143 C12.4103571,13.5441429 13.5441429,12.3797143 14.9843571,12.3797143 Z" transform="translate(5 5)"/>
</svg>
