<svg width="120" height="40" xmlns="http://www.w3.org/2000/svg" xmlns:xlink="http://www.w3.org/1999/xlink"><defs><path id="a" d="M.092.058h58.815V15.26H.092z"/><path id="c" d="M0 .005h30.146v31.987H0z"/></defs><g fill="none" fill-rule="evenodd"><path d="M46.143 16.234c-1.528 0-2.284 1.203-2.63 1.978-.194.433-.248.775-.406.775-.221 0-.062-.297-.244-.957-.238-.868-.956-1.796-2.483-1.796-1.605 0-2.292 1.356-2.618 2.102-.223.509-.223.651-.394.651-.249 0-.043-.404.069-.88.22-.937.052-1.652.052-1.652h-2.544v9.566h3.473v-4.76c0-.938.393-2.13 1.066-2.13.778 0 .933.598.933 1.704v5.189h3.487v-4.762c0-.836.341-2.13 1.071-2.13.789 0 .928.839.928 1.703v5.186h3.424v-5.625c0-2.497-.88-4.162-3.184-4.162m58.944 0c-1.528 0-2.284 1.203-2.63 1.978-.194.433-.248.775-.405.775-.222 0-.073-.378-.244-.957-.255-.864-.888-1.796-2.484-1.796-1.605 0-2.292 1.356-2.618 2.102-.222.509-.223.651-.394.651-.248 0-.043-.404.069-.88.22-.937.053-1.652.053-1.652h-2.545v9.566h3.473v-4.76c0-.938.393-2.13 1.066-2.13.778 0 .934.598.934 1.704v5.189h3.486v-4.762c0-.836.341-2.13 1.071-2.13.789 0 .929.839.929 1.703v5.186h3.424v-5.625c0-2.497-.88-4.162-3.185-4.162m-50.676 7.552c-.83.191-1.26-.064-1.26-.615 0-.754.78-1.056 1.893-1.056.49 0 .952.043.952.043 0 .322-.7 1.424-1.585 1.628zm.846-7.55c-2.66 0-4.569.979-4.569.979v2.874s2.108-1.212 3.818-1.212c1.365 0 1.533.737 1.47 1.348 0 0-.393-.105-1.595-.105-2.83 0-4.259 1.287-4.259 3.35 0 1.956 1.606 2.774 2.959 2.774 1.974 0 2.842-1.327 3.109-1.956.185-.437.218-.731.385-.731.19 0 .125.211.116.646-.016.76.02 1.336.14 1.82h2.618v-4.708c0-2.94-1.04-5.078-4.192-5.078zm9.913 9.788h3.472V13.559H65.17zm7.295-4.784c0-.86.799-1.643 2.266-1.643 1.599 0 2.884.77 3.173.945v-3.327s-1.016-.978-3.513-.978c-2.632 0-4.823 1.54-4.823 4.854 0 3.315 1.989 5.153 4.816 5.153 2.209 0 3.525-1.214 3.525-1.214v-3.16c-.416.233-1.577 1.039-3.162 1.039-1.679 0-2.282-.773-2.282-1.669m12.473-5.003c-2.01 0-2.775 1.905-2.929 2.235-.154.331-.23.522-.357.517-.22-.007-.067-.406.019-.664.162-.488.504-1.768.504-3.342 0-1.067-.144-1.424-.144-1.424h-2.998v12.465h3.473v-4.76c0-.776.31-2.13 1.184-2.13.725 0 .952.536.952 1.618v5.272h3.472V20.96c0-2.456-.407-4.723-3.176-4.723m4.305.231v9.556h3.473v-9.556s-.584.341-1.733.341-1.74-.341-1.74-.341m1.727-3.006c-1.175 0-2.127.62-2.127 1.387 0 .766.952 1.388 2.126 1.388s2.126-.622 2.126-1.388c0-.766-.952-1.387-2.126-1.387m-30.396 3.006v9.556h3.473v-9.556s-.584.341-1.733.341c-1.15 0-1.74-.341-1.74-.341" fill="#0A0B09"/><g transform="translate(60.082 13.404)"><mask id="b" fill="#fff"><use xlink:href="#a"/></mask><path d="M2.217.058C1.043.058.092.678.092 1.445c0 .766.951 1.387 2.125 1.387s2.126-.62 2.126-1.387C4.343.68 3.391.058 2.217.058m51.92 10.506c-.797 0-1.383-1.01-1.383-2.418 0-1.366.602-2.417 1.355-2.417.967 0 1.378.887 1.378 2.417 0 1.593-.38 2.418-1.35 2.418zm.953-7.734c-1.785 0-2.604 1.339-2.96 2.102-.234.503-.222.651-.394.651-.248 0-.042-.404.07-.88.22-.937.052-1.652.052-1.652h-2.544V15.26h3.473v-3.871c.41.697 1.172 1.442 2.345 1.442 2.511 0 3.775-2.125 3.775-4.996 0-3.253-1.513-5.005-3.817-5.005z" fill="#0A0B09" mask="url(#b)"/></g><path d="M22.677 19.124a2.58 2.58 0 01.662 0c.12-.273.14-.743.033-1.255-.16-.762-.375-1.223-.82-1.151-.444.072-.46.623-.302 1.385.09.428.249.794.427 1.021m-3.82.603c.318.14.514.232.59.151.05-.05.035-.147-.041-.27-.157-.257-.48-.517-.823-.664-.702-.301-1.538-.201-2.183.263-.213.156-.415.372-.386.503.01.042.041.074.116.085.176.02.79-.29 1.496-.334.499-.03.912.126 1.23.266m-.64.365c-.414.066-.643.202-.79.33-.125.109-.203.23-.202.315 0 .04.018.064.032.076a.1.1 0 00.068.026c.094 0 .303-.085.303-.085.577-.206.958-.181 1.335-.138.209.023.307.036.353-.035.014-.02.03-.065-.012-.133-.097-.157-.516-.424-1.087-.356m3.171 1.341c.281.139.591.084.692-.12.1-.206-.045-.485-.327-.623-.282-.138-.592-.084-.692.121-.101.206.045.484.327.622m1.81-1.581c-.23-.004-.419.247-.424.56-.005.314.176.572.404.576.23.004.419-.248.424-.561.005-.314-.176-.571-.404-.575" fill="#1A1919"/><g transform="translate(0 4)"><mask id="d" fill="#fff"><use xlink:href="#c"/></mask><path d="M7.834 21.507c-.057-.071-.15-.05-.24-.028a.859.859 0 01-.214.03.463.463 0 01-.39-.198c-.105-.16-.099-.399.016-.672l.054-.122c.183-.412.49-1.1.146-1.757-.26-.494-.683-.802-1.192-.866a1.53 1.53 0 00-1.311.473c-.506.558-.586 1.318-.488 1.586.036.098.092.125.133.131.086.012.213-.051.293-.266.006-.015.013-.039.023-.07.035-.113.102-.324.21-.493a.918.918 0 011.273-.265c.355.232.491.666.34 1.08-.078.215-.205.624-.177.961.056.682.476.955.852.984.366.014.622-.191.687-.342.038-.088.006-.142-.015-.166" fill="#1A1919" mask="url(#d)"/><path d="M11.315 8.99c1.195-1.38 2.665-2.58 3.982-3.254.045-.023.094.027.07.071-.105.19-.307.595-.37.903-.01.048.042.084.082.056.82-.558 2.245-1.157 3.495-1.234.054-.003.08.066.037.099-.19.146-.398.347-.55.552a.053.053 0 00.042.085c.878.006 2.115.313 2.922.765.054.031.015.137-.046.123-1.22-.28-3.218-.492-5.293.014-1.852.452-3.266 1.15-4.298 1.9-.052.038-.115-.031-.073-.08zM22.19 22.943a.095.095 0 00.055-.096.09.09 0 00-.098-.08s-2.549.377-4.957-.504c.263-.852.96-.545 2.014-.46a14.72 14.72 0 004.861-.525c1.09-.313 2.523-.93 3.635-1.808.375.824.508 1.731.508 1.731s.29-.052.533.098c.23.14.398.434.283 1.193-.234 1.417-.837 2.567-1.849 3.625a7.62 7.62 0 01-2.22 1.66 9.376 9.376 0 01-1.45.612c-3.817 1.247-7.724-.123-8.983-3.066a4.73 4.73 0 01-.253-.696c-.537-1.939-.081-4.266 1.343-5.73.088-.094.178-.204.178-.342 0-.116-.074-.238-.138-.324-.498-.723-2.224-1.954-1.877-4.338.248-1.712 1.746-2.918 3.142-2.846l.354.02c.605.036 1.132.113 1.63.134.834.036 1.584-.085 2.471-.825.3-.25.54-.466.946-.534.043-.008.15-.046.362-.036.216.012.423.071.608.195.712.473.813 1.62.85 2.46.02.478.079 1.637.098 1.97.046.76.246.868.65 1.001.228.075.439.131.75.218.942.265 1.5.533 1.853.878.21.215.308.444.338.663.11.81-.63 1.811-2.59 2.72-2.142.995-4.74 1.247-6.536 1.047l-.63-.071c-1.436-.194-2.255 1.663-1.393 2.934.556.82 2.069 1.353 3.583 1.354 3.472 0 6.14-1.482 7.132-2.763.03-.038.033-.042.08-.113.049-.073.008-.114-.052-.072-.811.555-4.413 2.757-8.266 2.095 0 0-.468-.077-.896-.244-.34-.132-1.05-.459-1.136-1.188 3.109.962 5.067.053 5.067.053zm-17.08-7.39c-1.081.21-2.035.824-2.617 1.67-.349-.29-.998-.853-1.112-1.072-.93-1.767 1.015-5.202 2.375-7.141 3.359-4.794 8.62-8.423 11.056-7.765.396.112 1.707 1.633 1.707 1.633s-2.434 1.35-4.692 3.234c-3.042 2.342-5.34 5.747-6.717 9.442zm1.817 8.108c-.164.028-.33.039-.5.035-1.626-.044-3.384-1.509-3.558-3.246-.193-1.92.788-3.397 2.525-3.748.207-.042.458-.066.729-.052.973.054 2.407.8 2.735 2.921.29 1.878-.17 3.79-1.931 4.09zm22.04-3.4c-.014-.05-.105-.381-.23-.781s-.254-.682-.254-.682c.5-.749.51-1.419.443-1.798-.071-.47-.267-.872-.661-1.286-.395-.414-1.202-.839-2.337-1.157l-.595-.165c-.003-.025-.031-1.404-.057-1.995-.019-.428-.056-1.096-.263-1.754-.247-.89-.677-1.67-1.214-2.168 1.482-1.537 2.407-3.23 2.405-4.682C26.201 1 22.771.155 18.545 1.906c-.005.001-.89.377-.896.38a950.376 950.376 0 00-1.643-1.61C11.187-3.527-3.879 13.22.938 17.286l1.053.893c-.273.707-.38 1.518-.293 2.39.112 1.119.69 2.191 1.626 3.02.888.788 2.056 1.286 3.19 1.285 1.874 4.32 6.157 6.97 11.179 7.119 5.387.16 9.909-2.368 11.804-6.908.124-.32.65-1.755.65-3.022 0-1.274-.72-1.802-1.18-1.802z" fill="#1A1919" mask="url(#d)"/></g></g></svg>