<svg xmlns="http://www.w3.org/2000/svg" width="40" height="40" viewBox="0 0 40 40"><path fill="#C02126" d="M19.984 14.315a5.676 5.676 0 00-5.669 5.67 5.676 5.676 0 005.67 5.668 5.676 5.676 0 005.668-5.669 5.676 5.676 0 00-5.669-5.669zm-8.825 5.67a8.827 8.827 0 018.825-8.826 8.827 8.827 0 018.825 8.825c0 .337-.03.644-.06.95-.062.858.55 1.502 1.409 1.502 1.44 0 1.593-1.87 1.593-2.482 0-6.527-5.27-11.798-11.797-11.798A11.783 11.783 0 008.156 19.954c0 6.527 5.27 11.797 11.798 11.797 3.462 0 6.557-1.501 8.733-3.86l2.42 2.022a14.884 14.884 0 01-11.153 4.994C11.68 34.907 5 28.197 5 19.954 5 11.68 11.71 5 19.954 5c8.273 0 14.953 6.71 14.953 14.954 0 3.31-1.593 6.006-4.75 6.006-1.409 0-2.236-.644-2.726-1.349a8.79 8.79 0 01-7.508 4.168c-4.81.03-8.764-3.922-8.764-8.795zm8.825-2.605c1.44 0 2.605 1.164 2.605 2.574a2.602 2.602 0 01-2.605 2.604 2.602 2.602 0 01-2.604-2.604c.03-1.41 1.164-2.574 2.604-2.574z"/></svg>