<svg xmlns="http://www.w3.org/2000/svg" width="40" height="40" viewBox="0 0 40 40"><g fill="none"><path fill="#E6E6E1" d="M2.117 4.064h35.838v31.73H2.117z"/><path fill="#D8D8D3" d="M37.955 4.064H2.117l17.92 26.189L37.955 4.064"/><path fill="#B4B6B4" d="M16.245 35.794h7.584l-3.792-5.541-3.792 5.541"/><path fill="#1A1918" d="M20.042 20.71L12.398 9.49v9.631l4.365 6.412 3.272-4.813.007-.01"/><path fill="#ED9D4A" d="M20.042 20.71l3.293 4.833 4.337-6.341V9.49l-7.63 11.22"/><path fill="#BB7731" d="M20.035 20.72l-3.272 4.813 3.283 4.82 3.289-4.81-3.293-4.833-.007.01"/><path fill="#4CB2D4" d="M6.969 30.366h5.429V19.121l-5.429-7.969v19.214"/><path fill="#1B82AD" d="M6.969 9.49v1.662l5.429 7.969V9.49H6.969"/><path fill="#C02439" d="M27.672 19.202v11.164h5.427V11.268l-5.427 7.934"/><path fill="#8F202F" d="M33.099 9.49h-5.427v9.712l5.427-7.934V9.49"/></g></svg>