<svg width="38" height="40" xmlns="http://www.w3.org/2000/svg"><g fill="#1F62F2"><path d="M16.027 15.855c0 .485-.385.87-.871.87a.865.865 0 01-.872-.87c0-.486.385-.87.872-.87.468 0 .871.401.871.87zm7.023 0a.865.865 0 00-.873-.87.865.865 0 00-.871.87c0 .485.385.87.871.87a.865.865 0 00.872-.87z"/><path d="M29.586 34.712c2.112 0 4.24-.787 5.864-2.377l.017-.017.05-.05a7.176 7.176 0 001.457-7.635 5.65 5.65 0 00-3.066-3.114c-1.408-.603-2.949-.603-4.372-.034a4.57 4.57 0 00-2.53 5.96c.2.503.77.738 1.273.537a.96.96 0 00.536-1.256 2.66 2.66 0 011.458-3.433 3.785 3.785 0 014.909 2.076 5.243 5.243 0 01-1.056 5.542l-.034.034c-2.547 2.495-6.652 2.444-9.148-.1-2.212-2.26-2.446-5.878-.57-8.39.05-.066.284-.318.487-.551 1.072-1.206 2.16-2.444 2.613-3.232 1.088-1.859 1.675-3.935 1.675-5.844a9.046 9.046 0 00-.77-3.7c.166-.72.686-2.746 1.172-4.571a.977.977 0 00-1.139-1.206c-1.81.385-3.836.804-4.556.921A10.889 10.889 0 0018.712 3c-5.746 0-10.42 4.404-10.42 9.828 0 1.91.603 4.002 1.675 5.844.453.786 1.526 2.026 2.597 3.215.2.235.436.502.487.552a6.44 6.44 0 01-.57 8.389 6.407 6.407 0 01-4.558 1.943 6.417 6.417 0 01-4.574-1.826v-.017l-.017-.034a5.254 5.254 0 01-1.021-5.558c.369-.937 1.09-1.658 2.027-2.06a3.816 3.816 0 012.881-.034c1.34.537 1.994 2.077 1.458 3.434a.98.98 0 00.536 1.272.975.975 0 001.274-.536 4.588 4.588 0 00-2.53-5.961 5.735 5.735 0 00-4.373.034A5.703 5.703 0 00.518 24.6a7.238 7.238 0 001.39 7.585l.018.034a.221.221 0 01.05.066 8.326 8.326 0 005.98 2.395 8.35 8.35 0 005.931-2.53 8.387 8.387 0 002.379-5.357 8.54 8.54 0 00-1.642-5.559c-.083-.117-.235-.284-.586-.686-.687-.77-1.976-2.227-2.363-2.914-.904-1.557-1.407-3.299-1.407-4.872 0-4.353 3.803-7.887 8.477-7.887 1.575 0 3.116.402 4.456 1.172.151.083.335.134.52.134.418-.017 2.127-.352 3.585-.67-.385 1.474-.838 3.2-.872 3.55a1.1 1.1 0 00.084.52 7.42 7.42 0 01.72 3.164c0 1.573-.502 3.315-1.408 4.872-.402.687-1.692 2.144-2.378 2.914-.353.385-.503.569-.586.67a8.457 8.457 0 00-1.659 5.558 8.39 8.39 0 002.379 5.358 8.152 8.152 0 006 2.595z"/><path d="M18.812 20.376c1.289 0 1.826-.52 1.826-.804 0-.301-.234-.35-.519-.35h-2.998c-.302 0-.537.049-.537.35 0 .302.57.804 1.827.804h.4zM27.602 39a.972.972 0 100-1.942c-1.642 0-3.653-.77-5.228-2.026-1.004-.787-2.68-2.445-2.68-4.672a.972.972 0 00-.972-.97h-.034a.973.973 0 00-.972.97c0 2.228-1.675 3.885-2.68 4.672-1.592 1.24-3.585 2.026-5.227 2.026a.972.972 0 100 1.942c2.094 0 4.49-.904 6.434-2.428 1.056-.838 1.893-1.775 2.462-2.78.57 1.005 1.408 1.942 2.463 2.78C23.095 38.096 25.508 39 27.602 39z"/></g></svg>