<svg width="83" height="40" xmlns="http://www.w3.org/2000/svg"><g fill="#4284FB" fill-rule="nonzero"><path d="M7.318 29.927a3.558 3.558 0 01-3.563 3.564A3.558 3.558 0 01.19 29.927a3.558 3.558 0 013.564-3.563 3.558 3.558 0 013.563 3.563M19.218 29.99c0 1.4-1.145 2.546-2.545 2.546a2.553 2.553 0 01-2.546-2.545c0-1.4 1.146-2.546 2.546-2.546s2.545 1.146 2.545 2.546M28.445 29.99a1.14 1.14 0 01-1.145 1.146 1.14 1.14 0 01-1.145-1.145c0-.636.509-1.146 1.145-1.146s1.145.51 1.145 1.146M15.973 22.418c-.637 0-1.082-.509-1.082-1.082v-4.709c0-1.59-.764-2.863-2.482-2.863-1.718 0-2.8 1.336-2.8 2.863v4.646c0 .636-.445 1.082-1.082 1.082-.636 0-1.082-.51-1.082-1.082v-4.71c0-1.59-.827-2.863-2.545-2.863-1.782 0-2.673 1.336-2.673 2.864v4.645c0 .636-.445 1.082-1.082 1.082-.636 0-1.081-.51-1.081-1.082V13c0-.636.445-1.145 1.081-1.145.764 0 1.082.509 1.082 1.145v.764a3.729 3.729 0 013.31-1.973c1.654 0 2.927.827 3.563 2.1.89-1.4 2.227-2.1 3.882-2.1 2.8 0 4.2 1.973 4.2 4.709v4.836c-.064.573-.51 1.082-1.21 1.082M20.173 22.418c-.637 0-1.082-.509-1.082-1.082V13c0-.636.445-1.082 1.082-1.082.636 0 1.082.51 1.082 1.082v8.336c0 .573-.446 1.082-1.082 1.082zm0-14.7c.7 0 1.272.573 1.272 1.273s-.572 1.273-1.272 1.273c-.7 0-1.273-.573-1.273-1.273s.573-1.273 1.273-1.273zM27.427 15.673l2.8-3.437c.191-.19.446-.318.7-.318.637 0 1.018.382 1.018.955 0 .19-.063.445-.254.636l-3.055 3.627 3.119 3.691c.19.191.254.382.254.637 0 .509-.445.954-.954.954a.907.907 0 01-.764-.382l-2.8-3.5-2.8 3.5a.907.907 0 01-.764.382.979.979 0 01-.954-.954c0-.255.063-.446.254-.637l3.118-3.69-3.054-3.628a.912.912 0 01-.255-.636c0-.573.382-.955 1.019-.955.318 0 .509.127.7.318l2.672 3.437M38.945 13.636c-1.909 0-3.118 1.655-3.118 3.564 0 1.845 1.273 3.564 3.118 3.564 1.91 0 3.119-1.4 3.119-3.564s-1.21-3.564-3.119-3.564zm.446 8.91c-1.591 0-2.864-.828-3.564-2.037v5.218c0 .637-.445 1.082-1.082 1.082-.636 0-1.081-.509-1.081-1.082V13c0-.636.381-1.082 1.018-1.082.636 0 1.082.51 1.082 1.146v.827c.7-1.21 2.1-2.036 3.627-2.036 2.673 0 4.836 2.227 4.836 5.345 0 3.182-2.163 5.345-4.836 5.345zM50.464 13.7c-1.846 0-3.182 1.59-3.182 3.5 0 2.036 1.082 3.5 3.182 3.5 1.909 0 3.181-1.655 3.181-3.5-.063-2.227-1.336-3.5-3.181-3.5zm5.345 7.636c0 .637-.445 1.082-1.082 1.082-.636 0-1.082-.509-1.082-1.082v-.509c-.636.955-1.909 1.718-3.372 1.718-3.246 0-5.155-2.418-5.155-5.345 0-2.927 2.1-5.345 5.41-5.345 3.372 0 5.345 2.227 5.345 5.345v4.136h-.064zM62.364 11.79c2.8 0 4.9 2.165 4.9 4.9v4.646c0 .637-.51 1.082-1.082 1.082-.637 0-1.082-.509-1.082-1.082v-4.9c0-1.463-1.145-2.609-2.673-2.609-1.527 0-2.672 1.146-2.672 2.61v4.9c0 .636-.51 1.081-1.082 1.081-.637 0-1.082-.509-1.082-1.082v-4.645c-.064-2.736 1.973-4.9 4.773-4.9M73.818 13.573c-1.59 0-2.673 1.145-2.927 2.609h5.727c-.19-1.464-1.209-2.61-2.8-2.61zm4.837 3.627c0 .382-.191.764-.828.764h-6.936c.127 1.59 1.209 2.8 3.118 2.8 1.21 0 1.91-.446 2.673-1.146.19-.19.445-.382.7-.382.509 0 .89.382.89.891 0 .255-.127.446-.254.637-.89 1.018-2.482 1.718-4.136 1.718-3.5 0-5.282-2.418-5.282-5.346 0-3.054 2.227-5.345 5.218-5.345 2.927 0 4.837 2.418 4.837 5.409zM81.264 22.418c-.637 0-1.082-.509-1.082-1.082V7.591c0-.636.445-1.082 1.082-1.082.636 0 1.081.51 1.081 1.082v13.745c0 .573-.445 1.082-1.081 1.082"/></g></svg>