<svg width="50" height="40" xmlns="http://www.w3.org/2000/svg"><g fill="none" fill-rule="evenodd"><path d="M34.227 6.454c-.234 0-.4.028-.567.07v.027h.027c.112.221.306.375.443.568.111.221.208.442.319.663a.833.833 0 00.027-.027c.195-.138.292-.36.292-.692-.084-.097-.097-.194-.167-.29-.083-.139-.263-.208-.374-.319" fill="#5B7F93"/><path d="M12.213 33.768h-1.917a106.687 106.687 0 00-.56-9.127H9.72l-2.918 9.127H5.34l-2.9-9.127h-.018c-.214 2.736-.35 5.779-.406 9.127H.269c.113-4.072.396-7.89.848-11.452h2.376l2.765 8.414h.017l2.783-8.414h2.273c.497 4.173.791 7.991.882 11.452M20.526 25.318c-.78 4.236-1.81 7.313-3.088 9.233-.996 1.48-2.087 2.22-3.274 2.22-.317 0-.707-.096-1.171-.285v-1.021c.226.033.492.05.798.05.554 0 1-.153 1.34-.458.407-.373.61-.791.61-1.255 0-.317-.158-.967-.474-1.951l-2.104-6.533h1.883l1.51 4.886c.339 1.11.48 1.884.424 2.325.826-2.205 1.402-4.61 1.73-7.21h1.816" fill="#196D80"/><path fill="#E6892E" d="M46.042 33.768h-5.446V22.316h1.833v10.043h3.613v1.409M32.351 31.477c-.464-.747-.696-1.945-.696-3.596 0-2.884.877-4.327 2.63-4.327.916 0 1.589.345 2.019 1.035.463.746.696 1.934.696 3.563 0 2.907-.877 4.36-2.63 4.36-.916 0-1.59-.344-2.019-1.035m6.82 2.567l-2.105-1.038a3.94 3.94 0 00.527-.511c.894-1.051 1.34-2.606 1.34-4.665 0-3.789-1.487-5.684-4.461-5.684-1.46 0-2.596.48-3.41 1.442-.895 1.052-1.341 2.601-1.341 4.649 0 2.013.396 3.49 1.187 4.428.724.848 1.816 1.272 3.275 1.272.545 0 1.045-.067 1.5-.201l2.74 1.595.748-1.287M28.922 30.594c0 .97-.356 1.768-1.068 2.392-.712.621-1.668.932-2.866.932-1.12 0-2.206-.358-3.257-1.069l.492-.984c.905.453 1.724.679 2.459.679.69 0 1.23-.154 1.62-.457a1.56 1.56 0 00.623-1.272c0-.68-.474-1.261-1.344-1.749-.803-.44-2.409-1.361-2.409-1.361-.87-.634-1.306-1.315-1.306-2.437 0-.928.326-1.678.975-2.248.651-.572 1.491-.858 2.52-.858 1.063 0 2.03.284 2.9.85l-.442.982c-.745-.315-1.48-.474-2.204-.474-.588 0-1.04.141-1.356.425-.318.281-.514.644-.514 1.085 0 .678.484 1.267 1.379 1.763.813.442 2.458 1.38 2.458 1.38.895.633 1.34 1.308 1.34 2.42"/><path d="M48.341 18.48c-1.107-.028-1.965.082-2.684.387-.208.083-.54.083-.568.346.112.11.125.29.223.443.165.277.455.65.719.844.29.221.58.442.886.636.539.333 1.148.526 1.673.858.306.194.609.442.914.65.152.111.248.292.443.36v-.042c-.098-.124-.125-.304-.222-.443-.138-.138-.276-.263-.415-.4a6.59 6.59 0 00-1.439-1.398c-.443-.305-1.412-.72-1.591-1.23l-.028-.029c.304-.028.665-.139.955-.223.47-.124.899-.096 1.383-.22.222-.056.443-.125.666-.193V18.7c-.25-.248-.43-.58-.693-.816a18.535 18.535 0 00-2.283-1.702c-.43-.277-.983-.456-1.44-.692-.165-.083-.442-.124-.539-.263-.25-.305-.388-.705-.568-1.066-.4-.76-.789-1.603-1.134-2.407-.249-.54-.401-1.079-.706-1.577-1.426-2.353-2.975-3.778-5.355-5.175-.512-.292-1.12-.416-1.77-.568-.347-.015-.693-.041-1.039-.055-.221-.097-.443-.36-.636-.485-.79-.498-2.823-1.577-3.404-.152-.374.9.553 1.785.872 2.242.235.318.54.678.705 1.037.097.236.125.485.222.734.221.609.428 1.287.72 1.855.151.29.317.595.51.857.112.153.305.221.347.471-.193.276-.208.691-.319 1.038-.497 1.563-.304 3.5.402 4.649.22.346.747 1.107 1.453.816.623-.249.484-1.038.664-1.73.041-.166.014-.276.096-.386v.028c.194.386.388.76.568 1.148.43.677 1.176 1.383 1.8 1.853.33.25.594.678 1.009.83v-.04h-.027c-.084-.125-.208-.18-.319-.277a6.839 6.839 0 01-.72-.83 17.709 17.709 0 01-1.549-2.52c-.222-.429-.415-.9-.595-1.328-.083-.165-.083-.415-.222-.498-.208.305-.511.568-.663.94-.263.596-.29 1.33-.388 2.09-.055.015-.028 0-.055.028-.443-.11-.595-.567-.761-.953-.416-.984-.485-2.561-.125-3.696.096-.29.513-1.203.346-1.48-.084-.264-.36-.415-.512-.623a5.481 5.481 0 01-.498-.886c-.332-.774-.499-1.633-.858-2.407-.166-.36-.457-.734-.691-1.066-.264-.374-.554-.636-.762-1.079-.069-.152-.166-.402-.055-.567.027-.111.083-.153.194-.18.179-.153.691.04.87.124.513.207.942.402 1.37.692.195.138.402.401.65.47h.292c.443.097.941.028 1.356.153a8.851 8.851 0 011.993.954 12.278 12.278 0 014.316 4.733c.167.318.236.609.388.94.29.68.651 1.371.941 2.035.29.65.568 1.314.983 1.854.207.29 1.038.443 1.412.595.276.124.705.235.954.387.47.29.94.623 1.384.942.22.166.913.511.954.788" fill="#196D80"/><path d="M47.35 33.767h.304v-1.165h.397v-.238h-1.114v.238h.413v1.165zm2.31 0h.287v-1.403h-.43l-.351.956-.382-.956h-.414v1.403h.27v-1.068h.016l.4 1.068h.206l.398-1.068v1.068z" fill="#E6892E"/></g></svg>