<svg xmlns="http://www.w3.org/2000/svg" width="40" height="40" viewBox="0 0 40 40"><path fill="#FF6D5A" d="M34.547 10.13a3.82 3.82 0 00-3.692 2.872H25.54a3.786 3.786 0 00-3.782 3.782c0 1.041-.847 1.89-1.89 1.89h-.759a3.819 3.819 0 00-3.693-2.87 3.82 3.82 0 00-3.692 2.87H8.687a3.819 3.819 0 00-3.692-2.87 3.82 3.82 0 00-3.817 3.816 3.82 3.82 0 003.817 3.816 3.82 3.82 0 003.692-2.87h3.04a3.819 3.819 0 003.693 2.87 3.818 3.818 0 003.684-2.836h.765c1.042 0 1.891.847 1.891 1.89a3.786 3.786 0 003.782 3.783h1.238a3.819 3.819 0 003.693 2.87 3.82 3.82 0 003.816-3.816 3.82 3.82 0 00-3.816-3.816 3.82 3.82 0 00-3.693 2.87h-1.238a1.893 1.893 0 01-1.891-1.89c0-1.138-.51-2.16-1.307-2.853a3.769 3.769 0 001.307-2.853c0-1.041.847-1.89 1.89-1.89h5.315a3.819 3.819 0 003.693 2.87 3.82 3.82 0 003.816-3.816 3.825 3.825 0 00-3.818-3.818zM4.998 21.545a1.927 1.927 0 01-1.925-1.926 1.926 1.926 0 013.851 0 1.927 1.927 0 01-1.926 1.926zm10.422 0a1.927 1.927 0 01-1.925-1.926c0-1.062.863-1.925 1.925-1.925s1.925.863 1.925 1.925a1.927 1.927 0 01-1.925 1.926zM30.47 23.4c1.063 0 1.926.864 1.926 1.925a1.927 1.927 0 01-1.925 1.926 1.927 1.927 0 01-1.926-1.926 1.93 1.93 0 011.926-1.925zm4.077-7.527a1.927 1.927 0 01-1.925-1.926 1.926 1.926 0 013.851 0 1.927 1.927 0 01-1.926 1.926z"/></svg>