<svg xmlns="http://www.w3.org/2000/svg" width="40" height="40" viewBox="0 0 40 40">
  <path fill="#FF6D5A" d="M33.5472727,0.130909091 C31.7709091,0.130909091 30.2763636,1.35454545 29.8545455,3.00181818 L24.54,3.00181818 C22.4545455,3.00181818 20.7581818,4.69818182 20.7581818,6.78363636 C20.7581818,7.82545455 19.9109091,8.67454545 18.8672727,8.67454545 L18.1090909,8.67454545 C17.6872727,7.02727273 16.1945455,5.80363636 14.4163636,5.80363636 C12.64,5.80363636 11.1454545,7.02727273 10.7236364,8.67454545 L7.68727273,8.67454545 C7.26545455,7.02727273 5.77272727,5.80363636 3.99454545,5.80363636 C1.89090909,5.80363636 0.178181818,7.51454545 0.178181818,9.62 C0.178181818,11.7236364 1.88909091,13.4363636 3.99454545,13.4363636 C5.77090909,13.4363636 7.26545455,12.2127273 7.68727273,10.5654545 L10.7272727,10.5654545 C11.1490909,12.2127273 12.6418182,13.4363636 14.42,13.4363636 C16.1854545,13.4363636 17.6690909,12.2309091 18.1036364,10.6 L18.8690909,10.6 C19.9109091,10.6 20.76,11.4472727 20.76,12.4909091 C20.76,14.5763636 22.4563636,16.2727273 24.5418182,16.2727273 L25.78,16.2727273 C26.2018182,17.92 27.6945455,19.1436364 29.4727273,19.1436364 C31.5763636,19.1436364 33.2890909,17.4327273 33.2890909,15.3272727 C33.2890909,13.2236364 31.5781818,11.5109091 29.4727273,11.5109091 C27.6963636,11.5109091 26.2018182,12.7345455 25.78,14.3818182 L24.5418182,14.3818182 C23.5,14.3818182 22.6509091,13.5345455 22.6509091,12.4909091 C22.6509091,11.3527273 22.1418182,10.3309091 21.3436364,9.63818182 C22.1436364,8.94363636 22.6509091,7.92363636 22.6509091,6.78545455 C22.6509091,5.74363636 23.4981818,4.89454545 24.5418182,4.89454545 L29.8563636,4.89454545 C30.2781818,6.54181818 31.7709091,7.76545455 33.5490909,7.76545455 C35.6527273,7.76545455 37.3654545,6.05454545 37.3654545,3.94909091 C37.3636364,1.84363636 35.6509091,0.130909091 33.5472727,0.130909091 Z M3.99818182,11.5436364 C2.93636364,11.5436364 2.07272727,10.68 2.07272727,9.61818182 C2.07272727,8.55636364 2.93636364,7.69272727 3.99818182,7.69272727 C5.06,7.69272727 5.92363636,8.55636364 5.92363636,9.61818182 C5.92363636,10.68 5.06,11.5436364 3.99818182,11.5436364 Z M14.42,11.5436364 C13.3581818,11.5436364 12.4945455,10.68 12.4945455,9.61818182 C12.4945455,8.55636364 13.3581818,7.69272727 14.42,7.69272727 C15.4818182,7.69272727 16.3454545,8.55636364 16.3454545,9.61818182 C16.3454545,10.68 15.4818182,11.5436364 14.42,11.5436364 Z M29.4709091,13.4 C30.5327273,13.4 31.3963636,14.2636364 31.3963636,15.3254545 C31.3963636,16.3872727 30.5327273,17.2509091 29.4709091,17.2509091 C28.4090909,17.2509091 27.5454545,16.3872727 27.5454545,15.3254545 C27.5472727,14.2636364 28.4109091,13.4 29.4709091,13.4 Z M33.5472727,5.87272727 C32.4854545,5.87272727 31.6218182,5.00909091 31.6218182,3.94727273 C31.6218182,2.88545455 32.4854545,2.02181818 33.5472727,2.02181818 C34.6090909,2.02181818 35.4727273,2.88545455 35.4727273,3.94727273 C35.4727273,5.00909091 34.6090909,5.87272727 33.5472727,5.87272727 Z" transform="translate(1 10)"/>
</svg>
