<svg width="90" height="40" xmlns="http://www.w3.org/2000/svg"><g fill="#26292C"><path d="M8.466 14.032c3.02 0 5.05 2.392 5.05 5.951 0 3.504-2.14 5.95-5.196 5.95-1.458 0-2.392-.624-2.88-1.076.003.108.005.227.005.355v4.753H2.317v-12.66c0-.185-.06-.243-.24-.243H1V14.29h2.625c1.208 0 1.517.614 1.576 1.088.491-.549 1.508-1.346 3.265-1.346zm-3.084 6.016c0 1.508.765 3.135 2.45 3.135 1.248 0 2.51-.975 2.51-3.158 0-1.913-.992-3.198-2.47-3.198-1.204 0-2.49.846-2.49 3.22z"/><path d="M17.716 22.684c0 .174.068.244.241.244h1.077v2.747h-2.8c-1.123 0-1.646-.534-1.646-1.685v-6.686c0-.183-.06-.242-.241-.242H13.27V14.29h2.796c1.11 0 1.65.552 1.65 1.685v6.71zm-.214-12.68h-2.788v2.964h2.788v-2.964z"/><path d="M17.502 10.004h-2.788v2.964h2.788v-2.964zm8.388 4.028c3.018 0 5.047 2.392 5.047 5.951 0 3.504-2.137 5.95-5.195 5.95-1.457 0-2.395-.624-2.88-1.076.004.108.006.227.006.355v4.753h-3.13v-12.66c0-.185-.06-.243-.24-.243h-1.076V14.29h2.626c1.208 0 1.516.614 1.574 1.088.494-.549 1.508-1.346 3.267-1.346zm-.639 9.151c1.251 0 2.513-.975 2.513-3.158 0-1.913-.992-3.198-2.47-3.198-1.205 0-2.492.846-2.492 3.22 0 1.509.769 3.136 2.45 3.136zm11.574-9.15c3.005 0 5.025 2.176 5.025 5.414 0 .33-.06 1.001-.066 1.03l-.018.206h-7.419c.271 1.514 1.419 2.48 2.987 2.48 1.633 0 2.87-1.15 2.883-1.16l.203-.194 1.363 2.283-.127.125c-.07.071-1.755 1.717-4.511 1.717-3.504 0-6.048-2.503-6.048-5.95 0-3.504 2.357-5.951 5.728-5.951zm-2.361 4.308h4.155c-.128-1.028-.853-1.752-1.795-1.752-1.172 0-2.02.634-2.36 1.752zm18.764 4.343c0 .174.068.244.24.244h1.054v2.747h-2.71c-1.17 0-1.486-.622-1.55-1.113-.485.563-1.48 1.372-3.206 1.372-3.02 0-5.049-2.39-5.049-5.951 0-3.504 2.119-5.952 5.154-5.952 1.553 0 2.454.554 2.916.974v-1.987c0-.184-.06-.242-.24-.242H48.76v-2.773h2.796c1.124 0 1.672.552 1.672 1.685v10.996zm-5.58.5c1.205 0 2.493-.845 2.493-3.222 0-1.561-.758-3.135-2.449-3.135-1.492 0-2.493 1.267-2.493 3.156 0 1.944.963 3.2 2.45 3.2zm13.835-9.044c.25 0 .517.043.526.045l.19.032v3.138l-.262-.04a4.502 4.502 0 00-.623-.039c-1.013 0-2.265.56-2.736 2.13a6.468 6.468 0 00-.223 1.714v4.555h-3.128v-8.371c0-.183-.06-.242-.241-.242H53.91v-2.773h2.69c1.108 0 1.672.525 1.672 1.557v.26c.71-1.209 1.909-1.967 3.211-1.967zm5.169 8.544c0 .174.067.244.239.244h1.079v2.747h-2.797c-1.125 0-1.65-.534-1.65-1.685v-6.686c0-.183-.058-.242-.241-.242h-.808V14.29h2.529c1.11 0 1.649.552 1.649 1.685v6.71zm-.214-12.68H63.65v2.964h2.788v-2.964z"/><path d="M66.438 10.004H63.65v2.964h2.788v-2.964zm12.024 4.286h-1.669c-.976 0-1.499.34-1.808 1.179l-2.04 5.748a9.178 9.178 0 00-.193.682 7.703 7.703 0 00-.206-.686l-2.04-5.746c-.313-.847-.818-1.177-1.806-1.177h-1.775v2.772h.46c.245 0 .324.084.382.238l3.156 8.375h3.519l3.156-8.375c.058-.154.139-.238.383-.238h.48V14.29zm5.386-.257c3.007 0 5.029 2.176 5.029 5.414 0 .33-.064 1.001-.068 1.03l-.017.206h-7.42c.272 1.514 1.419 2.48 2.987 2.48 1.628 0 2.87-1.15 2.88-1.16l.209-.194 1.36 2.283-.128.125c-.07.071-1.755 1.717-4.513 1.717-3.504 0-6.044-2.503-6.044-5.95 0-3.504 2.355-5.951 5.725-5.951zm-2.36 4.308h4.156c-.128-1.028-.852-1.752-1.796-1.752-1.171 0-2.016.634-2.36 1.752z"/></g></svg>