<svg width="86" height="40" xmlns="http://www.w3.org/2000/svg"><path d="M12.423 26.696c-.822-1.618-1.787-3.252-3.668-3.252-.36 0-.718.06-1.048.21l-.639-1.28c.779-.667 2.037-1.197 3.654-1.197 2.517 0 3.808 1.212 4.833 2.759.609-1.32.898-3.105.898-5.316 0-5.52-1.727-8.356-5.76-8.356C6.718 10.264 5 13.1 5 18.62c0 5.493 1.717 8.298 5.692 8.298a6.16 6.16 0 001.73-.222zm.985 1.926c-.871.234-1.797.363-2.715.363C5.4 28.985.219 24.762.219 18.62c0-6.2 5.181-10.423 10.474-10.423 5.381 0 10.513 4.193 10.513 10.423 0 3.466-1.617 6.282-3.967 8.102.76 1.138 1.541 1.894 2.63 1.894 1.188 0 1.667-.918 1.747-1.638h1.547c.09.958-.39 4.943-4.713 4.943-2.619 0-4.004-1.518-5.042-3.299zm11.201-5.268v-7.1c0-.808-.3-1.168-1.228-1.168h-.989V13.2h6.46v10.064c0 1.697.919 2.445 2.317 2.445 1.148 0 2.296-.507 2.915-1.667v-7.788c0-.808-.3-1.168-1.228-1.168h-1.048V13.2h6.52v10.542c0 1.05.39 1.529 1.587 1.529h.21v1.947l-5.83.928V26.14h-.12c-1.129 1.377-2.716 2.306-4.983 2.306-2.546 0-4.583-1.288-4.583-5.092m23.997 3.206c2.297 0 3.17-1.999 3.216-6.022.044-3.935-.919-5.84-3.216-5.84-2.006 0-3.264 1.906-3.264 5.84 0 4.024 1.237 6.021 3.264 6.021zm0 1.886c-4.153 0-7.898-3.176-7.898-7.908 0-4.643 3.655-7.728 7.898-7.728 4.424 0 7.968 3.144 7.968 7.728 0 4.732-3.544 7.908-7.968 7.908zm8.102-.3V26.26h.63c1.557 0 1.707-.449 1.707-1.797v-8.208c0-.808-.42-1.168-1.378-1.168h-.838V13.2h5.92l.3 3.085h.12c.659-2.217 2.426-3.386 4.083-3.386 1.368 0 2.436.78 2.436 2.358 0 1.098-.528 2.266-2.006 2.266-1.329 0-1.588-.899-2.687-.899-.978 0-1.737.93-1.737 2.296v5.542c0 1.348.33 1.797 1.858 1.797h.868v1.887h-9.276m19.709-2.196c1.888 0 2.666-1.787 2.666-3.583v-2.398c-1.377 1.427-4.583 1.477-4.583 4.024 0 1.248.74 1.957 1.917 1.957zm2.756-.01c-.779 1.497-2.377 2.506-4.613 2.506-2.596 0-4.273-1.379-4.273-3.805 0-4.881 6.8-3.584 8.796-6.818v-.35c0-2.486-.978-2.875-2.057-2.875-3.025 0-1.648 3.253-4.433 3.253-1.338 0-1.857-.807-1.857-1.716 0-1.837 2.197-3.325 6.32-3.325 3.904 0 6.3 1.079 6.3 4.963v6.2c0 .958.35 1.478 1.19 1.478.358 0 .658-.1.887-.26l.5 1.217c-.41.63-1.498 1.738-3.565 1.738-1.797 0-2.925-.838-3.075-2.206h-.12z" fill="#B92B27"/></svg>