<svg width="48" height="40" xmlns="http://www.w3.org/2000/svg" xmlns:xlink="http://www.w3.org/1999/xlink"><defs><path id="a" d="M0 0h45.583v31.905H0z"/></defs><g transform="translate(1 4)" fill="none" fill-rule="evenodd"><mask id="b" fill="#fff"><use xlink:href="#a"/></mask><path fill="#FFF" mask="url(#b)" d="M0 0h45.583v31.905H0z"/><path d="M18.97 3.478A7.99 7.99 0 0124.753.997c3.011 0 5.637 1.678 7.034 4.167a9.75 9.75 0 013.976-.843c5.428 0 9.827 4.44 9.827 9.914 0 5.48-4.4 9.917-9.827 9.917-.664 0-1.31-.066-1.936-.19a7.188 7.188 0 01-9.413 2.955 8.206 8.206 0 01-7.55 4.993 8.196 8.196 0 01-7.69-5.364 7.552 7.552 0 01-1.566.162C3.405 26.708 0 23.265 0 19.02a7.702 7.702 0 013.802-6.663 8.829 8.829 0 01-.727-3.515C3.075 3.959 7.039 0 11.928 0a8.846 8.846 0 017.043 3.478z" fill="#479DDC" mask="url(#b)"/><path d="M6.602 16.548c-.03.075.008.093.02.104.084.064.171.107.258.157.467.246.904.319 1.368.319.933 0 1.515-.496 1.515-1.299v-.014c0-.74-.654-1.012-1.269-1.206l-.081-.026c-.464-.15-.867-.281-.867-.588v-.015c0-.26.235-.452.6-.452.403 0 .879.133 1.189.304 0 0 .09.058.121-.031.02-.047.174-.467.192-.51.017-.05-.015-.088-.047-.108a2.672 2.672 0 00-1.339-.36l-.092.004c-.861 0-1.458.516-1.458 1.258v.014c0 .78.658 1.038 1.28 1.214l.1.03c.449.138.837.257.837.573v.017c0 .29-.252.505-.658.505-.16 0-.664-.003-1.209-.345-.066-.04-.1-.067-.153-.099-.026-.017-.093-.046-.125.044l-.182.51zm13.69 0c-.029.075.009.093.02.104.084.064.171.107.258.157.47.246.907.319 1.368.319.933 0 1.516-.496 1.516-1.299v-.014c0-.74-.655-1.012-1.27-1.206l-.08-.026c-.464-.15-.864-.281-.864-.588v-.015c0-.26.234-.452.597-.452.403 0 .878.133 1.185.304 0 0 .093.058.125-.031l.19-.51c.018-.05-.014-.088-.045-.108a2.671 2.671 0 00-1.34-.36l-.092.004c-.858 0-1.458.516-1.458 1.258v.014c0 .78.664 1.038 1.281 1.214l.099.03c.449.138.837.257.837.573v.017c0 .29-.252.505-.658.505-.16 0-.66-.003-1.205-.345-.067-.04-.105-.067-.154-.099-.02-.008-.098-.04-.124.044l-.186.51zm9.349-1.568c0 .452-.084.809-.252 1.06-.165.25-.412.372-.76.372-.35 0-.596-.122-.759-.371-.165-.252-.246-.609-.246-1.061 0-.455.081-.811.246-1.06.163-.247.41-.366.76-.366.347 0 .594.119.759.365.168.25.252.606.252 1.061zm.78-.84a1.868 1.868 0 00-.354-.679 1.75 1.75 0 00-.6-.457 1.999 1.999 0 00-.837-.169c-.319 0-.603.058-.84.169a1.745 1.745 0 00-.954 1.136 2.99 2.99 0 00-.116.84c0 .299.04.582.116.84.075.258.194.487.353.679.16.188.363.342.6.452.24.107.522.162.84.162.317 0 .598-.055.838-.162.238-.11.44-.264.6-.452a1.92 1.92 0 00.354-.679c.075-.258.116-.541.116-.84 0-.301-.04-.583-.116-.84zm6.41 2.153c-.029-.078-.101-.05-.101-.05a1.78 1.78 0 01-.365.105c-.13.02-.273.032-.426.032-.377 0-.679-.113-.893-.336-.217-.224-.336-.58-.336-1.067 0-.443.107-.777.298-1.032.192-.252.481-.38.867-.38.321 0 .568.038.826.117 0 0 .06.029.09-.053.072-.19.121-.324.194-.533.023-.06-.03-.084-.047-.092a3.197 3.197 0 00-1.11-.171c-.327 0-.62.058-.869.168a1.794 1.794 0 00-1.008 1.133 2.636 2.636 0 00-.128.843c0 .65.174 1.17.519 1.553.345.386.863.58 1.542.58.4 0 .808-.081 1.107-.197 0 0 .058-.026.031-.093l-.19-.527zm1.362-1.748c.038-.252.108-.46.218-.626.162-.246.408-.382.756-.382.345 0 .574.136.739.382.11.166.156.383.177.626h-1.89zm2.632-.553a1.634 1.634 0 00-.337-.617 1.507 1.507 0 00-.504-.383 1.912 1.912 0 00-.756-.154c-.33 0-.629.055-.875.168-.244.113-.447.27-.609.464-.16.194-.281.426-.356.687-.079.26-.116.545-.116.846 0 .305.04.589.119.843.08.258.208.484.382.673.174.188.397.336.67.44.263.102.588.157.959.154.762 0 1.165-.171 1.33-.264.029-.017.055-.043.023-.127l-.174-.481c-.026-.073-.101-.047-.101-.047-.189.07-.455.197-1.084.194-.409 0-.713-.121-.904-.31-.197-.194-.293-.478-.31-.878h2.646s.07 0 .075-.066c.003-.03.093-.548-.078-1.142zm-23.79.553c.037-.252.107-.46.214-.626.162-.246.409-.382.754-.382.347 0 .576.136.742.382.107.166.156.383.173.626h-1.883zm2.628-.553a1.635 1.635 0 00-.339-.617 1.472 1.472 0 00-.501-.383 1.911 1.911 0 00-.757-.154c-.33 0-.628.055-.872.168a1.71 1.71 0 00-.608.464 1.926 1.926 0 00-.363.687c-.075.26-.116.545-.116.846 0 .305.04.589.122.843.081.258.209.484.385.673.174.188.398.336.664.44.267.102.588.157.96.154.764 0 1.164-.171 1.33-.264.031-.017.058-.043.023-.127l-.174-.481c-.026-.073-.099-.047-.099-.047-.188.07-.458.197-1.084.194-.408 0-.712-.121-.904-.31-.194-.194-.292-.478-.307-.878h2.64s.073 0 .078-.066c.003-.03.09-.548-.078-1.142zm-8.343 2.286c-.105-.084-.12-.104-.151-.159-.055-.078-.081-.194-.081-.342 0-.232.078-.4.238-.513-.003 0 .226-.197.768-.188.38.003.718.06.718.06v1.2s-.336.073-.716.096c-.539.032-.78-.157-.776-.154zm1.055-1.86a5.41 5.41 0 00-.412-.012c-.229 0-.45.026-.655.084-.206.055-.391.14-.55.255a1.235 1.235 0 00-.525 1.046c0 .235.04.438.122.603.078.168.194.307.342.415.147.107.33.185.539.234a3.2 3.2 0 00.701.07c.272 0 .542-.023.806-.067.258-.043.576-.107.663-.127.087-.02.186-.05.186-.05.066-.014.06-.083.06-.083l-.002-2.42c0-.53-.14-.925-.418-1.168-.278-.244-.686-.365-1.214-.365-.203 0-.522.026-.713.066 0 0-.576.11-.814.296 0 0-.052.035-.023.107l.188.501c.023.067.087.044.087.044s.02-.009.044-.023c.507-.276 1.15-.267 1.15-.267.287 0 .507.058.655.171.145.11.217.278.217.629v.113c-.226-.035-.434-.052-.434-.052zm21.312-1.362c.02-.058-.023-.087-.04-.096a2.35 2.35 0 00-.441-.075c-.336-.02-.522.035-.687.11-.162.072-.345.194-.443.33l-.003-.321c0-.047-.032-.082-.076-.082h-.678c-.043 0-.075.035-.075.082v3.944a.08.08 0 00.08.078h.696a.078.078 0 00.079-.078v-1.97c0-.265.029-.531.087-.696a.99.99 0 01.231-.389.784.784 0 01.328-.197 1.281 1.281 0 01.646-.014c.052.005.081-.026.099-.073.043-.119.174-.48.197-.553z" fill="#FFF" mask="url(#b)"/><path d="M27.172 11.23a2.671 2.671 0 00-.264-.064 2.148 2.148 0 00-.359-.026c-.475 0-.852.133-1.119.4-.263.27-.443.672-.533 1.203l-.032.18h-.6s-.072-.003-.09.075l-.095.55c-.009.053.014.084.084.084h.585l-.594 3.307a4.252 4.252 0 01-.156.652 1.338 1.338 0 01-.186.377.477.477 0 01-.243.185.93.93 0 01-.31.047c-.064 0-.148-.012-.212-.026-.064-.012-.096-.026-.142-.044 0 0-.07-.026-.096.04-.023.059-.176.485-.197.54-.017.052.01.093.041.104.078.026.136.047.243.07.148.034.27.037.386.037.243 0 .466-.034.649-.101.185-.067.345-.183.49-.34.153-.17.249-.347.342-.59.093-.24.17-.54.232-.89l.6-3.368h.869s.072.003.087-.075l.098-.55c.01-.053-.014-.085-.084-.085h-.846c.006-.02.044-.315.14-.597a.833.833 0 01.185-.28.536.536 0 01.223-.14.94.94 0 01.281-.04.94.94 0 01.217.023c.084.017.116.026.136.032.087.026.099 0 .116-.04l.2-.557c.02-.061-.029-.087-.046-.093zm-11.807 5.718a.076.076 0 01-.075.078h-.704a.076.076 0 01-.075-.078v-5.643c0-.046.031-.08.075-.08h.704c.044 0 .075.034.075.08v5.643z" fill="#FFF" mask="url(#b)"/></g></svg>