<svg xmlns="http://www.w3.org/2000/svg" width="40" height="40" viewBox="0 0 40 40"><g fill="#52BD94" fill-rule="evenodd" transform="translate(5 4)"><rect width="18.076" height="3.136" x="11.353" y="10.328" fill-rule="nonzero" rx=".583"/><rect width="18.076" height="3.136" x=".169" y="18.164" fill-rule="nonzero" rx=".583"/><path d="M2.34 12.474a.587.587 0 00.71-.4 12.336 12.336 0 0114.414-8.302c.302.063.6-.122.677-.42l.51-1.905a.587.587 0 00-.443-.722C10.333-1.051 2.415 3.527.025 11.238a.58.58 0 00.41.726l1.904.51zm24.925 6.68a.588.588 0 00-.71.398 12.336 12.336 0 01-14.415 8.304.578.578 0 00-.677.42l-.51 1.904a.587.587 0 00.443.722c7.876 1.776 15.793-2.801 18.183-10.513a.58.58 0 00-.41-.726l-1.904-.51z"/><circle cx="23.736" cy="5.166" r="1.719" fill-rule="nonzero"/><circle cx="5.867" cy="26.462" r="1.719" fill-rule="nonzero"/></g></svg>