<svg xmlns="http://www.w3.org/2000/svg" width="40" height="40" viewBox="0 0 40 40"><g fill="none" fill-rule="evenodd" stroke-linecap="round" stroke-linejoin="round" stroke-width=".91"><path stroke="#6738B8" d="M27.854 35.888a2.627 2.627 0 001.977-1.144l7.802-13.525c.365-.729.365-1.561 0-2.237L29.831 5.457c-.417-.677-1.145-1.093-1.977-1.145H12.248a2.448 2.448 0 00-1.925 1.145L2.52 18.982c-.364.728-.364 1.56 0 2.237l7.803 13.525c.416.676 1.145 1.092 1.977 1.144h15.554z"/><path stroke="#9C24C0" d="M21.924 4.364l-5.515 9.468 3.642 6.294h7.283l5.462-9.467"/><path stroke="#9C24C0" d="M21.924 35.888l-5.515-9.468 3.642-6.294h7.283l5.462 9.468"/><path stroke="#9C24C0" d="M5.485 26.42h10.924l3.642-6.294-3.642-6.294H5.485"/><path stroke="#9C24C0" d="M27.854 35.888a2.627 2.627 0 001.977-1.144l7.802-13.525c.365-.729.365-1.561 0-2.237L29.831 5.457c-.417-.677-1.145-1.093-1.977-1.145H12.248a2.448 2.448 0 00-1.925 1.145L2.52 18.982c-.364.728-.364 1.56 0 2.237l7.803 13.525c.416.676 1.145 1.092 1.977 1.144h15.554z"/><path stroke="#9C24C0" d="M23.692 26.42l3.642-6.294-3.642-6.294h-7.283l-3.641 6.294 3.641 6.294z"/></g></svg>