<svg xmlns="http://www.w3.org/2000/svg" width="41" height="40" viewBox="0 0 41 40"><path fill="#0675C1" d="M34.196 16.94V6H6.5v14.817h19.04v1.939H6.5v10.94h27.696V18.878H15.155V16.94h19.04zM20.348 30.857a1.389 1.389 0 01-1.385-1.385c0-.762.623-1.385 1.385-1.385.761 0 1.385.623 1.385 1.385s-.624 1.385-1.385 1.385m6.162-4.224H14.186l.623-1.938h11.147l.554 1.938zM20.348 8.84a1.39 1.39 0 011.385 1.385 1.39 1.39 0 01-1.385 1.384 1.389 1.389 0 01-1.385-1.384c0-.762.623-1.385 1.385-1.385M14.808 15l-.622-1.939H26.44l-.485 1.94H14.81z"/></svg>