<svg xmlns="http://www.w3.org/2000/svg" width="50" height="40" viewBox="0 0 50 40">
  <g fill="none" transform="translate(0 6)">
    <path fill="#0F74B5" d="M5.83267957,27.3855651 L43.7384232,27.3855651 L49.4483096,6.01686945 C49.5441521,5.670781 49.4081257,5.30216024 49.1104463,5.10128716 C48.8127669,4.90041407 48.4200265,4.91222471 48.1349556,5.13062249 L36.0878696,14.1666043 L25.4315507,0.306983135 C25.2692491,0.108126783 25.0243212,-0.00478328684 24.7677034,0.000745559243 C24.5110855,0.00669149575 24.2714486,0.130435331 24.1181968,0.33634674 L13.7394974,14.1959679 L1.33470928,5.09858947 C1.04827047,4.89575265 0.665975395,4.89216608 0.375781433,5.08959312 C0.0855874705,5.28702016 -0.0514544592,5.64392616 0.0320330228,5.98483643 L5.83267957,27.3855651 Z"/>
    <path fill="#041D2D" d="M49.2747974,6.62549689 C45.337405,20.7894318 30.1644298,27.3855651 5.80331597,27.3855651 L43.7090596,27.3855651 L49.2641197,6.62549689 L49.2747974,6.62549689 Z" opacity=".2"/>
  </g>
</svg>
