<svg width="84" height="40" xmlns="http://www.w3.org/2000/svg"><g fill-rule="nonzero" fill="none"><path d="M23.354 11.63l-3.612 3.562L17.35 12.8a2.239 2.239 0 10-3.103 3.155l2.391 2.391-3.562 3.562-2.544-2.493a7.286 7.286 0 0110.43-10.176l2.392 2.391zM0 22.264l3.562-3.561 6.36 6.36-3.562 3.561L0 22.264z" fill="#F997A4"/><path d="M16.638 18.346l2.391 2.392a7.276 7.276 0 01-10.176 10.38L6.36 28.623l3.562-3.561 2.391 2.391a2.239 2.239 0 103.155-3.155l-2.392-2.391 3.562-3.562zm3.104-3.154l3.612-3.562 6.31 6.36-3.562 3.562-6.36-6.36z" fill="#F76D7E"/><path d="M50.168 11.63l-3.612 3.562-2.392-2.392a2.239 2.239 0 10-3.103 3.155l2.391 2.391-3.562 3.562-2.544-2.493a7.286 7.286 0 0110.43-10.176l2.392 2.391zM26.814 22.264l3.562-3.561 6.36 6.36-3.562 3.561-6.36-6.36z" fill="#66DDEF"/><path d="M43.452 18.346l2.391 2.392a7.276 7.276 0 01-10.176 10.38l-2.493-2.494 3.562-3.561 2.391 2.391a2.239 2.239 0 103.155-3.155l-2.392-2.391 3.562-3.562zm3.104-3.154l3.612-3.562 6.31 6.36-3.562 3.562-6.36-6.36z" fill="#40C9DE"/><path d="M76.982 11.63l-3.612 3.562-2.392-2.392a2.239 2.239 0 10-3.103 3.155l2.391 2.391-3.561 3.562-2.545-2.493A7.286 7.286 0 0174.591 9.239l2.391 2.391zM53.628 22.264l3.562-3.561 6.36 6.36-3.562 3.561-6.36-6.36z" fill="#FFD898"/><path d="M70.266 18.346l2.392 2.392a7.276 7.276 0 01-10.177 10.38l-2.493-2.494 3.562-3.561 2.391 2.391a2.239 2.239 0 103.155-3.155l-2.391-2.391 3.561-3.562zm3.104-3.154l3.612-3.562 6.31 6.36-3.562 3.562-6.36-6.36z" fill="#F7BC5A"/></g></svg>