<svg width="90" height="40" xmlns="http://www.w3.org/2000/svg"><g fill="none"><path d="M25.15 10.986l-3.89 3.836-2.575-2.575a2.411 2.411 0 10-3.343 3.397l2.576 2.575-3.836 3.836-2.74-2.685A7.847 7.847 0 1122.575 8.41l2.576 2.575zM0 22.438l3.836-3.835 6.849 6.85-3.836 3.835L0 22.438z" fill="#F997A4"/><path d="M17.918 18.22l2.575 2.575A7.836 7.836 0 019.534 31.973L6.85 29.288l3.836-3.836 2.575 2.575a2.411 2.411 0 103.398-3.397l-2.576-2.575 3.836-3.836zm3.342-3.398l3.89-3.836 6.795 6.85-3.835 3.835-6.85-6.85z" fill="#F76D7E"/><path d="M54.027 10.986l-3.89 3.836-2.575-2.575a2.411 2.411 0 10-3.343 3.397l2.576 2.575-3.836 3.836-2.74-2.685A7.847 7.847 0 1151.452 8.41l2.575 2.575zm-25.15 11.452l3.835-3.835 6.85 6.85-3.836 3.835-6.85-6.85z" fill="#66DDEF"/><path d="M46.795 18.22l2.575 2.575a7.836 7.836 0 01-10.96 11.178l-2.685-2.685 3.836-3.836 2.575 2.575a2.411 2.411 0 103.397-3.397l-2.575-2.575 3.836-3.836zm3.342-3.398l3.89-3.836 6.795 6.85-3.836 3.835-6.849-6.85z" fill="#40C9DE"/><path d="M82.904 10.986l-3.89 3.836-2.576-2.575a2.411 2.411 0 10-3.342 3.397l2.575 2.575-3.835 3.836-2.74-2.685A7.847 7.847 0 0180.329 8.41l2.575 2.575zm-25.15 11.452l3.835-3.835 6.85 6.85-3.836 3.835-6.85-6.85z" fill="#FFD898"/><path d="M75.671 18.22l2.576 2.575a7.836 7.836 0 01-10.96 11.178l-2.684-2.685 3.835-3.836 2.576 2.575a2.411 2.411 0 103.397-3.397l-2.575-2.575 3.835-3.836zm3.343-3.398l3.89-3.836 6.795 6.85-3.836 3.835-6.85-6.85z" fill="#F7BC5A"/></g></svg>