<svg xmlns="http://www.w3.org/2000/svg" width="40" height="40" viewBox="0 0 40 40">
  <g fill="none" transform="translate(0 2)">
    <path fill="#1D7DC0" d="M22.7520948,18.6411469 C22.7520948,16.4393313 20.8255062,14.604485 18.6236906,14.6962273 C16.4218749,14.6962273 14.6787709,16.5310737 14.6787709,18.7328892 C14.6787709,20.9347049 16.6053596,22.7695513 18.8071752,22.677809 C21.1007332,22.677809 22.8438372,20.8429626 22.7520948,18.6411469 L22.7520948,18.6411469 Z M10.6421089,21.9438704 C11.9265013,21.2099319 13.7613477,21.9438704 14.8622556,23.7787168 C15.9631634,25.5218208 15.8714211,27.6318941 14.5870285,28.3658327 C13.3026361,29.0997712 11.4677898,28.3658327 10.2751396,26.5309863 C9.26597413,24.7878823 9.35771644,22.677809 10.6421089,21.9438704 L10.6421089,21.9438704 Z M6.78893154,26.439244 C7.88983935,25.9805324 9.26597413,26.9896979 9.99991271,28.732802 C10.7338512,30.475906 10.4586243,32.21901 9.35771644,32.6777216 C8.25680862,33.1364332 6.88067386,32.1272677 6.14673531,30.3841636 C5.41279676,28.6410596 5.68802372,26.8979556 6.78893154,26.439244 L6.78893154,26.439244 Z M3.21098113,29.9254521 C3.94491968,29.6502252 5.04582749,30.751133 5.68802372,32.4024947 C6.33021995,34.0538564 6.14673531,35.6134758 5.41279676,35.8887028 C4.67885822,36.1639297 3.57795041,35.0630219 2.93575418,33.4116602 C2.38530027,31.7602985 2.47704259,30.200679 3.21098113,29.9254521 L3.21098113,29.9254521 Z M13.6696054,8.18252267 C15.0457402,8.64123426 15.7796787,10.5678229 15.1374825,12.586154 C14.5870285,14.604485 12.9356668,15.8888774 11.4677898,15.4301659 C9.99991271,14.9714542 9.35771644,13.0448656 9.90817031,11.0265346 C10.6421089,9.00820356 12.2934706,7.72381108 13.6696054,8.18252267 L13.6696054,8.18252267 Z M8.53203558,3.59540676 C9.63294338,3.87063372 10.1833973,5.52199545 9.72468569,7.3568418 C9.26597413,9.19168818 7.98158167,10.3843383 6.78893154,10.0173691 C5.68802372,9.74214213 5.13756981,7.99903804 5.68802372,6.25593399 C6.14673531,4.42108763 7.43112776,3.22843749 8.53203558,3.59540676 L8.53203558,3.59540676 Z M4.67885822,0.0174563621 C5.50453908,0.200940998 5.77976604,1.66881809 5.41279676,3.41192213 C5.04582749,5.15502618 4.12840431,6.34767631 3.30272345,6.16419167 C2.56878491,6.07244935 2.20181564,4.51282995 2.56878491,2.86146822 C2.93575418,1.11836418 3.85317736,-0.166028274 4.67885822,0.0174563621 L4.67885822,0.0174563621 Z"/>
    <path fill="#969AA2" d="M10.091655,18.0888005 C10.1833973,19.8319045 9.17423182,21.2997817 7.88983935,21.2997817 C6.6054469,21.2997817 5.5962814,19.9236468 5.5962814,18.1805428 C5.5962814,16.4374388 6.6054469,14.9695617 7.79809704,14.9695617 C9.08248951,14.9695617 10.091655,16.3456964 10.091655,18.0888005 Z M2.75226954,23.3181126 C2.47704259,21.7584932 3.0274965,20.2906162 3.94491968,20.1071316 C4.95408517,19.9236468 5.87150836,21.116297 6.23847763,22.6759164 C6.51370459,24.3272781 5.96325068,25.7034129 5.04582749,25.8868976 C4.03666199,26.1621245 3.0274965,24.9694744 2.75226954,23.3181126 Z M3.0274965,26.5290938 L3.0274965,26.5290938 C3.39446577,27.9969708 3.21098113,29.2813633 2.47704259,29.464848 C1.83484636,29.6483326 0.917423182,28.6391671 0.550453908,27.2630324 C0.0917423182,25.8868976 0.366969272,24.5107628 1.0091655,24.3272781 C1.74310404,24.1437935 2.56878491,25.0612167 3.0274965,26.5290938 Z M5.96325068,12.8594884 L5.96325068,12.8594884 C6.054993,14.4191078 5.32105444,15.7035003 4.40363127,15.7035003 C3.48620809,15.7035003 2.66052723,14.4191078 2.66052723,12.8594884 C2.56878491,11.299869 3.30272345,10.0154765 4.22014663,10.0154765 C5.13756981,10.0154765 5.96325068,11.299869 5.96325068,12.8594884 Z M2.66052723,8.63934172 C2.75226954,10.1072188 2.11007332,11.2081267 1.37613477,11.2081267 C0.642196227,11.299869 0,10.1072188 0,8.73108404 C0,7.35494927 0.550453908,6.16229914 1.28439245,6.16229914 C2.018331,6.07055682 2.66052723,7.26320696 2.66052723,8.63934172 Z"/>
  </g>
</svg>
