<svg xmlns="http://www.w3.org/2000/svg" width="40" height="40" viewBox="0 0 40 40"><g fill="none"><path fill="#1D7DC0" d="M22.752 20.641c0-2.202-1.926-4.037-4.128-3.945-2.202 0-3.945 1.835-3.945 4.037s1.926 4.037 4.128 3.945c2.294 0 4.037-1.835 3.945-4.037zm-12.11 3.303c1.285-.734 3.12 0 4.22 1.835 1.101 1.743 1.01 3.853-.275 4.587-1.284.734-3.12 0-4.312-1.835-1.009-1.743-.917-3.853.367-4.587zM6.79 28.439c1.1-.458 2.477.55 3.21 2.294.735 1.743.46 3.486-.641 3.945-1.101.458-2.477-.55-3.211-2.294-.734-1.743-.459-3.486.642-3.945zm-3.58 3.486c.734-.275 1.835.826 2.477 2.477.642 1.652.459 3.211-.275 3.487-.734.275-1.835-.826-2.477-2.477-.55-1.652-.459-3.211.275-3.487zm10.46-21.742c1.376.458 2.11 2.385 1.467 4.403-.55 2.018-2.201 3.303-3.67 2.844-1.467-.459-2.11-2.385-1.559-4.403.734-2.019 2.385-3.303 3.762-2.844zM8.532 5.595c1.1.276 1.651 1.927 1.193 3.762-.459 1.835-1.743 3.027-2.936 2.66C5.688 11.742 5.138 10 5.688 8.256c.459-1.835 1.743-3.028 2.844-2.66zM4.679 2.017c.826.184 1.1 1.652.734 3.395-.367 1.743-1.285 2.936-2.11 2.752-.734-.092-1.101-1.651-.734-3.303.367-1.743 1.284-3.027 2.11-2.844z"/><path fill="#969AA2" d="M10.092 20.089c.091 1.743-.918 3.21-2.202 3.21-1.285 0-2.294-1.375-2.294-3.118 0-1.744 1.01-3.211 2.202-3.211 1.284 0 2.294 1.376 2.294 3.119zm-7.34 5.23c-.275-1.56.275-3.028 1.193-3.212 1.01-.183 1.927 1.01 2.293 2.569.276 1.651-.275 3.027-1.192 3.21-1.01.276-2.019-.917-2.294-2.568zm.275 3.21c.367 1.468.184 2.752-.55 2.936-.642.183-1.56-.826-1.927-2.202-.458-1.376-.183-2.752.46-2.936.733-.183 1.559.734 2.017 2.202zm2.936-13.67c.092 1.56-.642 2.845-1.56 2.845-.917 0-1.742-1.285-1.742-2.845-.092-1.56.642-2.844 1.56-2.844.917 0 1.742 1.285 1.742 2.844zm-3.302-4.22c.091 1.468-.55 2.57-1.285 2.57C.642 13.298 0 12.106 0 10.73c0-1.376.55-2.569 1.284-2.569.734-.091 1.377 1.101 1.377 2.477z"/></g></svg>