<svg width="110" height="40" xmlns="http://www.w3.org/2000/svg"><g fill="none" fill-rule="evenodd"><path d="M104.144 18.443h1.657v-2.987h2.197v2.987h1.985v1.638h-1.985V25.4c0 .231.01.43.03.597.019.168.063.309.134.424.07.116.176.203.318.26.141.058.334.087.578.087.155 0 .308-.003.462-.01a2.22 2.22 0 00.463-.067v1.696c-.244.026-.482.051-.713.077a6.465 6.465 0 01-.713.039c-.578 0-1.044-.055-1.398-.164-.353-.11-.629-.27-.828-.482a1.665 1.665 0 01-.405-.8 5.976 5.976 0 01-.125-1.098V20.08h-1.657v-1.638zm-5.666 8.499c.488 0 .912-.103 1.272-.309a2.68 2.68 0 00.887-.809c.231-.334.4-.71.51-1.127a5.02 5.02 0 000-2.554 3.404 3.404 0 00-.51-1.127 2.731 2.731 0 00-.887-.8c-.36-.206-.784-.308-1.272-.308-.489 0-.912.102-1.272.308-.36.206-.655.472-.886.8a3.407 3.407 0 00-.511 1.127 5.076 5.076 0 000 2.554c.109.417.28.793.51 1.127.232.334.527.604.887.81.36.205.783.308 1.272.308zm0 1.734c-.796 0-1.507-.132-2.13-.395a4.535 4.535 0 01-1.58-1.089 4.649 4.649 0 01-.983-1.657 6.374 6.374 0 01-.337-2.12c0-.758.112-1.458.337-2.1a4.65 4.65 0 01.983-1.658 4.54 4.54 0 011.58-1.089c.623-.263 1.334-.395 2.13-.395.797 0 1.506.132 2.13.395.622.264 1.15.627 1.58 1.089.43.463.758 1.015.983 1.657.224.643.337 1.343.337 2.101 0 .77-.113 1.478-.337 2.12a4.654 4.654 0 01-.984 1.657 4.54 4.54 0 01-1.58 1.09c-.623.262-1.332.394-2.13.394zm-8.923-.27h2.197v-13.76h-2.197v13.76zm-4.16 0h2.197v-9.963h-2.197v9.963zm0-11.678h2.197v-2.082h-2.197v2.082zm-3.874 6.706c0-.45-.058-.886-.173-1.31a3.559 3.559 0 00-.52-1.128 2.689 2.689 0 00-.868-.79 2.357 2.357 0 00-1.195-.298c-.925 0-1.622.32-2.09.963-.47.643-.704 1.497-.704 2.563 0 .501.06.967.183 1.397.122.431.305.8.55 1.109.243.308.536.552.876.732.34.18.735.27 1.185.27.501 0 .925-.103 1.272-.309.347-.205.633-.472.858-.8.225-.327.385-.7.482-1.117.096-.418.144-.845.144-1.282zm-7.67-4.991h2.081v1.349h.039c.308-.578.739-.992 1.291-1.243a4.287 4.287 0 011.792-.376c.784 0 1.468.138 2.053.414a4.05 4.05 0 011.455 1.137c.385.482.674 1.044.867 1.687.193.642.29 1.33.29 2.062 0 .668-.088 1.317-.26 1.946a5.066 5.066 0 01-.791 1.667c-.354.482-.8.868-1.34 1.157-.54.289-1.175.433-1.907.433-.322 0-.643-.029-.964-.087a4.166 4.166 0 01-.925-.279 3.633 3.633 0 01-.82-.491c-.25-.2-.459-.434-.625-.704h-.039v4.972h-2.197V18.443zm-7.381 0h1.657v-2.987h2.197v2.987h1.985v1.638h-1.985V25.4c0 .231.01.43.03.597.019.168.063.309.134.424.07.116.177.203.318.26.141.058.334.087.578.087.155 0 .309-.003.463-.01a2.23 2.23 0 00.462-.067v1.696l-.713.077a6.377 6.377 0 01-.713.039c-.578 0-1.044-.055-1.397-.164-.353-.11-.63-.27-.829-.482a1.66 1.66 0 01-.404-.8 5.993 5.993 0 01-.126-1.098V20.08H66.47v-1.638zm-7.246 6.764c.064.643.308 1.093.732 1.35.424.256.932.385 1.523.385.205 0 .44-.016.703-.048.263-.032.51-.093.742-.184.231-.09.42-.221.569-.395.147-.173.215-.401.202-.684a.972.972 0 00-.308-.694 2.143 2.143 0 00-.742-.433 7.221 7.221 0 00-1.031-.28 48.27 48.27 0 01-1.176-.25c-.411-.09-.806-.2-1.185-.328a3.808 3.808 0 01-1.022-.52 2.401 2.401 0 01-.722-.838c-.18-.34-.27-.762-.27-1.263 0-.54.131-.992.395-1.358a3.03 3.03 0 011.002-.887 4.369 4.369 0 011.349-.472c.495-.09.967-.135 1.417-.135a6.5 6.5 0 011.474.164c.469.11.893.286 1.272.53.379.244.694.562.944.954.25.392.408.864.472 1.416h-2.293c-.103-.526-.344-.88-.723-1.06a3 3 0 00-1.3-.27c-.155 0-.338.013-.55.039a2.562 2.562 0 00-.597.145c-.187.07-.344.173-.472.308a.737.737 0 00-.193.53c0 .27.093.488.28.655.185.167.43.306.732.415.301.109.645.202 1.03.279.386.077.784.16 1.196.25.398.09.79.2 1.175.328.386.129.73.302 1.031.52.302.219.546.495.733.83.186.333.279.744.279 1.233 0 .59-.135 1.092-.405 1.503-.27.411-.62.745-1.05 1.002-.43.257-.91.443-1.436.559a7.274 7.274 0 01-1.56.173 6.79 6.79 0 01-1.745-.212 4.06 4.06 0 01-1.387-.645 3.113 3.113 0 01-.926-1.08c-.225-.43-.343-.94-.356-1.532h2.197zm-3.739 3.2h-2.158v-1.388h-.039c-.27.5-.671.903-1.204 1.204-.533.302-1.076.453-1.629.453-1.31 0-2.258-.324-2.842-.973-.585-.649-.877-1.629-.877-2.939v-6.321h2.197v6.109c0 .874.167 1.49.501 1.85.334.36.803.54 1.407.54.462 0 .848-.07 1.156-.212a2.04 2.04 0 00.752-.569 2.18 2.18 0 00.414-.857c.083-.334.125-.694.125-1.08v-5.781h2.197v9.963zm-15.92-9.964h2.061v1.927h.039c.064-.27.19-.533.375-.79.187-.257.412-.491.675-.703.263-.212.556-.383.877-.511.32-.128.648-.193.983-.193.257 0 .433.007.53.02l.298.038v2.12a10.604 10.604 0 00-.472-.068 3.973 3.973 0 00-.472-.029c-.373 0-.723.075-1.05.222a2.413 2.413 0 00-.858.655c-.244.29-.437.646-.578 1.07a4.638 4.638 0 00-.212 1.465v4.74h-2.197v-9.963zm-10.658-3.797h11.14v2.082H35.67v11.678h-2.409V16.728h-4.355v-2.082z" fill="#161615"/><path fill="#11AA73" d="M26.342 14.646l-10.062-.001-3.109-9.57-3.108 9.569L0 14.642l8.141 5.916-3.109 9.57 8.14-5.913 8.138 5.914-3.11-9.569 8.14-5.915"/><path fill="#114728" d="M18.906 22.73l-.705-2.17-5.029 3.655 5.734-1.485"/></g></svg>