<svg width="30" height="40" xmlns="http://www.w3.org/2000/svg"><path d="M15 5C6.7 5 0 11.7 0 20s6.7 15 15 15 15-6.7 15-15S23.3 5 15 5zm0 26C8.9 31 4 26.1 4 20S8.9 9 15 9s11 4.9 11 11-4.9 11-11 11zm6.8-14.7c0 1.7-1.4 3.1-3.1 3.1-1.7 0-3.1-1.4-3.1-3.1 0-1.7 1.4-3.1 3.1-3.1 1.7 0 3.1 1.4 3.1 3.1zm0 7.4c0 1.7-1.4 3.1-3.1 3.1-1.7 0-3.1-1.4-3.1-3.1 0-1.7 1.4-3.1 3.1-3.1 1.7 0 3.1 1.4 3.1 3.1zm-7.4 0c0 1.7-1.4 3.1-3.1 3.1-1.7 0-3.1-1.4-3.1-3.1 0-1.7 1.4-3.1 3.1-3.1 1.7 0 3.1 1.4 3.1 3.1zm0-7.4c0 1.7-1.4 3.1-3.1 3.1-1.7 0-3.1-1.4-3.1-3.1 0-1.7 1.4-3.1 3.1-3.1 1.7 0 3.1 1.4 3.1 3.1z" fill="#F22F46"/></svg>