<svg xmlns="http://www.w3.org/2000/svg" width="40" height="40" viewBox="0 0 40 40"><g fill="#03F"><path d="M19.867 5.083c-8.124 0-14.701 6.577-14.701 14.702 0 8.124 6.577 14.701 14.701 14.701 8.125 0 14.702-6.577 14.702-14.701 0-8.125-6.577-14.702-14.702-14.702zm-.525 20.477l-1.077 3.178a.864.864 0 01-.139.277 1.296 1.296 0 01-.525.497 1.257 1.257 0 01-1.077.083c-.608-.221-.995-.83-.912-1.437a9.387 9.387 0 01-5.113-8.373c0-5.196 4.2-9.424 9.424-9.424.608 0 1.188.055 1.768.166a1.403 1.403 0 011.603-.58c.332.11.58.331.746.608.138.248.221.525.194.829 0 .11-.028.22-.056.304l-1.077 3.178-3.759 10.694zm1.189 3.62l1.299-3.924a5.79 5.79 0 003.84-5.471 5.663 5.663 0 00-.994-3.234l1.299-3.924a9.378 9.378 0 013.316 7.158 9.462 9.462 0 01-8.76 9.395z"/><path d="M14.064 19.785c0 2.045 1.078 3.84 2.68 4.89l3.649-10.666c-.166-.028-.36-.028-.526-.028a5.803 5.803 0 00-5.803 5.804z"/></g></svg>