<svg width="96" height="40" xmlns="http://www.w3.org/2000/svg"><path d="M30.706 17.353c0-1.706-1.659-3.518-4.53-3.518-3.223 0-6.764 2.365-7.305 7.083-.553 4.764 2.411 6.882 5.4 6.882 2.988 0 4.553-1.165 6.153-2.718-1.377-1.73-3.153-.93-3.495-.753-.376.189-.858.447-1.847.447-1.153 0-2.33-.517-2.33-2.67 7.39-.73 7.954-3.047 7.954-4.753zm-3.659.282c-.047.53-.259 1.436-4 1.941.788-2.8 2.294-3.011 2.988-3.011.647 0 1.06.506 1.012 1.07zm-12.518.46s-1.588 4.987-1.717 5.4c-.047-.424-1.212-9.377-1.212-9.377-2.706 0-4.153 1.93-4.918 3.964l-2.094 5.424c-.012-.388-.294-5.365-.294-5.365C4.13 15.647 1.847 14.13 0 14.13l2.235 13.565c2.836-.012 4.365-1.93 5.165-3.965 0 0 1.706-4.411 1.776-4.611.012.188 1.224 8.576 1.224 8.576 2.847 0 4.376-1.8 5.2-3.765l3.988-9.8c-2.812 0-4.294 1.918-5.059 3.965zm26.624-4.283c-1.753 0-3.094.953-4.224 2.353v-.012L37.941 8c-2.33 0-4.223 2.024-4.588 5.035l-1.765 14.553c1.341 0 2.765-.388 3.53-1.376.682.882 1.706 1.588 3.223 1.588 3.93 0 6.624-4.565 6.624-8.847-.024-3.906-1.918-5.141-3.812-5.141zm-.365 7c-.412 2.388-1.74 4.012-3.023 4.012-1.294 0-1.847-.577-1.847-.577.247-2.094.4-3.376.87-4.482.47-1.106 1.588-2.87 2.753-2.87 1.141 0 1.659 1.517 1.247 3.917zm13.988-6.683h-2.74l.011-.14c.188-1.789.612-2.73 2.012-2.883.953-.094 1.376-.588 1.482-1.13.083-.423.341-1.894.341-1.894-5.506-.035-7.235 2.342-7.682 5.965l-.012.082h-.059c-.894 0-1.882 1.012-2.047 2.295l-.058.47h1.835l-1.541 12.73-.47 2.282c.058 0 .128.012.187.012 2.577-.094 4.224-2.13 4.589-5.083l1.2-9.94h.858c.847 0 1.836-.848 2.012-2.26l.082-.506zm14.26-.235c-3.165 0-6.154 2.33-7.071 5.988-.918 3.66.47 7.989 5.13 7.989 4.646 0 7.329-4.506 7.329-8.26 0-3.729-2.53-5.717-5.389-5.717zm1.282 6.8c-.165 1.659-.894 4.177-2.894 4.177-2.012 0-1.73-2.942-1.53-4.342.212-1.494 1.047-3.623 2.847-3.623 1.612 0 1.765 1.918 1.577 3.788zm19.74-2.6l-1.717 5.4c-.047-.423-1.212-9.376-1.212-9.376-2.705 0-4.153 1.93-4.917 3.964l-2.094 5.424c-.012-.388-.294-5.365-.294-5.365-.165-2.494-2.448-4.012-4.295-4.012l2.224 13.565c2.835-.012 4.365-1.93 5.165-3.965 0 0 1.706-4.411 1.764-4.611.024.188 1.224 8.576 1.224 8.576 2.847 0 4.376-1.8 5.2-3.765l3.988-9.8c-2.8 0-4.282 1.918-5.035 3.965zM57.366 8.082l-2.306 18.6-.47 2.294c.058 0 .129.012.187.012 2.483-.035 4.248-2.212 4.577-4.953l1.33-10.67c.4-3.26-1.542-5.283-3.318-5.283z"/></svg>