<svg width="69" height="40" xmlns="http://www.w3.org/2000/svg"><g fill="none"><path d="M6.256 23.85L0 9.719l4.244-.831 1.925 5.293c.612 1.663 1.225 3.544 1.75 5.031h.044a106.992 106.992 0 01-.132-5.425L7.7 8.275l4.244-.831 2.012 5.512c.613 1.663 1.094 3.15 1.619 4.769h.044c-.088-1.706-.175-3.5-.263-5.294l-.175-5.644L19.163 6l-.788 15.444-4.331.831-2.1-5.556c-.482-1.269-.919-2.582-1.488-4.288h-.043c.087 1.794.175 3.238.175 4.55v5.994l-4.332.875z" fill="#E66760"/><path d="M23.494 10.331l-1.181 8.488c-.307 2.231.262 3.631 1.837 3.85 1.575.218 2.538-.832 2.844-3.194l1.181-8.444 3.981.569-1.137 8.225c-.656 4.594-3.281 6.563-7.438 5.994-4.069-.569-5.906-3.106-5.25-7.875l1.138-8.138 4.025.525z" fill="#E66760"/><path fill="#E66760" d="M31.413 8.144l9.625-.831.262 3.325-5.556.437.218 2.756 5.25-.437.263 3.237-5.25.438.481 5.687-4.025.35z"/><path d="M48.519 25.075c-4.638 0-7.219-3.5-7.219-7.656 0-4.375 2.844-7.832 7.481-7.832 4.857 0 7.306 3.588 7.306 7.613-.043 4.813-2.93 7.875-7.568 7.875zm.218-3.194c1.925 0 3.063-1.881 3.063-4.593 0-2.582-1.137-4.55-3.106-4.55-1.969 0-3.107 1.968-3.107 4.55-.043 2.712 1.182 4.593 3.107 4.593h.043z" fill="#E66760"/><path d="M61.206 21.575c-4.637 0-7.219-3.5-7.219-7.656 0-4.375 2.844-7.832 7.482-7.832 4.856 0 7.306 3.588 7.306 7.613-.044 4.812-2.931 7.875-7.569 7.875zm.219-3.194c1.925 0 3.063-1.881 3.063-4.593 0-2.582-1.138-4.55-3.107-4.55-1.968 0-3.106 1.968-3.106 4.593-.044 2.713 1.181 4.594 3.106 4.594l.044-.044z" fill="#E66760"/><path d="M19.119 30.106c.131-.394.525-.612.919-.612.83 0 1.268.7 1.268 1.619 0 .918-.525 1.662-1.312 1.662-.438.044-.788-.219-.919-.612l-.087.525h-.613v-4.463h.744v1.881zm0 1.225c0 .613.35.832.656.832.438 0 .744-.35.744-1.05 0-.7-.263-1.007-.744-1.007-.35 0-.7.263-.7.875l.044.35zm4.812-1.75h.744l-1.137 3.238c-.307.875-.7 1.181-1.27 1.181-.174 0-.393-.044-.568-.131l.131-.569a.497.497 0 00.35.131c.263 0 .394-.131.569-.569l-1.137-3.237h.787l.744 2.362.787-2.406zm2.494 2.056l.7-.262c.087.481.481.788.962.788.438 0 .744-.175.744-.57 0-.918-2.231-.305-2.231-1.837 0-.787.656-1.225 1.487-1.225.832 0 1.357.35 1.488 1.094l-.7.131c-.044-.393-.394-.656-.788-.656-.437 0-.7.219-.7.569 0 .918 2.232.262 2.232 1.837 0 .788-.7 1.225-1.532 1.225-.83 0-1.53-.393-1.662-1.093zm5.775.482a.9.9 0 01-.963.656.874.874 0 01-.962-.875v-2.319h.744v2.013c0 .35.175.569.481.569s.656-.263.656-.832v-1.75h.788v3.107h-.657l-.087-.57zm3.5-1.838c-.088-.043-.219-.043-.306-.043-.438 0-.788.306-.788.918v1.532h-.744V29.58h.657l.087.744c.088-.525.569-.875 1.138-.831h.044l-.088.787zm1.838 1.575l.743-2.275h.744l-1.094 3.107h-.743L36.05 29.58h.788zm3.893-.175l.613.219c-.175.569-.7.919-1.269.875-.875 0-1.487-.569-1.487-1.619s.568-1.662 1.487-1.662c.7-.044 1.269.481 1.269 1.181v.175c0 .131 0 .262-.044.394h-1.969c0 .569.306.919.744.919.35.043.613-.175.656-.482zm-.087-.875v-.131a.613.613 0 00-.525-.613c-.394 0-.657.307-.7.788l1.225-.044zm3.368-1.225h.744L44.32 32.82c-.306.875-.7 1.181-1.269 1.181-.175 0-.394-.044-.569-.131l.131-.569a.497.497 0 00.35.131c.263 0 .394-.131.57-.569l-1.094-3.28h.787l.744 2.362.743-2.363zm3.588 2.144h-.481l-.963-2.056v3.018h-.744v-4.156h.875l1.138 2.319 1.138-2.319h.83v4.157h-.743v-2.976zm3.981 1.05c-.875 0-1.487-.569-1.487-1.619s.612-1.618 1.487-1.618c.875 0 1.488.568 1.488 1.618 0 1.05-.613 1.619-1.488 1.619zm0-2.712c-.481 0-.7.35-.7 1.05 0 .7.219 1.05.7 1.05.482 0 .7-.35.7-1.05 0-.7-.218-1.05-.7-1.05zm2.931.087c.175-.438.57-.7 1.007-.656.525-.044.919.35.962.875v2.319h-.787v-1.97c0-.35-.175-.568-.525-.568-.35 0-.657.219-.657.788v1.75h-.743V29.58h.612l.131.569zm5.732 2.538h-.875l-1.007-1.357h-.218v1.357h-.788v-4.463h.744v2.537h.263l.918-1.18h.875l-1.137 1.443zm2.319-1.007l.612.219c-.175.569-.7.919-1.269.875-.875 0-1.487-.569-1.487-1.619s.569-1.662 1.487-1.662c.7-.044 1.269.481 1.269 1.181v.175c0 .131 0 .262-.044.394h-1.969c0 .569.307.919.744.919.35.043.613-.175.657-.482zm-.088-.875v-.131a.613.613 0 00-.525-.613c-.394 0-.656.307-.7.788l1.225-.044zm3.325-1.225h.744l-1.138 3.238C65.8 33.694 65.45 34 64.838 34c-.175 0-.394-.044-.57-.131l.132-.569a.497.497 0 00.35.131c.263 0 .394-.131.569-.569l-1.138-3.237h.788l.744 2.362.787-2.406z" fill="#333E48"/></g></svg>