<svg xmlns="http://www.w3.org/2000/svg" width="40" height="40" viewBox="0 0 40 40"><path fill="#FF4A00" fill-rule="evenodd" d="M23.594 20.247a8.97 8.97 0 01-.576 3.166 8.994 8.994 0 01-3.168.577h-.013a8.992 8.992 0 01-3.166-.576 8.972 8.972 0 01-.577-3.167v-.014c0-1.114.205-2.181.576-3.166a8.964 8.964 0 013.167-.577h.013a8.95 8.95 0 013.168.577c.371.985.575 2.052.576 3.166v.014zm11.042-2.507H25.88l6.19-6.191a15.117 15.117 0 00-3.536-3.535l-6.19 6.19V5.45a15.071 15.071 0 00-2.492-.209h-.016c-.85 0-1.681.073-2.492.209v8.756l-6.191-6.192a14.979 14.979 0 00-1.915 1.62l-.003.003a15.03 15.03 0 00-1.618 1.913l6.192 6.191H5.053s-.209 1.645-.209 2.495v.01c0 .85.072 1.684.209 2.495h8.756L7.617 28.93a15.107 15.107 0 003.536 3.536l6.191-6.192v8.757c.81.135 1.641.207 2.49.208h.02c.849 0 1.68-.073 2.49-.208v-8.757l6.191 6.192a15.116 15.116 0 001.915-1.62h.002a15.146 15.146 0 001.619-1.916l-6.192-6.191h8.757c.136-.81.207-1.64.208-2.49v-.02c0-.85-.072-1.68-.208-2.49z"/></svg>