<svg width="56" height="40" xmlns="http://www.w3.org/2000/svg"><g fill="none" fill-rule="evenodd"><path fill="#2D8CFF" fill-rule="nonzero" d="M0 7h55.9v26H0z"/><g fill="#FFF"><path d="M24.3 16.934a4.313 4.313 0 00-3.067-1.267 4.33 4.33 0 00-3.065 1.267 4.342 4.342 0 000 6.132 4.342 4.342 0 006.131 0 4.342 4.342 0 000-6.132zm-1.225 4.908a2.59 2.59 0 01-3.672 0 2.59 2.59 0 010-3.673 2.59 2.59 0 013.672 0 2.609 2.609 0 010 3.673z"/><path d="M33.4 16.934a4.313 4.313 0 00-3.067-1.267 4.33 4.33 0 00-3.065 1.267 4.342 4.342 0 000 6.132 4.342 4.342 0 006.131 0 4.342 4.342 0 000-6.132zm-1.225 4.908a2.59 2.59 0 01-3.672 0 2.59 2.59 0 010-3.673 2.59 2.59 0 013.672 0 2.609 2.609 0 010 3.673zM10.4 24.312l.433.021h6.5l-.021-.433c-.054-.715-.564-1.235-1.279-1.278L15.6 22.6h-3.9l5.2-5.2-.022-.433a1.31 1.31 0 00-1.278-1.279l-.433-.021h-6.5l.021.433c.055.704.575 1.235 1.279 1.278l.433.022h3.9l-5.2 5.2.022.433a1.325 1.325 0 001.278 1.279zm29.662-6.045c.151.26.195.541.216.866l.022.434V22.6l.022.433a1.333 1.333 0 001.278 1.279l.433.021v-4.766l.022-.434c.022-.325.065-.617.217-.877.303-.52.856-.856 1.495-.856.639 0 1.202.347 1.506.867.151.26.195.552.205.866l.022.434V22.6l.022.433a1.325 1.325 0 001.278 1.279l.433.021v-5.2a3.47 3.47 0 00-6.067-2.297 3.47 3.47 0 00-4.538-.573c-.336-.38-1.095-.596-1.528-.596v8.666l.433-.021c.726-.044 1.246-.564 1.279-1.279l.021-.433v-3.033l.022-.434c.022-.325.065-.617.217-.866.303-.52.856-.867 1.495-.867.639 0 1.202.347 1.495.867z"/></g></g></svg>