<svg xmlns="http://www.w3.org/2000/svg" width="105" height="50" viewBox="0 0 105 50">
  <g fill="none" transform="translate(0 11)">
    <path fill="#18365E" d="M9.016,0.192 C8.9675559,0.0757341551 8.85395467,1.13686838e-14 8.728,1.13686838e-14 C8.60204533,1.13686838e-14 8.4884441,0.0757341551 8.44,0.192 C5.312,5.504 0,14.04 0,18.792 C0.14253824,23.4898192 3.99201889,27.2242729 8.692,27.2242729 C13.3919811,27.2242729 17.2414618,23.4898192 17.384,18.792 C17.384,13.776 11.568,4.664 9.016,0.192 Z"/>
    <polygon fill="#18365E" points="26.728 7.144 30.28 7.144 30.28 22.944 26.728 22.944"/>
    <polygon fill="#18365E" points="56.032 19.888 56.032 22.944 45.48 22.944 45.48 7.144 49.032 7.144 49.032 19.888"/>
    <path fill="#18365E" d="M104.096,15.032 C104.120558,16.2571395 103.903068,17.4750795 103.456,18.616 C103.059517,19.5906503 102.437083,20.4571223 101.64,21.144 C100.802494,21.837807 99.8299269,22.3499713 98.784,22.648 C97.5536126,22.9977989 96.2790505,23.1675608 95,23.152 C94.36,23.152 93.616,23.152 92.76,23.072 C91.9186999,23.0167099 91.0821154,22.9044526 90.256,22.736 L90.256,7.352 C91.1049486,7.19646426 91.9625057,7.09227509 92.824,7.04 C93.712,6.992 94.472,6.96 95.112,6.96 C96.3535734,6.94614061 97.5913601,7.09951853 98.792,7.416 C99.8307794,7.68730841 100.799247,8.17836225 101.632,8.856 C102.435883,9.52870162 103.062231,10.388557 103.456,11.36 C103.907186,12.5304322 104.124616,13.7779422 104.096,15.032 L104.096,15.032 Z M93.808,20.048 L94.392,20.048 L95.192,20.048 C96.6410755,20.1670061 98.0747118,19.6804387 99.152,18.704 C100.847462,16.505864 100.87036,13.4472748 99.208,11.224 C98.408,10.376 97.088,9.944 95.312,9.944 L94.56,9.944 C94.3138421,9.94949868 94.0681561,9.96819218 93.824,10 L93.808,20.048 Z"/>
    <polygon fill="#18365E" points="78.552 19.888 78.552 22.944 68 22.944 68 7.144 71.552 7.144 71.552 19.888"/>
    <polygon fill="#FFF" points="2.968 22.944 2.968 7.144 13.544 7.144 13.544 10.128 6.52 10.128 6.52 13.44 12.744 13.44 12.744 16.4 6.496 16.4 6.496 22.92"/>
  </g>
</svg>
