<svg xmlns="http://www.w3.org/2000/svg" width="149" height="50" viewBox="0 0 149 50">
  <g fill="none" transform="translate(0 11)">
    <path fill="#567" d="M6.39692308.290769231C7.26923077.290769231 8.01230769.42 8.62615385.678461538 9.24.936923077 9.72461538 1.26 10.1123077 1.68 10.5 2.1 10.7907692 2.58461538 10.9523077 3.10153846 11.1138462 3.65076923 11.2107692 4.2 11.2107692 4.74923077 11.2107692 5.29846154 11.1138462 5.84769231 10.9523077 6.39692308 10.7907692 6.94615385 10.5 7.39846154 10.1123077 7.81846154 9.72461538 8.23846154 9.24 8.56153846 8.62615385 8.82 8.01230769 9.07846154 7.26923077 9.20769231 6.39692308 9.20769231L3.16615385 9.20769231 3.16615385 14.2153846.0969230769 14.2153846.0969230769.290769231 6.39692308.290769231zM5.55692308 6.84923077C5.91230769 6.84923077 6.23538462 6.81692308 6.55846154 6.78461538 6.88153846 6.72 7.17230769 6.62307692 7.43076923 6.49384615 7.68923077 6.33230769 7.88307692 6.13846154 8.01230769 5.84769231 8.17384615 5.58923077 8.23846154 5.20153846 8.23846154 4.78153846 8.23846154 4.32923077 8.17384615 3.97384615 8.01230769 3.71538462 7.85076923 3.45692308 7.65692308 3.23076923 7.43076923 3.06923077 7.17230769 2.90769231 6.91384615 2.81076923 6.55846154 2.77846154 6.23538462 2.71384615 5.88 2.71384615 5.55692308 2.71384615L3.16615385 2.71384615 3.16615385 6.88153846 5.55692308 6.84923077 5.55692308 6.84923077zM12.6.290769231L15.3784615.290769231 15.3784615 2.58461538 12.6 2.58461538 12.6.290769231zM15.3784615 14.2153846L12.6 14.2153846 12.6 4.13538462 15.3784615 4.13538462 15.3784615 14.2153846zM20.1923077 4.13538462L20.1923077 5.52461538 20.2569231 5.52461538C20.6123077 4.94307692 21.0646154 4.52307692 21.6138462 4.23230769 22.1630769 3.97384615 22.7446154 3.84461538 23.3261538 3.84461538 24.0692308 3.84461538 24.6830769 3.94153846 25.1353846 4.13538462 25.5876923 4.32923077 25.9753846 4.62 26.2661538 4.97538462 26.5246154 5.33076923 26.7184615 5.78307692 26.8476923 6.26769231 26.9446154 6.78461538 27.0092308 7.36615385 27.0092308 7.98L27.0092308 14.2153846 24.2307692 14.2153846 24.2307692 8.52923077C24.2307692 7.68923077 24.1015385 7.07538462 23.8430769 6.65538462 23.5846154 6.23538462 23.1323077 6.04153846 22.4538462 6.04153846 21.7107692 6.04153846 21.1615385 6.26769231 20.8061538 6.72 20.4830769 7.17230769 20.2892308 7.91538462 20.2892308 8.94923077L20.2892308 14.2153846 17.5107692 14.2153846 17.5107692 4.13538462 20.1923077 4.13538462zM41.0953846.290769231C41.9676923.290769231 42.7107692.42 43.3246154.678461538 43.9384615.936923077 44.4230769 1.26 44.8107692 1.68 45.1984615 2.1 45.4892308 2.58461538 45.6507692 3.10153846 45.8123077 3.65076923 45.9092308 4.2 45.9092308 4.74923077 45.9092308 5.29846154 45.8123077 5.84769231 45.6507692 6.39692308 45.4892308 6.94615385 45.1984615 7.39846154 44.8107692 7.81846154 44.4230769 8.23846154 43.9384615 8.56153846 43.3246154 8.82 42.7107692 9.07846154 41.9676923 9.20769231 41.0953846 9.20769231L37.8646154 9.20769231 37.8646154 14.2153846 34.7953846 14.2153846 34.7953846.290769231 41.0953846.290769231zM40.2553846 6.84923077C40.6107692 6.84923077 40.9338462 6.81692308 41.2569231 6.78461538 41.58 6.72 41.8707692 6.62307692 42.1292308 6.49384615 42.3876923 6.33230769 42.5815385 6.13846154 42.7107692 5.84769231 42.8723077 5.58923077 42.9369231 5.20153846 42.9369231 4.78153846 42.9369231 4.32923077 42.8723077 3.97384615 42.7107692 3.71538462 42.5492308 3.45692308 42.3553846 3.23076923 42.1292308 3.06923077 41.8707692 2.90769231 41.6123077 2.81076923 41.2569231 2.77846154 40.9338462 2.71384615 40.5784615 2.71384615 40.2553846 2.71384615L37.8646154 2.71384615 37.8646154 6.88153846 40.2553846 6.84923077 40.2553846 6.84923077zM47.2661538 5.62153846C47.5569231 5.20153846 47.9123077 4.84615385 48.3646154 4.58769231 48.8169231 4.32923077 49.3015385 4.13538462 49.8507692 4.03846154 50.4 3.94153846 50.9492308 3.87692308 51.5307692 3.87692308 52.0476923 3.87692308 52.5646154 3.90923077 53.0815385 3.97384615 53.5984615 4.03846154 54.0830769 4.2 54.5030769 4.39384615 54.9230769 4.58769231 55.2784615 4.87846154 55.5692308 5.26615385 55.8276923 5.62153846 55.9892308 6.13846154 55.9892308 6.75230769L55.9892308 11.9861538C55.9892308 12.4384615 56.0215385 12.8907692 56.0538462 13.2784615 56.1184615 13.6984615 56.1830769 14.0215385 56.3123077 14.2153846L53.5015385 14.2153846C53.4369231 14.0538462 53.4046154 13.8923077 53.3723077 13.7307692 53.34 13.5692308 53.3076923 13.4076923 53.3076923 13.2461538 52.8553846 13.6984615 52.3384615 14.0215385 51.7569231 14.2153846 51.1430769 14.4092308 50.5615385 14.4738462 49.9153846 14.4738462 49.4307692 14.4738462 48.9784615 14.4092308 48.5584615 14.3123077 48.1384615 14.1830769 47.7830769 14.0215385 47.46 13.7630769 47.1369231 13.5046154 46.9107692 13.2138462 46.7169231 12.8261538 46.5553846 12.4384615 46.4584615 11.9861538 46.4584615 11.4692308 46.4584615 10.8876923 46.5553846 10.4353846 46.7492308 10.0476923 46.9430769 9.69230769 47.2015385 9.36923077 47.5246154 9.17538462 47.8476923 8.94923077 48.2030769 8.78769231 48.6230769 8.69076923 49.0430769 8.59384615 49.4307692 8.49692308 49.8507692 8.43230769 50.2707692 8.36769231 50.6907692 8.30307692 51.0784615 8.27076923 51.4661538 8.23846154 51.8538462 8.17384615 52.1446154 8.10923077 52.4676923 8.04461538 52.6938462 7.91538462 52.8876923 7.75384615 53.0815385 7.59230769 53.1461538 7.39846154 53.1461538 7.10769231 53.1461538 6.81692308 53.1138462 6.55846154 52.9846154 6.39692308 52.8553846 6.23538462 52.7584615 6.07384615 52.5969231 5.97692308 52.4353846 5.88 52.2415385 5.81538462 52.0153846 5.78307692 51.7892308 5.75076923 51.5630769 5.71846154 51.3369231 5.71846154 50.7876923 5.71846154 50.3676923 5.84769231 50.0446154 6.07384615 49.7215385 6.3 49.56 6.68769231 49.4953846 7.23692308L46.7169231 7.23692308C46.8138462 6.59076923 46.9753846 6.04153846 47.2661538 5.62153846M52.7261538 9.53076923C52.5646154 9.59538462 52.3707692 9.62769231 52.1446154 9.69230769 51.9507692 9.72461538 51.7246154 9.75692308 51.4984615 9.78923077 51.2723077 9.82153846 51.0461538 9.85384615 50.82 9.88615385 50.6261538 9.91846154 50.4 9.98307692 50.2061538 10.0476923 50.0123077 10.1123077 49.8184615 10.2092308 49.6892308 10.3061538 49.56 10.4030769 49.4307692 10.5646154 49.3338462 10.7261538 49.2369231 10.8876923 49.2046154 11.1138462 49.2046154 11.3723077 49.2046154 11.6307692 49.2369231 11.8246154 49.3338462 11.9861538 49.4307692 12.1476923 49.56 12.2769231 49.6892308 12.3738462 49.8507692 12.4707692 50.0123077 12.5353846 50.2384615 12.5676923 50.4323077 12.6 50.6584615 12.6323077 50.8846154 12.6323077 51.4338462 12.6323077 51.8538462 12.5353846 52.1446154 12.3738462 52.4353846 12.18 52.6615385 11.9861538 52.8230769 11.7276923 52.9523077 11.4692308 53.0492308 11.2107692 53.0815385 10.9523077 53.1138462 10.6938462 53.1138462 10.5 53.1138462 10.3384615L53.1138462 9.30461538C53.0492308 9.40153846 52.92 9.46615385 52.7261538 9.53076923M61.8046154 17.22C61.2876923 17.5753846 60.5446154 17.7369231 59.5753846 17.7369231 59.2846154 17.7369231 58.9938462 17.7369231 58.7353846 17.7046154 58.4446154 17.6723077 58.1861538 17.6723077 57.8953846 17.64L57.8953846 15.3461538C58.1538462 15.3784615 58.4123077 15.4107692 58.7030769 15.4107692 58.9615385 15.4430769 59.2523077 15.4430769 59.5107692 15.4430769 59.8661538 15.4107692 60.1569231 15.2492308 60.3184615 15.0230769 60.48 14.7646154 60.5769231 14.5061538 60.5769231 14.2153846 60.5769231 13.9892308 60.5446154 13.7953846 60.4476923 13.6015385L56.9261538 4.13538462 59.8661538 4.13538462 62.16 11.0492308 62.1923077 11.0492308 64.3892308 4.13538462 67.2646154 4.13538462 63.0646154 15.4753846C62.7738462 16.2830769 62.3538462 16.8646154 61.8046154 17.22M70.9153846 4.13538462L70.9153846 5.49230769 70.9476923 5.49230769C71.3030769 4.97538462 71.7553846 4.55538462 72.2723077 4.29692308 72.7892308 4.00615385 73.3707692 3.87692308 74.0492308 3.87692308 74.6953846 3.87692308 75.2769231 4.00615385 75.7938462 4.23230769 76.3107692 4.49076923 76.7307692 4.91076923 76.9892308 5.52461538 77.28 5.07230769 77.7 4.68461538 78.2169231 4.36153846 78.7338462 4.03846154 79.3476923 3.84461538 80.0261538 3.84461538 80.5430769 3.84461538 81.06 3.90923077 81.5123077 4.03846154 81.9646154 4.16769231 82.3523077 4.36153846 82.6753846 4.65230769 82.9984615 4.94307692 83.2569231 5.29846154 83.4507692 5.78307692 83.6446154 6.23538462 83.7092308 6.78461538 83.7092308 7.46307692L83.7092308 14.2153846 80.9307692 14.2153846 80.9307692 8.49692308C80.9307692 8.17384615 80.9307692 7.85076923 80.8984615 7.52769231 80.8661538 7.23692308 80.8015385 6.97846154 80.6723077 6.75230769 80.5430769 6.52615385 80.3815385 6.36461538 80.1553846 6.23538462 79.9292308 6.10615385 79.6061538 6.04153846 79.2184615 6.04153846 78.8307692 6.04153846 78.5076923 6.10615385 78.2815385 6.26769231 78.0553846 6.42923077 77.8615385 6.62307692 77.7 6.84923077 77.5707692 7.07538462 77.4738462 7.36615385 77.4415385 7.65692308 77.4092308 7.94769231 77.3769231 8.27076923 77.3769231 8.59384615L77.3769231 14.2153846 74.5984615 14.2153846 74.5984615 8.56153846C74.5984615 8.27076923 74.5984615 7.98 74.5661538 7.68923077 74.5661538 7.39846154 74.5015385 7.14 74.4046154 6.88153846 74.3076923 6.62307692 74.1461538 6.42923077 73.92 6.3 73.6938462 6.13846154 73.3707692 6.07384615 72.9184615 6.07384615 72.7892308 6.07384615 72.6276923 6.10615385 72.4015385 6.17076923 72.1753846 6.23538462 71.9815385 6.33230769 71.7876923 6.49384615 71.5938462 6.65538462 71.4 6.88153846 71.2707692 7.20461538 71.1415385 7.52769231 71.0446154 7.91538462 71.0446154 8.4L71.0446154 14.2153846 68.2661538 14.2153846 68.2661538 4.13538462 70.9153846 4.13538462zM88.62 11.7923077C89.04 12.18 89.6215385 12.4061538 90.4292308 12.4061538 90.9784615 12.4061538 91.4630769 12.2769231 91.8830769 11.9861538 92.2707692 11.6953846 92.5292308 11.4046154 92.6261538 11.1138462L95.0492308 11.1138462C94.6615385 12.3092308 94.0476923 13.1815385 93.24 13.6984615 92.4323077 14.2153846 91.4630769 14.4738462 90.3 14.4738462 89.4923077 14.4738462 88.7815385 14.3446154 88.1676923 14.0861538 87.5215385 13.8276923 87.0046154 13.4723077 86.5523077 13.02 86.1 12.5676923 85.7769231 11.9861538 85.5184615 11.34 85.2923077 10.6938462 85.1630769 9.98307692 85.1630769 9.20769231 85.1630769 8.46461538 85.2923077 7.75384615 85.5184615 7.10769231 85.7769231 6.46153846 86.1323077 5.88 86.5846154 5.42769231 87.0369231 4.94307692 87.5861538 4.58769231 88.2 4.29692308 88.8138462 4.00615385 89.5246154 3.87692308 90.3 3.87692308 91.1723077 3.87692308 91.9153846 4.03846154 92.5292308 4.36153846 93.1753846 4.68461538 93.6923077 5.13692308 94.1123077 5.68615385 94.5323077 6.23538462 94.8230769 6.88153846 94.9846154 7.59230769 95.1784615 8.30307692 95.2430769 9.04615385 95.1784615 9.82153846L87.9092308 9.82153846C87.9738462 10.7584615 88.2 11.4046154 88.62 11.7923077M91.7215385 6.49384615C91.3984615 6.13846154 90.8815385 5.94461538 90.2030769 5.94461538 89.7507692 5.94461538 89.3953846 6.00923077 89.1046154 6.17076923 88.8138462 6.33230769 88.5876923 6.49384615 88.3938462 6.72 88.2323077 6.94615385 88.1030769 7.17230769 88.0384615 7.43076923 87.9738462 7.68923077 87.9092308 7.88307692 87.9092308 8.10923077L92.4 8.10923077C92.3030769 7.39846154 92.0769231 6.84923077 91.7215385 6.49384615M99.3784615 4.13538462L99.3784615 5.52461538 99.4430769 5.52461538C99.7984615 4.94307692 100.250769 4.52307692 100.8 4.23230769 101.349231 3.97384615 101.930769 3.84461538 102.512308 3.84461538 103.255385 3.84461538 103.869231 3.94153846 104.321538 4.13538462 104.806154 4.32923077 105.161538 4.62 105.452308 4.97538462 105.710769 5.33076923 105.904615 5.78307692 106.033846 6.26769231 106.130769 6.78461538 106.195385 7.36615385 106.195385 7.98L106.195385 14.2153846 103.416923 14.2153846 103.416923 8.52923077C103.416923 7.68923077 103.287692 7.07538462 103.029231 6.65538462 102.770769 6.23538462 102.318462 6.04153846 101.64 6.04153846 100.896923 6.04153846 100.347692 6.26769231 99.9923077 6.72 99.6692308 7.17230769 99.4753846 7.91538462 99.4753846 8.94923077L99.4753846 14.2153846 96.6969231 14.2153846 96.6969231 4.13538462 99.3784615 4.13538462zM113.852308 4.13538462L113.852308 5.97692308 111.816923 5.97692308 111.816923 10.9846154C111.816923 11.4369231 111.881538 11.76 112.043077 11.9215385 112.204615 12.0830769 112.527692 12.1476923 112.98 12.1476923 113.141538 12.1476923 113.270769 12.1476923 113.432308 12.1153846 113.561538 12.1153846 113.723077 12.0830769 113.852308 12.0507692L113.852308 14.1830769C113.626154 14.2153846 113.367692 14.2476923 113.076923 14.2476923 112.786154 14.2476923 112.495385 14.28 112.236923 14.28 111.816923 14.28 111.396923 14.2476923 111.009231 14.1830769 110.621538 14.1184615 110.298462 14.0215385 110.007692 13.8276923 109.716923 13.6338462 109.490769 13.4076923 109.329231 13.1169231 109.167692 12.7938462 109.070769 12.4061538 109.070769 11.8892308L109.070769 5.97692308 107.390769 5.97692308 107.390769 4.13538462 109.070769 4.13538462 109.070769 1.09846154 111.849231 1.09846154 111.849231 4.13538462 113.852308 4.13538462zM117.503077 11.6953846C117.632308 11.9215385 117.793846 12.0830769 117.987692 12.2123077 118.181538 12.3415385 118.407692 12.4384615 118.666154 12.5030769 118.924615 12.5676923 119.183077 12.6 119.441538 12.6 119.635385 12.6 119.829231 12.5676923 120.055385 12.5353846 120.281538 12.5030769 120.475385 12.4061538 120.636923 12.3092308 120.798462 12.2123077 120.96 12.0830769 121.089231 11.9215385 121.218462 11.76 121.250769 11.5661538 121.250769 11.3076923 121.250769 10.8876923 120.96 10.5646154 120.410769 10.3707692 119.861538 10.1769231 119.086154 9.95076923 118.084615 9.75692308 117.696923 9.66 117.276923 9.56307692 116.889231 9.43384615 116.501538 9.30461538 116.178462 9.14307692 115.855385 8.94923077 115.564615 8.75538462 115.306154 8.49692308 115.144615 8.17384615 114.950769 7.88307692 114.886154 7.49538462 114.886154 7.04307692 114.886154 6.39692308 115.015385 5.84769231 115.273846 5.42769231 115.532308 5.00769231 115.855385 4.68461538 116.275385 4.45846154 116.695385 4.23230769 117.147692 4.03846154 117.664615 3.94153846 118.181538 3.84461538 118.730769 3.78 119.28 3.78 119.829231 3.78 120.346154 3.84461538 120.863077 3.94153846 121.38 4.03846154 121.832308 4.23230769 122.252308 4.45846154 122.64 4.71692308 122.995385 5.04 123.253846 5.42769231 123.512308 5.84769231 123.673846 6.36461538 123.738462 6.97846154L121.121538 6.97846154C121.089231 6.46153846 120.895385 6.07384615 120.507692 5.91230769 120.152308 5.71846154 119.7 5.62153846 119.215385 5.62153846 119.053846 5.62153846 118.892308 5.62153846 118.698462 5.65384615 118.504615 5.68615385 118.343077 5.71846154 118.213846 5.78307692 118.052308 5.84769231 117.923077 5.94461538 117.826154 6.07384615 117.729231 6.20307692 117.664615 6.36461538 117.664615 6.55846154 117.664615 6.81692308 117.761538 7.01076923 117.923077 7.17230769 118.116923 7.33384615 118.343077 7.46307692 118.633846 7.56 118.924615 7.65692308 119.247692 7.75384615 119.635385 7.81846154 120.023077 7.88307692 120.410769 7.98 120.798462 8.07692308 121.186154 8.17384615 121.606154 8.27076923 121.993846 8.4 122.381538 8.52923077 122.704615 8.69076923 123.027692 8.91692308 123.318462 9.14307692 123.576923 9.40153846 123.738462 9.72461538 123.932308 10.0476923 123.996923 10.4353846 123.996923 10.92 123.996923 11.5984615 123.867692 12.1476923 123.609231 12.6 123.350769 13.0523077 122.995385 13.4076923 122.575385 13.6661538 122.155385 13.9246154 121.670769 14.1184615 121.089231 14.2476923 120.54 14.3446154 119.958462 14.4092308 119.409231 14.4092308 118.827692 14.4092308 118.246154 14.3446154 117.696923 14.2476923 117.147692 14.1184615 116.630769 13.9246154 116.210769 13.6661538 115.790769 13.4076923 115.403077 13.02 115.144615 12.6 114.853846 12.1476923 114.724615 11.5984615 114.692308 10.92L117.309231 10.92C117.341538 11.2430769 117.373846 11.5015385 117.503077 11.6953846" transform="translate(24.554 6.462)"/>
    <path fill="#C11" d="M8.59384615,5.52461538 C10.2738462,5.52461538 11.6307692,6.88153846 11.6307692,8.56153846 C11.6307692,9.82153846 11.0169231,11.7923077 10.1123077,13.9569231 C10.8876923,15.8307692 11.8892308,17.8984615 12.8907692,19.8369231 C15.0230769,15.6692308 17.1876923,10.92 17.1876923,8.56153846 C17.1876923,3.84461538 13.3430769,0 8.62615385,0 C3.90923077,0 0.0323076923,3.81230769 0.0323076923,8.56153846 C0.0323076923,13.0846154 7.85076923,26.3307692 8.59384615,27.5584615 C8.85230769,27.1061538 9.98307692,25.2 11.3723077,22.68 C8.85230769,18.0923077 5.55692308,11.5015385 5.55692308,8.56153846 C5.55692308,6.88153846 6.91384615,5.52461538 8.59384615,5.52461538 Z"/>
  </g>
</svg>
