<?xml version="1.0" encoding="UTF-8" standalone="no"?>
<svg width="42px" height="42px" viewBox="0 0 42 42" version="1.1" xmlns="http://www.w3.org/2000/svg" xmlns:xlink="http://www.w3.org/1999/xlink" xmlns:sketch="http://www.bohemiancoding.com/sketch/ns">
    <!-- Generator: Sketch 3.4.2 (15855) - http://www.bohemiancoding.com/sketch -->
    <title>features-menu-data</title>
    <desc>Created with Sketch.</desc>
    <defs></defs>
    <g id="Campaigns" stroke="none" stroke-width="1" fill="none" fill-rule="evenodd" sketch:type="MSPage">
        <g sketch:type="MSArtboardGroup" transform="translate(-1047.000000, -151.000000)" id="Menu">
            <g sketch:type="MSLayerGroup" transform="translate(208.000000, 137.000000)">
                <g id="features-menu-data" sketch:type="MSShapeGroup">
                    <g transform="translate(839.000000, 14.000000)">
                        <circle id="Oval-290-Copy-2" fill="#6FD350" cx="21" cy="21" r="21"></circle>
                        <path d="M21.0461538,14.6169437 C18.0686541,14.7713365 15.5981194,16.8421023 14.8443769,19.6194138 C14.0335259,19.6735882 13.3706186,20.2681828 13.2126988,21.0461538 L10.6789261,21.0461538 C10.8637151,15.4040488 15.4040488,10.8637151 21.0461538,10.6789261 L21.0461538,14.6169437 Z M21.7615385,14.6169437 C22.5576289,14.6582235 23.3174783,14.8364973 24.0179633,15.1286414 L25.9960237,11.7025402 C24.7052896,11.0904812 23.2729454,10.7284274 21.7615385,10.6789261 L21.7615385,14.6169437 Z M21.0461538,28.1907486 C18.0686541,28.0363558 15.5981194,25.96559 14.8443769,23.1882785 C14.0335259,23.1341041 13.3706186,22.5395095 13.2126988,21.7615385 L10.6789261,21.7615385 C10.8637151,27.4036435 15.4040488,31.9439772 21.0461538,32.1287662 L21.0461538,28.1907486 Z M21.7615385,28.1907486 C22.8547903,28.13406 23.8796958,27.8190164 24.7763685,27.3055041 C25.100979,27.6367686 25.5534095,27.8423077 26.0538462,27.8423077 C27.0415862,27.8423077 27.8423077,27.0415862 27.8423077,26.0538462 C27.8423077,25.5534095 27.6367686,25.100979 27.3055041,24.7763685 C27.8190164,23.8796958 28.13406,22.8547903 28.1907486,21.7615385 L32.1287662,21.7615385 C31.9439772,27.4036435 27.4036435,31.9439772 21.7615385,32.1287662 L21.7615385,28.1907486 Z M21.7615385,27.4742696 C22.7117268,27.4191521 23.6033739,27.1458574 24.3871271,26.7037381 C24.3085235,26.5022993 24.2653846,26.2831105 24.2653846,26.0538462 C24.2653846,25.0661061 25.0661061,24.2653846 26.0538462,24.2653846 C26.2831105,24.2653846 26.5022993,24.3085235 26.7037381,24.3871271 C27.1458574,23.6033739 27.4191521,22.7117268 27.4742696,21.7615385 L22.7895399,21.7615385 C22.6601346,22.2643134 22.2643134,22.6601346 21.7615385,22.7895399 L21.7615385,27.4742696 Z M21.0461538,27.4742696 C18.4313334,27.322592 16.2598415,25.5186713 15.560188,23.0910175 C16.1462152,22.8844184 16.5922988,22.381136 16.7180704,21.7615385 L20.0181524,21.7615385 C20.1475577,22.2643134 20.5433789,22.6601346 21.0461538,22.7895399 L21.0461538,27.4742696 Z M21.0461538,15.3334227 C18.4313334,15.4851004 16.2598415,17.289021 15.560188,19.7166748 C16.1462152,19.9232739 16.5922988,20.4265563 16.7180704,21.0461538 L20.0181524,21.0461538 C20.1475577,20.5433789 20.5433789,20.1475577 21.0461538,20.0181524 L21.0461538,15.3334227 Z M21.7615385,15.3334227 C22.4277566,15.3720679 23.0651959,15.5179696 23.656845,15.7541165 L21.7615385,19.0368838 L21.7615385,15.3334204 Z M28.1907486,21.0461538 C28.0849583,19.005965 27.0794274,17.203797 25.5633617,16.0288559 L27.5423669,12.6011183 C30.2274227,14.477017 32.0142632,17.5500696 32.1287662,21.0461538 L28.1907486,21.0461538 Z M27.4742696,21.0461538 C27.3712785,19.2706561 26.5065057,17.6995589 25.2019421,16.654853 L22.7463718,20.9080255 C22.7630045,20.9530458 22.7774373,20.9991321 22.7895399,21.0461538 L27.4742696,21.0461538 Z M21.4038462,33.9230769 C28.3180264,33.9230769 33.9230769,28.3180264 33.9230769,21.4038462 C33.9230769,14.4896659 28.3180264,8.88461538 21.4038462,8.88461538 C14.4896659,8.88461538 8.88461538,14.4896659 8.88461538,21.4038462 C8.88461538,28.3180264 14.4896659,33.9230769 21.4038462,33.9230769 Z" id="Oval-9-Copy-2" fill="#FFFFFF"></path>
                    </g>
                </g>
            </g>
        </g>
    </g>
</svg>