<?xml version="1.0" encoding="UTF-8" standalone="no"?>
<svg width="42px" height="42px" viewBox="0 0 42 42" version="1.1" xmlns="http://www.w3.org/2000/svg" xmlns:xlink="http://www.w3.org/1999/xlink" xmlns:sketch="http://www.bohemiancoding.com/sketch/ns">
    <!-- Generator: Sketch 3.4.2 (15855) - http://www.bohemiancoding.com/sketch -->
    <title>features-menu-people</title>
    <desc>Created with Sketch.</desc>
    <defs></defs>
    <g id="Campaigns" stroke="none" stroke-width="1" fill="none" fill-rule="evenodd" sketch:type="MSPage">
        <g sketch:type="MSArtboardGroup" transform="translate(-697.000000, -142.000000)" id="Menu">
            <g sketch:type="MSLayerGroup" transform="translate(208.000000, 137.000000)">
                <g id="features-menu-people" sketch:type="MSShapeGroup">
                    <g transform="translate(489.000000, 5.000000)">
                        <circle id="Oval-290-Copy" fill="#FFC111" cx="21" cy="21" r="21"></circle>
                        <path d="M13.3439085,29.7371795 L13.3439085,29.7371795 L28.6560065,29.7371795 C28.803561,29.7371795 28.9232933,29.6136343 28.9237065,29.4609544 C28.9272023,28.169199 28.8730597,26.2214326 28.6698117,25.7533808 C28.4166721,25.1704355 27.9446167,24.811658 27.0857709,24.6065027 L26.99294,24.584242 C26.9427544,24.5722484 26.9427544,24.5722484 26.912763,24.5650777 C26.9127437,24.5650731 26.9127437,24.5650731 26.9127242,24.5650684 C26.8834542,24.5580671 26.8834542,24.5580671 26.8352181,24.5465242 C25.5586073,24.2408255 24.9572957,24.0635566 24.3886293,23.8101577 C23.6937789,23.5005309 23.2316854,23.1618074 22.9773349,22.5843177 C22.683302,21.9163658 22.8123302,21.3294631 23.1721151,20.6264409 C24.8199098,17.4056273 25.1094585,14.7963256 24.1364101,13.1191415 C23.5194621,12.0560288 22.40855,11.4551282 20.9997348,11.4551282 C19.579918,11.4551282 18.4600856,12.0659655 17.8397561,13.1469418 C16.8788035,14.821395 17.1853576,17.4900765 18.8259067,20.6218762 C19.0136418,20.9803683 19.1339932,21.3282843 19.1687312,21.6804088 C19.1985978,21.9831542 19.1647688,22.2768451 19.0342336,22.5769013 C18.7822266,23.1562925 18.3238881,23.4962493 17.6353903,23.8048208 C17.0719749,24.0573328 16.4771801,24.2328293 15.2107879,24.5356053 C15.1643415,24.5467028 15.1643415,24.5467028 15.1362063,24.5534223 C15.1361882,24.5534266 15.1361882,24.5534266 15.1361699,24.553431 C15.1077995,24.5602037 15.1077995,24.5602037 15.0619057,24.5711544 L14.9119519,24.6070805 C13.3383909,24.9828531 13.0697878,26.9262798 13.0762155,29.1056147 L13.0762074,29.4601787 C13.0762074,29.613162 13.1960612,29.7371795 13.3439085,29.7371795 L13.3439085,29.7371795 Z" id="Shape" stroke="#FFFFFF" stroke-width="1.61538462"></path>
                    </g>
                </g>
            </g>
        </g>
    </g>
</svg>