<svg xmlns="http://www.w3.org/2000/svg" width="1025" height="269" viewBox="0 0 1025 269"><g fill="none" fill-rule="evenodd"><g transform="rotate(39 -126.77 68.302)"><rect width="21" height="21" x=".252" y="3.689" fill="#01B2D0" opacity=".1" rx="3"/><rect width="19" height="18" x="3.416" y="1.506" stroke="#01B2D0" stroke-width="2" rx="3"/></g><path fill="#6FD350" d="M114.935 242.016l18.91 5.846a4 4 0 011.743 6.55l-11.759 12.61a4 4 0 01-6.655-1.284l-7.15-18.455a4 4 0 014.91-5.267z" opacity=".2"/><path stroke="#6FD350" stroke-width="2" d="M115.064 233.494a3 3 0 00-3.684 3.95l7.151 18.456a3 3 0 004.991.962l11.76-12.61a3 3 0 00-1.309-4.912l-18.91-5.846z"/><g transform="rotate(-35 517.541 -1492.927)"><ellipse cx="37.636" cy="28.36" stroke="#FFC111" stroke-width="2" rx="27" ry="26.5"/><ellipse cx="28.623" cy="34.257" fill="#FFC111" opacity=".2" rx="28" ry="27.5"/></g></g></svg>