<svg xmlns="http://www.w3.org/2000/svg" width="1108" height="440" viewBox="0 0 1108 440"><g fill="none" fill-rule="evenodd"><g transform="rotate(39 -82.628 1596.146)"><rect width="21" height="21" x=".252" y="3.689" fill="#01B2D0" opacity=".1" rx="3"/><rect width="19" height="18" x="3.416" y="1.506" stroke="#01B2D0" stroke-width="2" rx="3"/></g><path fill="#6FD350" d="M1101.122 93.858l-19.748 1.32a4 4 0 0 1-3.976-5.49l6.46-15.986a4 4 0 0 1 6.672-1.188l13.29 14.668a4 4 0 0 1-2.698 6.676z" opacity=".2"/><path stroke="#6FD350" stroke-width="2" d="M1104.056 101.86a3 3 0 0 0 2.023-5.007l-13.29-14.667a3 3 0 0 0-5.004.89l-6.46 15.986a3 3 0 0 0 2.982 4.118l19.749-1.32z"/><g transform="rotate(-35 33.313 35.106)"><ellipse cx="34.716" cy="25.583" stroke="#FFC111" stroke-width="2" rx="25" ry="24.5"/><ellipse cx="26.523" cy="32.054" fill="#FFC111" opacity=".2" rx="26" ry="25.5"/></g></g></svg>