<svg xmlns="http://www.w3.org/2000/svg" width="573" height="443" viewBox="0 0 573 443"><g fill="none" fill-rule="evenodd"><g transform="rotate(-35 711.447 -718.887)"><ellipse cx="16.174" cy="12.075" stroke="#FFC111" stroke-width="2" rx="10.5" ry="11"/><ellipse cx="12.487" cy="15.597" fill="#FFC111" opacity=".2" rx="11.5" ry="12"/></g><g transform="rotate(39 -475.312 476.094)"><rect width="24" height="24" x=".391" y="5.988" fill="#01B2D0" opacity=".1" rx="3"/><rect width="22" height="22" x="4.796" y="1.657" stroke="#01B2D0" stroke-width="2" rx="3"/></g><path fill="#6FD350" d="M51.943 43.804l-46.87 3.742a4 4 0 0 1-4.027-5.485L16.8 3.067a4 4 0 0 1 6.707-1.148l31.117 35.25a4 4 0 0 1-2.68 6.635z" opacity=".2"/><path stroke="#6FD350" stroke-width="2" d="M56.864 58.807a3 3 0 0 0 2.01-4.976l-31.116-35.25a3 3 0 0 0-5.03.86L6.972 58.436a3 3 0 0 0 3.02 4.115l46.87-3.743z"/></g></svg>