<svg xmlns="http://www.w3.org/2000/svg" width="573" height="443" viewBox="0 0 573 443">
  <g fill="none" fill-rule="evenodd" transform="translate(-7.515 -4.963)">
    <g transform="rotate(-35 723.075 -728.323)">
      <ellipse cx="16.174" cy="12.075" stroke="#FFC111" stroke-width="2" rx="10.5" ry="11"/>
      <ellipse cx="12.487" cy="15.597" fill="#FFC111" opacity=".2" rx="11.5" ry="12"/>
    </g>
    <g transform="rotate(39 -478.562 489.186)">
      <rect width="24" height="24" x=".391" y="5.988" fill="#01B2D0" opacity=".1" rx="3"/>
      <rect width="22" height="22" x="4.796" y="1.657" stroke="#01B2D0" stroke-width="2" rx="3"/>
    </g>
    <g transform="rotate(112 35.453 42.873)">
      <path fill="#6FD350" d="M31.925303,18.4078284 L52.9531671,60.4635565 C53.9411241,62.4394705 53.1402267,64.8421627 51.1643127,65.8301196 C50.6088909,66.1078305 49.9964387,66.2524109 49.3754583,66.2524109 L7.3197302,66.2524109 C5.1105912,66.2524109 3.3197302,64.4615499 3.3197302,62.2524109 C3.3197302,61.6314305 3.46431057,61.0189782 3.74202144,60.4635565 L24.7698855,18.4078284 C25.7578425,16.4319144 28.1605346,15.631017 30.1364486,16.618974 C30.9105582,17.0060288 31.5382482,17.6337188 31.925303,18.4078284 Z" opacity=".2"/>
      <path stroke="#6FD350" stroke-width="2" d="M43.9927845,8.22541724 C43.7024934,7.64483503 43.2317259,7.17406756 42.6511437,6.88377645 C41.1692082,6.14280871 39.3671891,6.74348175 38.6262214,8.22541724 L17.5983573,50.2811453 C17.3900742,50.6977116 17.2816389,51.1570508 17.2816389,51.6227861 C17.2816389,53.2796404 18.6247847,54.6227861 20.2816389,54.6227861 L62.337367,54.6227861 C62.8031023,54.6227861 63.2624415,54.5143508 63.6790078,54.3060677 C65.1609433,53.5650999 65.7616163,51.7630808 65.0206486,50.2811453 L43.9927845,8.22541724 Z"/>
    </g>
  </g>
</svg>
