<svg xmlns="http://www.w3.org/2000/svg" xmlns:xlink="http://www.w3.org/1999/xlink" width="362" height="454" viewBox="0 0 362 454"><defs><path id="b" d="M12.82 0h304.36c4.458 0 6.075.464 7.704 1.336a9.086 9.086 0 0 1 3.78 3.78c.872 1.63 1.336 3.246 1.336 7.703v396.362c0 4.457-.464 6.074-1.336 7.703a9.086 9.086 0 0 1-3.78 3.78c-1.63.872-3.246 1.336-7.703 1.336H12.819c-4.457 0-6.074-.464-7.703-1.336a9.086 9.086 0 0 1-3.78-3.78C.464 415.254 0 413.638 0 409.181V12.819c0-4.457.464-6.074 1.336-7.703a9.086 9.086 0 0 1 3.78-3.78C6.746.464 8.362 0 12.819 0z"/><filter id="a" width="116.1%" height="112.6%" x="-8%" y="-5.3%" filterUnits="objectBoundingBox"><feMorphology in="SourceAlpha" operator="dilate" radius=".5" result="shadowSpreadOuter1"/><feOffset dy="4" in="shadowSpreadOuter1" result="shadowOffsetOuter1"/><feGaussianBlur in="shadowOffsetOuter1" result="shadowBlurOuter1" stdDeviation="8"/><feComposite in="shadowBlurOuter1" in2="SourceAlpha" operator="out" result="shadowBlurOuter1"/><feColorMatrix in="shadowBlurOuter1" values="0 0 0 0 0 0 0 0 0 0 0 0 0 0 0 0 0 0 0.12 0"/></filter></defs><g fill="none" fill-rule="evenodd" transform="translate(16 12)"><use fill="#000" filter="url(#a)" xlink:href="#b"/><use fill="#FFF" stroke="#8D8D8D" stroke-opacity=".24" xlink:href="#b"/><path fill="#F4F4F4" d="M27 24h110a3 3 0 0 1 0 6H27a3 3 0 0 1 0-6z"/><path fill="#D8D8D8" d="M24 90h282v1H24z"/><path fill="#F4F4F4" d="M193 24h110a3 3 0 0 1 0 6H193a3 3 0 0 1 0-6zM27 42h84a3 3 0 0 1 0 6H27a3 3 0 0 1 0-6zm0 18h74a3 3 0 0 1 0 6H27a3 3 0 0 1 0-6zm88 0h18a3 3 0 0 1 0 6h-18a3 3 0 0 1 0-6z"/><text fill="#384254" font-family="ProximaNova-Semibold, Proxima Nova" font-size="14" font-weight="500"><tspan x="24" y="129">Hi {{user.name}!</tspan></text><path fill="#F4F4F4" d="M27 146h146a3 3 0 0 1 0 6H27a3 3 0 0 1 0-6zm160 0h116a3 3 0 0 1 0 6H187a3 3 0 0 1 0-6zM27 164h216a3 3 0 0 1 0 6H27a3 3 0 0 1 0-6zm0 18h236a3 3 0 0 1 0 6H27a3 3 0 0 1 0-6zm0 18h34a3 3 0 0 1 0 6H27a3 3 0 0 1 0-6zm48 0h74a3 3 0 0 1 0 6H75a3 3 0 0 1 0-6zm88 0h114a3 3 0 0 1 0 6H163a3 3 0 0 1 0-6zM27 218h146a3 3 0 0 1 0 6H27a3 3 0 0 1 0-6zm0 30h34a3 3 0 0 1 0 6H27a3 3 0 0 1 0-6zm48 0h74a3 3 0 0 1 0 6H75a3 3 0 0 1 0-6z"/><g transform="translate(24 278)"><rect width="88" height="120" fill="#F4F4F4" rx="4"/><rect width="88" height="120" x="97" fill="#F4F4F4" rx="4"/><rect width="88" height="120" x="194" fill="#F4F4F4" rx="4"/><circle cx="44" cy="60" r="20" fill="#01B2D0"/><path fill="#F15242" d="M125 44h32v32h-32z"/><path fill="#FFC111" d="M238.5 43L256 78h-35z"/></g></g></svg>