<svg xmlns="http://www.w3.org/2000/svg" xmlns:xlink="http://www.w3.org/1999/xlink" width="312" height="412" viewBox="0 0 312 412">
  <defs>
    <path id="personalize-emails-to-improve-customer-engagement-2-b" d="M12.819426,-5.17920154e-16 L267.180574,5.17920154e-16 C271.638168,-3.00926524e-16 273.254599,0.464128056 274.884229,1.33566352 C276.513858,2.20719898 277.792801,3.48614185 278.664336,5.11577148 C279.535872,6.74540111 280,8.3618323 280,12.819426 L280,367.180574 C280,371.638168 279.535872,373.254599 278.664336,374.884229 C277.792801,376.513858 276.513858,377.792801 274.884229,378.664336 C273.254599,379.535872 271.638168,380 267.180574,380 L12.819426,380 C8.3618323,380 6.74540111,379.535872 5.11577148,378.664336 C3.48614185,377.792801 2.20719898,376.513858 1.33566352,374.884229 C0.464128056,373.254599 2.00617683e-16,371.638168 -3.45280103e-16,367.180574 L3.45280103e-16,12.819426 C-2.00617683e-16,8.3618323 0.464128056,6.74540111 1.33566352,5.11577148 C2.20719898,3.48614185 3.48614185,2.20719898 5.11577148,1.33566352 C6.74540111,0.464128056 8.3618323,3.00926524e-16 12.819426,-5.17920154e-16 Z"/>
    <filter id="personalize-emails-to-improve-customer-engagement-2-a" width="118.9%" height="113.9%" x="-9.5%" y="-5.9%" filterUnits="objectBoundingBox">
      <feMorphology in="SourceAlpha" operator="dilate" radius=".5" result="shadowSpreadOuter1"/>
      <feOffset dy="4" in="shadowSpreadOuter1" result="shadowOffsetOuter1"/>
      <feGaussianBlur in="shadowOffsetOuter1" result="shadowBlurOuter1" stdDeviation="8"/>
      <feComposite in="shadowBlurOuter1" in2="SourceAlpha" operator="out" result="shadowBlurOuter1"/>
      <feColorMatrix in="shadowBlurOuter1" values="0 0 0 0 0   0 0 0 0 0   0 0 0 0 0  0 0 0 0.12 0"/>
    </filter>
  </defs>
  <g fill="none" fill-rule="evenodd" transform="translate(16 12)">
    <use fill="#000" filter="url(#personalize-emails-to-improve-customer-engagement-2-a)" xlink:href="#personalize-emails-to-improve-customer-engagement-2-b"/>
    <use fill="#FFF" stroke="#8D8D8D" stroke-opacity=".24" xlink:href="#personalize-emails-to-improve-customer-engagement-2-b"/>
    <path fill="#F4F4F4" d="M27,24 L137,24 C138.656854,24 140,25.3431458 140,27 L140,27 C140,28.6568542 138.656854,30 137,30 L27,30 C25.3431458,30 24,28.6568542 24,27 L24,27 C24,25.3431458 25.3431458,24 27,24 Z"/>
    <rect width="232" height="1" x="24" y="90" fill="#D8D8D8"/>
    <path fill="#F4F4F4" d="M193 24L253 24C254.656854 24 256 25.3431458 256 27L256 27C256 28.6568542 254.656854 30 253 30L193 30C191.343146 30 190 28.6568542 190 27L190 27C190 25.3431458 191.343146 24 193 24zM27 42L111 42C112.656854 42 114 43.3431458 114 45L114 45C114 46.6568542 112.656854 48 111 48L27 48C25.3431458 48 24 46.6568542 24 45L24 45C24 43.3431458 25.3431458 42 27 42zM27 60L101 60C102.656854 60 104 61.3431458 104 63L104 63C104 64.6568542 102.656854 66 101 66L27 66C25.3431458 66 24 64.6568542 24 63L24 63C24 61.3431458 25.3431458 60 27 60zM115 60L133 60C134.656854 60 136 61.3431458 136 63L136 63C136 64.6568542 134.656854 66 133 66L115 66C113.343146 66 112 64.6568542 112 63L112 63C112 61.3431458 113.343146 60 115 60z"/>
    <path fill="#384254" fill-rule="nonzero" d="M33.128,129 L31.49,129 L31.49,124.912 L26.632,124.912 L26.632,129 L24.994,129 L24.994,119.662 L26.632,119.662 L26.632,123.47 L31.49,123.47 L31.49,119.662 L33.128,119.662 L33.128,129 Z M35.816,121.412 C35.312,121.412 34.906,121.006 34.906,120.502 C34.906,119.998 35.312,119.592 35.816,119.592 C36.32,119.592 36.726,119.998 36.726,120.502 C36.726,121.006 36.32,121.412 35.816,121.412 Z M36.544,129 L35.074,129 L35.074,122.238 L36.544,122.238 L36.544,129 Z M44.748,131.66 L43.894,131.66 C42.872,131.66 41.906,130.876 41.906,129.588 L41.906,126.97 C41.906,126.452 41.668,126.018 41.178,126.018 L41.178,125.15 C41.668,125.15 41.906,124.716 41.906,124.198 L41.906,121.594 C41.906,120.306 42.872,119.508 43.894,119.508 L44.748,119.508 L44.748,120.516 L43.894,120.516 C43.404,120.516 42.984,120.936 42.984,121.58 L42.984,124.338 C42.984,124.926 42.816,125.388 42.354,125.584 C42.816,125.78 42.984,126.242 42.984,126.83 L42.984,129.574 C42.984,130.204 43.404,130.652 43.894,130.652 L44.748,130.652 L44.748,131.66 Z M48.626,131.66 L47.772,131.66 C46.75,131.66 45.784,130.876 45.784,129.588 L45.784,126.97 C45.784,126.452 45.546,126.018 45.056,126.018 L45.056,125.15 C45.546,125.15 45.784,124.716 45.784,124.198 L45.784,121.594 C45.784,120.306 46.75,119.508 47.772,119.508 L48.626,119.508 L48.626,120.516 L47.772,120.516 C47.282,120.516 46.862,120.936 46.862,121.58 L46.862,124.338 C46.862,124.926 46.694,125.388 46.232,125.584 C46.694,125.78 46.862,126.242 46.862,126.83 L46.862,129.574 C46.862,130.204 47.282,130.652 47.772,130.652 L48.626,130.652 L48.626,131.66 Z M55.85,129 L54.38,129 L54.38,128.104 C53.904,128.636 53.064,129.168 52,129.168 C50.544,129.168 49.816,128.398 49.816,127.026 L49.816,122.238 L51.286,122.238 L51.286,126.48 C51.286,127.53 51.818,127.866 52.658,127.866 C53.4,127.866 54.044,127.432 54.38,126.984 L54.38,122.238 L55.85,122.238 L55.85,129 Z M60.078,129.168 C58.916,129.168 57.88,128.79 57.18,128.104 L57.852,127.054 C58.328,127.544 59.266,127.992 60.134,127.992 C61.016,127.992 61.478,127.628 61.478,127.096 C61.478,125.766 57.39,126.718 57.39,124.114 C57.39,123.008 58.342,122.07 60.05,122.07 C61.198,122.07 62.066,122.476 62.668,123.008 L62.052,124.044 C61.646,123.596 60.904,123.232 60.05,123.232 C59.28,123.232 58.804,123.596 58.804,124.072 C58.804,125.262 62.892,124.366 62.892,127.054 C62.892,128.258 61.898,129.168 60.078,129.168 Z M67.498,129.168 C65.454,129.168 63.956,127.754 63.956,125.612 C63.956,123.652 65.384,122.07 67.386,122.07 C69.416,122.07 70.704,123.61 70.704,125.738 L70.704,126.102 L65.496,126.102 C65.608,127.11 66.364,127.964 67.638,127.964 C68.31,127.964 69.08,127.698 69.57,127.208 L70.242,128.174 C69.556,128.818 68.562,129.168 67.498,129.168 Z M69.29,125.052 C69.248,124.254 68.702,123.274 67.372,123.274 C66.126,123.274 65.538,124.24 65.482,125.052 L69.29,125.052 Z M73.63,129 L72.16,129 L72.16,122.238 L73.63,122.238 L73.63,123.218 C74.148,122.574 74.96,122.07 75.828,122.07 L75.828,123.526 C75.702,123.498 75.562,123.484 75.38,123.484 C74.75,123.484 73.924,123.904 73.63,124.394 L73.63,129 Z M76.598,129.154 C76.066,129.154 75.618,128.692 75.618,128.16 C75.618,127.642 76.066,127.194 76.598,127.194 C77.13,127.194 77.578,127.642 77.578,128.16 C77.578,128.692 77.13,129.154 76.598,129.154 Z M85.32,129 L83.85,129 L83.85,124.772 C83.85,123.708 83.304,123.372 82.478,123.372 C81.736,123.372 81.092,123.82 80.742,124.268 L80.742,129 L79.272,129 L79.272,122.238 L80.742,122.238 L80.742,123.148 C81.19,122.616 82.072,122.07 83.136,122.07 C84.592,122.07 85.32,122.854 85.32,124.24 L85.32,129 Z M87.966,121.412 C87.462,121.412 87.056,121.006 87.056,120.502 C87.056,119.998 87.462,119.592 87.966,119.592 C88.47,119.592 88.876,119.998 88.876,120.502 C88.876,121.006 88.47,121.412 87.966,121.412 Z M88.694,129 L87.224,129 L87.224,122.238 L88.694,122.238 L88.694,129 Z M93.678,129.168 C91.634,129.168 90.192,127.656 90.192,125.612 C90.192,123.568 91.634,122.07 93.678,122.07 C95.008,122.07 95.792,122.63 96.268,123.274 L95.302,124.156 C94.924,123.624 94.406,123.372 93.748,123.372 C92.53,123.372 91.704,124.296 91.704,125.612 C91.704,126.928 92.53,127.866 93.748,127.866 C94.406,127.866 94.924,127.586 95.302,127.054 L96.268,127.964 C95.792,128.594 95.008,129.168 93.678,129.168 Z M103.898,129 L102.05,129 L99.992,126.2 L99.04,127.18 L99.04,129 L97.57,129 L97.57,119.662 L99.04,119.662 L99.04,125.5 L102.022,122.238 L103.842,122.238 L101.042,125.304 L103.898,129 Z M110.996,129 L109.526,129 L109.526,124.772 C109.526,123.708 108.98,123.372 108.154,123.372 C107.412,123.372 106.768,123.82 106.418,124.268 L106.418,129 L104.948,129 L104.948,122.238 L106.418,122.238 L106.418,123.148 C106.866,122.616 107.748,122.07 108.812,122.07 C110.268,122.07 110.996,122.854 110.996,124.24 L110.996,129 Z M118.514,129 L117.044,129 L117.044,128.258 C116.54,128.846 115.742,129.168 114.846,129.168 C113.754,129.168 112.508,128.412 112.508,126.928 C112.508,125.36 113.74,124.716 114.846,124.716 C115.77,124.716 116.54,125.01 117.044,125.584 L117.044,124.576 C117.044,123.792 116.386,123.316 115.462,123.316 C114.706,123.316 114.034,123.596 113.46,124.184 L112.844,123.162 C113.628,122.406 114.608,122.07 115.686,122.07 C117.198,122.07 118.514,122.7 118.514,124.506 L118.514,129 Z M115.434,128.16 C116.064,128.16 116.694,127.922 117.044,127.46 L117.044,126.424 C116.694,125.962 116.064,125.724 115.434,125.724 C114.608,125.724 113.978,126.214 113.978,126.942 C113.978,127.684 114.608,128.16 115.434,128.16 Z M130.19,129 L128.72,129 L128.72,124.59 C128.72,123.862 128.398,123.372 127.6,123.372 C126.942,123.372 126.326,123.82 126.032,124.268 L126.032,129 L124.562,129 L124.562,124.59 C124.562,123.862 124.254,123.372 123.456,123.372 C122.798,123.372 122.196,123.834 121.888,124.268 L121.888,129 L120.418,129 L120.418,122.238 L121.888,122.238 L121.888,123.148 C122.182,122.742 123.064,122.07 124.1,122.07 C125.108,122.07 125.724,122.574 125.948,123.302 C126.326,122.7 127.222,122.07 128.244,122.07 C129.476,122.07 130.19,122.742 130.19,124.114 L130.19,129 Z M135.23,129.168 C133.186,129.168 131.688,127.754 131.688,125.612 C131.688,123.652 133.116,122.07 135.118,122.07 C137.148,122.07 138.436,123.61 138.436,125.738 L138.436,126.102 L133.228,126.102 C133.34,127.11 134.096,127.964 135.37,127.964 C136.042,127.964 136.812,127.698 137.302,127.208 L137.974,128.174 C137.288,128.818 136.294,129.168 135.23,129.168 Z M137.022,125.052 C136.98,124.254 136.434,123.274 135.104,123.274 C133.858,123.274 133.27,124.24 133.214,125.052 L137.022,125.052 Z M139.178,131.66 L139.178,130.652 L140.032,130.652 C140.522,130.652 140.942,130.204 140.942,129.574 L140.942,126.83 C140.942,126.242 141.11,125.78 141.572,125.584 C141.11,125.388 140.942,124.926 140.942,124.338 L140.942,121.58 C140.942,120.936 140.522,120.516 140.032,120.516 L139.178,120.516 L139.178,119.508 L140.032,119.508 C141.054,119.508 142.02,120.306 142.02,121.594 L142.02,124.198 C142.02,124.716 142.258,125.15 142.748,125.15 L142.748,126.018 C142.258,126.018 142.02,126.452 142.02,126.97 L142.02,129.588 C142.02,130.876 141.054,131.66 140.032,131.66 L139.178,131.66 Z M143.056,131.66 L143.056,130.652 L143.91,130.652 C144.4,130.652 144.82,130.204 144.82,129.574 L144.82,126.83 C144.82,126.242 144.988,125.78 145.45,125.584 C144.988,125.388 144.82,124.926 144.82,124.338 L144.82,121.58 C144.82,120.936 144.4,120.516 143.91,120.516 L143.056,120.516 L143.056,119.508 L143.91,119.508 C144.932,119.508 145.898,120.306 145.898,121.594 L145.898,124.198 C145.898,124.716 146.136,125.15 146.626,125.15 L146.626,126.018 C146.136,126.018 145.898,126.452 145.898,126.97 L145.898,129.588 C145.898,130.876 144.932,131.66 143.91,131.66 L143.056,131.66 Z M149.048,126.13 L147.774,126.13 L147.508,119.662 L149.3,119.662 L149.048,126.13 Z M148.418,129.14 C147.886,129.14 147.438,128.692 147.438,128.16 C147.438,127.642 147.886,127.194 148.418,127.194 C148.95,127.194 149.384,127.642 149.384,128.16 C149.384,128.692 148.95,129.14 148.418,129.14 Z"/>
    <path fill="#F4F4F4" d="M27 146L173 146C174.656854 146 176 147.343146 176 149L176 149C176 150.656854 174.656854 152 173 152L27 152C25.3431458 152 24 150.656854 24 149L24 149C24 147.343146 25.3431458 146 27 146zM187 146L253 146C254.656854 146 256 147.343146 256 149L256 149C256 150.656854 254.656854 152 253 152L187 152C185.343146 152 184 150.656854 184 149L184 149C184 147.343146 185.343146 146 187 146zM27 164L243 164C244.656854 164 246 165.343146 246 167L246 167C246 168.656854 244.656854 170 243 170L27 170C25.3431458 170 24 168.656854 24 167L24 167C24 165.343146 25.3431458 164 27 164zM27 182L253 182C254.656854 182 256 183.343146 256 185L256 185C256 186.656854 254.656854 188 253 188L27 188C25.3431458 188 24 186.656854 24 185L24 185C24 183.343146 25.3431458 182 27 182zM27 200L61 200C62.6568542 200 64 201.343146 64 203L64 203C64 204.656854 62.6568542 206 61 206L27 206C25.3431458 206 24 204.656854 24 203L24 203C24 201.343146 25.3431458 200 27 200zM75 200L149 200C150.656854 200 152 201.343146 152 203L152 203C152 204.656854 150.656854 206 149 206L75 206C73.3431458 206 72 204.656854 72 203L72 203C72 201.343146 73.3431458 200 75 200z"/>
    <g transform="translate(24 229)">
      <rect width="232" height="100" y="27" fill="#F4F4F4" rx="4"/>
      <rect width="32" height="32" x="100" y="61" fill="#F15242" rx="3"/>
      <path fill="#384254" fill-rule="nonzero" d="M3.678,12.66 L2.824,12.66 C1.802,12.66 0.836,11.876 0.836,10.588 L0.836,7.97 C0.836,7.452 0.598,7.018 0.108,7.018 L0.108,6.15 C0.598,6.15 0.836,5.716 0.836,5.198 L0.836,2.594 C0.836,1.306 1.802,0.508 2.824,0.508 L3.678,0.508 L3.678,1.516 L2.824,1.516 C2.334,1.516 1.914,1.936 1.914,2.58 L1.914,5.338 C1.914,5.926 1.746,6.388 1.284,6.584 C1.746,6.78 1.914,7.242 1.914,7.83 L1.914,10.574 C1.914,11.204 2.334,11.652 2.824,11.652 L3.678,11.652 L3.678,12.66 Z M7.556,12.66 L6.702,12.66 C5.68,12.66 4.714,11.876 4.714,10.588 L4.714,7.97 C4.714,7.452 4.476,7.018 3.986,7.018 L3.986,6.15 C4.476,6.15 4.714,5.716 4.714,5.198 L4.714,2.594 C4.714,1.306 5.68,0.508 6.702,0.508 L7.556,0.508 L7.556,1.516 L6.702,1.516 C6.212,1.516 5.792,1.936 5.792,2.58 L5.792,5.338 C5.792,5.926 5.624,6.388 5.162,6.584 C5.624,6.78 5.792,7.242 5.792,7.83 L5.792,10.574 C5.792,11.204 6.212,11.652 6.702,11.652 L7.556,11.652 L7.556,12.66 Z M11.882,10.168 C9.838,10.168 8.34,8.754 8.34,6.612 C8.34,4.652 9.768,3.07 11.77,3.07 C13.8,3.07 15.088,4.61 15.088,6.738 L15.088,7.102 L9.88,7.102 C9.992,8.11 10.748,8.964 12.022,8.964 C12.694,8.964 13.464,8.698 13.954,8.208 L14.626,9.174 C13.94,9.818 12.946,10.168 11.882,10.168 Z M13.674,6.052 C13.632,5.254 13.086,4.274 11.756,4.274 C10.51,4.274 9.922,5.24 9.866,6.052 L13.674,6.052 Z M22.48,10 L20.828,10 L19.078,7.508 L17.314,10 L15.662,10 L18.154,6.528 L15.816,3.238 L17.468,3.238 L19.064,5.52 L20.674,3.238 L22.326,3.238 L19.988,6.528 L22.48,10 Z M25.546,10.168 C24.398,10.168 23.81,9.552 23.81,8.418 L23.81,4.512 L22.69,4.512 L22.69,3.238 L23.81,3.238 L23.81,1.39 L25.28,1.39 L25.28,3.238 L26.652,3.238 L26.652,4.512 L25.28,4.512 L25.28,8.054 C25.28,8.516 25.504,8.866 25.924,8.866 C26.204,8.866 26.456,8.74 26.568,8.614 L26.918,9.734 C26.652,9.972 26.218,10.168 25.546,10.168 Z M31.104,10.168 C29.06,10.168 27.562,8.754 27.562,6.612 C27.562,4.652 28.99,3.07 30.992,3.07 C33.022,3.07 34.31,4.61 34.31,6.738 L34.31,7.102 L29.102,7.102 C29.214,8.11 29.97,8.964 31.244,8.964 C31.916,8.964 32.686,8.698 33.176,8.208 L33.848,9.174 C33.162,9.818 32.168,10.168 31.104,10.168 Z M32.896,6.052 C32.854,5.254 32.308,4.274 30.978,4.274 C29.732,4.274 29.144,5.24 29.088,6.052 L32.896,6.052 Z M37.236,10 L35.766,10 L35.766,3.238 L37.236,3.238 L37.236,4.218 C37.754,3.574 38.566,3.07 39.434,3.07 L39.434,4.526 C39.308,4.498 39.168,4.484 38.986,4.484 C38.356,4.484 37.53,4.904 37.236,5.394 L37.236,10 Z M46.672,10 L45.202,10 L45.202,5.772 C45.202,4.708 44.656,4.372 43.83,4.372 C43.088,4.372 42.444,4.82 42.094,5.268 L42.094,10 L40.624,10 L40.624,3.238 L42.094,3.238 L42.094,4.148 C42.542,3.616 43.424,3.07 44.488,3.07 C45.944,3.07 46.672,3.854 46.672,5.24 L46.672,10 Z M54.19,10 L52.72,10 L52.72,9.258 C52.216,9.846 51.418,10.168 50.522,10.168 C49.43,10.168 48.184,9.412 48.184,7.928 C48.184,6.36 49.416,5.716 50.522,5.716 C51.446,5.716 52.216,6.01 52.72,6.584 L52.72,5.576 C52.72,4.792 52.062,4.316 51.138,4.316 C50.382,4.316 49.71,4.596 49.136,5.184 L48.52,4.162 C49.304,3.406 50.284,3.07 51.362,3.07 C52.874,3.07 54.19,3.7 54.19,5.506 L54.19,10 Z M51.11,9.16 C51.74,9.16 52.37,8.922 52.72,8.46 L52.72,7.424 C52.37,6.962 51.74,6.724 51.11,6.724 C50.284,6.724 49.654,7.214 49.654,7.942 C49.654,8.684 50.284,9.16 51.11,9.16 Z M57.564,10 L56.094,10 L56.094,0.662 L57.564,0.662 L57.564,10 Z M60.238,10.154 C59.706,10.154 59.258,9.692 59.258,9.16 C59.258,8.642 59.706,8.194 60.238,8.194 C60.77,8.194 61.218,8.642 61.218,9.16 C61.218,9.692 60.77,10.154 60.238,10.154 Z M64.382,10 L62.912,10 L62.912,3.238 L64.382,3.238 L64.382,4.218 C64.9,3.574 65.712,3.07 66.58,3.07 L66.58,4.526 C66.454,4.498 66.314,4.484 66.132,4.484 C65.502,4.484 64.676,4.904 64.382,5.394 L64.382,10 Z M70.906,10.168 C68.862,10.168 67.364,8.754 67.364,6.612 C67.364,4.652 68.792,3.07 70.794,3.07 C72.824,3.07 74.112,4.61 74.112,6.738 L74.112,7.102 L68.904,7.102 C69.016,8.11 69.772,8.964 71.046,8.964 C71.718,8.964 72.488,8.698 72.978,8.208 L73.65,9.174 C72.964,9.818 71.97,10.168 70.906,10.168 Z M72.698,6.052 C72.656,5.254 72.11,4.274 70.78,4.274 C69.534,4.274 68.946,5.24 68.89,6.052 L72.698,6.052 Z M78.648,10.168 C76.604,10.168 75.162,8.656 75.162,6.612 C75.162,4.568 76.604,3.07 78.648,3.07 C79.978,3.07 80.762,3.63 81.238,4.274 L80.272,5.156 C79.894,4.624 79.376,4.372 78.718,4.372 C77.5,4.372 76.674,5.296 76.674,6.612 C76.674,7.928 77.5,8.866 78.718,8.866 C79.376,8.866 79.894,8.586 80.272,8.054 L81.238,8.964 C80.762,9.594 79.978,10.168 78.648,10.168 Z M85.606,10.168 C83.45,10.168 82.134,8.544 82.134,6.612 C82.134,4.666 83.45,3.07 85.606,3.07 C87.762,3.07 89.078,4.666 89.078,6.612 C89.078,8.544 87.762,10.168 85.606,10.168 Z M85.606,8.866 C86.866,8.866 87.552,7.816 87.552,6.612 C87.552,5.422 86.866,4.372 85.606,4.372 C84.36,4.372 83.66,5.422 83.66,6.612 C83.66,7.816 84.36,8.866 85.606,8.866 Z M100.348,10 L98.878,10 L98.878,5.59 C98.878,4.862 98.556,4.372 97.758,4.372 C97.1,4.372 96.484,4.82 96.19,5.268 L96.19,10 L94.72,10 L94.72,5.59 C94.72,4.862 94.412,4.372 93.614,4.372 C92.956,4.372 92.354,4.834 92.046,5.268 L92.046,10 L90.576,10 L90.576,3.238 L92.046,3.238 L92.046,4.148 C92.34,3.742 93.222,3.07 94.258,3.07 C95.266,3.07 95.882,3.574 96.106,4.302 C96.484,3.7 97.38,3.07 98.402,3.07 C99.634,3.07 100.348,3.742 100.348,5.114 L100.348,10 Z M112.024,10 L110.554,10 L110.554,5.59 C110.554,4.862 110.232,4.372 109.434,4.372 C108.776,4.372 108.16,4.82 107.866,5.268 L107.866,10 L106.396,10 L106.396,5.59 C106.396,4.862 106.088,4.372 105.29,4.372 C104.632,4.372 104.03,4.834 103.722,5.268 L103.722,10 L102.252,10 L102.252,3.238 L103.722,3.238 L103.722,4.148 C104.016,3.742 104.898,3.07 105.934,3.07 C106.942,3.07 107.558,3.574 107.782,4.302 C108.16,3.7 109.056,3.07 110.078,3.07 C111.31,3.07 112.024,3.742 112.024,5.114 L112.024,10 Z M117.064,10.168 C115.02,10.168 113.522,8.754 113.522,6.612 C113.522,4.652 114.95,3.07 116.952,3.07 C118.982,3.07 120.27,4.61 120.27,6.738 L120.27,7.102 L115.062,7.102 C115.174,8.11 115.93,8.964 117.204,8.964 C117.876,8.964 118.646,8.698 119.136,8.208 L119.808,9.174 C119.122,9.818 118.128,10.168 117.064,10.168 Z M118.856,6.052 C118.814,5.254 118.268,4.274 116.938,4.274 C115.692,4.274 115.104,5.24 115.048,6.052 L118.856,6.052 Z M127.774,10 L126.304,10 L126.304,5.772 C126.304,4.708 125.758,4.372 124.932,4.372 C124.19,4.372 123.546,4.82 123.196,5.268 L123.196,10 L121.726,10 L121.726,3.238 L123.196,3.238 L123.196,4.148 C123.644,3.616 124.526,3.07 125.59,3.07 C127.046,3.07 127.774,3.854 127.774,5.24 L127.774,10 Z M135.908,10 L134.438,10 L134.438,9.076 C133.92,9.748 133.15,10.168 132.268,10.168 C130.546,10.168 129.272,8.852 129.272,6.612 C129.272,4.428 130.532,3.07 132.268,3.07 C133.122,3.07 133.906,3.448 134.438,4.176 L134.438,0.662 L135.908,0.662 L135.908,10 Z M132.702,8.866 C133.388,8.866 134.116,8.46 134.438,7.956 L134.438,5.282 C134.116,4.778 133.388,4.372 132.702,4.372 C131.526,4.372 130.784,5.31 130.784,6.612 C130.784,7.928 131.526,8.866 132.702,8.866 Z M143.426,10 L141.956,10 L141.956,9.258 C141.452,9.846 140.654,10.168 139.758,10.168 C138.666,10.168 137.42,9.412 137.42,7.928 C137.42,6.36 138.652,5.716 139.758,5.716 C140.682,5.716 141.452,6.01 141.956,6.584 L141.956,5.576 C141.956,4.792 141.298,4.316 140.374,4.316 C139.618,4.316 138.946,4.596 138.372,5.184 L137.756,4.162 C138.54,3.406 139.52,3.07 140.598,3.07 C142.11,3.07 143.426,3.7 143.426,5.506 L143.426,10 Z M140.346,9.16 C140.976,9.16 141.606,8.922 141.956,8.46 L141.956,7.424 C141.606,6.962 140.976,6.724 140.346,6.724 C139.52,6.724 138.89,7.214 138.89,7.942 C138.89,8.684 139.52,9.16 140.346,9.16 Z M147.374,10.168 C146.226,10.168 145.638,9.552 145.638,8.418 L145.638,4.512 L144.518,4.512 L144.518,3.238 L145.638,3.238 L145.638,1.39 L147.108,1.39 L147.108,3.238 L148.48,3.238 L148.48,4.512 L147.108,4.512 L147.108,8.054 C147.108,8.516 147.332,8.866 147.752,8.866 C148.032,8.866 148.284,8.74 148.396,8.614 L148.746,9.734 C148.48,9.972 148.046,10.168 147.374,10.168 Z M150.538,2.412 C150.034,2.412 149.628,2.006 149.628,1.502 C149.628,0.998 150.034,0.592 150.538,0.592 C151.042,0.592 151.448,0.998 151.448,1.502 C151.448,2.006 151.042,2.412 150.538,2.412 Z M151.266,10 L149.796,10 L149.796,3.238 L151.266,3.238 L151.266,10 Z M156.236,10.168 C154.08,10.168 152.764,8.544 152.764,6.612 C152.764,4.666 154.08,3.07 156.236,3.07 C158.392,3.07 159.708,4.666 159.708,6.612 C159.708,8.544 158.392,10.168 156.236,10.168 Z M156.236,8.866 C157.496,8.866 158.182,7.816 158.182,6.612 C158.182,5.422 157.496,4.372 156.236,4.372 C154.99,4.372 154.29,5.422 154.29,6.612 C154.29,7.816 154.99,8.866 156.236,8.866 Z M167.254,10 L165.784,10 L165.784,5.772 C165.784,4.708 165.238,4.372 164.412,4.372 C163.67,4.372 163.026,4.82 162.676,5.268 L162.676,10 L161.206,10 L161.206,3.238 L162.676,3.238 L162.676,4.148 C163.124,3.616 164.006,3.07 165.07,3.07 C166.526,3.07 167.254,3.854 167.254,5.24 L167.254,10 Z M168.444,12.66 L168.444,11.652 L169.298,11.652 C169.788,11.652 170.208,11.204 170.208,10.574 L170.208,7.83 C170.208,7.242 170.376,6.78 170.838,6.584 C170.376,6.388 170.208,5.926 170.208,5.338 L170.208,2.58 C170.208,1.936 169.788,1.516 169.298,1.516 L168.444,1.516 L168.444,0.508 L169.298,0.508 C170.32,0.508 171.286,1.306 171.286,2.594 L171.286,5.198 C171.286,5.716 171.524,6.15 172.014,6.15 L172.014,7.018 C171.524,7.018 171.286,7.452 171.286,7.97 L171.286,10.588 C171.286,11.876 170.32,12.66 169.298,12.66 L168.444,12.66 Z M172.322,12.66 L172.322,11.652 L173.176,11.652 C173.666,11.652 174.086,11.204 174.086,10.574 L174.086,7.83 C174.086,7.242 174.254,6.78 174.716,6.584 C174.254,6.388 174.086,5.926 174.086,5.338 L174.086,2.58 C174.086,1.936 173.666,1.516 173.176,1.516 L172.322,1.516 L172.322,0.508 L173.176,0.508 C174.198,0.508 175.164,1.306 175.164,2.594 L175.164,5.198 C175.164,5.716 175.402,6.15 175.892,6.15 L175.892,7.018 C175.402,7.018 175.164,7.452 175.164,7.97 L175.164,10.588 C175.164,11.876 174.198,12.66 173.176,12.66 L172.322,12.66 Z"/>
    </g>
  </g>
</svg>
