<svg xmlns="http://www.w3.org/2000/svg" xmlns:xlink="http://www.w3.org/1999/xlink" width="312" height="412" viewBox="0 0 312 412"><defs><filter id="a" width="118.9%" height="113.9%" x="-9.5%" y="-5.9%" filterUnits="objectBoundingBox"><feMorphology in="SourceAlpha" operator="dilate" radius=".5" result="shadowSpreadOuter1"/><feOffset dy="4" in="shadowSpreadOuter1" result="shadowOffsetOuter1"/><feGaussianBlur in="shadowOffsetOuter1" result="shadowBlurOuter1" stdDeviation="8"/><feComposite in="shadowBlurOuter1" in2="SourceAlpha" operator="out" result="shadowBlurOuter1"/><feColorMatrix in="shadowBlurOuter1" values="0 0 0 0 0 0 0 0 0 0 0 0 0 0 0 0 0 0 0.12 0"/></filter><path id="b" d="M12.82 0h254.36c4.458 0 6.075.464 7.704 1.336a9.086 9.086 0 013.78 3.78c.872 1.63 1.336 3.246 1.336 7.703v354.362c0 4.457-.464 6.074-1.336 7.703a9.086 9.086 0 01-3.78 3.78c-1.63.872-3.246 1.336-7.703 1.336H12.819c-4.457 0-6.074-.464-7.703-1.336a9.086 9.086 0 01-3.78-3.78C.464 373.254 0 371.638 0 367.181V12.819c0-4.457.464-6.074 1.336-7.703a9.086 9.086 0 013.78-3.78C6.746.464 8.362 0 12.819 0z"/></defs><g fill="none" fill-rule="evenodd" transform="translate(16 12)"><use fill="#000" filter="url(#a)" xlink:href="#b"/><use fill="#FFF" stroke="#8D8D8D" stroke-opacity=".24" xlink:href="#b"/><path fill="#F4F4F4" d="M27 24h110a3 3 0 010 6H27a3 3 0 010-6z"/><path fill="#D8D8D8" d="M24 90h232v1H24z"/><path fill="#F4F4F4" d="M193 24h60a3 3 0 010 6h-60a3 3 0 010-6zM27 42h84a3 3 0 010 6H27a3 3 0 010-6zm0 18h74a3 3 0 010 6H27a3 3 0 010-6zm88 0h18a3 3 0 010 6h-18a3 3 0 010-6z"/><path fill="#384254" fill-rule="nonzero" d="M33.128 129H31.49v-4.088h-4.858V129h-1.638v-9.338h1.638v3.808h4.858v-3.808h1.638V129zm2.688-7.588a.908.908 0 01-.91-.91c0-.504.406-.91.91-.91s.91.406.91.91-.406.91-.91.91zm.728 7.588h-1.47v-6.762h1.47V129zm8.204 2.66h-.854c-1.022 0-1.988-.784-1.988-2.072v-2.618c0-.518-.238-.952-.728-.952v-.868c.49 0 .728-.434.728-.952v-2.604c0-1.288.966-2.086 1.988-2.086h.854v1.008h-.854c-.49 0-.91.42-.91 1.064v2.758c0 .588-.168 1.05-.63 1.246.462.196.63.658.63 1.246v2.744c0 .63.42 1.078.91 1.078h.854v1.008zm3.878 0h-.854c-1.022 0-1.988-.784-1.988-2.072v-2.618c0-.518-.238-.952-.728-.952v-.868c.49 0 .728-.434.728-.952v-2.604c0-1.288.966-2.086 1.988-2.086h.854v1.008h-.854c-.49 0-.91.42-.91 1.064v2.758c0 .588-.168 1.05-.63 1.246.462.196.63.658.63 1.246v2.744c0 .63.42 1.078.91 1.078h.854v1.008zM55.85 129h-1.47v-.896a3.234 3.234 0 01-2.38 1.064c-1.456 0-2.184-.77-2.184-2.142v-4.788h1.47v4.242c0 1.05.532 1.386 1.372 1.386.742 0 1.386-.434 1.722-.882v-4.746h1.47V129zm4.228.168c-1.162 0-2.198-.378-2.898-1.064l.672-1.05c.476.49 1.414.938 2.282.938.882 0 1.344-.364 1.344-.896 0-1.33-4.088-.378-4.088-2.982 0-1.106.952-2.044 2.66-2.044 1.148 0 2.016.406 2.618.938l-.616 1.036c-.406-.448-1.148-.812-2.002-.812-.77 0-1.246.364-1.246.84 0 1.19 4.088.294 4.088 2.982 0 1.204-.994 2.114-2.814 2.114zm7.42 0c-2.044 0-3.542-1.414-3.542-3.556 0-1.96 1.428-3.542 3.43-3.542 2.03 0 3.318 1.54 3.318 3.668v.364h-5.208c.112 1.008.868 1.862 2.142 1.862.672 0 1.442-.266 1.932-.756l.672.966c-.686.644-1.68.994-2.744.994zm1.792-4.116c-.042-.798-.588-1.778-1.918-1.778-1.246 0-1.834.966-1.89 1.778h3.808zM73.63 129h-1.47v-6.762h1.47v.98c.518-.644 1.33-1.148 2.198-1.148v1.456a2.029 2.029 0 00-.448-.042c-.63 0-1.456.42-1.75.91V129zm2.968.154c-.532 0-.98-.462-.98-.994 0-.518.448-.966.98-.966s.98.448.98.966c0 .532-.448.994-.98.994zM85.32 129h-1.47v-4.228c0-1.064-.546-1.4-1.372-1.4-.742 0-1.386.448-1.736.896V129h-1.47v-6.762h1.47v.91c.448-.532 1.33-1.078 2.394-1.078 1.456 0 2.184.784 2.184 2.17V129zm7.518 0h-1.47v-.742c-.504.588-1.302.91-2.198.91-1.092 0-2.338-.756-2.338-2.24 0-1.568 1.232-2.212 2.338-2.212.924 0 1.694.294 2.198.868v-1.008c0-.784-.658-1.26-1.582-1.26-.756 0-1.428.28-2.002.868l-.616-1.022c.784-.756 1.764-1.092 2.842-1.092 1.512 0 2.828.63 2.828 2.436V129zm-3.08-.84c.63 0 1.26-.238 1.61-.7v-1.036c-.35-.462-.98-.7-1.61-.7-.826 0-1.456.49-1.456 1.218 0 .742.63 1.218 1.456 1.218zm14.756.84h-1.47v-4.41c0-.728-.322-1.218-1.12-1.218-.658 0-1.274.448-1.568.896V129h-1.47v-4.41c0-.728-.308-1.218-1.106-1.218-.658 0-1.26.462-1.568.896V129h-1.47v-6.762h1.47v.91c.294-.406 1.176-1.078 2.212-1.078 1.008 0 1.624.504 1.848 1.232.378-.602 1.274-1.232 2.296-1.232 1.232 0 1.946.672 1.946 2.044V129zm5.04.168c-2.044 0-3.542-1.414-3.542-3.556 0-1.96 1.428-3.542 3.43-3.542 2.03 0 3.318 1.54 3.318 3.668v.364h-5.208c.112 1.008.868 1.862 2.142 1.862.672 0 1.442-.266 1.932-.756l.672.966c-.686.644-1.68.994-2.744.994zm1.792-4.116c-.042-.798-.588-1.778-1.918-1.778-1.246 0-1.834.966-1.89 1.778h3.808zm2.156 6.608v-1.008h.854c.49 0 .91-.448.91-1.078v-2.744c0-.588.168-1.05.63-1.246-.462-.196-.63-.658-.63-1.246v-2.758c0-.644-.42-1.064-.91-1.064h-.854v-1.008h.854c1.022 0 1.988.798 1.988 2.086v2.604c0 .518.238.952.728.952v.868c-.49 0-.728.434-.728.952v2.618c0 1.288-.966 2.072-1.988 2.072h-.854zm3.878 0v-1.008h.854c.49 0 .91-.448.91-1.078v-2.744c0-.588.168-1.05.63-1.246-.462-.196-.63-.658-.63-1.246v-2.758c0-.644-.42-1.064-.91-1.064h-.854v-1.008h.854c1.022 0 1.988.798 1.988 2.086v2.604c0 .518.238.952.728.952v.868c-.49 0-.728.434-.728.952v2.618c0 1.288-.966 2.072-1.988 2.072h-.854zm5.992-5.53h-1.274l-.266-6.468h1.792l-.252 6.468zm-.63 3.01a.992.992 0 01-.98-.98c0-.518.448-.966.98-.966s.966.448.966.966a.98.98 0 01-.966.98z"/><path fill="#F4F4F4" d="M27 146h146a3 3 0 010 6H27a3 3 0 010-6zm0 18h216a3 3 0 010 6H27a3 3 0 010-6zm0 18h168a3 3 0 010 6H27a3 3 0 010-6zm0 18h34a3 3 0 010 6H27a3 3 0 010-6zm48 0h74a3 3 0 010 6H75a3 3 0 010-6zm-48 18h146a3 3 0 010 6H27a3 3 0 010-6z"/><g transform="translate(24 236)"><rect width="108" height="120" fill="#F4F4F4" rx="4"/><rect width="108" height="120" x="124" fill="#F4F4F4" rx="4"/><circle cx="54" cy="60" r="20" fill="#01B2D0"/><path fill="#FFC111" d="M181.183 48.367l12.646 25.291A3 3 0 01191.146 78h-25.292a3 3 0 01-2.683-4.342l12.646-25.291a3 3 0 015.366 0z"/></g></g></svg>