<svg width="38" height="30" viewBox="0 0 38 30" xmlns="http://www.w3.org/2000/svg" xmlns:xlink="http://www.w3.org/1999/xlink"><defs><circle id="a" cx="15" cy="15" r="5"/><mask id="e" maskContentUnits="userSpaceOnUse" maskUnits="objectBoundingBox" x="0" y="0" width="10" height="10" fill="#fff"><use xlink:href="#a"/></mask><circle id="b" cx="15" cy="15" r="10"/><mask id="f" maskContentUnits="userSpaceOnUse" maskUnits="objectBoundingBox" x="0" y="0" width="20" height="20" fill="#fff"><use xlink:href="#b"/></mask><circle id="c" cx="15" cy="15" r="15"/><mask id="g" maskContentUnits="userSpaceOnUse" maskUnits="objectBoundingBox" x="0" y="0" width="30" height="30" fill="#fff"><use xlink:href="#c"/></mask><path d="M24.423 14h-9.416C14.45 14 14 14.448 14 15a1 1 0 0 0 1.007 1h9.416l.86 1.49a1 1 0 1 0 1.732-1l-.283-.49h1.69l.861 1.49a1 1 0 1 0 1.732-1l-.283-.49h1.776l.858 1.487a.998.998 0 0 0 1.363.36.994.994 0 0 0 .37-1.36l-.902-1.56.815-1.411a1 1 0 1 0-1.732-1L32.423 14h-1.69l.28-.488a.995.995 0 0 0-.365-1.366.998.998 0 0 0-1.366.366L28.422 14h-1.69l.282-.488a.995.995 0 0 0-.366-1.366.998.998 0 0 0-1.366.366L24.422 14z" id="d"/><mask id="h" maskContentUnits="userSpaceOnUse" maskUnits="objectBoundingBox" x="-2" y="-2" width="25.232" height="9.987"><path fill="#fff" d="M12 10.009h25.232v9.987H12z"/><use xlink:href="#d"/></mask></defs><g fill="none" fill-rule="evenodd"><use stroke="#0AA6D2" mask="url(#e)" stroke-width="4" xlink:href="#a"/><use stroke="#0AA6D2" mask="url(#f)" stroke-width="4" xlink:href="#b"/><use stroke="#0AA6D2" mask="url(#g)" stroke-width="4" xlink:href="#c"/><use fill="#6FD350" xlink:href="#d"/><use stroke="#FFF" mask="url(#h)" stroke-width="4" xlink:href="#d"/></g></svg>