<svg width="31" height="30" viewBox="0 0 31 30" xmlns="http://www.w3.org/2000/svg" xmlns:xlink="http://www.w3.org/1999/xlink"><defs><rect id="a" x="16" y="7" width="10" height="6" rx="1"/><mask id="i" maskContentUnits="userSpaceOnUse" maskUnits="objectBoundingBox" x="0" y="0" width="10" height="6" fill="#fff"><use xlink:href="#a"/></mask><rect id="b" x="16" y="11" width="10" height="6" rx="1"/><mask id="j" maskContentUnits="userSpaceOnUse" maskUnits="objectBoundingBox" x="0" y="0" width="10" height="6" fill="#fff"><use xlink:href="#b"/></mask><rect id="c" x="9" y="11" width="9" height="6" rx="1"/><mask id="k" maskContentUnits="userSpaceOnUse" maskUnits="objectBoundingBox" x="0" y="0" width="9" height="6" fill="#fff"><use xlink:href="#c"/></mask><rect id="d" x="16" y="15" width="10" height="6" rx="1"/><mask id="l" maskContentUnits="userSpaceOnUse" maskUnits="objectBoundingBox" x="0" y="0" width="10" height="6" fill="#fff"><use xlink:href="#d"/></mask><rect id="e" x="9" y="15" width="9" height="6" rx="1"/><mask id="m" maskContentUnits="userSpaceOnUse" maskUnits="objectBoundingBox" x="0" y="0" width="9" height="6" fill="#fff"><use xlink:href="#e"/></mask><rect id="f" x="16" y="19" width="10" height="6" rx="1"/><mask id="n" maskContentUnits="userSpaceOnUse" maskUnits="objectBoundingBox" x="0" y="0" width="10" height="6" fill="#fff"><use xlink:href="#f"/></mask><rect id="g" x="9" y="19" width="9" height="6" rx="1"/><mask id="o" maskContentUnits="userSpaceOnUse" maskUnits="objectBoundingBox" x="0" y="0" width="9" height="6" fill="#fff"><use xlink:href="#g"/></mask><rect id="h" x="9" y="7" width="9" height="6" rx="1"/><mask id="p" maskContentUnits="userSpaceOnUse" maskUnits="objectBoundingBox" x="0" y="0" width="9" height="6" fill="#fff"><use xlink:href="#h"/></mask></defs><g fill="none" fill-rule="evenodd"><path d="M4 16.005V3.999A4 4 0 0 1 8.004 0h18.109L31 5.192V26a4 4 0 0 1-3.998 4H9.829a3.004 3.004 0 0 0 .001-2h17.172A2 2 0 0 0 29 26V5.985L25.249 2H8.004A2 2 0 0 0 6 4v12.926a2.993 2.993 0 0 0-2-.921z" fill="#0AA6D2"/><path d="M2.831 23.586v-4.588a.997.997 0 0 1 1-.998c.553 0 1 .446 1 .998v4.588l1.128-1.128a.993.993 0 0 1 1.408.006 1 1 0 0 1 .006 1.408l-2.795 2.796a.99.99 0 0 1-1.403.087 1.005 1.005 0 0 1-.076-.073l-2.81-2.81a.993.993 0 0 1 .007-1.408 1 1 0 0 1 1.408-.006l1.127 1.128zM0 29c0-.552.453-1 .997-1h6.006c.55 0 .997.444.997 1 0 .552-.453 1-.997 1H.997A.996.996 0 0 1 0 29z" fill="#6FD350"/><use stroke="#0AA6D2" mask="url(#i)" stroke-width="4" xlink:href="#a"/><use stroke="#0AA6D2" mask="url(#j)" stroke-width="4" xlink:href="#b"/><use stroke="#0AA6D2" mask="url(#k)" stroke-width="4" xlink:href="#c"/><use stroke="#0AA6D2" mask="url(#l)" stroke-width="4" xlink:href="#d"/><use stroke="#0AA6D2" mask="url(#m)" stroke-width="4" xlink:href="#e"/><use stroke="#0AA6D2" mask="url(#n)" stroke-width="4" xlink:href="#f"/><use stroke="#0AA6D2" mask="url(#o)" stroke-width="4" xlink:href="#g"/><use stroke="#0AA6D2" mask="url(#p)" stroke-width="4" xlink:href="#h"/></g></svg>