<svg width="31" height="30" viewBox="0 0 31 30" xmlns="http://www.w3.org/2000/svg"><g fill="none" fill-rule="evenodd"><path d="M.296.29A.98.98 0 0 1 .991 0h4.018C5.556 0 6 .444 6 1a1 1 0 0 1-.99 1H2v3.01C2 5.555 1.556 6 1 6a1 1 0 0 1-1-.99V.99C0 .72.11.473.288.294zM30.707.288A.984.984 0 0 0 30.009 0h-4.018A1 1 0 0 0 25 1c0 .556.444 1 .99 1H29v3.01A1 1 0 0 0 30 6c.556 0 1-.444 1-.99V.99a.985.985 0 0 0-.29-.694zM.296 13.71c.18.18.426.29.695.29h4.018A.993.993 0 0 0 6 13a1 1 0 0 0-.99-1H2V8.99A.993.993 0 0 0 1 8a1 1 0 0 0-1 .99v4.02c0 .271.11.518.288.697z" fill="#0AA6D2"/><rect fill="#0AA6D2" transform="rotate(90 21.5 1)" x="20.5" y="-.5" width="2" height="3" rx="1"/><rect fill="#0AA6D2" transform="rotate(90 9.5 1)" x="8.5" y="-.5" width="2" height="3" rx="1"/><rect fill="#0AA6D2" transform="rotate(90 15.5 1)" x="14.5" y="-1.5" width="2" height="5" rx="1"/><rect fill="#0AA6D2" transform="rotate(90 21.5 13)" x="20.5" y="11.5" width="2" height="3" rx="1"/><rect fill="#0AA6D2" transform="rotate(90 9.5 13)" x="8.5" y="11.5" width="2" height="3" rx="1"/><rect fill="#0AA6D2" transform="rotate(90 15.5 13)" x="14.5" y="10.5" width="2" height="5" rx="1"/><path d="M25.001 6c.552 0 .999.444.999 1 0 .552-.439 1-.999 1H6a.997.997 0 0 1-1-1c0-.552.439-1 .999-1H25zm5.706 7.712a.984.984 0 0 1-.698.288h-4.018A1 1 0 0 1 25 13c0-.556.444-1 .99-1H29V8.99A1 1 0 0 1 30 8c.556 0 1 .444 1 .99v4.02a.98.98 0 0 1-.29.694z" fill="#0AA6D2"/><path d="M26.27 21.215c1.757-.182 2.257-1.425 1.113-2.778L20.1 9.815c-1.143-1.352-2.072-1.013-2.075.752L18 22.067c-.004 1.767 1.151 2.365 2.593 1.326l1.331-.96 2.005 5.576a1.49 1.49 0 0 0 1.943.89l-.097.038a1.567 1.567 0 0 0 .91-1.981L24.68 21.38l1.59-.165z" stroke="#6FD350" stroke-width="2" fill="#FFF"/></g></svg>