<svg width="49" height="30" viewBox="0 0 49 30" xmlns="http://www.w3.org/2000/svg"><g fill="none" fill-rule="evenodd"><path fill="#FFF" d="M.75 0h47.5v30H.75z"/><path d="M1.3 13.36c.133 0 .283-.02.45-.06.167-.04.317-.11.45-.21.133-.1.247-.243.34-.43.093-.187.14-.42.14-.7V8c0-.453.07-.843.21-1.17.14-.327.33-.6.57-.82.24-.22.513-.383.82-.49.307-.107.627-.16.96-.16H6.7v1.68H5.6c-.387 0-.63.127-.73.38-.1.253-.15.527-.15.82V12c0 .387-.073.717-.22.99a2.34 2.34 0 0 1-.52.67 2.33 2.33 0 0 1-.64.4 2.02 2.02 0 0 1-.58.16v.04c.16.013.353.057.58.13.227.073.44.197.64.37s.373.407.52.7c.147.293.22.673.22 1.14v3.64c0 .293.05.567.15.82.1.253.343.38.73.38h1.1v1.68H5.24c-.333 0-.653-.053-.96-.16a2.338 2.338 0 0 1-.82-.49 2.35 2.35 0 0 1-.57-.82c-.14-.327-.21-.717-.21-1.17v-3.82c0-.32-.047-.58-.14-.78a1.359 1.359 0 0 0-.34-.47 1.073 1.073 0 0 0-.45-.23 1.948 1.948 0 0 0-.45-.06v-1.76zm6.6 0c.133 0 .283-.02.45-.06.167-.04.317-.11.45-.21.133-.1.247-.243.34-.43.093-.187.14-.42.14-.7V8c0-.453.07-.843.21-1.17.14-.327.33-.6.57-.82.24-.22.513-.383.82-.49.307-.107.627-.16.96-.16h1.46v1.68h-1.1c-.387 0-.63.127-.73.38-.1.253-.15.527-.15.82V12c0 .387-.073.717-.22.99a2.34 2.34 0 0 1-.52.67 2.33 2.33 0 0 1-.64.4 2.02 2.02 0 0 1-.58.16v.04c.16.013.353.057.58.13.227.073.44.197.64.37s.373.407.52.7c.147.293.22.673.22 1.14v3.64c0 .293.05.567.15.82.1.253.343.38.73.38h1.1v1.68h-1.46c-.333 0-.653-.053-.96-.16a2.338 2.338 0 0 1-.82-.49 2.35 2.35 0 0 1-.57-.82c-.14-.327-.21-.717-.21-1.17v-3.82c0-.32-.047-.58-.14-.78a1.359 1.359 0 0 0-.34-.47 1.073 1.073 0 0 0-.45-.23 1.948 1.948 0 0 0-.45-.06v-1.76zm12.4 5.24c0-.427.157-.793.47-1.1.313-.307.69-.46 1.13-.46.427 0 .8.147 1.12.44.32.293.48.653.48 1.08 0 .427-.157.793-.47 1.1-.313.307-.69.46-1.13.46a1.58 1.58 0 0 1-.61-.12 1.74 1.74 0 0 1-.51-.32 1.487 1.487 0 0 1-.35-.48 1.407 1.407 0 0 1-.13-.6zm5.2 0c0-.427.157-.793.47-1.1.313-.307.69-.46 1.13-.46.427 0 .8.147 1.12.44.32.293.48.653.48 1.08 0 .427-.157.793-.47 1.1-.313.307-.69.46-1.13.46a1.58 1.58 0 0 1-.61-.12 1.74 1.74 0 0 1-.51-.32 1.487 1.487 0 0 1-.35-.48 1.407 1.407 0 0 1-.13-.6zm15.6-3.48c-.147 0-.3.02-.46.06-.16.04-.307.117-.44.23s-.247.27-.34.47c-.093.2-.14.46-.14.78v3.82c0 .453-.07.843-.21 1.17-.14.327-.33.6-.57.82a2.34 2.34 0 0 1-.82.49c-.307.107-.627.16-.96.16H35.7v-1.68h1.1c.387 0 .63-.127.73-.38.1-.253.15-.527.15-.82V16.6c0-.467.073-.847.22-1.14a2.23 2.23 0 0 1 .52-.7c.2-.173.413-.297.64-.37a2.66 2.66 0 0 1 .58-.13v-.04a2.02 2.02 0 0 1-.58-.16 2.33 2.33 0 0 1-.64-.4 2.333 2.333 0 0 1-.52-.67c-.147-.273-.22-.603-.22-.99V8.24c0-.293-.05-.567-.15-.82-.1-.253-.343-.38-.73-.38h-1.1V5.36h1.46c.333 0 .653.053.96.16.307.107.58.27.82.49.24.22.43.493.57.82.14.327.21.717.21 1.17v3.96c0 .28.047.513.14.7.093.187.207.33.34.43.133.1.28.17.44.21.16.04.313.06.46.06v1.76zm6.6 0c-.147 0-.3.02-.46.06-.16.04-.307.117-.44.23s-.247.27-.34.47c-.093.2-.14.46-.14.78v3.82c0 .453-.07.843-.21 1.17-.14.327-.33.6-.57.82a2.34 2.34 0 0 1-.82.49c-.307.107-.627.16-.96.16H42.3v-1.68h1.1c.387 0 .63-.127.73-.38.1-.253.15-.527.15-.82V16.6c0-.467.073-.847.22-1.14a2.23 2.23 0 0 1 .52-.7c.2-.173.413-.297.64-.37a2.66 2.66 0 0 1 .58-.13v-.04a2.02 2.02 0 0 1-.58-.16 2.33 2.33 0 0 1-.64-.4 2.333 2.333 0 0 1-.52-.67c-.147-.273-.22-.603-.22-.99V8.24c0-.293-.05-.567-.15-.82-.1-.253-.343-.38-.73-.38h-1.1V5.36h1.46c.333 0 .653.053.96.16.307.107.58.27.82.49.24.22.43.493.57.82.14.327.21.717.21 1.17v3.96c0 .28.047.513.14.7.093.187.207.33.34.43.133.1.28.17.44.21.16.04.313.06.46.06v1.76z" fill="#0AA6D2"/></g></svg>