<svg width="31" height="30" viewBox="0 0 31 30" xmlns="http://www.w3.org/2000/svg" xmlns:xlink="http://www.w3.org/1999/xlink"><defs><path d="M6 3.995A4.003 4.003 0 0 1 10.003 0h16.994A3.999 3.999 0 0 1 31 4v20a5.999 5.999 0 0 1-5.997 6H3l3-12V3.995z" id="a"/><mask id="c" maskContentUnits="userSpaceOnUse" maskUnits="objectBoundingBox" x="0" y="0" width="28" height="30" fill="#fff"><use xlink:href="#a"/></mask><path d="M0 9.003A4.004 4.004 0 0 1 4 5h4v20.997A4.004 4.004 0 0 1 4 30c-2.21 0-4-1.798-4-4.003V9.003z" id="b"/><mask id="d" maskContentUnits="userSpaceOnUse" maskUnits="objectBoundingBox" x="0" y="0" width="8" height="25" fill="#fff"><use xlink:href="#b"/></mask></defs><g fill="none" fill-rule="evenodd"><g stroke="#6FD350" stroke-width="4" fill="#FFF"><use mask="url(#c)" xlink:href="#a"/><use mask="url(#d)" xlink:href="#b"/></g><rect fill="#6FD350" x="11" y="6" width="9" height="2" rx="1"/><rect fill="#6FD350" x="11" y="10" width="9" height="2" rx="1"/><rect fill="#6FD350" x="22" y="6" width="4" height="6" rx="1"/><rect fill="#6FD350" x="11" y="22" width="15" height="2" rx="1"/><rect fill="#6FD350" x="11" y="14" width="15" height="2" rx="1"/><rect fill="#6FD350" x="11" y="18" width="15" height="2" rx="1"/></g></svg>