<svg width="31" height="30" viewBox="0 0 31 30" xmlns="http://www.w3.org/2000/svg" xmlns:xlink="http://www.w3.org/1999/xlink"><defs><rect id="a" x="5" y="5" width="21" height="8" rx="1"/><mask id="c" maskContentUnits="userSpaceOnUse" maskUnits="objectBoundingBox" x="0" y="0" width="21" height="8" fill="#fff"><use xlink:href="#a"/></mask><rect id="b" x="5" y="15" width="10" height="10" rx="1"/><mask id="d" maskContentUnits="userSpaceOnUse" maskUnits="objectBoundingBox" x="0" y="0" width="10" height="10" fill="#fff"><use xlink:href="#b"/></mask></defs><g fill="none" fill-rule="evenodd"><path d="M.296.29A.98.98 0 0 1 .991 0h4.018C5.556 0 6 .444 6 1a1 1 0 0 1-.99 1H2v3.01C2 5.555 1.556 6 1 6a1 1 0 0 1-1-.99V.99C0 .72.11.473.288.294zM30.707.288A.984.984 0 0 0 30.009 0h-4.018A1 1 0 0 0 25 1c0 .556.444 1 .99 1H29v3.01A1 1 0 0 0 30 6c.556 0 1-.444 1-.99V.99a.985.985 0 0 0-.29-.694zM.296 29.71c.18.18.426.29.695.29h4.018A.993.993 0 0 0 6 29a1 1 0 0 0-.99-1H2v-3.01A.993.993 0 0 0 1 24a1 1 0 0 0-1 .99v4.02c0 .271.11.518.288.697z" fill="#FFC111"/><rect fill="#FFC111" x="29" y="8" width="2" height="3" rx="1"/><rect fill="#FFC111" x="29" y="19" width="2" height="3" rx="1"/><rect fill="#FFC111" x="29" y="13" width="2" height="4" rx="1"/><rect fill="#FFC111" y="8" width="2" height="3" rx="1"/><rect fill="#FFC111" y="19" width="2" height="3" rx="1"/><rect fill="#FFC111" y="13" width="2" height="4" rx="1"/><rect fill="#FFC111" transform="rotate(90 21.5 1)" x="20.5" y="-.5" width="2" height="3" rx="1"/><rect fill="#FFC111" transform="rotate(90 9.5 1)" x="8.5" y="-.5" width="2" height="3" rx="1"/><rect fill="#FFC111" transform="rotate(90 15.5 1)" x="14.5" y="-1.5" width="2" height="5" rx="1"/><rect fill="#6FD350" transform="rotate(90 21.5 16)" x="20.5" y="11.5" width="2" height="9" rx="1"/><rect fill="#6FD350" transform="rotate(90 21.5 20)" x="20.5" y="15.5" width="2" height="9" rx="1"/><rect fill="#6FD350" transform="rotate(90 21.5 24)" x="20.5" y="19.5" width="2" height="9" rx="1"/><rect fill="#FFC111" transform="rotate(90 21.5 29)" x="20.5" y="27.5" width="2" height="3" rx="1"/><rect fill="#FFC111" transform="rotate(90 9.5 29)" x="8.5" y="27.5" width="2" height="3" rx="1"/><rect fill="#FFC111" transform="rotate(90 15.5 29)" x="14.5" y="26.5" width="2" height="5" rx="1"/><path d="M30.707 29.712a.984.984 0 0 1-.698.288h-4.018A1 1 0 0 1 25 29c0-.556.444-1 .99-1H29v-3.01a1 1 0 0 1 1-.99c.556 0 1 .444 1 .99v4.02a.98.98 0 0 1-.29.694z" fill="#FFC111"/><use stroke="#6FD350" mask="url(#c)" stroke-width="4" stroke-linecap="round" stroke-linejoin="round" xlink:href="#a"/><use stroke="#6FD350" mask="url(#d)" stroke-width="4" stroke-linecap="round" stroke-linejoin="round" xlink:href="#b"/></g></svg>