<svg xmlns="http://www.w3.org/2000/svg" xmlns:xlink="http://www.w3.org/1999/xlink" width="461" height="212" viewBox="0 0 461 212"><defs><filter id="b" width="101.2%" height="103.3%" x="-.6%" y="-1.6%" filterUnits="objectBoundingBox"><feGaussianBlur in="SourceAlpha" result="shadowBlurInner1" stdDeviation="1.5"/><feOffset dy="1" in="shadowBlurInner1" result="shadowOffsetInner1"/><feComposite in="shadowOffsetInner1" in2="SourceAlpha" k2="-1" k3="1" operator="arithmetic" result="shadowInnerInner1"/><feColorMatrix in="shadowInnerInner1" values="0 0 0 0 0.105882353 0 0 0 0 0.180392157 0 0 0 0 0.356862745 0 0 0 0.1 0"/></filter><filter id="c" width="110.6%" height="133.3%" x="-5.3%" y="-14.6%" filterUnits="objectBoundingBox"><feOffset dy="2" in="SourceAlpha" result="shadowOffsetOuter1"/><feGaussianBlur in="shadowOffsetOuter1" result="shadowBlurOuter1" stdDeviation="5"/><feColorMatrix in="shadowBlurOuter1" values="0 0 0 0 0.207843137 0 0 0 0 0.258823529 0 0 0 0 0.329411765 0 0 0 0.101137908 0"/></filter><rect id="a" width="334" height="122" x="0" y="0" rx="8"/><rect id="d" width="302" height="96" x="0" y="0" rx="8"/><linearGradient id="f" x1="50%" x2="50%" y1="0%" y2="100%"><stop offset="0%" stop-color="#914EA9"/><stop offset="100%" stop-color="#153E7D"/></linearGradient><path id="e" d="M20 6.256l-.001-.716a30.346 30.346 0 00-.01-.604 8.77 8.77 0 00-.115-1.313 4.424 4.424 0 00-.411-1.25A4.196 4.196 0 0017.626.538a4.43 4.43 0 00-1.248-.411A8.78 8.78 0 0015.064.01a30.379 30.379 0 00-.604-.009L13.744 0H6.256L5.54.001c-.201.002-.403.004-.604.01-.438.011-.88.037-1.314.115a4.43 4.43 0 00-1.248.411A4.199 4.199 0 00.538 2.374c-.204.4-.333.809-.412 1.249a8.77 8.77 0 00-.115 1.313c-.006.201-.008.403-.01.604L0 6.256v7.488c0 .239 0 .477.002.716 0 .201.003.403.009.604.011.438.037.88.115 1.313.079.44.208.85.412 1.25a4.193 4.193 0 001.836 1.836c.4.203.809.332 1.248.411.434.078.876.104 1.314.116.201.005.403.007.604.009l.716.001h7.488l.716-.001c.202-.002.403-.004.604-.01a8.78 8.78 0 001.314-.115 4.43 4.43 0 001.248-.411 4.19 4.19 0 001.837-1.836c.203-.4.332-.81.411-1.25a8.77 8.77 0 00.116-1.313c.005-.201.007-.403.009-.604l.001-.716V6.256z"/></defs><g fill="none" fill-rule="evenodd"><use fill="#FFF" xlink:href="#a"/><use fill="#000" filter="url(#b)" xlink:href="#a"/><rect width="333" height="121" x=".5" y=".5" stroke="#E1E1E1" stroke-linejoin="square" rx="8"/><rect width="172" height="20" x="84" y="41" fill="#F1F1F1" rx="2"/><rect width="194" height="20" x="63" y="63" fill="#F1F1F1" rx="2"/><rect width="121" height="20" x="16" y="85" fill="#F1F1F1" rx="2"/><path fill="#384254" fill-rule="nonzero" d="M26.08 56H24.8l-6.224-8.512V56h-1.328V45.328h1.36l6.144 8.336v-8.336h1.328V56zm3.056-8.832a.806.806 0 01-.816-.8.82.82 0 01.816-.816c.448 0 .8.368.8.816 0 .448-.352.8-.8.8zM29.728 56h-1.2v-7.728h1.2V56zm5.808.192c-2.304 0-3.856-1.776-3.856-4.064 0-2.288 1.552-4.048 3.856-4.048 1.408 0 2.24.576 2.832 1.344l-.8.72c-.512-.704-1.168-.992-1.968-.992-1.632 0-2.672 1.264-2.672 2.976s1.04 2.992 2.672 2.992c.8 0 1.456-.32 1.968-1.008l.8.736c-.592.768-1.424 1.344-2.832 1.344zm8.032 0c-2.304 0-3.952-1.648-3.952-4.064 0-2.24 1.6-4.048 3.808-4.048 2.336 0 3.712 1.824 3.712 4.144v.304h-6.24C40.992 53.984 42 55.2 43.664 55.2c.896 0 1.776-.352 2.4-.992l.576.784c-.784.768-1.824 1.2-3.072 1.2zm2.384-4.56c-.016-1.136-.784-2.56-2.544-2.56-1.648 0-2.464 1.392-2.528 2.56h5.072zm10.64 4.56c-2.352 0-3.824-1.824-3.824-4.064s1.472-4.048 3.824-4.048 3.824 1.808 3.824 4.048-1.472 4.064-3.824 4.064zm0-1.072c1.648 0 2.56-1.408 2.56-2.992 0-1.568-.912-2.976-2.56-2.976-1.648 0-2.56 1.408-2.56 2.976 0 1.584.912 2.992 2.56 2.992zm12.192.88H67.6v-5.056c0-1.376-.704-1.792-1.744-1.792-.944 0-1.824.576-2.288 1.2V56h-1.2v-7.728h1.2v1.12c.544-.656 1.6-1.312 2.768-1.312 1.6 0 2.448.816 2.448 2.496V56zm5.92.192c-2.304 0-3.952-1.648-3.952-4.064 0-2.24 1.6-4.048 3.808-4.048 2.336 0 3.712 1.824 3.712 4.144v.304h-6.24c.096 1.456 1.104 2.672 2.768 2.672.896 0 1.776-.352 2.4-.992l.576.784c-.784.768-1.824 1.2-3.072 1.2zm2.384-4.56c-.016-1.136-.784-2.56-2.544-2.56-1.648 0-2.464 1.392-2.528 2.56h5.072zm16.759 4.692v.914h-.406c-1.054 0-1.76-.157-2.117-.47-.358-.313-.537-.937-.537-1.872v-1.27c0-.461-.13-.86-.39-1.193-.26-.335-.663-.502-1.21-.502h-.774v-.908h.775c.596 0 1.012-.141 1.247-.425.235-.283.352-.7.352-1.25v-1.65c0-.936.179-1.56.537-1.87.357-.311 1.063-.467 2.117-.467h.406v.908h-.445c-.592 0-.978.092-1.158.276-.18.184-.27.577-.27 1.178v1.7c0 .746-.146 1.246-.438 1.502-.292.256-.86.441-1.707.555.82.098 1.384.285 1.688.562.305.277.457.778.457 1.501v1.327c0 .605.09.999.27 1.18.18.183.566.274 1.158.274h.445zm7.826 0v.914h-.406c-1.054 0-1.76-.157-2.117-.47-.357-.313-.536-.937-.536-1.872v-1.27c0-.461-.13-.86-.39-1.193-.26-.335-.664-.502-1.21-.502h-.774v-.908h.774c.597 0 1.013-.141 1.248-.425.234-.283.352-.7.352-1.25v-1.65c0-.936.179-1.56.536-1.87.358-.311 1.063-.467 2.117-.467h.406v.908h-.444c-.592 0-.978.092-1.158.276-.18.184-.27.577-.27 1.178v1.7c0 .746-.146 1.246-.438 1.502-.292.256-.861.441-1.708.555.821.098 1.384.285 1.689.562.305.277.457.778.457 1.501v1.327c0 .605.09.999.27 1.18.18.183.566.274 1.158.274h.444zm10.34-3.015v-4.406h1.169v4.406c0 .639.113 1.108.34 1.409.226.3.576.45 1.05.45.55 0 .971-.193 1.263-.58.292-.388.438-.943.438-1.667v-4.018h1.174V56h-1.174v-1.066c-.207.41-.49.721-.847.933-.358.211-.776.317-1.254.317-.728 0-1.27-.238-1.625-.714s-.533-1.197-.533-2.161zm12.766-4.17v1.142a4.45 4.45 0 00-1.01-.438 3.727 3.727 0 00-1.034-.146c-.529 0-.924.085-1.184.257-.26.171-.39.433-.39.784 0 .317.097.554.292.71.194.157.679.31 1.453.458l.47.089c.58.11 1.019.33 1.317.66.299.33.448.76.448 1.288 0 .703-.25 1.252-.75 1.648-.499.395-1.193.593-2.081.593-.352 0-.72-.037-1.105-.111a10.1 10.1 0 01-1.25-.333v-1.206c.436.224.852.392 1.25.504.398.112.775.169 1.13.169.516 0 .916-.105 1.2-.315.283-.21.425-.502.425-.879 0-.541-.518-.916-1.555-1.123l-.05-.013-.439-.089c-.673-.131-1.164-.352-1.473-.663-.308-.311-.463-.736-.463-1.273 0-.681.23-1.207.692-1.577.461-.37 1.12-.556 1.974-.556a5.541 5.541 0 012.133.419zm8.76 2.722v.572h-5.06v.038c-.033.969.152 1.665.556 2.088.404.423.974.635 1.71.635.373 0 .762-.06 1.169-.178a7.04 7.04 0 001.3-.54v1.162a7.878 7.878 0 01-1.284.41 5.552 5.552 0 01-1.197.136c-1.104 0-1.968-.331-2.59-.993-.622-.663-.933-1.576-.933-2.74 0-1.133.305-2.04.914-2.716.61-.677 1.422-1.016 2.438-1.016.905 0 1.62.307 2.142.92.523.614.8 1.355.835 2.222zm-1.168-.342a2.263 2.263 0 00-.537-1.273c-.306-.358-.748-.537-1.323-.537-.563 0-1.026.187-1.39.56-.364.371-.563.79-.597 1.256l3.847-.006zm9.217-1.162a2.643 2.643 0 00-.762-.425 2.598 2.598 0 00-.85-.134c-.729 0-1.285.229-1.67.686-.385.457-.578 1.117-.578 1.98V56h-1.174v-7.11h1.174v1.39c.195-.503.494-.889.898-1.158.404-.268.884-.403 1.438-.403a2.9 2.9 0 01.806.108c.25.072.489.184.718.337v1.193zm2.964 3.079h2.234V56h-2.234v-2.564zm12.105-7.313v.971h-1.327c-.419 0-.71.086-.873.257-.163.172-.244.475-.244.911v.629h2.444v.907h-2.444V56h-1.168v-6.202h-1.898v-.907h1.898v-.495c0-.78.179-1.353.536-1.72.358-.369.916-.553 1.673-.553h1.403zm3.085 2.793h2.99v6.176h2.316V56h-5.801v-.908h2.317v-5.268h-1.822v-.908zm1.822-2.761h1.168v1.472h-1.168v-1.472zm11.33 4.202a2.643 2.643 0 00-.762-.425 2.598 2.598 0 00-.85-.134c-.728 0-1.285.229-1.67.686-.385.457-.577 1.117-.577 1.98V56h-1.175v-7.11h1.175v1.39c.194-.503.494-.889.898-1.158.404-.268.883-.403 1.438-.403a2.9 2.9 0 01.806.108c.25.072.489.184.717.337v1.193zm6.672-1.219v1.143a4.45 4.45 0 00-1.01-.438 3.726 3.726 0 00-1.034-.146c-.53 0-.924.085-1.184.257-.26.171-.39.433-.39.784 0 .317.097.554.291.71.195.157.68.31 1.454.458l.47.089c.58.11 1.018.33 1.317.66.298.33.447.76.447 1.288 0 .703-.25 1.252-.749 1.648-.499.395-1.193.593-2.082.593-.35 0-.72-.037-1.104-.111a10.1 10.1 0 01-1.25-.333v-1.206a6.73 6.73 0 001.25.504c.398.112.774.169 1.13.169.516 0 .916-.105 1.2-.315.283-.21.425-.502.425-.879 0-.541-.519-.916-1.555-1.123l-.051-.013-.438-.089c-.673-.131-1.164-.352-1.473-.663-.309-.311-.463-.736-.463-1.273 0-.681.23-1.207.692-1.577.46-.37 1.119-.556 1.974-.556a5.541 5.541 0 012.133.419zm5.547-2.266v2.019h2.654v.907h-2.654v3.86c0 .524.1.89.299 1.098.199.207.546.31 1.04.31h1.315V56h-1.429c-.875 0-1.493-.176-1.853-.527-.36-.351-.54-.956-.54-1.815v-3.86h-1.898v-.907h1.898v-2.019h1.168zm11.7 10.334v1.08h-7.77v-1.08h7.77zm6.728-5.611V56h-1.175v-4.405c0-.64-.112-1.109-.336-1.41-.224-.3-.576-.45-1.054-.45-.546 0-.966.193-1.26.58-.294.388-.441.943-.441 1.667V56h-1.168v-7.11h1.168v1.067a2.2 2.2 0 01.844-.924c.356-.209.777-.314 1.263-.314.724 0 1.265.238 1.622.714.358.476.537 1.197.537 2.162zm6.703.831h-1.48c-.68 0-1.194.12-1.539.359-.344.239-.517.596-.517 1.07 0 .427.13.76.387.996.258.237.616.356 1.073.356.643 0 1.149-.224 1.517-.67.368-.447.555-1.063.559-1.85v-.26zm1.174-.482V56h-1.174v-1.054c-.25.423-.564.736-.943.937-.379.2-.839.301-1.38.301-.724 0-1.302-.204-1.733-.612-.432-.409-.648-.956-.648-1.641 0-.792.266-1.393.797-1.803.53-.41 1.31-.616 2.339-.616h1.568v-.184c-.004-.567-.148-.978-.432-1.234-.283-.257-.736-.385-1.358-.385-.398 0-.8.058-1.206.172a5.256 5.256 0 00-1.187.501v-1.168a8.14 8.14 0 011.24-.371c.396-.083.78-.124 1.153-.124.588 0 1.09.087 1.507.26a2.37 2.37 0 011.013.781c.16.212.275.473.343.784.067.311.101.778.101 1.4zm5.396-2.33c.143-.304.326-.53.549-.676a1.43 1.43 0 01.803-.219c.57 0 .974.221 1.209.664.235.442.352 1.274.352 2.497V56h-1.066v-4.069c0-1.003-.056-1.626-.168-1.87-.113-.243-.317-.364-.613-.364-.339 0-.57.13-.695.39s-.187.875-.187 1.844V56h-1.067v-4.069c0-1.015-.06-1.642-.18-1.879-.121-.237-.338-.355-.651-.355-.31 0-.524.13-.645.39-.12.26-.18.875-.18 1.844V56h-1.06v-7.11h1.06v.61a1.56 1.56 0 01.523-.58c.21-.134.448-.2.714-.2.322 0 .59.073.803.221.214.149.38.373.499.673zm10.645 2.247v.572h-5.06v.038c-.033.969.152 1.665.556 2.088.404.423.974.635 1.71.635.373 0 .762-.06 1.169-.178a7.04 7.04 0 001.3-.54v1.162a7.878 7.878 0 01-1.285.41 5.552 5.552 0 01-1.196.136c-1.105 0-1.968-.331-2.59-.993-.622-.663-.933-1.576-.933-2.74 0-1.133.305-2.04.914-2.716.61-.677 1.422-1.016 2.438-1.016.905 0 1.62.307 2.142.92.523.614.8 1.355.835 2.222zm-1.168-.342a2.263 2.263 0 00-.537-1.273c-.307-.358-.748-.537-1.323-.537-.563 0-1.026.187-1.39.56-.364.371-.563.79-.597 1.256l3.847-.006zm11.546 4.805c.592 0 .979-.091 1.158-.273.18-.182.27-.576.27-1.18v-1.328c0-.723.153-1.224.457-1.5.305-.278.868-.465 1.689-.563-.847-.114-1.416-.299-1.708-.555-.292-.256-.438-.756-.438-1.501v-1.701c0-.601-.09-.994-.27-1.178-.18-.184-.566-.276-1.158-.276h-.444v-.908h.406c1.054 0 1.76.156 2.117.467.357.31.536.934.536 1.87v1.65c0 .55.118.967.353 1.25.234.284.65.425 1.247.425h.774v.908h-.774c-.546 0-.95.167-1.21.502-.26.334-.39.732-.39 1.193v1.27c0 .935-.179 1.559-.536 1.872-.358.313-1.063.47-2.117.47h-.406v-.914h.444zm7.827 0c.592 0 .978-.091 1.158-.273.18-.182.27-.576.27-1.18v-1.328c0-.723.152-1.224.457-1.5.305-.278.867-.465 1.688-.563-.846-.114-1.415-.299-1.707-.555-.292-.256-.438-.756-.438-1.501v-1.701c0-.601-.09-.994-.27-1.178-.18-.184-.566-.276-1.158-.276h-.445v-.908h.407c1.053 0 1.759.156 2.117.467.357.31.536.934.536 1.87v1.65c0 .55.117.967.352 1.25.235.284.65.425 1.248.425h.774v.908h-.774c-.546 0-.95.167-1.21.502-.26.334-.39.732-.39 1.193v1.27c0 .935-.179 1.559-.536 1.872-.358.313-1.064.47-2.117.47h-.407v-.914h.445zm15.659-.164c-.48 0-.88-.4-.88-.88s.4-.88.88-.88.88.4.88.88-.4.88-.88.88zm11.68-.16h-1.328v-4.512l-4.208-6.16h1.552l3.312 4.96 3.312-4.96h1.552l-4.192 6.16V56zm6.88.192c-2.352 0-3.824-1.824-3.824-4.064s1.472-4.048 3.824-4.048 3.824 1.808 3.824 4.048-1.472 4.064-3.824 4.064zm0-1.072c1.648 0 2.56-1.408 2.56-2.992 0-1.568-.912-2.976-2.56-2.976-1.648 0-2.56 1.408-2.56 2.976 0 1.584.912 2.992 2.56 2.992zm12.192.88h-1.2v-1.088c-.592.672-1.6 1.28-2.752 1.28-1.616 0-2.464-.8-2.464-2.464v-5.456h1.2v5.088c0 1.36.688 1.76 1.744 1.76.928 0 1.824-.544 2.272-1.168v-5.68h1.2V56zM19.664 78.192c-1.28 0-2.336-.4-3.12-1.216l.608-.864c.512.592 1.488 1.104 2.544 1.104 1.184 0 1.84-.56 1.84-1.328 0-1.872-4.784-.72-4.784-3.584 0-1.216 1.024-2.224 2.864-2.224 1.328 0 2.256.496 2.864 1.12l-.56.832c-.464-.56-1.296-.976-2.304-.976-1.056 0-1.712.528-1.712 1.216 0 1.68 4.784.576 4.784 3.584 0 1.296-1.04 2.336-3.024 2.336zM30.672 78h-1.2v-.88c-.624.704-1.52 1.072-2.56 1.072-1.296 0-2.688-.88-2.688-2.56 0-1.744 1.376-2.544 2.688-2.544 1.056 0 1.936.336 2.56 1.04v-1.392c0-1.024-.832-1.616-1.952-1.616-.928 0-1.68.32-2.368 1.072l-.56-.832c.832-.864 1.824-1.28 3.088-1.28 1.648 0 2.992.736 2.992 2.608V78zm-3.312-.672c.832 0 1.648-.32 2.112-.96v-1.472c-.464-.624-1.28-.944-2.112-.944-1.136 0-1.92.704-1.92 1.68 0 .992.784 1.696 1.92 1.696zm9.104.672h-1.312l-3.216-7.728h1.312l2.56 6.336 2.576-6.336h1.296L36.464 78zm7.968.192c-2.304 0-3.952-1.648-3.952-4.064 0-2.24 1.6-4.048 3.808-4.048 2.336 0 3.712 1.824 3.712 4.144v.304h-6.24c.096 1.456 1.104 2.672 2.768 2.672.896 0 1.776-.352 2.4-.992l.576.784c-.784.768-1.824 1.2-3.072 1.2zm2.384-4.56c-.016-1.136-.784-2.56-2.544-2.56-1.648 0-2.464 1.392-2.528 2.56h5.072zM56.736 78h-1.2v-1.152c-.576.784-1.52 1.344-2.608 1.344-2.016 0-3.44-1.536-3.44-4.048 0-2.48 1.424-4.064 3.44-4.064 1.04 0 1.984.512 2.608 1.36v-4.112h1.2V78zm-3.504-.88c.944 0 1.888-.56 2.304-1.232V72.4c-.416-.672-1.36-1.248-2.304-1.248-1.568 0-2.496 1.28-2.496 2.992s.928 2.976 2.496 2.976zm19.543 1.204v.914h-.406c-1.054 0-1.76-.157-2.117-.47-.358-.313-.537-.937-.537-1.872v-1.27c0-.461-.13-.86-.39-1.193-.26-.335-.663-.502-1.21-.502h-.774v-.908h.775c.596 0 1.012-.141 1.247-.425.235-.283.352-.7.352-1.25v-1.65c0-.936.179-1.56.537-1.87.357-.311 1.063-.467 2.117-.467h.406v.908h-.445c-.592 0-.978.092-1.158.276-.18.184-.27.577-.27 1.178v1.7c0 .746-.146 1.246-.438 1.502-.292.256-.86.441-1.707.555.82.098 1.384.285 1.688.562.305.277.457.778.457 1.501v1.327c0 .605.09.999.27 1.18.18.183.566.274 1.158.274h.445zm7.826 0v.914h-.406c-1.054 0-1.76-.157-2.117-.47-.357-.313-.536-.937-.536-1.872v-1.27c0-.461-.13-.86-.39-1.193-.26-.335-.664-.502-1.21-.502h-.774v-.908h.774c.597 0 1.013-.141 1.248-.425.234-.283.352-.7.352-1.25v-1.65c0-.936.179-1.56.536-1.87.358-.311 1.063-.467 2.117-.467h.406v.908h-.444c-.592 0-.978.092-1.158.276-.18.184-.27.577-.27 1.178v1.7c0 .746-.146 1.246-.438 1.502-.292.256-.861.441-1.708.555.821.098 1.384.285 1.689.562.305.277.457.778.457 1.501v1.327c0 .605.09.999.27 1.18.18.183.566.274 1.158.274h.444zm16.212-4.463v.572h-5.059v.038c-.034.969.152 1.665.556 2.088.404.423.974.635 1.71.635.373 0 .762-.06 1.168-.178.407-.118.84-.298 1.302-.54v1.162a7.879 7.879 0 01-1.286.41 5.552 5.552 0 01-1.196.136c-1.105 0-1.968-.331-2.59-.993-.622-.663-.933-1.576-.933-2.74 0-1.133.304-2.039.914-2.716.61-.677 1.422-1.016 2.437-1.016.906 0 1.62.307 2.143.92.522.614.8 1.355.834 2.222zm-1.168-.342a2.262 2.262 0 00-.536-1.273c-.307-.358-.748-.537-1.323-.537-.563 0-1.027.187-1.39.56-.365.371-.563.79-.597 1.256l3.846-.006zm2.52-2.628h1.213l2.063 5.966 2.07-5.966h1.212L102.196 78h-1.504l-2.527-7.11zm14.302 2.97v.572h-5.06v.038c-.033.969.152 1.665.556 2.088.404.423.974.635 1.71.635.373 0 .762-.06 1.169-.178a7.04 7.04 0 001.3-.54v1.162a7.878 7.878 0 01-1.284.41 5.552 5.552 0 01-1.197.136c-1.104 0-1.968-.331-2.59-.993-.622-.663-.933-1.576-.933-2.74 0-1.133.305-2.039.914-2.716.61-.677 1.422-1.016 2.438-1.016.905 0 1.62.307 2.142.92.523.614.8 1.355.835 2.222zm-1.168-.342a2.263 2.263 0 00-.537-1.273c-.306-.358-.748-.537-1.323-.537-.563 0-1.026.187-1.39.56-.364.371-.563.79-.597 1.256l3.847-.006zm8.556.076V78h-1.174v-4.405c0-.64-.112-1.109-.336-1.41-.225-.3-.576-.45-1.054-.45-.546 0-.966.193-1.26.58-.294.388-.441.943-.441 1.667V78h-1.168v-7.11h1.168v1.067a2.2 2.2 0 01.844-.924c.355-.209.776-.314 1.263-.314.724 0 1.264.238 1.622.714.358.476.536 1.197.536 2.162zm5.053-4.723v2.019h2.653v.907h-2.653v3.86c0 .524.1.89.298 1.098.2.207.546.31 1.041.31h1.314V78h-1.428c-.876 0-1.494-.176-1.853-.527-.36-.351-.54-.956-.54-1.815v-3.86h-1.898v-.907h1.898v-2.019h1.168zm6.399 6.564h2.234V78h-2.234v-2.564zm11.533-4.298v1.143a4.45 4.45 0 00-1.01-.438 3.727 3.727 0 00-1.034-.146c-.529 0-.923.085-1.184.257-.26.171-.39.433-.39.784 0 .317.097.554.292.71.195.157.68.31 1.454.458l.47.089c.58.11 1.018.33 1.317.66.298.33.447.76.447 1.288 0 .703-.25 1.252-.749 1.648-.5.395-1.193.593-2.082.593-.351 0-.72-.037-1.105-.111a10.1 10.1 0 01-1.25-.333v-1.206c.436.224.853.392 1.25.504.398.112.775.169 1.13.169.517 0 .917-.105 1.2-.315.284-.21.425-.502.425-.879 0-.541-.518-.916-1.555-1.123l-.05-.013-.439-.089c-.672-.131-1.163-.352-1.472-.663-.31-.311-.464-.736-.464-1.273 0-.681.231-1.207.692-1.577.462-.37 1.12-.556 1.974-.556a5.541 5.541 0 012.133.419zm7.198 3.288h-1.479c-.68 0-1.194.12-1.539.359s-.517.596-.517 1.07c0 .427.129.76.387.996.258.237.616.356 1.073.356.643 0 1.149-.224 1.517-.67.368-.447.554-1.063.558-1.85v-.26zm1.175-.482V78h-1.175v-1.054c-.25.423-.563.736-.942.937-.379.2-.84.301-1.38.301-.724 0-1.302-.204-1.734-.612-.431-.409-.647-.956-.647-1.641 0-.792.265-1.393.796-1.803.532-.41 1.311-.616 2.34-.616h1.567v-.184c-.004-.567-.148-.978-.431-1.234-.284-.257-.737-.385-1.359-.385-.397 0-.8.058-1.206.172a5.256 5.256 0 00-1.187.501v-1.168a8.14 8.14 0 011.241-.371 5.61 5.61 0 011.152-.124c.589 0 1.091.087 1.508.26a2.37 2.37 0 011.012.781c.161.212.275.473.343.784.068.311.102.778.102 1.4zm1.739-3.053h1.212l2.063 5.966 2.07-5.966h1.212L156.983 78h-1.505l-2.526-7.11zm9.198.025h2.99v6.176h2.316V78h-5.801v-.908h2.317v-5.268h-1.822v-.908zm1.822-2.761h1.168v1.472h-1.168v-1.472zm10.67 5.44V78h-1.174v-4.405c0-.64-.112-1.109-.337-1.41-.224-.3-.575-.45-1.053-.45-.546 0-.966.193-1.26.58-.295.388-.442.943-.442 1.667V78h-1.168v-7.11h1.168v1.067a2.2 2.2 0 01.845-.924c.355-.209.776-.314 1.263-.314.723 0 1.264.238 1.622.714.357.476.536 1.197.536 2.162zm6.602.793c0-.876-.143-1.541-.429-1.996-.286-.455-.701-.683-1.247-.683-.572 0-1.007.228-1.308.683-.3.455-.45 1.12-.45 1.996 0 .876.15 1.544.453 2.003.303.459.742.689 1.317.689.538 0 .95-.231 1.235-.692.286-.462.429-1.128.429-2zm1.167 3.155c0 1.066-.251 1.875-.755 2.425-.503.55-1.244.825-2.222.825-.321 0-.658-.03-1.009-.089a7.362 7.362 0 01-1.054-.26v-1.155c.415.194.792.338 1.13.431.339.093.65.14.933.14.631 0 1.09-.172 1.378-.514.288-.343.432-.887.432-1.632v-.844c-.187.398-.44.694-.762.889-.322.194-.713.292-1.175.292-.829 0-1.491-.332-1.986-.997-.495-.664-.743-1.553-.743-2.666 0-1.117.248-2.008.743-2.672.495-.665 1.157-.997 1.986-.997.458 0 .845.091 1.162.273.318.182.576.464.775.844v-.92h1.167v6.627zm8.982 1.663v1.08h-7.77v-1.08h7.77zm5.605-4.78h-1.479c-.68 0-1.194.12-1.539.359s-.517.596-.517 1.07c0 .427.129.76.387.996.258.237.616.356 1.073.356.643 0 1.149-.224 1.517-.67.368-.447.554-1.063.558-1.85v-.26zm1.175-.482V78h-1.175v-1.054c-.25.423-.563.736-.942.937-.379.2-.84.301-1.38.301-.724 0-1.302-.204-1.734-.612-.431-.409-.647-.956-.647-1.641 0-.792.265-1.393.796-1.803.532-.41 1.311-.616 2.34-.616h1.567v-.184c-.004-.567-.148-.978-.431-1.234-.284-.257-.737-.385-1.359-.385-.397 0-.8.058-1.206.172a5.256 5.256 0 00-1.187.501v-1.168a8.14 8.14 0 011.241-.371 5.61 5.61 0 011.152-.124c.589 0 1.091.087 1.508.26a2.37 2.37 0 011.012.781c.161.212.275.473.343.784.068.311.102.778.102 1.4zm5.395-2.33c.144-.304.327-.53.55-.676a1.43 1.43 0 01.802-.219c.572 0 .975.221 1.21.664.234.442.352 1.274.352 2.497V78h-1.067v-4.069c0-1.003-.056-1.626-.168-1.87-.112-.243-.316-.364-.612-.364-.339 0-.57.13-.695.39s-.188.875-.188 1.844V78h-1.066v-4.069c0-1.015-.06-1.642-.181-1.879-.12-.237-.337-.355-.65-.355-.31 0-.524.13-.645.39-.12.26-.18.875-.18 1.844V78h-1.06v-7.11h1.06v.61a1.56 1.56 0 01.523-.58c.21-.134.447-.2.714-.2.322 0 .59.073.803.221.214.149.38.373.498.673zm7.446.095c-.592 0-1.041.231-1.346.692-.304.462-.457 1.145-.457 2.05 0 .902.153 1.584.457 2.048.305.463.754.695 1.346.695.597 0 1.047-.232 1.352-.695.305-.464.457-1.146.457-2.047 0-.906-.152-1.59-.457-2.05-.305-.462-.755-.693-1.352-.693zm0-.99c.986 0 1.74.32 2.263.959.523.639.784 1.563.784 2.774 0 1.214-.26 2.14-.78 2.777-.521.637-1.277.955-2.267.955-.986 0-1.74-.318-2.26-.955-.52-.637-.78-1.563-.78-2.777 0-1.21.26-2.135.78-2.774.52-.64 1.274-.959 2.26-.959zm5.154 4.59v-4.406h1.168v4.406c0 .639.114 1.108.34 1.409.226.3.576.45 1.05.45.55 0 .972-.193 1.264-.58.292-.388.438-.943.438-1.667v-4.018h1.174V78h-1.174v-1.066c-.208.41-.49.721-.848.933-.357.211-.775.317-1.253.317-.728 0-1.27-.238-1.625-.714-.356-.476-.534-1.197-.534-2.161zm13.26-1.714V78h-1.174v-4.405c0-.64-.112-1.109-.336-1.41-.224-.3-.576-.45-1.054-.45-.546 0-.966.193-1.26.58-.294.388-.441.943-.441 1.667V78h-1.168v-7.11h1.168v1.067a2.2 2.2 0 01.844-.924c.356-.209.777-.314 1.263-.314.724 0 1.265.238 1.622.714.358.476.537 1.197.537 2.162zm5.053-4.723v2.019h2.654v.907h-2.654v3.86c0 .524.1.89.299 1.098.199.207.546.31 1.04.31h1.315V78h-1.429c-.876 0-1.493-.176-1.853-.527-.36-.351-.54-.956-.54-1.815v-3.86h-1.898v-.907h1.898v-2.019h1.168zm16.466-.806v13h-1.092v-13h1.092zM26.207 99.105v3.6h-1.174V92.89h1.174v.907a2.04 2.04 0 01.778-.803 2.227 2.227 0 011.12-.276c.859 0 1.533.332 2.022.997.488.664.733 1.585.733 2.761 0 1.155-.246 2.062-.736 2.72-.491.658-1.164.987-2.019.987-.432 0-.81-.092-1.133-.276a1.948 1.948 0 01-.765-.803zm3.428-2.653c0-.906-.143-1.59-.429-2.05-.285-.462-.71-.693-1.272-.693-.567 0-.997.232-1.289.696-.292.463-.438 1.145-.438 2.047 0 .897.146 1.578.438 2.044.292.465.722.698 1.289.698.562 0 .987-.23 1.272-.692.286-.461.429-1.145.429-2.05zm9.35-2.095a2.643 2.643 0 00-.762-.425 2.598 2.598 0 00-.85-.134c-.728 0-1.285.229-1.67.686-.385.457-.578 1.117-.578 1.98V100h-1.174v-7.11h1.174v1.39c.195-.503.495-.889.899-1.158.404-.268.883-.403 1.437-.403a2.9 2.9 0 01.807.108c.25.072.488.184.717.337v1.193zm7.604 1.504v.572H41.53v.038c-.034.969.152 1.665.556 2.088.404.423.974.635 1.71.635.373 0 .762-.06 1.168-.178.407-.118.84-.298 1.302-.54v1.162a7.878 7.878 0 01-1.286.41 5.552 5.552 0 01-1.196.136c-1.105 0-1.968-.331-2.59-.993-.622-.663-.933-1.576-.933-2.74 0-1.133.304-2.039.914-2.716.61-.677 1.422-1.016 2.437-1.016.906 0 1.62.307 2.143.92.522.614.8 1.355.834 2.222zm-1.168-.342a2.262 2.262 0 00-.536-1.273c-.307-.358-.748-.537-1.323-.537-.563 0-1.027.187-1.39.56-.365.371-.563.79-.597 1.256l3.846-.006zm4.266 3.586v3.6h-1.174V92.89h1.174v.907a2.04 2.04 0 01.778-.803 2.227 2.227 0 011.12-.276c.859 0 1.533.332 2.022.997.488.664.733 1.585.733 2.761 0 1.155-.246 2.062-.736 2.72-.491.658-1.164.987-2.019.987-.432 0-.81-.092-1.133-.276a1.948 1.948 0 01-.765-.803zm3.428-2.653c0-.906-.143-1.59-.429-2.05-.285-.462-.71-.693-1.272-.693-.567 0-.997.232-1.289.696-.292.463-.438 1.145-.438 2.047 0 .897.146 1.578.438 2.044.292.465.722.698 1.289.698.562 0 .987-.23 1.272-.692.286-.461.429-1.145.429-2.05zm9.128-.59v.57h-5.06v.039c-.033.969.152 1.665.556 2.088.404.423.974.635 1.71.635.373 0 .762-.06 1.169-.178a7.04 7.04 0 001.3-.54v1.162a7.878 7.878 0 01-1.284.41 5.552 5.552 0 01-1.197.136c-1.104 0-1.968-.331-2.59-.993-.622-.663-.933-1.576-.933-2.74 0-1.133.305-2.039.914-2.716.61-.677 1.422-1.016 2.438-1.016.905 0 1.62.307 2.142.92.523.614.8 1.355.835 2.222zm-1.168-.343a2.263 2.263 0 00-.537-1.273c-.306-.358-.748-.537-1.323-.537-.563 0-1.026.187-1.39.56-.364.371-.563.79-.597 1.256l3.847-.006zm8.556.076V100h-1.174v-4.405c0-.64-.112-1.109-.336-1.41-.225-.3-.576-.45-1.054-.45-.546 0-.966.193-1.26.58-.294.388-.441.943-.441 1.667V100h-1.168v-7.11h1.168v1.067a2.2 2.2 0 01.844-.924c.355-.209.776-.314 1.263-.314.724 0 1.264.238 1.622.714.358.476.536 1.197.536 2.162zm6.602-1.797v-3.675H77.4V100h-1.168v-.895a2.031 2.031 0 01-.778.803 2.227 2.227 0 01-1.12.276c-.86 0-1.535-.333-2.028-1-.493-.666-.74-1.586-.74-2.758 0-1.155.248-2.062.743-2.72.495-.658 1.17-.987 2.025-.987.427 0 .804.092 1.13.276.326.184.582.452.768.803zm-3.434 2.654c0 .905.144 1.589.431 2.05.288.461.714.692 1.276.692.563 0 .992-.233 1.286-.698.294-.466.44-1.147.44-2.044 0-.902-.146-1.584-.44-2.047-.294-.464-.723-.696-1.286-.696-.562 0-.988.231-1.276.692-.287.462-.431 1.145-.431 2.05zm16.669-6.85l1.783 2.387h-.977l-2.063-2.386h1.257zm9.191 6.716v2.755c.466-.012.83-.142 1.092-.387.262-.245.394-.58.394-1.003 0-.393-.119-.7-.356-.917-.237-.218-.614-.367-1.13-.448zm-.635-1.206v-2.621c-.44.017-.784.144-1.031.38-.248.238-.371.555-.371.953 0 .364.115.651.346.863.23.212.582.353 1.056.425zm.635 6.799h-.635L98.018 100a7.368 7.368 0 01-1.285-.178 7.727 7.727 0 01-1.26-.406v-1.143c.423.263.85.464 1.279.603.43.14.853.214 1.272.223V96.19c-.846-.13-1.483-.389-1.91-.774-.428-.385-.641-.895-.641-1.53 0-.664.223-1.194.67-1.59.446-.396 1.073-.623 1.881-.682v-1.492h.635l.007 1.492c.334.02.672.063 1.015.127.343.063.692.15 1.048.26V93.1a6.157 6.157 0 00-1.051-.422 4.38 4.38 0 00-1.019-.175v2.736c.872.131 1.536.402 1.993.813.457.41.686.941.686 1.593s-.247 1.195-.74 1.631c-.493.436-1.137.673-1.932.711l-.007 1.924zm6.462-12.308l1.784 2.386h-.978l-2.063-2.386h1.257zm14.46 10.72c.593 0 .979-.09 1.159-.272.18-.182.27-.576.27-1.18v-1.328c0-.723.152-1.224.456-1.5.305-.278.868-.465 1.689-.563-.847-.114-1.416-.299-1.708-.555-.292-.256-.438-.756-.438-1.501v-1.701c0-.601-.09-.994-.27-1.178-.18-.184-.565-.276-1.158-.276h-.444v-.908h.406c1.054 0 1.76.156 2.117.467.357.31.536.934.536 1.87v1.65c0 .55.118.967.353 1.25.234.284.65.425 1.247.425h.774v.908h-.774c-.546 0-.95.167-1.21.502-.26.334-.39.732-.39 1.193v1.27c0 .935-.179 1.559-.536 1.872-.358.313-1.063.47-2.117.47h-.406v-.914h.444zm7.827 0c.592 0 .978-.09 1.158-.272.18-.182.27-.576.27-1.18v-1.328c0-.723.152-1.224.457-1.5.305-.278.867-.465 1.688-.563-.846-.114-1.415-.299-1.707-.555-.292-.256-.438-.756-.438-1.501v-1.701c0-.601-.09-.994-.27-1.178-.18-.184-.566-.276-1.158-.276h-.445v-.908h.407c1.053 0 1.759.156 2.117.467.357.31.536.934.536 1.87v1.65c0 .55.117.967.352 1.25.235.284.65.425 1.248.425h.774v.908h-.774c-.546 0-.95.167-1.21.502-.26.334-.39.732-.39 1.193v1.27c0 .935-.179 1.559-.536 1.872-.358.313-1.064.47-2.117.47h-.407v-.914h.445zm17.448-.131c-1.152 0-1.728-.656-1.728-1.808v-5.056h-1.28v-1.056h1.28V90.16h1.216v2.112h1.568v1.056h-1.568v4.8c0 .576.256.992.768.992.352 0 .656-.16.816-.336l.352.912c-.304.288-.736.496-1.424.496zm9.168-.192h-1.2v-5.088c0-1.376-.688-1.76-1.744-1.76-.928 0-1.824.576-2.272 1.2V100h-1.2V89.328h1.2v4.064c.528-.656 1.584-1.312 2.752-1.312 1.616 0 2.464.784 2.464 2.464V100zm3.008-8.832a.806.806 0 01-.816-.8.82.82 0 01.816-.816c.448 0 .8.368.8.816 0 .448-.352.8-.8.8zm.592 8.832h-1.2v-7.728h1.2V100zm4.864.192c-1.28 0-2.336-.4-3.12-1.216l.608-.864c.512.592 1.488 1.104 2.544 1.104 1.184 0 1.84-.56 1.84-1.328 0-1.872-4.784-.72-4.784-3.584 0-1.216 1.024-2.224 2.864-2.224 1.328 0 2.256.496 2.864 1.12l-.56.832c-.464-.56-1.296-.976-2.304-.976-1.056 0-1.712.528-1.712 1.216 0 1.68 4.784.576 4.784 3.584 0 1.296-1.04 2.336-3.024 2.336zm17.024-.192h-1.216l-2.016-6.208-2.016 6.208h-1.2l-2.464-7.728h1.248l1.888 6.16 2.032-6.16h1.04l2.016 6.16 1.888-6.16h1.264L179.512 100zm7.344.192c-2.304 0-3.952-1.648-3.952-4.064 0-2.24 1.6-4.048 3.808-4.048 2.336 0 3.712 1.824 3.712 4.144v.304h-6.24c.096 1.456 1.104 2.672 2.768 2.672.896 0 1.776-.352 2.4-.992l.576.784c-.784.768-1.824 1.2-3.072 1.2zm2.384-4.56c-.016-1.136-.784-2.56-2.544-2.56-1.648 0-2.464 1.392-2.528 2.56h5.072zm6.624 4.56c-2.304 0-3.952-1.648-3.952-4.064 0-2.24 1.6-4.048 3.808-4.048 2.336 0 3.712 1.824 3.712 4.144v.304h-6.24c.096 1.456 1.104 2.672 2.768 2.672.896 0 1.776-.352 2.4-.992l.576.784c-.784.768-1.824 1.2-3.072 1.2zm2.384-4.56c-.016-1.136-.784-2.56-2.544-2.56-1.648 0-2.464 1.392-2.528 2.56h5.072zm9.92 4.368h-1.536l-2.768-3.472-1.296 1.264V100h-1.2V89.328h1.2v7.056l4.064-4.112h1.52l-3.424 3.504 3.44 4.224zm2.064.16c-.48 0-.88-.4-.88-.88s.4-.88.88-.88.88.4.88.88-.4.88-.88.88zM22.272 32.208c-3.104 0-5.6-2.192-5.6-5.536 0-3.36 2.496-5.52 5.6-5.52 2.08 0 3.44.992 4.288 2.208l-1.52.88a3.444 3.444 0 00-2.768-1.424c-2.112 0-3.68 1.6-3.68 3.856 0 2.224 1.568 3.856 3.68 3.856 1.088 0 2.048-.496 2.528-.96V27.92h-3.2v-1.648h5.056v3.984c-1.04 1.168-2.544 1.952-4.384 1.952zm9.792-.016c-2.464 0-3.968-1.856-3.968-4.064 0-2.224 1.504-4.048 3.968-4.048s3.968 1.824 3.968 4.048c0 2.208-1.504 4.064-3.968 4.064zm0-1.488c1.44 0 2.224-1.2 2.224-2.576 0-1.36-.784-2.56-2.224-2.56-1.424 0-2.224 1.2-2.224 2.56 0 1.376.8 2.576 2.224 2.576zm9.184 1.488c-2.464 0-3.968-1.856-3.968-4.064 0-2.224 1.504-4.048 3.968-4.048s3.968 1.824 3.968 4.048c0 2.208-1.504 4.064-3.968 4.064zm0-1.488c1.44 0 2.224-1.2 2.224-2.576 0-1.36-.784-2.56-2.224-2.56-1.424 0-2.224 1.2-2.224 2.56 0 1.376.8 2.576 2.224 2.576zM54.048 32h-1.68v-1.056c-.592.768-1.472 1.248-2.48 1.248-1.968 0-3.424-1.504-3.424-4.064 0-2.496 1.44-4.048 3.424-4.048.976 0 1.872.432 2.48 1.264v-4.016h1.68V32zm-3.664-1.296c.784 0 1.616-.464 1.984-1.04v-3.056c-.368-.576-1.2-1.04-1.984-1.04-1.344 0-2.192 1.072-2.192 2.56 0 1.504.848 2.576 2.192 2.576zM69.648 32H67.84l-5.568-7.632V32H60.4V21.328h1.92l5.456 7.392v-7.392h1.872V32zm5.808.192c-2.336 0-4.048-1.616-4.048-4.064 0-2.24 1.632-4.048 3.92-4.048 2.32 0 3.792 1.76 3.792 4.192v.416h-5.952c.128 1.152.992 2.128 2.448 2.128.768 0 1.648-.304 2.208-.864l.768 1.104c-.784.736-1.92 1.136-3.136 1.136zm2.048-4.704c-.048-.912-.672-2.032-2.192-2.032-1.424 0-2.096 1.104-2.16 2.032h4.352zM89.296 32h-1.76l-1.808-5.664L83.936 32h-1.76l-2.4-7.728h1.744l1.632 5.616 1.84-5.616h1.488l1.824 5.616 1.632-5.616h1.76L89.296 32zm6.224.192c-1.328 0-2.512-.432-3.312-1.216l.768-1.2c.544.56 1.616 1.072 2.608 1.072 1.008 0 1.536-.416 1.536-1.024 0-1.52-4.672-.432-4.672-3.408 0-1.264 1.088-2.336 3.04-2.336 1.312 0 2.304.464 2.992 1.072l-.704 1.184c-.464-.512-1.312-.928-2.288-.928-.88 0-1.424.416-1.424.96 0 1.36 4.672.336 4.672 3.408 0 1.376-1.136 2.416-3.216 2.416zm6.496-3.472h-1.456l-.304-7.392h2.048l-.288 7.392zm-.72 3.44c-.608 0-1.12-.512-1.12-1.12 0-.592.512-1.104 1.12-1.104.608 0 1.104.512 1.104 1.104a1.12 1.12 0 01-1.104 1.12z"/><g transform="translate(149 104)"><use fill="#000" filter="url(#c)" xlink:href="#d"/><use fill="#FFF" xlink:href="#d"/><g transform="translate(16 16)"><mask id="g" fill="#fff"><use xlink:href="#e"/></mask><path fill="url(#f)" mask="url(#g)" d="M0 0h20v20H0z"/><path fill="#FFF" fill-rule="nonzero" mask="url(#g)" d="M9.257 5.684l-2.073.072-.566 3.161H5.4l.246-4.191h9.353l.174 4.191h-1.146l-.565-3.161-2.044-.072v8.801l2.029.145v.87H7.401v-.87l1.856-.145z"/></g><path fill="#384254" fill-rule="nonzero" d="M54.08 56H52.8l-6.224-8.512V56h-1.328V45.328h1.36l6.144 8.336v-8.336h1.328V56zm3.056-8.832a.806.806 0 01-.816-.8.82.82 0 01.816-.816c.448 0 .8.368.8.816 0 .448-.352.8-.8.8zM57.728 56h-1.2v-7.728h1.2V56zm5.808.192c-2.304 0-3.856-1.776-3.856-4.064 0-2.288 1.552-4.048 3.856-4.048 1.408 0 2.24.576 2.832 1.344l-.8.72c-.512-.704-1.168-.992-1.968-.992-1.632 0-2.672 1.264-2.672 2.976s1.04 2.992 2.672 2.992c.8 0 1.456-.32 1.968-1.008l.8.736c-.592.768-1.424 1.344-2.832 1.344zm8.032 0c-2.304 0-3.952-1.648-3.952-4.064 0-2.24 1.6-4.048 3.808-4.048 2.336 0 3.712 1.824 3.712 4.144v.304h-6.24C68.992 53.984 70 55.2 71.664 55.2c.896 0 1.776-.352 2.4-.992l.576.784c-.784.768-1.824 1.2-3.072 1.2zm2.384-4.56c-.016-1.136-.784-2.56-2.544-2.56-1.648 0-2.464 1.392-2.528 2.56h5.072zm10.64 4.56c-2.352 0-3.824-1.824-3.824-4.064s1.472-4.048 3.824-4.048 3.824 1.808 3.824 4.048-1.472 4.064-3.824 4.064zm0-1.072c1.648 0 2.56-1.408 2.56-2.992 0-1.568-.912-2.976-2.56-2.976-1.648 0-2.56 1.408-2.56 2.976 0 1.584.912 2.992 2.56 2.992zm12.192.88H95.6v-5.056c0-1.376-.704-1.792-1.744-1.792-.944 0-1.824.576-2.288 1.2V56h-1.2v-7.728h1.2v1.12c.544-.656 1.6-1.312 2.768-1.312 1.6 0 2.448.816 2.448 2.496V56zm5.92.192c-2.304 0-3.952-1.648-3.952-4.064 0-2.24 1.6-4.048 3.808-4.048 2.336 0 3.712 1.824 3.712 4.144v.304h-6.24c.096 1.456 1.104 2.672 2.768 2.672.896 0 1.776-.352 2.4-.992l.576.784c-.784.768-1.824 1.2-3.072 1.2zm2.384-4.56c-.016-1.136-.784-2.56-2.544-2.56-1.648 0-2.464 1.392-2.528 2.56h5.072zM119.392 56H112.4V45.328h6.992v1.184h-5.664v3.44h5.552v1.184h-5.552v3.68h5.664V56zm12.592 0h-1.2v-5.248c0-.976-.416-1.6-1.424-1.6-.8 0-1.648.56-2.048 1.184V56h-1.2v-5.248c0-.976-.4-1.6-1.424-1.6-.784 0-1.616.576-2.032 1.2V56h-1.2v-7.728h1.2v1.12c.336-.496 1.36-1.312 2.512-1.312 1.168 0 1.84.64 2.064 1.44.432-.704 1.472-1.44 2.592-1.44 1.408 0 2.16.784 2.16 2.336V56zm12.928 0h-1.2v-5.248c0-.976-.416-1.6-1.424-1.6-.8 0-1.648.56-2.048 1.184V56h-1.2v-5.248c0-.976-.4-1.6-1.424-1.6-.784 0-1.616.576-2.032 1.2V56h-1.2v-7.728h1.2v1.12c.336-.496 1.36-1.312 2.512-1.312 1.168 0 1.84.64 2.064 1.44.432-.704 1.472-1.44 2.592-1.44 1.408 0 2.16.784 2.16 2.336V56zm8.432 0h-1.2v-.88c-.624.704-1.52 1.072-2.56 1.072-1.296 0-2.688-.88-2.688-2.56 0-1.744 1.376-2.544 2.688-2.544 1.056 0 1.936.336 2.56 1.04v-1.392c0-1.024-.832-1.616-1.952-1.616-.928 0-1.68.32-2.368 1.072l-.56-.832c.832-.864 1.824-1.28 3.088-1.28 1.648 0 2.992.736 2.992 2.608V56zm-3.312-.672c.832 0 1.648-.32 2.112-.96v-1.472c-.464-.624-1.28-.944-2.112-.944-1.136 0-1.92.704-1.92 1.68 0 .992.784 1.696 1.92 1.696zm6.368.832c-.48 0-.88-.4-.88-.88s.4-.88.88-.88.88.4.88.88-.4.88-.88.88zm11.68-.16h-1.328v-4.512l-4.208-6.16h1.552l3.312 4.96 3.312-4.96h1.552l-4.192 6.16V56zm6.88.192c-2.352 0-3.824-1.824-3.824-4.064s1.472-4.048 3.824-4.048 3.824 1.808 3.824 4.048-1.472 4.064-3.824 4.064zm0-1.072c1.648 0 2.56-1.408 2.56-2.992 0-1.568-.912-2.976-2.56-2.976-1.648 0-2.56 1.408-2.56 2.976 0 1.584.912 2.992 2.56 2.992zm12.192.88h-1.2v-1.088c-.592.672-1.6 1.28-2.752 1.28-1.616 0-2.464-.8-2.464-2.464v-5.456h1.2v5.088c0 1.36.688 1.76 1.744 1.76.928 0 1.824-.544 2.272-1.168v-5.68h1.2V56zm9.008.192c-1.28 0-2.336-.4-3.12-1.216l.608-.864c.512.592 1.488 1.104 2.544 1.104 1.184 0 1.84-.56 1.84-1.328 0-1.872-4.784-.72-4.784-3.584 0-1.216 1.024-2.224 2.864-2.224 1.328 0 2.256.496 2.864 1.12l-.56.832c-.464-.56-1.296-.976-2.304-.976-1.056 0-1.712.528-1.712 1.216 0 1.68 4.784.576 4.784 3.584 0 1.296-1.04 2.336-3.024 2.336zM207.168 56h-1.2v-.88c-.624.704-1.52 1.072-2.56 1.072-1.296 0-2.688-.88-2.688-2.56 0-1.744 1.376-2.544 2.688-2.544 1.056 0 1.936.336 2.56 1.04v-1.392c0-1.024-.832-1.616-1.952-1.616-.928 0-1.68.32-2.368 1.072l-.56-.832c.832-.864 1.824-1.28 3.088-1.28 1.648 0 2.992.736 2.992 2.608V56zm-3.312-.672c.832 0 1.648-.32 2.112-.96v-1.472c-.464-.624-1.28-.944-2.112-.944-1.136 0-1.92.704-1.92 1.68 0 .992.784 1.696 1.92 1.696zm9.104.672h-1.312l-3.216-7.728h1.312l2.56 6.336 2.576-6.336h1.296L212.96 56zm7.968.192c-2.304 0-3.952-1.648-3.952-4.064 0-2.24 1.6-4.048 3.808-4.048 2.336 0 3.712 1.824 3.712 4.144v.304h-6.24c.096 1.456 1.104 2.672 2.768 2.672.896 0 1.776-.352 2.4-.992l.576.784c-.784.768-1.824 1.2-3.072 1.2zm2.384-4.56c-.016-1.136-.784-2.56-2.544-2.56-1.648 0-2.464 1.392-2.528 2.56h5.072zm9.92 4.368h-1.2v-1.152c-.576.784-1.52 1.344-2.608 1.344-2.016 0-3.44-1.536-3.44-4.048 0-2.48 1.424-4.064 3.44-4.064 1.04 0 1.984.512 2.608 1.36v-4.112h1.2V56zm-3.504-.88c.944 0 1.888-.56 2.304-1.232V50.4c-.416-.672-1.36-1.248-2.304-1.248-1.568 0-2.496 1.28-2.496 2.992s.928 2.976 2.496 2.976zM48.336 79.6v-1.424c-1.616-.096-2.848-.768-3.648-1.68l.8-1.024a4.371 4.371 0 002.848 1.504v-3.888c-1.632-.448-3.312-.992-3.312-2.96 0-1.648 1.392-2.816 3.312-2.96v-1.456h.976v1.472c1.328.112 2.384.656 3.168 1.472l-.8.976c-.64-.704-1.472-1.104-2.368-1.232v3.488c1.648.464 3.408 1.072 3.408 3.168 0 1.44-.928 2.944-3.408 3.12V79.6h-.976zm3.008-4.448c0-1.04-.912-1.472-2.032-1.808v3.648c1.52-.16 2.032-1.072 2.032-1.84zM46.4 70.048c0 .88.848 1.264 1.936 1.584v-3.264c-1.136.08-1.936.752-1.936 1.68zM61.68 78h-7.328v-1.072c3.84-3.008 5.936-4.784 5.936-6.624 0-1.376-1.136-1.952-2.24-1.952-1.28 0-2.272.544-2.896 1.344l-.816-.848c.816-1.088 2.208-1.68 3.712-1.68 1.776 0 3.584 1.008 3.584 3.136 0 2.176-2.208 4.16-5.184 6.512h5.232V78zm8.128 0H68.48v-2.704h-5.072v-1.104l4.576-6.864h1.824v6.8h1.504v1.168h-1.504V78zm-1.328-3.872V68.56l-3.744 5.568h3.744zm8.24 4.064c-2.928 0-4.08-2.928-4.08-5.52 0-2.608 1.152-5.504 4.08-5.504 2.912 0 4.08 2.896 4.08 5.504 0 2.592-1.168 5.52-4.08 5.52zm0-1.184c2.032 0 2.72-2.208 2.72-4.336s-.688-4.32-2.72-4.32S74 70.544 74 72.672s.688 4.336 2.72 4.336zm6.24 1.152c-.48 0-.88-.4-.88-.88s.4-.88.88-.88.88.4.88.88-.4.88-.88.88zm6.16.016c-1.36 0-2.288-.528-2.96-1.28l.672-.992c.544.64 1.184 1.088 2.288 1.088 2.16 0 3.008-2.16 3.008-4.192 0-.128 0-.272-.016-.416-.464.736-1.648 1.664-3.008 1.664-1.92 0-3.504-1.136-3.504-3.408 0-1.84 1.408-3.488 3.744-3.488 2.976 0 4.128 2.608 4.128 5.52 0 2.88-1.36 5.504-4.352 5.504zm.288-5.28c1.056 0 2.096-.656 2.672-1.6-.128-1.312-.832-2.96-2.688-2.96-1.632 0-2.448 1.232-2.448 2.256 0 1.568 1.088 2.304 2.464 2.304zm9.68 5.296c-1.792 0-2.96-.656-3.76-1.712l.816-.896c.704.912 1.648 1.424 2.944 1.424 1.456 0 2.464-.992 2.464-2.288 0-1.408-1.008-2.304-2.448-2.304-.928 0-1.744.304-2.464.992l-.976-.336v-5.744h6.528v1.184h-5.2v3.712c.528-.512 1.424-.96 2.496-.96 1.792 0 3.408 1.2 3.408 3.408 0 2.16-1.664 3.52-3.808 3.52zm11.936 0c-1.152 0-1.728-.656-1.728-1.808v-5.056h-1.28v-1.056h1.28V68.16h1.216v2.112h1.568v1.056h-1.568v4.8c0 .576.256.992.768.992.352 0 .656-.16.816-.336l.352.912c-.304.288-.736.496-1.424.496zm9.168-.192h-1.2v-5.088c0-1.376-.688-1.76-1.744-1.76-.928 0-1.824.576-2.272 1.2V78h-1.2V67.328h1.2v4.064c.528-.656 1.584-1.312 2.752-1.312 1.616 0 2.464.784 2.464 2.464V78zm3.008-8.832a.806.806 0 01-.816-.8.82.82 0 01.816-.816c.448 0 .8.368.8.816 0 .448-.352.8-.8.8zm.592 8.832h-1.2v-7.728h1.2V78zm4.864.192c-1.28 0-2.336-.4-3.12-1.216l.608-.864c.512.592 1.488 1.104 2.544 1.104 1.184 0 1.84-.56 1.84-1.328 0-1.872-4.784-.72-4.784-3.584 0-1.216 1.024-2.224 2.864-2.224 1.328 0 2.256.496 2.864 1.12l-.56.832c-.464-.56-1.296-.976-2.304-.976-1.056 0-1.712.528-1.712 1.216 0 1.68 4.784.576 4.784 3.584 0 1.296-1.04 2.336-3.024 2.336zM145.68 78h-1.216l-2.016-6.208L140.432 78h-1.2l-2.464-7.728h1.248l1.888 6.16 2.032-6.16h1.04l2.016 6.16 1.888-6.16h1.264L145.68 78zm7.344.192c-2.304 0-3.952-1.648-3.952-4.064 0-2.24 1.6-4.048 3.808-4.048 2.336 0 3.712 1.824 3.712 4.144v.304h-6.24c.096 1.456 1.104 2.672 2.768 2.672.896 0 1.776-.352 2.4-.992l.576.784c-.784.768-1.824 1.2-3.072 1.2zm2.384-4.56c-.016-1.136-.784-2.56-2.544-2.56-1.648 0-2.464 1.392-2.528 2.56h5.072zm6.624 4.56c-2.304 0-3.952-1.648-3.952-4.064 0-2.24 1.6-4.048 3.808-4.048 2.336 0 3.712 1.824 3.712 4.144v.304h-6.24c.096 1.456 1.104 2.672 2.768 2.672.896 0 1.776-.352 2.4-.992l.576.784c-.784.768-1.824 1.2-3.072 1.2zm2.384-4.56c-.016-1.136-.784-2.56-2.544-2.56-1.648 0-2.464 1.392-2.528 2.56h5.072zm9.92 4.368H172.8l-2.768-3.472-1.296 1.264V78h-1.2V67.328h1.2v7.056l4.064-4.112h1.52l-3.424 3.504 3.44 4.224zm2.064.16c-.48 0-.88-.4-.88-.88s.4-.88.88-.88.88.4.88.88-.4.88-.88.88zM50.272 32.208c-3.104 0-5.6-2.192-5.6-5.536 0-3.36 2.496-5.52 5.6-5.52 2.08 0 3.44.992 4.288 2.208l-1.52.88a3.444 3.444 0 00-2.768-1.424c-2.112 0-3.68 1.6-3.68 3.856 0 2.224 1.568 3.856 3.68 3.856 1.088 0 2.048-.496 2.528-.96V27.92h-3.2v-1.648h5.056v3.984c-1.04 1.168-2.544 1.952-4.384 1.952zm9.792-.016c-2.464 0-3.968-1.856-3.968-4.064 0-2.224 1.504-4.048 3.968-4.048s3.968 1.824 3.968 4.048c0 2.208-1.504 4.064-3.968 4.064zm0-1.488c1.44 0 2.224-1.2 2.224-2.576 0-1.36-.784-2.56-2.224-2.56-1.424 0-2.224 1.2-2.224 2.56 0 1.376.8 2.576 2.224 2.576zm9.184 1.488c-2.464 0-3.968-1.856-3.968-4.064 0-2.224 1.504-4.048 3.968-4.048s3.968 1.824 3.968 4.048c0 2.208-1.504 4.064-3.968 4.064zm0-1.488c1.44 0 2.224-1.2 2.224-2.576 0-1.36-.784-2.56-2.224-2.56-1.424 0-2.224 1.2-2.224 2.56 0 1.376.8 2.576 2.224 2.576zM82.048 32h-1.68v-1.056c-.592.768-1.472 1.248-2.48 1.248-1.968 0-3.424-1.504-3.424-4.064 0-2.496 1.44-4.048 3.424-4.048.976 0 1.872.432 2.48 1.264v-4.016h1.68V32zm-3.664-1.296c.784 0 1.616-.464 1.984-1.04v-3.056c-.368-.576-1.2-1.04-1.984-1.04-1.344 0-2.192 1.072-2.192 2.56 0 1.504.848 2.576 2.192 2.576zM97.648 32H95.84l-5.568-7.632V32H88.4V21.328h1.92l5.456 7.392v-7.392h1.872V32zm5.808.192c-2.336 0-4.048-1.616-4.048-4.064 0-2.24 1.632-4.048 3.92-4.048 2.32 0 3.792 1.76 3.792 4.192v.416h-5.952c.128 1.152.992 2.128 2.448 2.128.768 0 1.648-.304 2.208-.864l.768 1.104c-.784.736-1.92 1.136-3.136 1.136zm2.048-4.704c-.048-.912-.672-2.032-2.192-2.032-1.424 0-2.096 1.104-2.16 2.032h4.352zM117.296 32h-1.76l-1.808-5.664L111.936 32h-1.76l-2.4-7.728h1.744l1.632 5.616 1.84-5.616h1.488l1.824 5.616 1.632-5.616h1.76l-2.4 7.728zm6.224.192c-1.328 0-2.512-.432-3.312-1.216l.768-1.2c.544.56 1.616 1.072 2.608 1.072 1.008 0 1.536-.416 1.536-1.024 0-1.52-4.672-.432-4.672-3.408 0-1.264 1.088-2.336 3.04-2.336 1.312 0 2.304.464 2.992 1.072l-.704 1.184c-.464-.512-1.312-.928-2.288-.928-.88 0-1.424.416-1.424.96 0 1.36 4.672.336 4.672 3.408 0 1.376-1.136 2.416-3.216 2.416zm6.496-3.472h-1.456l-.304-7.392h2.048l-.288 7.392zm-.72 3.44c-.608 0-1.12-.512-1.12-1.12 0-.592.512-1.104 1.12-1.104.608 0 1.104.512 1.104 1.104a1.12 1.12 0 01-1.104 1.12z"/></g></g></svg>