<svg xmlns="http://www.w3.org/2000/svg" xmlns:xlink="http://www.w3.org/1999/xlink" width="337" height="184" viewBox="0 0 337 184"><defs><rect id="a" width="239" height="98" x="0" y="0" rx="8"/><filter id="b" width="101.7%" height="104.1%" x="-.8%" y="-2%" filterUnits="objectBoundingBox"><feGaussianBlur in="SourceAlpha" result="shadowBlurInner1" stdDeviation="1.5"/><feOffset dy="1" in="shadowBlurInner1" result="shadowOffsetInner1"/><feComposite in="shadowOffsetInner1" in2="SourceAlpha" k2="-1" k3="1" operator="arithmetic" result="shadowInnerInner1"/><feColorMatrix in="shadowInnerInner1" values="0 0 0 0 0.105882353 0 0 0 0 0.180392157 0 0 0 0 0.356862745 0 0 0 0.1 0"/></filter><rect id="d" width="230" height="80" x="0" y="0" rx="8"/><filter id="c" width="113.9%" height="140%" x="-7%" y="-17.5%" filterUnits="objectBoundingBox"><feOffset dy="2" in="SourceAlpha" result="shadowOffsetOuter1"/><feGaussianBlur in="shadowOffsetOuter1" result="shadowBlurOuter1" stdDeviation="5"/><feColorMatrix in="shadowBlurOuter1" values="0 0 0 0 0.207843137 0 0 0 0 0.258823529 0 0 0 0 0.329411765 0 0 0 0.101137908 0"/></filter><path id="e" d="M20 6.256l-.001-.716a30.346 30.346 0 0 0-.01-.604 8.77 8.77 0 0 0-.115-1.313 4.424 4.424 0 0 0-.411-1.25A4.196 4.196 0 0 0 17.626.538a4.43 4.43 0 0 0-1.248-.411A8.78 8.78 0 0 0 15.064.01a30.379 30.379 0 0 0-.604-.009L13.744 0H6.256L5.54.001c-.201.002-.403.004-.604.01-.438.011-.88.037-1.314.115a4.43 4.43 0 0 0-1.248.411A4.199 4.199 0 0 0 .538 2.374c-.204.4-.333.809-.412 1.249a8.77 8.77 0 0 0-.115 1.313c-.006.201-.008.403-.01.604L0 6.256v7.488c0 .239 0 .477.002.716 0 .201.003.403.009.604.011.438.037.88.115 1.313.079.44.208.85.412 1.25a4.193 4.193 0 0 0 1.836 1.836c.4.203.809.332 1.248.411.434.078.876.104 1.314.116.201.005.403.007.604.009l.716.001h7.488l.716-.001c.202-.002.403-.004.604-.01a8.78 8.78 0 0 0 1.314-.115 4.43 4.43 0 0 0 1.248-.411 4.19 4.19 0 0 0 1.837-1.836c.203-.4.332-.81.411-1.25a8.77 8.77 0 0 0 .116-1.313c.005-.201.007-.403.009-.604l.001-.716V6.256z"/><linearGradient id="f" x1="50%" x2="50%" y1="0%" y2="100%"><stop offset="0%" stop-color="#914EA9"/><stop offset="100%" stop-color="#153E7D"/></linearGradient></defs><g fill="none" fill-rule="evenodd"><use fill="#FFF" xlink:href="#a"/><use fill="#000" filter="url(#b)" xlink:href="#a"/><rect width="238" height="97" x=".5" y=".5" stroke="#E1E1E1" stroke-linejoin="square" rx="8"/><rect width="133" height="16" x="71" y="33" fill="#F1F1F1" rx="2"/><rect width="141" height="16" x="78" y="51" fill="#F1F1F1" rx="2"/><rect width="99" height="16" x="12" y="69" fill="#F1F1F1" rx="2"/><path fill="#384254" fill-rule="nonzero" d="M20.82 45H19.7l-5.446-7.448V45h-1.162v-9.338h1.19l5.376 7.294v-7.294h1.162V45zm2.674-7.728a.705.705 0 0 1-.714-.7c0-.392.322-.714.714-.714.392 0 .7.322.7.714 0 .392-.308.7-.7.7zM24.012 45h-1.05v-6.762h1.05V45zm5.082.168c-2.016 0-3.374-1.554-3.374-3.556s1.358-3.542 3.374-3.542c1.232 0 1.96.504 2.478 1.176l-.7.63c-.448-.616-1.022-.868-1.722-.868-1.428 0-2.338 1.106-2.338 2.604s.91 2.618 2.338 2.618c.7 0 1.274-.28 1.722-.882l.7.644c-.518.672-1.246 1.176-2.478 1.176zm7.028 0c-2.016 0-3.458-1.442-3.458-3.556 0-1.96 1.4-3.542 3.332-3.542 2.044 0 3.248 1.596 3.248 3.626v.266h-5.46c.084 1.274.966 2.338 2.422 2.338.784 0 1.554-.308 2.1-.868l.504.686c-.686.672-1.596 1.05-2.688 1.05zm2.086-3.99c-.014-.994-.686-2.24-2.226-2.24-1.442 0-2.156 1.218-2.212 2.24h4.438zm9.31 3.99c-2.058 0-3.346-1.596-3.346-3.556s1.288-3.542 3.346-3.542 3.346 1.582 3.346 3.542c0 1.96-1.288 3.556-3.346 3.556zm0-.938c1.442 0 2.24-1.232 2.24-2.618 0-1.372-.798-2.604-2.24-2.604-1.442 0-2.24 1.232-2.24 2.604 0 1.386.798 2.618 2.24 2.618zm10.668.77H57.15v-4.424c0-1.204-.616-1.568-1.526-1.568-.826 0-1.596.504-2.002 1.05V45h-1.05v-6.762h1.05v.98c.476-.574 1.4-1.148 2.422-1.148 1.4 0 2.142.714 2.142 2.184V45zm5.18.168c-2.016 0-3.458-1.442-3.458-3.556 0-1.96 1.4-3.542 3.332-3.542 2.044 0 3.248 1.596 3.248 3.626v.266h-5.46c.084 1.274.966 2.338 2.422 2.338.784 0 1.554-.308 2.1-.868l.504.686c-.686.672-1.596 1.05-2.688 1.05zm2.086-3.99c-.014-.994-.686-2.24-2.226-2.24-1.442 0-2.156 1.218-2.212 2.24h4.438zm13.971 4.071v.703h-.312c-.811 0-1.354-.12-1.629-.361-.275-.241-.412-.721-.412-1.44v-.977c0-.355-.1-.661-.3-.918-.2-.257-.511-.386-.93-.386h-.597v-.698h.596c.46 0 .779-.11.96-.327.18-.218.27-.539.27-.962v-1.27c0-.72.138-1.198.413-1.438.275-.239.818-.359 1.629-.359h.312v.699h-.342c-.455 0-.753.07-.89.212-.14.142-.208.444-.208.906v1.308c0 .573-.113.958-.337 1.155-.225.197-.663.34-1.314.427.632.075 1.065.22 1.3.433.233.213.35.598.35 1.154v1.02c0 .466.07.77.208.91.138.139.436.209.891.209h.342zm6.02 0v.703h-.312c-.81 0-1.353-.12-1.628-.361-.275-.241-.413-.721-.413-1.44v-.977c0-.355-.1-.661-.3-.918-.2-.257-.51-.386-.93-.386h-.596v-.698h.596c.459 0 .778-.11.96-.327.18-.218.27-.539.27-.962v-1.27c0-.72.138-1.198.413-1.438.275-.239.818-.359 1.628-.359h.313v.699h-.342c-.456 0-.753.07-.891.212-.139.142-.208.444-.208.906v1.308c0 .573-.112.958-.337 1.155-.224.197-.662.34-1.313.427.631.075 1.064.22 1.299.433.234.213.351.598.351 1.154v1.02c0 .466.07.77.208.91.138.139.435.209.89.209h.343zm7.955-2.32v-3.388h.898v3.389c0 .491.087.853.261 1.084.174.23.444.346.808.346.424 0 .748-.149.972-.446.225-.298.337-.726.337-1.282V39.54h.903V45h-.903v-.82a1.7 1.7 0 0 1-.652.717 1.858 1.858 0 0 1-.964.245c-.56 0-.977-.184-1.25-.55-.274-.366-.41-.92-.41-1.662zm9.819-3.207v.879a3.423 3.423 0 0 0-.776-.337 2.867 2.867 0 0 0-.796-.113c-.407 0-.71.066-.91.198-.201.132-.301.333-.301.603 0 .244.075.427.224.547.15.12.523.238 1.119.352l.36.068c.447.085.785.254 1.014.508.23.254.344.584.344.991 0 .54-.192.963-.576 1.267-.384.304-.918.457-1.601.457-.27 0-.554-.029-.85-.086a7.769 7.769 0 0 1-.962-.256v-.928c.335.173.656.302.962.388.306.087.596.13.87.13.396 0 .704-.08.922-.242a.793.793 0 0 0 .327-.676c0-.417-.399-.705-1.196-.865l-.04-.01-.336-.068c-.518-.1-.895-.27-1.133-.51s-.356-.566-.356-.979c0-.524.177-.929.532-1.213.355-.285.86-.428 1.518-.428a4.263 4.263 0 0 1 1.64.322zm6.738 2.094v.44h-3.891v.03c-.026.745.116 1.28.427 1.606.31.325.75.488 1.316.488.286 0 .586-.046.898-.137a5.53 5.53 0 0 0 1.001-.415v.894a6.06 6.06 0 0 1-.989.315c-.317.07-.624.105-.92.105-.85 0-1.514-.255-1.992-.765-.479-.509-.718-1.211-.718-2.106 0-.873.234-1.57.703-2.09.469-.521 1.094-.782 1.875-.782.697 0 1.246.236 1.648.708.402.472.616 1.042.642 1.71zm-.898-.263a1.741 1.741 0 0 0-.413-.98c-.236-.274-.575-.412-1.018-.412-.433 0-.79.143-1.07.43-.28.286-.432.609-.458.967l2.959-.005zm7.09-.894a2.033 2.033 0 0 0-.586-.327 1.999 1.999 0 0 0-.655-.103c-.56 0-.987.176-1.284.528-.296.351-.444.86-.444 1.523V45h-.903v-5.469h.903v1.07c.15-.388.38-.685.69-.892.312-.206.68-.31 1.107-.31.221 0 .428.028.62.083.192.056.376.142.552.26v.917zm2.28 2.368h1.719V45h-1.719v-1.973zm9.311-5.625v.747h-1.02c-.322 0-.546.066-.671.198-.126.132-.188.366-.188.7v.484h1.88v.698h-1.88V45h-.899v-4.77h-1.46v-.699h1.46v-.38c0-.6.138-1.04.413-1.324.275-.283.704-.425 1.286-.425h1.08zm2.374 2.149h2.3v4.75h1.782V45h-4.463v-.698h1.782v-4.053h-1.401v-.698zm1.4-2.124h.9v1.133h-.9v-1.133zm8.717 3.232a2.033 2.033 0 0 0-.586-.327 1.999 1.999 0 0 0-.655-.103c-.56 0-.987.176-1.284.528-.296.351-.444.86-.444 1.523V45h-.903v-5.469h.903v1.07c.15-.388.38-.685.69-.892.312-.206.68-.31 1.107-.31.221 0 .428.028.62.083.192.056.376.142.552.26v.917zm5.132-.937v.879a3.423 3.423 0 0 0-.777-.337 2.867 2.867 0 0 0-.796-.113c-.407 0-.71.066-.91.198-.2.132-.3.333-.3.603 0 .244.074.427.224.547.15.12.522.238 1.118.352l.361.068c.446.085.784.254 1.014.508.23.254.344.584.344.991 0 .54-.192.963-.576 1.267-.384.304-.918.457-1.602.457-.27 0-.553-.029-.85-.086a7.769 7.769 0 0 1-.961-.256v-.928c.335.173.656.302.962.388.306.087.595.13.869.13.397 0 .704-.08.923-.242a.793.793 0 0 0 .327-.676c0-.417-.4-.705-1.197-.865l-.039-.01-.337-.068c-.517-.1-.895-.27-1.132-.51-.238-.24-.357-.566-.357-.979 0-.524.178-.929.532-1.213.355-.285.861-.428 1.519-.428a4.263 4.263 0 0 1 1.64.322zm4.267-1.743v1.552h2.041v.698h-2.04v2.97c0 .403.076.684.229.844.153.16.42.24.8.24h1.011V45h-1.098c-.674 0-1.15-.135-1.426-.405-.277-.27-.415-.736-.415-1.397V40.23h-1.46v-.698h1.46V37.98h.898zm9 7.949v.83h-5.977v-.83h5.976zm5.175-4.317V45h-.903v-3.389c0-.491-.087-.853-.26-1.084-.172-.23-.442-.346-.81-.346-.42 0-.743.149-.969.446-.226.298-.34.726-.34 1.282V45h-.898v-5.469h.899v.82c.16-.312.376-.549.65-.71a1.88 1.88 0 0 1 .97-.242c.557 0 .973.184 1.248.55.275.366.413.92.413 1.662zm5.156.64h-1.138c-.524 0-.918.092-1.184.276-.265.184-.398.458-.398.823 0 .328.1.584.298.766.199.183.474.274.826.274.494 0 .883-.172 1.167-.515.283-.344.426-.818.43-1.424v-.2zm.904-.371V45h-.904v-.81a1.854 1.854 0 0 1-.725.72c-.291.154-.645.232-1.062.232-.557 0-1-.157-1.333-.472-.332-.314-.498-.734-.498-1.262 0-.609.204-1.07.613-1.387.408-.315 1.008-.473 1.8-.473h1.205v-.142c-.003-.436-.114-.753-.332-.95-.218-.196-.566-.295-1.045-.295-.306 0-.615.044-.927.132a4.043 4.043 0 0 0-.914.386v-.899a6.18 6.18 0 0 1 .955-.285c.304-.064.6-.096.886-.096.453 0 .84.067 1.16.2.32.134.58.334.779.601.123.163.211.364.263.603.052.24.079.598.079 1.077zm4.15-1.792c.11-.234.251-.408.422-.52a1.1 1.1 0 0 1 .618-.169c.44 0 .75.17.93.51.18.34.271.981.271 1.922V45h-.82v-3.13c0-.771-.043-1.25-.13-1.438-.086-.187-.243-.28-.47-.28-.261 0-.44.1-.535.3-.096.2-.144.673-.144 1.418V45h-.82v-3.13c0-.781-.047-1.263-.14-1.445-.093-.182-.26-.274-.5-.274-.238 0-.403.1-.496.3-.093.2-.14.674-.14 1.42V45h-.815v-5.469h.816V40a1.2 1.2 0 0 1 .403-.447c.16-.102.344-.154.549-.154.247 0 .453.057.618.171a1.1 1.1 0 0 1 .383.518zm8.188 1.728v.44h-3.891v.03c-.026.745.116 1.28.427 1.606.31.325.75.488 1.316.488.286 0 .586-.046.898-.137.313-.091.647-.23 1.001-.415v.894a6.06 6.06 0 0 1-.988.315 4.28 4.28 0 0 1-.92.105c-.85 0-1.514-.255-1.993-.765-.479-.509-.718-1.211-.718-2.106 0-.873.235-1.57.703-2.09.47-.521 1.094-.782 1.875-.782.697 0 1.246.236 1.648.708.402.472.616 1.042.642 1.71zm-.898-.263a1.741 1.741 0 0 0-.413-.98c-.236-.274-.575-.412-1.018-.412-.433 0-.79.143-1.07.43-.279.286-.432.609-.458.967l2.959-.005zm8.882 3.696c.456 0 .753-.07.89-.21.14-.14.208-.443.208-.908v-1.02c0-.557.118-.942.352-1.155.234-.214.667-.358 1.299-.433-.651-.087-1.09-.23-1.314-.427-.224-.197-.337-.582-.337-1.155v-1.308c0-.462-.069-.764-.207-.906-.138-.142-.435-.212-.891-.212h-.342v-.699h.312c.811 0 1.354.12 1.629.36.275.239.412.718.412 1.437v1.27c0 .423.09.744.271.962.181.218.501.327.96.327h.596v.698h-.596c-.42 0-.73.129-.93.386-.2.257-.3.563-.3.918v.976c0 .72-.138 1.2-.413 1.44-.275.242-.818.362-1.629.362h-.312v-.703h.342zm6.02 0c.456 0 .753-.07.891-.21.139-.14.208-.443.208-.908v-1.02c0-.557.117-.942.351-1.155.235-.214.668-.358 1.3-.433-.652-.087-1.09-.23-1.314-.427-.225-.197-.337-.582-.337-1.155v-1.308c0-.462-.07-.764-.208-.906-.138-.142-.435-.212-.89-.212h-.343v-.699h.313c.81 0 1.353.12 1.628.36.275.239.413.718.413 1.437v1.27c0 .423.09.744.271.962.18.218.5.327.96.327h.595v.698h-.596c-.42 0-.73.129-.93.386-.2.257-.3.563-.3.918v.976c0 .72-.138 1.2-.413 1.44-.275.242-.817.362-1.628.362h-.313v-.703h.342zm12.22-.109c-.42 0-.77-.35-.77-.77 0-.42.35-.77.77-.77.42 0 .77.35.77.77 0 .42-.35.77-.77.77zM16.97 63h-1.162v-3.948l-3.682-5.39h1.358l2.898 4.34 2.898-4.34h1.358l-3.668 5.39V63zm6.02.168c-2.058 0-3.346-1.596-3.346-3.556s1.288-3.542 3.346-3.542 3.346 1.582 3.346 3.542c0 1.96-1.288 3.556-3.346 3.556zm0-.938c1.442 0 2.24-1.232 2.24-2.618 0-1.372-.798-2.604-2.24-2.604-1.442 0-2.24 1.232-2.24 2.604 0 1.386.798 2.618 2.24 2.618zm10.668.77h-1.05v-.952c-.518.588-1.4 1.12-2.408 1.12-1.414 0-2.156-.7-2.156-2.156v-4.774h1.05v4.452c0 1.19.602 1.54 1.526 1.54.812 0 1.596-.476 1.988-1.022v-4.97h1.05V63zm7.882.168c-1.12 0-2.044-.35-2.73-1.064l.532-.756c.448.518 1.302.966 2.226.966 1.036 0 1.61-.49 1.61-1.162 0-1.638-4.186-.63-4.186-3.136 0-1.064.896-1.946 2.506-1.946 1.162 0 1.974.434 2.506.98l-.49.728c-.406-.49-1.134-.854-2.016-.854-.924 0-1.498.462-1.498 1.064 0 1.47 4.186.504 4.186 3.136 0 1.134-.91 2.044-2.646 2.044zM51.172 63h-1.05v-.77c-.546.616-1.33.938-2.24.938-1.134 0-2.352-.77-2.352-2.24 0-1.526 1.204-2.226 2.352-2.226.924 0 1.694.294 2.24.91v-1.218c0-.896-.728-1.414-1.708-1.414-.812 0-1.47.28-2.072.938l-.49-.728c.728-.756 1.596-1.12 2.702-1.12 1.442 0 2.618.644 2.618 2.282V63zm-2.898-.588c.728 0 1.442-.28 1.848-.84v-1.288c-.406-.546-1.12-.826-1.848-.826-.994 0-1.68.616-1.68 1.47 0 .868.686 1.484 1.68 1.484zM56.24 63h-1.148l-2.814-6.762h1.148l2.24 5.544 2.254-5.544h1.134L56.24 63zm6.972.168c-2.016 0-3.458-1.442-3.458-3.556 0-1.96 1.4-3.542 3.332-3.542 2.044 0 3.248 1.596 3.248 3.626v.266h-5.46c.084 1.274.966 2.338 2.422 2.338.784 0 1.554-.308 2.1-.868l.504.686c-.686.672-1.596 1.05-2.688 1.05zm2.086-3.99c-.014-.994-.686-2.24-2.226-2.24-1.442 0-2.156 1.218-2.212 2.24h4.438zM73.978 63h-1.05v-1.008c-.504.686-1.33 1.176-2.282 1.176-1.764 0-3.01-1.344-3.01-3.542 0-2.17 1.246-3.556 3.01-3.556.91 0 1.736.448 2.282 1.19v-3.598h1.05V63zm-3.066-.77c.826 0 1.652-.49 2.016-1.078V58.1c-.364-.588-1.19-1.092-2.016-1.092-1.372 0-2.184 1.12-2.184 2.618 0 1.498.812 2.604 2.184 2.604zm16.407 1.019v.703h-.312c-.811 0-1.354-.12-1.629-.361-.275-.241-.412-.721-.412-1.44v-.977c0-.355-.1-.661-.3-.918-.2-.257-.511-.386-.93-.386h-.597v-.698h.596c.46 0 .779-.11.96-.327.18-.218.27-.539.27-.962v-1.27c0-.72.138-1.198.413-1.438.275-.239.818-.359 1.629-.359h.312v.699h-.342c-.455 0-.753.07-.89.212-.14.142-.208.444-.208.906v1.308c0 .573-.113.958-.337 1.155-.225.197-.663.34-1.314.427.632.075 1.065.22 1.3.433.233.213.35.598.35 1.154v1.02c0 .466.07.77.208.91.138.139.436.209.891.209h.342zm6.02 0v.703h-.312c-.81 0-1.353-.12-1.628-.361-.275-.241-.413-.721-.413-1.44v-.977c0-.355-.1-.661-.3-.918-.2-.257-.51-.386-.93-.386h-.596v-.698h.596c.459 0 .778-.11.96-.327.18-.218.27-.539.27-.962v-1.27c0-.72.138-1.198.413-1.438.275-.239.818-.359 1.628-.359h.313v.699h-.342c-.456 0-.753.07-.891.212-.139.142-.208.444-.208.906v1.308c0 .573-.112.958-.337 1.155-.224.197-.662.34-1.313.427.631.075 1.064.22 1.299.433.234.213.351.598.351 1.154v1.02c0 .466.07.77.208.91.138.139.435.209.89.209h.343zm12.471-3.433v.44h-3.891v.03c-.026.745.116 1.28.427 1.606.31.325.75.488 1.316.488.286 0 .586-.046.898-.137a5.53 5.53 0 0 0 1.001-.415v.894a6.06 6.06 0 0 1-.989.315c-.317.07-.624.105-.92.105-.85 0-1.514-.255-1.992-.765-.479-.509-.718-1.211-.718-2.106 0-.873.234-1.57.703-2.09.469-.521 1.094-.782 1.875-.782.697 0 1.246.236 1.648.708.402.472.616 1.042.642 1.71zm-.898-.263a1.741 1.741 0 0 0-.413-.98c-.236-.274-.575-.412-1.018-.412-.433 0-.79.143-1.07.43-.28.286-.432.609-.458.967l2.959-.005zm1.938-2.022h.933l1.587 4.59 1.592-4.59h.932L109.951 63h-1.157l-1.944-5.469zm11.001 2.285v.44h-3.891v.03c-.026.745.116 1.28.427 1.606.31.325.75.488 1.316.488.286 0 .586-.046.898-.137a5.53 5.53 0 0 0 1.001-.415v.894a6.06 6.06 0 0 1-.989.315c-.317.07-.624.105-.92.105-.85 0-1.514-.255-1.992-.765-.479-.509-.718-1.211-.718-2.106 0-.873.234-1.57.703-2.09.469-.521 1.094-.782 1.875-.782.697 0 1.246.236 1.648.708.402.472.616 1.042.642 1.71zm-.898-.263a1.741 1.741 0 0 0-.413-.98c-.236-.274-.575-.412-1.018-.412-.433 0-.79.143-1.07.43-.28.286-.432.609-.458.967l2.959-.005zm6.582.058V63h-.903v-3.389c0-.491-.087-.853-.26-1.084-.172-.23-.442-.346-.81-.346-.42 0-.743.149-.969.446-.226.298-.34.726-.34 1.282V63h-.898v-5.469h.899v.82c.16-.312.376-.549.649-.71a1.88 1.88 0 0 1 .972-.242c.556 0 .972.184 1.247.55.275.366.413.92.413 1.662zm3.887-3.632v1.552h2.04v.698h-2.04v2.97c0 .403.076.684.23.844.152.16.419.24.8.24h1.01V63h-1.098c-.674 0-1.15-.135-1.426-.405s-.415-.736-.415-1.397V58.23h-1.46v-.698h1.46V55.98h.899zm4.921 5.048h1.72V63h-1.72v-1.973zm8.873-3.305v.879a3.423 3.423 0 0 0-.777-.337 2.867 2.867 0 0 0-.796-.113c-.407 0-.71.066-.91.198-.2.132-.3.333-.3.603 0 .244.074.427.224.547.15.12.522.238 1.118.352l.361.068c.446.085.784.254 1.014.508.23.254.344.584.344.991 0 .54-.192.963-.576 1.267-.384.304-.918.457-1.602.457-.27 0-.553-.029-.85-.086a7.769 7.769 0 0 1-.961-.256v-.928c.335.173.656.302.962.388.306.087.595.13.869.13.397 0 .704-.08.923-.242a.793.793 0 0 0 .327-.676c0-.417-.4-.705-1.197-.865l-.039-.01-.337-.068c-.517-.1-.895-.27-1.132-.51-.238-.24-.357-.566-.357-.979 0-.524.178-.929.532-1.213.355-.285.861-.428 1.519-.428a4.263 4.263 0 0 1 1.64.322zm5.537 2.529h-1.138c-.524 0-.919.092-1.184.276-.265.184-.398.458-.398.823 0 .328.1.584.298.766.198.183.473.274.825.274.495 0 .884-.172 1.167-.515.283-.344.426-.818.43-1.424v-.2zm.903-.371V63h-.903v-.81a1.854 1.854 0 0 1-.725.72c-.292.154-.646.232-1.062.232-.557 0-1.001-.157-1.333-.472-.332-.314-.499-.734-.499-1.262 0-.609.205-1.07.613-1.387.409-.315 1.009-.473 1.8-.473h1.206v-.142c-.004-.436-.114-.753-.332-.95-.218-.196-.567-.295-1.045-.295a3.41 3.41 0 0 0-.928.132 4.043 4.043 0 0 0-.913.386v-.899c.332-.127.65-.222.954-.285.305-.064.6-.096.887-.096.452 0 .839.067 1.16.2.32.134.58.334.778.601.124.163.212.364.264.603.052.24.078.598.078 1.077zm1.338-2.349h.932l1.587 4.59 1.592-4.59h.933L152.094 63h-1.157l-1.943-5.469zm7.075.02h2.3v4.75h1.782V63h-4.463v-.698h1.782v-4.053h-1.4v-.698zm1.401-2.124h.899v1.133h-.899v-1.133zm8.208 4.184V63h-.903v-3.389c0-.491-.086-.853-.259-1.084-.172-.23-.442-.346-.81-.346-.42 0-.743.149-.97.446-.226.298-.339.726-.339 1.282V63h-.898v-5.469h.898v.82c.16-.312.376-.549.65-.71a1.88 1.88 0 0 1 .971-.242c.557 0 .973.184 1.248.55.275.366.412.92.412 1.662zm5.079.61c0-.673-.11-1.185-.33-1.535-.22-.35-.54-.525-.96-.525-.439 0-.774.175-1.005.525-.231.35-.347.862-.347 1.536s.116 1.187.35 1.54c.232.353.57.53 1.012.53.414 0 .73-.177.95-.532.22-.355.33-.868.33-1.538zm.898 2.427c0 .82-.194 1.442-.581 1.866-.387.423-.957.634-1.709.634a4.67 4.67 0 0 1-.776-.068 5.663 5.663 0 0 1-.811-.2v-.889c.32.15.609.26.87.332.26.072.499.108.717.108.485 0 .838-.132 1.06-.396.22-.264.332-.682.332-1.255v-.65a1.526 1.526 0 0 1-.586.684c-.248.15-.549.225-.904.225a1.81 1.81 0 0 1-1.528-.767c-.38-.51-.571-1.194-.571-2.05 0-.86.19-1.545.571-2.056a1.81 1.81 0 0 1 1.528-.767c.352 0 .65.07.894.21.244.14.443.357.596.65v-.708h.898v5.097zm6.91 1.28v.83h-5.977v-.83h5.976zm4.31-3.677h-1.137c-.524 0-.919.092-1.184.276-.265.184-.398.458-.398.823 0 .328.1.584.298.766.198.183.473.274.825.274.495 0 .884-.172 1.167-.515.283-.344.426-.818.43-1.424v-.2zm.904-.371V63h-.903v-.81a1.854 1.854 0 0 1-.725.72c-.292.154-.646.232-1.062.232-.557 0-1.001-.157-1.333-.472-.332-.314-.498-.734-.498-1.262 0-.609.204-1.07.612-1.387.409-.315 1.009-.473 1.8-.473h1.206v-.142c-.004-.436-.114-.753-.332-.95-.218-.196-.567-.295-1.045-.295-.306 0-.615.044-.928.132a4.043 4.043 0 0 0-.913.386v-.899a6.18 6.18 0 0 1 .955-.285c.304-.064.6-.096.886-.096.452 0 .839.067 1.16.2.32.134.58.334.778.601.124.163.212.364.264.603.052.24.078.598.078 1.077zm4.15-1.792a1.23 1.23 0 0 1 .423-.52 1.1 1.1 0 0 1 .617-.169c.44 0 .75.17.93.51.181.34.272.981.272 1.922V63h-.82v-3.13c0-.771-.044-1.25-.13-1.438-.086-.187-.243-.28-.471-.28-.26 0-.439.1-.535.3-.096.2-.144.673-.144 1.418V63h-.82v-3.13c0-.781-.047-1.263-.14-1.445-.092-.182-.26-.274-.5-.274-.238 0-.403.1-.496.3-.092.2-.139.674-.139 1.42V63h-.815v-5.469h.815V58a1.2 1.2 0 0 1 .403-.447c.161-.102.344-.154.55-.154.247 0 .453.057.617.171.165.114.292.287.383.518zm5.728.073c-.456 0-.8.178-1.035.532-.235.355-.352.88-.352 1.578 0 .693.117 1.218.352 1.574.234.357.58.535 1.035.535.459 0 .806-.178 1.04-.535.234-.356.352-.881.352-1.574 0-.697-.118-1.223-.352-1.578-.234-.354-.581-.532-1.04-.532zm0-.762c.758 0 1.339.246 1.74.738.403.491.604 1.203.604 2.134 0 .934-.2 1.646-.6 2.136-.401.49-.982.735-1.744.735-.759 0-1.338-.245-1.738-.735-.4-.49-.6-1.202-.6-2.136 0-.931.2-1.643.6-2.134.4-.492.98-.738 1.738-.738zm3.965 3.53v-3.388h.898v3.389c0 .491.087.853.261 1.084.175.23.444.346.809.346.423 0 .747-.149.971-.446.225-.298.337-.726.337-1.282V57.54h.903V63h-.903v-.82a1.7 1.7 0 0 1-.652.717 1.858 1.858 0 0 1-.964.245c-.56 0-.977-.184-1.25-.55-.273-.366-.41-.92-.41-1.662zm10.2-1.318V63h-.903v-3.389c0-.491-.087-.853-.26-1.084-.172-.23-.442-.346-.81-.346-.42 0-.743.149-.969.446-.226.298-.34.726-.34 1.282V63h-.898v-5.469h.899v.82c.16-.312.376-.549.65-.71a1.88 1.88 0 0 1 .97-.242c.557 0 .973.184 1.248.55.275.366.413.92.413 1.662zm3.887-3.632v1.552h2.04v.698h-2.04v2.97c0 .403.076.684.23.844.152.16.42.24.8.24h1.01V63h-1.098c-.674 0-1.149-.135-1.426-.405-.276-.27-.415-.736-.415-1.397V58.23h-1.46v-.698h1.46V55.98h.899zM15.623 73.359v10h-.84v-10h.84zm10.25 6.953v2.768h-.904v-7.549h.903v.698c.15-.27.35-.476.598-.617.25-.142.537-.213.862-.213.66 0 1.18.256 1.555.767.376.511.564 1.22.564 2.124 0 .889-.189 1.586-.566 2.092-.378.507-.895.76-1.553.76a1.73 1.73 0 0 1-.872-.213 1.498 1.498 0 0 1-.588-.617zm2.636-2.041c0-.697-.11-1.223-.33-1.578-.22-.354-.546-.532-.979-.532-.436 0-.766.178-.991.535-.225.356-.337.881-.337 1.575 0 .69.112 1.214.337 1.572.225.358.555.537.991.537.433 0 .76-.178.98-.532.219-.355.329-.88.329-1.577zm7.192-1.612a2.033 2.033 0 0 0-.586-.327 1.999 1.999 0 0 0-.654-.103c-.56 0-.988.176-1.284.528-.296.351-.445.86-.445 1.523V81h-.903v-5.469h.903v1.07c.15-.388.38-.685.691-.892.311-.206.68-.31 1.106-.31.222 0 .428.028.62.083.192.056.376.142.552.26v.917zm5.85 1.157v.44h-3.892v.03c-.026.745.117 1.28.427 1.606.311.325.75.488 1.316.488.287 0 .586-.046.899-.137.312-.091.646-.23 1-.415v.894a6.06 6.06 0 0 1-.988.315c-.317.07-.624.105-.92.105-.85 0-1.514-.255-1.993-.765-.478-.509-.717-1.211-.717-2.106 0-.873.234-1.57.703-2.09.468-.521 1.093-.782 1.875-.782.696 0 1.246.236 1.648.708.402.472.616 1.042.642 1.71zm-.899-.263a1.741 1.741 0 0 0-.412-.98c-.236-.274-.576-.412-1.018-.412-.433 0-.79.143-1.07.43-.28.286-.433.609-.459.967l2.96-.005zm3.282 2.759v2.768h-.904v-7.549h.904v.698c.15-.27.349-.476.598-.617.249-.142.536-.213.862-.213.66 0 1.179.256 1.555.767.376.511.564 1.22.564 2.124 0 .889-.19 1.586-.567 2.092-.377.507-.895.76-1.552.76a1.73 1.73 0 0 1-.872-.213 1.498 1.498 0 0 1-.588-.617zm2.636-2.041c0-.697-.11-1.223-.33-1.578-.219-.354-.545-.532-.978-.532-.436 0-.767.178-.991.535-.225.356-.337.881-.337 1.575 0 .69.112 1.214.337 1.572.224.358.555.537.99.537.434 0 .76-.178.98-.532.22-.355.33-.88.33-1.577zm7.022-.455v.44H49.7v.03c-.026.745.117 1.28.427 1.606.311.325.75.488 1.316.488.287 0 .586-.046.899-.137.312-.091.646-.23 1-.415v.894a6.06 6.06 0 0 1-.988.315c-.317.07-.624.105-.92.105-.85 0-1.514-.255-1.993-.765-.478-.509-.717-1.211-.717-2.106 0-.873.234-1.57.703-2.09.469-.521 1.094-.782 1.875-.782.696 0 1.246.236 1.648.708.402.472.616 1.042.642 1.71zm-.899-.263a1.741 1.741 0 0 0-.412-.98c-.236-.274-.576-.412-1.018-.412-.433 0-.79.143-1.07.43-.28.286-.433.609-.459.967l2.96-.005zm6.582.058V81h-.903v-3.389c0-.491-.086-.853-.259-1.084-.172-.23-.442-.346-.81-.346-.42 0-.743.149-.97.446-.226.298-.339.726-.339 1.282V81h-.898v-5.469h.898v.82c.16-.312.376-.549.65-.71a1.88 1.88 0 0 1 .971-.242c.557 0 .973.184 1.248.55.275.366.412.92.412 1.662zm5.079-1.382v-2.827h.898V81h-.898v-.688c-.15.27-.35.476-.599.617a1.713 1.713 0 0 1-.861.213c-.661 0-1.181-.257-1.56-.77-.38-.512-.57-1.22-.57-2.121 0-.889.191-1.586.572-2.092.38-.506.9-.76 1.558-.76.328 0 .618.071.869.213.25.141.447.347.59.617zm-2.642 2.042c0 .696.11 1.222.332 1.577.221.354.548.532.981.532.433 0 .763-.18.99-.537.225-.358.339-.882.339-1.572 0-.694-.114-1.219-.34-1.575-.226-.357-.556-.535-.989-.535-.433 0-.76.178-.981.532-.221.355-.332.88-.332 1.578zm14.116-4.878v3.042h-1.094v-3.042h1.094zm5.776 4.775v2.12c.359-.01.639-.11.84-.299.202-.189.303-.446.303-.771 0-.303-.091-.538-.273-.706-.183-.167-.472-.282-.87-.344zm-.488-.928v-2.016c-.338.013-.603.11-.793.293-.19.182-.286.426-.286.732 0 .28.089.501.266.664.178.163.449.272.813.327zm.488 5.23h-.488L81.111 81a5.668 5.668 0 0 1-.988-.137 5.944 5.944 0 0 1-.97-.312v-.88c.326.203.654.357.984.465.33.107.657.164.98.17V78.07c-.652-.1-1.142-.3-1.47-.595-.33-.297-.494-.689-.494-1.177 0-.511.172-.919.515-1.223.344-.305.826-.48 1.448-.525v-1.148h.488l.005 1.148a6.678 6.678 0 0 1 1.587.297v.845a4.736 4.736 0 0 0-.808-.324 3.394 3.394 0 0 0-.784-.135v2.105c.671.1 1.182.31 1.534.625.351.316.527.724.527 1.225 0 .502-.19.92-.569 1.255-.379.336-.875.518-1.487.547l-.005 1.48zm6.265-9.077v3.042h-1.094v-3.042h1.094zm9.83 7.856c.455 0 .752-.07.89-.21.139-.14.208-.443.208-.908v-1.02c0-.557.117-.942.351-1.155.235-.214.668-.358 1.3-.433-.652-.087-1.09-.23-1.314-.427-.225-.197-.337-.582-.337-1.155v-1.308c0-.462-.07-.764-.208-.906-.138-.142-.435-.212-.89-.212h-.343v-.699h.313c.81 0 1.353.12 1.628.36.275.239.413.718.413 1.437v1.27c0 .423.09.744.271.962.18.218.5.327.96.327h.595v.698h-.596c-.42 0-.73.129-.93.386-.2.257-.3.563-.3.918v.976c0 .72-.138 1.2-.413 1.44-.275.242-.818.362-1.628.362h-.313v-.703h.342zm6.02 0c.455 0 .753-.07.89-.21.14-.14.208-.443.208-.908v-1.02c0-.557.118-.942.352-1.155.234-.214.667-.358 1.299-.433-.651-.087-1.09-.23-1.314-.427-.224-.197-.337-.582-.337-1.155v-1.308c0-.462-.069-.764-.207-.906-.138-.142-.436-.212-.891-.212h-.342v-.699h.312c.811 0 1.354.12 1.629.36.275.239.412.718.412 1.437v1.27c0 .423.09.744.271.962.181.218.501.327.96.327h.596v.698h-.596c-.42 0-.73.129-.93.386-.2.257-.3.563-.3.918v.976c0 .72-.138 1.2-.413 1.44-.275.242-.818.362-1.629.362h-.312v-.703h.342zm13.982-.081c-1.008 0-1.512-.574-1.512-1.582v-4.424h-1.12v-.924h1.12V72.39h1.064v1.848h1.372v.924h-1.372v4.2c0 .504.224.868.672.868.308 0 .574-.14.714-.294l.308.798c-.266.252-.644.434-1.246.434zm8.022-.168h-1.05v-4.452c0-1.204-.602-1.54-1.526-1.54-.812 0-1.596.504-1.988 1.05V81h-1.05v-9.338h1.05v3.556c.462-.574 1.386-1.148 2.408-1.148 1.414 0 2.156.686 2.156 2.156V81zm2.632-7.728a.705.705 0 0 1-.714-.7c0-.392.322-.714.714-.714.392 0 .7.322.7.714 0 .392-.308.7-.7.7zm.518 7.728h-1.05v-6.762h1.05V81zm4.256.168c-1.12 0-2.044-.35-2.73-1.064l.532-.756c.448.518 1.302.966 2.226.966 1.036 0 1.61-.49 1.61-1.162 0-1.638-4.186-.63-4.186-3.136 0-1.064.896-1.946 2.506-1.946 1.162 0 1.974.434 2.506.98l-.49.728c-.406-.49-1.134-.854-2.016-.854-.924 0-1.498.462-1.498 1.064 0 1.47 4.186.504 4.186 3.136 0 1.134-.91 2.044-2.646 2.044zM148.025 81h-1.064l-1.764-5.432L143.433 81h-1.05l-2.156-6.762h1.092l1.652 5.39 1.778-5.39h.91l1.764 5.39 1.652-5.39h1.106L148.025 81zm6.426.168c-2.016 0-3.458-1.442-3.458-3.556 0-1.96 1.4-3.542 3.332-3.542 2.044 0 3.248 1.596 3.248 3.626v.266h-5.46c.084 1.274.966 2.338 2.422 2.338.784 0 1.554-.308 2.1-.868l.504.686c-.686.672-1.596 1.05-2.688 1.05zm2.086-3.99c-.014-.994-.686-2.24-2.226-2.24-1.442 0-2.156 1.218-2.212 2.24h4.438zm5.796 3.99c-2.016 0-3.458-1.442-3.458-3.556 0-1.96 1.4-3.542 3.332-3.542 2.044 0 3.248 1.596 3.248 3.626v.266h-5.46c.084 1.274.966 2.338 2.422 2.338.784 0 1.554-.308 2.1-.868l.504.686c-.686.672-1.596 1.05-2.688 1.05zm2.086-3.99c-.014-.994-.686-2.24-2.226-2.24-1.442 0-2.156 1.218-2.212 2.24h4.438zM173.1 81h-1.344l-2.422-3.038-1.134 1.106V81h-1.05v-9.338h1.05v6.174l3.556-3.598h1.33l-2.996 3.066L173.1 81zm1.806.14c-.42 0-.77-.35-.77-.77 0-.42.35-.77.77-.77.42 0 .77.35.77.77 0 .42-.35.77-.77.77zM17.488 25.182c-2.716 0-4.9-1.918-4.9-4.844 0-2.94 2.184-4.83 4.9-4.83 1.82 0 3.01.868 3.752 1.932l-1.33.77a3.014 3.014 0 0 0-2.422-1.246c-1.848 0-3.22 1.4-3.22 3.374 0 1.946 1.372 3.374 3.22 3.374.952 0 1.792-.434 2.212-.84V21.43h-2.8v-1.442h4.424v3.486a5.045 5.045 0 0 1-3.836 1.708zm8.568-.014c-2.156 0-3.472-1.624-3.472-3.556 0-1.946 1.316-3.542 3.472-3.542 2.156 0 3.472 1.596 3.472 3.542 0 1.932-1.316 3.556-3.472 3.556zm0-1.302c1.26 0 1.946-1.05 1.946-2.254 0-1.19-.686-2.24-1.946-2.24-1.246 0-1.946 1.05-1.946 2.24 0 1.204.7 2.254 1.946 2.254zm8.036 1.302c-2.156 0-3.472-1.624-3.472-3.556 0-1.946 1.316-3.542 3.472-3.542 2.156 0 3.472 1.596 3.472 3.542 0 1.932-1.316 3.556-3.472 3.556zm0-1.302c1.26 0 1.946-1.05 1.946-2.254 0-1.19-.686-2.24-1.946-2.24-1.246 0-1.946 1.05-1.946 2.24 0 1.204.7 2.254 1.946 2.254zM45.292 25h-1.47v-.924c-.518.672-1.288 1.092-2.17 1.092-1.722 0-2.996-1.316-2.996-3.556 0-2.184 1.26-3.542 2.996-3.542.854 0 1.638.378 2.17 1.106v-3.514h1.47V25zm-3.206-1.134c.686 0 1.414-.406 1.736-.91v-2.674c-.322-.504-1.05-.91-1.736-.91-1.176 0-1.918.938-1.918 2.24 0 1.316.742 2.254 1.918 2.254zM58.942 25H57.36l-4.872-6.678V25H50.85v-9.338h1.68l4.774 6.468v-6.468h1.638V25zm5.082.168c-2.044 0-3.542-1.414-3.542-3.556 0-1.96 1.428-3.542 3.43-3.542 2.03 0 3.318 1.54 3.318 3.668v.364h-5.208c.112 1.008.868 1.862 2.142 1.862.672 0 1.442-.266 1.932-.756l.672.966c-.686.644-1.68.994-2.744.994zm1.792-4.116c-.042-.798-.588-1.778-1.918-1.778-1.246 0-1.834.966-1.89 1.778h3.808zM76.134 25h-1.54l-1.582-4.956L71.444 25h-1.54l-2.1-6.762h1.526l1.428 4.914 1.61-4.914h1.302l1.596 4.914 1.428-4.914h1.54L76.134 25zm5.446.168c-1.162 0-2.198-.378-2.898-1.064l.672-1.05c.476.49 1.414.938 2.282.938.882 0 1.344-.364 1.344-.896 0-1.33-4.088-.378-4.088-2.982 0-1.106.952-2.044 2.66-2.044 1.148 0 2.016.406 2.618.938l-.616 1.036c-.406-.448-1.148-.812-2.002-.812-.77 0-1.246.364-1.246.84 0 1.19 4.088.294 4.088 2.982 0 1.204-.994 2.114-2.814 2.114zm5.684-3.038H85.99l-.266-6.468h1.792l-.252 6.468zm-.63 3.01a.992.992 0 0 1-.98-.98c0-.518.448-.966.98-.966s.966.448.966.966a.98.98 0 0 1-.966.98z"/><g transform="translate(97 92)"><use fill="#000" filter="url(#c)" xlink:href="#d"/><use fill="#FFF" xlink:href="#d"/><g transform="translate(12 12)"><mask id="g" fill="#fff"><use xlink:href="#e"/></mask><path fill="url(#f)" mask="url(#g)" d="M0 0h20v20H0z"/><path fill="#FFF" fill-rule="nonzero" mask="url(#g)" d="M9.257 5.684l-2.073.072-.566 3.161H5.4l.246-4.191h9.353l.174 4.191h-1.146l-.565-3.161-2.044-.072v8.801l2.029.145v.87H7.401v-.87l1.856-.145z"/></g><path fill="#384254" fill-rule="nonzero" d="M48.82 45H47.7l-5.446-7.448V45h-1.162v-9.338h1.19l5.376 7.294v-7.294h1.162V45zm2.674-7.728a.705.705 0 0 1-.714-.7c0-.392.322-.714.714-.714.392 0 .7.322.7.714 0 .392-.308.7-.7.7zM52.012 45h-1.05v-6.762h1.05V45zm5.082.168c-2.016 0-3.374-1.554-3.374-3.556s1.358-3.542 3.374-3.542c1.232 0 1.96.504 2.478 1.176l-.7.63c-.448-.616-1.022-.868-1.722-.868-1.428 0-2.338 1.106-2.338 2.604s.91 2.618 2.338 2.618c.7 0 1.274-.28 1.722-.882l.7.644c-.518.672-1.246 1.176-2.478 1.176zm7.028 0c-2.016 0-3.458-1.442-3.458-3.556 0-1.96 1.4-3.542 3.332-3.542 2.044 0 3.248 1.596 3.248 3.626v.266h-5.46c.084 1.274.966 2.338 2.422 2.338.784 0 1.554-.308 2.1-.868l.504.686c-.686.672-1.596 1.05-2.688 1.05zm2.086-3.99c-.014-.994-.686-2.24-2.226-2.24-1.442 0-2.156 1.218-2.212 2.24h4.438zm9.31 3.99c-2.058 0-3.346-1.596-3.346-3.556s1.288-3.542 3.346-3.542 3.346 1.582 3.346 3.542c0 1.96-1.288 3.556-3.346 3.556zm0-.938c1.442 0 2.24-1.232 2.24-2.618 0-1.372-.798-2.604-2.24-2.604-1.442 0-2.24 1.232-2.24 2.604 0 1.386.798 2.618 2.24 2.618zm10.668.77H85.15v-4.424c0-1.204-.616-1.568-1.526-1.568-.826 0-1.596.504-2.002 1.05V45h-1.05v-6.762h1.05v.98c.476-.574 1.4-1.148 2.422-1.148 1.4 0 2.142.714 2.142 2.184V45zm5.18.168c-2.016 0-3.458-1.442-3.458-3.556 0-1.96 1.4-3.542 3.332-3.542 2.044 0 3.248 1.596 3.248 3.626v.266h-5.46c.084 1.274.966 2.338 2.422 2.338.784 0 1.554-.308 2.1-.868l.504.686c-.686.672-1.596 1.05-2.688 1.05zm2.086-3.99c-.014-.994-.686-2.24-2.226-2.24-1.442 0-2.156 1.218-2.212 2.24h4.438zM105.968 45H99.85v-9.338h6.118v1.036h-4.956v3.01h4.858v1.036h-4.858v3.22h4.956V45zm11.018 0h-1.05v-4.592c0-.854-.364-1.4-1.246-1.4-.7 0-1.442.49-1.792 1.036V45h-1.05v-4.592c0-.854-.35-1.4-1.246-1.4-.686 0-1.414.504-1.778 1.05V45h-1.05v-6.762h1.05v.98c.294-.434 1.19-1.148 2.198-1.148 1.022 0 1.61.56 1.806 1.26.378-.616 1.288-1.26 2.268-1.26 1.232 0 1.89.686 1.89 2.044V45zm11.312 0h-1.05v-4.592c0-.854-.364-1.4-1.246-1.4-.7 0-1.442.49-1.792 1.036V45h-1.05v-4.592c0-.854-.35-1.4-1.246-1.4-.686 0-1.414.504-1.778 1.05V45h-1.05v-6.762h1.05v.98c.294-.434 1.19-1.148 2.198-1.148 1.022 0 1.61.56 1.806 1.26.378-.616 1.288-1.26 2.268-1.26 1.232 0 1.89.686 1.89 2.044V45zm7.378 0h-1.05v-.77c-.546.616-1.33.938-2.24.938-1.134 0-2.352-.77-2.352-2.24 0-1.526 1.204-2.226 2.352-2.226.924 0 1.694.294 2.24.91v-1.218c0-.896-.728-1.414-1.708-1.414-.812 0-1.47.28-2.072.938l-.49-.728c.728-.756 1.596-1.12 2.702-1.12 1.442 0 2.618.644 2.618 2.282V45zm-2.898-.588c.728 0 1.442-.28 1.848-.84v-1.288c-.406-.546-1.12-.826-1.848-.826-.994 0-1.68.616-1.68 1.47 0 .868.686 1.484 1.68 1.484zm5.572.728c-.42 0-.77-.35-.77-.77 0-.42.35-.77.77-.77.42 0 .77.35.77.77 0 .42-.35.77-.77.77zm10.22-.14h-1.162v-3.948l-3.682-5.39h1.358l2.898 4.34 2.898-4.34h1.358l-3.668 5.39V45zm6.02.168c-2.058 0-3.346-1.596-3.346-3.556s1.288-3.542 3.346-3.542 3.346 1.582 3.346 3.542c0 1.96-1.288 3.556-3.346 3.556zm0-.938c1.442 0 2.24-1.232 2.24-2.618 0-1.372-.798-2.604-2.24-2.604-1.442 0-2.24 1.232-2.24 2.604 0 1.386.798 2.618 2.24 2.618zm10.668.77h-1.05v-.952c-.518.588-1.4 1.12-2.408 1.12-1.414 0-2.156-.7-2.156-2.156v-4.774h1.05v4.452c0 1.19.602 1.54 1.526 1.54.812 0 1.596-.476 1.988-1.022v-4.97h1.05V45zm7.882.168c-1.12 0-2.044-.35-2.73-1.064l.532-.756c.448.518 1.302.966 2.226.966 1.036 0 1.61-.49 1.61-1.162 0-1.638-4.186-.63-4.186-3.136 0-1.064.896-1.946 2.506-1.946 1.162 0 1.974.434 2.506.98l-.49.728c-.406-.49-1.134-.854-2.016-.854-.924 0-1.498.462-1.498 1.064 0 1.47 4.186.504 4.186 3.136 0 1.134-.91 2.044-2.646 2.044zm9.632-.168h-1.05v-.77c-.546.616-1.33.938-2.24.938-1.134 0-2.352-.77-2.352-2.24 0-1.526 1.204-2.226 2.352-2.226.924 0 1.694.294 2.24.91v-1.218c0-.896-.728-1.414-1.708-1.414-.812 0-1.47.28-2.072.938l-.49-.728c.728-.756 1.596-1.12 2.702-1.12 1.442 0 2.618.644 2.618 2.282V45zm-2.898-.588c.728 0 1.442-.28 1.848-.84v-1.288c-.406-.546-1.12-.826-1.848-.826-.994 0-1.68.616-1.68 1.47 0 .868.686 1.484 1.68 1.484zm7.966.588h-1.148l-2.814-6.762h1.148l2.24 5.544 2.254-5.544h1.134L187.84 45zm6.972.168c-2.016 0-3.458-1.442-3.458-3.556 0-1.96 1.4-3.542 3.332-3.542 2.044 0 3.248 1.596 3.248 3.626v.266h-5.46c.084 1.274.966 2.338 2.422 2.338.784 0 1.554-.308 2.1-.868l.504.686c-.686.672-1.596 1.05-2.688 1.05zm2.086-3.99c-.014-.994-.686-2.24-2.226-2.24-1.442 0-2.156 1.218-2.212 2.24h4.438zm8.68 3.822h-1.05v-1.008c-.504.686-1.33 1.176-2.282 1.176-1.764 0-3.01-1.344-3.01-3.542 0-2.17 1.246-3.556 3.01-3.556.91 0 1.736.448 2.282 1.19v-3.598h1.05V45zm-3.066-.77c.826 0 1.652-.49 2.016-1.078V40.1c-.364-.588-1.19-1.092-2.016-1.092-1.372 0-2.184 1.12-2.184 2.618 0 1.498.812 2.604 2.184 2.604zM43.794 64.4v-1.246c-1.414-.084-2.492-.672-3.192-1.47l.7-.896a3.825 3.825 0 0 0 2.492 1.316v-3.402c-1.428-.392-2.898-.868-2.898-2.59 0-1.442 1.218-2.464 2.898-2.59v-1.274h.854v1.288c1.162.098 2.086.574 2.772 1.288l-.7.854a3.406 3.406 0 0 0-2.072-1.078v3.052c1.442.406 2.982.938 2.982 2.772 0 1.26-.812 2.576-2.982 2.73V64.4h-.854zm2.632-3.892c0-.91-.798-1.288-1.778-1.582v3.192c1.33-.14 1.778-.938 1.778-1.61zM42.1 56.042c0 .77.742 1.106 1.694 1.386v-2.856c-.994.07-1.694.658-1.694 1.47zM55.47 63h-6.412v-.938c3.36-2.632 5.194-4.186 5.194-5.796 0-1.204-.994-1.708-1.96-1.708-1.12 0-1.988.476-2.534 1.176l-.714-.742c.714-.952 1.932-1.47 3.248-1.47 1.554 0 3.136.882 3.136 2.744 0 1.904-1.932 3.64-4.536 5.698h4.578V63zm7.112 0H61.42v-2.366h-4.438v-.966l4.004-6.006h1.596v5.95h1.316v1.022h-1.316V63zm-1.162-3.388V54.74l-3.276 4.872h3.276zm7.21 3.556c-2.562 0-3.57-2.562-3.57-4.83 0-2.282 1.008-4.816 3.57-4.816 2.548 0 3.57 2.534 3.57 4.816 0 2.268-1.022 4.83-3.57 4.83zm0-1.036c1.778 0 2.38-1.932 2.38-3.794s-.602-3.78-2.38-3.78-2.38 1.918-2.38 3.78c0 1.862.602 3.794 2.38 3.794zm5.46 1.008c-.42 0-.77-.35-.77-.77 0-.42.35-.77.77-.77.42 0 .77.35.77.77 0 .42-.35.77-.77.77zm5.39.014c-1.19 0-2.002-.462-2.59-1.12l.588-.868c.476.56 1.036.952 2.002.952 1.89 0 2.632-1.89 2.632-3.668 0-.112 0-.238-.014-.364-.406.644-1.442 1.456-2.632 1.456-1.68 0-3.066-.994-3.066-2.982 0-1.61 1.232-3.052 3.276-3.052 2.604 0 3.612 2.282 3.612 4.83 0 2.52-1.19 4.816-3.808 4.816zm.252-4.62c.924 0 1.834-.574 2.338-1.4-.112-1.148-.728-2.59-2.352-2.59-1.428 0-2.142 1.078-2.142 1.974 0 1.372.952 2.016 2.156 2.016zm8.47 4.634c-1.568 0-2.59-.574-3.29-1.498l.714-.784c.616.798 1.442 1.246 2.576 1.246 1.274 0 2.156-.868 2.156-2.002 0-1.232-.882-2.016-2.142-2.016-.812 0-1.526.266-2.156.868l-.854-.294v-5.026h5.712v1.036h-4.55v3.248c.462-.448 1.246-.84 2.184-.84 1.568 0 2.982 1.05 2.982 2.982 0 1.89-1.456 3.08-3.332 3.08zm10.444 0c-1.008 0-1.512-.574-1.512-1.582v-4.424h-1.12v-.924h1.12V54.39h1.064v1.848h1.372v.924h-1.372v4.2c0 .504.224.868.672.868.308 0 .574-.14.714-.294l.308.798c-.266.252-.644.434-1.246.434zm8.022-.168h-1.05v-4.452c0-1.204-.602-1.54-1.526-1.54-.812 0-1.596.504-1.988 1.05V63h-1.05v-9.338h1.05v3.556c.462-.574 1.386-1.148 2.408-1.148 1.414 0 2.156.686 2.156 2.156V63zm2.632-7.728a.705.705 0 0 1-.714-.7c0-.392.322-.714.714-.714.392 0 .7.322.7.714 0 .392-.308.7-.7.7zm.518 7.728h-1.05v-6.762h1.05V63zm4.256.168c-1.12 0-2.044-.35-2.73-1.064l.532-.756c.448.518 1.302.966 2.226.966 1.036 0 1.61-.49 1.61-1.162 0-1.638-4.186-.63-4.186-3.136 0-1.064.896-1.946 2.506-1.946 1.162 0 1.974.434 2.506.98l-.49.728c-.406-.49-1.134-.854-2.016-.854-.924 0-1.498.462-1.498 1.064 0 1.47 4.186.504 4.186 3.136 0 1.134-.91 2.044-2.646 2.044zM128.97 63h-1.064l-1.764-5.432L124.378 63h-1.05l-2.156-6.762h1.092l1.652 5.39 1.778-5.39h.91l1.764 5.39 1.652-5.39h1.106L128.97 63zm6.426.168c-2.016 0-3.458-1.442-3.458-3.556 0-1.96 1.4-3.542 3.332-3.542 2.044 0 3.248 1.596 3.248 3.626v.266h-5.46c.084 1.274.966 2.338 2.422 2.338.784 0 1.554-.308 2.1-.868l.504.686c-.686.672-1.596 1.05-2.688 1.05zm2.086-3.99c-.014-.994-.686-2.24-2.226-2.24-1.442 0-2.156 1.218-2.212 2.24h4.438zm5.796 3.99c-2.016 0-3.458-1.442-3.458-3.556 0-1.96 1.4-3.542 3.332-3.542 2.044 0 3.248 1.596 3.248 3.626v.266h-5.46c.084 1.274.966 2.338 2.422 2.338.784 0 1.554-.308 2.1-.868l.504.686c-.686.672-1.596 1.05-2.688 1.05zm2.086-3.99c-.014-.994-.686-2.24-2.226-2.24-1.442 0-2.156 1.218-2.212 2.24h4.438zm8.68 3.822H152.7l-2.422-3.038-1.134 1.106V63h-1.05v-9.338h1.05v6.174l3.556-3.598h1.33l-2.996 3.066 3.01 3.696zm1.806.14c-.42 0-.77-.35-.77-.77 0-.42.35-.77.77-.77.42 0 .77.35.77.77 0 .42-.35.77-.77.77zM45.488 25.182c-2.716 0-4.9-1.918-4.9-4.844 0-2.94 2.184-4.83 4.9-4.83 1.82 0 3.01.868 3.752 1.932l-1.33.77a3.014 3.014 0 0 0-2.422-1.246c-1.848 0-3.22 1.4-3.22 3.374 0 1.946 1.372 3.374 3.22 3.374.952 0 1.792-.434 2.212-.84V21.43h-2.8v-1.442h4.424v3.486a5.045 5.045 0 0 1-3.836 1.708zm8.568-.014c-2.156 0-3.472-1.624-3.472-3.556 0-1.946 1.316-3.542 3.472-3.542 2.156 0 3.472 1.596 3.472 3.542 0 1.932-1.316 3.556-3.472 3.556zm0-1.302c1.26 0 1.946-1.05 1.946-2.254 0-1.19-.686-2.24-1.946-2.24-1.246 0-1.946 1.05-1.946 2.24 0 1.204.7 2.254 1.946 2.254zm8.036 1.302c-2.156 0-3.472-1.624-3.472-3.556 0-1.946 1.316-3.542 3.472-3.542 2.156 0 3.472 1.596 3.472 3.542 0 1.932-1.316 3.556-3.472 3.556zm0-1.302c1.26 0 1.946-1.05 1.946-2.254 0-1.19-.686-2.24-1.946-2.24-1.246 0-1.946 1.05-1.946 2.24 0 1.204.7 2.254 1.946 2.254zM73.292 25h-1.47v-.924c-.518.672-1.288 1.092-2.17 1.092-1.722 0-2.996-1.316-2.996-3.556 0-2.184 1.26-3.542 2.996-3.542.854 0 1.638.378 2.17 1.106v-3.514h1.47V25zm-3.206-1.134c.686 0 1.414-.406 1.736-.91v-2.674c-.322-.504-1.05-.91-1.736-.91-1.176 0-1.918.938-1.918 2.24 0 1.316.742 2.254 1.918 2.254zM86.942 25H85.36l-4.872-6.678V25H78.85v-9.338h1.68l4.774 6.468v-6.468h1.638V25zm5.082.168c-2.044 0-3.542-1.414-3.542-3.556 0-1.96 1.428-3.542 3.43-3.542 2.03 0 3.318 1.54 3.318 3.668v.364h-5.208c.112 1.008.868 1.862 2.142 1.862.672 0 1.442-.266 1.932-.756l.672.966c-.686.644-1.68.994-2.744.994zm1.792-4.116c-.042-.798-.588-1.778-1.918-1.778-1.246 0-1.834.966-1.89 1.778h3.808zM104.134 25h-1.54l-1.582-4.956L99.444 25h-1.54l-2.1-6.762h1.526l1.428 4.914 1.61-4.914h1.302l1.596 4.914 1.428-4.914h1.54l-2.1 6.762zm5.446.168c-1.162 0-2.198-.378-2.898-1.064l.672-1.05c.476.49 1.414.938 2.282.938.882 0 1.344-.364 1.344-.896 0-1.33-4.088-.378-4.088-2.982 0-1.106.952-2.044 2.66-2.044 1.148 0 2.016.406 2.618.938l-.616 1.036c-.406-.448-1.148-.812-2.002-.812-.77 0-1.246.364-1.246.84 0 1.19 4.088.294 4.088 2.982 0 1.204-.994 2.114-2.814 2.114zm5.684-3.038h-1.274l-.266-6.468h1.792l-.252 6.468zm-.63 3.01a.992.992 0 0 1-.98-.98c0-.518.448-.966.98-.966s.966.448.966.966a.98.98 0 0 1-.966.98z"/></g></g></svg>