<svg xmlns="http://www.w3.org/2000/svg" xmlns:xlink="http://www.w3.org/1999/xlink" width="259" height="80" viewBox="0 0 259 80">
  <defs>
    <path id="push-message-3-a" d="M20,6.25633333 C20,6.01733333 20,5.77866667 19.9986667,5.53966667 C19.9973333,5.33866667 19.995,5.13733333 19.9896667,4.93633333 C19.978,4.498 19.952,4.056 19.8743333,3.62266667 C19.7953333,3.18266667 19.6663333,2.77333333 19.4626667,2.37366667 C19.2626667,1.98066667 19.0016667,1.62166667 18.69,1.31 C18.3783333,0.998666667 18.0193333,0.737333333 17.6263333,0.537333333 C17.227,0.334 16.8176667,0.205 16.378,0.126 C15.9443333,0.048 15.5023333,0.0223333333 15.064,0.0103333333 C14.8626667,0.005 14.6616667,0.00266666667 14.4603333,0.00133333333 C14.2216667,1.77635684e-15 13.9826667,1.77635684e-15 13.7436667,1.77635684e-15 L6.25633333,1.77635684e-15 C6.01766667,1.77635684e-15 5.77866667,1.77635684e-15 5.54,0.00133333333 C5.33866667,0.00266666667 5.13733333,0.005 4.93633333,0.0103333333 C4.498,0.0223333333 4.05566667,0.048 3.62233333,0.126 C3.18266667,0.205 2.77333333,0.334 2.374,0.537333333 C1.981,0.737333333 1.62166667,0.998666667 1.31033333,1.31 C0.998666667,1.62166667 0.737666667,1.98066667 0.537666667,2.37366667 C0.334,2.77333333 0.205,3.18266667 0.126,3.62266667 C0.0483333333,4.056 0.0223333333,4.498 0.0106666667,4.93633333 C0.00533333333,5.13733333 0.00266666667,5.33866667 0.00166666667,5.53966667 C0,5.77866667 0,6.01733333 0,6.25633333 L0,13.7436667 C0,13.9826667 0,14.2213333 0.00166666667,14.4603333 C0.00266666667,14.6613333 0.00533333333,14.8626667 0.0106666667,15.0636667 C0.0223333333,15.502 0.0483333333,15.944 0.126,16.3773333 C0.205,16.8173333 0.334,17.227 0.537666667,17.6266667 C0.737666667,18.0193333 0.998666667,18.3783333 1.31033333,18.6896667 C1.62166667,19.0016667 1.981,19.2626667 2.374,19.4626667 C2.77333333,19.666 3.18266667,19.795 3.62233333,19.874 C4.05566667,19.9516667 4.498,19.978 4.93633333,19.9896667 C5.13733333,19.995 5.33866667,19.9973333 5.54,19.9986667 C5.77866667,20 6.01766667,20 6.25633333,20 L13.7436667,20 C13.9826667,20 14.2216667,20 14.4603333,19.9986667 C14.6616667,19.9973333 14.8626667,19.995 15.064,19.9896667 C15.5023333,19.978 15.9443333,19.9516667 16.378,19.874 C16.8176667,19.795 17.227,19.666 17.6263333,19.4626667 C18.0193333,19.2626667 18.3783333,19.0016667 18.69,18.6896667 C19.0016667,18.3783333 19.2626667,18.0193333 19.4626667,17.6266667 C19.6663333,17.227 19.7953333,16.8173333 19.8743333,16.3773333 C19.952,15.944 19.978,15.502 19.9896667,15.0636667 C19.995,14.8626667 19.9973333,14.6613333 19.9986667,14.4603333 C20,14.2213333 20,13.9826667 20,13.7436667 L20,6.25633333 Z"/>
    <linearGradient id="push-message-3-b" x1="50%" x2="50%" y1="0%" y2="100%">
      <stop offset="0%" stop-color="#914EA9"/>
      <stop offset="100%" stop-color="#153E7D"/>
    </linearGradient>
  </defs>
  <g fill="none" fill-rule="evenodd">
    <rect width="259" height="80" fill="#FFF"/>
    <g transform="translate(12 12)">
      <mask id="push-message-3-c" fill="#fff">
        <use xlink:href="#push-message-3-a"/>
      </mask>
      <rect width="20" height="20" fill="url(#push-message-3-b)" mask="url(#push-message-3-c)"/>
      <polygon fill="#FFF" fill-rule="nonzero" points="9.257 5.684 7.184 5.756 6.618 8.917 5.4 8.917 5.646 4.726 14.999 4.726 15.173 8.917 14.027 8.917 13.462 5.756 11.418 5.684 11.418 14.485 13.447 14.63 13.447 15.5 7.401 15.5 7.401 14.63 9.257 14.485" mask="url(#push-message-3-c)"/>
    </g>
    <path fill="#384254" fill-rule="nonzero" d="M43.654 45L42.492 45 42.492 37.188 40.994 38.784 40.294 38.07 42.632 35.662 43.654 35.662 43.654 45zM49.03 45.168C46.468 45.168 45.46 42.606 45.46 40.338 45.46 38.056 46.468 35.522 49.03 35.522 51.578 35.522 52.6 38.056 52.6 40.338 52.6 42.606 51.578 45.168 49.03 45.168zM49.03 44.132C50.808 44.132 51.41 42.2 51.41 40.338 51.41 38.476 50.808 36.558 49.03 36.558 47.252 36.558 46.65 38.476 46.65 40.338 46.65 42.2 47.252 44.132 49.03 44.132zM56.002 40.128C54.672 40.128 53.748 39.134 53.748 37.846 53.748 36.516 54.672 35.522 56.002 35.522 57.346 35.522 58.256 36.516 58.256 37.846 58.256 39.134 57.346 40.128 56.002 40.128zM55.876 45L55.106 45 61.07 35.662 61.854 35.662 55.876 45zM60.874 45.168C59.544 45.168 58.62 44.174 58.62 42.872 58.62 41.57 59.544 40.562 60.874 40.562 62.204 40.562 63.114 41.57 63.114 42.872 63.114 44.174 62.204 45.168 60.874 45.168zM56.002 39.414C56.842 39.414 57.416 38.728 57.416 37.846 57.416 36.922 56.842 36.236 56.002 36.236 55.176 36.236 54.588 36.922 54.588 37.846 54.588 38.728 55.176 39.414 56.002 39.414zM60.874 44.454C61.714 44.454 62.288 43.768 62.288 42.872 62.288 41.962 61.714 41.276 60.874 41.276 60.02 41.276 59.446 41.962 59.446 42.872 59.446 43.768 60.02 44.454 60.874 44.454zM71.192 45.168C69.134 45.168 67.846 43.572 67.846 41.612 67.846 39.652 69.134 38.07 71.192 38.07 73.25 38.07 74.538 39.652 74.538 41.612 74.538 43.572 73.25 45.168 71.192 45.168zM71.192 44.23C72.634 44.23 73.432 42.998 73.432 41.612 73.432 40.24 72.634 39.008 71.192 39.008 69.75 39.008 68.952 40.24 68.952 41.612 68.952 42.998 69.75 44.23 71.192 44.23zM77.59 45L76.54 45 76.54 39.162 75.42 39.162 75.42 38.238 76.54 38.238 76.54 37.72C76.54 36.334 77.31 35.522 78.5 35.522 79.046 35.522 79.508 35.648 79.928 36.04L79.494 36.712C79.27 36.516 79.004 36.39 78.668 36.39 77.968 36.39 77.59 36.852 77.59 37.72L77.59 38.238 78.962 38.238 78.962 39.162 77.59 39.162 77.59 45zM81.566 45L80.516 45 80.516 39.162 79.396 39.162 79.396 38.238 80.516 38.238 80.516 37.72C80.516 36.334 81.286 35.522 82.476 35.522 83.022 35.522 83.484 35.648 83.904 36.04L83.47 36.712C83.246 36.516 82.98 36.39 82.644 36.39 81.944 36.39 81.566 36.852 81.566 37.72L81.566 38.238 82.938 38.238 82.938 39.162 81.566 39.162 81.566 45zM89.966 45.168C88.846 45.168 87.922 44.818 87.236 44.104L87.768 43.348C88.216 43.866 89.07 44.314 89.994 44.314 91.03 44.314 91.604 43.824 91.604 43.152 91.604 41.514 87.418 42.522 87.418 40.016 87.418 38.952 88.314 38.07 89.924 38.07 91.086 38.07 91.898 38.504 92.43 39.05L91.94 39.778C91.534 39.288 90.806 38.924 89.924 38.924 89 38.924 88.426 39.386 88.426 39.988 88.426 41.458 92.612 40.492 92.612 43.124 92.612 44.258 91.702 45.168 89.966 45.168zM99.934 45L98.884 45 98.884 44.048C98.366 44.636 97.484 45.168 96.476 45.168 95.062 45.168 94.32 44.468 94.32 43.012L94.32 38.238 95.37 38.238 95.37 42.69C95.37 43.88 95.972 44.23 96.896 44.23 97.708 44.23 98.492 43.754 98.884 43.208L98.884 38.238 99.934 38.238 99.934 45zM103.084 43.166C103.448 43.754 104.274 44.23 105.114 44.23 106.472 44.23 107.284 43.124 107.284 41.626 107.284 40.128 106.472 39.008 105.114 39.008 104.274 39.008 103.448 39.512 103.084 40.1L103.084 43.166zM103.084 45L102.034 45 102.034 35.662 103.084 35.662 103.084 39.26C103.63 38.518 104.456 38.07 105.366 38.07 107.144 38.07 108.376 39.456 108.376 41.626 108.376 43.824 107.13 45.168 105.366 45.168 104.414 45.168 103.588 44.678 103.084 43.992L103.084 45zM112.24 45.168C111.12 45.168 110.196 44.818 109.51 44.104L110.042 43.348C110.49 43.866 111.344 44.314 112.268 44.314 113.304 44.314 113.878 43.824 113.878 43.152 113.878 41.514 109.692 42.522 109.692 40.016 109.692 38.952 110.588 38.07 112.198 38.07 113.36 38.07 114.172 38.504 114.704 39.05L114.214 39.778C113.808 39.288 113.08 38.924 112.198 38.924 111.274 38.924 110.7 39.386 110.7 39.988 110.7 41.458 114.886 40.492 114.886 43.124 114.886 44.258 113.976 45.168 112.24 45.168zM119.576 45.168C117.56 45.168 116.202 43.614 116.202 41.612 116.202 39.61 117.56 38.07 119.576 38.07 120.808 38.07 121.536 38.574 122.054 39.246L121.354 39.876C120.906 39.26 120.332 39.008 119.632 39.008 118.204 39.008 117.294 40.114 117.294 41.612 117.294 43.11 118.204 44.23 119.632 44.23 120.332 44.23 120.906 43.95 121.354 43.348L122.054 43.992C121.536 44.664 120.808 45.168 119.576 45.168zM124.588 45L123.538 45 123.538 38.238 124.588 38.238 124.588 39.316C125.134 38.616 125.918 38.084 126.842 38.084L126.842 39.162C126.716 39.148 126.59 39.134 126.436 39.134 125.778 39.134 124.896 39.666 124.588 40.212L124.588 45zM128.69 37.272C128.298 37.272 127.976 36.964 127.976 36.572 127.976 36.18 128.298 35.858 128.69 35.858 129.082 35.858 129.39 36.18 129.39 36.572 129.39 36.964 129.082 37.272 128.69 37.272zM129.208 45L128.158 45 128.158 38.238 129.208 38.238 129.208 45zM134.64 45.168C133.716 45.168 132.918 44.72 132.358 43.978L132.358 47.576 131.308 47.576 131.308 38.238 132.358 38.238 132.358 39.246C132.848 38.56 133.688 38.07 134.64 38.07 136.418 38.07 137.65 39.414 137.65 41.612 137.65 43.796 136.418 45.168 134.64 45.168zM134.374 44.23C135.732 44.23 136.544 43.11 136.544 41.612 136.544 40.114 135.732 39.008 134.374 39.008 133.548 39.008 132.722 39.498 132.358 40.086L132.358 43.138C132.722 43.726 133.548 44.23 134.374 44.23zM141.038 45.168C140.03 45.168 139.526 44.594 139.526 43.586L139.526 39.162 138.406 39.162 138.406 38.238 139.526 38.238 139.526 36.39 140.59 36.39 140.59 38.238 141.962 38.238 141.962 39.162 140.59 39.162 140.59 43.362C140.59 43.866 140.814 44.23 141.262 44.23 141.57 44.23 141.836 44.09 141.976 43.936L142.284 44.734C142.018 44.986 141.64 45.168 141.038 45.168zM143.964 37.272C143.572 37.272 143.25 36.964 143.25 36.572 143.25 36.18 143.572 35.858 143.964 35.858 144.356 35.858 144.664 36.18 144.664 36.572 144.664 36.964 144.356 37.272 143.964 37.272zM144.482 45L143.432 45 143.432 38.238 144.482 38.238 144.482 45zM149.536 45.168C147.478 45.168 146.19 43.572 146.19 41.612 146.19 39.652 147.478 38.07 149.536 38.07 151.594 38.07 152.882 39.652 152.882 41.612 152.882 43.572 151.594 45.168 149.536 45.168zM149.536 44.23C150.978 44.23 151.776 42.998 151.776 41.612 151.776 40.24 150.978 39.008 149.536 39.008 148.094 39.008 147.296 40.24 147.296 41.612 147.296 42.998 148.094 44.23 149.536 44.23zM160.204 45L159.168 45 159.168 40.576C159.168 39.372 158.552 39.008 157.642 39.008 156.816 39.008 156.046 39.512 155.64 40.058L155.64 45 154.59 45 154.59 38.238 155.64 38.238 155.64 39.218C156.116 38.644 157.04 38.07 158.062 38.07 159.462 38.07 160.204 38.784 160.204 40.254L160.204 45zM164.474 45.168C163.354 45.168 162.43 44.818 161.744 44.104L162.276 43.348C162.724 43.866 163.578 44.314 164.502 44.314 165.538 44.314 166.112 43.824 166.112 43.152 166.112 41.514 161.926 42.522 161.926 40.016 161.926 38.952 162.822 38.07 164.432 38.07 165.594 38.07 166.406 38.504 166.938 39.05L166.448 39.778C166.042 39.288 165.314 38.924 164.432 38.924 163.508 38.924 162.934 39.386 162.934 39.988 162.934 41.458 167.12 40.492 167.12 43.124 167.12 44.258 166.21 45.168 164.474 45.168zM175.184 42.074L171.824 42.074 171.824 41.15 175.184 41.15 175.184 42.074zM42.1 63L41.05 63 41.05 53.662 42.1 53.662 42.1 63zM44.732 55.272C44.34 55.272 44.018 54.964 44.018 54.572 44.018 54.18 44.34 53.858 44.732 53.858 45.124 53.858 45.432 54.18 45.432 54.572 45.432 54.964 45.124 55.272 44.732 55.272zM45.25 63L44.2 63 44.2 56.238 45.25 56.238 45.25 63zM56.562 63L55.512 63 55.512 58.408C55.512 57.554 55.148 57.008 54.266 57.008 53.566 57.008 52.824 57.498 52.474 58.044L52.474 63 51.424 63 51.424 58.408C51.424 57.554 51.074 57.008 50.178 57.008 49.492 57.008 48.764 57.512 48.4 58.058L48.4 63 47.35 63 47.35 56.238 48.4 56.238 48.4 57.218C48.694 56.784 49.59 56.07 50.598 56.07 51.62 56.07 52.208 56.63 52.404 57.33 52.782 56.714 53.692 56.07 54.672 56.07 55.904 56.07 56.562 56.756 56.562 58.114L56.562 63zM59.194 55.272C58.802 55.272 58.48 54.964 58.48 54.572 58.48 54.18 58.802 53.858 59.194 53.858 59.586 53.858 59.894 54.18 59.894 54.572 59.894 54.964 59.586 55.272 59.194 55.272zM59.712 63L58.662 63 58.662 56.238 59.712 56.238 59.712 63zM63.534 63.168C62.526 63.168 62.022 62.594 62.022 61.586L62.022 57.162 60.902 57.162 60.902 56.238 62.022 56.238 62.022 54.39 63.086 54.39 63.086 56.238 64.458 56.238 64.458 57.162 63.086 57.162 63.086 61.362C63.086 61.866 63.31 62.23 63.758 62.23 64.066 62.23 64.332 62.09 64.472 61.936L64.78 62.734C64.514 62.986 64.136 63.168 63.534 63.168zM68.994 63.168C66.978 63.168 65.536 61.726 65.536 59.612 65.536 57.652 66.936 56.07 68.868 56.07 70.912 56.07 72.116 57.666 72.116 59.696L72.116 59.962 66.656 59.962C66.74 61.236 67.622 62.3 69.078 62.3 69.862 62.3 70.632 61.992 71.178 61.432L71.682 62.118C70.996 62.79 70.086 63.168 68.994 63.168zM71.08 59.178C71.066 58.184 70.394 56.938 68.854 56.938 67.412 56.938 66.698 58.156 66.642 59.178L71.08 59.178zM79.76 63L78.71 63 78.71 61.992C78.206 62.678 77.38 63.168 76.428 63.168 74.664 63.168 73.418 61.824 73.418 59.626 73.418 57.456 74.664 56.07 76.428 56.07 77.338 56.07 78.164 56.518 78.71 57.26L78.71 53.662 79.76 53.662 79.76 63zM76.694 62.23C77.52 62.23 78.346 61.74 78.71 61.152L78.71 58.1C78.346 57.512 77.52 57.008 76.694 57.008 75.322 57.008 74.51 58.128 74.51 59.626 74.51 61.124 75.322 62.23 76.694 62.23zM87.208 63.168C86.2 63.168 85.696 62.594 85.696 61.586L85.696 57.162 84.576 57.162 84.576 56.238 85.696 56.238 85.696 54.39 86.76 54.39 86.76 56.238 88.132 56.238 88.132 57.162 86.76 57.162 86.76 61.362C86.76 61.866 86.984 62.23 87.432 62.23 87.74 62.23 88.006 62.09 88.146 61.936L88.454 62.734C88.188 62.986 87.81 63.168 87.208 63.168zM90.134 55.272C89.742 55.272 89.42 54.964 89.42 54.572 89.42 54.18 89.742 53.858 90.134 53.858 90.526 53.858 90.834 54.18 90.834 54.572 90.834 54.964 90.526 55.272 90.134 55.272zM90.652 63L89.602 63 89.602 56.238 90.652 56.238 90.652 63zM101.964 63L100.914 63 100.914 58.408C100.914 57.554 100.55 57.008 99.668 57.008 98.968 57.008 98.226 57.498 97.876 58.044L97.876 63 96.826 63 96.826 58.408C96.826 57.554 96.476 57.008 95.58 57.008 94.894 57.008 94.166 57.512 93.802 58.058L93.802 63 92.752 63 92.752 56.238 93.802 56.238 93.802 57.218C94.096 56.784 94.992 56.07 96 56.07 97.022 56.07 97.61 56.63 97.806 57.33 98.184 56.714 99.094 56.07 100.074 56.07 101.306 56.07 101.964 56.756 101.964 58.114L101.964 63zM107.13 63.168C105.114 63.168 103.672 61.726 103.672 59.612 103.672 57.652 105.072 56.07 107.004 56.07 109.048 56.07 110.252 57.666 110.252 59.696L110.252 59.962 104.792 59.962C104.876 61.236 105.758 62.3 107.214 62.3 107.998 62.3 108.768 61.992 109.314 61.432L109.818 62.118C109.132 62.79 108.222 63.168 107.13 63.168zM109.216 59.178C109.202 58.184 108.53 56.938 106.99 56.938 105.548 56.938 104.834 58.156 104.778 59.178L109.216 59.178zM118.526 63.168C116.468 63.168 115.18 61.572 115.18 59.612 115.18 57.652 116.468 56.07 118.526 56.07 120.584 56.07 121.872 57.652 121.872 59.612 121.872 61.572 120.584 63.168 118.526 63.168zM118.526 62.23C119.968 62.23 120.766 60.998 120.766 59.612 120.766 58.24 119.968 57.008 118.526 57.008 117.084 57.008 116.286 58.24 116.286 59.612 116.286 60.998 117.084 62.23 118.526 62.23zM129.194 63L128.158 63 128.158 58.576C128.158 57.372 127.542 57.008 126.632 57.008 125.806 57.008 125.036 57.512 124.63 58.058L124.63 63 123.58 63 123.58 56.238 124.63 56.238 124.63 57.218C125.106 56.644 126.03 56.07 127.052 56.07 128.452 56.07 129.194 56.784 129.194 58.254L129.194 63zM132.358 63L131.308 63 131.308 53.662 132.358 53.662 132.358 63zM134.094 65.646L134.248 64.694C134.402 64.764 134.654 64.806 134.822 64.806 135.284 64.806 135.592 64.652 135.83 64.092L136.278 63.07 133.45 56.238 134.598 56.238 136.838 61.782 139.092 56.238 140.226 56.238 136.838 64.372C136.432 65.352 135.746 65.73 134.85 65.744 134.626 65.744 134.276 65.702 134.094 65.646zM45.488 25.182C42.772 25.182 40.588 23.264 40.588 20.338 40.588 17.398 42.772 15.508 45.488 15.508 47.308 15.508 48.498 16.376 49.24 17.44L47.91 18.21C47.406 17.51 46.524 16.964 45.488 16.964 43.64 16.964 42.268 18.364 42.268 20.338 42.268 22.284 43.64 23.712 45.488 23.712 46.44 23.712 47.28 23.278 47.7 22.872L47.7 21.43 44.9 21.43 44.9 19.988 49.324 19.988 49.324 23.474C48.414 24.496 47.098 25.182 45.488 25.182zM54.056 25.168C51.9 25.168 50.584 23.544 50.584 21.612 50.584 19.666 51.9 18.07 54.056 18.07 56.212 18.07 57.528 19.666 57.528 21.612 57.528 23.544 56.212 25.168 54.056 25.168zM54.056 23.866C55.316 23.866 56.002 22.816 56.002 21.612 56.002 20.422 55.316 19.372 54.056 19.372 52.81 19.372 52.11 20.422 52.11 21.612 52.11 22.816 52.81 23.866 54.056 23.866zM62.092 25.168C59.936 25.168 58.62 23.544 58.62 21.612 58.62 19.666 59.936 18.07 62.092 18.07 64.248 18.07 65.564 19.666 65.564 21.612 65.564 23.544 64.248 25.168 62.092 25.168zM62.092 23.866C63.352 23.866 64.038 22.816 64.038 21.612 64.038 20.422 63.352 19.372 62.092 19.372 60.846 19.372 60.146 20.422 60.146 21.612 60.146 22.816 60.846 23.866 62.092 23.866zM73.292 25L71.822 25 71.822 24.076C71.304 24.748 70.534 25.168 69.652 25.168 67.93 25.168 66.656 23.852 66.656 21.612 66.656 19.428 67.916 18.07 69.652 18.07 70.506 18.07 71.29 18.448 71.822 19.176L71.822 15.662 73.292 15.662 73.292 25zM70.086 23.866C70.772 23.866 71.5 23.46 71.822 22.956L71.822 20.282C71.5 19.778 70.772 19.372 70.086 19.372 68.91 19.372 68.168 20.31 68.168 21.612 68.168 22.928 68.91 23.866 70.086 23.866zM86.942 25L85.36 25 80.488 18.322 80.488 25 78.85 25 78.85 15.662 80.53 15.662 85.304 22.13 85.304 15.662 86.942 15.662 86.942 25zM92.024 25.168C89.98 25.168 88.482 23.754 88.482 21.612 88.482 19.652 89.91 18.07 91.912 18.07 93.942 18.07 95.23 19.61 95.23 21.738L95.23 22.102 90.022 22.102C90.134 23.11 90.89 23.964 92.164 23.964 92.836 23.964 93.606 23.698 94.096 23.208L94.768 24.174C94.082 24.818 93.088 25.168 92.024 25.168zM93.816 21.052C93.774 20.254 93.228 19.274 91.898 19.274 90.652 19.274 90.064 20.24 90.008 21.052L93.816 21.052zM104.134 25L102.594 25 101.012 20.044 99.444 25 97.904 25 95.804 18.238 97.33 18.238 98.758 23.152 100.368 18.238 101.67 18.238 103.266 23.152 104.694 18.238 106.234 18.238 104.134 25zM109.58 25.168C108.418 25.168 107.382 24.79 106.682 24.104L107.354 23.054C107.83 23.544 108.768 23.992 109.636 23.992 110.518 23.992 110.98 23.628 110.98 23.096 110.98 21.766 106.892 22.718 106.892 20.114 106.892 19.008 107.844 18.07 109.552 18.07 110.7 18.07 111.568 18.476 112.17 19.008L111.554 20.044C111.148 19.596 110.406 19.232 109.552 19.232 108.782 19.232 108.306 19.596 108.306 20.072 108.306 21.262 112.394 20.366 112.394 23.054 112.394 24.258 111.4 25.168 109.58 25.168zM115.264 22.13L113.99 22.13 113.724 15.662 115.516 15.662 115.264 22.13zM114.634 25.14C114.102 25.14 113.654 24.692 113.654 24.16 113.654 23.642 114.102 23.194 114.634 23.194 115.166 23.194 115.6 23.642 115.6 24.16 115.6 24.692 115.166 25.14 114.634 25.14z"/>
  </g>
</svg>
