<svg xmlns="http://www.w3.org/2000/svg" xmlns:xlink="http://www.w3.org/1999/xlink" width="259" height="80" viewBox="0 0 259 80"><defs><path id="a" d="M20 6.256l-.001-.716a30.346 30.346 0 0 0-.01-.604 8.77 8.77 0 0 0-.115-1.313 4.424 4.424 0 0 0-.411-1.25A4.196 4.196 0 0 0 17.626.538a4.43 4.43 0 0 0-1.248-.411A8.78 8.78 0 0 0 15.064.01a30.379 30.379 0 0 0-.604-.009L13.744 0H6.256L5.54.001c-.201.002-.403.004-.604.01-.438.011-.88.037-1.314.115a4.43 4.43 0 0 0-1.248.411A4.199 4.199 0 0 0 .538 2.374c-.204.4-.333.809-.412 1.249a8.77 8.77 0 0 0-.115 1.313c-.006.201-.008.403-.01.604L0 6.256v7.488c0 .239 0 .477.002.716 0 .201.003.403.009.604.011.438.037.88.115 1.313.079.44.208.85.412 1.25a4.193 4.193 0 0 0 1.836 1.836c.4.203.809.332 1.248.411.434.078.876.104 1.314.116.201.005.403.007.604.009l.716.001h7.488l.716-.001c.202-.002.403-.004.604-.01a8.78 8.78 0 0 0 1.314-.115 4.43 4.43 0 0 0 1.248-.411 4.19 4.19 0 0 0 1.837-1.836c.203-.4.332-.81.411-1.25a8.77 8.77 0 0 0 .116-1.313c.005-.201.007-.403.009-.604l.001-.716V6.256z"/><linearGradient id="b" x1="50%" x2="50%" y1="0%" y2="100%"><stop offset="0%" stop-color="#914EA9"/><stop offset="100%" stop-color="#153E7D"/></linearGradient></defs><g fill="none" fill-rule="evenodd"><path fill="#FFF" d="M0 0h259v80H0z"/><g transform="translate(12 12)"><mask id="c" fill="#fff"><use xlink:href="#a"/></mask><path fill="url(#b)" mask="url(#c)" d="M0 0h20v20H0z"/><path fill="#FFF" fill-rule="nonzero" mask="url(#c)" d="M9.257 5.684l-2.073.072-.566 3.161H5.4l.246-4.191h9.353l.174 4.191h-1.146l-.565-3.161-2.044-.072v8.801l2.029.145v.87H7.401v-.87l1.856-.145z"/></g><path fill="#384254" fill-rule="nonzero" d="M44.97 45h-1.162v-3.948l-3.682-5.39h1.358l2.898 4.34 2.898-4.34h1.358l-3.668 5.39V45zm6.02.168c-2.058 0-3.346-1.596-3.346-3.556s1.288-3.542 3.346-3.542 3.346 1.582 3.346 3.542c0 1.96-1.288 3.556-3.346 3.556zm0-.938c1.442 0 2.24-1.232 2.24-2.618 0-1.372-.798-2.604-2.24-2.604-1.442 0-2.24 1.232-2.24 2.604 0 1.386.798 2.618 2.24 2.618zm10.668.77h-1.05v-.952c-.518.588-1.4 1.12-2.408 1.12-1.414 0-2.156-.7-2.156-2.156v-4.774h1.05v4.452c0 1.19.602 1.54 1.526 1.54.812 0 1.596-.476 1.988-1.022v-4.97h1.05V45zm11.354 0h-1.05v-4.452c0-1.204-.602-1.54-1.526-1.54-.812 0-1.596.504-1.988 1.05V45h-1.05v-9.338h1.05v3.556c.462-.574 1.386-1.148 2.408-1.148 1.414 0 2.156.686 2.156 2.156V45zm7.378 0h-1.05v-.77c-.546.616-1.33.938-2.24.938-1.134 0-2.352-.77-2.352-2.24 0-1.526 1.204-2.226 2.352-2.226.924 0 1.694.294 2.24.91v-1.218c0-.896-.728-1.414-1.708-1.414-.812 0-1.47.28-2.072.938l-.49-.728c.728-.756 1.596-1.12 2.702-1.12 1.442 0 2.618.644 2.618 2.282V45zm-2.898-.588c.728 0 1.442-.28 1.848-.84v-1.288c-.406-.546-1.12-.826-1.848-.826-.994 0-1.68.616-1.68 1.47 0 .868.686 1.484 1.68 1.484zm7.966.588H84.31l-2.814-6.762h1.148l2.24 5.544 2.254-5.544h1.134L85.458 45zm6.972.168c-2.016 0-3.458-1.442-3.458-3.556 0-1.96 1.4-3.542 3.332-3.542 2.044 0 3.248 1.596 3.248 3.626v.266h-5.46c.084 1.274.966 2.338 2.422 2.338.784 0 1.554-.308 2.1-.868l.504.686c-.686.672-1.596 1.05-2.688 1.05zm2.086-3.99c-.014-.994-.686-2.24-2.226-2.24-1.442 0-2.156 1.218-2.212 2.24h4.438zM107.284 45h-6.762v-1.302c3.626-2.744 5.054-3.948 5.054-5.306 0-.98-.854-1.414-1.708-1.414-1.092 0-1.918.434-2.52 1.106l-.952-1.064c.826-1.008 2.142-1.498 3.458-1.498 1.806 0 3.374 1.008 3.374 2.87 0 1.736-1.582 3.276-4.074 5.166h4.13V45zm7.476.168c-1.148 0-1.736-.616-1.736-1.75v-3.906h-1.12v-1.274h1.12V36.39h1.47v1.848h1.372v1.274h-1.372v3.542c0 .462.224.812.644.812.28 0 .532-.126.644-.252l.35 1.12c-.266.238-.7.434-1.372.434zm8.036-.168h-1.47v-.742c-.504.588-1.302.91-2.198.91-1.092 0-2.338-.756-2.338-2.24 0-1.568 1.232-2.212 2.338-2.212.924 0 1.694.294 2.198.868v-1.008c0-.784-.658-1.26-1.582-1.26-.756 0-1.428.28-2.002.868l-.616-1.022c.784-.756 1.764-1.092 2.842-1.092 1.512 0 2.828.63 2.828 2.436V45zm-3.08-.84c.63 0 1.26-.238 1.61-.7v-1.036c-.35-.462-.98-.7-1.61-.7-.826 0-1.456.49-1.456 1.218 0 .742.63 1.218 1.456 1.218zm7.308 1.008c-1.162 0-2.198-.378-2.898-1.064l.672-1.05c.476.49 1.414.938 2.282.938.882 0 1.344-.364 1.344-.896 0-1.33-4.088-.378-4.088-2.982 0-1.106.952-2.044 2.66-2.044 1.148 0 2.016.406 2.618.938l-.616 1.036c-.406-.448-1.148-.812-2.002-.812-.77 0-1.246.364-1.246.84 0 1.19 4.088.294 4.088 2.982 0 1.204-.994 2.114-2.814 2.114zM137.636 45h-1.848l-2.058-2.8-.952.98V45h-1.47v-9.338h1.47V41.5l2.982-3.262h1.82l-2.8 3.066L137.636 45zm3.374.168c-1.162 0-2.198-.378-2.898-1.064l.672-1.05c.476.49 1.414.938 2.282.938.882 0 1.344-.364 1.344-.896 0-1.33-4.088-.378-4.088-2.982 0-1.106.952-2.044 2.66-2.044 1.148 0 2.016.406 2.618.938l-.616 1.036c-.406-.448-1.148-.812-2.002-.812-.77 0-1.246.364-1.246.84 0 1.19 4.088.294 4.088 2.982 0 1.204-.994 2.114-2.814 2.114zM154.968 45h-1.05v-1.008c-.504.686-1.33 1.176-2.282 1.176-1.764 0-3.01-1.344-3.01-3.542 0-2.17 1.246-3.556 3.01-3.556.91 0 1.736.448 2.282 1.19v-3.598h1.05V45zm-3.066-.77c.826 0 1.652-.49 2.016-1.078V40.1c-.364-.588-1.19-1.092-2.016-1.092-1.372 0-2.184 1.12-2.184 2.618 0 1.498.812 2.604 2.184 2.604zm10.78.77h-1.05v-.952c-.518.588-1.4 1.12-2.408 1.12-1.414 0-2.156-.7-2.156-2.156v-4.774h1.05v4.452c0 1.19.602 1.54 1.526 1.54.812 0 1.596-.476 1.988-1.022v-4.97h1.05V45zm5.166.168c-2.016 0-3.458-1.442-3.458-3.556 0-1.96 1.4-3.542 3.332-3.542 2.044 0 3.248 1.596 3.248 3.626v.266h-5.46c.084 1.274.966 2.338 2.422 2.338.784 0 1.554-.308 2.1-.868l.504.686c-.686.672-1.596 1.05-2.688 1.05zm2.086-3.99c-.014-.994-.686-2.24-2.226-2.24-1.442 0-2.156 1.218-2.212 2.24h4.438zM42.996 63.168c-1.148 0-1.736-.616-1.736-1.75v-3.906h-1.12v-1.274h1.12V54.39h1.47v1.848h1.372v1.274H42.73v3.542c0 .462.224.812.644.812.28 0 .532-.126.644-.252l.35 1.12c-.266.238-.7.434-1.372.434zm5.488 0c-2.156 0-3.472-1.624-3.472-3.556 0-1.946 1.316-3.542 3.472-3.542 2.156 0 3.472 1.596 3.472 3.542 0 1.932-1.316 3.556-3.472 3.556zm0-1.302c1.26 0 1.946-1.05 1.946-2.254 0-1.19-.686-2.24-1.946-2.24-1.246 0-1.946 1.05-1.946 2.24 0 1.204.7 2.254 1.946 2.254zM63.226 63h-1.47v-4.41c0-.728-.322-1.218-1.12-1.218-.658 0-1.274.448-1.568.896V63h-1.47v-4.41c0-.728-.308-1.218-1.106-1.218-.658 0-1.26.462-1.568.896V63h-1.47v-6.762h1.47v.91c.294-.406 1.176-1.078 2.212-1.078 1.008 0 1.624.504 1.848 1.232.378-.602 1.274-1.232 2.296-1.232 1.232 0 1.946.672 1.946 2.044V63zm4.97.168c-2.156 0-3.472-1.624-3.472-3.556 0-1.946 1.316-3.542 3.472-3.542 2.156 0 3.472 1.596 3.472 3.542 0 1.932-1.316 3.556-3.472 3.556zm0-1.302c1.26 0 1.946-1.05 1.946-2.254 0-1.19-.686-2.24-1.946-2.24-1.246 0-1.946 1.05-1.946 2.24 0 1.204.7 2.254 1.946 2.254zM74.636 63h-1.47v-6.762h1.47v.98c.518-.644 1.33-1.148 2.198-1.148v1.456a2.029 2.029 0 0 0-.448-.042c-.63 0-1.456.42-1.75.91V63zm4.858 0h-1.47v-6.762h1.47v.98c.518-.644 1.33-1.148 2.198-1.148v1.456a2.029 2.029 0 0 0-.448-.042c-.63 0-1.456.42-1.75.91V63zm6.454.168c-2.156 0-3.472-1.624-3.472-3.556 0-1.946 1.316-3.542 3.472-3.542 2.156 0 3.472 1.596 3.472 3.542 0 1.932-1.316 3.556-3.472 3.556zm0-1.302c1.26 0 1.946-1.05 1.946-2.254 0-1.19-.686-2.24-1.946-2.24-1.246 0-1.946 1.05-1.946 2.24 0 1.204.7 2.254 1.946 2.254zM98.366 63h-1.54l-1.582-4.956L93.676 63h-1.54l-2.1-6.762h1.526l1.428 4.914 1.61-4.914h1.302l1.596 4.914 1.428-4.914h1.54L98.366 63zM45.488 25.168c-2.758 0-4.9-1.96-4.9-4.83 0-2.884 2.142-4.83 4.9-4.83 1.876 0 3.052.966 3.738 2.086l-1.386.728a2.76 2.76 0 0 0-2.352-1.358c-1.848 0-3.22 1.4-3.22 3.374 0 1.946 1.372 3.374 3.22 3.374.994 0 1.904-.588 2.352-1.358l1.4.7c-.714 1.12-1.876 2.114-3.752 2.114zm8.078 0c-2.156 0-3.472-1.624-3.472-3.556 0-1.946 1.316-3.542 3.472-3.542 2.156 0 3.472 1.596 3.472 3.542 0 1.932-1.316 3.556-3.472 3.556zm0-1.302c1.26 0 1.946-1.05 1.946-2.254 0-1.19-.686-2.24-1.946-2.24-1.246 0-1.946 1.05-1.946 2.24 0 1.204.7 2.254 1.946 2.254zM68.308 25h-1.47v-4.41c0-.728-.322-1.218-1.12-1.218-.658 0-1.274.448-1.568.896V25h-1.47v-4.41c0-.728-.308-1.218-1.106-1.218-.658 0-1.26.462-1.568.896V25h-1.47v-6.762h1.47v.91c.294-.406 1.176-1.078 2.212-1.078 1.008 0 1.624.504 1.848 1.232.378-.602 1.274-1.232 2.296-1.232 1.232 0 1.946.672 1.946 2.044V25zm2.646-7.588a.908.908 0 0 1-.91-.91c0-.504.406-.91.91-.91s.91.406.91.91-.406.91-.91.91zM71.682 25h-1.47v-6.762h1.47V25zm7.952 0h-1.47v-4.228c0-1.064-.546-1.4-1.372-1.4-.742 0-1.386.448-1.736.896V25h-1.47v-6.762h1.47v.91c.448-.532 1.33-1.078 2.394-1.078 1.456 0 2.184.784 2.184 2.17V25zm4.662 2.744c-1.148 0-2.002-.252-2.842-1.008l.686-1.064c.56.63 1.26.868 2.156.868.966 0 2.002-.448 2.002-1.89v-.77c-.518.686-1.288 1.134-2.17 1.134-1.722 0-2.996-1.246-2.996-3.472 0-2.198 1.246-3.472 2.996-3.472.854 0 1.624.378 2.17 1.106v-.938h1.47v6.412c0 2.436-1.82 3.094-3.472 3.094zm.266-4.046c.686 0 1.4-.406 1.736-.896v-2.534c-.336-.49-1.05-.896-1.736-.896-1.176 0-1.918.868-1.918 2.17s.742 2.156 1.918 2.156zM99.318 25h-1.47v-.896a3.234 3.234 0 0 1-2.38 1.064c-1.456 0-2.184-.77-2.184-2.142v-4.788h1.47v4.242c0 1.05.532 1.386 1.372 1.386.742 0 1.386-.434 1.722-.882v-4.746h1.47V25zm5.544.168c-.854 0-1.61-.392-2.17-1.106v3.514h-1.47v-9.338h1.47v.924a2.698 2.698 0 0 1 2.17-1.092c1.75 0 2.996 1.316 2.996 3.542s-1.246 3.556-2.996 3.556zm-.434-1.302c1.162 0 1.918-.938 1.918-2.254s-.756-2.24-1.918-2.24c-.686 0-1.4.392-1.736.896v2.674c.322.504 1.05.924 1.736.924z"/></g></svg>