<svg xmlns="http://www.w3.org/2000/svg" xmlns:xlink="http://www.w3.org/1999/xlink" width="259" height="80" viewBox="0 0 259 80">
  <defs>
    <path id="push-message-2-a" d="M20,6.25633333 C20,6.01733333 20,5.77866667 19.9986667,5.53966667 C19.9973333,5.33866667 19.995,5.13733333 19.9896667,4.93633333 C19.978,4.498 19.952,4.056 19.8743333,3.62266667 C19.7953333,3.18266667 19.6663333,2.77333333 19.4626667,2.37366667 C19.2626667,1.98066667 19.0016667,1.62166667 18.69,1.31 C18.3783333,0.998666667 18.0193333,0.737333333 17.6263333,0.537333333 C17.227,0.334 16.8176667,0.205 16.378,0.126 C15.9443333,0.048 15.5023333,0.0223333333 15.064,0.0103333333 C14.8626667,0.005 14.6616667,0.00266666667 14.4603333,0.00133333333 C14.2216667,1.77635684e-15 13.9826667,1.77635684e-15 13.7436667,1.77635684e-15 L6.25633333,1.77635684e-15 C6.01766667,1.77635684e-15 5.77866667,1.77635684e-15 5.54,0.00133333333 C5.33866667,0.00266666667 5.13733333,0.005 4.93633333,0.0103333333 C4.498,0.0223333333 4.05566667,0.048 3.62233333,0.126 C3.18266667,0.205 2.77333333,0.334 2.374,0.537333333 C1.981,0.737333333 1.62166667,0.998666667 1.31033333,1.31 C0.998666667,1.62166667 0.737666667,1.98066667 0.537666667,2.37366667 C0.334,2.77333333 0.205,3.18266667 0.126,3.62266667 C0.0483333333,4.056 0.0223333333,4.498 0.0106666667,4.93633333 C0.00533333333,5.13733333 0.00266666667,5.33866667 0.00166666667,5.53966667 C0,5.77866667 0,6.01733333 0,6.25633333 L0,13.7436667 C0,13.9826667 0,14.2213333 0.00166666667,14.4603333 C0.00266666667,14.6613333 0.00533333333,14.8626667 0.0106666667,15.0636667 C0.0223333333,15.502 0.0483333333,15.944 0.126,16.3773333 C0.205,16.8173333 0.334,17.227 0.537666667,17.6266667 C0.737666667,18.0193333 0.998666667,18.3783333 1.31033333,18.6896667 C1.62166667,19.0016667 1.981,19.2626667 2.374,19.4626667 C2.77333333,19.666 3.18266667,19.795 3.62233333,19.874 C4.05566667,19.9516667 4.498,19.978 4.93633333,19.9896667 C5.13733333,19.995 5.33866667,19.9973333 5.54,19.9986667 C5.77866667,20 6.01766667,20 6.25633333,20 L13.7436667,20 C13.9826667,20 14.2216667,20 14.4603333,19.9986667 C14.6616667,19.9973333 14.8626667,19.995 15.064,19.9896667 C15.5023333,19.978 15.9443333,19.9516667 16.378,19.874 C16.8176667,19.795 17.227,19.666 17.6263333,19.4626667 C18.0193333,19.2626667 18.3783333,19.0016667 18.69,18.6896667 C19.0016667,18.3783333 19.2626667,18.0193333 19.4626667,17.6266667 C19.6663333,17.227 19.7953333,16.8173333 19.8743333,16.3773333 C19.952,15.944 19.978,15.502 19.9896667,15.0636667 C19.995,14.8626667 19.9973333,14.6613333 19.9986667,14.4603333 C20,14.2213333 20,13.9826667 20,13.7436667 L20,6.25633333 Z"/>
    <linearGradient id="push-message-2-b" x1="50%" x2="50%" y1="0%" y2="100%">
      <stop offset="0%" stop-color="#914EA9"/>
      <stop offset="100%" stop-color="#153E7D"/>
    </linearGradient>
  </defs>
  <g fill="none" fill-rule="evenodd">
    <rect width="259" height="80" fill="#FFF"/>
    <g transform="translate(12 12)">
      <mask id="push-message-2-c" fill="#fff">
        <use xlink:href="#push-message-2-a"/>
      </mask>
      <rect width="20" height="20" fill="url(#push-message-2-b)" mask="url(#push-message-2-c)"/>
      <polygon fill="#FFF" fill-rule="nonzero" points="9.257 5.684 7.184 5.756 6.618 8.917 5.4 8.917 5.646 4.726 14.999 4.726 15.173 8.917 14.027 8.917 13.462 5.756 11.418 5.684 11.418 14.485 13.447 14.63 13.447 15.5 7.401 15.5 7.401 14.63 9.257 14.485" mask="url(#push-message-2-c)"/>
    </g>
    <path fill="#384254" fill-rule="nonzero" d="M43.794 46.4L43.794 45.154C42.38 45.07 41.302 44.482 40.602 43.684L41.302 42.788C41.834 43.418 42.688 43.978 43.794 44.104L43.794 40.702C42.366 40.31 40.896 39.834 40.896 38.112 40.896 36.67 42.114 35.648 43.794 35.522L43.794 34.248 44.648 34.248 44.648 35.536C45.81 35.634 46.734 36.11 47.42 36.824L46.72 37.678C46.16 37.062 45.432 36.712 44.648 36.6L44.648 39.652C46.09 40.058 47.63 40.59 47.63 42.424 47.63 43.684 46.818 45 44.648 45.154L44.648 46.4 43.794 46.4zM46.426 42.508C46.426 41.598 45.628 41.22 44.648 40.926L44.648 44.118C45.978 43.978 46.426 43.18 46.426 42.508zM42.1 38.042C42.1 38.812 42.842 39.148 43.794 39.428L43.794 36.572C42.8 36.642 42.1 37.23 42.1 38.042zM55.47 45L49.058 45 49.058 44.062C52.418 41.43 54.252 39.876 54.252 38.266 54.252 37.062 53.258 36.558 52.292 36.558 51.172 36.558 50.304 37.034 49.758 37.734L49.044 36.992C49.758 36.04 50.976 35.522 52.292 35.522 53.846 35.522 55.428 36.404 55.428 38.266 55.428 40.17 53.496 41.906 50.892 43.964L55.47 43.964 55.47 45zM62.582 45L61.42 45 61.42 42.634 56.982 42.634 56.982 41.668 60.986 35.662 62.582 35.662 62.582 41.612 63.898 41.612 63.898 42.634 62.582 42.634 62.582 45zM61.42 41.612L61.42 36.74 58.144 41.612 61.42 41.612zM65.956 45.14C65.536 45.14 65.186 44.79 65.186 44.37 65.186 43.95 65.536 43.6 65.956 43.6 66.376 43.6 66.726 43.95 66.726 44.37 66.726 44.79 66.376 45.14 65.956 45.14zM73.628 45L72.466 45 72.466 42.634 68.028 42.634 68.028 41.668 72.032 35.662 73.628 35.662 73.628 41.612 74.944 41.612 74.944 42.634 73.628 42.634 73.628 45zM72.466 41.612L72.466 36.74 69.19 41.612 72.466 41.612zM79.046 45L77.884 45 77.884 37.188 76.386 38.784 75.686 38.07 78.024 35.662 79.046 35.662 79.046 45zM91.73 45L90.666 45 88.902 39.568 87.138 45 86.088 45 83.932 38.238 85.024 38.238 86.676 43.628 88.454 38.238 89.364 38.238 91.128 43.628 92.78 38.238 93.886 38.238 91.73 45zM95.622 37.272C95.23 37.272 94.908 36.964 94.908 36.572 94.908 36.18 95.23 35.858 95.622 35.858 96.014 35.858 96.322 36.18 96.322 36.572 96.322 36.964 96.014 37.272 95.622 37.272zM96.14 45L95.09 45 95.09 38.238 96.14 38.238 96.14 45zM99.29 45L98.24 45 98.24 35.662 99.29 35.662 99.29 45zM102.44 45L101.39 45 101.39 35.662 102.44 35.662 102.44 45zM109.216 43.166C109.58 43.754 110.406 44.23 111.246 44.23 112.604 44.23 113.416 43.124 113.416 41.626 113.416 40.128 112.604 39.008 111.246 39.008 110.406 39.008 109.58 39.512 109.216 40.1L109.216 43.166zM109.216 45L108.166 45 108.166 35.662 109.216 35.662 109.216 39.26C109.762 38.518 110.588 38.07 111.498 38.07 113.276 38.07 114.508 39.456 114.508 41.626 114.508 43.824 113.262 45.168 111.498 45.168 110.546 45.168 109.72 44.678 109.216 43.992L109.216 45zM119.282 45.168C117.266 45.168 115.824 43.726 115.824 41.612 115.824 39.652 117.224 38.07 119.156 38.07 121.2 38.07 122.404 39.666 122.404 41.696L122.404 41.962 116.944 41.962C117.028 43.236 117.91 44.3 119.366 44.3 120.15 44.3 120.92 43.992 121.466 43.432L121.97 44.118C121.284 44.79 120.374 45.168 119.282 45.168zM121.368 41.178C121.354 40.184 120.682 38.938 119.142 38.938 117.7 38.938 116.986 40.156 116.93 41.178L121.368 41.178zM130.706 45.168C128.69 45.168 127.332 43.614 127.332 41.612 127.332 39.61 128.69 38.07 130.706 38.07 131.938 38.07 132.666 38.574 133.184 39.246L132.484 39.876C132.036 39.26 131.462 39.008 130.762 39.008 129.334 39.008 128.424 40.114 128.424 41.612 128.424 43.11 129.334 44.23 130.762 44.23 131.462 44.23 132.036 43.95 132.484 43.348L133.184 43.992C132.666 44.664 131.938 45.168 130.706 45.168zM140.296 45L139.246 45 139.246 40.548C139.246 39.344 138.644 39.008 137.72 39.008 136.908 39.008 136.124 39.512 135.732 40.058L135.732 45 134.682 45 134.682 35.662 135.732 35.662 135.732 39.218C136.194 38.644 137.118 38.07 138.14 38.07 139.554 38.07 140.296 38.756 140.296 40.226L140.296 45zM147.674 45L146.624 45 146.624 44.23C146.078 44.846 145.294 45.168 144.384 45.168 143.25 45.168 142.032 44.398 142.032 42.928 142.032 41.402 143.236 40.702 144.384 40.702 145.308 40.702 146.078 40.996 146.624 41.612L146.624 40.394C146.624 39.498 145.896 38.98 144.916 38.98 144.104 38.98 143.446 39.26 142.844 39.918L142.354 39.19C143.082 38.434 143.95 38.07 145.056 38.07 146.498 38.07 147.674 38.714 147.674 40.352L147.674 45zM144.776 44.412C145.504 44.412 146.218 44.132 146.624 43.572L146.624 42.284C146.218 41.738 145.504 41.458 144.776 41.458 143.782 41.458 143.096 42.074 143.096 42.928 143.096 43.796 143.782 44.412 144.776 44.412zM150.838 45L149.788 45 149.788 38.238 150.838 38.238 150.838 39.316C151.384 38.616 152.168 38.084 153.092 38.084L153.092 39.162C152.966 39.148 152.84 39.134 152.686 39.134 152.028 39.134 151.146 39.666 150.838 40.212L150.838 45zM157.124 47.744C155.99 47.744 155.206 47.52 154.394 46.722L154.926 45.966C155.486 46.624 156.158 46.876 157.124 46.876 158.244 46.876 159.308 46.33 159.308 44.902L159.308 43.88C158.804 44.566 157.978 45.084 157.026 45.084 155.262 45.084 154.016 43.768 154.016 41.584 154.016 39.414 155.248 38.07 157.026 38.07 157.936 38.07 158.762 38.518 159.308 39.26L159.308 38.238 160.358 38.238 160.358 44.902C160.358 47.044 158.776 47.744 157.124 47.744zM157.292 44.146C158.118 44.146 158.93 43.642 159.308 43.054L159.308 40.086C158.93 39.512 158.118 39.008 157.292 39.008 155.92 39.008 155.108 40.086 155.108 41.584 155.108 43.068 155.92 44.146 157.292 44.146zM165.524 45.168C163.508 45.168 162.066 43.726 162.066 41.612 162.066 39.652 163.466 38.07 165.398 38.07 167.442 38.07 168.646 39.666 168.646 41.696L168.646 41.962 163.186 41.962C163.27 43.236 164.152 44.3 165.608 44.3 166.392 44.3 167.162 43.992 167.708 43.432L168.212 44.118C167.526 44.79 166.616 45.168 165.524 45.168zM167.61 41.178C167.596 40.184 166.924 38.938 165.384 38.938 163.942 38.938 163.228 40.156 163.172 41.178L167.61 41.178zM176.29 45L175.24 45 175.24 43.992C174.736 44.678 173.91 45.168 172.958 45.168 171.194 45.168 169.948 43.824 169.948 41.626 169.948 39.456 171.194 38.07 172.958 38.07 173.868 38.07 174.694 38.518 175.24 39.26L175.24 35.662 176.29 35.662 176.29 45zM173.224 44.23C174.05 44.23 174.876 43.74 175.24 43.152L175.24 40.1C174.876 39.512 174.05 39.008 173.224 39.008 171.852 39.008 171.04 40.128 171.04 41.626 171.04 43.124 171.852 44.23 173.224 44.23zM183.36 45L182.31 45 182.31 39.162 181.19 39.162 181.19 38.238 182.31 38.238 182.31 37.72C182.31 36.334 183.08 35.522 184.27 35.522 184.816 35.522 185.278 35.648 185.698 36.04L185.264 36.712C185.04 36.516 184.774 36.39 184.438 36.39 183.738 36.39 183.36 36.852 183.36 37.72L183.36 38.238 184.732 38.238 184.732 39.162 183.36 39.162 183.36 45zM188.946 45.168C186.888 45.168 185.6 43.572 185.6 41.612 185.6 39.652 186.888 38.07 188.946 38.07 191.004 38.07 192.292 39.652 192.292 41.612 192.292 43.572 191.004 45.168 188.946 45.168zM188.946 44.23C190.388 44.23 191.186 42.998 191.186 41.612 191.186 40.24 190.388 39.008 188.946 39.008 187.504 39.008 186.706 40.24 186.706 41.612 186.706 42.998 187.504 44.23 188.946 44.23zM195.05 45L194 45 194 38.238 195.05 38.238 195.05 39.316C195.596 38.616 196.38 38.084 197.304 38.084L197.304 39.162C197.178 39.148 197.052 39.134 196.898 39.134 196.24 39.134 195.358 39.666 195.05 40.212L195.05 45zM40.686 65.646L40.84 64.694C40.994 64.764 41.246 64.806 41.414 64.806 41.876 64.806 42.184 64.652 42.422 64.092L42.87 63.07 40.042 56.238 41.19 56.238 43.43 61.782 45.684 56.238 46.818 56.238 43.43 64.372C43.024 65.352 42.338 65.73 41.442 65.744 41.218 65.744 40.868 65.702 40.686 65.646zM50.864 63.168C48.806 63.168 47.518 61.572 47.518 59.612 47.518 57.652 48.806 56.07 50.864 56.07 52.922 56.07 54.21 57.652 54.21 59.612 54.21 61.572 52.922 63.168 50.864 63.168zM50.864 62.23C52.306 62.23 53.104 60.998 53.104 59.612 53.104 58.24 52.306 57.008 50.864 57.008 49.422 57.008 48.624 58.24 48.624 59.612 48.624 60.998 49.422 62.23 50.864 62.23zM61.532 63L60.482 63 60.482 62.048C59.964 62.636 59.082 63.168 58.074 63.168 56.66 63.168 55.918 62.468 55.918 61.012L55.918 56.238 56.968 56.238 56.968 60.69C56.968 61.88 57.57 62.23 58.494 62.23 59.306 62.23 60.09 61.754 60.482 61.208L60.482 56.238 61.532 56.238 61.532 63zM64.682 63L63.632 63 63.632 56.238 64.682 56.238 64.682 57.316C65.228 56.616 66.012 56.084 66.936 56.084L66.936 57.162C66.81 57.148 66.684 57.134 66.53 57.134 65.872 57.134 64.99 57.666 64.682 58.212L64.682 63zM75.21 63.168C74.286 63.168 73.488 62.72 72.928 61.978L72.928 65.576 71.878 65.576 71.878 56.238 72.928 56.238 72.928 57.246C73.418 56.56 74.258 56.07 75.21 56.07 76.988 56.07 78.22 57.414 78.22 59.612 78.22 61.796 76.988 63.168 75.21 63.168zM74.944 62.23C76.302 62.23 77.114 61.11 77.114 59.612 77.114 58.114 76.302 57.008 74.944 57.008 74.118 57.008 73.292 57.498 72.928 58.086L72.928 61.138C73.292 61.726 74.118 62.23 74.944 62.23zM80.936 63L79.886 63 79.886 56.238 80.936 56.238 80.936 57.316C81.482 56.616 82.266 56.084 83.19 56.084L83.19 57.162C83.064 57.148 82.938 57.134 82.784 57.134 82.126 57.134 81.244 57.666 80.936 58.212L80.936 63zM87.572 63.168C85.556 63.168 84.114 61.726 84.114 59.612 84.114 57.652 85.514 56.07 87.446 56.07 89.49 56.07 90.694 57.666 90.694 59.696L90.694 59.962 85.234 59.962C85.318 61.236 86.2 62.3 87.656 62.3 88.44 62.3 89.21 61.992 89.756 61.432L90.26 62.118C89.574 62.79 88.664 63.168 87.572 63.168zM89.658 59.178C89.644 58.184 88.972 56.938 87.432 56.938 85.99 56.938 85.276 58.156 85.22 59.178L89.658 59.178zM95.342 63.168C93.284 63.168 91.996 61.572 91.996 59.612 91.996 57.652 93.284 56.07 95.342 56.07 97.4 56.07 98.688 57.652 98.688 59.612 98.688 61.572 97.4 63.168 95.342 63.168zM95.342 62.23C96.784 62.23 97.582 60.998 97.582 59.612 97.582 58.24 96.784 57.008 95.342 57.008 93.9 57.008 93.102 58.24 93.102 59.612 93.102 60.998 93.9 62.23 95.342 62.23zM101.446 63L100.396 63 100.396 56.238 101.446 56.238 101.446 57.316C101.992 56.616 102.776 56.084 103.7 56.084L103.7 57.162C103.574 57.148 103.448 57.134 103.294 57.134 102.636 57.134 101.754 57.666 101.446 58.212L101.446 63zM110.966 63L109.916 63 109.916 61.992C109.412 62.678 108.586 63.168 107.634 63.168 105.87 63.168 104.624 61.824 104.624 59.626 104.624 57.456 105.87 56.07 107.634 56.07 108.544 56.07 109.37 56.518 109.916 57.26L109.916 53.662 110.966 53.662 110.966 63zM107.9 62.23C108.726 62.23 109.552 61.74 109.916 61.152L109.916 58.1C109.552 57.512 108.726 57.008 107.9 57.008 106.528 57.008 105.716 58.128 105.716 59.626 105.716 61.124 106.528 62.23 107.9 62.23zM116.132 63.168C114.116 63.168 112.674 61.726 112.674 59.612 112.674 57.652 114.074 56.07 116.006 56.07 118.05 56.07 119.254 57.666 119.254 59.696L119.254 59.962 113.794 59.962C113.878 61.236 114.76 62.3 116.216 62.3 117 62.3 117.77 61.992 118.316 61.432L118.82 62.118C118.134 62.79 117.224 63.168 116.132 63.168zM118.218 59.178C118.204 58.184 117.532 56.938 115.992 56.938 114.55 56.938 113.836 58.156 113.78 59.178L118.218 59.178zM121.998 63L120.948 63 120.948 56.238 121.998 56.238 121.998 57.316C122.544 56.616 123.328 56.084 124.252 56.084L124.252 57.162C124.126 57.148 124 57.134 123.846 57.134 123.188 57.134 122.306 57.666 121.998 58.212L121.998 63zM131.35 63.168C130.23 63.168 129.306 62.818 128.62 62.104L129.152 61.348C129.6 61.866 130.454 62.314 131.378 62.314 132.414 62.314 132.988 61.824 132.988 61.152 132.988 59.514 128.802 60.522 128.802 58.016 128.802 56.952 129.698 56.07 131.308 56.07 132.47 56.07 133.282 56.504 133.814 57.05L133.324 57.778C132.918 57.288 132.19 56.924 131.308 56.924 130.384 56.924 129.81 57.386 129.81 57.988 129.81 59.458 133.996 58.492 133.996 61.124 133.996 62.258 133.086 63.168 131.35 63.168zM138.658 63.168C136.6 63.168 135.312 61.572 135.312 59.612 135.312 57.652 136.6 56.07 138.658 56.07 140.716 56.07 142.004 57.652 142.004 59.612 142.004 61.572 140.716 63.168 138.658 63.168zM138.658 62.23C140.1 62.23 140.898 60.998 140.898 59.612 140.898 58.24 140.1 57.008 138.658 57.008 137.216 57.008 136.418 58.24 136.418 59.612 136.418 60.998 137.216 62.23 138.658 62.23zM146.666 63.168C144.608 63.168 143.32 61.572 143.32 59.612 143.32 57.652 144.608 56.07 146.666 56.07 148.724 56.07 150.012 57.652 150.012 59.612 150.012 61.572 148.724 63.168 146.666 63.168zM146.666 62.23C148.108 62.23 148.906 60.998 148.906 59.612 148.906 58.24 148.108 57.008 146.666 57.008 145.224 57.008 144.426 58.24 144.426 59.612 144.426 60.998 145.224 62.23 146.666 62.23zM157.334 63L156.298 63 156.298 58.576C156.298 57.372 155.682 57.008 154.772 57.008 153.946 57.008 153.176 57.512 152.77 58.058L152.77 63 151.72 63 151.72 56.238 152.77 56.238 152.77 57.218C153.246 56.644 154.17 56.07 155.192 56.07 156.592 56.07 157.334 56.784 157.334 58.254L157.334 63zM160.008 63.14C159.588 63.14 159.238 62.79 159.238 62.37 159.238 61.95 159.588 61.6 160.008 61.6 160.428 61.6 160.778 61.95 160.778 62.37 160.778 62.79 160.428 63.14 160.008 63.14zM42.632 25L40.994 25 40.994 15.662 45.11 15.662C47.07 15.662 48.148 16.992 48.148 18.588 48.148 20.17 47.056 21.5 45.11 21.5L42.632 21.5 42.632 25zM44.886 20.058C45.81 20.058 46.468 19.47 46.468 18.588 46.468 17.692 45.81 17.104 44.886 17.104L42.632 17.104 42.632 20.058 44.886 20.058zM54.812 25L53.342 25 53.342 24.258C52.838 24.846 52.04 25.168 51.144 25.168 50.052 25.168 48.806 24.412 48.806 22.928 48.806 21.36 50.038 20.716 51.144 20.716 52.068 20.716 52.838 21.01 53.342 21.584L53.342 20.576C53.342 19.792 52.684 19.316 51.76 19.316 51.004 19.316 50.332 19.596 49.758 20.184L49.142 19.162C49.926 18.406 50.906 18.07 51.984 18.07 53.496 18.07 54.812 18.7 54.812 20.506L54.812 25zM51.732 24.16C52.362 24.16 52.992 23.922 53.342 23.46L53.342 22.424C52.992 21.962 52.362 21.724 51.732 21.724 50.906 21.724 50.276 22.214 50.276 22.942 50.276 23.684 50.906 24.16 51.732 24.16zM56.436 27.646L56.646 26.33C56.8 26.4 57.038 26.442 57.206 26.442 57.682 26.442 57.99 26.302 58.186 25.854L58.522 25.084 55.736 18.238 57.318 18.238 59.292 23.306 61.266 18.238 62.834 18.238 59.572 26.218C59.11 27.366 58.312 27.73 57.262 27.744 57.052 27.744 56.632 27.702 56.436 27.646zM73.53 25L72.06 25 72.06 20.59C72.06 19.862 71.738 19.372 70.94 19.372 70.282 19.372 69.666 19.82 69.372 20.268L69.372 25 67.902 25 67.902 20.59C67.902 19.862 67.594 19.372 66.796 19.372 66.138 19.372 65.536 19.834 65.228 20.268L65.228 25 63.758 25 63.758 18.238 65.228 18.238 65.228 19.148C65.522 18.742 66.404 18.07 67.44 18.07 68.448 18.07 69.064 18.574 69.288 19.302 69.666 18.7 70.562 18.07 71.584 18.07 72.816 18.07 73.53 18.742 73.53 20.114L73.53 25zM78.57 25.168C76.526 25.168 75.028 23.754 75.028 21.612 75.028 19.652 76.456 18.07 78.458 18.07 80.488 18.07 81.776 19.61 81.776 21.738L81.776 22.102 76.568 22.102C76.68 23.11 77.436 23.964 78.71 23.964 79.382 23.964 80.152 23.698 80.642 23.208L81.314 24.174C80.628 24.818 79.634 25.168 78.57 25.168zM80.362 21.052C80.32 20.254 79.774 19.274 78.444 19.274 77.198 19.274 76.61 20.24 76.554 21.052L80.362 21.052zM89.28 25L87.81 25 87.81 20.772C87.81 19.708 87.264 19.372 86.438 19.372 85.696 19.372 85.052 19.82 84.702 20.268L84.702 25 83.232 25 83.232 18.238 84.702 18.238 84.702 19.148C85.15 18.616 86.032 18.07 87.096 18.07 88.552 18.07 89.28 18.854 89.28 20.24L89.28 25zM93.228 25.168C92.08 25.168 91.492 24.552 91.492 23.418L91.492 19.512 90.372 19.512 90.372 18.238 91.492 18.238 91.492 16.39 92.962 16.39 92.962 18.238 94.334 18.238 94.334 19.512 92.962 19.512 92.962 23.054C92.962 23.516 93.186 23.866 93.606 23.866 93.886 23.866 94.138 23.74 94.25 23.614L94.6 24.734C94.334 24.972 93.9 25.168 93.228 25.168zM105.492 25L104.022 25 104.022 24.076C103.504 24.748 102.734 25.168 101.852 25.168 100.13 25.168 98.856 23.852 98.856 21.612 98.856 19.428 100.116 18.07 101.852 18.07 102.706 18.07 103.49 18.448 104.022 19.176L104.022 15.662 105.492 15.662 105.492 25zM102.286 23.866C102.972 23.866 103.7 23.46 104.022 22.956L104.022 20.282C103.7 19.778 102.972 19.372 102.286 19.372 101.11 19.372 100.368 20.31 100.368 21.612 100.368 22.928 101.11 23.866 102.286 23.866zM113.43 25L111.96 25 111.96 24.104C111.484 24.636 110.644 25.168 109.58 25.168 108.124 25.168 107.396 24.398 107.396 23.026L107.396 18.238 108.866 18.238 108.866 22.48C108.866 23.53 109.398 23.866 110.238 23.866 110.98 23.866 111.624 23.432 111.96 22.984L111.96 18.238 113.43 18.238 113.43 25zM118.47 25.168C116.426 25.168 114.928 23.754 114.928 21.612 114.928 19.652 116.356 18.07 118.358 18.07 120.388 18.07 121.676 19.61 121.676 21.738L121.676 22.102 116.468 22.102C116.58 23.11 117.336 23.964 118.61 23.964 119.282 23.964 120.052 23.698 120.542 23.208L121.214 24.174C120.528 24.818 119.534 25.168 118.47 25.168zM120.262 21.052C120.22 20.254 119.674 19.274 118.344 19.274 117.098 19.274 116.51 20.24 116.454 21.052L120.262 21.052z"/>
  </g>
</svg>
