<svg xmlns="http://www.w3.org/2000/svg" xmlns:xlink="http://www.w3.org/1999/xlink" width="259" height="80" viewBox="0 0 259 80"><defs><path id="a" d="M20 6.256l-.001-.716a30.346 30.346 0 0 0-.01-.604 8.77 8.77 0 0 0-.115-1.313 4.424 4.424 0 0 0-.411-1.25A4.196 4.196 0 0 0 17.626.538a4.43 4.43 0 0 0-1.248-.411A8.78 8.78 0 0 0 15.064.01a30.379 30.379 0 0 0-.604-.009L13.744 0H6.256L5.54.001c-.201.002-.403.004-.604.01-.438.011-.88.037-1.314.115a4.43 4.43 0 0 0-1.248.411A4.199 4.199 0 0 0 .538 2.374c-.204.4-.333.809-.412 1.249a8.77 8.77 0 0 0-.115 1.313c-.006.201-.008.403-.01.604L0 6.256v7.488c0 .239 0 .477.002.716 0 .201.003.403.009.604.011.438.037.88.115 1.313.079.44.208.85.412 1.25a4.193 4.193 0 0 0 1.836 1.836c.4.203.809.332 1.248.411.434.078.876.104 1.314.116.201.005.403.007.604.009l.716.001h7.488l.716-.001c.202-.002.403-.004.604-.01a8.78 8.78 0 0 0 1.314-.115 4.43 4.43 0 0 0 1.248-.411 4.19 4.19 0 0 0 1.837-1.836c.203-.4.332-.81.411-1.25a8.77 8.77 0 0 0 .116-1.313c.005-.201.007-.403.009-.604l.001-.716V6.256z"/><linearGradient id="b" x1="50%" x2="50%" y1="0%" y2="100%"><stop offset="0%" stop-color="#914EA9"/><stop offset="100%" stop-color="#153E7D"/></linearGradient></defs><g fill="none" fill-rule="evenodd"><path fill="#FFF" d="M0 0h259v80H0z"/><g transform="translate(12 12)"><mask id="c" fill="#fff"><use xlink:href="#a"/></mask><path fill="url(#b)" mask="url(#c)" d="M0 0h20v20H0z"/><path fill="#FFF" fill-rule="nonzero" mask="url(#c)" d="M9.257 5.684l-2.073.072-.566 3.161H5.4l.246-4.191h9.353l.174 4.191h-1.146l-.565-3.161-2.044-.072v8.801l2.029.145v.87H7.401v-.87l1.856-.145z"/></g><path fill="#384254" fill-rule="nonzero" d="M43.794 46.4v-1.246c-1.414-.084-2.492-.672-3.192-1.47l.7-.896a3.825 3.825 0 0 0 2.492 1.316v-3.402c-1.428-.392-2.898-.868-2.898-2.59 0-1.442 1.218-2.464 2.898-2.59v-1.274h.854v1.288c1.162.098 2.086.574 2.772 1.288l-.7.854a3.406 3.406 0 0 0-2.072-1.078v3.052c1.442.406 2.982.938 2.982 2.772 0 1.26-.812 2.576-2.982 2.73V46.4h-.854zm2.632-3.892c0-.91-.798-1.288-1.778-1.582v3.192c1.33-.14 1.778-.938 1.778-1.61zM42.1 38.042c0 .77.742 1.106 1.694 1.386v-2.856c-.994.07-1.694.658-1.694 1.47zM55.47 45h-6.412v-.938c3.36-2.632 5.194-4.186 5.194-5.796 0-1.204-.994-1.708-1.96-1.708-1.12 0-1.988.476-2.534 1.176l-.714-.742c.714-.952 1.932-1.47 3.248-1.47 1.554 0 3.136.882 3.136 2.744 0 1.904-1.932 3.64-4.536 5.698h4.578V45zm7.112 0H61.42v-2.366h-4.438v-.966l4.004-6.006h1.596v5.95h1.316v1.022h-1.316V45zm-1.162-3.388V36.74l-3.276 4.872h3.276zm4.536 3.528c-.42 0-.77-.35-.77-.77 0-.42.35-.77.77-.77.42 0 .77.35.77.77 0 .42-.35.77-.77.77zm7.672-.14h-1.162v-2.366h-4.438v-.966l4.004-6.006h1.596v5.95h1.316v1.022h-1.316V45zm-1.162-3.388V36.74l-3.276 4.872h3.276zM79.046 45h-1.162v-7.812l-1.498 1.596-.7-.714 2.338-2.408h1.022V45zm12.684 0h-1.064l-1.764-5.432L87.138 45h-1.05l-2.156-6.762h1.092l1.652 5.39 1.778-5.39h.91l1.764 5.39 1.652-5.39h1.106L91.73 45zm3.892-7.728a.705.705 0 0 1-.714-.7c0-.392.322-.714.714-.714.392 0 .7.322.7.714 0 .392-.308.7-.7.7zM96.14 45h-1.05v-6.762h1.05V45zm3.15 0h-1.05v-9.338h1.05V45zm3.15 0h-1.05v-9.338h1.05V45zm6.776-1.834c.364.588 1.19 1.064 2.03 1.064 1.358 0 2.17-1.106 2.17-2.604s-.812-2.618-2.17-2.618c-.84 0-1.666.504-2.03 1.092v3.066zm0 1.834h-1.05v-9.338h1.05v3.598c.546-.742 1.372-1.19 2.282-1.19 1.778 0 3.01 1.386 3.01 3.556 0 2.198-1.246 3.542-3.01 3.542-.952 0-1.778-.49-2.282-1.176V45zm10.066.168c-2.016 0-3.458-1.442-3.458-3.556 0-1.96 1.4-3.542 3.332-3.542 2.044 0 3.248 1.596 3.248 3.626v.266h-5.46c.084 1.274.966 2.338 2.422 2.338.784 0 1.554-.308 2.1-.868l.504.686c-.686.672-1.596 1.05-2.688 1.05zm2.086-3.99c-.014-.994-.686-2.24-2.226-2.24-1.442 0-2.156 1.218-2.212 2.24h4.438zm9.338 3.99c-2.016 0-3.374-1.554-3.374-3.556s1.358-3.542 3.374-3.542c1.232 0 1.96.504 2.478 1.176l-.7.63c-.448-.616-1.022-.868-1.722-.868-1.428 0-2.338 1.106-2.338 2.604s.91 2.618 2.338 2.618c.7 0 1.274-.28 1.722-.882l.7.644c-.518.672-1.246 1.176-2.478 1.176zm9.59-.168h-1.05v-4.452c0-1.204-.602-1.54-1.526-1.54-.812 0-1.596.504-1.988 1.05V45h-1.05v-9.338h1.05v3.556c.462-.574 1.386-1.148 2.408-1.148 1.414 0 2.156.686 2.156 2.156V45zm7.378 0h-1.05v-.77c-.546.616-1.33.938-2.24.938-1.134 0-2.352-.77-2.352-2.24 0-1.526 1.204-2.226 2.352-2.226.924 0 1.694.294 2.24.91v-1.218c0-.896-.728-1.414-1.708-1.414-.812 0-1.47.28-2.072.938l-.49-.728c.728-.756 1.596-1.12 2.702-1.12 1.442 0 2.618.644 2.618 2.282V45zm-2.898-.588c.728 0 1.442-.28 1.848-.84v-1.288c-.406-.546-1.12-.826-1.848-.826-.994 0-1.68.616-1.68 1.47 0 .868.686 1.484 1.68 1.484zm6.062.588h-1.05v-6.762h1.05v1.078c.546-.7 1.33-1.232 2.254-1.232v1.078c-.126-.014-.252-.028-.406-.028-.658 0-1.54.532-1.848 1.078V45zm6.286 2.744c-1.134 0-1.918-.224-2.73-1.022l.532-.756c.56.658 1.232.91 2.198.91 1.12 0 2.184-.546 2.184-1.974V43.88c-.504.686-1.33 1.204-2.282 1.204-1.764 0-3.01-1.316-3.01-3.5 0-2.17 1.232-3.514 3.01-3.514.91 0 1.736.448 2.282 1.19v-1.022h1.05v6.664c0 2.142-1.582 2.842-3.234 2.842zm.168-3.598c.826 0 1.638-.504 2.016-1.092v-2.968c-.378-.574-1.19-1.078-2.016-1.078-1.372 0-2.184 1.078-2.184 2.576 0 1.484.812 2.562 2.184 2.562zm8.232 1.022c-2.016 0-3.458-1.442-3.458-3.556 0-1.96 1.4-3.542 3.332-3.542 2.044 0 3.248 1.596 3.248 3.626v.266h-5.46c.084 1.274.966 2.338 2.422 2.338.784 0 1.554-.308 2.1-.868l.504.686c-.686.672-1.596 1.05-2.688 1.05zm2.086-3.99c-.014-.994-.686-2.24-2.226-2.24-1.442 0-2.156 1.218-2.212 2.24h4.438zM176.29 45h-1.05v-1.008c-.504.686-1.33 1.176-2.282 1.176-1.764 0-3.01-1.344-3.01-3.542 0-2.17 1.246-3.556 3.01-3.556.91 0 1.736.448 2.282 1.19v-3.598h1.05V45zm-3.066-.77c.826 0 1.652-.49 2.016-1.078V40.1c-.364-.588-1.19-1.092-2.016-1.092-1.372 0-2.184 1.12-2.184 2.618 0 1.498.812 2.604 2.184 2.604zm10.136.77h-1.05v-5.838h-1.12v-.924h1.12v-.518c0-1.386.77-2.198 1.96-2.198.546 0 1.008.126 1.428.518l-.434.672a1.214 1.214 0 0 0-.826-.322c-.7 0-1.078.462-1.078 1.33v.518h1.372v.924h-1.372V45zm5.586.168c-2.058 0-3.346-1.596-3.346-3.556s1.288-3.542 3.346-3.542 3.346 1.582 3.346 3.542c0 1.96-1.288 3.556-3.346 3.556zm0-.938c1.442 0 2.24-1.232 2.24-2.618 0-1.372-.798-2.604-2.24-2.604-1.442 0-2.24 1.232-2.24 2.604 0 1.386.798 2.618 2.24 2.618zm6.104.77H194v-6.762h1.05v1.078c.546-.7 1.33-1.232 2.254-1.232v1.078c-.126-.014-.252-.028-.406-.028-.658 0-1.54.532-1.848 1.078V45zM40.686 65.646l.154-.952c.154.07.406.112.574.112.462 0 .77-.154 1.008-.714l.448-1.022-2.828-6.832h1.148l2.24 5.544 2.254-5.544h1.134l-3.388 8.134c-.406.98-1.092 1.358-1.988 1.372-.224 0-.574-.042-.756-.098zm10.178-2.478c-2.058 0-3.346-1.596-3.346-3.556s1.288-3.542 3.346-3.542 3.346 1.582 3.346 3.542c0 1.96-1.288 3.556-3.346 3.556zm0-.938c1.442 0 2.24-1.232 2.24-2.618 0-1.372-.798-2.604-2.24-2.604-1.442 0-2.24 1.232-2.24 2.604 0 1.386.798 2.618 2.24 2.618zm10.668.77h-1.05v-.952c-.518.588-1.4 1.12-2.408 1.12-1.414 0-2.156-.7-2.156-2.156v-4.774h1.05v4.452c0 1.19.602 1.54 1.526 1.54.812 0 1.596-.476 1.988-1.022v-4.97h1.05V63zm3.15 0h-1.05v-6.762h1.05v1.078c.546-.7 1.33-1.232 2.254-1.232v1.078c-.126-.014-.252-.028-.406-.028-.658 0-1.54.532-1.848 1.078V63zm10.528.168c-.924 0-1.722-.448-2.282-1.19v3.598h-1.05v-9.338h1.05v1.008a2.827 2.827 0 0 1 2.282-1.176c1.778 0 3.01 1.344 3.01 3.542 0 2.184-1.232 3.556-3.01 3.556zm-.266-.938c1.358 0 2.17-1.12 2.17-2.618 0-1.498-.812-2.604-2.17-2.604-.826 0-1.652.49-2.016 1.078v3.052c.364.588 1.19 1.092 2.016 1.092zm5.992.77h-1.05v-6.762h1.05v1.078c.546-.7 1.33-1.232 2.254-1.232v1.078c-.126-.014-.252-.028-.406-.028-.658 0-1.54.532-1.848 1.078V63zm6.636.168c-2.016 0-3.458-1.442-3.458-3.556 0-1.96 1.4-3.542 3.332-3.542 2.044 0 3.248 1.596 3.248 3.626v.266h-5.46c.084 1.274.966 2.338 2.422 2.338.784 0 1.554-.308 2.1-.868l.504.686c-.686.672-1.596 1.05-2.688 1.05zm2.086-3.99c-.014-.994-.686-2.24-2.226-2.24-1.442 0-2.156 1.218-2.212 2.24h4.438zm5.684 3.99c-2.058 0-3.346-1.596-3.346-3.556s1.288-3.542 3.346-3.542 3.346 1.582 3.346 3.542c0 1.96-1.288 3.556-3.346 3.556zm0-.938c1.442 0 2.24-1.232 2.24-2.618 0-1.372-.798-2.604-2.24-2.604-1.442 0-2.24 1.232-2.24 2.604 0 1.386.798 2.618 2.24 2.618zm6.104.77h-1.05v-6.762h1.05v1.078c.546-.7 1.33-1.232 2.254-1.232v1.078c-.126-.014-.252-.028-.406-.028-.658 0-1.54.532-1.848 1.078V63zm9.52 0h-1.05v-1.008c-.504.686-1.33 1.176-2.282 1.176-1.764 0-3.01-1.344-3.01-3.542 0-2.17 1.246-3.556 3.01-3.556.91 0 1.736.448 2.282 1.19v-3.598h1.05V63zm-3.066-.77c.826 0 1.652-.49 2.016-1.078V58.1c-.364-.588-1.19-1.092-2.016-1.092-1.372 0-2.184 1.12-2.184 2.618 0 1.498.812 2.604 2.184 2.604zm8.232.938c-2.016 0-3.458-1.442-3.458-3.556 0-1.96 1.4-3.542 3.332-3.542 2.044 0 3.248 1.596 3.248 3.626v.266h-5.46c.084 1.274.966 2.338 2.422 2.338.784 0 1.554-.308 2.1-.868l.504.686c-.686.672-1.596 1.05-2.688 1.05zm2.086-3.99c-.014-.994-.686-2.24-2.226-2.24-1.442 0-2.156 1.218-2.212 2.24h4.438zm3.78 3.822h-1.05v-6.762h1.05v1.078c.546-.7 1.33-1.232 2.254-1.232v1.078c-.126-.014-.252-.028-.406-.028-.658 0-1.54.532-1.848 1.078V63zm9.352.168c-1.12 0-2.044-.35-2.73-1.064l.532-.756c.448.518 1.302.966 2.226.966 1.036 0 1.61-.49 1.61-1.162 0-1.638-4.186-.63-4.186-3.136 0-1.064.896-1.946 2.506-1.946 1.162 0 1.974.434 2.506.98l-.49.728c-.406-.49-1.134-.854-2.016-.854-.924 0-1.498.462-1.498 1.064 0 1.47 4.186.504 4.186 3.136 0 1.134-.91 2.044-2.646 2.044zm7.308 0c-2.058 0-3.346-1.596-3.346-3.556s1.288-3.542 3.346-3.542 3.346 1.582 3.346 3.542c0 1.96-1.288 3.556-3.346 3.556zm0-.938c1.442 0 2.24-1.232 2.24-2.618 0-1.372-.798-2.604-2.24-2.604-1.442 0-2.24 1.232-2.24 2.604 0 1.386.798 2.618 2.24 2.618zm8.008.938c-2.058 0-3.346-1.596-3.346-3.556s1.288-3.542 3.346-3.542 3.346 1.582 3.346 3.542c0 1.96-1.288 3.556-3.346 3.556zm0-.938c1.442 0 2.24-1.232 2.24-2.618 0-1.372-.798-2.604-2.24-2.604-1.442 0-2.24 1.232-2.24 2.604 0 1.386.798 2.618 2.24 2.618zm10.668.77h-1.036v-4.424c0-1.204-.616-1.568-1.526-1.568-.826 0-1.596.504-2.002 1.05V63h-1.05v-6.762h1.05v.98c.476-.574 1.4-1.148 2.422-1.148 1.4 0 2.142.714 2.142 2.184V63zm2.674.14c-.42 0-.77-.35-.77-.77 0-.42.35-.77.77-.77.42 0 .77.35.77.77 0 .42-.35.77-.77.77zM42.632 25h-1.638v-9.338h4.116c1.96 0 3.038 1.33 3.038 2.926 0 1.582-1.092 2.912-3.038 2.912h-2.478V25zm2.254-4.942c.924 0 1.582-.588 1.582-1.47 0-.896-.658-1.484-1.582-1.484h-2.254v2.954h2.254zM54.812 25h-1.47v-.742c-.504.588-1.302.91-2.198.91-1.092 0-2.338-.756-2.338-2.24 0-1.568 1.232-2.212 2.338-2.212.924 0 1.694.294 2.198.868v-1.008c0-.784-.658-1.26-1.582-1.26-.756 0-1.428.28-2.002.868l-.616-1.022c.784-.756 1.764-1.092 2.842-1.092 1.512 0 2.828.63 2.828 2.436V25zm-3.08-.84c.63 0 1.26-.238 1.61-.7v-1.036c-.35-.462-.98-.7-1.61-.7-.826 0-1.456.49-1.456 1.218 0 .742.63 1.218 1.456 1.218zm4.704 3.486l.21-1.316c.154.07.392.112.56.112.476 0 .784-.14.98-.588l.336-.77-2.786-6.846h1.582l1.974 5.068 1.974-5.068h1.568l-3.262 7.98c-.462 1.148-1.26 1.512-2.31 1.526-.21 0-.63-.042-.826-.098zM73.53 25h-1.47v-4.41c0-.728-.322-1.218-1.12-1.218-.658 0-1.274.448-1.568.896V25h-1.47v-4.41c0-.728-.308-1.218-1.106-1.218-.658 0-1.26.462-1.568.896V25h-1.47v-6.762h1.47v.91c.294-.406 1.176-1.078 2.212-1.078 1.008 0 1.624.504 1.848 1.232.378-.602 1.274-1.232 2.296-1.232 1.232 0 1.946.672 1.946 2.044V25zm5.04.168c-2.044 0-3.542-1.414-3.542-3.556 0-1.96 1.428-3.542 3.43-3.542 2.03 0 3.318 1.54 3.318 3.668v.364h-5.208c.112 1.008.868 1.862 2.142 1.862.672 0 1.442-.266 1.932-.756l.672.966c-.686.644-1.68.994-2.744.994zm1.792-4.116c-.042-.798-.588-1.778-1.918-1.778-1.246 0-1.834.966-1.89 1.778h3.808zM89.28 25h-1.47v-4.228c0-1.064-.546-1.4-1.372-1.4-.742 0-1.386.448-1.736.896V25h-1.47v-6.762h1.47v.91c.448-.532 1.33-1.078 2.394-1.078 1.456 0 2.184.784 2.184 2.17V25zm3.948.168c-1.148 0-1.736-.616-1.736-1.75v-3.906h-1.12v-1.274h1.12V16.39h1.47v1.848h1.372v1.274h-1.372v3.542c0 .462.224.812.644.812.28 0 .532-.126.644-.252l.35 1.12c-.266.238-.7.434-1.372.434zM105.492 25h-1.47v-.924c-.518.672-1.288 1.092-2.17 1.092-1.722 0-2.996-1.316-2.996-3.556 0-2.184 1.26-3.542 2.996-3.542.854 0 1.638.378 2.17 1.106v-3.514h1.47V25zm-3.206-1.134c.686 0 1.414-.406 1.736-.91v-2.674c-.322-.504-1.05-.91-1.736-.91-1.176 0-1.918.938-1.918 2.24 0 1.316.742 2.254 1.918 2.254zM113.43 25h-1.47v-.896a3.234 3.234 0 0 1-2.38 1.064c-1.456 0-2.184-.77-2.184-2.142v-4.788h1.47v4.242c0 1.05.532 1.386 1.372 1.386.742 0 1.386-.434 1.722-.882v-4.746h1.47V25zm5.04.168c-2.044 0-3.542-1.414-3.542-3.556 0-1.96 1.428-3.542 3.43-3.542 2.03 0 3.318 1.54 3.318 3.668v.364h-5.208c.112 1.008.868 1.862 2.142 1.862.672 0 1.442-.266 1.932-.756l.672.966c-.686.644-1.68.994-2.744.994zm1.792-4.116c-.042-.798-.588-1.778-1.918-1.778-1.246 0-1.834.966-1.89 1.778h3.808zm7.224-3.64a.908.908 0 0 1-.91-.91c0-.504.406-.91.91-.91s.91.406.91.91-.406.91-.91.91zm.728 7.588h-1.47v-6.762h1.47V25zm7.952 0h-1.47v-4.228c0-1.064-.546-1.4-1.372-1.4-.742 0-1.386.448-1.736.896V25h-1.47v-6.762h1.47v.91c.448-.532 1.33-1.078 2.394-1.078 1.456 0 2.184.784 2.184 2.17V25z"/></g></svg>