<svg xmlns="http://www.w3.org/2000/svg" width="56" height="56" viewBox="0 0 56 56"><g fill="none" fill-rule="evenodd"><g transform="translate(10 10)"><path fill="#B786FD" d="M18 0c9.941 0 18 8.059 18 18s-8.059 18-18 18S0 27.941 0 18c0-1.754.25-3.45.719-5.053A3 3 0 006 11V4.583A17.933 17.933 0 0118 0z"/><rect width="2" height="16" x="17" y="2" fill="#FFF" rx="1"/><circle cx="18" cy="18" r="2" fill="#FFF"/></g><path stroke="#6F0DFB" stroke-dasharray="106.14 15" stroke-linecap="round" stroke-linejoin="round" stroke-width="2" d="M7.386 23.993c-2.213 11.385 5.222 22.408 16.607 24.621 11.385 2.213 22.408-5.222 24.621-16.607 2.213-11.385-5.222-22.408-16.607-24.621C20.622 5.173 9.599 12.608 7.386 23.993z"/><path fill="#6F0DFB" d="M13 12a1 1 0 011 1v8a1 1 0 01-2 0v-7H5a1 1 0 010-2h8z"/></g></svg>