<svg xmlns="http://www.w3.org/2000/svg" xmlns:xlink="http://www.w3.org/1999/xlink" width="259" height="80" viewBox="0 0 259 80"><defs><linearGradient id="b" x1="50%" x2="50%" y1="0%" y2="100%"><stop offset="0%" stop-color="#914EA9"/><stop offset="100%" stop-color="#153E7D"/></linearGradient><path id="a" d="M20 6.256l-.001-.716a30.346 30.346 0 00-.01-.604 8.77 8.77 0 00-.115-1.313 4.424 4.424 0 00-.411-1.25A4.196 4.196 0 0017.626.538a4.43 4.43 0 00-1.248-.411A8.78 8.78 0 0015.064.01a30.379 30.379 0 00-.604-.009L13.744 0H6.256L5.54.001c-.201.002-.403.004-.604.01-.438.011-.88.037-1.314.115a4.43 4.43 0 00-1.248.411A4.199 4.199 0 00.538 2.374c-.204.4-.333.809-.412 1.249a8.77 8.77 0 00-.115 1.313c-.006.201-.008.403-.01.604L0 6.256v7.488c0 .239 0 .477.002.716 0 .201.003.403.009.604.011.438.037.88.115 1.313.079.44.208.85.412 1.25a4.193 4.193 0 001.836 1.836c.4.203.809.332 1.248.411.434.078.876.104 1.314.116.201.005.403.007.604.009l.716.001h7.488l.716-.001c.202-.002.403-.004.604-.01a8.78 8.78 0 001.314-.115 4.43 4.43 0 001.248-.411 4.19 4.19 0 001.837-1.836c.203-.4.332-.81.411-1.25a8.77 8.77 0 00.116-1.313c.005-.201.007-.403.009-.604l.001-.716V6.256z"/></defs><g fill="none" fill-rule="evenodd"><path fill="#FFF" d="M0 0h259v80H0z"/><g transform="translate(12 12)"><mask id="c" fill="#fff"><use xlink:href="#a"/></mask><path fill="url(#b)" mask="url(#c)" d="M0 0h20v20H0z"/><path fill="#FFF" fill-rule="nonzero" mask="url(#c)" d="M9.257 5.684l-2.073.072-.566 3.161H5.4l.246-4.191h9.353l.174 4.191h-1.146l-.565-3.161-2.044-.072v8.801l2.029.145v.87H7.401v-.87l1.856-.145z"/></g><path fill="#384254" fill-rule="nonzero" d="M43.654 45h-1.162v-7.812l-1.498 1.596-.7-.714 2.338-2.408h1.022V45zm5.376.168c-2.562 0-3.57-2.562-3.57-4.83 0-2.282 1.008-4.816 3.57-4.816 2.548 0 3.57 2.534 3.57 4.816 0 2.268-1.022 4.83-3.57 4.83zm0-1.036c1.778 0 2.38-1.932 2.38-3.794s-.602-3.78-2.38-3.78-2.38 1.918-2.38 3.78c0 1.862.602 3.794 2.38 3.794zm6.972-4.004c-1.33 0-2.254-.994-2.254-2.282 0-1.33.924-2.324 2.254-2.324 1.344 0 2.254.994 2.254 2.324 0 1.288-.91 2.282-2.254 2.282zM55.876 45h-.77l5.964-9.338h.784L55.876 45zm4.998.168c-1.33 0-2.254-.994-2.254-2.296 0-1.302.924-2.31 2.254-2.31s2.24 1.008 2.24 2.31-.91 2.296-2.24 2.296zm-4.872-5.754c.84 0 1.414-.686 1.414-1.568 0-.924-.574-1.61-1.414-1.61-.826 0-1.414.686-1.414 1.61 0 .882.588 1.568 1.414 1.568zm4.872 5.04c.84 0 1.414-.686 1.414-1.582 0-.91-.574-1.596-1.414-1.596-.854 0-1.428.686-1.428 1.596 0 .896.574 1.582 1.428 1.582zm10.318.714c-2.058 0-3.346-1.596-3.346-3.556s1.288-3.542 3.346-3.542 3.346 1.582 3.346 3.542c0 1.96-1.288 3.556-3.346 3.556zm0-.938c1.442 0 2.24-1.232 2.24-2.618 0-1.372-.798-2.604-2.24-2.604-1.442 0-2.24 1.232-2.24 2.604 0 1.386.798 2.618 2.24 2.618zm6.398.77h-1.05v-5.838h-1.12v-.924h1.12v-.518c0-1.386.77-2.198 1.96-2.198.546 0 1.008.126 1.428.518l-.434.672a1.214 1.214 0 00-.826-.322c-.7 0-1.078.462-1.078 1.33v.518h1.372v.924H77.59V45zm3.976 0h-1.05v-5.838h-1.12v-.924h1.12v-.518c0-1.386.77-2.198 1.96-2.198.546 0 1.008.126 1.428.518l-.434.672a1.214 1.214 0 00-.826-.322c-.7 0-1.078.462-1.078 1.33v.518h1.372v.924h-1.372V45zm8.4.168c-1.12 0-2.044-.35-2.73-1.064l.532-.756c.448.518 1.302.966 2.226.966 1.036 0 1.61-.49 1.61-1.162 0-1.638-4.186-.63-4.186-3.136 0-1.064.896-1.946 2.506-1.946 1.162 0 1.974.434 2.506.98l-.49.728c-.406-.49-1.134-.854-2.016-.854-.924 0-1.498.462-1.498 1.064 0 1.47 4.186.504 4.186 3.136 0 1.134-.91 2.044-2.646 2.044zM99.934 45h-1.05v-.952c-.518.588-1.4 1.12-2.408 1.12-1.414 0-2.156-.7-2.156-2.156v-4.774h1.05v4.452c0 1.19.602 1.54 1.526 1.54.812 0 1.596-.476 1.988-1.022v-4.97h1.05V45zm3.15-1.834c.364.588 1.19 1.064 2.03 1.064 1.358 0 2.17-1.106 2.17-2.604s-.812-2.618-2.17-2.618c-.84 0-1.666.504-2.03 1.092v3.066zm0 1.834h-1.05v-9.338h1.05v3.598c.546-.742 1.372-1.19 2.282-1.19 1.778 0 3.01 1.386 3.01 3.556 0 2.198-1.246 3.542-3.01 3.542-.952 0-1.778-.49-2.282-1.176V45zm9.156.168c-1.12 0-2.044-.35-2.73-1.064l.532-.756c.448.518 1.302.966 2.226.966 1.036 0 1.61-.49 1.61-1.162 0-1.638-4.186-.63-4.186-3.136 0-1.064.896-1.946 2.506-1.946 1.162 0 1.974.434 2.506.98l-.49.728c-.406-.49-1.134-.854-2.016-.854-.924 0-1.498.462-1.498 1.064 0 1.47 4.186.504 4.186 3.136 0 1.134-.91 2.044-2.646 2.044zm7.336 0c-2.016 0-3.374-1.554-3.374-3.556s1.358-3.542 3.374-3.542c1.232 0 1.96.504 2.478 1.176l-.7.63c-.448-.616-1.022-.868-1.722-.868-1.428 0-2.338 1.106-2.338 2.604s.91 2.618 2.338 2.618c.7 0 1.274-.28 1.722-.882l.7.644c-.518.672-1.246 1.176-2.478 1.176zm5.012-.168h-1.05v-6.762h1.05v1.078c.546-.7 1.33-1.232 2.254-1.232v1.078c-.126-.014-.252-.028-.406-.028-.658 0-1.54.532-1.848 1.078V45zm4.102-7.728a.705.705 0 01-.714-.7c0-.392.322-.714.714-.714.392 0 .7.322.7.714 0 .392-.308.7-.7.7zm.518 7.728h-1.05v-6.762h1.05V45zm5.432.168c-.924 0-1.722-.448-2.282-1.19v3.598h-1.05v-9.338h1.05v1.008a2.827 2.827 0 012.282-1.176c1.778 0 3.01 1.344 3.01 3.542 0 2.184-1.232 3.556-3.01 3.556zm-.266-.938c1.358 0 2.17-1.12 2.17-2.618 0-1.498-.812-2.604-2.17-2.604-.826 0-1.652.49-2.016 1.078v3.052c.364.588 1.19 1.092 2.016 1.092zm6.664.938c-1.008 0-1.512-.574-1.512-1.582v-4.424h-1.12v-.924h1.12V36.39h1.064v1.848h1.372v.924h-1.372v4.2c0 .504.224.868.672.868.308 0 .574-.14.714-.294l.308.798c-.266.252-.644.434-1.246.434zm2.926-7.896a.705.705 0 01-.714-.7c0-.392.322-.714.714-.714.392 0 .7.322.7.714 0 .392-.308.7-.7.7zm.518 7.728h-1.05v-6.762h1.05V45zm5.054.168c-2.058 0-3.346-1.596-3.346-3.556s1.288-3.542 3.346-3.542 3.346 1.582 3.346 3.542c0 1.96-1.288 3.556-3.346 3.556zm0-.938c1.442 0 2.24-1.232 2.24-2.618 0-1.372-.798-2.604-2.24-2.604-1.442 0-2.24 1.232-2.24 2.604 0 1.386.798 2.618 2.24 2.618zm10.668.77h-1.036v-4.424c0-1.204-.616-1.568-1.526-1.568-.826 0-1.596.504-2.002 1.05V45h-1.05v-6.762h1.05v.98c.476-.574 1.4-1.148 2.422-1.148 1.4 0 2.142.714 2.142 2.184V45zm4.27.168c-1.12 0-2.044-.35-2.73-1.064l.532-.756c.448.518 1.302.966 2.226.966 1.036 0 1.61-.49 1.61-1.162 0-1.638-4.186-.63-4.186-3.136 0-1.064.896-1.946 2.506-1.946 1.162 0 1.974.434 2.506.98l-.49.728c-.406-.49-1.134-.854-2.016-.854-.924 0-1.498.462-1.498 1.064 0 1.47 4.186.504 4.186 3.136 0 1.134-.91 2.044-2.646 2.044zm10.71-3.094h-3.36v-.924h3.36v.924zM42.1 63h-1.05v-9.338h1.05V63zm2.632-7.728a.705.705 0 01-.714-.7c0-.392.322-.714.714-.714.392 0 .7.322.7.714 0 .392-.308.7-.7.7zM45.25 63H44.2v-6.762h1.05V63zm11.312 0h-1.05v-4.592c0-.854-.364-1.4-1.246-1.4-.7 0-1.442.49-1.792 1.036V63h-1.05v-4.592c0-.854-.35-1.4-1.246-1.4-.686 0-1.414.504-1.778 1.05V63h-1.05v-6.762h1.05v.98c.294-.434 1.19-1.148 2.198-1.148 1.022 0 1.61.56 1.806 1.26.378-.616 1.288-1.26 2.268-1.26 1.232 0 1.89.686 1.89 2.044V63zm2.632-7.728a.705.705 0 01-.714-.7c0-.392.322-.714.714-.714.392 0 .7.322.7.714 0 .392-.308.7-.7.7zM59.712 63h-1.05v-6.762h1.05V63zm3.822.168c-1.008 0-1.512-.574-1.512-1.582v-4.424h-1.12v-.924h1.12V54.39h1.064v1.848h1.372v.924h-1.372v4.2c0 .504.224.868.672.868.308 0 .574-.14.714-.294l.308.798c-.266.252-.644.434-1.246.434zm5.46 0c-2.016 0-3.458-1.442-3.458-3.556 0-1.96 1.4-3.542 3.332-3.542 2.044 0 3.248 1.596 3.248 3.626v.266h-5.46c.084 1.274.966 2.338 2.422 2.338.784 0 1.554-.308 2.1-.868l.504.686c-.686.672-1.596 1.05-2.688 1.05zm2.086-3.99c-.014-.994-.686-2.24-2.226-2.24-1.442 0-2.156 1.218-2.212 2.24h4.438zM79.76 63h-1.05v-1.008c-.504.686-1.33 1.176-2.282 1.176-1.764 0-3.01-1.344-3.01-3.542 0-2.17 1.246-3.556 3.01-3.556.91 0 1.736.448 2.282 1.19v-3.598h1.05V63zm-3.066-.77c.826 0 1.652-.49 2.016-1.078V58.1c-.364-.588-1.19-1.092-2.016-1.092-1.372 0-2.184 1.12-2.184 2.618 0 1.498.812 2.604 2.184 2.604zm10.514.938c-1.008 0-1.512-.574-1.512-1.582v-4.424h-1.12v-.924h1.12V54.39h1.064v1.848h1.372v.924H86.76v4.2c0 .504.224.868.672.868.308 0 .574-.14.714-.294l.308.798c-.266.252-.644.434-1.246.434zm2.926-7.896a.705.705 0 01-.714-.7c0-.392.322-.714.714-.714.392 0 .7.322.7.714 0 .392-.308.7-.7.7zM90.652 63h-1.05v-6.762h1.05V63zm11.312 0h-1.05v-4.592c0-.854-.364-1.4-1.246-1.4-.7 0-1.442.49-1.792 1.036V63h-1.05v-4.592c0-.854-.35-1.4-1.246-1.4-.686 0-1.414.504-1.778 1.05V63h-1.05v-6.762h1.05v.98c.294-.434 1.19-1.148 2.198-1.148 1.022 0 1.61.56 1.806 1.26.378-.616 1.288-1.26 2.268-1.26 1.232 0 1.89.686 1.89 2.044V63zm5.166.168c-2.016 0-3.458-1.442-3.458-3.556 0-1.96 1.4-3.542 3.332-3.542 2.044 0 3.248 1.596 3.248 3.626v.266h-5.46c.084 1.274.966 2.338 2.422 2.338.784 0 1.554-.308 2.1-.868l.504.686c-.686.672-1.596 1.05-2.688 1.05zm2.086-3.99c-.014-.994-.686-2.24-2.226-2.24-1.442 0-2.156 1.218-2.212 2.24h4.438zm9.31 3.99c-2.058 0-3.346-1.596-3.346-3.556s1.288-3.542 3.346-3.542 3.346 1.582 3.346 3.542c0 1.96-1.288 3.556-3.346 3.556zm0-.938c1.442 0 2.24-1.232 2.24-2.618 0-1.372-.798-2.604-2.24-2.604-1.442 0-2.24 1.232-2.24 2.604 0 1.386.798 2.618 2.24 2.618zm10.668.77h-1.036v-4.424c0-1.204-.616-1.568-1.526-1.568-.826 0-1.596.504-2.002 1.05V63h-1.05v-6.762h1.05v.98c.476-.574 1.4-1.148 2.422-1.148 1.4 0 2.142.714 2.142 2.184V63zm3.164 0h-1.05v-9.338h1.05V63zm1.736 2.646l.154-.952c.154.07.406.112.574.112.462 0 .77-.154 1.008-.714l.448-1.022-2.828-6.832h1.148l2.24 5.544 2.254-5.544h1.134l-3.388 8.134c-.406.98-1.092 1.358-1.988 1.372-.224 0-.574-.042-.756-.098zM45.488 25.182c-2.716 0-4.9-1.918-4.9-4.844 0-2.94 2.184-4.83 4.9-4.83 1.82 0 3.01.868 3.752 1.932l-1.33.77a3.014 3.014 0 00-2.422-1.246c-1.848 0-3.22 1.4-3.22 3.374 0 1.946 1.372 3.374 3.22 3.374.952 0 1.792-.434 2.212-.84V21.43h-2.8v-1.442h4.424v3.486a5.045 5.045 0 01-3.836 1.708zm8.568-.014c-2.156 0-3.472-1.624-3.472-3.556 0-1.946 1.316-3.542 3.472-3.542 2.156 0 3.472 1.596 3.472 3.542 0 1.932-1.316 3.556-3.472 3.556zm0-1.302c1.26 0 1.946-1.05 1.946-2.254 0-1.19-.686-2.24-1.946-2.24-1.246 0-1.946 1.05-1.946 2.24 0 1.204.7 2.254 1.946 2.254zm8.036 1.302c-2.156 0-3.472-1.624-3.472-3.556 0-1.946 1.316-3.542 3.472-3.542 2.156 0 3.472 1.596 3.472 3.542 0 1.932-1.316 3.556-3.472 3.556zm0-1.302c1.26 0 1.946-1.05 1.946-2.254 0-1.19-.686-2.24-1.946-2.24-1.246 0-1.946 1.05-1.946 2.24 0 1.204.7 2.254 1.946 2.254zM73.292 25h-1.47v-.924c-.518.672-1.288 1.092-2.17 1.092-1.722 0-2.996-1.316-2.996-3.556 0-2.184 1.26-3.542 2.996-3.542.854 0 1.638.378 2.17 1.106v-3.514h1.47V25zm-3.206-1.134c.686 0 1.414-.406 1.736-.91v-2.674c-.322-.504-1.05-.91-1.736-.91-1.176 0-1.918.938-1.918 2.24 0 1.316.742 2.254 1.918 2.254zM86.942 25H85.36l-4.872-6.678V25H78.85v-9.338h1.68l4.774 6.468v-6.468h1.638V25zm5.082.168c-2.044 0-3.542-1.414-3.542-3.556 0-1.96 1.428-3.542 3.43-3.542 2.03 0 3.318 1.54 3.318 3.668v.364h-5.208c.112 1.008.868 1.862 2.142 1.862.672 0 1.442-.266 1.932-.756l.672.966c-.686.644-1.68.994-2.744.994zm1.792-4.116c-.042-.798-.588-1.778-1.918-1.778-1.246 0-1.834.966-1.89 1.778h3.808zM104.134 25h-1.54l-1.582-4.956L99.444 25h-1.54l-2.1-6.762h1.526l1.428 4.914 1.61-4.914h1.302l1.596 4.914 1.428-4.914h1.54l-2.1 6.762zm5.446.168c-1.162 0-2.198-.378-2.898-1.064l.672-1.05c.476.49 1.414.938 2.282.938.882 0 1.344-.364 1.344-.896 0-1.33-4.088-.378-4.088-2.982 0-1.106.952-2.044 2.66-2.044 1.148 0 2.016.406 2.618.938l-.616 1.036c-.406-.448-1.148-.812-2.002-.812-.77 0-1.246.364-1.246.84 0 1.19 4.088.294 4.088 2.982 0 1.204-.994 2.114-2.814 2.114zm5.684-3.038h-1.274l-.266-6.468h1.792l-.252 6.468zm-.63 3.01a.992.992 0 01-.98-.98c0-.518.448-.966.98-.966s.966.448.966.966a.98.98 0 01-.966.98z"/></g></svg>