<svg xmlns="http://www.w3.org/2000/svg" xmlns:xlink="http://www.w3.org/1999/xlink" width="646" height="202" viewBox="0 0 646 202"><defs><filter id="b" width="125.6%" height="150.3%" x="-12.8%" y="-25.2%" filterUnits="objectBoundingBox"><feGaussianBlur in="SourceGraphic" stdDeviation="24"/></filter><filter id="d" width="118%" height="113.7%" x="-9%" y="-6.8%" filterUnits="objectBoundingBox"><feOffset in="SourceAlpha" result="shadowOffsetOuter1"/><feGaussianBlur in="shadowOffsetOuter1" result="shadowBlurOuter1" stdDeviation="4"/><feColorMatrix in="shadowBlurOuter1" result="shadowMatrixOuter1" values="0 0 0 0 0 0 0 0 0 0 0 0 0 0 0 0 0 0 0.0972599638 0"/><feMerge><feMergeNode in="shadowMatrixOuter1"/><feMergeNode in="SourceGraphic"/></feMerge></filter><filter id="e" width="118%" height="113.7%" x="-9%" y="-6.8%" filterUnits="objectBoundingBox"><feOffset in="SourceAlpha" result="shadowOffsetOuter1"/><feGaussianBlur in="shadowOffsetOuter1" result="shadowBlurOuter1" stdDeviation="4"/><feColorMatrix in="shadowBlurOuter1" result="shadowMatrixOuter1" values="0 0 0 0 0 0 0 0 0 0 0 0 0 0 0 0 0 0 0.0972599638 0"/><feMerge><feMergeNode in="shadowMatrixOuter1"/><feMergeNode in="SourceGraphic"/></feMerge></filter><filter id="f" width="118%" height="113.7%" x="-9%" y="-6.8%" filterUnits="objectBoundingBox"><feOffset in="SourceAlpha" result="shadowOffsetOuter1"/><feGaussianBlur in="shadowOffsetOuter1" result="shadowBlurOuter1" stdDeviation="4"/><feColorMatrix in="shadowBlurOuter1" result="shadowMatrixOuter1" values="0 0 0 0 0 0 0 0 0 0 0 0 0 0 0 0 0 0 0.0972599638 0"/><feMerge><feMergeNode in="shadowMatrixOuter1"/><feMergeNode in="SourceGraphic"/></feMerge></filter><path id="a" d="M0 0h660v202H0z"/></defs><g fill="none" fill-rule="evenodd" transform="translate(-7)"><mask id="c" fill="#fff"><use xlink:href="#a"/></mask><use fill="#FFF" fill-opacity="0" xlink:href="#a"/><ellipse cx="330" cy="181" fill="#384254" fill-opacity=".08" filter="url(#b)" mask="url(#c)" rx="281" ry="143"/><g filter="url(#d)" mask="url(#c)"><g transform="translate(433 30)"><path fill="#FFF" stroke="#F15242" stroke-width="4" d="M170.006 2a5.97 5.97 0 014.238 1.757A5.99 5.99 0 01176 8.004h0v217.992a5.99 5.99 0 01-1.756 4.247 5.97 5.97 0 01-4.238 1.757h0H7.994a5.97 5.97 0 01-4.238-1.757A5.99 5.99 0 012 225.996h0V8.004c0-1.659.67-3.16 1.756-4.247A5.97 5.97 0 017.994 2h0z"/><circle cx="15" cy="15" r="3" fill="#F15242"/><circle cx="25" cy="15" r="3" fill="#FFC111"/><circle cx="35" cy="15" r="3" fill="#6FD350"/><rect width="129.25" height="67.25" x="24.375" y="32.375" fill="#FFF" stroke="#E1E1E1" stroke-width=".75" rx="4"/><path fill="#F15242" d="M24 119c0-1.657 1.337-3 2.997-3h44.006A3 3 0 0174 119c0 1.657-1.337 3-2.997 3H26.997A3 3 0 0124 119z"/><path fill="#F15242" fill-opacity=".2" d="M24 134.632A2.634 2.634 0 0126.626 132h124.748a2.624 2.624 0 012.626 2.632v.736a2.634 2.634 0 01-2.626 2.632H26.626A2.624 2.624 0 0124 135.368v-.736zm0 16A2.634 2.634 0 0126.626 148h124.748a2.624 2.624 0 012.626 2.632v.736a2.634 2.634 0 01-2.626 2.632H26.626A2.624 2.624 0 0124 151.368v-.736zM24 167c0-1.657 1.35-3 2.99-3h124.02a2.998 2.998 0 012.99 3c0 1.657-1.35 3-2.99 3H26.99a2.998 2.998 0 01-2.99-3z"/><path fill="#354254" fill-rule="nonzero" d="M58.516 82.4V59.756a41.44 41.44 0 003.366-7.616l-2.278-1.088c-1.666 5.372-4.352 10.166-8.024 14.314l.782 2.584a46.352 46.352 0 003.706-4.42V82.4h2.448zm3.978-17.442a42.345 42.345 0 003.774-7.208h12.886a23.21 23.21 0 01-1.938 4.76l2.346.68c.85-2.04 1.53-4.114 2.074-6.222V55.37H67.152c.408-1.19.816-2.448 1.156-3.774l-2.312-.476c-1.156 4.59-3.026 8.772-5.61 12.546l2.108 1.292zm8.024 17.204c1.87 0 2.822-.952 2.822-2.856v-18.7h-2.38v18.088c0 .884-.442 1.326-1.292 1.326-1.292 0-2.686-.068-4.114-.17l.51 2.312h4.454zm9.826-3.502l2.142-.952c-1.292-4.624-2.788-8.942-4.522-12.954l-2.176.714c1.666 3.808 3.196 8.228 4.556 13.192zm-17.51-.578c1.972-3.57 3.57-7.718 4.794-12.444l-2.21-.612c-1.394 4.964-3.026 9.044-4.862 12.24l2.278.816zm24.922 4.454a25.91 25.91 0 006.494-7.242c1.7 1.428 3.162 2.72 4.318 3.944l1.666-1.938c-1.258-1.224-2.856-2.618-4.828-4.148 1.904-3.978 3.026-8.67 3.332-14.042v-1.394h-5.882c.408-2.04.816-4.284 1.224-6.664l-2.414-.204a136.907 136.907 0 01-1.258 6.868h-4.114v2.346h3.604c-.816 3.468-1.734 6.698-2.788 9.69 1.904 1.394 3.672 2.72 5.236 3.978-1.598 2.652-3.672 4.896-6.256 6.766l1.666 2.04zm19.618-.51c1.768 0 2.686-1.088 2.686-3.264v-10.88h6.936v-2.38h-6.936v-3.536a48.68 48.68 0 005.542-6.596v-2.38H100.88v2.38h11.934c-1.666 2.312-3.4 4.25-5.236 5.848v4.284h-7.684v2.38h7.684v10.132c0 1.156-.408 1.734-1.19 1.734-1.632 0-3.162-.034-4.556-.034l.646 2.312h4.896zm-13.94-10.37c-1.122-.816-2.346-1.7-3.638-2.618.884-2.38 1.734-5.372 2.55-8.976h3.978c-.306 4.352-1.258 8.228-2.89 11.594zm31.79.816V54.928h-2.448v17.544h2.448zM124 79.204c.544 0 .986-.187 1.326-.561.34-.374.51-.799.51-1.275 0-.476-.17-.901-.51-1.275-.34-.374-.782-.561-1.326-.561s-.986.187-1.326.561c-.34.374-.51.799-.51 1.275 0 .476.17.901.51 1.275.34.374.782.561 1.326.561z"/></g></g><g filter="url(#e)" mask="url(#c)"><g transform="translate(241)"><rect width="174" height="230" x="2" y="2" fill="#FFF" stroke="#FFC111" stroke-width="4" rx="8"/><circle cx="15.75" cy="15" r="3" fill="#F15242"/><circle cx="25.75" cy="15" r="3" fill="#FFC111"/><circle cx="35.75" cy="15" r="3" fill="#6FD350"/><rect width="129.25" height="67.25" x="24.375" y="32.375" fill="#FFF" stroke="#E1E1E1" stroke-width=".75" rx="4"/><rect width="50" height="6" x="24" y="116" fill="#FFC111" rx="3"/><rect width="130" height="6" x="24" y="132" fill="#FFC111" fill-opacity=".2" rx="3"/><rect width="130" height="6" x="24" y="148" fill="#FFC111" fill-opacity=".2" rx="3"/><rect width="130" height="6" x="24" y="164" fill="#FFC111" fill-opacity=".2" rx="3"/><rect width="130" height="6" x="24" y="180" fill="#FFC111" fill-opacity=".2" rx="3"/><rect width="130" height="6" x="24" y="196" fill="#FFC111" fill-opacity=".2" rx="3"/><path fill="#354254" fill-rule="nonzero" d="M47.969 64.182c.544 0 .986-.187 1.326-.561.34-.374.51-.799.51-1.275 0-.476-.17-.901-.51-1.275-.34-.374-.782-.561-1.326-.561s-.986.187-1.326.561c-.34.374-.51.799-.51 1.275 0 .476.17.901.51 1.275.34.374.782.561 1.326.561zm1.224 20.604V67.242h-2.448v17.544h2.448zM59.189 77V65.61h13.124V77h2.448V52.928h-2.448v10.438H59.189V52.928h-2.448V77h2.448zm29.138.408c1.247 0 2.391-.21 3.434-.629a7.935 7.935 0 002.686-1.751 8.015 8.015 0 001.751-2.652c.42-1.02.629-2.13.629-3.332 0-1.201-.21-2.312-.629-3.332a8.015 8.015 0 00-1.751-2.652 7.935 7.935 0 00-2.686-1.751c-1.043-.42-2.187-.629-3.434-.629-1.224 0-2.357.21-3.4.629a7.935 7.935 0 00-2.686 1.751 8.015 8.015 0 00-1.751 2.652c-.42 1.02-.629 2.13-.629 3.332 0 1.201.21 2.312.629 3.332a8.015 8.015 0 001.751 2.652 7.935 7.935 0 002.686 1.751c1.043.42 2.176.629 3.4.629zm0-1.972c-.93 0-1.762-.164-2.499-.493a5.556 5.556 0 01-1.887-1.36 6.123 6.123 0 01-1.207-2.04 7.28 7.28 0 01-.425-2.499c0-.884.142-1.717.425-2.499a6.123 6.123 0 011.207-2.04 5.758 5.758 0 011.887-1.377c.737-.34 1.57-.51 2.499-.51.93 0 1.768.17 2.516.51.748.34 1.383.799 1.904 1.377a6.123 6.123 0 011.207 2.04 7.28 7.28 0 01.425 2.499 7.28 7.28 0 01-.425 2.499 6.123 6.123 0 01-1.207 2.04 5.515 5.515 0 01-1.904 1.36c-.748.329-1.587.493-2.516.493zM104.171 77V51.296h-2.312V77h2.312zm10.506.408c1.292 0 2.397-.232 3.315-.697.918-.465 1.74-1.23 2.465-2.295h.068c0 .43.023.873.068 1.326.045.453.102.873.17 1.258h2.074a13.364 13.364 0 01-.204-1.666 27.695 27.695 0 01-.068-1.904v-6.97c0-.975-.159-1.825-.476-2.55a4.85 4.85 0 00-1.326-1.802 5.731 5.731 0 00-1.972-1.071 7.919 7.919 0 00-2.414-.357c-1.36 0-2.578.215-3.655.646-1.077.43-1.944.975-2.601 1.632l1.292 1.53c.567-.567 1.258-1.02 2.074-1.36.816-.34 1.7-.51 2.652-.51 1.383 0 2.437.34 3.162 1.02.725.68 1.088 1.711 1.088 3.094v.51c-1.45 0-2.85.051-4.199.153-1.349.102-2.544.329-3.587.68-1.043.351-1.876.884-2.499 1.598-.623.714-.935 1.683-.935 2.907 0 .884.176 1.632.527 2.244.351.612.793 1.11 1.326 1.496a5.283 5.283 0 001.768.833 7.4 7.4 0 001.887.255zm.612-1.904c-.453 0-.901-.051-1.343-.153a3.694 3.694 0 01-1.207-.51 2.642 2.642 0 01-.867-.935c-.215-.385-.323-.861-.323-1.428 0-.748.25-1.349.748-1.802.499-.453 1.139-.799 1.921-1.037a12.53 12.53 0 012.618-.476c.963-.08 1.921-.119 2.873-.119h.68v1.19a5.92 5.92 0 01-.34 2.006 5.11 5.11 0 01-.986 1.683c-.43.487-.963.873-1.598 1.156-.635.283-1.36.425-2.176.425zm16.966-5.032V52.928h-2.448v17.544h2.448zm-1.224 6.732c.544 0 .986-.187 1.326-.561.34-.374.51-.799.51-1.275 0-.476-.17-.901-.51-1.275-.34-.374-.782-.561-1.326-.561s-.986.187-1.326.561c-.34.374-.51.799-.51 1.275 0 .476.17.901.51 1.275.34.374.782.561 1.326.561z"/></g></g><g filter="url(#f)" mask="url(#c)"><g transform="translate(49 30)"><rect width="174" height="230" x="2" y="2" fill="#FFF" stroke="#01B2D0" stroke-width="4" rx="8"/><circle cx="15" cy="15" r="3" fill="#F15242"/><circle cx="25" cy="15" r="3" fill="#FFC111"/><circle cx="35" cy="15" r="3" fill="#6FD350"/><rect width="50" height="6" x="24" y="116" fill="#01B2D0" rx="3"/><rect width="130" height="6" x="24" y="132" fill="#01B2D0" fill-opacity=".2" rx="3"/><rect width="130" height="6" x="24" y="148" fill="#01B2D0" fill-opacity=".2" rx="3"/><rect width="130" height="6" x="24" y="164" fill="#01B2D0" fill-opacity=".2" rx="3"/><g transform="translate(24 32)"><rect width="129.25" height="67.25" x=".375" y=".375" fill="#FFF" stroke="#E1E1E1" stroke-width=".75" rx="4"/><path fill="#354254" fill-rule="nonzero" d="M25.683 46.75V35.36h13.124v11.39h2.448V22.678h-2.448v10.438H25.683V22.678h-2.448V46.75h2.448zm28.9.408c1.315 0 2.544-.26 3.689-.782 1.145-.521 2.193-1.383 3.145-2.584l-1.734-1.36c-.453.725-1.116 1.366-1.989 1.921-.873.555-1.91.833-3.111.833a5.643 5.643 0 01-2.278-.459 5.9 5.9 0 01-1.836-1.241 5.666 5.666 0 01-1.224-1.836 6.21 6.21 0 01-.476-2.244h13.192a5.17 5.17 0 00.034-.578v-.51a9.313 9.313 0 00-.493-3.06 7.303 7.303 0 00-1.445-2.499c-.635-.714-1.428-1.28-2.38-1.7-.952-.42-2.051-.629-3.298-.629-1.133 0-2.187.21-3.162.629a7.817 7.817 0 00-2.55 1.751 8.067 8.067 0 00-1.7 2.652c-.408 1.02-.612 2.13-.612 3.332 0 1.201.21 2.312.629 3.332a8.295 8.295 0 001.717 2.652 7.685 7.685 0 002.601 1.751c1.009.42 2.102.629 3.281.629zm5.066-9.588H48.803c.045-.68.215-1.332.51-1.955a5.748 5.748 0 012.924-2.822 5.353 5.353 0 012.142-.425c1.655 0 2.93.493 3.825 1.479.895.986 1.377 2.227 1.445 3.723zm9.69 9.18V21.046h-2.312V46.75h2.312zm8.568 0V21.046h-2.312V46.75h2.312zm13.498.408c1.247 0 2.391-.21 3.434-.629a7.935 7.935 0 002.686-1.751 8.015 8.015 0 001.751-2.652c.42-1.02.629-2.13.629-3.332 0-1.201-.21-2.312-.629-3.332a8.015 8.015 0 00-1.751-2.652 7.935 7.935 0 00-2.686-1.751c-1.043-.42-2.187-.629-3.434-.629-1.224 0-2.357.21-3.4.629a7.935 7.935 0 00-2.686 1.751 8.015 8.015 0 00-1.751 2.652c-.42 1.02-.629 2.13-.629 3.332 0 1.201.21 2.312.629 3.332a8.015 8.015 0 001.751 2.652 7.935 7.935 0 002.686 1.751c1.043.42 2.176.629 3.4.629zm0-1.972c-.93 0-1.762-.164-2.499-.493a5.556 5.556 0 01-1.887-1.36 6.123 6.123 0 01-1.207-2.04 7.28 7.28 0 01-.425-2.499c0-.884.142-1.717.425-2.499a6.123 6.123 0 011.207-2.04 5.758 5.758 0 011.887-1.377c.737-.34 1.57-.51 2.499-.51.93 0 1.768.17 2.516.51.748.34 1.383.799 1.904 1.377a6.123 6.123 0 011.207 2.04 7.28 7.28 0 01.425 2.499 7.28 7.28 0 01-.425 2.499 6.123 6.123 0 01-1.207 2.04 5.515 5.515 0 01-1.904 1.36c-.748.329-1.587.493-2.516.493zm17.204-4.964V22.678h-2.448v17.544h2.448zm-1.224 6.732c.544 0 .986-.187 1.326-.561.34-.374.51-.799.51-1.275 0-.476-.17-.901-.51-1.275-.34-.374-.782-.561-1.326-.561s-.986.187-1.326.561c-.34.374-.51.799-.51 1.275 0 .476.17.901.51 1.275.34.374.782.561 1.326.561z"/></g></g></g></g></svg>