<svg width="58" height="58" viewBox="0 0 58 58" xmlns="http://www.w3.org/2000/svg"><g fill="#FCBE10" fill-rule="evenodd"><path d="M32.804 30.353a3.998 3.998 0 01-3.755 5.035c-.624 3.414-3.487 7.734-8.59 12.96a1 1 0 01-1.415.016l-4.168-4.168a1 1 0 01-.188-1.151c.066-.134.128-.262.185-.384a3.51 3.51 0 01.095-.02c.08-.017.11-.02.068-.022a1.502 1.502 0 01-.138-.01c.506-1.084 1.718-2.6 1.533-2.785-.178-.178-1.871.8-2.977 1.174v-.074c-.02-.003-.036.042-.053.092-.2.069-.416.146-.645.232a1 1 0 01-1.058-.23L9.14 38.46a1 1 0 010-1.415c5.236-5.182 9.56-8.077 12.976-8.684a3.998 3.998 0 015.03-3.665L40.254 11.59a4 4 0 115.657 5.657L32.804 30.353zm-1.036-1.792l12.728-12.728a2 2 0 10-2.829-2.829L28.94 25.732l2.829 2.829zm-4.677 6.377a3.998 3.998 0 01-.98-.72l-2.829-2.829a3.995 3.995 0 01-.76-1.061c-2.718.415-6.447 2.794-11.253 7.433l1.392 1.391c2.18-.783 5.576-2.029 6.108-1.513s-1.037 3.665-1.975 5.647l2.936 2.935c4.586-4.815 6.943-8.556 7.361-11.283zm.434-7.792a2 2 0 10-2.828 2.829l2.828 2.828a2 2 0 102.829-2.828l-2.829-2.829z" fill-rule="nonzero"/><circle opacity=".402" cx="33.5" cy="40.5" r="1.5"/><circle opacity=".402" cx="37.5" cy="47.5" r="1.5"/><circle opacity=".402" cx="28.5" cy="47.5" r="1.5"/></g></svg>