<svg width="58" height="58" viewBox="0 0 58 58" xmlns="http://www.w3.org/2000/svg"><g fill="#48BDDE" fill-rule="evenodd"><path d="M29.538 46.989a1.013 1.013 0 01-.086.006 18.65 18.65 0 01-1.058-.004 1 1 0 01.065-1.999c.313.01.627.011.942.003l.077.001a.938.938 0 01.076-.005c.315-.011.628-.031.94-.06a1 1 0 11.185 1.991c-.35.033-.702.055-1.055.067h-.086zm7.283-1.774a1 1 0 01-.87-1.8c.282-.137.56-.282.835-.435a1 1 0 11.975 1.746c-.309.172-.622.336-.94.49zm5.866-4.53a1 1 0 11-1.52-1.298c.203-.239.4-.484.59-.734a1 1 0 111.594 1.208c-.213.281-.435.556-.664.825zm3.532-6.437a1 1 0 11-1.914-.583c.092-.3.174-.602.248-.907a1 1 0 011.944.468c-.083.344-.176.685-.278 1.022zm.646-7.421a1 1 0 11-1.986.24 16.036 16.036 0 00-.14-.931 1 1 0 111.969-.356c.062.347.115.696.157 1.047zm-2.374-6.992a1 1 0 11-1.72 1.02c-.16-.27-.328-.535-.504-.795a1 1 0 011.658-1.12c.197.293.386.592.566.895zm-5.06-5.502a1 1 0 01-1.16 1.629 16.053 16.053 0 00-.783-.524 1 1 0 111.063-1.694c.299.188.592.384.88.589zm-6.708-2.947a1 1 0 11-.413 1.957c-.306-.064-.615-.12-.926-.166a1 1 0 11.297-1.978c.35.052.697.115 1.042.187zm-7.433-.003a1 1 0 01.41 1.958 15.91 15.91 0 00-.915.22 1 1 0 11-.524-1.93c.34-.093.683-.175 1.029-.248zm-6.77 2.977a1 1 0 111.165 1.625c-.255.183-.505.373-.749.571a1 1 0 01-1.258-1.554c.274-.223.555-.437.842-.642zm-4.988 5.421a1 1 0 011.717 1.026c-.16.27-.314.543-.458.822a1 1 0 01-1.775-.923c.163-.313.335-.622.516-.925zm-2.408 7.045a1 1 0 111.986.24c-.038.31-.066.623-.085.937a1 1 0 01-1.997-.122c.022-.354.054-.705.096-1.055zm.64 7.392a1 1 0 011.914-.578c.09.3.19.598.298.892a1 1 0 11-1.877.69 17.866 17.866 0 01-.336-1.004zm3.56 6.492a1 1 0 011.517-1.302c.205.238.416.47.634.696a1 1 0 01-1.44 1.389 18.092 18.092 0 01-.712-.783zm5.827 4.495a1 1 0 01.873-1.8c.282.138.568.266.858.386a1 1 0 01-.765 1.848c-.326-.135-.648-.28-.966-.434z" fill-rule="nonzero" opacity=".401"/><path d="M47 29a1 1 0 01-2 0c0-8.837-7.163-16-16-16a1 1 0 010-2c9.941 0 18 8.059 18 18zm-10.564-1.266c.238-.128-.102-.869-.743-.725H31.23l2.23-7.243c-.091-.522-1.061-1.06-1.486-.724L21.564 30.63c-.238.128.102.868.743.724h4.462L24.54 38.6c.091.522 1.061 1.06 1.486.724l10.411-11.59z"/></g></svg>