<svg width="58" height="58" viewBox="0 0 58 58" xmlns="http://www.w3.org/2000/svg"><g fill="#F47B6E"><path d="M41.874 26.025c.395-.218-.17-1.483-1.238-1.237h-7.424l3.712-12.373c-.153-.892-1.767-1.81-2.475-1.237L17.126 30.975c-.395.218.17 1.483 1.238 1.237h7.424l-3.712 12.373c.153.892 1.767 1.81 2.475 1.237l17.323-19.797z" opacity=".399"/><path d="M41.001 42.415A17.933 17.933 0 0 1 29 47a18.24 18.24 0 0 1-1.524-.064L29.013 45a15.94 15.94 0 0 0 10.572-4.001L17 18.415A15.94 15.94 0 0 0 13 29c0 5.373 2.648 10.127 6.71 13.029l-.603 2.011C14.223 40.821 11 35.287 11 29c0-4.61 1.734-8.817 4.585-12.001l-.02-.02 1.414-1.414.02.02A17.933 17.933 0 0 1 29 11c.526 0 1.046.023 1.56.067L28.868 13a15.938 15.938 0 0 0-10.453 4L41 39.585A15.94 15.94 0 0 0 45 29c0-5.116-2.402-9.672-6.139-12.6l.612-2.041C44.031 17.625 47 22.966 47 29c0 4.61-1.734 8.817-4.585 12.001l.02.02-1.414 1.414-.02-.02z"/></g></svg>