<svg width="58" height="58" viewBox="0 0 58 58" xmlns="http://www.w3.org/2000/svg"><g fill="#6FD350" fill-rule="evenodd"><path d="M37.461 38.29C31.901 42.325 24.08 41.896 19 37c-5.367-5.568-5.367-14.432 0-20 5.568-5.367 14.432-5.367 20 0 4.896 5.079 5.325 12.9 1.29 18.461l7.379 7.38a2 2 0 0 1-2.828 2.828l-7.38-7.38zm.151-19.85c-4.793-4.62-12.43-4.62-17.172-.052-4.62 4.793-4.62 12.43-.052 17.172 4.784 4.612 12.403 4.62 17.198.026 4.594-4.795 4.586-12.414.026-17.146z" fill-rule="nonzero"/><rect x="24" y="22" width="10" height="10" rx="5"/><path d="M7 25h4a2 2 0 1 1 0 4H7a2 2 0 1 1 0-4zm40 0h4a2 2 0 1 1 0 4h-4a2 2 0 1 1 0-4zm-6.623-1.952a12.445 12.445 0 0 1 0 7.904 4.001 4.001 0 0 1 0-7.904zm-22.754 7.904a12.445 12.445 0 0 1 0-7.904 4.001 4.001 0 0 1 0 7.904z" opacity=".4"/></g></svg>