<svg xmlns="http://www.w3.org/2000/svg" width="94" height="50" viewBox="0 0 94 50"><path fill="#333" d="M7.875 32.093v-1.28c-.876 1.015-2.26 1.57-3.816 1.57C2.163 32.384 0 31.079 0 28.52c0-2.706 2.14-3.817 4.059-3.817 1.604 0 2.94.508 3.816 1.498v-1.74c0-1.352-1.142-2.174-2.747-2.174-1.312 0-2.478.484-3.475 1.499L.583 22.02c1.362-1.304 3.063-1.884 4.934-1.884 2.625 0 4.91 1.087 4.91 4.203v7.753H7.874zm0-2.657V27.65c-.608-.798-1.702-1.208-2.796-1.208-1.433 0-2.527.845-2.527 2.1 0 1.281 1.094 2.103 2.527 2.103 1.094 0 2.187-.412 2.796-1.209zm4.537 2.658V16h2.56v6.057c.952-1.255 2.318-1.907 3.78-1.907 3.05 0 5.244 2.34 5.244 6.105 0 3.86-2.219 6.129-5.243 6.129-1.512 0-2.878-.724-3.78-1.881v1.591h-2.561zm5.61-1.955c2.023 0 3.316-1.617 3.316-3.884 0-2.244-1.292-3.86-3.317-3.86-1.22 0-2.463.7-3.049 1.568v4.633c.586.868 1.83 1.543 3.05 1.543zm7.133-3.89c0-3.358 2.29-6.112 6.04-6.112 3.751 0 6.04 2.754 6.04 6.111 0 3.334-2.289 6.136-6.04 6.136-3.75 0-6.04-2.802-6.04-6.136zm9.427 0c0-2.054-1.194-3.865-3.386-3.865-2.168 0-3.386 1.811-3.386 3.864 0 2.077 1.218 3.889 3.386 3.889 2.193 0 3.386-1.812 3.386-3.889zm11.864 5.68v-1.54c-.823.916-2.274 1.83-4.112 1.83-2.516 0-3.774-1.325-3.774-3.684v-8.232h2.54v7.294c0 1.805.919 2.383 2.37 2.383 1.283 0 2.396-.747 2.976-1.518v-8.16h2.54V31.93h-2.54zm6.123-2.712v-6.702H50.64V20.33h1.928v-3.17H55.1v3.17h2.362v2.186H55.1v6.077c0 .793.385 1.394 1.109 1.394.481 0 .916-.217 1.108-.433l.605 1.921c-.46.408-1.207.744-2.365.744-1.977 0-2.99-1.057-2.99-3.001zm6.677 1.323c0-.875.757-1.632 1.655-1.632.899 0 1.655.757 1.655 1.632 0 .898-.757 1.678-1.655 1.678s-1.655-.78-1.655-1.678zm18.975 1.513V24.47c0-1.252-.557-2.095-1.934-2.095-1.137 0-2.2.77-2.709 1.541v8.137H71.04V24.47c0-1.252-.53-2.095-1.911-2.095-1.136 0-2.176.795-2.71 1.541v8.137H63.88V20.426h2.539v1.565c.508-.698 2.031-1.854 3.821-1.854 1.74 0 2.805.867 3.192 2.119.653-1.036 2.201-2.119 3.966-2.119 2.129 0 3.363 1.155 3.363 3.515v8.4h-2.54zm4.029-5.805c0-3.382 2.487-6.11 5.972-6.11 3.535 0 5.778 2.656 5.778 6.327v.628h-9.069c.196 1.74 1.51 3.213 3.728 3.213 1.172 0 2.51-.46 3.364-1.305l1.17 1.667c-1.194 1.112-2.925 1.716-4.778 1.716-3.557-.001-6.165-2.44-6.165-6.136zm5.948-4.033c-2.17 0-3.193 1.667-3.29 3.067h6.63c-.074-1.377-1.025-3.067-3.34-3.067z"/></svg>