<svg xmlns="http://www.w3.org/2000/svg" width="100" height="50" viewBox="0 0 100 50"><path fill="#333" d="M8.338 33.04v-1.355c-.927 1.074-2.393 1.663-4.04 1.663C2.29 33.347 0 31.965 0 29.255c0-2.865 2.265-4.041 4.297-4.041 1.699 0 3.114.537 4.041 1.586v-1.842c0-1.432-1.21-2.302-2.908-2.302-1.39 0-2.625.512-3.68 1.586L.618 22.375c1.441-1.38 3.242-1.994 5.224-1.994 2.779 0 5.197 1.15 5.197 4.45v8.209H8.338zm0-2.814v-1.89c-.644-.845-1.802-1.28-2.96-1.28-1.518 0-2.676.895-2.676 2.225 0 1.355 1.158 2.226 2.676 2.226 1.158-.001 2.316-.437 2.96-1.28zm4.804 2.815V16h2.711v6.413c1.007-1.329 2.454-2.018 4.003-2.018 3.228 0 5.552 2.478 5.552 6.463 0 4.088-2.35 6.49-5.552 6.49-1.601 0-3.047-.767-4.003-1.992v1.685h-2.71zm5.94-2.07c2.142 0 3.511-1.713 3.511-4.113 0-2.376-1.368-4.088-3.512-4.088-1.291 0-2.608.742-3.228 1.661v4.906c.62.919 1.937 1.634 3.228 1.634zm7.553-4.12c0-3.555 2.425-6.47 6.396-6.47s6.395 2.915 6.395 6.47c0 3.53-2.424 6.497-6.395 6.497-3.971 0-6.396-2.967-6.396-6.497zm9.98 0c0-2.174-1.263-4.092-3.584-4.092-2.295 0-3.585 1.918-3.585 4.092 0 2.2 1.29 4.118 3.585 4.118 2.322 0 3.585-1.92 3.585-4.118zm12.563 6.016v-1.632c-.87.97-2.407 1.937-4.354 1.937-2.663 0-3.996-1.402-3.996-3.9v-8.716h2.69v7.723c0 1.911.972 2.524 2.51 2.524 1.357 0 2.536-.791 3.15-1.608v-8.64h2.69v12.312h-2.69zm6.483-2.873v-7.096H53.62v-2.315h2.041v-3.356h2.68v3.357h2.503v2.315h-2.502v6.434c0 .839.408 1.475 1.174 1.475.51 0 .97-.229 1.174-.458l.64 2.034c-.487.433-1.277.788-2.503.788-2.094 0-3.166-1.119-3.166-3.178zm7.07 1.401c0-.926.802-1.727 1.753-1.727.95 0 1.752.8 1.752 1.727 0 .95-.801 1.777-1.752 1.777s-1.752-.826-1.752-1.777zm20.092 1.602v-8.029c0-1.325-.59-2.218-2.049-2.218-1.203 0-2.33.816-2.868 1.632v8.615h-2.688v-8.029c0-1.325-.562-2.218-2.024-2.218-1.203 0-2.304.841-2.868 1.632v8.615h-2.688v-12.31h2.688v1.656c.538-.74 2.15-1.962 4.046-1.962 1.843 0 2.97.917 3.38 2.243.691-1.096 2.33-2.243 4.199-2.243 2.254 0 3.56 1.223 3.56 3.72v8.896h-2.688zm4.265-6.146c0-3.58 2.633-6.47 6.324-6.47 3.742 0 6.117 2.813 6.117 6.7v.664h-9.602c.207 1.843 1.599 3.402 3.948 3.402 1.24 0 2.658-.486 3.561-1.381l1.239 1.765c-1.265 1.177-3.097 1.817-5.06 1.817-3.765-.002-6.527-2.584-6.527-6.497zm6.298-4.27c-2.297 0-3.381 1.764-3.484 3.247h7.02c-.078-1.458-1.084-3.248-3.536-3.248z"/></svg>