<svg xmlns="http://www.w3.org/2000/svg" xmlns:xlink="http://www.w3.org/1999/xlink" width="114" height="50" viewBox="0 0 114 50"><defs><path id="a" d="M.015.175h46.224v17.717H.015z"/></defs><g fill="none" fill-rule="evenodd"><g transform="translate(0 16.252)"><mask id="b" fill="#fff"><use xlink:href="#a"/></mask><path fill="#E46D8C" d="M27.217 17.617s.76-8.721-6.735-8.721c-1.938 0-2.907.969-2.907.969s.97.969.97 2.907c0 3.876 2.906 4.845 5.813 4.845h2.86" mask="url(#b)"/><path fill="#5CBBDA" d="M13.943.175C0 .175 0 14.629 0 14.629v2.988h1.569c8.963 0 9.48-5.478 12.981-9.354C18.22 4.2 22.966 5.59 25.264 6.797 22.872 2.397 18.126.175 13.943.175" mask="url(#b)"/><path fill="#37334D" d="M39.069 5.075l-1.943 6.15h3.885l-1.942-6.15zm-3.094 9.467l-.384 1.404c-.383 1.404-.91 1.961-1.87 1.961-1.007 0-1.87-.823-1.87-1.791 0-.412.024-.533.311-1.284l4.173-11.62c.48-1.308 1.439-2.059 2.71-2.059 1.27 0 2.23.751 2.71 2.058l4.172 11.621c.288.75.312.896.312 1.284 0 .968-.84 1.791-1.87 1.791-.96 0-1.464-.533-1.871-1.96l-.384-1.405h-6.139z" mask="url(#b)"/></g><path fill="#37334D" d="M58.036 29.075c0 1.259-.263 2.18-.863 2.93-1.007 1.307-2.758 2.106-4.604 2.106-1.847 0-3.597-.8-4.604-2.107-.6-.75-.863-1.67-.863-2.93v-5.277c0-.847.024-1.065.24-1.477.263-.532.887-.895 1.534-.895.624 0 1.247.363 1.51.895.217.412.24.605.24 1.477v4.842c0 .75.145 1.114.552 1.525.384.364.864.557 1.391.557.528 0 1.007-.193 1.39-.557.409-.411.552-.774.552-1.525v-4.842c0-.847.025-1.065.24-1.477.264-.532.888-.895 1.535-.895.623 0 1.247.363 1.51.895.216.412.24.605.24 1.477v5.278m10.191-5.278c0 .8-.647 1.55-1.367 1.55-.383 0-.407 0-1.486-.485-.528-.242-.983-.363-1.343-.363-.575 0-.935.242-.935.63 0 .46.192.58 1.846 1.234 1.559.63 2.062.92 2.686 1.55.552.605.863 1.356.863 2.227 0 2.349-1.894 3.97-4.652 3.97-2.398 0-4.508-1.21-4.508-2.565 0-.824.72-1.598 1.463-1.598.407 0 .407 0 1.822.63.576.265 1.031.387 1.415.387.575 0 1.031-.364 1.031-.824 0-.411-.264-.63-1.343-1.04-1.75-.654-2.23-.896-2.83-1.332-.839-.606-1.198-1.405-1.198-2.567 0-2.203 1.942-3.85 4.532-3.85 2.134 0 4.004 1.139 4.004 2.446m1.87-.315c0-1.234.696-2.057 1.751-2.057.696 0 1.08.242 1.703 1.162.983-.896 1.846-1.235 3.093-1.235.864 0 1.75.218 2.398.605.36.194.576.412.983.944 1.415-1.162 2.35-1.55 3.693-1.55 2.446 0 4.245 1.744 4.245 4.117v6.198c0 .847-.024 1.065-.24 1.476-.264.533-.888.896-1.511.896-.647 0-1.27-.363-1.535-.896-.215-.411-.24-.605-.24-1.476v-5.4c0-1.089-.719-1.84-1.798-1.84-1.08 0-1.846.751-1.846 1.84v5.4c0 .847-.025 1.065-.24 1.476-.264.533-.887.896-1.51.896-.648 0-1.272-.363-1.535-.896-.216-.411-.24-.605-.24-1.476v-5.06c0-1.38-.672-2.18-1.823-2.18-1.055 0-1.822.775-1.822 1.84v5.4c0 .847-.024 1.065-.24 1.476-.264.533-.887.896-1.51.896-.648 0-1.272-.363-1.536-.896-.215-.411-.24-.605-.24-1.476v-8.184m27.505 3.002c-.168-.677-.288-.968-.504-1.307a2.187 2.187 0 0 0-1.798-.92c-1.175 0-1.943.678-2.446 2.227h4.748zm-4.628 2.421c.527 1.429 1.414 2.107 2.805 2.107.84 0 1.055-.073 2.902-.993a1.98 1.98 0 0 1 .767-.17c.72 0 1.415.703 1.415 1.453 0 1.453-2.566 2.809-5.275 2.809-3.765 0-6.403-2.566-6.403-6.198 0-3.777 2.566-6.561 6.043-6.561 3.285 0 5.85 2.687 5.85 6.15 0 .992-.455 1.403-1.534 1.403h-6.57zm12.637-1.38c0 1.792 1.031 3.1 2.446 3.1 1.367 0 2.398-1.332 2.398-3.075 0-1.719-1.031-3.05-2.398-3.05-1.391 0-2.446 1.307-2.446 3.026zm4.82-9.054c0-.848.024-1.065.24-1.477.263-.533.887-.896 1.534-.896.624 0 1.247.363 1.511.896.216.412.24.605.24 1.477v13.533c0 1.284-.648 2.034-1.775 2.034-.863 0-1.342-.387-1.702-1.404-.744 1.041-1.679 1.477-3.046 1.477-1.606 0-3.021-.8-4.028-2.228a7.671 7.671 0 0 1-1.319-4.236c0-1.889.863-3.85 2.158-4.988.911-.799 2.23-1.307 3.333-1.307 1.055 0 1.895.315 2.854 1.113v-3.994z"/></g></svg>