<svg xmlns="http://www.w3.org/2000/svg" xmlns:xlink="http://www.w3.org/1999/xlink" width="140" height="60" viewBox="0 0 140 60"><defs><path id="a" d="M.015.173h45.818v17.562H.015z"/></defs><g fill="none" fill-rule="evenodd"><g transform="translate(13 21.25)"><mask id="b" fill="#fff"><use xlink:href="#a"/></mask><path fill="#354254" d="M26.979 17.462s.753-8.644-6.677-8.644c-1.92 0-2.88.96-2.88.96s.96.96.96 2.882c0 3.841 2.881 4.802 5.762 4.802h2.835" mask="url(#b)"/><path fill="#354254" d="M13.82.173C0 .173 0 14.502 0 14.502v2.961h1.555c8.885 0 9.397-5.43 12.867-9.271 3.638-4.028 8.342-2.65 10.62-1.454C22.673 2.376 17.968.173 13.82.173m24.906 4.858l-1.925 6.096h3.85L38.726 5.03zm-3.066 9.383l-.38 1.392c-.38 1.392-.904 1.944-1.855 1.944-.998 0-1.854-.816-1.854-1.776 0-.408.024-.528.31-1.272l4.135-11.519c.476-1.296 1.427-2.04 2.686-2.04 1.26 0 2.21.744 2.686 2.04l4.136 11.52c.285.743.309.887.309 1.271 0 .96-.832 1.776-1.854 1.776-.95 0-1.45-.528-1.854-1.944l-.38-1.392H35.66z" mask="url(#b)"/></g><path fill="#354254" d="M70.527 33.96c0 1.248-.261 2.16-.855 2.904-.999 1.296-2.734 2.088-4.564 2.088s-3.566-.792-4.564-2.088c-.594-.744-.855-1.656-.855-2.904v-5.23c0-.84.024-1.056.237-1.464.262-.528.88-.888 1.521-.888.619 0 1.236.36 1.498.888.214.408.238.6.238 1.464v4.8c0 .743.142 1.103.546 1.511.38.36.856.552 1.379.552a1.97 1.97 0 0 0 1.378-.552c.405-.408.547-.768.547-1.511v-4.8c0-.84.024-1.056.238-1.464.261-.528.88-.888 1.521-.888.618 0 1.236.36 1.498.888.214.408.237.6.237 1.464v5.231M80.63 28.73c0 .792-.642 1.536-1.355 1.536-.38 0-.404 0-1.474-.48-.523-.24-.974-.36-1.33-.36-.571 0-.928.24-.928.624 0 .456.19.576 1.83 1.224 1.546.624 2.045.912 2.663 1.536a3.2 3.2 0 0 1 .856 2.207c0 2.328-1.878 3.936-4.612 3.936-2.377 0-4.468-1.2-4.468-2.544 0-.816.713-1.584 1.45-1.584.404 0 .404 0 1.806.624.57.264 1.022.384 1.402.384.57 0 1.022-.36 1.022-.816 0-.408-.261-.624-1.33-1.032-1.736-.647-2.211-.887-2.805-1.32-.832-.6-1.189-1.391-1.189-2.543 0-2.184 1.925-3.816 4.493-3.816 2.115 0 3.969 1.128 3.969 2.424m1.854-.312c0-1.224.689-2.04 1.735-2.04.69 0 1.07.24 1.688 1.152.974-.888 1.83-1.224 3.066-1.224.856 0 1.735.216 2.377.6.356.192.57.408.974.936 1.403-1.152 2.33-1.536 3.661-1.536 2.424 0 4.207 1.728 4.207 4.08v6.143c0 .84-.024 1.056-.238 1.464-.261.528-.88.888-1.497.888-.642 0-1.26-.36-1.521-.888-.214-.408-.238-.6-.238-1.464v-5.351c0-1.08-.713-1.824-1.783-1.824-1.07 0-1.83.744-1.83 1.823v5.352c0 .84-.024 1.056-.238 1.464-.261.528-.88.888-1.497.888-.642 0-1.26-.36-1.521-.888-.214-.408-.238-.6-.238-1.464v-5.015c0-1.369-.666-2.16-1.807-2.16-1.045 0-1.806.767-1.806 1.823v5.352c0 .84-.024 1.056-.238 1.464-.261.528-.88.888-1.497.888-.642 0-1.26-.36-1.521-.888-.214-.408-.238-.6-.238-1.464v-8.111m27.261 2.974c-.166-.672-.285-.96-.499-1.295a2.167 2.167 0 0 0-1.782-.912c-1.165 0-1.925.672-2.425 2.208h4.707zm-4.587 2.4c.523 1.416 1.402 2.088 2.781 2.088.832 0 1.046-.072 2.876-.984.214-.096.5-.168.761-.168.713 0 1.402.696 1.402 1.44 0 1.44-2.543 2.784-5.229 2.784-3.732 0-6.346-2.544-6.346-6.144 0-3.743 2.543-6.503 5.99-6.503 3.256 0 5.8 2.664 5.8 6.095 0 .984-.452 1.392-1.522 1.392h-6.513zm12.526-1.368c0 1.776 1.023 3.072 2.425 3.072 1.355 0 2.377-1.32 2.377-3.048 0-1.704-1.022-3.023-2.377-3.023-1.379 0-2.424 1.295-2.424 3zm4.778-8.975c0-.84.024-1.056.238-1.464.261-.528.88-.888 1.521-.888.618 0 1.236.36 1.497.888.214.408.238.6.238 1.464v13.415c0 1.272-.642 2.016-1.759 2.016-.856 0-1.33-.384-1.687-1.392-.737 1.032-1.664 1.464-3.019 1.464-1.593 0-2.995-.792-3.993-2.208a7.61 7.61 0 0 1-1.308-4.2c0-1.871.856-3.815 2.14-4.943.903-.792 2.21-1.296 3.303-1.296 1.047 0 1.878.312 2.83 1.104v-3.96z"/></g></svg>