<svg xmlns="http://www.w3.org/2000/svg" xmlns:xlink="http://www.w3.org/1999/xlink" width="86" height="50" viewBox="0 0 86 50"><defs><path id="a" d="M0 0h85.44v19.584H0z"/><path id="c" d="M0 0h85.44v19.584H0z"/><path id="e" d="M0 0h85.44v19.584H0z"/><path id="g" d="M0 0h85.44v19.584H0z"/><path id="i" d="M0 0h85.44v19.584H0z"/><path id="k" d="M0 0h85.44v19.584H0z"/><path id="m" d="M0 0h85.44v19.584H0z"/></defs><g fill="none" fill-rule="evenodd" transform="translate(0 15)"><mask id="b" fill="#fff"><use xlink:href="#a"/></mask><path fill="#262626" fill-rule="nonzero" d="M41.641 5.214c-1.725 0-3.426.74-4.725 2.197V.229h-2.569V12.32a7.107 7.107 0 0 0 14.215 0c0-3.925-2.996-7.107-6.921-7.107m-.186 11.477a4.37 4.37 0 1 1 0-8.74 4.37 4.37 0 0 1 0 8.74" mask="url(#b)"/><mask id="d" fill="#fff"><use xlink:href="#c"/></mask><path fill="#262626" fill-rule="nonzero" d="M57.56 5.214c-1.725 0-3.426.74-4.724 2.197V.229h-2.57V12.32a7.107 7.107 0 0 0 14.215 0c0-3.925-2.996-7.107-6.92-7.107m-.187 11.477a4.37 4.37 0 1 1 0-8.74 4.37 4.37 0 0 1 0 8.74" mask="url(#d)"/><mask id="f" fill="#fff"><use xlink:href="#e"/></mask><path fill="#262626" fill-rule="nonzero" d="M19.89 13.566V5.6h2.755v7.942c0 2.03 1.178 3.332 3.157 3.332 2.004 0 3.157-1.252 3.157-3.332V5.6h2.78v7.967c0 3.683-2.229 5.863-5.937 5.863-3.608 0-5.913-2.255-5.913-5.863" mask="url(#f)"/><mask id="h" fill="#fff"><use xlink:href="#g"/></mask><path fill="#262626" fill-rule="nonzero" mask="url(#h)" d="M66.698.229h2.756v18.874h-2.756z"/><mask id="j" fill="#fff"><use xlink:href="#i"/></mask><path fill="#262626" fill-rule="nonzero" d="M85.054 13.416H74.507c.4 2.104 1.879 3.532 4.484 3.532 1.529 0 3.382-.576 4.585-1.453l1.153 2.03c-1.378 1.027-3.558 1.879-5.838 1.879-5.06 0-7.24-3.533-7.24-7.09 0-2.03.626-3.708 1.904-5.036 1.277-1.328 2.956-2.005 4.985-2.005 1.93 0 3.533.602 4.76 1.83 1.228 1.227 1.854 2.88 1.854 4.985 0 .376-.025.827-.1 1.328M74.507 11.16h7.866c-.225-2.13-1.803-3.507-3.833-3.507-2.08 0-3.632 1.403-4.033 3.507" mask="url(#j)"/><mask id="l" fill="#fff"><use xlink:href="#k"/></mask><path fill="#262626" fill-rule="nonzero" d="M11.14 5.214c-1.726 0-3.427.74-4.725 2.197V.229h-2.57V12.32a7.107 7.107 0 0 0 14.215 0c0-3.925-2.995-7.107-6.92-7.107m-.187 11.477a4.37 4.37 0 1 1 0-8.74 4.37 4.37 0 0 1 0 8.74" mask="url(#l)"/><mask id="n" fill="#fff"><use xlink:href="#m"/></mask><path fill="#00F" fill-rule="nonzero" d="M1.977 15.913a1.758 1.758 0 1 0 0 3.516 1.758 1.758 0 0 0 0-3.516" mask="url(#n)"/></g></svg>