<svg xmlns="http://www.w3.org/2000/svg" xmlns:xlink="http://www.w3.org/1999/xlink" width="100" height="50" viewBox="0 0 100 50"><defs><path id="a" d="M0 0h93.984v21.542H0z"/><path id="c" d="M0 0h93.984v21.542H0z"/><path id="e" d="M0 0h93.984v21.542H0z"/><path id="g" d="M0 0h93.984v21.542H0z"/><path id="i" d="M0 0h93.984v21.542H0z"/><path id="k" d="M0 0h93.984v21.542H0z"/><path id="m" d="M0 0h93.984v21.542H0z"/></defs><g fill="none" fill-rule="evenodd" transform="translate(2 14)"><mask id="b" fill="#fff"><use xlink:href="#a"/></mask><path fill="#262626" fill-rule="nonzero" d="M45.805 5.735c-1.898 0-3.769.815-5.197 2.417v-7.9h-2.826v13.301a7.818 7.818 0 0 0 15.636 0c0-4.318-3.295-7.818-7.613-7.818M45.6 18.36a4.807 4.807 0 1 1 0-9.614 4.807 4.807 0 0 1 0 9.614" mask="url(#b)"/><mask id="d" fill="#fff"><use xlink:href="#c"/></mask><path fill="#262626" fill-rule="nonzero" d="M63.316 5.735c-1.898 0-3.769.815-5.197 2.417v-7.9h-2.826v13.301a7.818 7.818 0 0 0 15.636 0c0-4.318-3.295-7.818-7.613-7.818m-.205 12.625a4.807 4.807 0 1 1 0-9.614 4.807 4.807 0 0 1 0 9.614" mask="url(#d)"/><mask id="f" fill="#fff"><use xlink:href="#e"/></mask><path fill="#262626" fill-rule="nonzero" d="M21.878 14.923V6.159h3.032v8.736c0 2.233 1.295 3.666 3.472 3.666 2.205 0 3.473-1.378 3.473-3.666V6.16h3.059v8.764c0 4.05-2.453 6.449-6.532 6.449-3.968 0-6.504-2.48-6.504-6.45" mask="url(#f)"/><mask id="h" fill="#fff"><use xlink:href="#g"/></mask><path fill="#262626" fill-rule="nonzero" mask="url(#h)" d="M73.368.252h3.031v20.762h-3.031z"/><mask id="j" fill="#fff"><use xlink:href="#i"/></mask><path fill="#262626" fill-rule="nonzero" d="M93.56 14.757H81.957c.441 2.315 2.067 3.886 4.933 3.886 1.682 0 3.72-.634 5.044-1.598l1.267 2.232c-1.515 1.13-3.913 2.067-6.42 2.067-5.568 0-7.965-3.886-7.965-7.8 0-2.231.689-4.078 2.094-5.539 1.406-1.46 3.252-2.204 5.484-2.204 2.122 0 3.886.661 5.237 2.012 1.35 1.35 2.039 3.169 2.039 5.484 0 .413-.028.91-.11 1.46m-11.603-2.48h8.654c-.248-2.342-1.984-3.858-4.217-3.858-2.287 0-3.996 1.543-4.437 3.858" mask="url(#j)"/><mask id="l" fill="#fff"><use xlink:href="#k"/></mask><path fill="#262626" fill-rule="nonzero" d="M12.253 5.735c-1.898 0-3.769.815-5.197 2.417v-7.9H4.23v13.301a7.818 7.818 0 0 0 15.636 0c0-4.318-3.295-7.818-7.613-7.818m-.205 12.625a4.807 4.807 0 1 1 0-9.614 4.807 4.807 0 0 1 0 9.614" mask="url(#l)"/><mask id="n" fill="#fff"><use xlink:href="#m"/></mask><path fill="#00F" fill-rule="nonzero" d="M2.175 17.505a1.933 1.933 0 1 0 0 3.866 1.933 1.933 0 0 0 0-3.866" mask="url(#n)"/></g></svg>