<svg xmlns="http://www.w3.org/2000/svg" xmlns:xlink="http://www.w3.org/1999/xlink" width="77" height="50" viewBox="0 0 77 50"><defs><path id="a" d="M0 0h76.896v17.626H0z"/><path id="c" d="M0 0h76.896v17.626H0z"/><path id="e" d="M0 0h76.896v17.626H0z"/><path id="g" d="M0 0h76.896v17.626H0z"/><path id="i" d="M0 0h76.896v17.626H0z"/><path id="k" d="M0 0h76.896v17.626H0z"/><path id="m" d="M0 0h76.896v17.626H0z"/></defs><g fill="none" fill-rule="evenodd" transform="translate(0 15)"><mask id="b" fill="#fff"><use xlink:href="#a"/></mask><path fill="#262626" fill-rule="nonzero" d="M37.477 4.692c-1.553 0-3.084.667-4.252 1.978V.206h-2.313v10.883a6.397 6.397 0 0 0 12.794 0c0-3.533-2.696-6.397-6.23-6.397m-.167 10.33a3.933 3.933 0 1 1 0-7.866 3.933 3.933 0 0 1 0 7.866" mask="url(#b)"/><mask id="d" fill="#fff"><use xlink:href="#c"/></mask><path fill="#262626" fill-rule="nonzero" d="M51.804 4.692c-1.553 0-3.083.667-4.252 1.978V.206H45.24v10.883a6.397 6.397 0 0 0 12.793 0c0-3.533-2.696-6.397-6.229-6.397m-.168 10.33a3.933 3.933 0 1 1 0-7.866 3.933 3.933 0 0 1 0 7.866" mask="url(#d)"/><mask id="f" fill="#fff"><use xlink:href="#e"/></mask><path fill="#262626" fill-rule="nonzero" d="M17.9 12.21V5.04h2.48v7.147c0 1.826 1.06 2.999 2.842 2.999 1.804 0 2.841-1.128 2.841-2.999V5.039h2.503v7.17c0 3.315-2.007 5.277-5.344 5.277-3.247 0-5.321-2.03-5.321-5.276" mask="url(#f)"/><mask id="h" fill="#fff"><use xlink:href="#g"/></mask><path fill="#262626" fill-rule="nonzero" mask="url(#h)" d="M60.028.206h2.48v16.987h-2.48z"/><mask id="j" fill="#fff"><use xlink:href="#i"/></mask><path fill="#262626" fill-rule="nonzero" d="M76.549 12.074h-9.493c.36 1.894 1.691 3.18 4.036 3.18 1.376 0 3.044-.519 4.127-1.308l1.037 1.826c-1.24.925-3.202 1.691-5.254 1.691-4.555 0-6.516-3.179-6.516-6.38 0-1.827.563-3.338 1.713-4.533 1.15-1.195 2.661-1.804 4.487-1.804 1.736 0 3.18.541 4.284 1.646 1.105 1.105 1.669 2.593 1.669 4.487 0 .338-.023.744-.09 1.195m-9.493-2.03h7.08c-.203-1.916-1.623-3.156-3.45-3.156-1.871 0-3.27 1.263-3.63 3.157" mask="url(#j)"/><mask id="l" fill="#fff"><use xlink:href="#k"/></mask><path fill="#262626" fill-rule="nonzero" d="M10.025 4.692c-1.553 0-3.083.667-4.252 1.978V.206H3.461v10.883a6.397 6.397 0 0 0 12.793 0c0-3.533-2.696-6.397-6.229-6.397m-.167 10.33a3.933 3.933 0 1 1 0-7.866 3.933 3.933 0 0 1 0 7.866" mask="url(#l)"/><mask id="n" fill="#fff"><use xlink:href="#m"/></mask><path fill="#00F" fill-rule="nonzero" d="M1.78 14.322a1.582 1.582 0 1 0 0 3.164 1.582 1.582 0 0 0 0-3.164" mask="url(#n)"/></g></svg>