<svg xmlns="http://www.w3.org/2000/svg" width="145" height="50" viewBox="0 0 145 50"><path fill="#354254" fill-rule="evenodd" d="M95.418 25.447l-2.946 5.247a.646.646 0 0 1-.172.116h-5.896a.578.578 0 0 1-.18-.093l-2.95-5.247a.647.647 0 0 1-.011-.213l2.945-5.243a.581.581 0 0 1 .173-.116h5.898a.614.614 0 0 1 .178.093l2.95 5.243a.646.646 0 0 1 .011.213zm-1.62-6.349c-.26-.462-.895-.84-1.416-.84h-6.086c-.518 0-1.152.377-1.415.84l-3.043 5.416c-.26.462-.26 1.214 0 1.677l3.043 5.418c.26.464.896.84 1.415.84h6.086c.521 0 1.157-.376 1.417-.84l3.045-5.418c.258-.463.258-1.216-.002-1.677l-3.043-5.416zm-4.43 4.572c-.441 0-.864.177-1.176.494a1.701 1.701 0 0 0-.486 1.194c.03.91.765 1.633 1.662 1.633.898 0 1.633-.723 1.663-1.633 0-.933-.747-1.688-1.664-1.688zm38.576 7.105a2.635 2.635 0 0 1-1.546-1.008 1712.43 1712.43 0 0 0-2.328-3.132c2.239-.432 3.737-2.084 3.737-4.132v-.04c0-1.101-.38-2.098-1.07-2.809-.893-.915-2.281-1.42-3.915-1.42h-5.069c-.458 0-.846.407-.846.89v12.46c0 .482.388.89.846.89a.88.88 0 0 0 .867-.89V26.93h3.545c.505.675 2.501 3.355 2.882 3.87a4.32 4.32 0 0 0 2.539 1.653.851.851 0 0 0 1.006-.657.87.87 0 0 0-.116-.647.846.846 0 0 0-.532-.374zm-1.87-8.252v.04c0 1.68-1.33 2.767-3.387 2.767h-4.067v-5.455h4.085c2.11 0 3.368.989 3.368 2.649v-.001zM75.52 25.048c.932-.474 1.992-1.411 1.992-3.21v-.04c0-.891-.303-1.666-.9-2.3-.826-.826-2.076-1.263-3.615-1.263h-5.023c-.46 0-.847.408-.847.894v12.356c0 .482.387.889.847.889h5.275c3.096 0 5.02-1.494 5.02-3.9v-.042c0-1.617-.926-2.755-2.75-3.384zm-6.697-.595v-4.614h4.038c1.824 0 2.914.814 2.914 2.18v.037c0 1.5-1.133 2.397-3.03 2.397h-3.922zm4.465 6.316h-4.465v-4.732h4.194c2.265 0 3.515.816 3.515 2.297v.04c0 1.478-1.243 2.395-3.244 2.395zm33.667-11.935c-.197-.495-.554-.757-1.034-.757h-.079c-.493 0-.828.24-1.055.752L99.28 31.201c-.07.143-.106.301-.105.46 0 .45.354.814.791.814.376 0 .668-.212.822-.595l1.39-3.192h7.328l1.39 3.151c.173.403.48.636.842.636a.842.842 0 0 0 .83-.853 1.18 1.18 0 0 0-.106-.437l-5.507-12.351zm1.868 8.23h-5.96l2.98-6.808 2.98 6.808zm28.507-8.858h-3.958c-.458 0-.849.408-.849.891v12.356c0 .482.39.89.85.89h3.957c4.233 0 7.307-2.972 7.307-7.07v-.037c0-4.074-3.074-7.03-7.307-7.03zm0 12.496h-3.088V19.849h3.088c3.256 0 5.53 2.232 5.53 5.425v.04c0 3.17-2.274 5.387-5.53 5.387zm-109.53.075a2.631 2.631 0 0 1-1.546-1.01c-.27-.363-2.022-2.722-2.328-3.131 2.239-.432 3.736-2.084 3.736-4.132v-.04c0-1.101-.38-2.099-1.07-2.809-.892-.915-2.282-1.42-3.915-1.42H17.61c-.46 0-.848.407-.848.89v12.459c0 .483.388.89.848.89a.88.88 0 0 0 .866-.89v-4.653h3.546c.487.654 2.493 3.346 2.88 3.87a4.318 4.318 0 0 0 2.54 1.653.851.851 0 0 0 1.006-.657.86.86 0 0 0-.648-1.021zm-1.87-8.252v.037c0 1.682-1.33 2.77-3.39 2.77h-4.065v-5.457h4.085c2.109 0 3.368.989 3.368 2.649h.001zm-21.125-4.29H.849c-.46 0-.849.406-.849.89v12.356c0 .483.389.89.85.89h3.955c4.233 0 7.307-2.972 7.307-7.068v-.04c0-4.072-3.074-7.028-7.307-7.028h-.001zm0 12.495H1.717V19.877h3.088c3.258 0 5.532 2.232 5.532 5.426v.04c0 3.172-2.274 5.387-5.532 5.387h-.001zM39.23 18.833c-.198-.495-.557-.757-1.036-.757h-.078c-.492 0-.827.24-1.053.752L31.554 31.2a.984.984 0 0 0-.107.46c0 .448.355.813.79.813.376 0 .669-.212.821-.595l1.393-3.192h7.325l1.392 3.151c.172.403.479.636.842.636a.842.842 0 0 0 .829-.853c0-.122-.034-.27-.104-.437l-5.507-12.35h.002zm1.865 8.23h-5.959l2.98-6.808 2.98 6.808zm21.36-8.913c-.384 0-.684.248-.826.68l-3.65 10.786-2.059-6.096 1.437-4.1a.685.685 0 0 1 .02-.061l.006-.017c.034-.1.072-.214.072-.322 0-.455-.414-.87-.868-.87-.383 0-.684.248-.825.68l-3.65 10.786-3.628-10.745c-.142-.438-.488-.722-.884-.722a.913.913 0 0 0-.888.893c0 .135.042.265.083.39l4.157 11.86.175.535c.16.47.482.74.883.74h.129c.4 0 .723-.27.883-.741l.176-.535 1.81-5.165 1.81 5.166.175.535c.16.47.483.74.883.74h.129c.4 0 .722-.27.884-.741l.175-.535 4.158-11.871.021-.061.006-.017c.034-.1.073-.214.073-.322 0-.455-.415-.87-.869-.87h.001z"/></svg>