<svg xmlns="http://www.w3.org/2000/svg" width="126" height="60" viewBox="0 0 126 60"><path fill="#354254" fill-rule="evenodd" d="M81.65 30.863l-2.397 4.263a.526.526 0 0 1-.14.095h-4.798a.471.471 0 0 1-.147-.076l-2.4-4.263a.525.525 0 0 1-.01-.173l2.398-4.26a.473.473 0 0 1 .14-.094l4.8-.001a.5.5 0 0 1 .145.076l2.4 4.26a.524.524 0 0 1 .01.173zm-1.317-5.158c-.212-.376-.729-.682-1.153-.682h-4.953c-.422 0-.938.305-1.151.682l-2.476 4.4c-.212.375-.212.986 0 1.363l2.476 4.402c.212.376.729.682 1.15.682h4.954c.424 0 .941-.306 1.153-.682l2.478-4.402c.21-.377.21-.988-.002-1.363l-2.476-4.4zm-3.606 3.714c-.36 0-.703.145-.957.402a1.381 1.381 0 0 0-.396.97c.024.74.623 1.327 1.353 1.327s1.33-.587 1.353-1.328c0-.757-.607-1.371-1.353-1.371zm31.393 5.773a2.145 2.145 0 0 1-1.258-.819 1212.68 1212.68 0 0 0-1.895-2.545c1.822-.35 3.042-1.693 3.042-3.357v-.033c0-.894-.31-1.704-.872-2.281-.726-.744-1.856-1.154-3.186-1.154h-4.124c-.373 0-.689.33-.689.723V35.85c0 .392.316.724.689.724a.715.715 0 0 0 .705-.724v-3.78h2.885c.411.548 2.036 2.725 2.345 3.143a3.515 3.515 0 0 0 2.066 1.344.693.693 0 0 0 .82-.534.706.706 0 0 0-.095-.526.688.688 0 0 0-.433-.304zm-1.522-6.705v.032c0 1.366-1.082 2.25-2.756 2.25h-3.31v-4.433h3.325c1.716 0 2.74.803 2.74 2.152zm-41.14 2.052c.759-.385 1.622-1.147 1.622-2.609v-.032c0-.724-.247-1.353-.733-1.868-.672-.671-1.689-1.026-2.941-1.026h-4.088c-.375 0-.69.331-.69.726v10.039c0 .391.315.722.69.722h4.293c2.519 0 4.084-1.214 4.084-3.168v-.034c0-1.315-.753-2.239-2.237-2.75zm-5.45-.484v-3.748h3.286c1.485 0 2.372.661 2.372 1.77v.03c0 1.22-.922 1.948-2.466 1.948h-3.191zm3.634 5.132H60.01v-3.844h3.412c1.844 0 2.86.663 2.86 1.866v.033c0 1.2-1.01 1.945-2.639 1.945zM91.04 25.49c-.16-.402-.45-.615-.841-.615h-.064c-.402 0-.674.194-.86.611l-4.48 10.053a.83.83 0 0 0-.086.374c0 .364.288.66.643.66.306 0 .544-.172.67-.483l1.13-2.593h5.964l1.13 2.56c.142.327.391.516.687.516a.685.685 0 0 0 .675-.693c0-.1-.03-.22-.086-.355L91.04 25.49zm1.52 6.687h-4.85l2.425-5.531 2.425 5.531zm23.2-7.197h-3.222c-.373 0-.69.332-.69.724v10.039c0 .391.317.724.69.724h3.221c3.445 0 5.946-2.416 5.946-5.745v-.03c0-3.31-2.5-5.713-5.946-5.713v.001zm0 10.153h-2.514v-8.818h2.513c2.65 0 4.5 1.813 4.5 4.408v.032c0 2.576-1.85 4.377-4.5 4.377zm-89.138.06a2.142 2.142 0 0 1-1.257-.82L23.47 31.83c1.822-.35 3.04-1.693 3.04-3.357v-.033c0-.894-.31-1.705-.871-2.282-.725-.743-1.857-1.153-3.186-1.153H18.33c-.374 0-.69.33-.69.723V35.85c0 .392.316.723.69.723a.715.715 0 0 0 .705-.723v-3.781h2.886c.395.531 2.028 2.718 2.344 3.144a3.515 3.515 0 0 0 2.066 1.344.693.693 0 0 0 .819-.535.7.7 0 0 0-.528-.83v.002zM25.1 28.49v.03c0 1.367-1.082 2.25-2.757 2.25h-3.309v-4.433h3.325c1.716 0 2.74.803 2.74 2.152h.001zM7.91 25.003H4.69c-.375 0-.691.33-.691.724v10.039c0 .392.316.724.691.724h3.22c3.445 0 5.947-2.416 5.947-5.744v-.032c0-3.309-2.502-5.711-5.947-5.711zm0 10.152H5.396v-8.817H7.91c2.65 0 4.502 1.813 4.502 4.408v.032c0 2.578-1.852 4.377-4.502 4.377h-.002zm28.015-9.666c-.161-.402-.453-.615-.843-.615h-.064c-.4 0-.673.195-.856.611l-4.483 10.052a.798.798 0 0 0-.087.374c0 .364.288.66.642.66.306 0 .545-.171.669-.482l1.133-2.594h5.961l1.133 2.56c.14.328.39.517.685.517a.685.685 0 0 0 .674-.694.96.96 0 0 0-.084-.355L35.924 25.49h.001zm1.518 6.687h-4.85l2.425-5.531 2.425 5.531zm17.382-7.242c-.312 0-.556.202-.672.554l-2.97 8.762-1.675-4.952 1.169-3.332a.556.556 0 0 1 .016-.05l.005-.013a.845.845 0 0 0 .058-.261.734.734 0 0 0-.706-.708c-.312 0-.557.202-.672.554l-2.97 8.762-2.952-8.73c-.116-.355-.397-.586-.72-.586a.742.742 0 0 0-.722.725c0 .11.034.216.068.316l3.382 9.638.143.434c.13.382.392.602.718.602h.105c.326 0 .588-.22.72-.603l.142-.435 1.473-4.197 1.473 4.199.143.434c.13.382.393.602.718.602h.105c.325 0 .588-.22.72-.603l.142-.435 3.384-9.645.017-.05.005-.013c.027-.082.059-.174.059-.261a.735.735 0 0 0-.707-.708z"/></svg>