<svg xmlns="http://www.w3.org/2000/svg" width="105" height="50" viewBox="0 0 105 50"><g fill="none"><path fill="#18365E" d="M9.016 11.192a.312.312 0 0 0-.576 0C5.312 16.504 0 25.04 0 29.792a8.696 8.696 0 0 0 17.384 0c0-5.016-5.816-14.128-8.368-18.6zm17.712 6.952h3.552v15.8h-3.552zm29.304 12.744v3.056H45.48v-15.8h3.552v12.744zm48.064-4.856a9.312 9.312 0 0 1-.64 3.584 6.64 6.64 0 0 1-1.816 2.528 7.848 7.848 0 0 1-2.856 1.504c-1.23.35-2.505.52-3.784.504-.64 0-1.384 0-2.24-.08a18.656 18.656 0 0 1-2.504-.336V18.352c.849-.156 1.707-.26 2.568-.312.888-.048 1.648-.08 2.288-.08a13.84 13.84 0 0 1 3.68.456 7.504 7.504 0 0 1 2.84 1.44 6.4 6.4 0 0 1 1.824 2.504 9.6 9.6 0 0 1 .64 3.672zm-10.288 5.016h1.384a5.256 5.256 0 0 0 3.96-1.344 6.184 6.184 0 0 0 .056-7.48c-.8-.848-2.12-1.28-3.896-1.28h-.752a6.888 6.888 0 0 0-.736.056l-.016 10.048zm-15.256-.16v3.056H68v-15.8h3.552v12.744z"/><path fill="#FFF" d="M2.968 33.944v-15.8h10.576v2.984H6.52v3.312h6.224v2.96H6.496v6.52z"/></g></svg>