<svg xmlns="http://www.w3.org/2000/svg" xmlns:xlink="http://www.w3.org/1999/xlink" width="107" height="50" viewBox="0 0 107 50"><defs><path id="a" d="M0 23.445h106.425V.1H0z"/><path id="c" d="M0 23.445h106.425V.1H0z"/><path id="e" d="M0 23.445h106.425V.1H0z"/><path id="g" d="M0 23.445h106.425V.1H0z"/><path id="i" d="M0 23.445h106.425V.1H0z"/><path id="k" d="M0 23.445h106.425V.1H0z"/><path id="m" d="M0 23.445h106.425V.1H0z"/><path id="o" d="M0 .266h20.17V12H0z"/></defs><g fill="none" fill-rule="evenodd"><path fill="#163052" fill-rule="nonzero" d="M29.057 32.779h-2.968V16.741h10.126v2.47h-7.158V23.6h5.637v2.419h-5.637zm11.149 0h-2.669V21.355l2.669-.449z"/><g transform="translate(0 13.15)"><path fill="#163052" fill-rule="nonzero" d="M52.651 19.629h-2.668v-7.408c0-.773-.175-1.371-.549-1.77a1.68 1.68 0 0 0-1.297-.599c-.698 0-1.297.3-1.82.923-.524.598-.799 1.521-.799 2.768v6.086H42.85V7.757h2.445V10.5c.848-1.995 2.045-2.993 3.591-2.993 1.048 0 1.92.325 2.669.998.748.649 1.097 1.82 1.097 3.467v7.657zm9.802-6.036c-3.466 0-5.187.823-5.187 2.47 0 .498.174.922.523 1.271.35.35.873.524 1.572.524 1.022 0 1.795-.324 2.32-.973a3.374 3.374 0 0 0 .772-2.195v-1.097zm2.968 6.036h-2.544a8.891 8.891 0 0 1-.398-2.394c-.724 1.77-2.046 2.643-4.016 2.643-1.173 0-2.12-.349-2.843-1.047-.724-.699-1.073-1.571-1.073-2.619 0-2.719 2.394-4.09 7.183-4.09h.773v-.898c0-1.222-.848-1.846-2.519-1.846-1.62 0-2.544.624-2.768 1.846l-2.27-.35c.125-.997.624-1.795 1.521-2.444.899-.648 2.195-.948 3.866-.948.923 0 1.671.075 2.245.225.574.15 1.073.399 1.472.773s.673.748.823 1.197c.15.424.224 1.148.224 2.17v5.363c-.025.798.1 1.596.324 2.419z"/><mask id="b" fill="#fff"><use xlink:href="#a"/></mask><path fill="#163052" fill-rule="nonzero" mask="url(#b)" d="M67.267 19.629h2.669V3.592h-2.669z"/><mask id="d" fill="#fff"><use xlink:href="#c"/></mask><path fill="#163052" fill-rule="nonzero" d="M71.707 16.885l2.519-.473c.374.972 1.222 1.446 2.544 1.446 1.671 0 2.494-.499 2.494-1.471a.894.894 0 0 0-.4-.774 1.929 1.929 0 0 0-.922-.399l-2.17-.399c-2.394-.449-3.592-1.621-3.592-3.516 0-1.048.375-1.946 1.148-2.67.748-.722 1.896-1.097 3.392-1.097 2.494 0 4.04.923 4.59 2.769l-2.395.474c-.25-.898-.973-1.347-2.145-1.347-1.422 0-2.145.449-2.145 1.347 0 .623.574 1.047 1.72 1.272l2.545.523c1.97.4 2.968 1.547 2.968 3.393 0 1.297-.5 2.294-1.521 2.918-1.023.648-2.22.972-3.617.972-1.222 0-2.295-.25-3.218-.723-.897-.474-1.496-1.222-1.795-2.245" mask="url(#d)"/><mask id="f" fill="#fff"><use xlink:href="#e"/></mask><path fill="#163052" fill-rule="nonzero" d="M94.902 17.534v2.095c-.798.175-1.421.25-1.845.25-.724 0-1.347-.15-1.846-.425a2.435 2.435 0 0 1-1.123-1.172c-.249-.499-.349-1.272-.349-2.295V9.852h-1.471v-2.07h1.62V4.489h2.445v3.293h2.395v2.07h-2.395v5.786c0 .749.125 1.247.4 1.522.274.274.772.399 1.52.399.175 0 .4 0 .65-.025" mask="url(#f)"/><mask id="h" fill="#fff"><use xlink:href="#g"/></mask><path fill="#163052" fill-rule="nonzero" d="M103.582 12.296c0-.848-.275-1.546-.774-2.095a2.423 2.423 0 0 0-1.87-.823c-.748 0-1.347.25-1.846.748-.498.5-.773 1.222-.873 2.145h5.363v.025zm.174 3.542l2.42.324a5.143 5.143 0 0 1-1.82 2.644c-.899.698-2.046 1.047-3.418 1.047-1.646 0-2.968-.548-3.966-1.646-.997-1.097-1.496-2.594-1.496-4.49 0-1.795.499-3.267 1.521-4.439.998-1.172 2.37-1.77 4.116-1.77 1.695 0 2.993.573 3.916 1.745.922 1.148 1.396 2.644 1.396 4.465v.3h-8.13c0 .797.074 1.446.224 1.945.15.473.449.897.898 1.272.449.349 1.022.548 1.696.548 1.272-.025 2.17-.648 2.643-1.945z" mask="url(#h)"/><mask id="j" fill="#fff"><use xlink:href="#i"/></mask><path fill="#163052" fill-rule="nonzero" mask="url(#j)" d="M86.322 19.629h-2.668V8.206l2.668-.449z"/><mask id="l" fill="#fff"><use xlink:href="#k"/></mask><path fill="#163052" fill-rule="nonzero" d="M40.48 5.188a1.51 1.51 0 0 1-1.521 1.521 1.512 1.512 0 0 1-1.522-1.521c0-.848.674-1.522 1.522-1.522.823-.025 1.521.674 1.521 1.522" mask="url(#l)"/><mask id="n" fill="#fff"><use xlink:href="#m"/></mask><path fill="#163052" fill-rule="nonzero" d="M86.298 5.163c0 .848-.674 1.521-1.522 1.521a1.512 1.512 0 0 1-1.521-1.521c0-.848.673-1.522 1.52-1.522.824 0 1.523.674 1.523 1.522" mask="url(#n)"/></g><g transform="translate(0 25)"><mask id="p" fill="#fff"><use xlink:href="#o"/></mask><path fill="#173051" fill-rule="nonzero" d="M16.8.266l-6.184 5.098a.724.724 0 0 1-1.063.003L3.378.307.22 3.002a.82.82 0 0 0-.002 1.12l9.334 7.648a.725.725 0 0 0 1.063-.003l9.332-7.694a.822.822 0 0 0 .002-1.12L16.8.267z" mask="url(#p)"/></g><path fill="#129AC6" fill-rule="nonzero" d="M20.03 20.831l-9.348-7.61a.752.752 0 0 0-1.068.003L.222 20.877A.761.761 0 0 0 .22 21.95l3.171 2.48 6.2 4.849a.75.75 0 0 0 1.067-.002l6.21-4.886 3.16-2.487a.762.762 0 0 0 .002-1.073"/></g></svg>