<svg xmlns="http://www.w3.org/2000/svg" width="75" height="50" viewBox="0 0 75 50"><path fill="#293747" fill-rule="evenodd" d="M7.706 23.252c.75.407 1.339 1 1.764 1.781.425.78.638 1.713.638 2.8v5.292c0 .217-.073.4-.22.55a.724.724 0 0 1-.538.223.755.755 0 0 1-.778-.774v-5.292c0-1.208-.328-2.127-.986-2.758-.658-.631-1.518-.947-2.582-.947-.651 0-1.24.13-1.764.387a3.13 3.13 0 0 0-1.246 1.069c-.306.454-.459.96-.459 1.516v6.026c0 .23-.07.417-.21.56a.733.733 0 0 1-.547.213.767.767 0 0 1-.559-.214.747.747 0 0 1-.219-.56V18.795c0-.23.073-.42.22-.57A.748.748 0 0 1 .777 18c.225 0 .408.075.548.224.14.15.21.34.21.57v5.455c.438-.502.97-.895 1.594-1.18a4.84 4.84 0 0 1 2.034-.428c.943 0 1.79.204 2.542.61l.001.001zm13.577.153a5.353 5.353 0 0 1 1.993 2.045c.486.869.728 1.832.728 2.891v4.784a.755.755 0 0 1-.777.773.767.767 0 0 1-.559-.214.747.747 0 0 1-.219-.56v-1.22a4.96 4.96 0 0 1-1.774 1.536 5.065 5.065 0 0 1-2.373.56c-1.01 0-1.924-.248-2.741-.743a5.32 5.32 0 0 1-1.934-2.036c-.472-.861-.708-1.822-.708-2.88 0-1.059.243-2.022.728-2.89a5.353 5.353 0 0 1 1.994-2.046c.844-.496 1.784-.743 2.82-.743 1.037 0 1.978.247 2.822.743zm-.768 8.62a3.926 3.926 0 0 0 1.446-1.516c.352-.645.528-1.367.528-2.168 0-.8-.176-1.523-.528-2.168a4.001 4.001 0 0 0-1.446-1.527 3.863 3.863 0 0 0-2.053-.56c-.758 0-1.446.187-2.064.56a3.977 3.977 0 0 0-1.455 1.527c-.352.645-.529 1.367-.529 2.168 0 .8.177 1.523.529 2.168.352.645.837 1.15 1.455 1.516a3.97 3.97 0 0 0 2.064.55c.757 0 1.442-.183 2.053-.55zm11.803.53c.133.149.2.339.2.57 0 .217-.08.4-.24.55a.841.841 0 0 1-.598.223h-.419a3.52 3.52 0 0 1-1.894-.519 3.604 3.604 0 0 1-1.306-1.404c-.312-.59-.468-1.26-.468-2.006v-5.435h-1.296a.657.657 0 0 1-.698-.671c0-.204.063-.37.19-.5a.68.68 0 0 1 .508-.193h1.296v-3.155c0-.23.07-.42.21-.57a.716.716 0 0 1 .547-.224.75.75 0 0 1 .559.224c.146.15.219.34.219.57v3.155h2.253a.68.68 0 0 1 .508.194.68.68 0 0 1 .19.499.654.654 0 0 1-.698.671h-2.253v5.435c0 .693.2 1.26.598 1.7.399.441.91.662 1.535.662h.539a.66.66 0 0 1 .518.224zm4.765.702a5.296 5.296 0 0 1-1.944-2.036c-.472-.861-.708-1.822-.708-2.88 0-1.086.226-2.06.678-2.921a5.1 5.1 0 0 1 1.874-2.026c.798-.488 1.695-.732 2.692-.732 1.661 0 3.01.651 4.047 1.954a.63.63 0 0 1 .16.427c0 .217-.114.407-.34.57a.662.662 0 0 1-.378.122c-.2 0-.392-.101-.578-.305a4.085 4.085 0 0 0-1.316-1.008 3.717 3.717 0 0 0-1.595-.335c-.731 0-1.383.18-1.954.539a3.563 3.563 0 0 0-1.326 1.516c-.312.652-.468 1.385-.468 2.199 0 .8.166 1.523.498 2.168.332.645.797 1.15 1.396 1.516.598.367 1.282.55 2.053.55 1.063 0 1.92-.292 2.572-.875.173-.15.352-.224.538-.224.16 0 .306.054.439.163.186.163.279.346.279.55a.585.585 0 0 1-.2.447c-.956.91-2.166 1.364-3.628 1.364-1.037 0-1.967-.248-2.791-.743zm17.515-10.005c.75.407 1.339 1 1.764 1.781.425.78.638 1.713.638 2.8v5.292c0 .217-.073.4-.22.55a.724.724 0 0 1-.538.223.755.755 0 0 1-.778-.774v-5.292c0-1.208-.328-2.127-.986-2.758-.658-.631-1.519-.947-2.582-.947-.651 0-1.24.13-1.764.387a3.13 3.13 0 0 0-1.246 1.069c-.306.454-.459.96-.459 1.516v6.026c0 .23-.07.417-.21.56a.733.733 0 0 1-.548.213.767.767 0 0 1-.558-.214.747.747 0 0 1-.22-.56V18.795c0-.23.074-.42.22-.57A.748.748 0 0 1 47.67 18c.226 0 .41.075.549.224.14.15.21.34.21.57v5.455c.438-.502.97-.895 1.594-1.18a4.84 4.84 0 0 1 2.034-.428c.943 0 1.79.204 2.542.61l-.001.001zM58 18.904V12h.594v3.164c.31-.565.957-.834 1.56-.834 1.179 0 2.118.902 2.118 2.32 0 1.42-.94 2.35-2.118 2.35-.603 0-1.25-.297-1.56-.863v.767H58zm3.678-2.253c0-1.026-.664-1.678-1.524-1.678-.745 0-1.56.575-1.56 1.678 0 1.102.718 1.707 1.56 1.707.86 0 1.524-.71 1.524-1.707zM65.233 19c-1.18 0-2.092-.93-2.092-2.35 0-1.418.913-2.32 2.092-2.32 1.178 0 2.03.902 2.03 2.32 0 .097 0 .212-.01.298h-3.51c.107.873.718 1.42 1.49 1.42a1.43 1.43 0 0 0 1.294-.778c.177.048.407.096.593.144-.336.796-1.054 1.266-1.887 1.266zm-1.49-2.647h2.917c-.116-.853-.665-1.39-1.427-1.39-.772 0-1.374.537-1.49 1.39zm5.487 2.551v-3.903h.877v-.575h-.877v-1.678h-.594v1.678h-.744v.575h.744v3.903h.594zM75 14.426v4.478h-.594v-.767c-.31.566-.957.863-1.56.863-1.179 0-2.118-.93-2.118-2.35 0-1.418.94-2.32 2.118-2.32.603 0 1.25.269 1.56.834v-.738H75zm-3.678 2.225c0 .997.664 1.707 1.524 1.707.842 0 1.56-.605 1.56-1.707 0-1.103-.815-1.678-1.56-1.678-.86 0-1.524.652-1.524 1.678z"/></svg>