<svg xmlns="http://www.w3.org/2000/svg" width="110" height="50" viewBox="0 0 110 50">
  <path d="M83.4597315,7.52289393 C83.4597315,9.00860821 84.2348993,9.52860821 85.5268456,9.52860821 C87.9261745,9.52860821 88.2214765,6.81717964 87.2248322,6.03717964 C86.2281879,5.33146536 84.3825503,5.48003678 83.6812081,6.66860821 C83.6073826,6.81717964 83.4597315,7.18860821 83.4597315,7.52289393 Z M54.5939597,14.6914654 C54.5939597,18.4057511 55.295302,27.7657511 61.6073826,25.2771796 C63.5268456,24.4971796 64.5234899,22.2686082 65.0033557,20.3371796 C65.3724832,18.7771796 65.4463087,16.1771796 65.4463087,14.4686082 C66.3691275,14.4686082 68.4362416,13.6143225 69.3590604,13.1686082 C73.0503356,10.9400368 74.0469799,5.96289393 70.7248322,2.9543225 C70.0234899,2.32289393 69.1006711,1.80289393 68.1778523,1.46860821 C65.557047,0.614322499 62.5671141,0.911465356 60.3154362,2.24860821 C56.2919463,4.73717964 54.5939597,10.1228939 54.5939597,14.6914654 Z M62.3087248,11.8314654 C61.9026846,11.6828939 61.238255,11.4600368 60.7583893,11.1257511 C59.909396,10.5686082 59.8355705,11.0514654 59.8355705,11.9800368 C59.8355705,13.4657511 61.1275168,14.0600368 62.3825503,14.3943225 C62.3825503,16.1771796 62.6778523,22.7514654 59.8355705,22.7514654 C58.9127517,22.7514654 58.2852349,21.2657511 58.1375839,20.5971796 C57.4362416,18.0343225 57.6946309,13.8000368 58.1375839,11.2371796 C58.5067114,9.38003678 58.9865772,7.74575107 60.057047,6.22289393 C60.9060403,5.22003678 61.2751678,4.58860821 62.5302013,4.06860821 C64.5234899,3.14003678 67.9932886,3.77146536 69.2852349,5.70289393 C70.2818792,7.26289393 69.7281879,9.56575107 68.4362416,10.6428939 C66.8120805,11.8686082 65.7416107,11.7200368 65.4463087,11.8686082 C65.4463087,10.9400368 65.852349,9.78860821 66.0738255,8.86003678 C66.147651,8.30289393 66.442953,7.22575107 65.9261745,6.92860821 C64.6342282,6.14860821 63.3053691,7.3743225 62.8624161,8.56289393 C62.4563758,9.26860821 62.3087248,10.5314654 62.3087248,11.8314654 Z M0,5.96289393 C0,6.03717964 0.0738255034,6.26003678 0.147651007,6.3343225 C0.516778523,6.89146536 1.69798658,6.03717964 1.91946309,5.77717964 C2.98993289,4.99717964 4.90939597,3.69717964 6.31208054,3.69717964 C7.30872483,3.69717964 7.93624161,4.47717964 7.93624161,5.40575107 C7.93624161,7.1143225 7.6409396,7.6343225 7.16107383,9.1943225 L6.09060403,12.2028939 C5.09395973,12.2028939 0.848993289,12.1286082 0.848993289,13.2057511 C0.848993289,13.5028939 0.996644295,13.7628939 1.25503356,13.9857511 C1.55033557,14.4314654 1.88255034,14.9143225 2.39932886,15.0628939 C3.32214765,15.3600368 4.09731544,15.0628939 5.09395973,15.0628939 L3.80201342,18.6286082 C3.32214765,19.8543225 1.95637584,22.8257511 3.10067114,23.9771796 C3.46979866,24.3486082 4.09731544,24.2000368 4.46644295,23.9771796 C5.02013423,23.6800368 5.46308725,23.1228939 5.75838926,22.6028939 C6.38590604,21.6000368 7.38255034,18.5914654 7.75167785,17.3286082 L8.67449664,14.6171796 C10.5201342,14.4686082 12.8456376,13.9857511 14.5805369,13.9857511 C14.3590604,14.5428939 13.5100671,18.1828939 13.5100671,19.0000368 C13.5100671,20.2257511 13.5838926,21.4886082 14.3590604,22.3428939 C14.9865772,23.1228939 15.5771812,23.5686082 16.8322148,23.5686082 C19.1208054,23.5686082 20.8926174,22.1943225 22.5167785,20.8571796 C22.6644295,20.7828939 22.6644295,20.7086082 22.8120805,20.5600368 C22.5167785,20.0028939 22.1845638,19.3343225 22.1107383,18.6286082 C22.0369128,18.7028939 21.261745,19.4828939 20.5604027,19.8543225 C19.6375839,20.4857511 19.2684564,20.7086082 18.1610738,20.7086082 C15.6879195,20.7086082 17.3120805,14.3571796 17.8657718,13.6514654 C17.9395973,13.5771796 18.0872483,13.5028939 18.2718121,13.5028939 L20.3389262,13.2800368 C21.0402685,13.2057511 22.1107383,13.1314654 22.1107383,12.3514654 C22.1107383,12.1286082 22.0369128,11.7943225 21.8892617,11.6457511 C21.6677852,11.3486082 21.261745,11.3486082 20.966443,11.3486082 C20.1174497,11.3486082 19.3422819,11.4228939 18.4932886,11.4228939 L19.3422819,8.78575107 C19.7114094,7.56003678 20.1912752,6.14860821 20.7080537,4.99717964 C21.0033557,4.21717964 21.409396,2.99146536 20.7818792,2.28575107 C20.3758389,1.84003678 19.3791946,1.6543225 18.6409396,2.4343225 L18.4194631,2.65717964 C17.7919463,3.36289393 17.1275168,5.36860821 16.795302,6.29717964 C16.647651,6.92860821 15.0973154,11.2371796 15.0973154,11.5714654 L9.33892617,11.7943225 C9.41275168,11.4971796 9.48657718,11.2371796 9.56040268,11.0143225 C10.1879195,8.78575107 10.7785235,6.81717964 10.7785235,4.44003678 C10.7785235,2.88003678 9.78187919,1.58003678 8.30536913,1.02289393 C5.75838926,0.0943224989 2.47315436,1.6543225 0.848993289,3.7343225 C0.701342282,4.32860821 0,5.33146536 0,5.96289393 Z M99.295302,9.67717964 C98.6677852,9.67717964 98.0033557,9.60289393 97.4496644,9.75146536 C97.0067114,9.82575107 96.7483221,10.0486082 96.7483221,10.3086082 C96.6006711,11.4600368 99.295302,11.6086082 99.9966443,11.6086082 C99.7013423,12.9086082 99.7013423,16.4000368 99.9966443,17.8114654 C98.9261745,18.3686082 95.9362416,21.6000368 95.9362416,18.5171796 C95.9362416,16.4371796 96.7114094,13.8743225 96.7114094,12.6486082 C96.7114094,11.2371796 95.7885906,10.4943225 94.4228188,11.1628939 C93.647651,11.5343225 93.204698,12.3886082 92.7986577,13.1686082 C92.3557047,14.0971796 91.8758389,15.0257511 91.5067114,16.0286082 C91.4328859,16.1771796 91.4328859,16.3257511 91.2114094,16.3257511 C91.2114094,14.8400368 92.614094,10.9771796 90.5100671,10.9771796 C89.3657718,10.9771796 88.9597315,11.9800368 88.8120805,12.9828939 C88.590604,14.2086082 88.442953,15.7686082 88.2583893,17.0686082 C88.2583893,17.3657511 88.2583893,17.6257511 88.1845638,17.9228939 C88.1107383,18.3686082 88.1845638,18.2943225 87.8892617,18.6286082 C87.1879195,19.2600368 84.3456376,21.7114654 84.3456376,19.6314654 C84.3456376,17.5514654 85.3422819,14.8400368 85.8959732,12.7600368 C86.0436242,12.1286082 86.3389262,11.0514654 85.3422819,11.0514654 C84.2718121,11.0514654 83.4228188,11.2743225 83.0536913,12.2771796 C82.5738255,13.3543225 82.352349,14.7657511 82.057047,15.8428939 C81.9832215,16.1400368 81.2818792,16.4000368 80.9127517,16.5486082 C79.8422819,16.9200368 79.0671141,16.6971796 79.0671141,15.3971796 C79.0671141,14.0228939 80.3590604,11.0514654 78.4395973,11.0514654 C77.5167785,11.0514654 77.0369128,11.3486082 76.5201342,11.9800368 C76.1510067,12.4257511 75.8187919,12.9828939 75.5234899,13.6143225 C75.4496644,13.8371796 75.1543624,14.6914654 74.8959732,14.7657511 C74.8959732,13.7628939 74.9697987,12.7600368 74.9697987,11.6828939 C74.9697987,11.1257511 74.7483221,10.9771796 74.1946309,10.9771796 C73.4932886,10.9771796 73.1241611,11.2000368 72.9765101,11.6828939 C72.533557,12.7600368 72.0536913,15.3971796 71.8322148,16.6228939 C71.7583893,17.1800368 71.6107383,18.8514654 71.6107383,20.2628939 C71.6107383,21.6371796 71.7583893,22.7514654 72.9026846,22.7514654 C73.6040268,22.7514654 73.9731544,21.8971796 74.1946309,21.3400368 C74.7483221,20.0400368 75.1912752,18.6286082 75.6711409,17.2543225 L76.4463087,15.1743225 L76.5939597,15.1743225 C76.5939597,15.6200368 76.8154362,16.7343225 77,17.1800368 C77.147651,17.8114654 77.3691275,18.2571796 77.8489933,18.6657511 C78.3288591,19.0743225 78.8456376,19.2971796 79.4731544,19.3714654 C79.9161074,19.4457511 80.5436242,19.2971796 80.9496644,19.1486082 C81.0973154,19.0743225 81.2449664,19.0000368 81.3926174,19.0000368 C81.3187919,19.8543225 81.1711409,20.9314654 81.5402685,21.7857511 C82.3154362,23.5686082 85.0100671,22.6400368 86.3758389,22.0086082 C86.9295302,21.7114654 87.5201342,21.3028939 88.0738255,21.0057511 C88.0738255,22.7143225 89.4395973,23.4200368 90.4731544,22.4914654 C90.7684564,22.1943225 91.3221477,21.1914654 91.5436242,20.6343225 C91.7651007,20.1886082 93.8322148,15.7686082 94.090604,15.7686082 C94.090604,16.1400368 93.942953,16.9200368 93.8691275,17.4028939 C93.795302,18.8143225 93.5738255,20.7457511 94.238255,21.9714654 C94.385906,22.2686082 94.7181208,22.6771796 95.0872483,22.8257511 C96.7114094,23.4571796 99.9966443,20.7457511 100.845638,20.6714654 C100.845638,21.0428939 101.54698,21.8971796 101.768456,22.1571796 C103.244966,23.4571796 104.90604,22.7886082 106.38255,21.8600368 C107.305369,21.3028939 108.781879,20.6343225 108.228188,19.2971796 C107.932886,18.4428939 105.828859,19.7428939 105.090604,20.0771796 C102.875839,20.9314654 102.802013,19.2971796 102.543624,17.7743225 C102.469799,17.3286082 102.543624,14.2828939 102.838926,13.9857511 C103.244966,13.5400368 103.687919,12.9086082 104.057047,12.3514654 C105.275168,12.3514654 106.604027,12.4257511 107.895973,12.4257511 C108.52349,12.4257511 109.040268,12.3514654 109.298658,11.9800368 C109.446309,11.6086082 109.446309,10.6800368 109.077181,10.4943225 C108.52349,10.2714654 106.234899,10.4943225 105.459732,10.3457511 L106.161074,9.1943225 C106.936242,7.8943225 107.45302,6.55717964 107.45302,4.84860821 C107.45302,3.9943225 107.231544,3.2143225 106.899329,2.76860821 C106.530201,2.21146536 105.97651,1.76575107 105.201342,1.76575107 C102.875839,1.76575107 101.436242,6.11146536 100.88255,8.04289393 C100.734899,8.48860821 100.661074,8.97146536 100.513423,9.41717964 C100.439597,9.7143225 100.513423,10.0486082 100.291946,10.0486082 C100.07047,9.67717964 99.442953,9.67717964 99.295302,9.67717964 Z M103.208054,9.82575107 C102.912752,9.75146536 102.838926,9.82575107 102.432886,9.82575107 C102.432886,8.89717964 103.724832,5.0343225 104.278523,4.40289393 C104.573826,4.03146536 105.681208,3.95717964 105.201342,5.62860821 C104.832215,6.96575107 103.909396,8.52575107 103.208054,9.82575107 Z M34.7718121,13.1686082 C34.7718121,12.3143225 34.9932886,11.0143225 35.2147651,10.1600368 C35.4362416,9.15717964 35.5838926,8.22860821 35.9161074,7.30003678 C36.1375839,6.37146536 37.2818792,2.9543225 38.4630872,2.9543225 C38.5369128,3.02860821 38.5369128,3.32575107 38.5369128,3.40003678 C38.5369128,5.0343225 37.0604027,8.89717964 36.3221477,10.4571796 C35.9161074,10.9771796 35.0671141,12.9086082 34.7718121,13.1686082 Z M41.1577181,13.0943225 C41.1577181,11.3114654 42.3758389,5.96289393 43.3724832,4.36575107 C43.5939597,3.9943225 44.0738255,2.99146536 44.590604,2.99146536 C45.033557,2.99146536 44.590604,4.92289393 44.590604,4.99717964 C44.5167785,5.44289393 44.3691275,5.85146536 44.1845638,6.29717964 C43.557047,8.37717964 42.7080537,10.1600368 41.7114094,12.0914654 C41.6006711,12.3143225 41.3053691,13.0200368 41.1577181,13.0943225 Z M41.0838926,2.6943225 C41.0838926,1.98860821 41.0100671,1.3943225 40.6778523,0.911465356 C39.8288591,-0.499963215 38.1308725,0.131465356 37.1342282,0.911465356 C36.5805369,1.28289393 36.4328859,1.54289393 36.0637584,1.98860821 C33.2214765,5.48003678 31.1543624,12.7228939 31.7449664,17.2914654 C31.7449664,17.5143225 31.8187919,17.7000368 31.8187919,17.9228939 L30.8959732,18.5543225 C30.4899329,18.7771796 30.2684564,18.9257511 29.8993289,19.1114654 C29.0503356,19.5571796 27.5,20.1886082 26.5033557,19.5571796 C26.2818792,19.4086082 26.0604027,19.1114654 25.9496644,18.7771796 C26.2449664,18.7028939 26.5771812,18.5543225 26.8724832,18.4057511 C28.6442953,17.6257511 29.9362416,16.5486082 30.7114094,14.6914654 C31.9295302,11.5343225 27.3892617,8.71146536 24.4731544,12.6114654 C23.6979866,13.6143225 23.1812081,15.1000368 22.9228188,16.3257511 C22.5536913,18.5543225 23.0704698,20.6714654 24.9161074,21.8971796 C26.8355705,23.1228939 29.6040268,22.1200368 31.3758389,21.0428939 L32.5201342,20.2628939 C32.6677852,20.8943225 33.5167785,22.2686082 34.2919463,22.3428939 C35.3624161,22.5657511 37.2818792,21.7114654 38.2785235,21.2657511 C38.4261745,21.1914654 38.9798658,20.8571796 39.1275168,20.8200368 C39.2013423,21.1171796 39.6812081,21.6743225 39.9026846,21.8971796 C40.8993289,22.8257511 42.1174497,22.3057511 43.2248322,21.8971796 L45.0704698,21.0428939 C47.5436242,24.5343225 54.2986577,21.1171796 52.2315436,13.9114654 C52.1577181,13.6886082 52.0100671,13.4657511 52.0100671,13.2057511 C52.2315436,13.2800368 53.0805369,13.9114654 53.3020134,14.0600368 C53.4496644,14.2086082 53.5234899,14.2828939 53.7449664,14.3571796 C53.7449664,13.5771796 53.6711409,12.9828939 53.8187919,12.2771796 C52.3422819,11.2743225 51.2718121,10.7914654 49.352349,10.7914654 C48.0604027,10.7914654 46.7315436,11.3486082 45.8087248,12.1657511 C44.738255,13.2428939 43.8892617,15.1000368 43.8892617,16.7343225 C43.8892617,17.4400368 44.0369128,18.0343225 44.0369128,18.6657511 C43.5939597,18.9628939 42.8926174,19.3714654 42.3389262,19.5943225 C41.8959732,19.7428939 41.6375839,19.7428939 41.4899329,19.3714654 C41.1946309,18.8143225 41.1946309,18.5171796 41.1946309,17.8857511 C41.1946309,16.8828939 42.6711409,14.2457511 43.261745,13.3171796 L44.2583893,11.6086082 C44.6275168,10.9028939 45.2550336,9.67717964 45.5503356,8.97146536 C46.3993289,7.18860821 47.3221477,4.7743225 47.3221477,2.6943225 C47.3221477,1.76575107 47.1006711,0.762893927 46.4731544,0.280036785 C44.9966443,-0.722820358 43.0771812,1.20860821 42.2281879,2.28575107 C41.6006711,3.06575107 41.0100671,4.29146536 40.9362416,4.36575107 C41.0100671,3.95717964 41.0838926,3.25146536 41.0838926,2.6943225 Z M38.057047,16.0286082 C38.057047,16.6600368 38.057047,18.1086082 38.2785235,18.5171796 C38.204698,18.5914654 38.1308725,18.5914654 37.9832215,18.6657511 C37.2818792,19.0371796 36.2852349,19.8171796 35.5100671,19.8171796 C35.3624161,19.8171796 35.1040268,19.3714654 35.1040268,19.1857511 C34.4026846,17.4771796 35.9530201,15.1000368 36.8020134,13.7628939 C37.5033557,12.5371796 38.352349,11.2000368 38.8691275,10.0486082 L38.942953,9.90003678 C39.0167785,9.82575107 38.942953,9.90003678 39.0167785,9.82575107 C38.5369128,11.6828939 38.057047,13.9114654 38.057047,16.0286082 Z M25.6174497,16.8828939 C25.6174497,15.8057511 25.7651007,15.2486082 26.2449664,14.3943225 C27.4630872,12.0914654 30.4161074,13.4657511 27.7214765,16.0286082 C27.3154362,16.3257511 26.3926174,16.8828939 25.6174497,16.8828939 Z M48.3557047,20.3371796 C46.2147651,20.3371796 46.5838926,17.2543225 46.8053691,15.9171796 C47.2483221,13.6143225 49.647651,11.9800368 50.3489933,14.7657511 C50.4228188,15.1743225 50.4228188,15.3228939 50.4228188,15.7686082 C50.6073826,17.1057511 49.9060403,20.3371796 48.3557047,20.3371796 Z" transform="translate(0 12)"/>
</svg>
