<svg xmlns="http://www.w3.org/2000/svg" width="110" height="50" viewBox="0 0 110 50"><path d="M83.46 19.523c0 1.486.775 2.006 2.067 2.006 2.4 0 2.694-2.712 1.698-3.492-.997-.706-2.842-.557-3.544.632-.074.148-.221.52-.221.854zM54.594 26.69c0 3.715.701 13.075 7.013 10.586 1.92-.78 2.916-3.008 3.396-4.94.37-1.56.443-4.16.443-5.868.923 0 2.99-.855 3.913-1.3 3.691-2.229 4.688-7.206 1.366-10.215-.702-.631-1.624-1.151-2.547-1.485-2.621-.855-5.61-.558-7.863.78-4.023 2.488-5.721 7.874-5.721 12.442zm7.715-2.86c-.406-.148-1.07-.371-1.55-.705-.85-.557-.923-.075-.923.854 0 1.486 1.292 2.08 2.547 2.414 0 1.783.295 8.357-2.547 8.357-.923 0-1.55-1.485-1.698-2.154-.702-2.563-.443-6.797 0-9.36.369-1.857.849-3.491 1.919-5.014.849-1.003 1.218-1.634 2.473-2.154 1.993-.929 5.463-.298 6.755 1.634.997 1.56.443 3.863-.849 4.94-1.624 1.226-2.694 1.077-2.99 1.226 0-.929.406-2.08.628-3.009.074-.557.369-1.634-.148-1.931-1.292-.78-2.62.445-3.064 1.634-.406.706-.553 1.968-.553 3.268zM0 17.963c0 .074.074.297.148.371.369.557 1.55-.297 1.771-.557 1.07-.78 2.99-2.08 4.393-2.08.997 0 1.624.78 1.624 1.709 0 1.708-.295 2.228-.775 3.788l-1.07 3.009c-.997 0-5.242-.074-5.242 1.003 0 .297.148.557.406.78.295.445.628.928 1.144 1.077.923.297 1.698 0 2.695 0l-1.292 3.566c-.48 1.225-1.846 4.197-.701 5.348.369.372.996.223 1.365 0 .554-.297.997-.854 1.292-1.374.628-1.003 1.625-4.012 1.994-5.274l.922-2.712c1.846-.148 4.172-.631 5.907-.631-.222.557-1.07 4.197-1.07 5.014 0 1.226.073 2.489.848 3.343.628.78 1.218 1.226 2.473 1.226 2.289 0 4.06-1.375 5.685-2.712.147-.074.147-.148.295-.297-.295-.557-.627-1.226-.701-1.931-.074.074-.85.854-1.55 1.225-.923.632-1.293.855-2.4.855-2.473 0-.849-6.352-.295-7.058a.588.588 0 01.406-.148l2.067-.223c.701-.074 1.772-.149 1.772-.929 0-.222-.074-.557-.222-.705-.221-.297-.627-.297-.923-.297-.849 0-1.624.074-2.473.074l.85-2.637c.368-1.226.848-2.637 1.365-3.789.295-.78.701-2.006.074-2.711-.406-.446-1.403-.632-2.141.148l-.222.223c-.627.706-1.291 2.712-1.624 3.64-.147.632-1.698 4.94-1.698 5.274l-5.758.223c.074-.297.148-.557.221-.78.628-2.228 1.219-4.197 1.219-6.574 0-1.56-.997-2.86-2.474-3.417-2.547-.929-5.832.631-7.456 2.711C.701 16.33 0 17.331 0 17.963zm99.295 3.714c-.627 0-1.292-.074-1.845.074-.443.075-.702.298-.702.558-.147 1.151 2.547 1.3 3.249 1.3-.296 1.3-.296 4.791 0 6.202-1.07.558-4.06 3.789-4.06.706 0-2.08.774-4.643.774-5.868 0-1.412-.922-2.155-2.288-1.486-.775.371-1.218 1.226-1.624 2.006-.443.928-.923 1.857-1.292 2.86-.074.148-.074.297-.296.297 0-1.486 1.403-5.349-.7-5.349-1.145 0-1.551 1.003-1.699 2.006-.221 1.226-.369 2.786-.554 4.086 0 .297 0 .557-.073.854-.074.446 0 .371-.296.706-.701.631-3.543 3.082-3.543 1.002s.996-4.791 1.55-6.871c.148-.631.443-1.709-.554-1.709-1.07 0-1.92.223-2.288 1.226-.48 1.077-.702 2.489-.997 3.566-.074.297-.775.557-1.144.706-1.07.371-1.846.148-1.846-1.152 0-1.374 1.292-4.346-.627-4.346-.923 0-1.403.298-1.92.929-.369.446-.701 1.003-.997 1.634-.073.223-.369 1.077-.627 1.152 0-1.003.074-2.006.074-3.083 0-.557-.222-.706-.775-.706-.702 0-1.07.223-1.218.706-.443 1.077-.923 3.714-1.145 4.94a34.252 34.252 0 00-.221 3.64c0 1.374.147 2.488 1.292 2.488.701 0 1.07-.854 1.292-1.411.553-1.3.996-2.711 1.476-4.086l.775-2.08h.148c0 .446.221 1.56.406 2.006.148.631.37 1.077.849 1.486.48.408.997.631 1.624.705.443.075 1.07-.074 1.477-.222.147-.075.295-.149.443-.149-.074.854-.222 1.931.147 2.786.775 1.783 3.47.854 4.836.223.554-.298 1.144-.706 1.698-1.003 0 1.708 1.366 2.414 2.4 1.485.294-.297.848-1.3 1.07-1.857.221-.445 2.288-4.865 2.547-4.865 0 .371-.148 1.151-.222 1.634-.074 1.411-.295 3.343.37 4.568.147.298.48.706.848.855 1.624.631 4.91-2.08 5.759-2.155 0 .372.701 1.226.922 1.486 1.477 1.3 3.138.632 4.615-.297.922-.557 2.399-1.226 1.845-2.563-.295-.854-2.4.446-3.137.78-2.215.854-2.289-.78-2.547-2.303-.074-.445 0-3.491.295-3.788.406-.446.849-1.077 1.218-1.635 1.218 0 2.547.075 3.839.075.627 0 1.144-.075 1.403-.446.147-.371.147-1.3-.222-1.486-.554-.223-2.842 0-3.617-.148l.701-1.152c.775-1.3 1.292-2.637 1.292-4.345 0-.855-.221-1.635-.554-2.08-.369-.558-.922-1.003-1.698-1.003-2.325 0-3.765 4.345-4.318 6.277-.148.446-.222.928-.37 1.374-.073.297 0 .632-.221.632-.222-.372-.849-.372-.997-.372zm3.913.149c-.295-.075-.37 0-.775 0 0-.929 1.292-4.792 1.846-5.423.295-.372 1.402-.446.922 1.226-.369 1.337-1.292 2.897-1.993 4.197zm-68.436 3.343c0-.855.221-2.155.443-3.009.221-1.003.369-1.931.701-2.86.222-.929 1.366-4.346 2.547-4.346.074.075.074.372.074.446 0 1.634-1.477 5.497-2.215 7.057-.406.52-1.255 2.452-1.55 2.712zm6.386-.075c0-1.783 1.218-7.131 2.214-8.728.222-.372.702-1.375 1.219-1.375.443 0 0 1.932 0 2.006-.074.446-.222.854-.406 1.3-.628 2.08-1.477 3.863-2.474 5.794-.11.223-.406.929-.553 1.003zm-.074-10.4c0-.705-.074-1.3-.406-1.783-.85-1.411-2.547-.78-3.544 0-.553.372-.701.632-1.07 1.078-2.843 3.491-4.91 10.734-4.319 15.302 0 .223.074.409.074.632l-.923.631c-.406.223-.628.372-.997.557-.849.446-2.399 1.078-3.396.446-.221-.148-.443-.446-.553-.78.295-.074.627-.223.922-.371 1.772-.78 3.064-1.857 3.84-3.715 1.218-3.157-3.323-5.98-6.239-2.08-.775 1.003-1.292 2.489-1.55 3.715-.37 2.228.147 4.345 1.993 5.571 1.92 1.226 4.688.223 6.46-.854l1.144-.78c.148.631.997 2.006 1.772 2.08 1.07.223 2.99-.632 3.987-1.077.147-.075.7-.409.849-.446.073.297.553.854.775 1.077.996.929 2.214.409 3.322 0l1.845-.854c2.474 3.491 9.229.074 7.162-7.132-.074-.222-.222-.445-.222-.705.222.074 1.07.705 1.292.854.148.149.221.223.443.297 0-.78-.074-1.374.074-2.08-1.477-1.003-2.547-1.486-4.467-1.486-1.292 0-2.62.558-3.543 1.375-1.07 1.077-1.92 2.934-1.92 4.568 0 .706.148 1.3.148 1.932-.443.297-1.144.705-1.698.928-.443.149-.701.149-.85-.223-.294-.557-.294-.854-.294-1.485 0-1.003 1.476-3.64 2.067-4.569l.996-1.708c.37-.706.997-1.932 1.292-2.638.85-1.782 1.772-4.197 1.772-6.277 0-.928-.221-1.931-.849-2.414-1.476-1.003-3.396.929-4.245 2.006-.627.78-1.218 2.005-1.292 2.08.074-.409.148-1.115.148-1.672zM38.057 28.03c0 .631 0 2.08.222 2.488-.074.074-.148.074-.296.149-.701.371-1.698 1.151-2.473 1.151-.148 0-.406-.446-.406-.631-.701-1.709.849-4.086 1.698-5.423.701-1.226 1.55-2.563 2.067-3.714l.074-.149.074-.074c-.48 1.857-.96 4.085-.96 6.203zm-12.44.854c0-1.077.148-1.634.628-2.489 1.218-2.303 4.171-.928 1.476 1.635-.406.297-1.328.854-2.104.854zm22.739 3.454c-2.141 0-1.772-3.083-1.55-4.42.442-2.303 2.842-3.937 3.543-1.151.074.408.074.557.074 1.003.184 1.337-.517 4.568-2.067 4.568z"/></svg>