<svg xmlns="http://www.w3.org/2000/svg" width="122" height="76" viewBox="0 0 122 76"><path fill="#354254" d="M89.792 31.54c0 1.486.775 2.006 2.067 2.006 2.4 0 2.695-2.712 1.698-3.492-.997-.705-2.842-.557-3.544.632-.073.148-.221.52-.221.854zm-28.866 7.169c0 3.714.702 13.074 7.014 10.585 1.92-.78 2.916-3.008 3.396-4.94.369-1.56.443-4.16.443-5.868.922 0 2.99-.855 3.912-1.3 3.692-2.229 4.688-7.206 1.366-10.215-.701-.631-1.624-1.151-2.547-1.485-2.62-.855-5.61-.557-7.862.78-4.024 2.488-5.722 7.874-5.722 12.443zm7.715-2.86c-.406-.149-1.07-.372-1.55-.706-.85-.557-.923-.074-.923.854 0 1.486 1.292 2.08 2.547 2.414 0 1.783.295 8.358-2.547 8.358-.923 0-1.55-1.486-1.698-2.155-.702-2.563-.443-6.797 0-9.36.369-1.857.849-3.491 1.92-5.014.848-1.003 1.217-1.634 2.472-2.154 1.994-.929 5.464-.297 6.755 1.634.997 1.56.443 3.863-.849 4.94-1.624 1.226-2.694 1.077-2.99 1.226 0-.929.407-2.08.628-3.009.074-.557.37-1.634-.148-1.931-1.292-.78-2.62.445-3.063 1.634-.406.706-.554 1.969-.554 3.269zM6.332 29.98c0 .074.074.297.148.371.369.558 1.55-.297 1.772-.557 1.07-.78 2.99-2.08 4.392-2.08.997 0 1.624.78 1.624 1.709 0 1.708-.295 2.228-.775 3.788l-1.07 3.009c-.997 0-5.242-.074-5.242 1.003 0 .297.148.557.406.78.296.446.628.928 1.145 1.077.922.297 1.698 0 2.694 0l-1.292 3.566c-.48 1.225-1.845 4.197-.701 5.348.369.372.997.223 1.366 0 .553-.297.996-.854 1.292-1.374.627-1.003 1.624-4.011 1.993-5.274l.923-2.712c1.845-.148 4.17-.631 5.906-.631-.222.557-1.07 4.197-1.07 5.014 0 1.226.073 2.489.848 3.343.628.78 1.218 1.226 2.473 1.226 2.289 0 4.06-1.375 5.685-2.712.148-.074.148-.148.295-.297-.295-.557-.627-1.226-.701-1.931-.074.074-.849.854-1.55 1.225-.923.632-1.292.855-2.4.855-2.473 0-.849-6.352-.295-7.057a.588.588 0 0 1 .406-.149l2.067-.223c.701-.074 1.772-.148 1.772-.928 0-.223-.074-.558-.222-.706-.221-.297-.627-.297-.922-.297-.85 0-1.625.074-2.473.074l.848-2.637c.37-1.226.85-2.637 1.366-3.789.296-.78.702-2.005.074-2.711-.406-.446-1.403-.632-2.14.148l-.222.223c-.628.706-1.292 2.712-1.624 3.64-.148.632-1.698 4.94-1.698 5.275l-5.759.222c.074-.297.148-.557.222-.78.627-2.228 1.218-4.197 1.218-6.574 0-1.56-.997-2.86-2.473-3.417-2.547-.929-5.833.631-7.457 2.711-.147.595-.849 1.598-.849 2.229zm99.296 3.714c-.628 0-1.292-.074-1.846.075-.443.074-.701.297-.701.557-.148 1.151 2.547 1.3 3.248 1.3-.295 1.3-.295 4.791 0 6.203-1.07.557-4.06 3.788-4.06.705 0-2.08.775-4.643.775-5.868 0-1.412-.923-2.155-2.289-1.486-.775.371-1.218 1.226-1.624 2.006-.443.928-.923 1.857-1.292 2.86-.074.148-.074.297-.295.297 0-1.486 1.402-5.349-.702-5.349-1.144 0-1.55 1.003-1.698 2.006-.221 1.226-.369 2.786-.553 4.086 0 .297 0 .557-.074.854-.074.446 0 .371-.296.706-.7.631-3.543 3.083-3.543 1.003s.996-4.792 1.55-6.872c.148-.631.443-1.708-.554-1.708-1.07 0-1.919.222-2.288 1.225-.48 1.077-.701 2.489-.997 3.566-.074.297-.775.557-1.144.706-1.07.371-1.846.148-1.846-1.152 0-1.374 1.292-4.345-.627-4.345-.923 0-1.403.297-1.92.928-.369.446-.701 1.003-.996 1.634-.074.223-.37 1.078-.628 1.152 0-1.003.074-2.006.074-3.083 0-.557-.221-.706-.775-.706-.701 0-1.07.223-1.218.706-.443 1.077-.923 3.714-1.145 4.94a34.252 34.252 0 0 0-.221 3.64c0 1.374.148 2.489 1.292 2.489.701 0 1.07-.855 1.292-1.412.554-1.3.996-2.711 1.476-4.086l.776-2.08h.147c0 .446.222 1.56.406 2.006.148.632.37 1.077.85 1.486.48.408.996.631 1.623.706.443.074 1.07-.075 1.477-.223.148-.075.295-.149.443-.149-.074.854-.222 1.932.147 2.786.776 1.783 3.47.854 4.836.223.554-.297 1.144-.706 1.698-1.003 0 1.708 1.366 2.414 2.4 1.486.295-.298.848-1.3 1.07-1.858.221-.445 2.288-4.865 2.547-4.865 0 .371-.148 1.151-.222 1.634-.073 1.411-.295 3.343.37 4.569.147.297.48.705.848.854 1.625.631 4.91-2.08 5.759-2.154 0 .371.701 1.225.923 1.485 1.476 1.3 3.137.632 4.614-.297.923-.557 2.4-1.226 1.845-2.563-.295-.854-2.399.446-3.137.78-2.215.855-2.289-.78-2.547-2.303-.074-.445 0-3.491.295-3.788.406-.446.85-1.077 1.218-1.634 1.218 0 2.547.074 3.84.074.627 0 1.143-.074 1.402-.446.148-.371.148-1.3-.222-1.486-.553-.222-2.842 0-3.617-.148l.701-1.152c.775-1.3 1.292-2.637 1.292-4.345 0-.855-.221-1.635-.553-2.08-.37-.557-.923-1.003-1.698-1.003-2.326 0-3.766 4.346-4.32 6.277-.147.446-.22.929-.368 1.374-.074.297 0 .632-.222.632-.221-.372-.849-.372-.996-.372zm3.912.149c-.295-.074-.369 0-.775 0 0-.929 1.292-4.792 1.846-5.423.295-.371 1.402-.446.923 1.226-.37 1.337-1.292 2.897-1.994 4.197zm-68.436 3.343c0-.855.222-2.155.443-3.009.221-1.003.37-1.931.701-2.86.222-.928 1.366-4.346 2.547-4.346.074.075.074.372.074.446 0 1.634-1.476 5.497-2.215 7.057-.406.52-1.255 2.452-1.55 2.712zm6.386-.075c0-1.782 1.218-7.131 2.215-8.728.221-.372.701-1.374 1.218-1.374.443 0 0 1.931 0 2.005-.074.446-.222.855-.406 1.3-.628 2.08-1.477 3.863-2.473 5.795-.111.222-.406.928-.554 1.002zm-.074-10.4c0-.705-.074-1.3-.406-1.782-.849-1.412-2.547-.78-3.544 0-.553.371-.7.631-1.07 1.077-2.842 3.491-4.91 10.734-4.319 15.303 0 .222.074.408.074.631l-.923.631c-.406.223-.627.372-.996.558-.85.445-2.4 1.077-3.396.445-.222-.148-.443-.445-.554-.78.295-.074.627-.223.923-.371 1.772-.78 3.063-1.857 3.839-3.714 1.218-3.158-3.323-5.98-6.239-2.08-.775 1.002-1.292 2.488-1.55 3.714-.37 2.228.148 4.346 1.993 5.571 1.92 1.226 4.688.223 6.46-.854l1.144-.78c.148.631.997 2.006 1.772 2.08 1.07.223 2.99-.631 3.987-1.077.147-.074.701-.409.849-.446.074.297.553.854.775 1.077.997.929 2.215.409 3.322 0l1.846-.854c2.473 3.491 9.228.074 7.16-7.131-.073-.223-.22-.446-.22-.706.22.074 1.07.706 1.291.854.148.149.222.223.443.297 0-.78-.074-1.374.074-2.08-1.477-1.003-2.547-1.485-4.466-1.485-1.292 0-2.621.557-3.544 1.374-1.07 1.077-1.92 2.934-1.92 4.568 0 .706.148 1.3.148 1.932-.443.297-1.144.706-1.698.928-.443.149-.701.149-.849-.222-.295-.558-.295-.855-.295-1.486 0-1.003 1.476-3.64 2.067-4.569l.997-1.708c.369-.706.996-1.932 1.292-2.637.849-1.783 1.771-4.198 1.771-6.278 0-.928-.221-1.931-.849-2.414-1.476-1.003-3.396.929-4.245 2.006-.627.78-1.218 2.006-1.292 2.08.074-.409.148-1.114.148-1.672zM44.39 40.046c0 .631 0 2.08.222 2.488-.074.075-.148.075-.296.149-.7.371-1.698 1.151-2.473 1.151-.147 0-.406-.445-.406-.631-.701-1.709.85-4.086 1.698-5.423.702-1.226 1.55-2.563 2.067-3.714l.074-.149.074-.074c-.48 1.857-.96 4.086-.96 6.203zm-12.44.854c0-1.077.148-1.634.628-2.489 1.218-2.302 4.171-.928 1.477 1.635-.406.297-1.33.854-2.104.854zm22.739 3.454c-2.141 0-1.772-3.083-1.55-4.42.443-2.303 2.842-3.937 3.543-1.151.074.408.074.557.074 1.003.185 1.337-.517 4.568-2.067 4.568z"/></svg>