<svg xmlns="http://www.w3.org/2000/svg" width="120" height="76" viewBox="0 0 120 76"><g fill="none" fill-rule="evenodd"><path fill="#E34B5F" d="M31.352 44.14c0 .339-.134.664-.371.904l-5.672 5.727a.503.503 0 0 1-.552.112.511.511 0 0 1-.313-.473V37.577l6.83-6.857h.078v13.42z"/><path fill="#E7CE9C" d="M26.826 26.15a.504.504 0 0 0-.717 0l-8.433 8.515h-.118v9.612l.118.253 6.768-6.835 6.908-6.975-4.526-4.57z"/><path fill="#1E7889" d="M4 44.14c0 .339.133.664.37.904l5.673 5.727c.145.147.363.19.552.112a.511.511 0 0 0 .312-.473V37.577L4.08 30.72H4v13.42z"/><path fill="#97BAA6" d="M9.242 26.15a.504.504 0 0 0-.716 0L4 30.72l6.907 6.975 6.769 6.835v-9.865L9.242 26.15z"/><path fill="#354254" d="M39.84 44.14V31.336h3.377v1.716a3.744 3.744 0 0 1 3.447-1.955 3.853 3.853 0 0 1 3.519 2.05c1.322-1.406 2.338-2.05 3.922-2.05 2.857 0 4.463 1.622 4.463 4.602v8.441h-3.637v-6.938c0-1.786-.378-2.599-1.769-2.599-1.415 0-2.172.882-2.172 2.599v6.938h-3.664v-6.938c0-1.786-.378-2.599-1.768-2.599-1.415 0-2.172.882-2.172 2.599v6.938H39.84z"/><path fill="#354254" fill-rule="nonzero" d="M63.079 33.005a6.647 6.647 0 0 1 7.256-1.518c2.5 1.015 4.155 3.446 4.196 6.167a6.557 6.557 0 0 1-1.913 4.817 6.542 6.542 0 0 1-4.817 2.003 6.237 6.237 0 0 1-4.794-2.05 6.727 6.727 0 0 1-1.865-4.722 6.595 6.595 0 0 1 1.937-4.697zm4.746 7.892c1.689-.034 3.03-1.443 2.999-3.148a3.04 3.04 0 0 0-1.458-2.742 2.977 2.977 0 0 0-3.082 0 3.04 3.04 0 0 0-1.458 2.742c-.023 1.702 1.314 3.106 3 3.149v-.001z"/><path fill="#354254" d="M77.108 44.14V31.336h3.542l-.047 1.716a3.933 3.933 0 0 1 3.637-1.955c2.621 0 4.321 1.667 4.321 4.602v8.441h-3.73v-6.938c0-1.786-.378-2.599-1.819-2.599-1.464 0-2.243.882-2.243 2.599v6.938h-3.66z"/><path fill="#354254" fill-rule="nonzero" d="M104.483 33.005a6.647 6.647 0 0 1 7.257-1.518c2.5 1.015 4.154 3.446 4.196 6.167a6.557 6.557 0 0 1-1.913 4.817 6.542 6.542 0 0 1-4.817 2.003 6.237 6.237 0 0 1-4.794-2.05 6.727 6.727 0 0 1-1.866-4.722 6.595 6.595 0 0 1 1.937-4.697zm4.747 7.892c1.688-.035 3.029-1.443 2.997-3.147a3.04 3.04 0 0 0-1.457-2.742 2.977 2.977 0 0 0-3.083 0 3.04 3.04 0 0 0-1.458 2.742c-.023 1.702 1.316 3.106 3 3.148v-.001z"/><path fill="#354254" d="M91.225 44.14v-2.67l5.219-6.82h-5.219v-3.314h9.422v3.028l-4.605 6.462h4.699v3.314z"/></g></svg>