<svg xmlns="http://www.w3.org/2000/svg" width="149" height="50" viewBox="0 0 149 50"><g fill="none"><path fill="#567" d="M30.95 17.753c.873 0 1.616.129 2.23.387.614.259 1.099.582 1.486 1.002.388.42.679.905.84 1.422a5.84 5.84 0 0 1 .259 1.647 5.84 5.84 0 0 1-.259 1.648c-.161.55-.452 1.001-.84 1.421-.387.42-.872.744-1.486 1.002s-1.357.388-2.23.388h-3.23v5.007h-3.07V17.753h6.3zm-.84 6.558c.356 0 .68-.032 1.002-.064a3.46 3.46 0 0 0 .873-.291 1.42 1.42 0 0 0 .581-.646c.162-.259.226-.646.226-1.066 0-.453-.064-.808-.226-1.067a2.252 2.252 0 0 0-.581-.646 1.865 1.865 0 0 0-.873-.29c-.323-.065-.678-.065-1.001-.065h-2.39v4.168l2.39-.033zm7.044-6.558h2.778v2.294h-2.778v-2.294zm2.778 13.924h-2.778v-10.08h2.778v10.08zm4.814-10.08v1.39h.065a3.463 3.463 0 0 1 1.357-1.293 4.012 4.012 0 0 1 1.712-.387c.743 0 1.357.097 1.81.29.452.194.84.485 1.13.84.259.356.452.808.582 1.293.097.517.161 1.098.161 1.712v6.235h-2.778v-5.686c0-.84-.13-1.454-.388-1.874-.258-.42-.71-.613-1.39-.613-.742 0-1.291.226-1.647.678-.323.452-.517 1.195-.517 2.23v5.265h-2.778v-10.08h2.681zm20.903-3.844c.873 0 1.616.129 2.23.387.613.259 1.098.582 1.486 1.002.387.42.678.905.84 1.422a5.84 5.84 0 0 1 .258 1.647 5.84 5.84 0 0 1-.258 1.648c-.162.55-.453 1.001-.84 1.421-.388.42-.873.744-1.486 1.002-.614.258-1.357.388-2.23.388h-3.23v5.007h-3.07V17.753h6.3zm-.84 6.558c.356 0 .679-.032 1.002-.064a3.46 3.46 0 0 0 .872-.291c.259-.162.453-.356.582-.646.161-.259.226-.646.226-1.066 0-.453-.065-.808-.226-1.067a2.252 2.252 0 0 0-.582-.646 1.865 1.865 0 0 0-.872-.29c-.323-.065-.679-.065-1.002-.065h-2.39v4.168l2.39-.033zm7.011-1.227c.29-.42.646-.776 1.099-1.034a4.554 4.554 0 0 1 1.486-.55 9.554 9.554 0 0 1 1.68-.161c.517 0 1.034.032 1.55.097a4.862 4.862 0 0 1 1.422.42c.42.194.775.484 1.066.872.259.356.42.872.42 1.486v5.234c0 .452.033.905.065 1.292.064.42.13.744.258.937h-2.81a2.692 2.692 0 0 1-.13-.484 2.494 2.494 0 0 1-.064-.485c-.453.452-.97.776-1.551.97-.614.193-1.195.258-1.842.258-.484 0-.937-.065-1.357-.162-.42-.129-.775-.29-1.098-.549a2.659 2.659 0 0 1-.743-.937 3.503 3.503 0 0 1-.259-1.357c0-.581.097-1.034.291-1.421.194-.356.453-.679.776-.873a3.081 3.081 0 0 1 1.098-.484c.42-.097.808-.194 1.228-.259.42-.064.84-.129 1.227-.161a8.317 8.317 0 0 0 1.067-.162 1.6 1.6 0 0 0 .743-.355c.194-.162.258-.356.258-.646 0-.291-.032-.55-.161-.711-.13-.162-.227-.323-.388-.42a1.544 1.544 0 0 0-.582-.194 4.82 4.82 0 0 0-.678-.065c-.55 0-.97.13-1.292.356-.323.226-.485.614-.55 1.163h-2.778c.097-.646.258-1.195.55-1.615m5.46 3.909c-.162.064-.356.097-.582.161-.194.033-.42.065-.647.097l-.678.097c-.194.032-.42.097-.614.162a1.931 1.931 0 0 0-.517.258 1.53 1.53 0 0 0-.355.42c-.097.162-.13.388-.13.646 0 .259.033.453.13.614.097.162.226.29.355.388.162.097.323.161.55.194.193.032.42.064.646.064.549 0 .969-.097 1.26-.258.29-.194.517-.388.678-.646a2.44 2.44 0 0 0 .259-.776c.032-.258.032-.452.032-.614v-1.033c-.065.097-.194.161-.388.226m9.079 7.689c-.517.355-1.26.517-2.23.517-.29 0-.581 0-.84-.032-.29-.033-.549-.033-.84-.065v-2.294c.259.032.517.065.808.065.259.032.55.032.808.032.355-.032.646-.194.807-.42.162-.258.259-.517.259-.808 0-.226-.032-.42-.13-.613l-3.52-9.467h2.94l2.293 6.914h.032l2.197-6.914h2.876l-4.2 11.34c-.291.808-.711 1.39-1.26 1.745m9.11-13.085v1.357h.033c.355-.517.807-.937 1.324-1.195.517-.29 1.099-.42 1.777-.42.646 0 1.228.13 1.745.355.517.259.937.679 1.195 1.293.291-.453.711-.84 1.228-1.163a3.389 3.389 0 0 1 1.81-.517c.516 0 1.033.064 1.485.193.453.13.84.324 1.163.614.323.291.582.646.776 1.131.194.452.258 1.002.258 1.68v6.752h-2.778V25.96c0-.323 0-.646-.033-.97-.032-.29-.096-.549-.226-.775a1.325 1.325 0 0 0-.517-.517c-.226-.129-.549-.193-.937-.193-.387 0-.71.064-.936.226a2.47 2.47 0 0 0-.582.581 2.16 2.16 0 0 0-.258.808c-.033.29-.065.614-.065.937v5.621h-2.779v-5.653c0-.291 0-.582-.032-.873 0-.29-.064-.549-.161-.807a1.083 1.083 0 0 0-.485-.582c-.226-.162-.55-.226-1.002-.226-.129 0-.29.032-.516.097a1.61 1.61 0 0 0-.614.323 1.765 1.765 0 0 0-.517.71 3.15 3.15 0 0 0-.226 1.196v5.815H92.82v-10.08h2.65zm17.705 7.657c.42.388 1.002.614 1.81.614.548 0 1.033-.13 1.453-.42.388-.29.646-.581.743-.872h2.423c-.387 1.195-1.001 2.068-1.809 2.584-.808.517-1.777.776-2.94.776-.808 0-1.518-.13-2.132-.388a4.698 4.698 0 0 1-1.616-1.066c-.452-.452-.775-1.034-1.034-1.68a6.415 6.415 0 0 1-.355-2.132c0-.743.13-1.454.355-2.1.259-.646.614-1.228 1.067-1.68.452-.485 1.001-.84 1.615-1.131.614-.29 1.325-.42 2.1-.42.872 0 1.615.161 2.23.485a4.517 4.517 0 0 1 1.582 1.324c.42.55.711 1.196.873 1.906.193.711.258 1.454.193 2.23h-7.269c.065.936.291 1.583.711 1.97m3.102-5.298c-.324-.356-.84-.55-1.519-.55-.452 0-.808.065-1.098.227-.291.161-.517.323-.711.549-.162.226-.29.452-.356.71-.064.26-.129.453-.129.68h4.491c-.097-.712-.323-1.26-.678-1.616m7.656-2.359v1.39h.065a3.463 3.463 0 0 1 1.357-1.293 4.012 4.012 0 0 1 1.712-.387c.743 0 1.357.097 1.81.29.484.194.84.485 1.13.84.259.356.453.808.582 1.293.097.517.161 1.098.161 1.712v6.235h-2.778v-5.686c0-.84-.13-1.454-.388-1.874-.258-.42-.71-.613-1.389-.613-.743 0-1.292.226-1.648.678-.323.452-.517 1.195-.517 2.23v5.265h-2.778v-10.08h2.681zm14.474 0v1.842h-2.035v5.008c0 .452.065.775.226.937.162.161.485.226.937.226.162 0 .29 0 .452-.033.13 0 .291-.032.42-.064v2.132a5.36 5.36 0 0 1-.775.065c-.29 0-.582.032-.84.032-.42 0-.84-.032-1.228-.097-.387-.065-.71-.161-1.001-.355a2.036 2.036 0 0 1-.679-.711c-.161-.323-.258-.71-.258-1.228V23.44h-1.68v-1.842h1.68V18.56h2.778v3.037h2.003zm3.651 7.56c.13.227.29.388.485.517.194.13.42.226.678.291.259.065.517.097.776.097.193 0 .387-.032.613-.065.227-.032.42-.129.582-.226a1.7 1.7 0 0 0 .452-.387c.13-.162.162-.356.162-.614 0-.42-.291-.743-.84-.937-.55-.194-1.325-.42-2.326-.614-.388-.097-.808-.194-1.196-.323-.387-.13-.71-.29-1.034-.485a2.054 2.054 0 0 1-.71-.775c-.194-.29-.259-.679-.259-1.13 0-.647.13-1.196.388-1.616a2.62 2.62 0 0 1 1.001-.97c.42-.226.873-.42 1.39-.516a8.833 8.833 0 0 1 1.615-.162c.55 0 1.066.065 1.583.162.517.096.97.29 1.39.516a3.58 3.58 0 0 1 1 .97c.26.42.42.937.485 1.55h-2.616c-.033-.516-.227-.904-.614-1.066-.356-.194-.808-.29-1.293-.29-.161 0-.323 0-.517.032-.193.032-.355.064-.484.13a.882.882 0 0 0-.388.29.794.794 0 0 0-.161.484c0 .259.097.453.258.614.194.162.42.291.71.388a6.4 6.4 0 0 0 1.002.258c.388.065.776.162 1.163.259.388.097.808.194 1.196.323.388.13.71.29 1.034.517.29.226.549.485.71.808.194.323.259.71.259 1.195 0 .678-.13 1.228-.388 1.68a2.977 2.977 0 0 1-1.034 1.066 4.76 4.76 0 0 1-1.486.582 9.86 9.86 0 0 1-1.68.161 9.925 9.925 0 0 1-1.712-.161c-.55-.13-1.066-.323-1.486-.582a3.36 3.36 0 0 1-1.066-1.066c-.291-.452-.42-1.002-.453-1.68h2.617c.033.323.065.582.194.775"/><path fill="#C11" d="M8.594 16.525a3.033 3.033 0 0 1 3.037 3.037c0 1.26-.614 3.23-1.519 5.395.776 1.874 1.777 3.941 2.779 5.88 2.132-4.168 4.297-8.917 4.297-11.275 0-4.717-3.845-8.562-8.562-8.562C3.91 11 .032 14.812.032 19.562c0 4.523 7.819 17.769 8.562 18.996.258-.452 1.39-2.358 2.778-4.878-2.52-4.588-5.815-11.178-5.815-14.118a3.033 3.033 0 0 1 3.037-3.037z"/></g></svg>