<svg xmlns="http://www.w3.org/2000/svg" width="125" height="76" viewBox="0 0 125 76"><g fill="#354254" fill-rule="evenodd"><path fill-rule="nonzero" d="M9.194 37.888c0-3.186 1.717-4.32 3.324-4.32 1.972 0 3.297 1.723 3.297 4.29 0 2.928-1.685 4.235-3.352 4.235-2.248 0-3.27-2.182-3.27-4.205zm4.116-8.068c-2.344 0-3.702 1.068-4.356 1.806-.08-.636-.492-1.461-2.105-1.461H3.346v3.718h1.436c.243 0 .322.079.322.325v16.98h4.175v-6.373c0-.172-.004-.333-.008-.476.651.606 1.898 1.443 3.843 1.443 4.081 0 6.936-3.28 6.936-7.98 0-4.775-2.71-7.982-6.74-7.982z"/><path d="M25.657 41.423v-8.997c0-1.52-.723-2.261-2.203-2.261h-3.732v3.718h1.438c.242 0 .32.08.32.325v8.967c0 1.543.7 2.26 2.198 2.26h3.736V41.75h-1.437c-.231 0-.32-.094-.32-.327"/><path fill-rule="nonzero" d="M35.712 42.093c-2.242 0-3.268-2.182-3.268-4.205 0-3.186 1.718-4.32 3.326-4.32 1.972 0 3.297 1.723 3.297 4.29 0 2.928-1.684 4.235-3.355 4.235zm.852-12.273c-2.348 0-3.702 1.068-4.36 1.806-.077-.636-.488-1.461-2.101-1.461h-3.505v3.718h1.436c.242 0 .32.079.32.325v16.98h4.178v-6.373c0-.172-.004-.333-.009-.476.649.606 1.9 1.443 3.844 1.443 4.082 0 6.934-3.28 6.934-7.98 0-4.775-2.709-7.982-6.737-7.982zm11.444 5.778c.453-1.498 1.585-2.349 3.15-2.349 1.258 0 2.225.97 2.396 2.349h-5.546zm3.15-5.778c-4.498 0-7.644 3.283-7.644 7.982 0 4.623 3.394 7.98 8.071 7.98 3.679 0 5.927-2.208 6.022-2.302l.168-.169-1.82-3.06-.269.259c-.018.014-1.668 1.556-3.848 1.556-2.092 0-3.624-1.295-3.985-3.326h9.9l.024-.278c.007-.038.089-.94.089-1.38 0-4.343-2.696-7.262-6.708-7.262zm14.448 12.273c-1.986 0-3.27-1.685-3.27-4.291 0-2.534 1.337-4.234 3.327-4.234 2.257 0 3.269 2.11 3.269 4.206 0 3.187-1.72 4.32-3.326 4.32zm7.445-.67V26.676c0-1.52-.732-2.26-2.232-2.26h-3.731v3.72h1.437c.242 0 .32.078.32.324v2.666c-.616-.564-1.819-1.306-3.89-1.306-4.052 0-6.88 3.282-6.88 7.982 0 4.774 2.709 7.98 6.739 7.98 2.303 0 3.631-1.084 4.28-1.84.084.66.505 1.493 2.067 1.493h3.617V41.75h-1.407c-.23 0-.32-.094-.32-.327zm11.018-11.46c-1.738 0-3.337 1.017-4.286 2.638v-.349c0-1.384-.753-2.087-2.232-2.087h-3.59v3.718h1.436c.242 0 .322.078.322.325v11.227h4.175v-6.11c0-.805.102-1.58.299-2.297.629-2.107 2.299-2.857 3.65-2.857.479 0 .827.051.833.053l.348.053v-4.209l-.254-.044a4.69 4.69 0 0 0-.7-.06h-.001zm6.898 11.46v-8.997c0-1.52-.72-2.261-2.2-2.261h-3.375v3.718h1.078c.243 0 .32.08.32.325v8.967c0 1.543.701 2.26 2.203 2.26h3.733V41.75h-1.439c-.231 0-.32-.094-.32-.327z"/><path fill-rule="nonzero" d="M106.729 30.165H104.5c-1.302 0-2 .458-2.412 1.581l-2.722 7.71c-.094.286-.182.607-.258.914a10.225 10.225 0 0 0-.275-.918l-2.722-7.707c-.418-1.136-1.093-1.58-2.411-1.58h-2.37v3.719h.615c.326 0 .431.112.508.318l4.214 11.233h4.695l4.214-11.233c.076-.206.184-.318.51-.318h.642v-3.719zm4.04 5.433c.457-1.498 1.585-2.349 3.148-2.349 1.26 0 2.226.97 2.397 2.349h-5.546zm3.148-5.778c-4.497 0-7.64 3.283-7.64 7.982 0 4.623 3.39 7.98 8.067 7.98 3.68 0 5.93-2.208 6.023-2.302l.17-.169-1.815-3.06-.277.259c-.014.014-1.673 1.556-3.845 1.556-2.094 0-3.625-1.295-3.987-3.326h9.904l.023-.278c.005-.038.09-.94.09-1.38 0-4.343-2.698-7.262-6.713-7.262zm-88.546-5.403h-3.722v3.976h3.722v-3.976zm65.312 0H86.96v3.976h3.723v-3.976z"/></g></svg>