<svg xmlns="http://www.w3.org/2000/svg" width="110" height="50" viewBox="0 0 110 50"><g fill="#26292C"><path d="M20.745 27.74c0 .215.083.302.298.302h1.337v3.41h-3.474c-1.394 0-2.044-.663-2.044-2.091v-8.297c0-.227-.073-.3-.298-.3h-1.336v-3.441h3.469c1.376 0 2.048.685 2.048 2.092v8.325z"/><path d="M30.095 28.36c1.554 0 3.12-1.21 3.12-3.918 0-2.375-1.232-3.97-3.066-3.97-1.495 0-3.092 1.05-3.092 3.997 0 1.872.954 3.892 3.038 3.892zm.792-11.356c3.746 0 6.264 2.968 6.264 7.386 0 4.348-2.651 7.384-6.447 7.384-1.808 0-2.971-.775-3.574-1.336.004.133.008.282.008.441v5.897h-3.884V21.065c0-.229-.073-.3-.298-.3H21.62v-3.441h3.258c1.5 0 1.883.763 1.954 1.351.612-.682 1.87-1.67 4.054-1.67zm10.642 5.346h5.156c-.159-1.275-1.058-2.172-2.227-2.172-1.455 0-2.508.786-2.93 2.172zm2.929-5.345c3.73 0 6.237 2.7 6.237 6.719 0 .407-.076 1.242-.083 1.276l-.022.258h-9.206c.337 1.879 1.76 3.077 3.706 3.077 2.027 0 3.56-1.426 3.578-1.44l.25-.24 1.692 2.833-.156.156c-.089.086-2.179 2.13-5.6 2.13-4.348 0-7.504-3.106-7.504-7.384 0-4.348 2.925-7.385 7.108-7.385zM57.89 28.36c1.495 0 3.093-1.048 3.093-3.997 0-1.938-.94-3.891-3.04-3.891-1.85 0-3.093 1.573-3.093 3.917 0 2.412 1.194 3.972 3.04 3.972zm6.924-.62c0 .216.083.303.298.303h1.307v3.41h-3.363c-1.452 0-1.844-.772-1.922-1.382-.603.7-1.838 1.703-3.98 1.703-3.747 0-6.265-2.967-6.265-7.385 0-4.348 2.628-7.385 6.396-7.385 1.926 0 3.045.686 3.618 1.208v-2.466c0-.228-.073-.3-.298-.3H59.27v-3.443h3.469c1.395 0 2.076.686 2.076 2.092V27.74zm10.244-10.603c.31 0 .64.053.652.056l.236.04v3.895l-.324-.05a5.638 5.638 0 0 0-.774-.048c-1.257 0-2.81.694-3.394 2.644a7.995 7.995 0 0 0-.278 2.125v5.654h-3.882V21.064c0-.228-.074-.3-.3-.3H65.66v-3.44h3.337c1.376 0 2.076.65 2.076 1.93v.323c.882-1.5 2.37-2.44 3.985-2.44zm6.414 10.603c0 .215.083.302.298.302h1.338v3.41h-3.47c-1.397 0-2.049-.663-2.049-2.091v-8.297c0-.227-.072-.3-.298-.3h-1.003v-3.441h3.139c1.376 0 2.045.685 2.045 2.092v8.325z"/><path d="M96.129 17.323v3.44h-.596c-.304 0-.404.105-.476.296L91.14 31.453h-4.366l-3.917-10.394c-.072-.191-.17-.295-.473-.295h-.572v-3.44h2.203c1.227 0 1.854.41 2.242 1.46l2.531 7.132c.096.265.184.565.257.85.07-.285.152-.581.239-.846l2.531-7.134c.384-1.04 1.033-1.463 2.243-1.463h2.072zm3.755 5.027h5.157c-.159-1.275-1.057-2.172-2.229-2.172-1.454 0-2.502.786-2.928 2.172zm2.928-5.345c3.733 0 6.241 2.7 6.241 6.719 0 .407-.079 1.242-.083 1.276l-.021.258h-9.21c.337 1.879 1.761 3.077 3.708 3.077 2.02 0 3.562-1.426 3.575-1.44l.258-.24 1.687 2.833-.157.156c-.088.086-2.179 2.13-5.601 2.13-4.349 0-7.502-3.106-7.502-7.384 0-4.348 2.924-7.385 7.105-7.385zm-85.793-5.001h3.461v3.679h-3.461zm60.728 0h3.462v3.679h-3.462zM5.437 24.47c0 1.871.95 3.89 3.04 3.89 1.55 0 3.117-1.21 3.117-3.918 0-2.375-1.232-3.97-3.065-3.97-1.494 0-3.092 1.05-3.092 3.997zm3.828-7.466c3.747 0 6.267 2.968 6.267 7.386 0 4.348-2.654 7.384-6.449 7.384-1.81 0-2.968-.775-3.574-1.336.004.133.007.282.007.441v5.897H1.634V21.065c0-.229-.073-.3-.299-.3H0v-3.441h3.257c1.5 0 1.884.763 1.957 1.351.609-.682 1.87-1.67 4.05-1.67z"/></g></svg>