<svg xmlns="http://www.w3.org/2000/svg" width="97" height="50" viewBox="0 0 97 50"><g fill="#26292C"><path d="M18.255 29.851c0 .19.073.266.262.266h1.176v3.001h-3.056c-1.227 0-1.8-.584-1.8-1.84v-7.302c0-.2-.063-.264-.261-.264H13.4v-3.028h3.053c1.211 0 1.802.603 1.802 1.84v7.327z"/><path d="M26.483 30.397c1.368 0 2.745-1.065 2.745-3.45 0-2.09-1.084-3.493-2.697-3.493-1.316 0-2.722.924-2.722 3.518 0 1.647.84 3.425 2.674 3.425zm.697-9.994c3.296 0 5.512 2.611 5.512 6.499 0 3.827-2.333 6.498-5.673 6.498-1.591 0-2.615-.682-3.145-1.175.003.117.007.248.007.388v5.189h-3.418V23.976c0-.201-.065-.265-.263-.265h-1.174v-3.027h2.867c1.32 0 1.657.671 1.72 1.19.538-.601 1.646-1.471 3.567-1.471zm9.365 4.704h4.538c-.14-1.122-.932-1.912-1.96-1.912-1.281 0-2.208.692-2.578 1.912zm2.578-4.704c3.282 0 5.488 2.376 5.488 5.913 0 .359-.067 1.093-.073 1.123l-.02.227h-8.1c.296 1.653 1.549 2.708 3.26 2.708 1.784 0 3.134-1.256 3.15-1.267l.22-.211 1.489 2.492-.138.137c-.078.077-1.917 1.875-4.927 1.875-3.827 0-6.604-2.733-6.604-6.498 0-3.826 2.574-6.5 6.255-6.5zm11.821 9.994c1.314 0 2.721-.922 2.721-3.517 0-1.706-.828-3.425-2.675-3.425-1.628 0-2.722 1.384-2.722 3.448 0 2.122 1.05 3.494 2.676 3.494zm6.092-.545c0 .19.073.265.262.265h1.15v3.001H55.49c-1.278 0-1.622-.679-1.692-1.216-.53.616-1.617 1.499-3.501 1.499-3.298 0-5.514-2.61-5.514-6.498 0-3.827 2.313-6.5 5.628-6.5 1.696 0 2.68.605 3.185 1.064v-2.17c0-.201-.065-.265-.263-.265h-1.176v-3.03h3.053c1.228 0 1.827.604 1.827 1.842v12.008zm9.015-9.332c.274 0 .563.047.574.05l.208.035v3.427l-.285-.043a4.962 4.962 0 00-.682-.043c-1.106 0-2.472.61-2.986 2.326a7.035 7.035 0 00-.245 1.87v4.976h-3.416v-9.142c0-.2-.066-.264-.264-.264h-1.174v-3.028h2.937c1.21 0 1.826.572 1.826 1.7v.283c.777-1.32 2.085-2.147 3.507-2.147zm5.644 9.331c0 .19.073.266.262.266h1.178v3.001H70.08c-1.229 0-1.802-.584-1.802-1.84v-7.302c0-.2-.063-.264-.262-.264h-.883v-3.028h2.762c1.212 0 1.8.603 1.8 1.84v7.327z"/><path d="M84.593 20.684v3.028h-.524c-.268 0-.356.092-.419.26l-3.448 9.146H76.36l-3.447-9.146c-.063-.168-.149-.26-.416-.26h-.503v-3.028h1.939c1.079 0 1.63.362 1.972 1.287l2.228 6.275c.084.233.161.497.225.748.062-.25.134-.511.21-.744l2.228-6.278c.338-.915.909-1.288 1.974-1.288h1.823zm3.305 4.423h4.538c-.14-1.122-.93-1.912-1.961-1.912-1.28 0-2.202.692-2.577 1.912zm2.577-4.704c3.285 0 5.492 2.376 5.492 5.913 0 .359-.07 1.093-.073 1.123l-.019.227h-8.104c.296 1.653 1.55 2.708 3.262 2.708 1.778 0 3.135-1.256 3.147-1.267l.227-.211 1.484 2.492-.138.137c-.077.077-1.917 1.875-4.929 1.875-3.827 0-6.601-2.733-6.601-6.498 0-3.826 2.572-6.5 6.252-6.5zm-75.499-4.399h3.046v3.237h-3.046zm53.441 0h3.047v3.237h-3.047zM4.785 26.972c0 1.647.836 3.425 2.675 3.425 1.364 0 2.743-1.065 2.743-3.45 0-2.09-1.084-3.493-2.698-3.493-1.315 0-2.72.924-2.72 3.518zm3.368-6.57c3.298 0 5.515 2.612 5.515 6.5 0 3.827-2.336 6.498-5.675 6.498-1.592 0-2.612-.682-3.145-1.175.004.117.006.248.006.388v5.189H1.438V23.976c0-.201-.064-.265-.263-.265H0v-3.027h2.866c1.32 0 1.658.671 1.722 1.19.536-.601 1.647-1.471 3.565-1.471z"/></g></svg>