<svg xmlns="http://www.w3.org/2000/svg" width="143" height="50" viewBox="0 0 143 50">
  <g fill="none" fill-rule="evenodd" transform="translate(0 15)">
    <path fill="#4E2817" fill-rule="nonzero" d="M28.4722222 18.3611111C26.4722222 18.3611111 24.6388889 18.1388889 23.0277778 16.5277778L25.1111111 14.4444444C26.1666667 15.5 27.5277778 15.6388889 28.5277778 15.6388889 29.6388889 15.6388889 30.7777778 15.2777778 30.7777778 14.3055556 30.7777778 13.6666667 30.4444444 13.2222222 29.4166667 13.1388889L27.4166667 12.9444444C25.1111111 12.7222222 23.6944444 11.7222222 23.6944444 9.36111111 23.6944444 6.72222222 26.0277778 5.27777778 28.6388889 5.27777778 30.6388889 5.27777778 32.3055556 5.61111111 33.5277778 6.77777778L31.5555556 8.77777778C30.8055556 8.11111111 29.6944444 7.91666667 28.5833333 7.91666667 27.3055556 7.91666667 26.7777778 8.5 26.7777778 9.13888889 26.7777778 9.61111111 26.9722222 10.1388889 28.1111111 10.25L30.1111111 10.4444444C32.6388889 10.6944444 33.9166667 12.0277778 33.9166667 14.1944444 33.9166667 17.0277778 31.5 18.3611111 28.4722222 18.3611111zM39.4722222 18.2222222C36.8611111 18.2222222 35.7777778 16.3888889 35.7777778 14.5555556L35.7777778 8.22222222 34.4166667 8.22222222 34.4166667 5.80555556 35.7777778 5.80555556 35.7777778 2.02777778 38.9722222 2.02777778 38.9722222 5.80555556 41.2222222 5.80555556 41.2222222 8.22222222 38.9722222 8.22222222 38.9722222 14.3611111C38.9722222 15.0833333 39.3055556 15.5277778 40.0833333 15.5277778L41.25 15.5277778 41.25 18.2222222 39.4722222 18.2222222 39.4722222 18.2222222zM42.6388889 3.25L42.6388889.638888889 45.9166667.638888889 45.9166667 3.25 42.6388889 3.25zM42.6944444 18.2222222L42.6944444 5.44444444 45.8888889 5.44444444 45.8888889 18.2222222 42.6944444 18.2222222zM53.0833333 18.3611111C50.5277778 18.3611111 47.3611111 17 47.3611111 11.8055556 47.3611111 6.63888889 50.5277778 5.27777778 53.0833333 5.27777778 54.8611111 5.27777778 56.1666667 5.80555556 57.3055556 7L55.1388889 9.16666667C54.4722222 8.44444444 53.9166667 8.16666667 53.0833333 8.16666667 52.3333333 8.16666667 51.7222222 8.44444444 51.2777778 9 50.7777778 9.61111111 50.5555556 10.4722222 50.5555556 11.8333333 50.5555556 13.1944444 50.7777778 14.0555556 51.2777778 14.6944444 51.75 15.25 52.3333333 15.5277778 53.0833333 15.5277778 53.9166667 15.5277778 54.4722222 15.2222222 55.1388889 14.5277778L57.3055556 16.6666667C56.1666667 17.8055556 54.8611111 18.3611111 53.0833333 18.3611111z"/>
    <polygon fill="#4E2817" fill-rule="nonzero" points="66.111 18.222 62.972 12.889 61.611 14.417 61.611 18.222 58.417 18.222 58.417 .75 61.611 .75 61.611 10.667 65.861 5.444 69.722 5.444 65.167 10.611 70.083 18.25 66.111 18.25"/>
    <path fill="#4E2817" fill-rule="nonzero" d="M72.7222222 12.8055556C72.7222222 14.4444444 73.7222222 15.6388889 75.5277778 15.6388889 76.9166667 15.6388889 77.6111111 15.25 78.4166667 14.4444444L80.3611111 16.3333333C79.0555556 17.6388889 77.8055556 18.3333333 75.5 18.3333333 72.4722222 18.3333333 69.5833333 16.9722222 69.5833333 11.7777778 69.5833333 7.61111111 71.8333333 5.25 75.1666667 5.25 78.7222222 5.25 80.75 7.86111111 80.75 11.3611111L80.75 12.7777778 72.7222222 12.7777778 72.7222222 12.8055556zM77.3055556 9.25C76.9722222 8.5 76.25 7.91666667 75.1666667 7.91666667 74.0833333 7.91666667 73.3611111 8.47222222 73.0277778 9.25 72.8333333 9.72222222 72.75 10.0555556 72.7222222 10.6111111L77.5833333 10.6111111C77.5555556 10.0555556 77.5 9.72222222 77.3055556 9.25zM89.1944444 8.91666667C88.6944444 8.41666667 88.2777778 8.16666667 87.5 8.16666667 86.5277778 8.16666667 85.4444444 8.91666667 85.4444444 10.5277778L85.4444444 18.2222222 82.25 18.2222222 82.25 5.44444444 85.3611111 5.44444444 85.3611111 6.66666667C85.9722222 5.91666667 87.1944444 5.30555556 88.5833333 5.30555556 89.8333333 5.30555556 90.7222222 5.61111111 91.6111111 6.5L89.1944444 8.91666667z"/>
    <path fill="#4E2817" d="M13.1944444,19.6388889 C13,19.7222222 12.75,19.6944444 12.5,19.7222222 C12.2777778,19.7222222 11.9722222,19.7222222 11.8333333,19.6111111 C11.75,19.5555556 11.75,19.4166667 11.75,19.3333333 C11.75,19.25 11.7777778,19.1111111 11.7777778,19.0277778 C11.8055556,18.9166667 11.8333333,18.75 11.7777778,18.6666667 C11.7222222,18.5833333 11.5277778,18.6111111 11.4166667,18.5555556 C11.3055556,18.5 11.2777778,18.3333333 11.25,18.1666667 C11.25,18.1111111 11.1944444,18.0555556 11.1944444,18.0277778 C11.1666667,17.7777778 11.25,17.4166667 11.3055556,17.1666667 C11.3611111,16.8888889 11.4444444,16.6388889 11.5,16.3611111 C11.5833333,15.9722222 11.5833333,15.5277778 11.5555556,15.1111111 C11.5555556,14.8888889 11.5,14.7222222 11.5555556,14.5555556 C11.5833333,14.3888889 11.6666667,14.25 11.6944444,14.0833333 C11.6944444,14.0277778 11.6944444,13.9722222 11.6944444,13.9166667 C11.6944444,13.8611111 11.7222222,13.8333333 11.7222222,13.7777778 C11.7222222,13.6666667 11.6944444,13.5277778 11.6944444,13.3888889 C11.6666667,13.0277778 11.6944444,12.5 11.7222222,12.1944444 C11.7222222,12.0833333 11.7777778,11.9722222 11.6944444,11.9166667 C11.3055556,11.9166667 10.9722222,11.9722222 10.6111111,12.0277778 C9.66666667,12.1388889 8.44444444,12.1666667 7.52777778,11.9722222 C7.44444444,11.9444444 7.36111111,11.9444444 7.27777778,11.9444444 C6.61111111,11.8055556 6.02777778,11.5 5.55555556,11.1388889 C5.47222222,11.0833333 5.38888889,11.0277778 5.30555556,10.9444444 C5.22222222,10.8888889 5.13888889,10.8055556 5.05555556,10.75 C4.69444444,10.5833333 4.19444444,10.7777778 4.02777778,11.0277778 C3.97222222,11.1111111 3.91666667,11.25 3.86111111,11.3611111 C3.80555556,11.4722222 3.75,11.5833333 3.72222222,11.6944444 C3.47222222,12.25 3.19444444,12.8055556 2.94444444,13.3611111 C2.80555556,13.6944444 2.63888889,14.0555556 2.52777778,14.4166667 C2.30555556,15.1944444 2.5,16.2222222 2.69444444,16.9722222 C2.72222222,17.0277778 2.75,17.1111111 2.77777778,17.1944444 C2.83333333,17.3611111 2.94444444,17.6111111 3.08333333,17.7222222 C3.16666667,17.7777778 3.27777778,17.8333333 3.36111111,17.8888889 C3.47222222,17.9722222 3.52777778,18.1388889 3.61111111,18.3055556 C3.63888889,18.3611111 3.69444444,18.4444444 3.72222222,18.5277778 C3.80555556,18.6944444 3.86111111,18.8333333 3.66666667,18.9444444 C3.52777778,19.0277778 3.30555556,19.0277778 3.11111111,19.0555556 C3.02777778,19.0833333 3.05555556,19.1944444 3,19.25 C2.97222222,19.2777778 2.83333333,19.3333333 2.77777778,19.3611111 C2.52777778,19.4444444 2.08333333,19.4444444 1.88888889,19.3611111 C1.77777778,19.3333333 1.66666667,19.25 1.63888889,19.1666667 C1.58333333,19 1.72222222,18.8055556 1.61111111,18.6944444 C1.55555556,18.6388889 1.44444444,18.6388889 1.36111111,18.6111111 C1.22222222,18.5555556 1.11111111,18.4166667 1.02777778,18.2777778 C0.888888889,17.8888889 0.972222222,17.3055556 0.944444444,16.8333333 C0.944444444,16.6944444 0.916666667,16.5555556 0.916666667,16.3888889 C0.916666667,16.1111111 0.833333333,15.8333333 0.805555556,15.5555556 C0.777777778,15.4166667 0.75,15.3055556 0.722222222,15.1944444 C0.666666667,15 0.638888889,14.7777778 0.583333333,14.5833333 C0.527777778,14.3611111 0.527777778,14.1388889 0.583333333,13.9722222 C0.611111111,13.9166667 0.666666667,13.8611111 0.694444444,13.8055556 C0.75,13.6944444 0.75,13.5833333 0.75,13.4722222 C0.722222222,13.4166667 0.583333333,13.4722222 0.555555556,13.4166667 C0.472222222,12.8055556 0.388888889,12.2222222 0.333333333,11.5833333 C0.305555556,11.3611111 0.305555556,11.1666667 0.305555556,10.9444444 C0.277777778,10.5277778 0.305555556,10.0833333 0.25,9.66666667 C0.222222222,9.47222222 0.194444444,9.27777778 0.166666667,9.08333333 C0.0833333333,8.52777778 -0.0555555556,7.83333333 0.0555555556,7.25 C0.138888889,6.88888889 0.25,6.58333333 0.472222222,6.30555556 C0.611111111,6.11111111 0.777777778,5.94444444 0.944444444,5.75 C1.11111111,5.58333333 1.30555556,5.41666667 1.5,5.27777778 C1.63888889,5.19444444 1.77777778,5.08333333 1.91666667,5 C2.22222222,4.86111111 2.63888889,4.72222222 3.08333333,4.69444444 C3.52777778,4.66666667 4.02777778,4.66666667 4.44444444,4.75 C4.86111111,4.83333333 5.27777778,4.88888889 5.69444444,4.97222222 C6.08333333,5.05555556 6.47222222,5.16666667 6.86111111,5.25 C6.91666667,5.25 6.94444444,5.30555556 7,5.30555556 C7.11111111,5.33333333 7.25,5.33333333 7.38888889,5.38888889 C7.75,5.47222222 8.19444444,5.52777778 8.63888889,5.52777778 C9.11111111,5.52777778 9.52777778,5.52777778 9.91666667,5.41666667 C9.97222222,5.38888889 10.0277778,5.36111111 10.0833333,5.36111111 C10.1388889,5.33333333 10.2222222,5.33333333 10.2777778,5.33333333 C10.3055556,5.33333333 10.3611111,5.27777778 10.3888889,5.25 C10.6111111,5.13888889 10.8055556,5.02777778 11,4.88888889 C11.1666667,4.77777778 11.2777778,4.69444444 11.5,4.61111111 C11.5833333,4.58333333 11.6944444,4.52777778 11.7777778,4.5 C11.9722222,4.44444444 12.1944444,4.38888889 12.3333333,4.27777778 C12.5833333,4.13888889 12.75,3.91666667 12.9444444,3.72222222 C13.1388889,3.55555556 13.3611111,3.36111111 13.5833333,3.19444444 C14.0277778,2.83333333 14.4722222,2.52777778 14.8888889,2.19444444 C15.1111111,2.02777778 15.3333333,1.86111111 15.5833333,1.72222222 C16.0555556,1.44444444 16.5555556,1.13888889 17.25,1.08333333 C17.5277778,1.05555556 17.8055556,1.05555556 18.0833333,1.08333333 C18.1666667,1.08333333 18.25,1.13888889 18.3333333,1.11111111 C18.4166667,1.08333333 18.4722222,0.972222222 18.5,0.888888889 C18.6111111,0.694444444 18.6666667,0.583333333 18.7777778,0.361111111 C18.8333333,0.222222222 18.8055556,0.0833333333 18.9444444,0.0833333333 C19.0833333,0.0833333333 19.0555556,0.444444444 19.0555556,0.583333333 C19.0555556,0.75 19.0277778,0.972222222 19.0555556,1.08333333 C19.0833333,1.16666667 19.1944444,1.27777778 19.3055556,1.27777778 C19.3888889,1.27777778 19.4444444,1.22222222 19.5,1.16666667 C19.5833333,1.11111111 19.6388889,1.11111111 19.6944444,1.05555556 C19.8055556,0.972222222 19.9444444,0.833333333 20.0555556,0.722222222 C20.1388889,0.638888889 20.3055556,0.388888889 20.4444444,0.416666667 C20.7222222,0.444444444 20.4444444,0.861111111 20.3888889,0.972222222 C20.25,1.27777778 20.1111111,1.52777778 19.9444444,1.80555556 C19.8888889,1.91666667 19.7222222,2.08333333 19.7222222,2.22222222 C19.7222222,2.30555556 19.8055556,2.36111111 19.8333333,2.47222222 C19.8611111,2.52777778 19.8611111,2.55555556 19.8888889,2.61111111 C19.9722222,2.83333333 20.0555556,3.13888889 20.1388889,3.38888889 C20.1944444,3.61111111 20.25,3.83333333 20.3333333,4.02777778 C20.4166667,4.22222222 20.5277778,4.41666667 20.6111111,4.63888889 C20.6388889,4.69444444 20.6388889,4.75 20.6666667,4.80555556 C20.8333333,5.25 21,5.75 21.2222222,6.19444444 C21.3055556,6.36111111 21.4166667,6.58333333 21.4166667,6.83333333 C21.4166667,7.11111111 21.2777778,7.25 21.1388889,7.47222222 C21.0833333,7.58333333 20.9722222,7.75 20.8611111,7.77777778 C20.7777778,7.80555556 20.6944444,7.77777778 20.6111111,7.77777778 C20.5,7.80555556 20.4166667,7.86111111 20.3333333,7.86111111 C20.0833333,7.88888889 19.8333333,7.69444444 19.7777778,7.5 C19.75,7.44444444 19.7777778,7.36111111 19.75,7.27777778 C19.6944444,6.97222222 19.5277778,6.83333333 19.3333333,6.61111111 C19.1944444,6.47222222 19.0833333,6.38888889 18.9166667,6.30555556 C18.6666667,6.16666667 18.4166667,6.11111111 18.1388889,5.97222222 C18.0555556,5.91666667 17.9166667,5.86111111 17.8333333,5.88888889 C17.6944444,5.91666667 17.5555556,6.13888889 17.4444444,6.27777778 C16.7777778,7.16666667 16.1666667,8.08333333 15.5277778,8.94444444 C15.0833333,9.52777778 14.6388889,10.1111111 14.2777778,10.75 C14.1944444,10.9166667 14.1388889,11.1111111 14.0555556,11.3055556 C14,11.5 13.9444444,11.6944444 13.8888889,11.9166667 C13.6388889,12.6388889 13.5555556,13.5277778 13.3333333,14.2777778 C13.3055556,14.3611111 13.3055556,14.4444444 13.2777778,14.5277778 C13.1666667,14.9166667 13.0555556,15.3611111 12.9444444,15.7777778 C12.8611111,16.0833333 12.8333333,16.5 12.8055556,16.8888889 C12.8055556,17.2777778 12.7777778,17.8055556 12.9166667,18.0277778 C13,18.1666667 13.25,18.1944444 13.3333333,18.3333333 C13.3888889,18.4166667 13.4444444,18.6111111 13.5277778,18.7222222 C13.5833333,18.8055556 13.7222222,18.9722222 13.6944444,19.1111111 C13.6944444,19.1944444 13.6111111,19.2777778 13.5277778,19.3055556 C13.4444444,19.3333333 13.3333333,19.3333333 13.25,19.3611111 C13.25,19.4722222 13.2777778,19.5833333 13.1944444,19.6388889 Z"/>
    <path fill="#F26922" fill-rule="nonzero" d="M105.944444 5.27777778C104.361111 5.27777778 103.194444 5.77777778 102.111111 6.88888889 101.305556 5.77777778 100.138889 5.27777778 98.7222222 5.27777778 97.5555556 5.27777778 96.3611111 5.75 95.5277778 6.61111111L95.5277778 5.44444444 92.4166667 5.44444444 92.4166667 18.2222222 95.6111111 18.2222222 95.6111111 10.5C95.6111111 8.75 96.75 8.16666667 97.75 8.16666667 98.75 8.16666667 99.8611111 8.75 99.8611111 10.5L99.8611111 18.2222222 103.055556 18.2222222 103.055556 10.4166667C103.055556 8.75 104.222222 8.16666667 105.194444 8.16666667 106.194444 8.16666667 107.305556 8.75 107.305556 10.5L107.305556 18.2222222 110.5 18.2222222 110.5 10.0555556C110.5 8.66666667 110.138889 7.44444444 109.111111 6.41666667 108.361111 5.69444444 107.222222 5.27777778 105.944444 5.27777778zM119.805556 13.1666667C119.805556 14.9166667 118.666667 15.5 117.666667 15.5 116.666667 15.5 115.555556 14.9166667 115.555556 13.1666667L115.555556 5.41666667 112.361111 5.41666667 112.361111 13.6111111C112.361111 15 112.638889 16.2222222 113.666667 17.25 114.388889 17.9722222 115.416667 18.3888889 116.694444 18.3888889 117.861111 18.3888889 119.055556 17.9444444 119.888889 17.0555556L119.888889 18.2222222 123 18.2222222 123 5.44444444 119.805556 5.44444444 119.805556 13.1666667 119.805556 13.1666667zM128.222222 14.3611111L128.222222.75 125.027778.75 125.027778 14.5555556C125.027778 16.3611111 126.138889 18.2222222 128.75 18.2222222L130.555556 18.2222222 130.555556 15.5277778 129.333333 15.5277778C128.527778 15.5277778 128.222222 15.1388889 128.222222 14.3611111zM142.277778 11.3888889C142.277778 7.88888889 140.277778 5.27777778 136.694444 5.27777778 133.388889 5.27777778 131.111111 7.63888889 131.111111 11.8055556 131.111111 16.9722222 134 18.3611111 137.027778 18.3611111 139.333333 18.3611111 140.583333 17.6388889 141.888889 16.3611111L139.944444 14.4722222C139.138889 15.2777778 138.444444 15.6666667 137.055556 15.6666667 135.25 15.6666667 134.25 14.4722222 134.25 12.8333333L142.25 12.8333333 142.25 11.3888889 142.277778 11.3888889zM134.277778 10.6388889C134.305556 10.0833333 134.388889 9.72222222 134.583333 9.27777778 134.916667 8.52777778 135.638889 7.94444444 136.722222 7.94444444 137.805556 7.94444444 138.5 8.5 138.861111 9.27777778 139.055556 9.75 139.138889 10.0833333 139.166667 10.6388889L134.277778 10.6388889z"/>
  </g>
</svg>
