<svg xmlns="http://www.w3.org/2000/svg" width="143" height="50" viewBox="0 0 143 50"><g fill="none" fill-rule="evenodd"><path fill="#4E2817" fill-rule="nonzero" d="M28.472 33.361c-2 0-3.833-.222-5.444-1.833l2.083-2.084c1.056 1.056 2.417 1.195 3.417 1.195 1.11 0 2.25-.361 2.25-1.333 0-.64-.334-1.084-1.361-1.167l-2-.195c-2.306-.222-3.723-1.222-3.723-3.583 0-2.639 2.334-4.083 4.945-4.083 2 0 3.667.333 4.889 1.5l-1.972 2c-.75-.667-1.862-.861-2.973-.861-1.277 0-1.805.583-1.805 1.222 0 .472.194 1 1.333 1.111l2 .194c2.528.25 3.806 1.584 3.806 3.75 0 2.834-2.417 4.167-5.445 4.167zm11-.139c-2.61 0-3.694-1.833-3.694-3.666v-6.334h-1.361v-2.416h1.36v-3.778h3.195v3.778h2.25v2.416h-2.25v6.14c0 .721.334 1.166 1.111 1.166h1.167v2.694h-1.778zM42.64 18.25v-2.611h3.278v2.611H42.64zm.055 14.972V20.444h3.195v12.778h-3.195zm10.39.14c-2.556 0-5.723-1.362-5.723-6.556 0-5.167 3.167-6.528 5.722-6.528 1.778 0 3.084.528 4.223 1.722l-2.167 2.167c-.667-.723-1.222-1-2.056-1-.75 0-1.36.277-1.805.833-.5.611-.722 1.472-.722 2.833 0 1.361.222 2.223.722 2.861.472.556 1.055.834 1.805.834.834 0 1.39-.306 2.056-1l2.167 2.139c-1.14 1.139-2.445 1.694-4.223 1.694zm13.026-.14l-3.139-5.333-1.361 1.528v3.805h-3.194V15.75h3.194v9.917l4.25-5.223h3.861l-4.555 5.167 4.916 7.639h-3.972z"/><path fill="#4E2817" fill-rule="nonzero" d="M72.722 27.806c0 1.638 1 2.833 2.806 2.833 1.389 0 2.083-.389 2.889-1.195l1.944 1.89c-1.305 1.305-2.555 2-4.861 2-3.028 0-5.917-1.362-5.917-6.556 0-4.167 2.25-6.528 5.584-6.528 3.555 0 5.583 2.611 5.583 6.111v1.417h-8.028v.028zm4.584-3.556c-.334-.75-1.056-1.333-2.14-1.333-1.083 0-1.805.555-2.138 1.333a3.618 3.618 0 00-.306 1.361h4.861c-.027-.555-.083-.889-.277-1.361zm11.888-.333c-.5-.5-.916-.75-1.694-.75-.972 0-2.056.75-2.056 2.36v7.695H82.25V20.444h3.111v1.223c.611-.75 1.833-1.361 3.222-1.361 1.25 0 2.14.305 3.028 1.194l-2.417 2.417z"/><path fill="#4E2817" d="M13.194 34.639c-.194.083-.444.055-.694.083-.222 0-.528 0-.667-.11-.083-.056-.083-.195-.083-.279 0-.083.028-.222.028-.305.028-.111.055-.278 0-.361-.056-.084-.25-.056-.361-.111-.111-.056-.14-.223-.167-.39 0-.055-.056-.11-.056-.138-.027-.25.056-.611.112-.861.055-.278.138-.528.194-.806.083-.389.083-.833.056-1.25 0-.222-.056-.389 0-.555.027-.167.11-.306.138-.473v-.166c0-.056.028-.084.028-.14 0-.11-.028-.25-.028-.388-.027-.361 0-.889.028-1.195 0-.11.056-.222-.028-.277-.388 0-.722.055-1.083.11-.944.112-2.167.14-3.083-.055-.084-.028-.167-.028-.25-.028a4.297 4.297 0 01-1.722-.805c-.084-.056-.167-.111-.25-.195-.084-.055-.167-.138-.25-.194-.362-.167-.862.028-1.028.278-.056.083-.111.222-.167.333-.055.111-.111.222-.139.333-.25.556-.528 1.112-.778 1.667-.138.333-.305.695-.416 1.056-.222.777-.028 1.805.166 2.555.028.056.056.14.084.222.055.167.166.417.305.528.084.056.195.111.278.167.111.083.167.25.25.417.028.055.083.138.111.222.084.166.14.305-.055.416-.14.084-.361.084-.556.112-.083.027-.055.138-.111.194-.028.028-.167.083-.222.111-.25.083-.695.083-.89 0-.11-.028-.221-.111-.25-.194-.055-.167.084-.361-.027-.473-.055-.055-.167-.055-.25-.083-.139-.055-.25-.194-.333-.333-.14-.39-.056-.972-.084-1.445 0-.139-.027-.277-.027-.444 0-.278-.084-.556-.111-.833-.028-.14-.056-.25-.084-.362-.055-.194-.083-.416-.139-.61a1.136 1.136 0 010-.612c.028-.055.084-.11.111-.166.056-.112.056-.223.056-.334-.028-.055-.167 0-.194-.055-.084-.611-.167-1.195-.223-1.834-.027-.222-.027-.416-.027-.639-.028-.416 0-.86-.056-1.277l-.083-.584c-.084-.555-.223-1.25-.111-1.833.083-.361.194-.667.416-.944.14-.195.306-.362.472-.556.167-.167.362-.333.556-.472.139-.084.278-.195.417-.278a3.41 3.41 0 011.166-.306c.445-.027.945-.027 1.361.056.417.083.834.139 1.25.222.39.084.778.195 1.167.278.056 0 .083.056.139.056.111.027.25.027.389.083.361.083.805.139 1.25.139.472 0 .889 0 1.278-.111a.395.395 0 01.166-.056c.056-.028.14-.028.195-.028.028 0 .083-.055.11-.083.223-.111.418-.222.612-.361.167-.111.278-.195.5-.278.083-.028.194-.083.278-.111.194-.056.416-.111.555-.222.25-.14.417-.361.611-.556.195-.166.417-.36.64-.528.444-.36.888-.666 1.305-1 .222-.166.444-.333.694-.472.473-.278.973-.583 1.667-.639.278-.027.556-.027.833 0 .084 0 .167.056.25.028.084-.028.14-.139.167-.222a9.43 9.43 0 00.278-.528c.055-.139.028-.278.166-.278.14 0 .112.361.112.5 0 .167-.028.39 0 .5.027.084.138.195.25.195.083 0 .138-.056.194-.111.083-.056.139-.056.194-.111.112-.084.25-.223.362-.334.083-.083.25-.333.388-.305.278.027 0 .444-.055.555a7.918 7.918 0 01-.445.834c-.055.11-.222.277-.222.416 0 .084.084.14.111.25.028.056.028.084.056.14.083.221.167.527.25.777.055.222.111.444.194.639.084.194.195.389.278.61.028.056.028.112.056.168.166.444.333.944.555 1.388.084.167.195.39.195.64 0 .277-.14.416-.278.638-.056.111-.167.278-.278.306-.083.028-.167 0-.25 0-.111.028-.194.083-.278.083a.555.555 0 01-.555-.361c-.028-.056 0-.139-.028-.222-.056-.306-.222-.445-.417-.667a1.465 1.465 0 00-.416-.305c-.25-.14-.5-.195-.778-.334-.083-.055-.222-.11-.306-.083-.139.028-.277.25-.389.389-.666.889-1.277 1.805-1.916 2.666-.445.584-.89 1.167-1.25 1.806-.084.167-.14.361-.222.556-.056.194-.112.388-.167.61-.25.723-.333 1.612-.556 2.362-.027.083-.027.166-.055.25-.111.389-.222.833-.334 1.25-.083.305-.11.722-.138 1.11 0 .39-.028.918.11 1.14.084.139.334.166.417.305.056.084.111.278.195.39.055.083.194.25.166.388 0 .083-.083.167-.166.195-.084.027-.195.027-.278.055 0 .111.028.222-.056.278z"/><path fill="#F26922" fill-rule="nonzero" d="M105.944 20.278c-1.583 0-2.75.5-3.833 1.61-.805-1.11-1.972-1.61-3.389-1.61-1.166 0-2.36.472-3.194 1.333v-1.167h-3.111v12.778h3.194V25.5c0-1.75 1.139-2.333 2.139-2.333 1 0 2.111.583 2.111 2.333v7.722h3.195v-7.805c0-1.667 1.166-2.25 2.138-2.25 1 0 2.112.583 2.112 2.333v7.722h3.194v-8.166c0-1.39-.361-2.612-1.389-3.64-.75-.722-1.889-1.138-3.167-1.138zm13.862 7.889c0 1.75-1.14 2.333-2.14 2.333-1 0-2.11-.583-2.11-2.333v-7.75h-3.195v8.194c0 1.389.278 2.611 1.306 3.639.722.722 1.75 1.139 3.027 1.139 1.167 0 2.362-.445 3.195-1.333v1.166H123V20.444h-3.194v7.723zm8.416 1.194V15.75h-3.194v13.806c0 1.805 1.11 3.666 3.722 3.666h1.806v-2.694h-1.223c-.805 0-1.11-.39-1.11-1.167zm14.056-2.972c0-3.5-2-6.111-5.584-6.111-3.305 0-5.583 2.36-5.583 6.528 0 5.166 2.889 6.555 5.917 6.555 2.305 0 3.555-.722 4.86-2l-1.944-1.889c-.805.806-1.5 1.195-2.888 1.195-1.806 0-2.806-1.195-2.806-2.834h8V26.39h.028zm-8-.75c.028-.556.11-.917.305-1.361.334-.75 1.056-1.334 2.14-1.334 1.083 0 1.777.556 2.138 1.334.195.472.278.805.306 1.36h-4.89z"/></g></svg>