<svg xmlns="http://www.w3.org/2000/svg" width="130" height="60" viewBox="0 0 130 60"><path d="M48.484 38.647h-3.206V27.008h-4.145v-2.813H52.63v2.813h-4.146v11.639m13.739 0h3.224V24.195h-3.224zm60.13-2.851h5.577v2.852h-8.802V24.196h3.225v11.6m-46.17-11.601h5.223c3.854 0 7.69 2.09 7.69 7.188 0 4.804-3.76 7.264-7.5 7.264h-5.413V24.195zm3.128 11.62h2c2.69 0 4.484-1.718 4.484-4.452 0-2.598-1.813-4.355-4.408-4.355H79.31v8.806zm27.68 2.832h3.545l-5.816-14.452h-3.329L95.52 38.647h3.447l1.041-2.851h5.954l1.03 2.851zm-6.12-5.418l2.127-5.653 2.107 5.653h-4.234zm-81.299-6.928l-4.132 4.231-4.133-4.231 4.133-4.228 4.132 4.228m0 8.461l-4.132 4.23-4.133-4.23 4.133-4.23 4.132 4.23m-8.265-8.461l-4.133 4.231-4.131-4.231 4.131-4.229 4.133 4.229m16.53 0l-4.132 4.231-4.133-4.231 4.133-4.229 4.132 4.229" fill="#354254" fill-rule="evenodd"/></svg>