<svg xmlns="http://www.w3.org/2000/svg" width="132" height="60" viewBox="0 0 132 60"><path fill="#354254" fill-rule="evenodd" d="M13.228 22.55h8.489V16h-8.489v6.55zm97.498 9.81s-1.054-.22-1.702-.357c-.647-.136-1.048-.477-1.048-1.049 0-.668.583-1.169 1.398-1.169 1.144 0 1.597.605 1.708 1.311h2.672c-.021-1.607-1.269-3.72-4.334-3.72-2.47 0-4.286 1.742-4.286 3.84 0 1.646 1.002 3.005 3.214 3.506l1.586.358c.886.191 1.235.62 1.235 1.145 0 .62-.56 1.168-1.586 1.168-1.237 0-1.907-.72-2.066-1.554h-2.754c.154 1.752 1.396 3.987 4.843 3.987 3.005 0 4.521-1.956 4.521-3.863 0-1.718-1.141-3.125-3.4-3.602zm11.015-4.935c-1.095 0-2.353.38-3.1 1.285l.006-6.151h-3.099l-.012 16.905 3.098.003.005-6.893c.07-1.288.84-2.289 2.144-2.288 1.491.001 2.12 1.027 2.119 2.34l-.005 6.844 3.098.002.005-7.393c.002-2.576-1.348-4.652-4.26-4.654zM87.002 39.469H90.1v-16.91h-3.098v16.91zm13.301-5.868c0-2.075-1.281-3.29-2.865-3.29-1.584 0-2.842 1.215-2.842 3.29 0 2.099 1.258 3.316 2.842 3.316s2.865-1.24 2.865-3.316zm.047-5.867h3.004V39.47h-3.098v-1.427c-.53.94-1.723 1.712-3.307 1.712-3.238 0-5.404-2.623-5.404-6.177 0-3.482 1.933-6.105 5.287-6.105 1.724 0 2.97.818 3.518 1.717v-1.455zm-17.844 5.867c0-2.075-1.258-3.29-2.842-3.29S76.8 31.525 76.8 33.6s1.281 3.316 2.865 3.316c1.584 0 2.842-1.217 2.842-3.316zm3.052-.024c0 3.554-2.167 6.177-5.404 6.177-1.584 0-2.749-.643-3.308-1.43V44h-3.098V27.734h3.005v1.455c.512-.906 1.793-1.717 3.517-1.717 3.354 0 5.288 2.623 5.288 6.105zm-16.583-1.216l-1.703-.358c-.648-.136-1.048-.477-1.048-1.049 0-.668.583-1.169 1.398-1.169 1.144 0 1.597.605 1.708 1.311h2.672c-.022-1.607-1.269-3.72-4.334-3.72-2.47 0-4.286 1.742-4.286 3.84 0 1.646 1.001 3.005 3.214 3.506l1.586.358c.886.191 1.235.62 1.235 1.145 0 .62-.561 1.168-1.586 1.168-1.237 0-1.907-.72-2.066-1.554h-2.754c.154 1.752 1.396 3.987 4.843 3.987 3.005 0 4.521-1.956 4.521-3.863 0-1.718-1.141-3.125-3.4-3.602zm-11.369-4.937c-1.234 0-2.609.549-3.308 1.765v-1.455h-3.004V39.47h3.098v-6.75c0-1.36.792-2.433 2.143-2.433 1.49 0 2.12 1.026 2.12 2.338v6.845h3.097v-7.394c0-2.576-1.304-4.65-4.146-4.65zm-11.471 5.678c0 2.218-1.429 3.528-3.386 3.528-1.91 0-3.362-1.31-3.362-3.528V22.559h-3.214v10.517c0 4.15 2.875 6.774 6.576 6.774 3.73 0 6.6-2.624 6.6-6.774V22.56h-3.214v10.543zM21.717 26.39h7.228v13.098H6V26.39h7.228v6.55h8.489v-6.55z"/></svg>