<svg xmlns="http://www.w3.org/2000/svg" width="148" height="76" viewBox="0 0 148 76"><path fill="#354254" fill-rule="evenodd" d="M13.372 29.485h9.833V22h-9.833v7.485zm112.936 11.213l-1.972-.408c-.75-.156-1.214-.545-1.214-1.2 0-.763.676-1.335 1.62-1.335 1.324 0 1.85.69 1.977 1.498h3.096c-.025-1.837-1.47-4.251-5.02-4.251-2.86 0-4.965 1.99-4.965 4.388 0 1.88 1.16 3.434 3.724 4.007l1.837.409c1.025.218 1.43.708 1.43 1.308 0 .709-.65 1.335-1.838 1.335-1.432 0-2.209-.822-2.392-1.776h-3.19c.177 2.003 1.616 4.557 5.61 4.557 3.48 0 5.236-2.235 5.236-4.416 0-1.962-1.322-3.57-3.939-4.116zm12.758-5.64c-1.268-.002-2.725.433-3.59 1.468l.006-7.03h-3.589l-.014 19.32 3.588.003.006-7.877c.083-1.472.973-2.616 2.484-2.615 1.728.001 2.455 1.174 2.454 2.673l-.006 7.823 3.589.002.006-8.449c.002-2.944-1.56-5.316-4.934-5.319zM98.827 48.82h3.59V29.496h-3.59V48.82zm15.407-6.705c0-2.371-1.484-3.762-3.318-3.762-1.835 0-3.292 1.39-3.292 3.762 0 2.398 1.457 3.789 3.292 3.789 1.834 0 3.318-1.418 3.318-3.79zm.054-6.705h3.48v13.41h-3.588v-1.63c-.613 1.074-1.996 1.957-3.831 1.957-3.75 0-6.26-2.998-6.26-7.06 0-3.979 2.24-6.977 6.125-6.977 1.997 0 3.44.935 4.074 1.962V35.41zM93.62 42.116c0-2.371-1.457-3.762-3.292-3.762-1.835 0-3.319 1.39-3.319 3.762 0 2.371 1.484 3.789 3.319 3.789s3.292-1.39 3.292-3.79zm3.534-.027c0 4.06-2.509 7.059-6.26 7.059-1.834 0-3.183-.736-3.83-1.635V54h-3.59V35.41h3.481v1.663c.594-1.036 2.078-1.962 4.075-1.962 3.885 0 6.124 2.998 6.124 6.978zm-19.208-1.39l-1.973-.41c-.75-.155-1.214-.544-1.214-1.199 0-.763.676-1.335 1.62-1.335 1.325 0 1.85.69 1.978 1.498h3.096c-.026-1.837-1.47-4.251-5.02-4.251-2.86 0-4.966 1.99-4.966 4.388 0 1.88 1.16 3.434 3.724 4.007l1.837.409c1.025.218 1.43.708 1.43 1.308 0 .709-.65 1.335-1.837 1.335-1.433 0-2.21-.822-2.393-1.776h-3.19c.178 2.003 1.617 4.557 5.61 4.557 3.48 0 5.237-2.235 5.237-4.416 0-1.962-1.323-3.57-3.94-4.116zm-13.169-5.643c-1.43 0-3.022.627-3.831 2.017v-1.662h-3.48v13.41h3.588v-7.714c0-1.554.917-2.78 2.482-2.78 1.727 0 2.455 1.172 2.455 2.672v7.822h3.589v-8.45c0-2.943-1.51-5.315-4.803-5.315zM51.49 41.545c0 2.535-1.655 4.032-3.922 4.032-2.212 0-3.895-1.497-3.895-4.032v-12.05H39.95v12.02c0 4.743 3.33 7.742 7.618 7.742 4.32 0 7.645-2.999 7.645-7.741v-12.02H51.49v12.049zm-28.285-7.67h8.372v14.969H5v-14.97h8.372v7.485h9.833v-7.485z"/></svg>