<svg xmlns="http://www.w3.org/2000/svg" xmlns:xlink="http://www.w3.org/1999/xlink" width="149" height="50" viewBox="0 0 149 50">
  <defs>
    <polygon id="wiw-logo-vero-a" points=".018 -.001 145.762 -.001 145.762 27.618 .018 27.618"/>
  </defs>
  <g fill="none" fill-rule="evenodd" transform="translate(0 12)">
    <path fill="#60605D" d="M50.1578848 20.1752303C50.1142303 20.3492545 50.0545394 20.4888303 49.9782182 20.5936606 49.9021939 20.6984909 49.7878606 20.7783758 49.6358121 20.8327212 49.4831697 20.8870667 49.2874667 20.923297 49.0484061 20.9414121 48.8087515 20.9592303 48.5043576 20.9684364 48.1343333 20.9684364 47.7209515 20.9684364 47.3892364 20.9592303 47.1388909 20.9414121 46.8888424 20.923297 46.6910606 20.8870667 46.5461394 20.8327212 46.4009212 20.7783758 46.2960909 20.6984909 46.2304606 20.5936606 46.1654242 20.4888303 46.1146424 20.3492545 46.0784121 20.1752303L43.8264909 11.2655455 43.8048121 11.2655455 41.6725697 20.1752303C41.6360424 20.3421273 41.5855576 20.4778424 41.5202242 20.5826727 41.4548909 20.6878 41.3515455 20.7694667 41.2101879 20.8270788 41.0685333 20.8852848 40.8766909 20.923297 40.6334727 20.9414121 40.3905515 20.9592303 40.0695273 20.9684364 39.670697 20.9684364 39.2498909 20.9684364 38.9149091 20.9592303 38.6645636 20.9414121 38.4142182 20.923297 38.2164364 20.8870667 38.0715152 20.8327212 37.926297 20.7783758 37.8214667 20.6984909 37.7561333 20.5936606 37.6908 20.4888303 37.6364545 20.3492545 37.5928 20.1752303L34.3944364 7.90800606C34.3294 7.64726667 34.2928727 7.44265455 34.2857455 7.2941697 34.2786182 7.14598182 34.3201939 7.03164848 34.4110667 6.95176364 34.5016424 6.87217576 34.6504242 6.82317576 34.8568182 6.80506061 35.0635091 6.78724242 35.3518667 6.77803636 35.7218909 6.77803636 36.0628121 6.77803636 36.3327576 6.78338182 36.5323212 6.7943697 36.7315879 6.80506061 36.8818545 6.8306 36.9837152 6.87039394 37.0852788 6.91018788 37.1538788 6.96809697 37.1904061 7.04412121 37.2266364 7.12044242 37.2557394 7.22735152 37.2774182 7.36484848L39.7470182 18.1326727 39.7577091 18.1326727 42.3250121 7.44087273C42.3541152 7.30337576 42.3921273 7.19082424 42.4393455 7.10381212 42.4865636 7.01709697 42.5661515 6.95027879 42.678703 6.90306061 42.7912545 6.85584242 42.9450848 6.82317576 43.1410848 6.80506061 43.3367879 6.78724242 43.5981212 6.77803636 43.9244909 6.77803636 44.2725394 6.77803636 44.5499091 6.78546061 44.756303 6.79971515 44.9632909 6.81426667 45.1224667 6.84515152 45.2353152 6.89207273 45.3478667 6.93929091 45.4292364 7.00640606 45.4800182 7.09312121 45.530503 7.18013333 45.5705939 7.29595152 45.599697 7.44087273L48.2540121 18.1326727 48.2759879 18.1326727 50.7452909 7.39721818C50.7669697 7.28169697 50.7957758 7.18191515 50.832303 7.09846667 50.8685333 7.01531515 50.9371333 6.95027879 51.0389939 6.90306061 51.1405576 6.85584242 51.2854788 6.82317576 51.4743515 6.80506061 51.6626303 6.78724242 51.9272303 6.77803636 52.2681515 6.77803636 52.5873939 6.77803636 52.8356606 6.78724242 53.0135455 6.80506061 53.1911333 6.82317576 53.3197212 6.87217576 53.3996061 6.95176364 53.4794909 7.03164848 53.5139394 7.14924848 53.5029515 7.30515758 53.4919636 7.46106667 53.4542485 7.67280606 53.3889152 7.94067273L50.1578848 20.1752303M63.9319333 20.5336727C63.9319333 20.6064303 63.9099576 20.6696848 63.8666 20.7240303 63.8229455 20.7783758 63.7504848 20.8238121 63.6489212 20.8597455 63.5473576 20.8959758 63.4077818 20.923297 63.229897 20.9414121 63.0523091 20.9592303 62.8331455 20.9684364 62.5718121 20.9684364 62.3036485 20.9684364 62.0806242 20.9592303 61.9030364 20.9414121 61.7251515 20.923297 61.5855758 20.8959758 61.4840121 20.8597455 61.3824485 20.8238121 61.3099879 20.7783758 61.2666303 20.7240303 61.2229758 20.6696848 61.201297 20.6064303 61.201297 20.5336727L61.201297 15.0032061C61.201297 14.5325091 61.1668485 14.1627818 61.0979515 13.8952121 61.0287576 13.6270485 60.9292727 13.396897 60.7986061 13.2050545 60.6682364 13.0132121 60.4995576 12.8644303 60.2928667 12.7596 60.0861758 12.6544727 59.8450364 12.6022061 59.5694485 12.6022061 59.2214 12.6022061 58.8694909 12.7287152 58.5143152 12.9823273 58.1588424 13.2359394 57.7891152 13.6053697 57.4045394 14.0906182L57.4045394 20.5336727C57.4045394 20.6064303 57.3828606 20.6696848 57.3392061 20.7240303 57.2958485 20.7783758 57.2213091 20.8238121 57.1161818 20.8597455 57.0110545 20.8959758 56.8714788 20.923297 56.6974545 20.9414121 56.5234303 20.9592303 56.3018909 20.9684364 56.0337273 20.9684364 55.7655636 20.9684364 55.5443212 20.9592303 55.370297 20.9414121 55.1962727 20.923297 55.0564 20.8959758 54.9515697 20.8597455 54.8461455 20.8238121 54.7722 20.7783758 54.7285455 20.7240303 54.6848909 20.6696848 54.6632121 20.6064303 54.6632121 20.5336727L54.6632121 7.24041818C54.6632121 7.16825455 54.6848909 7.10292121 54.7285455 7.04471515 54.7722 6.98680606 54.8461455 6.93780606 54.9515697 6.89830909 55.0564 6.85851515 55.1962727 6.8276303 55.370297 6.80595152 55.5443212 6.78397576 55.7655636 6.77328485 56.0337273 6.77328485 56.3018909 6.77328485 56.5234303 6.78397576 56.6974545 6.80595152 56.8714788 6.8276303 57.0110545 6.85851515 57.1161818 6.89830909 57.2213091 6.93780606 57.2958485 6.98680606 57.3392061 7.04471515 57.3828606 7.10292121 57.4045394 7.16825455 57.4045394 7.24041818L57.4045394 11.6023091C57.8758303 11.1387394 58.3563273 10.7927697 58.8460303 10.564697 59.3357333 10.3366242 59.8450364 10.2225879 60.3745333 10.2225879 61.034103 10.2225879 61.5909212 10.3309818 62.0443939 10.5483636 62.4975697 10.7657455 62.8640303 11.0627152 63.1431818 11.4392727 63.4223333 11.8161273 63.6236788 12.2562364 63.7469212 12.7596 63.8701636 13.2632606 63.9319333 13.8732364 63.9319333 14.5904182L63.9319333 20.5336727M74.8773455 15.405303C74.8773455 15.738503 74.803103 15.9849879 74.6543212 16.1441636 74.5055394 16.3033394 74.3006303 16.3832242 74.0395939 16.3832242L68.1325697 16.3832242C68.1325697 16.7960121 68.1815697 17.1707879 68.2792727 17.5075515 68.3772727 17.8446121 68.5331818 18.1308909 68.747297 18.3660909 68.9611152 18.6015879 69.236703 18.7806606 69.5740606 18.9042 69.9111212 19.0271455 70.3155939 19.0886182 70.7868848 19.0886182 71.2656 19.0886182 71.6864061 19.0544667 72.0487091 18.9855697 72.4113091 18.9166727 72.7252061 18.8403515 72.9898061 18.7572 73.254703 18.6740485 73.4738667 18.5980242 73.6481879 18.5291273 73.8222121 18.4602303 73.9635697 18.4260788 74.0725576 18.4260788 74.137297 18.4260788 74.1919394 18.4385515 74.2355939 18.4640909 74.2789515 18.4896303 74.3151818 18.5344727 74.3442848 18.600103 74.3730909 18.6651394 74.3932848 18.7572 74.4039758 18.8768788 74.4149636 18.9965576 74.4206061 19.1468242 74.4206061 19.3279758 74.4206061 19.4871515 74.4167455 19.6231636 74.4096182 19.7351212 74.4021939 19.8476727 74.391503 19.943297 74.3766545 20.0231818 74.362103 20.1030667 74.3404242 20.1698848 74.3116182 20.2242303 74.2828121 20.2782788 74.244503 20.3311394 74.1975818 20.3816242 74.1500667 20.4324061 74.0217758 20.501303 73.8112242 20.5880182 73.6009697 20.6750303 73.3325091 20.7602606 73.0061394 20.8434121 72.6797697 20.9268606 72.3061818 20.9990242 71.8856727 21.0607939 71.4648667 21.1222667 71.0152545 21.1528545 70.5365394 21.1528545 69.6735455 21.1528545 68.9174606 21.0444606 68.2685818 20.8270788 67.6194061 20.6099939 67.0771394 20.2803576 66.6420788 19.8384667 66.2070182 19.3965758 65.8824303 18.8388667 65.6686121 18.1653394 65.454497 17.4915152 65.3475879 16.7018727 65.3475879 15.7964121 65.3475879 14.9343091 65.4601394 14.1577333 65.6849455 13.4657939 65.9097515 12.7741515 66.2361212 12.1876364 66.6637576 11.7053576 67.0916909 11.2236727 67.6122788 10.8563212 68.2249273 10.6027091 68.8378727 10.349097 69.5286242 10.2222909 70.2974788 10.2222909 71.1096909 10.2222909 71.804303 10.3419697 72.3804242 10.5810303 72.9574364 10.8200909 73.4305091 11.1515091 73.8005333 11.5752848 74.1702606 11.9990606 74.4422848 12.5006424 74.6163091 13.0800303 74.7903333 13.6597152 74.8773455 14.2898848 74.8773455 14.9705394L74.8773455 15.405303zM72.2230303 14.6227879C72.2444121 13.8554182 72.0905818 13.2522727 71.7606485 12.8139455 71.4304182 12.3756182 70.9211152 12.1567515 70.2321455 12.1567515 69.884097 12.1567515 69.5811879 12.2217879 69.3237152 12.3521576 69.0662424 12.4825273 68.8524242 12.6580364 68.6819636 12.8789818 68.511503 13.0999273 68.3811333 13.3609636 68.2902606 13.6612 68.1993879 13.9620303 68.1471212 14.2824606 68.1325697 14.6227879L72.2230303 14.6227879 72.2230303 14.6227879zM85.6923879 20.5336727C85.6923879 20.6064303 85.6704121 20.6696848 85.6270545 20.7240303 85.5834 20.7783758 85.5106424 20.8238121 85.4096727 20.8597455 85.3078121 20.8959758 85.1685333 20.923297 84.9906485 20.9414121 84.8130606 20.9592303 84.593303 20.9684364 84.3325636 20.9684364 84.064103 20.9684364 83.8407818 20.9592303 83.6634909 20.9414121 83.4856061 20.923297 83.3460303 20.8959758 83.2444667 20.8597455 83.1432 20.8238121 83.0707394 20.7783758 83.0267879 20.7240303 82.9837273 20.6696848 82.9617515 20.6064303 82.9617515 20.5336727L82.9617515 15.0032061C82.9617515 14.5325091 82.927303 14.1627818 82.8584061 13.8952121 82.7892121 13.6270485 82.6897273 13.396897 82.5593576 13.2050545 82.4283939 13.0132121 82.2600121 12.8644303 82.0533212 12.7596 81.8466303 12.6544727 81.6054909 12.6022061 81.329903 12.6022061 80.9815576 12.6022061 80.6299455 12.7287152 80.2747697 12.9823273 79.919297 13.2359394 79.5495697 13.6053697 79.1649939 14.0906182L79.1649939 20.5336727C79.1649939 20.6064303 79.1433152 20.6696848 79.0996606 20.7240303 79.056303 20.7783758 78.9817636 20.8238121 78.8769333 20.8597455 78.7715091 20.8959758 78.6319333 20.923297 78.4579091 20.9414121 78.2838848 20.9592303 78.0626424 20.9684364 77.7944788 20.9684364 77.5263152 20.9684364 77.3050727 20.9592303 77.1307515 20.9414121 76.9567273 20.923297 76.8171515 20.8959758 76.7117273 20.8597455 76.606897 20.8238121 76.5323576 20.7783758 76.488703 20.7240303 76.4453455 20.6696848 76.4236667 20.6064303 76.4236667 20.5336727L76.4236667 10.8417697C76.4236667 10.7693091 76.4417818 10.7060545 76.4780121 10.6517091 76.5142424 10.5973636 76.5795758 10.5522242 76.6737152 10.5159939 76.7681515 10.4797636 76.8896121 10.4524424 77.0383939 10.4343273 77.1868788 10.4162121 77.3736727 10.4070061 77.5987758 10.4070061 77.8307091 10.4070061 78.0228485 10.4162121 78.174897 10.4343273 78.3275394 10.4524424 78.4454364 10.4797636 78.5288848 10.5159939 78.6120364 10.5522242 78.6720242 10.5973636 78.7082545 10.6517091 78.7441879 10.7060545 78.7626 10.7693091 78.7626 10.8417697L78.7626 11.9607515C79.2992242 11.3813636 79.8450545 10.946897 80.399497 10.6570545 80.9545333 10.3675091 81.5330303 10.2225879 82.1349879 10.2225879 82.7948545 10.2225879 83.3513758 10.3309818 83.8048485 10.5483636 84.2580242 10.7657455 84.6244848 11.0609333 84.9033394 11.4339273 85.1830848 11.8072182 85.3841333 12.2434667 85.5073758 12.7432667 85.6309152 13.2430667 85.6923879 13.8444303 85.6923879 14.5467636L85.6923879 20.5336727M93.9834848 20.5119939C93.9834848 20.5844545 93.9600242 20.6497879 93.9128061 20.7074 93.8655879 20.765903 93.7874848 20.8125273 93.6787939 20.8487576 93.5698061 20.8852848 93.4251818 20.9143879 93.2434364 20.9360667 93.0622848 20.9574485 92.8300545 20.9684364 92.5473394 20.9684364 92.2717515 20.9684364 92.0416 20.9574485 91.8565879 20.9360667 91.6712788 20.9143879 91.5245758 20.8852848 91.4158848 20.8487576 91.3071939 20.8125273 91.2290909 20.765903 91.1821697 20.7074 91.1349515 20.6497879 91.1114909 20.5844545 91.1114909 20.5119939L91.1114909 7.23418182C91.1114909 7.16201818 91.1349515 7.09668485 91.1821697 7.03877576 91.2290909 6.98086667 91.3089758 6.93394545 91.4215273 6.89741818 91.5337818 6.86118788 91.6807818 6.83238182 91.8619333 6.81070303 92.0430848 6.78902424 92.2717515 6.77803636 92.5473394 6.77803636 92.8300545 6.77803636 93.0622848 6.78902424 93.2434364 6.81070303 93.4251818 6.83238182 93.5698061 6.86118788 93.6787939 6.89741818 93.7874848 6.93394545 93.8655879 6.98086667 93.9128061 7.03877576 93.9600242 7.09668485 93.9834848 7.16201818 93.9834848 7.23418182L93.9834848 20.5119939M114.437273 20.1752303C114.393321 20.3492545 114.33363 20.4888303 114.257606 20.5936606 114.181285 20.6984909 114.067248 20.7783758 113.914903 20.8327212 113.762261 20.8870667 113.566855 20.923297 113.3272 20.9414121 113.088139 20.9592303 112.783448 20.9684364 112.413721 20.9684364 112.000339 20.9684364 111.668327 20.9592303 111.418279 20.9414121 111.16823 20.923297 110.970448 20.8870667 110.825527 20.8327212 110.680012 20.7783758 110.575182 20.6984909 110.509848 20.5936606 110.444515 20.4888303 110.39403 20.3492545 110.357503 20.1752303L108.105582 11.2655455 108.083903 11.2655455 105.951661 20.1752303C105.91543 20.3421273 105.864648 20.4778424 105.799315 20.5826727 105.733982 20.6878 105.630636 20.7694667 105.489576 20.8270788 105.347921 20.8852848 105.156079 20.923297 104.912861 20.9414121 104.669939 20.9592303 104.348915 20.9684364 103.949788 20.9684364 103.529279 20.9684364 103.194 20.9592303 102.943655 20.9414121 102.693606 20.923297 102.495824 20.8870667 102.350606 20.8327212 102.205982 20.7783758 102.100558 20.6984909 102.035521 20.5936606 101.969891 20.4888303 101.915842 20.3492545 101.872188 20.1752303L98.6738242 7.90800606C98.6087879 7.64726667 98.5725576 7.44265455 98.5651333 7.2941697 98.5580061 7.14598182 98.5995818 7.03164848 98.6901576 6.95176364 98.7810303 6.87217576 98.9295152 6.82317576 99.1362061 6.80506061 99.342897 6.78724242 99.6312545 6.77803636 100.000982 6.77803636 100.341903 6.77803636 100.612145 6.78338182 100.811412 6.7943697 101.011273 6.80506061 101.161539 6.8306 101.262806 6.87039394 101.36437 6.91018788 101.433861 6.96809697 101.469794 7.04412121 101.506024 7.12044242 101.53483 7.22735152 101.556806 7.36484848L104.026109 18.1326727 104.037097 18.1326727 106.6044 7.44087273C106.633206 7.30337576 106.671515 7.19082424 106.718436 7.10381212 106.765952 7.01709697 106.845539 6.95027879 106.958091 6.90306061 107.070345 6.85584242 107.224473 6.82317576 107.420473 6.80506061 107.616176 6.78724242 107.877212 6.77803636 108.203285 6.77803636 108.55163 6.77803636 108.829 6.78546061 109.035691 6.79971515 109.242382 6.81426667 109.402152 6.84515152 109.514406 6.89207273 109.626661 6.93929091 109.708624 7.00640606 109.759406 7.09312121 109.810188 7.18013333 109.849685 7.29595152 109.878788 7.44087273L112.533103 18.1326727 112.555079 18.1326727 115.024382 7.39721818C115.046358 7.28169697 115.075164 7.18191515 115.111691 7.09846667 115.147921 7.01531515 115.216818 6.95027879 115.318085 6.90306061 115.419648 6.85584242 115.56457 6.82317576 115.753145 6.80506061 115.941721 6.78724242 116.206915 6.77803636 116.547539 6.77803636 116.866485 6.77803636 117.115048 6.78724242 117.292933 6.80506061 117.470224 6.82317576 117.599109 6.87217576 117.678994 6.95176364 117.758582 7.03164848 117.79303 7.14924848 117.782042 7.30515758 117.771352 7.46106667 117.733339 7.67280606 117.668006 7.94067273L114.437273 20.1752303M127.699048 15.5900182C127.699048 16.4155939 127.590358 17.169303 127.372679 17.8499576 127.155 18.5306121 126.82477 19.1177212 126.382582 19.6103939 125.940394 20.1030667 125.385655 20.4834848 124.718364 20.7510545 124.051073 21.0189212 123.271527 21.1528545 122.37943 21.1528545 121.516436 21.1528545 120.765697 21.0337697 120.127509 20.7947091 119.489321 20.5556485 118.959824 20.2081939 118.539018 19.7517515 118.118509 19.2953091 117.806691 18.7340364 117.603861 18.0673394 117.400733 17.4009394 117.298873 16.640103 117.298873 15.7854242 117.298873 14.9598485 117.409642 14.2049515 117.630885 13.5201394 117.852127 12.8356242 118.183842 12.2488121 118.626327 11.76 119.068515 11.2708909 119.62177 10.8925515 120.2852 10.6243879 120.94863 10.3565212 121.726691 10.2222909 122.618491 10.2222909 123.488909 10.2222909 124.243212 10.3401879 124.8814 10.5756848 125.519588 10.8108848 126.047006 11.1568545 126.464545 11.613297 126.881194 12.0697394 127.191527 12.6310121 127.394358 13.2974121 127.597485 13.9638121 127.699048 14.7282121 127.699048 15.5900182M124.8814 15.6987091C124.8814 15.2205879 124.843388 14.7804788 124.767364 14.3786788 124.691042 13.9765818 124.562455 13.6270485 124.381006 13.3300788 124.199855 13.0331091 123.958418 12.8011758 123.657291 12.6345758 123.356461 12.4679758 122.977527 12.3848242 122.520788 12.3848242 122.11483 12.3848242 121.759358 12.4590667 121.454667 12.6075515 121.150273 12.7560364 120.89963 12.9731212 120.703927 13.2594 120.508224 13.5456788 120.361224 13.8895697 120.263521 14.2916667 120.165521 14.6937636 120.116818 15.1516909 120.116818 15.6660424 120.116818 16.1441636 120.156315 16.5842727 120.2362 16.9863697 120.316085 17.3884667 120.444673 17.737703 120.622558 18.0346727 120.799848 18.3319394 121.041285 18.5617939 121.345679 18.7248303 121.650667 18.8878667 122.027521 18.9689394 122.47743 18.9689394 122.890515 18.9689394 123.249552 18.8949939 123.554242 18.7465091 123.858636 18.5980242 124.108982 18.3821273 124.304685 18.0997091 124.500685 17.8172909 124.645606 17.4751818 124.740042 17.0727879 124.833885 16.6712848 124.8814 16.2130606 124.8814 15.6987091M135.391752 11.7436667C135.391752 12.0044061 135.384624 12.2182242 135.369776 12.3848242 135.355521 12.5514242 135.334139 12.6817939 135.304739 12.7759333 135.275933 12.8700727 135.237921 12.9351091 135.190406 12.9713394 135.143485 13.0078667 135.083497 13.0256848 135.011036 13.0256848 134.953127 13.0256848 134.887794 13.0132121 134.815333 12.9876727 134.742873 12.9621333 134.661206 12.9351091 134.57063 12.906303 134.480055 12.8772 134.379976 12.8501758 134.271582 12.8249333 134.162297 12.7993939 134.042915 12.7866242 133.912248 12.7866242 133.759903 12.7866242 133.607558 12.8178061 133.455509 12.8789818 133.303164 12.9407515 133.145473 13.0366727 132.982139 13.1670424 132.819103 13.2974121 132.648642 13.4711394 132.470758 13.6885212 132.293467 13.905903 132.102812 14.1737697 131.899685 14.4927152L131.899685 20.5336727C131.899685 20.6064303 131.878006 20.6696848 131.834648 20.7240303 131.790994 20.7783758 131.716455 20.8238121 131.611624 20.8597455 131.5062 20.8959758 131.366624 20.923297 131.1926 20.9414121 131.018873 20.9592303 130.797333 20.9684364 130.528873 20.9684364 130.260709 20.9684364 130.039764 20.9592303 129.865739 20.9414121 129.691418 20.923297 129.551842 20.8959758 129.446715 20.8597455 129.341588 20.8238121 129.267048 20.7783758 129.223691 20.7240303 129.180036 20.6696848 129.158358 20.6064303 129.158358 20.5336727L129.158358 10.8417697C129.158358 10.7693091 129.176473 10.7060545 129.212703 10.6517091 129.24923 10.5973636 129.314267 10.5522242 129.408703 10.515697 129.502842 10.4797636 129.624303 10.4524424 129.773085 10.4343273 129.92157 10.4162121 130.108364 10.4070061 130.33317 10.4070061 130.5654 10.4070061 130.757539 10.4162121 130.909588 10.4343273 131.06223 10.4524424 131.180127 10.4797636 131.263576 10.515697 131.346727 10.5522242 131.406715 10.5973636 131.442945 10.6517091 131.478879 10.7060545 131.497291 10.7693091 131.497291 10.8417697L131.497291 12.0477636C131.750903 11.6857576 131.990558 11.3870061 132.215364 11.1515091 132.440467 10.9160121 132.653988 10.7292182 132.857115 10.5920182 133.060242 10.4545212 133.26337 10.358303 133.4662 10.3039576 133.669327 10.2496121 133.872455 10.2222909 134.075582 10.2222909 134.169721 10.2222909 134.271582 10.2276364 134.379976 10.2386242 134.488964 10.2496121 134.601218 10.2677273 134.717333 10.2932667 134.833152 10.3185091 134.935012 10.3473152 135.021727 10.3799818 135.109036 10.4123515 135.172291 10.4468 135.212382 10.4833273 135.252176 10.5195576 135.281279 10.5593515 135.299394 10.6027091 135.317509 10.6463636 135.334139 10.7060545 135.348394 10.7820788 135.362648 10.858103 135.373636 10.9721394 135.381061 11.1241879 135.387891 11.2762364 135.391752 11.4826303 135.391752 11.7436667"/>
    <mask id="wiw-logo-vero-b" fill="#fff">
      <use xlink:href="#wiw-logo-vero-a"/>
    </mask>
    <path fill="#60605D" d="M145.76223,20.5446606 C145.76223,20.6174182 145.742333,20.6806727 145.702539,20.7347212 C145.662448,20.7890667 145.589988,20.8327212 145.484861,20.8653879 C145.379436,20.8977576 145.236594,20.923297 145.055145,20.9414121 C144.873994,20.9592303 144.6382,20.9681394 144.347764,20.9681394 C144.050497,20.9681394 143.809655,20.9613091 143.624642,20.9467576 C143.43963,20.9319091 143.287285,20.9087455 143.167606,20.8760788 C143.047927,20.8434121 142.955273,20.7982727 142.890236,20.7403636 C142.824903,20.6824545 142.766697,20.6064303 142.715915,20.5119939 L139.485182,15.405303 L139.485182,20.5336727 C139.485182,20.6064303 139.463206,20.6696848 139.419848,20.7240303 C139.376491,20.7783758 139.301952,20.8238121 139.197121,20.8597455 C139.091697,20.8959758 138.952121,20.923297 138.778097,20.9414121 C138.60437,20.9592303 138.38283,20.9681394 138.11437,20.9681394 C137.846206,20.9681394 137.625261,20.9592303 137.450939,20.9414121 C137.276915,20.923297 137.137339,20.8959758 137.032212,20.8597455 C136.926788,20.8238121 136.852545,20.7783758 136.808891,20.7240303 C136.765533,20.6696848 136.744152,20.6064303 136.744152,20.5336727 L136.744152,7.24041818 C136.744152,7.16825455 136.765533,7.10292121 136.808891,7.04471515 C136.852545,6.98680606 136.926788,6.93780606 137.032212,6.89830909 C137.137339,6.85851515 137.276915,6.8276303 137.450939,6.80595152 C137.625261,6.78397576 137.846206,6.77328485 138.11437,6.77328485 C138.38283,6.77328485 138.60437,6.78397576 138.778097,6.80595152 C138.952121,6.8276303 139.091697,6.85851515 139.197121,6.89830909 C139.301952,6.93780606 139.376491,6.98680606 139.419848,7.04471515 C139.463206,7.10292121 139.485182,7.16825455 139.485182,7.24041818 L139.485182,14.7534545 L142.357176,10.8961152 C142.415382,10.809103 142.480715,10.7330788 142.552879,10.6677455 C142.625636,10.6027091 142.721558,10.5522242 142.841236,10.515697 C142.960915,10.4797636 143.1094,10.4524424 143.287285,10.4343273 C143.464873,10.4162121 143.691758,10.4070061 143.967048,10.4070061 C144.235509,10.4070061 144.462097,10.4162121 144.647109,10.4343273 C144.832121,10.4524424 144.980606,10.4797636 145.093158,10.515697 C145.205412,10.5522242 145.283812,10.5973636 145.326873,10.6517091 C145.370527,10.7060545 145.392206,10.7728727 145.392206,10.8527576 C145.392206,10.9611515 145.364885,11.0772667 145.310836,11.2002121 C145.256491,11.3234545 145.174824,11.4538242 145.065836,11.5916182 L142.226509,14.8078 L145.511885,19.8818242 C145.598897,20.0270424 145.662448,20.1514727 145.702539,20.256897 C145.742333,20.3617273 145.76223,20.4579455 145.76223,20.5446606" mask="url(#wiw-logo-vero-b)"/>
    <path fill="#359044" d="M8.04223636,10.6938788 L18.0248727,10.6938788 C18.443897,10.6938788 18.7839273,10.3538485 18.7839273,9.93452727 L18.7839273,9.06173333 C18.7839273,8.64241212 18.443897,8.30267879 18.0248727,8.30267879 L8.04223636,8.30267879 C7.62291515,8.30267879 7.28288485,8.64241212 7.28288485,9.06173333 L7.28288485,9.93452727 C7.28288485,10.3538485 7.62291515,10.6938788 8.04223636,10.6938788 M18.0248727,16.9495455 L8.04223636,16.9495455 C7.62291515,16.9495455 7.28288485,17.2895758 7.28288485,17.708897 L7.28288485,18.5816909 C7.28288485,19.0010121 7.62291515,19.3410424 8.04223636,19.3410424 L18.0248727,19.3410424 C18.443897,19.3410424 18.7839273,19.0010121 18.7839273,18.5816909 L18.7839273,17.708897 C18.7839273,17.2895758 18.443897,16.9495455 18.0248727,16.9495455 M13.8096848,-0.00118787879 C6.18290909,-0.00118787879 0,6.18142424 0,13.808497 C0,21.4355697 6.18290909,27.6181818 13.8096848,27.6181818 C21.4367576,27.6181818 27.6193697,21.4355697 27.6193697,13.808497 C27.6193697,6.18142424 21.4367576,-0.00118787879 13.8096848,-0.00118787879 M13.8096848,25.3392364 C7.44146667,25.3392364 2.27924242,20.1764182 2.27924242,13.808497 C2.27924242,7.44027879 7.44146667,2.27805455 13.8096848,2.27805455 C20.177903,2.27805455 25.3404242,7.44027879 25.3404242,13.808497 C25.3404242,20.1764182 20.177903,25.3392364 13.8096848,25.3392364 M20.4814061,12.6262606 L10.4984727,12.6262606 C10.0794485,12.6262606 9.73941818,12.9659939 9.73941818,13.3853152 L9.73941818,14.2584061 C9.73941818,14.6777273 10.0794485,15.0174606 10.4984727,15.0174606 L20.4814061,15.0174606 C20.9007273,15.0174606 21.2404606,14.6777273 21.2404606,14.2584061 L21.2404606,13.3853152 C21.2404606,12.9659939 20.9007273,12.6262606 20.4814061,12.6262606" mask="url(#wiw-logo-vero-b)"/>
    <path fill="#60605D" d="M147.702927,8.96165455 C147.629873,8.9209697 147.513758,8.90077576 147.353394,8.90077576 L147.106909,8.90077576 L147.106909,9.49382424 L147.367648,9.49382424 C147.489703,9.49382424 147.581764,9.48194545 147.642939,9.45729697 C147.755491,9.41275152 147.811915,9.32722424 147.811915,9.20130909 C147.811915,9.08192727 147.775388,9.00204242 147.702927,8.96165455 Z M147.391109,8.70358788 C147.594236,8.70358788 147.743612,8.72289091 147.838048,8.76238788 C148.007915,8.83306667 148.092552,8.97115758 148.092552,9.17725455 C148.092552,9.32395758 148.039097,9.43146061 147.932485,9.50095152 C147.875764,9.53747879 147.797067,9.56390909 147.6958,9.58024242 C147.823794,9.60043636 147.917636,9.65389091 147.97703,9.74060606 C148.036127,9.82732121 148.065824,9.91195758 148.065824,9.99451515 L148.065824,10.1141939 C148.065824,10.1522061 148.067309,10.1925939 148.069982,10.2359515 C148.072655,10.2793091 148.077406,10.3075212 148.084236,10.3208848 L148.09463,10.3413758 L147.824091,10.3413758 C147.822606,10.3360303 147.821418,10.3306848 147.819933,10.3253394 C147.818448,10.319697 147.817261,10.3134606 147.815776,10.3072242 L147.810133,10.2543636 L147.810133,10.1245879 C147.810133,9.93541818 147.758461,9.81069091 147.655709,9.74981212 C147.594236,9.7147697 147.487327,9.69724848 147.334091,9.69724848 L147.106909,9.69724848 L147.106909,10.3413758 L146.817958,10.3413758 L146.817958,8.70358788 L147.391109,8.70358788 Z M146.513267,8.62013939 C146.264109,8.87078182 146.139976,9.17369091 146.139976,9.5285697 C146.139976,9.88612121 146.263515,10.1911091 146.511188,10.4429394 C146.760642,10.6950667 147.063255,10.8209818 147.419321,10.8209818 C147.775685,10.8209818 148.078891,10.6950667 148.328048,10.4429394 C148.577503,10.1911091 148.701636,9.88612121 148.701636,9.5285697 C148.701636,9.17369091 148.577503,8.87078182 148.328048,8.62013939 C148.077406,8.36801212 147.774794,8.24209697 147.419321,8.24209697 C147.066224,8.24209697 146.763612,8.36801212 146.513267,8.62013939 Z M148.476236,10.5851879 C148.185206,10.878 147.833,11.0244061 147.419321,11.0244061 C147.006236,11.0244061 146.654921,10.878 146.364782,10.5851879 C146.076424,10.2941576 145.932097,9.94106061 145.932097,9.52649091 C145.932097,9.11578182 146.077909,8.76506061 146.369236,8.47373333 C146.658782,8.18389091 147.008909,8.0389697 147.419321,8.0389697 C147.833,8.0389697 148.185206,8.18389091 148.476236,8.47373333 C148.767861,8.76387273 148.913079,9.11459394 148.913079,9.52649091 C148.913079,9.93957576 148.767861,10.2926727 148.476236,10.5851879 L148.476236,10.5851879 Z"/>
  </g>
</svg>
