<svg xmlns="http://www.w3.org/2000/svg" xmlns:xlink="http://www.w3.org/1999/xlink" width="149" height="50" viewBox="0 0 149 50"><defs><path id="a" d="M.018-.001h145.744v27.619H.018z"/></defs><g fill="none" fill-rule="evenodd" transform="translate(0 12)"><path fill="#60605D" d="M50.158 20.175a1.208 1.208 0 01-.18.419.698.698 0 01-.342.239c-.153.054-.349.09-.588.108-.24.018-.544.027-.914.027-.413 0-.745-.009-.995-.027a2.196 2.196 0 01-.593-.108.606.606 0 01-.316-.24 1.301 1.301 0 01-.152-.418l-2.252-8.91h-.021l-2.132 8.91a1.295 1.295 0 01-.153.408.63.63 0 01-.31.244 1.935 1.935 0 01-.577.114c-.242.018-.563.027-.962.027-.421 0-.756-.009-1.006-.027a2.196 2.196 0 01-.593-.108.604.604 0 01-.316-.24 1.478 1.478 0 01-.163-.418L34.394 7.908a3.393 3.393 0 01-.108-.614c-.007-.148.034-.262.125-.342.09-.08.24-.129.446-.147.207-.018.495-.027.865-.027.34 0 .61.005.81.016.2.011.35.037.452.076a.36.36 0 01.206.174c.037.076.066.183.087.32l2.47 10.769h.01L42.326 7.44c.03-.138.067-.25.114-.337a.462.462 0 01.24-.2c.112-.048.266-.08.462-.099a8.97 8.97 0 01.783-.027c.349 0 .626.007.832.022.207.014.366.045.48.092a.491.491 0 01.244.201c.05.087.09.203.12.348l2.654 10.692h.022l2.47-10.736c.021-.115.05-.215.086-.299a.39.39 0 01.207-.195 1.38 1.38 0 01.435-.098c.189-.018.453-.027.794-.027.32 0 .568.01.746.027.177.018.306.067.386.147.08.08.114.197.103.353a4.048 4.048 0 01-.114.636l-3.231 12.234m13.774.359a.296.296 0 01-.065.19.477.477 0 01-.218.136 1.853 1.853 0 01-.42.081 6.752 6.752 0 01-.657.027c-.268 0-.491-.009-.669-.027a1.853 1.853 0 01-.419-.081.474.474 0 01-.217-.136.294.294 0 01-.066-.19v-5.53c0-.471-.034-.841-.103-1.109a2.186 2.186 0 00-.3-.69 1.33 1.33 0 00-.505-.445 1.575 1.575 0 00-.724-.158c-.348 0-.7.127-1.055.38-.355.254-.725.623-1.11 1.109v6.443a.294.294 0 01-.065.19.477.477 0 01-.223.136 1.94 1.94 0 01-.419.081 6.728 6.728 0 01-.663.027 6.68 6.68 0 01-.664-.027 1.936 1.936 0 01-.418-.081.477.477 0 01-.223-.136.294.294 0 01-.066-.19V7.24c0-.072.022-.137.066-.195a.484.484 0 01.223-.147c.104-.04.244-.07.418-.092.174-.022.396-.033.664-.033s.49.011.663.033c.174.022.314.053.42.092.104.04.179.089.222.147a.318.318 0 01.066.195v4.362c.47-.463.951-.81 1.441-1.037a3.58 3.58 0 011.529-.342c.66 0 1.216.108 1.67.325.453.218.819.515 1.098.891.28.377.48.817.604 1.32.123.504.185 1.114.185 1.831v5.944m10.945-5.129c0 .334-.074.58-.223.74-.148.158-.353.238-.614.238h-5.907c0 .413.049.788.146 1.125.098.337.254.623.468.858.214.236.49.415.827.538.337.123.742.185 1.213.185.479 0 .9-.035 1.262-.103a8.421 8.421 0 001.6-.457 1.21 1.21 0 01.424-.103.32.32 0 01.163.038c.043.026.08.07.108.136a.904.904 0 01.06.277 6.536 6.536 0 01.006.858 2.512 2.512 0 01-.033.288.695.695 0 01-.065.201.754.754 0 01-.114.158c-.048.05-.176.12-.387.206a6.08 6.08 0 01-.805.255c-.326.084-.7.156-1.12.218-.421.061-.87.092-1.35.092-.862 0-1.619-.109-2.267-.326a4.03 4.03 0 01-1.627-.989c-.435-.441-.76-1-.973-1.673-.215-.673-.321-1.463-.321-2.369 0-.862.112-1.638.337-2.33.225-.692.551-1.278.979-1.76a4.213 4.213 0 011.56-1.103c.614-.254 1.305-.38 2.073-.38.813 0 1.507.119 2.083.358.577.24 1.05.57 1.42.994.37.424.642.926.816 1.505.174.58.261 1.21.261 1.89v.435zm-2.654-.782c.021-.768-.132-1.37-.462-1.81-.33-.437-.84-.656-1.529-.656-.348 0-.65.065-.908.195s-.472.306-.642.527c-.17.22-.3.482-.392.782-.09.301-.143.621-.157.962h4.09zm13.47 5.91a.296.296 0 01-.066.191.479.479 0 01-.217.136 1.856 1.856 0 01-.42.081 6.76 6.76 0 01-.657.027 6.89 6.89 0 01-.67-.027 1.853 1.853 0 01-.419-.081.48.48 0 01-.217-.136.298.298 0 01-.065-.19v-5.53c0-.471-.035-.841-.104-1.109a2.192 2.192 0 00-.299-.69 1.325 1.325 0 00-.506-.445 1.575 1.575 0 00-.723-.158c-.348 0-.7.127-1.055.38-.356.254-.725.623-1.11 1.109v6.443a.294.294 0 01-.065.19.477.477 0 01-.223.136 1.947 1.947 0 01-.42.081 6.721 6.721 0 01-.663.027c-.268 0-.489-.009-.663-.027a1.947 1.947 0 01-.42-.081.48.48 0 01-.222-.136.296.296 0 01-.065-.19v-9.692c0-.073.018-.136.054-.19a.399.399 0 01.196-.136c.094-.036.216-.064.364-.082a4.81 4.81 0 01.56-.027c.233 0 .425.01.577.027.153.018.27.046.354.082a.4.4 0 01.18.136.337.337 0 01.054.19v1.119c.536-.58 1.082-1.014 1.636-1.304a3.705 3.705 0 011.736-.434c.66 0 1.216.108 1.67.325.453.218.82.513 1.098.886.28.373.481.81.604 1.31.124.5.185 1.1.185 1.803v5.987m8.291-.022a.3.3 0 01-.07.195.494.494 0 01-.234.142 2.252 2.252 0 01-.436.087 6.14 6.14 0 01-.696.032c-.275 0-.505-.01-.69-.032a2.257 2.257 0 01-.441-.087.49.49 0 01-.234-.142.3.3 0 01-.07-.195V7.234c0-.072.023-.137.07-.195a.5.5 0 01.24-.142c.112-.036.259-.065.44-.086a5.86 5.86 0 01.685-.033c.283 0 .515.011.696.033.182.021.327.05.436.086a.5.5 0 01.234.142c.047.058.07.123.07.195v13.278m20.454-.337a1.22 1.22 0 01-.18.419.699.699 0 01-.342.239c-.153.054-.348.09-.588.108-.239.018-.544.027-.913.027-.414 0-.746-.009-.996-.027a2.196 2.196 0 01-.592-.108.604.604 0 01-.316-.24 1.301 1.301 0 01-.152-.418l-2.252-8.91h-.022l-2.132 8.91a1.288 1.288 0 01-.153.408.63.63 0 01-.31.244 1.935 1.935 0 01-.576.114c-.243.018-.564.027-.963.027-.42 0-.756-.009-1.006-.027a2.2 2.2 0 01-.593-.108.605.605 0 01-.315-.24 1.47 1.47 0 01-.164-.418L98.674 7.908a3.42 3.42 0 01-.109-.614c-.007-.148.035-.262.125-.342.091-.08.24-.129.446-.147.207-.018.495-.027.865-.027.34 0 .611.005.81.016.2.011.35.037.452.076a.36.36 0 01.207.174c.036.076.065.183.087.32l2.47 10.769h.01l2.567-10.692c.03-.138.068-.25.114-.337a.464.464 0 01.24-.2 1.61 1.61 0 01.462-.099 8.97 8.97 0 01.783-.027c.349 0 .626.007.833.022.206.014.366.045.478.092a.493.493 0 01.245.201c.051.087.09.203.12.348l2.654 10.692h.022l2.47-10.736c.021-.115.05-.215.087-.299a.392.392 0 01.206-.195 1.38 1.38 0 01.435-.098 8.93 8.93 0 01.795-.027c.318 0 .567.01.745.027.177.018.306.067.386.147.08.08.114.197.103.353-.01.156-.049.368-.114.636l-3.23 12.234m13.261-4.585c0 .826-.109 1.58-.326 2.26a4.776 4.776 0 01-.99 1.76 4.393 4.393 0 01-1.665 1.141c-.667.268-1.446.402-2.339.402-.863 0-1.613-.12-2.251-.358a4.053 4.053 0 01-1.589-1.043c-.42-.457-.732-1.018-.935-1.685-.203-.666-.305-1.427-.305-2.282 0-.825.11-1.58.332-2.265a4.77 4.77 0 01.995-1.76 4.44 4.44 0 011.66-1.136c.663-.267 1.44-.402 2.332-.402.87 0 1.625.118 2.263.354a3.958 3.958 0 011.584 1.037c.416.457.727 1.018.93 1.684.202.667.304 1.431.304 2.293m-2.818.109a7.11 7.11 0 00-.114-1.32 3.104 3.104 0 00-.386-1.049 1.93 1.93 0 00-.724-.695c-.3-.167-.68-.25-1.136-.25-.406 0-.762.074-1.066.223a1.912 1.912 0 00-.751.651c-.196.287-.343.63-.44 1.033-.098.402-.147.86-.147 1.374 0 .478.04.918.12 1.32.08.402.208.752.386 1.049.177.297.418.527.723.69.305.163.682.244 1.131.244.414 0 .773-.074 1.077-.222a1.93 1.93 0 00.75-.647c.197-.283.342-.625.436-1.027.094-.402.141-.86.141-1.374m10.51-3.955c0 .26-.006.474-.021.64a1.925 1.925 0 01-.065.392.378.378 0 01-.115.195.284.284 0 01-.179.055.595.595 0 01-.196-.038 8.449 8.449 0 00-.244-.082 3.647 3.647 0 00-.3-.081 1.576 1.576 0 00-.359-.038c-.152 0-.304.03-.456.092a1.96 1.96 0 00-.474.288c-.163.13-.333.304-.511.522a8.552 8.552 0 00-.571.804v6.04a.296.296 0 01-.065.191.48.48 0 01-.223.136 1.947 1.947 0 01-.42.081 6.72 6.72 0 01-.663.027c-.268 0-.49-.009-.663-.027a1.94 1.94 0 01-.42-.081.477.477 0 01-.222-.136.294.294 0 01-.066-.19v-9.692c0-.073.018-.136.055-.19a.402.402 0 01.196-.136c.094-.036.215-.064.364-.082a4.76 4.76 0 01.56-.027c.232 0 .425.01.577.027.152.018.27.046.354.082a.402.402 0 01.179.136.337.337 0 01.054.19v1.206a7.73 7.73 0 01.718-.896c.225-.236.439-.423.642-.56a2.02 2.02 0 01.61-.288 2.35 2.35 0 01.609-.082 3.032 3.032 0 01.641.071c.116.026.218.054.305.087.087.032.15.067.19.103.04.037.07.076.087.12a.929.929 0 01.05.18c.014.075.025.19.032.341.007.152.01.359.01.62"/><mask id="b" fill="#fff"><use xlink:href="#a"/></mask><path fill="#60605D" d="M145.762 20.545c0 .072-.02.136-.06.19a.416.416 0 01-.217.13 2.296 2.296 0 01-.43.076 7.52 7.52 0 01-.707.027 9.96 9.96 0 01-.723-.021 2.563 2.563 0 01-.457-.07.684.684 0 01-.278-.137.82.82 0 01-.174-.228l-3.23-5.107v5.129a.296.296 0 01-.066.19.477.477 0 01-.223.136 1.947 1.947 0 01-.419.081 6.732 6.732 0 01-.664.027c-.268 0-.489-.009-.663-.027a1.94 1.94 0 01-.419-.081.478.478 0 01-.223-.136.296.296 0 01-.065-.19V7.24a.32.32 0 01.065-.195.485.485 0 01.223-.147c.105-.04.245-.07.419-.092a5.48 5.48 0 01.663-.033c.269 0 .49.011.664.033.174.022.314.053.42.092.104.04.178.089.222.147a.32.32 0 01.065.195v7.513l2.872-3.857c.058-.087.124-.163.196-.228a.758.758 0 01.288-.152c.12-.036.268-.064.446-.082a6.93 6.93 0 01.68-.027c.269 0 .495.01.68.027.185.018.334.046.446.082.112.036.19.081.234.136a.31.31 0 01.065.2.868.868 0 01-.081.348 1.84 1.84 0 01-.245.392l-2.84 3.216 3.286 5.074c.087.145.15.27.19.375a.82.82 0 01.06.288" mask="url(#b)"/><path fill="#359044" d="M8.042 10.694h9.983a.76.76 0 00.759-.76v-.872a.76.76 0 00-.76-.76H8.043a.76.76 0 00-.76.76v.873c0 .419.34.759.76.759m9.983 6.256H8.042a.76.76 0 00-.76.759v.873c0 .419.34.759.76.759h9.983a.76.76 0 00.759-.76v-.872a.76.76 0 00-.76-.76M13.81 0C6.183-.001 0 6.18 0 13.809c0 7.627 6.183 13.81 13.81 13.81 7.627 0 13.81-6.183 13.81-13.81 0-7.628-6.183-13.81-13.81-13.81m0 25.34c-6.369 0-11.53-5.163-11.53-11.53 0-6.369 5.161-11.53 11.53-11.53 6.368 0 11.53 5.161 11.53 11.53 0 6.367-5.162 11.53-11.53 11.53m6.671-12.713h-9.983a.76.76 0 00-.759.76v.872c0 .42.34.76.76.76h9.982c.42 0 .76-.34.76-.76v-.873a.76.76 0 00-.76-.759" mask="url(#b)"/><path fill="#60605D" d="M147.703 8.962c-.073-.041-.19-.061-.35-.061h-.246v.593h.26a.78.78 0 00.276-.037c.112-.044.169-.13.169-.256 0-.12-.037-.199-.11-.24zm-.312-.258c.203 0 .353.019.447.058.17.071.255.21.255.415 0 .147-.054.254-.16.324a.623.623 0 01-.237.08c.128.02.222.073.281.16.06.086.089.171.089.254v.12c0 .037.001.078.004.121a.257.257 0 00.014.085l.01.02h-.27l-.004-.016-.004-.018-.006-.053v-.13c0-.189-.052-.313-.154-.374-.062-.035-.169-.053-.322-.053h-.227v.644h-.289V8.704h.573zm-.878-.084c-.249.25-.373.554-.373.909 0 .357.124.662.371.914.25.252.552.378.908.378.357 0 .66-.126.909-.378a1.25 1.25 0 00.374-.914 1.24 1.24 0 00-.374-.909 1.234 1.234 0 00-.909-.378c-.353 0-.655.126-.906.378zm1.963 1.965c-.29.293-.643.44-1.057.44a1.43 1.43 0 01-1.054-.44 1.449 1.449 0 01-.433-1.059c0-.41.146-.76.437-1.052.29-.29.64-.435 1.05-.435.414 0 .766.145 1.057.435.292.29.437.64.437 1.052 0 .414-.145.767-.437 1.06z"/></g></svg>