<svg xmlns="http://www.w3.org/2000/svg" xmlns:xlink="http://www.w3.org/1999/xlink" width="80" height="80" viewBox="0 0 80 80"><defs><circle id="a" cx="28" cy="28" r="28"/></defs><g fill="none" fill-rule="evenodd" transform="translate(9 12)"><mask id="b" fill="#fff"><use xlink:href="#a"/></mask><circle cx="28" cy="28" r="27" stroke="#C59EFD" stroke-width="2" mask="url(#b)"/><ellipse cx="39.063" cy="-2.625" stroke="#C59EFD" stroke-width="2" mask="url(#b)" rx="37.188" ry="42.875"/><ellipse cx="5.938" cy="47.625" stroke="#C59EFD" stroke-width="2" mask="url(#b)" rx="37.188" ry="42.875"/><ellipse cx="47.188" cy="48.875" stroke="#C59EFD" stroke-width="2" mask="url(#b)" rx="37.188" ry="42.875"/><circle cx="27.5" cy="12.5" r="5.5" fill="#D0B0FE" stroke="#FFF" stroke-width="2" mask="url(#b)"/><g transform="translate(30 24)"><circle cx="16" cy="16" r="17" fill="#6F0DFB" stroke="#FFF" stroke-width="2"/><path fill="#FFF" d="M9 9h2.772v15.576H9V9zm6.204 0h5.082c.895 0 1.701.08 2.42.242.719.161 1.335.425 1.848.792.513.367.91.836 1.188 1.408.279.572.418 1.261.418 2.068 0 .865-.161 1.591-.484 2.178a3.928 3.928 0 0 1-1.309 1.419c-.55.36-1.192.62-1.925.781-.733.161-1.51.242-2.332.242h-2.134v6.446h-2.772V9zm4.708 6.798c.455 0 .887-.033 1.298-.099.41-.066.777-.183 1.1-.352.323-.169.58-.4.77-.693.19-.293.286-.675.286-1.144 0-.455-.095-.825-.286-1.111a1.977 1.977 0 0 0-.759-.671 3.25 3.25 0 0 0-1.078-.319A9.838 9.838 0 0 0 20 11.332h-2.024v4.466h1.936z"/></g></g></svg>