<svg xmlns="http://www.w3.org/2000/svg" width="80" height="80" viewBox="0 0 80 80"><g fill="none" fill-rule="evenodd"><path fill="#FFC111" d="M8 34h9v28H8a3 3 0 0 1-3-3V37a3 3 0 0 1 3-3z"/><path stroke="#FFC111" stroke-linecap="round" stroke-linejoin="round" stroke-width="2" d="M19 59.789l9.783 8.423a5 5 0 0 0 3.262 1.21H46.6a8 8 0 0 0 4.547-1.417l21.505-14.856a5.215 5.215 0 0 0 1.353-7.216h0a5.3 5.3 0 0 0-7.249-1.488L46.92 57.172"/><path stroke="#FFC111" stroke-width="2" d="M19 36.6h9.244a5.4 5.4 0 0 1 3.839 1.602l10.506 10.62a4.218 4.218 0 0 1-.031 5.966h0a4.219 4.219 0 0 1-5.966-.03l-7.557-7.632a3.6 3.6 0 0 0-2.558-1.066H23.17"/><g transform="translate(28.938 11)"><path fill="#FFE6A0" stroke="#FFE6A0" stroke-width="2" d="M7.104 22.65A11.805 11.805 0 0 1 0 11.8C0 5.283 5.245 0 11.716 0c4.383 0 8.203 2.424 10.213 6.013-8.267.332-14.867 7.139-14.867 15.487 0 .387.014.77.042 1.15z"/><ellipse cx="22.827" cy="21.785" fill="#FFF" stroke="#FFC111" stroke-width="2" rx="11.716" ry="11.8"/><path stroke="#FFC111" stroke-linecap="round" stroke-linejoin="round" stroke-width="1.8" d="M23.277 15.43v12.708m2.629-10.398h-3.943c-1.016 0-1.84.906-1.84 2.022 0 1.117.824 2.022 1.84 2.022h2.629c1.016 0 1.84.905 1.84 2.022 0 1.116-.824 2.021-1.84 2.021h-4.469"/></g></g></svg>