<svg xmlns="http://www.w3.org/2000/svg" width="46" height="46" viewBox="0 0 46 46"><g fill="none" fill-rule="evenodd"><path d="M0 0h46v46H0z"/><path fill="#01B2D0" fill-rule="nonzero" d="M23.973 23.47c-.357 4.873-4.25 8.53-9.238 8.53C9.941 32 6 27.88 6 22.735 6 18.03 10.03 14 14.735 14c2.56 0 4.852.882 6.373 2.338a.794.794 0 0 1-1.098 1.147c-1.22-1.167-3.116-1.897-5.275-1.897-3.828 0-7.147 3.319-7.147 7.147 0 4.282 3.247 7.677 7.147 7.677 4.358 0 7.677-3.319 7.677-7.677 0-.07.01-.14.027-.205.357-4.873 4.25-8.53 9.237-8.53 4.795 0 8.736 4.12 8.736 9.265 0 4.706-4.03 8.735-8.736 8.735-2.56 0-4.852-.882-6.372-2.338a.794.794 0 0 1 1.098-1.147c1.219 1.167 3.116 1.897 5.274 1.897 3.83 0 7.148-3.319 7.148-7.147 0-4.282-3.247-7.677-7.148-7.677-4.358 0-7.676 3.319-7.676 7.677 0 .07-.01.14-.027.205z"/></g></svg>