<svg xmlns="http://www.w3.org/2000/svg" xmlns:xlink="http://www.w3.org/1999/xlink" width="46" height="46" viewBox="0 0 46 46"><defs><path id="a" d="M21.694 24.85c-3.584-.828-6.92-1.553-5.304-4.603C21.307 10.964 17.694 6 12.5 6c-5.295 0-8.819 5.156-3.889 14.249 1.664 3.067-1.797 3.792-5.303 4.603C.41 25.52.037 26.887 0 29.2c-.015.994.806 1.8 1.8 1.8h21.4c.994 0 1.815-.807 1.8-1.8-.035-2.314-.409-3.68-3.306-4.35z"/></defs><g fill="none" fill-rule="evenodd"><path d="M0 0h46v46H0z"/><g transform="translate(6 8)"><path fill="#9AE084" stroke="#9AE084" stroke-width="2" d="M31.694 18.85c-3.584-.828-6.92-1.553-5.304-4.603C31.307 4.964 27.694 0 22.5 0c-5.295 0-8.819 5.156-3.889 14.249 1.664 3.067-1.797 3.792-5.303 4.603-2.898.669-3.271 2.035-3.308 4.349-.015.993.806 1.799 1.799 1.799H33.2c.994 0 1.815-.807 1.8-1.8-.035-2.314-.409-3.68-3.306-4.35h0z"/><use fill="#FFF" xlink:href="#a"/><path stroke="#FFF" stroke-width="4" d="M22.144 22.902h0c3.594.83 4.802 2.706 4.856 6.267.033 2.114-1.694 3.831-3.8 3.831H1.8c-2.107 0-3.833-1.716-3.8-3.83.056-3.562 1.264-5.437 4.857-6.267l.372-.086c2.162-.5 3.116-.792 3.688-1.166.142-.093.15-.102.133-.037-.004.018-.028-.1-.197-.412C1.733 11.759 4.697 4 12.501 4c7.748 0 10.723 7.618 5.656 17.184-.166.314-.191.441-.193.432-.015-.065-.014-.064.112.022.548.368 1.523.674 3.616 1.16l.452.104z"/><use stroke="#6FD350" stroke-width="2" xlink:href="#a"/></g></g></svg>