<svg xmlns="http://www.w3.org/2000/svg" xmlns:xlink="http://www.w3.org/1999/xlink" width="508" height="350" viewBox="0 0 508 350"><defs><rect id="b" width="254" height="290" x="0" y="0" rx="8"/><filter id="c" width="108.7%" height="107.6%" x="-4.3%" y="-3.1%" filterUnits="objectBoundingBox"><feMorphology in="SourceAlpha" operator="dilate" radius="1" result="shadowSpreadOuter1"/><feOffset dy="2" in="shadowSpreadOuter1" result="shadowOffsetOuter1"/><feGaussianBlur in="shadowOffsetOuter1" result="shadowBlurOuter1" stdDeviation="3"/><feComposite in="shadowBlurOuter1" in2="SourceAlpha" operator="out" result="shadowBlurOuter1"/><feColorMatrix in="shadowBlurOuter1" values="0 0 0 0 0.207843137 0 0 0 0 0.258823529 0 0 0 0 0.329411765 0 0 0 0.101137908 0"/></filter><path id="e" d="M0 0h154v96H0z"/><path id="a" d="M0 0h154v40H0z"/><mask id="g" width="154" height="40" x="0" y="0" fill="#fff" maskContentUnits="userSpaceOnUse" maskUnits="objectBoundingBox"><use xlink:href="#a"/></mask><rect id="i" width="120" height="90" x="0" y="0" rx="4"/><filter id="h" width="118.3%" height="124.4%" x="-9.2%" y="-10%" filterUnits="objectBoundingBox"><feMorphology in="SourceAlpha" operator="dilate" radius="1" result="shadowSpreadOuter1"/><feOffset dy="2" in="shadowSpreadOuter1" result="shadowOffsetOuter1"/><feGaussianBlur in="shadowOffsetOuter1" result="shadowBlurOuter1" stdDeviation="3"/><feComposite in="shadowBlurOuter1" in2="SourceAlpha" operator="out" result="shadowBlurOuter1"/><feColorMatrix in="shadowBlurOuter1" values="0 0 0 0 0.207843137 0 0 0 0 0.258823529 0 0 0 0 0.329411765 0 0 0 0.101137908 0"/></filter><rect id="k" width="120" height="90" x="0" y="0" rx="4"/><filter id="j" width="118.3%" height="124.4%" x="-9.2%" y="-10%" filterUnits="objectBoundingBox"><feMorphology in="SourceAlpha" operator="dilate" radius="1" result="shadowSpreadOuter1"/><feOffset dy="2" in="shadowSpreadOuter1" result="shadowOffsetOuter1"/><feGaussianBlur in="shadowOffsetOuter1" result="shadowBlurOuter1" stdDeviation="3"/><feComposite in="shadowBlurOuter1" in2="SourceAlpha" operator="out" result="shadowBlurOuter1"/><feColorMatrix in="shadowBlurOuter1" values="0 0 0 0 0.207843137 0 0 0 0 0.258823529 0 0 0 0 0.329411765 0 0 0 0.101137908 0"/></filter><rect id="m" width="120" height="90" x="0" y="0" rx="4"/><filter id="l" width="118.3%" height="124.4%" x="-9.2%" y="-10%" filterUnits="objectBoundingBox"><feMorphology in="SourceAlpha" operator="dilate" radius="1" result="shadowSpreadOuter1"/><feOffset dy="2" in="shadowSpreadOuter1" result="shadowOffsetOuter1"/><feGaussianBlur in="shadowOffsetOuter1" result="shadowBlurOuter1" stdDeviation="3"/><feComposite in="shadowBlurOuter1" in2="SourceAlpha" operator="out" result="shadowBlurOuter1"/><feColorMatrix in="shadowBlurOuter1" values="0 0 0 0 0.207843137 0 0 0 0 0.258823529 0 0 0 0 0.329411765 0 0 0 0.101137908 0"/></filter></defs><g fill="none" fill-rule="evenodd"><g transform="translate(205 30)"><mask id="d" fill="#fff"><use xlink:href="#b"/></mask><use fill="#000" filter="url(#c)" xlink:href="#b"/><rect width="255" height="291" x="-.5" y="-.5" fill="#FFF" stroke="#E1E1E1" rx="8"/><g mask="url(#d)"><g transform="translate(50 122)"><mask id="f" fill="#fff"><use xlink:href="#e"/></mask><use fill="#6F0DFB" fill-opacity=".15" xlink:href="#e"/><circle cx="59" cy="65.234" r="16" fill="#6F0DFB" mask="url(#f)"/><path fill="#6F0DFB" mask="url(#f)" transform="rotate(-45 93 33.385)" d="M80 20.385h26v26H80z"/><rect width="154" height="4" y="108" fill="#F1F1F1" rx="2"/><rect width="154" height="4" y="120" fill="#F1F1F1" rx="2"/><rect width="154" height="4" y="132" fill="#F1F1F1" rx="2"/><rect width="154" height="4" y="144" fill="#F1F1F1" rx="2"/></g></g><g mask="url(#d)"><g transform="translate(50 70)"><use stroke="#6FD350" stroke-dasharray="6 5" stroke-width="4" mask="url(#g)" xlink:href="#a"/><rect width="72" height="6" x="40" y="17" fill="#6FD350" rx="3"/></g></g><path stroke="#E1E1E1" stroke-width="2" d="M125 33c-3.892 0-6.905 1.318-9.045 3.23C113.32 38.582 112 41.82 112 44.5c0 2.32 1.44 4.383 3.662 5.89 2.39 1.622 5.695 2.61 9.338 2.61 3.643 0 6.948-.988 9.338-2.61 2.221-1.507 3.662-3.57 3.662-5.89 0-2.68-1.32-5.917-3.955-8.27-2.14-1.912-5.153-3.23-9.045-3.23z" mask="url(#d)"/><rect width="8" height="2" x="98" y="45" fill="#E1E1E1" mask="url(#d)" rx="1"/><rect width="8" height="2" x="101.081" y="33.5" fill="#E1E1E1" mask="url(#d)" rx="1" transform="rotate(30 105.081 34.5)"/><rect width="8" height="2" x="109.5" y="25.081" fill="#E1E1E1" mask="url(#d)" rx="1" transform="rotate(60 113.5 26.081)"/><rect width="8" height="2" x="121" y="22" fill="#E1E1E1" mask="url(#d)" rx="1" transform="rotate(90 125 23)"/><rect width="8" height="2" x="132.5" y="25.081" fill="#E1E1E1" mask="url(#d)" rx="1" transform="rotate(120 136.5 26.081)"/><rect width="8" height="2" x="140.919" y="33.5" fill="#E1E1E1" mask="url(#d)" rx="1" transform="rotate(150 144.919 34.5)"/><rect width="8" height="2" x="144" y="45" fill="#E1E1E1" mask="url(#d)" rx="1" transform="rotate(180 148 46)"/></g><g transform="translate(50 22)"><use fill="#000" filter="url(#h)" xlink:href="#i"/><rect width="121" height="91" x="-.5" y="-.5" fill="#FFF" stroke="#01B2D0" rx="4"/><path fill="#384254" d="M72 39.4h-1.595c0-3.2-3.205-4-7.205-4v16.234a3.2 3.2 0 0 0 2.011 2.97l1.989.796V57H52.8v-1.6l1.989-.795a3.2 3.2 0 0 0 2.011-2.971V35.4c-4 0-7.2.8-7.2 4H48V33h24v6.4z"/></g><g transform="translate(50 238)"><use fill="#000" filter="url(#j)" xlink:href="#k"/><rect width="121" height="91" x="-.5" y="-.5" fill="#FFF" stroke="#01B2D0" rx="4"/><path fill="#1B2E5B" fill-rule="nonzero" d="M69.176 50.353a3.824 3.824 0 1 1 0 7.647 3.824 3.824 0 0 1 0-7.647zm-10.2-3.48l6.429 3.504a5.344 5.344 0 0 0-1.465 2.685l-6.428-3.506a6.893 6.893 0 0 0 1.465-2.682zm-6.623-7.226a5.353 5.353 0 1 1 0 10.706 5.353 5.353 0 0 1 0-10.706zm11.587-2.709a5.342 5.342 0 0 0 1.466 2.686l-6.428 3.504a6.869 6.869 0 0 0-1.468-2.684l6.43-3.506zM69.176 32a3.824 3.824 0 1 1 0 7.647 3.824 3.824 0 0 1 0-7.647z"/></g><g transform="translate(50 130)"><use fill="#000" filter="url(#l)" xlink:href="#m"/><rect width="121" height="91" x="-.5" y="-.5" fill="#FFF" stroke="#01B2D0" rx="4"/><path fill="#384254" d="M70.706 33C72.526 33 74 34.488 74 36.32v18.36c0 1.833-1.466 3.32-3.294 3.32H49.294C47.474 58 46 56.512 46 54.68V36.32c0-1.833 1.466-3.32 3.294-3.32h21.412zm0 3.333H49.294v15.945l8.298-5.923 3.049 2.475 6.83-6.327 3.235 3.02v-9.19zm-15.647 3.334c1.364 0 2.47 1.119 2.47 2.5 0 1.38-1.106 2.5-2.47 2.5-1.365 0-2.47-1.12-2.47-2.5 0-1.381 1.105-2.5 2.47-2.5z"/></g><path stroke="#01B2D0" stroke-dasharray="3 8" stroke-linecap="round" stroke-linejoin="round" stroke-width="2" d="M505.969 0v2.625c0 12.703-10.298 23-23 23H376.215c-8.955 0-16.215 7.26-16.215 16.215s7.26 16.215 16.215 16.215h81.02c8.69 0 15.734 7.044 15.734 15.734 0 8.69-7.045 15.734-15.735 15.734h-40.632 0"/></g></svg>