<svg xmlns="http://www.w3.org/2000/svg" xmlns:xlink="http://www.w3.org/1999/xlink" width="134" height="104" viewBox="0 0 134 104"><defs><rect id="b" width="120" height="90" x="0" y="0" rx="4"/><filter id="a" width="118.3%" height="124.4%" x="-9.2%" y="-10%" filterUnits="objectBoundingBox"><feMorphology in="SourceAlpha" operator="dilate" radius="1" result="shadowSpreadOuter1"/><feOffset dy="2" in="shadowSpreadOuter1" result="shadowOffsetOuter1"/><feGaussianBlur in="shadowOffsetOuter1" result="shadowBlurOuter1" stdDeviation="3"/><feComposite in="shadowBlurOuter1" in2="SourceAlpha" operator="out" result="shadowBlurOuter1"/><feColorMatrix in="shadowBlurOuter1" values="0 0 0 0 0.207843137 0 0 0 0 0.258823529 0 0 0 0 0.329411765 0 0 0 0.101137908 0"/></filter></defs><g fill="none" fill-rule="evenodd" transform="translate(7 5)"><use fill="#000" filter="url(#a)" xlink:href="#b"/><rect width="121" height="91" x="-.5" y="-.5" fill="#FFF" stroke="#01B2D0" rx="4"/><path fill="#384254" d="M72 39.4h-1.595c0-3.2-3.205-4-7.205-4v16.234a3.2 3.2 0 0 0 2.011 2.97l1.989.796V57H52.8v-1.6l1.989-.795a3.2 3.2 0 0 0 2.011-2.971V35.4c-4 0-7.2.8-7.2 4H48V33h24v6.4z"/><g fill="#1B2E5B"><path d="M92.987 80.85l2.425-1.4 9.8 16.974-2.425 1.4z"/><path d="M90 72.876l14.462 11.049-7.862.382-4.262 6.618z"/></g></g></svg>