<svg xmlns="http://www.w3.org/2000/svg" xmlns:xlink="http://www.w3.org/1999/xlink" width="508" height="350" viewBox="0 0 508 350"><defs><rect id="b" width="374" height="117" x="0" y="0" rx="8"/><filter id="a" width="105.3%" height="117.1%" x="-2.7%" y="-6.8%" filterUnits="objectBoundingBox"><feOffset dy="2" in="SourceAlpha" result="shadowOffsetOuter1"/><feGaussianBlur in="shadowOffsetOuter1" result="shadowBlurOuter1" stdDeviation="3"/><feComposite in="shadowBlurOuter1" in2="SourceAlpha" operator="out" result="shadowBlurOuter1"/><feColorMatrix in="shadowBlurOuter1" values="0 0 0 0 0.207843137 0 0 0 0 0.258823529 0 0 0 0 0.329411765 0 0 0 0.101137908 0"/></filter></defs><g fill="none" fill-rule="evenodd"><g transform="translate(33 174)"><path fill="#FFF" stroke="#384254" stroke-width="2" d="M33 1h372v128H33z"/><path fill="#384254" d="M4 0h28v80H4a4 4 0 0 1-4-4V4a4 4 0 0 1 4-4z"/><circle cx="433" cy="13" r="13" fill="#384254"/><circle cx="433" cy="45" r="13" fill="#384254"/><circle cx="433" cy="77" r="13" fill="#384254"/></g><path fill="#384254" fill-rule="nonzero" d="M106.17 218v-1.664h-9.854v-7.098h8.918V207.6h-8.918v-6.344h9.542v-1.664H94.444V218h11.726zm6.864.312c.988 0 1.833-.178 2.535-.533.702-.355 1.33-.94 1.885-1.755h.052c0 .33.017.667.052 1.014.035.347.078.667.13.962h1.586a10.22 10.22 0 0 1-.156-1.274 21.178 21.178 0 0 1-.052-1.456v-5.33c0-.745-.121-1.395-.364-1.95a3.709 3.709 0 0 0-1.014-1.378 4.383 4.383 0 0 0-1.508-.819 6.056 6.056 0 0 0-1.846-.273c-1.04 0-1.972.165-2.795.494-.823.33-1.486.745-1.989 1.248l.988 1.17a4.85 4.85 0 0 1 1.586-1.04 5.22 5.22 0 0 1 2.028-.39c1.057 0 1.863.26 2.418.78.555.52.832 1.309.832 2.366v.39a42.6 42.6 0 0 0-3.211.117c-1.031.078-1.946.251-2.743.52-.797.269-1.434.676-1.911 1.222-.477.546-.715 1.287-.715 2.223 0 .676.134 1.248.403 1.716.269.468.607.85 1.014 1.144a4.04 4.04 0 0 0 1.352.637c.494.13.975.195 1.443.195zm.468-1.456a4.55 4.55 0 0 1-1.027-.117 2.825 2.825 0 0 1-.923-.39 2.02 2.02 0 0 1-.663-.715c-.165-.295-.247-.659-.247-1.092 0-.572.19-1.031.572-1.378.381-.347.871-.611 1.469-.793a9.582 9.582 0 0 1 2.002-.364c.737-.06 1.469-.091 2.197-.091h.52v.91c0 .537-.087 1.049-.26 1.534a3.907 3.907 0 0 1-.754 1.287 3.52 3.52 0 0 1-1.222.884c-.485.217-1.04.325-1.664.325zm13.572 1.456c.555 0 1.105-.065 1.651-.195a4.252 4.252 0 0 0 1.469-.65 3.51 3.51 0 0 0 1.053-1.17c.269-.477.403-1.062.403-1.755 0-.953-.342-1.712-1.027-2.275-.685-.563-1.746-.992-3.185-1.287-1.005-.208-1.742-.464-2.21-.767-.468-.303-.702-.741-.702-1.313 0-.33.074-.615.221-.858.147-.243.342-.442.585-.598a2.54 2.54 0 0 1 .832-.338c.312-.07.624-.104.936-.104.676 0 1.278.16 1.807.481.529.32.923.732 1.183 1.235l1.352-1.014c-.399-.693-.997-1.23-1.794-1.612a5.662 5.662 0 0 0-2.47-.572 6.23 6.23 0 0 0-1.612.208 4.35 4.35 0 0 0-1.391.637 3.2 3.2 0 0 0-.975 1.092c-.243.442-.364.975-.364 1.599 0 .572.113 1.049.338 1.43.225.381.511.698.858.949s.724.442 1.131.572c.407.13.793.238 1.157.325 1.161.277 2.05.576 2.665.897.615.32.923.802.923 1.443 0 .399-.078.732-.234 1.001-.156.269-.364.49-.624.663-.26.173-.563.295-.91.364-.347.07-.71.104-1.092.104a3.818 3.818 0 0 1-2.002-.546c-.607-.364-1.066-.815-1.378-1.352l-1.404 1.04a4.96 4.96 0 0 0 2.132 1.794c.867.381 1.76.572 2.678.572zm8.996-15.912c.312 0 .598-.117.858-.351.26-.234.39-.533.39-.897s-.13-.663-.39-.897c-.26-.234-.546-.351-.858-.351-.312 0-.598.117-.858.351-.26.234-.39.533-.39.897s.13.663.39.897c.26.234.546.351.858.351zm.884 15.6v-12.168h-1.768V218h1.768zm6.526 0v-19.656h-1.768V218h1.768zm4.784 6.24c1.057 0 1.868-.282 2.431-.845s1.027-1.313 1.391-2.249l6.058-15.314h-1.924l-3.77 10.27h-.052l-4.134-10.27h-1.976l5.2 12.142-.988 2.548c-.26.693-.563 1.226-.91 1.599-.347.373-.823.559-1.43.559-.45 0-.884-.07-1.3-.208l-.182 1.612a8.07 8.07 0 0 0 1.586.156zm24.544-5.928c1.005 0 1.946-.2 2.821-.598.875-.399 1.677-1.057 2.405-1.976l-1.326-1.04c-.347.555-.854 1.044-1.521 1.469-.667.425-1.46.637-2.379.637a4.315 4.315 0 0 1-1.742-.351 4.511 4.511 0 0 1-1.404-.949 4.333 4.333 0 0 1-.936-1.404 4.748 4.748 0 0 1-.364-1.716h10.088a4.09 4.09 0 0 0 .026-.442v-.39a7.13 7.13 0 0 0-.377-2.34 5.585 5.585 0 0 0-1.105-1.911 5.198 5.198 0 0 0-1.82-1.3c-.728-.32-1.569-.481-2.522-.481-.867 0-1.673.16-2.418.481a5.978 5.978 0 0 0-1.95 1.339 6.169 6.169 0 0 0-1.3 2.028 6.799 6.799 0 0 0-.468 2.548c0 .919.16 1.768.481 2.548.32.78.758 1.456 1.313 2.028a5.877 5.877 0 0 0 1.989 1.339 6.47 6.47 0 0 0 2.509.481zm3.874-7.332h-8.294c.035-.52.165-1.018.39-1.495a4.395 4.395 0 0 1 2.236-2.158 4.094 4.094 0 0 1 1.638-.325c1.265 0 2.24.377 2.925 1.131.685.754 1.053 1.703 1.105 2.847zm10.998 7.332c.884 0 1.742-.2 2.574-.598a4.992 4.992 0 0 0 2.028-1.768h.052V218h1.768v-19.656h-1.768v9.594h-.052a5.024 5.024 0 0 0-2.028-1.807 5.79 5.79 0 0 0-2.574-.611c-.953 0-1.816.165-2.587.494-.771.33-1.43.78-1.976 1.352a6.106 6.106 0 0 0-1.274 2.028 6.897 6.897 0 0 0-.455 2.522c0 .901.152 1.742.455 2.522a6.1 6.1 0 0 0 1.274 2.028 5.894 5.894 0 0 0 1.976 1.352c.771.33 1.634.494 2.587.494zm.182-1.508c-.728 0-1.378-.126-1.95-.377a4.087 4.087 0 0 1-1.443-1.04 4.625 4.625 0 0 1-.897-1.56 5.776 5.776 0 0 1-.312-1.911c0-.676.104-1.313.312-1.911a4.625 4.625 0 0 1 .897-1.56 4.23 4.23 0 0 1 1.443-1.053c.572-.26 1.222-.39 1.95-.39.676 0 1.3.126 1.872.377a4.493 4.493 0 0 1 1.482 1.04c.416.442.741.962.975 1.56a5.27 5.27 0 0 1 .351 1.937 5.27 5.27 0 0 1-.351 1.937 4.654 4.654 0 0 1-.975 1.547 4.589 4.589 0 0 1-3.354 1.404zm11.882-14.404c.312 0 .598-.117.858-.351.26-.234.39-.533.39-.897s-.13-.663-.39-.897c-.26-.234-.546-.351-.858-.351-.312 0-.598.117-.858.351-.26.234-.39.533-.39.897s.13.663.39.897c.26.234.546.351.858.351zm.884 15.6v-12.168h-1.768V218h1.768zm8.112.156c.399 0 .767-.03 1.105-.091a5.21 5.21 0 0 0 .975-.273l-.078-1.534a3.875 3.875 0 0 1-.767.286 3.04 3.04 0 0 1-.767.104c-.26 0-.503-.03-.728-.091a1.286 1.286 0 0 1-.585-.338c-.165-.165-.29-.394-.377-.689-.087-.295-.13-.667-.13-1.118v-7.098h3.432v-1.482h-3.432V202.4h-1.768v3.432h-2.522v1.482h2.522v7.592c0 .676.1 1.222.299 1.638.2.416.455.745.767.988s.65.407 1.014.494c.364.087.71.13 1.04.13zm16.952.156c1.057 0 1.963-.19 2.717-.572a5.797 5.797 0 0 0 1.911-1.534l-1.326-.988c-.347.468-.789.85-1.326 1.144-.537.295-1.196.442-1.976.442-.71 0-1.352-.126-1.924-.377a4.218 4.218 0 0 1-1.456-1.04 4.71 4.71 0 0 1-.923-1.547 5.535 5.535 0 0 1-.325-1.924c0-.693.108-1.339.325-1.937a4.57 4.57 0 0 1 .936-1.56 4.353 4.353 0 0 1 1.469-1.04c.572-.251 1.213-.377 1.924-.377.659 0 1.27.152 1.833.455.563.303.992.689 1.287 1.157l1.378-.988a4.862 4.862 0 0 0-2.041-1.573c-.84-.355-1.668-.533-2.483-.533-.988 0-1.88.16-2.678.481a5.93 5.93 0 0 0-2.041 1.339 6.064 6.064 0 0 0-1.313 2.028 6.799 6.799 0 0 0-.468 2.548c0 .919.156 1.768.468 2.548a6.07 6.07 0 0 0 1.313 2.028 5.93 5.93 0 0 0 2.041 1.339c.797.32 1.69.481 2.678.481zm12.974 0c.953 0 1.829-.16 2.626-.481a6.068 6.068 0 0 0 2.054-1.339 6.13 6.13 0 0 0 1.339-2.028c.32-.78.481-1.63.481-2.548a6.63 6.63 0 0 0-.481-2.548 6.13 6.13 0 0 0-1.339-2.028 6.068 6.068 0 0 0-2.054-1.339c-.797-.32-1.673-.481-2.626-.481-.936 0-1.803.16-2.6.481a6.068 6.068 0 0 0-2.054 1.339 6.13 6.13 0 0 0-1.339 2.028c-.32.78-.481 1.63-.481 2.548 0 .919.16 1.768.481 2.548a6.13 6.13 0 0 0 1.339 2.028 6.068 6.068 0 0 0 2.054 1.339c.797.32 1.664.481 2.6.481zm0-1.508c-.71 0-1.348-.126-1.911-.377a4.25 4.25 0 0 1-1.443-1.04 4.682 4.682 0 0 1-.923-1.56 5.567 5.567 0 0 1-.325-1.911c0-.676.108-1.313.325-1.911a4.682 4.682 0 0 1 .923-1.56 4.41 4.41 0 0 1 1.443-1.053c.563-.26 1.2-.39 1.911-.39.71 0 1.352.13 1.924.39a4.37 4.37 0 0 1 1.456 1.053c.399.442.706.962.923 1.56.217.598.325 1.235.325 1.911 0 .676-.108 1.313-.325 1.911a4.682 4.682 0 0 1-.923 1.56 4.218 4.218 0 0 1-1.456 1.04c-.572.251-1.213.377-1.924.377zM250.73 218v-6.24c0-.815.104-1.521.312-2.119.208-.598.485-1.092.832-1.482a3.36 3.36 0 0 1 2.548-1.157c.641 0 1.174.104 1.599.312.425.208.763.498 1.014.871s.429.819.533 1.339c.104.52.156 1.1.156 1.742V218h1.768v-7.462c0-1.508-.386-2.721-1.157-3.64s-1.928-1.378-3.471-1.378c-.867 0-1.69.221-2.47.663-.78.442-1.343 1.018-1.69 1.729h-.052a23.54 23.54 0 0 0-.104-2.08h-1.69a39.768 39.768 0 0 1 .104 2.678V218h1.768zm16.744.156c.399 0 .767-.03 1.105-.091a5.21 5.21 0 0 0 .975-.273l-.078-1.534a3.875 3.875 0 0 1-.767.286 3.04 3.04 0 0 1-.767.104c-.26 0-.503-.03-.728-.091a1.286 1.286 0 0 1-.585-.338c-.165-.165-.29-.394-.377-.689-.087-.295-.13-.667-.13-1.118v-7.098h3.432v-1.482h-3.432V202.4h-1.768v3.432h-2.522v1.482h2.522v7.592c0 .676.1 1.222.299 1.638.2.416.455.745.767.988s.65.407 1.014.494c.364.087.71.13 1.04.13zm10.244.156c1.005 0 1.946-.2 2.821-.598.875-.399 1.677-1.057 2.405-1.976l-1.326-1.04c-.347.555-.854 1.044-1.521 1.469-.667.425-1.46.637-2.379.637a4.315 4.315 0 0 1-1.742-.351 4.511 4.511 0 0 1-1.404-.949 4.333 4.333 0 0 1-.936-1.404 4.748 4.748 0 0 1-.364-1.716h10.088a4.09 4.09 0 0 0 .026-.442v-.39a7.13 7.13 0 0 0-.377-2.34 5.585 5.585 0 0 0-1.105-1.911 5.198 5.198 0 0 0-1.82-1.3c-.728-.32-1.569-.481-2.522-.481-.867 0-1.673.16-2.418.481a5.978 5.978 0 0 0-1.95 1.339 6.169 6.169 0 0 0-1.3 2.028 6.799 6.799 0 0 0-.468 2.548c0 .919.16 1.768.481 2.548.32.78.758 1.456 1.313 2.028a5.877 5.877 0 0 0 1.989 1.339 6.47 6.47 0 0 0 2.509.481zm3.874-7.332h-8.294c.035-.52.165-1.018.39-1.495a4.395 4.395 0 0 1 2.236-2.158 4.094 4.094 0 0 1 1.638-.325c1.265 0 2.24.377 2.925 1.131.685.754 1.053 1.703 1.105 2.847zm7.358 7.02v-6.24c0-.815.104-1.521.312-2.119.208-.598.485-1.092.832-1.482a3.36 3.36 0 0 1 2.548-1.157c.641 0 1.174.104 1.599.312.425.208.763.498 1.014.871s.429.819.533 1.339c.104.52.156 1.1.156 1.742V218h1.768v-7.462c0-1.508-.386-2.721-1.157-3.64s-1.928-1.378-3.471-1.378c-.867 0-1.69.221-2.47.663-.78.442-1.343 1.018-1.69 1.729h-.052a23.54 23.54 0 0 0-.104-2.08h-1.69a39.768 39.768 0 0 1 .104 2.678V218h1.768zm16.744.156c.399 0 .767-.03 1.105-.091a5.21 5.21 0 0 0 .975-.273l-.078-1.534a3.875 3.875 0 0 1-.767.286 3.04 3.04 0 0 1-.767.104c-.26 0-.503-.03-.728-.091a1.286 1.286 0 0 1-.585-.338c-.165-.165-.29-.394-.377-.689-.087-.295-.13-.667-.13-1.118v-7.098h3.432v-1.482h-3.432V202.4h-1.768v3.432h-2.522v1.482h2.522v7.592c0 .676.1 1.222.299 1.638.2.416.455.745.767.988s.65.407 1.014.494c.364.087.71.13 1.04.13z"/><path fill="#000" d="M83 190h1v40h-1z"/><g transform="translate(65 41)"><use fill="#000" filter="url(#a)" xlink:href="#b"/><rect width="373" height="116" x=".5" y=".5" fill="#222F3E" stroke="#000" stroke-linejoin="square" rx="8"/><path fill="#FFF" fill-rule="nonzero" d="M26.35 99.083c-.475 0-.792 0-.95-.316l-.317-.792v-19.95c0-.317 0-.633.317-.792l.95-.316h7.917c2.375 0 4.275.475 5.541 1.583 1.109.95 1.742 2.217 1.742 3.958a4.75 4.75 0 0 1-.95 3.009c-.633.95-1.583 1.583-2.533 1.9.633.158 1.425.475 2.058.95.633.475 1.267 1.108 1.583 1.9.634.633.792 1.583.792 2.533 0 2.058-.633 3.642-2.058 4.75-1.267 1.108-3.325 1.583-6.017 1.583H26.35zm7.917-13.141c.95 0 1.9-.159 2.533-.792.633-.475.95-1.108.95-2.058 0-1.742-1.267-2.692-3.642-2.692h-5.383v5.542h5.542zm.791 9.5c1.109 0 2.059-.159 2.692-.634.633-.633.95-1.425.95-2.375s-.317-1.583-1.108-2.216c-.634-.475-1.584-.634-3.167-.634h-5.542V95.6h6.334l-.159-.158z"/><path fill="#000" d="M150 59h1v57h-1zm83-58h1v57h-1z"/><path stroke="#9097A0" stroke-linecap="round" stroke-linejoin="round" stroke-width="4" d="M215 27l-8 8-8-8m157 0l-8 8-8-8"/><path fill="#000" d="M263 59h1v57h-1z"/><path fill="#FFF" fill-rule="nonzero" d="M82.442 76.917l-.159 1.425h-.475c-.95 0-1.583 0-2.216.475-.475.475-.634.95-.792 1.741l-3.325 15.517v.95c0 .792.633 1.267 2.217 1.267h.316l-.316 1.266h-9.025l.316-1.266h.317c1.742 0 2.85-.792 3.167-2.375L75.633 80.4l.159-.792c0-.95-.634-1.266-2.217-1.266H73.1l.317-1.425H82.6h-.158zm40.892 0c.95 0 1.583.633 1.583 1.583v8.708a6.333 6.333 0 0 1-.633 2.85l-1.583 2.217a8.392 8.392 0 0 1-8.709 1.583 7.917 7.917 0 0 1-2.533-1.583c-.792-.633-1.267-1.425-1.742-2.217a6.333 6.333 0 0 1-.633-2.85V78.5c0-.95.633-1.583 1.583-1.583s1.584.633 1.584 1.583v8.708c0 .475 0 .95.316 1.584l.95 1.108a5.225 5.225 0 0 0 3.484 1.267 5.383 5.383 0 0 0 3.483-1.267c.475-.317.633-.792.95-1.267l.317-1.425V78.5c0-.95.633-1.583 1.583-1.583zm-12.667 19h12.667c.95 0 1.583.633 1.583 1.583s-.633 1.583-1.583 1.583h-12.667a1.583 1.583 0 1 1 0-3.166z"/><g fill="#FFF" transform="translate(165 69)"><rect width="20" height="4" x="14" y="7" rx="2"/><text font-family="ProximaNova-Semibold, Proxima Nova" font-size="7" font-weight="500"><tspan x="6.67" y="12">1</tspan></text><text font-family="ProximaNova-Semibold, Proxima Nova" font-size="7" font-weight="500"><tspan x="5.918" y="22">2</tspan></text><text font-family="ProximaNova-Semibold, Proxima Nova" font-size="7" font-weight="500"><tspan x="5.991" y="32">3</tspan></text><rect width="20" height="4" x="14" y="17" rx="2"/><rect width="20" height="4" x="14" y="27" rx="2"/></g><g transform="translate(211 69)"><rect width="20" height="4" x="14" y="7" fill="#FFF" rx="2"/><circle cx="7" cy="9" r="3" fill="#F1F1F1"/><circle cx="7" cy="19" r="3" fill="#F1F1F1"/><circle cx="7" cy="29" r="3" fill="#F1F1F1"/><rect width="20" height="4" x="14" y="17" fill="#FFF" rx="2"/><rect width="20" height="4" x="14" y="27" fill="#FFF" rx="2"/></g><path d="M252 37h27v4.5h-27zm8.55-3h-1.2a.75.75 0 0 1-.75-.9l4.05-13.5c.15-.45.45-.6.75-.6h4.2c.3 0 .6.15.75.6l4.05 13.5a.75.75 0 0 1-.75.9h-1.2a.75.75 0 0 1-.6-.6l-1.05-3.3c0-.45-.45-.6-.75-.6h-5.1c-.3 0-.6.15-.75.6l-1.05 3.3c0 .45-.3.6-.6.6zm3.9-11.4l-.9 3a.75.75 0 0 0 .75.9h2.4a.75.75 0 0 0 .75-.9l-.9-3c0-.45-.45-.6-.75-.6h-.6c-.3 0-.6.15-.75.6zm24.35 66.35a1.5 1.5 0 0 1 2.1 2.1l-3.15 3a3 3 0 1 0 4.05 4.2l7.2-7.2a1.5 1.5 0 0 0 0-2.1 1.5 1.5 0 1 1 2.1-1.95 4.35 4.35 0 0 1 0 6l-7.2 7.5a5.85 5.85 0 0 1-8.25-8.25l3-3 .15-.3zm17.4-.9a1.5 1.5 0 0 1-2.1-2.1l3-3a3 3 0 1 0-3.9-4.2l-7.2 7.2a1.5 1.5 0 0 0 0 2.1 1.5 1.5 0 1 1-2.1 1.95 4.35 4.35 0 0 1 0-6l7.2-7.5a5.85 5.85 0 0 1 8.25 8.25l-3 3-.15.3zm28.382.682a1.5 1.5 0 0 1 2.1 2.1l-3 3a3 3 0 1 0 3.9 4.2l7.2-7.2a1.5 1.5 0 0 0 0-2.1 1.5 1.5 0 1 1 2.1-1.95 4.35 4.35 0 0 1 0 6l-7.2 7.5a5.85 5.85 0 0 1-8.25-8.25l3-3 .15-.3zm17.4-.9a1.5 1.5 0 0 1-2.1-2.1l3.15-3a3 3 0 1 0-4.05-4.2l-7.2 7.2a1.5 1.5 0 0 0 0 2.1 1.5 1.5 0 1 1-2.1 1.95 4.35 4.35 0 0 1 0-6l7.2-7.5a5.85 5.85 0 0 1 8.25 8.25l-3 3-.15.3zm-15.3-8.1a1.2 1.2 0 0 1-1.5 1.65l-4.95-4.8a1.06 1.06 0 1 1 1.5-1.5l4.8 4.65h.15zm-3.75 3.45a1.2 1.2 0 0 1 0 2.25h-3.15a1.2 1.2 0 0 1 0-2.25h3.15zm7.5-5.25a1.2 1.2 0 0 1-2.25 0v-3.15a1.2 1.2 0 0 1 2.25 0v3.15zm9 17.7a1.2 1.2 0 0 1 1.5-1.5l4.8 4.8a1.2 1.2 0 0 1-1.5 1.5l-4.95-4.65.15-.15zm-3.3 3a1.2 1.2 0 0 1 2.25 0v3.15a1.2 1.2 0 0 1-2.25 0v-3.15zm7.5-5.25a1.125 1.125 0 1 1 0-2.25h3.15a1.2 1.2 0 0 1 0 2.25h-3.15z" fill="#FFF" fill-rule="nonzero"/><rect width="374" height="1" y="58" fill="#000" rx=".5"/><path fill="#FFF" fill-rule="nonzero" d="M29.832 39V23.402h-1.43c-.103.587-.293 1.07-.572 1.452-.279.381-.62.682-1.023.902-.403.22-.854.37-1.353.451a9.63 9.63 0 0 1-1.54.121v1.496h4.048V39h1.87zm10.252.242c.733 0 1.426-.099 2.079-.297a4.91 4.91 0 0 0 1.705-.891 4.297 4.297 0 0 0 1.155-1.485c.286-.594.429-1.28.429-2.057 0-.939-.231-1.753-.693-2.442-.462-.69-1.17-1.137-2.123-1.342v-.044a3.94 3.94 0 0 0 1.54-1.232 3.02 3.02 0 0 0 .616-1.87c0-.719-.121-1.342-.363-1.87a3.471 3.471 0 0 0-1.001-1.298 4.354 4.354 0 0 0-1.507-.759 6.704 6.704 0 0 0-1.881-.253c-.777 0-1.463.125-2.057.374a4.097 4.097 0 0 0-1.485 1.034c-.396.44-.7.968-.913 1.584a7.1 7.1 0 0 0-.363 2.046h1.87c0-.455.059-.887.176-1.298.117-.41.297-.77.539-1.078a2.62 2.62 0 0 1 .924-.737c.374-.183.81-.275 1.309-.275.792 0 1.452.209 1.98.627.528.418.792 1.045.792 1.881 0 .41-.08.777-.242 1.1-.161.323-.378.59-.649.803a2.886 2.886 0 0 1-.946.484 3.85 3.85 0 0 1-1.133.165h-.616a1.02 1.02 0 0 1-.198-.022v1.584a9.056 9.056 0 0 1 1.122-.066c.47 0 .906.062 1.309.187.403.125.752.315 1.045.572.293.257.528.572.704.946.176.374.264.803.264 1.287 0 .47-.092.891-.275 1.265-.183.374-.429.69-.737.946a3.343 3.343 0 0 1-1.078.594 3.99 3.99 0 0 1-1.298.209c-1.07 0-1.885-.319-2.442-.957-.557-.638-.85-1.463-.88-2.475h-1.87c-.015.807.099 1.525.341 2.156.242.63.59 1.162 1.045 1.595a4.43 4.43 0 0 0 1.65.979c.645.22 1.364.33 2.156.33zm9.724 4.092v-5.852h.044c.205.337.458.62.759.847.3.227.62.407.957.539a5.621 5.621 0 0 0 1.958.374c.865 0 1.624-.154 2.277-.462a4.563 4.563 0 0 0 1.628-1.265 5.387 5.387 0 0 0 .968-1.881 8.024 8.024 0 0 0 .319-2.288c0-.807-.11-1.57-.33-2.288a5.781 5.781 0 0 0-.979-1.903 4.676 4.676 0 0 0-1.628-1.309c-.653-.323-1.419-.484-2.299-.484a5.42 5.42 0 0 0-2.178.429 2.8 2.8 0 0 0-1.452 1.375h-.044v-1.54h-1.87v15.708h1.87zm3.52-5.72c-.645 0-1.195-.121-1.65-.363a3.203 3.203 0 0 1-1.111-.957 4.002 4.002 0 0 1-.627-1.375 6.555 6.555 0 0 1-.198-1.617c0-.528.062-1.049.187-1.562.125-.513.326-.972.605-1.375.279-.403.638-.73 1.078-.979.44-.25.975-.374 1.606-.374.601 0 1.126.117 1.573.352.447.235.814.55 1.1.946.286.396.499.847.638 1.353.14.506.209 1.023.209 1.551 0 .557-.059 1.1-.176 1.628a4.307 4.307 0 0 1-.572 1.408c-.264.41-.612.74-1.045.99-.433.25-.972.374-1.617.374zM61.974 39l3.168-4.708L68.31 39h2.398l-4.4-6.138 3.916-5.236H67.98l-2.838 3.982-2.728-3.982h-2.398l3.96 5.39L59.708 39h2.266z"/></g><path stroke="#FFC111" stroke-dasharray="3 8" stroke-linecap="round" stroke-linejoin="round" stroke-width="2" d="M360 90h82.186c11.14 0 20.171-9.031 20.171-20.172 0-11.14-9.03-20.172-20.171-20.172h-96.32c-10.951 0-19.829-8.877-19.829-19.828 0-10.95 8.878-19.828 19.828-19.828H507"/></g></svg>