<svg xmlns="http://www.w3.org/2000/svg" xmlns:xlink="http://www.w3.org/1999/xlink" width="531" height="565" viewBox="0 0 531 565"><defs><filter id="b" width="115.6%" height="111.8%" x="-7.8%" y="-5%" filterUnits="objectBoundingBox"><feMorphology in="SourceAlpha" operator="dilate" radius=".5" result="shadowSpreadOuter1"/><feOffset dy="4" in="shadowSpreadOuter1" result="shadowOffsetOuter1"/><feGaussianBlur in="shadowOffsetOuter1" result="shadowBlurOuter1" stdDeviation="8"/><feComposite in="shadowBlurOuter1" in2="SourceAlpha" operator="out" result="shadowBlurOuter1"/><feColorMatrix in="shadowBlurOuter1" values="0 0 0 0 0 0 0 0 0 0 0 0 0 0 0 0 0 0 0.12 0"/></filter><filter id="d" width="126.5%" height="153%" x="-13.2%" y="-22.5%" filterUnits="objectBoundingBox"><feMorphology in="SourceAlpha" operator="dilate" radius=".5" result="shadowSpreadOuter1"/><feOffset dy="4" in="shadowSpreadOuter1" result="shadowOffsetOuter1"/><feGaussianBlur in="shadowOffsetOuter1" result="shadowBlurOuter1" stdDeviation="8"/><feComposite in="shadowBlurOuter1" in2="SourceAlpha" operator="out" result="shadowBlurOuter1"/><feColorMatrix in="shadowBlurOuter1" values="0 0 0 0 0 0 0 0 0 0 0 0 0 0 0 0 0 0 0.12 0"/></filter><rect id="a" width="340" height="451" rx="10"/><rect id="e" width="200" height="100" rx="10"/></defs><g fill="none" fill-rule="evenodd"><path fill="#FFF3CF" d="M67 89h323v172H67z"/><g transform="translate(175 94)"><mask id="c" fill="#fff"><use xlink:href="#a"/></mask><use fill="#000" filter="url(#b)" xlink:href="#a"/><use fill="#FFF" stroke="#8D8D8D" stroke-opacity=".24" xlink:href="#a"/><g mask="url(#c)"><g transform="translate(24 291)"><path fill="#384254" fill-rule="nonzero" d="M71.116 35.168c-1.61 0-2.814-.616-3.584-1.484l.7-.896c.602.7 1.61 1.344 2.926 1.344 1.666 0 2.198-.896 2.198-1.624 0-2.408-5.53-1.064-5.53-4.396 0-1.54 1.372-2.604 3.22-2.604 1.414 0 2.52.49 3.304 1.316l-.7.854c-.7-.784-1.68-1.12-2.702-1.12-1.106 0-1.918.602-1.918 1.484 0 2.1 5.53.896 5.53 4.382 0 1.344-.924 2.744-3.444 2.744zm8.204 0c-2.016 0-3.458-1.442-3.458-3.556 0-1.96 1.4-3.542 3.332-3.542 2.044 0 3.248 1.596 3.248 3.626v.266h-5.46c.084 1.274.966 2.338 2.422 2.338.784 0 1.554-.308 2.1-.868l.504.686c-.686.672-1.596 1.05-2.688 1.05zm2.086-3.99c-.014-.994-.686-2.24-2.226-2.24-1.442 0-2.156 1.218-2.212 2.24h4.438zM89.75 35h-1.036v-4.424c0-1.204-.616-1.568-1.526-1.568-.826 0-1.596.504-2.002 1.05V35h-1.05v-6.762h1.05v.98c.476-.574 1.4-1.148 2.422-1.148 1.4 0 2.142.714 2.142 2.184V35zm8.064 0h-1.05v-1.008c-.504.686-1.33 1.176-2.282 1.176-1.764 0-3.01-1.344-3.01-3.542 0-2.17 1.246-3.556 3.01-3.556.91 0 1.736.448 2.282 1.19v-3.598h1.05V35zm-3.066-.77c.826 0 1.652-.49 2.016-1.078V30.1c-.364-.588-1.19-1.092-2.016-1.092-1.372 0-2.184 1.12-2.184 2.618 0 1.498.812 2.604 2.184 2.604zm14.07.77h-1.05v-.77c-.546.616-1.33.938-2.24.938-1.134 0-2.352-.77-2.352-2.24 0-1.526 1.204-2.226 2.352-2.226.924 0 1.694.294 2.24.91v-1.218c0-.896-.728-1.414-1.708-1.414-.812 0-1.47.28-2.072.938l-.49-.728c.728-.756 1.596-1.12 2.702-1.12 1.442 0 2.618.644 2.618 2.282V35zm-2.898-.588c.728 0 1.442-.28 1.848-.84v-1.288c-.406-.546-1.12-.826-1.848-.826-.994 0-1.68.616-1.68 1.47 0 .868.686 1.484 1.68 1.484zm10.626.588h-1.036v-4.424c0-1.204-.616-1.568-1.526-1.568-.826 0-1.596.504-2.002 1.05V35h-1.05v-6.762h1.05v.98c.476-.574 1.4-1.148 2.422-1.148 1.4 0 2.142.714 2.142 2.184V35zm8.806.168c-2.016 0-3.458-1.442-3.458-3.556 0-1.96 1.4-3.542 3.332-3.542 2.044 0 3.248 1.596 3.248 3.626v.266h-5.46c.084 1.274.966 2.338 2.422 2.338.784 0 1.554-.308 2.1-.868l.504.686c-.686.672-1.596 1.05-2.688 1.05zm2.086-3.99c-.014-.994-.686-2.24-2.226-2.24-1.442 0-2.156 1.218-2.212 2.24h4.438zM139.38 35h-1.05v-4.592c0-.854-.364-1.4-1.246-1.4-.7 0-1.442.49-1.792 1.036V35h-1.05v-4.592c0-.854-.35-1.4-1.246-1.4-.686 0-1.414.504-1.778 1.05V35h-1.05v-6.762h1.05v.98c.294-.434 1.19-1.148 2.198-1.148 1.022 0 1.61.56 1.806 1.26.378-.616 1.288-1.26 2.268-1.26 1.232 0 1.89.686 1.89 2.044V35zm7.378 0h-1.05v-.77c-.546.616-1.33.938-2.24.938-1.134 0-2.352-.77-2.352-2.24 0-1.526 1.204-2.226 2.352-2.226.924 0 1.694.294 2.24.91v-1.218c0-.896-.728-1.414-1.708-1.414-.812 0-1.47.28-2.072.938l-.49-.728c.728-.756 1.596-1.12 2.702-1.12 1.442 0 2.618.644 2.618 2.282V35zm-2.898-.588c.728 0 1.442-.28 1.848-.84v-1.288c-.406-.546-1.12-.826-1.848-.826-.994 0-1.68.616-1.68 1.47 0 .868.686 1.484 1.68 1.484zm5.544-7.14a.705.705 0 01-.714-.7c0-.392.322-.714.714-.714.392 0 .7.322.7.714 0 .392-.308.7-.7.7zm.518 7.728h-1.05v-6.762h1.05V35zm3.15 0h-1.05v-9.338h1.05V35zm8.708.168c-2.016 0-3.374-1.554-3.374-3.556s1.358-3.542 3.374-3.542c1.232 0 1.96.504 2.478 1.176l-.7.63c-.448-.616-1.022-.868-1.722-.868-1.428 0-2.338 1.106-2.338 2.604s.91 2.618 2.338 2.618c.7 0 1.274-.28 1.722-.882l.7.644c-.518.672-1.246 1.176-2.478 1.176zm6.916 0c-2.058 0-3.346-1.596-3.346-3.556s1.288-3.542 3.346-3.542 3.346 1.582 3.346 3.542c0 1.96-1.288 3.556-3.346 3.556zm0-.938c1.442 0 2.24-1.232 2.24-2.618 0-1.372-.798-2.604-2.24-2.604-1.442 0-2.24 1.232-2.24 2.604 0 1.386.798 2.618 2.24 2.618zm14.266.77h-1.05v-4.592c0-.854-.364-1.4-1.246-1.4-.7 0-1.442.49-1.792 1.036V35h-1.05v-4.592c0-.854-.35-1.4-1.246-1.4-.686 0-1.414.504-1.778 1.05V35h-1.05v-6.762h1.05v.98c.294-.434 1.19-1.148 2.198-1.148 1.022 0 1.61.56 1.806 1.26.378-.616 1.288-1.26 2.268-1.26 1.232 0 1.89.686 1.89 2.044V35zm11.312 0h-1.05v-4.592c0-.854-.364-1.4-1.246-1.4-.7 0-1.442.49-1.792 1.036V35h-1.05v-4.592c0-.854-.35-1.4-1.246-1.4-.686 0-1.414.504-1.778 1.05V35h-1.05v-6.762h1.05v.98c.294-.434 1.19-1.148 2.198-1.148 1.022 0 1.61.56 1.806 1.26.378-.616 1.288-1.26 2.268-1.26 1.232 0 1.89.686 1.89 2.044V35zm7.714 0h-1.05v-.952c-.518.588-1.4 1.12-2.408 1.12-1.414 0-2.156-.7-2.156-2.156v-4.774h1.05v4.452c0 1.19.602 1.54 1.526 1.54.812 0 1.596-.476 1.988-1.022v-4.97h1.05V35zm7.714 0h-1.036v-4.424c0-1.204-.616-1.568-1.526-1.568-.826 0-1.596.504-2.002 1.05V35h-1.05v-6.762h1.05v.98c.476-.574 1.4-1.148 2.422-1.148 1.4 0 2.142.714 2.142 2.184V35zm2.646-7.728a.705.705 0 01-.714-.7c0-.392.322-.714.714-.714.392 0 .7.322.7.714 0 .392-.308.7-.7.7zm.518 7.728h-1.05v-6.762h1.05V35zm5.082.168c-2.016 0-3.374-1.554-3.374-3.556s1.358-3.542 3.374-3.542c1.232 0 1.96.504 2.478 1.176l-.7.63c-.448-.616-1.022-.868-1.722-.868-1.428 0-2.338 1.106-2.338 2.604s.91 2.618 2.338 2.618c.7 0 1.274-.28 1.722-.882l.7.644c-.518.672-1.246 1.176-2.478 1.176zm9.24-.168h-1.05v-.77c-.546.616-1.33.938-2.24.938-1.134 0-2.352-.77-2.352-2.24 0-1.526 1.204-2.226 2.352-2.226.924 0 1.694.294 2.24.91v-1.218c0-.896-.728-1.414-1.708-1.414-.812 0-1.47.28-2.072.938l-.49-.728c.728-.756 1.596-1.12 2.702-1.12 1.442 0 2.618.644 2.618 2.282V35zm-2.898-.588c.728 0 1.442-.28 1.848-.84v-1.288c-.406-.546-1.12-.826-1.848-.826-.994 0-1.68.616-1.68 1.47 0 .868.686 1.484 1.68 1.484zm6.734.756c-1.008 0-1.512-.574-1.512-1.582v-4.424h-1.12v-.924h1.12V26.39h1.064v1.848h1.372v.924h-1.372v4.2c0 .504.224.868.672.868.308 0 .574-.14.714-.294l.308.798c-.266.252-.644.434-1.246.434zm2.926-7.896a.705.705 0 01-.714-.7c0-.392.322-.714.714-.714.392 0 .7.322.7.714 0 .392-.308.7-.7.7zm.518 7.728h-1.05v-6.762h1.05V35zm5.054.168c-2.058 0-3.346-1.596-3.346-3.556s1.288-3.542 3.346-3.542 3.346 1.582 3.346 3.542c0 1.96-1.288 3.556-3.346 3.556zm0-.938c1.442 0 2.24-1.232 2.24-2.618 0-1.372-.798-2.604-2.24-2.604-1.442 0-2.24 1.232-2.24 2.604 0 1.386.798 2.618 2.24 2.618zm10.668.77h-1.036v-4.424c0-1.204-.616-1.568-1.526-1.568-.826 0-1.596.504-2.002 1.05V35h-1.05v-6.762h1.05v.98c.476-.574 1.4-1.148 2.422-1.148 1.4 0 2.142.714 2.142 2.184V35zm7.462.168c-1.008 0-1.512-.574-1.512-1.582v-4.424h-1.12v-.924h1.12V26.39h1.064v1.848h1.372v.924h-1.372v4.2c0 .504.224.868.672.868.308 0 .574-.14.714-.294l.308.798c-.266.252-.644.434-1.246.434zm5.348 0c-2.058 0-3.346-1.596-3.346-3.556s1.288-3.542 3.346-3.542 3.346 1.582 3.346 3.542c0 1.96-1.288 3.556-3.346 3.556zm0-.938c1.442 0 2.24-1.232 2.24-2.618 0-1.372-.798-2.604-2.24-2.604-1.442 0-2.24 1.232-2.24 2.604 0 1.386.798 2.618 2.24 2.618zm10.402.938c-1.008 0-1.512-.574-1.512-1.582v-4.424h-1.12v-.924h1.12V26.39h1.064v1.848h1.372v.924h-1.372v4.2c0 .504.224.868.672.868.308 0 .574-.14.714-.294l.308.798c-.266.252-.644.434-1.246.434zm8.022-.168h-1.05v-4.452c0-1.204-.602-1.54-1.526-1.54-.812 0-1.596.504-1.988 1.05V35h-1.05v-9.338h1.05v3.556c.462-.574 1.386-1.148 2.408-1.148 1.414 0 2.156.686 2.156 2.156V35zm5.166.168c-2.016 0-3.458-1.442-3.458-3.556 0-1.96 1.4-3.542 3.332-3.542 2.044 0 3.248 1.596 3.248 3.626v.266h-5.46c.084 1.274.966 2.338 2.422 2.338.784 0 1.554-.308 2.1-.868l.504.686c-.686.672-1.596 1.05-2.688 1.05zm2.086-3.99c-.014-.994-.686-2.24-2.226-2.24-1.442 0-2.156 1.218-2.212 2.24h4.438zM73.664 53h-1.05v-.952c-.518.588-1.4 1.12-2.408 1.12-1.414 0-2.156-.7-2.156-2.156v-4.774h1.05v4.452c0 1.19.602 1.54 1.526 1.54.812 0 1.596-.476 1.988-1.022v-4.97h1.05V53zm4.256.168c-1.12 0-2.044-.35-2.73-1.064l.532-.756c.448.518 1.302.966 2.226.966 1.036 0 1.61-.49 1.61-1.162 0-1.638-4.186-.63-4.186-3.136 0-1.064.896-1.946 2.506-1.946 1.162 0 1.974.434 2.506.98l-.49.728c-.406-.49-1.134-.854-2.016-.854-.924 0-1.498.462-1.498 1.064 0 1.47 4.186.504 4.186 3.136 0 1.134-.91 2.044-2.646 2.044zm7.42 0c-2.016 0-3.458-1.442-3.458-3.556 0-1.96 1.4-3.542 3.332-3.542 2.044 0 3.248 1.596 3.248 3.626v.266h-5.46c.084 1.274.966 2.338 2.422 2.338.784 0 1.554-.308 2.1-.868l.504.686c-.686.672-1.596 1.05-2.688 1.05zm2.086-3.99c-.014-.994-.686-2.24-2.226-2.24-1.442 0-2.156 1.218-2.212 2.24h4.438zM91.206 53h-1.05v-6.762h1.05v1.078c.546-.7 1.33-1.232 2.254-1.232v1.078c-.126-.014-.252-.028-.406-.028-.658 0-1.54.532-1.848 1.078V53zm2.968.14c-.42 0-.77-.35-.77-.77 0-.42.35-.77.77-.77.42 0 .77.35.77.77 0 .42-.35.77-.77.77zM75.07 13h-7.08V2.995h7.08V4.87h-4.95v2.1h4.845v1.875H70.12v2.28h4.95V13zm12.525 0h-1.92V8.425c0-.675-.3-1.155-1.08-1.155-.675 0-1.23.45-1.5.84V13h-1.92V8.425c0-.675-.3-1.155-1.08-1.155-.66 0-1.215.45-1.5.84V13H76.69V5.755h1.905v.93c.315-.42 1.26-1.11 2.37-1.11 1.065 0 1.755.495 2.01 1.305.42-.645 1.38-1.305 2.49-1.305 1.335 0 2.13.705 2.13 2.19V13zm8.16 0h-1.92v-.765c-.495.6-1.35.945-2.295.945-1.155 0-2.505-.78-2.505-2.4 0-1.71 1.35-2.34 2.505-2.34.975 0 1.815.315 2.295.885V8.41c0-.735-.63-1.215-1.59-1.215-.765 0-1.485.3-2.085.855l-.75-1.335c.885-.795 2.025-1.14 3.165-1.14 1.665 0 3.18.66 3.18 2.745V13zm-3.45-1.11c.615 0 1.215-.21 1.53-.63v-.9c-.315-.42-.915-.645-1.53-.645-.75 0-1.365.405-1.365 1.095s.615 1.08 1.365 1.08zm6.27-6.915c-.615 0-1.125-.51-1.125-1.14 0-.63.51-1.125 1.125-1.125.63 0 1.14.495 1.14 1.125s-.51 1.14-1.14 1.14zm.96 8.025H97.63V5.755h1.905V13zm3.795 0h-1.905V2.995h1.905V13z"/><rect width="50" height="50" x=".5" y=".5" fill="#FFF" stroke="#E1E1E1" rx="10"/><path fill="#01B2D0" d="M16.421 21.253a2.413 2.413 0 012.411-2.41h13.336a2.418 2.418 0 012.41 2.41v8.494a2.413 2.413 0 01-2.41 2.41H18.832a2.418 2.418 0 01-2.41-2.41v-8.494zm9.079 5.815l-6.23-6.233a.605.605 0 00-.856.856l6.658 6.661c.236.237.62.237.856 0l6.658-6.661a.605.605 0 00-.856-.856l-6.23 6.233z"/></g></g><g mask="url(#c)"><g transform="translate(24 180)"><path fill="#384254" fill-rule="nonzero" d="M72.348 35.168c-2.758 0-4.634-2.072-4.634-4.83s1.876-4.83 4.634-4.83c2.758 0 4.648 2.072 4.648 4.83s-1.89 4.83-4.648 4.83zm0-1.036c2.086 0 3.444-1.624 3.444-3.794 0-2.184-1.358-3.794-3.444-3.794-2.1 0-3.43 1.61-3.43 3.794 0 2.17 1.33 3.794 3.43 3.794zM84.374 35h-1.036v-4.424c0-1.204-.616-1.568-1.526-1.568-.826 0-1.596.504-2.002 1.05V35h-1.05v-6.762h1.05v.98c.476-.574 1.4-1.148 2.422-1.148 1.4 0 2.142.714 2.142 2.184V35zm3.164 0h-1.05v-9.338h1.05V35zm1.736 2.646l.154-.952c.154.07.406.112.574.112.462 0 .77-.154 1.008-.714l.448-1.022-2.828-6.832h1.148l2.24 5.544 2.254-5.544h1.134l-3.388 8.134c-.406.98-1.092 1.358-1.988 1.372-.224 0-.574-.042-.756-.098zM105.402 35h-1.05v-.77c-.546.616-1.33.938-2.24.938-1.134 0-2.352-.77-2.352-2.24 0-1.526 1.204-2.226 2.352-2.226.924 0 1.694.294 2.24.91v-1.218c0-.896-.728-1.414-1.708-1.414-.812 0-1.47.28-2.072.938l-.49-.728c.728-.756 1.596-1.12 2.702-1.12 1.442 0 2.618.644 2.618 2.282V35zm-2.898-.588c.728 0 1.442-.28 1.848-.84v-1.288c-.406-.546-1.12-.826-1.848-.826-.994 0-1.68.616-1.68 1.47 0 .868.686 1.484 1.68 1.484zm10.962.588h-1.05v-1.008c-.504.686-1.33 1.176-2.282 1.176-1.764 0-3.01-1.344-3.01-3.542 0-2.17 1.246-3.556 3.01-3.556.91 0 1.736.448 2.282 1.19v-3.598h1.05V35zm-3.066-.77c.826 0 1.652-.49 2.016-1.078V30.1c-.364-.588-1.19-1.092-2.016-1.092-1.372 0-2.184 1.12-2.184 2.618 0 1.498.812 2.604 2.184 2.604zm8.12.77h-1.148l-2.814-6.762h1.148l2.24 5.544 2.254-5.544h1.134L118.52 35zm9.184 0h-1.05v-.77c-.546.616-1.33.938-2.24.938-1.134 0-2.352-.77-2.352-2.24 0-1.526 1.204-2.226 2.352-2.226.924 0 1.694.294 2.24.91v-1.218c0-.896-.728-1.414-1.708-1.414-.812 0-1.47.28-2.072.938l-.49-.728c.728-.756 1.596-1.12 2.702-1.12 1.442 0 2.618.644 2.618 2.282V35zm-2.898-.588c.728 0 1.442-.28 1.848-.84v-1.288c-.406-.546-1.12-.826-1.848-.826-.994 0-1.68.616-1.68 1.47 0 .868.686 1.484 1.68 1.484zm10.626.588h-1.036v-4.424c0-1.204-.616-1.568-1.526-1.568-.826 0-1.596.504-2.002 1.05V35h-1.05v-6.762h1.05v.98c.476-.574 1.4-1.148 2.422-1.148 1.4 0 2.142.714 2.142 2.184V35zm5.096.168c-2.016 0-3.374-1.554-3.374-3.556s1.358-3.542 3.374-3.542c1.232 0 1.96.504 2.478 1.176l-.7.63c-.448-.616-1.022-.868-1.722-.868-1.428 0-2.338 1.106-2.338 2.604s.91 2.618 2.338 2.618c.7 0 1.274-.28 1.722-.882l.7.644c-.518.672-1.246 1.176-2.478 1.176zm7.028 0c-2.016 0-3.458-1.442-3.458-3.556 0-1.96 1.4-3.542 3.332-3.542 2.044 0 3.248 1.596 3.248 3.626v.266h-5.46c.084 1.274.966 2.338 2.422 2.338.784 0 1.554-.308 2.1-.868l.504.686c-.686.672-1.596 1.05-2.688 1.05zm2.086-3.99c-.014-.994-.686-2.24-2.226-2.24-1.442 0-2.156 1.218-2.212 2.24h4.438zm9.338 3.99c-2.016 0-3.374-1.554-3.374-3.556s1.358-3.542 3.374-3.542c1.232 0 1.96.504 2.478 1.176l-.7.63c-.448-.616-1.022-.868-1.722-.868-1.428 0-2.338 1.106-2.338 2.604s.91 2.618 2.338 2.618c.7 0 1.274-.28 1.722-.882l.7.644c-.518.672-1.246 1.176-2.478 1.176zm9.576-.168h-1.05v-.952c-.518.588-1.4 1.12-2.408 1.12-1.414 0-2.156-.7-2.156-2.156v-4.774h1.05v4.452c0 1.19.602 1.54 1.526 1.54.812 0 1.596-.476 1.988-1.022v-4.97h1.05V35zm4.256.168c-1.12 0-2.044-.35-2.73-1.064l.532-.756c.448.518 1.302.966 2.226.966 1.036 0 1.61-.49 1.61-1.162 0-1.638-4.186-.63-4.186-3.136 0-1.064.896-1.946 2.506-1.946 1.162 0 1.974.434 2.506.98l-.49.728c-.406-.49-1.134-.854-2.016-.854-.924 0-1.498.462-1.498 1.064 0 1.47 4.186.504 4.186 3.136 0 1.134-.91 2.044-2.646 2.044zm6.076 0c-1.008 0-1.512-.574-1.512-1.582v-4.424h-1.12v-.924h1.12V26.39h1.064v1.848h1.372v.924h-1.372v4.2c0 .504.224.868.672.868.308 0 .574-.14.714-.294l.308.798c-.266.252-.644.434-1.246.434zm5.348 0c-2.058 0-3.346-1.596-3.346-3.556s1.288-3.542 3.346-3.542 3.346 1.582 3.346 3.542c0 1.96-1.288 3.556-3.346 3.556zm0-.938c1.442 0 2.24-1.232 2.24-2.618 0-1.372-.798-2.604-2.24-2.604-1.442 0-2.24 1.232-2.24 2.604 0 1.386.798 2.618 2.24 2.618zm14.266.77h-1.05v-4.592c0-.854-.364-1.4-1.246-1.4-.7 0-1.442.49-1.792 1.036V35h-1.05v-4.592c0-.854-.35-1.4-1.246-1.4-.686 0-1.414.504-1.778 1.05V35h-1.05v-6.762h1.05v.98c.294-.434 1.19-1.148 2.198-1.148 1.022 0 1.61.56 1.806 1.26.378-.616 1.288-1.26 2.268-1.26 1.232 0 1.89.686 1.89 2.044V35zm5.166.168c-2.016 0-3.458-1.442-3.458-3.556 0-1.96 1.4-3.542 3.332-3.542 2.044 0 3.248 1.596 3.248 3.626v.266h-5.46c.084 1.274.966 2.338 2.422 2.338.784 0 1.554-.308 2.1-.868l.504.686c-.686.672-1.596 1.05-2.688 1.05zm2.086-3.99c-.014-.994-.686-2.24-2.226-2.24-1.442 0-2.156 1.218-2.212 2.24h4.438zm3.78 3.822h-1.05v-6.762h1.05v1.078c.546-.7 1.33-1.232 2.254-1.232v1.078a3.468 3.468 0 00-.406-.028c-.658 0-1.54.532-1.848 1.078V35zm5.726.168c-1.12 0-2.044-.35-2.73-1.064l.532-.756c.448.518 1.302.966 2.226.966 1.036 0 1.61-.49 1.61-1.162 0-1.638-4.186-.63-4.186-3.136 0-1.064.896-1.946 2.506-1.946 1.162 0 1.974.434 2.506.98l-.49.728c-.406-.49-1.134-.854-2.016-.854-.924 0-1.498.462-1.498 1.064 0 1.47 4.186.504 4.186 3.136 0 1.134-.91 2.044-2.646 2.044zM230.156 35h-1.064l-1.764-5.432L225.564 35h-1.05l-2.156-6.762h1.092l1.652 5.39 1.778-5.39h.91l1.764 5.39 1.652-5.39h1.106L230.156 35zm8.988 0h-1.05v-4.452c0-1.204-.602-1.54-1.526-1.54-.812 0-1.596.504-1.988 1.05V35h-1.05v-9.338h1.05v3.556c.462-.574 1.386-1.148 2.408-1.148 1.414 0 2.156.686 2.156 2.156V35zm5.054.168c-2.058 0-3.346-1.596-3.346-3.556s1.288-3.542 3.346-3.542 3.346 1.582 3.346 3.542c0 1.96-1.288 3.556-3.346 3.556zm0-.938c1.442 0 2.24-1.232 2.24-2.618 0-1.372-.798-2.604-2.24-2.604-1.442 0-2.24 1.232-2.24 2.604 0 1.386.798 2.618 2.24 2.618zm17.892.77h-1.05v-4.592c0-.854-.364-1.4-1.246-1.4-.7 0-1.442.49-1.792 1.036V35h-1.05v-4.592c0-.854-.35-1.4-1.246-1.4-.686 0-1.414.504-1.778 1.05V35h-1.05v-6.762h1.05v.98c.294-.434 1.19-1.148 2.198-1.148 1.022 0 1.61.56 1.806 1.26.378-.616 1.288-1.26 2.268-1.26 1.232 0 1.89.686 1.89 2.044V35zm5.166.168c-2.016 0-3.458-1.442-3.458-3.556 0-1.96 1.4-3.542 3.332-3.542 2.044 0 3.248 1.596 3.248 3.626v.266h-5.46c.084 1.274.966 2.338 2.422 2.338.784 0 1.554-.308 2.1-.868l.504.686c-.686.672-1.596 1.05-2.688 1.05zm2.086-3.99c-.014-.994-.686-2.24-2.226-2.24-1.442 0-2.156 1.218-2.212 2.24h4.438zm5.796 3.99c-2.016 0-3.458-1.442-3.458-3.556 0-1.96 1.4-3.542 3.332-3.542 2.044 0 3.248 1.596 3.248 3.626v.266h-5.46c.084 1.274.966 2.338 2.422 2.338.784 0 1.554-.308 2.1-.868l.504.686c-.686.672-1.596 1.05-2.688 1.05zm2.086-3.99c-.014-.994-.686-2.24-2.226-2.24-1.442 0-2.156 1.218-2.212 2.24h4.438zm4.452 3.99c-1.008 0-1.512-.574-1.512-1.582v-4.424h-1.12v-.924h1.12V26.39h1.064v1.848h1.372v.924h-1.372v4.2c0 .504.224.868.672.868.308 0 .574-.14.714-.294l.308.798c-.266.252-.644.434-1.246.434zm-211.47 18c-1.12 0-2.044-.35-2.73-1.064l.532-.756c.448.518 1.302.966 2.226.966 1.036 0 1.61-.49 1.61-1.162 0-1.638-4.186-.63-4.186-3.136 0-1.064.896-1.946 2.506-1.946 1.162 0 1.974.434 2.506.98l-.49.728c-.406-.49-1.134-.854-2.016-.854-.924 0-1.498.462-1.498 1.064 0 1.47 4.186.504 4.186 3.136 0 1.134-.91 2.044-2.646 2.044zm7.308 0c-2.058 0-3.346-1.596-3.346-3.556s1.288-3.542 3.346-3.542 3.346 1.582 3.346 3.542c0 1.96-1.288 3.556-3.346 3.556zm0-.938c1.442 0 2.24-1.232 2.24-2.618 0-1.372-.798-2.604-2.24-2.604-1.442 0-2.24 1.232-2.24 2.604 0 1.386.798 2.618 2.24 2.618zM91.78 53h-1.05v-4.592c0-.854-.364-1.4-1.246-1.4-.7 0-1.442.49-1.792 1.036V53h-1.05v-4.592c0-.854-.35-1.4-1.246-1.4-.686 0-1.414.504-1.778 1.05V53h-1.05v-6.762h1.05v.98c.294-.434 1.19-1.148 2.198-1.148 1.022 0 1.61.56 1.806 1.26.378-.616 1.288-1.26 2.268-1.26 1.232 0 1.89.686 1.89 2.044V53zm5.166.168c-2.016 0-3.458-1.442-3.458-3.556 0-1.96 1.4-3.542 3.332-3.542 2.044 0 3.248 1.596 3.248 3.626v.266h-5.46c.084 1.274.966 2.338 2.422 2.338.784 0 1.554-.308 2.1-.868l.504.686c-.686.672-1.596 1.05-2.688 1.05zm2.086-3.99c-.014-.994-.686-2.24-2.226-2.24-1.442 0-2.156 1.218-2.212 2.24h4.438zm9.422 3.99c-2.016 0-3.458-1.442-3.458-3.556 0-1.96 1.4-3.542 3.332-3.542 2.044 0 3.248 1.596 3.248 3.626v.266h-5.46c.084 1.274.966 2.338 2.422 2.338.784 0 1.554-.308 2.1-.868l.504.686c-.686.672-1.596 1.05-2.688 1.05zm2.086-3.99c-.014-.994-.686-2.24-2.226-2.24-1.442 0-2.156 1.218-2.212 2.24h4.438zM116.224 53h-1.148l-2.814-6.762h1.148l2.24 5.544 2.254-5.544h1.134L116.224 53zm6.972.168c-2.016 0-3.458-1.442-3.458-3.556 0-1.96 1.4-3.542 3.332-3.542 2.044 0 3.248 1.596 3.248 3.626v.266h-5.46c.084 1.274.966 2.338 2.422 2.338.784 0 1.554-.308 2.1-.868l.504.686c-.686.672-1.596 1.05-2.688 1.05zm2.086-3.99c-.014-.994-.686-2.24-2.226-2.24-1.442 0-2.156 1.218-2.212 2.24h4.438zM133.626 53h-1.036v-4.424c0-1.204-.616-1.568-1.526-1.568-.826 0-1.596.504-2.002 1.05V53h-1.05v-6.762h1.05v.98c.476-.574 1.4-1.148 2.422-1.148 1.4 0 2.142.714 2.142 2.184V53zm3.836.168c-1.008 0-1.512-.574-1.512-1.582v-4.424h-1.12v-.924h1.12V44.39h1.064v1.848h1.372v.924h-1.372v4.2c0 .504.224.868.672.868.308 0 .574-.14.714-.294l.308.798c-.266.252-.644.434-1.246.434zm4.55 0c-1.12 0-2.044-.35-2.73-1.064l.532-.756c.448.518 1.302.966 2.226.966 1.036 0 1.61-.49 1.61-1.162 0-1.638-4.186-.63-4.186-3.136 0-1.064.896-1.946 2.506-1.946 1.162 0 1.974.434 2.506.98l-.49.728c-.406-.49-1.134-.854-2.016-.854-.924 0-1.498.462-1.498 1.064 0 1.47 4.186.504 4.186 3.136 0 1.134-.91 2.044-2.646 2.044zm4.914-.028c-.42 0-.77-.35-.77-.77 0-.42.35-.77.77-.77.42 0 .77.35.77.77 0 .42-.35.77-.77.77zM70.12 13h-2.13V2.995h7.08V4.87h-4.95v2.1h4.845v1.875H70.12V13zm7.335-8.025c-.615 0-1.125-.51-1.125-1.14 0-.63.51-1.125 1.125-1.125.63 0 1.14.495 1.14 1.125s-.51 1.14-1.14 1.14zm.96 8.025H76.51V5.755h1.905V13zm3.795 0h-1.905V2.995h1.905V13zm4.32.18c-1.335 0-2.04-.69-2.04-1.995V7.42h-1.2V5.755h1.2v-1.98h1.905v1.98h1.47V7.42h-1.47v3.255c0 .465.24.81.66.81.285 0 .555-.105.66-.225l.405 1.455c-.285.255-.795.465-1.59.465zm6.045 0c-2.205 0-3.87-1.485-3.87-3.81 0-2.1 1.56-3.795 3.75-3.795 2.175 0 3.63 1.62 3.63 3.975V10H90.7c.135.885.855 1.62 2.085 1.62.615 0 1.455-.255 1.92-.705l.855 1.26c-.72.66-1.86 1.005-2.985 1.005zm1.68-4.5c-.06-.69-.54-1.545-1.8-1.545-1.185 0-1.695.825-1.77 1.545h3.57zM99.37 13h-1.905V5.755h1.905v.975c.525-.63 1.41-1.155 2.31-1.155v1.86c-.135-.03-.3-.045-.525-.045-.63 0-1.47.36-1.785.825V13z"/><rect width="50" height="50" x=".5" y=".5" fill="#FFF" stroke="#E1E1E1" rx="10"/><path fill="#72D6A5" d="M19 18h13a1 1 0 011 1v1.532a1 1 0 01-.36.768l-5.28 4.4a1 1 0 00-.36.768v4.298a.5.5 0 01-.18.384l-2 1.667a.5.5 0 01-.82-.385v-5.964a1 1 0 00-.36-.768l-5.28-4.4a1 1 0 01-.36-.768V19a1 1 0 011-1z"/></g></g><g mask="url(#c)"><g transform="translate(24 102)"><path fill="#384254" fill-rule="nonzero" d="M71.564 35h-1.162v-8.302h-2.954v-1.036h7.084v1.036h-2.968V35zm8.414 0h-1.05v-.77c-.546.616-1.33.938-2.24.938-1.134 0-2.352-.77-2.352-2.24 0-1.526 1.204-2.226 2.352-2.226.924 0 1.694.294 2.24.91v-1.218c0-.896-.728-1.414-1.708-1.414-.812 0-1.47.28-2.072.938l-.49-.728c.728-.756 1.596-1.12 2.702-1.12 1.442 0 2.618.644 2.618 2.282V35zm-2.898-.588c.728 0 1.442-.28 1.848-.84v-1.288c-.406-.546-1.12-.826-1.848-.826-.994 0-1.68.616-1.68 1.47 0 .868.686 1.484 1.68 1.484zM88.042 35h-1.344l-2.422-3.038-1.134 1.106V35h-1.05v-9.338h1.05v6.174l3.556-3.598h1.33l-2.996 3.066L88.042 35zm4.27.168c-2.016 0-3.458-1.442-3.458-3.556 0-1.96 1.4-3.542 3.332-3.542 2.044 0 3.248 1.596 3.248 3.626v.266h-5.46c.084 1.274.966 2.338 2.422 2.338.784 0 1.554-.308 2.1-.868l.504.686c-.686.672-1.596 1.05-2.688 1.05zm2.086-3.99c-.014-.994-.686-2.24-2.226-2.24-1.442 0-2.156 1.218-2.212 2.24h4.438zM106.032 35h-1.05v-.77c-.546.616-1.33.938-2.24.938-1.134 0-2.352-.77-2.352-2.24 0-1.526 1.204-2.226 2.352-2.226.924 0 1.694.294 2.24.91v-1.218c0-.896-.728-1.414-1.708-1.414-.812 0-1.47.28-2.072.938l-.49-.728c.728-.756 1.596-1.12 2.702-1.12 1.442 0 2.618.644 2.618 2.282V35zm-2.898-.588c.728 0 1.442-.28 1.848-.84v-1.288c-.406-.546-1.12-.826-1.848-.826-.994 0-1.68.616-1.68 1.47 0 .868.686 1.484 1.68 1.484zm14.252.588h-1.05v-.952c-.518.588-1.4 1.12-2.408 1.12-1.414 0-2.156-.7-2.156-2.156v-4.774h1.05v4.452c0 1.19.602 1.54 1.526 1.54.812 0 1.596-.476 1.988-1.022v-4.97h1.05V35zm4.256.168c-1.12 0-2.044-.35-2.73-1.064l.532-.756c.448.518 1.302.966 2.226.966 1.036 0 1.61-.49 1.61-1.162 0-1.638-4.186-.63-4.186-3.136 0-1.064.896-1.946 2.506-1.946 1.162 0 1.974.434 2.506.98l-.49.728c-.406-.49-1.134-.854-2.016-.854-.924 0-1.498.462-1.498 1.064 0 1.47 4.186.504 4.186 3.136 0 1.134-.91 2.044-2.646 2.044zm7.42 0c-2.016 0-3.458-1.442-3.458-3.556 0-1.96 1.4-3.542 3.332-3.542 2.044 0 3.248 1.596 3.248 3.626v.266h-5.46c.084 1.274.966 2.338 2.422 2.338.784 0 1.554-.308 2.1-.868l.504.686c-.686.672-1.596 1.05-2.688 1.05zm2.086-3.99c-.014-.994-.686-2.24-2.226-2.24-1.442 0-2.156 1.218-2.212 2.24h4.438zm3.78 3.822h-1.05v-6.762h1.05v1.078c.546-.7 1.33-1.232 2.254-1.232v1.078a3.468 3.468 0 00-.406-.028c-.658 0-1.54.532-1.848 1.078V35zm13.146 0h-1.05v-1.008c-.504.686-1.33 1.176-2.282 1.176-1.764 0-3.01-1.344-3.01-3.542 0-2.17 1.246-3.556 3.01-3.556.91 0 1.736.448 2.282 1.19v-3.598h1.05V35zm-3.066-.77c.826 0 1.652-.49 2.016-1.078V30.1c-.364-.588-1.19-1.092-2.016-1.092-1.372 0-2.184 1.12-2.184 2.618 0 1.498.812 2.604 2.184 2.604zm8.12.938c-2.058 0-3.346-1.596-3.346-3.556s1.288-3.542 3.346-3.542 3.346 1.582 3.346 3.542c0 1.96-1.288 3.556-3.346 3.556zm0-.938c1.442 0 2.24-1.232 2.24-2.618 0-1.372-.798-2.604-2.24-2.604-1.442 0-2.24 1.232-2.24 2.604 0 1.386.798 2.618 2.24 2.618zm11.97.77h-1.064l-1.764-5.432L160.506 35h-1.05l-2.156-6.762h1.092l1.652 5.39 1.778-5.39h.91l1.764 5.39 1.652-5.39h1.106L165.098 35zm8.974 0h-1.036v-4.424c0-1.204-.616-1.568-1.526-1.568-.826 0-1.596.504-2.002 1.05V35h-1.05v-6.762h1.05v.98c.476-.574 1.4-1.148 2.422-1.148 1.4 0 2.142.714 2.142 2.184V35zm11.018 0h-1.05v-.77c-.546.616-1.33.938-2.24.938-1.134 0-2.352-.77-2.352-2.24 0-1.526 1.204-2.226 2.352-2.226.924 0 1.694.294 2.24.91v-1.218c0-.896-.728-1.414-1.708-1.414-.812 0-1.47.28-2.072.938l-.49-.728c.728-.756 1.596-1.12 2.702-1.12 1.442 0 2.618.644 2.618 2.282V35zm-2.898-.588c.728 0 1.442-.28 1.848-.84v-1.288c-.406-.546-1.12-.826-1.848-.826-.994 0-1.68.616-1.68 1.47 0 .868.686 1.484 1.68 1.484zm9.688-1.246c.364.588 1.19 1.064 2.03 1.064 1.358 0 2.17-1.106 2.17-2.604s-.812-2.618-2.17-2.618c-.84 0-1.666.504-2.03 1.092v3.066zm0 1.834h-1.05v-9.338h1.05v3.598c.546-.742 1.372-1.19 2.282-1.19 1.778 0 3.01 1.386 3.01 3.556 0 2.198-1.246 3.542-3.01 3.542-.952 0-1.778-.49-2.282-1.176V35zm8.05 0h-1.05v-6.762h1.05v1.078c.546-.7 1.33-1.232 2.254-1.232v1.078a3.468 3.468 0 00-.406-.028c-.658 0-1.54.532-1.848 1.078V35zm8.848 0h-1.05v-.77c-.546.616-1.33.938-2.24.938-1.134 0-2.352-.77-2.352-2.24 0-1.526 1.204-2.226 2.352-2.226.924 0 1.694.294 2.24.91v-1.218c0-.896-.728-1.414-1.708-1.414-.812 0-1.47.28-2.072.938l-.49-.728c.728-.756 1.596-1.12 2.702-1.12 1.442 0 2.618.644 2.618 2.282V35zm-2.898-.588c.728 0 1.442-.28 1.848-.84v-1.288c-.406-.546-1.12-.826-1.848-.826-.994 0-1.68.616-1.68 1.47 0 .868.686 1.484 1.68 1.484zm10.626.588h-1.036v-4.424c0-1.204-.616-1.568-1.526-1.568-.826 0-1.596.504-2.002 1.05V35h-1.05v-6.762h1.05v.98c.476-.574 1.4-1.148 2.422-1.148 1.4 0 2.142.714 2.142 2.184V35zm5.096.168c-2.016 0-3.374-1.554-3.374-3.556s1.358-3.542 3.374-3.542c1.232 0 1.96.504 2.478 1.176l-.7.63c-.448-.616-1.022-.868-1.722-.868-1.428 0-2.338 1.106-2.338 2.604s.91 2.618 2.338 2.618c.7 0 1.274-.28 1.722-.882l.7.644c-.518.672-1.246 1.176-2.478 1.176zm9.59-.168h-1.05v-4.452c0-1.204-.602-1.54-1.526-1.54-.812 0-1.596.504-1.988 1.05V35h-1.05v-9.338h1.05v3.556c.462-.574 1.386-1.148 2.408-1.148 1.414 0 2.156.686 2.156 2.156V35zM74 53h-1.05v-1.008c-.504.686-1.33 1.176-2.282 1.176-1.764 0-3.01-1.344-3.01-3.542 0-2.17 1.246-3.556 3.01-3.556.91 0 1.736.448 2.282 1.19v-3.598H74V53zm-3.066-.77c.826 0 1.652-.49 2.016-1.078V48.1c-.364-.588-1.19-1.092-2.016-1.092-1.372 0-2.184 1.12-2.184 2.618 0 1.498.812 2.604 2.184 2.604zm8.232.938c-2.016 0-3.458-1.442-3.458-3.556 0-1.96 1.4-3.542 3.332-3.542 2.044 0 3.248 1.596 3.248 3.626v.266h-5.46c.084 1.274.966 2.338 2.422 2.338.784 0 1.554-.308 2.1-.868l.504.686c-.686.672-1.596 1.05-2.688 1.05zm2.086-3.99c-.014-.994-.686-2.24-2.226-2.24-1.442 0-2.156 1.218-2.212 2.24h4.438zm6.062 3.99c-.924 0-1.722-.448-2.282-1.19v3.598h-1.05v-9.338h1.05v1.008a2.827 2.827 0 012.282-1.176c1.778 0 3.01 1.344 3.01 3.542 0 2.184-1.232 3.556-3.01 3.556zm-.266-.938c1.358 0 2.17-1.12 2.17-2.618 0-1.498-.812-2.604-2.17-2.604-.826 0-1.652.49-2.016 1.078v3.052c.364.588 1.19 1.092 2.016 1.092zm8.008.938c-2.016 0-3.458-1.442-3.458-3.556 0-1.96 1.4-3.542 3.332-3.542 2.044 0 3.248 1.596 3.248 3.626v.266h-5.46c.084 1.274.966 2.338 2.422 2.338.784 0 1.554-.308 2.1-.868l.504.686c-.686.672-1.596 1.05-2.688 1.05zm2.086-3.99c-.014-.994-.686-2.24-2.226-2.24-1.442 0-2.156 1.218-2.212 2.24h4.438zM105.486 53h-1.036v-4.424c0-1.204-.616-1.568-1.526-1.568-.826 0-1.596.504-2.002 1.05V53h-1.05v-6.762h1.05v.98c.476-.574 1.4-1.148 2.422-1.148 1.4 0 2.142.714 2.142 2.184V53zm8.064 0h-1.05v-1.008c-.504.686-1.33 1.176-2.282 1.176-1.764 0-3.01-1.344-3.01-3.542 0-2.17 1.246-3.556 3.01-3.556.91 0 1.736.448 2.282 1.19v-3.598h1.05V53zm-3.066-.77c.826 0 1.652-.49 2.016-1.078V48.1c-.364-.588-1.19-1.092-2.016-1.092-1.372 0-2.184 1.12-2.184 2.618 0 1.498.812 2.604 2.184 2.604zm5.698-6.958a.705.705 0 01-.714-.7c0-.392.322-.714.714-.714.392 0 .7.322.7.714 0 .392-.308.7-.7.7zM116.7 53h-1.05v-6.762h1.05V53zm7.714 0h-1.036v-4.424c0-1.204-.616-1.568-1.526-1.568-.826 0-1.596.504-2.002 1.05V53h-1.05v-6.762h1.05v.98c.476-.574 1.4-1.148 2.422-1.148 1.4 0 2.142.714 2.142 2.184V53zm4.83 2.744c-1.134 0-1.918-.224-2.73-1.022l.532-.756c.56.658 1.232.91 2.198.91 1.12 0 2.184-.546 2.184-1.974V51.88c-.504.686-1.33 1.204-2.282 1.204-1.764 0-3.01-1.316-3.01-3.5 0-2.17 1.232-3.514 3.01-3.514.91 0 1.736.448 2.282 1.19v-1.022h1.05v6.664c0 2.142-1.582 2.842-3.234 2.842zm.168-3.598c.826 0 1.638-.504 2.016-1.092v-2.968c-.378-.574-1.19-1.078-2.016-1.078-1.372 0-2.184 1.078-2.184 2.576 0 1.484.812 2.562 2.184 2.562zm11.746 1.022c-2.058 0-3.346-1.596-3.346-3.556s1.288-3.542 3.346-3.542 3.346 1.582 3.346 3.542c0 1.96-1.288 3.556-3.346 3.556zm0-.938c1.442 0 2.24-1.232 2.24-2.618 0-1.372-.798-2.604-2.24-2.604-1.442 0-2.24 1.232-2.24 2.604 0 1.386.798 2.618 2.24 2.618zm10.668.77h-1.036v-4.424c0-1.204-.616-1.568-1.526-1.568-.826 0-1.596.504-2.002 1.05V53h-1.05v-6.762h1.05v.98c.476-.574 1.4-1.148 2.422-1.148 1.4 0 2.142.714 2.142 2.184V53zm7.896.168c-1.12 0-2.044-.35-2.73-1.064l.532-.756c.448.518 1.302.966 2.226.966 1.036 0 1.61-.49 1.61-1.162 0-1.638-4.186-.63-4.186-3.136 0-1.064.896-1.946 2.506-1.946 1.162 0 1.974.434 2.506.98l-.49.728c-.406-.49-1.134-.854-2.016-.854-.924 0-1.498.462-1.498 1.064 0 1.47 4.186.504 4.186 3.136 0 1.134-.91 2.044-2.646 2.044zm7.308 0c-2.058 0-3.346-1.596-3.346-3.556s1.288-3.542 3.346-3.542 3.346 1.582 3.346 3.542c0 1.96-1.288 3.556-3.346 3.556zm0-.938c1.442 0 2.24-1.232 2.24-2.618 0-1.372-.798-2.604-2.24-2.604-1.442 0-2.24 1.232-2.24 2.604 0 1.386.798 2.618 2.24 2.618zm14.266.77h-1.05v-4.592c0-.854-.364-1.4-1.246-1.4-.7 0-1.442.49-1.792 1.036V53h-1.05v-4.592c0-.854-.35-1.4-1.246-1.4-.686 0-1.414.504-1.778 1.05V53h-1.05v-6.762h1.05v.98c.294-.434 1.19-1.148 2.198-1.148 1.022 0 1.61.56 1.806 1.26.378-.616 1.288-1.26 2.268-1.26 1.232 0 1.89.686 1.89 2.044V53zm5.166.168c-2.016 0-3.458-1.442-3.458-3.556 0-1.96 1.4-3.542 3.332-3.542 2.044 0 3.248 1.596 3.248 3.626v.266h-5.46c.084 1.274.966 2.338 2.422 2.338.784 0 1.554-.308 2.1-.868l.504.686c-.686.672-1.596 1.05-2.688 1.05zm2.086-3.99c-.014-.994-.686-2.24-2.226-2.24-1.442 0-2.156 1.218-2.212 2.24h4.438zM195.954 53h-1.05v-9.338h1.05V53zm5.054.168c-2.058 0-3.346-1.596-3.346-3.556s1.288-3.542 3.346-3.542 3.346 1.582 3.346 3.542c0 1.96-1.288 3.556-3.346 3.556zm0-.938c1.442 0 2.24-1.232 2.24-2.618 0-1.372-.798-2.604-2.24-2.604-1.442 0-2.24 1.232-2.24 2.604 0 1.386.798 2.618 2.24 2.618zm7.77 3.514c-1.134 0-1.918-.224-2.73-1.022l.532-.756c.56.658 1.232.91 2.198.91 1.12 0 2.184-.546 2.184-1.974V51.88c-.504.686-1.33 1.204-2.282 1.204-1.764 0-3.01-1.316-3.01-3.5 0-2.17 1.232-3.514 3.01-3.514.91 0 1.736.448 2.282 1.19v-1.022h1.05v6.664c0 2.142-1.582 2.842-3.234 2.842zm.168-3.598c.826 0 1.638-.504 2.016-1.092v-2.968c-.378-.574-1.19-1.078-2.016-1.078-1.372 0-2.184 1.078-2.184 2.576 0 1.484.812 2.562 2.184 2.562zm5.698-6.874a.705.705 0 01-.714-.7c0-.392.322-.714.714-.714.392 0 .7.322.7.714 0 .392-.308.7-.7.7zm.518 7.728h-1.05v-6.762h1.05V53zm5.082.168c-2.016 0-3.374-1.554-3.374-3.556s1.358-3.542 3.374-3.542c1.232 0 1.96.504 2.478 1.176l-.7.63c-.448-.616-1.022-.868-1.722-.868-1.428 0-2.338 1.106-2.338 2.604s.91 2.618 2.338 2.618c.7 0 1.274-.28 1.722-.882l.7.644c-.518.672-1.246 1.176-2.478 1.176zm4.522-.028c-.42 0-.77-.35-.77-.77 0-.42.35-.77.77-.77.42 0 .77.35.77.77 0 .42-.35.77-.77.77zM73.42 13h-5.43V2.995h5.265c1.905 0 2.88 1.215 2.88 2.55 0 1.245-.78 2.1-1.725 2.295 1.08.165 1.92 1.2 1.92 2.445 0 1.515-.99 2.715-2.91 2.715zm-.63-6.03c.72 0 1.17-.405 1.17-1.05 0-.615-.45-1.05-1.17-1.05h-2.67v2.1h2.67zm.09 4.155c.795 0 1.275-.42 1.275-1.14 0-.63-.45-1.14-1.275-1.14h-2.76v2.28h2.76zM79.795 13H77.89V5.755h1.905v.975c.525-.63 1.41-1.155 2.31-1.155v1.86c-.135-.03-.3-.045-.525-.045-.63 0-1.47.36-1.785.825V13zm9.765 0h-1.92v-.765c-.495.6-1.35.945-2.295.945-1.155 0-2.505-.78-2.505-2.4 0-1.71 1.35-2.34 2.505-2.34.975 0 1.815.315 2.295.885V8.41c0-.735-.63-1.215-1.59-1.215-.765 0-1.485.3-2.085.855l-.75-1.335c.885-.795 2.025-1.14 3.165-1.14 1.665 0 3.18.66 3.18 2.745V13zm-3.45-1.11c.615 0 1.215-.21 1.53-.63v-.9c-.315-.42-.915-.645-1.53-.645-.75 0-1.365.405-1.365 1.095s.615 1.08 1.365 1.08zM98.245 13h-1.92V8.62c0-1.005-.525-1.35-1.335-1.35-.75 0-1.32.42-1.65.84V13h-1.905V5.755h1.905v.93c.465-.54 1.365-1.11 2.535-1.11 1.605 0 2.37.9 2.37 2.31V13zm5.25.18c-2.22 0-3.84-1.575-3.84-3.81 0-2.22 1.62-3.795 3.84-3.795 1.485 0 2.385.645 2.865 1.305l-1.245 1.17c-.345-.51-.87-.78-1.53-.78-1.155 0-1.965.84-1.965 2.1 0 1.26.81 2.115 1.965 2.115.66 0 1.185-.3 1.53-.795l1.245 1.17c-.48.66-1.38 1.32-2.865 1.32zm10.92-.18h-1.905V8.59c0-1.005-.525-1.32-1.335-1.32-.75 0-1.335.42-1.65.84V13h-1.92V2.995h1.92v3.69c.465-.54 1.35-1.11 2.535-1.11 1.59 0 2.355.87 2.355 2.28V13z"/><rect width="50" height="50" x=".5" y=".5" fill="#FFF" stroke="#E1E1E1" rx="10"/><path fill="#DEBE63" d="M23 29h.896a.5.5 0 01.377.83l-2.399 2.74a.5.5 0 01-.752 0l-2.398-2.74A.5.5 0 0119.1 29h.9v-2.75a.5.5 0 01.2-.4l3.6-2.7a.5.5 0 00.2-.4V18.5a.5.5 0 01.5-.5h2a.5.5 0 01.5.5V22h.002v.75a.5.5 0 00.2.4l3.6 2.7a.5.5 0 01.2.4V27H31v2h.896a.5.5 0 01.377.83l-2.399 2.74a.5.5 0 01-.752 0l-2.398-2.74A.5.5 0 0127.1 29h.9v-1.79a.5.5 0 00-.198-.36L25.5 25.124l-2.3 1.726a.5.5 0 00-.2.4V29z"/></g></g><g mask="url(#c)"><g transform="translate(24 24)"><path fill="#384254" fill-rule="nonzero" d="M76.492 35h-1.26l-2.058-7.532L71.116 35h-1.26l-2.66-9.338h1.288l2.072 7.784 2.142-7.784h.966l2.142 7.784 2.058-7.784h1.302L76.492 35zm8.638 0h-1.05v-.77c-.546.616-1.33.938-2.24.938-1.134 0-2.352-.77-2.352-2.24 0-1.526 1.204-2.226 2.352-2.226.924 0 1.694.294 2.24.91v-1.218c0-.896-.728-1.414-1.708-1.414-.812 0-1.47.28-2.072.938l-.49-.728c.728-.756 1.596-1.12 2.702-1.12 1.442 0 2.618.644 2.618 2.282V35zm-2.898-.588c.728 0 1.442-.28 1.848-.84v-1.288c-.406-.546-1.12-.826-1.848-.826-.994 0-1.68.616-1.68 1.47 0 .868.686 1.484 1.68 1.484zm5.544-7.14a.705.705 0 01-.714-.7c0-.392.322-.714.714-.714.392 0 .7.322.7.714 0 .392-.308.7-.7.7zM88.294 35h-1.05v-6.762h1.05V35zm3.822.168c-1.008 0-1.512-.574-1.512-1.582v-4.424h-1.12v-.924h1.12V26.39h1.064v1.848h1.372v.924h-1.372v4.2c0 .504.224.868.672.868.308 0 .574-.14.714-.294l.308.798c-.266.252-.644.434-1.246.434zM99.48 35h-1.05v-5.838h-1.12v-.924h1.12v-.518c0-1.386.77-2.198 1.96-2.198.546 0 1.008.126 1.428.518l-.434.672a1.214 1.214 0 00-.826-.322c-.7 0-1.078.462-1.078 1.33v.518h1.372v.924H99.48V35zm5.586.168c-2.058 0-3.346-1.596-3.346-3.556s1.288-3.542 3.346-3.542 3.346 1.582 3.346 3.542c0 1.96-1.288 3.556-3.346 3.556zm0-.938c1.442 0 2.24-1.232 2.24-2.618 0-1.372-.798-2.604-2.24-2.604-1.442 0-2.24 1.232-2.24 2.604 0 1.386.798 2.618 2.24 2.618zm6.104.77h-1.05v-6.762h1.05v1.078c.546-.7 1.33-1.232 2.254-1.232v1.078a3.468 3.468 0 00-.406-.028c-.658 0-1.54.532-1.848 1.078V35zm12.474 0h-1.05v-.77c-.546.616-1.33.938-2.24.938-1.134 0-2.352-.77-2.352-2.24 0-1.526 1.204-2.226 2.352-2.226.924 0 1.694.294 2.24.91v-1.218c0-.896-.728-1.414-1.708-1.414-.812 0-1.47.28-2.072.938l-.49-.728c.728-.756 1.596-1.12 2.702-1.12 1.442 0 2.618.644 2.618 2.282V35zm-2.898-.588c.728 0 1.442-.28 1.848-.84v-1.288c-.406-.546-1.12-.826-1.848-.826-.994 0-1.68.616-1.68 1.47 0 .868.686 1.484 1.68 1.484zm11.97.756c-.924 0-1.722-.448-2.282-1.19v3.598h-1.05v-9.338h1.05v1.008a2.827 2.827 0 012.282-1.176c1.778 0 3.01 1.344 3.01 3.542 0 2.184-1.232 3.556-3.01 3.556zm-.266-.938c1.358 0 2.17-1.12 2.17-2.618 0-1.498-.812-2.604-2.17-2.604-.826 0-1.652.49-2.016 1.078v3.052c.364.588 1.19 1.092 2.016 1.092zm8.008.938c-2.016 0-3.458-1.442-3.458-3.556 0-1.96 1.4-3.542 3.332-3.542 2.044 0 3.248 1.596 3.248 3.626v.266h-5.46c.084 1.274.966 2.338 2.422 2.338.784 0 1.554-.308 2.1-.868l.504.686c-.686.672-1.596 1.05-2.688 1.05zm2.086-3.99c-.014-.994-.686-2.24-2.226-2.24-1.442 0-2.156 1.218-2.212 2.24h4.438zm3.78 3.822h-1.05v-6.762h1.05v1.078c.546-.7 1.33-1.232 2.254-1.232v1.078a3.468 3.468 0 00-.406-.028c-.658 0-1.54.532-1.848 1.078V35zm4.102-7.728a.705.705 0 01-.714-.7c0-.392.322-.714.714-.714.392 0 .7.322.7.714 0 .392-.308.7-.7.7zm.518 7.728h-1.05v-6.762h1.05V35zm5.054.168c-2.058 0-3.346-1.596-3.346-3.556s1.288-3.542 3.346-3.542 3.346 1.582 3.346 3.542c0 1.96-1.288 3.556-3.346 3.556zm0-.938c1.442 0 2.24-1.232 2.24-2.618 0-1.372-.798-2.604-2.24-2.604-1.442 0-2.24 1.232-2.24 2.604 0 1.386.798 2.618 2.24 2.618zm11.004.77h-1.05v-1.008c-.504.686-1.33 1.176-2.282 1.176-1.764 0-3.01-1.344-3.01-3.542 0-2.17 1.246-3.556 3.01-3.556.91 0 1.736.448 2.282 1.19v-3.598h1.05V35zm-3.066-.77c.826 0 1.652-.49 2.016-1.078V30.1c-.364-.588-1.19-1.092-2.016-1.092-1.372 0-2.184 1.12-2.184 2.618 0 1.498.812 2.604 2.184 2.604zm11.746.938c-2.058 0-3.346-1.596-3.346-3.556s1.288-3.542 3.346-3.542 3.346 1.582 3.346 3.542c0 1.96-1.288 3.556-3.346 3.556zm0-.938c1.442 0 2.24-1.232 2.24-2.618 0-1.372-.798-2.604-2.24-2.604-1.442 0-2.24 1.232-2.24 2.604 0 1.386.798 2.618 2.24 2.618zm6.398.77h-1.05v-5.838h-1.12v-.924h1.12v-.518c0-1.386.77-2.198 1.96-2.198.546 0 1.008.126 1.428.518l-.434.672a1.214 1.214 0 00-.826-.322c-.7 0-1.078.462-1.078 1.33v.518h1.372v.924h-1.372V35zm7.98.168c-1.008 0-1.512-.574-1.512-1.582v-4.424h-1.12v-.924h1.12V26.39h1.064v1.848h1.372v.924h-1.372v4.2c0 .504.224.868.672.868.308 0 .574-.14.714-.294l.308.798c-.266.252-.644.434-1.246.434zm2.926-7.896a.705.705 0 01-.714-.7c0-.392.322-.714.714-.714.392 0 .7.322.7.714 0 .392-.308.7-.7.7zm.518 7.728h-1.05v-6.762h1.05V35zm11.312 0h-1.05v-4.592c0-.854-.364-1.4-1.246-1.4-.7 0-1.442.49-1.792 1.036V35h-1.05v-4.592c0-.854-.35-1.4-1.246-1.4-.686 0-1.414.504-1.778 1.05V35h-1.05v-6.762h1.05v.98c.294-.434 1.19-1.148 2.198-1.148 1.022 0 1.61.56 1.806 1.26.378-.616 1.288-1.26 2.268-1.26 1.232 0 1.89.686 1.89 2.044V35zm5.166.168c-2.016 0-3.458-1.442-3.458-3.556 0-1.96 1.4-3.542 3.332-3.542 2.044 0 3.248 1.596 3.248 3.626v.266h-5.46c.084 1.274.966 2.338 2.422 2.338.784 0 1.554-.308 2.1-.868l.504.686c-.686.672-1.596 1.05-2.688 1.05zm2.086-3.99c-.014-.994-.686-2.24-2.226-2.24-1.442 0-2.156 1.218-2.212 2.24h4.438zm7.406 1.988c.364.588 1.19 1.064 2.03 1.064 1.358 0 2.17-1.106 2.17-2.604s-.812-2.618-2.17-2.618c-.84 0-1.666.504-2.03 1.092v3.066zm0 1.834h-1.05v-9.338h1.05v3.598c.546-.742 1.372-1.19 2.282-1.19 1.778 0 3.01 1.386 3.01 3.556 0 2.198-1.246 3.542-3.01 3.542-.952 0-1.778-.49-2.282-1.176V35zm10.066.168c-2.016 0-3.458-1.442-3.458-3.556 0-1.96 1.4-3.542 3.332-3.542 2.044 0 3.248 1.596 3.248 3.626v.266h-5.46c.084 1.274.966 2.338 2.422 2.338.784 0 1.554-.308 2.1-.868l.504.686c-.686.672-1.596 1.05-2.688 1.05zm2.086-3.99c-.014-.994-.686-2.24-2.226-2.24-1.442 0-2.156 1.218-2.212 2.24h4.438zM235.7 35h-1.05v-5.838h-1.12v-.924h1.12v-.518c0-1.386.77-2.198 1.96-2.198.546 0 1.008.126 1.428.518l-.434.672a1.214 1.214 0 00-.826-.322c-.7 0-1.078.462-1.078 1.33v.518h1.372v.924H235.7V35zm5.586.168c-2.058 0-3.346-1.596-3.346-3.556s1.288-3.542 3.346-3.542 3.346 1.582 3.346 3.542c0 1.96-1.288 3.556-3.346 3.556zm0-.938c1.442 0 2.24-1.232 2.24-2.618 0-1.372-.798-2.604-2.24-2.604-1.442 0-2.24 1.232-2.24 2.604 0 1.386.798 2.618 2.24 2.618zm6.104.77h-1.05v-6.762h1.05v1.078c.546-.7 1.33-1.232 2.254-1.232v1.078a3.468 3.468 0 00-.406-.028c-.658 0-1.54.532-1.848 1.078V35zm6.636.168c-2.016 0-3.458-1.442-3.458-3.556 0-1.96 1.4-3.542 3.332-3.542 2.044 0 3.248 1.596 3.248 3.626v.266h-5.46c.084 1.274.966 2.338 2.422 2.338.784 0 1.554-.308 2.1-.868l.504.686c-.686.672-1.596 1.05-2.688 1.05zm2.086-3.99c-.014-.994-.686-2.24-2.226-2.24-1.442 0-2.156 1.218-2.212 2.24h4.438zM73.328 53h-1.05v-.77c-.546.616-1.33.938-2.24.938-1.134 0-2.352-.77-2.352-2.24 0-1.526 1.204-2.226 2.352-2.226.924 0 1.694.294 2.24.91v-1.218c0-.896-.728-1.414-1.708-1.414-.812 0-1.47.28-2.072.938l-.49-.728c.728-.756 1.596-1.12 2.702-1.12 1.442 0 2.618.644 2.618 2.282V53zm-2.898-.588c.728 0 1.442-.28 1.848-.84v-1.288c-.406-.546-1.12-.826-1.848-.826-.994 0-1.68.616-1.68 1.47 0 .868.686 1.484 1.68 1.484zM81.392 53h-1.05v-1.008c-.504.686-1.33 1.176-2.282 1.176-1.764 0-3.01-1.344-3.01-3.542 0-2.17 1.246-3.556 3.01-3.556.91 0 1.736.448 2.282 1.19v-3.598h1.05V53zm-3.066-.77c.826 0 1.652-.49 2.016-1.078V48.1c-.364-.588-1.19-1.092-2.016-1.092-1.372 0-2.184 1.12-2.184 2.618 0 1.498.812 2.604 2.184 2.604zm8.12.77h-1.148l-2.814-6.762h1.148l2.24 5.544 2.254-5.544h1.134L86.446 53zm9.184 0h-1.05v-.77c-.546.616-1.33.938-2.24.938-1.134 0-2.352-.77-2.352-2.24 0-1.526 1.204-2.226 2.352-2.226.924 0 1.694.294 2.24.91v-1.218c0-.896-.728-1.414-1.708-1.414-.812 0-1.47.28-2.072.938l-.49-.728c.728-.756 1.596-1.12 2.702-1.12 1.442 0 2.618.644 2.618 2.282V53zm-2.898-.588c.728 0 1.442-.28 1.848-.84v-1.288c-.406-.546-1.12-.826-1.848-.826-.994 0-1.68.616-1.68 1.47 0 .868.686 1.484 1.68 1.484zm10.626.588h-1.036v-4.424c0-1.204-.616-1.568-1.526-1.568-.826 0-1.596.504-2.002 1.05V53h-1.05v-6.762h1.05v.98c.476-.574 1.4-1.148 2.422-1.148 1.4 0 2.142.714 2.142 2.184V53zm5.096.168c-2.016 0-3.374-1.554-3.374-3.556s1.358-3.542 3.374-3.542c1.232 0 1.96.504 2.478 1.176l-.7.63c-.448-.616-1.022-.868-1.722-.868-1.428 0-2.338 1.106-2.338 2.604s.91 2.618 2.338 2.618c.7 0 1.274-.28 1.722-.882l.7.644c-.518.672-1.246 1.176-2.478 1.176zm4.494-7.896a.705.705 0 01-.714-.7c0-.392.322-.714.714-.714.392 0 .7.322.7.714 0 .392-.308.7-.7.7zm.518 7.728h-1.05v-6.762h1.05V53zm7.714 0h-1.036v-4.424c0-1.204-.616-1.568-1.526-1.568-.826 0-1.596.504-2.002 1.05V53h-1.05v-6.762h1.05v.98c.476-.574 1.4-1.148 2.422-1.148 1.4 0 2.142.714 2.142 2.184V53zm4.83 2.744c-1.134 0-1.918-.224-2.73-1.022l.532-.756c.56.658 1.232.91 2.198.91 1.12 0 2.184-.546 2.184-1.974V51.88c-.504.686-1.33 1.204-2.282 1.204-1.764 0-3.01-1.316-3.01-3.5 0-2.17 1.232-3.514 3.01-3.514.91 0 1.736.448 2.282 1.19v-1.022h1.05v6.664c0 2.142-1.582 2.842-3.234 2.842zm.168-3.598c.826 0 1.638-.504 2.016-1.092v-2.968c-.378-.574-1.19-1.078-2.016-1.078-1.372 0-2.184 1.078-2.184 2.576 0 1.484.812 2.562 2.184 2.562zm10.514 1.022c-1.008 0-1.512-.574-1.512-1.582v-4.424h-1.12v-.924h1.12V44.39h1.064v1.848h1.372v.924h-1.372v4.2c0 .504.224.868.672.868.308 0 .574-.14.714-.294l.308.798c-.266.252-.644.434-1.246.434zm8.022-.168h-1.05v-4.452c0-1.204-.602-1.54-1.526-1.54-.812 0-1.596.504-1.988 1.05V53h-1.05v-9.338h1.05v3.556c.462-.574 1.386-1.148 2.408-1.148 1.414 0 2.156.686 2.156 2.156V53zm5.166.168c-2.016 0-3.458-1.442-3.458-3.556 0-1.96 1.4-3.542 3.332-3.542 2.044 0 3.248 1.596 3.248 3.626v.266h-5.46c.084 1.274.966 2.338 2.422 2.338.784 0 1.554-.308 2.1-.868l.504.686c-.686.672-1.596 1.05-2.688 1.05zm2.086-3.99c-.014-.994-.686-2.24-2.226-2.24-1.442 0-2.156 1.218-2.212 2.24h4.438zM163.936 53h-1.05v-.952c-.518.588-1.4 1.12-2.408 1.12-1.414 0-2.156-.7-2.156-2.156v-4.774h1.05v4.452c0 1.19.602 1.54 1.526 1.54.812 0 1.596-.476 1.988-1.022v-4.97h1.05V53zm4.256.168c-1.12 0-2.044-.35-2.73-1.064l.532-.756c.448.518 1.302.966 2.226.966 1.036 0 1.61-.49 1.61-1.162 0-1.638-4.186-.63-4.186-3.136 0-1.064.896-1.946 2.506-1.946 1.162 0 1.974.434 2.506.98l-.49.728c-.406-.49-1.134-.854-2.016-.854-.924 0-1.498.462-1.498 1.064 0 1.47 4.186.504 4.186 3.136 0 1.134-.91 2.044-2.646 2.044zm7.42 0c-2.016 0-3.458-1.442-3.458-3.556 0-1.96 1.4-3.542 3.332-3.542 2.044 0 3.248 1.596 3.248 3.626v.266h-5.46c.084 1.274.966 2.338 2.422 2.338.784 0 1.554-.308 2.1-.868l.504.686c-.686.672-1.596 1.05-2.688 1.05zm2.086-3.99c-.014-.994-.686-2.24-2.226-2.24-1.442 0-2.156 1.218-2.212 2.24h4.438zm3.78 3.822h-1.05v-6.762h1.05v1.078c.546-.7 1.33-1.232 2.254-1.232v1.078c-.126-.014-.252-.028-.406-.028-.658 0-1.54.532-1.848 1.078V53zM71.95 13h-3.96V2.995h3.945c3.135 0 5.31 1.995 5.31 4.995 0 3.03-2.175 5.01-5.295 5.01zm-.015-1.875c1.98 0 3.135-1.425 3.135-3.135 0-1.755-1.08-3.12-3.12-3.12h-1.83v6.255h1.815zM82.12 13.18c-2.205 0-3.87-1.485-3.87-3.81 0-2.1 1.56-3.795 3.75-3.795 2.175 0 3.63 1.62 3.63 3.975V10h-5.385c.135.885.855 1.62 2.085 1.62.615 0 1.455-.255 1.92-.705l.855 1.26c-.72.66-1.86 1.005-2.985 1.005zm1.68-4.5c-.06-.69-.54-1.545-1.8-1.545-1.185 0-1.695.825-1.77 1.545h3.57zM88.915 13H87.01V2.995h1.905V13zm8.16 0h-1.92v-.765c-.495.6-1.35.945-2.295.945-1.155 0-2.505-.78-2.505-2.4 0-1.71 1.35-2.34 2.505-2.34.975 0 1.815.315 2.295.885V8.41c0-.735-.63-1.215-1.59-1.215-.765 0-1.485.3-2.085.855l-.75-1.335c.885-.795 2.025-1.14 3.165-1.14 1.665 0 3.18.66 3.18 2.745V13zm-3.45-1.11c.615 0 1.215-.21 1.53-.63v-.9c-.315-.42-.915-.645-1.53-.645-.75 0-1.365.405-1.365 1.095s.615 1.08 1.365 1.08zm5.085 3.93l.27-1.695c.165.075.42.12.6.12.495 0 .825-.135 1.005-.525l.27-.63-2.94-7.335h2.04l1.89 5.04 1.905-5.04h2.04l-3.405 8.43c-.54 1.365-1.5 1.725-2.745 1.755-.21 0-.705-.045-.93-.12z"/><rect width="50" height="50" x=".5" y=".5" fill="#FFF" stroke="#E1E1E1" rx="10"/><path fill="#B97ED7" fill-rule="nonzero" d="M25.627 27.334l1.64 1.64a.5.5 0 10.708-.706l-1.64-1.64A.843.843 0 0026 25.82V22.5a.5.5 0 00-1 0v3.32a.844.844 0 00.627 1.514zM25 20.02V19h-1a.5.5 0 010-1h3a.5.5 0 110 1h-1v1.02a6.5 6.5 0 11-1 0z"/></g></g><text fill="#384254" font-family="ProximaNova-Semibold, Proxima Nova" font-size="12" font-weight="500" opacity=".5"><tspan x="24" y="273">ACTIONS</tspan></text><g transform="translate(24 369)"><path fill="#384254" fill-rule="nonzero" d="M71.116 35.168c-1.61 0-2.814-.616-3.584-1.484l.7-.896c.602.7 1.61 1.344 2.926 1.344 1.666 0 2.198-.896 2.198-1.624 0-2.408-5.53-1.064-5.53-4.396 0-1.54 1.372-2.604 3.22-2.604 1.414 0 2.52.49 3.304 1.316l-.7.854c-.7-.784-1.68-1.12-2.702-1.12-1.106 0-1.918.602-1.918 1.484 0 2.1 5.53.896 5.53 4.382 0 1.344-.924 2.744-3.444 2.744zm8.204 0c-2.016 0-3.458-1.442-3.458-3.556 0-1.96 1.4-3.542 3.332-3.542 2.044 0 3.248 1.596 3.248 3.626v.266h-5.46c.084 1.274.966 2.338 2.422 2.338.784 0 1.554-.308 2.1-.868l.504.686c-.686.672-1.596 1.05-2.688 1.05zm2.086-3.99c-.014-.994-.686-2.24-2.226-2.24-1.442 0-2.156 1.218-2.212 2.24h4.438zM89.75 35h-1.036v-4.424c0-1.204-.616-1.568-1.526-1.568-.826 0-1.596.504-2.002 1.05V35h-1.05v-6.762h1.05v.98c.476-.574 1.4-1.148 2.422-1.148 1.4 0 2.142.714 2.142 2.184V35zm8.064 0h-1.05v-1.008c-.504.686-1.33 1.176-2.282 1.176-1.764 0-3.01-1.344-3.01-3.542 0-2.17 1.246-3.556 3.01-3.556.91 0 1.736.448 2.282 1.19v-3.598h1.05V35zm-3.066-.77c.826 0 1.652-.49 2.016-1.078V30.1c-.364-.588-1.19-1.092-2.016-1.092-1.372 0-2.184 1.12-2.184 2.618 0 1.498.812 2.604 2.184 2.604zm14.07.77h-1.05v-.77c-.546.616-1.33.938-2.24.938-1.134 0-2.352-.77-2.352-2.24 0-1.526 1.204-2.226 2.352-2.226.924 0 1.694.294 2.24.91v-1.218c0-.896-.728-1.414-1.708-1.414-.812 0-1.47.28-2.072.938l-.49-.728c.728-.756 1.596-1.12 2.702-1.12 1.442 0 2.618.644 2.618 2.282V35zm-2.898-.588c.728 0 1.442-.28 1.848-.84v-1.288c-.406-.546-1.12-.826-1.848-.826-.994 0-1.68.616-1.68 1.47 0 .868.686 1.484 1.68 1.484zm11.97.756c-.924 0-1.722-.448-2.282-1.19v3.598h-1.05v-9.338h1.05v1.008a2.827 2.827 0 012.282-1.176c1.778 0 3.01 1.344 3.01 3.542 0 2.184-1.232 3.556-3.01 3.556zm-.266-.938c1.358 0 2.17-1.12 2.17-2.618 0-1.498-.812-2.604-2.17-2.604-.826 0-1.652.49-2.016 1.078v3.052c.364.588 1.19 1.092 2.016 1.092zm10.556.77h-1.05v-.952c-.518.588-1.4 1.12-2.408 1.12-1.414 0-2.156-.7-2.156-2.156v-4.774h1.05v4.452c0 1.19.602 1.54 1.526 1.54.812 0 1.596-.476 1.988-1.022v-4.97h1.05V35zm4.256.168c-1.12 0-2.044-.35-2.73-1.064l.532-.756c.448.518 1.302.966 2.226.966 1.036 0 1.61-.49 1.61-1.162 0-1.638-4.186-.63-4.186-3.136 0-1.064.896-1.946 2.506-1.946 1.162 0 1.974.434 2.506.98l-.49.728c-.406-.49-1.134-.854-2.016-.854-.924 0-1.498.462-1.498 1.064 0 1.47 4.186.504 4.186 3.136 0 1.134-.91 2.044-2.646 2.044zm9.982-.168h-1.05v-4.452c0-1.204-.602-1.54-1.526-1.54-.812 0-1.596.504-1.988 1.05V35h-1.05v-9.338h1.05v3.556c.462-.574 1.386-1.148 2.408-1.148 1.414 0 2.156.686 2.156 2.156V35zm11.34 0h-1.036v-4.424c0-1.204-.616-1.568-1.526-1.568-.826 0-1.596.504-2.002 1.05V35h-1.05v-6.762h1.05v.98c.476-.574 1.4-1.148 2.422-1.148 1.4 0 2.142.714 2.142 2.184V35zm5.068.168c-2.058 0-3.346-1.596-3.346-3.556s1.288-3.542 3.346-3.542 3.346 1.582 3.346 3.542c0 1.96-1.288 3.556-3.346 3.556zm0-.938c1.442 0 2.24-1.232 2.24-2.618 0-1.372-.798-2.604-2.24-2.604-1.442 0-2.24 1.232-2.24 2.604 0 1.386.798 2.618 2.24 2.618zm6.776.938c-1.008 0-1.512-.574-1.512-1.582v-4.424h-1.12v-.924h1.12V26.39h1.064v1.848h1.372v.924h-1.372v4.2c0 .504.224.868.672.868.308 0 .574-.14.714-.294l.308.798c-.266.252-.644.434-1.246.434zm2.926-7.896a.705.705 0 01-.714-.7c0-.392.322-.714.714-.714.392 0 .7.322.7.714 0 .392-.308.7-.7.7zm.518 7.728h-1.05v-6.762h1.05V35zm3.444 0h-1.05v-5.838h-1.12v-.924h1.12v-.518c0-1.4.798-2.198 1.96-2.198.406 0 .756.07 1.036.224l-.266.798a1.128 1.128 0 00-.602-.154c-.7 0-1.078.462-1.078 1.33v.518h1.372v.924h-1.372V35zm3.164-7.728a.705.705 0 01-.714-.7c0-.392.322-.714.714-.714.392 0 .7.322.7.714 0 .392-.308.7-.7.7zm.518 7.728h-1.05v-6.762h1.05V35zm5.082.168c-2.016 0-3.374-1.554-3.374-3.556s1.358-3.542 3.374-3.542c1.232 0 1.96.504 2.478 1.176l-.7.63c-.448-.616-1.022-.868-1.722-.868-1.428 0-2.338 1.106-2.338 2.604s.91 2.618 2.338 2.618c.7 0 1.274-.28 1.722-.882l.7.644c-.518.672-1.246 1.176-2.478 1.176zm9.24-.168h-1.05v-.77c-.546.616-1.33.938-2.24.938-1.134 0-2.352-.77-2.352-2.24 0-1.526 1.204-2.226 2.352-2.226.924 0 1.694.294 2.24.91v-1.218c0-.896-.728-1.414-1.708-1.414-.812 0-1.47.28-2.072.938l-.49-.728c.728-.756 1.596-1.12 2.702-1.12 1.442 0 2.618.644 2.618 2.282V35zm-2.898-.588c.728 0 1.442-.28 1.848-.84v-1.288c-.406-.546-1.12-.826-1.848-.826-.994 0-1.68.616-1.68 1.47 0 .868.686 1.484 1.68 1.484zm6.734.756c-1.008 0-1.512-.574-1.512-1.582v-4.424h-1.12v-.924h1.12V26.39h1.064v1.848h1.372v.924h-1.372v4.2c0 .504.224.868.672.868.308 0 .574-.14.714-.294l.308.798c-.266.252-.644.434-1.246.434zm2.926-7.896a.705.705 0 01-.714-.7c0-.392.322-.714.714-.714.392 0 .7.322.7.714 0 .392-.308.7-.7.7zm.518 7.728h-1.05v-6.762h1.05V35zm5.054.168c-2.058 0-3.346-1.596-3.346-3.556s1.288-3.542 3.346-3.542 3.346 1.582 3.346 3.542c0 1.96-1.288 3.556-3.346 3.556zm0-.938c1.442 0 2.24-1.232 2.24-2.618 0-1.372-.798-2.604-2.24-2.604-1.442 0-2.24 1.232-2.24 2.604 0 1.386.798 2.618 2.24 2.618zm10.668.77h-1.036v-4.424c0-1.204-.616-1.568-1.526-1.568-.826 0-1.596.504-2.002 1.05V35h-1.05v-6.762h1.05v.98c.476-.574 1.4-1.148 2.422-1.148 1.4 0 2.142.714 2.142 2.184V35zm7.462.168c-1.008 0-1.512-.574-1.512-1.582v-4.424h-1.12v-.924h1.12V26.39h1.064v1.848h1.372v.924h-1.372v4.2c0 .504.224.868.672.868.308 0 .574-.14.714-.294l.308.798c-.266.252-.644.434-1.246.434zm5.348 0c-2.058 0-3.346-1.596-3.346-3.556s1.288-3.542 3.346-3.542 3.346 1.582 3.346 3.542c0 1.96-1.288 3.556-3.346 3.556zm0-.938c1.442 0 2.24-1.232 2.24-2.618 0-1.372-.798-2.604-2.24-2.604-1.442 0-2.24 1.232-2.24 2.604 0 1.386.798 2.618 2.24 2.618zm10.402.938c-1.008 0-1.512-.574-1.512-1.582v-4.424h-1.12v-.924h1.12V26.39h1.064v1.848h1.372v.924h-1.372v4.2c0 .504.224.868.672.868.308 0 .574-.14.714-.294l.308.798c-.266.252-.644.434-1.246.434zM244.73 35h-1.05v-4.452c0-1.204-.602-1.54-1.526-1.54-.812 0-1.596.504-1.988 1.05V35h-1.05v-9.338h1.05v3.556c.462-.574 1.386-1.148 2.408-1.148 1.414 0 2.156.686 2.156 2.156V35zm5.166.168c-2.016 0-3.458-1.442-3.458-3.556 0-1.96 1.4-3.542 3.332-3.542 2.044 0 3.248 1.596 3.248 3.626v.266h-5.46c.084 1.274.966 2.338 2.422 2.338.784 0 1.554-.308 2.1-.868l.504.686c-.686.672-1.596 1.05-2.688 1.05zm2.086-3.99c-.014-.994-.686-2.24-2.226-2.24-1.442 0-2.156 1.218-2.212 2.24h4.438zM73.664 53h-1.05v-.952c-.518.588-1.4 1.12-2.408 1.12-1.414 0-2.156-.7-2.156-2.156v-4.774h1.05v4.452c0 1.19.602 1.54 1.526 1.54.812 0 1.596-.476 1.988-1.022v-4.97h1.05V53zm4.256.168c-1.12 0-2.044-.35-2.73-1.064l.532-.756c.448.518 1.302.966 2.226.966 1.036 0 1.61-.49 1.61-1.162 0-1.638-4.186-.63-4.186-3.136 0-1.064.896-1.946 2.506-1.946 1.162 0 1.974.434 2.506.98l-.49.728c-.406-.49-1.134-.854-2.016-.854-.924 0-1.498.462-1.498 1.064 0 1.47 4.186.504 4.186 3.136 0 1.134-.91 2.044-2.646 2.044zm7.42 0c-2.016 0-3.458-1.442-3.458-3.556 0-1.96 1.4-3.542 3.332-3.542 2.044 0 3.248 1.596 3.248 3.626v.266h-5.46c.084 1.274.966 2.338 2.422 2.338.784 0 1.554-.308 2.1-.868l.504.686c-.686.672-1.596 1.05-2.688 1.05zm2.086-3.99c-.014-.994-.686-2.24-2.226-2.24-1.442 0-2.156 1.218-2.212 2.24h4.438zM91.206 53h-1.05v-6.762h1.05v1.078c.546-.7 1.33-1.232 2.254-1.232v1.078c-.126-.014-.252-.028-.406-.028-.658 0-1.54.532-1.848 1.078V53zm4.984-8.414c0 .854-.49 1.652-1.134 2.114l-.532-.434c.448-.294.854-.854.91-1.302a.649.649 0 01-.196.028c-.378 0-.672-.308-.672-.714a.75.75 0 01.742-.756c.476 0 .882.378.882 1.064zm3.542 8.582c-1.12 0-2.044-.35-2.73-1.064l.532-.756c.448.518 1.302.966 2.226.966 1.036 0 1.61-.49 1.61-1.162 0-1.638-4.186-.63-4.186-3.136 0-1.064.896-1.946 2.506-1.946 1.162 0 1.974.434 2.506.98l-.49.728c-.406-.49-1.134-.854-2.016-.854-.924 0-1.498.462-1.498 1.064 0 1.47 4.186.504 4.186 3.136 0 1.134-.91 2.044-2.646 2.044zm13.93-.168h-1.05v-1.008c-.504.686-1.33 1.176-2.282 1.176-1.764 0-3.01-1.344-3.01-3.542 0-2.17 1.246-3.556 3.01-3.556.91 0 1.736.448 2.282 1.19v-3.598h1.05V53zm-3.066-.77c.826 0 1.652-.49 2.016-1.078V48.1c-.364-.588-1.19-1.092-2.016-1.092-1.372 0-2.184 1.12-2.184 2.618 0 1.498.812 2.604 2.184 2.604zm8.232.938c-2.016 0-3.458-1.442-3.458-3.556 0-1.96 1.4-3.542 3.332-3.542 2.044 0 3.248 1.596 3.248 3.626v.266h-5.46c.084 1.274.966 2.338 2.422 2.338.784 0 1.554-.308 2.1-.868l.504.686c-.686.672-1.596 1.05-2.688 1.05zm2.086-3.99c-.014-.994-.686-2.24-2.226-2.24-1.442 0-2.156 1.218-2.212 2.24h4.438zM126.598 53h-1.148l-2.814-6.762h1.148l2.24 5.544 2.254-5.544h1.134L126.598 53zm4.438-7.728a.705.705 0 01-.714-.7c0-.392.322-.714.714-.714.392 0 .7.322.7.714 0 .392-.308.7-.7.7zm.518 7.728h-1.05v-6.762h1.05V53zm5.082.168c-2.016 0-3.374-1.554-3.374-3.556s1.358-3.542 3.374-3.542c1.232 0 1.96.504 2.478 1.176l-.7.63c-.448-.616-1.022-.868-1.722-.868-1.428 0-2.338 1.106-2.338 2.604s.91 2.618 2.338 2.618c.7 0 1.274-.28 1.722-.882l.7.644c-.518.672-1.246 1.176-2.478 1.176zm7.028 0c-2.016 0-3.458-1.442-3.458-3.556 0-1.96 1.4-3.542 3.332-3.542 2.044 0 3.248 1.596 3.248 3.626v.266h-5.46c.084 1.274.966 2.338 2.422 2.338.784 0 1.554-.308 2.1-.868l.504.686c-.686.672-1.596 1.05-2.688 1.05zm2.086-3.99c-.014-.994-.686-2.24-2.226-2.24-1.442 0-2.156 1.218-2.212 2.24h4.438zm3.192 3.962c-.42 0-.77-.35-.77-.77 0-.42.35-.77.77-.77.42 0 .77.35.77.77 0 .42-.35.77-.77.77zM70.12 13h-2.13V2.995h4.68c2.175 0 3.36 1.47 3.36 3.225 0 1.74-1.2 3.21-3.36 3.21h-2.55V13zm2.25-5.445c.84 0 1.485-.51 1.485-1.335 0-.84-.645-1.35-1.485-1.35h-2.25v2.685h2.25zM84.115 13H82.21v-.915a3.445 3.445 0 01-2.55 1.095c-1.59 0-2.34-.87-2.34-2.28V5.755h1.905v4.395c0 1.005.525 1.335 1.335 1.335.735 0 1.32-.405 1.65-.825V5.755h1.905V13zm4.5.18c-1.26 0-2.475-.42-3.24-1.125l.825-1.38c.54.51 1.605 1.005 2.505 1.005.825 0 1.215-.315 1.215-.765 0-1.185-4.29-.21-4.29-3.06 0-1.215 1.05-2.28 2.97-2.28 1.215 0 2.19.42 2.91.99l-.765 1.35c-.435-.45-1.26-.84-2.145-.84-.69 0-1.14.3-1.14.705 0 1.065 4.305.165 4.305 3.09 0 1.335-1.14 2.31-3.15 2.31zM99.97 13h-1.905V8.59c0-1.005-.525-1.32-1.335-1.32-.75 0-1.335.42-1.65.84V13h-1.92V2.995h1.92v3.69c.465-.54 1.35-1.11 2.535-1.11 1.59 0 2.355.87 2.355 2.28V13z"/><rect width="50" height="50" x=".5" y=".5" fill="#FFF" stroke="#E1E1E1" rx="10"/><path fill="#96C775" d="M23.079 18.237h-1.21a1.21 1.21 0 00-1.211 1.21v12.106c0 .668.542 1.21 1.21 1.21h7.264a1.21 1.21 0 001.21-1.21V19.447a1.21 1.21 0 00-1.21-1.21h-1.21v.605a.605.605 0 01-.606.605h-3.632a.605.605 0 01-.605-.605v-.605zm-4.237.595a2.418 2.418 0 012.411-2.41h8.494a2.413 2.413 0 012.41 2.41v13.336a2.418 2.418 0 01-2.41 2.41h-8.494a2.413 2.413 0 01-2.41-2.41V18.832z"/></g></g><g transform="translate(28 12)"><use fill="#000" filter="url(#d)" xlink:href="#e"/><use fill="#FFF" stroke="#8D8D8D" stroke-opacity=".24" xlink:href="#e"/><path fill="#FCFCFC" stroke="#01B2D0" stroke-opacity=".297" d="M20 38.5a9.5 9.5 0 00-9.5 9.5v32a9.5 9.5 0 009.5 9.5h160a9.5 9.5 0 009.5-9.5V48a9.5 9.5 0 00-9.5-9.5H20z"/><path fill="#354254" fill-rule="nonzero" d="M58.47 67.15c-1.734 0-2.99-.621-3.835-1.495l.93-1.283a4.04 4.04 0 002.976 1.31c1.353 0 1.875-.662 1.875-1.296 0-1.974-5.471-.748-5.471-4.202 0-1.565 1.354-2.764 3.426-2.764 1.453 0 2.651.48 3.511 1.326l-.93 1.226c-.748-.747-1.749-1.085-2.736-1.085-.959 0-1.579.479-1.579 1.17 0 1.762 5.47.677 5.47 4.173 0 1.566-1.113 2.92-3.637 2.92zm5.852-7.812a.915.915 0 01-.917-.917c0-.507.409-.916.916-.916.508 0 .917.409.917.916a.915.915 0 01-.916.917zm.733 7.642h-1.48v-6.81h1.48v6.81zm4.695 2.764c-1.156 0-2.016-.254-2.862-1.016l.69-1.071c.565.634 1.27.874 2.172.874.973 0 2.016-.451 2.016-1.904v-.775c-.521.69-1.297 1.142-2.185 1.142-1.734 0-3.018-1.255-3.018-3.497 0-2.213 1.255-3.496 3.018-3.496.86 0 1.635.38 2.185 1.113v-.944h1.48v6.458c0 2.453-1.832 3.116-3.496 3.116zm.268-4.075c.69 0 1.41-.41 1.748-.903v-2.552c-.338-.493-1.057-.902-1.748-.902-1.184 0-1.932.874-1.932 2.185 0 1.312.747 2.172 1.932 2.172zm11.238 1.311h-1.48v-4.258c0-1.072-.55-1.41-1.383-1.41-.747 0-1.396.451-1.748.902v4.766h-1.48v-6.81h1.48v.916c.451-.536 1.34-1.085 2.411-1.085 1.466 0 2.2.79 2.2 2.185v4.794zm5.076.17c-2.059 0-3.568-1.425-3.568-3.582 0-1.974 1.439-3.567 3.455-3.567 2.044 0 3.342 1.55 3.342 3.694v.366h-5.246c.113 1.015.874 1.876 2.158 1.876.676 0 1.452-.268 1.945-.762l.677.973c-.69.649-1.692 1.001-2.763 1.001zm1.804-4.146c-.042-.804-.592-1.79-1.931-1.79-1.255 0-1.847.972-1.904 1.79h3.835zm9.165 3.976h-1.48v-.93c-.522.676-1.297 1.1-2.186 1.1-1.734 0-3.017-1.326-3.017-3.582 0-2.2 1.269-3.567 3.017-3.567.86 0 1.65.38 2.186 1.113v-3.539h1.48v9.405zm-3.228-1.142c.69 0 1.424-.409 1.748-.917v-2.693c-.324-.507-1.058-.916-1.748-.916-1.185 0-1.932.945-1.932 2.256 0 1.325.747 2.27 1.931 2.27zm14.86 1.142h-1.48v-.902a3.257 3.257 0 01-2.397 1.071c-1.466 0-2.2-.775-2.2-2.157V60.17h1.481v4.272c0 1.058.536 1.396 1.382 1.396.747 0 1.396-.437 1.734-.888v-4.78h1.48v6.81zm5.584.17c-.86 0-1.621-.396-2.185-1.115v3.54h-1.48V60.17h1.48v.93a2.717 2.717 0 012.186-1.1c1.762 0 3.017 1.326 3.017 3.568s-1.255 3.581-3.017 3.581zm-.437-1.312c1.17 0 1.932-.945 1.932-2.27 0-1.326-.761-2.256-1.932-2.256-.69 0-1.41.395-1.748.902v2.693c.324.508 1.058.93 1.748.93z"/><path fill="#01B2D0" fill-rule="nonzero" d="M42.779 61.77a.705.705 0 00-.525-1.175h-4.539l2.11-6.695c.228-.723-.692-1.246-1.198-.681L29.041 63.93a.705.705 0 00.525 1.175h4.536L31.995 71.8c-.228.723.692 1.246 1.198.681l9.586-10.711z"/><path fill="#354254" fill-rule="nonzero" d="M16.864 24h-5.941v-8.671h5.941v1.339h-4.42v2.236h4.329v1.339h-4.329v2.418h4.42V24zm7.137 0h-1.365v-3.926c0-.988-.507-1.3-1.274-1.3-.689 0-1.287.416-1.612.832V24h-1.365v-6.279h1.365v.845c.416-.494 1.235-1.001 2.223-1.001 1.352 0 2.028.728 2.028 2.015V24zm3.666.156c-1.066 0-1.612-.572-1.612-1.625v-3.627h-1.04v-1.183h1.04v-1.716h1.365v1.716h1.274v1.183H27.42v3.289c0 .429.208.754.598.754.26 0 .494-.117.598-.234l.325 1.04c-.247.221-.65.403-1.274.403zM31.281 24h-1.365v-6.279h1.365v.91c.481-.598 1.235-1.066 2.041-1.066v1.352a1.884 1.884 0 00-.416-.039c-.585 0-1.352.39-1.625.845V24zm2.886 2.457l.195-1.222c.143.065.364.104.52.104.442 0 .728-.13.91-.546l.312-.715-2.587-6.357h1.469l1.833 4.706 1.833-4.706h1.456l-3.029 7.41c-.429 1.066-1.17 1.404-2.145 1.417a3.75 3.75 0 01-.767-.091zM47.947 24h-1.521v-7.332H43.8v-1.339h6.773v1.339h-2.626V24zm4.264 0h-1.365v-6.279h1.365v.91c.481-.598 1.235-1.066 2.041-1.066v1.352a1.884 1.884 0 00-.416-.039c-.585 0-1.352.39-1.625.845V24zm3.835-7.046a.843.843 0 01-.845-.845c0-.468.377-.845.845-.845.468 0 .845.377.845.845a.843.843 0 01-.845.845zM56.722 24h-1.365v-6.279h1.365V24zm4.329 2.548c-1.066 0-1.859-.234-2.639-.936l.637-.988c.52.585 1.17.806 2.002.806.897 0 1.859-.416 1.859-1.755v-.715c-.481.637-1.196 1.053-2.015 1.053-1.599 0-2.782-1.157-2.782-3.224 0-2.041 1.157-3.224 2.782-3.224.793 0 1.508.351 2.015 1.027v-.871h1.365v5.954c0 2.262-1.69 2.873-3.224 2.873zm.247-3.757c.637 0 1.3-.377 1.612-.832v-2.353c-.312-.455-.975-.832-1.612-.832-1.092 0-1.781.806-1.781 2.015s.689 2.002 1.781 2.002zm7.306 3.757c-1.066 0-1.859-.234-2.639-.936l.637-.988c.52.585 1.17.806 2.002.806.897 0 1.859-.416 1.859-1.755v-.715c-.481.637-1.196 1.053-2.015 1.053-1.599 0-2.782-1.157-2.782-3.224 0-2.041 1.157-3.224 2.782-3.224.793 0 1.508.351 2.015 1.027v-.871h1.365v5.954c0 2.262-1.69 2.873-3.224 2.873zm.247-3.757c.637 0 1.3-.377 1.612-.832v-2.353c-.312-.455-.975-.832-1.612-.832-1.092 0-1.781.806-1.781 2.015s.689 2.002 1.781 2.002zm7.657 1.365c-1.898 0-3.289-1.313-3.289-3.302 0-1.82 1.326-3.289 3.185-3.289 1.885 0 3.081 1.43 3.081 3.406v.338h-4.836c.104.936.806 1.729 1.989 1.729.624 0 1.339-.247 1.794-.702l.624.897c-.637.598-1.56.923-2.548.923zm1.664-3.822c-.039-.741-.546-1.651-1.781-1.651-1.157 0-1.703.897-1.755 1.651h3.536zM82.202 24h-1.365v-6.279h1.365v.91c.481-.598 1.235-1.066 2.041-1.066v1.352a1.884 1.884 0 00-.416-.039c-.585 0-1.352.39-1.625.845V24z"/><path fill="#9AA0A9" fill-opacity=".301" d="M187.996 18.69a6.67 6.67 0 00-6.575-6.469c-3.633-.07-6.512 3.052-6.58 6.579-.07 3.633 3.053 6.51 6.58 6.579 3.594.069 6.449-2.987 6.574-6.468A.885.885 0 00188 18.8a.99.99 0 00-.004-.11zm-6.664 3.428c.035.04.071.058.11.058a.29.29 0 00.198-.088c.18-.146.392-.409.636-.79l.204.118c-.594 1.033-1.225 1.55-1.893 1.55-.253 0-.455-.072-.606-.216a.719.719 0 01-.227-.545c0-.146.034-.331.102-.555l.819-2.814c.078-.268.117-.47.117-.607a.311.311 0 00-.113-.234.438.438 0 00-.303-.102c-.064 0-.135.002-.212.007l.073-.233 1.995-.322h.35l-1.206 4.181c-.063.239-.094.397-.094.475 0 .04.016.078.05.117zm1.499-6.004a.844.844 0 01-.614.252.825.825 0 01-.603-.252.831.831 0 01-.252-.61.85.85 0 01.248-.614.814.814 0 01.607-.256c.243 0 .45.086.618.256.168.17.253.375.253.614a.83.83 0 01-.257.61z"/></g><g transform="rotate(-103 71.817 85.54)"><rect width="21" height="20" x=".791" y="3.808" fill="#01B2D0" opacity=".1" rx="3"/><rect width="19" height="18" x="4.64" y="1.361" stroke="#01B2D0" stroke-width="2" rx="3"/></g><path fill="#6FD350" d="M440.648 34.316l17.757 2.634a4 4 0 012.69 6.25l-9.21 13.153a4 4 0 01-6.794-.39l-8.547-15.785a4 4 0 014.104-5.862z" opacity=".2"/><path stroke="#6FD350" stroke-width="2" d="M439.501 26.306a3 3 0 00-3.078 4.396l8.548 15.785a3 3 0 005.095.292l9.21-13.152a3 3 0 00-2.018-4.688l-17.757-2.633z"/><g transform="rotate(-126 187.81 228.357)"><ellipse cx="15.955" cy="11.913" stroke="#FFC111" stroke-width="2" rx="10.455" ry="10.391"/><ellipse cx="12.091" cy="15.316" fill="#FFC111" opacity=".2" rx="11.455" ry="11.391"/></g></g></svg>