<svg xmlns="http://www.w3.org/2000/svg" xmlns:xlink="http://www.w3.org/1999/xlink" width="561" height="512" viewBox="0 0 561 512"><defs><rect id="b" width="453" height="230" rx="6"/><filter id="a" width="111.7%" height="123%" x="-5.8%" y="-9.8%" filterUnits="objectBoundingBox"><feMorphology in="SourceAlpha" operator="dilate" radius=".5" result="shadowSpreadOuter1"/><feOffset dy="4" in="shadowSpreadOuter1" result="shadowOffsetOuter1"/><feGaussianBlur in="shadowOffsetOuter1" result="shadowBlurOuter1" stdDeviation="8"/><feComposite in="shadowBlurOuter1" in2="SourceAlpha" operator="out" result="shadowBlurOuter1"/><feColorMatrix in="shadowBlurOuter1" values="0 0 0 0 0 0 0 0 0 0 0 0 0 0 0 0 0 0 0.12 0"/></filter><rect id="d" width="378" height="275" rx="6"/><filter id="c" width="114%" height="119.3%" x="-7%" y="-8.2%" filterUnits="objectBoundingBox"><feMorphology in="SourceAlpha" operator="dilate" radius=".5" result="shadowSpreadOuter1"/><feOffset dy="4" in="shadowSpreadOuter1" result="shadowOffsetOuter1"/><feGaussianBlur in="shadowOffsetOuter1" result="shadowBlurOuter1" stdDeviation="8"/><feComposite in="shadowBlurOuter1" in2="SourceAlpha" operator="out" result="shadowBlurOuter1"/><feColorMatrix in="shadowBlurOuter1" values="0 0 0 0 0 0 0 0 0 0 0 0 0 0 0 0 0 0 0.12 0"/></filter></defs><g fill="none" fill-rule="evenodd" transform="translate(16 12)"><path fill="#E1F5DB" d="M32 90h453v215H32z"/><use fill="#000" filter="url(#a)" xlink:href="#b"/><use fill="#FFF" stroke="#8D8D8D" stroke-opacity=".24" xlink:href="#b"/><path fill="#384254" fill-rule="nonzero" d="M30.482 37h-1.638v-2.114h-4.452V33.57l3.836-5.908h2.254v5.782h1.246v1.442h-1.246V37zm-1.638-3.556v-4.312l-2.842 4.312h2.842zM36.446 37h-1.638v-7.224l-1.526 1.596-.952-.994 2.688-2.716h1.428V37zm11.998 0h-6.398v-9.338h6.398v1.442h-4.76v2.408h4.662v1.442h-4.662v2.604h4.76V37zm4.998 0H51.86l-2.758-6.762h1.582l1.974 5.068 1.974-5.068H56.2L53.442 37zm6.818.168c-2.044 0-3.542-1.414-3.542-3.556 0-1.96 1.428-3.542 3.43-3.542 2.03 0 3.318 1.54 3.318 3.668v.364h-5.208c.112 1.008.868 1.862 2.142 1.862.672 0 1.442-.266 1.932-.756l.672.966c-.686.644-1.68.994-2.744.994zm1.792-4.116c-.042-.798-.588-1.778-1.918-1.778-1.246 0-1.834.966-1.89 1.778h3.808zM70.97 37H69.5v-4.228c0-1.064-.546-1.4-1.372-1.4-.742 0-1.386.448-1.736.896V37h-1.47v-6.762h1.47v.91c.448-.532 1.33-1.078 2.394-1.078 1.456 0 2.184.784 2.184 2.17V37zm3.948.168c-1.148 0-1.736-.616-1.736-1.75v-3.906h-1.12v-1.274h1.12V28.39h1.47v1.848h1.372v1.274h-1.372v3.542c0 .462.224.812.644.812.28 0 .532-.126.644-.252l.35 1.12c-.266.238-.7.434-1.372.434zm4.746 0c-1.162 0-2.198-.378-2.898-1.064l.672-1.05c.476.49 1.414.938 2.282.938.882 0 1.344-.364 1.344-.896 0-1.33-4.088-.378-4.088-2.982 0-1.106.952-2.044 2.66-2.044 1.148 0 2.016.406 2.618.938l-.616 1.036c-.406-.448-1.148-.812-2.002-.812-.77 0-1.246.364-1.246.84 0 1.19 4.088.294 4.088 2.982 0 1.204-.994 2.114-2.814 2.114zm9.94 0c-1.148 0-1.736-.616-1.736-1.75v-3.906h-1.12v-1.274h1.12V28.39h1.47v1.848h1.372v1.274h-1.372v3.542c0 .462.224.812.644.812.28 0 .532-.126.644-.252l.35 1.12c-.266.238-.7.434-1.372.434zM93.496 37h-1.47v-6.762h1.47v.98c.518-.644 1.33-1.148 2.198-1.148v1.456a2.029 2.029 0 0 0-.448-.042c-.63 0-1.456.42-1.75.91V37zm9.002 0h-1.47v-.742c-.504.588-1.302.91-2.198.91-1.092 0-2.338-.756-2.338-2.24 0-1.568 1.232-2.212 2.338-2.212.924 0 1.694.294 2.198.868v-1.008c0-.784-.658-1.26-1.582-1.26-.756 0-1.428.28-2.002.868l-.616-1.022c.784-.756 1.764-1.092 2.842-1.092 1.512 0 2.828.63 2.828 2.436V37zm-3.08-.84c.63 0 1.26-.238 1.61-.7v-1.036c-.35-.462-.98-.7-1.61-.7-.826 0-1.456.49-1.456 1.218 0 .742.63 1.218 1.456 1.218zm8.064 1.008c-2.044 0-3.486-1.512-3.486-3.556s1.442-3.542 3.486-3.542c1.33 0 2.114.56 2.59 1.204l-.966.882c-.378-.532-.896-.784-1.554-.784-1.218 0-2.044.924-2.044 2.24 0 1.316.826 2.254 2.044 2.254.658 0 1.176-.28 1.554-.812l.966.91c-.476.63-1.26 1.204-2.59 1.204zm10.22-.168h-1.848l-2.058-2.8-.952.98V37h-1.47v-9.338h1.47V33.5l2.982-3.262h1.82l-2.8 3.066L117.702 37zm4.116.168c-2.044 0-3.542-1.414-3.542-3.556 0-1.96 1.428-3.542 3.43-3.542 2.03 0 3.318 1.54 3.318 3.668v.364h-5.208c.112 1.008.868 1.862 2.142 1.862.672 0 1.442-.266 1.932-.756l.672.966c-.686.644-1.68.994-2.744.994zm1.792-4.116c-.042-.798-.588-1.778-1.918-1.778-1.246 0-1.834.966-1.89 1.778h3.808zm9.1 3.948h-1.47v-.924c-.518.672-1.288 1.092-2.17 1.092-1.722 0-2.996-1.316-2.996-3.556 0-2.184 1.26-3.542 2.996-3.542.854 0 1.638.378 2.17 1.106v-3.514h1.47V37zm-3.206-1.134c.686 0 1.414-.406 1.736-.91v-2.674c-.322-.504-1.05-.91-1.736-.91-1.176 0-1.918.938-1.918 2.24 0 1.316.742 2.254 1.918 2.254zM31.788 77h-1.356l-4.176-5.724V77h-1.404v-8.004h1.44l4.092 5.544v-5.544h1.404V77zm8.916 0h-1.596l-.588-1.548h-3.672L34.26 77h-1.596l3.144-8.004h1.752L40.704 77zm-2.58-2.784l-1.44-3.816-1.44 3.816h2.88zM49.884 77H48.48v-6.18L46.032 77h-.6l-2.46-6.18V77h-1.404v-8.004h1.98l2.184 5.496 2.172-5.496h1.98V77zm7.188 0h-5.484v-8.004h5.484v1.236h-4.08v2.064h3.996v1.236h-3.996v2.232h4.08V77zm143.632.144c-2.364 0-4.2-1.68-4.2-4.14 0-2.472 1.836-4.14 4.2-4.14 1.608 0 2.616.828 3.204 1.788l-1.188.624a2.366 2.366 0 0 0-2.016-1.164c-1.584 0-2.76 1.2-2.76 2.892 0 1.668 1.176 2.892 2.76 2.892.852 0 1.632-.504 2.016-1.164l1.2.6c-.612.96-1.608 1.812-3.216 1.812zM212.188 77h-1.596l-.588-1.548h-3.672L205.744 77h-1.596l3.144-8.004h1.752L212.188 77zm-2.58-2.784l-1.44-3.816-1.44 3.816h2.88zM221.368 77h-1.404v-6.18L217.516 77h-.6l-2.46-6.18V77h-1.404v-8.004h1.98l2.184 5.496 2.172-5.496h1.98V77zm3.108 0h-1.404v-8.004h3.528c1.68 0 2.604 1.14 2.604 2.508 0 1.356-.936 2.496-2.604 2.496h-2.124v3zm1.932-4.236c.792 0 1.356-.504 1.356-1.26 0-.768-.564-1.272-1.356-1.272h-1.932v2.532h1.932zM236.692 77h-1.596l-.588-1.548h-3.672L230.248 77h-1.596l3.144-8.004h1.752L236.692 77zm-2.58-2.784l-1.44-3.816-1.44 3.816h2.88zM238.96 77h-1.404v-8.004h1.404V77zm5.556.156c-2.328 0-4.2-1.644-4.2-4.152 0-2.52 1.872-4.14 4.2-4.14 1.56 0 2.58.744 3.216 1.656l-1.14.66a2.583 2.583 0 0 0-2.076-1.068c-1.584 0-2.76 1.2-2.76 2.892 0 1.668 1.176 2.892 2.76 2.892.816 0 1.536-.372 1.896-.72V73.94h-2.4v-1.236h3.792v2.988a4.325 4.325 0 0 1-3.288 1.464zM256.204 77h-1.356l-4.176-5.724V77h-1.404v-8.004h1.44l4.092 5.544v-5.544h1.404V77zm4.452.144c-1.476 0-2.544-.528-3.264-1.272l.792-1.092a3.439 3.439 0 0 0 2.532 1.116c1.152 0 1.596-.564 1.596-1.104 0-1.68-4.656-.636-4.656-3.576 0-1.332 1.152-2.352 2.916-2.352 1.236 0 2.256.408 2.988 1.128l-.792 1.044c-.636-.636-1.488-.924-2.328-.924-.816 0-1.344.408-1.344.996 0 1.5 4.656.576 4.656 3.552 0 1.332-.948 2.484-3.096 2.484zM325.688 77h-4.932v-8.004h1.404v6.768h3.528V77zm8.448 0h-1.596l-.588-1.548h-3.672L327.692 77h-1.596l3.144-8.004h1.752L334.136 77zm-2.58-2.784l-1.44-3.816-1.44 3.816h2.88zm6.072 2.928c-1.476 0-2.544-.528-3.264-1.272l.792-1.092a3.439 3.439 0 0 0 2.532 1.116c1.152 0 1.596-.564 1.596-1.104 0-1.68-4.656-.636-4.656-3.576 0-1.332 1.152-2.352 2.916-2.352 1.236 0 2.256.408 2.988 1.128l-.792 1.044c-.636-.636-1.488-.924-2.328-.924-.816 0-1.344.408-1.344.996 0 1.5 4.656.576 4.656 3.552 0 1.332-.948 2.484-3.096 2.484zM345.2 77h-1.404v-6.768h-2.424v-1.236h6.252v1.236H345.2V77zm9.456.144c-1.476 0-2.544-.528-3.264-1.272l.792-1.092a3.439 3.439 0 0 0 2.532 1.116c1.152 0 1.596-.564 1.596-1.104 0-1.68-4.656-.636-4.656-3.576 0-1.332 1.152-2.352 2.916-2.352 1.236 0 2.256.408 2.988 1.128l-.792 1.044c-.636-.636-1.488-.924-2.328-.924-.816 0-1.344.408-1.344.996 0 1.5 4.656.576 4.656 3.552 0 1.332-.948 2.484-3.096 2.484zM364.52 77h-5.484v-8.004h5.484v1.236h-4.08v2.064h3.996v1.236h-3.996v2.232h4.08V77zm6.924 0h-5.484v-8.004h5.484v1.236h-4.08v2.064h3.996v1.236h-3.996v2.232h4.08V77zm8.376 0h-1.356l-4.176-5.724V77h-1.404v-8.004h1.44l4.092 5.544v-5.544h1.404V77z" opacity=".5"/><g transform="translate(36 178)"><path fill="#384254" fill-rule="nonzero" d="M32.408 13h-1.862l-.686-1.806h-4.284L24.89 13h-1.862l3.668-9.338h2.044L32.408 13zm-3.01-3.248L27.718 5.3l-1.68 4.452h3.36zm7.056 3.416c-2.044 0-3.486-1.512-3.486-3.556S34.41 6.07 36.454 6.07c1.33 0 2.114.56 2.59 1.204l-.966.882c-.378-.532-.896-.784-1.554-.784-1.218 0-2.044.924-2.044 2.24 0 1.316.826 2.254 2.044 2.254.658 0 1.176-.28 1.554-.812l.966.91c-.476.63-1.26 1.204-2.59 1.204zm5.936 0c-1.148 0-1.736-.616-1.736-1.75V7.512h-1.12V6.238h1.12V4.39h1.47v1.848h1.372v1.274h-1.372v3.542c0 .462.224.812.644.812.28 0 .532-.126.644-.252l.35 1.12c-.266.238-.7.434-1.372.434zm3.164-7.756a.908.908 0 0 1-.91-.91c0-.504.406-.91.91-.91s.91.406.91.91-.406.91-.91.91zM46.282 13h-1.47V6.238h1.47V13zm5.264 0h-1.582l-2.758-6.762h1.582l1.974 5.068 1.974-5.068h1.568L51.546 13zm9.296 0h-1.47v-.742c-.504.588-1.302.91-2.198.91-1.092 0-2.338-.756-2.338-2.24 0-1.568 1.232-2.212 2.338-2.212.924 0 1.694.294 2.198.868V8.576c0-.784-.658-1.26-1.582-1.26-.756 0-1.428.28-2.002.868l-.616-1.022c.784-.756 1.764-1.092 2.842-1.092 1.512 0 2.828.63 2.828 2.436V13zm-3.08-.84c.63 0 1.26-.238 1.61-.7v-1.036c-.35-.462-.98-.7-1.61-.7-.826 0-1.456.49-1.456 1.218 0 .742.63 1.218 1.456 1.218zm7.028 1.008c-1.148 0-1.736-.616-1.736-1.75V7.512h-1.12V6.238h1.12V4.39h1.47v1.848h1.372v1.274h-1.372v3.542c0 .462.224.812.644.812.28 0 .532-.126.644-.252l.35 1.12c-.266.238-.7.434-1.372.434zm5.558 0c-2.044 0-3.542-1.414-3.542-3.556 0-1.96 1.428-3.542 3.43-3.542 2.03 0 3.318 1.54 3.318 3.668v.364h-5.208c.112 1.008.868 1.862 2.142 1.862.672 0 1.442-.266 1.932-.756l.672.966c-.686.644-1.68.994-2.744.994zm1.792-4.116c-.042-.798-.588-1.778-1.918-1.778-1.246 0-1.834.966-1.89 1.778h3.808zM81.24 13h-1.47v-.924c-.518.672-1.288 1.092-2.17 1.092-1.722 0-2.996-1.316-2.996-3.556 0-2.184 1.26-3.542 2.996-3.542.854 0 1.638.378 2.17 1.106V3.662h1.47V13zm-3.206-1.134c.686 0 1.414-.406 1.736-.91V8.282c-.322-.504-1.05-.91-1.736-.91-1.176 0-1.918.938-1.918 2.24 0 1.316.742 2.254 1.918 2.254zM92.37 13H90.9v-.742c-.504.588-1.302.91-2.198.91-1.092 0-2.338-.756-2.338-2.24 0-1.568 1.232-2.212 2.338-2.212.924 0 1.694.294 2.198.868V8.576c0-.784-.658-1.26-1.582-1.26-.756 0-1.428.28-2.002.868L86.7 7.162c.784-.756 1.764-1.092 2.842-1.092 1.512 0 2.828.63 2.828 2.436V13zm-3.08-.84c.63 0 1.26-.238 1.61-.7v-1.036c-.35-.462-.98-.7-1.61-.7-.826 0-1.456.49-1.456 1.218 0 .742.63 1.218 1.456 1.218zm8.064 1.008c-2.044 0-3.486-1.512-3.486-3.556S95.31 6.07 97.354 6.07c1.33 0 2.114.56 2.59 1.204l-.966.882c-.378-.532-.896-.784-1.554-.784-1.218 0-2.044.924-2.044 2.24 0 1.316.826 2.254 2.044 2.254.658 0 1.176-.28 1.554-.812l.966.91c-.476.63-1.26 1.204-2.59 1.204zm6.972 0c-2.044 0-3.486-1.512-3.486-3.556s1.442-3.542 3.486-3.542c1.33 0 2.114.56 2.59 1.204l-.966.882c-.378-.532-.896-.784-1.554-.784-1.218 0-2.044.924-2.044 2.24 0 1.316.826 2.254 2.044 2.254.658 0 1.176-.28 1.554-.812l.966.91c-.476.63-1.26 1.204-2.59 1.204zm6.958 0c-2.156 0-3.472-1.624-3.472-3.556 0-1.946 1.316-3.542 3.472-3.542 2.156 0 3.472 1.596 3.472 3.542 0 1.932-1.316 3.556-3.472 3.556zm0-1.302c1.26 0 1.946-1.05 1.946-2.254 0-1.19-.686-2.24-1.946-2.24-1.246 0-1.946 1.05-1.946 2.24 0 1.204.7 2.254 1.946 2.254zM122.288 13h-1.47v-.896a3.234 3.234 0 0 1-2.38 1.064c-1.456 0-2.184-.77-2.184-2.142V6.238h1.47v4.242c0 1.05.532 1.386 1.372 1.386.742 0 1.386-.434 1.722-.882V6.238h1.47V13zm7.952 0h-1.47V8.772c0-1.064-.546-1.4-1.372-1.4-.742 0-1.386.448-1.736.896V13h-1.47V6.238h1.47v.91c.448-.532 1.33-1.078 2.394-1.078 1.456 0 2.184.784 2.184 2.17V13zm3.948.168c-1.148 0-1.736-.616-1.736-1.75V7.512h-1.12V6.238h1.12V4.39h1.47v1.848h1.372v1.274h-1.372v3.542c0 .462.224.812.644.812.28 0 .532-.126.644-.252l.35 1.12c-.266.238-.7.434-1.372.434z" opacity=".5"/><path fill="#384254" fill-rule="nonzero" d="M164.326 13.168c-2.632 0-3.738-2.492-3.738-4.83 0-2.352 1.106-4.816 3.738-4.816 2.618 0 3.724 2.464 3.724 4.816 0 2.338-1.106 4.83-3.724 4.83zm0-1.456c1.512 0 2.058-1.596 2.058-3.374 0-1.792-.532-3.36-2.058-3.36-1.526 0-2.072 1.568-2.072 3.36 0 1.778.546 3.374 2.072 3.374zm145.93 1.456c-1.596 0-2.702-.56-3.458-1.442l.938-1.134c.616.728 1.47 1.12 2.506 1.12 1.19 0 1.918-.728 1.918-1.652 0-.994-.728-1.652-1.876-1.652-.784 0-1.442.238-2.044.798l-1.162-.336V3.662h6.118v1.442h-4.48v2.688c.462-.434 1.218-.798 2.114-.798 1.582 0 2.996 1.092 2.996 3.01 0 1.932-1.484 3.164-3.57 3.164zM325.194 13h-1.47v-.924c-.518.672-1.288 1.092-2.17 1.092-1.722 0-2.996-1.316-2.996-3.556 0-2.184 1.26-3.542 2.996-3.542.854 0 1.638.378 2.17 1.106V3.662h1.47V13zm-3.206-1.134c.686 0 1.414-.406 1.736-.91V8.282c-.322-.504-1.05-.91-1.736-.91-1.176 0-1.918.938-1.918 2.24 0 1.316.742 2.254 1.918 2.254zM332.712 13h-1.47v-.742c-.504.588-1.302.91-2.198.91-1.092 0-2.338-.756-2.338-2.24 0-1.568 1.232-2.212 2.338-2.212.924 0 1.694.294 2.198.868V8.576c0-.784-.658-1.26-1.582-1.26-.756 0-1.428.28-2.002.868l-.616-1.022c.784-.756 1.764-1.092 2.842-1.092 1.512 0 2.828.63 2.828 2.436V13zm-3.08-.84c.63 0 1.26-.238 1.61-.7v-1.036c-.35-.462-.98-.7-1.61-.7-.826 0-1.456.49-1.456 1.218 0 .742.63 1.218 1.456 1.218zm4.704 3.486l.21-1.316c.154.07.392.112.56.112.476 0 .784-.14.98-.588l.336-.77-2.786-6.846h1.582l1.974 5.068 1.974-5.068h1.568l-3.262 7.98c-.462 1.148-1.26 1.512-2.31 1.526-.21 0-.63-.042-.826-.098zm9.646-2.478c-1.162 0-2.198-.378-2.898-1.064l.672-1.05c.476.49 1.414.938 2.282.938.882 0 1.344-.364 1.344-.896 0-1.33-4.088-.378-4.088-2.982 0-1.106.952-2.044 2.66-2.044 1.148 0 2.016.406 2.618.938l-.616 1.036c-.406-.448-1.148-.812-2.002-.812-.77 0-1.246.364-1.246.84 0 1.19 4.088.294 4.088 2.982 0 1.204-.994 2.114-2.814 2.114zm13.51-.168h-1.47v-.742c-.504.588-1.302.91-2.198.91-1.092 0-2.338-.756-2.338-2.24 0-1.568 1.232-2.212 2.338-2.212.924 0 1.694.294 2.198.868V8.576c0-.784-.658-1.26-1.582-1.26-.756 0-1.428.28-2.002.868l-.616-1.022c.784-.756 1.764-1.092 2.842-1.092 1.512 0 2.828.63 2.828 2.436V13zm-3.08-.84c.63 0 1.26-.238 1.61-.7v-1.036c-.35-.462-.98-.7-1.61-.7-.826 0-1.456.49-1.456 1.218 0 .742.63 1.218 1.456 1.218zm7.742 3.584c-1.148 0-2.002-.252-2.842-1.008l.686-1.064c.56.63 1.26.868 2.156.868.966 0 2.002-.448 2.002-1.89v-.77c-.518.686-1.288 1.134-2.17 1.134-1.722 0-2.996-1.246-2.996-3.472 0-2.198 1.246-3.472 2.996-3.472.854 0 1.624.378 2.17 1.106v-.938h1.47v6.412c0 2.436-1.82 3.094-3.472 3.094zm.266-4.046c.686 0 1.4-.406 1.736-.896V8.268c-.336-.49-1.05-.896-1.736-.896-1.176 0-1.918.868-1.918 2.17s.742 2.156 1.918 2.156zm8.176 1.47c-2.156 0-3.472-1.624-3.472-3.556 0-1.946 1.316-3.542 3.472-3.542 2.156 0 3.472 1.596 3.472 3.542 0 1.932-1.316 3.556-3.472 3.556zm0-1.302c1.26 0 1.946-1.05 1.946-2.254 0-1.19-.686-2.24-1.946-2.24-1.246 0-1.946 1.05-1.946 2.24 0 1.204.7 2.254 1.946 2.254z"/><circle cx="288" cy="9" r="4" fill="#6FD350"/><path fill="#01B2D0" fill-rule="nonzero" d="M12.833 8.015c.375-.414.078-1.071-.484-1.071H8.164L10.11.839c.21-.66-.637-1.137-1.104-.621L.167 9.985c-.375.414-.078 1.071.484 1.071h4.182L2.89 17.161c-.21.66.637 1.137 1.104.621l8.838-9.767z"/></g><path fill="#9D9D9D" opacity=".06" d="M24 128h405v38H24z"/><g transform="translate(36 138)"><path fill="#384254" fill-rule="nonzero" d="M27.2 13.168c-1.722 0-2.968-.616-3.808-1.484l.924-1.274a4.012 4.012 0 0 0 2.954 1.302c1.344 0 1.862-.658 1.862-1.288 0-1.96-5.432-.742-5.432-4.172 0-1.554 1.344-2.744 3.402-2.744 1.442 0 2.632.476 3.486 1.316l-.924 1.218c-.742-.742-1.736-1.078-2.716-1.078-.952 0-1.568.476-1.568 1.162 0 1.75 5.432.672 5.432 4.144 0 1.554-1.106 2.898-3.612 2.898zm5.81-7.756a.908.908 0 0 1-.91-.91c0-.504.406-.91.91-.91s.91.406.91.91-.406.91-.91.91zM33.738 13h-1.47V6.238h1.47V13zm4.662 2.744c-1.148 0-2.002-.252-2.842-1.008l.686-1.064c.56.63 1.26.868 2.156.868.966 0 2.002-.448 2.002-1.89v-.77c-.518.686-1.288 1.134-2.17 1.134-1.722 0-2.996-1.246-2.996-3.472 0-2.198 1.246-3.472 2.996-3.472.854 0 1.624.378 2.17 1.106v-.938h1.47v6.412c0 2.436-1.82 3.094-3.472 3.094zm.266-4.046c.686 0 1.4-.406 1.736-.896V8.268c-.336-.49-1.05-.896-1.736-.896-1.176 0-1.918.868-1.918 2.17s.742 2.156 1.918 2.156zM49.824 13h-1.47V8.772c0-1.064-.546-1.4-1.372-1.4-.742 0-1.386.448-1.736.896V13h-1.47V6.238h1.47v.91c.448-.532 1.33-1.078 2.394-1.078 1.456 0 2.184.784 2.184 2.17V13zm5.04.168c-2.044 0-3.542-1.414-3.542-3.556 0-1.96 1.428-3.542 3.43-3.542 2.03 0 3.318 1.54 3.318 3.668v.364h-5.208c.112 1.008.868 1.862 2.142 1.862.672 0 1.442-.266 1.932-.756l.672.966c-.686.644-1.68.994-2.744.994zm1.792-4.116c-.042-.798-.588-1.778-1.918-1.778-1.246 0-1.834.966-1.89 1.778h3.808zm9.1 3.948h-1.47v-.924c-.518.672-1.288 1.092-2.17 1.092-1.722 0-2.996-1.316-2.996-3.556 0-2.184 1.26-3.542 2.996-3.542.854 0 1.638.378 2.17 1.106V3.662h1.47V13zm-3.206-1.134c.686 0 1.414-.406 1.736-.91V8.282c-.322-.504-1.05-.91-1.736-.91-1.176 0-1.918.938-1.918 2.24 0 1.316.742 2.254 1.918 2.254zM77.306 13h-1.47v-.896a3.234 3.234 0 0 1-2.38 1.064c-1.456 0-2.184-.77-2.184-2.142V6.238h1.47v4.242c0 1.05.532 1.386 1.372 1.386.742 0 1.386-.434 1.722-.882V6.238h1.47V13zm5.544.168c-.854 0-1.61-.392-2.17-1.106v3.514h-1.47V6.238h1.47v.924a2.698 2.698 0 0 1 2.17-1.092c1.75 0 2.996 1.316 2.996 3.542s-1.246 3.556-2.996 3.556zm-.434-1.302c1.162 0 1.918-.938 1.918-2.254s-.756-2.24-1.918-2.24c-.686 0-1.4.392-1.736.896v2.674c.322.504 1.05.924 1.736.924z" opacity=".5"/><path fill="#384254" fill-rule="nonzero" d="M164.326 13h-1.638V5.776l-1.526 1.596-.952-.994 2.688-2.716h1.428zm148.24 0h-1.47v-.742c-.504.588-1.302.91-2.198.91-1.092 0-2.338-.756-2.338-2.24 0-1.568 1.232-2.212 2.338-2.212.924 0 1.694.294 2.198.868V8.576c0-.784-.658-1.26-1.582-1.26-.756 0-1.428.28-2.002.868l-.616-1.022c.784-.756 1.764-1.092 2.842-1.092 1.512 0 2.828.63 2.828 2.436V13zm-3.08-.84c.63 0 1.26-.238 1.61-.7v-1.036c-.35-.462-.98-.7-1.61-.7-.826 0-1.456.49-1.456 1.218 0 .742.63 1.218 1.456 1.218zm14.826.84h-1.47v-.924c-.518.672-1.288 1.092-2.17 1.092-1.722 0-2.996-1.316-2.996-3.556 0-2.184 1.26-3.542 2.996-3.542.854 0 1.638.378 2.17 1.106V3.662h1.47V13zm-3.206-1.134c.686 0 1.414-.406 1.736-.91V8.282c-.322-.504-1.05-.91-1.736-.91-1.176 0-1.918.938-1.918 2.24 0 1.316.742 2.254 1.918 2.254zM331.83 13h-1.47v-.742c-.504.588-1.302.91-2.198.91-1.092 0-2.338-.756-2.338-2.24 0-1.568 1.232-2.212 2.338-2.212.924 0 1.694.294 2.198.868V8.576c0-.784-.658-1.26-1.582-1.26-.756 0-1.428.28-2.002.868l-.616-1.022c.784-.756 1.764-1.092 2.842-1.092 1.512 0 2.828.63 2.828 2.436V13zm-3.08-.84c.63 0 1.26-.238 1.61-.7v-1.036c-.35-.462-.98-.7-1.61-.7-.826 0-1.456.49-1.456 1.218 0 .742.63 1.218 1.456 1.218zm4.704 3.486l.21-1.316c.154.07.392.112.56.112.476 0 .784-.14.98-.588l.336-.77-2.786-6.846h1.582l1.974 5.068 1.974-5.068h1.568l-3.262 7.98c-.462 1.148-1.26 1.512-2.31 1.526-.21 0-.63-.042-.826-.098zM350.002 13h-1.47v-.742c-.504.588-1.302.91-2.198.91-1.092 0-2.338-.756-2.338-2.24 0-1.568 1.232-2.212 2.338-2.212.924 0 1.694.294 2.198.868V8.576c0-.784-.658-1.26-1.582-1.26-.756 0-1.428.28-2.002.868l-.616-1.022c.784-.756 1.764-1.092 2.842-1.092 1.512 0 2.828.63 2.828 2.436V13zm-3.08-.84c.63 0 1.26-.238 1.61-.7v-1.036c-.35-.462-.98-.7-1.61-.7-.826 0-1.456.49-1.456 1.218 0 .742.63 1.218 1.456 1.218zm7.742 3.584c-1.148 0-2.002-.252-2.842-1.008l.686-1.064c.56.63 1.26.868 2.156.868.966 0 2.002-.448 2.002-1.89v-.77c-.518.686-1.288 1.134-2.17 1.134-1.722 0-2.996-1.246-2.996-3.472 0-2.198 1.246-3.472 2.996-3.472.854 0 1.624.378 2.17 1.106v-.938h1.47v6.412c0 2.436-1.82 3.094-3.472 3.094zm.266-4.046c.686 0 1.4-.406 1.736-.896V8.268c-.336-.49-1.05-.896-1.736-.896-1.176 0-1.918.868-1.918 2.17s.742 2.156 1.918 2.156zm8.176 1.47c-2.156 0-3.472-1.624-3.472-3.556 0-1.946 1.316-3.542 3.472-3.542 2.156 0 3.472 1.596 3.472 3.542 0 1.932-1.316 3.556-3.472 3.556zm0-1.302c1.26 0 1.946-1.05 1.946-2.254 0-1.19-.686-2.24-1.946-2.24-1.246 0-1.946 1.05-1.946 2.24 0 1.204.7 2.254 1.946 2.254z"/><circle cx="288" cy="9" r="4" fill="#6FD350"/><path fill="#01B2D0" fill-rule="nonzero" d="M12.833 8.015c.375-.414.078-1.071-.484-1.071H8.164L10.11.839c.21-.66-.637-1.137-1.104-.621L.167 9.985c-.375.414-.078 1.071.484 1.071h4.182L2.89 17.161c-.21.66.637 1.137 1.104.621l8.838-9.767z"/></g><g transform="translate(36 98)"><path fill="#384254" fill-rule="nonzero" d="M32.408 13h-1.862l-.686-1.806h-4.284L24.89 13h-1.862l3.668-9.338h2.044L32.408 13zm-3.01-3.248L27.718 5.3l-1.68 4.452h3.36zm7.056 3.416c-2.044 0-3.486-1.512-3.486-3.556S34.41 6.07 36.454 6.07c1.33 0 2.114.56 2.59 1.204l-.966.882c-.378-.532-.896-.784-1.554-.784-1.218 0-2.044.924-2.044 2.24 0 1.316.826 2.254 2.044 2.254.658 0 1.176-.28 1.554-.812l.966.91c-.476.63-1.26 1.204-2.59 1.204zm6.972 0c-2.044 0-3.486-1.512-3.486-3.556s1.442-3.542 3.486-3.542c1.33 0 2.114.56 2.59 1.204l-.966.882c-.378-.532-.896-.784-1.554-.784-1.218 0-2.044.924-2.044 2.24 0 1.316.826 2.254 2.044 2.254.658 0 1.176-.28 1.554-.812l.966.91c-.476.63-1.26 1.204-2.59 1.204zm7.028 0c-2.044 0-3.542-1.414-3.542-3.556 0-1.96 1.428-3.542 3.43-3.542 2.03 0 3.318 1.54 3.318 3.668v.364h-5.208c.112 1.008.868 1.862 2.142 1.862.672 0 1.442-.266 1.932-.756l.672.966c-.686.644-1.68.994-2.744.994zm1.792-4.116c-.042-.798-.588-1.778-1.918-1.778-1.246 0-1.834.966-1.89 1.778h3.808zm6.51 4.116c-.854 0-1.61-.392-2.17-1.106v3.514h-1.47V6.238h1.47v.924a2.698 2.698 0 0 1 2.17-1.092c1.75 0 2.996 1.316 2.996 3.542s-1.246 3.556-2.996 3.556zm-.434-1.302c1.162 0 1.918-.938 1.918-2.254s-.756-2.24-1.918-2.24c-.686 0-1.4.392-1.736.896v2.674c.322.504 1.05.924 1.736.924zm6.944 1.302c-1.148 0-1.736-.616-1.736-1.75V7.512h-1.12V6.238h1.12V4.39H65v1.848h1.372v1.274H65v3.542c0 .462.224.812.644.812.28 0 .532-.126.644-.252l.35 1.12c-.266.238-.7.434-1.372.434zm5.558 0c-2.044 0-3.542-1.414-3.542-3.556 0-1.96 1.428-3.542 3.43-3.542 2.03 0 3.318 1.54 3.318 3.668v.364h-5.208c.112 1.008.868 1.862 2.142 1.862.672 0 1.442-.266 1.932-.756l.672.966c-.686.644-1.68.994-2.744.994zm1.792-4.116c-.042-.798-.588-1.778-1.918-1.778-1.246 0-1.834.966-1.89 1.778h3.808zm9.1 3.948h-1.47v-.924c-.518.672-1.288 1.092-2.17 1.092-1.722 0-2.996-1.316-2.996-3.556 0-2.184 1.26-3.542 2.996-3.542.854 0 1.638.378 2.17 1.106V3.662h1.47V13zm-3.206-1.134c.686 0 1.414-.406 1.736-.91V8.282c-.322-.504-1.05-.91-1.736-.91-1.176 0-1.918.938-1.918 2.24 0 1.316.742 2.254 1.918 2.254zm9.464-6.454a.908.908 0 0 1-.91-.91c0-.504.406-.91.91-.91s.91.406.91.91-.406.91-.91.91zM88.702 13h-1.47V6.238h1.47V13zm7.952 0h-1.47V8.772c0-1.064-.546-1.4-1.372-1.4-.742 0-1.386.448-1.736.896V13h-1.47V6.238h1.47v.91c.448-.532 1.33-1.078 2.394-1.078 1.456 0 2.184.784 2.184 2.17V13zm5.264 0h-1.582l-2.758-6.762h1.582l1.974 5.068 1.974-5.068h1.568L101.918 13zm4.424-7.588a.908.908 0 0 1-.91-.91c0-.504.406-.91.91-.91s.91.406.91.91-.406.91-.91.91zM107.07 13h-1.47V6.238h1.47V13zm3.948.168c-1.148 0-1.736-.616-1.736-1.75V7.512h-1.12V6.238h1.12V4.39h1.47v1.848h1.372v1.274h-1.372v3.542c0 .462.224.812.644.812.28 0 .532-.126.644-.252l.35 1.12c-.266.238-.7.434-1.372.434zm5.558 0c-2.044 0-3.542-1.414-3.542-3.556 0-1.96 1.428-3.542 3.43-3.542 2.03 0 3.318 1.54 3.318 3.668v.364h-5.208c.112 1.008.868 1.862 2.142 1.862.672 0 1.442-.266 1.932-.756l.672.966c-.686.644-1.68.994-2.744.994zm1.792-4.116c-.042-.798-.588-1.778-1.918-1.778-1.246 0-1.834.966-1.89 1.778h3.808z" opacity=".5"/><path fill="#384254" fill-rule="nonzero" d="M164.326 13.168c-2.632 0-3.738-2.492-3.738-4.83 0-2.352 1.106-4.816 3.738-4.816 2.618 0 3.724 2.464 3.724 4.816 0 2.338-1.106 4.83-3.724 4.83zm0-1.456c1.512 0 2.058-1.596 2.058-3.374 0-1.792-.532-3.36-2.058-3.36-1.526 0-2.072 1.568-2.072 3.36 0 1.778.546 3.374 2.072 3.374zm145.538 1.456c-1.652 0-2.884-.672-3.528-1.512l.896-1.078c.602.7 1.582 1.134 2.576 1.134 1.232 0 1.946-.574 1.946-1.428 0-.924-.728-1.33-2.072-1.33-.392 0-.924.014-1.064.028V7.498c.154.014.7.014 1.064.014 1.106 0 1.932-.378 1.932-1.232s-.854-1.302-1.89-1.302c-.966 0-1.75.35-2.422 1.036l-.84-1.022c.728-.854 1.862-1.47 3.416-1.47 2.016 0 3.36.952 3.36 2.506 0 1.26-1.064 1.988-2.016 2.142.896.098 2.17.826 2.17 2.268 0 1.596-1.358 2.73-3.528 2.73zM324.83 13h-1.47v-.924c-.518.672-1.288 1.092-2.17 1.092-1.722 0-2.996-1.316-2.996-3.556 0-2.184 1.26-3.542 2.996-3.542.854 0 1.638.378 2.17 1.106V3.662h1.47V13zm-3.206-1.134c.686 0 1.414-.406 1.736-.91V8.282c-.322-.504-1.05-.91-1.736-.91-1.176 0-1.918.938-1.918 2.24 0 1.316.742 2.254 1.918 2.254zM332.348 13h-1.47v-.742c-.504.588-1.302.91-2.198.91-1.092 0-2.338-.756-2.338-2.24 0-1.568 1.232-2.212 2.338-2.212.924 0 1.694.294 2.198.868V8.576c0-.784-.658-1.26-1.582-1.26-.756 0-1.428.28-2.002.868l-.616-1.022c.784-.756 1.764-1.092 2.842-1.092 1.512 0 2.828.63 2.828 2.436V13zm-3.08-.84c.63 0 1.26-.238 1.61-.7v-1.036c-.35-.462-.98-.7-1.61-.7-.826 0-1.456.49-1.456 1.218 0 .742.63 1.218 1.456 1.218zm4.704 3.486l.21-1.316c.154.07.392.112.56.112.476 0 .784-.14.98-.588l.336-.77-2.786-6.846h1.582l1.974 5.068 1.974-5.068h1.568l-3.262 7.98c-.462 1.148-1.26 1.512-2.31 1.526-.21 0-.63-.042-.826-.098zm9.646-2.478c-1.162 0-2.198-.378-2.898-1.064l.672-1.05c.476.49 1.414.938 2.282.938.882 0 1.344-.364 1.344-.896 0-1.33-4.088-.378-4.088-2.982 0-1.106.952-2.044 2.66-2.044 1.148 0 2.016.406 2.618.938l-.616 1.036c-.406-.448-1.148-.812-2.002-.812-.77 0-1.246.364-1.246.84 0 1.19 4.088.294 4.088 2.982 0 1.204-.994 2.114-2.814 2.114zm13.51-.168h-1.47v-.742c-.504.588-1.302.91-2.198.91-1.092 0-2.338-.756-2.338-2.24 0-1.568 1.232-2.212 2.338-2.212.924 0 1.694.294 2.198.868V8.576c0-.784-.658-1.26-1.582-1.26-.756 0-1.428.28-2.002.868l-.616-1.022c.784-.756 1.764-1.092 2.842-1.092 1.512 0 2.828.63 2.828 2.436V13zm-3.08-.84c.63 0 1.26-.238 1.61-.7v-1.036c-.35-.462-.98-.7-1.61-.7-.826 0-1.456.49-1.456 1.218 0 .742.63 1.218 1.456 1.218zm7.742 3.584c-1.148 0-2.002-.252-2.842-1.008l.686-1.064c.56.63 1.26.868 2.156.868.966 0 2.002-.448 2.002-1.89v-.77c-.518.686-1.288 1.134-2.17 1.134-1.722 0-2.996-1.246-2.996-3.472 0-2.198 1.246-3.472 2.996-3.472.854 0 1.624.378 2.17 1.106v-.938h1.47v6.412c0 2.436-1.82 3.094-3.472 3.094zm.266-4.046c.686 0 1.4-.406 1.736-.896V8.268c-.336-.49-1.05-.896-1.736-.896-1.176 0-1.918.868-1.918 2.17s.742 2.156 1.918 2.156zm8.176 1.47c-2.156 0-3.472-1.624-3.472-3.556 0-1.946 1.316-3.542 3.472-3.542 2.156 0 3.472 1.596 3.472 3.542 0 1.932-1.316 3.556-3.472 3.556zm0-1.302c1.26 0 1.946-1.05 1.946-2.254 0-1.19-.686-2.24-1.946-2.24-1.246 0-1.946 1.05-1.946 2.24 0 1.204.7 2.254 1.946 2.254z"/><circle cx="288" cy="11" r="4" fill="#6FD350"/><path fill="#01B2D0" fill-rule="nonzero" d="M12.833 8.015c.375-.414.078-1.071-.484-1.071H8.164L10.11.839c.21-.66-.637-1.137-1.104-.621L.167 9.985c-.375.414-.078 1.071.484 1.071h4.182L2.89 17.161c-.21.66.637 1.137 1.104.621l8.838-9.767z"/></g><g transform="translate(146 205)"><use fill="#000" filter="url(#c)" xlink:href="#d"/><use fill="#FFF" stroke="#8D8D8D" stroke-opacity=".24" xlink:href="#d"/><path fill="#E1E1E1" d="M24 142h330v1H24z"/><path fill="#FFF" stroke="#E1E1E1" d="M24.5 142.5h303V105a3.5 3.5 0 0 0-3.5-3.5H28a3.5 3.5 0 0 0-3.5 3.5v37.5z"/><path fill="#384254" fill-rule="nonzero" d="M44.232 126h-1.904l-2.058-3.486h-1.638V126h-1.638v-9.338h4.102c1.848 0 3.066 1.19 3.066 2.926 0 1.652-1.092 2.562-2.226 2.744L44.232 126zm-3.346-4.928c.924 0 1.596-.588 1.596-1.498 0-.896-.672-1.47-1.596-1.47h-2.254v2.968h2.254zm7.588 5.096c-2.044 0-3.542-1.414-3.542-3.556 0-1.96 1.428-3.542 3.43-3.542 2.03 0 3.318 1.54 3.318 3.668v.364h-5.208c.112 1.008.868 1.862 2.142 1.862.672 0 1.442-.266 1.932-.756l.672.966c-.686.644-1.68.994-2.744.994zm1.792-4.116c-.042-.798-.588-1.778-1.918-1.778-1.246 0-1.834.966-1.89 1.778h3.808zm5.95 4.116c-2.044 0-3.486-1.512-3.486-3.556s1.442-3.542 3.486-3.542c1.33 0 2.114.56 2.59 1.204l-.966.882c-.378-.532-.896-.784-1.554-.784-1.218 0-2.044.924-2.044 2.24 0 1.316.826 2.254 2.044 2.254.658 0 1.176-.28 1.554-.812l.966.91c-.476.63-1.26 1.204-2.59 1.204zm7.028 0c-2.044 0-3.542-1.414-3.542-3.556 0-1.96 1.428-3.542 3.43-3.542 2.03 0 3.318 1.54 3.318 3.668v.364h-5.208c.112 1.008.868 1.862 2.142 1.862.672 0 1.442-.266 1.932-.756l.672.966c-.686.644-1.68.994-2.744.994zm1.792-4.116c-.042-.798-.588-1.778-1.918-1.778-1.246 0-1.834.966-1.89 1.778h3.808zM73.954 126h-1.47v-4.228c0-1.064-.546-1.4-1.372-1.4-.742 0-1.386.448-1.736.896V126h-1.47v-6.762h1.47v.91c.448-.532 1.33-1.078 2.394-1.078 1.456 0 2.184.784 2.184 2.17V126zm3.948.168c-1.148 0-1.736-.616-1.736-1.75v-3.906h-1.12v-1.274h1.12v-1.848h1.47v1.848h1.372v1.274h-1.372v3.542c0 .462.224.812.644.812.28 0 .532-.126.644-.252l.35 1.12c-.266.238-.7.434-1.372.434zm25.73-.168h-1.638v-9.338h4.116c1.96 0 3.038 1.33 3.038 2.926 0 1.582-1.092 2.912-3.038 2.912h-2.478v3.5zm2.254-4.942c.924 0 1.582-.588 1.582-1.47 0-.896-.658-1.484-1.582-1.484h-2.254v2.954h2.254zm6.062 4.942h-1.47v-6.762h1.47v.98c.518-.644 1.33-1.148 2.198-1.148v1.456a2.029 2.029 0 0 0-.448-.042c-.63 0-1.456.42-1.75.91V126zm6.454.168c-2.156 0-3.472-1.624-3.472-3.556 0-1.946 1.316-3.542 3.472-3.542 2.156 0 3.472 1.596 3.472 3.542 0 1.932-1.316 3.556-3.472 3.556zm0-1.302c1.26 0 1.946-1.05 1.946-2.254 0-1.19-.686-2.24-1.946-2.24-1.246 0-1.946 1.05-1.946 2.24 0 1.204.7 2.254 1.946 2.254zm8.61 1.302c-.854 0-1.61-.392-2.17-1.106v3.514h-1.47v-9.338h1.47v.924a2.698 2.698 0 0 1 2.17-1.092c1.75 0 2.996 1.316 2.996 3.542s-1.246 3.556-2.996 3.556zm-.434-1.302c1.162 0 1.918-.938 1.918-2.254s-.756-2.24-1.918-2.24c-.686 0-1.4.392-1.736.896v2.674c.322.504 1.05.924 1.736.924zm8.036 1.302c-2.044 0-3.542-1.414-3.542-3.556 0-1.96 1.428-3.542 3.43-3.542 2.03 0 3.318 1.54 3.318 3.668v.364h-5.208c.112 1.008.868 1.862 2.142 1.862.672 0 1.442-.266 1.932-.756l.672.966c-.686.644-1.68.994-2.744.994zm1.792-4.116c-.042-.798-.588-1.778-1.918-1.778-1.246 0-1.834.966-1.89 1.778h3.808zm4.34 3.948h-1.47v-6.762h1.47v.98c.518-.644 1.33-1.148 2.198-1.148v1.456a2.029 2.029 0 0 0-.448-.042c-.63 0-1.456.42-1.75.91V126zm5.432.168c-1.148 0-1.736-.616-1.736-1.75v-3.906h-1.12v-1.274h1.12v-1.848h1.47v1.848h1.372v1.274h-1.372v3.542c0 .462.224.812.644.812.28 0 .532-.126.644-.252l.35 1.12c-.266.238-.7.434-1.372.434zm3.164-7.756a.908.908 0 0 1-.91-.91c0-.504.406-.91.91-.91s.91.406.91.91-.406.91-.91.91zm.728 7.588h-1.47v-6.762h1.47V126zm5.04.168c-2.044 0-3.542-1.414-3.542-3.556 0-1.96 1.428-3.542 3.43-3.542 2.03 0 3.318 1.54 3.318 3.668v.364h-5.208c.112 1.008.868 1.862 2.142 1.862.672 0 1.442-.266 1.932-.756l.672.966c-.686.644-1.68.994-2.744.994zm1.792-4.116c-.042-.798-.588-1.778-1.918-1.778-1.246 0-1.834.966-1.89 1.778h3.808zm5.194 4.116c-1.162 0-2.198-.378-2.898-1.064l.672-1.05c.476.49 1.414.938 2.282.938.882 0 1.344-.364 1.344-.896 0-1.33-4.088-.378-4.088-2.982 0-1.106.952-2.044 2.66-2.044 1.148 0 2.016.406 2.618.938l-.616 1.036c-.406-.448-1.148-.812-2.002-.812-.77 0-1.246.364-1.246.84 0 1.19 4.088.294 4.088 2.982 0 1.204-.994 2.114-2.814 2.114zm30.392 0c-2.758 0-4.9-1.96-4.9-4.83 0-2.884 2.142-4.83 4.9-4.83 1.876 0 3.052.966 3.738 2.086l-1.386.728a2.76 2.76 0 0 0-2.352-1.358c-1.848 0-3.22 1.4-3.22 3.374 0 1.946 1.372 3.374 3.22 3.374.994 0 1.904-.588 2.352-1.358l1.4.7c-.714 1.12-1.876 2.114-3.752 2.114zm10.626-.168h-1.47v-.742c-.504.588-1.302.91-2.198.91-1.092 0-2.338-.756-2.338-2.24 0-1.568 1.232-2.212 2.338-2.212.924 0 1.694.294 2.198.868v-1.008c0-.784-.658-1.26-1.582-1.26-.756 0-1.428.28-2.002.868l-.616-1.022c.784-.756 1.764-1.092 2.842-1.092 1.512 0 2.828.63 2.828 2.436V126zm-3.08-.84c.63 0 1.26-.238 1.61-.7v-1.036c-.35-.462-.98-.7-1.61-.7-.826 0-1.456.49-1.456 1.218 0 .742.63 1.218 1.456 1.218zm14.756.84h-1.47v-4.41c0-.728-.322-1.218-1.12-1.218-.658 0-1.274.448-1.568.896V126h-1.47v-4.41c0-.728-.308-1.218-1.106-1.218-.658 0-1.26.462-1.568.896V126h-1.47v-6.762h1.47v.91c.294-.406 1.176-1.078 2.212-1.078 1.008 0 1.624.504 1.848 1.232.378-.602 1.274-1.232 2.296-1.232 1.232 0 1.946.672 1.946 2.044V126zm5.544.168c-.854 0-1.61-.392-2.17-1.106v3.514h-1.47v-9.338h1.47v.924a2.698 2.698 0 0 1 2.17-1.092c1.75 0 2.996 1.316 2.996 3.542s-1.246 3.556-2.996 3.556zm-.434-1.302c1.162 0 1.918-.938 1.918-2.254s-.756-2.24-1.918-2.24c-.686 0-1.4.392-1.736.896v2.674c.322.504 1.05.924 1.736.924zM230.414 126h-1.47v-.742c-.504.588-1.302.91-2.198.91-1.092 0-2.338-.756-2.338-2.24 0-1.568 1.232-2.212 2.338-2.212.924 0 1.694.294 2.198.868v-1.008c0-.784-.658-1.26-1.582-1.26-.756 0-1.428.28-2.002.868l-.616-1.022c.784-.756 1.764-1.092 2.842-1.092 1.512 0 2.828.63 2.828 2.436V126zm-3.08-.84c.63 0 1.26-.238 1.61-.7v-1.036c-.35-.462-.98-.7-1.61-.7-.826 0-1.456.49-1.456 1.218 0 .742.63 1.218 1.456 1.218zm5.726-6.748a.908.908 0 0 1-.91-.91c0-.504.406-.91.91-.91s.91.406.91.91-.406.91-.91.91zm.728 7.588h-1.47v-6.762h1.47V126zm4.662 2.744c-1.148 0-2.002-.252-2.842-1.008l.686-1.064c.56.63 1.26.868 2.156.868.966 0 2.002-.448 2.002-1.89v-.77c-.518.686-1.288 1.134-2.17 1.134-1.722 0-2.996-1.246-2.996-3.472 0-2.198 1.246-3.472 2.996-3.472.854 0 1.624.378 2.17 1.106v-.938h1.47v6.412c0 2.436-1.82 3.094-3.472 3.094zm.266-4.046c.686 0 1.4-.406 1.736-.896v-2.534c-.336-.49-1.05-.896-1.736-.896-1.176 0-1.918.868-1.918 2.17s.742 2.156 1.918 2.156zM249.874 126h-1.47v-4.228c0-1.064-.546-1.4-1.372-1.4-.742 0-1.386.448-1.736.896V126h-1.47v-6.762h1.47v.91c.448-.532 1.33-1.078 2.394-1.078 1.456 0 2.184.784 2.184 2.17V126zm4.228.168c-1.162 0-2.198-.378-2.898-1.064l.672-1.05c.476.49 1.414.938 2.282.938.882 0 1.344-.364 1.344-.896 0-1.33-4.088-.378-4.088-2.982 0-1.106.952-2.044 2.66-2.044 1.148 0 2.016.406 2.618.938l-.616 1.036c-.406-.448-1.148-.812-2.002-.812-.77 0-1.246.364-1.246.84 0 1.19 4.088.294 4.088 2.982 0 1.204-.994 2.114-2.814 2.114zm29.098 0c-1.722 0-2.968-.616-3.808-1.484l.924-1.274a4.012 4.012 0 0 0 2.954 1.302c1.344 0 1.862-.658 1.862-1.288 0-1.96-5.432-.742-5.432-4.172 0-1.554 1.344-2.744 3.402-2.744 1.442 0 2.632.476 3.486 1.316l-.924 1.218c-.742-.742-1.736-1.078-2.716-1.078-.952 0-1.568.476-1.568 1.162 0 1.75 5.432.672 5.432 4.144 0 1.554-1.106 2.898-3.612 2.898zm8.204 0c-2.044 0-3.542-1.414-3.542-3.556 0-1.96 1.428-3.542 3.43-3.542 2.03 0 3.318 1.54 3.318 3.668v.364h-5.208c.112 1.008.868 1.862 2.142 1.862.672 0 1.442-.266 1.932-.756l.672.966c-.686.644-1.68.994-2.744.994zm1.792-4.116c-.042-.798-.588-1.778-1.918-1.778-1.246 0-1.834.966-1.89 1.778h3.808zm4.914 4.116c-1.148 0-1.736-.616-1.736-1.75v-3.906h-1.12v-1.274h1.12v-1.848h1.47v1.848h1.372v1.274h-1.372v3.542c0 .462.224.812.644.812.28 0 .532-.126.644-.252l.35 1.12c-.266.238-.7.434-1.372.434zm8.456-.168h-1.47v-.896a3.234 3.234 0 0 1-2.38 1.064c-1.456 0-2.184-.77-2.184-2.142v-4.788h1.47v4.242c0 1.05.532 1.386 1.372 1.386.742 0 1.386-.434 1.722-.882v-4.746h1.47V126zm5.544.168c-.854 0-1.61-.392-2.17-1.106v3.514h-1.47v-9.338h1.47v.924a2.698 2.698 0 0 1 2.17-1.092c1.75 0 2.996 1.316 2.996 3.542s-1.246 3.556-2.996 3.556zm-.434-1.302c1.162 0 1.918-.938 1.918-2.254s-.756-2.24-1.918-2.24c-.686 0-1.4.392-1.736.896v2.674c.322.504 1.05.924 1.736.924z"/><path fill="#FFF" d="M24 142h65v1H24z"/><path fill="#D8D8D8" d="M88 101h1v42h-1zm86 0h1v42h-1zm92 0h1v42h-1z"/><g fill-rule="nonzero"><path fill="#384254" d="M28.704 178.144c-2.364 0-4.2-1.68-4.2-4.14 0-2.472 1.836-4.14 4.2-4.14 1.608 0 2.616.828 3.204 1.788l-1.188.624a2.366 2.366 0 0 0-2.016-1.164c-1.584 0-2.76 1.2-2.76 2.892 0 1.668 1.176 2.892 2.76 2.892.852 0 1.632-.504 2.016-1.164l1.2.6c-.612.96-1.608 1.812-3.216 1.812zM40.188 178h-1.596l-.588-1.548h-3.672L33.744 178h-1.596l3.144-8.004h1.752L40.188 178zm-2.58-2.784l-1.44-3.816-1.44 3.816h2.88zM49.368 178h-1.404v-6.18L45.516 178h-.6l-2.46-6.18V178h-1.404v-8.004h1.98l2.184 5.496 2.172-5.496h1.98V178zm3.108 0h-1.404v-8.004H54.6c1.68 0 2.604 1.14 2.604 2.508 0 1.356-.936 2.496-2.604 2.496h-2.124v3zm1.932-4.236c.792 0 1.356-.504 1.356-1.26 0-.768-.564-1.272-1.356-1.272h-1.932v2.532h1.932zM64.692 178h-1.596l-.588-1.548h-3.672L58.248 178h-1.596l3.144-8.004h1.752L64.692 178zm-2.58-2.784l-1.44-3.816-1.44 3.816h2.88zM66.96 178h-1.404v-8.004h1.404V178zm5.556.156c-2.328 0-4.2-1.644-4.2-4.152 0-2.52 1.872-4.14 4.2-4.14 1.56 0 2.58.744 3.216 1.656l-1.14.66a2.583 2.583 0 0 0-2.076-1.068c-1.584 0-2.76 1.2-2.76 2.892 0 1.668 1.176 2.892 2.76 2.892.816 0 1.536-.372 1.896-.72v-1.236h-2.4v-1.236h3.792v2.988a4.325 4.325 0 0 1-3.288 1.464zM84.204 178h-1.356l-4.176-5.724V178h-1.404v-8.004h1.44l4.092 5.544v-5.544h1.404V178zm187.96 0h-1.404v-6.768h-2.424v-1.236h6.252v1.236h-2.424V178zm5.016 0h-1.404v-8.004h1.404V178zm10.02 0h-1.404v-6.18l-2.448 6.18h-.6l-2.46-6.18V178h-1.404v-8.004h1.98l2.184 5.496 2.172-5.496h1.98V178zm3.108 0h-1.404v-8.004h1.404V178zm8.64 0h-1.356l-4.176-5.724V178h-1.404v-8.004h1.44l4.092 5.544v-5.544h1.404V178zm5.556.156c-2.328 0-4.2-1.644-4.2-4.152 0-2.52 1.872-4.14 4.2-4.14 1.56 0 2.58.744 3.216 1.656l-1.14.66a2.583 2.583 0 0 0-2.076-1.068c-1.584 0-2.76 1.2-2.76 2.892 0 1.668 1.176 2.892 2.76 2.892.816 0 1.536-.372 1.896-.72v-1.236H304v-1.236h3.792v2.988a4.325 4.325 0 0 1-3.288 1.464z" opacity=".5"/><path fill="#01B2D0" d="M28.018 210.168c-2.156 0-3.472-1.624-3.472-3.556 0-1.946 1.316-3.542 3.472-3.542 2.156 0 3.472 1.596 3.472 3.542 0 1.932-1.316 3.556-3.472 3.556zm0-1.302c1.26 0 1.946-1.05 1.946-2.254 0-1.19-.686-2.24-1.946-2.24-1.246 0-1.946 1.05-1.946 2.24 0 1.204.7 2.254 1.946 2.254zM40.436 210h-1.54l-1.582-4.956L35.746 210h-1.54l-2.1-6.762h1.526l1.428 4.914 1.61-4.914h1.302l1.596 4.914 1.428-4.914h1.54l-2.1 6.762zm6.258.168c-2.044 0-3.542-1.414-3.542-3.556 0-1.96 1.428-3.542 3.43-3.542 2.03 0 3.318 1.54 3.318 3.668v.364h-5.208c.112 1.008.868 1.862 2.142 1.862.672 0 1.442-.266 1.932-.756l.672.966c-.686.644-1.68.994-2.744.994zm1.792-4.116c-.042-.798-.588-1.778-1.918-1.778-1.246 0-1.834.966-1.89 1.778h3.808zm4.34 3.948h-1.47v-9.338h1.47V210zm4.228.168c-1.162 0-2.198-.378-2.898-1.064l.672-1.05c.476.49 1.414.938 2.282.938.882 0 1.344-.364 1.344-.896 0-1.33-4.088-.378-4.088-2.982 0-1.106.952-2.044 2.66-2.044 1.148 0 2.016.406 2.618.938l-.616 1.036c-.406-.448-1.148-.812-2.002-.812-.77 0-1.246.364-1.246.84 0 1.19 4.088.294 4.088 2.982 0 1.204-.994 2.114-2.814 2.114zm8.26.812c-2.548 0-4.438-1.918-4.438-4.396 0-3.01 2.646-5.516 5.558-5.516 2.674 0 4.41 1.96 4.41 4.354 0 2.268-1.414 3.388-2.618 3.388-.812 0-1.246-.518-1.316-1.078l-.014-.098c-.49.7-1.288 1.176-2.1 1.176-1.344 0-2.17-.966-2.17-2.324 0-1.904 1.582-3.472 3.22-3.472.882 0 1.484.448 1.778 1.008l.154-.798h1.316l-.756 3.584a2.29 2.29 0 0 0-.028.308c0 .448.252.672.574.672.546 0 1.414-.63 1.414-2.38 0-2.24-1.54-3.822-3.906-3.822-2.688 0-4.984 2.352-4.984 4.97 0 2.212 1.666 3.92 3.976 3.92.966 0 1.806-.294 2.562-.784l.28.406a5.388 5.388 0 0 1-2.912.882zm-.042-3.234c.826 0 1.428-.56 1.778-1.064l.364-1.764a1.328 1.328 0 0 0-1.26-.84c-1.246 0-2.156 1.134-2.156 2.31 0 .798.476 1.358 1.274 1.358zm8.498.224c.336.504 1.05.896 1.75.896 1.162 0 1.904-.938 1.904-2.254 0-1.302-.742-2.24-1.904-2.24-.7 0-1.414.406-1.75.91v2.688zm0 2.03H72.3v-9.338h1.47v3.514c.546-.728 1.33-1.106 2.17-1.106 1.75 0 3.01 1.358 3.01 3.542 0 2.24-1.274 3.556-3.01 3.556-.868 0-1.652-.42-2.17-1.092V210zm7.406-7.588a.908.908 0 0 1-.91-.91c0-.504.406-.91.91-.91s.91.406.91.91-.406.91-.91.91zm.728 7.588h-1.47v-6.762h1.47V210zm4.662 2.744c-1.148 0-2.002-.252-2.842-1.008l.686-1.064c.56.63 1.26.868 2.156.868.966 0 2.002-.448 2.002-1.89v-.77c-.518.686-1.288 1.134-2.17 1.134-1.722 0-2.996-1.246-2.996-3.472 0-2.198 1.246-3.472 2.996-3.472.854 0 1.624.378 2.17 1.106v-.938h1.47v6.412c0 2.436-1.82 3.094-3.472 3.094zm.266-4.046c.686 0 1.4-.406 1.736-.896v-2.534c-.336-.49-1.05-.896-1.736-.896-1.176 0-1.918.868-1.918 2.17s.742 2.156 1.918 2.156zm6.58-.728c.336.504 1.05.896 1.75.896 1.162 0 1.904-.938 1.904-2.254 0-1.302-.742-2.24-1.904-2.24-.7 0-1.414.406-1.75.91v2.688zm0 2.03h-1.47v-9.338h1.47v3.514c.546-.728 1.33-1.106 2.17-1.106 1.75 0 3.01 1.358 3.01 3.542 0 2.24-1.274 3.556-3.01 3.556-.868 0-1.652-.42-2.17-1.092V210zm8.134 0h-1.47v-6.762h1.47v.98c.518-.644 1.33-1.148 2.198-1.148v1.456a2.029 2.029 0 0 0-.448-.042c-.63 0-1.456.42-1.75.91V210zm6.454.168c-2.156 0-3.472-1.624-3.472-3.556 0-1.946 1.316-3.542 3.472-3.542 2.156 0 3.472 1.596 3.472 3.542 0 1.932-1.316 3.556-3.472 3.556zm0-1.302c1.26 0 1.946-1.05 1.946-2.254 0-1.19-.686-2.24-1.946-2.24-1.246 0-1.946 1.05-1.946 2.24 0 1.204.7 2.254 1.946 2.254zM122.742 210h-1.47v-4.41c0-.728-.322-1.218-1.12-1.218-.658 0-1.274.448-1.568.896V210h-1.47v-4.41c0-.728-.308-1.218-1.106-1.218-.658 0-1.26.462-1.568.896V210h-1.47v-6.762h1.47v.91c.294-.406 1.176-1.078 2.212-1.078 1.008 0 1.624.504 1.848 1.232.378-.602 1.274-1.232 2.296-1.232 1.232 0 1.946.672 1.946 2.044V210zm7.518 0h-1.47v-.742c-.504.588-1.302.91-2.198.91-1.092 0-2.338-.756-2.338-2.24 0-1.568 1.232-2.212 2.338-2.212.924 0 1.694.294 2.198.868v-1.008c0-.784-.658-1.26-1.582-1.26-.756 0-1.428.28-2.002.868l-.616-1.022c.784-.756 1.764-1.092 2.842-1.092 1.512 0 2.828.63 2.828 2.436V210zm-3.08-.84c.63 0 1.26-.238 1.61-.7v-1.036c-.35-.462-.98-.7-1.61-.7-.826 0-1.456.49-1.456 1.218 0 .742.63 1.218 1.456 1.218zm5.726-6.748a.908.908 0 0 1-.91-.91c0-.504.406-.91.91-.91s.91.406.91.91-.406.91-.91.91zm.728 7.588h-1.47v-6.762h1.47V210zm3.374 0h-1.47v-9.338h1.47V210zm2.674.154c-.532 0-.98-.462-.98-.994 0-.518.448-.966.98-.966s.98.448.98.966c0 .532-.448.994-.98.994zm5.684.014c-2.044 0-3.486-1.512-3.486-3.556s1.442-3.542 3.486-3.542c1.33 0 2.114.56 2.59 1.204l-.966.882c-.378-.532-.896-.784-1.554-.784-1.218 0-2.044.924-2.044 2.24 0 1.316.826 2.254 2.044 2.254.658 0 1.176-.28 1.554-.812l.966.91c-.476.63-1.26 1.204-2.59 1.204zm6.958 0c-2.156 0-3.472-1.624-3.472-3.556 0-1.946 1.316-3.542 3.472-3.542 2.156 0 3.472 1.596 3.472 3.542 0 1.932-1.316 3.556-3.472 3.556zm0-1.302c1.26 0 1.946-1.05 1.946-2.254 0-1.19-.686-2.24-1.946-2.24-1.246 0-1.946 1.05-1.946 2.24 0 1.204.7 2.254 1.946 2.254zM167.066 210h-1.47v-4.41c0-.728-.322-1.218-1.12-1.218-.658 0-1.274.448-1.568.896V210h-1.47v-4.41c0-.728-.308-1.218-1.106-1.218-.658 0-1.26.462-1.568.896V210h-1.47v-6.762h1.47v.91c.294-.406 1.176-1.078 2.212-1.078 1.008 0 1.624.504 1.848 1.232.378-.602 1.274-1.232 2.296-1.232 1.232 0 1.946.672 1.946 2.044V210z"/><path fill="#384254" d="M274.566 212h-1.47v-.742c-.504.588-1.302.91-2.198.91-1.092 0-2.338-.756-2.338-2.24 0-1.568 1.232-2.212 2.338-2.212.924 0 1.694.294 2.198.868v-1.008c0-.784-.658-1.26-1.582-1.26-.756 0-1.428.28-2.002.868l-.616-1.022c.784-.756 1.764-1.092 2.842-1.092 1.512 0 2.828.63 2.828 2.436V212zm-3.08-.84c.63 0 1.26-.238 1.61-.7v-1.036c-.35-.462-.98-.7-1.61-.7-.826 0-1.456.49-1.456 1.218 0 .742.63 1.218 1.456 1.218zm14.826.84h-1.47v-.924c-.518.672-1.288 1.092-2.17 1.092-1.722 0-2.996-1.316-2.996-3.556 0-2.184 1.26-3.542 2.996-3.542.854 0 1.638.378 2.17 1.106v-3.514h1.47V212zm-3.206-1.134c.686 0 1.414-.406 1.736-.91v-2.674c-.322-.504-1.05-.91-1.736-.91-1.176 0-1.918.938-1.918 2.24 0 1.316.742 2.254 1.918 2.254zM293.83 212h-1.47v-.742c-.504.588-1.302.91-2.198.91-1.092 0-2.338-.756-2.338-2.24 0-1.568 1.232-2.212 2.338-2.212.924 0 1.694.294 2.198.868v-1.008c0-.784-.658-1.26-1.582-1.26-.756 0-1.428.28-2.002.868l-.616-1.022c.784-.756 1.764-1.092 2.842-1.092 1.512 0 2.828.63 2.828 2.436V212zm-3.08-.84c.63 0 1.26-.238 1.61-.7v-1.036c-.35-.462-.98-.7-1.61-.7-.826 0-1.456.49-1.456 1.218 0 .742.63 1.218 1.456 1.218zm4.704 3.486l.21-1.316c.154.07.392.112.56.112.476 0 .784-.14.98-.588l.336-.77-2.786-6.846h1.582l1.974 5.068 1.974-5.068h1.568l-3.262 7.98c-.462 1.148-1.26 1.512-2.31 1.526-.21 0-.63-.042-.826-.098zM312.002 212h-1.47v-.742c-.504.588-1.302.91-2.198.91-1.092 0-2.338-.756-2.338-2.24 0-1.568 1.232-2.212 2.338-2.212.924 0 1.694.294 2.198.868v-1.008c0-.784-.658-1.26-1.582-1.26-.756 0-1.428.28-2.002.868l-.616-1.022c.784-.756 1.764-1.092 2.842-1.092 1.512 0 2.828.63 2.828 2.436V212zm-3.08-.84c.63 0 1.26-.238 1.61-.7v-1.036c-.35-.462-.98-.7-1.61-.7-.826 0-1.456.49-1.456 1.218 0 .742.63 1.218 1.456 1.218zm7.742 3.584c-1.148 0-2.002-.252-2.842-1.008l.686-1.064c.56.63 1.26.868 2.156.868.966 0 2.002-.448 2.002-1.89v-.77c-.518.686-1.288 1.134-2.17 1.134-1.722 0-2.996-1.246-2.996-3.472 0-2.198 1.246-3.472 2.996-3.472.854 0 1.624.378 2.17 1.106v-.938h1.47v6.412c0 2.436-1.82 3.094-3.472 3.094zm.266-4.046c.686 0 1.4-.406 1.736-.896v-2.534c-.336-.49-1.05-.896-1.736-.896-1.176 0-1.918.868-1.918 2.17s.742 2.156 1.918 2.156zm8.176 1.47c-2.156 0-3.472-1.624-3.472-3.556 0-1.946 1.316-3.542 3.472-3.542 2.156 0 3.472 1.596 3.472 3.542 0 1.932-1.316 3.556-3.472 3.556zm0-1.302c1.26 0 1.946-1.05 1.946-2.254 0-1.19-.686-2.24-1.946-2.24-1.246 0-1.946 1.05-1.946 2.24 0 1.204.7 2.254 1.946 2.254z"/><path fill="#01B2D0" d="M28.088 246.168c-2.044 0-3.542-1.414-3.542-3.556 0-1.96 1.428-3.542 3.43-3.542 2.03 0 3.318 1.54 3.318 3.668v.364h-5.208c.112 1.008.868 1.862 2.142 1.862.672 0 1.442-.266 1.932-.756l.672.966c-.686.644-1.68.994-2.744.994zm1.792-4.116c-.042-.798-.588-1.778-1.918-1.778-1.246 0-1.834.966-1.89 1.778h3.808zM38.798 246h-1.47v-4.256c0-1.064-.532-1.372-1.358-1.372-.756 0-1.4.448-1.736.896V246h-1.47v-9.338h1.47v3.486c.448-.532 1.316-1.078 2.38-1.078 1.456 0 2.184.756 2.184 2.142V246zm5.04.168c-2.044 0-3.542-1.414-3.542-3.556 0-1.96 1.428-3.542 3.43-3.542 2.03 0 3.318 1.54 3.318 3.668v.364h-5.208c.112 1.008.868 1.862 2.142 1.862.672 0 1.442-.266 1.932-.756l.672.966c-.686.644-1.68.994-2.744.994zm1.792-4.116c-.042-.798-.588-1.778-1.918-1.778-1.246 0-1.834.966-1.89 1.778h3.808zM58.272 246h-1.47v-4.41c0-.728-.322-1.218-1.12-1.218-.658 0-1.274.448-1.568.896V246h-1.47v-4.41c0-.728-.308-1.218-1.106-1.218-.658 0-1.26.462-1.568.896V246H48.5v-6.762h1.47v.91c.294-.406 1.176-1.078 2.212-1.078 1.008 0 1.624.504 1.848 1.232.378-.602 1.274-1.232 2.296-1.232 1.232 0 1.946.672 1.946 2.044V246zm2.646-7.588a.908.908 0 0 1-.91-.91c0-.504.406-.91.91-.91s.91.406.91.91-.406.91-.91.91zm.728 7.588h-1.47v-6.762h1.47V246zm7.952 0h-1.47v-4.228c0-1.064-.546-1.4-1.372-1.4-.742 0-1.386.448-1.736.896V246h-1.47v-6.762h1.47v.91c.448-.532 1.33-1.078 2.394-1.078 1.456 0 2.184.784 2.184 2.17V246zm4.662 2.744c-1.148 0-2.002-.252-2.842-1.008l.686-1.064c.56.63 1.26.868 2.156.868.966 0 2.002-.448 2.002-1.89v-.77c-.518.686-1.288 1.134-2.17 1.134-1.722 0-2.996-1.246-2.996-3.472 0-2.198 1.246-3.472 2.996-3.472.854 0 1.624.378 2.17 1.106v-.938h1.47v6.412c0 2.436-1.82 3.094-3.472 3.094zm.266-4.046c.686 0 1.4-.406 1.736-.896v-2.534c-.336-.49-1.05-.896-1.736-.896-1.176 0-1.918.868-1.918 2.17s.742 2.156 1.918 2.156zM85.684 246h-1.47v-4.256c0-1.064-.532-1.372-1.358-1.372-.756 0-1.4.448-1.736.896V246h-1.47v-9.338h1.47v3.486c.448-.532 1.316-1.078 2.38-1.078 1.456 0 2.184.756 2.184 2.142V246zm7.518 0h-1.47v-.742c-.504.588-1.302.91-2.198.91-1.092 0-2.338-.756-2.338-2.24 0-1.568 1.232-2.212 2.338-2.212.924 0 1.694.294 2.198.868v-1.008c0-.784-.658-1.26-1.582-1.26-.756 0-1.428.28-2.002.868l-.616-1.022c.784-.756 1.764-1.092 2.842-1.092 1.512 0 2.828.63 2.828 2.436V246zm-3.08-.84c.63 0 1.26-.238 1.61-.7v-1.036c-.35-.462-.98-.7-1.61-.7-.826 0-1.456.49-1.456 1.218 0 .742.63 1.218 1.456 1.218zm14.756.84h-1.47v-4.41c0-.728-.322-1.218-1.12-1.218-.658 0-1.274.448-1.568.896V246h-1.47v-4.41c0-.728-.308-1.218-1.106-1.218-.658 0-1.26.462-1.568.896V246h-1.47v-6.762h1.47v.91c.294-.406 1.176-1.078 2.212-1.078 1.008 0 1.624.504 1.848 1.232.378-.602 1.274-1.232 2.296-1.232 1.232 0 1.946.672 1.946 2.044V246zm5.88.98c-2.548 0-4.438-1.918-4.438-4.396 0-3.01 2.646-5.516 5.558-5.516 2.674 0 4.41 1.96 4.41 4.354 0 2.268-1.414 3.388-2.618 3.388-.812 0-1.246-.518-1.316-1.078l-.014-.098c-.49.7-1.288 1.176-2.1 1.176-1.344 0-2.17-.966-2.17-2.324 0-1.904 1.582-3.472 3.22-3.472.882 0 1.484.448 1.778 1.008l.154-.798h1.316l-.756 3.584a2.29 2.29 0 0 0-.028.308c0 .448.252.672.574.672.546 0 1.414-.63 1.414-2.38 0-2.24-1.54-3.822-3.906-3.822-2.688 0-4.984 2.352-4.984 4.97 0 2.212 1.666 3.92 3.976 3.92.966 0 1.806-.294 2.562-.784l.28.406a5.388 5.388 0 0 1-2.912.882zm-.042-3.234c.826 0 1.428-.56 1.778-1.064l.364-1.764a1.328 1.328 0 0 0-1.26-.84c-1.246 0-2.156 1.134-2.156 2.31 0 .798.476 1.358 1.274 1.358zm16.8 2.254h-1.47v-4.41c0-.728-.322-1.218-1.12-1.218-.658 0-1.274.448-1.568.896V246h-1.47v-4.41c0-.728-.308-1.218-1.106-1.218-.658 0-1.26.462-1.568.896V246h-1.47v-6.762h1.47v.91c.294-.406 1.176-1.078 2.212-1.078 1.008 0 1.624.504 1.848 1.232.378-.602 1.274-1.232 2.296-1.232 1.232 0 1.946.672 1.946 2.044V246zm7.518 0h-1.47v-.742c-.504.588-1.302.91-2.198.91-1.092 0-2.338-.756-2.338-2.24 0-1.568 1.232-2.212 2.338-2.212.924 0 1.694.294 2.198.868v-1.008c0-.784-.658-1.26-1.582-1.26-.756 0-1.428.28-2.002.868l-.616-1.022c.784-.756 1.764-1.092 2.842-1.092 1.512 0 2.828.63 2.828 2.436V246zm-3.08-.84c.63 0 1.26-.238 1.61-.7v-1.036c-.35-.462-.98-.7-1.61-.7-.826 0-1.456.49-1.456 1.218 0 .742.63 1.218 1.456 1.218zm6.454.84h-1.47v-6.762h1.47v.98c.518-.644 1.33-1.148 2.198-1.148v1.456a2.029 2.029 0 0 0-.448-.042c-.63 0-1.456.42-1.75.91V246zm4.858 0h-1.47v-9.338h1.47V246zm2.646-7.588a.908.908 0 0 1-.91-.91c0-.504.406-.91.91-.91s.91.406.91.91-.406.91-.91.91zm.728 7.588h-1.47v-6.762h1.47V246zm7.952 0h-1.47v-4.228c0-1.064-.546-1.4-1.372-1.4-.742 0-1.386.448-1.736.896V246h-1.47v-6.762h1.47v.91c.448-.532 1.33-1.078 2.394-1.078 1.456 0 2.184.784 2.184 2.17V246zm11.676 0h-1.47v-4.41c0-.728-.322-1.218-1.12-1.218-.658 0-1.274.448-1.568.896V246h-1.47v-4.41c0-.728-.308-1.218-1.106-1.218-.658 0-1.26.462-1.568.896V246h-1.47v-6.762h1.47v.91c.294-.406 1.176-1.078 2.212-1.078 1.008 0 1.624.504 1.848 1.232.378-.602 1.274-1.232 2.296-1.232 1.232 0 1.946.672 1.946 2.044V246zm7.518 0h-1.47v-.742c-.504.588-1.302.91-2.198.91-1.092 0-2.338-.756-2.338-2.24 0-1.568 1.232-2.212 2.338-2.212.924 0 1.694.294 2.198.868v-1.008c0-.784-.658-1.26-1.582-1.26-.756 0-1.428.28-2.002.868l-.616-1.022c.784-.756 1.764-1.092 2.842-1.092 1.512 0 2.828.63 2.828 2.436V246zm-3.08-.84c.63 0 1.26-.238 1.61-.7v-1.036c-.35-.462-.98-.7-1.61-.7-.826 0-1.456.49-1.456 1.218 0 .742.63 1.218 1.456 1.218zm5.726-6.748a.908.908 0 0 1-.91-.91c0-.504.406-.91.91-.91s.91.406.91.91-.406.91-.91.91zm.728 7.588h-1.47v-6.762h1.47V246zm3.374 0h-1.47v-9.338h1.47V246zm2.674.154c-.532 0-.98-.462-.98-.994 0-.518.448-.966.98-.966s.98.448.98.966c0 .532-.448.994-.98.994zm5.684.014c-2.044 0-3.486-1.512-3.486-3.556s1.442-3.542 3.486-3.542c1.33 0 2.114.56 2.59 1.204l-.966.882c-.378-.532-.896-.784-1.554-.784-1.218 0-2.044.924-2.044 2.24 0 1.316.826 2.254 2.044 2.254.658 0 1.176-.28 1.554-.812l.966.91c-.476.63-1.26 1.204-2.59 1.204zm6.958 0c-2.156 0-3.472-1.624-3.472-3.556 0-1.946 1.316-3.542 3.472-3.542 2.156 0 3.472 1.596 3.472 3.542 0 1.932-1.316 3.556-3.472 3.556zm0-1.302c1.26 0 1.946-1.05 1.946-2.254 0-1.19-.686-2.24-1.946-2.24-1.246 0-1.946 1.05-1.946 2.24 0 1.204.7 2.254 1.946 2.254zM210.592 246h-1.47v-4.41c0-.728-.322-1.218-1.12-1.218-.658 0-1.274.448-1.568.896V246h-1.47v-4.41c0-.728-.308-1.218-1.106-1.218-.658 0-1.26.462-1.568.896V246h-1.47v-6.762h1.47v.91c.294-.406 1.176-1.078 2.212-1.078 1.008 0 1.624.504 1.848 1.232.378-.602 1.274-1.232 2.296-1.232 1.232 0 1.946.672 1.946 2.044V246z"/><path fill="#384254" d="M272.256 246.168c-1.596 0-2.702-.56-3.458-1.442l.938-1.134c.616.728 1.47 1.12 2.506 1.12 1.19 0 1.918-.728 1.918-1.652 0-.994-.728-1.652-1.876-1.652-.784 0-1.442.238-2.044.798l-1.162-.336v-5.208h6.118v1.442h-4.48v2.688c.462-.434 1.218-.798 2.114-.798 1.582 0 2.996 1.092 2.996 3.01 0 1.932-1.484 3.164-3.57 3.164zm14.938-.168h-1.47v-.924c-.518.672-1.288 1.092-2.17 1.092-1.722 0-2.996-1.316-2.996-3.556 0-2.184 1.26-3.542 2.996-3.542.854 0 1.638.378 2.17 1.106v-3.514h1.47V246zm-3.206-1.134c.686 0 1.414-.406 1.736-.91v-2.674c-.322-.504-1.05-.91-1.736-.91-1.176 0-1.918.938-1.918 2.24 0 1.316.742 2.254 1.918 2.254zM294.712 246h-1.47v-.742c-.504.588-1.302.91-2.198.91-1.092 0-2.338-.756-2.338-2.24 0-1.568 1.232-2.212 2.338-2.212.924 0 1.694.294 2.198.868v-1.008c0-.784-.658-1.26-1.582-1.26-.756 0-1.428.28-2.002.868l-.616-1.022c.784-.756 1.764-1.092 2.842-1.092 1.512 0 2.828.63 2.828 2.436V246zm-3.08-.84c.63 0 1.26-.238 1.61-.7v-1.036c-.35-.462-.98-.7-1.61-.7-.826 0-1.456.49-1.456 1.218 0 .742.63 1.218 1.456 1.218zm4.704 3.486l.21-1.316c.154.07.392.112.56.112.476 0 .784-.14.98-.588l.336-.77-2.786-6.846h1.582l1.974 5.068 1.974-5.068h1.568l-3.262 7.98c-.462 1.148-1.26 1.512-2.31 1.526-.21 0-.63-.042-.826-.098zm9.646-2.478c-1.162 0-2.198-.378-2.898-1.064l.672-1.05c.476.49 1.414.938 2.282.938.882 0 1.344-.364 1.344-.896 0-1.33-4.088-.378-4.088-2.982 0-1.106.952-2.044 2.66-2.044 1.148 0 2.016.406 2.618.938l-.616 1.036c-.406-.448-1.148-.812-2.002-.812-.77 0-1.246.364-1.246.84 0 1.19 4.088.294 4.088 2.982 0 1.204-.994 2.114-2.814 2.114zm13.51-.168h-1.47v-.742c-.504.588-1.302.91-2.198.91-1.092 0-2.338-.756-2.338-2.24 0-1.568 1.232-2.212 2.338-2.212.924 0 1.694.294 2.198.868v-1.008c0-.784-.658-1.26-1.582-1.26-.756 0-1.428.28-2.002.868l-.616-1.022c.784-.756 1.764-1.092 2.842-1.092 1.512 0 2.828.63 2.828 2.436V246zm-3.08-.84c.63 0 1.26-.238 1.61-.7v-1.036c-.35-.462-.98-.7-1.61-.7-.826 0-1.456.49-1.456 1.218 0 .742.63 1.218 1.456 1.218zm7.742 3.584c-1.148 0-2.002-.252-2.842-1.008l.686-1.064c.56.63 1.26.868 2.156.868.966 0 2.002-.448 2.002-1.89v-.77c-.518.686-1.288 1.134-2.17 1.134-1.722 0-2.996-1.246-2.996-3.472 0-2.198 1.246-3.472 2.996-3.472.854 0 1.624.378 2.17 1.106v-.938h1.47v6.412c0 2.436-1.82 3.094-3.472 3.094zm.266-4.046c.686 0 1.4-.406 1.736-.896v-2.534c-.336-.49-1.05-.896-1.736-.896-1.176 0-1.918.868-1.918 2.17s.742 2.156 1.918 2.156zm8.176 1.47c-2.156 0-3.472-1.624-3.472-3.556 0-1.946 1.316-3.542 3.472-3.542 2.156 0 3.472 1.596 3.472 3.542 0 1.932-1.316 3.556-3.472 3.556zm0-1.302c1.26 0 1.946-1.05 1.946-2.254 0-1.19-.686-2.24-1.946-2.24-1.246 0-1.946 1.05-1.946 2.24 0 1.204.7 2.254 1.946 2.254z"/></g><path fill="#384254" fill-rule="nonzero" d="M38.784 46h-2.926l-1.078-2.838h-6.732L26.97 46h-2.926l5.764-14.674h3.212L38.784 46zm-4.73-5.104l-2.64-6.996-2.64 6.996h5.28zm11.088 5.368c-3.212 0-5.478-2.376-5.478-5.588s2.266-5.566 5.478-5.566c2.09 0 3.322.88 4.07 1.892l-1.518 1.386c-.594-.836-1.408-1.232-2.442-1.232-1.914 0-3.212 1.452-3.212 3.52s1.298 3.542 3.212 3.542c1.034 0 1.848-.44 2.442-1.276l1.518 1.43c-.748.99-1.98 1.892-4.07 1.892zm10.956 0c-3.212 0-5.478-2.376-5.478-5.588s2.266-5.566 5.478-5.566c2.09 0 3.322.88 4.07 1.892l-1.518 1.386c-.594-.836-1.408-1.232-2.442-1.232-1.914 0-3.212 1.452-3.212 3.52s1.298 3.542 3.212 3.542c1.034 0 1.848-.44 2.442-1.276l1.518 1.43c-.748.99-1.98 1.892-4.07 1.892zm10.934 0c-3.388 0-5.456-2.552-5.456-5.588 0-3.058 2.068-5.566 5.456-5.566 3.388 0 5.456 2.508 5.456 5.566 0 3.036-2.068 5.588-5.456 5.588zm0-2.046c1.98 0 3.058-1.65 3.058-3.542 0-1.87-1.078-3.52-3.058-3.52-1.958 0-3.058 1.65-3.058 3.52 0 1.892 1.1 3.542 3.058 3.542zM84.324 46h-2.31v-1.408c-.748.836-2.068 1.672-3.74 1.672-2.288 0-3.432-1.21-3.432-3.366v-7.524h2.31v6.666c0 1.65.836 2.178 2.156 2.178 1.166 0 2.178-.682 2.706-1.386v-7.458h2.31V46zm12.496 0h-2.31v-6.644c0-1.672-.858-2.2-2.156-2.2-1.166 0-2.178.704-2.728 1.408V46h-2.31V35.374h2.31v1.43c.704-.836 2.09-1.694 3.762-1.694 2.288 0 3.432 1.232 3.432 3.41V46zm6.204.264c-1.804 0-2.728-.968-2.728-2.75v-6.138h-1.76v-2.002h1.76V32.47h2.31v2.904h2.156v2.002h-2.156v5.566c0 .726.352 1.276 1.012 1.276.44 0 .836-.198 1.012-.396l.55 1.76c-.418.374-1.1.682-2.156.682zm14.322 0c-3.212 0-5.478-2.376-5.478-5.588s2.266-5.566 5.478-5.566c2.09 0 3.322.88 4.07 1.892l-1.518 1.386c-.594-.836-1.408-1.232-2.442-1.232-1.914 0-3.212 1.452-3.212 3.52s1.298 3.542 3.212 3.542c1.034 0 1.848-.44 2.442-1.276l1.518 1.43c-.748.99-1.98 1.892-4.07 1.892zm8.426-.264h-2.31V35.374h2.31v1.54c.814-1.012 2.09-1.804 3.454-1.804v2.288a3.188 3.188 0 0 0-.704-.066c-.99 0-2.288.66-2.75 1.43V46zm10.252.264c-3.212 0-5.566-2.222-5.566-5.588 0-3.08 2.244-5.566 5.39-5.566 3.19 0 5.214 2.42 5.214 5.764v.572h-8.184c.176 1.584 1.364 2.926 3.366 2.926 1.056 0 2.266-.418 3.036-1.188l1.056 1.518c-1.078 1.012-2.64 1.562-4.312 1.562zm2.816-6.468c-.066-1.254-.924-2.794-3.014-2.794-1.958 0-2.882 1.518-2.97 2.794h5.984zM152.172 46h-2.31v-1.166c-.792.924-2.046 1.43-3.454 1.43-1.716 0-3.674-1.188-3.674-3.52 0-2.464 1.936-3.476 3.674-3.476 1.452 0 2.662.462 3.454 1.364v-1.584c0-1.232-1.034-1.98-2.486-1.98-1.188 0-2.244.44-3.146 1.364l-.968-1.606c1.232-1.188 2.772-1.716 4.466-1.716 2.376 0 4.444.99 4.444 3.828V46zm-4.84-1.32c.99 0 1.98-.374 2.53-1.1v-1.628c-.55-.726-1.54-1.1-2.53-1.1-1.298 0-2.288.77-2.288 1.914 0 1.166.99 1.914 2.288 1.914zm11.044 1.584c-1.804 0-2.728-.968-2.728-2.75v-6.138h-1.76v-2.002h1.76V32.47h2.31v2.904h2.156v2.002h-2.156v5.566c0 .726.352 1.276 1.012 1.276.44 0 .836-.198 1.012-.396l.55 1.76c-.418.374-1.1.682-2.156.682zm8.734 0c-3.212 0-5.566-2.222-5.566-5.588 0-3.08 2.244-5.566 5.39-5.566 3.19 0 5.214 2.42 5.214 5.764v.572h-8.184c.176 1.584 1.364 2.926 3.366 2.926 1.056 0 2.266-.418 3.036-1.188l1.056 1.518c-1.078 1.012-2.64 1.562-4.312 1.562zm2.816-6.468c-.066-1.254-.924-2.794-3.014-2.794-1.958 0-2.882 1.518-2.97 2.794h5.984zm14.3 6.204h-2.31v-1.452c-.814 1.056-2.024 1.716-3.41 1.716-2.706 0-4.708-2.068-4.708-5.588 0-3.432 1.98-5.566 4.708-5.566 1.342 0 2.574.594 3.41 1.738v-5.522h2.31V46zm-5.038-1.782c1.078 0 2.222-.638 2.728-1.43v-4.202c-.506-.792-1.65-1.43-2.728-1.43-1.848 0-3.014 1.474-3.014 3.52 0 2.068 1.166 3.542 3.014 3.542zM52.44 72h-5.502v-9.338H48.1v8.302h4.34V72zm6.594 0h-1.05v-.77c-.546.616-1.33.938-2.24.938-1.134 0-2.352-.77-2.352-2.24 0-1.526 1.204-2.226 2.352-2.226.924 0 1.694.294 2.24.91v-1.218c0-.896-.728-1.414-1.708-1.414-.812 0-1.47.28-2.072.938l-.49-.728c.728-.756 1.596-1.12 2.702-1.12 1.442 0 2.618.644 2.618 2.282V72zm-2.898-.588c.728 0 1.442-.28 1.848-.84v-1.288c-.406-.546-1.12-.826-1.848-.826-.994 0-1.68.616-1.68 1.47 0 .868.686 1.484 1.68 1.484zm7.168.756c-1.12 0-2.044-.35-2.73-1.064l.532-.756c.448.518 1.302.966 2.226.966 1.036 0 1.61-.49 1.61-1.162 0-1.638-4.186-.63-4.186-3.136 0-1.064.896-1.946 2.506-1.946 1.162 0 1.974.434 2.506.98l-.49.728c-.406-.49-1.134-.854-2.016-.854-.924 0-1.498.462-1.498 1.064 0 1.47 4.186.504 4.186 3.136 0 1.134-.91 2.044-2.646 2.044zm6.076 0c-1.008 0-1.512-.574-1.512-1.582v-4.424h-1.12v-.924h1.12V63.39h1.064v1.848h1.372v.924h-1.372v4.2c0 .504.224.868.672.868.308 0 .574-.14.714-.294l.308.798c-.266.252-.644.434-1.246.434zm7.742 0c-1.008 0-1.512-.574-1.512-1.582v-4.424h-1.12v-.924h1.12V63.39h1.064v1.848h1.372v.924h-1.372v4.2c0 .504.224.868.672.868.308 0 .574-.14.714-.294l.308.798c-.266.252-.644.434-1.246.434zM80.566 72h-1.05v-6.762h1.05v1.078c.546-.7 1.33-1.232 2.254-1.232v1.078a3.468 3.468 0 0 0-.406-.028c-.658 0-1.54.532-1.848 1.078V72zm4.102-7.728a.705.705 0 0 1-.714-.7c0-.392.322-.714.714-.714.392 0 .7.322.7.714 0 .392-.308.7-.7.7zM85.186 72h-1.05v-6.762h1.05V72zm4.816 2.744c-1.134 0-1.918-.224-2.73-1.022l.532-.756c.56.658 1.232.91 2.198.91 1.12 0 2.184-.546 2.184-1.974V70.88c-.504.686-1.33 1.204-2.282 1.204-1.764 0-3.01-1.316-3.01-3.5 0-2.17 1.232-3.514 3.01-3.514.91 0 1.736.448 2.282 1.19v-1.022h1.05v6.664c0 2.142-1.582 2.842-3.234 2.842zm.168-3.598c.826 0 1.638-.504 2.016-1.092v-2.968c-.378-.574-1.19-1.078-2.016-1.078-1.372 0-2.184 1.078-2.184 2.576 0 1.484.812 2.562 2.184 2.562zm7.882 3.598c-1.134 0-1.918-.224-2.73-1.022l.532-.756c.56.658 1.232.91 2.198.91 1.12 0 2.184-.546 2.184-1.974V70.88c-.504.686-1.33 1.204-2.282 1.204-1.764 0-3.01-1.316-3.01-3.5 0-2.17 1.232-3.514 3.01-3.514.91 0 1.736.448 2.282 1.19v-1.022h1.05v6.664c0 2.142-1.582 2.842-3.234 2.842zm.168-3.598c.826 0 1.638-.504 2.016-1.092v-2.968c-.378-.574-1.19-1.078-2.016-1.078-1.372 0-2.184 1.078-2.184 2.576 0 1.484.812 2.562 2.184 2.562zm8.232 1.022c-2.016 0-3.458-1.442-3.458-3.556 0-1.96 1.4-3.542 3.332-3.542 2.044 0 3.248 1.596 3.248 3.626v.266h-5.46c.084 1.274.966 2.338 2.422 2.338.784 0 1.554-.308 2.1-.868l.504.686c-.686.672-1.596 1.05-2.688 1.05zm2.086-3.99c-.014-.994-.686-2.24-2.226-2.24-1.442 0-2.156 1.218-2.212 2.24h4.438zm8.68 3.822h-1.05v-1.008c-.504.686-1.33 1.176-2.282 1.176-1.764 0-3.01-1.344-3.01-3.542 0-2.17 1.246-3.556 3.01-3.556.91 0 1.736.448 2.282 1.19v-3.598h1.05V72zm-3.066-.77c.826 0 1.652-.49 2.016-1.078V67.1c-.364-.588-1.19-1.092-2.016-1.092-1.372 0-2.184 1.12-2.184 2.618 0 1.498.812 2.604 2.184 2.604zm14.07.77h-1.05v-.77c-.546.616-1.33.938-2.24.938-1.134 0-2.352-.77-2.352-2.24 0-1.526 1.204-2.226 2.352-2.226.924 0 1.694.294 2.24.91v-1.218c0-.896-.728-1.414-1.708-1.414-.812 0-1.47.28-2.072.938l-.49-.728c.728-.756 1.596-1.12 2.702-1.12 1.442 0 2.618.644 2.618 2.282V72zm-2.898-.588c.728 0 1.442-.28 1.848-.84v-1.288c-.406-.546-1.12-.826-1.848-.826-.994 0-1.68.616-1.68 1.47 0 .868.686 1.484 1.68 1.484zm14.588.588h-1.05v-1.008c-.504.686-1.33 1.176-2.282 1.176-1.764 0-3.01-1.344-3.01-3.542 0-2.17 1.246-3.556 3.01-3.556.91 0 1.736.448 2.282 1.19v-3.598h1.05V72zm-3.066-.77c.826 0 1.652-.49 2.016-1.078V67.1c-.364-.588-1.19-1.092-2.016-1.092-1.372 0-2.184 1.12-2.184 2.618 0 1.498.812 2.604 2.184 2.604zm10.444.77h-1.05v-.77c-.546.616-1.33.938-2.24.938-1.134 0-2.352-.77-2.352-2.24 0-1.526 1.204-2.226 2.352-2.226.924 0 1.694.294 2.24.91v-1.218c0-.896-.728-1.414-1.708-1.414-.812 0-1.47.28-2.072.938l-.49-.728c.728-.756 1.596-1.12 2.702-1.12 1.442 0 2.618.644 2.618 2.282V72zm-2.898-.588c.728 0 1.442-.28 1.848-.84v-1.288c-.406-.546-1.12-.826-1.848-.826-.994 0-1.68.616-1.68 1.47 0 .868.686 1.484 1.68 1.484zm4.648 3.234l.154-.952c.154.07.406.112.574.112.462 0 .77-.154 1.008-.714l.448-1.022-2.828-6.832h1.148l2.24 5.544 2.254-5.544h1.134l-3.388 8.134c-.406.98-1.092 1.358-1.988 1.372-.224 0-.574-.042-.756-.098zM165.168 72h-1.05v-.77c-.546.616-1.33.938-2.24.938-1.134 0-2.352-.77-2.352-2.24 0-1.526 1.204-2.226 2.352-2.226.924 0 1.694.294 2.24.91v-1.218c0-.896-.728-1.414-1.708-1.414-.812 0-1.47.28-2.072.938l-.49-.728c.728-.756 1.596-1.12 2.702-1.12 1.442 0 2.618.644 2.618 2.282V72zm-2.898-.588c.728 0 1.442-.28 1.848-.84v-1.288c-.406-.546-1.12-.826-1.848-.826-.994 0-1.68.616-1.68 1.47 0 .868.686 1.484 1.68 1.484zm7.728 3.332c-1.134 0-1.918-.224-2.73-1.022l.532-.756c.56.658 1.232.91 2.198.91 1.12 0 2.184-.546 2.184-1.974V70.88c-.504.686-1.33 1.204-2.282 1.204-1.764 0-3.01-1.316-3.01-3.5 0-2.17 1.232-3.514 3.01-3.514.91 0 1.736.448 2.282 1.19v-1.022h1.05v6.664c0 2.142-1.582 2.842-3.234 2.842zm.168-3.598c.826 0 1.638-.504 2.016-1.092v-2.968c-.378-.574-1.19-1.078-2.016-1.078-1.372 0-2.184 1.078-2.184 2.576 0 1.484.812 2.562 2.184 2.562zm8.12 1.022c-2.058 0-3.346-1.596-3.346-3.556s1.288-3.542 3.346-3.542 3.346 1.582 3.346 3.542c0 1.96-1.288 3.556-3.346 3.556zm0-.938c1.442 0 2.24-1.232 2.24-2.618 0-1.372-.798-2.604-2.24-2.604-1.442 0-2.24 1.232-2.24 2.604 0 1.386.798 2.618 2.24 2.618z"/><circle cx="28" cy="68" r="4" fill="#6FD350"/></g><g transform="rotate(39 33.393 780.847)"><rect width="18.48" height="18.333" x=".696" y="3.491" fill="#01B2D0" opacity=".1" rx="3"/><rect width="16.48" height="16.333" x="4.203" y="1.331" stroke="#01B2D0" stroke-width="2" rx="3"/></g><path fill="#6FD350" d="M537.246 36.157l-23.73 1.872a4 4 0 0 1-4.024-5.486l7.96-19.702a4 4 0 0 1 6.705-1.152l15.77 17.83a4 4 0 0 1-2.681 6.638z" opacity=".2"/><path stroke="#6FD350" stroke-width="2" d="M540.484 44.459a3 3 0 0 0 2.012-4.979l-15.77-17.83a3 3 0 0 0-5.03.863l-7.96 19.702a3 3 0 0 0 3.018 4.115l23.73-1.871z"/><path fill="#6FD350" d="M34.108 385.432l16.766 4.93a4 4 0 0 1 1.797 6.565L41.992 408.38a4 4 0 0 1-6.675-1.335l-6.087-16.381a4 4 0 0 1 4.878-5.231z" opacity=".2"/><path stroke="#6FD350" stroke-width="2" d="M34.041 378.146a3 3 0 0 0-3.658 3.923l6.087 16.381a3 3 0 0 0 5.006 1.001L52.156 388a3 3 0 0 0-1.349-4.924l-16.766-4.93z"/><g transform="rotate(-35 480.5 20.742)"><ellipse cx="18.234" cy="13.678" stroke="#FFC111" stroke-width="2" rx="12.091" ry="12.078"/><ellipse cx="13.819" cy="17.585" fill="#FFC111" opacity=".2" rx="13.091" ry="13.078"/></g></g></svg>