<svg xmlns="http://www.w3.org/2000/svg" xmlns:xlink="http://www.w3.org/1999/xlink" width="493" height="584" viewBox="0 0 493 584"><defs><rect id="a" width="325" height="346" rx="10"/><filter id="b" width="116.3%" height="115.3%" x="-8.2%" y="-6.5%" filterUnits="objectBoundingBox"><feMorphology in="SourceAlpha" operator="dilate" radius=".5" result="shadowSpreadOuter1"/><feOffset dy="4" in="shadowSpreadOuter1" result="shadowOffsetOuter1"/><feGaussianBlur in="shadowOffsetOuter1" result="shadowBlurOuter1" stdDeviation="8"/><feComposite in="shadowBlurOuter1" in2="SourceAlpha" operator="out" result="shadowBlurOuter1"/><feColorMatrix in="shadowBlurOuter1" values="0 0 0 0 0 0 0 0 0 0 0 0 0 0 0 0 0 0 0.12 0"/></filter><path id="e" d="M37.657 5.657l20.686 20.686a8 8 0 0 1 0 11.314L37.657 58.343a8 8 0 0 1-11.314 0L5.657 37.657a8 8 0 0 1 0-11.314L26.343 5.657a8 8 0 0 1 11.314 0z"/><filter id="d" width="156.8%" height="156.8%" x="-28.4%" y="-23.7%" filterUnits="objectBoundingBox"><feMorphology in="SourceAlpha" operator="dilate" radius=".5" result="shadowSpreadOuter1"/><feOffset dy="3" in="shadowSpreadOuter1" result="shadowOffsetOuter1"/><feGaussianBlur in="shadowOffsetOuter1" result="shadowBlurOuter1" stdDeviation="6.5"/><feComposite in="shadowBlurOuter1" in2="SourceAlpha" operator="out" result="shadowBlurOuter1"/><feColorMatrix in="shadowBlurOuter1" values="0 0 0 0 0 0 0 0 0 0 0 0 0 0 0 0 0 0 0.12 0"/></filter><linearGradient id="f" x1=".08%" x2="74.482%" y1="0%" y2="64.11%"><stop offset="0%" stop-color="#5A9FD4"/><stop offset="100%" stop-color="#306998"/></linearGradient><linearGradient id="g" x1="50%" x2="23.78%" y1="82.276%" y2="44.914%"><stop offset="0%" stop-color="#FFD43B"/><stop offset="100%" stop-color="#FFE873"/></linearGradient><path id="i" d="M28.243 4.243l15.514 15.514a6 6 0 0 1 0 8.486L28.243 43.757a6 6 0 0 1-8.486 0L4.243 28.243a6 6 0 0 1 0-8.486L19.757 4.243a6 6 0 0 1 8.486 0z"/><filter id="h" width="158.4%" height="158.4%" x="-29.2%" y="-25%" filterUnits="objectBoundingBox"><feMorphology in="SourceAlpha" operator="dilate" radius=".5" result="shadowSpreadOuter1"/><feOffset dy="2" in="shadowSpreadOuter1" result="shadowOffsetOuter1"/><feGaussianBlur in="shadowOffsetOuter1" result="shadowBlurOuter1" stdDeviation="5"/><feComposite in="shadowBlurOuter1" in2="SourceAlpha" operator="out" result="shadowBlurOuter1"/><feColorMatrix in="shadowBlurOuter1" values="0 0 0 0 0 0 0 0 0 0 0 0 0 0 0 0 0 0 0.12 0"/></filter><path id="k" d="M26.46 3.96l14.58 14.58a5.6 5.6 0 0 1 0 7.92L26.46 41.04a5.6 5.6 0 0 1-7.92 0L3.96 26.46a5.6 5.6 0 0 1 0-7.92L18.54 3.96a5.6 5.6 0 0 1 7.92 0z"/><filter id="j" width="156.4%" height="156.4%" x="-28.2%" y="-23.7%" filterUnits="objectBoundingBox"><feMorphology in="SourceAlpha" operator="dilate" radius=".5" result="shadowSpreadOuter1"/><feOffset dy="2" in="shadowSpreadOuter1" result="shadowOffsetOuter1"/><feGaussianBlur in="shadowOffsetOuter1" result="shadowBlurOuter1" stdDeviation="4.5"/><feComposite in="shadowBlurOuter1" in2="SourceAlpha" operator="out" result="shadowBlurOuter1"/><feColorMatrix in="shadowBlurOuter1" values="0 0 0 0 0 0 0 0 0 0 0 0 0 0 0 0 0 0 0.12 0"/></filter><path id="m" d="M37.657 5.657l20.686 20.686a8 8 0 0 1 0 11.314L37.657 58.343a8 8 0 0 1-11.314 0L5.657 37.657a8 8 0 0 1 0-11.314L26.343 5.657a8 8 0 0 1 11.314 0z"/><filter id="l" width="156.8%" height="156.8%" x="-28.4%" y="-23.7%" filterUnits="objectBoundingBox"><feMorphology in="SourceAlpha" operator="dilate" radius=".5" result="shadowSpreadOuter1"/><feOffset dy="3" in="shadowSpreadOuter1" result="shadowOffsetOuter1"/><feGaussianBlur in="shadowOffsetOuter1" result="shadowBlurOuter1" stdDeviation="6.5"/><feComposite in="shadowBlurOuter1" in2="SourceAlpha" operator="out" result="shadowBlurOuter1"/><feColorMatrix in="shadowBlurOuter1" values="0 0 0 0 0 0 0 0 0 0 0 0 0 0 0 0 0 0 0.12 0"/></filter><path id="o" d="M47.071 7.071L72.93 32.93c3.905 3.905 3.905 10.237 0 14.142L47.07 72.93c-3.905 3.905-10.237 3.905-14.142 0L7.07 47.07c-3.905-3.905-3.905-10.237 0-14.142L32.93 7.07c3.905-3.905 10.237-3.905 14.142 0z"/><filter id="n" width="155.9%" height="155.9%" x="-27.9%" y="-22.9%" filterUnits="objectBoundingBox"><feMorphology in="SourceAlpha" operator="dilate" radius=".5" result="shadowSpreadOuter1"/><feOffset dy="4" in="shadowSpreadOuter1" result="shadowOffsetOuter1"/><feGaussianBlur in="shadowOffsetOuter1" result="shadowBlurOuter1" stdDeviation="8"/><feComposite in="shadowBlurOuter1" in2="SourceAlpha" operator="out" result="shadowBlurOuter1"/><feColorMatrix in="shadowBlurOuter1" values="0 0 0 0 0 0 0 0 0 0 0 0 0 0 0 0 0 0 0.12 0"/></filter><rect id="q" width="339" height="188" rx="6"/><filter id="p" width="115.6%" height="128.2%" x="-7.8%" y="-12%" filterUnits="objectBoundingBox"><feMorphology in="SourceAlpha" operator="dilate" radius=".5" result="shadowSpreadOuter1"/><feOffset dy="4" in="shadowSpreadOuter1" result="shadowOffsetOuter1"/><feGaussianBlur in="shadowOffsetOuter1" result="shadowBlurOuter1" stdDeviation="8"/><feComposite in="shadowBlurOuter1" in2="SourceAlpha" operator="out" result="shadowBlurOuter1"/><feColorMatrix in="shadowBlurOuter1" values="0 0 0 0 0 0 0 0 0 0 0 0 0 0 0 0 0 0 0.12 0"/></filter></defs><g fill="none" fill-rule="evenodd"><path fill="#C9EDF4" d="M107 182h339v300H107z"/><g transform="translate(85 39)"><mask id="c" fill="#fff"><use xlink:href="#a"/></mask><use fill="#000" filter="url(#b)" xlink:href="#a"/><use fill="#FFF" stroke="#8D8D8D" stroke-opacity=".24" xlink:href="#a"/><path fill="#384254" fill-rule="nonzero" d="M28.2 125.168c-1.722 0-2.968-.616-3.808-1.484l.924-1.274a4.012 4.012 0 0 0 2.954 1.302c1.344 0 1.862-.658 1.862-1.288 0-1.96-5.432-.742-5.432-4.172 0-1.554 1.344-2.744 3.402-2.744 1.442 0 2.632.476 3.486 1.316l-.924 1.218c-.742-.742-1.736-1.078-2.716-1.078-.952 0-1.568.476-1.568 1.162 0 1.75 5.432.672 5.432 4.144 0 1.554-1.106 2.898-3.612 2.898zM39.708 125H33.31v-9.338h6.398v1.442h-4.76v2.408h4.662v1.442h-4.662v2.604h4.76V125zm6.174.182c-2.716 0-4.9-1.918-4.9-4.844 0-2.94 2.184-4.83 4.9-4.83 1.82 0 3.01.868 3.752 1.932l-1.33.77a3.014 3.014 0 0 0-2.422-1.246c-1.848 0-3.22 1.4-3.22 3.374 0 1.946 1.372 3.374 3.22 3.374.952 0 1.792-.434 2.212-.84v-1.442h-2.8v-1.442h4.424v3.486a5.045 5.045 0 0 1-3.836 1.708zM61.128 125H59.49v-7.21L56.634 125h-.7l-2.87-7.21V125h-1.638v-9.338h2.31l2.548 6.412 2.534-6.412h2.31V125zm8.386 0h-6.398v-9.338h6.398v1.442h-4.76v2.408h4.662v1.442h-4.662v2.604h4.76V125zm9.772 0h-1.582l-4.872-6.678V125h-1.638v-9.338h1.68l4.774 6.468v-6.468h1.638V125zm5.852 0H83.5v-7.896h-2.828v-1.442h7.294v1.442h-2.828V125z" mask="url(#c)" opacity=".5"/><g mask="url(#c)"><g transform="translate(24 142)"><rect width="100" height="22" fill="#189AC9" rx="3"/><path fill="#FFF" fill-rule="nonzero" d="M9.3 14.132c-1.353 0-2.332-.484-2.992-1.166l.726-1.001a3.152 3.152 0 0 0 2.321 1.023c1.056 0 1.463-.517 1.463-1.012 0-1.54-4.268-.583-4.268-3.278 0-1.221 1.056-2.156 2.673-2.156 1.133 0 2.068.374 2.739 1.034l-.726.957c-.583-.583-1.364-.847-2.134-.847-.748 0-1.232.374-1.232.913 0 1.375 4.268.528 4.268 3.256 0 1.221-.869 2.277-2.838 2.277zm4.565-6.094a.714.714 0 0 1-.715-.715c0-.396.319-.715.715-.715.396 0 .715.319.715.715a.714.714 0 0 1-.715.715zM14.437 14h-1.155V8.687h1.155V14zm3.663 2.156c-.902 0-1.573-.198-2.233-.792l.539-.836c.44.495.99.682 1.694.682.759 0 1.573-.352 1.573-1.485v-.605c-.407.539-1.012.891-1.705.891-1.353 0-2.354-.979-2.354-2.728 0-1.727.979-2.728 2.354-2.728.671 0 1.276.297 1.705.869v-.737h1.155v5.038c0 1.914-1.43 2.431-2.728 2.431zm.209-3.179c.539 0 1.1-.319 1.364-.704v-1.991c-.264-.385-.825-.704-1.364-.704-.924 0-1.507.682-1.507 1.705 0 1.023.583 1.694 1.507 1.694zM27.076 14h-1.155v-3.322c0-.836-.429-1.1-1.078-1.1-.583 0-1.089.352-1.364.704V14h-1.155V8.687h1.155v.715c.352-.418 1.045-.847 1.881-.847 1.144 0 1.716.616 1.716 1.705V14zm3.96.132c-1.606 0-2.783-1.111-2.783-2.794 0-1.54 1.122-2.783 2.695-2.783 1.595 0 2.607 1.21 2.607 2.882v.286h-4.092c.088.792.682 1.463 1.683 1.463.528 0 1.133-.209 1.518-.594l.528.759c-.539.506-1.32.781-2.156.781zm1.408-3.234c-.033-.627-.462-1.397-1.507-1.397-.979 0-1.441.759-1.485 1.397h2.992zM39.594 14h-1.155v-.726c-.407.528-1.012.858-1.705.858-1.353 0-2.354-1.034-2.354-2.794 0-1.716.99-2.783 2.354-2.783.671 0 1.287.297 1.705.869V6.663h1.155V14zm-2.519-.891c.539 0 1.111-.319 1.364-.715v-2.101c-.253-.396-.825-.715-1.364-.715-.924 0-1.507.737-1.507 1.76 0 1.034.583 1.771 1.507 1.771zM48.669 14h-1.155v-.704a2.54 2.54 0 0 1-1.87.836c-1.144 0-1.716-.605-1.716-1.683V8.687h1.155v3.333c0 .825.418 1.089 1.078 1.089.583 0 1.089-.341 1.353-.693V8.687h1.155V14zm4.356.132c-.671 0-1.265-.308-1.705-.869v2.761h-1.155V8.687h1.155v.726a2.12 2.12 0 0 1 1.705-.858c1.375 0 2.354 1.034 2.354 2.783 0 1.749-.979 2.794-2.354 2.794zm-.341-1.023c.913 0 1.507-.737 1.507-1.771 0-1.034-.594-1.76-1.507-1.76-.539 0-1.1.308-1.364.704v2.101c.253.396.825.726 1.364.726zm8.129.891h-1.155V9.688h-.88V8.687h.88V8.39c0-1.155.671-1.837 1.672-1.837.484 0 .957.121 1.276.462l-.451.715a.858.858 0 0 0-.605-.231c-.462 0-.737.297-.737.891v.297h1.078v1.001h-1.078V14zm4.367.132c-1.694 0-2.728-1.276-2.728-2.794 0-1.529 1.034-2.783 2.728-2.783 1.694 0 2.728 1.254 2.728 2.783 0 1.518-1.034 2.794-2.728 2.794zm0-1.023c.99 0 1.529-.825 1.529-1.771 0-.935-.539-1.76-1.529-1.76-.979 0-1.529.825-1.529 1.76 0 .946.55 1.771 1.529 1.771zm5.06.891h-1.155V8.687h1.155v.77c.407-.506 1.045-.902 1.727-.902v1.144a1.594 1.594 0 0 0-.352-.033c-.495 0-1.144.33-1.375.715V14zm7.106.132c-.902 0-1.364-.484-1.364-1.375V9.688h-.88V8.687h.88V7.235h1.155v1.452h1.078v1.001h-1.078v2.783c0 .363.176.638.506.638.22 0 .418-.099.506-.198l.275.88c-.209.187-.55.341-1.078.341zM80.404 14h-1.155V8.687h1.155v.77c.407-.506 1.045-.902 1.727-.902v1.144a1.594 1.594 0 0 0-.352-.033c-.495 0-1.144.33-1.375.715V14zm3.245-5.962a.714.714 0 0 1-.715-.715c0-.396.319-.715.715-.715.396 0 .715.319.715.715a.714.714 0 0 1-.715.715zM84.221 14h-1.155V8.687h1.155V14zm5.907 0h-1.155v-.583c-.396.462-1.023.715-1.727.715-.858 0-1.837-.594-1.837-1.76 0-1.232.968-1.738 1.837-1.738.726 0 1.331.231 1.727.682v-.792c0-.616-.517-.99-1.243-.99-.594 0-1.122.22-1.573.682l-.484-.803c.616-.594 1.386-.858 2.233-.858 1.188 0 2.222.495 2.222 1.914V14zm-2.42-.66c.495 0 .99-.187 1.265-.55v-.814c-.275-.363-.77-.55-1.265-.55-.649 0-1.144.385-1.144.957 0 .583.495.957 1.144.957zm5.071.66h-1.155V6.663h1.155V14z"/></g></g><g mask="url(#c)"><g transform="translate(132 142)"><rect width="172" height="22" x=".5" fill="#189AC9" rx="3"/><path fill="#FFF" fill-rule="nonzero" d="M10.812 14.132c-2.167 0-3.85-1.54-3.85-3.795 0-2.266 1.683-3.795 3.85-3.795 1.474 0 2.398.759 2.937 1.639l-1.089.572a2.169 2.169 0 0 0-1.848-1.067c-1.452 0-2.53 1.1-2.53 2.651 0 1.529 1.078 2.651 2.53 2.651.781 0 1.496-.462 1.848-1.067l1.1.55c-.561.88-1.474 1.661-2.948 1.661zm6.347 0c-1.694 0-2.728-1.276-2.728-2.794 0-1.529 1.034-2.783 2.728-2.783 1.694 0 2.728 1.254 2.728 2.783 0 1.518-1.034 2.794-2.728 2.794zm0-1.023c.99 0 1.529-.825 1.529-1.771 0-.935-.539-1.76-1.529-1.76-.979 0-1.529.825-1.529 1.76 0 .946.55 1.771 1.529 1.771zm8.657.891h-1.155v-3.322c0-.836-.429-1.1-1.078-1.1-.583 0-1.089.352-1.364.704V14h-1.155V8.687h1.155v.715c.352-.418 1.045-.847 1.881-.847 1.144 0 1.716.616 1.716 1.705V14zm4.136 0h-1.243l-2.167-5.313h1.243l1.551 3.982 1.551-3.982h1.232L29.952 14zm5.357.132c-1.606 0-2.783-1.111-2.783-2.794 0-1.54 1.122-2.783 2.695-2.783 1.595 0 2.607 1.21 2.607 2.882v.286h-4.092c.088.792.682 1.463 1.683 1.463.528 0 1.133-.209 1.518-.594l.528.759c-.539.506-1.32.781-2.156.781zm1.408-3.234c-.033-.627-.462-1.397-1.507-1.397-.979 0-1.441.759-1.485 1.397h2.992zM40.127 14h-1.155V8.687h1.155v.77c.407-.506 1.045-.902 1.727-.902v1.144a1.594 1.594 0 0 0-.352-.033c-.495 0-1.144.33-1.375.715V14zm4.268.132c-.902 0-1.364-.484-1.364-1.375V9.688h-.88V8.687h.88V7.235h1.155v1.452h1.078v1.001h-1.078v2.783c0 .363.176.638.506.638.22 0 .418-.099.506-.198l.275.88c-.209.187-.55.341-1.078.341zm6.347 0c-.902 0-1.364-.484-1.364-1.375V9.688h-.88V8.687h.88V7.235h1.155v1.452h1.078v1.001h-1.078v2.783c0 .363.176.638.506.638.22 0 .418-.099.506-.198l.275.88c-.209.187-.55.341-1.078.341zM53.8 14h-1.155V8.687H53.8v.77c.407-.506 1.045-.902 1.727-.902v1.144a1.594 1.594 0 0 0-.352-.033c-.495 0-1.144.33-1.375.715V14zm3.245-5.962a.714.714 0 0 1-.715-.715c0-.396.319-.715.715-.715.396 0 .715.319.715.715a.714.714 0 0 1-.715.715zM57.617 14h-1.155V8.687h1.155V14zm5.907 0h-1.155v-.583c-.396.462-1.023.715-1.727.715-.858 0-1.837-.594-1.837-1.76 0-1.232.968-1.738 1.837-1.738.726 0 1.331.231 1.727.682v-.792c0-.616-.517-.99-1.243-.99-.594 0-1.122.22-1.573.682l-.484-.803c.616-.594 1.386-.858 2.233-.858 1.188 0 2.222.495 2.222 1.914V14zm-2.42-.66c.495 0 .99-.187 1.265-.55v-.814c-.275-.363-.77-.55-1.265-.55-.649 0-1.144.385-1.144.957 0 .583.495.957 1.144.957zm5.071.66H65.02V6.663h1.155V14zm9.075 0h-1.155v-.704a2.54 2.54 0 0 1-1.87.836c-1.144 0-1.716-.605-1.716-1.683V8.687h1.155v3.333c0 .825.418 1.089 1.078 1.089.583 0 1.089-.341 1.353-.693V8.687h1.155V14zm3.322.132c-.913 0-1.727-.297-2.277-.836l.528-.825c.374.385 1.111.737 1.793.737.693 0 1.056-.286 1.056-.704 0-1.045-3.212-.297-3.212-2.343 0-.869.748-1.606 2.09-1.606.902 0 1.584.319 2.057.737l-.484.814c-.319-.352-.902-.638-1.573-.638-.605 0-.979.286-.979.66 0 .935 3.212.231 3.212 2.343 0 .946-.781 1.661-2.211 1.661zm5.83 0c-1.606 0-2.783-1.111-2.783-2.794 0-1.54 1.122-2.783 2.695-2.783 1.595 0 2.607 1.21 2.607 2.882v.286h-4.092c.088.792.682 1.463 1.683 1.463.528 0 1.133-.209 1.518-.594l.528.759c-.539.506-1.32.781-2.156.781zm1.408-3.234c-.033-.627-.462-1.397-1.507-1.397-.979 0-1.441.759-1.485 1.397h2.992zM89.22 14h-1.155V8.687h1.155v.77c.407-.506 1.045-.902 1.727-.902v1.144a1.594 1.594 0 0 0-.352-.033c-.495 0-1.144.33-1.375.715V14zm4.488.132c-.913 0-1.727-.297-2.277-.836l.528-.825c.374.385 1.111.737 1.793.737.693 0 1.056-.286 1.056-.704 0-1.045-3.212-.297-3.212-2.343 0-.869.748-1.606 2.09-1.606.902 0 1.584.319 2.057.737l-.484.814c-.319-.352-.902-.638-1.573-.638-.605 0-.979.286-.979.66 0 .935 3.212.231 3.212 2.343 0 .946-.781 1.661-2.211 1.661zm7.81 0c-.902 0-1.364-.484-1.364-1.375V9.688h-.88V8.687h.88V7.235h1.155v1.452h1.078v1.001h-1.078v2.783c0 .363.176.638.506.638.22 0 .418-.099.506-.198l.275.88c-.209.187-.55.341-1.078.341zm4.312 0c-1.694 0-2.728-1.276-2.728-2.794 0-1.529 1.034-2.783 2.728-2.783 1.694 0 2.728 1.254 2.728 2.783 0 1.518-1.034 2.794-2.728 2.794zm0-1.023c.99 0 1.529-.825 1.529-1.771 0-.935-.539-1.76-1.529-1.76-.979 0-1.529.825-1.529 1.76 0 .946.55 1.771 1.529 1.771zm8.569 1.023c-.913 0-1.727-.297-2.277-.836l.528-.825c.374.385 1.111.737 1.793.737.693 0 1.056-.286 1.056-.704 0-1.045-3.212-.297-3.212-2.343 0-.869.748-1.606 2.09-1.606.902 0 1.584.319 2.057.737l-.484.814c-.319-.352-.902-.638-1.573-.638-.605 0-.979.286-.979.66 0 .935 3.212.231 3.212 2.343 0 .946-.781 1.661-2.211 1.661zm8.107-.132h-1.155v-.704a2.54 2.54 0 0 1-1.87.836c-1.144 0-1.716-.605-1.716-1.683V8.687h1.155v3.333c0 .825.418 1.089 1.078 1.089.583 0 1.089-.341 1.353-.693V8.687h1.155V14zm2.651-1.595c.264.396.825.704 1.375.704.913 0 1.496-.737 1.496-1.771 0-1.023-.583-1.76-1.496-1.76-.55 0-1.111.319-1.375.715v2.112zm0 1.595h-1.155V6.663h1.155v2.761a2.1 2.1 0 0 1 1.705-.869c1.375 0 2.365 1.067 2.365 2.783 0 1.76-1.001 2.794-2.365 2.794-.682 0-1.298-.33-1.705-.858V14zm7.062.132c-.913 0-1.727-.297-2.277-.836l.528-.825c.374.385 1.111.737 1.793.737.693 0 1.056-.286 1.056-.704 0-1.045-3.212-.297-3.212-2.343 0-.869.748-1.606 2.09-1.606.902 0 1.584.319 2.057.737l-.484.814c-.319-.352-.902-.638-1.573-.638-.605 0-.979.286-.979.66 0 .935 3.212.231 3.212 2.343 0 .946-.781 1.661-2.211 1.661zm5.786 0c-1.606 0-2.739-1.188-2.739-2.794s1.133-2.783 2.739-2.783c1.045 0 1.661.44 2.035.946l-.759.693c-.297-.418-.704-.616-1.221-.616-.957 0-1.606.726-1.606 1.76s.649 1.771 1.606 1.771c.517 0 .924-.22 1.221-.638l.759.715c-.374.495-.99.946-2.035.946zm4.213-.132h-1.155V8.687h1.155v.77c.407-.506 1.045-.902 1.727-.902v1.144a1.594 1.594 0 0 0-.352-.033c-.495 0-1.144.33-1.375.715V14zm3.245-5.962a.714.714 0 0 1-.715-.715c0-.396.319-.715.715-.715.396 0 .715.319.715.715a.714.714 0 0 1-.715.715zm.572 5.962h-1.155V8.687h1.155V14zm2.651-1.595c.264.396.825.704 1.375.704.913 0 1.496-.737 1.496-1.771 0-1.023-.583-1.76-1.496-1.76-.55 0-1.111.319-1.375.715v2.112zm0 1.595h-1.155V6.663h1.155v2.761a2.1 2.1 0 0 1 1.705-.869c1.375 0 2.365 1.067 2.365 2.783 0 1.76-1.001 2.794-2.365 2.794-.682 0-1.298-.33-1.705-.858V14zm7.7.132c-1.606 0-2.783-1.111-2.783-2.794 0-1.54 1.122-2.783 2.695-2.783 1.595 0 2.607 1.21 2.607 2.882v.286h-4.092c.088.792.682 1.463 1.683 1.463.528 0 1.133-.209 1.518-.594l.528.759c-.539.506-1.32.781-2.156.781zm1.408-3.234c-.033-.627-.462-1.397-1.507-1.397-.979 0-1.441.759-1.485 1.397h2.992zm7.15 3.102h-1.155v-.726c-.407.528-1.012.858-1.705.858-1.353 0-2.354-1.034-2.354-2.794 0-1.716.99-2.783 2.354-2.783.671 0 1.287.297 1.705.869V6.663h1.155V14zm-2.519-.891c.539 0 1.111-.319 1.364-.715v-2.101c-.253-.396-.825-.715-1.364-.715-.924 0-1.507.737-1.507 1.76 0 1.034.583 1.771 1.507 1.771z"/></g></g><path fill="#384254" fill-rule="nonzero" d="M26.632 201h-1.638v-9.338h4.116c1.96 0 3.038 1.33 3.038 2.926 0 1.582-1.092 2.912-3.038 2.912h-2.478v3.5zm2.254-4.942c.924 0 1.582-.588 1.582-1.47 0-.896-.658-1.484-1.582-1.484h-2.254v2.954h2.254zM40.758 201h-1.904l-2.058-3.486h-1.638V201H33.52v-9.338h4.102c1.848 0 3.066 1.19 3.066 2.926 0 1.652-1.092 2.562-2.226 2.744L40.758 201zm-3.346-4.928c.924 0 1.596-.588 1.596-1.498 0-.896-.672-1.47-1.596-1.47h-2.254v2.968h2.254zm9.282 5.096c-2.8 0-4.774-2.044-4.774-4.83s1.974-4.83 4.774-4.83c2.786 0 4.774 2.044 4.774 4.83s-1.988 4.83-4.774 4.83zm0-1.456c1.876 0 3.094-1.456 3.094-3.374 0-1.932-1.218-3.374-3.094-3.374-1.89 0-3.094 1.442-3.094 3.374 0 1.918 1.204 3.374 3.094 3.374zm7.98 1.288h-1.638v-9.338h4.116c1.96 0 3.038 1.33 3.038 2.926 0 1.582-1.092 2.912-3.038 2.912h-2.478v3.5zm2.254-4.942c.924 0 1.582-.588 1.582-1.47 0-.896-.658-1.484-1.582-1.484h-2.254v2.954h2.254zM67.96 201h-6.398v-9.338h6.398v1.442H63.2v2.408h4.662v1.442H63.2v2.604h4.76V201zm8.918 0h-1.904l-2.058-3.486h-1.638V201H69.64v-9.338h4.102c1.848 0 3.066 1.19 3.066 2.926 0 1.652-1.092 2.562-2.226 2.744L76.878 201zm-3.346-4.928c.924 0 1.596-.588 1.596-1.498 0-.896-.672-1.47-1.596-1.47h-2.254v2.968h2.254zM82.17 201h-1.638v-7.896h-2.828v-1.442h7.294v1.442H82.17V201zm5.852 0h-1.638v-9.338h1.638V201zm8.386 0H90.01v-9.338h6.398v1.442h-4.76v2.408h4.662v1.442h-4.662v2.604h4.76V201zm4.886.168c-1.722 0-2.968-.616-3.808-1.484l.924-1.274a4.012 4.012 0 0 0 2.954 1.302c1.344 0 1.862-.658 1.862-1.288 0-1.96-5.432-.742-5.432-4.172 0-1.554 1.344-2.744 3.402-2.744 1.442 0 2.632.476 3.486 1.316l-.924 1.218c-.742-.742-1.736-1.078-2.716-1.078-.952 0-1.568.476-1.568 1.162 0 1.75 5.432.672 5.432 4.144 0 1.554-1.106 2.898-3.612 2.898z" mask="url(#c)" opacity=".5"/><g fill="#384254" fill-rule="nonzero" mask="url(#c)"><path fill-opacity=".5" d="M30.328 227h-1.05v-.77c-.546.616-1.33.938-2.24.938-1.134 0-2.352-.77-2.352-2.24 0-1.526 1.204-2.226 2.352-2.226.924 0 1.694.294 2.24.91v-1.218c0-.896-.728-1.414-1.708-1.414-.812 0-1.47.28-2.072.938l-.49-.728c.728-.756 1.596-1.12 2.702-1.12 1.442 0 2.618.644 2.618 2.282V227zm-2.898-.588c.728 0 1.442-.28 1.848-.84v-1.288c-.406-.546-1.12-.826-1.848-.826-.994 0-1.68.616-1.68 1.47 0 .868.686 1.484 1.68 1.484zm7.994.756c-2.016 0-3.374-1.554-3.374-3.556s1.358-3.542 3.374-3.542c1.232 0 1.96.504 2.478 1.176l-.7.63c-.448-.616-1.022-.868-1.722-.868-1.428 0-2.338 1.106-2.338 2.604s.91 2.618 2.338 2.618c.7 0 1.274-.28 1.722-.882l.7.644c-.518.672-1.246 1.176-2.478 1.176zm6.944 0c-2.016 0-3.374-1.554-3.374-3.556s1.358-3.542 3.374-3.542c1.232 0 1.96.504 2.478 1.176l-.7.63c-.448-.616-1.022-.868-1.722-.868-1.428 0-2.338 1.106-2.338 2.604s.91 2.618 2.338 2.618c.7 0 1.274-.28 1.722-.882l.7.644c-.518.672-1.246 1.176-2.478 1.176zm6.916 0c-2.058 0-3.346-1.596-3.346-3.556s1.288-3.542 3.346-3.542 3.346 1.582 3.346 3.542c0 1.96-1.288 3.556-3.346 3.556zm0-.938c1.442 0 2.24-1.232 2.24-2.618 0-1.372-.798-2.604-2.24-2.604-1.442 0-2.24 1.232-2.24 2.604 0 1.386.798 2.618 2.24 2.618zm10.668.77h-1.05v-.952c-.518.588-1.4 1.12-2.408 1.12-1.414 0-2.156-.7-2.156-2.156v-4.774h1.05v4.452c0 1.19.602 1.54 1.526 1.54.812 0 1.596-.476 1.988-1.022v-4.97h1.05V227zm7.714 0H66.63v-4.424c0-1.204-.616-1.568-1.526-1.568-.826 0-1.596.504-2.002 1.05V227h-1.05v-6.762h1.05v.98c.476-.574 1.4-1.148 2.422-1.148 1.4 0 2.142.714 2.142 2.184V227zm3.836.168c-1.008 0-1.512-.574-1.512-1.582v-4.424h-1.12v-.924h1.12v-1.848h1.064v1.848h1.372v.924h-1.372v4.2c0 .504.224.868.672.868.308 0 .574-.14.714-.294l.308.798c-.266.252-.644.434-1.246.434zm9.282 1.162h-7.98v-.77h7.98v.77zm3.164-1.162c-1.12 0-2.044-.35-2.73-1.064l.532-.756c.448.518 1.302.966 2.226.966 1.036 0 1.61-.49 1.61-1.162 0-1.638-4.186-.63-4.186-3.136 0-1.064.896-1.946 2.506-1.946 1.162 0 1.974.434 2.506.98l-.49.728c-.406-.49-1.134-.854-2.016-.854-.924 0-1.498.462-1.498 1.064 0 1.47 4.186.504 4.186 3.136 0 1.134-.91 2.044-2.646 2.044zm6.076 0c-1.008 0-1.512-.574-1.512-1.582v-4.424h-1.12v-.924h1.12v-1.848h1.064v1.848h1.372v.924h-1.372v4.2c0 .504.224.868.672.868.308 0 .574-.14.714-.294l.308.798c-.266.252-.644.434-1.246.434zm7.672-.168h-1.05v-.77c-.546.616-1.33.938-2.24.938-1.134 0-2.352-.77-2.352-2.24 0-1.526 1.204-2.226 2.352-2.226.924 0 1.694.294 2.24.91v-1.218c0-.896-.728-1.414-1.708-1.414-.812 0-1.47.28-2.072.938l-.49-.728c.728-.756 1.596-1.12 2.702-1.12 1.442 0 2.618.644 2.618 2.282V227zm-2.898-.588c.728 0 1.442-.28 1.848-.84v-1.288c-.406-.546-1.12-.826-1.848-.826-.994 0-1.68.616-1.68 1.47 0 .868.686 1.484 1.68 1.484zm6.734.756c-1.008 0-1.512-.574-1.512-1.582v-4.424H98.9v-.924h1.12v-1.848h1.064v1.848h1.372v.924h-1.372v4.2c0 .504.224.868.672.868.308 0 .574-.14.714-.294l.308.798c-.266.252-.644.434-1.246.434zm8.008-.168h-1.05v-.952c-.518.588-1.4 1.12-2.408 1.12-1.414 0-2.156-.7-2.156-2.156v-4.774h1.05v4.452c0 1.19.602 1.54 1.526 1.54.812 0 1.596-.476 1.988-1.022v-4.97h1.05V227zm4.256.168c-1.12 0-2.044-.35-2.73-1.064l.532-.756c.448.518 1.302.966 2.226.966 1.036 0 1.61-.49 1.61-1.162 0-1.638-4.186-.63-4.186-3.136 0-1.064.896-1.946 2.506-1.946 1.162 0 1.974.434 2.506.98l-.49.728c-.406-.49-1.134-.854-2.016-.854-.924 0-1.498.462-1.498 1.064 0 1.47 4.186.504 4.186 3.136 0 1.134-.91 2.044-2.646 2.044z"/><path d="M169.254 227h-1.162v-9.338h3.752c1.876 0 2.926 1.288 2.926 2.814s-1.064 2.814-2.926 2.814h-2.59V227zm2.45-4.746c1.106 0 1.862-.728 1.862-1.778s-.756-1.778-1.862-1.778h-2.45v3.556h2.45zm9.562 4.746h-1.05v-.77c-.546.616-1.33.938-2.24.938-1.134 0-2.352-.77-2.352-2.24 0-1.526 1.204-2.226 2.352-2.226.924 0 1.694.294 2.24.91v-1.218c0-.896-.728-1.414-1.708-1.414-.812 0-1.47.28-2.072.938l-.49-.728c.728-.756 1.596-1.12 2.702-1.12 1.442 0 2.618.644 2.618 2.282V227zm-2.898-.588c.728 0 1.442-.28 1.848-.84v-1.288c-.406-.546-1.12-.826-1.848-.826-.994 0-1.68.616-1.68 1.47 0 .868.686 1.484 1.68 1.484zm5.544-7.14a.705.705 0 0 1-.714-.7c0-.392.322-.714.714-.714.392 0 .7.322.7.714 0 .392-.308.7-.7.7zm.518 7.728h-1.05v-6.762h1.05V227zm8.05 0h-1.05v-1.008c-.504.686-1.33 1.176-2.282 1.176-1.764 0-3.01-1.344-3.01-3.542 0-2.17 1.246-3.556 3.01-3.556.91 0 1.736.448 2.282 1.19v-3.598h1.05V227zm-3.066-.77c.826 0 1.652-.49 2.016-1.078V222.1c-.364-.588-1.19-1.092-2.016-1.092-1.372 0-2.184 1.12-2.184 2.618 0 1.498.812 2.604 2.184 2.604zM173.44 257h-5.502v-9.338h1.162v8.302h4.34V257zm4.284.168c-2.016 0-3.458-1.442-3.458-3.556 0-1.96 1.4-3.542 3.332-3.542 2.044 0 3.248 1.596 3.248 3.626v.266h-5.46c.084 1.274.966 2.338 2.422 2.338.784 0 1.554-.308 2.1-.868l.504.686c-.686.672-1.596 1.05-2.688 1.05zm2.086-3.99c-.014-.994-.686-2.24-2.226-2.24-1.442 0-2.156 1.218-2.212 2.24h4.438zm9.646 3.822h-1.064l-1.764-5.432-1.764 5.432h-1.05l-2.156-6.762h1.092l1.652 5.39 1.778-5.39h.91l1.764 5.39 1.652-5.39h1.106L189.456 257z"/><path fill-opacity=".5" d="M26.394 257h-1.05v-5.838h-1.12v-.924h1.12v-.518c0-1.4.798-2.198 1.96-2.198.406 0 .756.07 1.036.224l-.266.798a1.128 1.128 0 0 0-.602-.154c-.7 0-1.078.462-1.078 1.33v.518h1.372v.924h-1.372V257zm3.164-7.728a.705.705 0 0 1-.714-.7c0-.392.322-.714.714-.714.392 0 .7.322.7.714 0 .392-.308.7-.7.7zm.518 7.728h-1.05v-6.762h1.05V257zm3.15 0h-1.05v-6.762h1.05v1.078c.546-.7 1.33-1.232 2.254-1.232v1.078a3.468 3.468 0 0 0-.406-.028c-.658 0-1.54.532-1.848 1.078V257zm5.726.168c-1.12 0-2.044-.35-2.73-1.064l.532-.756c.448.518 1.302.966 2.226.966 1.036 0 1.61-.49 1.61-1.162 0-1.638-4.186-.63-4.186-3.136 0-1.064.896-1.946 2.506-1.946 1.162 0 1.974.434 2.506.98l-.49.728c-.406-.49-1.134-.854-2.016-.854-.924 0-1.498.462-1.498 1.064 0 1.47 4.186.504 4.186 3.136 0 1.134-.91 2.044-2.646 2.044zm6.076 0c-1.008 0-1.512-.574-1.512-1.582v-4.424h-1.12v-.924h1.12v-1.848h1.064v1.848h1.372v.924H44.58v4.2c0 .504.224.868.672.868.308 0 .574-.14.714-.294l.308.798c-.266.252-.644.434-1.246.434zm9.282 1.162h-7.98v-.77h7.98v.77zm6.622-1.33h-1.036v-4.424c0-1.204-.616-1.568-1.526-1.568-.826 0-1.596.504-2.002 1.05V257h-1.05v-6.762h1.05v.98c.476-.574 1.4-1.148 2.422-1.148 1.4 0 2.142.714 2.142 2.184V257zm7.392 0h-1.05v-.77c-.546.616-1.33.938-2.24.938-1.134 0-2.352-.77-2.352-2.24 0-1.526 1.204-2.226 2.352-2.226.924 0 1.694.294 2.24.91v-1.218c0-.896-.728-1.414-1.708-1.414-.812 0-1.47.28-2.072.938l-.49-.728c.728-.756 1.596-1.12 2.702-1.12 1.442 0 2.618.644 2.618 2.282V257zm-2.898-.588c.728 0 1.442-.28 1.848-.84v-1.288c-.406-.546-1.12-.826-1.848-.826-.994 0-1.68.616-1.68 1.47 0 .868.686 1.484 1.68 1.484zM79.65 257H78.6v-4.592c0-.854-.364-1.4-1.246-1.4-.7 0-1.442.49-1.792 1.036V257h-1.05v-4.592c0-.854-.35-1.4-1.246-1.4-.686 0-1.414.504-1.778 1.05V257h-1.05v-6.762h1.05v.98c.294-.434 1.19-1.148 2.198-1.148 1.022 0 1.61.56 1.806 1.26.378-.616 1.288-1.26 2.268-1.26 1.232 0 1.89.686 1.89 2.044V257zm5.166.168c-2.016 0-3.458-1.442-3.458-3.556 0-1.96 1.4-3.542 3.332-3.542 2.044 0 3.248 1.596 3.248 3.626v.266h-5.46c.084 1.274.966 2.338 2.422 2.338.784 0 1.554-.308 2.1-.868l.504.686c-.686.672-1.596 1.05-2.688 1.05zm2.086-3.99c-.014-.994-.686-2.24-2.226-2.24-1.442 0-2.156 1.218-2.212 2.24h4.438z"/><path d="M170.654 317h-1.162v-7.812l-1.498 1.596-.7-.714 2.338-2.408h1.022V317zm4.746 0h-1.162v-7.812l-1.498 1.596-.7-.714 2.338-2.408h1.022V317z"/><path fill-opacity=".5" d="M26.772 317.168c-1.008 0-1.512-.574-1.512-1.582v-4.424h-1.12v-.924h1.12v-1.848h1.064v1.848h1.372v.924h-1.372v4.2c0 .504.224.868.672.868.308 0 .574-.14.714-.294l.308.798c-.266.252-.644.434-1.246.434zm2.926-7.896a.705.705 0 0 1-.714-.7c0-.392.322-.714.714-.714.392 0 .7.322.7.714 0 .392-.308.7-.7.7zm.518 7.728h-1.05v-6.762h1.05V317zm11.312 0h-1.05v-4.592c0-.854-.364-1.4-1.246-1.4-.7 0-1.442.49-1.792 1.036V317h-1.05v-4.592c0-.854-.35-1.4-1.246-1.4-.686 0-1.414.504-1.778 1.05V317h-1.05v-6.762h1.05v.98c.294-.434 1.19-1.148 2.198-1.148 1.022 0 1.61.56 1.806 1.26.378-.616 1.288-1.26 2.268-1.26 1.232 0 1.89.686 1.89 2.044V317zm5.166.168c-2.016 0-3.458-1.442-3.458-3.556 0-1.96 1.4-3.542 3.332-3.542 2.044 0 3.248 1.596 3.248 3.626v.266h-5.46c.084 1.274.966 2.338 2.422 2.338.784 0 1.554-.308 2.1-.868l.504.686c-.686.672-1.596 1.05-2.688 1.05zm2.086-3.99c-.014-.994-.686-2.24-2.226-2.24-1.442 0-2.156 1.218-2.212 2.24h4.438zM56.34 317h-5.152v-.826l3.724-5.012h-3.724v-.924h5.096v.798l-3.752 5.04h3.808V317zm4.732.168c-2.058 0-3.346-1.596-3.346-3.556s1.288-3.542 3.346-3.542 3.346 1.582 3.346 3.542c0 1.96-1.288 3.556-3.346 3.556zm0-.938c1.442 0 2.24-1.232 2.24-2.618 0-1.372-.798-2.604-2.24-2.604-1.442 0-2.24 1.232-2.24 2.604 0 1.386.798 2.618 2.24 2.618zm10.668.77h-1.036v-4.424c0-1.204-.616-1.568-1.526-1.568-.826 0-1.596.504-2.002 1.05V317h-1.05v-6.762h1.05v.98c.476-.574 1.4-1.148 2.422-1.148 1.4 0 2.142.714 2.142 2.184V317zm5.18.168c-2.016 0-3.458-1.442-3.458-3.556 0-1.96 1.4-3.542 3.332-3.542 2.044 0 3.248 1.596 3.248 3.626v.266h-5.46c.084 1.274.966 2.338 2.422 2.338.784 0 1.554-.308 2.1-.868l.504.686c-.686.672-1.596 1.05-2.688 1.05zm2.086-3.99c-.014-.994-.686-2.24-2.226-2.24-1.442 0-2.156 1.218-2.212 2.24h4.438z"/><path d="M169.772 287.168c-1.008 0-1.512-.574-1.512-1.582v-4.424h-1.12v-.924h1.12v-1.848h1.064v1.848h1.372v.924h-1.372v4.2c0 .504.224.868.672.868.308 0 .574-.14.714-.294l.308.798c-.266.252-.644.434-1.246.434zm3.444-.168h-1.05v-6.762h1.05v1.078c.546-.7 1.33-1.232 2.254-1.232v1.078a3.468 3.468 0 0 0-.406-.028c-.658 0-1.54.532-1.848 1.078V287zm9.184 0h-1.05v-.952c-.518.588-1.4 1.12-2.408 1.12-1.414 0-2.156-.7-2.156-2.156v-4.774h1.05v4.452c0 1.19.602 1.54 1.526 1.54.812 0 1.596-.476 1.988-1.022v-4.97h1.05V287zm5.166.168c-2.016 0-3.458-1.442-3.458-3.556 0-1.96 1.4-3.542 3.332-3.542 2.044 0 3.248 1.596 3.248 3.626v.266h-5.46c.084 1.274.966 2.338 2.422 2.338.784 0 1.554-.308 2.1-.868l.504.686c-.686.672-1.596 1.05-2.688 1.05zm2.086-3.99c-.014-.994-.686-2.24-2.226-2.24-1.442 0-2.156 1.218-2.212 2.24h4.438z"/><path fill-opacity=".5" d="M30.678 287h-1.05v-4.452c0-1.204-.602-1.54-1.526-1.54-.812 0-1.596.504-1.988 1.05V287h-1.05v-9.338h1.05v3.556c.462-.574 1.386-1.148 2.408-1.148 1.414 0 2.156.686 2.156 2.156V287zm7.378 0h-1.05v-.77c-.546.616-1.33.938-2.24.938-1.134 0-2.352-.77-2.352-2.24 0-1.526 1.204-2.226 2.352-2.226.924 0 1.694.294 2.24.91v-1.218c0-.896-.728-1.414-1.708-1.414-.812 0-1.47.28-2.072.938l-.49-.728c.728-.756 1.596-1.12 2.702-1.12 1.442 0 2.618.644 2.618 2.282V287zm-2.898-.588c.728 0 1.442-.28 1.848-.84v-1.288c-.406-.546-1.12-.826-1.848-.826-.994 0-1.68.616-1.68 1.47 0 .868.686 1.484 1.68 1.484zm7.168.756c-1.12 0-2.044-.35-2.73-1.064l.532-.756c.448.518 1.302.966 2.226.966 1.036 0 1.61-.49 1.61-1.162 0-1.638-4.186-.63-4.186-3.136 0-1.064.896-1.946 2.506-1.946 1.162 0 1.974.434 2.506.98l-.49.728c-.406-.49-1.134-.854-2.016-.854-.924 0-1.498.462-1.498 1.064 0 1.47 4.186.504 4.186 3.136 0 1.134-.91 2.044-2.646 2.044zm11.242 1.162h-7.98v-.77h7.98v.77zm2.73-1.162c-1.008 0-1.512-.574-1.512-1.582v-4.424h-1.12v-.924h1.12v-1.848h1.064v1.848h1.372v.924H55.85v4.2c0 .504.224.868.672.868.308 0 .574-.14.714-.294l.308.798c-.266.252-.644.434-1.246.434zm3.444-.168h-1.05v-6.762h1.05v1.078c.546-.7 1.33-1.232 2.254-1.232v1.078a3.468 3.468 0 0 0-.406-.028c-.658 0-1.54.532-1.848 1.078V287zm8.848 0h-1.05v-.77c-.546.616-1.33.938-2.24.938-1.134 0-2.352-.77-2.352-2.24 0-1.526 1.204-2.226 2.352-2.226.924 0 1.694.294 2.24.91v-1.218c0-.896-.728-1.414-1.708-1.414-.812 0-1.47.28-2.072.938l-.49-.728c.728-.756 1.596-1.12 2.702-1.12 1.442 0 2.618.644 2.618 2.282V287zm-2.898-.588c.728 0 1.442-.28 1.848-.84v-1.288c-.406-.546-1.12-.826-1.848-.826-.994 0-1.68.616-1.68 1.47 0 .868.686 1.484 1.68 1.484zm7.994.756c-2.016 0-3.374-1.554-3.374-3.556s1.358-3.542 3.374-3.542c1.232 0 1.96.504 2.478 1.176l-.7.63c-.448-.616-1.022-.868-1.722-.868-1.428 0-2.338 1.106-2.338 2.604s.91 2.618 2.338 2.618c.7 0 1.274-.28 1.722-.882l.7.644c-.518.672-1.246 1.176-2.478 1.176zm9.912-.168h-1.344l-2.422-3.038-1.134 1.106V287h-1.05v-9.338h1.05v6.174l3.556-3.598h1.33l-2.996 3.066 3.01 3.696zm4.27.168c-2.016 0-3.458-1.442-3.458-3.556 0-1.96 1.4-3.542 3.332-3.542 2.044 0 3.248 1.596 3.248 3.626v.266h-5.46c.084 1.274.966 2.338 2.422 2.338.784 0 1.554-.308 2.1-.868l.504.686c-.686.672-1.596 1.05-2.688 1.05zm2.086-3.99c-.014-.994-.686-2.24-2.226-2.24-1.442 0-2.156 1.218-2.212 2.24h4.438zm8.68 3.822h-1.05v-1.008c-.504.686-1.33 1.176-2.282 1.176-1.764 0-3.01-1.344-3.01-3.542 0-2.17 1.246-3.556 3.01-3.556.91 0 1.736.448 2.282 1.19v-3.598h1.05V287zm-3.066-.77c.826 0 1.652-.49 2.016-1.078V282.1c-.364-.588-1.19-1.092-2.016-1.092-1.372 0-2.184 1.12-2.184 2.618 0 1.498.812 2.604 2.184 2.604zm12.054 2.1h-7.98v-.77h7.98v.77zm4.074-1.162c-2.016 0-3.458-1.442-3.458-3.556 0-1.96 1.4-3.542 3.332-3.542 2.044 0 3.248 1.596 3.248 3.626v.266h-5.46c.084 1.274.966 2.338 2.422 2.338.784 0 1.554-.308 2.1-.868l.504.686c-.686.672-1.596 1.05-2.688 1.05zm2.086-3.99c-.014-.994-.686-2.24-2.226-2.24-1.442 0-2.156 1.218-2.212 2.24h4.438zm5.684 3.822h-1.148l-2.814-6.762h1.148l2.24 5.544 2.254-5.544h1.134L119.466 287zm6.972.168c-2.016 0-3.458-1.442-3.458-3.556 0-1.96 1.4-3.542 3.332-3.542 2.044 0 3.248 1.596 3.248 3.626v.266h-5.46c.084 1.274.966 2.338 2.422 2.338.784 0 1.554-.308 2.1-.868l.504.686c-.686.672-1.596 1.05-2.688 1.05zm2.086-3.99c-.014-.994-.686-2.24-2.226-2.24-1.442 0-2.156 1.218-2.212 2.24h4.438zm8.344 3.822h-1.036v-4.424c0-1.204-.616-1.568-1.526-1.568-.826 0-1.596.504-2.002 1.05V287h-1.05v-6.762h1.05v.98c.476-.574 1.4-1.148 2.422-1.148 1.4 0 2.142.714 2.142 2.184V287zm3.836.168c-1.008 0-1.512-.574-1.512-1.582v-4.424h-1.12v-.924h1.12v-1.848h1.064v1.848h1.372v.924h-1.372v4.2c0 .504.224.868.672.868.308 0 .574-.14.714-.294l.308.798c-.266.252-.644.434-1.246.434z"/></g><path fill="#384254" fill-rule="nonzero" d="M110.48 51h-8.22V37.66h2.34v11.28h5.88V51zm6.18.24c-2.92 0-5.06-2.02-5.06-5.08 0-2.8 2.04-5.06 4.9-5.06 2.9 0 4.74 2.2 4.74 5.24v.52h-7.44c.16 1.44 1.24 2.66 3.06 2.66.96 0 2.06-.38 2.76-1.08l.96 1.38c-.98.92-2.4 1.42-3.92 1.42zm2.56-5.88c-.06-1.14-.84-2.54-2.74-2.54-1.78 0-2.62 1.38-2.7 2.54h5.44zM133.96 51h-2.2l-2.26-7.08-2.24 7.08h-2.2l-3-9.66h2.18l2.04 7.02 2.3-7.02h1.86l2.28 7.02 2.04-7.02h2.2l-3 9.66zm14.26.24c-2.46 0-4.24-.88-5.44-2.12l1.32-1.82c.9.98 2.36 1.86 4.22 1.86 1.92 0 2.66-.94 2.66-1.84 0-2.8-7.76-1.06-7.76-5.96 0-2.22 1.92-3.92 4.86-3.92 2.06 0 3.76.68 4.98 1.88l-1.32 1.74c-1.06-1.06-2.48-1.54-3.88-1.54-1.36 0-2.24.68-2.24 1.66 0 2.5 7.76.96 7.76 5.92 0 2.22-1.58 4.14-5.16 4.14zm8.3-11.08c-.72 0-1.3-.58-1.3-1.3 0-.72.58-1.3 1.3-1.3.72 0 1.3.58 1.3 1.3 0 .72-.58 1.3-1.3 1.3zM157.56 51h-2.1v-9.66h2.1V51zm4.82 0h-2.1V37.66h2.1V51zm7.52 0h-2.26l-3.94-9.66h2.26l2.82 7.24 2.82-7.24h2.24L169.9 51zm9.74.24c-2.92 0-5.06-2.02-5.06-5.08 0-2.8 2.04-5.06 4.9-5.06 2.9 0 4.74 2.2 4.74 5.24v.52h-7.44c.16 1.44 1.24 2.66 3.06 2.66.96 0 2.06-.38 2.76-1.08l.96 1.38c-.98.92-2.4 1.42-3.92 1.42zm2.56-5.88c-.06-1.14-.84-2.54-2.74-2.54-1.78 0-2.62 1.38-2.7 2.54h5.44zm6.2 5.64h-2.1v-9.66h2.1v1.4c.74-.92 1.9-1.64 3.14-1.64v2.08c-.18-.04-.38-.06-.64-.06-.9 0-2.08.6-2.5 1.3V51zm7.76.24c-1.64 0-2.48-.88-2.48-2.5v-5.58h-1.6v-1.82h1.6V38.7h2.1v2.64h1.96v1.82h-1.96v5.06c0 .66.32 1.16.92 1.16.4 0 .76-.18.92-.36l.5 1.6c-.38.34-1 .62-1.96.62zm7.84 0c-3.08 0-4.96-2.32-4.96-5.08 0-2.78 1.88-5.06 4.96-5.06s4.96 2.28 4.96 5.06c0 2.76-1.88 5.08-4.96 5.08zm0-1.86c1.8 0 2.78-1.5 2.78-3.22 0-1.7-.98-3.2-2.78-3.2-1.78 0-2.78 1.5-2.78 3.2 0 1.72 1 3.22 2.78 3.22zM219.74 51h-2.1v-6.04c0-1.52-.78-2-1.96-2-1.06 0-1.98.64-2.48 1.28V51h-2.1v-9.66h2.1v1.3c.64-.76 1.9-1.54 3.42-1.54 2.08 0 3.12 1.12 3.12 3.1V51z" mask="url(#c)"/><g fill="#384254" fill-rule="nonzero" mask="url(#c)"><path d="M105.116 73.168c-2.016 0-3.458-1.442-3.458-3.556 0-1.96 1.4-3.542 3.332-3.542 2.044 0 3.248 1.596 3.248 3.626v.266h-5.46c.084 1.274.966 2.338 2.422 2.338.784 0 1.554-.308 2.1-.868l.504.686c-.686.672-1.596 1.05-2.688 1.05zm2.086-3.99c-.014-.994-.686-2.24-2.226-2.24-1.442 0-2.156 1.218-2.212 2.24h4.438zM119.144 73h-1.05v-4.592c0-.854-.364-1.4-1.246-1.4-.7 0-1.442.49-1.792 1.036V73h-1.05v-4.592c0-.854-.35-1.4-1.246-1.4-.686 0-1.414.504-1.778 1.05V73h-1.05v-6.762h1.05v.98c.294-.434 1.19-1.148 2.198-1.148 1.022 0 1.61.56 1.806 1.26.378-.616 1.288-1.26 2.268-1.26 1.232 0 1.89.686 1.89 2.044V73zm7.378 0h-1.05v-.77c-.546.616-1.33.938-2.24.938-1.134 0-2.352-.77-2.352-2.24 0-1.526 1.204-2.226 2.352-2.226.924 0 1.694.294 2.24.91v-1.218c0-.896-.728-1.414-1.708-1.414-.812 0-1.47.28-2.072.938l-.49-.728c.728-.756 1.596-1.12 2.702-1.12 1.442 0 2.618.644 2.618 2.282V73zm-2.898-.588c.728 0 1.442-.28 1.848-.84v-1.288c-.406-.546-1.12-.826-1.848-.826-.994 0-1.68.616-1.68 1.47 0 .868.686 1.484 1.68 1.484zm5.544-7.14a.705.705 0 0 1-.714-.7c0-.392.322-.714.714-.714.392 0 .7.322.7.714 0 .392-.308.7-.7.7zm.518 7.728h-1.05v-6.762h1.05V73zm3.15 0h-1.05v-9.338h1.05V73zm2.66-5.32a.786.786 0 0 1-.77-.77c0-.42.35-.77.77-.77.42 0 .77.35.77.77 0 .406-.35.77-.77.77zm0 5.46c-.42 0-.77-.35-.77-.77 0-.42.35-.77.77-.77.42 0 .77.35.77.77 0 .42-.35.77-.77.77zm7.266-.14h-1.05v-9.338h1.05V73zm5.166.168c-2.016 0-3.458-1.442-3.458-3.556 0-1.96 1.4-3.542 3.332-3.542 2.044 0 3.248 1.596 3.248 3.626v.266h-5.46c.084 1.274.966 2.338 2.422 2.338.784 0 1.554-.308 2.1-.868l.504.686c-.686.672-1.596 1.05-2.688 1.05zm2.086-3.99c-.014-.994-.686-2.24-2.226-2.24-1.442 0-2.156 1.218-2.212 2.24h4.438zM159.66 73h-1.064l-1.764-5.432L155.068 73h-1.05l-2.156-6.762h1.092l1.652 5.39 1.778-5.39h.91l1.764 5.39 1.652-5.39h1.106L159.66 73zm7.238.98c-2.548 0-4.438-1.918-4.438-4.396 0-3.024 2.646-5.516 5.558-5.516 2.646 0 4.41 1.988 4.41 4.438 0 2.184-1.246 3.304-2.422 3.304-.784 0-1.232-.546-1.274-1.134v-.098c-.49.7-1.33 1.232-2.226 1.232-1.302 0-2.142-.924-2.142-2.282 0-1.946 1.638-3.514 3.29-3.514.91 0 1.526.49 1.792 1.092l.182-.868h.952l-.798 3.794c-.014.084-.028.21-.028.294 0 .462.294.728.658.728.546 0 1.526-.616 1.526-2.548 0-2.296-1.582-3.962-3.962-3.962-2.716 0-5.026 2.394-5.026 5.012 0 2.24 1.68 3.962 4.004 3.962.994 0 1.848-.308 2.604-.784l.252.364a5.388 5.388 0 0 1-2.912.882zm-.098-2.954c.952 0 1.666-.672 2.072-1.26l.406-1.946c-.154-.434-.616-1.022-1.442-1.022-1.4 0-2.464 1.316-2.464 2.674 0 .896.518 1.554 1.428 1.554zm9.898 4.718c-1.134 0-1.918-.224-2.73-1.022l.532-.756c.56.658 1.232.91 2.198.91 1.12 0 2.184-.546 2.184-1.974V71.88c-.504.686-1.33 1.204-2.282 1.204-1.764 0-3.01-1.316-3.01-3.5 0-2.17 1.232-3.514 3.01-3.514.91 0 1.736.448 2.282 1.19v-1.022h1.05v6.664c0 2.142-1.582 2.842-3.234 2.842zm.168-3.598c.826 0 1.638-.504 2.016-1.092v-2.968c-.378-.574-1.19-1.078-2.016-1.078-1.372 0-2.184 1.078-2.184 2.576 0 1.484.812 2.562 2.184 2.562zm8.232 1.022c-2.016 0-3.458-1.442-3.458-3.556 0-1.96 1.4-3.542 3.332-3.542 2.044 0 3.248 1.596 3.248 3.626v.266h-5.46c.084 1.274.966 2.338 2.422 2.338.784 0 1.554-.308 2.1-.868l.504.686c-.686.672-1.596 1.05-2.688 1.05zm2.086-3.99c-.014-.994-.686-2.24-2.226-2.24-1.442 0-2.156 1.218-2.212 2.24h4.438zm4.452 3.99c-1.008 0-1.512-.574-1.512-1.582v-4.424h-1.12v-.924h1.12V64.39h1.064v1.848h1.372v.924h-1.372v4.2c0 .504.224.868.672.868.308 0 .574-.14.714-.294l.308.798c-.266.252-.644.434-1.246.434zm5.348-.168h-1.148l-2.814-6.762h1.148l2.24 5.544 2.254-5.544h1.134L196.984 73zm6.972.168c-2.016 0-3.458-1.442-3.458-3.556 0-1.96 1.4-3.542 3.332-3.542 2.044 0 3.248 1.596 3.248 3.626v.266h-5.46c.084 1.274.966 2.338 2.422 2.338.784 0 1.554-.308 2.1-.868l.504.686c-.686.672-1.596 1.05-2.688 1.05zm2.086-3.99c-.014-.994-.686-2.24-2.226-2.24-1.442 0-2.156 1.218-2.212 2.24h4.438zm3.78 3.822h-1.05v-6.762h1.05v1.078c.546-.7 1.33-1.232 2.254-1.232v1.078c-.126-.014-.252-.028-.406-.028-.658 0-1.54.532-1.848 1.078V73zm6.524.168c-2.058 0-3.346-1.596-3.346-3.556s1.288-3.542 3.346-3.542 3.346 1.582 3.346 3.542c0 1.96-1.288 3.556-3.346 3.556zm0-.938c1.442 0 2.24-1.232 2.24-2.618 0-1.372-.798-2.604-2.24-2.604-1.442 0-2.24 1.232-2.24 2.604 0 1.386.798 2.618 2.24 2.618zm5.516.91c-.42 0-.77-.35-.77-.77 0-.42.35-.77.77-.77.42 0 .77.35.77.77 0 .42-.35.77-.77.77zm5.558.028c-2.016 0-3.374-1.554-3.374-3.556s1.358-3.542 3.374-3.542c1.232 0 1.96.504 2.478 1.176l-.7.63c-.448-.616-1.022-.868-1.722-.868-1.428 0-2.338 1.106-2.338 2.604s.91 2.618 2.338 2.618c.7 0 1.274-.28 1.722-.882l.7.644c-.518.672-1.246 1.176-2.478 1.176zm6.916 0c-2.058 0-3.346-1.596-3.346-3.556s1.288-3.542 3.346-3.542 3.346 1.582 3.346 3.542c0 1.96-1.288 3.556-3.346 3.556zm0-.938c1.442 0 2.24-1.232 2.24-2.618 0-1.372-.798-2.604-2.24-2.604-1.442 0-2.24 1.232-2.24 2.604 0 1.386.798 2.618 2.24 2.618zm14.266.77h-1.05v-4.592c0-.854-.364-1.4-1.246-1.4-.7 0-1.442.49-1.792 1.036V73h-1.05v-4.592c0-.854-.35-1.4-1.246-1.4-.686 0-1.414.504-1.778 1.05V73h-1.05v-6.762h1.05v.98c.294-.434 1.19-1.148 2.198-1.148 1.022 0 1.61.56 1.806 1.26.378-.616 1.288-1.26 2.268-1.26 1.232 0 1.89.686 1.89 2.044V73zm.02 1.442v.28h-68.785v-.28h68.785zm-75.67 0h.736v.28h-33.026v-.28h32.29z"/></g><circle cx="56" cy="56" r="32" fill="#055369" mask="url(#c)"/><path fill="#FFF" fill-rule="nonzero" mask="url(#c)" d="M59.416 61h-6.288V50.328h1.328v9.488h4.96z"/></g><g transform="translate(13 7)"><use fill="#000" filter="url(#d)" xlink:href="#e"/><use fill="#FFF" stroke="#8D8D8D" stroke-opacity=".24" xlink:href="#e"/><g fill-rule="nonzero"><path fill="url(#f)" d="M11.895.085c-.982.004-1.92.087-2.746.232-2.43.426-2.872 1.317-2.872 2.96v2.17h5.745v.724H4.12C2.45 6.17.99 7.166.531 9.058c-.527 2.17-.55 3.523 0 5.788.409 1.686 1.384 2.887 3.054 2.887H5.56V15.13c0-1.88 1.641-3.538 3.59-3.538h5.738c1.598 0 2.873-1.303 2.873-2.893V3.277c0-1.543-1.313-2.703-2.873-2.96a18.077 18.077 0 0 0-2.993-.232zM8.788 1.83a1.085 1.085 0 0 1 0 2.17A1.08 1.08 0 0 1 7.71 2.92c0-.6.482-1.089 1.078-1.089z" transform="translate(20.8 20.8)"/><path fill="url(#g)" d="M18.478 6.17V8.7c0 1.96-1.677 3.61-3.59 3.61H9.15c-1.571 0-2.872 1.334-2.872 2.894v5.423c0 1.543 1.354 2.45 2.872 2.893 1.82.53 3.563.626 5.74 0 1.446-.415 2.872-1.25 2.872-2.893v-2.17h-5.739v-.724h8.612c1.67 0 2.292-1.155 2.873-2.887.6-1.784.574-3.5 0-5.788-.413-1.648-1.201-2.887-2.873-2.887h-2.156zM15.25 19.904a1.08 1.08 0 0 1 1.078 1.082c0 .6-.482 1.088-1.078 1.088a1.085 1.085 0 0 1 0-2.17z" transform="translate(20.8 20.8)"/></g></g><g transform="translate(436 125)"><use fill="#000" filter="url(#h)" xlink:href="#i"/><use fill="#FFF" stroke="#8D8D8D" stroke-opacity=".24" xlink:href="#i"/><path fill="#FC0" d="M21.05 21.464l-.345-1.134h7.184l-.323 1.134h-6.517zm3.247-3.601a.796.796 0 1 1 0 1.593.796.796 0 0 1 0-1.593zm3.592 10.407h-7.184l.344-1.134h6.517l.323 1.134zm-3.592 2.467a.797.797 0 1 1 0-1.593.797.797 0 0 1 0 1.593zm8.103-8.139V16.2H16.2v8.667h11.135v1.135H16.2V32.4h16.2v-8.667H21.265v-1.135H32.4z"/></g><g transform="translate(45 145)"><use fill="#000" filter="url(#j)" xlink:href="#k"/><use fill="#FFF" stroke="#8D8D8D" stroke-opacity=".24" xlink:href="#k"/><g fill="#000"><path fill-rule="nonzero" d="M13.974 19.646h2.996c.88.008 1.516.27 1.912.786.395.516.525 1.221.39 2.115-.051.409-.167.81-.346 1.203-.171.393-.41.747-.715 1.063-.373.4-.772.655-1.196.763a5.335 5.335 0 0 1-1.32.162h-1.341l-.425 2.196h-1.554l1.599-8.288m1.308 1.318l-.671 3.468c.045.007.09.011.134.011h.157c.715.008 1.311-.065 1.788-.22.477-.161.798-.724.962-1.687.134-.81 0-1.276-.403-1.399-.395-.123-.89-.18-1.487-.173a3.295 3.295 0 0 1-.257.011h-.234l.01-.011"/><path d="M21.043 17.438h1.543l-.436 2.208h1.386c.76.015 1.327.177 1.7.485.38.309.491.895.335 1.758l-.75 3.849h-1.564l.715-3.676c.075-.385.052-.659-.067-.82-.12-.163-.376-.244-.771-.244l-1.241-.011-.917 4.751h-1.543l1.61-8.3"/><path fill-rule="nonzero" d="M27.228 19.646h2.996c.88.008 1.516.27 1.911.786.396.516.526 1.221.392 2.115-.052.409-.168.81-.347 1.203-.171.393-.41.747-.715 1.063-.373.4-.772.655-1.197.763a5.335 5.335 0 0 1-1.319.162h-1.341l-.425 2.196h-1.554l1.599-8.288m1.308 1.318l-.671 3.468c.044.007.09.011.134.011h.156c.716.008 1.312-.065 1.79-.22.476-.161.797-.724.96-1.687.135-.81 0-1.276-.402-1.399-.395-.123-.89-.18-1.487-.173-.09.007-.175.011-.257.011h-.235l.012-.011"/></g></g><g transform="translate(388 252)"><use fill="#000" filter="url(#l)" xlink:href="#m"/><use fill="#FFF" stroke="#8D8D8D" stroke-opacity=".24" xlink:href="#m"/><path fill="#F7DF1E" d="M20.8 20.8H44V44H20.8z"/><path fill="#000" d="M26.9 40.188l1.776-1.075c.342.607.654 1.121 1.401 1.121.716 0 1.168-.28 1.168-1.37v-7.413h2.18v7.444c0 2.258-1.323 3.286-3.255 3.286-1.744 0-2.756-.904-3.27-1.994m7.71-.233l1.775-1.028c.467.763 1.074 1.324 2.149 1.324.903 0 1.48-.452 1.48-1.075 0-.747-.592-1.012-1.59-1.448l-.544-.234c-1.573-.67-2.617-1.51-2.617-3.285 0-1.636 1.246-2.882 3.193-2.882 1.386 0 2.383.483 3.1 1.745l-1.698 1.09c-.374-.67-.779-.935-1.402-.935-.638 0-1.043.405-1.043.935 0 .654.405.919 1.339 1.324l.545.233c1.853.794 2.897 1.604 2.897 3.426 0 1.962-1.542 3.037-3.613 3.037-2.025 0-3.333-.966-3.971-2.227"/></g><g transform="translate(12 248)"><use fill="#000" filter="url(#n)" xlink:href="#o"/><use fill="#FFF" stroke="#8D8D8D" stroke-opacity=".24" xlink:href="#o"/><path fill="#43AE7A" d="M43.768 45.09H26.446A1.45 1.45 0 0 1 25 43.635a1.45 1.45 0 0 1 1.446-1.454h17.322a1.45 1.45 0 0 1 1.446 1.454 1.45 1.45 0 0 1-1.446 1.455M40.054 54c-1.41 0-2.805-.211-4.142-.628a1.456 1.456 0 0 1-.953-1.82 1.445 1.445 0 0 1 1.809-.959c1.06.33 2.165.498 3.286.498 4.906 0 9.166-3.167 10.6-7.881a1.442 1.442 0 0 1 1.806-.965 1.456 1.456 0 0 1 .959 1.816C51.61 50.006 46.239 54 40.054 54m13.473-16.364H36.205a1.45 1.45 0 0 1-1.446-1.454 1.45 1.45 0 0 1 1.446-1.455h17.322a1.45 1.45 0 0 1 1.446 1.455 1.45 1.45 0 0 1-1.446 1.454m-25.635.184a1.456 1.456 0 0 1-1.383-1.88c1.81-5.946 7.18-9.94 13.365-9.94 1.412 0 2.806.211 4.143.628a1.456 1.456 0 0 1 .952 1.82 1.442 1.442 0 0 1-1.809.959 11.028 11.028 0 0 0-3.286-.498c-4.905 0-9.165 3.167-10.6 7.882a1.448 1.448 0 0 1-1.382 1.029m22.047-7.093a1.45 1.45 0 0 1-1.445 1.454 1.45 1.45 0 0 1-1.446-1.454 1.45 1.45 0 0 1 1.446-1.454c.798 0 1.445.65 1.445 1.454M32.951 49.273a1.45 1.45 0 0 1-1.445 1.454 1.45 1.45 0 0 1-1.446-1.454 1.45 1.45 0 0 1 1.446-1.455 1.45 1.45 0 0 1 1.445 1.455"/></g><g transform="translate(138 376)"><use fill="#000" filter="url(#p)" xlink:href="#q"/><use fill="#FFF" stroke="#8D8D8D" stroke-opacity=".24" xlink:href="#q"/><path fill="#384254" fill-rule="nonzero" d="M32.064 35h-1.596l-.588-1.548h-3.672L25.62 35h-1.596l3.144-8.004h1.752L32.064 35zm-2.58-2.784l-1.44-3.816-1.44 3.816h2.88zm6.876 2.928c-2.364 0-4.2-1.68-4.2-4.14 0-2.472 1.836-4.14 4.2-4.14 1.608 0 2.616.828 3.204 1.788l-1.188.624a2.366 2.366 0 0 0-2.016-1.164c-1.584 0-2.76 1.2-2.76 2.892 0 1.668 1.176 2.892 2.76 2.892.852 0 1.632-.504 2.016-1.164l1.2.6c-.612.96-1.608 1.812-3.216 1.812zM44.004 35H42.6v-6.768h-2.424v-1.236h6.252v1.236h-2.424V35zm5.016 0h-1.404v-8.004h1.404V35zm5.772 0H53.04l-3.144-8.004h1.596l2.424 6.468 2.424-6.468h1.596L54.792 35zm5.412 0H58.8v-8.004h1.404V35zm5.016 0h-1.404v-6.768h-2.424v-1.236h6.252v1.236H65.22V35zm7.296 0h-1.404v-3.324l-3.108-4.68h1.608l2.196 3.42 2.196-3.42h1.608l-3.096 4.68V35zm206.648 0h-1.404v-6.768h-2.424v-1.236h6.252v1.236h-2.424V35zm5.016 0h-1.404v-8.004h1.404V35zm10.02 0h-1.404v-6.18L290.348 35h-.6l-2.46-6.18V35h-1.404v-8.004h1.98l2.184 5.496 2.172-5.496h1.98V35zm7.188 0h-5.484v-8.004h5.484v1.236h-4.08v2.064h3.996v1.236h-3.996v2.232h4.08V35z" opacity=".5"/><path fill="#384254" fill-rule="nonzero" d="M66.392 109h-6.398v-9.338h6.398v1.442h-4.76v2.408h4.662v1.442h-4.662v2.604h4.76V109zm4.998 0h-1.582l-2.758-6.762h1.582l1.974 5.068 1.974-5.068h1.568L71.39 109zm6.818.168c-2.044 0-3.542-1.414-3.542-3.556 0-1.96 1.428-3.542 3.43-3.542 2.03 0 3.318 1.54 3.318 3.668v.364h-5.208c.112 1.008.868 1.862 2.142 1.862.672 0 1.442-.266 1.932-.756l.672.966c-.686.644-1.68.994-2.744.994zM80 105.052c-.042-.798-.588-1.778-1.918-1.778-1.246 0-1.834.966-1.89 1.778H80zM88.918 109h-1.47v-4.228c0-1.064-.546-1.4-1.372-1.4-.742 0-1.386.448-1.736.896V109h-1.47v-6.762h1.47v.91c.448-.532 1.33-1.078 2.394-1.078 1.456 0 2.184.784 2.184 2.17V109zm3.948.168c-1.148 0-1.736-.616-1.736-1.75v-3.906h-1.12v-1.274h1.12v-1.848h1.47v1.848h1.372v1.274H92.6v3.542c0 .462.224.812.644.812.28 0 .532-.126.644-.252l.35 1.12c-.266.238-.7.434-1.372.434zm3.192-5.082c-.532 0-.98-.448-.98-.966 0-.532.448-.98.98-.98s.98.448.98.98c0 .518-.448.966-.98.966zm0 5.068c-.532 0-.98-.462-.98-.994 0-.518.448-.966.98-.966s.98.448.98.966c0 .532-.448.994-.98.994zm7.308-.154h-1.05v-9.338h1.05V109zm5.054.168c-2.058 0-3.346-1.596-3.346-3.556s1.288-3.542 3.346-3.542 3.346 1.582 3.346 3.542c0 1.96-1.288 3.556-3.346 3.556zm0-.938c1.442 0 2.24-1.232 2.24-2.618 0-1.372-.798-2.604-2.24-2.604-1.442 0-2.24 1.232-2.24 2.604 0 1.386.798 2.618 2.24 2.618zm7.77 3.514c-1.134 0-1.918-.224-2.73-1.022l.532-.756c.56.658 1.232.91 2.198.91 1.12 0 2.184-.546 2.184-1.974v-1.022c-.504.686-1.33 1.204-2.282 1.204-1.764 0-3.01-1.316-3.01-3.5 0-2.17 1.232-3.514 3.01-3.514.91 0 1.736.448 2.282 1.19v-1.022h1.05v6.664c0 2.142-1.582 2.842-3.234 2.842zm.168-3.598c.826 0 1.638-.504 2.016-1.092v-2.968c-.378-.574-1.19-1.078-2.016-1.078-1.372 0-2.184 1.078-2.184 2.576 0 1.484.812 2.562 2.184 2.562zm7.882 3.598c-1.134 0-1.918-.224-2.73-1.022l.532-.756c.56.658 1.232.91 2.198.91 1.12 0 2.184-.546 2.184-1.974v-1.022c-.504.686-1.33 1.204-2.282 1.204-1.764 0-3.01-1.316-3.01-3.5 0-2.17 1.232-3.514 3.01-3.514.91 0 1.736.448 2.282 1.19v-1.022h1.05v6.664c0 2.142-1.582 2.842-3.234 2.842zm.168-3.598c.826 0 1.638-.504 2.016-1.092v-2.968c-.378-.574-1.19-1.078-2.016-1.078-1.372 0-2.184 1.078-2.184 2.576 0 1.484.812 2.562 2.184 2.562zm8.232 1.022c-2.016 0-3.458-1.442-3.458-3.556 0-1.96 1.4-3.542 3.332-3.542 2.044 0 3.248 1.596 3.248 3.626v.266h-5.46c.084 1.274.966 2.338 2.422 2.338.784 0 1.554-.308 2.1-.868l.504.686c-.686.672-1.596 1.05-2.688 1.05zm2.086-3.99c-.014-.994-.686-2.24-2.226-2.24-1.442 0-2.156 1.218-2.212 2.24h4.438zm8.68 3.822h-1.05v-1.008c-.504.686-1.33 1.176-2.282 1.176-1.764 0-3.01-1.344-3.01-3.542 0-2.17 1.246-3.556 3.01-3.556.91 0 1.736.448 2.282 1.19v-3.598h1.05V109zm-3.066-.77c.826 0 1.652-.49 2.016-1.078V104.1c-.364-.588-1.19-1.092-2.016-1.092-1.372 0-2.184 1.12-2.184 2.618 0 1.498.812 2.604 2.184 2.604zm12.054 2.1h-7.98v-.77h7.98v.77zm1.54-9.058a.705.705 0 0 1-.714-.7c0-.392.322-.714.714-.714.392 0 .7.322.7.714 0 .392-.308.7-.7.7zm.518 7.728h-1.05v-6.762h1.05V109zm7.714 0h-1.036v-4.424c0-1.204-.616-1.568-1.526-1.568-.826 0-1.596.504-2.002 1.05V109h-1.05v-6.762h1.05v.98c.476-.574 1.4-1.148 2.422-1.148 1.4 0 2.142.714 2.142 2.184V109z"/><path fill="#384254" fill-opacity=".5" fill-rule="nonzero" d="M238.44 109.168c-1.568 0-2.59-.574-3.29-1.498l.714-.784c.616.798 1.442 1.246 2.576 1.246 1.274 0 2.156-.868 2.156-2.002 0-1.232-.882-2.016-2.142-2.016-.812 0-1.526.266-2.156.868l-.854-.294v-5.026h5.712v1.036h-4.55v3.248c.462-.448 1.246-.84 2.184-.84 1.568 0 2.982 1.05 2.982 2.982 0 1.89-1.456 3.08-3.332 3.08zm14.672-.168h-1.05v-1.008c-.504.686-1.33 1.176-2.282 1.176-1.764 0-3.01-1.344-3.01-3.542 0-2.17 1.246-3.556 3.01-3.556.91 0 1.736.448 2.282 1.19v-3.598h1.05V109zm-3.066-.77c.826 0 1.652-.49 2.016-1.078V104.1c-.364-.588-1.19-1.092-2.016-1.092-1.372 0-2.184 1.12-2.184 2.618 0 1.498.812 2.604 2.184 2.604zm10.444.77h-1.05v-.77c-.546.616-1.33.938-2.24.938-1.134 0-2.352-.77-2.352-2.24 0-1.526 1.204-2.226 2.352-2.226.924 0 1.694.294 2.24.91v-1.218c0-.896-.728-1.414-1.708-1.414-.812 0-1.47.28-2.072.938l-.49-.728c.728-.756 1.596-1.12 2.702-1.12 1.442 0 2.618.644 2.618 2.282V109zm-2.898-.588c.728 0 1.442-.28 1.848-.84v-1.288c-.406-.546-1.12-.826-1.848-.826-.994 0-1.68.616-1.68 1.47 0 .868.686 1.484 1.68 1.484zm4.648 3.234l.154-.952c.154.07.406.112.574.112.462 0 .77-.154 1.008-.714l.448-1.022-2.828-6.832h1.148l2.24 5.544 2.254-5.544h1.134l-3.388 8.134c-.406.98-1.092 1.358-1.988 1.372-.224 0-.574-.042-.756-.098zm9.38-2.478c-1.12 0-2.044-.35-2.73-1.064l.532-.756c.448.518 1.302.966 2.226.966 1.036 0 1.61-.49 1.61-1.162 0-1.638-4.186-.63-4.186-3.136 0-1.064.896-1.946 2.506-1.946 1.162 0 1.974.434 2.506.98l-.49.728c-.406-.49-1.134-.854-2.016-.854-.924 0-1.498.462-1.498 1.064 0 1.47 4.186.504 4.186 3.136 0 1.134-.91 2.044-2.646 2.044zm13.258-.168h-1.05v-.77c-.546.616-1.33.938-2.24.938-1.134 0-2.352-.77-2.352-2.24 0-1.526 1.204-2.226 2.352-2.226.924 0 1.694.294 2.24.91v-1.218c0-.896-.728-1.414-1.708-1.414-.812 0-1.47.28-2.072.938l-.49-.728c.728-.756 1.596-1.12 2.702-1.12 1.442 0 2.618.644 2.618 2.282V109zm-2.898-.588c.728 0 1.442-.28 1.848-.84v-1.288c-.406-.546-1.12-.826-1.848-.826-.994 0-1.68.616-1.68 1.47 0 .868.686 1.484 1.68 1.484zm7.728 3.332c-1.134 0-1.918-.224-2.73-1.022l.532-.756c.56.658 1.232.91 2.198.91 1.12 0 2.184-.546 2.184-1.974v-1.022c-.504.686-1.33 1.204-2.282 1.204-1.764 0-3.01-1.316-3.01-3.5 0-2.17 1.232-3.514 3.01-3.514.91 0 1.736.448 2.282 1.19v-1.022h1.05v6.664c0 2.142-1.582 2.842-3.234 2.842zm.168-3.598c.826 0 1.638-.504 2.016-1.092v-2.968c-.378-.574-1.19-1.078-2.016-1.078-1.372 0-2.184 1.078-2.184 2.576 0 1.484.812 2.562 2.184 2.562zm8.12 1.022c-2.058 0-3.346-1.596-3.346-3.556s1.288-3.542 3.346-3.542 3.346 1.582 3.346 3.542c0 1.96-1.288 3.556-3.346 3.556zm0-.938c1.442 0 2.24-1.232 2.24-2.618 0-1.372-.798-2.604-2.24-2.604-1.442 0-2.24 1.232-2.24 2.604 0 1.386.798 2.618 2.24 2.618z"/><path fill="#01B2D0" d="M42.88 107.616c.814 1.14 1.826.98 2.256-.347l2.642-8.158c.43-1.331-.211-1.841-1.421-1.146l-7.229 4.152c-1.216.698-1.178 1.763.074 2.374l1.136.553-2.773 3.425a1.25 1.25 0 0 0 .156 1.734l-.063-.053a1.18 1.18 0 0 0 1.693-.165l2.773-3.425.755 1.056z"/><g fill-rule="nonzero"><path fill="#384254" d="M66.392 149h-6.398v-9.338h6.398v1.442h-4.76v2.408h4.662v1.442h-4.662v2.604h4.76V149zm4.998 0h-1.582l-2.758-6.762h1.582l1.974 5.068 1.974-5.068h1.568L71.39 149zm6.818.168c-2.044 0-3.542-1.414-3.542-3.556 0-1.96 1.428-3.542 3.43-3.542 2.03 0 3.318 1.54 3.318 3.668v.364h-5.208c.112 1.008.868 1.862 2.142 1.862.672 0 1.442-.266 1.932-.756l.672.966c-.686.644-1.68.994-2.744.994zM80 145.052c-.042-.798-.588-1.778-1.918-1.778-1.246 0-1.834.966-1.89 1.778H80zM88.918 149h-1.47v-4.228c0-1.064-.546-1.4-1.372-1.4-.742 0-1.386.448-1.736.896V149h-1.47v-6.762h1.47v.91c.448-.532 1.33-1.078 2.394-1.078 1.456 0 2.184.784 2.184 2.17V149zm3.948.168c-1.148 0-1.736-.616-1.736-1.75v-3.906h-1.12v-1.274h1.12v-1.848h1.47v1.848h1.372v1.274H92.6v3.542c0 .462.224.812.644.812.28 0 .532-.126.644-.252l.35 1.12c-.266.238-.7.434-1.372.434zm3.192-5.082c-.532 0-.98-.448-.98-.966 0-.532.448-.98.98-.98s.98.448.98.98c0 .518-.448.966-.98.966zm0 5.068c-.532 0-.98-.462-.98-.994 0-.518.448-.966.98-.966s.98.448.98.966c0 .532-.448.994-.98.994zm9.59.014c-.924 0-1.722-.448-2.282-1.19v3.598h-1.05v-9.338h1.05v1.008a2.827 2.827 0 0 1 2.282-1.176c1.778 0 3.01 1.344 3.01 3.542 0 2.184-1.232 3.556-3.01 3.556zm-.266-.938c1.358 0 2.17-1.12 2.17-2.618 0-1.498-.812-2.604-2.17-2.604-.826 0-1.652.49-2.016 1.078v3.052c.364.588 1.19 1.092 2.016 1.092zm10.22.77h-1.05v-.77c-.546.616-1.33.938-2.24.938-1.134 0-2.352-.77-2.352-2.24 0-1.526 1.204-2.226 2.352-2.226.924 0 1.694.294 2.24.91v-1.218c0-.896-.728-1.414-1.708-1.414-.812 0-1.47.28-2.072.938l-.49-.728c.728-.756 1.596-1.12 2.702-1.12 1.442 0 2.618.644 2.618 2.282V149zm-2.898-.588c.728 0 1.442-.28 1.848-.84v-1.288c-.406-.546-1.12-.826-1.848-.826-.994 0-1.68.616-1.68 1.47 0 .868.686 1.484 1.68 1.484zm5.544-7.14a.705.705 0 0 1-.714-.7c0-.392.322-.714.714-.714.392 0 .7.322.7.714 0 .392-.308.7-.7.7zm.518 7.728h-1.05v-6.762h1.05V149zm8.05 0h-1.05v-1.008c-.504.686-1.33 1.176-2.282 1.176-1.764 0-3.01-1.344-3.01-3.542 0-2.17 1.246-3.556 3.01-3.556.91 0 1.736.448 2.282 1.19v-3.598h1.05V149zm-3.066-.77c.826 0 1.652-.49 2.016-1.078V144.1c-.364-.588-1.19-1.092-2.016-1.092-1.372 0-2.184 1.12-2.184 2.618 0 1.498.812 2.604 2.184 2.604zm12.054 2.1h-7.98v-.77h7.98v.77zm3.164-1.162c-1.12 0-2.044-.35-2.73-1.064l.532-.756c.448.518 1.302.966 2.226.966 1.036 0 1.61-.49 1.61-1.162 0-1.638-4.186-.63-4.186-3.136 0-1.064.896-1.946 2.506-1.946 1.162 0 1.974.434 2.506.98l-.49.728c-.406-.49-1.134-.854-2.016-.854-.924 0-1.498.462-1.498 1.064 0 1.47 4.186.504 4.186 3.136 0 1.134-.91 2.044-2.646 2.044zm9.968-.168h-1.05v-.952c-.518.588-1.4 1.12-2.408 1.12-1.414 0-2.156-.7-2.156-2.156v-4.774h1.05v4.452c0 1.19.602 1.54 1.526 1.54.812 0 1.596-.476 1.988-1.022v-4.97h1.05V149zm3.15-1.834c.364.588 1.19 1.064 2.03 1.064 1.358 0 2.17-1.106 2.17-2.604s-.812-2.618-2.17-2.618c-.84 0-1.666.504-2.03 1.092v3.066zm0 1.834h-1.05v-9.338h1.05v3.598c.546-.742 1.372-1.19 2.282-1.19 1.778 0 3.01 1.386 3.01 3.556 0 2.198-1.246 3.542-3.01 3.542-.952 0-1.778-.49-2.282-1.176V149zm9.156.168c-1.12 0-2.044-.35-2.73-1.064l.532-.756c.448.518 1.302.966 2.226.966 1.036 0 1.61-.49 1.61-1.162 0-1.638-4.186-.63-4.186-3.136 0-1.064.896-1.946 2.506-1.946 1.162 0 1.974.434 2.506.98l-.49.728c-.406-.49-1.134-.854-2.016-.854-.924 0-1.498.462-1.498 1.064 0 1.47 4.186.504 4.186 3.136 0 1.134-.91 2.044-2.646 2.044zm7.336 0c-2.016 0-3.374-1.554-3.374-3.556s1.358-3.542 3.374-3.542c1.232 0 1.96.504 2.478 1.176l-.7.63c-.448-.616-1.022-.868-1.722-.868-1.428 0-2.338 1.106-2.338 2.604s.91 2.618 2.338 2.618c.7 0 1.274-.28 1.722-.882l.7.644c-.518.672-1.246 1.176-2.478 1.176zm5.012-.168h-1.05v-6.762h1.05v1.078c.546-.7 1.33-1.232 2.254-1.232v1.078c-.126-.014-.252-.028-.406-.028-.658 0-1.54.532-1.848 1.078V149zm4.102-7.728a.705.705 0 0 1-.714-.7c0-.392.322-.714.714-.714.392 0 .7.322.7.714 0 .392-.308.7-.7.7zm.518 7.728h-1.05v-6.762h1.05V149zm5.432.168c-.924 0-1.722-.448-2.282-1.19v3.598h-1.05v-9.338h1.05v1.008a2.827 2.827 0 0 1 2.282-1.176c1.778 0 3.01 1.344 3.01 3.542 0 2.184-1.232 3.556-3.01 3.556zm-.266-.938c1.358 0 2.17-1.12 2.17-2.618 0-1.498-.812-2.604-2.17-2.604-.826 0-1.652.49-2.016 1.078v3.052c.364.588 1.19 1.092 2.016 1.092zm6.664.938c-1.008 0-1.512-.574-1.512-1.582v-4.424h-1.12v-.924h1.12v-1.848h1.064v1.848h1.372v.924h-1.372v4.2c0 .504.224.868.672.868.308 0 .574-.14.714-.294l.308.798c-.266.252-.644.434-1.246.434zm2.926-7.896a.705.705 0 0 1-.714-.7c0-.392.322-.714.714-.714.392 0 .7.322.7.714 0 .392-.308.7-.7.7zm.518 7.728h-1.05v-6.762h1.05V149zm5.054.168c-2.058 0-3.346-1.596-3.346-3.556s1.288-3.542 3.346-3.542 3.346 1.582 3.346 3.542c0 1.96-1.288 3.556-3.346 3.556zm0-.938c1.442 0 2.24-1.232 2.24-2.618 0-1.372-.798-2.604-2.24-2.604-1.442 0-2.24 1.232-2.24 2.604 0 1.386.798 2.618 2.24 2.618zm10.668.77h-1.036v-4.424c0-1.204-.616-1.568-1.526-1.568-.826 0-1.596.504-2.002 1.05V149h-1.05v-6.762h1.05v.98c.476-.574 1.4-1.148 2.422-1.148 1.4 0 2.142.714 2.142 2.184V149z"/><path fill="#384254" fill-opacity=".5" d="M238.44 149.168c-1.568 0-2.59-.574-3.29-1.498l.714-.784c.616.798 1.442 1.246 2.576 1.246 1.274 0 2.156-.868 2.156-2.002 0-1.232-.882-2.016-2.142-2.016-.812 0-1.526.266-2.156.868l-.854-.294v-5.026h5.712v1.036h-4.55v3.248c.462-.448 1.246-.84 2.184-.84 1.568 0 2.982 1.05 2.982 2.982 0 1.89-1.456 3.08-3.332 3.08zm14.672-.168h-1.05v-1.008c-.504.686-1.33 1.176-2.282 1.176-1.764 0-3.01-1.344-3.01-3.542 0-2.17 1.246-3.556 3.01-3.556.91 0 1.736.448 2.282 1.19v-3.598h1.05V149zm-3.066-.77c.826 0 1.652-.49 2.016-1.078V144.1c-.364-.588-1.19-1.092-2.016-1.092-1.372 0-2.184 1.12-2.184 2.618 0 1.498.812 2.604 2.184 2.604zm10.444.77h-1.05v-.77c-.546.616-1.33.938-2.24.938-1.134 0-2.352-.77-2.352-2.24 0-1.526 1.204-2.226 2.352-2.226.924 0 1.694.294 2.24.91v-1.218c0-.896-.728-1.414-1.708-1.414-.812 0-1.47.28-2.072.938l-.49-.728c.728-.756 1.596-1.12 2.702-1.12 1.442 0 2.618.644 2.618 2.282V149zm-2.898-.588c.728 0 1.442-.28 1.848-.84v-1.288c-.406-.546-1.12-.826-1.848-.826-.994 0-1.68.616-1.68 1.47 0 .868.686 1.484 1.68 1.484zm4.648 3.234l.154-.952c.154.07.406.112.574.112.462 0 .77-.154 1.008-.714l.448-1.022-2.828-6.832h1.148l2.24 5.544 2.254-5.544h1.134l-3.388 8.134c-.406.98-1.092 1.358-1.988 1.372-.224 0-.574-.042-.756-.098zm9.38-2.478c-1.12 0-2.044-.35-2.73-1.064l.532-.756c.448.518 1.302.966 2.226.966 1.036 0 1.61-.49 1.61-1.162 0-1.638-4.186-.63-4.186-3.136 0-1.064.896-1.946 2.506-1.946 1.162 0 1.974.434 2.506.98l-.49.728c-.406-.49-1.134-.854-2.016-.854-.924 0-1.498.462-1.498 1.064 0 1.47 4.186.504 4.186 3.136 0 1.134-.91 2.044-2.646 2.044zm13.258-.168h-1.05v-.77c-.546.616-1.33.938-2.24.938-1.134 0-2.352-.77-2.352-2.24 0-1.526 1.204-2.226 2.352-2.226.924 0 1.694.294 2.24.91v-1.218c0-.896-.728-1.414-1.708-1.414-.812 0-1.47.28-2.072.938l-.49-.728c.728-.756 1.596-1.12 2.702-1.12 1.442 0 2.618.644 2.618 2.282V149zm-2.898-.588c.728 0 1.442-.28 1.848-.84v-1.288c-.406-.546-1.12-.826-1.848-.826-.994 0-1.68.616-1.68 1.47 0 .868.686 1.484 1.68 1.484zm7.728 3.332c-1.134 0-1.918-.224-2.73-1.022l.532-.756c.56.658 1.232.91 2.198.91 1.12 0 2.184-.546 2.184-1.974v-1.022c-.504.686-1.33 1.204-2.282 1.204-1.764 0-3.01-1.316-3.01-3.5 0-2.17 1.232-3.514 3.01-3.514.91 0 1.736.448 2.282 1.19v-1.022h1.05v6.664c0 2.142-1.582 2.842-3.234 2.842zm.168-3.598c.826 0 1.638-.504 2.016-1.092v-2.968c-.378-.574-1.19-1.078-2.016-1.078-1.372 0-2.184 1.078-2.184 2.576 0 1.484.812 2.562 2.184 2.562zm8.12 1.022c-2.058 0-3.346-1.596-3.346-3.556s1.288-3.542 3.346-3.542 3.346 1.582 3.346 3.542c0 1.96-1.288 3.556-3.346 3.556zm0-.938c1.442 0 2.24-1.232 2.24-2.618 0-1.372-.798-2.604-2.24-2.604-1.442 0-2.24 1.232-2.24 2.604 0 1.386.798 2.618 2.24 2.618z"/><path fill="#01B2D0" d="M48.846 144.124c.346-.368.071-.952-.447-.952h-3.863l1.796-5.426c.194-.586-.589-1.01-1.02-.552l-8.158 8.682c-.346.368-.071.952.447.952h3.86l-1.793 5.426c-.194.586.589 1.01 1.02.552l8.158-8.682z"/></g><path fill="#9D9D9D" opacity=".06" d="M24 46h291v38H24z"/><g fill-rule="nonzero"><path fill="#384254" d="M64.488 69.168c-2.758 0-4.9-1.96-4.9-4.83 0-2.884 2.142-4.83 4.9-4.83 1.876 0 3.052.966 3.738 2.086l-1.386.728a2.76 2.76 0 0 0-2.352-1.358c-1.848 0-3.22 1.4-3.22 3.374 0 1.946 1.372 3.374 3.22 3.374.994 0 1.904-.588 2.352-1.358l1.4.7c-.714 1.12-1.876 2.114-3.752 2.114zM70.97 69H69.5v-9.338h1.47V69zm2.646-7.588a.908.908 0 0 1-.91-.91c0-.504.406-.91.91-.91s.91.406.91.91-.406.91-.91.91zM74.344 69h-1.47v-6.762h1.47V69zm4.984.168c-2.044 0-3.486-1.512-3.486-3.556s1.442-3.542 3.486-3.542c1.33 0 2.114.56 2.59 1.204l-.966.882c-.378-.532-.896-.784-1.554-.784-1.218 0-2.044.924-2.044 2.24 0 1.316.826 2.254 2.044 2.254.658 0 1.176-.28 1.554-.812l.966.91c-.476.63-1.26 1.204-2.59 1.204zM89.548 69H87.7l-2.058-2.8-.952.98V69h-1.47v-9.338h1.47V65.5l2.982-3.262h1.82l-2.8 3.066L89.548 69zm4.116.168c-2.044 0-3.542-1.414-3.542-3.556 0-1.96 1.428-3.542 3.43-3.542 2.03 0 3.318 1.54 3.318 3.668v.364h-5.208c.112 1.008.868 1.862 2.142 1.862.672 0 1.442-.266 1.932-.756l.672.966c-.686.644-1.68.994-2.744.994zm1.792-4.116c-.042-.798-.588-1.778-1.918-1.778-1.246 0-1.834.966-1.89 1.778h3.808zm9.1 3.948h-1.47v-.924c-.518.672-1.288 1.092-2.17 1.092-1.722 0-2.996-1.316-2.996-3.556 0-2.184 1.26-3.542 2.996-3.542.854 0 1.638.378 2.17 1.106v-3.514h1.47V69zm-3.206-1.134c.686 0 1.414-.406 1.736-.91v-2.674c-.322-.504-1.05-.91-1.736-.91-1.176 0-1.918.938-1.918 2.24 0 1.316.742 2.254 1.918 2.254zm5.88-3.78c-.532 0-.98-.448-.98-.966 0-.532.448-.98.98-.98s.98.448.98.98c0 .518-.448.966-.98.966zm0 5.068c-.532 0-.98-.462-.98-.994 0-.518.448-.966.98-.966s.98.448.98.966c0 .532-.448.994-.98.994zM120.404 69h-1.064l-1.764-5.432L115.812 69h-1.05l-2.156-6.762h1.092l1.652 5.39 1.778-5.39h.91l1.764 5.39 1.652-5.39h1.106L120.404 69zm6.426.168c-2.016 0-3.458-1.442-3.458-3.556 0-1.96 1.4-3.542 3.332-3.542 2.044 0 3.248 1.596 3.248 3.626v.266h-5.46c.084 1.274.966 2.338 2.422 2.338.784 0 1.554-.308 2.1-.868l.504.686c-.686.672-1.596 1.05-2.688 1.05zm2.086-3.99c-.014-.994-.686-2.24-2.226-2.24-1.442 0-2.156 1.218-2.212 2.24h4.438zm3.78 3.822h-1.05v-9.338h1.05V69zm5.082.168c-2.016 0-3.374-1.554-3.374-3.556s1.358-3.542 3.374-3.542c1.232 0 1.96.504 2.478 1.176l-.7.63c-.448-.616-1.022-.868-1.722-.868-1.428 0-2.338 1.106-2.338 2.604s.91 2.618 2.338 2.618c.7 0 1.274-.28 1.722-.882l.7.644c-.518.672-1.246 1.176-2.478 1.176zm6.916 0c-2.058 0-3.346-1.596-3.346-3.556s1.288-3.542 3.346-3.542 3.346 1.582 3.346 3.542c0 1.96-1.288 3.556-3.346 3.556zm0-.938c1.442 0 2.24-1.232 2.24-2.618 0-1.372-.798-2.604-2.24-2.604-1.442 0-2.24 1.232-2.24 2.604 0 1.386.798 2.618 2.24 2.618zm14.266.77h-1.05v-4.592c0-.854-.364-1.4-1.246-1.4-.7 0-1.442.49-1.792 1.036V69h-1.05v-4.592c0-.854-.35-1.4-1.246-1.4-.686 0-1.414.504-1.778 1.05V69h-1.05v-6.762h1.05v.98c.294-.434 1.19-1.148 2.198-1.148 1.022 0 1.61.56 1.806 1.26.378-.616 1.288-1.26 2.268-1.26 1.232 0 1.89.686 1.89 2.044V69zm5.166.168c-2.016 0-3.458-1.442-3.458-3.556 0-1.96 1.4-3.542 3.332-3.542 2.044 0 3.248 1.596 3.248 3.626v.266h-5.46c.084 1.274.966 2.338 2.422 2.338.784 0 1.554-.308 2.1-.868l.504.686c-.686.672-1.596 1.05-2.688 1.05zm2.086-3.99c-.014-.994-.686-2.24-2.226-2.24-1.442 0-2.156 1.218-2.212 2.24h4.438zm9.618 5.152h-7.98v-.77h7.98v.77zm4.074-1.162c-2.016 0-3.458-1.442-3.458-3.556 0-1.96 1.4-3.542 3.332-3.542 2.044 0 3.248 1.596 3.248 3.626v.266h-5.46c.084 1.274.966 2.338 2.422 2.338.784 0 1.554-.308 2.1-.868l.504.686c-.686.672-1.596 1.05-2.688 1.05zm2.086-3.99c-.014-.994-.686-2.24-2.226-2.24-1.442 0-2.156 1.218-2.212 2.24h4.438zM193.932 69h-1.05v-4.592c0-.854-.364-1.4-1.246-1.4-.7 0-1.442.49-1.792 1.036V69h-1.05v-4.592c0-.854-.35-1.4-1.246-1.4-.686 0-1.414.504-1.778 1.05V69h-1.05v-6.762h1.05v.98c.294-.434 1.19-1.148 2.198-1.148 1.022 0 1.61.56 1.806 1.26.378-.616 1.288-1.26 2.268-1.26 1.232 0 1.89.686 1.89 2.044V69zm7.378 0h-1.05v-.77c-.546.616-1.33.938-2.24.938-1.134 0-2.352-.77-2.352-2.24 0-1.526 1.204-2.226 2.352-2.226.924 0 1.694.294 2.24.91v-1.218c0-.896-.728-1.414-1.708-1.414-.812 0-1.47.28-2.072.938l-.49-.728c.728-.756 1.596-1.12 2.702-1.12 1.442 0 2.618.644 2.618 2.282V69zm-2.898-.588c.728 0 1.442-.28 1.848-.84v-1.288c-.406-.546-1.12-.826-1.848-.826-.994 0-1.68.616-1.68 1.47 0 .868.686 1.484 1.68 1.484zm5.544-7.14a.705.705 0 0 1-.714-.7c0-.392.322-.714.714-.714.392 0 .7.322.7.714 0 .392-.308.7-.7.7zm.518 7.728h-1.05v-6.762h1.05V69zm3.15 0h-1.05v-9.338h1.05V69z"/><path fill="#384254" fill-opacity=".5" d="M238.412 69.168c-1.582 0-2.744-.7-3.318-1.54l.686-.728c.546.728 1.498 1.232 2.604 1.232 1.358 0 2.184-.686 2.184-1.75 0-1.162-.952-1.652-2.324-1.652-.392 0-.826 0-.966.014V63.68c.154.014.588.014.966.014 1.176 0 2.17-.462 2.17-1.54 0-1.036-.952-1.596-2.086-1.596-1.022 0-1.778.392-2.464 1.134l-.644-.728c.672-.826 1.75-1.442 3.206-1.442 1.792 0 3.15.91 3.15 2.478 0 1.358-1.134 2.03-2.002 2.17.84.084 2.156.798 2.156 2.31 0 1.554-1.26 2.688-3.318 2.688zm14.7-.168h-1.05v-1.008c-.504.686-1.33 1.176-2.282 1.176-1.764 0-3.01-1.344-3.01-3.542 0-2.17 1.246-3.556 3.01-3.556.91 0 1.736.448 2.282 1.19v-3.598h1.05V69zm-3.066-.77c.826 0 1.652-.49 2.016-1.078V64.1c-.364-.588-1.19-1.092-2.016-1.092-1.372 0-2.184 1.12-2.184 2.618 0 1.498.812 2.604 2.184 2.604zm10.444.77h-1.05v-.77c-.546.616-1.33.938-2.24.938-1.134 0-2.352-.77-2.352-2.24 0-1.526 1.204-2.226 2.352-2.226.924 0 1.694.294 2.24.91v-1.218c0-.896-.728-1.414-1.708-1.414-.812 0-1.47.28-2.072.938l-.49-.728c.728-.756 1.596-1.12 2.702-1.12 1.442 0 2.618.644 2.618 2.282V69zm-2.898-.588c.728 0 1.442-.28 1.848-.84v-1.288c-.406-.546-1.12-.826-1.848-.826-.994 0-1.68.616-1.68 1.47 0 .868.686 1.484 1.68 1.484zm4.648 3.234l.154-.952c.154.07.406.112.574.112.462 0 .77-.154 1.008-.714l.448-1.022-2.828-6.832h1.148l2.24 5.544 2.254-5.544h1.134l-3.388 8.134c-.406.98-1.092 1.358-1.988 1.372-.224 0-.574-.042-.756-.098zm9.38-2.478c-1.12 0-2.044-.35-2.73-1.064l.532-.756c.448.518 1.302.966 2.226.966 1.036 0 1.61-.49 1.61-1.162 0-1.638-4.186-.63-4.186-3.136 0-1.064.896-1.946 2.506-1.946 1.162 0 1.974.434 2.506.98l-.49.728c-.406-.49-1.134-.854-2.016-.854-.924 0-1.498.462-1.498 1.064 0 1.47 4.186.504 4.186 3.136 0 1.134-.91 2.044-2.646 2.044zM284.878 69h-1.05v-.77c-.546.616-1.33.938-2.24.938-1.134 0-2.352-.77-2.352-2.24 0-1.526 1.204-2.226 2.352-2.226.924 0 1.694.294 2.24.91v-1.218c0-.896-.728-1.414-1.708-1.414-.812 0-1.47.28-2.072.938l-.49-.728c.728-.756 1.596-1.12 2.702-1.12 1.442 0 2.618.644 2.618 2.282V69zm-2.898-.588c.728 0 1.442-.28 1.848-.84v-1.288c-.406-.546-1.12-.826-1.848-.826-.994 0-1.68.616-1.68 1.47 0 .868.686 1.484 1.68 1.484zm7.728 3.332c-1.134 0-1.918-.224-2.73-1.022l.532-.756c.56.658 1.232.91 2.198.91 1.12 0 2.184-.546 2.184-1.974V67.88c-.504.686-1.33 1.204-2.282 1.204-1.764 0-3.01-1.316-3.01-3.5 0-2.17 1.232-3.514 3.01-3.514.91 0 1.736.448 2.282 1.19v-1.022h1.05v6.664c0 2.142-1.582 2.842-3.234 2.842zm.168-3.598c.826 0 1.638-.504 2.016-1.092v-2.968c-.378-.574-1.19-1.078-2.016-1.078-1.372 0-2.184 1.078-2.184 2.576 0 1.484.812 2.562 2.184 2.562zm8.12 1.022c-2.058 0-3.346-1.596-3.346-3.556s1.288-3.542 3.346-3.542 3.346 1.582 3.346 3.542c0 1.96-1.288 3.556-3.346 3.556zm0-.938c1.442 0 2.24-1.232 2.24-2.618 0-1.372-.798-2.604-2.24-2.604-1.442 0-2.24 1.232-2.24 2.604 0 1.386.798 2.618 2.24 2.618z"/><path fill="#01B2D0" d="M48.846 64.124c.346-.368.071-.952-.447-.952h-3.863l1.796-5.426c.194-.586-.589-1.01-1.02-.552l-8.158 8.682c-.346.368-.071.952.447.952h3.86l-1.793 5.426c-.194.586.589 1.01 1.02.552l8.158-8.682z"/></g></g><path fill="#6FD350" d="M58.298 491.161l5.168 25.254a4 4 0 0 1-4.954 4.665l-22.27-5.967a4 4 0 0 1-1.958-6.517l17.103-19.287a4 4 0 0 1 6.911 1.852z" opacity=".2"/><path stroke="#6FD350" stroke-width="2" d="M66.319 487.362a3 3 0 0 0-5.184-1.39L44.033 505.26a3 3 0 0 0 1.468 4.888l22.27 5.968a3 3 0 0 0 3.715-3.5l-5.167-25.253z"/><g transform="rotate(-91 246.48 -177.803)"><ellipse cx="18.234" cy="13.678" stroke="#FFC111" stroke-width="2" rx="12.091" ry="12.078"/><ellipse cx="13.819" cy="17.585" fill="#FFC111" opacity=".2" rx="13.091" ry="13.078"/></g></g></svg>