<svg xmlns="http://www.w3.org/2000/svg" width="186" height="326" viewBox="0 0 186 326"><g fill="none" fill-rule="evenodd"><g transform="rotate(-106 126.933 162.032)"><rect width="18" height="20" x=".759" y="7.275" fill="#01B2D0" opacity=".1" rx="3"/><rect width="16" height="18" x="8.075" y="1.944" stroke="#01B2D0" stroke-width="2" rx="3"/></g><g transform="rotate(-129 90.848 78.05)"><circle cx="15.187" cy="11.189" r="9.5" stroke="#FFC111" stroke-width="2"/><circle cx="11.264" cy="14.445" r="10.5" fill="#FFC111" opacity=".2"/></g><path fill="#6FD350" d="M23.245 56.997l16.491-3.375a4 4 0 014.666 4.954L40.505 73.12a4 4 0 01-6.518 1.958L21.393 63.909a4 4 0 011.852-6.912z" opacity=".2"/><path stroke="#6FD350" stroke-width="2" d="M19.445 49.977a3 3 0 00-1.389 5.183l12.595 11.17a3 3 0 004.888-1.469l3.897-14.542a3 3 0 00-3.5-3.716l-16.49 3.375z"/><g transform="rotate(-49 97.603 -162.222)"><rect width="20" height="19" x=".004" y="1.522" fill="#01B2D0" opacity=".1" rx="4"/><rect width="18" height="17" x="5.831" y="1.217" stroke="#01B2D0" stroke-width="2" rx="4"/></g></g></svg>