<svg xmlns="http://www.w3.org/2000/svg" width="298" height="320" viewBox="0 0 298 320">
  <g fill="none" fill-rule="evenodd" transform="translate(-7 -6)">
    <g transform="rotate(144 15.6 17.53)">
      <circle cx="15.885" cy="11.526" r="10.5" stroke="#FFC111" stroke-width="2"/>
      <circle cx="12.137" cy="14.983" r="11.5" fill="#FFC111" opacity=".2"/>
    </g>
    <g transform="rotate(30 -138.941 362.23)">
      <path fill="#6FD350" d="M17.5313578,10.5841855 L27.1772558,29.8759816 C27.9182236,31.3579171 27.3175505,33.1599362 25.835615,33.900904 C25.4190487,34.1091871 24.9597095,34.2176224 24.4939742,34.2176224 L5.20217818,34.2176224 C3.54532393,34.2176224 2.20217818,32.8744766 2.20217818,31.2176224 C2.20217818,30.7518871 2.31061345,30.2925479 2.5188966,29.8759816 L12.1647946,10.5841855 C12.9057624,9.10225005 14.7077815,8.50157701 16.189717,9.24254475 C16.7702992,9.53283586 17.2410667,10.0036033 17.5313578,10.5841855 Z" opacity=".2"/>
      <path stroke="#6FD350" stroke-width="2" d="M26.66321,6.39742454 C26.4696826,6.01036973 26.1558376,5.69652475 25.7687828,5.50299735 C24.7808258,5.00901885 23.5794798,5.40946754 23.0855013,6.39742454 L13.4396032,25.6892206 C13.3007478,25.9669315 13.2284576,26.2731576 13.2284576,26.5836478 C13.2284576,27.6882173 14.1238881,28.5836478 15.2284576,28.5836478 L34.5202537,28.5836478 C34.8307439,28.5836478 35.13697,28.5113576 35.4146809,28.3725022 C36.4026379,27.8785237 36.8030866,26.6771776 36.3091081,25.6892206 L26.66321,6.39742454 Z"/>
    </g>
    <g transform="rotate(-129 214.655 75.93)">
      <circle cx="14.223" cy="10.295" r="9" stroke="#FFC111" stroke-width="2"/>
      <circle cx="10.299" cy="13.551" r="10" fill="#FFC111" opacity=".2"/>
    </g>
    <g transform="rotate(-128 148.245 -37.429)">
      <rect width="21" height="40" x=".004" y="1.522" fill="#01B2D0" opacity=".1" rx="4"/>
      <rect width="19" height="38" x="5.831" y="1.217" stroke="#01B2D0" stroke-width="2" rx="4"/>
    </g>
    <g transform="rotate(-47 436.152 -30.495)">
      <rect width="20" height="24" x=".004" y="1.522" fill="#01B2D0" opacity=".1" rx="4"/>
      <rect width="18" height="22" x="5.831" y="1.217" stroke="#01B2D0" stroke-width="2" rx="4"/>
    </g>
  </g>
</svg>
