<svg xmlns="http://www.w3.org/2000/svg" width="298" height="320" viewBox="0 0 298 320"><g fill="none" fill-rule="evenodd"><g transform="rotate(144 13.075 13.393)"><circle cx="15.885" cy="11.526" r="10.5" stroke="#FFC111" stroke-width="2"/><circle cx="12.137" cy="14.983" r="11.5" fill="#FFC111" opacity=".2"/></g><path fill="#6FD350" d="M165.39 129.932l-1.291 21.53a3 3 0 01-4.495 2.418l-16.707-9.645a3 3 0 01-.153-5.102l18-11.884a3 3 0 014.647 2.683z" opacity=".2"/><path stroke="#6FD350" stroke-width="2" d="M175.393 130.872a2 2 0 00-3.099-1.789l-18 11.884a2 2 0 00.103 3.402l16.707 9.645a2 2 0 002.996-1.612l1.293-21.53z"/><g transform="rotate(-129 209.724 74.6)"><circle cx="14.223" cy="10.295" r="9" stroke="#FFC111" stroke-width="2"/><circle cx="10.299" cy="13.551" r="10" fill="#FFC111" opacity=".2"/></g><g transform="rotate(-128 143.282 -38.722)"><rect width="21" height="40" x=".004" y="1.522" fill="#01B2D0" opacity=".1" rx="4"/><rect width="19" height="38" x="5.831" y="1.217" stroke="#01B2D0" stroke-width="2" rx="4"/></g><g transform="rotate(-47 425.752 -25.446)"><rect width="20" height="24" x=".004" y="1.522" fill="#01B2D0" opacity=".1" rx="4"/><rect width="18" height="22" x="5.831" y="1.217" stroke="#01B2D0" stroke-width="2" rx="4"/></g></g></svg>