<svg xmlns="http://www.w3.org/2000/svg" width="186" height="326" viewBox="0 0 186 326">
  <g fill="none" fill-rule="evenodd" transform="translate(-1 -1)">
    <g transform="rotate(-106 127.81 162.155)">
      <rect width="18" height="20" x=".759" y="7.275" fill="#01B2D0" opacity=".1" rx="3"/>
      <rect width="16" height="18" x="8.075" y="1.944" stroke="#01B2D0" stroke-width="2" rx="3"/>
    </g>
    <g transform="rotate(-129 91.586 78.312)">
      <circle cx="15.187" cy="11.189" r="9.5" stroke="#FFC111" stroke-width="2"/>
      <circle cx="11.264" cy="14.445" r="10.5" fill="#FFC111" opacity=".2"/>
    </g>
    <g transform="rotate(-75 49.768 31.977)">
      <path fill="#6FD350" d="M18.0287156,14.0581135 L25.5565796,29.1138416 C26.5445366,31.0897556 25.7436392,33.4924477 23.7677252,34.4804047 C23.2123035,34.7581156 22.5998512,34.902696 21.9788708,34.902696 L6.92314275,34.902696 C4.71400375,34.902696 2.92314275,33.111835 2.92314275,30.902696 C2.92314275,30.2817156 3.06772312,29.6692633 3.34543399,29.1138416 L10.873298,14.0581135 C11.861255,12.0821995 14.2639472,11.2813021 16.2398612,12.2692591 C17.0139708,12.6563139 17.6416608,13.2840039 18.0287156,14.0581135 Z" opacity=".2"/>
      <path stroke="#6FD350" stroke-width="2" d="M23.8264188,8.57107142 C23.5361277,7.99048921 23.0653602,7.51972173 22.484778,7.22943063 C21.0028425,6.48846288 19.2008234,7.08913592 18.4598557,8.57107142 L10.9319916,23.6267995 C10.7237085,24.0433658 10.6152732,24.502705 10.6152732,24.9684403 C10.6152732,26.6252945 11.9584189,27.9684403 13.6152732,27.9684403 L28.6710013,27.9684403 C29.1367366,27.9684403 29.5960758,27.860005 30.0126421,27.6517219 C31.4945776,26.9107541 32.0952506,25.108735 31.3542828,23.6267995 L23.8264188,8.57107142 Z"/>
    </g>
    <g transform="rotate(-49 99.2 -162.819)">
      <rect width="20" height="19" x=".004" y="1.522" fill="#01B2D0" opacity=".1" rx="4"/>
      <rect width="18" height="17" x="5.831" y="1.217" stroke="#01B2D0" stroke-width="2" rx="4"/>
    </g>
  </g>
</svg>
