<svg xmlns="http://www.w3.org/2000/svg" xmlns:xlink="http://www.w3.org/1999/xlink" width="628" height="536" viewBox="0 0 628 536"><defs><filter id="b" width="112.2%" height="113%" x="-6.1%" y="-5.5%" filterUnits="objectBoundingBox"><feMorphology in="SourceAlpha" operator="dilate" radius=".5" result="shadowSpreadOuter1"/><feOffset dy="4" in="shadowSpreadOuter1" result="shadowOffsetOuter1"/><feGaussianBlur in="shadowOffsetOuter1" result="shadowBlurOuter1" stdDeviation="8"/><feComposite in="shadowBlurOuter1" in2="SourceAlpha" operator="out" result="shadowBlurOuter1"/><feColorMatrix in="shadowBlurOuter1" values="0 0 0 0 0 0 0 0 0 0 0 0 0 0 0 0 0 0 0.12 0"/></filter><filter id="d" width="110.3%" height="152.5%" x="-5.1%" y="-22.3%" filterUnits="objectBoundingBox"><feMorphology in="SourceAlpha" operator="dilate" radius=".5" result="shadowSpreadOuter1"/><feOffset dy="4" in="shadowSpreadOuter1" result="shadowOffsetOuter1"/><feGaussianBlur in="shadowOffsetOuter1" result="shadowBlurOuter1" stdDeviation="8"/><feComposite in="shadowBlurOuter1" in2="SourceAlpha" operator="out" result="shadowBlurOuter1"/><feColorMatrix in="shadowBlurOuter1" values="0 0 0 0 0 0 0 0 0 0 0 0 0 0 0 0 0 0 0.12 0"/></filter><path id="a" d="M7.692 0h418.616c2.675 0 3.645.278 4.623.801a5.452 5.452 0 012.268 2.268c.523.978.801 1.948.801 4.623v393.616c0 2.675-.278 3.645-.801 4.623a5.452 5.452 0 01-2.268 2.268c-.978.523-1.948.801-4.623.801H7.692c-2.675 0-3.645-.278-4.623-.801a5.452 5.452 0 01-2.268-2.268c-.523-.978-.801-1.948-.801-4.623V7.692c0-2.675.278-3.645.801-4.623A5.452 5.452 0 013.07.801C4.047.278 5.017 0 7.692 0z"/><path id="e" d="M7.692 0h501.616c2.675 0 3.645.278 4.623.801a5.452 5.452 0 012.268 2.268c.523.978.801 1.948.801 4.623v85.616c0 2.675-.278 3.645-.801 4.623a5.452 5.452 0 01-2.268 2.268c-.978.523-1.948.801-4.623.801H7.692c-2.675 0-3.645-.278-4.623-.801A5.452 5.452 0 01.801 97.93C.278 96.953 0 95.983 0 93.308V7.692c0-2.675.278-3.645.801-4.623A5.452 5.452 0 013.07.801C4.047.278 5.017 0 7.692 0z"/></defs><g fill="none" fill-rule="evenodd"><path fill="#FFF3CF" d="M65 178h414v290H65z"/><g transform="translate(138 12)"><mask id="c" fill="#fff"><use xlink:href="#a"/></mask><use fill="#000" filter="url(#b)" xlink:href="#a"/><use fill="#FFF" stroke="#8D8D8D" stroke-opacity=".24" xlink:href="#a"/><path fill="#384254" fill-rule="nonzero" d="M29.46 37.168c-2.814 0-4.984-1.96-4.984-4.83 0-2.884 2.17-4.83 4.984-4.83 2.044 0 3.234 1.106 3.892 2.282l-1.708.84c-.392-.756-1.232-1.358-2.184-1.358-1.708 0-2.94 1.302-2.94 3.066 0 1.764 1.232 3.066 2.94 3.066.952 0 1.792-.602 2.184-1.358l1.708.826c-.658 1.162-1.848 2.296-3.892 2.296zm8.176 0c-2.226 0-3.57-1.638-3.57-3.556 0-1.918 1.344-3.542 3.57-3.542 2.24 0 3.584 1.624 3.584 3.542 0 1.918-1.344 3.556-3.584 3.556zm0-1.582c1.12 0 1.736-.91 1.736-1.974 0-1.05-.616-1.96-1.736-1.96-1.106 0-1.722.91-1.722 1.96 0 1.064.616 1.974 1.722 1.974zM48.906 37h-1.792v-4.088c0-.938-.49-1.26-1.246-1.26-.7 0-1.232.392-1.54.784V37H42.55v-6.762h1.778v.868c.434-.504 1.274-1.036 2.366-1.036 1.498 0 2.212.84 2.212 2.156V37zm4.018.168c-1.246 0-1.904-.644-1.904-1.862v-3.514H49.9v-1.554h1.12V28.39h1.778v1.848h1.372v1.554h-1.372v3.038c0 .434.224.756.616.756.266 0 .518-.098.616-.21l.378 1.358c-.266.238-.742.434-1.484.434zm5.642 0c-2.058 0-3.612-1.386-3.612-3.556 0-1.96 1.456-3.542 3.5-3.542 2.03 0 3.388 1.512 3.388 3.71v.42h-5.026c.126.826.798 1.512 1.946 1.512.574 0 1.358-.238 1.792-.658l.798 1.176c-.672.616-1.736.938-2.786.938zm1.568-4.2c-.056-.644-.504-1.442-1.68-1.442-1.106 0-1.582.77-1.652 1.442h3.332zM69.486 37h-1.792v-4.088c0-.938-.49-1.26-1.246-1.26-.7 0-1.232.392-1.54.784V37H63.13v-6.762h1.778v.868c.434-.504 1.274-1.036 2.366-1.036 1.498 0 2.212.84 2.212 2.156V37zm4.018.168c-1.246 0-1.904-.644-1.904-1.862v-3.514h-1.12v-1.554h1.12V28.39h1.778v1.848h1.372v1.554h-1.372v3.038c0 .434.224.756.616.756.266 0 .518-.098.616-.21l.378 1.358c-.266.238-.742.434-1.484.434zM84.676 37h-5.068v-9.338h4.914c1.778 0 2.688 1.134 2.688 2.38 0 1.162-.728 1.96-1.61 2.142 1.008.154 1.792 1.12 1.792 2.282 0 1.414-.924 2.534-2.716 2.534zm-.588-5.628c.672 0 1.092-.378 1.092-.98 0-.574-.42-.98-1.092-.98h-2.492v1.96h2.492zm.084 3.878c.742 0 1.19-.392 1.19-1.064 0-.588-.42-1.064-1.19-1.064h-2.576v2.128h2.576zM90.626 37h-1.778v-6.762h1.778v.91c.49-.588 1.316-1.078 2.156-1.078v1.736a2.27 2.27 0 00-.49-.042c-.588 0-1.372.336-1.666.77V37zm6.44.168c-2.058 0-3.612-1.386-3.612-3.556 0-1.96 1.456-3.542 3.5-3.542 2.03 0 3.388 1.512 3.388 3.71v.42h-5.026c.126.826.798 1.512 1.946 1.512.574 0 1.358-.238 1.792-.658l.798 1.176c-.672.616-1.736.938-2.786.938zm1.568-4.2c-.056-.644-.504-1.442-1.68-1.442-1.106 0-1.582.77-1.652 1.442h3.332zM107.482 37h-1.792v-.714c-.462.56-1.26.882-2.142.882-1.078 0-2.338-.728-2.338-2.24 0-1.596 1.26-2.184 2.338-2.184.91 0 1.694.294 2.142.826v-.854c0-.686-.588-1.134-1.484-1.134-.714 0-1.386.28-1.946.798l-.7-1.246c.826-.742 1.89-1.064 2.954-1.064 1.554 0 2.968.616 2.968 2.562V37zm-3.22-1.036c.574 0 1.134-.196 1.428-.588v-.84c-.294-.392-.854-.602-1.428-.602-.7 0-1.274.378-1.274 1.022s.574 1.008 1.274 1.008zM115.84 37h-2.226l-1.792-2.604-.812.868V37h-1.778v-9.338h1.778v5.586l2.562-3.01h2.184l-2.674 3.066L115.84 37zm7.238 0h-1.792v-.868c-.532.672-1.26 1.036-2.086 1.036-1.694 0-2.996-1.288-2.996-3.556 0-2.198 1.274-3.542 2.996-3.542.798 0 1.554.336 2.086 1.036v-3.444h1.792V37zm-3.318-1.414c.588 0 1.232-.322 1.526-.77v-2.394c-.294-.448-.938-.77-1.526-.77-1.022 0-1.722.798-1.722 1.96 0 1.176.7 1.974 1.722 1.974zm8.218 1.582c-2.226 0-3.57-1.638-3.57-3.556 0-1.918 1.344-3.542 3.57-3.542 2.24 0 3.584 1.624 3.584 3.542 0 1.918-1.344 3.556-3.584 3.556zm0-1.582c1.12 0 1.736-.91 1.736-1.974 0-1.05-.616-1.96-1.736-1.96-1.106 0-1.722.91-1.722 1.96 0 1.064.616 1.974 1.722 1.974zM140.732 37h-1.904l-1.428-4.606L135.972 37h-1.904l-2.058-6.762h1.848l1.26 4.55 1.484-4.55h1.582l1.484 4.55 1.26-4.55h1.862L140.732 37zm9.296 0h-1.792v-4.088c0-.938-.49-1.26-1.246-1.26-.7 0-1.232.392-1.54.784V37h-1.778v-6.762h1.778v.868c.434-.504 1.274-1.036 2.366-1.036 1.498 0 2.212.84 2.212 2.156V37z" mask="url(#c)"/><path fill="#384254" fill-opacity=".5" fill-rule="nonzero" d="M31.868 57h-1.372l-2.366-3.71h-1.876V57h-1.162v-9.338h3.752c1.708 0 2.94 1.092 2.94 2.814 0 1.68-1.162 2.604-2.436 2.716L31.868 57zm-3.164-4.732c1.106 0 1.876-.742 1.876-1.792 0-1.064-.77-1.778-1.876-1.778h-2.45v3.57h2.45zm7.518 4.9c-2.016 0-3.458-1.442-3.458-3.556 0-1.96 1.4-3.542 3.332-3.542 2.044 0 3.248 1.596 3.248 3.626v.266h-5.46c.084 1.274.966 2.338 2.422 2.338.784 0 1.554-.308 2.1-.868l.504.686c-.686.672-1.596 1.05-2.688 1.05zm2.086-3.99c-.014-.994-.686-2.24-2.226-2.24-1.442 0-2.156 1.218-2.212 2.24h4.438zm4.886 3.99c-1.12 0-2.044-.35-2.73-1.064l.532-.756c.448.518 1.302.966 2.226.966 1.036 0 1.61-.49 1.61-1.162 0-1.638-4.186-.63-4.186-3.136 0-1.064.896-1.946 2.506-1.946 1.162 0 1.974.434 2.506.98l-.49.728c-.406-.49-1.134-.854-2.016-.854-.924 0-1.498.462-1.498 1.064 0 1.47 4.186.504 4.186 3.136 0 1.134-.91 2.044-2.646 2.044zM53.162 57h-1.05v-.952c-.518.588-1.4 1.12-2.408 1.12-1.414 0-2.156-.7-2.156-2.156v-4.774h1.05v4.452c0 1.19.602 1.54 1.526 1.54.812 0 1.596-.476 1.988-1.022v-4.97h1.05V57zm3.15 0h-1.05v-9.338h1.05V57zm3.822.168c-1.008 0-1.512-.574-1.512-1.582v-4.424h-1.12v-.924h1.12V48.39h1.064v1.848h1.372v.924h-1.372v4.2c0 .504.224.868.672.868.308 0 .574-.14.714-.294l.308.798c-.266.252-.644.434-1.246.434zm4.55 0c-1.12 0-2.044-.35-2.73-1.064l.532-.756c.448.518 1.302.966 2.226.966 1.036 0 1.61-.49 1.61-1.162 0-1.638-4.186-.63-4.186-3.136 0-1.064.896-1.946 2.506-1.946 1.162 0 1.974.434 2.506.98l-.49.728c-.406-.49-1.134-.854-2.016-.854-.924 0-1.498.462-1.498 1.064 0 1.47 4.186.504 4.186 3.136 0 1.134-.91 2.044-2.646 2.044zM74.008 57h-1.05v-5.838h-1.12v-.924h1.12v-.518c0-1.386.77-2.198 1.96-2.198.546 0 1.008.126 1.428.518l-.434.672a1.214 1.214 0 00-.826-.322c-.7 0-1.078.462-1.078 1.33v.518h1.372v.924h-1.372V57zm5.586.168c-2.058 0-3.346-1.596-3.346-3.556s1.288-3.542 3.346-3.542 3.346 1.582 3.346 3.542c0 1.96-1.288 3.556-3.346 3.556zm0-.938c1.442 0 2.24-1.232 2.24-2.618 0-1.372-.798-2.604-2.24-2.604-1.442 0-2.24 1.232-2.24 2.604 0 1.386.798 2.618 2.24 2.618zm6.104.77h-1.05v-6.762h1.05v1.078c.546-.7 1.33-1.232 2.254-1.232v1.078c-.126-.014-.252-.028-.406-.028-.658 0-1.54.532-1.848 1.078V57zm10.262.168c-2.016 0-3.458-1.442-3.458-3.556 0-1.96 1.4-3.542 3.332-3.542 2.044 0 3.248 1.596 3.248 3.626v.266h-5.46c.084 1.274.966 2.338 2.422 2.338.784 0 1.554-.308 2.1-.868l.504.686c-.686.672-1.596 1.05-2.688 1.05zm2.086-3.99c-.014-.994-.686-2.24-2.226-2.24-1.442 0-2.156 1.218-2.212 2.24h4.438zM106.054 57h-1.05v-.77c-.546.616-1.33.938-2.24.938-1.134 0-2.352-.77-2.352-2.24 0-1.526 1.204-2.226 2.352-2.226.924 0 1.694.294 2.24.91v-1.218c0-.896-.728-1.414-1.708-1.414-.812 0-1.47.28-2.072.938l-.49-.728c.728-.756 1.596-1.12 2.702-1.12 1.442 0 2.618.644 2.618 2.282V57zm-2.898-.588c.728 0 1.442-.28 1.848-.84v-1.288c-.406-.546-1.12-.826-1.848-.826-.994 0-1.68.616-1.68 1.47 0 .868.686 1.484 1.68 1.484zm7.994.756c-2.016 0-3.374-1.554-3.374-3.556s1.358-3.542 3.374-3.542c1.232 0 1.96.504 2.478 1.176l-.7.63c-.448-.616-1.022-.868-1.722-.868-1.428 0-2.338 1.106-2.338 2.604s.91 2.618 2.338 2.618c.7 0 1.274-.28 1.722-.882l.7.644c-.518.672-1.246 1.176-2.478 1.176zm9.59-.168h-1.05v-4.452c0-1.204-.602-1.54-1.526-1.54-.812 0-1.596.504-1.988 1.05V57h-1.05v-9.338h1.05v3.556c.462-.574 1.386-1.148 2.408-1.148 1.414 0 2.156.686 2.156 2.156V57zm8.68 0h-1.148l-2.814-6.762h1.148l2.24 5.544 2.254-5.544h1.134L129.42 57zm6.972.168c-2.016 0-3.458-1.442-3.458-3.556 0-1.96 1.4-3.542 3.332-3.542 2.044 0 3.248 1.596 3.248 3.626v.266h-5.46c.084 1.274.966 2.338 2.422 2.338.784 0 1.554-.308 2.1-.868l.504.686c-.686.672-1.596 1.05-2.688 1.05zm2.086-3.99c-.014-.994-.686-2.24-2.226-2.24-1.442 0-2.156 1.218-2.212 2.24h4.438zm3.78 3.822h-1.05v-6.762h1.05v1.078c.546-.7 1.33-1.232 2.254-1.232v1.078c-.126-.014-.252-.028-.406-.028-.658 0-1.54.532-1.848 1.078V57zm5.726.168c-1.12 0-2.044-.35-2.73-1.064l.532-.756c.448.518 1.302.966 2.226.966 1.036 0 1.61-.49 1.61-1.162 0-1.638-4.186-.63-4.186-3.136 0-1.064.896-1.946 2.506-1.946 1.162 0 1.974.434 2.506.98l-.49.728c-.406-.49-1.134-.854-2.016-.854-.924 0-1.498.462-1.498 1.064 0 1.47 4.186.504 4.186 3.136 0 1.134-.91 2.044-2.646 2.044zm4.886-7.896a.705.705 0 01-.714-.7c0-.392.322-.714.714-.714.392 0 .7.322.7.714 0 .392-.308.7-.7.7zm.518 7.728h-1.05v-6.762h1.05V57zm5.054.168c-2.058 0-3.346-1.596-3.346-3.556s1.288-3.542 3.346-3.542 3.346 1.582 3.346 3.542c0 1.96-1.288 3.556-3.346 3.556zm0-.938c1.442 0 2.24-1.232 2.24-2.618 0-1.372-.798-2.604-2.24-2.604-1.442 0-2.24 1.232-2.24 2.604 0 1.386.798 2.618 2.24 2.618zm10.668.77h-1.036v-4.424c0-1.204-.616-1.568-1.526-1.568-.826 0-1.596.504-2.002 1.05V57h-1.05v-6.762h1.05v.98c.476-.574 1.4-1.148 2.422-1.148 1.4 0 2.142.714 2.142 2.184V57zm8.694.168c-2.058 0-3.346-1.596-3.346-3.556s1.288-3.542 3.346-3.542 3.346 1.582 3.346 3.542c0 1.96-1.288 3.556-3.346 3.556zm0-.938c1.442 0 2.24-1.232 2.24-2.618 0-1.372-.798-2.604-2.24-2.604-1.442 0-2.24 1.232-2.24 2.604 0 1.386.798 2.618 2.24 2.618zm6.398.77h-1.05v-5.838h-1.12v-.924h1.12v-.518c0-1.386.77-2.198 1.96-2.198.546 0 1.008.126 1.428.518l-.434.672a1.214 1.214 0 00-.826-.322c-.7 0-1.078.462-1.078 1.33v.518h1.372v.924h-1.372V57zm11.536 0h-1.05v-.77c-.546.616-1.33.938-2.24.938-1.134 0-2.352-.77-2.352-2.24 0-1.526 1.204-2.226 2.352-2.226.924 0 1.694.294 2.24.91v-1.218c0-.896-.728-1.414-1.708-1.414-.812 0-1.47.28-2.072.938l-.49-.728c.728-.756 1.596-1.12 2.702-1.12 1.442 0 2.618.644 2.618 2.282V57zm-2.898-.588c.728 0 1.442-.28 1.848-.84v-1.288c-.406-.546-1.12-.826-1.848-.826-.994 0-1.68.616-1.68 1.47 0 .868.686 1.484 1.68 1.484zm10.626.588h-1.036v-4.424c0-1.204-.616-1.568-1.526-1.568-.826 0-1.596.504-2.002 1.05V57h-1.05v-6.762h1.05v.98c.476-.574 1.4-1.148 2.422-1.148 1.4 0 2.142.714 2.142 2.184V57zm8.064 0h-1.05v-1.008c-.504.686-1.33 1.176-2.282 1.176-1.764 0-3.01-1.344-3.01-3.542 0-2.17 1.246-3.556 3.01-3.556.91 0 1.736.448 2.282 1.19v-3.598h1.05V57zm-3.066-.77c.826 0 1.652-.49 2.016-1.078V52.1c-.364-.588-1.19-1.092-2.016-1.092-1.372 0-2.184 1.12-2.184 2.618 0 1.498.812 2.604 2.184 2.604zm9.842.77h-1.05v-9.338h1.05V57zm7.378 0h-1.05v-.77c-.546.616-1.33.938-2.24.938-1.134 0-2.352-.77-2.352-2.24 0-1.526 1.204-2.226 2.352-2.226.924 0 1.694.294 2.24.91v-1.218c0-.896-.728-1.414-1.708-1.414-.812 0-1.47.28-2.072.938l-.49-.728c.728-.756 1.596-1.12 2.702-1.12 1.442 0 2.618.644 2.618 2.282V57zm-2.898-.588c.728 0 1.442-.28 1.848-.84v-1.288c-.406-.546-1.12-.826-1.848-.826-.994 0-1.68.616-1.68 1.47 0 .868.686 1.484 1.68 1.484zm10.626.588h-1.036v-4.424c0-1.204-.616-1.568-1.526-1.568-.826 0-1.596.504-2.002 1.05V57h-1.05v-6.762h1.05v.98c.476-.574 1.4-1.148 2.422-1.148 1.4 0 2.142.714 2.142 2.184V57zm4.83 2.744c-1.134 0-1.918-.224-2.73-1.022l.532-.756c.56.658 1.232.91 2.198.91 1.12 0 2.184-.546 2.184-1.974V55.88c-.504.686-1.33 1.204-2.282 1.204-1.764 0-3.01-1.316-3.01-3.5 0-2.17 1.232-3.514 3.01-3.514.91 0 1.736.448 2.282 1.19v-1.022h1.05v6.664c0 2.142-1.582 2.842-3.234 2.842zm.168-3.598c.826 0 1.638-.504 2.016-1.092v-2.968c-.378-.574-1.19-1.078-2.016-1.078-1.372 0-2.184 1.078-2.184 2.576 0 1.484.812 2.562 2.184 2.562zm10.78.854h-1.05v-.952c-.518.588-1.4 1.12-2.408 1.12-1.414 0-2.156-.7-2.156-2.156v-4.774h1.05v4.452c0 1.19.602 1.54 1.526 1.54.812 0 1.596-.476 1.988-1.022v-4.97h1.05V57zm7.378 0h-1.05v-.77c-.546.616-1.33.938-2.24.938-1.134 0-2.352-.77-2.352-2.24 0-1.526 1.204-2.226 2.352-2.226.924 0 1.694.294 2.24.91v-1.218c0-.896-.728-1.414-1.708-1.414-.812 0-1.47.28-2.072.938l-.49-.728c.728-.756 1.596-1.12 2.702-1.12 1.442 0 2.618.644 2.618 2.282V57zm-2.898-.588c.728 0 1.442-.28 1.848-.84v-1.288c-.406-.546-1.12-.826-1.848-.826-.994 0-1.68.616-1.68 1.47 0 .868.686 1.484 1.68 1.484zm7.728 3.332c-1.134 0-1.918-.224-2.73-1.022l.532-.756c.56.658 1.232.91 2.198.91 1.12 0 2.184-.546 2.184-1.974V55.88c-.504.686-1.33 1.204-2.282 1.204-1.764 0-3.01-1.316-3.01-3.5 0-2.17 1.232-3.514 3.01-3.514.91 0 1.736.448 2.282 1.19v-1.022h1.05v6.664c0 2.142-1.582 2.842-3.234 2.842zm.168-3.598c.826 0 1.638-.504 2.016-1.092v-2.968c-.378-.574-1.19-1.078-2.016-1.078-1.372 0-2.184 1.078-2.184 2.576 0 1.484.812 2.562 2.184 2.562zm8.232 1.022c-2.016 0-3.458-1.442-3.458-3.556 0-1.96 1.4-3.542 3.332-3.542 2.044 0 3.248 1.596 3.248 3.626v.266h-5.46c.084 1.274.966 2.338 2.422 2.338.784 0 1.554-.308 2.1-.868l.504.686c-.686.672-1.596 1.05-2.688 1.05zm2.086-3.99c-.014-.994-.686-2.24-2.226-2.24-1.442 0-2.156 1.218-2.212 2.24h4.438z" mask="url(#c)"/><g mask="url(#c)"><path fill="#384254" fill-opacity=".5" fill-rule="nonzero" d="M44.638 190h-1.162v-9.338h6.118v1.036h-4.956v3.01h4.858v1.036h-4.858V190zm7.56 0h-1.05v-6.762h1.05v1.078c.546-.7 1.33-1.232 2.254-1.232v1.078a3.468 3.468 0 00-.406-.028c-.658 0-1.54.532-1.848 1.078V190zm6.636.168c-2.016 0-3.458-1.442-3.458-3.556 0-1.96 1.4-3.542 3.332-3.542 2.044 0 3.248 1.596 3.248 3.626v.266h-5.46c.084 1.274.966 2.338 2.422 2.338.784 0 1.554-.308 2.1-.868l.504.686c-.686.672-1.596 1.05-2.688 1.05zm2.086-3.99c-.014-.994-.686-2.24-2.226-2.24-1.442 0-2.156 1.218-2.212 2.24h4.438zM69.264 190h-1.036v-4.424c0-1.204-.616-1.568-1.526-1.568-.826 0-1.596.504-2.002 1.05V190h-1.05v-6.762h1.05v.98c.476-.574 1.4-1.148 2.422-1.148 1.4 0 2.142.714 2.142 2.184V190zm5.096.168c-2.016 0-3.374-1.554-3.374-3.556s1.358-3.542 3.374-3.542c1.232 0 1.96.504 2.478 1.176l-.7.63c-.448-.616-1.022-.868-1.722-.868-1.428 0-2.338 1.106-2.338 2.604s.91 2.618 2.338 2.618c.7 0 1.274-.28 1.722-.882l.7.644c-.518.672-1.246 1.176-2.478 1.176zm9.59-.168H82.9v-4.452c0-1.204-.602-1.54-1.526-1.54-.812 0-1.596.504-1.988 1.05V190h-1.05v-9.338h1.05v3.556c.462-.574 1.386-1.148 2.408-1.148 1.414 0 2.156.686 2.156 2.156V190z"/><path fill="#384254" fill-rule="nonzero" d="M125.172 190.168c-1.918 0-3.584-.896-3.584-2.576 0-1.176.966-2.03 2.1-2.408-1.05-.336-1.946-1.036-1.946-2.212 0-1.736 1.778-2.45 3.43-2.45 1.652 0 3.43.714 3.43 2.45 0 1.176-.896 1.876-1.946 2.212 1.134.378 2.1 1.232 2.1 2.408 0 1.68-1.68 2.576-3.584 2.576zm0-5.642c.574-.098 1.764-.434 1.764-1.302 0-.798-.756-1.246-1.764-1.246s-1.764.448-1.764 1.246c0 .868 1.204 1.204 1.764 1.302zm0 4.186c1.036 0 1.918-.504 1.918-1.33 0-.966-1.344-1.386-1.918-1.47-.588.084-1.918.504-1.918 1.47 0 .826.854 1.33 1.918 1.33zm6.944.756c0 .966-.532 1.848-1.302 2.394l-.672-.546c.448-.266.924-.84 1.008-1.316a.724.724 0 01-.238.042c-.462 0-.826-.378-.826-.896s.42-.952.952-.952c.574 0 1.078.462 1.078 1.274zm4.522.7c-1.652 0-2.884-.672-3.528-1.512l.896-1.078c.602.7 1.582 1.134 2.576 1.134 1.232 0 1.946-.574 1.946-1.428 0-.924-.728-1.33-2.072-1.33-.392 0-.924.014-1.064.028v-1.484c.154.014.7.014 1.064.014 1.106 0 1.932-.378 1.932-1.232s-.854-1.302-1.89-1.302c-.966 0-1.75.35-2.422 1.036l-.84-1.022c.728-.854 1.862-1.47 3.416-1.47 2.016 0 3.36.952 3.36 2.506 0 1.26-1.064 1.988-2.016 2.142.896.098 2.17.826 2.17 2.268 0 1.596-1.358 2.73-3.528 2.73zm8.428 0c-1.596 0-2.702-.56-3.458-1.442l.938-1.134c.616.728 1.47 1.12 2.506 1.12 1.19 0 1.918-.728 1.918-1.652 0-.994-.728-1.652-1.876-1.652-.784 0-1.442.238-2.044.798l-1.162-.336v-5.208h6.118v1.442h-4.48v2.688c.462-.434 1.218-.798 2.114-.798 1.582 0 2.996 1.092 2.996 3.01 0 1.932-1.484 3.164-3.57 3.164zm10.626-.168h-1.638v-2.114h-4.452v-1.316l3.836-5.908h2.254v5.782h1.246v1.442h-1.246V190zm-1.638-3.556v-4.312l-2.842 4.312h2.842zm38.67-2.29c-1.162 0-2.058-.42-2.688-1.036l.77-1.246c.49.518 1.022.826 1.918.826 1.694 0 2.464-1.554 2.464-3.08 0-.084 0-.182-.014-.266-.42.63-1.4 1.302-2.506 1.302-1.68 0-3.122-1.022-3.122-3.01 0-1.736 1.358-3.136 3.444-3.136 2.744 0 3.85 2.226 3.85 4.816 0 2.702-1.414 4.83-4.116 4.83zm.392-4.9c.798 0 1.568-.434 2.044-1.106-.098-1.008-.644-2.184-2.086-2.184-1.232 0-1.876.868-1.876 1.624 0 1.148.896 1.666 1.918 1.666zm8.47 4.914c-1.918 0-3.584-.896-3.584-2.576 0-1.176.966-2.03 2.1-2.408-1.05-.336-1.946-1.036-1.946-2.212 0-1.736 1.778-2.45 3.43-2.45 1.652 0 3.43.714 3.43 2.45 0 1.176-.896 1.876-1.946 2.212 1.134.378 2.1 1.232 2.1 2.408 0 1.68-1.68 2.576-3.584 2.576zm0-5.642c.574-.098 1.764-.434 1.764-1.302 0-.798-.756-1.246-1.764-1.246s-1.764.448-1.764 1.246c0 .868 1.204 1.204 1.764 1.302zm0 4.186c1.036 0 1.918-.504 1.918-1.33 0-.966-1.344-1.386-1.918-1.47-.588.084-1.918.504-1.918 1.47 0 .826.854 1.33 1.918 1.33zm6.888-3.556c-1.386 0-2.324-1.008-2.324-2.31 0-1.316.938-2.324 2.324-2.324 1.4 0 2.324 1.008 2.324 2.324 0 1.302-.924 2.31-2.324 2.31zm.028 4.844h-.938l5.964-9.338h.952L208.502 184zm4.998.168c-1.386 0-2.324-1.008-2.324-2.31 0-1.316.938-2.324 2.324-2.324s2.324 1.008 2.324 2.324c0 1.302-.938 2.31-2.324 2.31zm-5.026-5.95c.728 0 1.246-.56 1.246-1.372 0-.826-.518-1.4-1.246-1.4-.714 0-1.232.574-1.232 1.4 0 .812.518 1.372 1.232 1.372zm5.026 5.012c.728 0 1.246-.56 1.246-1.372 0-.826-.518-1.4-1.246-1.4s-1.246.574-1.246 1.4c0 .812.518 1.372 1.246 1.372z"/><g transform="translate(189 193)"><rect width="100" height="8" fill="#F4F4F4" rx="4"/><rect width="98" height="8" fill="#01B2D0" rx="4"/></g><path fill="#384254" fill-rule="nonzero" d="M311.482 184h-1.638v-2.114h-4.452v-1.316l3.836-5.908h2.254v5.782h1.246v1.442h-1.246V184zm-1.638-3.556v-4.312l-2.842 4.312h2.842zM320.582 184h-6.762v-1.302c3.626-2.744 5.054-3.948 5.054-5.306 0-.98-.854-1.414-1.708-1.414-1.092 0-1.918.434-2.52 1.106l-.952-1.064c.826-1.008 2.142-1.498 3.458-1.498 1.806 0 3.374 1.008 3.374 2.87 0 1.736-1.582 3.276-4.074 5.166h4.13V184zm3.584-4.844c-1.386 0-2.324-1.008-2.324-2.31 0-1.316.938-2.324 2.324-2.324 1.4 0 2.324 1.008 2.324 2.324 0 1.302-.924 2.31-2.324 2.31zm.028 4.844h-.938l5.964-9.338h.952L324.194 184zm4.998.168c-1.386 0-2.324-1.008-2.324-2.31 0-1.316.938-2.324 2.324-2.324s2.324 1.008 2.324 2.324c0 1.302-.938 2.31-2.324 2.31zm-5.026-5.95c.728 0 1.246-.56 1.246-1.372 0-.826-.518-1.4-1.246-1.4-.714 0-1.232.574-1.232 1.4 0 .812.518 1.372 1.232 1.372zm5.026 5.012c.728 0 1.246-.56 1.246-1.372 0-.826-.518-1.4-1.246-1.4s-1.246.574-1.246 1.4c0 .812.518 1.372 1.246 1.372z"/><g transform="translate(305 193)"><rect width="100" height="8" fill="#F4F4F4" rx="4"/><rect width="57" height="8" fill="#01B2D0" rx="4"/></g></g><g mask="url(#c)"><path fill="#384254" fill-opacity=".5" fill-rule="nonzero" d="M45.254 236h-3.192v-9.338h3.192c2.912 0 4.788 2.03 4.788 4.676 0 2.66-1.876 4.662-4.788 4.662zm0-1.036c2.268 0 3.584-1.624 3.584-3.626 0-2.016-1.274-3.64-3.584-3.64h-2.03v7.266h2.03zm9.632 1.204c-2.016 0-3.458-1.442-3.458-3.556 0-1.96 1.4-3.542 3.332-3.542 2.044 0 3.248 1.596 3.248 3.626v.266h-5.46c.084 1.274.966 2.338 2.422 2.338.784 0 1.554-.308 2.1-.868l.504.686c-.686.672-1.596 1.05-2.688 1.05zm2.086-3.99c-.014-.994-.686-2.24-2.226-2.24-1.442 0-2.156 1.218-2.212 2.24h4.438zM61.046 236h-1.05v-5.838h-1.12v-.924h1.12v-.518c0-1.386.77-2.198 1.96-2.198.546 0 1.008.126 1.428.518l-.434.672a1.214 1.214 0 00-.826-.322c-.7 0-1.078.462-1.078 1.33v.518h1.372v.924h-1.372V236zm7.91 0h-1.05v-.77c-.546.616-1.33.938-2.24.938-1.134 0-2.352-.77-2.352-2.24 0-1.526 1.204-2.226 2.352-2.226.924 0 1.694.294 2.24.91v-1.218c0-.896-.728-1.414-1.708-1.414-.812 0-1.47.28-2.072.938l-.49-.728c.728-.756 1.596-1.12 2.702-1.12 1.442 0 2.618.644 2.618 2.282V236zm-2.898-.588c.728 0 1.442-.28 1.848-.84v-1.288c-.406-.546-1.12-.826-1.848-.826-.994 0-1.68.616-1.68 1.47 0 .868.686 1.484 1.68 1.484zm10.626.588h-1.05v-.952c-.518.588-1.4 1.12-2.408 1.12-1.414 0-2.156-.7-2.156-2.156v-4.774h1.05v4.452c0 1.19.602 1.54 1.526 1.54.812 0 1.596-.476 1.988-1.022v-4.97h1.05V236zm3.15 0h-1.05v-9.338h1.05V236zm3.822.168c-1.008 0-1.512-.574-1.512-1.582v-4.424h-1.12v-.924h1.12v-1.848h1.064v1.848h1.372v.924h-1.372v4.2c0 .504.224.868.672.868.308 0 .574-.14.714-.294l.308.798c-.266.252-.644.434-1.246.434z"/><path fill="#384254" fill-rule="nonzero" d="M125.172 236.168c-1.918 0-3.584-.896-3.584-2.576 0-1.176.966-2.03 2.1-2.408-1.05-.336-1.946-1.036-1.946-2.212 0-1.736 1.778-2.45 3.43-2.45 1.652 0 3.43.714 3.43 2.45 0 1.176-.896 1.876-1.946 2.212 1.134.378 2.1 1.232 2.1 2.408 0 1.68-1.68 2.576-3.584 2.576zm0-5.642c.574-.098 1.764-.434 1.764-1.302 0-.798-.756-1.246-1.764-1.246s-1.764.448-1.764 1.246c0 .868 1.204 1.204 1.764 1.302zm0 4.186c1.036 0 1.918-.504 1.918-1.33 0-.966-1.344-1.386-1.918-1.47-.588.084-1.918.504-1.918 1.47 0 .826.854 1.33 1.918 1.33zm6.944.756c0 .966-.532 1.848-1.302 2.394l-.672-.546c.448-.266.924-.84 1.008-1.316a.724.724 0 01-.238.042c-.462 0-.826-.378-.826-.896s.42-.952.952-.952c.574 0 1.078.462 1.078 1.274zm4.522.7c-1.652 0-2.884-.672-3.528-1.512l.896-1.078c.602.7 1.582 1.134 2.576 1.134 1.232 0 1.946-.574 1.946-1.428 0-.924-.728-1.33-2.072-1.33-.392 0-.924.014-1.064.028v-1.484c.154.014.7.014 1.064.014 1.106 0 1.932-.378 1.932-1.232s-.854-1.302-1.89-1.302c-.966 0-1.75.35-2.422 1.036l-.84-1.022c.728-.854 1.862-1.47 3.416-1.47 2.016 0 3.36.952 3.36 2.506 0 1.26-1.064 1.988-2.016 2.142.896.098 2.17.826 2.17 2.268 0 1.596-1.358 2.73-3.528 2.73zm7.896-.014c-1.162 0-2.058-.42-2.688-1.036l.77-1.246c.49.518 1.022.826 1.918.826 1.694 0 2.464-1.554 2.464-3.08 0-.084 0-.182-.014-.266-.42.63-1.4 1.302-2.506 1.302-1.68 0-3.122-1.022-3.122-3.01 0-1.736 1.358-3.136 3.444-3.136 2.744 0 3.85 2.226 3.85 4.816 0 2.702-1.414 4.83-4.116 4.83zm.392-4.9c.798 0 1.568-.434 2.044-1.106-.098-1.008-.644-2.184-2.086-2.184-1.232 0-1.876.868-1.876 1.624 0 1.148.896 1.666 1.918 1.666zm8.736 4.914c-2.744 0-3.85-2.226-3.85-4.83 0-2.688 1.414-4.816 4.116-4.816 1.148 0 2.044.406 2.674 1.036l-.756 1.232c-.49-.504-1.036-.812-1.918-.812-1.568 0-2.464 1.442-2.464 3.08v.266c.434-.63 1.414-1.316 2.506-1.316 1.68 0 3.136 1.036 3.136 3.024 0 1.722-1.358 3.136-3.444 3.136zm-.098-1.456c1.232 0 1.876-.882 1.876-1.624 0-1.148-.896-1.666-1.904-1.666-.798 0-1.582.42-2.044 1.092.084 1.008.644 2.198 2.072 2.198zm39.16-4.558c-1.162 0-2.058-.42-2.688-1.036l.77-1.246c.49.518 1.022.826 1.918.826 1.694 0 2.464-1.554 2.464-3.08 0-.084 0-.182-.014-.266-.42.63-1.4 1.302-2.506 1.302-1.68 0-3.122-1.022-3.122-3.01 0-1.736 1.358-3.136 3.444-3.136 2.744 0 3.85 2.226 3.85 4.816 0 2.702-1.414 4.83-4.116 4.83zm.392-4.9c.798 0 1.568-.434 2.044-1.106-.098-1.008-.644-2.184-2.086-2.184-1.232 0-1.876.868-1.876 1.624 0 1.148.896 1.666 1.918 1.666zm7.798 4.746h-1.806l3.528-7.896h-4.844v-1.442h6.734v1.134L200.914 230zm6.664-4.844c-1.386 0-2.324-1.008-2.324-2.31 0-1.316.938-2.324 2.324-2.324 1.4 0 2.324 1.008 2.324 2.324 0 1.302-.924 2.31-2.324 2.31zm.028 4.844h-.938l5.964-9.338h.952L207.606 230zm4.998.168c-1.386 0-2.324-1.008-2.324-2.31 0-1.316.938-2.324 2.324-2.324s2.324 1.008 2.324 2.324c0 1.302-.938 2.31-2.324 2.31zm-5.026-5.95c.728 0 1.246-.56 1.246-1.372 0-.826-.518-1.4-1.246-1.4-.714 0-1.232.574-1.232 1.4 0 .812.518 1.372 1.232 1.372zm5.026 5.012c.728 0 1.246-.56 1.246-1.372 0-.826-.518-1.4-1.246-1.4s-1.246.574-1.246 1.4c0 .812.518 1.372 1.246 1.372z"/><g transform="translate(189 239)"><rect width="100" height="8" fill="#F4F4F4" rx="4"/><rect width="98" height="8" fill="#01B2D0" rx="4"/></g><path fill="#384254" fill-rule="nonzero" d="M308.864 230.168c-1.652 0-2.884-.672-3.528-1.512l.896-1.078c.602.7 1.582 1.134 2.576 1.134 1.232 0 1.946-.574 1.946-1.428 0-.924-.728-1.33-2.072-1.33-.392 0-.924.014-1.064.028v-1.484c.154.014.7.014 1.064.014 1.106 0 1.932-.378 1.932-1.232s-.854-1.302-1.89-1.302c-.966 0-1.75.35-2.422 1.036l-.84-1.022c.728-.854 1.862-1.47 3.416-1.47 2.016 0 3.36.952 3.36 2.506 0 1.26-1.064 1.988-2.016 2.142.896.098 2.17.826 2.17 2.268 0 1.596-1.358 2.73-3.528 2.73zm7.672-.168h-1.806l3.528-7.896h-4.844v-1.442h6.734v1.134L316.536 230zm6.664-4.844c-1.386 0-2.324-1.008-2.324-2.31 0-1.316.938-2.324 2.324-2.324 1.4 0 2.324 1.008 2.324 2.324 0 1.302-.924 2.31-2.324 2.31zm.028 4.844h-.938l5.964-9.338h.952L323.228 230zm4.998.168c-1.386 0-2.324-1.008-2.324-2.31 0-1.316.938-2.324 2.324-2.324s2.324 1.008 2.324 2.324c0 1.302-.938 2.31-2.324 2.31zm-5.026-5.95c.728 0 1.246-.56 1.246-1.372 0-.826-.518-1.4-1.246-1.4-.714 0-1.232.574-1.232 1.4 0 .812.518 1.372 1.232 1.372zm5.026 5.012c.728 0 1.246-.56 1.246-1.372 0-.826-.518-1.4-1.246-1.4s-1.246.574-1.246 1.4c0 .812.518 1.372 1.246 1.372z"/><g transform="translate(305 239)"><rect width="100" height="8" fill="#F4F4F4" rx="4"/><rect width="67" height="8" fill="#01B2D0" rx="4"/></g></g><g mask="url(#c)"><path fill="#384254" fill-rule="nonzero" d="M31.226 282h-1.442l-3.766-9.338h1.33l3.15 8.064 3.15-8.064h1.33L31.226 282zm7.154.168c-2.016 0-3.458-1.442-3.458-3.556 0-1.96 1.4-3.542 3.332-3.542 2.044 0 3.248 1.596 3.248 3.626v.266h-5.46c.084 1.274.966 2.338 2.422 2.338.784 0 1.554-.308 2.1-.868l.504.686c-.686.672-1.596 1.05-2.688 1.05zm2.086-3.99c-.014-.994-.686-2.24-2.226-2.24-1.442 0-2.156 1.218-2.212 2.24h4.438zm3.78 3.822h-1.05v-6.762h1.05v1.078c.546-.7 1.33-1.232 2.254-1.232v1.078a3.468 3.468 0 00-.406-.028c-.658 0-1.54.532-1.848 1.078V282zm5.726.168c-1.12 0-2.044-.35-2.73-1.064l.532-.756c.448.518 1.302.966 2.226.966 1.036 0 1.61-.49 1.61-1.162 0-1.638-4.186-.63-4.186-3.136 0-1.064.896-1.946 2.506-1.946 1.162 0 1.974.434 2.506.98l-.49.728c-.406-.49-1.134-.854-2.016-.854-.924 0-1.498.462-1.498 1.064 0 1.47 4.186.504 4.186 3.136 0 1.134-.91 2.044-2.646 2.044zm4.886-7.896a.705.705 0 01-.714-.7c0-.392.322-.714.714-.714.392 0 .7.322.7.714 0 .392-.308.7-.7.7zm.518 7.728h-1.05v-6.762h1.05V282zm5.054.168c-2.058 0-3.346-1.596-3.346-3.556s1.288-3.542 3.346-3.542 3.346 1.582 3.346 3.542c0 1.96-1.288 3.556-3.346 3.556zm0-.938c1.442 0 2.24-1.232 2.24-2.618 0-1.372-.798-2.604-2.24-2.604-1.442 0-2.24 1.232-2.24 2.604 0 1.386.798 2.618 2.24 2.618zm10.668.77h-1.036v-4.424c0-1.204-.616-1.568-1.526-1.568-.826 0-1.596.504-2.002 1.05V282h-1.05v-6.762h1.05v.98c.476-.574 1.4-1.148 2.422-1.148 1.4 0 2.142.714 2.142 2.184V282zm13.776 0h-1.33l-.826-2.086H78.07L77.244 282h-1.33l3.766-9.338h1.442L84.874 282zm-2.492-3.108l-1.988-5.04-1.974 5.04h3.962zm42.342 3.262c-1.162 0-2.058-.42-2.688-1.036l.77-1.246c.49.518 1.022.826 1.918.826 1.694 0 2.464-1.554 2.464-3.08 0-.084 0-.182-.014-.266-.42.63-1.4 1.302-2.506 1.302-1.68 0-3.122-1.022-3.122-3.01 0-1.736 1.358-3.136 3.444-3.136 2.744 0 3.85 2.226 3.85 4.816 0 2.702-1.414 4.83-4.116 4.83zm.392-4.9c.798 0 1.568-.434 2.044-1.106-.098-1.008-.644-2.184-2.086-2.184-1.232 0-1.876.868-1.876 1.624 0 1.148.896 1.666 1.918 1.666zm6.72 4.214c0 .966-.532 1.848-1.302 2.394l-.672-.546c.448-.266.924-.84 1.008-1.316a.724.724 0 01-.238.042c-.462 0-.826-.378-.826-.896s.42-.952.952-.952c.574 0 1.078.462 1.078 1.274zm4.522.7c-1.652 0-2.884-.672-3.528-1.512l.896-1.078c.602.7 1.582 1.134 2.576 1.134 1.232 0 1.946-.574 1.946-1.428 0-.924-.728-1.33-2.072-1.33-.392 0-.924.014-1.064.028v-1.484c.154.014.7.014 1.064.014 1.106 0 1.932-.378 1.932-1.232s-.854-1.302-1.89-1.302c-.966 0-1.75.35-2.422 1.036l-.84-1.022c.728-.854 1.862-1.47 3.416-1.47 2.016 0 3.36.952 3.36 2.506 0 1.26-1.064 1.988-2.016 2.142.896.098 2.17.826 2.17 2.268 0 1.596-1.358 2.73-3.528 2.73zm8.498 0c-2.632 0-3.738-2.492-3.738-4.83 0-2.352 1.106-4.816 3.738-4.816 2.618 0 3.724 2.464 3.724 4.816 0 2.338-1.106 4.83-3.724 4.83zm0-1.456c1.512 0 2.058-1.596 2.058-3.374 0-1.792-.532-3.36-2.058-3.36-1.526 0-2.072 1.568-2.072 3.36 0 1.778.546 3.374 2.072 3.374zm8.638 1.456c-2.632 0-3.738-2.492-3.738-4.83 0-2.352 1.106-4.816 3.738-4.816 2.618 0 3.724 2.464 3.724 4.816 0 2.338-1.106 4.83-3.724 4.83zm0-1.456c1.512 0 2.058-1.596 2.058-3.374 0-1.792-.532-3.36-2.058-3.36-1.526 0-2.072 1.568-2.072 3.36 0 1.778.546 3.374 2.072 3.374zm39.23-4.558c-1.162 0-2.058-.42-2.688-1.036l.77-1.246c.49.518 1.022.826 1.918.826 1.694 0 2.464-1.554 2.464-3.08 0-.084 0-.182-.014-.266-.42.63-1.4 1.302-2.506 1.302-1.68 0-3.122-1.022-3.122-3.01 0-1.736 1.358-3.136 3.444-3.136 2.744 0 3.85 2.226 3.85 4.816 0 2.702-1.414 4.83-4.116 4.83zm.392-4.9c.798 0 1.568-.434 2.044-1.106-.098-1.008-.644-2.184-2.086-2.184-1.232 0-1.876.868-1.876 1.624 0 1.148.896 1.666 1.918 1.666zm7.798 4.746h-1.806l3.528-7.896h-4.844v-1.442h6.734v1.134L200.914 276zm6.664-4.844c-1.386 0-2.324-1.008-2.324-2.31 0-1.316.938-2.324 2.324-2.324 1.4 0 2.324 1.008 2.324 2.324 0 1.302-.924 2.31-2.324 2.31zm.028 4.844h-.938l5.964-9.338h.952L207.606 276zm4.998.168c-1.386 0-2.324-1.008-2.324-2.31 0-1.316.938-2.324 2.324-2.324s2.324 1.008 2.324 2.324c0 1.302-.938 2.31-2.324 2.31zm-5.026-5.95c.728 0 1.246-.56 1.246-1.372 0-.826-.518-1.4-1.246-1.4-.714 0-1.232.574-1.232 1.4 0 .812.518 1.372 1.232 1.372zm5.026 5.012c.728 0 1.246-.56 1.246-1.372 0-.826-.518-1.4-1.246-1.4s-1.246.574-1.246 1.4c0 .812.518 1.372 1.246 1.372z"/><g transform="translate(189 285)"><rect width="100" height="8" fill="#F4F4F4" rx="4"/><rect width="97" height="8" fill="#01B2D0" rx="4"/></g><path fill="#384254" fill-rule="nonzero" d="M311.482 276h-1.638v-2.114h-4.452v-1.316l3.836-5.908h2.254v5.782h1.246v1.442h-1.246V276zm-1.638-3.556v-4.312l-2.842 4.312h2.842zm7 3.71c-1.162 0-2.058-.42-2.688-1.036l.77-1.246c.49.518 1.022.826 1.918.826 1.694 0 2.464-1.554 2.464-3.08 0-.084 0-.182-.014-.266-.42.63-1.4 1.302-2.506 1.302-1.68 0-3.122-1.022-3.122-3.01 0-1.736 1.358-3.136 3.444-3.136 2.744 0 3.85 2.226 3.85 4.816 0 2.702-1.414 4.83-4.116 4.83zm.392-4.9c.798 0 1.568-.434 2.044-1.106-.098-1.008-.644-2.184-2.086-2.184-1.232 0-1.876.868-1.876 1.624 0 1.148.896 1.666 1.918 1.666zm7.014-.098c-1.386 0-2.324-1.008-2.324-2.31 0-1.316.938-2.324 2.324-2.324 1.4 0 2.324 1.008 2.324 2.324 0 1.302-.924 2.31-2.324 2.31zm.028 4.844h-.938l5.964-9.338h.952L324.278 276zm4.998.168c-1.386 0-2.324-1.008-2.324-2.31 0-1.316.938-2.324 2.324-2.324s2.324 1.008 2.324 2.324c0 1.302-.938 2.31-2.324 2.31zm-5.026-5.95c.728 0 1.246-.56 1.246-1.372 0-.826-.518-1.4-1.246-1.4-.714 0-1.232.574-1.232 1.4 0 .812.518 1.372 1.232 1.372zm5.026 5.012c.728 0 1.246-.56 1.246-1.372 0-.826-.518-1.4-1.246-1.4s-1.246.574-1.246 1.4c0 .812.518 1.372 1.246 1.372z"/><g transform="translate(305 285)"><rect width="100" height="8" fill="#F4F4F4" rx="4"/><rect width="49" height="8" fill="#01B2D0" rx="4"/></g></g><g mask="url(#c)"><path fill="#384254" fill-opacity=".5" fill-rule="nonzero" d="M44.638 328h-1.162v-9.338h6.118v1.036h-4.956v3.01h4.858v1.036h-4.858V328zm7.56 0h-1.05v-6.762h1.05v1.078c.546-.7 1.33-1.232 2.254-1.232v1.078a3.468 3.468 0 00-.406-.028c-.658 0-1.54.532-1.848 1.078V328zm6.636.168c-2.016 0-3.458-1.442-3.458-3.556 0-1.96 1.4-3.542 3.332-3.542 2.044 0 3.248 1.596 3.248 3.626v.266h-5.46c.084 1.274.966 2.338 2.422 2.338.784 0 1.554-.308 2.1-.868l.504.686c-.686.672-1.596 1.05-2.688 1.05zm2.086-3.99c-.014-.994-.686-2.24-2.226-2.24-1.442 0-2.156 1.218-2.212 2.24h4.438zM69.264 328h-1.036v-4.424c0-1.204-.616-1.568-1.526-1.568-.826 0-1.596.504-2.002 1.05V328h-1.05v-6.762h1.05v.98c.476-.574 1.4-1.148 2.422-1.148 1.4 0 2.142.714 2.142 2.184V328zm5.096.168c-2.016 0-3.374-1.554-3.374-3.556s1.358-3.542 3.374-3.542c1.232 0 1.96.504 2.478 1.176l-.7.63c-.448-.616-1.022-.868-1.722-.868-1.428 0-2.338 1.106-2.338 2.604s.91 2.618 2.338 2.618c.7 0 1.274-.28 1.722-.882l.7.644c-.518.672-1.246 1.176-2.478 1.176zm9.59-.168H82.9v-4.452c0-1.204-.602-1.54-1.526-1.54-.812 0-1.596.504-1.988 1.05V328h-1.05v-9.338h1.05v3.556c.462-.574 1.386-1.148 2.408-1.148 1.414 0 2.156.686 2.156 2.156V328z"/><path fill="#384254" fill-rule="nonzero" d="M124.724 328.154c-1.162 0-2.058-.42-2.688-1.036l.77-1.246c.49.518 1.022.826 1.918.826 1.694 0 2.464-1.554 2.464-3.08 0-.084 0-.182-.014-.266-.42.63-1.4 1.302-2.506 1.302-1.68 0-3.122-1.022-3.122-3.01 0-1.736 1.358-3.136 3.444-3.136 2.744 0 3.85 2.226 3.85 4.816 0 2.702-1.414 4.83-4.116 4.83zm.392-4.9c.798 0 1.568-.434 2.044-1.106-.098-1.008-.644-2.184-2.086-2.184-1.232 0-1.876.868-1.876 1.624 0 1.148.896 1.666 1.918 1.666zm6.72 4.214c0 .966-.532 1.848-1.302 2.394l-.672-.546c.448-.266.924-.84 1.008-1.316a.724.724 0 01-.238.042c-.462 0-.826-.378-.826-.896s.42-.952.952-.952c.574 0 1.078.462 1.078 1.274zm8.12.532h-6.762v-1.302c3.626-2.744 5.054-3.948 5.054-5.306 0-.98-.854-1.414-1.708-1.414-1.092 0-1.918.434-2.52 1.106l-.952-1.064c.826-1.008 2.142-1.498 3.458-1.498 1.806 0 3.374 1.008 3.374 2.87 0 1.736-1.582 3.276-4.074 5.166h4.13V328zm4.592.154c-1.162 0-2.058-.42-2.688-1.036l.77-1.246c.49.518 1.022.826 1.918.826 1.694 0 2.464-1.554 2.464-3.08 0-.084 0-.182-.014-.266-.42.63-1.4 1.302-2.506 1.302-1.68 0-3.122-1.022-3.122-3.01 0-1.736 1.358-3.136 3.444-3.136 2.744 0 3.85 2.226 3.85 4.816 0 2.702-1.414 4.83-4.116 4.83zm.392-4.9c.798 0 1.568-.434 2.044-1.106-.098-1.008-.644-2.184-2.086-2.184-1.232 0-1.876.868-1.876 1.624 0 1.148.896 1.666 1.918 1.666zM156.7 328h-6.762v-1.302c3.626-2.744 5.054-3.948 5.054-5.306 0-.98-.854-1.414-1.708-1.414-1.092 0-1.918.434-2.52 1.106l-.952-1.064c.826-1.008 2.142-1.498 3.458-1.498 1.806 0 3.374 1.008 3.374 2.87 0 1.736-1.582 3.276-4.074 5.166h4.13V328zm36.024-5.846c-1.162 0-2.058-.42-2.688-1.036l.77-1.246c.49.518 1.022.826 1.918.826 1.694 0 2.464-1.554 2.464-3.08 0-.084 0-.182-.014-.266-.42.63-1.4 1.302-2.506 1.302-1.68 0-3.122-1.022-3.122-3.01 0-1.736 1.358-3.136 3.444-3.136 2.744 0 3.85 2.226 3.85 4.816 0 2.702-1.414 4.83-4.116 4.83zm.392-4.9c.798 0 1.568-.434 2.044-1.106-.098-1.008-.644-2.184-2.086-2.184-1.232 0-1.876.868-1.876 1.624 0 1.148.896 1.666 1.918 1.666zm8.022 4.9c-1.162 0-2.058-.42-2.688-1.036l.77-1.246c.49.518 1.022.826 1.918.826 1.694 0 2.464-1.554 2.464-3.08 0-.084 0-.182-.014-.266-.42.63-1.4 1.302-2.506 1.302-1.68 0-3.122-1.022-3.122-3.01 0-1.736 1.358-3.136 3.444-3.136 2.744 0 3.85 2.226 3.85 4.816 0 2.702-1.414 4.83-4.116 4.83zm.392-4.9c.798 0 1.568-.434 2.044-1.106-.098-1.008-.644-2.184-2.086-2.184-1.232 0-1.876.868-1.876 1.624 0 1.148.896 1.666 1.918 1.666zm7.014-.098c-1.386 0-2.324-1.008-2.324-2.31 0-1.316.938-2.324 2.324-2.324 1.4 0 2.324 1.008 2.324 2.324 0 1.302-.924 2.31-2.324 2.31zm.028 4.844h-.938l5.964-9.338h.952L208.572 322zm4.998.168c-1.386 0-2.324-1.008-2.324-2.31 0-1.316.938-2.324 2.324-2.324s2.324 1.008 2.324 2.324c0 1.302-.938 2.31-2.324 2.31zm-5.026-5.95c.728 0 1.246-.56 1.246-1.372 0-.826-.518-1.4-1.246-1.4-.714 0-1.232.574-1.232 1.4 0 .812.518 1.372 1.232 1.372zm5.026 5.012c.728 0 1.246-.56 1.246-1.372 0-.826-.518-1.4-1.246-1.4s-1.246.574-1.246 1.4c0 .812.518 1.372 1.246 1.372z"/><g transform="translate(189 331)"><rect width="100" height="8" fill="#F4F4F4" rx="4"/><rect width="99" height="8" fill="#01B2D0" rx="4"/></g><path fill="#384254" fill-rule="nonzero" d="M308.864 322.168c-1.652 0-2.884-.672-3.528-1.512l.896-1.078c.602.7 1.582 1.134 2.576 1.134 1.232 0 1.946-.574 1.946-1.428 0-.924-.728-1.33-2.072-1.33-.392 0-.924.014-1.064.028v-1.484c.154.014.7.014 1.064.014 1.106 0 1.932-.378 1.932-1.232s-.854-1.302-1.89-1.302c-.966 0-1.75.35-2.422 1.036l-.84-1.022c.728-.854 1.862-1.47 3.416-1.47 2.016 0 3.36.952 3.36 2.506 0 1.26-1.064 1.988-2.016 2.142.896.098 2.17.826 2.17 2.268 0 1.596-1.358 2.73-3.528 2.73zm8.61 0c-2.744 0-3.85-2.226-3.85-4.83 0-2.688 1.414-4.816 4.116-4.816 1.148 0 2.044.406 2.674 1.036l-.756 1.232c-.49-.504-1.036-.812-1.918-.812-1.568 0-2.464 1.442-2.464 3.08v.266c.434-.63 1.414-1.316 2.506-1.316 1.68 0 3.136 1.036 3.136 3.024 0 1.722-1.358 3.136-3.444 3.136zm-.098-1.456c1.232 0 1.876-.882 1.876-1.624 0-1.148-.896-1.666-1.904-1.666-.798 0-1.582.42-2.044 1.092.084 1.008.644 2.198 2.072 2.198zm6.79-3.556c-1.386 0-2.324-1.008-2.324-2.31 0-1.316.938-2.324 2.324-2.324 1.4 0 2.324 1.008 2.324 2.324 0 1.302-.924 2.31-2.324 2.31zm.028 4.844h-.938l5.964-9.338h.952L324.194 322zm4.998.168c-1.386 0-2.324-1.008-2.324-2.31 0-1.316.938-2.324 2.324-2.324s2.324 1.008 2.324 2.324c0 1.302-.938 2.31-2.324 2.31zm-5.026-5.95c.728 0 1.246-.56 1.246-1.372 0-.826-.518-1.4-1.246-1.4-.714 0-1.232.574-1.232 1.4 0 .812.518 1.372 1.232 1.372zm5.026 5.012c.728 0 1.246-.56 1.246-1.372 0-.826-.518-1.4-1.246-1.4s-1.246.574-1.246 1.4c0 .812.518 1.372 1.246 1.372z"/><g transform="translate(305 331)"><rect width="100" height="8" fill="#F4F4F4" rx="4"/><rect width="62" height="8" fill="#01B2D0" rx="4"/></g></g><g mask="url(#c)"><path fill="#384254" fill-opacity=".5" fill-rule="nonzero" d="M45.254 374h-3.192v-9.338h3.192c2.912 0 4.788 2.03 4.788 4.676 0 2.66-1.876 4.662-4.788 4.662zm0-1.036c2.268 0 3.584-1.624 3.584-3.626 0-2.016-1.274-3.64-3.584-3.64h-2.03v7.266h2.03zm9.632 1.204c-2.016 0-3.458-1.442-3.458-3.556 0-1.96 1.4-3.542 3.332-3.542 2.044 0 3.248 1.596 3.248 3.626v.266h-5.46c.084 1.274.966 2.338 2.422 2.338.784 0 1.554-.308 2.1-.868l.504.686c-.686.672-1.596 1.05-2.688 1.05zm2.086-3.99c-.014-.994-.686-2.24-2.226-2.24-1.442 0-2.156 1.218-2.212 2.24h4.438zM61.046 374h-1.05v-5.838h-1.12v-.924h1.12v-.518c0-1.386.77-2.198 1.96-2.198.546 0 1.008.126 1.428.518l-.434.672a1.214 1.214 0 00-.826-.322c-.7 0-1.078.462-1.078 1.33v.518h1.372v.924h-1.372V374zm7.91 0h-1.05v-.77c-.546.616-1.33.938-2.24.938-1.134 0-2.352-.77-2.352-2.24 0-1.526 1.204-2.226 2.352-2.226.924 0 1.694.294 2.24.91v-1.218c0-.896-.728-1.414-1.708-1.414-.812 0-1.47.28-2.072.938l-.49-.728c.728-.756 1.596-1.12 2.702-1.12 1.442 0 2.618.644 2.618 2.282V374zm-2.898-.588c.728 0 1.442-.28 1.848-.84v-1.288c-.406-.546-1.12-.826-1.848-.826-.994 0-1.68.616-1.68 1.47 0 .868.686 1.484 1.68 1.484zm10.626.588h-1.05v-.952c-.518.588-1.4 1.12-2.408 1.12-1.414 0-2.156-.7-2.156-2.156v-4.774h1.05v4.452c0 1.19.602 1.54 1.526 1.54.812 0 1.596-.476 1.988-1.022v-4.97h1.05V374zm3.15 0h-1.05v-9.338h1.05V374zm3.822.168c-1.008 0-1.512-.574-1.512-1.582v-4.424h-1.12v-.924h1.12v-1.848h1.064v1.848h1.372v.924h-1.372v4.2c0 .504.224.868.672.868.308 0 .574-.14.714-.294l.308.798c-.266.252-.644.434-1.246.434z"/><path fill="#384254" fill-rule="nonzero" d="M124.724 374.154c-1.162 0-2.058-.42-2.688-1.036l.77-1.246c.49.518 1.022.826 1.918.826 1.694 0 2.464-1.554 2.464-3.08 0-.084 0-.182-.014-.266-.42.63-1.4 1.302-2.506 1.302-1.68 0-3.122-1.022-3.122-3.01 0-1.736 1.358-3.136 3.444-3.136 2.744 0 3.85 2.226 3.85 4.816 0 2.702-1.414 4.83-4.116 4.83zm.392-4.9c.798 0 1.568-.434 2.044-1.106-.098-1.008-.644-2.184-2.086-2.184-1.232 0-1.876.868-1.876 1.624 0 1.148.896 1.666 1.918 1.666zm6.72 4.214c0 .966-.532 1.848-1.302 2.394l-.672-.546c.448-.266.924-.84 1.008-1.316a.724.724 0 01-.238.042c-.462 0-.826-.378-.826-.896s.42-.952.952-.952c.574 0 1.078.462 1.078 1.274zm8.12.532h-6.762v-1.302c3.626-2.744 5.054-3.948 5.054-5.306 0-.98-.854-1.414-1.708-1.414-1.092 0-1.918.434-2.52 1.106l-.952-1.064c.826-1.008 2.142-1.498 3.458-1.498 1.806 0 3.374 1.008 3.374 2.87 0 1.736-1.582 3.276-4.074 5.166h4.13V374zm4.368 0h-1.806l3.528-7.896h-4.844v-1.442h6.734v1.134L144.324 374zm7.672.154c-1.162 0-2.058-.42-2.688-1.036l.77-1.246c.49.518 1.022.826 1.918.826 1.694 0 2.464-1.554 2.464-3.08 0-.084 0-.182-.014-.266-.42.63-1.4 1.302-2.506 1.302-1.68 0-3.122-1.022-3.122-3.01 0-1.736 1.358-3.136 3.444-3.136 2.744 0 3.85 2.226 3.85 4.816 0 2.702-1.414 4.83-4.116 4.83zm.392-4.9c.798 0 1.568-.434 2.044-1.106-.098-1.008-.644-2.184-2.086-2.184-1.232 0-1.876.868-1.876 1.624 0 1.148.896 1.666 1.918 1.666zm40.336-1.1c-1.162 0-2.058-.42-2.688-1.036l.77-1.246c.49.518 1.022.826 1.918.826 1.694 0 2.464-1.554 2.464-3.08 0-.084 0-.182-.014-.266-.42.63-1.4 1.302-2.506 1.302-1.68 0-3.122-1.022-3.122-3.01 0-1.736 1.358-3.136 3.444-3.136 2.744 0 3.85 2.226 3.85 4.816 0 2.702-1.414 4.83-4.116 4.83zm.392-4.9c.798 0 1.568-.434 2.044-1.106-.098-1.008-.644-2.184-2.086-2.184-1.232 0-1.876.868-1.876 1.624 0 1.148.896 1.666 1.918 1.666zm8.47 4.914c-1.918 0-3.584-.896-3.584-2.576 0-1.176.966-2.03 2.1-2.408-1.05-.336-1.946-1.036-1.946-2.212 0-1.736 1.778-2.45 3.43-2.45 1.652 0 3.43.714 3.43 2.45 0 1.176-.896 1.876-1.946 2.212 1.134.378 2.1 1.232 2.1 2.408 0 1.68-1.68 2.576-3.584 2.576zm0-5.642c.574-.098 1.764-.434 1.764-1.302 0-.798-.756-1.246-1.764-1.246s-1.764.448-1.764 1.246c0 .868 1.204 1.204 1.764 1.302zm0 4.186c1.036 0 1.918-.504 1.918-1.33 0-.966-1.344-1.386-1.918-1.47-.588.084-1.918.504-1.918 1.47 0 .826.854 1.33 1.918 1.33zm6.888-3.556c-1.386 0-2.324-1.008-2.324-2.31 0-1.316.938-2.324 2.324-2.324 1.4 0 2.324 1.008 2.324 2.324 0 1.302-.924 2.31-2.324 2.31zm.028 4.844h-.938l5.964-9.338h.952L208.502 368zm4.998.168c-1.386 0-2.324-1.008-2.324-2.31 0-1.316.938-2.324 2.324-2.324s2.324 1.008 2.324 2.324c0 1.302-.938 2.31-2.324 2.31zm-5.026-5.95c.728 0 1.246-.56 1.246-1.372 0-.826-.518-1.4-1.246-1.4-.714 0-1.232.574-1.232 1.4 0 .812.518 1.372 1.232 1.372zm5.026 5.012c.728 0 1.246-.56 1.246-1.372 0-.826-.518-1.4-1.246-1.4s-1.246.574-1.246 1.4c0 .812.518 1.372 1.246 1.372z"/><g transform="translate(189 377)"><rect width="100" height="8" fill="#F4F4F4" rx="4"/><rect width="98" height="8" fill="#01B2D0" rx="4"/></g><path fill="#384254" fill-rule="nonzero" d="M311.482 368h-1.638v-2.114h-4.452v-1.316l3.836-5.908h2.254v5.782h1.246v1.442h-1.246V368zm-1.638-3.556v-4.312l-2.842 4.312h2.842zm7.14 3.724c-1.652 0-2.884-.672-3.528-1.512l.896-1.078c.602.7 1.582 1.134 2.576 1.134 1.232 0 1.946-.574 1.946-1.428 0-.924-.728-1.33-2.072-1.33-.392 0-.924.014-1.064.028v-1.484c.154.014.7.014 1.064.014 1.106 0 1.932-.378 1.932-1.232s-.854-1.302-1.89-1.302c-.966 0-1.75.35-2.422 1.036l-.84-1.022c.728-.854 1.862-1.47 3.416-1.47 2.016 0 3.36.952 3.36 2.506 0 1.26-1.064 1.988-2.016 2.142.896.098 2.17.826 2.17 2.268 0 1.596-1.358 2.73-3.528 2.73zm6.888-5.012c-1.386 0-2.324-1.008-2.324-2.31 0-1.316.938-2.324 2.324-2.324 1.4 0 2.324 1.008 2.324 2.324 0 1.302-.924 2.31-2.324 2.31zM323.9 368h-.938l5.964-9.338h.952L323.9 368zm4.998.168c-1.386 0-2.324-1.008-2.324-2.31 0-1.316.938-2.324 2.324-2.324s2.324 1.008 2.324 2.324c0 1.302-.938 2.31-2.324 2.31zm-5.026-5.95c.728 0 1.246-.56 1.246-1.372 0-.826-.518-1.4-1.246-1.4-.714 0-1.232.574-1.232 1.4 0 .812.518 1.372 1.232 1.372zm5.026 5.012c.728 0 1.246-.56 1.246-1.372 0-.826-.518-1.4-1.246-1.4s-1.246.574-1.246 1.4c0 .812.518 1.372 1.246 1.372z"/><g transform="translate(305 377)"><rect width="100" height="8" fill="#F4F4F4" rx="4"/><rect width="52" height="8" fill="#01B2D0" rx="4"/></g></g><g mask="url(#c)"><path fill="#384254" fill-rule="nonzero" d="M45.422 144.168c-2.688 0-4.802-1.96-4.802-4.83s2.114-4.83 4.802-4.83c1.652 0 2.8.784 3.542 1.848l-.966.546c-.532-.798-1.512-1.358-2.576-1.358-2.044 0-3.598 1.554-3.598 3.794 0 2.212 1.554 3.794 3.598 3.794a3.176 3.176 0 002.576-1.358l.98.532c-.784 1.078-1.904 1.862-3.556 1.862zm7.952 0c-2.058 0-3.346-1.596-3.346-3.556s1.288-3.542 3.346-3.542 3.346 1.582 3.346 3.542c0 1.96-1.288 3.556-3.346 3.556zm0-.938c1.442 0 2.24-1.232 2.24-2.618 0-1.372-.798-2.604-2.24-2.604-1.442 0-2.24 1.232-2.24 2.604 0 1.386.798 2.618 2.24 2.618zm10.668.77h-1.036v-4.424c0-1.204-.616-1.568-1.526-1.568-.826 0-1.596.504-2.002 1.05V144h-1.05v-6.762h1.05v.98c.476-.574 1.4-1.148 2.422-1.148 1.4 0 2.142.714 2.142 2.184V144zm3.836.168c-1.008 0-1.512-.574-1.512-1.582v-4.424h-1.12v-.924h1.12v-1.848h1.064v1.848h1.372v.924H67.43v4.2c0 .504.224.868.672.868.308 0 .574-.14.714-.294l.308.798c-.266.252-.644.434-1.246.434zm3.444-.168h-1.05v-6.762h1.05v1.078c.546-.7 1.33-1.232 2.254-1.232v1.078a3.468 3.468 0 00-.406-.028c-.658 0-1.54.532-1.848 1.078V144zm6.524.168c-2.058 0-3.346-1.596-3.346-3.556s1.288-3.542 3.346-3.542 3.346 1.582 3.346 3.542c0 1.96-1.288 3.556-3.346 3.556zm0-.938c1.442 0 2.24-1.232 2.24-2.618 0-1.372-.798-2.604-2.24-2.604-1.442 0-2.24 1.232-2.24 2.604 0 1.386.798 2.618 2.24 2.618zm6.104.77H82.9v-9.338h1.05V144zm41.222.168c-1.918 0-3.584-.896-3.584-2.576 0-1.176.966-2.03 2.1-2.408-1.05-.336-1.946-1.036-1.946-2.212 0-1.736 1.778-2.45 3.43-2.45 1.652 0 3.43.714 3.43 2.45 0 1.176-.896 1.876-1.946 2.212 1.134.378 2.1 1.232 2.1 2.408 0 1.68-1.68 2.576-3.584 2.576zm0-5.642c.574-.098 1.764-.434 1.764-1.302 0-.798-.756-1.246-1.764-1.246s-1.764.448-1.764 1.246c0 .868 1.204 1.204 1.764 1.302zm0 4.186c1.036 0 1.918-.504 1.918-1.33 0-.966-1.344-1.386-1.918-1.47-.588.084-1.918.504-1.918 1.47 0 .826.854 1.33 1.918 1.33zm6.944.756c0 .966-.532 1.848-1.302 2.394l-.672-.546c.448-.266.924-.84 1.008-1.316a.724.724 0 01-.238.042c-.462 0-.826-.378-.826-.896s.42-.952.952-.952c.574 0 1.078.462 1.078 1.274zm7.14.532h-1.638v-2.114h-4.452v-1.316l3.836-5.908h2.254v5.782h1.246v1.442h-1.246V144zm-1.638-3.556v-4.312l-2.842 4.312h2.842zm7.602 3.724c-2.632 0-3.738-2.492-3.738-4.83 0-2.352 1.106-4.816 3.738-4.816 2.618 0 3.724 2.464 3.724 4.816 0 2.338-1.106 4.83-3.724 4.83zm0-1.456c1.512 0 2.058-1.596 2.058-3.374 0-1.792-.532-3.36-2.058-3.36-1.526 0-2.072 1.568-2.072 3.36 0 1.778.546 3.374 2.072 3.374zm8.638 1.456c-2.632 0-3.738-2.492-3.738-4.83 0-2.352 1.106-4.816 3.738-4.816 2.618 0 3.724 2.464 3.724 4.816 0 2.338-1.106 4.83-3.724 4.83zm0-1.456c1.512 0 2.058-1.596 2.058-3.374 0-1.792-.532-3.36-2.058-3.36-1.526 0-2.072 1.568-2.072 3.36 0 1.778.546 3.374 2.072 3.374zm38.866-4.558c-1.162 0-2.058-.42-2.688-1.036l.77-1.246c.49.518 1.022.826 1.918.826 1.694 0 2.464-1.554 2.464-3.08 0-.084 0-.182-.014-.266-.42.63-1.4 1.302-2.506 1.302-1.68 0-3.122-1.022-3.122-3.01 0-1.736 1.358-3.136 3.444-3.136 2.744 0 3.85 2.226 3.85 4.816 0 2.702-1.414 4.83-4.116 4.83zm.392-4.9c.798 0 1.568-.434 2.044-1.106-.098-1.008-.644-2.184-2.086-2.184-1.232 0-1.876.868-1.876 1.624 0 1.148.896 1.666 1.918 1.666zm8.022 4.9c-1.162 0-2.058-.42-2.688-1.036l.77-1.246c.49.518 1.022.826 1.918.826 1.694 0 2.464-1.554 2.464-3.08 0-.084 0-.182-.014-.266-.42.63-1.4 1.302-2.506 1.302-1.68 0-3.122-1.022-3.122-3.01 0-1.736 1.358-3.136 3.444-3.136 2.744 0 3.85 2.226 3.85 4.816 0 2.702-1.414 4.83-4.116 4.83zm.392-4.9c.798 0 1.568-.434 2.044-1.106-.098-1.008-.644-2.184-2.086-2.184-1.232 0-1.876.868-1.876 1.624 0 1.148.896 1.666 1.918 1.666zm7.014-.098c-1.386 0-2.324-1.008-2.324-2.31 0-1.316.938-2.324 2.324-2.324 1.4 0 2.324 1.008 2.324 2.324 0 1.302-.924 2.31-2.324 2.31zm.028 4.844h-.938l5.964-9.338h.952L208.572 138zm4.998.168c-1.386 0-2.324-1.008-2.324-2.31 0-1.316.938-2.324 2.324-2.324s2.324 1.008 2.324 2.324c0 1.302-.938 2.31-2.324 2.31zm-5.026-5.95c.728 0 1.246-.56 1.246-1.372 0-.826-.518-1.4-1.246-1.4-.714 0-1.232.574-1.232 1.4 0 .812.518 1.372 1.232 1.372zm5.026 5.012c.728 0 1.246-.56 1.246-1.372 0-.826-.518-1.4-1.246-1.4s-1.246.574-1.246 1.4c0 .812.518 1.372 1.246 1.372z"/><g transform="translate(189 147)"><rect width="100" height="8" fill="#F4F4F4" rx="4"/><rect width="99" height="8" fill="#01B2D0" rx="4"/></g><path fill="#384254" fill-rule="nonzero" d="M308.864 138.168c-1.652 0-2.884-.672-3.528-1.512l.896-1.078c.602.7 1.582 1.134 2.576 1.134 1.232 0 1.946-.574 1.946-1.428 0-.924-.728-1.33-2.072-1.33-.392 0-.924.014-1.064.028v-1.484c.154.014.7.014 1.064.014 1.106 0 1.932-.378 1.932-1.232s-.854-1.302-1.89-1.302c-.966 0-1.75.35-2.422 1.036l-.84-1.022c.728-.854 1.862-1.47 3.416-1.47 2.016 0 3.36.952 3.36 2.506 0 1.26-1.064 1.988-2.016 2.142.896.098 2.17.826 2.17 2.268 0 1.596-1.358 2.73-3.528 2.73zm10.654-.168h-1.638v-2.114h-4.452v-1.316l3.836-5.908h2.254v5.782h1.246v1.442h-1.246V138zm-1.638-3.556v-4.312l-2.842 4.312h2.842zm5.992-1.288c-1.386 0-2.324-1.008-2.324-2.31 0-1.316.938-2.324 2.324-2.324 1.4 0 2.324 1.008 2.324 2.324 0 1.302-.924 2.31-2.324 2.31zM323.9 138h-.938l5.964-9.338h.952L323.9 138zm4.998.168c-1.386 0-2.324-1.008-2.324-2.31 0-1.316.938-2.324 2.324-2.324s2.324 1.008 2.324 2.324c0 1.302-.938 2.31-2.324 2.31zm-5.026-5.95c.728 0 1.246-.56 1.246-1.372 0-.826-.518-1.4-1.246-1.4-.714 0-1.232.574-1.232 1.4 0 .812.518 1.372 1.232 1.372zm5.026 5.012c.728 0 1.246-.56 1.246-1.372 0-.826-.518-1.4-1.246-1.4s-1.246.574-1.246 1.4c0 .812.518 1.372 1.246 1.372z"/><g transform="translate(305 147)"><rect width="100" height="8" fill="#F4F4F4" rx="4"/><rect width="34" height="8" fill="#01B2D0" rx="4"/></g></g><path fill="#384254" fill-rule="nonzero" d="M31.788 101h-1.356l-4.176-5.724V101h-1.404v-8.004h1.44l4.092 5.544v-5.544h1.404V101zm8.916 0h-1.596l-.588-1.548h-3.672L34.26 101h-1.596l3.144-8.004h1.752L40.704 101zm-2.58-2.784l-1.44-3.816-1.44 3.816h2.88zM49.884 101H48.48v-6.18L46.032 101h-.6l-2.46-6.18V101h-1.404v-8.004h1.98l2.184 5.496 2.172-5.496h1.98V101zm7.188 0h-5.484v-8.004h5.484v1.236h-4.08v2.064h3.996v1.236h-3.996v2.232h4.08V101zm68.528.144c-1.476 0-2.544-.528-3.264-1.272l.792-1.092a3.439 3.439 0 002.532 1.116c1.152 0 1.596-.564 1.596-1.104 0-1.68-4.656-.636-4.656-3.576 0-1.332 1.152-2.352 2.916-2.352 1.236 0 2.256.408 2.988 1.128l-.792 1.044c-.636-.636-1.488-.924-2.328-.924-.816 0-1.344.408-1.344.996 0 1.5 4.656.576 4.656 3.552 0 1.332-.948 2.484-3.096 2.484zm9.864-.144h-5.484v-8.004h5.484v1.236h-4.08v2.064h3.996v1.236h-3.996v2.232h4.08V101zm8.376 0h-1.356l-4.176-5.724V101h-1.404v-8.004h1.44l4.092 5.544v-5.544h1.404V101zm5.016 0h-1.404v-6.768h-2.424v-1.236h6.252v1.236h-2.424V101zm43.984 0h-2.988v-8.004h2.976c2.508 0 4.188 1.656 4.188 3.996 0 2.364-1.68 4.008-4.176 4.008zm-.012-1.236c1.74 0 2.748-1.248 2.748-2.772 0-1.536-.96-2.76-2.736-2.76h-1.584v5.532h1.572zM203.856 101h-5.484v-8.004h5.484v1.236h-4.08v2.064h3.996v1.236h-3.996v2.232h4.08V101zm6.276 0H205.2v-8.004h1.404v6.768h3.528V101zm2.64 0h-1.404v-8.004h1.404V101zm5.772 0h-1.752l-3.144-8.004h1.596l2.424 6.468 2.424-6.468h1.596L218.544 101zm9.492 0h-5.484v-8.004h5.484v1.236h-4.08v2.064h3.996v1.236h-3.996v2.232h4.08V101zm7.644 0h-1.632l-1.764-2.988h-1.404V101h-1.404v-8.004h3.516c1.584 0 2.628 1.02 2.628 2.508 0 1.416-.936 2.196-1.908 2.352L235.68 101zm-2.868-4.224c.792 0 1.368-.504 1.368-1.284 0-.768-.576-1.26-1.368-1.26h-1.932v2.544h1.932zm9.696 4.224h-5.484v-8.004h5.484v1.236h-4.08v2.064h3.996v1.236h-3.996v2.232h4.08V101zm4.428 0h-2.988v-8.004h2.976c2.508 0 4.188 1.656 4.188 3.996 0 2.364-1.68 4.008-4.176 4.008zm-.012-1.236c1.74 0 2.748-1.248 2.748-2.772 0-1.536-.96-2.76-2.736-2.76h-1.584v5.532h1.572zm62.672 1.38c-2.4 0-4.092-1.752-4.092-4.14s1.692-4.14 4.092-4.14c2.388 0 4.092 1.752 4.092 4.14s-1.704 4.14-4.092 4.14zm0-1.248c1.608 0 2.652-1.248 2.652-2.892 0-1.656-1.044-2.892-2.652-2.892-1.62 0-2.652 1.236-2.652 2.892 0 1.644 1.032 2.892 2.652 2.892zm6.84 1.104h-1.404v-8.004h3.528c1.68 0 2.604 1.14 2.604 2.508 0 1.356-.936 2.496-2.604 2.496h-2.124v3zm1.932-4.236c.792 0 1.356-.504 1.356-1.26 0-.768-.564-1.272-1.356-1.272h-1.932v2.532h1.932zm9.456 4.236h-5.484v-8.004h5.484v1.236h-4.08v2.064h3.996v1.236h-3.996v2.232h4.08V101zm8.376 0h-1.356l-4.176-5.724V101h-1.404v-8.004h1.44l4.092 5.544v-5.544h1.404V101zm7.188 0h-5.484v-8.004h5.484v1.236h-4.08v2.064h3.996v1.236h-3.996v2.232h4.08V101zm4.428 0h-2.988v-8.004h2.976c2.508 0 4.188 1.656 4.188 3.996 0 2.364-1.68 4.008-4.176 4.008zm-.012-1.236c1.74 0 2.748-1.248 2.748-2.772 0-1.536-.96-2.76-2.736-2.76h-1.584v5.532h1.572z" mask="url(#c)" opacity=".5"/></g><g transform="translate(16 415)"><use fill="#000" filter="url(#d)" xlink:href="#e"/><use fill="#FFF" stroke="#8D8D8D" stroke-opacity=".24" xlink:href="#e"/><path fill="#384254" fill-rule="nonzero" d="M81.624 46.264c-4.334 0-7.7-3.08-7.7-7.59 0-4.532 3.366-7.59 7.7-7.59 2.948 0 4.796 1.518 5.874 3.278l-2.178 1.144c-.704-1.232-2.134-2.134-3.696-2.134-2.904 0-5.06 2.2-5.06 5.302 0 3.058 2.156 5.302 5.06 5.302 1.562 0 2.992-.924 3.696-2.134l2.2 1.1c-1.122 1.76-2.948 3.322-5.896 3.322zM98.982 46h-2.31v-1.408c-.748.836-2.068 1.672-3.74 1.672-2.288 0-3.432-1.21-3.432-3.366v-7.524h2.31v6.666c0 1.65.836 2.178 2.156 2.178 1.166 0 2.178-.682 2.706-1.386v-7.458h2.31V46zm6.644.264c-1.826 0-3.454-.594-4.554-1.672l1.056-1.65c.748.77 2.222 1.474 3.586 1.474 1.386 0 2.112-.572 2.112-1.408 0-2.09-6.424-.594-6.424-4.686 0-1.738 1.496-3.212 4.18-3.212 1.804 0 3.168.638 4.114 1.474l-.968 1.628c-.638-.704-1.804-1.276-3.146-1.276-1.21 0-1.958.572-1.958 1.32 0 1.87 6.424.462 6.424 4.686 0 1.892-1.562 3.322-4.422 3.322zm9.944 0c-1.804 0-2.728-.968-2.728-2.75v-6.138h-1.76v-2.002h1.76V32.47h2.31v2.904h2.156v2.002h-2.156v5.566c0 .726.352 1.276 1.012 1.276.44 0 .836-.198 1.012-.396l.55 1.76c-.418.374-1.1.682-2.156.682zm8.624 0c-3.388 0-5.456-2.552-5.456-5.588 0-3.058 2.068-5.566 5.456-5.566 3.388 0 5.456 2.508 5.456 5.566 0 3.036-2.068 5.588-5.456 5.588zm0-2.046c1.98 0 3.058-1.65 3.058-3.542 0-1.87-1.078-3.52-3.058-3.52-1.958 0-3.058 1.65-3.058 3.52 0 1.892 1.1 3.542 3.058 3.542zM147.36 46h-2.31v-6.93c0-1.144-.506-1.914-1.76-1.914-1.034 0-2.002.704-2.464 1.408V46h-2.31v-6.93c0-1.144-.484-1.914-1.738-1.914-1.034 0-1.98.726-2.464 1.408V46h-2.31V35.374h2.31v1.43c.462-.638 1.848-1.694 3.476-1.694 1.584 0 2.552.792 2.904 1.936.594-.946 2.002-1.936 3.608-1.936 1.936 0 3.058 1.056 3.058 3.212V46zm7.92.264c-3.212 0-5.566-2.222-5.566-5.588 0-3.08 2.244-5.566 5.39-5.566 3.19 0 5.214 2.42 5.214 5.764v.572h-8.184c.176 1.584 1.364 2.926 3.366 2.926 1.056 0 2.266-.418 3.036-1.188l1.056 1.518c-1.078 1.012-2.64 1.562-4.312 1.562zm2.816-6.468c-.066-1.254-.924-2.794-3.014-2.794-1.958 0-2.882 1.518-2.97 2.794h5.984zm6.82 6.204h-2.31V35.374h2.31v1.54c.814-1.012 2.09-1.804 3.454-1.804v2.288a3.188 3.188 0 00-.704-.066c-.99 0-2.288.66-2.75 1.43V46zm15.818.264c-3.388 0-5.456-2.552-5.456-5.588 0-3.058 2.068-5.566 5.456-5.566 3.388 0 5.456 2.508 5.456 5.566 0 3.036-2.068 5.588-5.456 5.588zm0-2.046c1.98 0 3.058-1.65 3.058-3.542 0-1.87-1.078-3.52-3.058-3.52-1.958 0-3.058 1.65-3.058 3.52 0 1.892 1.1 3.542 3.058 3.542zM198.048 46h-2.31v-6.644c0-1.672-.858-2.2-2.156-2.2-1.166 0-2.178.704-2.728 1.408V46h-2.31V35.374h2.31v1.43c.704-.836 2.09-1.694 3.762-1.694 2.288 0 3.432 1.232 3.432 3.41V46zm5.302-3.19c.528.792 1.65 1.408 2.75 1.408 1.826 0 2.992-1.474 2.992-3.542 0-2.046-1.166-3.52-2.992-3.52-1.1 0-2.222.638-2.75 1.43v4.224zm0 3.19h-2.31V31.326h2.31v5.522c.858-1.144 2.09-1.738 3.41-1.738 2.75 0 4.73 2.134 4.73 5.566 0 3.52-2.002 5.588-4.73 5.588-1.364 0-2.596-.66-3.41-1.716V46zm15.29.264c-3.388 0-5.456-2.552-5.456-5.588 0-3.058 2.068-5.566 5.456-5.566 3.388 0 5.456 2.508 5.456 5.566 0 3.036-2.068 5.588-5.456 5.588zm0-2.046c1.98 0 3.058-1.65 3.058-3.542 0-1.87-1.078-3.52-3.058-3.52-1.958 0-3.058 1.65-3.058 3.52 0 1.892 1.1 3.542 3.058 3.542zM235.272 46h-2.31v-1.166c-.792.924-2.046 1.43-3.454 1.43-1.716 0-3.674-1.188-3.674-3.52 0-2.464 1.936-3.476 3.674-3.476 1.452 0 2.662.462 3.454 1.364v-1.584c0-1.232-1.034-1.98-2.486-1.98-1.188 0-2.244.44-3.146 1.364l-.968-1.606c1.232-1.188 2.772-1.716 4.466-1.716 2.376 0 4.444.99 4.444 3.828V46zm-4.84-1.32c.99 0 1.98-.374 2.53-1.1v-1.628c-.55-.726-1.54-1.1-2.53-1.1-1.298 0-2.288.77-2.288 1.914 0 1.166.99 1.914 2.288 1.914zM240.574 46h-2.31V35.374h2.31v1.54c.814-1.012 2.09-1.804 3.454-1.804v2.288a3.188 3.188 0 00-.704-.066c-.99 0-2.288.66-2.75 1.43V46zm15.114 0h-2.31v-1.452c-.814 1.056-2.024 1.716-3.41 1.716-2.706 0-4.708-2.068-4.708-5.588 0-3.432 1.98-5.566 4.708-5.566 1.342 0 2.574.594 3.41 1.738v-5.522h2.31V46zm-5.038-1.782c1.078 0 2.222-.638 2.728-1.43v-4.202c-.506-.792-1.65-1.43-2.728-1.43-1.848 0-3.014 1.474-3.014 3.52 0 2.068 1.166 3.542 3.014 3.542zm9.196-10.142c-.792 0-1.43-.638-1.43-1.43 0-.792.638-1.43 1.43-1.43.792 0 1.43.638 1.43 1.43 0 .792-.638 1.43-1.43 1.43zM260.99 46h-2.31V35.374h2.31V46zm12.496 0h-2.31v-6.644c0-1.672-.858-2.2-2.156-2.2-1.166 0-2.178.704-2.728 1.408V46h-2.31V35.374h2.31v1.43c.704-.836 2.09-1.694 3.762-1.694 2.288 0 3.432 1.232 3.432 3.41V46zm7.326 4.312c-1.804 0-3.146-.396-4.466-1.584l1.078-1.672c.88.99 1.98 1.364 3.388 1.364 1.518 0 3.146-.704 3.146-2.97v-1.21c-.814 1.078-2.024 1.782-3.41 1.782-2.706 0-4.708-1.958-4.708-5.456 0-3.454 1.958-5.456 4.708-5.456 1.342 0 2.552.594 3.41 1.738v-1.474h2.31V45.45c0 3.828-2.86 4.862-5.456 4.862zm.418-6.358c1.078 0 2.2-.638 2.728-1.408v-3.982c-.528-.77-1.65-1.408-2.728-1.408-1.848 0-3.014 1.364-3.014 3.41 0 2.046 1.166 3.388 3.014 3.388z"/><path fill="#01B2D0" d="M26 53a2 2 0 012 2v6a2 2 0 11-4 0v-6a2 2 0 012-2zm7-5a2 2 0 012 2v11a2 2 0 11-4 0V50a2 2 0 012-2zm7-5a2 2 0 012 2v16a2 2 0 11-4 0V45a2 2 0 012-2zm7-5a2 2 0 012 2v21a2 2 0 11-4 0V40a2 2 0 012-2z"/><path fill="#384254" fill-rule="nonzero" d="M77.116 71.168c-1.61 0-2.814-.616-3.584-1.484l.7-.896c.602.7 1.61 1.344 2.926 1.344 1.666 0 2.198-.896 2.198-1.624 0-2.408-5.53-1.064-5.53-4.396 0-1.54 1.372-2.604 3.22-2.604 1.414 0 2.52.49 3.304 1.316l-.7.854c-.7-.784-1.68-1.12-2.702-1.12-1.106 0-1.918.602-1.918 1.484 0 2.1 5.53.896 5.53 4.382 0 1.344-.924 2.744-3.444 2.744zM87.882 71h-1.05v-4.452c0-1.204-.602-1.54-1.526-1.54-.812 0-1.596.504-1.988 1.05V71h-1.05v-9.338h1.05v3.556c.462-.574 1.386-1.148 2.408-1.148 1.414 0 2.156.686 2.156 2.156V71zm5.054.168c-2.058 0-3.346-1.596-3.346-3.556s1.288-3.542 3.346-3.542 3.346 1.582 3.346 3.542c0 1.96-1.288 3.556-3.346 3.556zm0-.938c1.442 0 2.24-1.232 2.24-2.618 0-1.372-.798-2.604-2.24-2.604-1.442 0-2.24 1.232-2.24 2.604 0 1.386.798 2.618 2.24 2.618zm11.97.77h-1.064l-1.764-5.432L100.314 71h-1.05l-2.156-6.762H98.2l1.652 5.39 1.778-5.39h.91l1.764 5.39 1.652-5.39h1.106L104.906 71zm3.892-7.728a.705.705 0 01-.714-.7c0-.392.322-.714.714-.714.392 0 .7.322.7.714 0 .392-.308.7-.7.7zm.518 7.728h-1.05v-6.762h1.05V71zm7.714 0h-1.036v-4.424c0-1.204-.616-1.568-1.526-1.568-.826 0-1.596.504-2.002 1.05V71h-1.05v-6.762h1.05v.98c.476-.574 1.4-1.148 2.422-1.148 1.4 0 2.142.714 2.142 2.184V71zm4.83 2.744c-1.134 0-1.918-.224-2.73-1.022l.532-.756c.56.658 1.232.91 2.198.91 1.12 0 2.184-.546 2.184-1.974V69.88c-.504.686-1.33 1.204-2.282 1.204-1.764 0-3.01-1.316-3.01-3.5 0-2.17 1.232-3.514 3.01-3.514.91 0 1.736.448 2.282 1.19v-1.022h1.05v6.664c0 2.142-1.582 2.842-3.234 2.842zm.168-3.598c.826 0 1.638-.504 2.016-1.092v-2.968c-.378-.574-1.19-1.078-2.016-1.078-1.372 0-2.184 1.078-2.184 2.576 0 1.484.812 2.562 2.184 2.562zm9.842.854h-1.05v-6.762h1.05v1.078c.546-.7 1.33-1.232 2.254-1.232v1.078a3.468 3.468 0 00-.406-.028c-.658 0-1.54.532-1.848 1.078V71zm6.636.168c-2.016 0-3.458-1.442-3.458-3.556 0-1.96 1.4-3.542 3.332-3.542 2.044 0 3.248 1.596 3.248 3.626v.266h-5.46c.084 1.274.966 2.338 2.422 2.338.784 0 1.554-.308 2.1-.868l.504.686c-.686.672-1.596 1.05-2.688 1.05zm2.086-3.99c-.014-.994-.686-2.24-2.226-2.24-1.442 0-2.156 1.218-2.212 2.24h4.438zm6.062 3.99c-.924 0-1.722-.448-2.282-1.19v3.598h-1.05v-9.338h1.05v1.008a2.827 2.827 0 012.282-1.176c1.778 0 3.01 1.344 3.01 3.542 0 2.184-1.232 3.556-3.01 3.556zm-.266-.938c1.358 0 2.17-1.12 2.17-2.618 0-1.498-.812-2.604-2.17-2.604-.826 0-1.652.49-2.016 1.078v3.052c.364.588 1.19 1.092 2.016 1.092zm7.896.938c-2.058 0-3.346-1.596-3.346-3.556s1.288-3.542 3.346-3.542 3.346 1.582 3.346 3.542c0 1.96-1.288 3.556-3.346 3.556zm0-.938c1.442 0 2.24-1.232 2.24-2.618 0-1.372-.798-2.604-2.24-2.604-1.442 0-2.24 1.232-2.24 2.604 0 1.386.798 2.618 2.24 2.618zm6.104.77h-1.05v-6.762h1.05v1.078c.546-.7 1.33-1.232 2.254-1.232v1.078a3.468 3.468 0 00-.406-.028c-.658 0-1.54.532-1.848 1.078V71zm5.292.168c-1.008 0-1.512-.574-1.512-1.582v-4.424h-1.12v-.924h1.12V62.39h1.064v1.848h1.372v.924h-1.372v4.2c0 .504.224.868.672.868.308 0 .574-.14.714-.294l.308.798c-.266.252-.644.434-1.246.434zm7.364-.168h-1.05v-5.838h-1.12v-.924h1.12v-.518c0-1.386.77-2.198 1.96-2.198.546 0 1.008.126 1.428.518l-.434.672a1.214 1.214 0 00-.826-.322c-.7 0-1.078.462-1.078 1.33v.518h1.372v.924h-1.372V71zm5.586.168c-2.058 0-3.346-1.596-3.346-3.556s1.288-3.542 3.346-3.542 3.346 1.582 3.346 3.542c0 1.96-1.288 3.556-3.346 3.556zm0-.938c1.442 0 2.24-1.232 2.24-2.618 0-1.372-.798-2.604-2.24-2.604-1.442 0-2.24 1.232-2.24 2.604 0 1.386.798 2.618 2.24 2.618zm6.104.77h-1.05v-6.762h1.05v1.078c.546-.7 1.33-1.232 2.254-1.232v1.078a3.468 3.468 0 00-.406-.028c-.658 0-1.54.532-1.848 1.078V71zm13.608 0h-6.762v-1.302c3.626-2.744 5.054-3.948 5.054-5.306 0-.98-.854-1.414-1.708-1.414-1.092 0-1.918.434-2.52 1.106l-.952-1.064c.826-1.008 2.142-1.498 3.458-1.498 1.806 0 3.374 1.008 3.374 2.87 0 1.736-1.582 3.276-4.074 5.166h4.13V71zm8.33 0h-6.762v-1.302c3.626-2.744 5.054-3.948 5.054-5.306 0-.98-.854-1.414-1.708-1.414-1.092 0-1.918.434-2.52 1.106l-.952-1.064c.826-1.008 2.142-1.498 3.458-1.498 1.806 0 3.374 1.008 3.374 2.87 0 1.736-1.582 3.276-4.074 5.166h4.13V71zm7.868 0h-1.47v-4.228c0-1.064-.546-1.4-1.372-1.4-.742 0-1.386.448-1.736.896V71h-1.47v-6.762h1.47v.91c.448-.532 1.33-1.078 2.394-1.078 1.456 0 2.184.784 2.184 2.17V71zm8.134 0h-1.47v-.924c-.518.672-1.288 1.092-2.17 1.092-1.722 0-2.996-1.316-2.996-3.556 0-2.184 1.26-3.542 2.996-3.542.854 0 1.638.378 2.17 1.106v-3.514h1.47V71zm-3.206-1.134c.686 0 1.414-.406 1.736-.91v-2.674c-.322-.504-1.05-.91-1.736-.91-1.176 0-1.918.938-1.918 2.24 0 1.316.742 2.254 1.918 2.254zm10.374 1.302c-.966 0-1.82-.294-2.492-.994l.77-1.246c.364.42.882.784 1.596.784.994 0 1.638-.686 1.638-1.694v-6.356h1.638v6.37c0 2.128-1.344 3.136-3.15 3.136zm10.71-.168h-1.47v-.742c-.504.588-1.302.91-2.198.91-1.092 0-2.338-.756-2.338-2.24 0-1.568 1.232-2.212 2.338-2.212.924 0 1.694.294 2.198.868v-1.008c0-.784-.658-1.26-1.582-1.26-.756 0-1.428.28-2.002.868l-.616-1.022c.784-.756 1.764-1.092 2.842-1.092 1.512 0 2.828.63 2.828 2.436V71zm-3.08-.84c.63 0 1.26-.238 1.61-.7v-1.036c-.35-.462-.98-.7-1.61-.7-.826 0-1.456.49-1.456 1.218 0 .742.63 1.218 1.456 1.218zm11.032.84h-1.47v-4.228c0-1.064-.546-1.4-1.372-1.4-.742 0-1.386.448-1.736.896V71h-1.47v-6.762h1.47v.91c.448-.532 1.33-1.078 2.394-1.078 1.456 0 2.184.784 2.184 2.17V71zm8.344-2.758h-3.36v-1.26h3.36v1.26zm7.896 2.926c-1.652 0-2.884-.672-3.528-1.512l.896-1.078c.602.7 1.582 1.134 2.576 1.134 1.232 0 1.946-.574 1.946-1.428 0-.924-.728-1.33-2.072-1.33-.392 0-.924.014-1.064.028v-1.484c.154.014.7.014 1.064.014 1.106 0 1.932-.378 1.932-1.232s-.854-1.302-1.89-1.302c-.966 0-1.75.35-2.422 1.036l-.84-1.022c.728-.854 1.862-1.47 3.416-1.47 2.016 0 3.36.952 3.36 2.506 0 1.26-1.064 1.988-2.016 2.142.896.098 2.17.826 2.17 2.268 0 1.596-1.358 2.73-3.528 2.73zm6.594-.168h-1.47v-6.762h1.47v.98c.518-.644 1.33-1.148 2.198-1.148v1.456a2.029 2.029 0 00-.448-.042c-.63 0-1.456.42-1.75.91V71zm9.618 0h-1.47v-.924c-.518.672-1.288 1.092-2.17 1.092-1.722 0-2.996-1.316-2.996-3.556 0-2.184 1.26-3.542 2.996-3.542.854 0 1.638.378 2.17 1.106v-3.514h1.47V71zm-3.206-1.134c.686 0 1.414-.406 1.736-.91v-2.674c-.322-.504-1.05-.91-1.736-.91-1.176 0-1.918.938-1.918 2.24 0 1.316.742 2.254 1.918 2.254zM288.152 71h-1.638v-9.338h6.398v1.442h-4.76v2.408h4.662v1.442h-4.662V71zm9.338.168c-2.044 0-3.542-1.414-3.542-3.556 0-1.96 1.428-3.542 3.43-3.542 2.03 0 3.318 1.54 3.318 3.668v.364h-5.208c.112 1.008.868 1.862 2.142 1.862.672 0 1.442-.266 1.932-.756l.672.966c-.686.644-1.68.994-2.744.994zm1.792-4.116c-.042-.798-.588-1.778-1.918-1.778-1.246 0-1.834.966-1.89 1.778h3.808zm4.34 1.918c.336.504 1.05.896 1.75.896 1.162 0 1.904-.938 1.904-2.254 0-1.302-.742-2.24-1.904-2.24-.7 0-1.414.406-1.75.91v2.688zm0 2.03h-1.47v-9.338h1.47v3.514c.546-.728 1.33-1.106 2.17-1.106 1.75 0 3.01 1.358 3.01 3.542 0 2.24-1.274 3.556-3.01 3.556-.868 0-1.652-.42-2.17-1.092V71z" opacity=".5"/><path fill="#384254" fill-rule="nonzero" d="M374.44 55h-5.502v-9.338h1.162v8.302h4.34V55zm2.044-7.728a.705.705 0 01-.714-.7c0-.392.322-.714.714-.714.392 0 .7.322.7.714 0 .392-.308.7-.7.7zm.518 7.728h-1.05v-6.762h1.05V55zm5.054 0h-1.148l-2.814-6.762h1.148l2.24 5.544 2.254-5.544h1.134L382.056 55zm6.972.168c-2.016 0-3.458-1.442-3.458-3.556 0-1.96 1.4-3.542 3.332-3.542 2.044 0 3.248 1.596 3.248 3.626v.266h-5.46c.084 1.274.966 2.338 2.422 2.338.784 0 1.554-.308 2.1-.868l.504.686c-.686.672-1.596 1.05-2.688 1.05zm2.086-3.99c-.014-.994-.686-2.24-2.226-2.24-1.442 0-2.156 1.218-2.212 2.24h4.438z"/><path fill="#D8D8D8" d="M403 43h1v16h-1z"/><path fill="#384254" fill-rule="nonzero" d="M419.348 55h-4.256v-9.338h4.158c1.624 0 2.618.98 2.618 2.38 0 1.176-.784 1.96-1.638 2.142.994.154 1.82 1.176 1.82 2.296 0 1.498-.994 2.52-2.702 2.52zm-.294-5.292c1.05 0 1.61-.644 1.61-1.498 0-.84-.56-1.512-1.61-1.512h-2.8v3.01h2.8zm.07 4.256c1.078 0 1.722-.616 1.722-1.61 0-.854-.588-1.61-1.722-1.61h-2.87v3.22h2.87zm7.798 1.204c-2.016 0-3.458-1.442-3.458-3.556 0-1.96 1.4-3.542 3.332-3.542 2.044 0 3.248 1.596 3.248 3.626v.266h-5.46c.084 1.274.966 2.338 2.422 2.338.784 0 1.554-.308 2.1-.868l.504.686c-.686.672-1.596 1.05-2.688 1.05zm2.086-3.99c-.014-.994-.686-2.24-2.226-2.24-1.442 0-2.156 1.218-2.212 2.24h4.438zM437.366 55h-1.05v-4.452c0-1.204-.602-1.54-1.526-1.54-.812 0-1.596.504-1.988 1.05V55h-1.05v-9.338h1.05v3.556c.462-.574 1.386-1.148 2.408-1.148 1.414 0 2.156.686 2.156 2.156V55zm7.378 0h-1.05v-.77c-.546.616-1.33.938-2.24.938-1.134 0-2.352-.77-2.352-2.24 0-1.526 1.204-2.226 2.352-2.226.924 0 1.694.294 2.24.91v-1.218c0-.896-.728-1.414-1.708-1.414-.812 0-1.47.28-2.072.938l-.49-.728c.728-.756 1.596-1.12 2.702-1.12 1.442 0 2.618.644 2.618 2.282V55zm-2.898-.588c.728 0 1.442-.28 1.848-.84v-1.288c-.406-.546-1.12-.826-1.848-.826-.994 0-1.68.616-1.68 1.47 0 .868.686 1.484 1.68 1.484zm7.966.588h-1.148l-2.814-6.762h1.148l2.24 5.544 2.254-5.544h1.134L449.812 55zm4.438-7.728a.705.705 0 01-.714-.7c0-.392.322-.714.714-.714.392 0 .7.322.7.714 0 .392-.308.7-.7.7zm.518 7.728h-1.05v-6.762h1.05V55zm5.054.168c-2.058 0-3.346-1.596-3.346-3.556s1.288-3.542 3.346-3.542 3.346 1.582 3.346 3.542c0 1.96-1.288 3.556-3.346 3.556zm0-.938c1.442 0 2.24-1.232 2.24-2.618 0-1.372-.798-2.604-2.24-2.604-1.442 0-2.24 1.232-2.24 2.604 0 1.386.798 2.618 2.24 2.618zm10.668.77h-1.05v-.952c-.518.588-1.4 1.12-2.408 1.12-1.414 0-2.156-.7-2.156-2.156v-4.774h1.05v4.452c0 1.19.602 1.54 1.526 1.54.812 0 1.596-.476 1.988-1.022v-4.97h1.05V55zm3.15 0h-1.05v-6.762h1.05v1.078c.546-.7 1.33-1.232 2.254-1.232v1.078c-.126-.014-.252-.028-.406-.028-.658 0-1.54.532-1.848 1.078V55zm8.848 0h-1.05v-.77c-.546.616-1.33.938-2.24.938-1.134 0-2.352-.77-2.352-2.24 0-1.526 1.204-2.226 2.352-2.226.924 0 1.694.294 2.24.91v-1.218c0-.896-.728-1.414-1.708-1.414-.812 0-1.47.28-2.072.938l-.49-.728c.728-.756 1.596-1.12 2.702-1.12 1.442 0 2.618.644 2.618 2.282V55zm-2.898-.588c.728 0 1.442-.28 1.848-.84v-1.288c-.406-.546-1.12-.826-1.848-.826-.994 0-1.68.616-1.68 1.47 0 .868.686 1.484 1.68 1.484zm6.062.588h-1.05v-9.338h1.05V55z"/></g><g transform="rotate(-33 615.83 94.285)"><rect width="21" height="20.833" x=".791" y="3.967" fill="#01B2D0" opacity=".1" rx="3"/><rect width="19" height="18.833" x="4.64" y="1.376" stroke="#01B2D0" stroke-width="2" rx="3"/></g><g transform="rotate(20 253.71 1698.734)"><ellipse cx="22.223" cy="16.766" stroke="#FFC111" stroke-width="2" rx="14.955" ry="15.031"/><ellipse cx="16.842" cy="21.556" fill="#FFC111" opacity=".2" rx="15.955" ry="16.031"/></g><g transform="rotate(34 -129.208 97.962)"><ellipse cx="22.223" cy="16.325" stroke="#FFC111" stroke-width="2" rx="14.955" ry="14.609"/><ellipse cx="16.842" cy="20.989" fill="#FFC111" opacity=".2" rx="15.955" ry="15.609"/></g><path fill="#6FD350" d="M592.542 451.016l10.315 6.81a4 4 0 01-.204 6.802l-9.574 5.528a4 4 0 01-5.993-3.224l-.74-12.339a4 4 0 016.196-3.577z" opacity=".2"/><path stroke="#6FD350" stroke-width="2" d="M593.991 444.85a3 3 0 00-4.648 2.683l.741 12.339a3 3 0 004.495 2.418l9.574-5.528a3 3 0 00.153-5.101l-10.315-6.81z"/></g></svg>