<svg xmlns="http://www.w3.org/2000/svg" xmlns:xlink="http://www.w3.org/1999/xlink" width="450" height="533" viewBox="0 0 450 533"><defs><path id="b" d="M12.82 0h304.36c4.458 0 6.075.464 7.704 1.336a9.086 9.086 0 0 1 3.78 3.78c.872 1.63 1.336 3.246 1.336 7.703v396.362c0 4.457-.464 6.074-1.336 7.703a9.086 9.086 0 0 1-3.78 3.78c-1.63.872-3.246 1.336-7.703 1.336H12.819c-4.457 0-6.074-.464-7.703-1.336a9.086 9.086 0 0 1-3.78-3.78C.464 415.254 0 413.638 0 409.181V12.819c0-4.457.464-6.074 1.336-7.703a9.086 9.086 0 0 1 3.78-3.78C6.746.464 8.362 0 12.819 0z"/><filter id="a" width="116.1%" height="112.6%" x="-8%" y="-5.3%" filterUnits="objectBoundingBox"><feMorphology in="SourceAlpha" operator="dilate" radius=".5" result="shadowSpreadOuter1"/><feOffset dy="4" in="shadowSpreadOuter1" result="shadowOffsetOuter1"/><feGaussianBlur in="shadowOffsetOuter1" result="shadowBlurOuter1" stdDeviation="8"/><feComposite in="shadowBlurOuter1" in2="SourceAlpha" operator="out" result="shadowBlurOuter1"/><feColorMatrix in="shadowBlurOuter1" values="0 0 0 0 0 0 0 0 0 0 0 0 0 0 0 0 0 0 0.12 0"/></filter><path id="d" d="M12.82 0h174.36c4.458 0 6.075.464 7.704 1.336a9.086 9.086 0 0 1 3.78 3.78c.872 1.63 1.336 3.246 1.336 7.703v68.362c0 4.457-.464 6.074-1.336 7.703a9.086 9.086 0 0 1-3.78 3.78c-1.63.872-3.246 1.336-7.703 1.336H12.819c-4.457 0-6.074-.464-7.703-1.336a9.086 9.086 0 0 1-3.78-3.78C.464 87.254 0 85.638 0 81.181V12.819c0-4.457.464-6.074 1.336-7.703a9.086 9.086 0 0 1 3.78-3.78C6.746.464 8.362 0 12.819 0z"/><filter id="c" width="126.5%" height="156.4%" x="-13.3%" y="-23.9%" filterUnits="objectBoundingBox"><feMorphology in="SourceAlpha" operator="dilate" radius=".5" result="shadowSpreadOuter1"/><feOffset dy="4" in="shadowSpreadOuter1" result="shadowOffsetOuter1"/><feGaussianBlur in="shadowOffsetOuter1" result="shadowBlurOuter1" stdDeviation="8"/><feComposite in="shadowBlurOuter1" in2="SourceAlpha" operator="out" result="shadowBlurOuter1"/><feColorMatrix in="shadowBlurOuter1" values="0 0 0 0 0 0 0 0 0 0 0 0 0 0 0 0 0 0 0.12 0"/></filter></defs><g fill="none" fill-rule="evenodd"><path fill="#C9EDF4" d="M53 59h312v298H53z"/><g transform="translate(104 91)"><use fill="#000" filter="url(#a)" xlink:href="#b"/><use fill="#FFF" stroke="#8D8D8D" stroke-opacity=".24" xlink:href="#b"/><path fill="#F4F4F4" d="M27 24h110a3 3 0 0 1 0 6H27a3 3 0 0 1 0-6z"/><path fill="#D8D8D8" d="M24 90h282v1H24z"/><path fill="#F4F4F4" d="M193 24h110a3 3 0 0 1 0 6H193a3 3 0 0 1 0-6zM27 42h84a3 3 0 0 1 0 6H27a3 3 0 0 1 0-6zm0 18h74a3 3 0 0 1 0 6H27a3 3 0 0 1 0-6zm88 0h18a3 3 0 0 1 0 6h-18a3 3 0 0 1 0-6z"/><path fill="#384254" d="M33.128 129H31.49v-4.088h-4.858V129h-1.638v-9.338h1.638v3.808h4.858v-3.808h1.638V129zm2.688-7.588a.908.908 0 0 1-.91-.91c0-.504.406-.91.91-.91s.91.406.91.91-.406.91-.91.91zm.728 7.588h-1.47v-6.762h1.47V129zm8.204 2.66h-.854c-1.022 0-1.988-.784-1.988-2.072v-2.618c0-.518-.238-.952-.728-.952v-.868c.49 0 .728-.434.728-.952v-2.604c0-1.288.966-2.086 1.988-2.086h.854v1.008h-.854c-.49 0-.91.42-.91 1.064v2.758c0 .588-.168 1.05-.63 1.246.462.196.63.658.63 1.246v2.744c0 .63.42 1.078.91 1.078h.854v1.008zm3.878 0h-.854c-1.022 0-1.988-.784-1.988-2.072v-2.618c0-.518-.238-.952-.728-.952v-.868c.49 0 .728-.434.728-.952v-2.604c0-1.288.966-2.086 1.988-2.086h.854v1.008h-.854c-.49 0-.91.42-.91 1.064v2.758c0 .588-.168 1.05-.63 1.246.462.196.63.658.63 1.246v2.744c0 .63.42 1.078.91 1.078h.854v1.008zM55.85 129h-1.47v-.896a3.234 3.234 0 0 1-2.38 1.064c-1.456 0-2.184-.77-2.184-2.142v-4.788h1.47v4.242c0 1.05.532 1.386 1.372 1.386.742 0 1.386-.434 1.722-.882v-4.746h1.47V129zm4.228.168c-1.162 0-2.198-.378-2.898-1.064l.672-1.05c.476.49 1.414.938 2.282.938.882 0 1.344-.364 1.344-.896 0-1.33-4.088-.378-4.088-2.982 0-1.106.952-2.044 2.66-2.044 1.148 0 2.016.406 2.618.938l-.616 1.036c-.406-.448-1.148-.812-2.002-.812-.77 0-1.246.364-1.246.84 0 1.19 4.088.294 4.088 2.982 0 1.204-.994 2.114-2.814 2.114zm7.42 0c-2.044 0-3.542-1.414-3.542-3.556 0-1.96 1.428-3.542 3.43-3.542 2.03 0 3.318 1.54 3.318 3.668v.364h-5.208c.112 1.008.868 1.862 2.142 1.862.672 0 1.442-.266 1.932-.756l.672.966c-.686.644-1.68.994-2.744.994zm1.792-4.116c-.042-.798-.588-1.778-1.918-1.778-1.246 0-1.834.966-1.89 1.778h3.808zM73.63 129h-1.47v-6.762h1.47v.98c.518-.644 1.33-1.148 2.198-1.148v1.456a2.029 2.029 0 0 0-.448-.042c-.63 0-1.456.42-1.75.91V129zm2.968.154c-.532 0-.98-.462-.98-.994 0-.518.448-.966.98-.966s.98.448.98.966c0 .532-.448.994-.98.994zM85.32 129h-1.47v-4.228c0-1.064-.546-1.4-1.372-1.4-.742 0-1.386.448-1.736.896V129h-1.47v-6.762h1.47v.91c.448-.532 1.33-1.078 2.394-1.078 1.456 0 2.184.784 2.184 2.17V129zm7.518 0h-1.47v-.742c-.504.588-1.302.91-2.198.91-1.092 0-2.338-.756-2.338-2.24 0-1.568 1.232-2.212 2.338-2.212.924 0 1.694.294 2.198.868v-1.008c0-.784-.658-1.26-1.582-1.26-.756 0-1.428.28-2.002.868l-.616-1.022c.784-.756 1.764-1.092 2.842-1.092 1.512 0 2.828.63 2.828 2.436V129zm-3.08-.84c.63 0 1.26-.238 1.61-.7v-1.036c-.35-.462-.98-.7-1.61-.7-.826 0-1.456.49-1.456 1.218 0 .742.63 1.218 1.456 1.218zm14.756.84h-1.47v-4.41c0-.728-.322-1.218-1.12-1.218-.658 0-1.274.448-1.568.896V129h-1.47v-4.41c0-.728-.308-1.218-1.106-1.218-.658 0-1.26.462-1.568.896V129h-1.47v-6.762h1.47v.91c.294-.406 1.176-1.078 2.212-1.078 1.008 0 1.624.504 1.848 1.232.378-.602 1.274-1.232 2.296-1.232 1.232 0 1.946.672 1.946 2.044V129zm5.04.168c-2.044 0-3.542-1.414-3.542-3.556 0-1.96 1.428-3.542 3.43-3.542 2.03 0 3.318 1.54 3.318 3.668v.364h-5.208c.112 1.008.868 1.862 2.142 1.862.672 0 1.442-.266 1.932-.756l.672.966c-.686.644-1.68.994-2.744.994zm1.792-4.116c-.042-.798-.588-1.778-1.918-1.778-1.246 0-1.834.966-1.89 1.778h3.808zm2.156 6.608v-1.008h.854c.49 0 .91-.448.91-1.078v-2.744c0-.588.168-1.05.63-1.246-.462-.196-.63-.658-.63-1.246v-2.758c0-.644-.42-1.064-.91-1.064h-.854v-1.008h.854c1.022 0 1.988.798 1.988 2.086v2.604c0 .518.238.952.728.952v.868c-.49 0-.728.434-.728.952v2.618c0 1.288-.966 2.072-1.988 2.072h-.854zm5.992-5.53h-1.274l-.266-6.468h1.792l-.252 6.468zm-.63 3.01a.992.992 0 0 1-.98-.98c0-.518.448-.966.98-.966s.966.448.966.966a.98.98 0 0 1-.966.98z"/><path fill="#F4F4F4" d="M27 146h146a3 3 0 0 1 0 6H27a3 3 0 0 1 0-6zm160 0h116a3 3 0 0 1 0 6H187a3 3 0 0 1 0-6zM27 164h216a3 3 0 0 1 0 6H27a3 3 0 0 1 0-6zm0 18h236a3 3 0 0 1 0 6H27a3 3 0 0 1 0-6zm0 18h34a3 3 0 0 1 0 6H27a3 3 0 0 1 0-6zm48 0h74a3 3 0 0 1 0 6H75a3 3 0 0 1 0-6zm88 0h114a3 3 0 0 1 0 6H163a3 3 0 0 1 0-6zM27 218h146a3 3 0 0 1 0 6H27a3 3 0 0 1 0-6zm0 30h34a3 3 0 0 1 0 6H27a3 3 0 0 1 0-6zm48 0h74a3 3 0 0 1 0 6H75a3 3 0 0 1 0-6z"/><g transform="translate(24 278)"><rect width="88" height="120" fill="#F4F4F4" rx="4"/><rect width="88" height="120" x="97" fill="#F4F4F4" rx="4"/><rect width="88" height="120" x="194" fill="#F4F4F4" rx="4"/><circle cx="44" cy="60" r="20" fill="#01B2D0"/><path fill="#F15242" d="M125 44h32v32h-32z"/><path fill="#FFC111" d="M238.5 43L256 78h-35z"/></g></g><g transform="translate(16 12)"><use fill="#000" filter="url(#c)" xlink:href="#d"/><use fill="#FFF" stroke="#8D8D8D" stroke-opacity=".24" xlink:href="#d"/><path fill="#384254" d="M47.31 28h-.83v-5.61L44.22 28h-.34l-2.27-5.61V28h-.83v-6.67h1.19l2.08 5.14 2.07-5.14h1.19V28zm5.93 0h-4.37v-6.67h4.37v.74H49.7v2.15h3.47v.74H49.7v2.3h3.54V28zm3.48.12c-1.15 0-2.01-.44-2.56-1.06l.5-.64c.43.5 1.15.96 2.09.96 1.19 0 1.57-.64 1.57-1.16 0-1.72-3.95-.76-3.95-3.14 0-1.1.98-1.86 2.3-1.86 1.01 0 1.8.35 2.36.94l-.5.61c-.5-.56-1.2-.8-1.93-.8-.79 0-1.37.43-1.37 1.06 0 1.5 3.95.64 3.95 3.13 0 .96-.66 1.96-2.46 1.96zm5.86 0c-1.15 0-2.01-.44-2.56-1.06l.5-.64c.43.5 1.15.96 2.09.96 1.19 0 1.57-.64 1.57-1.16 0-1.72-3.95-.76-3.95-3.14 0-1.1.98-1.86 2.3-1.86 1.01 0 1.8.35 2.36.94l-.5.61c-.5-.56-1.2-.8-1.93-.8-.79 0-1.37.43-1.37 1.06 0 1.5 3.95.64 3.95 3.13 0 .96-.66 1.96-2.46 1.96zm9.31-.12h-.95l-.59-1.49h-3.32L66.44 28h-.95l2.69-6.67h1.03L71.89 28zm-1.78-2.22l-1.42-3.6-1.41 3.6h2.83zm5.44 2.35c-1.9 0-3.43-1.39-3.43-3.46 0-2.08 1.53-3.45 3.43-3.45 1.19 0 2.01.52 2.59 1.24l-.66.42a2.46 2.46 0 0 0-1.93-.92c-1.46 0-2.57 1.11-2.57 2.71 0 1.58 1.11 2.71 2.57 2.71.8 0 1.46-.38 1.8-.72v-1.35h-2.3v-.74h3.12v2.4c-.62.7-1.53 1.16-2.62 1.16zm8.34-.13h-4.37v-6.67h4.37v.74h-3.54v2.15h3.47v.74h-3.47v2.3h3.54V28zm3.48.12c-1.15 0-2.01-.44-2.56-1.06l.5-.64c.43.5 1.15.96 2.09.96 1.19 0 1.57-.64 1.57-1.16 0-1.72-3.95-.76-3.95-3.14 0-1.1.98-1.86 2.3-1.86 1.01 0 1.8.35 2.36.94l-.5.61c-.5-.56-1.2-.8-1.93-.8-.79 0-1.37.43-1.37 1.06 0 1.5 3.95.64 3.95 3.13 0 .96-.66 1.96-2.46 1.96z"/><path fill="#D8D8D8" d="M22.41 16h3.18c2.23 0 3.037.232 3.852.668a4.543 4.543 0 0 1 1.89 1.89c.436.815.668 1.623.668 3.852v3.18c0 2.23-.232 3.037-.668 3.852a4.543 4.543 0 0 1-1.89 1.89c-.815.436-1.623.668-3.852.668h-3.18c-2.23 0-3.037-.232-3.852-.668a4.543 4.543 0 0 1-1.89-1.89C16.232 28.627 16 27.82 16 25.59v-3.18c0-2.23.232-3.037.668-3.852a4.543 4.543 0 0 1 1.89-1.89c.815-.436 1.623-.668 3.852-.668z"/><path fill="#384254" d="M26.696 53h-1.638v-7.21L22.202 53h-.7l-2.87-7.21V53h-1.638v-9.338h2.31l2.548 6.412 2.534-6.412h2.31V53zm7.56 0h-1.47v-.742c-.504.588-1.302.91-2.198.91-1.092 0-2.338-.756-2.338-2.24 0-1.568 1.232-2.212 2.338-2.212.924 0 1.694.294 2.198.868v-1.008c0-.784-.658-1.26-1.582-1.26-.756 0-1.428.28-2.002.868l-.616-1.022c.784-.756 1.764-1.092 2.842-1.092 1.512 0 2.828.63 2.828 2.436V53zm-3.08-.84c.63 0 1.26-.238 1.61-.7v-1.036c-.35-.462-.98-.7-1.61-.7-.826 0-1.456.49-1.456 1.218 0 .742.63 1.218 1.456 1.218zm6.454.84h-1.47v-9.338h1.47V53zm4.984.168c-2.044 0-3.486-1.512-3.486-3.556s1.442-3.542 3.486-3.542c1.33 0 2.114.56 2.59 1.204l-.966.882c-.378-.532-.896-.784-1.554-.784-1.218 0-2.044.924-2.044 2.24 0 1.316.826 2.254 2.044 2.254.658 0 1.176-.28 1.554-.812l.966.91c-.476.63-1.26 1.204-2.59 1.204zm6.958 0c-2.156 0-3.472-1.624-3.472-3.556 0-1.946 1.316-3.542 3.472-3.542 2.156 0 3.472 1.596 3.472 3.542 0 1.932-1.316 3.556-3.472 3.556zm0-1.302c1.26 0 1.946-1.05 1.946-2.254 0-1.19-.686-2.24-1.946-2.24-1.246 0-1.946 1.05-1.946 2.24 0 1.204.7 2.254 1.946 2.254zM56.012 53h-1.47v-9.338h1.47V53zm11.676 0h-1.47v-4.41c0-.728-.322-1.218-1.12-1.218-.658 0-1.274.448-1.568.896V53h-1.47v-4.41c0-.728-.308-1.218-1.106-1.218-.658 0-1.26.462-1.568.896V53h-1.47v-6.762h1.47v.91c.294-.406 1.176-1.078 2.212-1.078 1.008 0 1.624.504 1.848 1.232.378-.602 1.274-1.232 2.296-1.232 1.232 0 1.946.672 1.946 2.044V53zm12.796 0H78.58l-2.058-3.486h-1.638V53h-1.638v-9.338h4.102c1.848 0 3.066 1.19 3.066 2.926 0 1.652-1.092 2.562-2.226 2.744L80.484 53zm-3.346-4.928c.924 0 1.596-.588 1.596-1.498 0-.896-.672-1.47-1.596-1.47h-2.254v2.968h2.254zm7.588 5.096c-2.044 0-3.542-1.414-3.542-3.556 0-1.96 1.428-3.542 3.43-3.542 2.03 0 3.318 1.54 3.318 3.668v.364h-5.208c.112 1.008.868 1.862 2.142 1.862.672 0 1.442-.266 1.932-.756l.672.966c-.686.644-1.68.994-2.744.994zm1.792-4.116c-.042-.798-.588-1.778-1.918-1.778-1.246 0-1.834.966-1.89 1.778h3.808zm2.59 6.594l.21-1.316c.154.07.392.112.56.112.476 0 .784-.14.98-.588l.336-.77-2.786-6.846h1.582l1.974 5.068 1.974-5.068h1.568l-3.262 7.98c-.462 1.148-1.26 1.512-2.31 1.526-.21 0-.63-.042-.826-.098zM102.478 53h-1.47v-4.228c0-1.064-.546-1.4-1.372-1.4-.742 0-1.386.448-1.736.896V53h-1.47v-6.762h1.47v.91c.448-.532 1.33-1.078 2.394-1.078 1.456 0 2.184.784 2.184 2.17V53zm4.97.168c-2.156 0-3.472-1.624-3.472-3.556 0-1.946 1.316-3.542 3.472-3.542 2.156 0 3.472 1.596 3.472 3.542 0 1.932-1.316 3.556-3.472 3.556zm0-1.302c1.26 0 1.946-1.05 1.946-2.254 0-1.19-.686-2.24-1.946-2.24-1.246 0-1.946 1.05-1.946 2.24 0 1.204.7 2.254 1.946 2.254zm6.44 1.134h-1.47v-9.338h1.47V53zm8.134 0h-1.47v-.924c-.518.672-1.288 1.092-2.17 1.092-1.722 0-2.996-1.316-2.996-3.556 0-2.184 1.26-3.542 2.996-3.542.854 0 1.638.378 2.17 1.106v-3.514h1.47V53zm-3.206-1.134c.686 0 1.414-.406 1.736-.91v-2.674c-.322-.504-1.05-.91-1.736-.91-1.176 0-1.918.938-1.918 2.24 0 1.316.742 2.254 1.918 2.254zm7.434 1.302c-1.162 0-2.198-.378-2.898-1.064l.672-1.05c.476.49 1.414.938 2.282.938.882 0 1.344-.364 1.344-.896 0-1.33-4.088-.378-4.088-2.982 0-1.106.952-2.044 2.66-2.044 1.148 0 2.016.406 2.618.938l-.616 1.036c-.406-.448-1.148-.812-2.002-.812-.77 0-1.246.364-1.246.84 0 1.19 4.088.294 4.088 2.982 0 1.204-.994 2.114-2.814 2.114zM24.82 73H23.7l-5.446-7.448V73h-1.162v-9.338h1.19l5.376 7.294v-7.294h1.162V73zm5.208.168c-2.016 0-3.458-1.442-3.458-3.556 0-1.96 1.4-3.542 3.332-3.542 2.044 0 3.248 1.596 3.248 3.626v.266h-5.46c.084 1.274.966 2.338 2.422 2.338.784 0 1.554-.308 2.1-.868l.504.686c-.686.672-1.596 1.05-2.688 1.05zm2.086-3.99c-.014-.994-.686-2.24-2.226-2.24-1.442 0-2.156 1.218-2.212 2.24h4.438zM41.76 73h-1.064l-1.764-5.432L37.168 73h-1.05l-2.156-6.762h1.092l1.652 5.39 1.778-5.39h.91l1.764 5.39 1.652-5.39h1.106L41.76 73zm9.142.168c-1.12 0-2.044-.35-2.73-1.064l.532-.756c.448.518 1.302.966 2.226.966 1.036 0 1.61-.49 1.61-1.162 0-1.638-4.186-.63-4.186-3.136 0-1.064.896-1.946 2.506-1.946 1.162 0 1.974.434 2.506.98l-.49.728c-.406-.49-1.134-.854-2.016-.854-.924 0-1.498.462-1.498 1.064 0 1.47 4.186.504 4.186 3.136 0 1.134-.91 2.044-2.646 2.044zM60.534 73h-1.05v-.77c-.546.616-1.33.938-2.24.938-1.134 0-2.352-.77-2.352-2.24 0-1.526 1.204-2.226 2.352-2.226.924 0 1.694.294 2.24.91v-1.218c0-.896-.728-1.414-1.708-1.414-.812 0-1.47.28-2.072.938l-.49-.728c.728-.756 1.596-1.12 2.702-1.12 1.442 0 2.618.644 2.618 2.282V73zm-2.898-.588c.728 0 1.442-.28 1.848-.84v-1.288c-.406-.546-1.12-.826-1.848-.826-.994 0-1.68.616-1.68 1.47 0 .868.686 1.484 1.68 1.484zm6.062.588h-1.05v-9.338h1.05V73zm5.166.168c-2.016 0-3.458-1.442-3.458-3.556 0-1.96 1.4-3.542 3.332-3.542 2.044 0 3.248 1.596 3.248 3.626v.266h-5.46c.084 1.274.966 2.338 2.422 2.338.784 0 1.554-.308 2.1-.868l.504.686c-.686.672-1.596 1.05-2.688 1.05zm2.086-3.99c-.014-.994-.686-2.24-2.226-2.24-1.442 0-2.156 1.218-2.212 2.24h4.438zm4.886 3.99c-1.12 0-2.044-.35-2.73-1.064l.532-.756c.448.518 1.302.966 2.226.966 1.036 0 1.61-.49 1.61-1.162 0-1.638-4.186-.63-4.186-3.136 0-1.064.896-1.946 2.506-1.946 1.162 0 1.974.434 2.506.98l-.49.728c-.406-.49-1.134-.854-2.016-.854-.924 0-1.498.462-1.498 1.064 0 1.47 4.186.504 4.186 3.136 0 1.134-.91 2.044-2.646 2.044zM89.094 73h-1.05v-.77c-.546.616-1.33.938-2.24.938-1.134 0-2.352-.77-2.352-2.24 0-1.526 1.204-2.226 2.352-2.226.924 0 1.694.294 2.24.91v-1.218c0-.896-.728-1.414-1.708-1.414-.812 0-1.47.28-2.072.938l-.49-.728c.728-.756 1.596-1.12 2.702-1.12 1.442 0 2.618.644 2.618 2.282V73zm-2.898-.588c.728 0 1.442-.28 1.848-.84v-1.288c-.406-.546-1.12-.826-1.848-.826-.994 0-1.68.616-1.68 1.47 0 .868.686 1.484 1.68 1.484zm6.062.588h-1.05v-9.338h1.05V73zm5.166.168c-2.016 0-3.458-1.442-3.458-3.556 0-1.96 1.4-3.542 3.332-3.542 2.044 0 3.248 1.596 3.248 3.626v.266h-5.46c.084 1.274.966 2.338 2.422 2.338.784 0 1.554-.308 2.1-.868l.504.686c-.686.672-1.596 1.05-2.688 1.05zm2.086-3.99c-.014-.994-.686-2.24-2.226-2.24-1.442 0-2.156 1.218-2.212 2.24h4.438zM103.29 73h-1.05v-6.762h1.05v1.078c.546-.7 1.33-1.232 2.254-1.232v1.078a3.468 3.468 0 0 0-.406-.028c-.658 0-1.54.532-1.848 1.078V73zm5.292.168c-1.008 0-1.512-.574-1.512-1.582v-4.424h-1.12v-.924h1.12V64.39h1.064v1.848h1.372v.924h-1.372v4.2c0 .504.224.868.672.868.308 0 .574-.14.714-.294l.308.798c-.266.252-.644.434-1.246.434z"/></g><path fill="#6FD350" d="M54.643 430.38l-28.421 10.027a4 4 0 0 1-5.301-4.26l3.27-26.632a4 4 0 0 1 6.174-2.851l25.152 16.605a4 4 0 0 1-.874 7.11z" opacity=".2"/><path stroke="#6FD350" stroke-width="2" d="M60.86 438.885a3 3 0 0 0 .655-5.333l-25.152-16.605a3 3 0 0 0-4.63 2.138l-3.27 26.632a3 3 0 0 0 3.975 3.195l28.422-10.027z"/><g transform="rotate(-91 158.383 -82.622)"><ellipse cx="18.234" cy="13.678" stroke="#FFC111" stroke-width="2" rx="12.091" ry="12.078"/><ellipse cx="13.819" cy="17.585" fill="#FFC111" opacity=".2" rx="13.091" ry="13.078"/></g><g transform="rotate(24 167.708 912.706)"><rect width="15.96" height="15.833" x=".601" y="3.015" fill="#01B2D0" opacity=".1" rx="3"/><rect width="13.96" height="13.833" x="3.766" y="1.286" stroke="#01B2D0" stroke-width="2" rx="3"/></g><g transform="rotate(-149 66.112 117.501)"><rect width="19.32" height="19.167" x=".728" y="3.65" fill="#01B2D0" opacity=".1" rx="3"/><rect width="17.32" height="17.167" x="4.349" y="1.346" stroke="#01B2D0" stroke-width="2" rx="3"/></g></g></svg>