<svg xmlns="http://www.w3.org/2000/svg" xmlns:xlink="http://www.w3.org/1999/xlink" width="664" height="502" viewBox="0 0 664 502"><defs><path id="f" d="M242.9 20.779V19.8h1.085c1.053 0 1.802-.673 1.802-1.625 0-.857-.654-1.555-1.758-1.555-1.105 0-1.822.565-1.917 1.593h-1.11c.113-1.491 1.25-2.59 3.103-2.59 1.81 0 2.85 1.143 2.844 2.425-.006 1.105-.692 1.835-1.631 2.108v.101c1.187.19 1.974.997 1.974 2.273 0 1.536-1.403 2.685-3.225 2.685-1.86 0-3.142-1.022-3.225-2.577h1.105c.101.965.927 1.58 2.107 1.58 1.206 0 2.063-.692 2.063-1.72 0-1.06-.793-1.72-2.082-1.72H242.9zM248.821 25v-6.843h1.041v1.08h.102c.311-.762.997-1.2 1.91-1.2.927 0 1.575.488 1.892 1.2h.102c.368-.724 1.149-1.2 2.095-1.2 1.396 0 2.177.8 2.177 2.234V25h-1.092v-4.475c0-1.01-.476-1.504-1.44-1.504-.953 0-1.588.71-1.588 1.58V25h-1.092v-4.646c0-.813-.565-1.333-1.428-1.333-.895 0-1.587.774-1.587 1.739V25h-1.092zm16.468-.838c1.124 0 1.955-.736 1.955-1.714v-.628l-1.84.12c-1.041.07-1.498.432-1.498 1.118 0 .698.59 1.104 1.383 1.104zm-.203.959c-1.326 0-2.31-.788-2.31-2.038 0-1.225.901-1.93 2.494-2.025l1.974-.12v-.623c0-.844-.526-1.307-1.548-1.307-.82 0-1.39.31-1.543.85h-1.104c.146-1.098 1.225-1.821 2.685-1.821 1.67 0 2.602.857 2.602 2.278V25h-1.04v-1.01h-.102c-.445.73-1.194 1.13-2.108 1.13zm7.726-1.187c1.27 0 2.032-.965 2.032-2.457s-.768-2.456-2.032-2.456c-1.27 0-1.98.964-1.98 2.456s.71 2.457 1.98 2.457zm.051 3.694c-1.65 0-2.704-.743-2.869-1.873h1.155c.12.559.73.92 1.714.92 1.225 0 1.955-.602 1.955-1.612v-1.345h-.101c-.432.755-1.206 1.18-2.146 1.18-1.77 0-2.869-1.37-2.869-3.42 0-2.051 1.11-3.441 2.87-3.441.958 0 1.802.47 2.195 1.206h.102v-1.086h1.041v6.964c0 1.53-1.18 2.507-3.047 2.507zm7.606-2.507c-1.95 0-3.155-1.346-3.155-3.542 0-2.203 1.206-3.542 3.155-3.542 1.948 0 3.154 1.339 3.154 3.542 0 2.196-1.206 3.542-3.154 3.542zm0-.984c1.295 0 2.025-.94 2.025-2.558 0-1.625-.73-2.558-2.025-2.558s-2.025.933-2.025 2.558c0 1.618.73 2.558 2.025 2.558z"/><path id="g" d="M44.69 27h-1.142v-8.131h-2.951V17.84h7.046v1.029H44.69V27zm5.55-8.144v3.504h2.253c1.175 0 1.841-.629 1.841-1.752 0-1.098-.71-1.752-1.892-1.752H50.24zm0 4.52V27h-1.143v-9.16h3.498c1.764 0 2.92 1.08 2.92 2.73 0 1.276-.692 2.266-1.841 2.628L55.794 27h-1.34l-1.96-3.625H50.24zm8.17-5.536v5.935c0 1.384.908 2.387 2.495 2.387 1.587 0 2.495-1.003 2.495-2.387V17.84h1.142v6.012c0 1.955-1.365 3.364-3.637 3.364-2.273 0-3.637-1.41-3.637-3.364V17.84h1.142zm13.82 8.132V27h-5.675v-9.16h5.675v1.029h-4.532v2.939h4.297v1.015h-4.297v3.149h4.532zm4.68-1.365h1.156c.14.958 1.053 1.568 2.355 1.568 1.231 0 2.139-.667 2.139-1.574 0-.781-.571-1.276-1.835-1.594l-1.174-.304c-1.657-.42-2.374-1.168-2.374-2.47 0-1.555 1.301-2.608 3.237-2.608 1.771 0 3.092 1.053 3.187 2.532h-1.149c-.159-.94-.933-1.498-2.076-1.498-1.218 0-2.025.61-2.025 1.536 0 .718.502 1.13 1.765 1.454l.959.254c1.897.476 2.66 1.212 2.66 2.558 0 1.682-1.327 2.755-3.422 2.755-1.943 0-3.282-1.029-3.403-2.61zM88.845 27h-1.142v-8.131H84.75V17.84h7.046v1.029h-2.952V27zm7.872-9.375c2.603 0 4.202 1.853 4.202 4.792 0 2.926-1.587 4.799-4.202 4.799-2.628 0-4.202-1.866-4.202-4.799 0-2.945 1.612-4.792 4.202-4.792zm0 1.053c-1.866 0-3.028 1.447-3.028 3.739 0 2.272 1.124 3.745 3.028 3.745 1.88 0 3.028-1.473 3.028-3.745 0-2.292-1.155-3.739-3.028-3.739zm7.015.178v3.504h2.254c1.174 0 1.84-.629 1.84-1.752 0-1.098-.71-1.752-1.891-1.752h-2.203zm0 4.52V27h-1.142v-9.16h3.497c1.765 0 2.92 1.08 2.92 2.73 0 1.276-.692 2.266-1.84 2.628l2.12 3.802h-1.34l-1.961-3.625h-2.254zM114.188 27h-1.143v-3.942l-3.25-5.218h1.302l2.469 4.07h.102l2.469-4.07h1.301l-3.25 5.218V27z"/><path id="h" d="M20 6.256l-.001-.716a30.346 30.346 0 00-.01-.604 8.77 8.77 0 00-.115-1.313 4.424 4.424 0 00-.411-1.25A4.196 4.196 0 0017.626.538a4.43 4.43 0 00-1.248-.411A8.78 8.78 0 0015.064.01a30.379 30.379 0 00-.604-.009L13.744 0H6.256L5.54.001c-.201.002-.403.004-.604.01-.438.011-.88.037-1.314.115a4.43 4.43 0 00-1.248.411A4.199 4.199 0 00.538 2.374c-.204.4-.333.809-.412 1.249a8.77 8.77 0 00-.115 1.313c-.006.201-.008.403-.01.604L0 6.256v7.488c0 .239 0 .477.002.716 0 .201.003.403.009.604.011.438.037.88.115 1.313.079.44.208.85.412 1.25a4.193 4.193 0 001.836 1.836c.4.203.809.332 1.248.411.434.078.876.104 1.314.116.201.005.403.007.604.009l.716.001h7.488l.716-.001c.202-.002.403-.004.604-.01a8.78 8.78 0 001.314-.115 4.43 4.43 0 001.248-.411 4.19 4.19 0 001.837-1.836c.203-.4.332-.81.411-1.25a8.77 8.77 0 00.116-1.313c.005-.201.007-.403.009-.604l.001-.716V6.256z"/><path id="n" d="M260.879 25v-6.843h1.04v1.08h.102c.343-.756 1.01-1.2 2.057-1.2 1.536 0 2.393.907 2.393 2.532V25h-1.092v-4.164c0-1.232-.52-1.815-1.612-1.815s-1.796.73-1.796 1.93V25h-1.092zm10.087.12c-1.949 0-3.155-1.345-3.155-3.541 0-2.203 1.206-3.542 3.155-3.542 1.949 0 3.155 1.339 3.155 3.542 0 2.196-1.206 3.542-3.155 3.542zm0-.983c1.295 0 2.025-.94 2.025-2.558 0-1.625-.73-2.558-2.025-2.558s-2.025.933-2.025 2.558c0 1.618.73 2.558 2.025 2.558zm12.912-5.98L281.961 25h-1.11l-1.53-5.294h-.102L277.696 25h-1.105l-1.917-6.843h1.105l1.345 5.472h.102l1.53-5.472h1.047l1.53 5.472h.102l1.345-5.472h1.098z"/><path id="o" d="M44.69 27h-1.142v-8.131h-2.951V17.84h7.046v1.029H44.69V27zm5.55-8.144v3.504h2.253c1.175 0 1.841-.629 1.841-1.752 0-1.098-.71-1.752-1.892-1.752H50.24zm0 4.52V27h-1.143v-9.16h3.498c1.764 0 2.92 1.08 2.92 2.73 0 1.276-.692 2.266-1.841 2.628L55.794 27h-1.34l-1.96-3.625H50.24zm8.17-5.536v5.935c0 1.384.908 2.387 2.495 2.387 1.587 0 2.495-1.003 2.495-2.387V17.84h1.142v6.012c0 1.955-1.365 3.364-3.637 3.364-2.273 0-3.637-1.41-3.637-3.364V17.84h1.142zm13.82 8.132V27h-5.675v-9.16h5.675v1.029h-4.532v2.939h4.297v1.015h-4.297v3.149h4.532zm4.68-1.365h1.156c.14.958 1.053 1.568 2.355 1.568 1.231 0 2.139-.667 2.139-1.574 0-.781-.571-1.276-1.835-1.594l-1.174-.304c-1.657-.42-2.374-1.168-2.374-2.47 0-1.555 1.301-2.608 3.237-2.608 1.771 0 3.092 1.053 3.187 2.532h-1.149c-.159-.94-.933-1.498-2.076-1.498-1.218 0-2.025.61-2.025 1.536 0 .718.502 1.13 1.765 1.454l.959.254c1.897.476 2.66 1.212 2.66 2.558 0 1.682-1.327 2.755-3.422 2.755-1.943 0-3.282-1.029-3.403-2.61zM88.845 27h-1.142v-8.131H84.75V17.84h7.046v1.029h-2.952V27zm7.872-9.375c2.603 0 4.202 1.853 4.202 4.792 0 2.926-1.587 4.799-4.202 4.799-2.628 0-4.202-1.866-4.202-4.799 0-2.945 1.612-4.792 4.202-4.792zm0 1.053c-1.866 0-3.028 1.447-3.028 3.739 0 2.272 1.124 3.745 3.028 3.745 1.88 0 3.028-1.473 3.028-3.745 0-2.292-1.155-3.739-3.028-3.739zm7.015.178v3.504h2.254c1.174 0 1.84-.629 1.84-1.752 0-1.098-.71-1.752-1.891-1.752h-2.203zm0 4.52V27h-1.142v-9.16h3.497c1.765 0 2.92 1.08 2.92 2.73 0 1.276-.692 2.266-1.84 2.628l2.12 3.802h-1.34l-1.961-3.625h-2.254zM114.188 27h-1.143v-3.942l-3.25-5.218h1.302l2.469 4.07h.102l2.469-4.07h1.301l-3.25 5.218V27z"/><path id="p" d="M20 6.256l-.001-.716a30.346 30.346 0 00-.01-.604 8.77 8.77 0 00-.115-1.313 4.424 4.424 0 00-.411-1.25A4.196 4.196 0 0017.626.538a4.43 4.43 0 00-1.248-.411A8.78 8.78 0 0015.064.01a30.379 30.379 0 00-.604-.009L13.744 0H6.256L5.54.001c-.201.002-.403.004-.604.01-.438.011-.88.037-1.314.115a4.43 4.43 0 00-1.248.411A4.199 4.199 0 00.538 2.374c-.204.4-.333.809-.412 1.249a8.77 8.77 0 00-.115 1.313c-.006.201-.008.403-.01.604L0 6.256v7.488c0 .239 0 .477.002.716 0 .201.003.403.009.604.011.438.037.88.115 1.313.079.44.208.85.412 1.25a4.193 4.193 0 001.836 1.836c.4.203.809.332 1.248.411.434.078.876.104 1.314.116.201.005.403.007.604.009l.716.001h7.488l.716-.001c.202-.002.403-.004.604-.01a8.78 8.78 0 001.314-.115 4.43 4.43 0 001.248-.411 4.19 4.19 0 001.837-1.836c.203-.4.332-.81.411-1.25a8.77 8.77 0 00.116-1.313c.005-.201.007-.403.009-.604l.001-.716V6.256z"/><path id="u" d="M244.943 25v-1.898h-4.462v-1.041c1.237-2.076 2.64-4.31 3.922-6.22h1.657v6.24h1.301v1.021h-1.3V25h-1.118zm-3.294-2.99v.076h3.3V16.9h-.076a116.17 116.17 0 00-3.224 5.11zm7.173 2.99v-6.843h1.041v1.08h.102c.311-.762.997-1.2 1.91-1.2.927 0 1.575.488 1.892 1.2h.102c.368-.724 1.149-1.2 2.095-1.2 1.396 0 2.177.8 2.177 2.234V25h-1.092v-4.475c0-1.01-.476-1.504-1.44-1.504-.953 0-1.588.71-1.588 1.58V25h-1.092v-4.646c0-.813-.565-1.333-1.428-1.333-.895 0-1.587.774-1.587 1.739V25h-1.092zm16.468-.838c1.124 0 1.955-.736 1.955-1.714v-.628l-1.84.12c-1.041.07-1.498.432-1.498 1.118 0 .698.59 1.104 1.383 1.104zm-.203.959c-1.326 0-2.31-.788-2.31-2.038 0-1.225.901-1.93 2.494-2.025l1.974-.12v-.623c0-.844-.526-1.307-1.548-1.307-.82 0-1.39.31-1.543.85h-1.104c.146-1.098 1.225-1.821 2.685-1.821 1.67 0 2.602.857 2.602 2.278V25h-1.04v-1.01h-.102c-.445.73-1.194 1.13-2.108 1.13zm7.726-1.187c1.27 0 2.032-.965 2.032-2.457s-.768-2.456-2.032-2.456c-1.27 0-1.98.964-1.98 2.456s.71 2.457 1.98 2.457zm.051 3.694c-1.65 0-2.704-.743-2.869-1.873h1.155c.12.559.73.92 1.714.92 1.225 0 1.955-.602 1.955-1.612v-1.345h-.101c-.432.755-1.206 1.18-2.146 1.18-1.77 0-2.869-1.37-2.869-3.42 0-2.051 1.11-3.441 2.87-3.441.958 0 1.802.47 2.195 1.206h.102v-1.086h1.041v6.964c0 1.53-1.18 2.507-3.047 2.507zm7.606-2.507c-1.95 0-3.155-1.346-3.155-3.542 0-2.203 1.206-3.542 3.155-3.542 1.948 0 3.154 1.339 3.154 3.542 0 2.196-1.206 3.542-3.154 3.542zm0-.984c1.295 0 2.025-.94 2.025-2.558 0-1.625-.73-2.558-2.025-2.558s-2.025.933-2.025 2.558c0 1.618.73 2.558 2.025 2.558z"/><path id="v" d="M44.69 27h-1.142v-8.131h-2.951V17.84h7.046v1.029H44.69V27zm5.55-8.144v3.504h2.253c1.175 0 1.841-.629 1.841-1.752 0-1.098-.71-1.752-1.892-1.752H50.24zm0 4.52V27h-1.143v-9.16h3.498c1.764 0 2.92 1.08 2.92 2.73 0 1.276-.692 2.266-1.841 2.628L55.794 27h-1.34l-1.96-3.625H50.24zm8.17-5.536v5.935c0 1.384.908 2.387 2.495 2.387 1.587 0 2.495-1.003 2.495-2.387V17.84h1.142v6.012c0 1.955-1.365 3.364-3.637 3.364-2.273 0-3.637-1.41-3.637-3.364V17.84h1.142zm13.82 8.132V27h-5.675v-9.16h5.675v1.029h-4.532v2.939h4.297v1.015h-4.297v3.149h4.532zm4.68-1.365h1.156c.14.958 1.053 1.568 2.355 1.568 1.231 0 2.139-.667 2.139-1.574 0-.781-.571-1.276-1.835-1.594l-1.174-.304c-1.657-.42-2.374-1.168-2.374-2.47 0-1.555 1.301-2.608 3.237-2.608 1.771 0 3.092 1.053 3.187 2.532h-1.149c-.159-.94-.933-1.498-2.076-1.498-1.218 0-2.025.61-2.025 1.536 0 .718.502 1.13 1.765 1.454l.959.254c1.897.476 2.66 1.212 2.66 2.558 0 1.682-1.327 2.755-3.422 2.755-1.943 0-3.282-1.029-3.403-2.61zM88.845 27h-1.142v-8.131H84.75V17.84h7.046v1.029h-2.952V27zm7.872-9.375c2.603 0 4.202 1.853 4.202 4.792 0 2.926-1.587 4.799-4.202 4.799-2.628 0-4.202-1.866-4.202-4.799 0-2.945 1.612-4.792 4.202-4.792zm0 1.053c-1.866 0-3.028 1.447-3.028 3.739 0 2.272 1.124 3.745 3.028 3.745 1.88 0 3.028-1.473 3.028-3.745 0-2.292-1.155-3.739-3.028-3.739zm7.015.178v3.504h2.254c1.174 0 1.84-.629 1.84-1.752 0-1.098-.71-1.752-1.891-1.752h-2.203zm0 4.52V27h-1.142v-9.16h3.497c1.765 0 2.92 1.08 2.92 2.73 0 1.276-.692 2.266-1.84 2.628l2.12 3.802h-1.34l-1.961-3.625h-2.254zM114.188 27h-1.143v-3.942l-3.25-5.218h1.302l2.469 4.07h.102l2.469-4.07h1.301l-3.25 5.218V27z"/><path id="w" d="M20 6.256l-.001-.716a30.346 30.346 0 00-.01-.604 8.77 8.77 0 00-.115-1.313 4.424 4.424 0 00-.411-1.25A4.196 4.196 0 0017.626.538a4.43 4.43 0 00-1.248-.411A8.78 8.78 0 0015.064.01a30.379 30.379 0 00-.604-.009L13.744 0H6.256L5.54.001c-.201.002-.403.004-.604.01-.438.011-.88.037-1.314.115a4.43 4.43 0 00-1.248.411A4.199 4.199 0 00.538 2.374c-.204.4-.333.809-.412 1.249a8.77 8.77 0 00-.115 1.313c-.006.201-.008.403-.01.604L0 6.256v7.488c0 .239 0 .477.002.716 0 .201.003.403.009.604.011.438.037.88.115 1.313.079.44.208.85.412 1.25a4.193 4.193 0 001.836 1.836c.4.203.809.332 1.248.411.434.078.876.104 1.314.116.201.005.403.007.604.009l.716.001h7.488l.716-.001c.202-.002.403-.004.604-.01a8.78 8.78 0 001.314-.115 4.43 4.43 0 001.248-.411 4.19 4.19 0 001.837-1.836c.203-.4.332-.81.411-1.25a8.77 8.77 0 00.116-1.313c.005-.201.007-.403.009-.604l.001-.716V6.256z"/><path id="y" d="M12.82 0h314.36c4.458 0 6.075.464 7.704 1.336a9.086 9.086 0 013.78 3.78c.872 1.63 1.336 3.246 1.336 7.703v82.362c0 4.457-.464 6.074-1.336 7.703a9.086 9.086 0 01-3.78 3.78c-1.63.872-3.246 1.336-7.703 1.336H12.819c-4.457 0-6.074-.464-7.703-1.336a9.086 9.086 0 01-3.78-3.78C.464 101.254 0 99.638 0 95.181V12.819c0-4.457.464-6.074 1.336-7.703a9.086 9.086 0 013.78-3.78C6.746.464 8.362 0 12.819 0z"/><filter id="a" width="115.6%" height="124.5%" x="-7.8%" y="-10.4%" filterUnits="objectBoundingBox"><feMorphology in="SourceAlpha" operator="dilate" radius=".5" result="shadowSpreadOuter1"/><feOffset dy="4" in="shadowSpreadOuter1" result="shadowOffsetOuter1"/><feGaussianBlur in="shadowOffsetOuter1" result="shadowBlurOuter1" stdDeviation="8"/><feComposite in="shadowBlurOuter1" in2="SourceAlpha" operator="out" result="shadowBlurOuter1"/><feColorMatrix in="shadowBlurOuter1" values="0 0 0 0 0 0 0 0 0 0 0 0 0 0 0 0 0 0 0.12 0"/></filter><filter id="d" width="117.7%" height="166.2%" x="-8.8%" y="-28.1%" filterUnits="objectBoundingBox"><feMorphology in="SourceAlpha" operator="dilate" radius=".5" result="shadowSpreadOuter1"/><feOffset dy="4" in="shadowSpreadOuter1" result="shadowOffsetOuter1"/><feGaussianBlur in="shadowOffsetOuter1" result="shadowBlurOuter1" stdDeviation="8"/><feComposite in="shadowBlurOuter1" in2="SourceAlpha" operator="out" result="shadowBlurOuter1"/><feColorMatrix in="shadowBlurOuter1" values="0 0 0 0 0 0 0 0 0 0 0 0 0 0 0 0 0 0 0.12 0"/></filter><filter id="l" width="117.7%" height="153%" x="-8.8%" y="-22.5%" filterUnits="objectBoundingBox"><feMorphology in="SourceAlpha" operator="dilate" radius=".5" result="shadowSpreadOuter1"/><feOffset dy="4" in="shadowSpreadOuter1" result="shadowOffsetOuter1"/><feGaussianBlur in="shadowOffsetOuter1" result="shadowBlurOuter1" stdDeviation="8"/><feComposite in="shadowBlurOuter1" in2="SourceAlpha" operator="out" result="shadowBlurOuter1"/><feColorMatrix in="shadowBlurOuter1" values="0 0 0 0 0 0 0 0 0 0 0 0 0 0 0 0 0 0 0.12 0"/></filter><filter id="s" width="117.7%" height="153%" x="-8.8%" y="-22.5%" filterUnits="objectBoundingBox"><feMorphology in="SourceAlpha" operator="dilate" radius=".5" result="shadowSpreadOuter1"/><feOffset dy="4" in="shadowSpreadOuter1" result="shadowOffsetOuter1"/><feGaussianBlur in="shadowOffsetOuter1" result="shadowBlurOuter1" stdDeviation="8"/><feComposite in="shadowBlurOuter1" in2="SourceAlpha" operator="out" result="shadowBlurOuter1"/><feColorMatrix in="shadowBlurOuter1" values="0 0 0 0 0 0 0 0 0 0 0 0 0 0 0 0 0 0 0.12 0"/></filter><filter id="z" width="115.6%" height="149.1%" x="-7.8%" y="-20.8%" filterUnits="objectBoundingBox"><feMorphology in="SourceAlpha" operator="dilate" radius=".5" result="shadowSpreadOuter1"/><feOffset dy="4" in="shadowSpreadOuter1" result="shadowOffsetOuter1"/><feGaussianBlur in="shadowOffsetOuter1" result="shadowBlurOuter1" stdDeviation="8"/><feComposite in="shadowBlurOuter1" in2="SourceAlpha" operator="out" result="shadowBlurOuter1"/><feColorMatrix in="shadowBlurOuter1" values="0 0 0 0 0 0 0 0 0 0 0 0 0 0 0 0 0 0 0.12 0"/></filter><rect id="b" width="340" height="216" rx="10"/><rect id="c" width="300" height="80" rx="10"/><rect id="k" width="300" height="100" rx="10"/><rect id="r" width="300" height="100" rx="10"/><linearGradient id="i" x1="50%" x2="50%" y1="0%" y2="100%"><stop offset="0%" stop-color="#914EA9"/><stop offset="100%" stop-color="#153E7D"/></linearGradient></defs><g fill="none" fill-rule="evenodd"><path fill="#C9EDF4" d="M251 203h262v252H251z"/><g transform="translate(32 12)"><use fill="#000" filter="url(#a)" xlink:href="#b"/><use fill="#FFF" stroke="#8D8D8D" stroke-opacity=".24" xlink:href="#b"/><g transform="translate(24 56)"><path fill="#384254" fill-rule="nonzero" d="M71.116 35.168c-1.61 0-2.814-.616-3.584-1.484l.7-.896c.602.7 1.61 1.344 2.926 1.344 1.666 0 2.198-.896 2.198-1.624 0-2.408-5.53-1.064-5.53-4.396 0-1.54 1.372-2.604 3.22-2.604 1.414 0 2.52.49 3.304 1.316l-.7.854c-.7-.784-1.68-1.12-2.702-1.12-1.106 0-1.918.602-1.918 1.484 0 2.1 5.53.896 5.53 4.382 0 1.344-.924 2.744-3.444 2.744zm8.204 0c-2.016 0-3.458-1.442-3.458-3.556 0-1.96 1.4-3.542 3.332-3.542 2.044 0 3.248 1.596 3.248 3.626v.266h-5.46c.084 1.274.966 2.338 2.422 2.338.784 0 1.554-.308 2.1-.868l.504.686c-.686.672-1.596 1.05-2.688 1.05zm2.086-3.99c-.014-.994-.686-2.24-2.226-2.24-1.442 0-2.156 1.218-2.212 2.24h4.438zM89.75 35h-1.036v-4.424c0-1.204-.616-1.568-1.526-1.568-.826 0-1.596.504-2.002 1.05V35h-1.05v-6.762h1.05v.98c.476-.574 1.4-1.148 2.422-1.148 1.4 0 2.142.714 2.142 2.184V35zm8.064 0h-1.05v-1.008c-.504.686-1.33 1.176-2.282 1.176-1.764 0-3.01-1.344-3.01-3.542 0-2.17 1.246-3.556 3.01-3.556.91 0 1.736.448 2.282 1.19v-3.598h1.05V35zm-3.066-.77c.826 0 1.652-.49 2.016-1.078V30.1c-.364-.588-1.19-1.092-2.016-1.092-1.372 0-2.184 1.12-2.184 2.618 0 1.498.812 2.604 2.184 2.604zm14.07.77h-1.05v-.77c-.546.616-1.33.938-2.24.938-1.134 0-2.352-.77-2.352-2.24 0-1.526 1.204-2.226 2.352-2.226.924 0 1.694.294 2.24.91v-1.218c0-.896-.728-1.414-1.708-1.414-.812 0-1.47.28-2.072.938l-.49-.728c.728-.756 1.596-1.12 2.702-1.12 1.442 0 2.618.644 2.618 2.282V35zm-2.898-.588c.728 0 1.442-.28 1.848-.84v-1.288c-.406-.546-1.12-.826-1.848-.826-.994 0-1.68.616-1.68 1.47 0 .868.686 1.484 1.68 1.484zm10.626.588h-1.036v-4.424c0-1.204-.616-1.568-1.526-1.568-.826 0-1.596.504-2.002 1.05V35h-1.05v-6.762h1.05v.98c.476-.574 1.4-1.148 2.422-1.148 1.4 0 2.142.714 2.142 2.184V35zm8.806.168c-2.016 0-3.458-1.442-3.458-3.556 0-1.96 1.4-3.542 3.332-3.542 2.044 0 3.248 1.596 3.248 3.626v.266h-5.46c.084 1.274.966 2.338 2.422 2.338.784 0 1.554-.308 2.1-.868l.504.686c-.686.672-1.596 1.05-2.688 1.05zm2.086-3.99c-.014-.994-.686-2.24-2.226-2.24-1.442 0-2.156 1.218-2.212 2.24h4.438zM139.38 35h-1.05v-4.592c0-.854-.364-1.4-1.246-1.4-.7 0-1.442.49-1.792 1.036V35h-1.05v-4.592c0-.854-.35-1.4-1.246-1.4-.686 0-1.414.504-1.778 1.05V35h-1.05v-6.762h1.05v.98c.294-.434 1.19-1.148 2.198-1.148 1.022 0 1.61.56 1.806 1.26.378-.616 1.288-1.26 2.268-1.26 1.232 0 1.89.686 1.89 2.044V35zm7.378 0h-1.05v-.77c-.546.616-1.33.938-2.24.938-1.134 0-2.352-.77-2.352-2.24 0-1.526 1.204-2.226 2.352-2.226.924 0 1.694.294 2.24.91v-1.218c0-.896-.728-1.414-1.708-1.414-.812 0-1.47.28-2.072.938l-.49-.728c.728-.756 1.596-1.12 2.702-1.12 1.442 0 2.618.644 2.618 2.282V35zm-2.898-.588c.728 0 1.442-.28 1.848-.84v-1.288c-.406-.546-1.12-.826-1.848-.826-.994 0-1.68.616-1.68 1.47 0 .868.686 1.484 1.68 1.484zm5.544-7.14a.705.705 0 01-.714-.7c0-.392.322-.714.714-.714.392 0 .7.322.7.714 0 .392-.308.7-.7.7zm.518 7.728h-1.05v-6.762h1.05V35zm3.15 0h-1.05v-9.338h1.05V35zm8.708.168c-2.016 0-3.374-1.554-3.374-3.556s1.358-3.542 3.374-3.542c1.232 0 1.96.504 2.478 1.176l-.7.63c-.448-.616-1.022-.868-1.722-.868-1.428 0-2.338 1.106-2.338 2.604s.91 2.618 2.338 2.618c.7 0 1.274-.28 1.722-.882l.7.644c-.518.672-1.246 1.176-2.478 1.176zm6.916 0c-2.058 0-3.346-1.596-3.346-3.556s1.288-3.542 3.346-3.542 3.346 1.582 3.346 3.542c0 1.96-1.288 3.556-3.346 3.556zm0-.938c1.442 0 2.24-1.232 2.24-2.618 0-1.372-.798-2.604-2.24-2.604-1.442 0-2.24 1.232-2.24 2.604 0 1.386.798 2.618 2.24 2.618zm14.266.77h-1.05v-4.592c0-.854-.364-1.4-1.246-1.4-.7 0-1.442.49-1.792 1.036V35h-1.05v-4.592c0-.854-.35-1.4-1.246-1.4-.686 0-1.414.504-1.778 1.05V35h-1.05v-6.762h1.05v.98c.294-.434 1.19-1.148 2.198-1.148 1.022 0 1.61.56 1.806 1.26.378-.616 1.288-1.26 2.268-1.26 1.232 0 1.89.686 1.89 2.044V35zm11.312 0h-1.05v-4.592c0-.854-.364-1.4-1.246-1.4-.7 0-1.442.49-1.792 1.036V35h-1.05v-4.592c0-.854-.35-1.4-1.246-1.4-.686 0-1.414.504-1.778 1.05V35h-1.05v-6.762h1.05v.98c.294-.434 1.19-1.148 2.198-1.148 1.022 0 1.61.56 1.806 1.26.378-.616 1.288-1.26 2.268-1.26 1.232 0 1.89.686 1.89 2.044V35zm7.714 0h-1.05v-.952c-.518.588-1.4 1.12-2.408 1.12-1.414 0-2.156-.7-2.156-2.156v-4.774h1.05v4.452c0 1.19.602 1.54 1.526 1.54.812 0 1.596-.476 1.988-1.022v-4.97h1.05V35zm7.714 0h-1.036v-4.424c0-1.204-.616-1.568-1.526-1.568-.826 0-1.596.504-2.002 1.05V35h-1.05v-6.762h1.05v.98c.476-.574 1.4-1.148 2.422-1.148 1.4 0 2.142.714 2.142 2.184V35zm2.646-7.728a.705.705 0 01-.714-.7c0-.392.322-.714.714-.714.392 0 .7.322.7.714 0 .392-.308.7-.7.7zm.518 7.728h-1.05v-6.762h1.05V35zm5.082.168c-2.016 0-3.374-1.554-3.374-3.556s1.358-3.542 3.374-3.542c1.232 0 1.96.504 2.478 1.176l-.7.63c-.448-.616-1.022-.868-1.722-.868-1.428 0-2.338 1.106-2.338 2.604s.91 2.618 2.338 2.618c.7 0 1.274-.28 1.722-.882l.7.644c-.518.672-1.246 1.176-2.478 1.176zm9.24-.168h-1.05v-.77c-.546.616-1.33.938-2.24.938-1.134 0-2.352-.77-2.352-2.24 0-1.526 1.204-2.226 2.352-2.226.924 0 1.694.294 2.24.91v-1.218c0-.896-.728-1.414-1.708-1.414-.812 0-1.47.28-2.072.938l-.49-.728c.728-.756 1.596-1.12 2.702-1.12 1.442 0 2.618.644 2.618 2.282V35zm-2.898-.588c.728 0 1.442-.28 1.848-.84v-1.288c-.406-.546-1.12-.826-1.848-.826-.994 0-1.68.616-1.68 1.47 0 .868.686 1.484 1.68 1.484zm6.734.756c-1.008 0-1.512-.574-1.512-1.582v-4.424h-1.12v-.924h1.12V26.39h1.064v1.848h1.372v.924h-1.372v4.2c0 .504.224.868.672.868.308 0 .574-.14.714-.294l.308.798c-.266.252-.644.434-1.246.434zm2.926-7.896a.705.705 0 01-.714-.7c0-.392.322-.714.714-.714.392 0 .7.322.7.714 0 .392-.308.7-.7.7zm.518 7.728h-1.05v-6.762h1.05V35zm5.054.168c-2.058 0-3.346-1.596-3.346-3.556s1.288-3.542 3.346-3.542 3.346 1.582 3.346 3.542c0 1.96-1.288 3.556-3.346 3.556zm0-.938c1.442 0 2.24-1.232 2.24-2.618 0-1.372-.798-2.604-2.24-2.604-1.442 0-2.24 1.232-2.24 2.604 0 1.386.798 2.618 2.24 2.618zm10.668.77h-1.036v-4.424c0-1.204-.616-1.568-1.526-1.568-.826 0-1.596.504-2.002 1.05V35h-1.05v-6.762h1.05v.98c.476-.574 1.4-1.148 2.422-1.148 1.4 0 2.142.714 2.142 2.184V35zm7.462.168c-1.008 0-1.512-.574-1.512-1.582v-4.424h-1.12v-.924h1.12V26.39h1.064v1.848h1.372v.924h-1.372v4.2c0 .504.224.868.672.868.308 0 .574-.14.714-.294l.308.798c-.266.252-.644.434-1.246.434zm5.348 0c-2.058 0-3.346-1.596-3.346-3.556s1.288-3.542 3.346-3.542 3.346 1.582 3.346 3.542c0 1.96-1.288 3.556-3.346 3.556zm0-.938c1.442 0 2.24-1.232 2.24-2.618 0-1.372-.798-2.604-2.24-2.604-1.442 0-2.24 1.232-2.24 2.604 0 1.386.798 2.618 2.24 2.618zm10.402.938c-1.008 0-1.512-.574-1.512-1.582v-4.424h-1.12v-.924h1.12V26.39h1.064v1.848h1.372v.924h-1.372v4.2c0 .504.224.868.672.868.308 0 .574-.14.714-.294l.308.798c-.266.252-.644.434-1.246.434zm8.022-.168h-1.05v-4.452c0-1.204-.602-1.54-1.526-1.54-.812 0-1.596.504-1.988 1.05V35h-1.05v-9.338h1.05v3.556c.462-.574 1.386-1.148 2.408-1.148 1.414 0 2.156.686 2.156 2.156V35zm5.166.168c-2.016 0-3.458-1.442-3.458-3.556 0-1.96 1.4-3.542 3.332-3.542 2.044 0 3.248 1.596 3.248 3.626v.266h-5.46c.084 1.274.966 2.338 2.422 2.338.784 0 1.554-.308 2.1-.868l.504.686c-.686.672-1.596 1.05-2.688 1.05zm2.086-3.99c-.014-.994-.686-2.24-2.226-2.24-1.442 0-2.156 1.218-2.212 2.24h4.438zM73.664 53h-1.05v-.952c-.518.588-1.4 1.12-2.408 1.12-1.414 0-2.156-.7-2.156-2.156v-4.774h1.05v4.452c0 1.19.602 1.54 1.526 1.54.812 0 1.596-.476 1.988-1.022v-4.97h1.05V53zm4.256.168c-1.12 0-2.044-.35-2.73-1.064l.532-.756c.448.518 1.302.966 2.226.966 1.036 0 1.61-.49 1.61-1.162 0-1.638-4.186-.63-4.186-3.136 0-1.064.896-1.946 2.506-1.946 1.162 0 1.974.434 2.506.98l-.49.728c-.406-.49-1.134-.854-2.016-.854-.924 0-1.498.462-1.498 1.064 0 1.47 4.186.504 4.186 3.136 0 1.134-.91 2.044-2.646 2.044zm7.42 0c-2.016 0-3.458-1.442-3.458-3.556 0-1.96 1.4-3.542 3.332-3.542 2.044 0 3.248 1.596 3.248 3.626v.266h-5.46c.084 1.274.966 2.338 2.422 2.338.784 0 1.554-.308 2.1-.868l.504.686c-.686.672-1.596 1.05-2.688 1.05zm2.086-3.99c-.014-.994-.686-2.24-2.226-2.24-1.442 0-2.156 1.218-2.212 2.24h4.438zM91.206 53h-1.05v-6.762h1.05v1.078c.546-.7 1.33-1.232 2.254-1.232v1.078c-.126-.014-.252-.028-.406-.028-.658 0-1.54.532-1.848 1.078V53zM75.07 13h-7.08V2.995h7.08V4.87h-4.95v2.1h4.845v1.875H70.12v2.28h4.95V13zm12.525 0h-1.92V8.425c0-.675-.3-1.155-1.08-1.155-.675 0-1.23.45-1.5.84V13h-1.92V8.425c0-.675-.3-1.155-1.08-1.155-.66 0-1.215.45-1.5.84V13H76.69V5.755h1.905v.93c.315-.42 1.26-1.11 2.37-1.11 1.065 0 1.755.495 2.01 1.305.42-.645 1.38-1.305 2.49-1.305 1.335 0 2.13.705 2.13 2.19V13zm8.16 0h-1.92v-.765c-.495.6-1.35.945-2.295.945-1.155 0-2.505-.78-2.505-2.4 0-1.71 1.35-2.34 2.505-2.34.975 0 1.815.315 2.295.885V8.41c0-.735-.63-1.215-1.59-1.215-.765 0-1.485.3-2.085.855l-.75-1.335c.885-.795 2.025-1.14 3.165-1.14 1.665 0 3.18.66 3.18 2.745V13zm-3.45-1.11c.615 0 1.215-.21 1.53-.63v-.9c-.315-.42-.915-.645-1.53-.645-.75 0-1.365.405-1.365 1.095s.615 1.08 1.365 1.08zm6.27-6.915c-.615 0-1.125-.51-1.125-1.14 0-.63.51-1.125 1.125-1.125.63 0 1.14.495 1.14 1.125s-.51 1.14-1.14 1.14zm.96 8.025H97.63V5.755h1.905V13zm3.795 0h-1.905V2.995h1.905V13z"/><rect width="50" height="50" x=".5" y=".5" fill="#FFF" stroke="#E1E1E1" rx="10"/><path fill="#01B2D0" d="M16.421 21.253a2.413 2.413 0 012.411-2.41h13.336a2.418 2.418 0 012.41 2.41v8.494a2.413 2.413 0 01-2.41 2.41H18.832a2.418 2.418 0 01-2.41-2.41v-8.494zm9.079 5.815l-6.23-6.233a.605.605 0 00-.856.856l6.658 6.661c.236.237.62.237.856 0l6.658-6.661a.605.605 0 00-.856-.856l-6.23 6.233z"/></g><path fill="#384254" fill-rule="nonzero" d="M32.064 37h-1.596l-.588-1.548h-3.672L25.62 37h-1.596l3.144-8.004h1.752L32.064 37zm-2.58-2.784l-1.44-3.816-1.44 3.816h2.88zm6.876 2.928c-2.364 0-4.2-1.68-4.2-4.14 0-2.472 1.836-4.14 4.2-4.14 1.608 0 2.616.828 3.204 1.788l-1.188.624a2.366 2.366 0 00-2.016-1.164c-1.584 0-2.76 1.2-2.76 2.892 0 1.668 1.176 2.892 2.76 2.892.852 0 1.632-.504 2.016-1.164l1.2.6c-.612.96-1.608 1.812-3.216 1.812zM44.004 37H42.6v-6.768h-2.424v-1.236h6.252v1.236h-2.424V37zm5.016 0h-1.404v-8.004h1.404V37zm5.448.144c-2.4 0-4.092-1.752-4.092-4.14s1.692-4.14 4.092-4.14c2.388 0 4.092 1.752 4.092 4.14s-1.704 4.14-4.092 4.14zm0-1.248c1.608 0 2.652-1.248 2.652-2.892 0-1.656-1.044-2.892-2.652-2.892-1.62 0-2.652 1.236-2.652 2.892 0 1.644 1.032 2.892 2.652 2.892zM66.84 37h-1.356l-4.176-5.724V37h-1.404v-8.004h1.44l4.092 5.544v-5.544h1.404V37zm4.452.144c-1.476 0-2.544-.528-3.264-1.272l.792-1.092a3.439 3.439 0 002.532 1.116c1.152 0 1.596-.564 1.596-1.104 0-1.68-4.656-.636-4.656-3.576 0-1.332 1.152-2.352 2.916-2.352 1.236 0 2.256.408 2.988 1.128l-.792 1.044c-.636-.636-1.488-.924-2.328-.924-.816 0-1.344.408-1.344.996 0 1.5 4.656.576 4.656 3.552 0 1.332-.948 2.484-3.096 2.484z" opacity=".5"/><g transform="translate(24 134)"><path fill="#384254" fill-rule="nonzero" d="M71.116 35.168c-1.61 0-2.814-.616-3.584-1.484l.7-.896c.602.7 1.61 1.344 2.926 1.344 1.666 0 2.198-.896 2.198-1.624 0-2.408-5.53-1.064-5.53-4.396 0-1.54 1.372-2.604 3.22-2.604 1.414 0 2.52.49 3.304 1.316l-.7.854c-.7-.784-1.68-1.12-2.702-1.12-1.106 0-1.918.602-1.918 1.484 0 2.1 5.53.896 5.53 4.382 0 1.344-.924 2.744-3.444 2.744zm8.204 0c-2.016 0-3.458-1.442-3.458-3.556 0-1.96 1.4-3.542 3.332-3.542 2.044 0 3.248 1.596 3.248 3.626v.266h-5.46c.084 1.274.966 2.338 2.422 2.338.784 0 1.554-.308 2.1-.868l.504.686c-.686.672-1.596 1.05-2.688 1.05zm2.086-3.99c-.014-.994-.686-2.24-2.226-2.24-1.442 0-2.156 1.218-2.212 2.24h4.438zM89.75 35h-1.036v-4.424c0-1.204-.616-1.568-1.526-1.568-.826 0-1.596.504-2.002 1.05V35h-1.05v-6.762h1.05v.98c.476-.574 1.4-1.148 2.422-1.148 1.4 0 2.142.714 2.142 2.184V35zm8.064 0h-1.05v-1.008c-.504.686-1.33 1.176-2.282 1.176-1.764 0-3.01-1.344-3.01-3.542 0-2.17 1.246-3.556 3.01-3.556.91 0 1.736.448 2.282 1.19v-3.598h1.05V35zm-3.066-.77c.826 0 1.652-.49 2.016-1.078V30.1c-.364-.588-1.19-1.092-2.016-1.092-1.372 0-2.184 1.12-2.184 2.618 0 1.498.812 2.604 2.184 2.604zm14.07.77h-1.05v-.77c-.546.616-1.33.938-2.24.938-1.134 0-2.352-.77-2.352-2.24 0-1.526 1.204-2.226 2.352-2.226.924 0 1.694.294 2.24.91v-1.218c0-.896-.728-1.414-1.708-1.414-.812 0-1.47.28-2.072.938l-.49-.728c.728-.756 1.596-1.12 2.702-1.12 1.442 0 2.618.644 2.618 2.282V35zm-2.898-.588c.728 0 1.442-.28 1.848-.84v-1.288c-.406-.546-1.12-.826-1.848-.826-.994 0-1.68.616-1.68 1.47 0 .868.686 1.484 1.68 1.484zm11.97.756c-.924 0-1.722-.448-2.282-1.19v3.598h-1.05v-9.338h1.05v1.008a2.827 2.827 0 012.282-1.176c1.778 0 3.01 1.344 3.01 3.542 0 2.184-1.232 3.556-3.01 3.556zm-.266-.938c1.358 0 2.17-1.12 2.17-2.618 0-1.498-.812-2.604-2.17-2.604-.826 0-1.652.49-2.016 1.078v3.052c.364.588 1.19 1.092 2.016 1.092zm10.556.77h-1.05v-.952c-.518.588-1.4 1.12-2.408 1.12-1.414 0-2.156-.7-2.156-2.156v-4.774h1.05v4.452c0 1.19.602 1.54 1.526 1.54.812 0 1.596-.476 1.988-1.022v-4.97h1.05V35zm4.256.168c-1.12 0-2.044-.35-2.73-1.064l.532-.756c.448.518 1.302.966 2.226.966 1.036 0 1.61-.49 1.61-1.162 0-1.638-4.186-.63-4.186-3.136 0-1.064.896-1.946 2.506-1.946 1.162 0 1.974.434 2.506.98l-.49.728c-.406-.49-1.134-.854-2.016-.854-.924 0-1.498.462-1.498 1.064 0 1.47 4.186.504 4.186 3.136 0 1.134-.91 2.044-2.646 2.044zm9.982-.168h-1.05v-4.452c0-1.204-.602-1.54-1.526-1.54-.812 0-1.596.504-1.988 1.05V35h-1.05v-9.338h1.05v3.556c.462-.574 1.386-1.148 2.408-1.148 1.414 0 2.156.686 2.156 2.156V35zm11.34 0h-1.036v-4.424c0-1.204-.616-1.568-1.526-1.568-.826 0-1.596.504-2.002 1.05V35h-1.05v-6.762h1.05v.98c.476-.574 1.4-1.148 2.422-1.148 1.4 0 2.142.714 2.142 2.184V35zm5.068.168c-2.058 0-3.346-1.596-3.346-3.556s1.288-3.542 3.346-3.542 3.346 1.582 3.346 3.542c0 1.96-1.288 3.556-3.346 3.556zm0-.938c1.442 0 2.24-1.232 2.24-2.618 0-1.372-.798-2.604-2.24-2.604-1.442 0-2.24 1.232-2.24 2.604 0 1.386.798 2.618 2.24 2.618zm6.776.938c-1.008 0-1.512-.574-1.512-1.582v-4.424h-1.12v-.924h1.12V26.39h1.064v1.848h1.372v.924h-1.372v4.2c0 .504.224.868.672.868.308 0 .574-.14.714-.294l.308.798c-.266.252-.644.434-1.246.434zm2.926-7.896a.705.705 0 01-.714-.7c0-.392.322-.714.714-.714.392 0 .7.322.7.714 0 .392-.308.7-.7.7zm.518 7.728h-1.05v-6.762h1.05V35zm3.444 0h-1.05v-5.838h-1.12v-.924h1.12v-.518c0-1.4.798-2.198 1.96-2.198.406 0 .756.07 1.036.224l-.266.798a1.128 1.128 0 00-.602-.154c-.7 0-1.078.462-1.078 1.33v.518h1.372v.924h-1.372V35zm3.164-7.728a.705.705 0 01-.714-.7c0-.392.322-.714.714-.714.392 0 .7.322.7.714 0 .392-.308.7-.7.7zm.518 7.728h-1.05v-6.762h1.05V35zm5.082.168c-2.016 0-3.374-1.554-3.374-3.556s1.358-3.542 3.374-3.542c1.232 0 1.96.504 2.478 1.176l-.7.63c-.448-.616-1.022-.868-1.722-.868-1.428 0-2.338 1.106-2.338 2.604s.91 2.618 2.338 2.618c.7 0 1.274-.28 1.722-.882l.7.644c-.518.672-1.246 1.176-2.478 1.176zm9.24-.168h-1.05v-.77c-.546.616-1.33.938-2.24.938-1.134 0-2.352-.77-2.352-2.24 0-1.526 1.204-2.226 2.352-2.226.924 0 1.694.294 2.24.91v-1.218c0-.896-.728-1.414-1.708-1.414-.812 0-1.47.28-2.072.938l-.49-.728c.728-.756 1.596-1.12 2.702-1.12 1.442 0 2.618.644 2.618 2.282V35zm-2.898-.588c.728 0 1.442-.28 1.848-.84v-1.288c-.406-.546-1.12-.826-1.848-.826-.994 0-1.68.616-1.68 1.47 0 .868.686 1.484 1.68 1.484zm6.734.756c-1.008 0-1.512-.574-1.512-1.582v-4.424h-1.12v-.924h1.12V26.39h1.064v1.848h1.372v.924h-1.372v4.2c0 .504.224.868.672.868.308 0 .574-.14.714-.294l.308.798c-.266.252-.644.434-1.246.434zm2.926-7.896a.705.705 0 01-.714-.7c0-.392.322-.714.714-.714.392 0 .7.322.7.714 0 .392-.308.7-.7.7zm.518 7.728h-1.05v-6.762h1.05V35zm5.054.168c-2.058 0-3.346-1.596-3.346-3.556s1.288-3.542 3.346-3.542 3.346 1.582 3.346 3.542c0 1.96-1.288 3.556-3.346 3.556zm0-.938c1.442 0 2.24-1.232 2.24-2.618 0-1.372-.798-2.604-2.24-2.604-1.442 0-2.24 1.232-2.24 2.604 0 1.386.798 2.618 2.24 2.618zm10.668.77h-1.036v-4.424c0-1.204-.616-1.568-1.526-1.568-.826 0-1.596.504-2.002 1.05V35h-1.05v-6.762h1.05v.98c.476-.574 1.4-1.148 2.422-1.148 1.4 0 2.142.714 2.142 2.184V35zm7.462.168c-1.008 0-1.512-.574-1.512-1.582v-4.424h-1.12v-.924h1.12V26.39h1.064v1.848h1.372v.924h-1.372v4.2c0 .504.224.868.672.868.308 0 .574-.14.714-.294l.308.798c-.266.252-.644.434-1.246.434zm5.348 0c-2.058 0-3.346-1.596-3.346-3.556s1.288-3.542 3.346-3.542 3.346 1.582 3.346 3.542c0 1.96-1.288 3.556-3.346 3.556zm0-.938c1.442 0 2.24-1.232 2.24-2.618 0-1.372-.798-2.604-2.24-2.604-1.442 0-2.24 1.232-2.24 2.604 0 1.386.798 2.618 2.24 2.618zm10.402.938c-1.008 0-1.512-.574-1.512-1.582v-4.424h-1.12v-.924h1.12V26.39h1.064v1.848h1.372v.924h-1.372v4.2c0 .504.224.868.672.868.308 0 .574-.14.714-.294l.308.798c-.266.252-.644.434-1.246.434zM244.73 35h-1.05v-4.452c0-1.204-.602-1.54-1.526-1.54-.812 0-1.596.504-1.988 1.05V35h-1.05v-9.338h1.05v3.556c.462-.574 1.386-1.148 2.408-1.148 1.414 0 2.156.686 2.156 2.156V35zm5.166.168c-2.016 0-3.458-1.442-3.458-3.556 0-1.96 1.4-3.542 3.332-3.542 2.044 0 3.248 1.596 3.248 3.626v.266h-5.46c.084 1.274.966 2.338 2.422 2.338.784 0 1.554-.308 2.1-.868l.504.686c-.686.672-1.596 1.05-2.688 1.05zm2.086-3.99c-.014-.994-.686-2.24-2.226-2.24-1.442 0-2.156 1.218-2.212 2.24h4.438zM73.664 53h-1.05v-.952c-.518.588-1.4 1.12-2.408 1.12-1.414 0-2.156-.7-2.156-2.156v-4.774h1.05v4.452c0 1.19.602 1.54 1.526 1.54.812 0 1.596-.476 1.988-1.022v-4.97h1.05V53zm4.256.168c-1.12 0-2.044-.35-2.73-1.064l.532-.756c.448.518 1.302.966 2.226.966 1.036 0 1.61-.49 1.61-1.162 0-1.638-4.186-.63-4.186-3.136 0-1.064.896-1.946 2.506-1.946 1.162 0 1.974.434 2.506.98l-.49.728c-.406-.49-1.134-.854-2.016-.854-.924 0-1.498.462-1.498 1.064 0 1.47 4.186.504 4.186 3.136 0 1.134-.91 2.044-2.646 2.044zm7.42 0c-2.016 0-3.458-1.442-3.458-3.556 0-1.96 1.4-3.542 3.332-3.542 2.044 0 3.248 1.596 3.248 3.626v.266h-5.46c.084 1.274.966 2.338 2.422 2.338.784 0 1.554-.308 2.1-.868l.504.686c-.686.672-1.596 1.05-2.688 1.05zm2.086-3.99c-.014-.994-.686-2.24-2.226-2.24-1.442 0-2.156 1.218-2.212 2.24h4.438zM91.206 53h-1.05v-6.762h1.05v1.078c.546-.7 1.33-1.232 2.254-1.232v1.078c-.126-.014-.252-.028-.406-.028-.658 0-1.54.532-1.848 1.078V53zm4.984-8.414c0 .854-.49 1.652-1.134 2.114l-.532-.434c.448-.294.854-.854.91-1.302a.649.649 0 01-.196.028c-.378 0-.672-.308-.672-.714a.75.75 0 01.742-.756c.476 0 .882.378.882 1.064zm3.542 8.582c-1.12 0-2.044-.35-2.73-1.064l.532-.756c.448.518 1.302.966 2.226.966 1.036 0 1.61-.49 1.61-1.162 0-1.638-4.186-.63-4.186-3.136 0-1.064.896-1.946 2.506-1.946 1.162 0 1.974.434 2.506.98l-.49.728c-.406-.49-1.134-.854-2.016-.854-.924 0-1.498.462-1.498 1.064 0 1.47 4.186.504 4.186 3.136 0 1.134-.91 2.044-2.646 2.044zm13.93-.168h-1.05v-1.008c-.504.686-1.33 1.176-2.282 1.176-1.764 0-3.01-1.344-3.01-3.542 0-2.17 1.246-3.556 3.01-3.556.91 0 1.736.448 2.282 1.19v-3.598h1.05V53zm-3.066-.77c.826 0 1.652-.49 2.016-1.078V48.1c-.364-.588-1.19-1.092-2.016-1.092-1.372 0-2.184 1.12-2.184 2.618 0 1.498.812 2.604 2.184 2.604zm8.232.938c-2.016 0-3.458-1.442-3.458-3.556 0-1.96 1.4-3.542 3.332-3.542 2.044 0 3.248 1.596 3.248 3.626v.266h-5.46c.084 1.274.966 2.338 2.422 2.338.784 0 1.554-.308 2.1-.868l.504.686c-.686.672-1.596 1.05-2.688 1.05zm2.086-3.99c-.014-.994-.686-2.24-2.226-2.24-1.442 0-2.156 1.218-2.212 2.24h4.438zM126.598 53h-1.148l-2.814-6.762h1.148l2.24 5.544 2.254-5.544h1.134L126.598 53zm4.438-7.728a.705.705 0 01-.714-.7c0-.392.322-.714.714-.714.392 0 .7.322.7.714 0 .392-.308.7-.7.7zm.518 7.728h-1.05v-6.762h1.05V53zm5.082.168c-2.016 0-3.374-1.554-3.374-3.556s1.358-3.542 3.374-3.542c1.232 0 1.96.504 2.478 1.176l-.7.63c-.448-.616-1.022-.868-1.722-.868-1.428 0-2.338 1.106-2.338 2.604s.91 2.618 2.338 2.618c.7 0 1.274-.28 1.722-.882l.7.644c-.518.672-1.246 1.176-2.478 1.176zm7.028 0c-2.016 0-3.458-1.442-3.458-3.556 0-1.96 1.4-3.542 3.332-3.542 2.044 0 3.248 1.596 3.248 3.626v.266h-5.46c.084 1.274.966 2.338 2.422 2.338.784 0 1.554-.308 2.1-.868l.504.686c-.686.672-1.596 1.05-2.688 1.05zm2.086-3.99c-.014-.994-.686-2.24-2.226-2.24-1.442 0-2.156 1.218-2.212 2.24h4.438zM70.12 13h-2.13V2.995h4.68c2.175 0 3.36 1.47 3.36 3.225 0 1.74-1.2 3.21-3.36 3.21h-2.55V13zm2.25-5.445c.84 0 1.485-.51 1.485-1.335 0-.84-.645-1.35-1.485-1.35h-2.25v2.685h2.25zM84.115 13H82.21v-.915a3.445 3.445 0 01-2.55 1.095c-1.59 0-2.34-.87-2.34-2.28V5.755h1.905v4.395c0 1.005.525 1.335 1.335 1.335.735 0 1.32-.405 1.65-.825V5.755h1.905V13zm4.5.18c-1.26 0-2.475-.42-3.24-1.125l.825-1.38c.54.51 1.605 1.005 2.505 1.005.825 0 1.215-.315 1.215-.765 0-1.185-4.29-.21-4.29-3.06 0-1.215 1.05-2.28 2.97-2.28 1.215 0 2.19.42 2.91.99l-.765 1.35c-.435-.45-1.26-.84-2.145-.84-.69 0-1.14.3-1.14.705 0 1.065 4.305.165 4.305 3.09 0 1.335-1.14 2.31-3.15 2.31zM99.97 13h-1.905V8.59c0-1.005-.525-1.32-1.335-1.32-.75 0-1.335.42-1.65.84V13h-1.92V2.995h1.92v3.69c.465-.54 1.35-1.11 2.535-1.11 1.59 0 2.355.87 2.355 2.28V13z"/><rect width="50" height="50" x=".5" y=".5" fill="#FFF" stroke="#E1E1E1" rx="10"/><path fill="#96C775" d="M23.079 18.237h-1.21a1.21 1.21 0 00-1.211 1.21v12.106c0 .668.542 1.21 1.21 1.21h7.264a1.21 1.21 0 001.21-1.21V19.447a1.21 1.21 0 00-1.21-1.21h-1.21v.605a.605.605 0 01-.606.605h-3.632a.605.605 0 01-.605-.605v-.605zm-4.237.595a2.418 2.418 0 012.411-2.41h8.494a2.413 2.413 0 012.41 2.41v13.336a2.418 2.418 0 01-2.41 2.41h-8.494a2.413 2.413 0 01-2.41-2.41V18.832z"/></g></g><g transform="translate(348 294)"><mask id="e" fill="#fff"><use xlink:href="#c"/></mask><use fill="#000" filter="url(#d)" xlink:href="#c"/><use fill="#FFF" stroke="#8D8D8D" stroke-opacity=".24" xlink:href="#c"/><g fill="#000" fill-rule="nonzero" mask="url(#e)"><path d="M21.581 59h-1.318v-4.548l-3.75-6.02h1.501l2.85 4.694h.116l2.85-4.695h1.501l-3.75 6.02V59zm7.209.14c-2.249 0-3.64-1.554-3.64-4.088 0-2.541 1.391-4.087 3.64-4.087 2.248 0 3.64 1.546 3.64 4.087 0 2.534-1.392 4.087-3.64 4.087zm0-1.136c1.494 0 2.336-1.084 2.336-2.952 0-1.875-.842-2.951-2.336-2.951-1.494 0-2.337 1.076-2.337 2.951 0 1.868.843 2.952 2.337 2.952zm11.764-6.9V59h-1.201v-1.238h-.117c-.396.88-1.238 1.377-2.446 1.377-1.773 0-2.696-1.055-2.696-2.922v-5.113h1.26v4.805c0 1.421.527 2.08 1.787 2.08 1.392 0 2.153-.827 2.153-2.212v-4.673h1.26zm6.2 7.896V47.97h1.26v4.38h.117c.395-.872 1.223-1.385 2.431-1.385 1.67 0 2.725 1.07 2.725 2.923V59h-1.26v-4.805c0-1.399-.63-2.094-1.823-2.094-1.414 0-2.19.893-2.19 2.226V59h-1.26zm11.025-.967c1.296 0 2.255-.85 2.255-1.977v-.725l-2.124.139c-1.2.08-1.728.498-1.728 1.289 0 .805.681 1.274 1.597 1.274zm-.235 1.106c-1.53 0-2.666-.908-2.666-2.35 0-1.414 1.04-2.227 2.879-2.337l2.277-.14v-.717c0-.974-.608-1.51-1.787-1.51-.945 0-1.604.36-1.78.982h-1.274c.169-1.267 1.414-2.102 3.098-2.102 1.926 0 3.003.99 3.003 2.63V59h-1.201v-1.165h-.117c-.513.843-1.377 1.304-2.432 1.304zm11.992-8.035L66.613 59h-1.289l-2.922-7.896h1.347l2.161 6.504h.117l2.16-6.504h1.349zm4.3.975c-1.26 0-2.138.922-2.233 2.321h4.35c-.029-1.399-.864-2.321-2.116-2.321zm2.08 4.878h1.26c-.366 1.347-1.596 2.182-3.325 2.182-2.19 0-3.56-1.582-3.56-4.08 0-2.482 1.392-4.094 3.56-4.094 2.132 0 3.428 1.516 3.428 3.97v.483h-5.676v.06c.066 1.56.937 2.548 2.278 2.548 1.018 0 1.706-.374 2.036-1.07zm7.02-5.545c0-1.882 1.45-3.23 3.472-3.23 1.846 0 3.26 1.253 3.26 2.966 0 1.216-.528 2.095-2.432 4.065l-2.402 2.483v.117h5.01V59h-6.841v-.908l3.574-3.867c1.347-1.458 1.743-2.007 1.743-2.937 0-1.121-.754-1.956-2-1.956-1.267 0-2.109.828-2.109 2.08h-1.274zm13.415-2.351h1.26v2.043h1.757v1.055H97.61v4.468c0 .93.352 1.326 1.172 1.326.227 0 .352-.008.586-.03v1.062a4.22 4.22 0 01-.74.074c-1.625 0-2.277-.601-2.277-2.11v-4.79h-1.275v-1.055h1.275v-2.043zm7.113 8.972c1.297 0 2.256-.85 2.256-1.977v-.725l-2.124.139c-1.201.08-1.728.498-1.728 1.289 0 .805.68 1.274 1.596 1.274zm-.234 1.106c-1.53 0-2.666-.908-2.666-2.35 0-1.414 1.04-2.227 2.878-2.337l2.278-.14v-.717c0-.974-.608-1.51-1.787-1.51-.945 0-1.604.36-1.78.982h-1.274c.168-1.267 1.413-2.102 3.098-2.102 1.926 0 3.003.99 3.003 2.63V59h-1.201v-1.165h-.117c-.513.843-1.377 1.304-2.432 1.304zm5.656-5.874c0-1.31 1.267-2.3 2.944-2.3 1.655 0 2.805.82 2.974 2.117h-1.245c-.169-.63-.784-1.047-1.736-1.047-.938 0-1.67.476-1.67 1.179 0 .542.44.879 1.37 1.106l1.215.293c1.487.359 2.205 1.003 2.205 2.138 0 1.414-1.37 2.388-3.164 2.388-1.758 0-2.966-.842-3.106-2.153h1.297c.212.666.842 1.091 1.853 1.091 1.062 0 1.824-.505 1.824-1.23 0-.542-.41-.909-1.253-1.114l-1.355-.33c-1.48-.358-2.153-.995-2.153-2.138zm9.245 1.29l3.427-3.45h1.546l-3.399 3.383L123.331 59h-1.604l-2.96-3.699-.753.703V59h-1.26V47.97h1.26v6.584h.117zm5.978-1.29c0-1.31 1.267-2.3 2.944-2.3 1.656 0 2.805.82 2.974 2.117h-1.245c-.169-.63-.784-1.047-1.736-1.047-.938 0-1.67.476-1.67 1.179 0 .542.44.879 1.37 1.106l1.216.293c1.486.359 2.204 1.003 2.204 2.138 0 1.414-1.37 2.388-3.164 2.388-1.758 0-2.966-.842-3.105-2.153h1.296c.212.666.842 1.091 1.853 1.091 1.062 0 1.824-.505 1.824-1.23 0-.542-.41-.909-1.253-1.114l-1.355-.33c-1.48-.358-2.153-.995-2.153-2.138zm14.71 5.874c-2.021 0-3.317-1.604-3.317-4.087 0-2.475 1.31-4.087 3.317-4.087 1.099 0 2.03.52 2.476 1.385h.11v-4.38h1.26V59h-1.202v-1.26h-.117c-.498.88-1.435 1.4-2.527 1.4zm.293-7.038c-1.435 0-2.307 1.113-2.307 2.951 0 1.846.865 2.952 2.307 2.952 1.436 0 2.322-1.128 2.322-2.952 0-1.809-.893-2.951-2.322-2.951zm12.146-.997V59h-1.202v-1.238h-.117c-.395.88-1.238 1.377-2.446 1.377-1.772 0-2.695-1.055-2.695-2.922v-5.113h1.26v4.805c0 1.421.527 2.08 1.787 2.08 1.391 0 2.153-.827 2.153-2.212v-4.673h1.26zm5.282.975c-1.26 0-2.139.922-2.234 2.321h4.35c-.029-1.399-.863-2.321-2.116-2.321zm2.08 4.878h1.26c-.366 1.347-1.597 2.182-3.325 2.182-2.19 0-3.56-1.582-3.56-4.08 0-2.482 1.392-4.094 3.56-4.094 2.131 0 3.427 1.516 3.427 3.97v.483h-5.676v.06c.066 1.56.938 2.548 2.278 2.548 1.018 0 1.707-.374 2.036-1.07zm7.62-7.896h1.26v2.043h1.758v1.055h-1.757v4.468c0 .93.351 1.326 1.171 1.326.227 0 .352-.008.586-.03v1.062a4.22 4.22 0 01-.74.074c-1.625 0-2.277-.601-2.277-2.11v-4.79h-1.275v-1.055h1.275v-2.043zm7.817 10.078c-2.248 0-3.64-1.553-3.64-4.087 0-2.541 1.392-4.087 3.64-4.087 2.249 0 3.64 1.546 3.64 4.087 0 2.534-1.391 4.087-3.64 4.087zm0-1.135c1.495 0 2.337-1.084 2.337-2.952 0-1.875-.842-2.951-2.337-2.951-1.494 0-2.336 1.076-2.336 2.951 0 1.868.842 2.952 2.336 2.952zm5.378.996v-7.896h1.201v1.246h.117c.36-.88 1.15-1.385 2.205-1.385 1.07 0 1.816.564 2.183 1.385h.117c.425-.835 1.326-1.385 2.417-1.385 1.611 0 2.512.923 2.512 2.578V59h-1.26v-5.164c0-1.164-.55-1.735-1.662-1.735-1.099 0-1.831.82-1.831 1.823V59h-1.26v-5.361c0-.938-.652-1.538-1.648-1.538-1.033 0-1.831.893-1.831 2.006V59h-1.26zm16.056.14c-2.248 0-3.64-1.554-3.64-4.088 0-2.541 1.392-4.087 3.64-4.087 2.249 0 3.64 1.546 3.64 4.087 0 2.534-1.391 4.087-3.64 4.087zm0-1.136c1.495 0 2.337-1.084 2.337-2.952 0-1.875-.842-2.951-2.337-2.951-1.494 0-2.336 1.076-2.336 2.951 0 1.868.842 2.952 2.336 2.952zm5.378.996v-7.896h1.201v1.172h.118c.234-.769 1.142-1.31 2.19-1.31.205 0 .468.014.63.036v1.26c-.103-.03-.557-.074-.806-.074-1.202 0-2.073.806-2.073 1.92V59h-1.26zm5.62 0v-7.896h1.2v1.172h.118c.234-.769 1.142-1.31 2.19-1.31.205 0 .469.014.63.036v1.26c-.103-.03-.557-.074-.806-.074-1.201 0-2.073.806-2.073 1.92V59h-1.26zm8.497.14c-2.248 0-3.64-1.554-3.64-4.088 0-2.541 1.392-4.087 3.64-4.087 2.249 0 3.64 1.546 3.64 4.087 0 2.534-1.391 4.087-3.64 4.087zm0-1.136c1.494 0 2.337-1.084 2.337-2.952 0-1.875-.843-2.951-2.337-2.951-1.494 0-2.336 1.076-2.336 2.951 0 1.868.842 2.952 2.336 2.952zm15.017-6.9L227.79 59h-1.282l-1.765-6.108h-.117L222.869 59h-1.275l-2.211-7.896h1.274l1.553 6.314h.117l1.765-6.314h1.209l1.765 6.314h.117l1.553-6.314h1.267z"/></g><g fill-rule="nonzero" mask="url(#e)"><use fill="#000" fill-opacity=".05" xlink:href="#f" style="mix-blend-mode:hard-light"/><use fill="#3F3F3F" xlink:href="#f" style="mix-blend-mode:color-burn"/></g><g fill-rule="nonzero" mask="url(#e)"><use fill="#141414" fill-opacity=".4" xlink:href="#g"/><use fill="#000" fill-opacity=".05" xlink:href="#g" style="mix-blend-mode:hard-light"/><use fill="#3F3F3F" xlink:href="#g" style="mix-blend-mode:color-burn"/></g><g mask="url(#e)"><g transform="translate(12 12)"><mask id="j" fill="#fff"><use xlink:href="#h"/></mask><path fill="url(#i)" mask="url(#j)" d="M0 0h20v20H0z"/><path fill="#FFF" fill-rule="nonzero" mask="url(#j)" d="M9.257 5.684l-2.073.072-.566 3.161H5.4l.246-4.191h9.353l.174 4.191h-1.146l-.565-3.161-2.044-.072v8.801l2.029.145v.87H7.401v-.87l1.856-.145z"/></g></g></g><g transform="translate(348 186)"><mask id="m" fill="#fff"><use xlink:href="#k"/></mask><use fill="#000" filter="url(#l)" xlink:href="#k"/><use fill="#FFF" stroke="#8D8D8D" stroke-opacity=".24" xlink:href="#k"/><g fill="#000" fill-rule="nonzero" mask="url(#m)"><path d="M19.706 59v-9.104h-.117L16.9 51.844v-1.391l2.812-2.022h1.311V59h-1.318zm7.78.249c-2.38 0-3.75-2.021-3.75-5.537 0-3.486 1.384-5.53 3.75-5.53 2.351 0 3.735 2.05 3.735 5.552 0 3.508-1.362 5.515-3.735 5.515zm0-1.15c1.56 0 2.41-1.553 2.41-4.387 0-2.805-.865-4.373-2.41-4.373-1.545 0-2.424 1.582-2.424 4.373 0 2.827.864 4.387 2.424 4.387zm7.245-4.885c-1.435 0-2.3-.938-2.3-2.49 0-1.538.88-2.483 2.3-2.483 1.421 0 2.293.945 2.293 2.483 0 1.56-.864 2.49-2.293 2.49zm0-.96c.74 0 1.158-.564 1.158-1.523 0-.96-.425-1.523-1.158-1.523-.74 0-1.164.563-1.164 1.523 0 .967.425 1.523 1.164 1.523zM35.208 59h-1.194l7.302-10.569h1.194L35.208 59zm6.591.103c-1.428 0-2.3-.938-2.3-2.49 0-1.539.88-2.484 2.3-2.484 1.421 0 2.293.945 2.293 2.483 0 1.56-.864 2.49-2.293 2.49zm0-.96c.74 0 1.158-.564 1.158-1.523 0-.96-.418-1.524-1.158-1.524s-1.157.564-1.157 1.524c0 .966.418 1.523 1.157 1.523zm10.946.996c-2.248 0-3.64-1.553-3.64-4.087 0-2.541 1.392-4.087 3.64-4.087 2.249 0 3.64 1.546 3.64 4.087 0 2.534-1.391 4.087-3.64 4.087zm0-1.135c1.494 0 2.337-1.084 2.337-2.952 0-1.875-.843-2.951-2.337-2.951-1.494 0-2.336 1.076-2.336 2.951 0 1.868.842 2.952 2.336 2.952zM58.65 59v-6.84h-1.31v-1.056h1.31v-.878c0-1.575.791-2.33 2.293-2.33.307 0 .586.022.85.074v1.025a3.467 3.467 0 00-.594-.037c-.908 0-1.29.44-1.29 1.304v.842h1.81v1.055h-1.81V59H58.65zm5.187 0v-6.84h-1.31v-1.056h1.31v-.878c0-1.575.791-2.33 2.293-2.33.307 0 .586.022.85.074v1.025a3.467 3.467 0 00-.594-.037c-.908 0-1.289.44-1.289 1.304v.842h1.81v1.055h-1.81V59h-1.26zm8.47-5.735c0-1.31 1.268-2.3 2.945-2.3 1.655 0 2.805.82 2.974 2.117H76.98c-.168-.63-.783-1.047-1.735-1.047-.938 0-1.67.476-1.67 1.179 0 .542.44.879 1.37 1.106l1.215.293c1.487.359 2.205 1.003 2.205 2.138 0 1.414-1.37 2.388-3.164 2.388-1.758 0-2.967-.842-3.106-2.153h1.297c.212.666.842 1.091 1.853 1.091 1.062 0 1.823-.505 1.823-1.23 0-.542-.41-.909-1.252-1.114l-1.355-.33c-1.48-.358-2.153-.995-2.153-2.138zm14.182-2.16V59h-1.201v-1.238h-.117c-.396.88-1.238 1.377-2.447 1.377-1.772 0-2.695-1.055-2.695-2.922v-5.113h1.26v4.805c0 1.421.527 2.08 1.787 2.08 1.391 0 2.153-.827 2.153-2.212v-4.673h1.26zm6.059 8.034c-1.099 0-2.036-.52-2.534-1.399h-.118V59h-1.2V47.97h1.259v4.38h.117c.432-.85 1.392-1.385 2.476-1.385 2.007 0 3.31 1.604 3.31 4.087 0 2.469-1.31 4.087-3.31 4.087zm-.293-7.038c-1.436 0-2.33 1.128-2.33 2.951 0 1.824.894 2.952 2.33 2.952 1.443 0 2.3-1.106 2.3-2.952 0-1.845-.857-2.951-2.3-2.951zm5.158 1.164c0-1.31 1.267-2.3 2.944-2.3 1.655 0 2.805.82 2.974 2.117h-1.245c-.169-.63-.784-1.047-1.736-1.047-.938 0-1.67.476-1.67 1.179 0 .542.44.879 1.37 1.106l1.215.293c1.487.359 2.205 1.003 2.205 2.138 0 1.414-1.37 2.388-3.164 2.388-1.758 0-2.967-.842-3.106-2.153h1.297c.212.666.842 1.091 1.853 1.091 1.062 0 1.823-.505 1.823-1.23 0-.542-.41-.909-1.252-1.114l-1.355-.33c-1.48-.358-2.153-.995-2.153-2.138zm14.328.256h-1.275c-.205-.783-.9-1.42-2.036-1.42-1.42 0-2.314 1.135-2.314 2.922 0 1.824.908 2.98 2.314 2.98 1.062 0 1.802-.49 2.036-1.383h1.275c-.227 1.45-1.407 2.52-3.304 2.52-2.212 0-3.625-1.605-3.625-4.117 0-2.461 1.406-4.058 3.618-4.058 1.919 0 3.09 1.15 3.31 2.556zM113.36 59v-7.896h1.201v1.172h.117c.235-.769 1.143-1.31 2.19-1.31.205 0 .469.014.63.036v1.26c-.102-.03-.556-.074-.806-.074-1.2 0-2.072.806-2.072 1.92V59h-1.26zm5.502 0v-7.896h1.26V59h-1.26zm.63-9.419a.881.881 0 01-.879-.879c0-.483.396-.879.879-.879s.879.396.879.88a.881.881 0 01-.879.878zm6.637 1.384c2.015 0 3.318 1.604 3.318 4.087 0 2.469-1.31 4.087-3.318 4.087-1.127 0-2.036-.49-2.468-1.326h-.117v3.824h-1.26V51.104h1.201v1.319h.118c.505-.908 1.45-1.458 2.526-1.458zm-.3 7.039c1.45 0 2.315-1.106 2.315-2.952 0-1.845-.865-2.951-2.307-2.951-1.429 0-2.33 1.135-2.33 2.951 0 1.81.901 2.952 2.322 2.952zm5.883-8.943h1.26v2.043h1.758v1.055h-1.758v4.468c0 .93.352 1.326 1.172 1.326.227 0 .351-.008.586-.03v1.062a4.22 4.22 0 01-.74.074c-1.626 0-2.278-.601-2.278-2.11v-4.79h-1.274v-1.055h1.274v-2.043zM136.424 59v-7.896h1.26V59h-1.26zm.63-9.419a.881.881 0 01-.879-.879c0-.483.396-.879.88-.879.483 0 .878.396.878.88a.881.881 0 01-.879.878zm6.037 9.558c-2.248 0-3.64-1.553-3.64-4.087 0-2.541 1.392-4.087 3.64-4.087 2.249 0 3.64 1.546 3.64 4.087 0 2.534-1.391 4.087-3.64 4.087zm0-1.135c1.494 0 2.337-1.084 2.337-2.952 0-1.875-.843-2.951-2.337-2.951-1.494 0-2.336 1.076-2.336 2.951 0 1.868.842 2.952 2.336 2.952zm5.378.996v-7.896h1.201v1.246h.117c.396-.872 1.165-1.385 2.373-1.385 1.773 0 2.761 1.048 2.761 2.923V59h-1.26v-4.805c0-1.42-.6-2.094-1.86-2.094-1.26 0-2.072.842-2.072 2.226V59h-1.26zm8.33-5.735c0-1.31 1.266-2.3 2.943-2.3 1.656 0 2.806.82 2.974 2.117h-1.245c-.168-.63-.784-1.047-1.736-1.047-.937 0-1.67.476-1.67 1.179 0 .542.44.879 1.37 1.106l1.216.293c1.487.359 2.204 1.003 2.204 2.138 0 1.414-1.37 2.388-3.164 2.388-1.758 0-2.966-.842-3.105-2.153h1.296c.213.666.842 1.091 1.853 1.091 1.062 0 1.824-.505 1.824-1.23 0-.542-.41-.909-1.253-1.114l-1.355-.33c-1.479-.358-2.153-.995-2.153-2.138zm16.54 2.08h-4.804v-1.194h4.805v1.194zm12.653 2.468V59h-6.416V48.431h1.318v9.382h5.098zm1.73 1.187v-7.896h1.26V59h-1.26zm.63-9.419a.881.881 0 01-.879-.879c0-.483.396-.879.88-.879.482 0 .878.396.878.88a.881.881 0 01-.879.878zM191.144 59v-7.896h1.201v1.246h.118c.359-.88 1.15-1.385 2.204-1.385 1.07 0 1.817.564 2.183 1.385h.117c.425-.835 1.326-1.385 2.417-1.385 1.611 0 2.512.923 2.512 2.578V59h-1.26v-5.164c0-1.164-.549-1.735-1.662-1.735-1.099 0-1.831.82-1.831 1.823V59h-1.26v-5.361c0-.938-.652-1.538-1.648-1.538-1.033 0-1.831.893-1.831 2.006V59h-1.26zm12.841 0v-7.896h1.26V59h-1.26zm.63-9.419a.881.881 0 01-.879-.879c0-.483.396-.879.88-.879.483 0 .878.396.878.88a.881.881 0 01-.879.878zm3.32-.52h1.26v2.043h1.757v1.055h-1.757v4.468c0 .93.351 1.326 1.171 1.326.227 0 .352-.008.586-.03v1.062a4.22 4.22 0 01-.74.074c-1.625 0-2.277-.601-2.277-2.11v-4.79h-1.275v-1.055h1.275v-2.043zm7.721 3.018c-1.26 0-2.138.922-2.234 2.321h4.35c-.028-1.399-.863-2.321-2.116-2.321zm2.08 4.878h1.26c-.366 1.347-1.597 2.182-3.325 2.182-2.19 0-3.56-1.582-3.56-4.08 0-2.482 1.392-4.094 3.56-4.094 2.131 0 3.428 1.516 3.428 3.97v.483h-5.677v.06c.066 1.56.938 2.548 2.278 2.548 1.018 0 1.707-.374 2.036-1.07zm6.022 2.182c-2.021 0-3.317-1.604-3.317-4.087 0-2.475 1.31-4.087 3.317-4.087 1.1 0 2.03.52 2.476 1.385h.11v-4.38h1.26V59h-1.201v-1.26h-.118c-.498.88-1.435 1.4-2.527 1.4zm.293-7.038c-1.435 0-2.307 1.113-2.307 2.951 0 1.846.865 2.952 2.307 2.952 1.436 0 2.322-1.128 2.322-2.952 0-1.809-.893-2.951-2.322-2.951zm10.28-3.04h1.26v2.043h1.757v1.055h-1.757v4.468c0 .93.351 1.326 1.171 1.326.227 0 .352-.008.586-.03v1.062a4.22 4.22 0 01-.74.074c-1.625 0-2.277-.601-2.277-2.11v-4.79h-1.275v-1.055h1.275v-2.043zM239.04 59v-7.896h1.26V59h-1.26zm.63-9.419a.881.881 0 01-.878-.879c0-.483.395-.879.879-.879.483 0 .879.396.879.88a.881.881 0 01-.88.878zM242.465 59v-7.896h1.201v1.246h.117c.36-.88 1.15-1.385 2.205-1.385 1.07 0 1.816.564 2.183 1.385h.117c.425-.835 1.325-1.385 2.417-1.385 1.611 0 2.512.923 2.512 2.578V59h-1.26v-5.164c0-1.164-.55-1.735-1.662-1.735-1.099 0-1.831.82-1.831 1.823V59h-1.26v-5.361c0-.938-.652-1.538-1.648-1.538-1.033 0-1.831.893-1.831 2.006V59h-1.26zm15.961-6.921c-1.26 0-2.138.922-2.234 2.321h4.35c-.028-1.399-.863-2.321-2.116-2.321zm2.08 4.878h1.26c-.366 1.347-1.597 2.182-3.325 2.182-2.19 0-3.56-1.582-3.56-4.08 0-2.482 1.392-4.094 3.56-4.094 2.131 0 3.428 1.516 3.428 3.97v.483h-5.677v.06c.066 1.56.938 2.548 2.278 2.548 1.018 0 1.707-.374 2.036-1.07zM20.431 79.139c-2.248 0-3.64-1.553-3.64-4.087 0-2.541 1.392-4.087 3.64-4.087 2.249 0 3.64 1.546 3.64 4.087 0 2.534-1.391 4.087-3.64 4.087zm0-1.135c1.494 0 2.337-1.084 2.337-2.952 0-1.875-.843-2.951-2.337-2.951-1.494 0-2.336 1.076-2.336 2.951 0 1.868.842 2.952 2.336 2.952zM25.81 79v-7.896h1.201v1.246h.117c.396-.872 1.165-1.385 2.373-1.385 1.773 0 2.761 1.048 2.761 2.923V79h-1.26v-4.805c0-1.42-.6-2.094-1.86-2.094-1.26 0-2.072.842-2.072 2.226V79h-1.26zm8.586 0V67.97h1.26V79h-1.26zm4.14 2.856a3.73 3.73 0 01-.565-.043v-1.077c.154.03.352.036.528.036.725 0 1.12-.344 1.45-1.296l.146-.469-2.922-7.903h1.362l2.168 6.497h.118l2.16-6.497h1.34l-3.083 8.38c-.674 1.83-1.304 2.372-2.703 2.372zm7.64-13.432h1.465l-.124 7.06H46.3l-.125-7.06zm.74 10.708c-.593 0-1.018-.425-1.018-1.018 0-.6.425-1.026 1.018-1.026s1.01.425 1.01 1.026c0 .593-.417 1.018-1.01 1.018z"/></g><g fill-rule="nonzero" mask="url(#m)"><use fill="#000" fill-opacity=".05" xlink:href="#n" style="mix-blend-mode:hard-light"/><use fill="#3F3F3F" xlink:href="#n" style="mix-blend-mode:color-burn"/></g><g fill-rule="nonzero" mask="url(#m)"><use fill="#141414" fill-opacity=".4" xlink:href="#o"/><use fill="#000" fill-opacity=".05" xlink:href="#o" style="mix-blend-mode:hard-light"/><use fill="#3F3F3F" xlink:href="#o" style="mix-blend-mode:color-burn"/></g><g mask="url(#m)"><g transform="translate(12 12)"><mask id="q" fill="#fff"><use xlink:href="#p"/></mask><path fill="url(#i)" mask="url(#q)" d="M0 0h20v20H0z"/><path fill="#FFF" fill-rule="nonzero" mask="url(#q)" d="M9.257 5.684l-2.073.072-.566 3.161H5.4l.246-4.191h9.353l.174 4.191h-1.146l-.565-3.161-2.044-.072v8.801l2.029.145v.87H7.401v-.87l1.856-.145z"/></g></g></g><g transform="translate(348 382)"><mask id="t" fill="#fff"><use xlink:href="#r"/></mask><use fill="#000" filter="url(#s)" xlink:href="#r"/><use fill="#FFF" stroke="#8D8D8D" stroke-opacity=".24" xlink:href="#r"/><g fill="#000" fill-rule="nonzero" mask="url(#t)"><path d="M21.603 59.249c-2.871 0-4.666-2.124-4.666-5.53 0-3.413 1.788-5.537 4.659-5.537 2.226 0 3.962 1.4 4.277 3.435h-1.34c-.352-1.362-1.48-2.22-2.937-2.22-2.03 0-3.304 1.67-3.304 4.322s1.275 4.314 3.311 4.314c1.472 0 2.593-.754 2.93-1.977h1.34c-.352 1.94-2.021 3.193-4.27 3.193zM27.757 59V47.97h1.26v4.38h.117c.396-.872 1.223-1.385 2.432-1.385 1.67 0 2.724 1.07 2.724 2.923V59h-1.26v-4.805c0-1.399-.63-2.094-1.823-2.094-1.414 0-2.19.893-2.19 2.226V59h-1.26zm8.593 0v-7.896h1.201v1.172h.117c.235-.769 1.143-1.31 2.19-1.31.205 0 .47.014.63.036v1.26c-.102-.03-.556-.074-.805-.074-1.202 0-2.073.806-2.073 1.92V59h-1.26zm5.502 0v-7.896h1.26V59h-1.26zm.63-9.419a.881.881 0 01-.879-.879c0-.483.396-.879.88-.879.483 0 .878.396.878.88a.881.881 0 01-.879.878zm2.61 3.684c0-1.31 1.266-2.3 2.944-2.3 1.655 0 2.805.82 2.973 2.117h-1.245c-.168-.63-.784-1.047-1.736-1.047-.937 0-1.67.476-1.67 1.179 0 .542.44.879 1.37 1.106l1.216.293c1.487.359 2.204 1.003 2.204 2.138 0 1.414-1.37 2.388-3.164 2.388-1.757 0-2.966-.842-3.105-2.153h1.296c.213.666.843 1.091 1.853 1.091 1.062 0 1.824-.505 1.824-1.23 0-.542-.41-.909-1.252-1.114l-1.355-.33c-1.48-.358-2.154-.995-2.154-2.138zM56.951 59V47.97h1.26v4.38h.118c.395-.872 1.223-1.385 2.431-1.385 1.67 0 2.725 1.07 2.725 2.923V59h-1.26v-4.805c0-1.399-.63-2.094-1.824-2.094-1.413 0-2.19.893-2.19 2.226V59h-1.26zm11.025-.967c1.297 0 2.256-.85 2.256-1.977v-.725l-2.124.139c-1.201.08-1.728.498-1.728 1.289 0 .805.68 1.274 1.596 1.274zm-.234 1.106c-1.53 0-2.666-.908-2.666-2.35 0-1.414 1.04-2.227 2.878-2.337l2.278-.14v-.717c0-.974-.608-1.51-1.787-1.51-.945 0-1.604.36-1.78.982h-1.274c.168-1.267 1.413-2.102 3.098-2.102 1.926 0 3.003.99 3.003 2.63V59h-1.201v-1.165h-.118c-.512.843-1.376 1.304-2.431 1.304zm5.656-5.874c0-1.31 1.267-2.3 2.944-2.3 1.655 0 2.805.82 2.974 2.117h-1.245c-.169-.63-.784-1.047-1.736-1.047-.938 0-1.67.476-1.67 1.179 0 .542.44.879 1.37 1.106l1.215.293c1.487.359 2.205 1.003 2.205 2.138 0 1.414-1.37 2.388-3.164 2.388-1.758 0-2.966-.842-3.106-2.153h1.297c.212.666.842 1.091 1.853 1.091 1.062 0 1.824-.505 1.824-1.23 0-.542-.41-.909-1.253-1.114l-1.355-.33c-1.48-.358-2.153-.995-2.153-2.138zM85.187 59v-7.896h1.201v1.172h.117c.235-.769 1.143-1.31 2.19-1.31.205 0 .469.014.63.036v1.26c-.102-.03-.557-.074-.806-.074-1.2 0-2.072.806-2.072 1.92V59h-1.26zm8.402-6.921c-1.26 0-2.138.922-2.233 2.321h4.35c-.03-1.399-.864-2.321-2.117-2.321zm2.08 4.878h1.26c-.366 1.347-1.596 2.182-3.325 2.182-2.19 0-3.56-1.582-3.56-4.08 0-2.482 1.392-4.094 3.56-4.094 2.131 0 3.428 1.516 3.428 3.97v.483h-5.676v.06c.066 1.56.937 2.548 2.277 2.548 1.019 0 1.707-.374 2.037-1.07zm6.008-5.992c1.077 0 2.058.572 2.527 1.458h.117v-1.319h1.216v10.533h-1.274v-3.824h-.118c-.505.865-1.355 1.326-2.468 1.326-2.014 0-3.303-1.597-3.303-4.087 0-2.475 1.304-4.087 3.303-4.087zm.286 7.039c1.443 0 2.336-1.135 2.336-2.952 0-1.809-.9-2.951-2.329-2.951-1.435 0-2.292 1.106-2.292 2.951 0 1.853.85 2.952 2.285 2.952zm12.094-6.9V59h-1.201v-1.238h-.118c-.395.88-1.237 1.377-2.446 1.377-1.772 0-2.695-1.055-2.695-2.922v-5.113h1.26v4.805c0 1.421.527 2.08 1.787 2.08 1.391 0 2.153-.827 2.153-2.212v-4.673h1.26zm5.282.975c-1.26 0-2.138.922-2.234 2.321h4.35c-.028-1.399-.863-2.321-2.116-2.321zm2.08 4.878h1.26c-.366 1.347-1.597 2.182-3.325 2.182-2.19 0-3.56-1.582-3.56-4.08 0-2.482 1.392-4.094 3.56-4.094 2.131 0 3.428 1.516 3.428 3.97v.483h-5.677v.06c.066 1.56.938 2.548 2.278 2.548 1.018 0 1.707-.374 2.036-1.07zm2.917-3.692c0-1.31 1.267-2.3 2.944-2.3 1.656 0 2.806.82 2.974 2.117h-1.245c-.169-.63-.784-1.047-1.736-1.047-.937 0-1.67.476-1.67 1.179 0 .542.44.879 1.37 1.106l1.216.293c1.486.359 2.204 1.003 2.204 2.138 0 1.414-1.37 2.388-3.164 2.388-1.758 0-2.966-.842-3.105-2.153h1.296c.212.666.842 1.091 1.853 1.091 1.062 0 1.824-.505 1.824-1.23 0-.542-.41-.909-1.253-1.114l-1.355-.33c-1.48-.358-2.153-.995-2.153-2.138zm8.249-4.204h1.26v2.043h1.757v1.055h-1.757v4.468c0 .93.351 1.326 1.171 1.326.227 0 .352-.008.586-.03v1.062a4.22 4.22 0 01-.74.074c-1.625 0-2.277-.601-2.277-2.11v-4.79h-1.275v-1.055h1.275v-2.043zm7.721 3.018c-1.26 0-2.138.922-2.234 2.321h4.35c-.028-1.399-.863-2.321-2.116-2.321zm2.08 4.878h1.26c-.366 1.347-1.597 2.182-3.325 2.182-2.19 0-3.56-1.582-3.56-4.08 0-2.482 1.392-4.094 3.56-4.094 2.131 0 3.428 1.516 3.428 3.97v.483h-5.677v.06c.066 1.56.938 2.548 2.278 2.548 1.018 0 1.707-.374 2.036-1.07zm6.023 2.182c-2.022 0-3.318-1.604-3.318-4.087 0-2.475 1.31-4.087 3.318-4.087 1.098 0 2.028.52 2.475 1.385h.11v-4.38h1.26V59h-1.201v-1.26h-.118c-.498.88-1.435 1.4-2.526 1.4zm.292-7.038c-1.435 0-2.307 1.113-2.307 2.951 0 1.846.865 2.952 2.307 2.952 1.436 0 2.322-1.128 2.322-2.952 0-1.809-.893-2.951-2.322-2.951zm10.426 9.755a3.73 3.73 0 01-.564-.044v-1.076c.154.03.352.036.528.036.725 0 1.12-.344 1.45-1.296l.146-.469-2.922-7.903h1.362l2.168 6.497h.117l2.161-6.497h1.34l-3.083 8.38c-.674 1.83-1.304 2.372-2.703 2.372zm10.183-2.717c-2.249 0-3.64-1.553-3.64-4.087 0-2.541 1.391-4.087 3.64-4.087 2.248 0 3.64 1.546 3.64 4.087 0 2.534-1.392 4.087-3.64 4.087zm0-1.135c1.494 0 2.336-1.084 2.336-2.952 0-1.875-.842-2.951-2.336-2.951-1.495 0-2.337 1.076-2.337 2.951 0 1.868.842 2.952 2.337 2.952zm11.764-6.9V59h-1.201v-1.238h-.117c-.396.88-1.238 1.377-2.447 1.377-1.772 0-2.695-1.055-2.695-2.922v-5.113h1.26v4.805c0 1.421.527 2.08 1.787 2.08 1.392 0 2.153-.827 2.153-2.212v-4.673h1.26zM183.207 59v-7.896h1.201v1.172h.117c.235-.769 1.143-1.31 2.19-1.31.205 0 .47.014.63.036v1.26c-.102-.03-.556-.074-.805-.074-1.202 0-2.073.806-2.073 1.92V59h-1.26zm11.898-.967c1.296 0 2.256-.85 2.256-1.977v-.725l-2.124.139c-1.201.08-1.729.498-1.729 1.289 0 .805.681 1.274 1.597 1.274zm-.234 1.106c-1.531 0-2.666-.908-2.666-2.35 0-1.414 1.04-2.227 2.878-2.337l2.278-.14v-.717c0-.974-.608-1.51-1.787-1.51-.945 0-1.604.36-1.78.982h-1.274c.168-1.267 1.413-2.102 3.098-2.102 1.926 0 3.003.99 3.003 2.63V59h-1.202v-1.165h-.117c-.512.843-1.377 1.304-2.431 1.304zm9.684-8.174c2.014 0 3.318 1.604 3.318 4.087 0 2.469-1.311 4.087-3.318 4.087-1.128 0-2.036-.49-2.468-1.326h-.118v3.824h-1.26V51.104h1.202v1.319h.117c.505-.908 1.45-1.458 2.527-1.458zm-.3 7.039c1.45 0 2.314-1.106 2.314-2.952 0-1.845-.864-2.951-2.307-2.951-1.428 0-2.33 1.135-2.33 2.951 0 1.81.902 2.952 2.323 2.952zm9.2-7.039c2.015 0 3.318 1.604 3.318 4.087 0 2.469-1.31 4.087-3.317 4.087-1.128 0-2.037-.49-2.469-1.326h-.117v3.824h-1.26V51.104h1.202v1.319h.117c.505-.908 1.45-1.458 2.527-1.458zm-.3 7.039c1.45 0 2.315-1.106 2.315-2.952 0-1.845-.865-2.951-2.307-2.951-1.429 0-2.33 1.135-2.33 2.951 0 1.81.901 2.952 2.322 2.952zm5.356.996v-7.896h1.201v1.172h.117c.235-.769 1.143-1.31 2.19-1.31.205 0 .469.014.63.036v1.26c-.102-.03-.556-.074-.806-.074-1.2 0-2.072.806-2.072 1.92V59h-1.26zm8.498.14c-2.249 0-3.64-1.554-3.64-4.088 0-2.541 1.391-4.087 3.64-4.087 2.248 0 3.64 1.546 3.64 4.087 0 2.534-1.392 4.087-3.64 4.087zm0-1.136c1.494 0 2.336-1.084 2.336-2.952 0-1.875-.842-2.951-2.336-2.951-1.494 0-2.337 1.076-2.337 2.951 0 1.868.843 2.952 2.337 2.952zm11.53-6.9L235.616 59h-1.289l-2.922-7.896h1.348l2.16 6.504h.117l2.161-6.504h1.348zm3.583 6.93c1.296 0 2.256-.85 2.256-1.978v-.725l-2.124.139c-1.201.08-1.729.498-1.729 1.289 0 .805.681 1.274 1.597 1.274zm-.234 1.105c-1.531 0-2.666-.908-2.666-2.35 0-1.414 1.04-2.227 2.878-2.337l2.278-.14v-.717c0-.974-.608-1.51-1.787-1.51-.945 0-1.604.36-1.78.982h-1.274c.168-1.267 1.413-2.102 3.098-2.102 1.926 0 3.003.99 3.003 2.63V59h-1.202v-1.165h-.117c-.512.843-1.377 1.304-2.431 1.304zM247.8 59V47.97h1.26V59h-1.26zm12.213-3.655h-4.805v-1.194h4.805v1.194zM18.666 69.603v4.043h2.6c1.355 0 2.124-.725 2.124-2.021 0-1.268-.82-2.022-2.182-2.022h-2.542zm0 5.215V79h-1.318V68.431h4.035c2.036 0 3.37 1.245 3.37 3.15 0 1.472-.799 2.614-2.125 3.032L25.075 79h-1.546l-2.263-4.182h-2.6zm11.01-2.74c-1.26 0-2.139.923-2.234 2.322h4.35c-.029-1.399-.864-2.321-2.116-2.321zm2.08 4.879h1.26c-.366 1.347-1.597 2.182-3.325 2.182-2.19 0-3.56-1.582-3.56-4.08 0-2.482 1.392-4.094 3.56-4.094 2.131 0 3.427 1.516 3.427 3.97v.483h-5.676v.06c.066 1.56.938 2.548 2.278 2.548 1.018 0 1.707-.374 2.036-1.07zm9.399-5.853L38.232 79h-1.289l-2.922-7.896h1.348l2.16 6.504h.117l2.161-6.504h1.348zM42.629 79v-7.896h1.26V79h-1.26zm.63-9.419a.881.881 0 01-.88-.879c0-.483.396-.879.88-.879.483 0 .878.396.878.88a.881.881 0 01-.878.878zM49.2 72.08c-1.26 0-2.139.922-2.234 2.321h4.35c-.028-1.399-.863-2.321-2.116-2.321zm2.08 4.878h1.26c-.366 1.347-1.597 2.182-3.325 2.182-2.19 0-3.56-1.582-3.56-4.08 0-2.482 1.392-4.094 3.56-4.094 2.131 0 3.428 1.516 3.428 3.97v.483h-5.677v.06c.066 1.56.938 2.548 2.278 2.548 1.018 0 1.707-.374 2.036-1.07zm13.032-5.853L62.1 79h-1.282l-1.765-6.108h-.117L57.178 79h-1.274l-2.212-7.896h1.274l1.553 6.314h.117l1.765-6.314h1.209l1.765 6.314h.117l1.553-6.314h1.267zM69.75 79v-7.896h1.2v1.246h.118c.396-.872 1.165-1.385 2.373-1.385 1.773 0 2.761 1.048 2.761 2.923V79h-1.26v-4.805c0-1.42-.6-2.094-1.86-2.094-1.26 0-2.073.842-2.073 2.226V79h-1.26zm11.757.14c-2.249 0-3.64-1.554-3.64-4.088 0-2.541 1.391-4.087 3.64-4.087 2.248 0 3.64 1.546 3.64 4.087 0 2.534-1.392 4.087-3.64 4.087zm0-1.136c1.494 0 2.336-1.084 2.336-2.952 0-1.875-.842-2.951-2.336-2.951-1.494 0-2.337 1.076-2.337 2.951 0 1.868.843 2.952 2.337 2.952zm15.016-6.9L94.311 79H93.03l-1.765-6.108h-.117L89.39 79h-1.274l-2.212-7.896h1.274l1.553 6.314h.117l1.765-6.314h1.209l1.765 6.314h.117l1.553-6.314h1.267zm5.577 6.16l5.56-2.358v-.066l-5.56-2.44v-1.325l7.075 3.194v1.113L102.1 78.59v-1.326zm9.487 0l5.559-2.358v-.066l-5.56-2.44v-1.325l7.076 3.194v1.113l-7.075 3.208v-1.326z"/></g><g fill-rule="nonzero" mask="url(#t)"><use fill="#000" fill-opacity=".05" xlink:href="#u" style="mix-blend-mode:hard-light"/><use fill="#3F3F3F" xlink:href="#u" style="mix-blend-mode:color-burn"/></g><g fill-rule="nonzero" mask="url(#t)"><use fill="#141414" fill-opacity=".4" xlink:href="#v"/><use fill="#000" fill-opacity=".05" xlink:href="#v" style="mix-blend-mode:hard-light"/><use fill="#3F3F3F" xlink:href="#v" style="mix-blend-mode:color-burn"/></g><g mask="url(#t)"><g transform="translate(12 12)"><mask id="x" fill="#fff"><use xlink:href="#w"/></mask><path fill="url(#i)" mask="url(#x)" d="M0 0h20v20H0z"/><path fill="#FFF" fill-rule="nonzero" mask="url(#x)" d="M9.257 5.684l-2.073.072-.566 3.161H5.4l.246-4.191h9.353l.174 4.191h-1.146l-.565-3.161-2.044-.072v8.801l2.029.145v.87H7.401v-.87l1.856-.145z"/></g></g></g><g transform="translate(16 279)"><mask id="A" fill="#fff"><use xlink:href="#y"/></mask><use fill="#000" filter="url(#z)" xlink:href="#y"/><use fill="#FFF" stroke="#8D8D8D" stroke-opacity=".24" xlink:href="#y"/><text fill="#384254" font-family="AppleColorEmoji, Apple Color Emoji" font-size="13" letter-spacing="-.208" mask="url(#A)"><tspan x="35" y="92"></tspan></text><g fill-rule="nonzero" mask="url(#A)"><path fill="#384254" d="M36.298 72h-1.13v-9.16h1.11l4.971 7.129h.102V62.84h1.13V72H41.37l-4.97-7.103h-.102V72zm8.196 0v-6.843h1.092V72h-1.092zm.546-8.163a.764.764 0 01-.762-.762c0-.419.343-.762.762-.762s.762.343.762.762a.764.764 0 01-.762.762zm8.082 3.415h-1.104c-.178-.68-.781-1.231-1.765-1.231-1.232 0-2.006.983-2.006 2.532 0 1.58.787 2.584 2.006 2.584.92 0 1.561-.426 1.765-1.2h1.104c-.197 1.257-1.219 2.184-2.863 2.184-1.917 0-3.142-1.39-3.142-3.568 0-2.133 1.219-3.516 3.136-3.516 1.663 0 2.679.996 2.87 2.215zm4.134-1.25c-1.092 0-1.854.8-1.936 2.012h3.77C59.065 66.8 58.341 66 57.256 66zm1.803 4.227h1.091c-.317 1.168-1.383 1.892-2.881 1.892-1.898 0-3.085-1.371-3.085-3.536 0-2.152 1.206-3.548 3.085-3.548 1.847 0 2.97 1.314 2.97 3.44v.419h-4.92v.05c.058 1.353.813 2.21 1.975 2.21.882 0 1.479-.324 1.765-.927zm8.96 1.892c-1.95 0-3.156-1.346-3.156-3.542 0-2.203 1.206-3.542 3.155-3.542 1.949 0 3.155 1.339 3.155 3.542 0 2.196-1.206 3.542-3.155 3.542zm0-.984c1.294 0 2.024-.94 2.024-2.558 0-1.625-.73-2.558-2.025-2.558s-2.025.933-2.025 2.558c0 1.618.73 2.558 2.025 2.558zm4.66.863v-6.843h1.04v1.08h.102c.343-.756 1.01-1.2 2.057-1.2 1.536 0 2.393.907 2.393 2.532V72h-1.092v-4.164c0-1.232-.52-1.815-1.612-1.815s-1.796.73-1.796 1.93V72h-1.092zm10.107-5.999c-1.092 0-1.854.8-1.936 2.013h3.77C84.595 66.8 83.871 66 82.786 66zm1.802 4.228h1.092c-.317 1.168-1.384 1.892-2.882 1.892-1.898 0-3.085-1.371-3.085-3.536 0-2.152 1.206-3.548 3.085-3.548 1.848 0 2.971 1.314 2.971 3.44v.419h-4.92v.05c.058 1.353.813 2.21 1.975 2.21.882 0 1.479-.324 1.764-.927zm11.962.743V72h-5.674v-9.16h5.674v1.029h-4.532v2.939h4.298v1.015h-4.298v3.149h4.532zM98.272 72v-6.843h1.041v1.08h.102c.31-.762.996-1.2 1.91-1.2.927 0 1.574.488 1.892 1.2h.101c.369-.724 1.15-1.2 2.095-1.2 1.397 0 2.177.8 2.177 2.234V72h-1.09v-4.475c0-1.01-.476-1.504-1.441-1.504-.952 0-1.587.71-1.587 1.58V72h-1.092v-4.646c0-.813-.565-1.333-1.428-1.333-.895 0-1.587.774-1.587 1.739V72h-1.092zm11.104 0v-6.843h1.04v1.08h.102c.311-.762.997-1.2 1.91-1.2.928 0 1.575.488 1.892 1.2h.102c.368-.724 1.149-1.2 2.095-1.2 1.396 0 2.177.8 2.177 2.234V72h-1.092v-4.475c0-1.01-.476-1.504-1.44-1.504-.953 0-1.588.71-1.588 1.58V72h-1.091v-4.646c0-.813-.565-1.333-1.429-1.333-.895 0-1.587.774-1.587 1.739V72h-1.091zm13.21-.838c1.124 0 1.956-.736 1.956-1.714v-.628l-1.841.12c-1.041.07-1.498.432-1.498 1.118 0 .698.59 1.104 1.384 1.104zm-.203.959c-1.326 0-2.31-.788-2.31-2.038 0-1.225.901-1.93 2.494-2.025l1.975-.12v-.623c0-.844-.527-1.307-1.55-1.307-.818 0-1.39.31-1.542.85h-1.104c.146-1.098 1.225-1.821 2.685-1.821 1.67 0 2.602.857 2.602 2.278V72h-1.04v-1.01h-.102c-.445.73-1.194 1.13-2.108 1.13zm5.962-.058a.832.832 0 01-.825-.825c0-.457.375-.825.825-.825a.824.824 0 110 1.65zm10.02-.063h-1.143v-3.942l-3.25-5.218h1.302l2.469 4.07h.101l2.47-4.07h1.3l-3.25 5.218V72zm6.247.12c-1.948 0-3.154-1.345-3.154-3.541 0-2.203 1.206-3.542 3.154-3.542 1.95 0 3.155 1.339 3.155 3.542 0 2.196-1.206 3.542-3.155 3.542zm0-.983c1.295 0 2.025-.94 2.025-2.558 0-1.625-.73-2.558-2.025-2.558-1.294 0-2.024.933-2.024 2.558 0 1.618.73 2.558 2.024 2.558zm10.196-5.98V72h-1.04v-1.073h-.102c-.343.762-1.073 1.194-2.12 1.194-1.537 0-2.336-.914-2.336-2.533v-4.43h1.091v4.163c0 1.232.457 1.803 1.55 1.803 1.205 0 1.865-.717 1.865-1.917v-4.05h1.092zm5.151 1.873c0-1.136 1.098-1.993 2.552-1.993 1.434 0 2.431.71 2.577 1.834h-1.08c-.145-.546-.678-.908-1.503-.908-.813 0-1.448.413-1.448 1.022 0 .47.381.762 1.187.959l1.054.254c1.289.31 1.91.87 1.91 1.853 0 1.225-1.186 2.07-2.742 2.07-1.523 0-2.57-.73-2.69-1.867h1.123c.184.578.73.946 1.606.946.92 0 1.58-.438 1.58-1.066 0-.47-.355-.787-1.085-.965l-1.175-.286c-1.282-.31-1.866-.863-1.866-1.853zm8.863 4.132c1.123 0 1.955-.736 1.955-1.714v-.628l-1.84.12c-1.042.07-1.499.432-1.499 1.118 0 .698.59 1.104 1.384 1.104zm-.203.959c-1.327 0-2.31-.788-2.31-2.038 0-1.225.9-1.93 2.494-2.025l1.974-.12v-.623c0-.844-.527-1.307-1.549-1.307-.819 0-1.39.31-1.542.85h-1.105c.146-1.098 1.225-1.821 2.685-1.821 1.67 0 2.603.857 2.603 2.278V72h-1.041v-1.01h-.102c-.444.73-1.193 1.13-2.107 1.13zm10.392-6.964L176.48 72h-1.118l-2.532-6.843h1.168l1.872 5.637h.102l1.872-5.637h1.168zm3.728.844c-1.092 0-1.854.8-1.936 2.013h3.77C184.548 66.8 183.824 66 182.74 66zm1.803 4.228h1.091c-.317 1.168-1.383 1.892-2.881 1.892-1.898 0-3.085-1.371-3.085-3.536 0-2.152 1.206-3.548 3.085-3.548 1.847 0 2.97 1.314 2.97 3.44v.419h-4.92v.05c.058 1.353.813 2.21 1.975 2.21.882 0 1.479-.324 1.765-.927zm5.219 1.892c-1.752 0-2.876-1.39-2.876-3.542 0-2.146 1.137-3.542 2.876-3.542.952 0 1.758.45 2.145 1.2h.096V62.44h1.091V72h-1.04v-1.092h-.102c-.432.762-1.244 1.213-2.19 1.213zm.254-6.1c-1.244 0-2 .964-2 2.558 0 1.6.75 2.558 2 2.558 1.244 0 2.012-.978 2.012-2.558 0-1.568-.774-2.558-2.012-2.558zm12.032 1.96v2.851c1.18-.089 1.637-.666 1.637-1.396 0-.699-.342-1.143-1.6-1.448l-.037-.006zm-.762-1.262V64.02c-.965.127-1.473.71-1.473 1.327 0 .622.381 1.098 1.473 1.37zm.762.184l.196.044c1.632.394 2.546 1.067 2.546 2.4 0 1.53-1.244 2.361-2.742 2.475v1.098h-.762v-1.104c-1.51-.133-2.761-1.028-2.806-2.507h1.105c.114.793.603 1.396 1.7 1.517v-3.028l-.145-.038c-1.58-.381-2.431-1.086-2.431-2.336 0-1.365 1.072-2.266 2.577-2.4V61.92h.762v1.098c1.466.133 2.608 1.06 2.653 2.463h-1.105c-.082-.857-.691-1.358-1.548-1.466v2.888zm4.578-1.48c0-1.63 1.257-2.798 3.009-2.798 1.6 0 2.824 1.085 2.824 2.57 0 1.054-.457 1.816-2.107 3.523l-2.082 2.152v.102h4.342V72h-5.93v-.787l3.098-3.352c1.168-1.263 1.511-1.739 1.511-2.545 0-.971-.654-1.695-1.733-1.695-1.098 0-1.828.717-1.828 1.803h-1.104zM218.319 72v-1.898h-4.463v-1.041a142.37 142.37 0 013.923-6.22h1.657v6.24h1.301v1.021h-1.301V72h-1.117zm-3.295-2.99v.076h3.3V63.9h-.075a116.171 116.171 0 00-3.225 5.11zm10.348 3.206c-2.063 0-3.25-1.752-3.25-4.799 0-3.021 1.2-4.792 3.25-4.792 2.038 0 3.238 1.777 3.238 4.811 0 3.04-1.181 4.78-3.238 4.78zm0-.997c1.352 0 2.089-1.345 2.089-3.802 0-2.431-.75-3.79-2.089-3.79-1.34 0-2.1 1.372-2.1 3.79 0 2.45.748 3.802 2.1 3.802zm5.302.844a.832.832 0 01-.825-.825c0-.457.374-.825.825-.825.457 0 .825.368.825.825a.827.827 0 01-.825.825zm5.162.146c-1.555 0-2.717-.9-3.002-2.342h1.174c.241.825.94 1.327 1.84 1.327 1.493 0 2.337-1.32 2.4-3.758h-.101c-.451.889-1.346 1.41-2.438 1.41-1.745 0-3.009-1.29-3.009-3.067 0-1.84 1.333-3.154 3.212-3.154 1.974 0 3.447 1.517 3.447 4.633 0 3.149-1.282 4.951-3.523 4.951zm.076-4.354c1.213 0 2.082-.863 2.082-2.076 0-1.225-.895-2.152-2.069-2.152s-2.07.915-2.07 2.114c0 1.25.845 2.114 2.057 2.114zm8.12 4.36c-1.732 0-2.977-1.066-3.078-2.633h1.123c.102.977.89 1.63 1.968 1.63 1.2 0 1.993-.862 1.993-2.145 0-1.237-.793-2.069-1.948-2.069-.87 0-1.556.4-1.917 1.08H241.1l.527-5.238h5.084v1.022h-4.19l-.285 2.984h.102c.444-.553 1.123-.832 2.037-.832 1.536 0 2.806 1.206 2.806 3.022 0 1.885-1.276 3.18-3.149 3.18zm8.712-8.829h1.092v1.771h1.524v.914h-1.524v3.872c0 .807.305 1.15 1.016 1.15.197 0 .305-.007.508-.026v.92a3.657 3.657 0 01-.641.064c-1.41 0-1.975-.52-1.975-1.828V66.07h-1.104v-.914h1.104v-1.77zM256.865 72v-9.56h1.092v3.796h.102c.343-.755 1.06-1.2 2.107-1.2 1.448 0 2.362.927 2.362 2.533V72h-1.092v-4.164c0-1.212-.546-1.815-1.58-1.815-1.226 0-1.899.774-1.899 1.93V72h-1.092zm7.473 0v-6.843h1.092V72h-1.092zm.546-8.163a.764.764 0 01-.762-.762c0-.419.343-.762.762-.762s.762.343.762.762a.764.764 0 01-.762.762zm2.261 3.193c0-1.136 1.098-1.993 2.552-1.993 1.435 0 2.431.71 2.577 1.834h-1.079c-.146-.546-.68-.908-1.504-.908-.813 0-1.448.413-1.448 1.022 0 .47.381.762 1.187.959l1.054.254c1.289.31 1.91.87 1.91 1.853 0 1.225-1.186 2.07-2.741 2.07-1.524 0-2.571-.73-2.692-1.867h1.124c.184.578.73.946 1.606.946.92 0 1.58-.438 1.58-1.066 0-.47-.355-.787-1.085-.965l-1.174-.286c-1.283-.31-1.867-.863-1.867-1.853zm18.824-1.873L284.052 72h-1.11l-1.53-5.294h-.102L279.786 72h-1.104l-1.917-6.843h1.104l1.346 5.472h.102l1.53-5.472h1.047l1.53 5.472h.101l1.346-5.472h1.098zm3.728.844c-1.092 0-1.854.8-1.936 2.013h3.77c-.025-1.213-.749-2.013-1.834-2.013zm1.802 4.228h1.092c-.317 1.168-1.384 1.892-2.882 1.892-1.898 0-3.085-1.371-3.085-3.536 0-2.152 1.206-3.548 3.085-3.548 1.847 0 2.971 1.314 2.971 3.44v.419h-4.92v.05c.058 1.353.813 2.21 1.975 2.21.882 0 1.479-.324 1.764-.927zm5.416-4.228c-1.091 0-1.853.8-1.936 2.013h3.77c-.025-1.213-.748-2.013-1.834-2.013zm1.803 4.228h1.092c-.318 1.168-1.384 1.892-2.882 1.892-1.898 0-3.085-1.371-3.085-3.536 0-2.152 1.206-3.548 3.085-3.548 1.847 0 2.97 1.314 2.97 3.44v.419h-4.919v.05c.057 1.353.813 2.21 1.974 2.21.883 0 1.48-.324 1.765-.927zm3.943-2.082l2.971-2.99h1.34l-2.946 2.933 3.142 3.91h-1.39l-2.564-3.206-.654.61V72h-1.092v-9.56h1.092v5.707h.101zM56.551 80.84v5.935c0 1.384.908 2.387 2.494 2.387 1.587 0 2.495-1.003 2.495-2.387V80.84h1.143v6.012c0 1.955-1.365 3.364-3.638 3.364-2.272 0-3.637-1.41-3.637-3.364V80.84h1.143zm11.44 2.197c1.745 0 2.875 1.39 2.875 3.542 0 2.139-1.136 3.542-2.875 3.542-.978 0-1.765-.426-2.14-1.15h-.101v3.314h-1.092v-9.128H65.7V84.3h.102c.438-.787 1.257-1.263 2.19-1.263zm-.26 6.1c1.256 0 2.005-.959 2.005-2.558 0-1.6-.749-2.558-2-2.558-1.237 0-2.018.983-2.018 2.558 0 1.567.781 2.558 2.012 2.558zm8.686 3.339c-.146 0-.336-.013-.489-.038v-.934c.134.026.305.032.457.032.629 0 .971-.298 1.257-1.123l.127-.407-2.533-6.849h1.181l1.879 5.63h.102l1.872-5.63h1.162l-2.673 7.262c-.584 1.587-1.13 2.057-2.342 2.057zm8.825-2.355c-1.949 0-3.155-1.346-3.155-3.542 0-2.203 1.206-3.542 3.155-3.542 1.948 0 3.155 1.339 3.155 3.542 0 2.196-1.207 3.542-3.155 3.542zm0-.984c1.295 0 2.025-.94 2.025-2.558 0-1.625-.73-2.558-2.025-2.558s-2.025.933-2.025 2.558c0 1.618.73 2.558 2.025 2.558zm10.196-5.98V90h-1.041v-1.073h-.102c-.343.762-1.073 1.194-2.12 1.194-1.536 0-2.336-.914-2.336-2.533v-4.43h1.092v4.163c0 1.232.457 1.803 1.549 1.803 1.206 0 1.866-.717 1.866-1.917v-4.05h1.092zM97.286 90v-6.843h1.041v1.016h.102c.203-.667.99-1.136 1.898-1.136.177 0 .406.012.546.031v1.092a4.384 4.384 0 00-.699-.063c-1.04 0-1.796.698-1.796 1.663V90h-1.092zm8.046-4.97c0-1.136 1.098-1.993 2.551-1.993 1.435 0 2.432.71 2.578 1.834h-1.08c-.146-.546-.679-.908-1.504-.908-.812 0-1.447.413-1.447 1.022 0 .47.38.762 1.187.959l1.053.254c1.29.31 1.911.87 1.911 1.853 0 1.225-1.187 2.07-2.742 2.07-1.523 0-2.57-.73-2.691-1.867h1.123c.184.578.73.946 1.606.946.92 0 1.58-.438 1.58-1.066 0-.47-.355-.787-1.085-.965l-1.174-.286c-1.282-.31-1.866-.863-1.866-1.853zm8.862 4.132c1.124 0 1.956-.736 1.956-1.714v-.628l-1.841.12c-1.041.07-1.498.432-1.498 1.118 0 .698.59 1.104 1.383 1.104zm-.203.959c-1.326 0-2.31-.788-2.31-2.038 0-1.225.901-1.93 2.494-2.025l1.975-.12v-.623c0-.844-.527-1.307-1.55-1.307-.818 0-1.39.31-1.542.85h-1.104c.146-1.098 1.225-1.821 2.685-1.821 1.67 0 2.602.857 2.602 2.278V90h-1.04v-1.01h-.102c-.445.73-1.194 1.13-2.108 1.13zm10.393-6.964L121.85 90h-1.117l-2.533-6.843h1.168l1.873 5.637h.101l1.873-5.637h1.168zM125.66 90v-6.843h1.092V90h-1.092zm.546-8.163a.764.764 0 01-.762-.762c0-.419.343-.762.762-.762.42 0 .762.343.762.762a.764.764 0 01-.762.762zm2.42 8.163v-6.843h1.041v1.08h.102c.342-.756 1.009-1.2 2.056-1.2 1.536 0 2.393.907 2.393 2.532V90h-1.091v-4.164c0-1.232-.521-1.815-1.613-1.815s-1.796.73-1.796 1.93V90h-1.092zm10.145-1.066c1.27 0 2.031-.965 2.031-2.457s-.768-2.456-2.03-2.456c-1.27 0-1.981.964-1.981 2.456s.71 2.457 1.98 2.457zm.05 3.694c-1.65 0-2.703-.743-2.868-1.873h1.155c.12.559.73.92 1.714.92 1.225 0 1.955-.602 1.955-1.612v-1.345h-.102c-.431.755-1.206 1.18-2.145 1.18-1.771 0-2.87-1.37-2.87-3.42 0-2.051 1.112-3.441 2.87-3.441.958 0 1.803.47 2.196 1.206h.102v-1.086h1.04v6.964c0 1.53-1.18 2.507-3.046 2.507zM147.18 90v-6.843h1.041v1.08h.102c.343-.756 1.01-1.2 2.057-1.2 1.536 0 2.393.907 2.393 2.532V90h-1.092v-4.164c0-1.232-.52-1.815-1.612-1.815s-1.797.73-1.797 1.93V90h-1.092zm10.107-5.999c-1.092 0-1.853.8-1.936 2.013h3.77c-.025-1.213-.748-2.013-1.834-2.013zm1.803 4.228h1.092c-.318 1.168-1.384 1.892-2.882 1.892-1.898 0-3.085-1.371-3.085-3.536 0-2.152 1.206-3.548 3.085-3.548 1.847 0 2.97 1.314 2.97 3.44v.419h-4.919v.05c.057 1.353.813 2.21 1.974 2.21.883 0 1.48-.324 1.765-.927zm4.851-.793h-.101l-1.625 2.583h-1.238l2.342-3.421-2.368-3.422h1.302l1.625 2.546h.101l1.606-2.546h1.238l-2.323 3.377 2.355 3.466h-1.295l-1.619-2.583zm4.648-6.05h1.092v1.771h1.523v.914h-1.523v3.872c0 .807.305 1.15 1.015 1.15.197 0 .305-.007.508-.026v.92a3.657 3.657 0 01-.64.064c-1.41 0-1.975-.52-1.975-1.828V84.07h-1.104v-.914h1.104v-1.77zm16.126 1.771L182.797 90h-1.11l-1.53-5.294h-.102L178.53 90h-1.104l-1.917-6.843h1.104l1.346 5.472h.102l1.53-5.472h1.047l1.53 5.472h.101l1.346-5.472h1.098zm3.728.844c-1.092 0-1.854.8-1.936 2.013h3.77c-.025-1.213-.749-2.013-1.834-2.013zm1.802 4.228h1.092c-.317 1.168-1.384 1.892-2.882 1.892-1.898 0-3.085-1.371-3.085-3.536 0-2.152 1.206-3.548 3.085-3.548 1.847 0 2.971 1.314 2.971 3.44v.419h-4.92v.05c.058 1.353.813 2.21 1.975 2.21.882 0 1.479-.324 1.764-.927zm5.416-4.228c-1.091 0-1.853.8-1.936 2.013h3.77C197.47 84.8 196.747 84 195.66 84zm1.803 4.228h1.092c-.318 1.168-1.384 1.892-2.882 1.892-1.898 0-3.085-1.371-3.085-3.536 0-2.152 1.206-3.548 3.085-3.548 1.847 0 2.97 1.314 2.97 3.44v.419h-4.919v.05c.057 1.353.813 2.21 1.974 2.21.883 0 1.48-.324 1.765-.927zm3.943-2.082l2.971-2.99h1.34l-2.946 2.933 3.142 3.91h-1.39l-2.564-3.206-.654.61V90h-1.092v-9.56h1.092v5.707h.101zm17.663-2.99L217.152 90h-1.111l-1.53-5.294h-.102L212.886 90h-1.105l-1.917-6.843h1.105l1.346 5.472h.101l1.53-5.472h1.047l1.53 5.472h.102l1.345-5.472h1.099zM220.346 90v-6.843h1.092V90h-1.092zm.546-8.163a.764.764 0 01-.762-.762c0-.419.343-.762.762-.762s.762.343.762.762a.764.764 0 01-.762.762zm2.877-.45h1.092v1.77h1.523v.914h-1.523v3.872c0 .807.304 1.15 1.015 1.15.197 0 .305-.007.508-.026v.92a3.657 3.657 0 01-.641.064c-1.41 0-1.974-.52-1.974-1.828V84.07h-1.105v-.914h1.105v-1.77zm4.12 8.613v-9.56h1.093v3.796h.101c.343-.755 1.06-1.2 2.108-1.2 1.447 0 2.361.927 2.361 2.533V90h-1.092v-4.164c0-1.212-.546-1.815-1.58-1.815-1.225 0-1.898.774-1.898 1.93V90h-1.092zm11.366-8.614h1.092v1.771h1.523v.914h-1.523v3.872c0 .807.305 1.15 1.016 1.15.196 0 .304-.007.507-.026v.92a3.657 3.657 0 01-.64.064c-1.41 0-1.975-.52-1.975-1.828V84.07h-1.104v-.914h1.104v-1.77zM243.376 90v-9.56h1.092v3.796h.102c.342-.755 1.06-1.2 2.107-1.2 1.447 0 2.361.927 2.361 2.533V90h-1.091v-4.164c0-1.212-.546-1.815-1.581-1.815-1.225 0-1.898.774-1.898 1.93V90h-1.092zm10.177-5.999c-1.092 0-1.854.8-1.936 2.013h3.77c-.025-1.213-.749-2.013-1.834-2.013zm1.803 4.228h1.092c-.318 1.168-1.384 1.892-2.882 1.892-1.898 0-3.085-1.371-3.085-3.536 0-2.152 1.206-3.548 3.085-3.548 1.847 0 2.97 1.314 2.97 3.44v.419h-4.919v.05c.057 1.353.812 2.21 1.974 2.21.882 0 1.48-.324 1.765-.927zm2.528-3.2c0-1.135 1.098-1.992 2.551-1.992 1.435 0 2.431.71 2.577 1.834h-1.079c-.146-.546-.679-.908-1.504-.908-.813 0-1.447.413-1.447 1.022 0 .47.38.762 1.187.959l1.053.254c1.289.31 1.911.87 1.911 1.853 0 1.225-1.187 2.07-2.742 2.07-1.524 0-2.57-.73-2.692-1.867h1.124c.184.578.73.946 1.606.946.92 0 1.58-.438 1.58-1.066 0-.47-.355-.787-1.085-.965l-1.174-.286c-1.282-.31-1.866-.863-1.866-1.853zm9.484-1.028c-1.091 0-1.853.8-1.936 2.013h3.77c-.024-1.213-.748-2.013-1.834-2.013zm1.803 4.228h1.092c-.317 1.168-1.384 1.892-2.882 1.892-1.898 0-3.085-1.371-3.085-3.536 0-2.152 1.206-3.548 3.085-3.548 1.847 0 2.97 1.314 2.97 3.44v.419h-4.919v.05c.058 1.353.813 2.21 1.975 2.21.882 0 1.479-.324 1.764-.927zm6.605-6.843h1.091v1.771h1.524v.914h-1.524v3.872c0 .807.305 1.15 1.016 1.15.197 0 .305-.007.508-.026v.92a3.657 3.657 0 01-.641.064c-1.41 0-1.974-.52-1.974-1.828V84.07h-1.105v-.914h1.105v-1.77zm4.12 8.614v-9.56h1.093v3.796h.101c.343-.755 1.06-1.2 2.108-1.2 1.447 0 2.36.927 2.36 2.533V90h-1.09v-4.164c0-1.212-.547-1.815-1.581-1.815-1.226 0-1.898.774-1.898 1.93V90h-1.092zm7.448 0v-6.843h1.041v1.016h.102c.203-.667.99-1.136 1.898-1.136.177 0 .406.012.545.031v1.092a4.384 4.384 0 00-.698-.063c-1.04 0-1.796.698-1.796 1.663V90h-1.092zm7.282-5.999c-1.092 0-1.853.8-1.936 2.013h3.77c-.025-1.213-.748-2.013-1.834-2.013zm1.803 4.228h1.092c-.318 1.168-1.384 1.892-2.882 1.892-1.898 0-3.085-1.371-3.085-3.536 0-2.152 1.206-3.548 3.085-3.548 1.847 0 2.97 1.314 2.97 3.44v.419h-4.919v.05c.057 1.353.813 2.21 1.974 2.21.883 0 1.48-.324 1.765-.927zm5.416-4.228c-1.092 0-1.853.8-1.936 2.013h3.77c-.025-1.213-.748-2.013-1.834-2.013zm1.803 4.228h1.092c-.318 1.168-1.384 1.892-2.882 1.892-1.898 0-3.085-1.371-3.085-3.536 0-2.152 1.206-3.548 3.085-3.548 1.847 0 2.97 1.314 2.97 3.44v.419h-4.919v.05c.057 1.353.813 2.21 1.974 2.21.882 0 1.48-.324 1.765-.927z"/><path fill="#000" d="M42.855 48.458c0 2.26-1.549 3.758-3.891 3.758-2.533 0-4.151-1.866-4.151-4.799 0-2.895 1.644-4.792 4.15-4.792 2.032 0 3.505 1.13 3.835 2.945h-1.162c-.393-1.238-1.314-1.892-2.672-1.892-1.816 0-2.977 1.46-2.977 3.739 0 2.31 1.142 3.745 2.983 3.745 1.638 0 2.749-1.047 2.749-2.596v-.222h-2.577V47.34h3.713v1.117zm4.483 3.663c-1.949 0-3.155-1.346-3.155-3.542 0-2.203 1.206-3.542 3.155-3.542 1.949 0 3.155 1.339 3.155 3.542 0 2.196-1.206 3.542-3.155 3.542zm0-.984c1.295 0 2.025-.94 2.025-2.558 0-1.625-.73-2.558-2.025-2.558s-2.025.933-2.025 2.558c0 1.618.73 2.558 2.025 2.558zm7.473.984c-1.95 0-3.155-1.346-3.155-3.542 0-2.203 1.206-3.542 3.155-3.542 1.948 0 3.154 1.339 3.154 3.542 0 2.196-1.206 3.542-3.154 3.542zm0-.984c1.294 0 2.024-.94 2.024-2.558 0-1.625-.73-2.558-2.024-2.558-1.295 0-2.025.933-2.025 2.558 0 1.618.73 2.558 2.025 2.558zm7.193.984c-1.752 0-2.876-1.39-2.876-3.542 0-2.146 1.137-3.542 2.876-3.542.952 0 1.758.45 2.145 1.2h.096V42.44h1.091V52h-1.04v-1.092h-.102c-.432.762-1.244 1.213-2.19 1.213zm.254-6.1c-1.244 0-2 .964-2 2.558 0 1.6.75 2.558 2 2.558 1.244 0 2.012-.978 2.012-2.558 0-1.568-.774-2.558-2.012-2.558zM70.71 52v-6.843h1.04v1.08h.102c.343-.756 1.01-1.2 2.057-1.2 1.536 0 2.393.907 2.393 2.532V52H75.21v-4.164c0-1.232-.52-1.815-1.612-1.815s-1.797.73-1.797 1.93V52H70.71zm10.106-5.999c-1.091 0-1.853.8-1.936 2.013h3.77C82.627 46.8 81.903 46 80.817 46zm1.803 4.228h1.092c-.317 1.168-1.384 1.892-2.882 1.892-1.898 0-3.085-1.371-3.085-3.536 0-2.152 1.206-3.548 3.085-3.548 1.847 0 2.97 1.314 2.97 3.44v.419H78.88v.05c.058 1.353.813 2.21 1.975 2.21.882 0 1.479-.324 1.764-.927zm11.294-5.072L91.996 52h-1.11l-1.53-5.294h-.102L87.731 52h-1.105l-1.917-6.843h1.105l1.345 5.472h.102l1.53-5.472h1.047l1.53 5.472h.101l1.346-5.472h1.098zm.903 1.873c0-1.136 1.098-1.993 2.552-1.993 1.434 0 2.43.71 2.577 1.834h-1.08c-.145-.546-.678-.908-1.504-.908-.812 0-1.447.413-1.447 1.022 0 .47.381.762 1.187.959l1.054.254c1.288.31 1.91.87 1.91 1.853 0 1.225-1.187 2.07-2.742 2.07-1.523 0-2.57-.73-2.691-1.867h1.123c.185.578.73.946 1.606.946.92 0 1.581-.438 1.581-1.066 0-.47-.356-.787-1.085-.965l-1.175-.286c-1.282-.31-1.866-.863-1.866-1.853zm7.11-4.196h1.27l-.108 6.12h-1.053l-.108-6.12zm.642 9.28c-.514 0-.882-.368-.882-.882 0-.52.368-.889.882-.889s.876.368.876.889c0 .514-.362.882-.876.882z"/></g><path fill="#384254" fill-rule="nonzero" d="M300.183 25v-6.843h1.04v1.08h.102c.343-.756 1.01-1.2 2.057-1.2 1.536 0 2.393.907 2.393 2.532V25h-1.092v-4.164c0-1.232-.52-1.815-1.612-1.815s-1.796.73-1.796 1.93V25h-1.092zm10.32.12c-1.95 0-3.156-1.345-3.156-3.541 0-2.203 1.206-3.542 3.155-3.542 1.949 0 3.155 1.339 3.155 3.542 0 2.196-1.206 3.542-3.155 3.542zm0-.983c1.294 0 2.024-.94 2.024-2.558 0-1.625-.73-2.558-2.025-2.558s-2.025.933-2.025 2.558c0 1.618.73 2.558 2.025 2.558zm13.143-5.98L321.73 25h-1.11l-1.53-5.294h-.102L317.464 25h-1.105l-1.917-6.843h1.105l1.345 5.472h.102l1.53-5.472h1.047l1.53 5.472h.102l1.345-5.472h1.098z" mask="url(#A)"/><path fill="#000" fill-rule="nonzero" d="M39.046 28H37.41v-7.744h-2.82V18.84h7.281v1.416h-2.825V28zm6.099-7.801v3.066h1.891c1.041 0 1.638-.559 1.638-1.53 0-.952-.635-1.536-1.676-1.536h-1.853zm0 4.367V28h-1.638v-9.16h3.72c1.923 0 3.13 1.105 3.13 2.863 0 1.206-.636 2.215-1.727 2.609L50.629 28h-1.873l-1.796-3.434h-1.815zm8.745-5.726v5.853c0 1.238.768 2.07 2.126 2.07 1.359 0 2.127-.832 2.127-2.07V18.84h1.638v6.005c0 2-1.448 3.384-3.765 3.384s-3.764-1.384-3.764-3.384V18.84h1.638zm13.995 7.744V28h-5.93v-9.16h5.93v1.416h-4.291v2.431h4.056v1.333h-4.056v2.564h4.29zm4.922-1.072h1.6c.1.819.913 1.345 2.075 1.345 1.08 0 1.86-.552 1.86-1.32 0-.66-.502-1.047-1.676-1.32l-1.187-.273c-1.663-.375-2.444-1.2-2.444-2.565 0-1.663 1.359-2.767 3.409-2.767 1.923 0 3.313 1.104 3.39 2.679h-1.568c-.114-.807-.825-1.314-1.828-1.314-1.054 0-1.752.507-1.752 1.288 0 .616.463.978 1.6 1.238l1.053.241c1.86.42 2.64 1.194 2.64 2.59 0 1.784-1.377 2.895-3.598 2.895-2.102 0-3.492-1.054-3.574-2.717zM85.659 28h-1.638v-7.744h-2.818V18.84h7.28v1.416H85.66V28zm8.066-9.388c2.666 0 4.33 1.847 4.33 4.805 0 2.952-1.658 4.812-4.33 4.812-2.685 0-4.335-1.854-4.335-4.812s1.675-4.805 4.335-4.805zm0 1.453c-1.625 0-2.66 1.302-2.66 3.352 0 2.044 1.01 3.358 2.66 3.358 1.631 0 2.66-1.314 2.66-3.358 0-2.05-1.035-3.352-2.66-3.352zm7.761.134v3.066h1.892c1.041 0 1.638-.559 1.638-1.53 0-.952-.635-1.536-1.676-1.536h-1.854zm0 4.367V28H99.85v-9.16h3.72c1.923 0 3.129 1.105 3.129 2.863 0 1.206-.635 2.215-1.727 2.609l2 3.688h-1.873l-1.796-3.434h-1.816zM112.498 28h-1.638v-3.58l-3.212-5.58h1.796l2.184 3.917h.108l2.177-3.917h1.797l-3.212 5.58V28z" mask="url(#A)"/><circle cx="21" cy="23" r="5" fill="#01B2D0" mask="url(#A)"/></g><path fill="#6FD350" d="M611.308 54.14l12.092 2.256a4 4 0 012.461 6.34l-6.59 8.745a4 4 0 01-6.773-.618l-5.5-11.002a4 4 0 014.31-5.72z" opacity=".2"/><path stroke="#6FD350" stroke-width="2" d="M611.913 48.764a3 3 0 00-3.234 4.29l5.502 11.002a3 3 0 005.079.464l6.59-8.746a3 3 0 00-1.846-4.755l-12.091-2.255z"/><g transform="rotate(-91 342.26 150.698)"><ellipse cx="18.234" cy="13.678" stroke="#FFC111" stroke-width="2" rx="12.091" ry="12.078"/><ellipse cx="13.819" cy="17.585" fill="#FFC111" opacity=".2" rx="13.091" ry="13.078"/></g><g transform="rotate(-149 228.428 20.414)"><rect width="19.32" height="19.167" x=".728" y="3.65" fill="#01B2D0" opacity=".1" rx="3"/><rect width="17.32" height="17.167" x="4.349" y="1.346" stroke="#01B2D0" stroke-width="2" rx="3"/></g></g></svg>