<svg xmlns="http://www.w3.org/2000/svg" xmlns:xlink="http://www.w3.org/1999/xlink" width="568" height="522" viewBox="0 0 568 522"><defs><circle id="b" cx="24" cy="24" r="24"/><filter id="a" width="161.5%" height="161.5%" x="-30.8%" y="-26.6%" filterUnits="objectBoundingBox"><feMorphology in="SourceAlpha" operator="dilate" radius=".267" result="shadowSpreadOuter1"/><feOffset dy="2" in="shadowSpreadOuter1" result="shadowOffsetOuter1"/><feGaussianBlur in="shadowOffsetOuter1" result="shadowBlurOuter1" stdDeviation="4.5"/><feComposite in="shadowBlurOuter1" in2="SourceAlpha" operator="out" result="shadowBlurOuter1"/><feColorMatrix in="shadowBlurOuter1" values="0 0 0 0 0 0 0 0 0 0 0 0 0 0 0 0 0 0 0.12 0"/></filter><rect id="d" width="120" height="120" rx="60"/><filter id="c" width="144.2%" height="144.2%" x="-22.1%" y="-18.8%" filterUnits="objectBoundingBox"><feMorphology in="SourceAlpha" operator="dilate" radius=".5" result="shadowSpreadOuter1"/><feOffset dy="4" in="shadowSpreadOuter1" result="shadowOffsetOuter1"/><feGaussianBlur in="shadowOffsetOuter1" result="shadowBlurOuter1" stdDeviation="8"/><feComposite in="shadowBlurOuter1" in2="SourceAlpha" operator="out" result="shadowBlurOuter1"/><feColorMatrix in="shadowBlurOuter1" values="0 0 0 0 0 0 0 0 0 0 0 0 0 0 0 0 0 0 0.12 0"/></filter><path id="e" d="M46.71.003A6.236 6.236 0 0 0 46.512 0H6.431l-.116.001L6.202 0C2.75 0 0 2.78 0 6.268c0 .783.148 1.533.419 2.225.126.39.293.772.5 1.142l20.04 35.057c.287.502.632.949 1.02 1.336A6.197 6.197 0 0 0 26.53 48a6.016 6.016 0 0 0 3.967-1.504 6.276 6.276 0 0 0 1.545-1.804l20.04-35.057a6.37 6.37 0 0 0 .493-1.12A6.121 6.121 0 0 0 53 6.269C53 2.781 50.25 0 46.913 0a6.43 6.43 0 0 0-.202.003zM28.482 32.967L44.33 5.166a1.92 1.92 0 0 0 .115-.175 2.744 2.744 0 0 1 2.47-1.509c1.433 0 2.64 1.222 2.64 2.786 0 .535-.174 1.06-.459 1.51a.157.157 0 0 0-.057.116l-17.456 30.53-3.1-5.457zM6.431 3.482h34.912l-3.1 5.456H6.087c-1.491 0-2.699-1.221-2.699-2.67 0-1.564 1.208-2.786 2.699-2.786.08 0 .132.002.172 0l.061.001h.111zm10.311 8.939h19.516L26.5 29.49l-9.758-17.07zm7.26 30.646c.004-.041-.015-.074-.057-.117L6.546 12.42h6.202l15.905 27.802a.789.789 0 0 0 .115.233c.244.409.402.924.402 1.509 0 1.448-1.207 2.67-2.641 2.67a2.802 2.802 0 0 1-2.527-1.567z"/><circle id="g" cx="42.5" cy="42.5" r="42.5"/><filter id="f" width="158.8%" height="158.8%" x="-29.4%" y="-24.7%" filterUnits="objectBoundingBox"><feMorphology in="SourceAlpha" operator="dilate" radius=".469" result="shadowSpreadOuter1"/><feOffset dy="4" in="shadowSpreadOuter1" result="shadowOffsetOuter1"/><feGaussianBlur in="shadowOffsetOuter1" result="shadowBlurOuter1" stdDeviation="7.5"/><feComposite in="shadowBlurOuter1" in2="SourceAlpha" operator="out" result="shadowBlurOuter1"/><feColorMatrix in="shadowBlurOuter1" values="0 0 0 0 0 0 0 0 0 0 0 0 0 0 0 0 0 0 0.12 0"/></filter><circle id="i" cx="55.5" cy="55.5" r="55.5"/><filter id="h" width="171.6%" height="171.6%" x="-35.8%" y="-30.4%" filterUnits="objectBoundingBox"><feMorphology in="SourceAlpha" operator="dilate" radius=".75" result="shadowSpreadOuter1"/><feOffset dy="6" in="shadowSpreadOuter1" result="shadowOffsetOuter1"/><feGaussianBlur in="shadowOffsetOuter1" result="shadowBlurOuter1" stdDeviation="12"/><feComposite in="shadowBlurOuter1" in2="SourceAlpha" operator="out" result="shadowBlurOuter1"/><feColorMatrix in="shadowBlurOuter1" values="0 0 0 0 0 0 0 0 0 0 0 0 0 0 0 0 0 0 0.12 0"/></filter><circle id="k" cx="28" cy="28" r="28"/><filter id="j" width="171%" height="171%" x="-35.5%" y="-30.1%" filterUnits="objectBoundingBox"><feMorphology in="SourceAlpha" operator="dilate" radius=".375" result="shadowSpreadOuter1"/><feOffset dy="3" in="shadowSpreadOuter1" result="shadowOffsetOuter1"/><feGaussianBlur in="shadowOffsetOuter1" result="shadowBlurOuter1" stdDeviation="6"/><feComposite in="shadowBlurOuter1" in2="SourceAlpha" operator="out" result="shadowBlurOuter1"/><feColorMatrix in="shadowBlurOuter1" values="0 0 0 0 0 0 0 0 0 0 0 0 0 0 0 0 0 0 0.12 0"/></filter><circle id="m" cx="37" cy="37" r="37"/><filter id="l" width="171.6%" height="171.6%" x="-35.8%" y="-30.4%" filterUnits="objectBoundingBox"><feMorphology in="SourceAlpha" operator="dilate" radius=".5" result="shadowSpreadOuter1"/><feOffset dy="4" in="shadowSpreadOuter1" result="shadowOffsetOuter1"/><feGaussianBlur in="shadowOffsetOuter1" result="shadowBlurOuter1" stdDeviation="8"/><feComposite in="shadowBlurOuter1" in2="SourceAlpha" operator="out" result="shadowBlurOuter1"/><feColorMatrix in="shadowBlurOuter1" values="0 0 0 0 0 0 0 0 0 0 0 0 0 0 0 0 0 0 0.12 0"/></filter><rect id="o" width="166" height="60" rx="30"/><filter id="n" width="131.9%" height="188.3%" x="-16%" y="-37.5%" filterUnits="objectBoundingBox"><feMorphology in="SourceAlpha" operator="dilate" radius=".5" result="shadowSpreadOuter1"/><feOffset dy="4" in="shadowSpreadOuter1" result="shadowOffsetOuter1"/><feGaussianBlur in="shadowOffsetOuter1" result="shadowBlurOuter1" stdDeviation="8"/><feComposite in="shadowBlurOuter1" in2="SourceAlpha" operator="out" result="shadowBlurOuter1"/><feColorMatrix in="shadowBlurOuter1" values="0 0 0 0 0 0 0 0 0 0 0 0 0 0 0 0 0 0 0.12 0"/></filter><circle id="q" cx="51" cy="51" r="51"/><filter id="p" width="152%" height="152%" x="-26%" y="-22.1%" filterUnits="objectBoundingBox"><feMorphology in="SourceAlpha" operator="dilate" radius=".5" result="shadowSpreadOuter1"/><feOffset dy="4" in="shadowSpreadOuter1" result="shadowOffsetOuter1"/><feGaussianBlur in="shadowOffsetOuter1" result="shadowBlurOuter1" stdDeviation="8"/><feComposite in="shadowBlurOuter1" in2="SourceAlpha" operator="out" result="shadowBlurOuter1"/><feColorMatrix in="shadowBlurOuter1" values="0 0 0 0 0 0 0 0 0 0 0 0 0 0 0 0 0 0 0.12 0"/></filter></defs><g fill="none" fill-rule="evenodd"><path fill="#E1F5DB" d="M26 252h396v127H26z"/><path stroke="#6FD350" stroke-dasharray="20 20" stroke-linecap="round" stroke-linejoin="round" stroke-width="4" d="M310 355c60.751 0 110-49.249 110-110s-49.249-110-110-110-110 49.249-110 110 49.249 110 110 110z"/><path stroke="#6FD350" stroke-dasharray="4 6" stroke-linecap="round" stroke-linejoin="round" stroke-width="2" d="M310 461c119.294 0 216-96.706 216-216S429.294 29 310 29 94 125.706 94 245s96.706 216 216 216z"/><g transform="translate(361 140)"><use fill="#000" filter="url(#a)" xlink:href="#b"/><use fill="#FFF" stroke="#8D8D8D" stroke-opacity=".24" stroke-width=".533" xlink:href="#b"/><path fill="#286EFA" d="M31.2 14.4H16.8a2.4 2.4 0 0 0-2.4 2.4v14.4a2.4 2.4 0 0 0 2.4 2.4h14.4a2.4 2.4 0 0 0 2.4-2.4V16.8a2.4 2.4 0 0 0-2.4-2.4zm-4.64 3.52a.64.64 0 0 1 1.28 0v8.55a.64.64 0 0 1-1.28 0v-8.55zm-3.2-.324a.64.64 0 0 1 1.28 0v9.28a.64.64 0 0 1-1.28 0v-9.28zm-3.2.324a.64.64 0 0 1 1.28 0v8.55a.64.64 0 1 1-1.28 0v-8.55zm-3.2 1.28a.64.64 0 1 1 1.28 0v5.756a.64.64 0 0 1-1.28 0V19.2zm13.857 9.762c-.099.085-2.47 2.074-6.817 2.074-4.347 0-6.717-1.989-6.817-2.074a.64.64 0 0 1 .831-.973c.038.032 2.155 1.767 5.985 1.767 3.879 0 5.963-1.748 5.984-1.765a.639.639 0 1 1 .834.971zm.223-4.006a.64.64 0 0 1-1.28 0V19.2a.64.64 0 1 1 1.28 0v5.756z"/></g><g transform="translate(250 185)"><use fill="#000" filter="url(#c)" xlink:href="#d"/><use fill="#FFF" stroke="#8D8D8D" stroke-opacity=".24" xlink:href="#d"/><use fill="#0AA6D2" transform="translate(34 38)" xlink:href="#e"/></g><g transform="translate(468 144)"><use fill="#000" filter="url(#f)" xlink:href="#g"/><use fill="#FFF" stroke="#8D8D8D" stroke-opacity=".24" stroke-width=".938" xlink:href="#g"/><path fill="#E01E5A" d="M30.786 47.83a4.255 4.255 0 0 1-4.244 4.245 4.255 4.255 0 0 1-4.245-4.245 4.255 4.255 0 0 1 4.245-4.244h4.244v4.244zm2.14 0a4.255 4.255 0 0 1 4.244-4.244 4.255 4.255 0 0 1 4.244 4.244v10.628a4.255 4.255 0 0 1-4.244 4.244 4.255 4.255 0 0 1-4.245-4.244V47.83z"/><path fill="#36C5F0" d="M37.17 30.786a4.255 4.255 0 0 1-4.245-4.244 4.255 4.255 0 0 1 4.245-4.245 4.255 4.255 0 0 1 4.244 4.245v4.244H37.17zm0 2.14a4.255 4.255 0 0 1 4.244 4.244 4.255 4.255 0 0 1-4.244 4.244H26.542a4.255 4.255 0 0 1-4.245-4.244 4.255 4.255 0 0 1 4.245-4.245H37.17z"/><path fill="#2EB67D" d="M54.213 37.17a4.255 4.255 0 0 1 4.245-4.245 4.255 4.255 0 0 1 4.244 4.245 4.255 4.255 0 0 1-4.244 4.244h-4.245V37.17zm-2.138 0a4.255 4.255 0 0 1-4.245 4.244 4.255 4.255 0 0 1-4.244-4.244V26.542a4.255 4.255 0 0 1 4.244-4.245 4.255 4.255 0 0 1 4.245 4.245V37.17z"/><path fill="#ECB22E" d="M47.83 54.213a4.255 4.255 0 0 1 4.245 4.245 4.255 4.255 0 0 1-4.245 4.244 4.255 4.255 0 0 1-4.244-4.244v-4.245h4.244zm0-2.138a4.255 4.255 0 0 1-4.244-4.245 4.255 4.255 0 0 1 4.244-4.244h10.628a4.255 4.255 0 0 1 4.244 4.244 4.255 4.255 0 0 1-4.244 4.245H47.83z"/></g><g transform="translate(97 40)"><use fill="#000" filter="url(#h)" xlink:href="#i"/><use fill="#FFF" stroke="#8D8D8D" stroke-opacity=".24" stroke-width="1.5" xlink:href="#i"/><path fill="#FF4A00" fill-rule="nonzero" d="M61.875 55.511a15.254 15.254 0 0 1-.98 5.384 15.233 15.233 0 0 1-5.384.98h-.022a15.247 15.247 0 0 1-5.383-.98 15.252 15.252 0 0 1-.981-5.383v-.022a15.26 15.26 0 0 1 .979-5.384 15.26 15.26 0 0 1 5.385-.98h.022c1.896 0 3.71.348 5.385.98.63 1.675.978 3.489.979 5.384v.022zm18.77-4.261H65.76l10.526-10.525a25.617 25.617 0 0 0-2.756-3.257v-.001a25.635 25.635 0 0 0-3.255-2.753L59.75 45.239V30.355A25.657 25.657 0 0 0 55.513 30h-.027c-1.42 0-2.836.12-4.236.354V45.24L40.725 34.715a25.62 25.62 0 0 0-3.256 2.754l-.004.003a25.629 25.629 0 0 0-2.75 3.253L45.24 51.25H30.354s-.353 2.796-.354 4.24v.02c0 1.42.12 2.839.354 4.24H45.24L34.714 70.276a25.645 25.645 0 0 0 6.01 6.01L51.25 65.76v14.885a25.75 25.75 0 0 0 4.232.354h.037a25.684 25.684 0 0 0 4.231-.354V65.76l10.525 10.525a25.632 25.632 0 0 0 3.255-2.753l.003-.001a25.65 25.65 0 0 0 2.753-3.255L65.76 59.75h14.886c.234-1.398.353-2.813.354-4.231v-.037a25.684 25.684 0 0 0-.354-4.232z"/></g><g transform="translate(338 9)"><use fill="#000" filter="url(#j)" xlink:href="#k"/><use fill="#FFF" stroke="#8D8D8D" stroke-opacity=".24" stroke-width=".75" xlink:href="#k"/><path fill="#C12126" fill-rule="nonzero" d="M27.865 22.943a4.914 4.914 0 1 0 .001 9.827 4.914 4.914 0 0 0-.001-9.827zm-7.66 4.913c0-4.233 3.43-7.66 7.66-7.66a7.661 7.661 0 0 1 7.62 8.487c-.058.747.491 1.318 1.233 1.318 1.26 0 1.394-1.623 1.394-2.145 0-5.658-4.586-10.241-10.24-10.241-5.656 0-10.248 4.586-10.248 10.24 0 5.659 4.586 10.242 10.241 10.242 3.003 0 5.707-1.294 7.58-3.354l2.106 1.767a12.963 12.963 0 0 1-9.686 4.334c-7.174 0-12.99-5.817-12.99-12.991 0-7.175 5.816-12.988 12.99-12.988s12.99 5.816 12.99 12.99c0 2.885-1.372 5.225-4.131 5.225-1.215 0-1.953-.555-2.356-1.178a7.64 7.64 0 0 1-6.503 3.617c-4.23 0-7.66-3.43-7.66-7.663zm7.66-2.246a2.25 2.25 0 1 1 0 4.498 2.25 2.25 0 0 1 0-4.498z"/></g><g transform="translate(441 355)"><use fill="#000" filter="url(#l)" xlink:href="#m"/><use fill="#FFF" stroke="#8D8D8D" stroke-opacity=".24" xlink:href="#m"/><g fill="#F90" fill-rule="nonzero"><path d="M53.154 53.916h-8.34a.677.677 0 0 1-.61-.383l-11.79-24.466h-4.989a.674.674 0 0 1-.677-.672v-7.388c0-.37.303-.671.677-.671H37.85c.26 0 .497.15.609.383l11.738 24.466h2.958c.374 0 .677.3.677.672v7.387a.675.675 0 0 1-.677.672zm-7.913-1.343h7.236v-6.045h-2.708a.677.677 0 0 1-.609-.382L37.422 21.679h-9.314v6.044h4.738c.26.001.497.15.61.383L45.24 52.573z"/><path d="M30.802 53.916h-8.8a.678.678 0 0 1-.576-.316.667.667 0 0 1-.033-.671l9.206-19.08a.677.677 0 1 1 1.218-.007l4.407 8.993c.09.184.09.4 0 .584l-4.806 10.074a.677.677 0 0 1-.616.423zm-7.717-1.343h7.29l4.488-9.403-3.648-7.488-8.13 16.89z"/></g></g><g transform="translate(16 271)"><use fill="#000" filter="url(#n)" xlink:href="#o"/><use fill="#FFF" stroke="#8D8D8D" stroke-opacity=".24" xlink:href="#o"/><g fill="#000"><path d="M30.194 29.888c0-3.186 1.717-4.32 3.324-4.32 1.972 0 3.297 1.723 3.297 4.29 0 2.928-1.685 4.235-3.352 4.235-2.248 0-3.27-2.182-3.27-4.205zm4.116-8.068c-2.344 0-3.702 1.068-4.356 1.806-.08-.636-.492-1.461-2.105-1.461h-3.503v3.718h1.436c.243 0 .322.079.322.325v16.98h4.175v-6.373c0-.172-.004-.333-.008-.476.651.606 1.898 1.443 3.843 1.443 4.081 0 6.936-3.28 6.936-7.98 0-4.775-2.71-7.982-6.74-7.982z"/><path d="M46.657 33.423v-8.997c0-1.52-.723-2.261-2.203-2.261h-3.732v3.718h1.438c.242 0 .32.08.32.325v8.967c0 1.543.7 2.26 2.198 2.26h3.736V33.75h-1.437c-.231 0-.32-.094-.32-.327"/><path d="M56.712 34.093c-2.242 0-3.268-2.182-3.268-4.205 0-3.186 1.718-4.32 3.326-4.32 1.972 0 3.297 1.723 3.297 4.29 0 2.928-1.684 4.235-3.355 4.235zm.852-12.273c-2.348 0-3.702 1.068-4.36 1.806-.077-.636-.488-1.461-2.101-1.461h-3.505v3.718h1.436c.242 0 .32.079.32.325v16.98h4.178v-6.373c0-.172-.004-.333-.009-.476.649.606 1.9 1.443 3.844 1.443 4.082 0 6.934-3.28 6.934-7.98 0-4.775-2.709-7.982-6.737-7.982zm11.444 5.778c.453-1.498 1.585-2.349 3.15-2.349 1.258 0 2.225.97 2.396 2.349h-5.546zm3.15-5.778c-4.498 0-7.644 3.283-7.644 7.982 0 4.623 3.394 7.98 8.071 7.98 3.679 0 5.927-2.208 6.022-2.302l.168-.169-1.82-3.06-.269.259c-.018.014-1.668 1.556-3.848 1.556-2.092 0-3.624-1.295-3.985-3.326h9.9l.024-.278c.007-.038.089-.94.089-1.38 0-4.343-2.696-7.262-6.708-7.262zm14.448 12.273c-1.986 0-3.27-1.685-3.27-4.291 0-2.534 1.337-4.234 3.327-4.234 2.257 0 3.269 2.11 3.269 4.206 0 3.187-1.72 4.32-3.326 4.32zm7.445-.67V18.676c0-1.52-.732-2.26-2.232-2.26h-3.731v3.72h1.437c.242 0 .32.078.32.324v2.666c-.616-.564-1.819-1.306-3.89-1.306-4.052 0-6.88 3.282-6.88 7.982 0 4.774 2.709 7.98 6.739 7.98 2.303 0 3.631-1.084 4.28-1.84.084.66.505 1.493 2.067 1.493h3.617V33.75h-1.407c-.23 0-.32-.094-.32-.327zm11.018-11.46c-1.738 0-3.337 1.017-4.286 2.638v-.349c0-1.384-.753-2.087-2.232-2.087h-3.59v3.718h1.436c.242 0 .322.078.322.325v11.227h4.175v-6.11c0-.805.102-1.58.299-2.297.629-2.107 2.299-2.857 3.65-2.857.479 0 .827.051.833.053l.348.053v-4.209l-.254-.044a4.69 4.69 0 0 0-.7-.06h-.001zm6.898 11.46v-8.997c0-1.52-.72-2.261-2.2-2.261h-3.375v3.718h1.078c.243 0 .32.08.32.325v8.967c0 1.543.701 2.26 2.203 2.26h3.733V33.75h-1.439c-.231 0-.32-.094-.32-.327z"/><path d="M127.729 22.165H125.5c-1.302 0-2 .458-2.412 1.581l-2.722 7.71c-.094.286-.182.607-.258.914a10.225 10.225 0 0 0-.275-.918l-2.722-7.707c-.418-1.136-1.093-1.58-2.411-1.58h-2.37v3.719h.615c.326 0 .431.112.508.318l4.214 11.233h4.695l4.214-11.233c.076-.206.184-.318.51-.318h.642v-3.719zm4.04 5.433c.457-1.498 1.585-2.349 3.148-2.349 1.26 0 2.226.97 2.397 2.349h-5.546zm3.148-5.778c-4.497 0-7.64 3.283-7.64 7.982 0 4.623 3.39 7.98 8.067 7.98 3.68 0 5.93-2.208 6.023-2.302l.17-.169-1.815-3.06-.277.259c-.014.014-1.673 1.556-3.845 1.556-2.094 0-3.625-1.295-3.987-3.326h9.904l.023-.278c.005-.038.09-.94.09-1.38 0-4.343-2.698-7.262-6.713-7.262zm-88.546-5.403h-3.722v3.976h3.722v-3.976zm65.312 0h-3.723v3.976h3.723v-3.976z"/></g></g><g transform="translate(195 400)"><use fill="#000" filter="url(#p)" xlink:href="#q"/><use fill="#FFF" stroke="#8D8D8D" stroke-opacity=".24" xlink:href="#q"/><path fill="#3197D6" fill-rule="nonzero" d="M34.572 55.754l13.55-13.577a9.606 9.606 0 0 0 .073-13.577l-13.55 13.577a9.547 9.547 0 0 0-2.845 6.821c0 2.63 1.06 5.016 2.772 6.756zm32.79-7.965l-13.55 13.577a9.606 9.606 0 0 0-.073 13.577l13.55-13.577a9.606 9.606 0 0 0 .073-13.577zm-.08-5.612a9.574 9.574 0 0 0 2.836-6.821c0-2.63-1.06-5.016-2.772-6.748l-32.7 32.766a9.595 9.595 0 0 0-2.846 6.821c0 2.63 1.06 5.016 2.772 6.748l32.71-32.766z"/></g><g transform="rotate(-33 278.239 -780.54)"><rect width="21" height="20.833" x=".791" y="3.967" fill="#01B2D0" opacity=".1" rx="3"/><rect width="19" height="18.833" x="4.64" y="1.376" stroke="#01B2D0" stroke-width="2" rx="3"/></g><g transform="rotate(38 -550.639 349.039)"><rect width="19.32" height="19.167" x=".728" y="3.65" fill="#01B2D0" opacity=".1" rx="3"/><rect width="17.32" height="17.167" x="4.349" y="1.346" stroke="#01B2D0" stroke-width="2" rx="3"/></g><g transform="rotate(34 -543.087 920.143)"><ellipse cx="22.223" cy="16.325" stroke="#FFC111" stroke-width="2" rx="14.955" ry="14.609"/><ellipse cx="16.842" cy="20.989" fill="#FFC111" opacity=".2" rx="15.955" ry="15.609"/></g><path fill="#6FD350" d="M18.542 104.015l10.315 6.811a4 4 0 0 1-.204 6.802l-9.574 5.528a4 4 0 0 1-5.993-3.224l-.74-12.339a4 4 0 0 1 6.196-3.578z" opacity=".2"/><path stroke="#6FD350" stroke-width="2" d="M19.991 97.85a3 3 0 0 0-4.647 2.683l.74 12.339a3 3 0 0 0 4.495 2.418l9.574-5.528a3 3 0 0 0 .153-5.101L19.991 97.85z"/></g></svg>