<svg xmlns="http://www.w3.org/2000/svg" xmlns:xlink="http://www.w3.org/1999/xlink" width="576" height="593" viewBox="0 0 576 593"><defs><filter id="a" width="122.1%" height="151%" x="-11%" y="-21.6%" filterUnits="objectBoundingBox"><feMorphology in="SourceAlpha" operator="dilate" radius=".5" result="shadowSpreadOuter1"/><feOffset dy="4" in="shadowSpreadOuter1" result="shadowOffsetOuter1"/><feGaussianBlur in="shadowOffsetOuter1" result="shadowBlurOuter1" stdDeviation="8"/><feComposite in="shadowBlurOuter1" in2="SourceAlpha" operator="out" result="shadowBlurOuter1"/><feColorMatrix in="shadowBlurOuter1" values="0 0 0 0 0 0 0 0 0 0 0 0 0 0 0 0 0 0 0.12 0"/></filter><filter id="c" width="122.1%" height="131%" x="-11%" y="-13.2%" filterUnits="objectBoundingBox"><feMorphology in="SourceAlpha" operator="dilate" radius=".5" result="shadowSpreadOuter1"/><feOffset dy="4" in="shadowSpreadOuter1" result="shadowOffsetOuter1"/><feGaussianBlur in="shadowOffsetOuter1" result="shadowBlurOuter1" stdDeviation="8"/><feComposite in="shadowBlurOuter1" in2="SourceAlpha" operator="out" result="shadowBlurOuter1"/><feColorMatrix in="shadowBlurOuter1" values="0 0 0 0 0 0 0 0 0 0 0 0 0 0 0 0 0 0 0.12 0"/></filter><filter id="e" width="122.1%" height="163.1%" x="-11%" y="-26.8%" filterUnits="objectBoundingBox"><feMorphology in="SourceAlpha" operator="dilate" radius=".5" result="shadowSpreadOuter1"/><feOffset dy="4" in="shadowSpreadOuter1" result="shadowOffsetOuter1"/><feGaussianBlur in="shadowOffsetOuter1" result="shadowBlurOuter1" stdDeviation="8"/><feComposite in="shadowBlurOuter1" in2="SourceAlpha" operator="out" result="shadowBlurOuter1"/><feColorMatrix in="shadowBlurOuter1" values="0 0 0 0 0 0 0 0 0 0 0 0 0 0 0 0 0 0 0.12 0"/></filter><filter id="g" width="122.1%" height="143.4%" x="-11%" y="-18.4%" filterUnits="objectBoundingBox"><feMorphology in="SourceAlpha" operator="dilate" radius=".5" result="shadowSpreadOuter1"/><feOffset dy="4" in="shadowSpreadOuter1" result="shadowOffsetOuter1"/><feGaussianBlur in="shadowOffsetOuter1" result="shadowBlurOuter1" stdDeviation="8"/><feComposite in="shadowBlurOuter1" in2="SourceAlpha" operator="out" result="shadowBlurOuter1"/><feColorMatrix in="shadowBlurOuter1" values="0 0 0 0 0 0 0 0 0 0 0 0 0 0 0 0 0 0 0.12 0"/></filter><filter id="i" width="122.1%" height="151%" x="-11%" y="-21.6%" filterUnits="objectBoundingBox"><feMorphology in="SourceAlpha" operator="dilate" radius=".5" result="shadowSpreadOuter1"/><feOffset dy="4" in="shadowSpreadOuter1" result="shadowOffsetOuter1"/><feGaussianBlur in="shadowOffsetOuter1" result="shadowBlurOuter1" stdDeviation="8"/><feComposite in="shadowBlurOuter1" in2="SourceAlpha" operator="out" result="shadowBlurOuter1"/><feColorMatrix in="shadowBlurOuter1" values="0 0 0 0 0 0 0 0 0 0 0 0 0 0 0 0 0 0 0.12 0"/></filter><rect id="b" width="240" height="104" rx="10"/><rect id="d" width="240" height="171" rx="10"/><rect id="f" width="240" height="84" rx="10"/><rect id="h" width="240" height="122" rx="10"/><rect id="j" width="240" height="104" rx="10"/></defs><g fill="none" fill-rule="evenodd"><path fill="#FFF3CF" d="M120 88h323v373H120z"/><path stroke="#01B2D0" stroke-width="2" d="M289.5 95v44.869"/><path stroke="#A96EFD" stroke-width="2" d="M289.5 215v44.869"/><path stroke="#FFC111" stroke-linecap="round" stroke-linejoin="round" stroke-width="2" d="M233.5 417v8.93c0 5.523-4.477 10-10 10H150c-5.523 0-10 4.477-10 10v7.134M347 417v8.93c0 5.523 4.477 10 10 10h73.5c5.523 0 10 4.477 10 10v7.134"/><g transform="translate(169 12)"><use fill="#000" filter="url(#a)" xlink:href="#b"/><use fill="#FFF" stroke="#8D8D8D" stroke-opacity=".24" xlink:href="#b"/><path fill="#384254" fill-rule="nonzero" d="M25.128 63H23.49v-4.088h-4.858V63h-1.638v-9.338h1.638v3.808h4.858v-3.808h1.638V63zm5.082.168c-2.044 0-3.542-1.414-3.542-3.556 0-1.96 1.428-3.542 3.43-3.542 2.03 0 3.318 1.54 3.318 3.668v.364h-5.208c.112 1.008.868 1.862 2.142 1.862.672 0 1.442-.266 1.932-.756l.672.966c-.686.644-1.68.994-2.744.994zm1.792-4.116c-.042-.798-.588-1.778-1.918-1.778-1.246 0-1.834.966-1.89 1.778h3.808zM36.342 63h-1.47v-9.338h1.47V63zm3.374 0h-1.47v-9.338h1.47V63zm4.97.168c-2.156 0-3.472-1.624-3.472-3.556 0-1.946 1.316-3.542 3.472-3.542 2.156 0 3.472 1.596 3.472 3.542 0 1.932-1.316 3.556-3.472 3.556zm0-1.302c1.26 0 1.946-1.05 1.946-2.254 0-1.19-.686-2.24-1.946-2.24-1.246 0-1.946 1.05-1.946 2.24 0 1.204.7 2.254 1.946 2.254zm10.234 1.302c-.966 0-1.82-.294-2.492-.994l.77-1.246c.364.42.882.784 1.596.784.994 0 1.638-.686 1.638-1.694v-6.356h1.638v6.37c0 2.128-1.344 3.136-3.15 3.136zm8.162 0c-2.156 0-3.472-1.624-3.472-3.556 0-1.946 1.316-3.542 3.472-3.542 2.156 0 3.472 1.596 3.472 3.542 0 1.932-1.316 3.556-3.472 3.556zm0-1.302c1.26 0 1.946-1.05 1.946-2.254 0-1.19-.686-2.24-1.946-2.24-1.246 0-1.946 1.05-1.946 2.24 0 1.204.7 2.254 1.946 2.254zM74.1 63h-1.47v-4.256c0-1.064-.532-1.372-1.358-1.372-.756 0-1.4.448-1.736.896V63h-1.47v-9.338h1.47v3.486c.448-.532 1.316-1.078 2.38-1.078 1.456 0 2.184.756 2.184 2.142V63zm7.952 0h-1.47v-4.228c0-1.064-.546-1.4-1.372-1.4-.742 0-1.386.448-1.736.896V63h-1.47v-6.762h1.47v.91c.448-.532 1.33-1.078 2.394-1.078 1.456 0 2.184.784 2.184 2.17V63zm3.304-2.87h-1.274l-.266-6.468h1.792l-.252 6.468zm-.63 3.01a.992.992 0 01-.98-.98c0-.518.448-.966.98-.966s.966.448.966.966a.98.98 0 01-.966.98z"/><path fill="#384254" fill-rule="nonzero" d="M17.638 83h-1.05l1.288-5.838h-1.12l.21-.924h1.12l.112-.518c.294-1.274.924-2.198 2.226-2.198.616 0 1.092.168 1.498.574l-.56.644c-.196-.224-.448-.35-.854-.35-.714 0-1.078.49-1.26 1.33l-.112.518h1.372l-.21.924h-1.372L17.638 83zm3.682 0h-1.05l1.498-6.762h1.05l-.238 1.022c.672-.756 1.358-1.176 2.52-1.176l-.238 1.092a2.082 2.082 0 00-.532-.056c-.784 0-1.526.532-1.96 1.106L21.32 83zm6.93.168c-1.932 0-3.094-1.218-3.094-3.01 0-2.128 1.596-4.088 3.766-4.088 1.932 0 3.094 1.218 3.094 2.996 0 2.142-1.596 4.102-3.766 4.102zm.028-.938c1.54 0 2.632-1.526 2.632-3.122 0-1.274-.742-2.1-2.016-2.1-1.526 0-2.632 1.526-2.632 3.122 0 1.274.742 2.1 2.016 2.1zM42.11 83h-1.05l1.008-4.536c.014-.07.042-.238.042-.378 0-.7-.532-1.078-1.148-1.078-.658 0-1.372.504-1.848 1.064L38.022 83h-1.05l1.008-4.536c.042-.182.056-.28.056-.434 0-.588-.406-1.022-1.176-1.022-.644 0-1.344.518-1.82 1.064L33.948 83h-1.05l1.498-6.762h1.05l-.224.98c.378-.434 1.162-1.148 2.128-1.148 1.204 0 1.778.868 1.778 1.344v.014c.532-.672 1.33-1.358 2.31-1.358.938 0 1.778.574 1.778 1.666 0 .154-.042.406-.07.574L42.11 83zm10.29 0h-1.638v-7.896h-2.828v-1.442h7.294v1.442H52.4V83zm4.592 0h-1.47v-6.762h1.47v.98c.518-.644 1.33-1.148 2.198-1.148v1.456a2.029 2.029 0 00-.448-.042c-.63 0-1.456.42-1.75.91V83zm9.422 0h-1.47v-.896a3.234 3.234 0 01-2.38 1.064c-1.456 0-2.184-.77-2.184-2.142v-4.788h1.47v4.242c0 1.05.532 1.386 1.372 1.386.742 0 1.386-.434 1.722-.882v-4.746h1.47V83zm5.04.168c-2.044 0-3.542-1.414-3.542-3.556 0-1.96 1.428-3.542 3.43-3.542 2.03 0 3.318 1.54 3.318 3.668v.364h-5.208c.112 1.008.868 1.862 2.142 1.862.672 0 1.442-.266 1.932-.756l.672.966c-.686.644-1.68.994-2.744.994zm1.792-4.116c-.042-.798-.588-1.778-1.918-1.778-1.246 0-1.834.966-1.89 1.778h3.808zm9.73 4.116c-1.722 0-2.968-.616-3.808-1.484l.924-1.274a4.012 4.012 0 002.954 1.302c1.344 0 1.862-.658 1.862-1.288 0-1.96-5.432-.742-5.432-4.172 0-1.554 1.344-2.744 3.402-2.744 1.442 0 2.632.476 3.486 1.316l-.924 1.218c-.742-.742-1.736-1.078-2.716-1.078-.952 0-1.568.476-1.568 1.162 0 1.75 5.432.672 5.432 4.144 0 1.554-1.106 2.898-3.612 2.898zm6.902 0c-1.148 0-1.736-.616-1.736-1.75v-3.906h-1.12v-1.274h1.12V74.39h1.47v1.848h1.372v1.274h-1.372v3.542c0 .462.224.812.644.812.28 0 .532-.126.644-.252l.35 1.12c-.266.238-.7.434-1.372.434zm5.488 0c-2.156 0-3.472-1.624-3.472-3.556 0-1.946 1.316-3.542 3.472-3.542 2.156 0 3.472 1.596 3.472 3.542 0 1.932-1.316 3.556-3.472 3.556zm0-1.302c1.26 0 1.946-1.05 1.946-2.254 0-1.19-.686-2.24-1.946-2.24-1.246 0-1.946 1.05-1.946 2.24 0 1.204.7 2.254 1.946 2.254zm6.44 1.134h-1.47v-6.762h1.47v.98c.518-.644 1.33-1.148 2.198-1.148v1.456a2.029 2.029 0 00-.448-.042c-.63 0-1.456.42-1.75.91V83zm3.108 2.646l.21-1.316c.154.07.392.112.56.112.476 0 .784-.14.98-.588l.336-.77-2.786-6.846h1.582l1.974 5.068 1.974-5.068h1.568l-3.262 7.98c-.462 1.148-1.26 1.512-2.31 1.526-.21 0-.63-.042-.826-.098z" opacity=".5"/><path fill="#384254" fill-rule="nonzero" d="M53.708 34h-2.25l-2.322-8.874L46.796 34h-2.25l-3.42-12.006h2.34l2.34 9.234 2.484-9.234h1.674l2.484 9.234 2.34-9.234h2.358L53.708 34zm8.082.216c-2.628 0-4.554-1.818-4.554-4.572 0-2.52 1.836-4.554 4.41-4.554 2.61 0 4.266 1.98 4.266 4.716v.468h-6.696c.144 1.296 1.116 2.394 2.754 2.394.864 0 1.854-.342 2.484-.972l.864 1.242c-.882.828-2.16 1.278-3.528 1.278zm2.304-5.292c-.054-1.026-.756-2.286-2.466-2.286-1.602 0-2.358 1.242-2.43 2.286h4.896zM69.674 34h-1.89V21.994h1.89V34zm6.408.216c-2.628 0-4.482-1.944-4.482-4.572s1.854-4.554 4.482-4.554c1.71 0 2.718.72 3.33 1.548l-1.242 1.134c-.486-.684-1.152-1.008-1.998-1.008-1.566 0-2.628 1.188-2.628 2.88s1.062 2.898 2.628 2.898c.846 0 1.512-.36 1.998-1.044l1.242 1.17c-.612.81-1.62 1.548-3.33 1.548zm8.946 0c-2.772 0-4.464-2.088-4.464-4.572 0-2.502 1.692-4.554 4.464-4.554 2.772 0 4.464 2.052 4.464 4.554 0 2.484-1.692 4.572-4.464 4.572zm0-1.674c1.62 0 2.502-1.35 2.502-2.898 0-1.53-.882-2.88-2.502-2.88-1.602 0-2.502 1.35-2.502 2.88 0 1.548.9 2.898 2.502 2.898zM103.982 34h-1.89v-5.67c0-.936-.414-1.566-1.44-1.566-.846 0-1.638.576-2.016 1.152V34h-1.89v-5.67c0-.936-.396-1.566-1.422-1.566-.846 0-1.62.594-2.016 1.152V34h-1.89v-8.694h1.89v1.17c.378-.522 1.512-1.386 2.844-1.386 1.296 0 2.088.648 2.376 1.584.486-.774 1.638-1.584 2.952-1.584 1.584 0 2.502.864 2.502 2.628V34zm6.48.216c-2.628 0-4.554-1.818-4.554-4.572 0-2.52 1.836-4.554 4.41-4.554 2.61 0 4.266 1.98 4.266 4.716v.468h-6.696c.144 1.296 1.116 2.394 2.754 2.394.864 0 1.854-.342 2.484-.972l.864 1.242c-.882.828-2.16 1.278-3.528 1.278zm2.304-5.292c-.054-1.026-.756-2.286-2.466-2.286-1.602 0-2.358 1.242-2.43 2.286h4.896z"/><path fill="#01B2D0" d="M18 23.992c0-1.1.893-1.992 1.992-1.992h11.016c1.1 0 1.992.9 1.992 1.992v7.016c0 1.1-.893 1.992-1.992 1.992H19.992c-1.1 0-1.992-.9-1.992-1.992v-7.016zm7.5 4.804l-5.146-5.15a.5.5 0 00-.708.707l5.5 5.503a.5.5 0 00.708 0l5.5-5.503a.5.5 0 10-.708-.706L25.5 28.796z"/></g><g transform="translate(169 248)"><use fill="#000" filter="url(#c)" xlink:href="#d"/><use fill="#FFF" stroke="#8D8D8D" stroke-opacity=".24" xlink:href="#d"/><path fill="#E1E1E1" d="M0 122h240v1H0zm120 1h1v48h-1z"/><path fill="#384254" fill-rule="nonzero" d="M25.128 63H23.49v-4.088h-4.858V63h-1.638v-9.338h1.638v3.808h4.858v-3.808h1.638V63zm7.56 0h-1.47v-.742c-.504.588-1.302.91-2.198.91-1.092 0-2.338-.756-2.338-2.24 0-1.568 1.232-2.212 2.338-2.212.924 0 1.694.294 2.198.868v-1.008c0-.784-.658-1.26-1.582-1.26-.756 0-1.428.28-2.002.868l-.616-1.022c.784-.756 1.764-1.092 2.842-1.092 1.512 0 2.828.63 2.828 2.436V63zm-3.08-.84c.63 0 1.26-.238 1.61-.7v-1.036c-.35-.462-.98-.7-1.61-.7-.826 0-1.456.49-1.456 1.218 0 .742.63 1.218 1.456 1.218zm7.308 1.008c-1.162 0-2.198-.378-2.898-1.064l.672-1.05c.476.49 1.414.938 2.282.938.882 0 1.344-.364 1.344-.896 0-1.33-4.088-.378-4.088-2.982 0-1.106.952-2.044 2.66-2.044 1.148 0 2.016.406 2.618.938l-.616 1.036c-.406-.448-1.148-.812-2.002-.812-.77 0-1.246.364-1.246.84 0 1.19 4.088.294 4.088 2.982 0 1.204-.994 2.114-2.814 2.114zm9.94 0c-1.148 0-1.736-.616-1.736-1.75v-3.906H44v-1.274h1.12V54.39h1.47v1.848h1.372v1.274H46.59v3.542c0 .462.224.812.644.812.28 0 .532-.126.644-.252l.35 1.12c-.266.238-.7.434-1.372.434zM50.748 63h-1.47v-6.762h1.47v.98c.518-.644 1.33-1.148 2.198-1.148v1.456a2.029 2.029 0 00-.448-.042c-.63 0-1.456.42-1.75.91V63zm4.13-7.588a.908.908 0 01-.91-.91c0-.504.406-.91.91-.91s.91.406.91.91-.406.91-.91.91zM55.606 63h-1.47v-6.762h1.47V63zm4.662 2.744c-1.148 0-2.002-.252-2.842-1.008l.686-1.064c.56.63 1.26.868 2.156.868.966 0 2.002-.448 2.002-1.89v-.77c-.518.686-1.288 1.134-2.17 1.134-1.722 0-2.996-1.246-2.996-3.472 0-2.198 1.246-3.472 2.996-3.472.854 0 1.624.378 2.17 1.106v-.938h1.47v6.412c0 2.436-1.82 3.094-3.472 3.094zm.266-4.046c.686 0 1.4-.406 1.736-.896v-2.534c-.336-.49-1.05-.896-1.736-.896-1.176 0-1.918.868-1.918 2.17s.742 2.156 1.918 2.156zm7.868 4.046c-1.148 0-2.002-.252-2.842-1.008l.686-1.064c.56.63 1.26.868 2.156.868.966 0 2.002-.448 2.002-1.89v-.77c-.518.686-1.288 1.134-2.17 1.134-1.722 0-2.996-1.246-2.996-3.472 0-2.198 1.246-3.472 2.996-3.472.854 0 1.624.378 2.17 1.106v-.938h1.47v6.412c0 2.436-1.82 3.094-3.472 3.094zm.266-4.046c.686 0 1.4-.406 1.736-.896v-2.534c-.336-.49-1.05-.896-1.736-.896-1.176 0-1.918.868-1.918 2.17s.742 2.156 1.918 2.156zm8.246 1.47c-2.044 0-3.542-1.414-3.542-3.556 0-1.96 1.428-3.542 3.43-3.542 2.03 0 3.318 1.54 3.318 3.668v.364h-5.208c.112 1.008.868 1.862 2.142 1.862.672 0 1.442-.266 1.932-.756l.672.966c-.686.644-1.68.994-2.744.994zm1.792-4.116c-.042-.798-.588-1.778-1.918-1.778-1.246 0-1.834.966-1.89 1.778h3.808zM83.046 63h-1.47v-6.762h1.47v.98c.518-.644 1.33-1.148 2.198-1.148v1.456a2.029 2.029 0 00-.448-.042c-.63 0-1.456.42-1.75.91V63zm6.524.168c-2.044 0-3.542-1.414-3.542-3.556 0-1.96 1.428-3.542 3.43-3.542 2.03 0 3.318 1.54 3.318 3.668v.364h-5.208c.112 1.008.868 1.862 2.142 1.862.672 0 1.442-.266 1.932-.756l.672.966c-.686.644-1.68.994-2.744.994zm1.792-4.116c-.042-.798-.588-1.778-1.918-1.778-1.246 0-1.834.966-1.89 1.778h3.808zm9.1 3.948h-1.47v-.924c-.518.672-1.288 1.092-2.17 1.092-1.722 0-2.996-1.316-2.996-3.556 0-2.184 1.26-3.542 2.996-3.542.854 0 1.638.378 2.17 1.106v-3.514h1.47V63zm-3.206-1.134c.686 0 1.414-.406 1.736-.91v-2.674c-.322-.504-1.05-.91-1.736-.91-1.176 0-1.918.938-1.918 2.24 0 1.316.742 2.254 1.918 2.254zM111.592 63h-1.47v-.742c-.504.588-1.302.91-2.198.91-1.092 0-2.338-.756-2.338-2.24 0-1.568 1.232-2.212 2.338-2.212.924 0 1.694.294 2.198.868v-1.008c0-.784-.658-1.26-1.582-1.26-.756 0-1.428.28-2.002.868l-.616-1.022c.784-.756 1.764-1.092 2.842-1.092 1.512 0 2.828.63 2.828 2.436V63zm-3.08-.84c.63 0 1.26-.238 1.61-.7v-1.036c-.35-.462-.98-.7-1.61-.7-.826 0-1.456.49-1.456 1.218 0 .742.63 1.218 1.456 1.218zm11.032.84h-1.47v-4.228c0-1.064-.546-1.4-1.372-1.4-.742 0-1.386.448-1.736.896V63h-1.47v-6.762h1.47v.91c.448-.532 1.33-1.078 2.394-1.078 1.456 0 2.184.784 2.184 2.17V63zm8.652.168c-2.044 0-3.542-1.414-3.542-3.556 0-1.96 1.428-3.542 3.43-3.542 2.03 0 3.318 1.54 3.318 3.668v.364h-5.208c.112 1.008.868 1.862 2.142 1.862.672 0 1.442-.266 1.932-.756l.672.966c-.686.644-1.68.994-2.744.994zm1.792-4.116c-.042-.798-.588-1.778-1.918-1.778-1.246 0-1.834.966-1.89 1.778h3.808zm6.23 3.948h-1.582l-2.758-6.762h1.582l1.974 5.068 1.974-5.068h1.568L136.218 63zm6.818.168c-2.044 0-3.542-1.414-3.542-3.556 0-1.96 1.428-3.542 3.43-3.542 2.03 0 3.318 1.54 3.318 3.668v.364h-5.208c.112 1.008.868 1.862 2.142 1.862.672 0 1.442-.266 1.932-.756l.672.966c-.686.644-1.68.994-2.744.994zm1.792-4.116c-.042-.798-.588-1.778-1.918-1.778-1.246 0-1.834.966-1.89 1.778h3.808zM153.746 63h-1.47v-4.228c0-1.064-.546-1.4-1.372-1.4-.742 0-1.386.448-1.736.896V63h-1.47v-6.762h1.47v.91c.448-.532 1.33-1.078 2.394-1.078 1.456 0 2.184.784 2.184 2.17V63zm3.948.168c-1.148 0-1.736-.616-1.736-1.75v-3.906h-1.12v-1.274h1.12V54.39h1.47v1.848h1.372v1.274h-1.372v3.542c0 .462.224.812.644.812.28 0 .532-.126.644-.252l.35 1.12c-.266.238-.7.434-1.372.434zM51.047 151h-1.638v-7.896h-2.828v-1.442h7.294v1.442h-2.828V151zm4.592 0h-1.47v-6.762h1.47v.98c.518-.644 1.33-1.148 2.198-1.148v1.456a2.029 2.029 0 00-.448-.042c-.63 0-1.456.42-1.75.91V151zm9.422 0h-1.47v-.896a3.234 3.234 0 01-2.38 1.064c-1.456 0-2.184-.77-2.184-2.142v-4.788h1.47v4.242c0 1.05.532 1.386 1.372 1.386.742 0 1.386-.434 1.722-.882v-4.746h1.47V151zm5.04.168c-2.044 0-3.542-1.414-3.542-3.556 0-1.96 1.428-3.542 3.43-3.542 2.03 0 3.318 1.54 3.318 3.668v.364h-5.208c.112 1.008.868 1.862 2.142 1.862.672 0 1.442-.266 1.932-.756l.672.966c-.686.644-1.68.994-2.744.994zm1.792-4.116c-.042-.798-.588-1.778-1.918-1.778-1.246 0-1.834.966-1.89 1.778h3.808zM166.042 151h-1.638v-9.338h6.398v1.442h-4.76v2.408h4.662v1.442h-4.662V151zm11.816 0h-1.47v-.742c-.504.588-1.302.91-2.198.91-1.092 0-2.338-.756-2.338-2.24 0-1.568 1.232-2.212 2.338-2.212.924 0 1.694.294 2.198.868v-1.008c0-.784-.658-1.26-1.582-1.26-.756 0-1.428.28-2.002.868l-.616-1.022c.784-.756 1.764-1.092 2.842-1.092 1.512 0 2.828.63 2.828 2.436V151zm-3.08-.84c.63 0 1.26-.238 1.61-.7v-1.036c-.35-.462-.98-.7-1.61-.7-.826 0-1.456.49-1.456 1.218 0 .742.63 1.218 1.456 1.218zm6.454.84h-1.47v-9.338h1.47V151zm4.228.168c-1.162 0-2.198-.378-2.898-1.064l.672-1.05c.476.49 1.414.938 2.282.938.882 0 1.344-.364 1.344-.896 0-1.33-4.088-.378-4.088-2.982 0-1.106.952-2.044 2.66-2.044 1.148 0 2.016.406 2.618.938l-.616 1.036c-.406-.448-1.148-.812-2.002-.812-.77 0-1.246.364-1.246.84 0 1.19 4.088.294 4.088 2.982 0 1.204-.994 2.114-2.814 2.114zm7.42 0c-2.044 0-3.542-1.414-3.542-3.556 0-1.96 1.428-3.542 3.43-3.542 2.03 0 3.318 1.54 3.318 3.668v.364h-5.208c.112 1.008.868 1.862 2.142 1.862.672 0 1.442-.266 1.932-.756l.672.966c-.686.644-1.68.994-2.744.994zm1.792-4.116c-.042-.798-.588-1.778-1.918-1.778-1.246 0-1.834.966-1.89 1.778h3.808z"/><path fill="#384254" fill-rule="nonzero" d="M18.254 83h-1.162v-9.338h3.752c1.876 0 2.926 1.288 2.926 2.814s-1.064 2.814-2.926 2.814h-2.59V83zm2.45-4.746c1.106 0 1.862-.728 1.862-1.778s-.756-1.778-1.862-1.778h-2.45v3.556h2.45zM30.882 83h-1.05v-.952c-.518.588-1.4 1.12-2.408 1.12-1.414 0-2.156-.7-2.156-2.156v-4.774h1.05v4.452c0 1.19.602 1.54 1.526 1.54.812 0 1.596-.476 1.988-1.022v-4.97h1.05V83zm3.15 0h-1.05v-6.762h1.05v1.078c.546-.7 1.33-1.232 2.254-1.232v1.078a3.468 3.468 0 00-.406-.028c-.658 0-1.54.532-1.848 1.078V83zm6.552.168c-2.016 0-3.374-1.554-3.374-3.556s1.358-3.542 3.374-3.542c1.232 0 1.96.504 2.478 1.176l-.7.63c-.448-.616-1.022-.868-1.722-.868-1.428 0-2.338 1.106-2.338 2.604s.91 2.618 2.338 2.618c.7 0 1.274-.28 1.722-.882l.7.644c-.518.672-1.246 1.176-2.478 1.176zm9.59-.168h-1.05v-4.452c0-1.204-.602-1.54-1.526-1.54-.812 0-1.596.504-1.988 1.05V83h-1.05v-9.338h1.05v3.556c.462-.574 1.386-1.148 2.408-1.148 1.414 0 2.156.686 2.156 2.156V83zm7.378 0h-1.05v-.77c-.546.616-1.33.938-2.24.938-1.134 0-2.352-.77-2.352-2.24 0-1.526 1.204-2.226 2.352-2.226.924 0 1.694.294 2.24.91v-1.218c0-.896-.728-1.414-1.708-1.414-.812 0-1.47.28-2.072.938l-.49-.728c.728-.756 1.596-1.12 2.702-1.12 1.442 0 2.618.644 2.618 2.282V83zm-2.898-.588c.728 0 1.442-.28 1.848-.84v-1.288c-.406-.546-1.12-.826-1.848-.826-.994 0-1.68.616-1.68 1.47 0 .868.686 1.484 1.68 1.484zm7.168.756c-1.12 0-2.044-.35-2.73-1.064l.532-.756c.448.518 1.302.966 2.226.966 1.036 0 1.61-.49 1.61-1.162 0-1.638-4.186-.63-4.186-3.136 0-1.064.896-1.946 2.506-1.946 1.162 0 1.974.434 2.506.98l-.49.728c-.406-.49-1.134-.854-2.016-.854-.924 0-1.498.462-1.498 1.064 0 1.47 4.186.504 4.186 3.136 0 1.134-.91 2.044-2.646 2.044zm7.42 0c-2.016 0-3.458-1.442-3.458-3.556 0-1.96 1.4-3.542 3.332-3.542 2.044 0 3.248 1.596 3.248 3.626v.266h-5.46c.084 1.274.966 2.338 2.422 2.338.784 0 1.554-.308 2.1-.868l.504.686c-.686.672-1.596 1.05-2.688 1.05zm2.086-3.99c-.014-.994-.686-2.24-2.226-2.24-1.442 0-2.156 1.218-2.212 2.24h4.438zM80.008 83h-1.05v-1.008c-.504.686-1.33 1.176-2.282 1.176-1.764 0-3.01-1.344-3.01-3.542 0-2.17 1.246-3.556 3.01-3.556.91 0 1.736.448 2.282 1.19v-3.598h1.05V83zm-3.066-.77c.826 0 1.652-.49 2.016-1.078V78.1c-.364-.588-1.19-1.092-2.016-1.092-1.372 0-2.184 1.12-2.184 2.618 0 1.498.812 2.604 2.184 2.604zm9.324-6.958a.705.705 0 01-.714-.7c0-.392.322-.714.714-.714.392 0 .7.322.7.714 0 .392-.308.7-.7.7zM86.784 83h-1.05v-6.762h1.05V83zm3.822.168c-1.008 0-1.512-.574-1.512-1.582v-4.424h-1.12v-.924h1.12V74.39h1.064v1.848h1.372v.924h-1.372v4.2c0 .504.224.868.672.868.308 0 .574-.14.714-.294l.308.798c-.266.252-.644.434-1.246.434zm5.46 0c-2.016 0-3.458-1.442-3.458-3.556 0-1.96 1.4-3.542 3.332-3.542 2.044 0 3.248 1.596 3.248 3.626v.266h-5.46c.084 1.274.966 2.338 2.422 2.338.784 0 1.554-.308 2.1-.868l.504.686c-.686.672-1.596 1.05-2.688 1.05zm2.086-3.99c-.014-.994-.686-2.24-2.226-2.24-1.442 0-2.156 1.218-2.212 2.24h4.438zM110.094 83h-1.05v-4.592c0-.854-.364-1.4-1.246-1.4-.7 0-1.442.49-1.792 1.036V83h-1.05v-4.592c0-.854-.35-1.4-1.246-1.4-.686 0-1.414.504-1.778 1.05V83h-1.05v-6.762h1.05v.98c.294-.434 1.19-1.148 2.198-1.148 1.022 0 1.61.56 1.806 1.26.378-.616 1.288-1.26 2.268-1.26 1.232 0 1.89.686 1.89 2.044V83zm8.442 2.744c-1.134 0-1.918-.224-2.73-1.022l.532-.756c.56.658 1.232.91 2.198.91 1.12 0 2.184-.546 2.184-1.974V81.88c-.504.686-1.33 1.204-2.282 1.204-1.764 0-3.01-1.316-3.01-3.5 0-2.17 1.232-3.514 3.01-3.514.91 0 1.736.448 2.282 1.19v-1.022h1.05v6.664c0 2.142-1.582 2.842-3.234 2.842zm.168-3.598c.826 0 1.638-.504 2.016-1.092v-2.968c-.378-.574-1.19-1.078-2.016-1.078-1.372 0-2.184 1.078-2.184 2.576 0 1.484.812 2.562 2.184 2.562zm6.216.854h-1.05v-6.762h1.05v1.078c.546-.7 1.33-1.232 2.254-1.232v1.078a3.468 3.468 0 00-.406-.028c-.658 0-1.54.532-1.848 1.078V83zm6.636.168c-2.016 0-3.458-1.442-3.458-3.556 0-1.96 1.4-3.542 3.332-3.542 2.044 0 3.248 1.596 3.248 3.626v.266h-5.46c.084 1.274.966 2.338 2.422 2.338.784 0 1.554-.308 2.1-.868l.504.686c-.686.672-1.596 1.05-2.688 1.05zm2.086-3.99c-.014-.994-.686-2.24-2.226-2.24-1.442 0-2.156 1.218-2.212 2.24h4.438zM141.65 83h-1.05v-.77c-.546.616-1.33.938-2.24.938-1.134 0-2.352-.77-2.352-2.24 0-1.526 1.204-2.226 2.352-2.226.924 0 1.694.294 2.24.91v-1.218c0-.896-.728-1.414-1.708-1.414-.812 0-1.47.28-2.072.938l-.49-.728c.728-.756 1.596-1.12 2.702-1.12 1.442 0 2.618.644 2.618 2.282V83zm-2.898-.588c.728 0 1.442-.28 1.848-.84v-1.288c-.406-.546-1.12-.826-1.848-.826-.994 0-1.68.616-1.68 1.47 0 .868.686 1.484 1.68 1.484zm6.734.756c-1.008 0-1.512-.574-1.512-1.582v-4.424h-1.12v-.924h1.12V74.39h1.064v1.848h1.372v.924h-1.372v4.2c0 .504.224.868.672.868.308 0 .574-.14.714-.294l.308.798c-.266.252-.644.434-1.246.434zm5.46 0c-2.016 0-3.458-1.442-3.458-3.556 0-1.96 1.4-3.542 3.332-3.542 2.044 0 3.248 1.596 3.248 3.626v.266h-5.46c.084 1.274.966 2.338 2.422 2.338.784 0 1.554-.308 2.1-.868l.504.686c-.686.672-1.596 1.05-2.688 1.05zm2.086-3.99c-.014-.994-.686-2.24-2.226-2.24-1.442 0-2.156 1.218-2.212 2.24h4.438zm3.78 3.822h-1.05v-6.762h1.05v1.078c.546-.7 1.33-1.232 2.254-1.232v1.078a3.468 3.468 0 00-.406-.028c-.658 0-1.54.532-1.848 1.078V83zm8.918.168c-1.008 0-1.512-.574-1.512-1.582v-4.424h-1.12v-.924h1.12V74.39h1.064v1.848h1.372v.924h-1.372v4.2c0 .504.224.868.672.868.308 0 .574-.14.714-.294l.308.798c-.266.252-.644.434-1.246.434zm8.022-.168h-1.05v-4.452c0-1.204-.602-1.54-1.526-1.54-.812 0-1.596.504-1.988 1.05V83h-1.05v-9.338h1.05v3.556c.462-.574 1.386-1.148 2.408-1.148 1.414 0 2.156.686 2.156 2.156V83zm7.378 0h-1.05v-.77c-.546.616-1.33.938-2.24.938-1.134 0-2.352-.77-2.352-2.24 0-1.526 1.204-2.226 2.352-2.226.924 0 1.694.294 2.24.91v-1.218c0-.896-.728-1.414-1.708-1.414-.812 0-1.47.28-2.072.938l-.49-.728c.728-.756 1.596-1.12 2.702-1.12 1.442 0 2.618.644 2.618 2.282V83zm-2.898-.588c.728 0 1.442-.28 1.848-.84v-1.288c-.406-.546-1.12-.826-1.848-.826-.994 0-1.68.616-1.68 1.47 0 .868.686 1.484 1.68 1.484zm10.626.588h-1.036v-4.424c0-1.204-.616-1.568-1.526-1.568-.826 0-1.596.504-2.002 1.05V83h-1.05v-6.762h1.05v.98c.476-.574 1.4-1.148 2.422-1.148 1.4 0 2.142.714 2.142 2.184V83zM20.004 101.168c-2.058 0-3.346-1.596-3.346-3.556s1.288-3.542 3.346-3.542 3.346 1.582 3.346 3.542c0 1.96-1.288 3.556-3.346 3.556zm0-.938c1.442 0 2.24-1.232 2.24-2.618 0-1.372-.798-2.604-2.24-2.604-1.442 0-2.24 1.232-2.24 2.604 0 1.386.798 2.618 2.24 2.618zm6.104.77h-1.05v-6.762h1.05v1.078c.546-.7 1.33-1.232 2.254-1.232v1.078a3.468 3.468 0 00-.406-.028c-.658 0-1.54.532-1.848 1.078V101zm10.262.168c-2.016 0-3.458-1.442-3.458-3.556 0-1.96 1.4-3.542 3.332-3.542 2.044 0 3.248 1.596 3.248 3.626v.266h-5.46c.084 1.274.966 2.338 2.422 2.338.784 0 1.554-.308 2.1-.868l.504.686c-.686.672-1.596 1.05-2.688 1.05zm2.086-3.99c-.014-.994-.686-2.24-2.226-2.24-1.442 0-2.156 1.218-2.212 2.24h4.438zm5.572 3.052c.826 0 1.652-.504 2.016-1.092v-3.052c-.364-.588-1.19-1.078-2.016-1.078-1.358 0-2.17 1.106-2.17 2.604s.812 2.618 2.17 2.618zm-.266.938c-1.778 0-3.01-1.372-3.01-3.556 0-2.198 1.232-3.542 3.01-3.542.952 0 1.792.49 2.282 1.176v-1.008h1.05v9.338h-1.05v-3.598c-.56.742-1.358 1.19-2.282 1.19zM54.808 101h-1.05v-.952c-.518.588-1.4 1.12-2.408 1.12-1.414 0-2.156-.7-2.156-2.156v-4.774h1.05v4.452c0 1.19.602 1.54 1.526 1.54.812 0 1.596-.476 1.988-1.022v-4.97h1.05V101zm7.378 0h-1.05v-.77c-.546.616-1.33.938-2.24.938-1.134 0-2.352-.77-2.352-2.24 0-1.526 1.204-2.226 2.352-2.226.924 0 1.694.294 2.24.91v-1.218c0-.896-.728-1.414-1.708-1.414-.812 0-1.47.28-2.072.938l-.49-.728c.728-.756 1.596-1.12 2.702-1.12 1.442 0 2.618.644 2.618 2.282V101zm-2.898-.588c.728 0 1.442-.28 1.848-.84v-1.288c-.406-.546-1.12-.826-1.848-.826-.994 0-1.68.616-1.68 1.47 0 .868.686 1.484 1.68 1.484zm6.062.588H64.3v-9.338h1.05V101zm7.448.168c-1.008 0-1.512-.574-1.512-1.582v-4.424h-1.12v-.924h1.12V92.39h1.064v1.848h1.372v.924H72.35v4.2c0 .504.224.868.672.868.308 0 .574-.14.714-.294l.308.798c-.266.252-.644.434-1.246.434zm5.348 0c-2.058 0-3.346-1.596-3.346-3.556s1.288-3.542 3.346-3.542 3.346 1.582 3.346 3.542c0 1.96-1.288 3.556-3.346 3.556zm0-.938c1.442 0 2.24-1.232 2.24-2.618 0-1.372-.798-2.604-2.24-2.604-1.442 0-2.24 1.232-2.24 2.604 0 1.386.798 2.618 2.24 2.618zm11.284.77h-1.162v-7.812l-1.498 1.596-.7-.714 2.338-2.408h1.022V101zm7.49.168c-1.008 0-1.512-.574-1.512-1.582v-4.424h-1.12v-.924h1.12V92.39h1.064v1.848h1.372v.924h-1.372v4.2c0 .504.224.868.672.868.308 0 .574-.14.714-.294l.308.798c-.266.252-.644.434-1.246.434zm2.926-7.896a.705.705 0 01-.714-.7c0-.392.322-.714.714-.714.392 0 .7.322.7.714 0 .392-.308.7-.7.7zm.518 7.728h-1.05v-6.762h1.05V101zm11.312 0h-1.05v-4.592c0-.854-.364-1.4-1.246-1.4-.7 0-1.442.49-1.792 1.036V101h-1.05v-4.592c0-.854-.35-1.4-1.246-1.4-.686 0-1.414.504-1.778 1.05V101h-1.05v-6.762h1.05v.98c.294-.434 1.19-1.148 2.198-1.148 1.022 0 1.61.56 1.806 1.26.378-.616 1.288-1.26 2.268-1.26 1.232 0 1.89.686 1.89 2.044V101zm5.166.168c-2.016 0-3.458-1.442-3.458-3.556 0-1.96 1.4-3.542 3.332-3.542 2.044 0 3.248 1.596 3.248 3.626v.266h-5.46c.084 1.274.966 2.338 2.422 2.338.784 0 1.554-.308 2.1-.868l.504.686c-.686.672-1.596 1.05-2.688 1.05zm2.086-3.99c-.014-.994-.686-2.24-2.226-2.24-1.442 0-2.156 1.218-2.212 2.24h4.438zm4.886 3.99c-1.12 0-2.044-.35-2.73-1.064l.532-.756c.448.518 1.302.966 2.226.966 1.036 0 1.61-.49 1.61-1.162 0-1.638-4.186-.63-4.186-3.136 0-1.064.896-1.946 2.506-1.946 1.162 0 1.974.434 2.506.98l-.49.728c-.406-.49-1.134-.854-2.016-.854-.924 0-1.498.462-1.498 1.064 0 1.47 4.186.504 4.186 3.136 0 1.134-.91 2.044-2.646 2.044zm10.934 0c-2.058 0-3.346-1.596-3.346-3.556s1.288-3.542 3.346-3.542 3.346 1.582 3.346 3.542c0 1.96-1.288 3.556-3.346 3.556zm0-.938c1.442 0 2.24-1.232 2.24-2.618 0-1.372-.798-2.604-2.24-2.604-1.442 0-2.24 1.232-2.24 2.604 0 1.386.798 2.618 2.24 2.618zm8.008.77h-1.148l-2.814-6.762h1.148l2.24 5.544 2.254-5.544h1.134L142.756 101zm6.972.168c-2.016 0-3.458-1.442-3.458-3.556 0-1.96 1.4-3.542 3.332-3.542 2.044 0 3.248 1.596 3.248 3.626v.266h-5.46c.084 1.274.966 2.338 2.422 2.338.784 0 1.554-.308 2.1-.868l.504.686c-.686.672-1.596 1.05-2.688 1.05zm2.086-3.99c-.014-.994-.686-2.24-2.226-2.24-1.442 0-2.156 1.218-2.212 2.24h4.438zm3.78 3.822h-1.05v-6.762h1.05v1.078c.546-.7 1.33-1.232 2.254-1.232v1.078a3.468 3.468 0 00-.406-.028c-.658 0-1.54.532-1.848 1.078V101z" opacity=".5"/><path fill="#384254" fill-rule="nonzero" d="M48.344 34h-6.066V21.994h5.904c2.214 0 3.42 1.368 3.42 3.06 0 1.494-.972 2.52-2.088 2.754 1.296.198 2.322 1.476 2.322 2.934 0 1.872-1.224 3.258-3.492 3.258zm-.576-7.056c1.062 0 1.674-.63 1.674-1.548 0-.882-.612-1.548-1.674-1.548h-3.384v3.096h3.384zm.09 5.202c1.134 0 1.818-.63 1.818-1.674 0-.9-.63-1.674-1.818-1.674h-3.474v3.348h3.474zM55.796 34h-1.89v-8.694h1.89v1.26c.666-.828 1.71-1.476 2.826-1.476v1.872a2.609 2.609 0 00-.576-.054c-.81 0-1.872.54-2.25 1.17V34zm11.574 0h-1.89v-.954c-.648.756-1.674 1.17-2.826 1.17-1.404 0-3.006-.972-3.006-2.88 0-2.016 1.584-2.844 3.006-2.844 1.188 0 2.178.378 2.826 1.116v-1.296c0-1.008-.846-1.62-2.034-1.62-.972 0-1.836.36-2.574 1.116l-.792-1.314c1.008-.972 2.268-1.404 3.654-1.404 1.944 0 3.636.81 3.636 3.132V34zm-3.96-1.08c.81 0 1.62-.306 2.07-.9v-1.332c-.45-.594-1.26-.9-2.07-.9-1.062 0-1.872.63-1.872 1.566 0 .954.81 1.566 1.872 1.566zM77.594 34h-1.89v-5.436c0-1.368-.702-1.8-1.764-1.8-.954 0-1.782.576-2.232 1.152V34h-1.89v-8.694h1.89v1.17c.576-.684 1.71-1.386 3.078-1.386 1.872 0 2.808 1.008 2.808 2.79V34zm6.408.216c-2.628 0-4.482-1.944-4.482-4.572s1.854-4.554 4.482-4.554c1.71 0 2.718.72 3.33 1.548l-1.242 1.134c-.486-.684-1.152-1.008-1.998-1.008-1.566 0-2.628 1.188-2.628 2.88s1.062 2.898 2.628 2.898c.846 0 1.512-.36 1.998-1.044l1.242 1.17c-.612.81-1.62 1.548-3.33 1.548zM96.782 34h-1.89v-5.472c0-1.368-.684-1.764-1.746-1.764-.972 0-1.8.576-2.232 1.152V34h-1.89V21.994h1.89v4.482c.576-.684 1.692-1.386 3.06-1.386 1.872 0 2.808.972 2.808 2.754V34z"/><path fill="#FFC111" d="M23 31h.896a.5.5 0 01.377.83l-2.399 2.74a.5.5 0 01-.752 0l-2.398-2.74A.5.5 0 0119.1 31h.9v-2.75a.5.5 0 01.2-.4l3.6-2.7a.5.5 0 00.2-.4V20.5a.5.5 0 01.5-.5h2a.5.5 0 01.5.5V24h.002v.75a.5.5 0 00.2.4l3.6 2.7a.5.5 0 01.2.4V29H31v2h.896a.5.5 0 01.377.83l-2.399 2.74a.5.5 0 01-.752 0l-2.398-2.74A.5.5 0 0127.1 31h.9v-1.79a.5.5 0 00-.198-.36L25.5 27.124l-2.3 1.726a.5.5 0 00-.2.4V31z" opacity=".6"/></g><g transform="translate(169 140)"><use fill="#000" filter="url(#e)" xlink:href="#f"/><use fill="#FFF" stroke="#8D8D8D" stroke-opacity=".24" xlink:href="#f"/><path fill="#384254" fill-rule="nonzero" d="M25.492 63h-1.26l-2.058-7.532L20.116 63h-1.26l-2.66-9.338h1.288l2.072 7.784 2.142-7.784h.966l2.142 7.784 2.058-7.784h1.302L25.492 63zm8.638 0h-1.05v-.77c-.546.616-1.33.938-2.24.938-1.134 0-2.352-.77-2.352-2.24 0-1.526 1.204-2.226 2.352-2.226.924 0 1.694.294 2.24.91v-1.218c0-.896-.728-1.414-1.708-1.414-.812 0-1.47.28-2.072.938l-.49-.728c.728-.756 1.596-1.12 2.702-1.12 1.442 0 2.618.644 2.618 2.282V63zm-2.898-.588c.728 0 1.442-.28 1.848-.84v-1.288c-.406-.546-1.12-.826-1.848-.826-.994 0-1.68.616-1.68 1.47 0 .868.686 1.484 1.68 1.484zm5.544-7.14a.705.705 0 01-.714-.7c0-.392.322-.714.714-.714.392 0 .7.322.7.714 0 .392-.308.7-.7.7zM37.294 63h-1.05v-6.762h1.05V63zm3.822.168c-1.008 0-1.512-.574-1.512-1.582v-4.424h-1.12v-.924h1.12V54.39h1.064v1.848h1.372v.924h-1.372v4.2c0 .504.224.868.672.868.308 0 .574-.14.714-.294l.308.798c-.266.252-.644.434-1.246.434zM48.48 63h-1.05v-5.838h-1.12v-.924h1.12v-.518c0-1.386.77-2.198 1.96-2.198.546 0 1.008.126 1.428.518l-.434.672a1.214 1.214 0 00-.826-.322c-.7 0-1.078.462-1.078 1.33v.518h1.372v.924H48.48V63zm5.586.168c-2.058 0-3.346-1.596-3.346-3.556s1.288-3.542 3.346-3.542 3.346 1.582 3.346 3.542c0 1.96-1.288 3.556-3.346 3.556zm0-.938c1.442 0 2.24-1.232 2.24-2.618 0-1.372-.798-2.604-2.24-2.604-1.442 0-2.24 1.232-2.24 2.604 0 1.386.798 2.618 2.24 2.618zm6.104.77h-1.05v-6.762h1.05v1.078c.546-.7 1.33-1.232 2.254-1.232v1.078c-.126-.014-.252-.028-.406-.028-.658 0-1.54.532-1.848 1.078V63zm13.608 0h-6.762v-1.302c3.626-2.744 5.054-3.948 5.054-5.306 0-.98-.854-1.414-1.708-1.414-1.092 0-1.918.434-2.52 1.106l-.952-1.064c.826-1.008 2.142-1.498 3.458-1.498 1.806 0 3.374 1.008 3.374 2.87 0 1.736-1.582 3.276-4.074 5.166h4.13V63zm11.662 0h-1.47v-.924c-.518.672-1.288 1.092-2.17 1.092-1.722 0-2.996-1.316-2.996-3.556 0-2.184 1.26-3.542 2.996-3.542.854 0 1.638.378 2.17 1.106v-3.514h1.47V63zm-3.206-1.134c.686 0 1.414-.406 1.736-.91v-2.674c-.322-.504-1.05-.91-1.736-.91-1.176 0-1.918.938-1.918 2.24 0 1.316.742 2.254 1.918 2.254zM92.958 63h-1.47v-.742c-.504.588-1.302.91-2.198.91-1.092 0-2.338-.756-2.338-2.24 0-1.568 1.232-2.212 2.338-2.212.924 0 1.694.294 2.198.868v-1.008c0-.784-.658-1.26-1.582-1.26-.756 0-1.428.28-2.002.868l-.616-1.022c.784-.756 1.764-1.092 2.842-1.092 1.512 0 2.828.63 2.828 2.436V63zm-3.08-.84c.63 0 1.26-.238 1.61-.7v-1.036c-.35-.462-.98-.7-1.61-.7-.826 0-1.456.49-1.456 1.218 0 .742.63 1.218 1.456 1.218zm4.704 3.486l.21-1.316c.154.07.392.112.56.112.476 0 .784-.14.98-.588l.336-.77-2.786-6.846h1.582l1.974 5.068 1.974-5.068h1.568l-3.262 7.98c-.462 1.148-1.26 1.512-2.31 1.526-.21 0-.63-.042-.826-.098zm9.646-2.478c-1.162 0-2.198-.378-2.898-1.064l.672-1.05c.476.49 1.414.938 2.282.938.882 0 1.344-.364 1.344-.896 0-1.33-4.088-.378-4.088-2.982 0-1.106.952-2.044 2.66-2.044 1.148 0 2.016.406 2.618.938l-.616 1.036c-.406-.448-1.148-.812-2.002-.812-.77 0-1.246.364-1.246.84 0 1.19 4.088.294 4.088 2.982 0 1.204-.994 2.114-2.814 2.114zM46.76 34h-4.482V21.994h4.464c3.762 0 6.282 2.484 6.282 5.994 0 3.546-2.52 6.012-6.264 6.012zm-.018-1.854c2.61 0 4.122-1.872 4.122-4.158 0-2.304-1.44-4.14-4.104-4.14h-2.376v8.298h2.358zm12.294 2.07c-2.628 0-4.554-1.818-4.554-4.572 0-2.52 1.836-4.554 4.41-4.554 2.61 0 4.266 1.98 4.266 4.716v.468h-6.696c.144 1.296 1.116 2.394 2.754 2.394.864 0 1.854-.342 2.484-.972l.864 1.242c-.882.828-2.16 1.278-3.528 1.278zm2.304-5.292c-.054-1.026-.756-2.286-2.466-2.286-1.602 0-2.358 1.242-2.43 2.286h4.896zM66.92 34h-1.89V21.994h1.89V34zm9.666 0h-1.89v-.954c-.648.756-1.674 1.17-2.826 1.17-1.404 0-3.006-.972-3.006-2.88 0-2.016 1.584-2.844 3.006-2.844 1.188 0 2.178.378 2.826 1.116v-1.296c0-1.008-.846-1.62-2.034-1.62-.972 0-1.836.36-2.574 1.116l-.792-1.314c1.008-.972 2.268-1.404 3.654-1.404 1.944 0 3.636.81 3.636 3.132V34zm-3.96-1.08c.81 0 1.62-.306 2.07-.9v-1.332c-.45-.594-1.26-.9-2.07-.9-1.062 0-1.872.63-1.872 1.566 0 .954.81 1.566 1.872 1.566zm6.048 4.482l.27-1.692c.198.09.504.144.72.144.612 0 1.008-.18 1.26-.756l.432-.99-3.582-8.802h2.034l2.538 6.516 2.538-6.516H86.9l-4.194 10.26c-.594 1.476-1.62 1.944-2.97 1.962-.27 0-.81-.054-1.062-.126z"/><path fill="#6F0DFB" d="M25.627 29.334l1.64 1.64a.5.5 0 10.708-.706l-1.64-1.64A.843.843 0 0026 27.82V24.5a.5.5 0 00-1 0v3.32a.844.844 0 00.627 1.514zM25 22.02V21h-1a.5.5 0 010-1h3a.5.5 0 110 1h-1v1.02a6.5 6.5 0 11-1 0z" opacity=".6"/></g><g transform="translate(16 451)"><use fill="#000" filter="url(#g)" xlink:href="#h"/><use fill="#FFF" stroke="#8D8D8D" stroke-opacity=".24" xlink:href="#h"/><path fill="#384254" fill-rule="nonzero" d="M20.326 63h-1.638v-7.224l-1.526 1.596-.952-.994 2.688-2.716h1.428V63zm5.32.168c-2.632 0-3.738-2.492-3.738-4.83 0-2.352 1.106-4.816 3.738-4.816 2.618 0 3.724 2.464 3.724 4.816 0 2.338-1.106 4.83-3.724 4.83zm0-1.456c1.512 0 2.058-1.596 2.058-3.374 0-1.792-.532-3.36-2.058-3.36-1.526 0-2.072 1.568-2.072 3.36 0 1.778.546 3.374 2.072 3.374zm7.028-3.556c-1.386 0-2.324-1.008-2.324-2.31 0-1.316.938-2.324 2.324-2.324 1.4 0 2.324 1.008 2.324 2.324 0 1.302-.924 2.31-2.324 2.31zM32.702 63h-.938l5.964-9.338h.952L32.702 63zm4.998.168c-1.386 0-2.324-1.008-2.324-2.31 0-1.316.938-2.324 2.324-2.324s2.324 1.008 2.324 2.324c0 1.302-.938 2.31-2.324 2.31zm-5.026-5.95c.728 0 1.246-.56 1.246-1.372 0-.826-.518-1.4-1.246-1.4-.714 0-1.232.574-1.232 1.4 0 .812.518 1.372 1.232 1.372zM37.7 62.23c.728 0 1.246-.56 1.246-1.372 0-.826-.518-1.4-1.246-1.4s-1.246.574-1.246 1.4c0 .812.518 1.372 1.246 1.372zm13.51.77h-1.47v-.924c-.518.672-1.288 1.092-2.17 1.092-1.722 0-2.996-1.316-2.996-3.556 0-2.184 1.26-3.542 2.996-3.542.854 0 1.638.378 2.17 1.106v-3.514h1.47V63zm-3.206-1.134c.686 0 1.414-.406 1.736-.91v-2.674c-.322-.504-1.05-.91-1.736-.91-1.176 0-1.918.938-1.918 2.24 0 1.316.742 2.254 1.918 2.254zm5.852-6.454a.908.908 0 01-.91-.91c0-.504.406-.91.91-.91s.91.406.91.91-.406.91-.91.91zM54.584 63h-1.47v-6.762h1.47V63zm4.228.168c-1.162 0-2.198-.378-2.898-1.064l.672-1.05c.476.49 1.414.938 2.282.938.882 0 1.344-.364 1.344-.896 0-1.33-4.088-.378-4.088-2.982 0-1.106.952-2.044 2.66-2.044 1.148 0 2.016.406 2.618.938l-.616 1.036c-.406-.448-1.148-.812-2.002-.812-.77 0-1.246.364-1.246.84 0 1.19 4.088.294 4.088 2.982 0 1.204-.994 2.114-2.814 2.114zm7.364 0c-2.044 0-3.486-1.512-3.486-3.556s1.442-3.542 3.486-3.542c1.33 0 2.114.56 2.59 1.204l-.966.882c-.378-.532-.896-.784-1.554-.784-1.218 0-2.044.924-2.044 2.24 0 1.316.826 2.254 2.044 2.254.658 0 1.176-.28 1.554-.812l.966.91c-.476.63-1.26 1.204-2.59 1.204zm6.958 0c-2.156 0-3.472-1.624-3.472-3.556 0-1.946 1.316-3.542 3.472-3.542 2.156 0 3.472 1.596 3.472 3.542 0 1.932-1.316 3.556-3.472 3.556zm0-1.302c1.26 0 1.946-1.05 1.946-2.254 0-1.19-.686-2.24-1.946-2.24-1.246 0-1.946 1.05-1.946 2.24 0 1.204.7 2.254 1.946 2.254zM84.138 63h-1.47v-.896a3.234 3.234 0 01-2.38 1.064c-1.456 0-2.184-.77-2.184-2.142v-4.788h1.47v4.242c0 1.05.532 1.386 1.372 1.386.742 0 1.386-.434 1.722-.882v-4.746h1.47V63zm7.952 0h-1.47v-4.228c0-1.064-.546-1.4-1.372-1.4-.742 0-1.386.448-1.736.896V63h-1.47v-6.762h1.47v.91c.448-.532 1.33-1.078 2.394-1.078 1.456 0 2.184.784 2.184 2.17V63zm3.948.168c-1.148 0-1.736-.616-1.736-1.75v-3.906h-1.12v-1.274h1.12V54.39h1.47v1.848h1.372v1.274h-1.372v3.542c0 .462.224.812.644.812.28 0 .532-.126.644-.252l.35 1.12c-.266.238-.7.434-1.372.434zm7.868-.168h-1.47v-5.488h-1.12v-1.274h1.12v-.378c0-1.47.854-2.338 2.128-2.338.616 0 1.218.154 1.624.588l-.574.91a1.091 1.091 0 00-.77-.294c-.588 0-.938.378-.938 1.134v.378h1.372v1.274h-1.372V63zm5.558.168c-2.156 0-3.472-1.624-3.472-3.556 0-1.946 1.316-3.542 3.472-3.542 2.156 0 3.472 1.596 3.472 3.542 0 1.932-1.316 3.556-3.472 3.556zm0-1.302c1.26 0 1.946-1.05 1.946-2.254 0-1.19-.686-2.24-1.946-2.24-1.246 0-1.946 1.05-1.946 2.24 0 1.204.7 2.254 1.946 2.254zm6.44 1.134h-1.47v-6.762h1.47v.98c.518-.644 1.33-1.148 2.198-1.148v1.456a2.029 2.029 0 00-.448-.042c-.63 0-1.456.42-1.75.91V63zm6.72 2.646l.21-1.316c.154.07.392.112.56.112.476 0 .784-.14.98-.588l.336-.77-2.786-6.846h1.582l1.974 5.068 1.974-5.068h1.568l-3.262 7.98c-.462 1.148-1.26 1.512-2.31 1.526-.21 0-.63-.042-.826-.098zm10.388-2.478c-2.156 0-3.472-1.624-3.472-3.556 0-1.946 1.316-3.542 3.472-3.542 2.156 0 3.472 1.596 3.472 3.542 0 1.932-1.316 3.556-3.472 3.556zm0-1.302c1.26 0 1.946-1.05 1.946-2.254 0-1.19-.686-2.24-1.946-2.24-1.246 0-1.946 1.05-1.946 2.24 0 1.204.7 2.254 1.946 2.254zM144.016 63h-1.47v-.896a3.234 3.234 0 01-2.38 1.064c-1.456 0-2.184-.77-2.184-2.142v-4.788h1.47v4.242c0 1.05.532 1.386 1.372 1.386.742 0 1.386-.434 1.722-.882v-4.746h1.47V63zm11.13 0h-1.47v-.742c-.504.588-1.302.91-2.198.91-1.092 0-2.338-.756-2.338-2.24 0-1.568 1.232-2.212 2.338-2.212.924 0 1.694.294 2.198.868v-1.008c0-.784-.658-1.26-1.582-1.26-.756 0-1.428.28-2.002.868l-.616-1.022c.784-.756 1.764-1.092 2.842-1.092 1.512 0 2.828.63 2.828 2.436V63zm-3.08-.84c.63 0 1.26-.238 1.61-.7v-1.036c-.35-.462-.98-.7-1.61-.7-.826 0-1.456.49-1.456 1.218 0 .742.63 1.218 1.456 1.218zm11.032.84h-1.47v-4.228c0-1.064-.546-1.4-1.372-1.4-.742 0-1.386.448-1.736.896V63h-1.47v-6.762h1.47v.91c.448-.532 1.33-1.078 2.394-1.078 1.456 0 2.184.784 2.184 2.17V63zm8.134 0h-1.47v-.924c-.518.672-1.288 1.092-2.17 1.092-1.722 0-2.996-1.316-2.996-3.556 0-2.184 1.26-3.542 2.996-3.542.854 0 1.638.378 2.17 1.106v-3.514h1.47V63zm-3.206-1.134c.686 0 1.414-.406 1.736-.91v-2.674c-.322-.504-1.05-.91-1.736-.91-1.176 0-1.918.938-1.918 2.24 0 1.316.742 2.254 1.918 2.254zm8.442 3.78l.21-1.316c.154.07.392.112.56.112.476 0 .784-.14.98-.588l.336-.77-2.786-6.846h1.582l1.974 5.068 1.974-5.068h1.568l-3.262 7.98c-.462 1.148-1.26 1.512-2.31 1.526-.21 0-.63-.042-.826-.098zm10.388-2.478c-2.156 0-3.472-1.624-3.472-3.556 0-1.946 1.316-3.542 3.472-3.542 2.156 0 3.472 1.596 3.472 3.542 0 1.932-1.316 3.556-3.472 3.556zm0-1.302c1.26 0 1.946-1.05 1.946-2.254 0-1.19-.686-2.24-1.946-2.24-1.246 0-1.946 1.05-1.946 2.24 0 1.204.7 2.254 1.946 2.254zM197.86 63h-1.47v-.896a3.234 3.234 0 01-2.38 1.064c-1.456 0-2.184-.77-2.184-2.142v-4.788h1.47v4.242c0 1.05.532 1.386 1.372 1.386.742 0 1.386-.434 1.722-.882v-4.746h1.47V63zm3.374 0h-1.47v-6.762h1.47v.98c.518-.644 1.33-1.148 2.198-1.148v1.456a2.029 2.029 0 00-.448-.042c-.63 0-1.456.42-1.75.91V63zM18.786 81h-1.47v-5.488h-1.12v-1.274h1.12v-.378c0-1.47.854-2.338 2.128-2.338.616 0 1.218.154 1.624.588l-.574.91a1.091 1.091 0 00-.77-.294c-.588 0-.938.378-.938 1.134v.378h1.372v1.274h-1.372V81zm3.962 0h-1.47v-6.762h1.47v.98c.518-.644 1.33-1.148 2.198-1.148v1.456a2.029 2.029 0 00-.448-.042c-.63 0-1.456.42-1.75.91V81zm4.13-7.588a.908.908 0 01-.91-.91c0-.504.406-.91.91-.91s.91.406.91.91-.406.91-.91.91zM27.606 81h-1.47v-6.762h1.47V81zm5.04.168c-2.044 0-3.542-1.414-3.542-3.556 0-1.96 1.428-3.542 3.43-3.542 2.03 0 3.318 1.54 3.318 3.668v.364h-5.208c.112 1.008.868 1.862 2.142 1.862.672 0 1.442-.266 1.932-.756l.672.966c-.686.644-1.68.994-2.744.994zm1.792-4.116c-.042-.798-.588-1.778-1.918-1.778-1.246 0-1.834.966-1.89 1.778h3.808zM43.356 81h-1.47v-4.228c0-1.064-.546-1.4-1.372-1.4-.742 0-1.386.448-1.736.896V81h-1.47v-6.762h1.47v.91c.448-.532 1.33-1.078 2.394-1.078 1.456 0 2.184.784 2.184 2.17V81zm8.134 0h-1.47v-.924c-.518.672-1.288 1.092-2.17 1.092-1.722 0-2.996-1.316-2.996-3.556 0-2.184 1.26-3.542 2.996-3.542.854 0 1.638.378 2.17 1.106v-3.514h1.47V81zm-3.206-1.134c.686 0 1.414-.406 1.736-.91v-2.674c-.322-.504-1.05-.91-1.736-.91-1.176 0-1.918.938-1.918 2.24 0 1.316.742 2.254 1.918 2.254zm7.434 1.302c-1.162 0-2.198-.378-2.898-1.064l.672-1.05c.476.49 1.414.938 2.282.938.882 0 1.344-.364 1.344-.896 0-1.33-4.088-.378-4.088-2.982 0-1.106.952-2.044 2.66-2.044 1.148 0 2.016.406 2.618.938l-.616 1.036c-.406-.448-1.148-.812-2.002-.812-.77 0-1.246.364-1.246.84 0 1.19 4.088.294 4.088 2.982 0 1.204-.994 2.114-2.814 2.114z"/><path fill="#384254" fill-rule="nonzero" d="M17.638 101h-1.05l1.288-5.838h-1.12l.21-.924h1.12l.112-.518c.294-1.274.924-2.198 2.226-2.198.616 0 1.092.168 1.498.574l-.56.644c-.196-.224-.448-.35-.854-.35-.714 0-1.078.49-1.26 1.33l-.112.518h1.372l-.21.924h-1.372L17.638 101zm3.682 0h-1.05l1.498-6.762h1.05l-.238 1.022c.672-.756 1.358-1.176 2.52-1.176l-.238 1.092a2.082 2.082 0 00-.532-.056c-.784 0-1.526.532-1.96 1.106L21.32 101zm6.93.168c-1.932 0-3.094-1.218-3.094-3.01 0-2.128 1.596-4.088 3.766-4.088 1.932 0 3.094 1.218 3.094 2.996 0 2.142-1.596 4.102-3.766 4.102zm.028-.938c1.54 0 2.632-1.526 2.632-3.122 0-1.274-.742-2.1-2.016-2.1-1.526 0-2.632 1.526-2.632 3.122 0 1.274.742 2.1 2.016 2.1zm13.832.77h-1.05l1.008-4.536c.014-.07.042-.238.042-.378 0-.7-.532-1.078-1.148-1.078-.658 0-1.372.504-1.848 1.064L38.022 101h-1.05l1.008-4.536c.042-.182.056-.28.056-.434 0-.588-.406-1.022-1.176-1.022-.644 0-1.344.518-1.82 1.064L33.948 101h-1.05l1.498-6.762h1.05l-.224.98c.378-.434 1.162-1.148 2.128-1.148 1.204 0 1.778.868 1.778 1.344v.014c.532-.672 1.33-1.358 2.31-1.358.938 0 1.778.574 1.778 1.666 0 .154-.042.406-.07.574L42.11 101zm10.29 0h-1.638v-7.896h-2.828v-1.442h7.294v1.442H52.4V101zm4.592 0h-1.47v-6.762h1.47v.98c.518-.644 1.33-1.148 2.198-1.148v1.456a2.029 2.029 0 00-.448-.042c-.63 0-1.456.42-1.75.91V101zm9.422 0h-1.47v-.896a3.234 3.234 0 01-2.38 1.064c-1.456 0-2.184-.77-2.184-2.142v-4.788h1.47v4.242c0 1.05.532 1.386 1.372 1.386.742 0 1.386-.434 1.722-.882v-4.746h1.47V101zm5.04.168c-2.044 0-3.542-1.414-3.542-3.556 0-1.96 1.428-3.542 3.43-3.542 2.03 0 3.318 1.54 3.318 3.668v.364h-5.208c.112 1.008.868 1.862 2.142 1.862.672 0 1.442-.266 1.932-.756l.672.966c-.686.644-1.68.994-2.744.994zm1.792-4.116c-.042-.798-.588-1.778-1.918-1.778-1.246 0-1.834.966-1.89 1.778h3.808zm9.73 4.116c-1.722 0-2.968-.616-3.808-1.484l.924-1.274a4.012 4.012 0 002.954 1.302c1.344 0 1.862-.658 1.862-1.288 0-1.96-5.432-.742-5.432-4.172 0-1.554 1.344-2.744 3.402-2.744 1.442 0 2.632.476 3.486 1.316l-.924 1.218c-.742-.742-1.736-1.078-2.716-1.078-.952 0-1.568.476-1.568 1.162 0 1.75 5.432.672 5.432 4.144 0 1.554-1.106 2.898-3.612 2.898zm6.902 0c-1.148 0-1.736-.616-1.736-1.75v-3.906h-1.12v-1.274h1.12V92.39h1.47v1.848h1.372v1.274h-1.372v3.542c0 .462.224.812.644.812.28 0 .532-.126.644-.252l.35 1.12c-.266.238-.7.434-1.372.434zm5.488 0c-2.156 0-3.472-1.624-3.472-3.556 0-1.946 1.316-3.542 3.472-3.542 2.156 0 3.472 1.596 3.472 3.542 0 1.932-1.316 3.556-3.472 3.556zm0-1.302c1.26 0 1.946-1.05 1.946-2.254 0-1.19-.686-2.24-1.946-2.24-1.246 0-1.946 1.05-1.946 2.24 0 1.204.7 2.254 1.946 2.254zm6.44 1.134h-1.47v-6.762h1.47v.98c.518-.644 1.33-1.148 2.198-1.148v1.456a2.029 2.029 0 00-.448-.042c-.63 0-1.456.42-1.75.91V101zm3.108 2.646l.21-1.316c.154.07.392.112.56.112.476 0 .784-.14.98-.588l.336-.77-2.786-6.846h1.582l1.974 5.068 1.974-5.068h1.568l-3.262 7.98c-.462 1.148-1.26 1.512-2.31 1.526-.21 0-.63-.042-.826-.098z" opacity=".5"/><path fill="#384254" fill-rule="nonzero" d="M53.584 34h-2.448l-2.646-4.482h-2.106V34h-2.106V21.994h5.274c2.376 0 3.942 1.53 3.942 3.762 0 2.124-1.404 3.294-2.862 3.528L53.584 34zm-4.302-6.336c1.188 0 2.052-.756 2.052-1.926 0-1.152-.864-1.89-2.052-1.89h-2.898v3.816h2.898zm9.756 6.552c-2.628 0-4.554-1.818-4.554-4.572 0-2.52 1.836-4.554 4.41-4.554 2.61 0 4.266 1.98 4.266 4.716v.468h-6.696c.144 1.296 1.116 2.394 2.754 2.394.864 0 1.854-.342 2.484-.972l.864 1.242c-.882.828-2.16 1.278-3.528 1.278zm2.304-5.292c-.054-1.026-.756-2.286-2.466-2.286-1.602 0-2.358 1.242-2.43 2.286h4.896zM67.39 34H65.5v-7.056h-1.44v-1.638h1.44v-.486c0-1.89 1.098-3.006 2.736-3.006.792 0 1.566.198 2.088.756l-.738 1.17a1.403 1.403 0 00-.99-.378c-.756 0-1.206.486-1.206 1.458v.486h1.764v1.638H67.39V34zm7.236.216c-2.628 0-4.554-1.818-4.554-4.572 0-2.52 1.836-4.554 4.41-4.554 2.61 0 4.266 1.98 4.266 4.716v.468h-6.696c.144 1.296 1.116 2.394 2.754 2.394.864 0 1.854-.342 2.484-.972l.864 1.242c-.882.828-2.16 1.278-3.528 1.278zm2.304-5.292c-.054-1.026-.756-2.286-2.466-2.286-1.602 0-2.358 1.242-2.43 2.286h4.896zM82.51 34h-1.89v-8.694h1.89v1.26c.666-.828 1.71-1.476 2.826-1.476v1.872a2.609 2.609 0 00-.576-.054c-.81 0-1.872.54-2.25 1.17V34zm16.218 0h-1.89v-.954c-.648.756-1.674 1.17-2.826 1.17-1.404 0-3.006-.972-3.006-2.88 0-2.016 1.584-2.844 3.006-2.844 1.188 0 2.178.378 2.826 1.116v-1.296c0-1.008-.846-1.62-2.034-1.62-.972 0-1.836.36-2.574 1.116l-.792-1.314c1.008-.972 2.268-1.404 3.654-1.404 1.944 0 3.636.81 3.636 3.132V34zm-3.96-1.08c.81 0 1.62-.306 2.07-.9v-1.332c-.45-.594-1.26-.9-2.07-.9-1.062 0-1.872.63-1.872 1.566 0 .954.81 1.566 1.872 1.566zm13.41 1.08h-1.89v-7.056h-1.44v-1.638h1.44v-.486c0-1.89 1.098-3.006 2.736-3.006.792 0 1.566.198 2.088.756l-.738 1.17a1.403 1.403 0 00-.99-.378c-.756 0-1.206.486-1.206 1.458v.486h1.764v1.638h-1.764V34zm5.094 0h-1.89v-8.694h1.89v1.26c.666-.828 1.71-1.476 2.826-1.476v1.872a2.609 2.609 0 00-.576-.054c-.81 0-1.872.54-2.25 1.17V34zm5.31-9.756c-.648 0-1.17-.522-1.17-1.17 0-.648.522-1.17 1.17-1.17.648 0 1.17.522 1.17 1.17 0 .648-.522 1.17-1.17 1.17zm.936 9.756h-1.89v-8.694h1.89V34zm6.48.216c-2.628 0-4.554-1.818-4.554-4.572 0-2.52 1.836-4.554 4.41-4.554 2.61 0 4.266 1.98 4.266 4.716v.468h-6.696c.144 1.296 1.116 2.394 2.754 2.394.864 0 1.854-.342 2.484-.972l.864 1.242c-.882.828-2.16 1.278-3.528 1.278zm2.304-5.292c-.054-1.026-.756-2.286-2.466-2.286-1.602 0-2.358 1.242-2.43 2.286h4.896zM139.768 34h-1.89v-5.436c0-1.368-.702-1.8-1.764-1.8-.954 0-1.782.576-2.232 1.152V34h-1.89v-8.694h1.89v1.17c.576-.684 1.71-1.386 3.078-1.386 1.872 0 2.808 1.008 2.808 2.79V34zm10.458 0h-1.89v-1.188c-.666.864-1.656 1.404-2.79 1.404-2.214 0-3.852-1.692-3.852-4.572 0-2.808 1.62-4.554 3.852-4.554a3.39 3.39 0 012.79 1.422v-4.518h1.89V34zm-4.122-1.458c.882 0 1.818-.522 2.232-1.17v-3.438c-.414-.648-1.35-1.17-2.232-1.17-1.512 0-2.466 1.206-2.466 2.88 0 1.692.954 2.898 2.466 2.898zm15.156 1.674c-2.772 0-4.464-2.088-4.464-4.572 0-2.502 1.692-4.554 4.464-4.554 2.772 0 4.464 2.052 4.464 4.554 0 2.484-1.692 4.572-4.464 4.572zm0-1.674c1.62 0 2.502-1.35 2.502-2.898 0-1.53-.882-2.88-2.502-2.88-1.602 0-2.502 1.35-2.502 2.88 0 1.548.9 2.898 2.502 2.898zM170.008 34h-1.89v-7.056h-1.44v-1.638h1.44v-.486c0-1.89 1.098-3.006 2.736-3.006.792 0 1.566.198 2.088.756l-.738 1.17a1.403 1.403 0 00-.99-.378c-.756 0-1.206.486-1.206 1.458v.486h1.764v1.638h-1.764V34zm5.562 0h-1.89v-7.056h-1.44v-1.638h1.44v-.486c0-1.89 1.098-3.006 2.736-3.006.792 0 1.566.198 2.088.756l-.738 1.17a1.403 1.403 0 00-.99-.378c-.756 0-1.206.486-1.206 1.458v.486h1.764v1.638h-1.764V34zm7.218.216c-2.628 0-4.554-1.818-4.554-4.572 0-2.52 1.836-4.554 4.41-4.554 2.61 0 4.266 1.98 4.266 4.716v.468h-6.696c.144 1.296 1.116 2.394 2.754 2.394.864 0 1.854-.342 2.484-.972l.864 1.242c-.882.828-2.16 1.278-3.528 1.278zm2.304-5.292c-.054-1.026-.756-2.286-2.466-2.286-1.602 0-2.358 1.242-2.43 2.286h4.896zm5.58 5.076h-1.89v-8.694h1.89v1.26c.666-.828 1.71-1.476 2.826-1.476v1.872a2.609 2.609 0 00-.576-.054c-.81 0-1.872.54-2.25 1.17V34z"/><path fill="#01B2D0" d="M18 23.992c0-1.1.893-1.992 1.992-1.992h11.016c1.1 0 1.992.9 1.992 1.992v7.016c0 1.1-.893 1.992-1.992 1.992H19.992c-1.1 0-1.992-.9-1.992-1.992v-7.016zm7.5 4.804l-5.146-5.15a.5.5 0 00-.708.707l5.5 5.503a.5.5 0 00.708 0l5.5-5.503a.5.5 0 10-.708-.706L25.5 28.796z"/></g><g transform="translate(320 451)"><use fill="#000" filter="url(#i)" xlink:href="#j"/><use fill="#FFF" stroke="#8D8D8D" stroke-opacity=".24" xlink:href="#j"/><path fill="#384254" fill-rule="nonzero" d="M20.326 63h-1.638v-7.224l-1.526 1.596-.952-.994 2.688-2.716h1.428V63zm5.32.168c-2.632 0-3.738-2.492-3.738-4.83 0-2.352 1.106-4.816 3.738-4.816 2.618 0 3.724 2.464 3.724 4.816 0 2.338-1.106 4.83-3.724 4.83zm0-1.456c1.512 0 2.058-1.596 2.058-3.374 0-1.792-.532-3.36-2.058-3.36-1.526 0-2.072 1.568-2.072 3.36 0 1.778.546 3.374 2.072 3.374zm7.028-3.556c-1.386 0-2.324-1.008-2.324-2.31 0-1.316.938-2.324 2.324-2.324 1.4 0 2.324 1.008 2.324 2.324 0 1.302-.924 2.31-2.324 2.31zM32.702 63h-.938l5.964-9.338h.952L32.702 63zm4.998.168c-1.386 0-2.324-1.008-2.324-2.31 0-1.316.938-2.324 2.324-2.324s2.324 1.008 2.324 2.324c0 1.302-.938 2.31-2.324 2.31zm-5.026-5.95c.728 0 1.246-.56 1.246-1.372 0-.826-.518-1.4-1.246-1.4-.714 0-1.232.574-1.232 1.4 0 .812.518 1.372 1.232 1.372zM37.7 62.23c.728 0 1.246-.56 1.246-1.372 0-.826-.518-1.4-1.246-1.4s-1.246.574-1.246 1.4c0 .812.518 1.372 1.246 1.372zm10.346.938c-2.156 0-3.472-1.624-3.472-3.556 0-1.946 1.316-3.542 3.472-3.542 2.156 0 3.472 1.596 3.472 3.542 0 1.932-1.316 3.556-3.472 3.556zm0-1.302c1.26 0 1.946-1.05 1.946-2.254 0-1.19-.686-2.24-1.946-2.24-1.246 0-1.946 1.05-1.946 2.24 0 1.204.7 2.254 1.946 2.254zM54.85 63h-1.47v-5.488h-1.12v-1.274h1.12v-.378c0-1.47.854-2.338 2.128-2.338.616 0 1.218.154 1.624.588l-.574.91a1.091 1.091 0 00-.77-.294c-.588 0-.938.378-.938 1.134v.378h1.372v1.274H54.85V63zm4.326 0h-1.47v-5.488h-1.12v-1.274h1.12v-.378c0-1.47.854-2.338 2.128-2.338.616 0 1.218.154 1.624.588l-.574.91a1.091 1.091 0 00-.77-.294c-.588 0-.938.378-.938 1.134v.378h1.372v1.274h-1.372V63zm5.81 2.646l.21-1.316c.154.07.392.112.56.112.476 0 .784-.14.98-.588l.336-.77-2.786-6.846h1.582l1.974 5.068 1.974-5.068h1.568l-3.262 7.98c-.462 1.148-1.26 1.512-2.31 1.526-.21 0-.63-.042-.826-.098zm10.388-2.478c-2.156 0-3.472-1.624-3.472-3.556 0-1.946 1.316-3.542 3.472-3.542 2.156 0 3.472 1.596 3.472 3.542 0 1.932-1.316 3.556-3.472 3.556zm0-1.302c1.26 0 1.946-1.05 1.946-2.254 0-1.19-.686-2.24-1.946-2.24-1.246 0-1.946 1.05-1.946 2.24 0 1.204.7 2.254 1.946 2.254zM86.378 63h-1.47v-.896a3.234 3.234 0 01-2.38 1.064c-1.456 0-2.184-.77-2.184-2.142v-4.788h1.47v4.242c0 1.05.532 1.386 1.372 1.386.742 0 1.386-.434 1.722-.882v-4.746h1.47V63zm3.374 0h-1.47v-6.762h1.47v.98c.518-.644 1.33-1.148 2.198-1.148v1.456a2.029 2.029 0 00-.448-.042c-.63 0-1.456.42-1.75.91V63zm8.834 0h-1.47v-5.488h-1.12v-1.274h1.12v-.378c0-1.512.896-2.338 2.128-2.338.476 0 .882.084 1.19.252l-.322 1.106a1.078 1.078 0 00-.588-.154c-.588 0-.938.378-.938 1.134v.378h1.372v1.274h-1.372V63zm3.234-7.588a.908.908 0 01-.91-.91c0-.504.406-.91.91-.91s.91.406.91.91-.406.91-.91.91zm.728 7.588h-1.47v-6.762h1.47V63zm3.374 0h-1.47v-6.762h1.47v.98c.518-.644 1.33-1.148 2.198-1.148v1.456a2.029 2.029 0 00-.448-.042c-.63 0-1.456.42-1.75.91V63zm5.712.168c-1.162 0-2.198-.378-2.898-1.064l.672-1.05c.476.49 1.414.938 2.282.938.882 0 1.344-.364 1.344-.896 0-1.33-4.088-.378-4.088-2.982 0-1.106.952-2.044 2.66-2.044 1.148 0 2.016.406 2.618.938l-.616 1.036c-.406-.448-1.148-.812-2.002-.812-.77 0-1.246.364-1.246.84 0 1.19 4.088.294 4.088 2.982 0 1.204-.994 2.114-2.814 2.114zm6.328 0c-1.148 0-1.736-.616-1.736-1.75v-3.906h-1.12v-1.274h1.12V54.39h1.47v1.848h1.372v1.274h-1.372v3.542c0 .462.224.812.644.812.28 0 .532-.126.644-.252l.35 1.12c-.266.238-.7.434-1.372.434zm9.1 0c-2.156 0-3.472-1.624-3.472-3.556 0-1.946 1.316-3.542 3.472-3.542 2.156 0 3.472 1.596 3.472 3.542 0 1.932-1.316 3.556-3.472 3.556zm0-1.302c1.26 0 1.946-1.05 1.946-2.254 0-1.19-.686-2.24-1.946-2.24-1.246 0-1.946 1.05-1.946 2.24 0 1.204.7 2.254 1.946 2.254zM133.866 63h-1.47v-5.488h-1.12v-1.274h1.12v-.378c0-1.47.854-2.338 2.128-2.338.616 0 1.218.154 1.624.588l-.574.91a1.091 1.091 0 00-.77-.294c-.588 0-.938.378-.938 1.134v.378h1.372v1.274h-1.372V63zm4.326 0h-1.47v-5.488h-1.12v-1.274h1.12v-.378c0-1.47.854-2.338 2.128-2.338.616 0 1.218.154 1.624.588l-.574.91a1.091 1.091 0 00-.77-.294c-.588 0-.938.378-.938 1.134v.378h1.372v1.274h-1.372V63zm5.614.168c-2.044 0-3.542-1.414-3.542-3.556 0-1.96 1.428-3.542 3.43-3.542 2.03 0 3.318 1.54 3.318 3.668v.364h-5.208c.112 1.008.868 1.862 2.142 1.862.672 0 1.442-.266 1.932-.756l.672.966c-.686.644-1.68.994-2.744.994zm1.792-4.116c-.042-.798-.588-1.778-1.918-1.778-1.246 0-1.834.966-1.89 1.778h3.808zm4.34 3.948h-1.47v-6.762h1.47v.98c.518-.644 1.33-1.148 2.198-1.148v1.456a2.029 2.029 0 00-.448-.042c-.63 0-1.456.42-1.75.91V63z"/><path fill="#384254" fill-rule="nonzero" d="M17.638 83h-1.05l1.288-5.838h-1.12l.21-.924h1.12l.112-.518c.294-1.274.924-2.198 2.226-2.198.616 0 1.092.168 1.498.574l-.56.644c-.196-.224-.448-.35-.854-.35-.714 0-1.078.49-1.26 1.33l-.112.518h1.372l-.21.924h-1.372L17.638 83zm3.682 0h-1.05l1.498-6.762h1.05l-.238 1.022c.672-.756 1.358-1.176 2.52-1.176l-.238 1.092a2.082 2.082 0 00-.532-.056c-.784 0-1.526.532-1.96 1.106L21.32 83zm6.93.168c-1.932 0-3.094-1.218-3.094-3.01 0-2.128 1.596-4.088 3.766-4.088 1.932 0 3.094 1.218 3.094 2.996 0 2.142-1.596 4.102-3.766 4.102zm.028-.938c1.54 0 2.632-1.526 2.632-3.122 0-1.274-.742-2.1-2.016-2.1-1.526 0-2.632 1.526-2.632 3.122 0 1.274.742 2.1 2.016 2.1zM42.11 83h-1.05l1.008-4.536c.014-.07.042-.238.042-.378 0-.7-.532-1.078-1.148-1.078-.658 0-1.372.504-1.848 1.064L38.022 83h-1.05l1.008-4.536c.042-.182.056-.28.056-.434 0-.588-.406-1.022-1.176-1.022-.644 0-1.344.518-1.82 1.064L33.948 83h-1.05l1.498-6.762h1.05l-.224.98c.378-.434 1.162-1.148 2.128-1.148 1.204 0 1.778.868 1.778 1.344v.014c.532-.672 1.33-1.358 2.31-1.358.938 0 1.778.574 1.778 1.666 0 .154-.042.406-.07.574L42.11 83zm10.29 0h-1.638v-7.896h-2.828v-1.442h7.294v1.442H52.4V83zm4.592 0h-1.47v-6.762h1.47v.98c.518-.644 1.33-1.148 2.198-1.148v1.456a2.029 2.029 0 00-.448-.042c-.63 0-1.456.42-1.75.91V83zm9.422 0h-1.47v-.896a3.234 3.234 0 01-2.38 1.064c-1.456 0-2.184-.77-2.184-2.142v-4.788h1.47v4.242c0 1.05.532 1.386 1.372 1.386.742 0 1.386-.434 1.722-.882v-4.746h1.47V83zm5.04.168c-2.044 0-3.542-1.414-3.542-3.556 0-1.96 1.428-3.542 3.43-3.542 2.03 0 3.318 1.54 3.318 3.668v.364h-5.208c.112 1.008.868 1.862 2.142 1.862.672 0 1.442-.266 1.932-.756l.672.966c-.686.644-1.68.994-2.744.994zm1.792-4.116c-.042-.798-.588-1.778-1.918-1.778-1.246 0-1.834.966-1.89 1.778h3.808zm9.73 4.116c-1.722 0-2.968-.616-3.808-1.484l.924-1.274a4.012 4.012 0 002.954 1.302c1.344 0 1.862-.658 1.862-1.288 0-1.96-5.432-.742-5.432-4.172 0-1.554 1.344-2.744 3.402-2.744 1.442 0 2.632.476 3.486 1.316l-.924 1.218c-.742-.742-1.736-1.078-2.716-1.078-.952 0-1.568.476-1.568 1.162 0 1.75 5.432.672 5.432 4.144 0 1.554-1.106 2.898-3.612 2.898zm6.902 0c-1.148 0-1.736-.616-1.736-1.75v-3.906h-1.12v-1.274h1.12V74.39h1.47v1.848h1.372v1.274h-1.372v3.542c0 .462.224.812.644.812.28 0 .532-.126.644-.252l.35 1.12c-.266.238-.7.434-1.372.434zm5.488 0c-2.156 0-3.472-1.624-3.472-3.556 0-1.946 1.316-3.542 3.472-3.542 2.156 0 3.472 1.596 3.472 3.542 0 1.932-1.316 3.556-3.472 3.556zm0-1.302c1.26 0 1.946-1.05 1.946-2.254 0-1.19-.686-2.24-1.946-2.24-1.246 0-1.946 1.05-1.946 2.24 0 1.204.7 2.254 1.946 2.254zm6.44 1.134h-1.47v-6.762h1.47v.98c.518-.644 1.33-1.148 2.198-1.148v1.456a2.029 2.029 0 00-.448-.042c-.63 0-1.456.42-1.75.91V83zm3.108 2.646l.21-1.316c.154.07.392.112.56.112.476 0 .784-.14.98-.588l.336-.77-2.786-6.846h1.582l1.974 5.068 1.974-5.068h1.568l-3.262 7.98c-.462 1.148-1.26 1.512-2.31 1.526-.21 0-.63-.042-.826-.098z" opacity=".5"/><path fill="#384254" fill-rule="nonzero" d="M54.682 34h-2.034l-6.264-8.586V34h-2.106V21.994h2.16l6.138 8.316v-8.316h2.106V34zm6.534.216c-2.628 0-4.554-1.818-4.554-4.572 0-2.52 1.836-4.554 4.41-4.554 2.61 0 4.266 1.98 4.266 4.716v.468h-6.696c.144 1.296 1.116 2.394 2.754 2.394.864 0 1.854-.342 2.484-.972l.864 1.242c-.882.828-2.16 1.278-3.528 1.278zm2.304-5.292c-.054-1.026-.756-2.286-2.466-2.286-1.602 0-2.358 1.242-2.43 2.286h4.896zM76.786 34h-1.98l-2.034-6.372L70.756 34h-1.98l-2.7-8.694h1.962l1.836 6.318 2.07-6.318h1.674l2.052 6.318 1.836-6.318h1.98L76.786 34zm12.618.216c-2.628 0-4.482-1.944-4.482-4.572s1.854-4.554 4.482-4.554c1.71 0 2.718.72 3.33 1.548l-1.242 1.134c-.486-.684-1.152-1.008-1.998-1.008-1.566 0-2.628 1.188-2.628 2.88s1.062 2.898 2.628 2.898c.846 0 1.512-.36 1.998-1.044l1.242 1.17c-.612.81-1.62 1.548-3.33 1.548zM102.166 34h-1.89v-1.152a4.158 4.158 0 01-3.06 1.368c-1.872 0-2.808-.99-2.808-2.754v-6.156h1.89v5.454c0 1.35.684 1.782 1.764 1.782.954 0 1.782-.558 2.214-1.134v-6.102h1.89V34zm5.436.216c-1.494 0-2.826-.486-3.726-1.368l.864-1.35c.612.63 1.818 1.206 2.934 1.206 1.134 0 1.728-.468 1.728-1.152 0-1.71-5.256-.486-5.256-3.834 0-1.422 1.224-2.628 3.42-2.628 1.476 0 2.592.522 3.366 1.206l-.792 1.332c-.522-.576-1.476-1.044-2.574-1.044-.99 0-1.602.468-1.602 1.08 0 1.53 5.256.378 5.256 3.834 0 1.548-1.278 2.718-3.618 2.718zm8.136 0c-1.476 0-2.232-.792-2.232-2.25v-5.022h-1.44v-1.638h1.44V22.93h1.89v2.376h1.764v1.638h-1.764v4.554c0 .594.288 1.044.828 1.044.36 0 .684-.162.828-.324l.45 1.44c-.342.306-.9.558-1.764.558zm7.056 0c-2.772 0-4.464-2.088-4.464-4.572 0-2.502 1.692-4.554 4.464-4.554 2.772 0 4.464 2.052 4.464 4.554 0 2.484-1.692 4.572-4.464 4.572zm0-1.674c1.62 0 2.502-1.35 2.502-2.898 0-1.53-.882-2.88-2.502-2.88-1.602 0-2.502 1.35-2.502 2.88 0 1.548.9 2.898 2.502 2.898zM141.748 34h-1.89v-5.67c0-.936-.414-1.566-1.44-1.566-.846 0-1.638.576-2.016 1.152V34h-1.89v-5.67c0-.936-.396-1.566-1.422-1.566-.846 0-1.62.594-2.016 1.152V34h-1.89v-8.694h1.89v1.17c.378-.522 1.512-1.386 2.844-1.386 1.296 0 2.088.648 2.376 1.584.486-.774 1.638-1.584 2.952-1.584 1.584 0 2.502.864 2.502 2.628V34zm6.48.216c-2.628 0-4.554-1.818-4.554-4.572 0-2.52 1.836-4.554 4.41-4.554 2.61 0 4.266 1.98 4.266 4.716v.468h-6.696c.144 1.296 1.116 2.394 2.754 2.394.864 0 1.854-.342 2.484-.972l.864 1.242c-.882.828-2.16 1.278-3.528 1.278zm2.304-5.292c-.054-1.026-.756-2.286-2.466-2.286-1.602 0-2.358 1.242-2.43 2.286h4.896zm5.58 5.076h-1.89v-8.694h1.89v1.26c.666-.828 1.71-1.476 2.826-1.476v1.872a2.609 2.609 0 00-.576-.054c-.81 0-1.872.54-2.25 1.17V34zm12.942.216c-2.772 0-4.464-2.088-4.464-4.572 0-2.502 1.692-4.554 4.464-4.554 2.772 0 4.464 2.052 4.464 4.554 0 2.484-1.692 4.572-4.464 4.572zm0-1.674c1.62 0 2.502-1.35 2.502-2.898 0-1.53-.882-2.88-2.502-2.88-1.602 0-2.502 1.35-2.502 2.88 0 1.548.9 2.898 2.502 2.898zM177.802 34h-1.89v-7.056h-1.44v-1.638h1.44v-.486c0-1.89 1.098-3.006 2.736-3.006.792 0 1.566.198 2.088.756l-.738 1.17a1.403 1.403 0 00-.99-.378c-.756 0-1.206.486-1.206 1.458v.486h1.764v1.638h-1.764V34zm5.562 0h-1.89v-7.056h-1.44v-1.638h1.44v-.486c0-1.89 1.098-3.006 2.736-3.006.792 0 1.566.198 2.088.756l-.738 1.17a1.403 1.403 0 00-.99-.378c-.756 0-1.206.486-1.206 1.458v.486h1.764v1.638h-1.764V34zm7.218.216c-2.628 0-4.554-1.818-4.554-4.572 0-2.52 1.836-4.554 4.41-4.554 2.61 0 4.266 1.98 4.266 4.716v.468h-6.696c.144 1.296 1.116 2.394 2.754 2.394.864 0 1.854-.342 2.484-.972l.864 1.242c-.882.828-2.16 1.278-3.528 1.278zm2.304-5.292c-.054-1.026-.756-2.286-2.466-2.286-1.602 0-2.358 1.242-2.43 2.286h4.896zm5.58 5.076h-1.89v-8.694h1.89v1.26c.666-.828 1.71-1.476 2.826-1.476v1.872a2.609 2.609 0 00-.576-.054c-.81 0-1.872.54-2.25 1.17V34z"/><path fill="#01B2D0" d="M18 23.992c0-1.1.893-1.992 1.992-1.992h11.016c1.1 0 1.992.9 1.992 1.992v7.016c0 1.1-.893 1.992-1.992 1.992H19.992c-1.1 0-1.992-.9-1.992-1.992v-7.016zm7.5 4.804l-5.146-5.15a.5.5 0 00-.708.707l5.5 5.503a.5.5 0 00.708 0l5.5-5.503a.5.5 0 10-.708-.706L25.5 28.796z"/></g><g transform="rotate(64 -42.437 540.597)"><rect width="30.762" height="28.8" x=".687" y="6.547" fill="#01B2D0" opacity=".1" rx="3"/><rect width="28.762" height="26.8" x="7.401" y="1.85" stroke="#01B2D0" stroke-width="2" rx="3"/></g><g transform="rotate(-103 60.602 28.337)"><rect width="21" height="20" x=".791" y="3.808" fill="#01B2D0" opacity=".1" rx="3"/><rect width="19" height="18" x="4.64" y="1.361" stroke="#01B2D0" stroke-width="2" rx="3"/></g><path fill="#6FD350" d="M492.535 129.357l17.757 2.633a4 4 0 012.69 6.25l-9.21 13.153a4 4 0 01-6.793-.39l-8.548-15.785a4 4 0 014.104-5.861z" opacity=".2"/><path stroke="#6FD350" stroke-width="2" d="M491.389 121.346a3 3 0 00-3.078 4.396l8.547 15.785a3 3 0 005.096.292l9.209-13.152a3 3 0 00-2.018-4.688l-17.756-2.633z"/><path fill="#6FD350" d="M298.44 532.066l-.082 9.655a4 4 0 01-5.753 3.561l-7.476-3.646a4 4 0 01-.736-6.726l7.558-6.009a4 4 0 016.49 3.165z" opacity=".2"/><path stroke="#6FD350" stroke-width="2" d="M304.198 529.975a3 3 0 00-4.867-2.374l-7.558 6.009a3 3 0 00.552 5.045l7.476 3.646a3 3 0 004.315-2.671l.082-9.655z"/><g transform="rotate(-126 119.348 136.019)"><ellipse cx="15.955" cy="11.913" stroke="#FFC111" stroke-width="2" rx="10.455" ry="10.391"/><ellipse cx="12.091" cy="15.316" fill="#FFC111" opacity=".2" rx="11.455" ry="11.391"/></g></g></svg>