<svg xmlns="http://www.w3.org/2000/svg" width="242" height="224" viewBox="0 0 242 224">
  <g fill="none" fill-rule="evenodd" transform="translate(-5 -7)">
    <g stroke-width="24" transform="translate(.5 .5)">
      <circle cx="128" cy="128" r="90" stroke="#E1E1E1"/>
      <path stroke="#6FD350" stroke-dasharray="502.4" stroke-linecap="round" stroke-linejoin="round" d="M128,218 C177.705627,218 218,177.705627 218,128 C218,78.2943725 177.705627,38 128,38 C78.2943725,38 38,78.2943725 38,128 C38,177.705627 78.2943725,218 128,218 Z" transform="rotate(137 128 128)"/>
    </g>
    <g transform="rotate(55 9.779 21.13)">
      <ellipse cx="13.676" cy="10.979" stroke="#FFC111" stroke-width="2" rx="10" ry="9.5"/>
      <ellipse cx="11.382" cy="14.256" fill="#FFC111" opacity=".2" rx="11" ry="10.5"/>
    </g>
    <g transform="rotate(-165 136.7 104.067)">
      <path fill="#6FD350" d="M16.2626898,10.4712222 L24.4085878,26.7630182 C25.1495556,28.2449537 24.5488825,30.0469728 23.066947,30.7879406 C22.6503807,30.9962237 22.1910415,31.104659 21.7253063,31.104659 L5.43351019,31.104659 C3.77665594,31.104659 2.43351019,29.7615133 2.43351019,28.104659 C2.43351019,27.6389237 2.54194547,27.1795845 2.75022862,26.7630182 L10.8961267,10.4712222 C11.6370944,8.98928667 13.4391135,8.38861363 14.921049,9.12958138 C15.5016312,9.41987248 15.9723987,9.89063996 16.2626898,10.4712222 Z" opacity=".2"/>
      <path stroke="#6FD350" stroke-width="2" d="M23.543957,6.6572127 C23.3504296,6.2701579 23.0365846,5.95631291 22.6495298,5.76278551 C21.6615728,5.26880701 20.4602267,5.66925571 19.9662482,6.6572127 L11.8203502,22.9490088 C11.6814947,23.2267196 11.6092045,23.5329458 11.6092045,23.843436 C11.6092045,24.9480055 12.504635,25.843436 13.6092045,25.843436 L29.9010006,25.843436 C30.2114908,25.843436 30.5177169,25.7711458 30.7954278,25.6322903 C31.7833848,25.1383118 32.1838335,23.9369658 31.689855,22.9490088 L23.543957,6.6572127 Z"/>
    </g>
  </g>
</svg>
