<svg xmlns="http://www.w3.org/2000/svg" width="1354" height="503" viewBox="0 0 1354 503">
  <g fill="none" fill-rule="evenodd" opacity=".2" transform="translate(-2 -3)">
    <g transform="rotate(47 523.46 1585.3)">
      <rect width="11.375" height="68.438" x=".228" y="3.911" fill="#FFF" opacity=".1"/>
      <rect width="9.375" height="66.438" x="3.448" y="1.55" stroke="#FFF" stroke-width="2" opacity=".5"/>
    </g>
    <g transform="rotate(74 -122.566 431.094)">
      <rect width="12.188" height="74.063" x=".244" y="4.232" fill="#FFF" opacity=".1"/>
      <rect width="10.188" height="72.063" x="3.622" y="1.595" stroke="#FFF" stroke-width="2" opacity=".5"/>
    </g>
    <g transform="rotate(-57 775.76 -558.92)">
      <rect width="14.625" height="88.125" x=".293" y="5.036" fill="#FFF" opacity=".1"/>
      <rect width="12.625" height="86.125" x="4.147" y="1.708" stroke="#FFF" stroke-width="2" opacity=".5"/>
    </g>
    <g transform="rotate(-102 569.474 -300.666)">
      <rect width="9" height="56" x=".954" y="3.349" fill="#FFF" opacity=".1"/>
      <rect width="7" height="54" x="3.556" y="1.622" stroke="#FFF" stroke-width="2" opacity=".5"/>
    </g>
    <g transform="rotate(-79 255.087 -173.779)">
      <rect width="9.75" height="57.188" x=".195" y="3.268" fill="#FFF" opacity=".1"/>
      <rect width="7.75" height="55.188" x="3.098" y="1.46" stroke="#FFF" stroke-width="2" opacity=".5"/>
    </g>
    <g transform="rotate(-106 413.73 -283.638)">
      <rect width="9.75" height="57.188" x=".195" y="3.268" fill="#FFF" opacity=".1"/>
      <rect width="7.75" height="55.188" x="3.098" y="1.46" stroke="#FFF" stroke-width="2" opacity=".5"/>
    </g>
    <g transform="rotate(-50 170.206 10.182)">
      <rect width="13.813" height="79.688" x=".276" y="4.554" fill="#FFF" opacity=".1"/>
      <rect width="11.813" height="77.688" x="3.972" y="1.641" stroke="#FFF" stroke-width="2" opacity=".5"/>
    </g>
    <g transform="rotate(-168 593.431 180.186)">
      <ellipse cx="14.39" cy="11.923" stroke="#FFF" stroke-width="2" opacity=".5" rx="9.636" ry="9.957"/>
      <ellipse cx="11.612" cy="15.863" fill="#FFF" opacity=".1" rx="10.636" ry="10.957"/>
    </g>
    <g transform="rotate(-64 933.252 -882.136)">
      <ellipse cx="14.39" cy="11.497" stroke="#FFF" stroke-width="2" opacity=".5" rx="9.636" ry="9.565"/>
      <ellipse cx="11.612" cy="15.296" fill="#FFF" opacity=".1" rx="10.636" ry="10.565"/>
    </g>
    <g transform="rotate(-55 794.354 -763.312)">
      <ellipse cx="11.623" cy="9.368" stroke="#FFF" stroke-width="2" opacity=".5" rx="7.591" ry="7.609"/>
      <ellipse cx="9.379" cy="12.463" fill="#FFF" opacity=".1" rx="8.591" ry="8.609"/>
    </g>
    <g transform="rotate(94 670.993 640.972)">
      <ellipse cx="9.962" cy="8.091" stroke="#FFF" stroke-width="2" opacity=".5" rx="6.364" ry="6.435"/>
      <ellipse cx="8.039" cy="10.764" fill="#FFF" opacity=".1" rx="7.364" ry="7.435"/>
    </g>
    <g transform="rotate(-175 194.833 160.73)">
      <circle cx="12.176" cy="9.794" r="8" stroke="#FFF" stroke-width="2" opacity=".5"/>
      <circle cx="9.825" cy="13.03" r="9" fill="#FFF" opacity=".1"/>
    </g>
    <g transform="rotate(121 210.673 345.468)">
      <ellipse cx="11.069" cy="8.942" stroke="#FFF" stroke-width="2" opacity=".5" rx="7.182" ry="7.217"/>
      <ellipse cx="8.932" cy="11.897" fill="#FFF" opacity=".1" rx="8.182" ry="8.217"/>
    </g>
    <g transform="rotate(121 -68.578 162.394)">
      <ellipse cx="11.069" cy="8.942" stroke="#FFF" stroke-width="2" opacity=".5" rx="7.182" ry="7.217"/>
      <ellipse cx="8.932" cy="11.897" fill="#FFF" opacity=".1" rx="8.182" ry="8.217"/>
    </g>
    <g transform="rotate(-81 15.04 12.846)">
      <ellipse cx="13.837" cy="11.071" stroke="#FFF" stroke-width="2" opacity=".5" rx="9.227" ry="9.174"/>
      <ellipse cx="11.165" cy="14.73" fill="#FFF" opacity=".1" rx="10.227" ry="10.174"/>
    </g>
    <g transform="rotate(153 618.552 400.48)">
      <polygon fill="#FFF" points="10.36 3.531 19.86 22.531 .86 22.531" opacity=".1"/>
      <path stroke="#FFF" stroke-width="2" d="M16.5085842,3.08547592 L8.6266182,18.8494079 L24.3905502,18.8494079 L16.5085842,3.08547592 Z" opacity=".5"/>
    </g>
    <g transform="rotate(-145 330.62 -1.485)">
      <polygon fill="#FFF" points="9.976 3.378 19.124 21.552 .828 21.552" opacity=".1"/>
      <path stroke="#FFF" stroke-width="2" d="M15.8971552,3.0365876 L8.37191783,17.9863902 L23.4223925,17.9863902 L15.8971552,3.0365876 Z" opacity=".5"/>
    </g>
    <g transform="rotate(27 567.696 2370.093)">
      <polygon fill="#FFF" points="11.127 3.685 21.331 23.511 .923 23.511" opacity=".1"/>
      <path stroke="#FFF" stroke-width="2" d="M17.7314423,3.07159836 L9.16706589,19.7124257 L26.2958187,19.7124257 L17.7314423,3.07159836 Z" opacity=".5"/>
    </g>
    <g transform="rotate(95 331.7 482.238)">
      <polygon fill="#FFF" points="9.209 3.224 17.653 20.572 .764 20.572" opacity=".1"/>
      <path stroke="#FFF" stroke-width="2" d="M14.6742971,3.06035381 L7.82880651,17.1233725 L21.5197876,17.1233725 L14.6742971,3.06035381 Z" opacity=".5"/>
    </g>
    <g transform="rotate(6 -4336.775 5966.21)">
      <polygon fill="#FFF" points="8.058 2.764 15.447 17.633 .669 17.633" opacity=".1"/>
      <path stroke="#FFF" stroke-width="2" d="M12.8400099,2.91193978 L7.06469174,14.5343193 L18.6153281,14.5343193 L12.8400099,2.91193978 Z" opacity=".5"/>
    </g>
    <g transform="rotate(-38 531.729 -76.794)">
      <polygon fill="#FFF" points="11.662 3.299 23.273 26.429 .051 26.429" opacity=".1"/>
      <path stroke="#FFF" stroke-width="2" d="M19.1771585,2.26306205 L9.18695422,22.1644966 L29.1673627,22.1644966 L19.1771585,2.26306205 Z" opacity=".5"/>
    </g>
    <g transform="rotate(-13 1723.484 -4862.512)">
      <polygon fill="#FFF" points="10.36 3.531 19.86 22.531 .86 22.531" opacity=".1"/>
      <path stroke="#FFF" stroke-width="2" d="M16.5085842,3.08547592 L8.6266182,18.8494079 L24.3905502,18.8494079 L16.5085842,3.08547592 Z" opacity=".5"/>
    </g>
    <g transform="rotate(-163 80.153 221.966)">
      <polygon fill="#FFF" points="8.058 2.764 15.447 17.633 .669 17.633" opacity=".1"/>
      <path stroke="#FFF" stroke-width="2" d="M12.8400099,2.91193978 L7.06469174,14.5343193 L18.6153281,14.5343193 L12.8400099,2.91193978 Z" opacity=".5"/>
    </g>
    <g transform="rotate(-82 146.779 -70.333)">
      <polygon fill="#FFF" points="7.674 2.61 14.711 16.654 .637 16.654" opacity=".1"/>
      <path stroke="#FFF" stroke-width="2" d="M12.2285809,2.86000327 L6.81115476,13.6713015 L17.646007,13.6713015 L12.2285809,2.86000327 Z" opacity=".5"/>
    </g>
  </g>
</svg>
