<svg xmlns="http://www.w3.org/2000/svg" width="132" height="120" viewBox="0 0 132 120">
  <g fill="none" fill-rule="evenodd" transform="translate(28 15)">
    <g transform="translate(0 15)">
      <circle cx="26" cy="34" r="26" fill="#FFC111" fill-opacity=".2"/>
      <circle cx="34" cy="26" r="25.2" stroke="#FFC111" stroke-width="1.6"/>
    </g>
    <path fill="#FFC111" fill-rule="nonzero" d="M44.9143673,76.9229007 C46.3703839,76.4389166 47.7949128,75.8732533 49.1817412,75.2290903 C49.68263,74.9964342 50.2772856,75.2138798 50.5099417,75.7147687 C50.7425977,76.2156575 50.5251521,76.8103131 50.0242633,77.0429691 C48.4609426,77.7691104 46.8520244,78.4001991 45.2056177,78.932098 L45.9698376,84.2040867 C45.9884367,84.3323932 45.9769074,84.463268 45.9361625,84.5863466 C45.7912126,85.0241991 45.3187579,85.2616435 44.8809055,85.1166936 L31.7944574,80.7844596 C31.6229187,80.7276722 31.4744257,80.6167794 31.3712672,80.4684262 C31.1079552,80.0897548 31.2014724,79.5693245 31.5801438,79.3060124 L42.8977998,71.4361943 C43.0042429,71.3621784 43.126457,71.3139616 43.2547635,71.2953624 C43.7112142,71.229196 44.1348791,71.5455839 44.2010456,72.0020346 L44.9143673,76.9229007 Z M58.7179907,71.6359565 C58.2879274,71.9824591 57.6583964,71.9147198 57.3118938,71.4846566 C56.9653913,71.0545933 57.0331306,70.4250623 57.4631938,70.0785597 C58.9871005,68.8507459 60.4166129,67.5145931 61.739197,66.0819679 C62.1138253,65.6761698 62.7464859,65.6509018 63.1522839,66.0255301 C63.558082,66.4001585 63.58335,67.0328191 63.2087217,67.4386171 C61.8195338,68.9433877 60.3182446,70.3466296 58.7179907,71.6359565 Z M69.1701351,59.1064269 C68.9075332,59.5922856 68.300786,59.773271 67.8149273,59.5106691 C67.3290685,59.2480673 67.1480831,58.6413201 67.410685,58.1554613 C68.3394757,56.4370386 69.1354407,54.6522173 69.7909218,52.8143934 C69.9764532,52.2942045 70.5485526,52.0229109 71.0687415,52.2084423 C71.5889305,52.3939737 71.860224,52.9660731 71.6746926,53.486262 C70.9848497,55.420429 70.1472837,57.2985335 69.1701351,59.1064269 Z M73.8603012,43.3676405 C73.8144503,43.9180187 73.3311111,44.3270189 72.7807329,44.281168 C72.2303547,44.2353171 71.8213546,43.7519779 71.8672055,43.2015997 C71.9555714,42.1408853 72,41.0731243 72,40 C72,39.1559413 71.9725141,38.3151705 71.9177753,37.4785005 C71.8817194,36.9273939 72.2992504,36.4514047 72.850357,36.4153488 C73.4014635,36.3792929 73.8774527,36.7968239 73.9135087,37.3479304 C73.9710905,38.2280565 74,39.1123739 74,40 C74,41.1285611 73.9532665,42.2517167 73.8603012,43.3676405 Z M71.9448405,27.296681 C72.1195667,27.8205982 71.8364916,28.3869606 71.3125745,28.5616869 C70.7886573,28.7364132 70.2222949,28.453338 70.0475687,27.9294209 C69.4302087,26.0782657 68.6713111,24.277861 67.7782386,22.5415207 C67.5256305,22.0503918 67.7189897,21.4474738 68.2101186,21.1948657 C68.7012475,20.9422576 69.3041655,21.1356168 69.5567736,21.6267457 C70.4964366,23.4536689 71.2950693,25.3483408 71.9448405,27.296681 Z M63.7665836,13.1779169 C64.1330194,13.5911278 64.0951007,14.2231563 63.6818898,14.5895921 C63.2686789,14.9560279 62.6366503,14.9181092 62.2702145,14.5048983 C60.9764716,13.0460106 59.5736516,11.6815916 58.0741323,10.4237167 C57.6510061,10.0687764 57.5957305,9.43802881 57.9506708,9.01490258 C58.3056112,8.59177635 58.9363587,8.53650075 59.359485,8.89144108 C60.9342236,10.2124138 62.4075821,11.6454405 63.7665836,13.1779169 Z M50.6989817,3.27770673 C51.1956807,3.51917835 51.4025834,4.11758387 51.1611118,4.61428288 C50.9196402,5.11098188 50.3212346,5.31788456 49.8245356,5.07641295 C48.0711884,4.22401827 46.2544584,3.49823821 44.3873153,2.90591151 C43.8608853,2.73890852 43.5695123,2.17677009 43.7365153,1.65034018 C43.9035182,1.12391028 44.4656567,0.832537194 44.9920866,0.999540186 C46.9517531,1.62121872 48.8586034,2.38300164 50.6989817,3.27770673 Z M35.0182104,-0.895721828 C35.5691722,-0.857517974 35.9848446,-0.379904841 35.9466408,0.171056964 C35.9084369,0.722018769 35.4308238,1.13769122 34.879862,1.09948736 C33.928825,1.03354218 32.9724793,1.00027582 32.0119703,1.00000171 C31.4596856,0.999844095 31.0120982,0.552001092 31.0122558,-0.000283635735 C31.0124134,-0.552568363 31.4602564,-1.00015582 32.0125411,-0.99999821 C33.0190263,-0.999710975 34.0213251,-0.964846143 35.0182104,-0.895721828 Z"/>
  </g>
</svg>
