<?xml version="1.0" encoding="UTF-8"?>
<svg width="387px" height="597px" viewBox="0 0 387 597" version="1.1" xmlns="http://www.w3.org/2000/svg" xmlns:xlink="http://www.w3.org/1999/xlink">
    <!-- Generator: Sketch 41 (35326) - http://www.bohemiancoding.com/sketch -->
    <title>home-hero</title>
    <desc>Created with Sketch.</desc>
    <defs>
        <path d="M182.586167,264.636073 C188.443908,261.122513 197.937169,261.120106 203.798923,264.636073 L381.990279,371.517916 C387.84802,375.031476 387.852033,380.725677 381.990279,384.241644 L203.798923,491.123487 C197.941182,494.637047 188.447921,494.639454 182.586167,491.123487 L4.39481064,384.241644 C-1.46293023,380.728084 -1.46694318,375.033883 4.39481064,371.517916 L182.586167,264.636073 Z" id="path-1"></path>
        <mask id="mask-2" maskContentUnits="userSpaceOnUse" maskUnits="objectBoundingBox" x="0" y="0" width="386.38509" height="231.75956" fill="white">
            <use xlink:href="#path-1"></use>
        </mask>
        <path d="M182.586167,208.636073 C188.443908,205.122513 197.937169,205.120106 203.798923,208.636073 L381.990279,315.517916 C387.84802,319.031476 387.852033,324.725677 381.990279,328.241644 L203.798923,435.123487 C197.941182,438.637047 188.447921,438.639454 182.586167,435.123487 L4.39481064,328.241644 C-1.46293023,324.728084 -1.46694318,319.033883 4.39481064,315.517916 L182.586167,208.636073 Z" id="path-3"></path>
        <mask id="mask-4" maskContentUnits="userSpaceOnUse" maskUnits="objectBoundingBox" x="0" y="0" width="386.38509" height="231.75956" fill="white">
            <use xlink:href="#path-3"></use>
        </mask>
        <path d="M182.586167,148.636073 C188.443908,145.122513 197.937169,145.120106 203.798923,148.636073 L381.990279,255.517916 C387.84802,259.031476 387.852033,264.725677 381.990279,268.241644 L203.798923,375.123487 C197.941182,378.637047 188.447921,378.639454 182.586167,375.123487 L4.39481064,268.241644 C-1.46293023,264.728084 -1.46694318,259.033883 4.39481064,255.517916 L182.586167,148.636073 Z" id="path-5"></path>
        <mask id="mask-6" maskContentUnits="userSpaceOnUse" maskUnits="objectBoundingBox" x="0" y="0" width="386.38509" height="231.75956" fill="white">
            <use xlink:href="#path-5"></use>
        </mask>
        <path d="M182.586167,89.6360732 C188.443908,86.1225125 197.937169,86.1201055 203.798923,89.6360732 L381.990279,196.517916 C387.84802,200.031476 387.852033,205.725677 381.990279,209.241644 L203.798923,316.123487 C197.941182,319.637047 188.447921,319.639454 182.586167,316.123487 L4.39481064,209.241644 C-1.46293023,205.728084 -1.46694318,200.033883 4.39481064,196.517916 L182.586167,89.6360732 Z" id="path-7"></path>
        <mask id="mask-8" maskContentUnits="userSpaceOnUse" maskUnits="objectBoundingBox" x="0" y="0" width="386.38509" height="231.75956" fill="white">
            <use xlink:href="#path-7"></use>
        </mask>
        <ellipse id="path-9" cx="193" cy="197" rx="13" ry="11"></ellipse>
        <mask id="mask-10" maskContentUnits="userSpaceOnUse" maskUnits="objectBoundingBox" x="0" y="0" width="26" height="22" fill="white">
            <use xlink:href="#path-9"></use>
        </mask>
    </defs>
    <g id="Page-1" stroke="none" stroke-width="1" fill="none" fill-rule="evenodd">
        <g id="Homepage" transform="translate(-839.000000, -241.000000)">
            <g id="home-hero" transform="translate(839.000000, 241.000000)">
                <polyline id="Path-2" stroke-opacity="0.538807745" stroke="#0AA6D2" stroke-width="3" stroke-linecap="round" stroke-linejoin="round" stroke-dasharray="4,6" transform="translate(193.500000, 395.638672) scale(1, -1) translate(-193.500000, -395.638672) " points="193 196 193 327.296875 193 595.277344"></polyline>
                <path d="M182.586167,275.636073 C188.443908,272.122513 197.937169,272.120106 203.798923,275.636073 L381.990279,382.517916 C387.84802,386.031476 387.852033,391.725677 381.990279,395.241644 L203.798923,502.123487 C197.941182,505.637047 188.447921,505.639454 182.586167,502.123487 L4.39481064,395.241644 C-1.46293023,391.728084 -1.46694318,386.033883 4.39481064,382.517916 L182.586167,275.636073 Z" id="Rectangle" fill="#0AA6D2" opacity="0.0477807971"></path>
                <use id="Rectangle" stroke="#0AA6D2" mask="url(#mask-2)" stroke-width="4" fill-opacity="0.896342844" fill="#ECF8FC" xlink:href="#path-1"></use>
                <path d="M182.586167,219.636073 C188.443908,216.122513 197.937169,216.120106 203.798923,219.636073 L381.990279,326.517916 C387.84802,330.031476 387.852033,335.725677 381.990279,339.241644 L203.798923,446.123487 C197.941182,449.637047 188.447921,449.639454 182.586167,446.123487 L4.39481064,339.241644 C-1.46293023,335.728084 -1.46694318,330.033883 4.39481064,326.517916 L182.586167,219.636073 Z" id="Rectangle" fill="#0AA6D2" opacity="0.0477807971"></path>
                <use id="Rectangle" stroke="#0AA6D2" mask="url(#mask-4)" stroke-width="4" fill-opacity="0.896342844" fill="#ECF8FC" xlink:href="#path-3"></use>
                <path d="M182.586167,159.636073 C188.443908,156.122513 197.937169,156.120106 203.798923,159.636073 L381.990279,266.517916 C387.84802,270.031476 387.852033,275.725677 381.990279,279.241644 L203.798923,386.123487 C197.941182,389.637047 188.447921,389.639454 182.586167,386.123487 L4.39481064,279.241644 C-1.46293023,275.728084 -1.46694318,270.033883 4.39481064,266.517916 L182.586167,159.636073 Z" id="Rectangle" fill="#0AA6D2" opacity="0.0477807971"></path>
                <use id="Rectangle" stroke="#0AA6D2" mask="url(#mask-6)" stroke-width="4" fill-opacity="0.896342844" fill="#ECF8FC" xlink:href="#path-5"></use>
                <path d="M182.586167,100.636073 C188.443908,97.1225125 197.937169,97.1201055 203.798923,100.636073 L381.990279,207.517916 C387.84802,211.031476 387.852033,216.725677 381.990279,220.241644 L203.798923,327.123487 C197.941182,330.637047 188.447921,330.639454 182.586167,327.123487 L4.39481064,220.241644 C-1.46293023,216.728084 -1.46694318,211.033883 4.39481064,207.517916 L182.586167,100.636073 Z" id="Rectangle" fill="#0AA6D2" opacity="0.0477807971"></path>
                <use id="Rectangle" stroke="#0AA6D2" mask="url(#mask-8)" stroke-width="4" fill-opacity="0.896342844" fill="#ECF8FC" xlink:href="#path-7"></use>
                <use id="Oval" stroke-opacity="0.530966938" stroke="#0AA6D2" mask="url(#mask-10)" stroke-width="4" fill-opacity="0.163552989" fill="#0AA6D2" xlink:href="#path-9"></use>
                <polyline id="Path-2" stroke-opacity="0.519870924" stroke="#48BDDE" stroke-width="3" stroke-linecap="round" stroke-linejoin="round" stroke-dasharray="4,6" points="277.152344 80.703125 197.238281 135.699219 197.238281 202.679688"></polyline>
                <polyline id="Path-2" stroke-opacity="0.538807745" stroke="#0AA6D2" stroke-width="3" stroke-linecap="round" stroke-linejoin="round" stroke-dasharray="4,6" points="193.238281 52.4023438 193.238281 132.699219 193.238281 202.679687"></polyline>
                <path d="M206.127654,15.179604 C206.527141,14.958999 205.955726,13.6812581 204.877654,13.929604 L197.377654,13.929604 L201.127654,1.42960401 C200.972557,0.528665327 199.342146,-0.399122678 198.627654,0.179604015 L181.127654,20.179604 C180.728166,20.400209 181.299582,21.67795 182.377654,21.429604 L189.877654,21.429604 L186.127654,33.929604 C186.282751,34.8305427 187.913162,35.7583307 188.627654,35.179604 L206.127654,15.179604 Z" id="Shape" fill="#0AA6D2"></path>
                <path d="M100.127654,60.179604 C100.527141,59.958999 99.9557258,58.6812581 98.8776537,58.929604 L91.3776537,58.929604 L95.1276537,46.429604 C94.9725566,45.5286653 93.3421457,44.6008773 92.6276537,45.179604 L75.1276537,65.179604 C74.728166,65.400209 75.2995816,66.67795 76.3776537,66.429604 L83.8776537,66.429604 L80.1276537,78.929604 C80.2827508,79.8305427 81.9131618,80.7583307 82.6276537,80.179604 L100.127654,60.179604 Z" id="Shape" fill="#0AA6D2"></path>
                <polyline id="Path-2" stroke="#84D2E8" stroke-width="3" stroke-linecap="round" stroke-linejoin="round" stroke-dasharray="4,6" transform="translate(149.195312, 141.691406) scale(-1, 1) translate(-149.195312, -141.691406) " points="189.152344 80.703125 109.238281 135.699219 109.238281 202.679688"></polyline>
                <path d="M311.127654,61.179604 C311.527141,60.958999 310.955726,59.6812581 309.877654,59.929604 L302.377654,59.929604 L306.127654,47.429604 C305.972557,46.5286653 304.342146,45.6008773 303.627654,46.179604 L286.127654,66.179604 C285.728166,66.400209 286.299582,67.67795 287.377654,67.429604 L294.877654,67.429604 L291.127654,79.929604 C291.282751,80.8305427 292.913162,81.7583307 293.627654,81.179604 L311.127654,61.179604 Z" id="Shape" fill="#0AA6D2"></path>
                <path d="M187.248,323.672 L190.4,323.672 L193.344,331.72 L193.392,331.72 L196.304,323.672 L199.472,323.672 L199.472,335 L197.472,335 L197.472,325.896 L197.44,325.896 L194,335 L192.592,335 L189.2,325.896 L189.168,325.896 L189.168,335 L187.248,335 L187.248,323.672 Z M201.424,329.304 C201.424,328.397329 201.575998,327.57867 201.88,326.848 C202.184002,326.11733 202.605331,325.496003 203.144,324.984 C203.682669,324.471997 204.322663,324.077335 205.064,323.8 C205.805337,323.522665 206.613329,323.384 207.488,323.384 C208.373338,323.384 209.18933,323.522665 209.936,323.8 C210.68267,324.077335 211.327997,324.471997 211.872,324.984 C212.416003,325.496003 212.839998,326.11733 213.144,326.848 C213.448002,327.57867 213.6,328.397329 213.6,329.304 C213.6,330.189338 213.448002,330.99733 213.144,331.728 C212.839998,332.45867 212.416003,333.087997 211.872,333.616 C211.327997,334.144003 210.68267,334.554665 209.936,334.848 C209.18933,335.141335 208.373338,335.288 207.488,335.288 C206.613329,335.288 205.805337,335.141335 205.064,334.848 C204.322663,334.554665 203.682669,334.144003 203.144,333.616 C202.605331,333.087997 202.184002,332.45867 201.88,331.728 C201.575998,330.99733 201.424,330.189338 201.424,329.304 Z M203.616,329.304 C203.616,329.912003 203.709332,330.469331 203.896,330.976 C204.082668,331.482669 204.349332,331.922665 204.696,332.296 C205.042668,332.669335 205.453331,332.959999 205.928,333.168 C206.402669,333.376001 206.927997,333.48 207.504,333.48 C208.080003,333.48 208.607998,333.376001 209.088,333.168 C209.568002,332.959999 209.981332,332.669335 210.328,332.296 C210.674668,331.922665 210.941332,331.482669 211.128,330.976 C211.314668,330.469331 211.408,329.912003 211.408,329.304 C211.408,328.71733 211.314668,328.173336 211.128,327.672 C210.941332,327.170664 210.677335,326.733335 210.336,326.36 C209.994665,325.986665 209.584002,325.693334 209.104,325.48 C208.623998,325.266666 208.09067,325.16 207.504,325.16 C206.91733,325.16 206.386669,325.266666 205.912,325.48 C205.437331,325.693334 205.029335,325.986665 204.688,326.36 C204.346665,326.733335 204.082668,327.170664 203.896,327.672 C203.709332,328.173336 203.616,328.71733 203.616,329.304 Z M215.552,323.672 L219.568,323.672 C220.304004,323.672 221.04533,323.767999 221.792,323.96 C222.53867,324.152001 223.210664,324.469331 223.808,324.912 C224.405336,325.354669 224.890665,325.935996 225.264,326.656 C225.637335,327.376004 225.824,328.269328 225.824,329.336 C225.824,330.328005 225.637335,331.18133 225.264,331.896 C224.890665,332.61067 224.405336,333.197331 223.808,333.656 C223.210664,334.114669 222.53867,334.453332 221.792,334.672 C221.04533,334.890668 220.304004,335 219.568,335 L215.552,335 L215.552,323.672 Z M219.248,333.24 C219.770669,333.24 220.293331,333.178667 220.816,333.056 C221.338669,332.933333 221.810665,332.725335 222.232,332.432 C222.653335,332.138665 222.997332,331.741336 223.264,331.24 C223.530668,330.738664 223.664,330.104004 223.664,329.336 C223.664,328.525329 223.530668,327.864003 223.264,327.352 C222.997332,326.839997 222.653335,326.440001 222.232,326.152 C221.810665,325.863999 221.338669,325.666667 220.816,325.56 C220.293331,325.453333 219.770669,325.4 219.248,325.4 L217.568,325.4 L217.568,333.24 L219.248,333.24 Z M227.776,323.672 L235.28,323.672 L235.28,325.432 L229.792,325.432 L229.792,328.312 L234.992,328.312 L234.992,330.008 L229.792,330.008 L229.792,333.208 L235.568,333.208 L235.568,335 L227.776,335 L227.776,323.672 Z M237.536,323.672 L239.552,323.672 L239.552,333.208 L244.368,333.208 L244.368,335 L237.536,335 L237.536,323.672 Z M245.712,323.672 L247.728,323.672 L247.728,333.208 L252.544,333.208 L252.544,335 L245.712,335 L245.712,323.672 Z M253.888,323.672 L255.904,323.672 L255.904,335 L253.888,335 L253.888,323.672 Z M258.4,323.672 L261.072,323.672 L266.336,332.152 L266.368,332.152 L266.368,323.672 L268.384,323.672 L268.384,335 L265.824,335 L260.448,326.248 L260.416,326.248 L260.416,335 L258.4,335 L258.4,323.672 Z M280.8,334.408 C280.223997,334.685335 279.592003,334.901333 278.904,335.056 C278.215997,335.210667 277.424004,335.288 276.528,335.288 C275.610662,335.288 274.773337,335.141335 274.016,334.848 C273.258663,334.554665 272.608003,334.144003 272.064,333.616 C271.519997,333.087997 271.096002,332.45867 270.792,331.728 C270.487998,330.99733 270.336,330.189338 270.336,329.304 C270.336,328.397329 270.493332,327.57867 270.808,326.848 C271.122668,326.11733 271.554664,325.496003 272.104,324.984 C272.653336,324.471997 273.30133,324.077335 274.048,323.8 C274.79467,323.522665 275.605329,323.384 276.48,323.384 C277.386671,323.384 278.215996,323.514665 278.968,323.776 C279.720004,324.037335 280.325331,324.381331 280.784,324.808 L279.392,326.312 C279.103999,325.991998 278.701336,325.720001 278.184,325.496 C277.666664,325.271999 277.104003,325.16 276.496,325.16 C275.898664,325.16 275.357336,325.266666 274.872,325.48 C274.386664,325.693334 273.973335,325.986665 273.632,326.36 C273.290665,326.733335 273.026668,327.170664 272.84,327.672 C272.653332,328.173336 272.56,328.71733 272.56,329.304 C272.56,329.912003 272.653332,330.469331 272.84,330.976 C273.026668,331.482669 273.293332,331.922665 273.64,332.296 C273.986668,332.669335 274.407998,332.959999 274.904,333.168 C275.400002,333.376001 275.962664,333.48 276.592,333.48 C277.456004,333.48 278.207997,333.346668 278.848,333.08 L278.848,330.2 L276.464,330.2 L276.464,328.536 L280.8,328.536 L280.8,334.408 Z" id="MODELling" fill="#0AA6D2" opacity="0.604789402" transform="translate(234.024000, 329.336000) rotate(-30.000000) translate(-234.024000, -329.336000) "></path>
                <path d="M195.424,268.328 C195.125332,267.922665 194.736002,267.626668 194.256,267.44 C193.775998,267.253332 193.306669,267.16 192.848,267.16 C192.26133,267.16 191.728002,267.266666 191.248,267.48 C190.767998,267.693334 190.354668,267.986665 190.008,268.36 C189.661332,268.733335 189.394668,269.170664 189.208,269.672 C189.021332,270.173336 188.928,270.71733 188.928,271.304 C188.928,271.92267 189.018666,272.487997 189.2,273 C189.381334,273.512003 189.639998,273.951998 189.976,274.32 C190.312002,274.688002 190.714664,274.973332 191.184,275.176 C191.653336,275.378668 192.18133,275.48 192.768,275.48 C193.376003,275.48 193.914664,275.360001 194.384,275.12 C194.853336,274.879999 195.231999,274.562669 195.52,274.168 L197.136,275.304 C196.634664,275.933336 196.021337,276.421332 195.296,276.768 C194.570663,277.114668 193.722672,277.288 192.752,277.288 C191.866662,277.288 191.053337,277.141335 190.312,276.848 C189.570663,276.554665 188.933336,276.144003 188.4,275.616 C187.866664,275.087997 187.450668,274.45867 187.152,273.728 C186.853332,272.99733 186.704,272.189338 186.704,271.304 C186.704,270.397329 186.861332,269.57867 187.176,268.848 C187.490668,268.11733 187.922664,267.496003 188.472,266.984 C189.021336,266.471997 189.66933,266.077335 190.416,265.8 C191.16267,265.522665 191.973329,265.384 192.848,265.384 C193.210668,265.384 193.589331,265.418666 193.984,265.488 C194.378669,265.557334 194.757332,265.663999 195.12,265.808 C195.482668,265.952001 195.823998,266.130666 196.144,266.344 C196.464002,266.557334 196.735999,266.813332 196.96,267.112 L195.424,268.328 Z M197.84,271.304 C197.84,270.397329 197.991998,269.57867 198.296,268.848 C198.600002,268.11733 199.021331,267.496003 199.56,266.984 C200.098669,266.471997 200.738663,266.077335 201.48,265.8 C202.221337,265.522665 203.029329,265.384 203.904,265.384 C204.789338,265.384 205.60533,265.522665 206.352,265.8 C207.09867,266.077335 207.743997,266.471997 208.288,266.984 C208.832003,267.496003 209.255998,268.11733 209.56,268.848 C209.864002,269.57867 210.016,270.397329 210.016,271.304 C210.016,272.189338 209.864002,272.99733 209.56,273.728 C209.255998,274.45867 208.832003,275.087997 208.288,275.616 C207.743997,276.144003 207.09867,276.554665 206.352,276.848 C205.60533,277.141335 204.789338,277.288 203.904,277.288 C203.029329,277.288 202.221337,277.141335 201.48,276.848 C200.738663,276.554665 200.098669,276.144003 199.56,275.616 C199.021331,275.087997 198.600002,274.45867 198.296,273.728 C197.991998,272.99733 197.84,272.189338 197.84,271.304 Z M200.032,271.304 C200.032,271.912003 200.125332,272.469331 200.312,272.976 C200.498668,273.482669 200.765332,273.922665 201.112,274.296 C201.458668,274.669335 201.869331,274.959999 202.344,275.168 C202.818669,275.376001 203.343997,275.48 203.92,275.48 C204.496003,275.48 205.023998,275.376001 205.504,275.168 C205.984002,274.959999 206.397332,274.669335 206.744,274.296 C207.090668,273.922665 207.357332,273.482669 207.544,272.976 C207.730668,272.469331 207.824,271.912003 207.824,271.304 C207.824,270.71733 207.730668,270.173336 207.544,269.672 C207.357332,269.170664 207.093335,268.733335 206.752,268.36 C206.410665,267.986665 206.000002,267.693334 205.52,267.48 C205.039998,267.266666 204.50667,267.16 203.92,267.16 C203.33333,267.16 202.802669,267.266666 202.328,267.48 C201.853331,267.693334 201.445335,267.986665 201.104,268.36 C200.762665,268.733335 200.498668,269.170664 200.312,269.672 C200.125332,270.173336 200.032,270.71733 200.032,271.304 Z M211.968,265.672 L213.984,265.672 L213.984,275.208 L218.8,275.208 L218.8,277 L211.968,277 L211.968,265.672 Z M220.144,265.672 L222.16,265.672 L222.16,275.208 L226.976,275.208 L226.976,277 L220.144,277 L220.144,265.672 Z M228.32,265.672 L235.824,265.672 L235.824,267.432 L230.336,267.432 L230.336,270.312 L235.536,270.312 L235.536,272.008 L230.336,272.008 L230.336,275.208 L236.112,275.208 L236.112,277 L228.32,277 L228.32,265.672 Z M246.256,268.328 C245.957332,267.922665 245.568002,267.626668 245.088,267.44 C244.607998,267.253332 244.138669,267.16 243.68,267.16 C243.09333,267.16 242.560002,267.266666 242.08,267.48 C241.599998,267.693334 241.186668,267.986665 240.84,268.36 C240.493332,268.733335 240.226668,269.170664 240.04,269.672 C239.853332,270.173336 239.76,270.71733 239.76,271.304 C239.76,271.92267 239.850666,272.487997 240.032,273 C240.213334,273.512003 240.471998,273.951998 240.808,274.32 C241.144002,274.688002 241.546664,274.973332 242.016,275.176 C242.485336,275.378668 243.01333,275.48 243.6,275.48 C244.208003,275.48 244.746664,275.360001 245.216,275.12 C245.685336,274.879999 246.063999,274.562669 246.352,274.168 L247.968,275.304 C247.466664,275.933336 246.853337,276.421332 246.128,276.768 C245.402663,277.114668 244.554672,277.288 243.584,277.288 C242.698662,277.288 241.885337,277.141335 241.144,276.848 C240.402663,276.554665 239.765336,276.144003 239.232,275.616 C238.698664,275.087997 238.282668,274.45867 237.984,273.728 C237.685332,272.99733 237.536,272.189338 237.536,271.304 C237.536,270.397329 237.693332,269.57867 238.008,268.848 C238.322668,268.11733 238.754664,267.496003 239.304,266.984 C239.853336,266.471997 240.50133,266.077335 241.248,265.8 C241.99467,265.522665 242.805329,265.384 243.68,265.384 C244.042668,265.384 244.421331,265.418666 244.816,265.488 C245.210669,265.557334 245.589332,265.663999 245.952,265.808 C246.314668,265.952001 246.655998,266.130666 246.976,266.344 C247.296002,266.557334 247.567999,266.813332 247.792,267.112 L246.256,268.328 Z M251.504,267.432 L248.032,267.432 L248.032,265.672 L256.992,265.672 L256.992,267.432 L253.52,267.432 L253.52,277 L251.504,277 L251.504,267.432 Z M258.304,265.672 L260.32,265.672 L260.32,277 L258.304,277 L258.304,265.672 Z M262.272,271.304 C262.272,270.397329 262.423998,269.57867 262.728,268.848 C263.032002,268.11733 263.453331,267.496003 263.992,266.984 C264.530669,266.471997 265.170663,266.077335 265.912,265.8 C266.653337,265.522665 267.461329,265.384 268.336,265.384 C269.221338,265.384 270.03733,265.522665 270.784,265.8 C271.53067,266.077335 272.175997,266.471997 272.72,266.984 C273.264003,267.496003 273.687998,268.11733 273.992,268.848 C274.296002,269.57867 274.448,270.397329 274.448,271.304 C274.448,272.189338 274.296002,272.99733 273.992,273.728 C273.687998,274.45867 273.264003,275.087997 272.72,275.616 C272.175997,276.144003 271.53067,276.554665 270.784,276.848 C270.03733,277.141335 269.221338,277.288 268.336,277.288 C267.461329,277.288 266.653337,277.141335 265.912,276.848 C265.170663,276.554665 264.530669,276.144003 263.992,275.616 C263.453331,275.087997 263.032002,274.45867 262.728,273.728 C262.423998,272.99733 262.272,272.189338 262.272,271.304 Z M264.464,271.304 C264.464,271.912003 264.557332,272.469331 264.744,272.976 C264.930668,273.482669 265.197332,273.922665 265.544,274.296 C265.890668,274.669335 266.301331,274.959999 266.776,275.168 C267.250669,275.376001 267.775997,275.48 268.352,275.48 C268.928003,275.48 269.455998,275.376001 269.936,275.168 C270.416002,274.959999 270.829332,274.669335 271.176,274.296 C271.522668,273.922665 271.789332,273.482669 271.976,272.976 C272.162668,272.469331 272.256,271.912003 272.256,271.304 C272.256,270.71733 272.162668,270.173336 271.976,269.672 C271.789332,269.170664 271.525335,268.733335 271.184,268.36 C270.842665,267.986665 270.432002,267.693334 269.952,267.48 C269.471998,267.266666 268.93867,267.16 268.352,267.16 C267.76533,267.16 267.234669,267.266666 266.76,267.48 C266.285331,267.693334 265.877335,267.986665 265.536,268.36 C265.194665,268.733335 264.930668,269.170664 264.744,269.672 C264.557332,270.173336 264.464,270.71733 264.464,271.304 Z M276.4,265.672 L279.072,265.672 L284.336,274.152 L284.368,274.152 L284.368,265.672 L286.384,265.672 L286.384,277 L283.824,277 L278.448,268.248 L278.416,268.248 L278.416,277 L276.4,277 L276.4,265.672 Z" id="Collection" fill="#0AA6D2" opacity="0.604789402" transform="translate(236.544000, 271.336000) rotate(-30.000000) translate(-236.544000, -271.336000) "></path>
                <path d="M186.096,383.672 L188.304,383.672 L190.496,391.992 L190.528,391.992 L193.024,383.672 L195.104,383.672 L197.552,391.992 L197.584,391.992 L199.824,383.672 L201.968,383.672 L198.656,395 L196.704,395 L194.048,386.504 L194.016,386.504 L191.36,395 L189.408,395 L186.096,383.672 Z M202.768,389.304 C202.768,388.397329 202.919998,387.57867 203.224,386.848 C203.528002,386.11733 203.949331,385.496003 204.488,384.984 C205.026669,384.471997 205.666663,384.077335 206.408,383.8 C207.149337,383.522665 207.957329,383.384 208.832,383.384 C209.717338,383.384 210.53333,383.522665 211.28,383.8 C212.02667,384.077335 212.671997,384.471997 213.216,384.984 C213.760003,385.496003 214.183998,386.11733 214.488,386.848 C214.792002,387.57867 214.944,388.397329 214.944,389.304 C214.944,390.189338 214.792002,390.99733 214.488,391.728 C214.183998,392.45867 213.760003,393.087997 213.216,393.616 C212.671997,394.144003 212.02667,394.554665 211.28,394.848 C210.53333,395.141335 209.717338,395.288 208.832,395.288 C207.957329,395.288 207.149337,395.141335 206.408,394.848 C205.666663,394.554665 205.026669,394.144003 204.488,393.616 C203.949331,393.087997 203.528002,392.45867 203.224,391.728 C202.919998,390.99733 202.768,390.189338 202.768,389.304 Z M204.96,389.304 C204.96,389.912003 205.053332,390.469331 205.24,390.976 C205.426668,391.482669 205.693332,391.922665 206.04,392.296 C206.386668,392.669335 206.797331,392.959999 207.272,393.168 C207.746669,393.376001 208.271997,393.48 208.848,393.48 C209.424003,393.48 209.951998,393.376001 210.432,393.168 C210.912002,392.959999 211.325332,392.669335 211.672,392.296 C212.018668,391.922665 212.285332,391.482669 212.472,390.976 C212.658668,390.469331 212.752,389.912003 212.752,389.304 C212.752,388.71733 212.658668,388.173336 212.472,387.672 C212.285332,387.170664 212.021335,386.733335 211.68,386.36 C211.338665,385.986665 210.928002,385.693334 210.448,385.48 C209.967998,385.266666 209.43467,385.16 208.848,385.16 C208.26133,385.16 207.730669,385.266666 207.256,385.48 C206.781331,385.693334 206.373335,385.986665 206.032,386.36 C205.690665,386.733335 205.426668,387.170664 205.24,387.672 C205.053332,388.173336 204.96,388.71733 204.96,389.304 Z M216.896,383.672 L220.832,383.672 C221.365336,383.672 221.882664,383.727999 222.384,383.84 C222.885336,383.952001 223.330665,384.135999 223.72,384.392 C224.109335,384.648001 224.421332,384.983998 224.656,385.4 C224.890668,385.816002 225.008,386.322664 225.008,386.92 C225.008,387.741337 224.776002,388.410664 224.312,388.928 C223.847998,389.445336 223.216004,389.794666 222.416,389.976 L225.44,395 L223.008,395 L220.384,390.2 L218.912,390.2 L218.912,395 L216.896,395 L216.896,383.672 Z M220.56,388.552 C220.848001,388.552 221.135999,388.530667 221.424,388.488 C221.712001,388.445333 221.970666,388.365334 222.2,388.248 C222.429334,388.130666 222.618666,387.962668 222.768,387.744 C222.917334,387.525332 222.992,387.245335 222.992,386.904 C222.992,386.594665 222.922667,386.341334 222.784,386.144 C222.645333,385.946666 222.469334,385.789334 222.256,385.672 C222.042666,385.554666 221.800001,385.474667 221.528,385.432 C221.255999,385.389333 220.992001,385.368 220.736,385.368 L218.912,385.368 L218.912,388.552 L220.56,388.552 Z M226.96,383.672 L228.976,383.672 L228.976,388.568 L229.024,388.568 L233.76,383.672 L236.48,383.672 L231.184,388.904 L236.832,395 L234,395 L229.024,389.32 L228.976,389.32 L228.976,395 L226.96,395 L226.96,383.672 Z M237.984,383.672 L245.296,383.672 L245.296,385.432 L240,385.432 L240,388.536 L244.992,388.536 L244.992,390.232 L240,390.232 L240,395 L237.984,395 L237.984,383.672 Z M247.152,383.672 L249.168,383.672 L249.168,393.208 L253.984,393.208 L253.984,395 L247.152,395 L247.152,383.672 Z M254.784,389.304 C254.784,388.397329 254.935998,387.57867 255.24,386.848 C255.544002,386.11733 255.965331,385.496003 256.504,384.984 C257.042669,384.471997 257.682663,384.077335 258.424,383.8 C259.165337,383.522665 259.973329,383.384 260.848,383.384 C261.733338,383.384 262.54933,383.522665 263.296,383.8 C264.04267,384.077335 264.687997,384.471997 265.232,384.984 C265.776003,385.496003 266.199998,386.11733 266.504,386.848 C266.808002,387.57867 266.96,388.397329 266.96,389.304 C266.96,390.189338 266.808002,390.99733 266.504,391.728 C266.199998,392.45867 265.776003,393.087997 265.232,393.616 C264.687997,394.144003 264.04267,394.554665 263.296,394.848 C262.54933,395.141335 261.733338,395.288 260.848,395.288 C259.973329,395.288 259.165337,395.141335 258.424,394.848 C257.682663,394.554665 257.042669,394.144003 256.504,393.616 C255.965331,393.087997 255.544002,392.45867 255.24,391.728 C254.935998,390.99733 254.784,390.189338 254.784,389.304 Z M256.976,389.304 C256.976,389.912003 257.069332,390.469331 257.256,390.976 C257.442668,391.482669 257.709332,391.922665 258.056,392.296 C258.402668,392.669335 258.813331,392.959999 259.288,393.168 C259.762669,393.376001 260.287997,393.48 260.864,393.48 C261.440003,393.48 261.967998,393.376001 262.448,393.168 C262.928002,392.959999 263.341332,392.669335 263.688,392.296 C264.034668,391.922665 264.301332,391.482669 264.488,390.976 C264.674668,390.469331 264.768,389.912003 264.768,389.304 C264.768,388.71733 264.674668,388.173336 264.488,387.672 C264.301332,387.170664 264.037335,386.733335 263.696,386.36 C263.354665,385.986665 262.944002,385.693334 262.464,385.48 C261.983998,385.266666 261.45067,385.16 260.864,385.16 C260.27733,385.16 259.746669,385.266666 259.272,385.48 C258.797331,385.693334 258.389335,385.986665 258.048,386.36 C257.706665,386.733335 257.442668,387.170664 257.256,387.672 C257.069332,388.173336 256.976,388.71733 256.976,389.304 Z M267.76,383.672 L269.968,383.672 L272.16,391.992 L272.192,391.992 L274.688,383.672 L276.768,383.672 L279.216,391.992 L279.248,391.992 L281.488,383.672 L283.632,383.672 L280.32,395 L278.368,395 L275.712,386.504 L275.68,386.504 L273.024,395 L271.072,395 L267.76,383.672 Z" id="Workflow" fill="#0AA6D2" opacity="0.604789402" transform="translate(234.864000, 389.336000) rotate(-30.000000) translate(-234.864000, -389.336000) "></path>
                <path d="M187.248,439.672 L191.264,439.672 C192.000004,439.672 192.74133,439.767999 193.488,439.96 C194.23467,440.152001 194.906664,440.469331 195.504,440.912 C196.101336,441.354669 196.586665,441.935996 196.96,442.656 C197.333335,443.376004 197.52,444.269328 197.52,445.336 C197.52,446.328005 197.333335,447.18133 196.96,447.896 C196.586665,448.61067 196.101336,449.197331 195.504,449.656 C194.906664,450.114669 194.23467,450.453332 193.488,450.672 C192.74133,450.890668 192.000004,451 191.264,451 L187.248,451 L187.248,439.672 Z M190.944,449.24 C191.466669,449.24 191.989331,449.178667 192.512,449.056 C193.034669,448.933333 193.506665,448.725335 193.928,448.432 C194.349335,448.138665 194.693332,447.741336 194.96,447.24 C195.226668,446.738664 195.36,446.104004 195.36,445.336 C195.36,444.525329 195.226668,443.864003 194.96,443.352 C194.693332,442.839997 194.349335,442.440001 193.928,442.152 C193.506665,441.863999 193.034669,441.666667 192.512,441.56 C191.989331,441.453333 191.466669,441.4 190.944,441.4 L189.264,441.4 L189.264,449.24 L190.944,449.24 Z M199.472,439.672 L206.976,439.672 L206.976,441.432 L201.488,441.432 L201.488,444.312 L206.688,444.312 L206.688,446.008 L201.488,446.008 L201.488,449.208 L207.264,449.208 L207.264,451 L199.472,451 L199.472,439.672 Z M209.232,439.672 L212.928,439.672 C213.57867,439.672 214.165331,439.730666 214.688,439.848 C215.210669,439.965334 215.658665,440.157332 216.032,440.424 C216.405335,440.690668 216.693332,441.031998 216.896,441.448 C217.098668,441.864002 217.2,442.36533 217.2,442.952 C217.2,443.581336 217.082668,444.109331 216.848,444.536 C216.613332,444.962669 216.296002,445.306665 215.896,445.568 C215.495998,445.829335 215.029336,446.018666 214.496,446.136 C213.962664,446.253334 213.397336,446.312 212.8,446.312 L211.248,446.312 L211.248,451 L209.232,451 L209.232,439.672 Z M212.656,444.616 C212.986668,444.616 213.301332,444.592 213.6,444.544 C213.898668,444.496 214.165332,444.410667 214.4,444.288 C214.634668,444.165333 214.821333,443.997334 214.96,443.784 C215.098667,443.570666 215.168,443.293335 215.168,442.952 C215.168,442.621332 215.098667,442.352001 214.96,442.144 C214.821333,441.935999 214.637334,441.773334 214.408,441.656 C214.178666,441.538666 213.917335,441.461334 213.624,441.424 C213.330665,441.386666 213.029335,441.368 212.72,441.368 L211.248,441.368 L211.248,444.616 L212.656,444.616 Z M218.992,439.672 L221.008,439.672 L221.008,449.208 L225.824,449.208 L225.824,451 L218.992,451 L218.992,439.672 Z M226.624,445.304 C226.624,444.397329 226.775998,443.57867 227.08,442.848 C227.384002,442.11733 227.805331,441.496003 228.344,440.984 C228.882669,440.471997 229.522663,440.077335 230.264,439.8 C231.005337,439.522665 231.813329,439.384 232.688,439.384 C233.573338,439.384 234.38933,439.522665 235.136,439.8 C235.88267,440.077335 236.527997,440.471997 237.072,440.984 C237.616003,441.496003 238.039998,442.11733 238.344,442.848 C238.648002,443.57867 238.8,444.397329 238.8,445.304 C238.8,446.189338 238.648002,446.99733 238.344,447.728 C238.039998,448.45867 237.616003,449.087997 237.072,449.616 C236.527997,450.144003 235.88267,450.554665 235.136,450.848 C234.38933,451.141335 233.573338,451.288 232.688,451.288 C231.813329,451.288 231.005337,451.141335 230.264,450.848 C229.522663,450.554665 228.882669,450.144003 228.344,449.616 C227.805331,449.087997 227.384002,448.45867 227.08,447.728 C226.775998,446.99733 226.624,446.189338 226.624,445.304 Z M228.816,445.304 C228.816,445.912003 228.909332,446.469331 229.096,446.976 C229.282668,447.482669 229.549332,447.922665 229.896,448.296 C230.242668,448.669335 230.653331,448.959999 231.128,449.168 C231.602669,449.376001 232.127997,449.48 232.704,449.48 C233.280003,449.48 233.807998,449.376001 234.288,449.168 C234.768002,448.959999 235.181332,448.669335 235.528,448.296 C235.874668,447.922665 236.141332,447.482669 236.328,446.976 C236.514668,446.469331 236.608,445.912003 236.608,445.304 C236.608,444.71733 236.514668,444.173336 236.328,443.672 C236.141332,443.170664 235.877335,442.733335 235.536,442.36 C235.194665,441.986665 234.784002,441.693334 234.304,441.48 C233.823998,441.266666 233.29067,441.16 232.704,441.16 C232.11733,441.16 231.586669,441.266666 231.112,441.48 C230.637331,441.693334 230.229335,441.986665 229.888,442.36 C229.546665,442.733335 229.282668,443.170664 229.096,443.672 C228.909332,444.173336 228.816,444.71733 228.816,445.304 Z M243.488,446.088 L239.232,439.672 L241.696,439.672 L244.544,444.44 L247.424,439.672 L249.76,439.672 L245.504,446.088 L245.504,451 L243.488,451 L243.488,446.088 Z M250.704,439.672 L253.856,439.672 L256.8,447.72 L256.848,447.72 L259.76,439.672 L262.928,439.672 L262.928,451 L260.928,451 L260.928,441.896 L260.896,441.896 L257.456,451 L256.048,451 L252.656,441.896 L252.624,441.896 L252.624,451 L250.704,451 L250.704,439.672 Z M265.424,439.672 L272.928,439.672 L272.928,441.432 L267.44,441.432 L267.44,444.312 L272.64,444.312 L272.64,446.008 L267.44,446.008 L267.44,449.208 L273.216,449.208 L273.216,451 L265.424,451 L265.424,439.672 Z M275.184,439.672 L277.856,439.672 L283.12,448.152 L283.152,448.152 L283.152,439.672 L285.168,439.672 L285.168,451 L282.608,451 L277.232,442.248 L277.2,442.248 L277.2,451 L275.184,451 L275.184,439.672 Z M289.952,441.432 L286.48,441.432 L286.48,439.672 L295.44,439.672 L295.44,441.432 L291.968,441.432 L291.968,451 L289.952,451 L289.952,441.432 Z" id="DEPLOYment" fill="#0AA6D2" opacity="0.604789402" transform="translate(241.344000, 445.336000) rotate(-30.000000) translate(-241.344000, -445.336000) "></path>
            </g>
        </g>
    </g>
</svg>