<svg xmlns="http://www.w3.org/2000/svg" width="707" height="831" viewBox="0 0 707 831">
  <g fill="none" fill-rule="evenodd">
    <g transform="rotate(-121 140.53 -38.01)">
      <rect width="11" height="20" x=".722" y=".751" fill="#01B2D0" opacity=".1" rx="3"/>
      <rect width="9" height="18" x="5.324" y="1.582" stroke="#01B2D0" stroke-width="2" rx="3"/>
    </g>
    <g transform="rotate(19 334.053 1817.745)">
      <path fill="#6FD350" d="M23.1192857,11.0276441 L37.5824497,37.7288699 C38.3715815,39.1857285 37.8302819,41.0064635 36.3734233,41.7955952 C35.9346678,42.0332544 35.443561,42.1577193 34.9445738,42.1577193 L6.01824586,42.1577193 C4.36139161,42.1577193 3.01824586,40.8145736 3.01824586,39.1577193 C3.01824586,38.6587321 3.14271075,38.1676254 3.38036996,37.7288699 L17.8435339,11.0276441 C18.6326657,9.57078544 20.4534007,9.02948586 21.9102593,9.81861762 C22.422013,10.0958176 22.8420858,10.5158904 23.1192857,11.0276441 Z" opacity=".2"/>
      <path stroke="#6FD350" stroke-width="2" d="M33.8805989,5.38050406 C33.695799,5.03933492 33.4157505,4.75928638 33.0745813,4.57448643 C32.1033422,4.04839859 30.8895189,4.40926498 30.3634311,5.38050406 L15.9002671,32.0817299 C15.7418276,32.3742335 15.658851,32.701638 15.658851,33.0342962 C15.658851,34.1388657 16.5542815,35.0342962 17.658851,35.0342962 L46.585179,35.0342962 C46.9178371,35.0342962 47.2452417,34.9513196 47.5377453,34.7928801 C48.5089844,34.2667923 48.8698508,33.052969 48.3437629,32.0817299 L33.8805989,5.38050406 Z"/>
    </g>
    <g transform="rotate(-75 657.253 121.544)">
      <rect width="22" height="27" x=".657" y="1.244" fill="#01B2D0" opacity=".1" rx="3"/>
      <rect width="20" height="25" x="9.643" y="1.14" stroke="#01B2D0" stroke-width="2" rx="3"/>
    </g>
    <g transform="rotate(145 181.99 508.2)">
      <rect width="14" height="15" x=".155" y=".692" fill="#01B2D0" opacity=".1" rx="3"/>
      <rect width="12" height="13" x="6.153" y="1.529" stroke="#01B2D0" stroke-width="2" rx="3"/>
    </g>
    <g transform="rotate(-80 459.8 -251.87)">
      <rect width="15" height="19" x=".53" y="1.746" fill="#01B2D0" opacity=".1" rx="3"/>
      <rect width="13" height="17" x="6.454" y="1.878" stroke="#01B2D0" stroke-width="2" rx="3"/>
    </g>
    <g transform="rotate(136 166.97 403.374)">
      <circle cx="15.55" cy="12.85" r="11" stroke="#FFC111" stroke-width="2"/>
      <circle cx="12.077" cy="16.447" r="12" fill="#FFC111" opacity=".2"/>
    </g>
    <g transform="rotate(60 99.041 451.812)">
      <ellipse cx="16.737" cy="11.743" stroke="#FFC111" stroke-width="2" rx="11" ry="10.5"/>
      <ellipse cx="12.639" cy="12.841" fill="#FFC111" opacity=".2" rx="12" ry="11.5"/>
    </g>
    <g transform="rotate(60 -169.21 116.92)">
      <ellipse cx="16.737" cy="11.743" stroke="#FFC111" stroke-width="2" rx="11" ry="10.5"/>
      <ellipse cx="12.639" cy="12.841" fill="#FFC111" opacity=".2" rx="12" ry="11.5"/>
    </g>
    <g transform="rotate(120 160.67 548.763)">
      <path fill="#6FD350" d="M16.1611862,7.8082363 L24.6317287,23.4944262 C25.4189812,24.9523012 24.8753343,26.7723367 23.4174593,27.5595892 C22.97955,27.7960602 22.4896903,27.919873 21.9920125,27.919873 L5.0509274,27.919873 C3.39407316,27.919873 2.0509274,26.5767272 2.0509274,24.919873 C2.0509274,24.4221953 2.17474018,23.9323355 2.41121121,23.4944262 L10.8817538,7.8082363 C11.6690063,6.3503613 13.4890417,5.80671435 14.9469167,6.59396685 C15.461345,6.87175811 15.8833949,7.29380804 16.1611862,7.8082363 Z" opacity=".2"/>
      <path stroke="#6FD350" stroke-width="2" d="M24.0755094,5.51543602 C23.8903152,5.17248385 23.6089486,4.89111723 23.2659964,4.70592306 C22.2940798,4.18108806 21.0807228,4.54351936 20.5558878,5.51543602 L12.0853452,21.201626 C11.9276979,21.4935655 11.845156,21.8201386 11.845156,22.1519238 C11.845156,23.2564933 12.7405865,24.1519238 13.845156,24.1519238 L30.7862412,24.1519238 C31.1180263,24.1519238 31.4445995,24.0693819 31.736539,23.9117346 C32.7084557,23.3868996 33.070887,22.1735426 32.546052,21.201626 L24.0755094,5.51543602 Z"/>
    </g>
    <g transform="rotate(19 -900.605 2012.594)">
      <path fill="#6FD350" d="M16.4097972,9.14423029 L24.2680985,23.0473788 C25.0833657,24.4897746 24.5749775,26.319972 23.1325818,27.1352391 C22.6822337,27.3897837 22.1737168,27.5235506 21.65641,27.5235506 L5.93980731,27.5235506 C4.28295306,27.5235506 2.93980731,26.1804049 2.93980731,24.5235506 C2.93980731,24.0062438 3.07357425,23.4977269 3.3281188,23.0473788 L11.1864201,9.14423029 C12.0016873,7.70183455 13.8318847,7.19344639 15.2742804,8.00871354 C15.7489403,8.27699957 16.1415112,8.66957039 16.4097972,9.14423029 Z" opacity=".2"/>
      <path stroke="#6FD350" stroke-width="2" d="M23.7233334,5.76065558 C23.544476,5.44421565 23.2827621,5.18250177 22.9663222,5.00364442 C22.004725,4.46013298 20.7845935,4.79905842 20.241082,5.76065558 L12.3827807,19.6638041 C12.2130843,19.9640362 12.1239063,20.3030475 12.1239063,20.6479186 C12.1239063,21.7524881 13.0193368,22.6479186 14.1239063,22.6479186 L29.840509,22.6479186 C30.1853802,22.6479186 30.5243915,22.5587407 30.8246236,22.3890443 C31.7862207,21.8455329 32.1251462,20.6254013 31.5816347,19.6638041 L23.7233334,5.76065558 Z"/>
    </g>
    <g transform="rotate(28 -1195.173 528.825)">
      <path fill="#6FD350" d="M18.6672675,10.8300613 L29.7428616,32.2890249 C30.5027661,33.7613398 29.9252433,35.5709112 28.4529284,36.3308157 C28.0275157,36.5503835 27.5557334,36.6649537 27.0769997,36.6649537 L4.92581135,36.6649537 C3.2689571,36.6649537 1.92581135,35.3218079 1.92581135,33.6649537 C1.92581135,33.1862199 2.04038151,32.7144377 2.25994937,32.2890249 L13.3355435,10.8300613 C14.095448,9.35774635 15.9050193,8.78022358 17.3773343,9.54012805 C17.9307875,9.82578132 18.3816142,10.276608 18.6672675,10.8300613 Z" opacity=".2"/>
      <path stroke="#6FD350" stroke-width="2" d="M27.4910703,6.12451699 C27.3006348,5.75554818 27.0000837,5.45499703 26.6311149,5.26456151 C25.6495716,4.75795853 24.4431907,5.14297371 23.9365877,6.12451699 L12.8609936,27.5834807 C12.714615,27.8670891 12.6382349,28.1816106 12.6382349,28.5007665 C12.6382349,29.605336 13.5336654,30.5007665 14.6382349,30.5007665 L36.7894232,30.5007665 C37.108579,30.5007665 37.4231005,30.4243864 37.706709,30.2780078 C38.6882523,29.7714048 39.0732675,28.5650239 38.5666645,27.5834807 L27.4910703,6.12451699 Z"/>
    </g>
    <g transform="rotate(-157 111.408 91.476)">
      <path fill="#6FD350" d="M15.3870215,10.6359015 L23.0329196,25.9276975 C23.7738873,27.409633 23.1732143,29.2116522 21.6912788,29.9526199 C21.2747125,30.1609031 20.8153733,30.2693383 20.349638,30.2693383 L5.05784191,30.2693383 C3.40098767,30.2693383 2.05784191,28.9261926 2.05784191,27.2693383 C2.05784191,26.803603 2.16627719,26.3442639 2.37456034,25.9276975 L10.0204584,10.6359015 C10.7614261,9.15396599 12.5634452,8.55329295 14.0453807,9.29426069 C14.6259629,9.5845518 15.0967304,10.0553193 15.3870215,10.6359015 Z" opacity=".2"/>
      <path stroke="#6FD350" stroke-width="2" d="M23.3069117,6.25529894 C23.1133843,5.86824413 22.7995394,5.55439915 22.4124845,5.36087175 C21.4245276,4.86689325 20.2231815,5.26734194 19.729203,6.25529894 L12.0833049,21.547095 C11.9444495,21.8248059 11.8721593,22.131032 11.8721593,22.4415222 C11.8721593,23.5460917 12.7675898,24.4415222 13.8721593,24.4415222 L29.1639554,24.4415222 C29.4744456,24.4415222 29.7806717,24.369232 30.0583826,24.2303766 C31.0463396,23.7363981 31.4467883,22.535052 30.9528098,21.547095 L23.3069117,6.25529894 Z"/>
    </g>
  </g>
</svg>
