<svg xmlns="http://www.w3.org/2000/svg" width="1440" height="730" viewBox="0 0 1440 730">
  <g fill="none" fill-rule="evenodd">
    <g transform="rotate(-121 648.94 -323.24)">
      <rect width="11" height="20" x=".722" y=".751" fill="#01B2D0" opacity=".1" rx="3"/>
      <rect width="9" height="18" x="5.324" y="1.582" stroke="#01B2D0" stroke-width="2" rx="3"/>
    </g>
    <g transform="rotate(145 263.156 137.452)">
      <rect width="14" height="15" x=".155" y=".692" fill="#01B2D0" opacity=".1" rx="3"/>
      <rect width="12" height="13" x="6.153" y="1.529" stroke="#01B2D0" stroke-width="2" rx="3"/>
    </g>
    <g transform="rotate(-80 431.746 266.828)">
      <rect width="15" height="19" x=".53" y="1.746" fill="#01B2D0" opacity=".1" rx="3"/>
      <rect width="13" height="17" x="6.454" y="1.878" stroke="#01B2D0" stroke-width="2" rx="3"/>
    </g>
    <g transform="rotate(60 67.256 212.491)">
      <ellipse cx="16.737" cy="11.743" stroke="#FFC111" stroke-width="2" rx="11" ry="10.5"/>
      <ellipse cx="12.639" cy="12.841" fill="#FFC111" opacity=".2" rx="12" ry="11.5"/>
    </g>
    <g transform="rotate(60 -273.987 319.441)">
      <ellipse cx="16.737" cy="11.743" stroke="#FFC111" stroke-width="2" rx="11" ry="10.5"/>
      <ellipse cx="12.639" cy="12.841" fill="#FFC111" opacity=".2" rx="12" ry="11.5"/>
    </g>
    <g transform="rotate(19 -592.458 222.362)">
      <path fill="#6FD350" d="M16.4097972,9.14423029 L24.2680985,23.0473788 C25.0833657,24.4897746 24.5749775,26.319972 23.1325818,27.1352391 C22.6822337,27.3897837 22.1737168,27.5235506 21.65641,27.5235506 L5.93980731,27.5235506 C4.28295306,27.5235506 2.93980731,26.1804049 2.93980731,24.5235506 C2.93980731,24.0062438 3.07357425,23.4977269 3.3281188,23.0473788 L11.1864201,9.14423029 C12.0016873,7.70183455 13.8318847,7.19344639 15.2742804,8.00871354 C15.7489403,8.27699957 16.1415112,8.66957039 16.4097972,9.14423029 Z" opacity=".2"/>
      <path stroke="#6FD350" stroke-width="2" d="M23.7233334,5.76065558 C23.544476,5.44421565 23.2827621,5.18250177 22.9663222,5.00364442 C22.004725,4.46013298 20.7845935,4.79905842 20.241082,5.76065558 L12.3827807,19.6638041 C12.2130843,19.9640362 12.1239063,20.3030475 12.1239063,20.6479186 C12.1239063,21.7524881 13.0193368,22.6479186 14.1239063,22.6479186 L29.840509,22.6479186 C30.1853802,22.6479186 30.5243915,22.5587407 30.8246236,22.3890443 C31.7862207,21.8455329 32.1251462,20.6254013 31.5816347,19.6638041 L23.7233334,5.76065558 Z"/>
    </g>
    <g transform="rotate(28 117.563 2863.611)">
      <path fill="#6FD350" d="M14.8535895,9.40984983 L22.1042826,23.3631474 C22.8682604,24.8333528 22.2957497,26.6445162 20.8255442,27.4084939 C20.3982489,27.6305336 19.9237824,27.7464514 19.4422402,27.7464514 L4.9408539,27.7464514 C3.28399965,27.7464514 1.9408539,26.4033057 1.9408539,24.7464514 C1.9408539,24.2649092 2.0567717,23.7904427 2.27881147,23.3631474 L9.52950461,9.40984983 C10.2934823,7.93964439 12.1046456,7.36713371 13.5748511,8.13111143 C14.12248,8.41568137 14.5690195,8.86222094 14.8535895,9.40984983 Z" opacity=".2"/>
      <path stroke="#6FD350" stroke-width="2" d="M21.3661837,5.96291763 C21.1764704,5.5978317 20.8787774,5.30013865 20.5136915,5.11042536 C19.5335545,4.60110688 18.3261123,4.98278067 17.8167938,5.96291763 L10.5661007,19.9162152 C10.4180742,20.2010787 10.3407956,20.5173897 10.3407956,20.8384179 C10.3407956,21.9429874 11.2362261,22.8384179 12.3407956,22.8384179 L26.8421819,22.8384179 C27.1632101,22.8384179 27.4795211,22.7611394 27.7643846,22.6131129 C28.7445216,22.1037944 29.1261954,20.8963522 28.6168769,19.9162152 L21.3661837,5.96291763 Z"/>
    </g>
    <g transform="rotate(-73 523.275 -570.65)">
      <path fill="#6FD350" d="M14.8535895,9.40984983 L22.1042826,23.3631474 C22.8682604,24.8333528 22.2957497,26.6445162 20.8255442,27.4084939 C20.3982489,27.6305336 19.9237824,27.7464514 19.4422402,27.7464514 L4.9408539,27.7464514 C3.28399965,27.7464514 1.9408539,26.4033057 1.9408539,24.7464514 C1.9408539,24.2649092 2.0567717,23.7904427 2.27881147,23.3631474 L9.52950461,9.40984983 C10.2934823,7.93964439 12.1046456,7.36713371 13.5748511,8.13111143 C14.12248,8.41568137 14.5690195,8.86222094 14.8535895,9.40984983 Z" opacity=".2"/>
      <path stroke="#6FD350" stroke-width="2" d="M21.3661837,5.96291763 C21.1764704,5.5978317 20.8787774,5.30013865 20.5136915,5.11042536 C19.5335545,4.60110688 18.3261123,4.98278067 17.8167938,5.96291763 L10.5661007,19.9162152 C10.4180742,20.2010787 10.3407956,20.5173897 10.3407956,20.8384179 C10.3407956,21.9429874 11.2362261,22.8384179 12.3407956,22.8384179 L26.8421819,22.8384179 C27.1632101,22.8384179 27.4795211,22.7611394 27.7643846,22.6131129 C28.7445216,22.1037944 29.1261954,20.8963522 28.6168769,19.9162152 L21.3661837,5.96291763 Z"/>
    </g>
    <g transform="rotate(136 430.73 417.062)">
      <circle cx="15.55" cy="12.85" r="11" stroke="#FFC111" stroke-width="2"/>
      <circle cx="12.077" cy="16.447" r="12" fill="#FFC111" opacity=".2"/>
    </g>
    <g transform="rotate(30 -540.55 2826.84)">
      <circle cx="11.981" cy="9.746" r="8" stroke="#FFC111" stroke-width="2"/>
      <circle cx="9.202" cy="12.623" r="9" fill="#FFC111" opacity=".2"/>
    </g>
  </g>
</svg>
