<svg xmlns="http://www.w3.org/2000/svg" width="422" height="422" viewBox="0 0 422 422">
  <g fill="none" fill-rule="evenodd">
    <rect width="2" height="2" x="80" y="360" fill="#E1E1E1"/>
    <rect width="2" height="2" x="80" y="380" fill="#E1E1E1"/>
    <rect width="2" height="2" x="100" y="360" fill="#6FD350"/>
    <rect width="2" height="2" x="120" y="360" fill="#6FD350"/>
    <rect width="2" height="2" x="140" y="360" fill="#6FD350"/>
    <rect width="2" height="2" x="160" y="360" fill="#6FD350"/>
    <rect width="2" height="2" x="180" y="360" fill="#6FD350"/>
    <rect width="2" height="2" x="200" y="360" fill="#E1E1E1"/>
    <rect width="2" height="2" x="220" y="360" fill="#E1E1E1"/>
    <rect width="2" height="2" x="240" y="360" fill="#E1E1E1"/>
    <rect width="2" height="2" x="260" y="360" fill="#6FD350"/>
    <rect width="2" height="2" x="280" y="360" fill="#6FD350"/>
    <rect width="2" height="2" x="300" y="360" fill="#6FD350"/>
    <rect width="2" height="2" x="100" y="380" fill="#6FD350"/>
    <rect width="2" height="2" x="120" y="380" fill="#6FD350"/>
    <rect width="2" height="2" x="140" y="380" fill="#6FD350"/>
    <rect width="2" height="2" x="160" y="380" fill="#6FD350"/>
    <rect width="2" height="2" x="180" y="380" fill="#6FD350"/>
    <rect width="2" height="2" x="200" y="380" fill="#E1E1E1"/>
    <rect width="2" height="2" x="220" y="380" fill="#E1E1E1"/>
    <rect width="2" height="2" x="240" y="380" fill="#E1E1E1"/>
    <rect width="2" height="2" x="260" y="380" fill="#01B2D0"/>
    <rect width="2" height="2" x="280" y="380" fill="#01B2D0"/>
    <rect width="2" height="2" x="300" y="380" fill="#01B2D0"/>
    <rect width="2" height="2" x="120" y="400" fill="#6FD350"/>
    <rect width="2" height="2" x="140" y="400" fill="#6FD350"/>
    <rect width="2" height="2" x="160" y="400" fill="#6FD350"/>
    <rect width="2" height="2" x="180" y="400" fill="#6FD350"/>
    <rect width="2" height="2" x="200" y="400" fill="#E1E1E1"/>
    <rect width="2" height="2" x="220" y="400" fill="#E1E1E1"/>
    <rect width="2" height="2" x="180" y="420" fill="#6FD350"/>
    <rect width="2" height="2" x="200" y="420" fill="#E1E1E1"/>
    <rect width="2" height="2" x="220" y="420" fill="#E1E1E1"/>
    <rect width="2" height="2" x="240" y="420" fill="#E1E1E1"/>
    <rect width="2" height="2" x="240" y="400" fill="#E1E1E1"/>
    <rect width="2" height="2" x="260" y="400" fill="#01B2D0"/>
    <rect width="2" height="2" x="280" y="400" fill="#01B2D0"/>
    <rect width="2" height="2" x="300" y="400" fill="#01B2D0"/>
    <rect width="2" height="2" x="320" y="360" fill="#6FD350"/>
    <rect width="2" height="2" x="320" y="380" fill="#6FD350"/>
    <rect width="2" height="2" x="60" y="340" fill="#E1E1E1"/>
    <rect width="2" height="2" x="60" y="360" fill="#E1E1E1"/>
    <rect width="2" height="2" x="80" y="340" fill="#E1E1E1"/>
    <rect width="2" height="2" x="100" y="340" fill="#6FD350"/>
    <rect width="2" height="2" x="120" y="340" fill="#6FD350"/>
    <rect width="2" height="2" x="140" y="340" fill="#6FD350"/>
    <rect width="2" height="2" x="160" y="340" fill="#6FD350"/>
    <rect width="2" height="2" x="180" y="340" fill="#6FD350"/>
    <rect width="2" height="2" x="200" y="340" fill="#E1E1E1"/>
    <rect width="2" height="2" x="220" y="340" fill="#E1E1E1"/>
    <rect width="2" height="2" x="240" y="340" fill="#E1E1E1"/>
    <rect width="2" height="2" x="260" y="340" fill="#6FD350"/>
    <rect width="2" height="2" x="280" y="340" fill="#6FD350"/>
    <rect width="2" height="2" x="300" y="340" fill="#6FD350"/>
    <rect width="2" height="2" x="320" y="340" fill="#6FD350"/>
    <rect width="2" height="2" x="340" y="340" fill="#E1E1E1"/>
    <rect width="2" height="2" x="340" y="360" fill="#E1E1E1"/>
    <rect width="2" height="2" x="340" y="380" fill="#E1E1E1"/>
    <rect width="2" height="2" x="360" y="340" fill="#E1E1E1"/>
    <rect width="2" height="2" x="360" y="360" fill="#E1E1E1"/>
    <rect width="2" height="2" x="60" y="320" fill="#E1E1E1"/>
    <rect width="2" height="2" x="80" y="320" fill="#E1E1E1"/>
    <rect width="2" height="2" x="100" y="320" fill="#E1E1E1"/>
    <rect width="2" height="2" x="120" y="320" fill="#E1E1E1"/>
    <rect width="2" height="2" x="140" y="320" fill="#E1E1E1"/>
    <rect width="2" height="2" x="160" y="320" fill="#E1E1E1"/>
    <rect width="2" height="2" x="180" y="320" fill="#E1E1E1"/>
    <rect width="2" height="2" x="200" y="320" fill="#E1E1E1"/>
    <rect width="2" height="2" x="220" y="320" fill="#E1E1E1"/>
    <rect width="2" height="2" x="240" y="320" fill="#E1E1E1"/>
    <rect width="2" height="2" x="260" y="320" fill="#E1E1E1"/>
    <rect width="2" height="2" x="280" y="320" fill="#E1E1E1"/>
    <rect width="2" height="2" x="300" y="320" fill="#E1E1E1"/>
    <rect width="2" height="2" x="320" y="320" fill="#E1E1E1"/>
    <rect width="2" height="2" x="340" y="320" fill="#E1E1E1"/>
    <rect width="2" height="2" x="360" y="320" fill="#E1E1E1"/>
    <rect width="2" height="2" x="380" y="320" fill="#E1E1E1"/>
    <rect width="2" height="2" x="60" y="300" fill="#01B2D0"/>
    <rect width="2" height="2" x="80" y="300" fill="#E1E1E1"/>
    <rect width="2" height="2" x="100" y="300" fill="#E1E1E1"/>
    <rect width="2" height="2" x="120" y="300" fill="#E1E1E1"/>
    <rect width="2" height="2" x="140" y="300" fill="#E1E1E1"/>
    <rect width="2" height="2" x="160" y="300" fill="#E1E1E1"/>
    <rect width="2" height="2" x="180" y="300" fill="#E1E1E1"/>
    <rect width="2" height="2" x="200" y="300" fill="#E1E1E1"/>
    <rect width="2" height="2" x="220" y="300" fill="#E1E1E1"/>
    <rect width="2" height="2" x="240" y="300" fill="#E1E1E1"/>
    <rect width="2" height="2" x="260" y="300" fill="#E1E1E1"/>
    <rect width="2" height="2" x="280" y="300" fill="#E1E1E1"/>
    <rect width="2" height="2" x="300" y="300" fill="#E1E1E1"/>
    <rect width="2" height="2" x="320" y="300" fill="#E1E1E1"/>
    <rect width="2" height="2" x="340" y="300" fill="#E1E1E1"/>
    <rect width="2" height="2" x="360" y="300" fill="#E1E1E1"/>
    <rect width="2" height="2" x="380" y="300" fill="#E1E1E1"/>
    <rect width="2" height="2" x="60" y="280" fill="#01B2D0"/>
    <rect width="2" height="2" x="80" y="280" fill="#E1E1E1"/>
    <rect width="2" height="2" x="100" y="280" fill="#E1E1E1"/>
    <rect width="2" height="2" x="120" y="280" fill="#E1E1E1"/>
    <rect width="2" height="2" x="140" y="280" fill="#E1E1E1"/>
    <rect width="2" height="2" x="160" y="280" fill="#E1E1E1"/>
    <rect width="2" height="2" x="180" y="280" fill="#E1E1E1"/>
    <rect width="2" height="2" x="200" y="280" fill="#E1E1E1"/>
    <rect width="2" height="2" x="220" y="280" fill="#E1E1E1"/>
    <rect width="2" height="2" x="240" y="280" fill="#E1E1E1"/>
    <rect width="2" height="2" x="260" y="280" fill="#E1E1E1"/>
    <rect width="2" height="2" x="280" y="280" fill="#E1E1E1"/>
    <rect width="2" height="2" x="300" y="280" fill="#E1E1E1"/>
    <rect width="2" height="2" x="320" y="280" fill="#E1E1E1"/>
    <rect width="2" height="2" x="340" y="280" fill="#E1E1E1"/>
    <rect width="2" height="2" x="360" y="280" fill="#E1E1E1"/>
    <rect width="2" height="2" x="380" y="280" fill="#E1E1E1"/>
    <rect width="2" height="2" x="400" y="280" fill="#E1E1E1"/>
    <rect width="2" height="2" x="20" y="260" fill="#E1E1E1"/>
    <rect width="2" height="2" x="40" y="260" fill="#E1E1E1"/>
    <rect width="2" height="2" x="40" y="280" fill="#01B2D0"/>
    <rect width="2" height="2" x="20" y="280" fill="#01B2D0"/>
    <rect width="2" height="2" x="40" y="300" fill="#01B2D0"/>
    <rect width="2" height="2" x="40" y="320" fill="#E1E1E1"/>
    <rect width="2" height="2" x="60" y="260" fill="#E1E1E1"/>
    <rect width="2" height="2" x="80" y="260" fill="#E1E1E1"/>
    <rect width="2" height="2" x="100" y="260" fill="#E1E1E1"/>
    <rect width="2" height="2" x="120" y="260" fill="#E1E1E1"/>
    <rect width="2" height="2" x="140" y="260" fill="#E1E1E1"/>
    <rect width="2" height="2" x="160" y="260" fill="#E1E1E1"/>
    <rect width="2" height="2" x="180" y="260" fill="#6FD350"/>
    <rect width="2" height="2" x="200" y="260" fill="#E1E1E1"/>
    <rect width="2" height="2" x="220" y="260" fill="#E1E1E1"/>
    <rect width="2" height="2" x="240" y="260" fill="#E1E1E1"/>
    <rect width="2" height="2" x="260" y="260" fill="#E1E1E1"/>
    <rect width="2" height="2" x="280" y="260" fill="#FFC111"/>
    <rect width="2" height="2" x="300" y="260" fill="#FFC111"/>
    <rect width="2" height="2" x="320" y="260" fill="#FFC111"/>
    <rect width="2" height="2" x="340" y="260" fill="#FFC111"/>
    <rect width="2" height="2" x="360" y="260" fill="#FFC111"/>
    <rect width="2" height="2" x="380" y="260" fill="#FFC111"/>
    <rect width="2" height="2" y="240" fill="#E1E1E1"/>
    <rect width="2" height="2" x="20" y="240" fill="#E1E1E1"/>
    <rect width="2" height="2" x="40" y="240" fill="#E1E1E1"/>
    <rect width="2" height="2" x="60" y="240" fill="#E1E1E1"/>
    <rect width="2" height="2" x="80" y="240" fill="#E1E1E1"/>
    <rect width="2" height="2" x="100" y="240" fill="#E1E1E1"/>
    <rect width="2" height="2" x="120" y="240" fill="#E1E1E1"/>
    <rect width="2" height="2" x="140" y="240" fill="#E1E1E1"/>
    <rect width="2" height="2" x="160" y="240" fill="#E1E1E1"/>
    <rect width="2" height="2" x="180" y="240" fill="#E1E1E1"/>
    <rect width="2" height="2" x="200" y="240" fill="#E1E1E1"/>
    <rect width="2" height="2" x="220" y="240" fill="#E1E1E1"/>
    <rect width="2" height="2" x="240" y="240" fill="#E1E1E1"/>
    <rect width="2" height="2" x="260" y="240" fill="#E1E1E1"/>
    <rect width="2" height="2" x="280" y="240" fill="#FFC111"/>
    <rect width="2" height="2" x="300" y="240" fill="#FFC111"/>
    <rect width="2" height="2" x="320" y="240" fill="#FFC111"/>
    <rect width="2" height="2" x="340" y="240" fill="#FFC111"/>
    <rect width="2" height="2" x="360" y="240" fill="#FFC111"/>
    <rect width="2" height="2" x="380" y="240" fill="#FFC111"/>
    <rect width="2" height="2" x="400" y="240" fill="#FFC111"/>
    <rect width="2" height="2" x="420" y="240" fill="#FFC111"/>
    <rect width="2" height="2" x="400" y="240" fill="#FFC111"/>
    <rect width="2" height="2" x="400" y="260" fill="#FFC111"/>
    <rect width="2" height="2" y="220" fill="#E1E1E1"/>
    <rect width="2" height="2" x="20" y="220" fill="#E1E1E1"/>
    <rect width="2" height="2" x="40" y="220" fill="#E1E1E1"/>
    <rect width="2" height="2" x="60" y="220" fill="#E1E1E1"/>
    <rect width="2" height="2" x="80" y="220" fill="#E1E1E1"/>
    <rect width="2" height="2" x="100" y="220" fill="#E1E1E1"/>
    <rect width="2" height="2" x="120" y="220" fill="#E1E1E1"/>
    <rect width="2" height="2" x="140" y="220" fill="#E1E1E1"/>
    <rect width="2" height="2" x="160" y="220" fill="#E1E1E1"/>
    <rect width="2" height="2" x="180" y="220" fill="#E1E1E1"/>
    <rect width="2" height="2" x="200" y="220" fill="#E1E1E1"/>
    <rect width="2" height="2" x="220" y="220" fill="#E1E1E1"/>
    <rect width="2" height="2" x="240" y="220" fill="#E1E1E1"/>
    <rect width="2" height="2" x="260" y="220" fill="#E1E1E1"/>
    <rect width="2" height="2" y="200" fill="#E1E1E1"/>
    <rect width="2" height="2" x="20" y="200" fill="#E1E1E1"/>
    <rect width="2" height="2" x="40" y="200" fill="#E1E1E1"/>
    <rect width="2" height="2" x="60" y="200" fill="#E1E1E1"/>
    <rect width="2" height="2" x="80" y="200" fill="#E1E1E1"/>
    <rect width="2" height="2" x="100" y="200" fill="#E1E1E1"/>
    <rect width="2" height="2" x="120" y="200" fill="#E1E1E1"/>
    <rect width="2" height="2" x="140" y="200" fill="#E1E1E1"/>
    <rect width="2" height="2" x="160" y="200" fill="#E1E1E1"/>
    <rect width="2" height="2" x="180" y="200" fill="#E1E1E1"/>
    <rect width="2" height="2" x="200" y="200" fill="#E1E1E1"/>
    <rect width="2" height="2" x="220" y="200" fill="#E1E1E1"/>
    <rect width="2" height="2" x="240" y="200" fill="#E1E1E1"/>
    <rect width="2" height="2" x="260" y="200" fill="#E1E1E1"/>
    <rect width="2" height="2" y="180" fill="#E1E1E1"/>
    <rect width="2" height="2" x="20" y="180" fill="#E1E1E1"/>
    <rect width="2" height="2" x="40" y="180" fill="#E1E1E1"/>
    <rect width="2" height="2" x="60" y="180" fill="#E1E1E1"/>
    <rect width="2" height="2" x="80" y="180" fill="#E1E1E1"/>
    <rect width="2" height="2" x="100" y="180" fill="#E1E1E1"/>
    <rect width="2" height="2" x="120" y="180" fill="#E1E1E1"/>
    <rect width="2" height="2" x="140" y="180" fill="#E1E1E1"/>
    <rect width="2" height="2" x="160" y="180" fill="#E1E1E1"/>
    <rect width="2" height="2" x="180" y="180" fill="#E1E1E1"/>
    <rect width="2" height="2" x="200" y="180" fill="#E1E1E1"/>
    <rect width="2" height="2" x="220" y="180" fill="#E1E1E1"/>
    <rect width="2" height="2" x="240" y="180" fill="#E1E1E1"/>
    <rect width="2" height="2" x="260" y="180" fill="#E1E1E1"/>
    <rect width="2" height="2" x="280" y="220" fill="#FFC111"/>
    <rect width="2" height="2" x="280" y="200" fill="#E1E1E1"/>
    <rect width="2" height="2" x="280" y="180" fill="#E1E1E1"/>
    <rect width="2" height="2" x="300" y="220" fill="#FFC111"/>
    <rect width="2" height="2" x="300" y="200" fill="#E1E1E1"/>
    <rect width="2" height="2" x="300" y="180" fill="#E1E1E1"/>
    <rect width="2" height="2" x="20" y="160" fill="#E1E1E1"/>
    <rect width="2" height="2" y="160" fill="#E1E1E1"/>
    <rect width="2" height="2" x="40" y="160" fill="#E1E1E1"/>
    <rect width="2" height="2" x="60" y="160" fill="#E1E1E1"/>
    <rect width="2" height="2" x="80" y="160" fill="#E1E1E1"/>
    <rect width="2" height="2" x="100" y="160" fill="#E1E1E1"/>
    <rect width="2" height="2" x="120" y="160" fill="#E1E1E1"/>
    <rect width="2" height="2" x="140" y="160" fill="#E1E1E1"/>
    <rect width="2" height="2" x="160" y="160" fill="#E1E1E1"/>
    <rect width="2" height="2" x="180" y="160" fill="#E1E1E1"/>
    <rect width="2" height="2" x="200" y="160" fill="#E1E1E1"/>
    <rect width="2" height="2" x="220" y="160" fill="#01B2D0"/>
    <rect width="2" height="2" x="240" y="160" fill="#01B2D0"/>
    <rect width="2" height="2" x="260" y="160" fill="#01B2D0"/>
    <rect width="2" height="2" x="280" y="160" fill="#E1E1E1"/>
    <rect width="2" height="2" x="300" y="160" fill="#E1E1E1"/>
    <rect width="2" height="2" x="320" y="220" fill="#FFC111"/>
    <rect width="2" height="2" x="320" y="200" fill="#E1E1E1"/>
    <rect width="2" height="2" x="320" y="180" fill="#E1E1E1"/>
    <rect width="2" height="2" x="320" y="160" fill="#E1E1E1"/>
    <rect width="2" height="2" x="340" y="220" fill="#FFC111"/>
    <rect width="2" height="2" x="340" y="200" fill="#E1E1E1"/>
    <rect width="2" height="2" x="340" y="180" fill="#E1E1E1"/>
    <rect width="2" height="2" x="340" y="160" fill="#E1E1E1"/>
    <rect width="2" height="2" x="360" y="220" fill="#FFC111"/>
    <rect width="2" height="2" x="360" y="200" fill="#E1E1E1"/>
    <rect width="2" height="2" x="360" y="180" fill="#E1E1E1"/>
    <rect width="2" height="2" x="360" y="160" fill="#E1E1E1"/>
    <rect width="2" height="2" x="380" y="220" fill="#FFC111"/>
    <rect width="2" height="2" x="380" y="200" fill="#E1E1E1"/>
    <rect width="2" height="2" x="380" y="180" fill="#E1E1E1"/>
    <rect width="2" height="2" x="380" y="160" fill="#E1E1E1"/>
    <rect width="2" height="2" x="400" y="220" fill="#FFC111"/>
    <rect width="2" height="2" x="400" y="200" fill="#E1E1E1"/>
    <rect width="2" height="2" x="400" y="180" fill="#E1E1E1"/>
    <rect width="2" height="2" x="400" y="160" fill="#E1E1E1"/>
    <rect width="2" height="2" x="420" y="160" fill="#E1E1E1"/>
    <rect width="2" height="2" x="420" y="220" fill="#FFC111"/>
    <rect width="2" height="2" x="420" y="200" fill="#E1E1E1"/>
    <rect width="2" height="2" x="420" y="180" fill="#E1E1E1"/>
    <rect width="2" height="2" x="20" y="140" fill="#FFC111"/>
    <rect width="2" height="2" x="40" y="140" fill="#E1E1E1"/>
    <rect width="2" height="2" x="60" y="140" fill="#6FD350"/>
    <rect width="2" height="2" x="80" y="140" fill="#E1E1E1"/>
    <rect width="2" height="2" x="100" y="140" fill="#E1E1E1"/>
    <rect width="2" height="2" x="120" y="140" fill="#E1E1E1"/>
    <rect width="2" height="2" x="140" y="140" fill="#E1E1E1"/>
    <rect width="2" height="2" x="160" y="140" fill="#E1E1E1"/>
    <rect width="2" height="2" x="180" y="140" fill="#E1E1E1"/>
    <rect width="2" height="2" x="200" y="140" fill="#E1E1E1"/>
    <rect width="2" height="2" x="220" y="140" fill="#01B2D0"/>
    <rect width="2" height="2" x="240" y="140" fill="#01B2D0"/>
    <rect width="2" height="2" x="260" y="140" fill="#01B2D0"/>
    <rect width="2" height="2" x="280" y="140" fill="#01B2D0"/>
    <rect width="2" height="2" x="300" y="140" fill="#01B2D0"/>
    <rect width="2" height="2" x="320" y="140" fill="#01B2D0"/>
    <rect width="2" height="2" x="20" y="120" fill="#FFC111"/>
    <rect width="2" height="2" x="40" y="120" fill="#E1E1E1"/>
    <rect width="2" height="2" x="60" y="120" fill="#6FD350"/>
    <rect width="2" height="2" x="80" y="120" fill="#E1E1E1"/>
    <rect width="2" height="2" x="100" y="120" fill="#E1E1E1"/>
    <rect width="2" height="2" x="120" y="120" fill="#E1E1E1"/>
    <rect width="2" height="2" x="140" y="120" fill="#E1E1E1"/>
    <rect width="2" height="2" x="160" y="120" fill="#E1E1E1"/>
    <rect width="2" height="2" x="180" y="120" fill="#E1E1E1"/>
    <rect width="2" height="2" x="200" y="120" fill="#E1E1E1"/>
    <rect width="2" height="2" x="220" y="120" fill="#01B2D0"/>
    <rect width="2" height="2" x="240" y="120" fill="#01B2D0"/>
    <rect width="2" height="2" x="260" y="120" fill="#01B2D0"/>
    <rect width="2" height="2" x="280" y="120" fill="#01B2D0"/>
    <rect width="2" height="2" x="300" y="120" fill="#01B2D0"/>
    <rect width="2" height="2" x="320" y="120" fill="#01B2D0"/>
    <rect width="2" height="2" x="40" y="100" fill="#E1E1E1"/>
    <rect width="2" height="2" x="60" y="100" fill="#6FD350"/>
    <rect width="2" height="2" x="80" y="100" fill="#E1E1E1"/>
    <rect width="2" height="2" x="100" y="100" fill="#E1E1E1"/>
    <rect width="2" height="2" x="120" y="100" fill="#E1E1E1"/>
    <rect width="2" height="2" x="140" y="100" fill="#E1E1E1"/>
    <rect width="2" height="2" x="160" y="100" fill="#E1E1E1"/>
    <rect width="2" height="2" x="180" y="100" fill="#E1E1E1"/>
    <rect width="2" height="2" x="200" y="100" fill="#E1E1E1"/>
    <rect width="2" height="2" x="220" y="100" fill="#E1E1E1"/>
    <rect width="2" height="2" x="240" y="100" fill="#E1E1E1"/>
    <rect width="2" height="2" x="260" y="100" fill="#E1E1E1"/>
    <rect width="2" height="2" x="280" y="100" fill="#E1E1E1"/>
    <rect width="2" height="2" x="300" y="100" fill="#E1E1E1"/>
    <rect width="2" height="2" x="320" y="100" fill="#E1E1E1"/>
    <rect width="2" height="2" x="60" y="80" fill="#6FD350"/>
    <rect width="2" height="2" x="80" y="80" fill="#E1E1E1"/>
    <rect width="2" height="2" x="80" y="60" fill="#E1E1E1"/>
    <rect width="2" height="2" x="80" y="40" fill="#E1E1E1"/>
    <rect width="2" height="2" x="60" y="60" fill="#E1E1E1"/>
    <rect width="2" height="2" x="100" y="80" fill="#E1E1E1"/>
    <rect width="2" height="2" x="120" y="80" fill="#E1E1E1"/>
    <rect width="2" height="2" x="140" y="80" fill="#E1E1E1"/>
    <rect width="2" height="2" x="160" y="80" fill="#E1E1E1"/>
    <rect width="2" height="2" x="180" y="80" fill="#E1E1E1"/>
    <rect width="2" height="2" x="200" y="80" fill="#E1E1E1"/>
    <rect width="2" height="2" x="220" y="80" fill="#E1E1E1"/>
    <rect width="2" height="2" x="240" y="80" fill="#E1E1E1"/>
    <rect width="2" height="2" x="260" y="80" fill="#E1E1E1"/>
    <rect width="2" height="2" x="280" y="80" fill="#E1E1E1"/>
    <rect width="2" height="2" x="300" y="80" fill="#E1E1E1"/>
    <rect width="2" height="2" x="320" y="80" fill="#E1E1E1"/>
    <rect width="2" height="2" x="100" y="60" fill="#E1E1E1"/>
    <rect width="2" height="2" x="120" y="60" fill="#E1E1E1"/>
    <rect width="2" height="2" x="140" y="60" fill="#E1E1E1"/>
    <rect width="2" height="2" x="160" y="60" fill="#E1E1E1"/>
    <rect width="2" height="2" x="180" y="60" fill="#E1E1E1"/>
    <rect width="2" height="2" x="200" y="60" fill="#E1E1E1"/>
    <rect width="2" height="2" x="220" y="60" fill="#FFC111"/>
    <rect width="2" height="2" x="240" y="60" fill="#FFC111"/>
    <rect width="2" height="2" x="260" y="60" fill="#E1E1E1"/>
    <rect width="2" height="2" x="280" y="60" fill="#E1E1E1"/>
    <rect width="2" height="2" x="300" y="60" fill="#E1E1E1"/>
    <rect width="2" height="2" x="320" y="60" fill="#E1E1E1"/>
    <rect width="2" height="2" x="340" y="80" fill="#E1E1E1"/>
    <rect width="2" height="2" x="360" y="80" fill="#E1E1E1"/>
    <rect width="2" height="2" x="340" y="60" fill="#E1E1E1"/>
    <rect width="2" height="2" x="340" y="40" fill="#E1E1E1"/>
    <rect width="2" height="2" x="360" y="60" fill="#E1E1E1"/>
    <rect width="2" height="2" x="340" y="100" fill="#E1E1E1"/>
    <rect width="2" height="2" x="360" y="100" fill="#E1E1E1"/>
    <rect width="2" height="2" x="380" y="100" fill="#E1E1E1"/>
    <rect width="2" height="2" x="340" y="120" fill="#E1E1E1"/>
    <rect width="2" height="2" x="360" y="120" fill="#E1E1E1"/>
    <rect width="2" height="2" x="380" y="120" fill="#E1E1E1"/>
    <rect width="2" height="2" x="400" y="120" fill="#E1E1E1"/>
    <rect width="2" height="2" x="340" y="140" fill="#E1E1E1"/>
    <rect width="2" height="2" x="360" y="140" fill="#E1E1E1"/>
    <rect width="2" height="2" x="380" y="140" fill="#E1E1E1"/>
    <rect width="2" height="2" x="400" y="140" fill="#E1E1E1"/>
    <rect width="2" height="2" x="100" y="40" fill="#E1E1E1"/>
    <rect width="2" height="2" x="120" y="40" fill="#E1E1E1"/>
    <rect width="2" height="2" x="140" y="40" fill="#E1E1E1"/>
    <rect width="2" height="2" x="160" y="40" fill="#E1E1E1"/>
    <rect width="2" height="2" x="180" y="40" fill="#E1E1E1"/>
    <rect width="2" height="2" x="200" y="40" fill="#E1E1E1"/>
    <rect width="2" height="2" x="220" y="40" fill="#FFC111"/>
    <rect width="2" height="2" x="240" y="40" fill="#FFC111"/>
    <rect width="2" height="2" x="260" y="40" fill="#E1E1E1"/>
    <rect width="2" height="2" x="280" y="40" fill="#E1E1E1"/>
    <rect width="2" height="2" x="300" y="40" fill="#E1E1E1"/>
    <rect width="2" height="2" x="320" y="40" fill="#E1E1E1"/>
    <rect width="2" height="2" x="140" y="20" fill="#E1E1E1"/>
    <rect width="2" height="2" x="160" y="20" fill="#E1E1E1"/>
    <rect width="2" height="2" x="180" y="20" fill="#E1E1E1"/>
    <rect width="2" height="2" x="200" y="20" fill="#E1E1E1"/>
    <rect width="2" height="2" x="220" y="20" fill="#FFC111"/>
    <rect width="2" height="2" x="240" y="20" fill="#FFC111"/>
    <rect width="2" height="2" x="260" y="20" fill="#E1E1E1"/>
    <rect width="2" height="2" x="220" fill="#FFC111"/>
    <rect width="2" height="2" x="240" fill="#FFC111"/>
    <rect width="2" height="2" x="280" y="20" fill="#E1E1E1"/>
    <rect width="2" height="2" x="180" fill="#E1E1E1"/>
    <rect width="2" height="2" x="200" fill="#E1E1E1"/>
  </g>
</svg>
