<svg xmlns="http://www.w3.org/2000/svg" width="1441" height="858" viewBox="0 0 1441 858">
  <g fill="none" fill-rule="evenodd">
    <g transform="rotate(-86 1118.304 -283.395)">
      <rect width="14" height="91" x=".912" y="3.766" fill="#01B2D0" opacity=".1"/>
      <rect width="12" height="89" x="5.693" y="1.494" stroke="#01B2D0" stroke-width="2"/>
    </g>
    <g transform="rotate(-64 1119.698 -657.274)">
      <rect width="10" height="66" x=".838" y="3.53" fill="#01B2D0" opacity=".1"/>
      <rect width="8" height="64" x="4.995" y="1.877" stroke="#01B2D0" stroke-width="2"/>
    </g>
    <g transform="rotate(-61 630.846 374.784)">
      <rect width="16" height="103" x=".878" y="5.078" fill="#01B2D0" opacity=".1"/>
      <rect width="14" height="101" x="6.156" y="1.42" stroke="#01B2D0" stroke-width="2"/>
    </g>
    <g transform="rotate(-101 62.53 -7.889)">
      <rect width="33" height="43" x=".577" y="2.062" fill="#01B2D0" opacity=".1"/>
      <rect width="31" height="41" x="10.002" y="1.644" stroke="#01B2D0" stroke-width="2"/>
    </g>
    <g transform="rotate(144 652.197 216.374)">
      <circle cx="8.87" cy="6.534" r="5" stroke="#FFC111" stroke-width="2"/>
      <circle cx="6.885" cy="7.565" r="6" fill="#FFC111" opacity=".2"/>
    </g>
    <g transform="rotate(144 10.624 464.752)">
      <ellipse cx="11.865" cy="9.857" stroke="#FFC111" stroke-width="2" rx="8" ry="8.5"/>
      <ellipse cx="9.514" cy="13.093" fill="#FFC111" opacity=".2" rx="9" ry="9.5"/>
    </g>
    <g transform="rotate(144 16.711 141.273)">
      <circle cx="20.614" cy="16.32" r="15" stroke="#FFC111" stroke-width="2"/>
      <circle cx="16.5" cy="21.983" r="16" fill="#FFC111" opacity=".2"/>
    </g>
    <g transform="rotate(55 -117.914 1436.156)">
      <ellipse cx="13.676" cy="10.979" stroke="#FFC111" stroke-width="2" rx="10" ry="9.5"/>
      <ellipse cx="11.382" cy="14.256" fill="#FFC111" opacity=".2" rx="11" ry="10.5"/>
    </g>
    <g transform="rotate(55 -538.959 416.278)">
      <circle cx="19.807" cy="15.298" r="14" stroke="#FFC111" stroke-width="2"/>
      <circle cx="15.547" cy="19.64" r="15" fill="#FFC111" opacity=".2"/>
    </g>
    <g transform="rotate(30 -390.071 2955.52)">
      <polygon fill="#6FD350" points="10.341 2.772 19.841 22.772 .841 22.772" opacity=".2"/>
      <path stroke="#6FD350" stroke-width="2" d="M16.9027523,2.46840676 L8.9848318,19.1377131 L24.8206728,19.1377131 L16.9027523,2.46840676 Z"/>
    </g>
    <g transform="rotate(134 -60.424 257.45)">
      <polygon fill="#6FD350" points="12.848 3.613 24.848 26.613 .848 26.613" opacity=".2"/>
      <path stroke="#6FD350" stroke-width="2" d="M19.967714,3.06989156 L9.61737677,22.9080379 L30.3180512,22.9080379 L19.967714,3.06989156 Z"/>
    </g>
    <g transform="rotate(-165 226.528 339.961)">
      <polygon fill="#6FD350" points="13.579 5.105 26.579 31.105 .579 31.105" opacity=".2"/>
      <path stroke="#6FD350" stroke-width="2" d="M21.7551026,3.07950394 L10.3731366,25.843436 L33.1370686,25.843436 L21.7551026,3.07950394 Z"/>
    </g>
    <g transform="rotate(135 442.163 194.091)">
      <polygon fill="#6FD350" points="9.747 4.291 19.247 24.291 .247 24.291" opacity=".2"/>
      <path stroke="#6FD350" stroke-width="2" d="M16.1109127,3.08626731 L8.19299219,19.7555736 L24.0288332,19.7555736 L16.1109127,3.08626731 Z"/>
    </g>
    <g transform="rotate(-165 673.619 157.759)">
      <polygon fill="#6FD350" points="17.307 5.767 33.807 38.767 .807 38.767" opacity=".2"/>
      <path stroke="#6FD350" stroke-width="2" d="M27.4143811,3.22398393 L12.5324151,32.987916 L42.2963471,32.987916 L27.4143811,3.22398393 Z"/>
    </g>
  </g>
</svg>
