<svg xmlns="http://www.w3.org/2000/svg" width="300" height="150" viewBox="0 0 300 150">
  <g fill="none" fill-rule="evenodd" transform="translate(81 14)">
    <path stroke="#6FD350" stroke-dasharray="0 4" stroke-linecap="round" stroke-linejoin="round" stroke-width="2" d="M66,65.1630425 L72.7008189,65.1630425 C77.9611864,65.1630425 82.2255569,60.898672 82.2255569,55.6383044 L82.2255569,55.6383044 C82.2255569,50.3779368 77.9611864,46.1135664 72.7008189,46.1135664 L67.5567832,46.1135664 C62.2787176,46.1135664 58,41.8348488 58,36.5567832 L58,36.5567832 C58,31.2787176 62.2787176,27 67.5567832,27 L97.020179,27" transform="matrix(1 0 0 -1 0 92.163)"/>
    <path stroke="#6FD350" stroke-dasharray="0 4" stroke-linecap="round" stroke-linejoin="round" stroke-width="2" d="M82,69.0028193 L82,69.0028193 C85.9737302,68.8926543 89.2843815,72.0246927 89.3945465,75.9984229 C89.3963894,76.0648974 89.397311,76.1313943 89.397311,76.1978944 L89.397311,97.18548" transform="matrix(1 0 0 -1 0 166.185)"/>
    <g transform="translate(88 24)">
      <rect width="32" height="23" y="4" fill="#01B2D0" fill-opacity=".2"/>
      <rect width="30" height="21" x="5" y="1" stroke="#01B2D0" stroke-width="2"/>
    </g>
    <g transform="translate(85)">
      <rect width="49" height="15" y="4" fill="#01B2D0" fill-opacity=".2"/>
      <rect width="47" height="13" x="5" y="1" stroke="#01B2D0" stroke-width="2"/>
    </g>
    <g transform="translate(97 81)">
      <rect width="37" height="10" y="4" fill="#01B2D0" fill-opacity=".2"/>
      <rect width="35" height="8" x="5" y="1" stroke="#01B2D0" stroke-width="2"/>
    </g>
    <g transform="translate(96 55)">
      <rect width="29" height="18" y="4" fill="#6FD350" fill-opacity=".2"/>
      <rect width="27" height="16" x="5" y="1" stroke="#6FD350" stroke-width="2"/>
    </g>
    <g transform="translate(27 17)">
      <rect width="31" height="18" y="4" fill="#6FD350" fill-opacity=".2"/>
      <rect width="29" height="16" x="5" y="1" stroke="#6FD350" stroke-width="2"/>
    </g>
    <g transform="translate(52 89.163)">
      <rect width="23" height="14" y="4" fill="#6FD350" fill-opacity=".2"/>
      <rect width="21" height="12" x="5" y="1" stroke="#6FD350" stroke-width="2"/>
    </g>
    <g transform="translate(13 42)">
      <rect width="34" height="20" y="4" fill="#01B2D0" fill-opacity=".2"/>
      <rect width="32" height="18" x="5" y="1" stroke="#01B2D0" stroke-width="2"/>
    </g>
    <g transform="translate(19.397 71.163)">
      <rect width="55" height="9" y="4" fill="#01B2D0" fill-opacity=".2"/>
      <rect width="53" height="7" x="5" y="1" stroke="#01B2D0" stroke-width="2"/>
    </g>
    <g transform="translate(0 90)">
      <rect width="43" height="24" y="4" fill="#01B2D0" fill-opacity=".2"/>
      <rect width="41" height="22" x="5" y="1" stroke="#01B2D0" stroke-width="2"/>
    </g>
    <g transform="translate(53 110)">
      <rect width="22" height="8" y="4" fill="#01B2D0" fill-opacity=".2"/>
      <rect width="20" height="6" x="5" y="1" stroke="#01B2D0" stroke-width="2"/>
    </g>
    <rect width="73" height="9" y="4" fill="#01B2D0" fill-opacity=".2"/>
    <rect width="71" height="7" x="5" y="1" stroke="#01B2D0" stroke-width="2"/>
    <g transform="translate(87 100)">
      <rect width="48" height="15" y="4" fill="#01B2D0" fill-opacity=".2"/>
      <rect width="46" height="13" x="5" y="1" stroke="#01B2D0" stroke-width="2"/>
    </g>
  </g>
</svg>
