<svg xmlns="http://www.w3.org/2000/svg" width="1349" height="857" viewBox="0 0 1349 857">
  <g fill="none" fill-rule="evenodd" transform="translate(-5 -4)">
    <g transform="rotate(-86 1069.369 -222.856)">
      <rect width="28" height="21" x=".032" y="4.471" fill="#01B2D0" opacity=".1" rx="3"/>
      <rect width="26" height="19" x="6.738" y="1.062" stroke="#01B2D0" stroke-width="2" rx="3"/>
    </g>
    <g transform="rotate(-64 1189.515 -724.23)">
      <rect width="12" height="30" x=".838" y="3.53" fill="#01B2D0" opacity=".1" rx="3"/>
      <rect width="10" height="28" x="4.995" y="1.877" stroke="#01B2D0" stroke-width="2" rx="3"/>
    </g>
    <g transform="rotate(-173 91.415 24.279)">
      <rect width="33" height="22" x=".577" y="2.062" fill="#01B2D0" opacity=".1" rx="3"/>
      <rect width="31" height="20" x="10.002" y="1.644" stroke="#01B2D0" stroke-width="2" rx="3"/>
    </g>
    <g transform="rotate(144 610.184 207.39)">
      <circle cx="11.618" cy="9.077" r="8" stroke="#FFC111" stroke-width="2"/>
      <circle cx="9.046" cy="10.916" r="9" fill="#FFC111" opacity=".2"/>
    </g>
    <g transform="rotate(144 -106.04 378.26)">
      <ellipse cx="11.865" cy="9.857" stroke="#FFC111" stroke-width="2" rx="8" ry="8.5"/>
      <ellipse cx="9.514" cy="13.093" fill="#FFC111" opacity=".2" rx="9" ry="9.5"/>
    </g>
    <g transform="rotate(144 3.071 96.488)">
      <circle cx="20.614" cy="16.32" r="15" stroke="#FFC111" stroke-width="2"/>
      <circle cx="16.5" cy="21.983" r="16" fill="#FFC111" opacity=".2"/>
    </g>
    <g transform="rotate(55 -162.795 1356.975)">
      <ellipse cx="13.676" cy="10.979" stroke="#FFC111" stroke-width="2" rx="10" ry="9.5"/>
      <ellipse cx="11.382" cy="14.256" fill="#FFC111" opacity=".2" rx="11" ry="10.5"/>
    </g>
    <g transform="rotate(134 -36.413 229.877)">
      <path fill="#6FD350" d="M15.5081148,8.71048999 L22.5591265,22.2249291 C23.325531,23.693871 22.7560119,25.5059772 21.28707,26.2723817 C20.8586567,26.4959017 20.3825896,26.6126271 19.899372,26.6126271 L5.79734859,26.6126271 C4.14049434,26.6126271 2.79734859,25.2694814 2.79734859,23.6126271 C2.79734859,23.1294096 2.91407403,22.6533425 3.13759405,22.2249291 L10.1886058,8.71048999 C10.9550102,7.24154812 12.7671164,6.67202902 14.2360583,7.43843347 C14.7802192,7.72234348 15.2242048,8.16632915 15.5081148,8.71048999 Z" opacity=".2"/>
      <path stroke="#6FD350" stroke-width="2" d="M21.7408837,6.46846681 C21.5516104,6.10569291 21.2556199,5.80970246 20.892846,5.62042913 C19.9135514,5.10949283 18.7054806,5.48917223 18.1945443,6.46846681 L11.1435326,19.9829059 C10.9945193,20.2685148 10.9167023,20.5858929 10.9167023,20.9080379 C10.9167023,22.0126074 11.8121328,22.9080379 12.9167023,22.9080379 L27.0187257,22.9080379 C27.3408708,22.9080379 27.6582488,22.830221 27.9438577,22.6812076 C28.9231523,22.1702713 29.3028317,20.9622005 28.7918954,19.9829059 L21.7408837,6.46846681 Z"/>
    </g>
    <g transform="rotate(-165 211.67 414.657)">
      <path fill="#6FD350" d="M16.2626898,10.4712222 L24.4085878,26.7630182 C25.1495556,28.2449537 24.5488825,30.0469728 23.066947,30.7879406 C22.6503807,30.9962237 22.1910415,31.104659 21.7253063,31.104659 L5.43351019,31.104659 C3.77665594,31.104659 2.43351019,29.7615133 2.43351019,28.104659 C2.43351019,27.6389237 2.54194547,27.1795845 2.75022862,26.7630182 L10.8961267,10.4712222 C11.6370944,8.98928667 13.4391135,8.38861363 14.921049,9.12958138 C15.5016312,9.41987248 15.9723987,9.89063996 16.2626898,10.4712222 Z" opacity=".2"/>
      <path stroke="#6FD350" stroke-width="2" d="M23.543957,6.6572127 C23.3504296,6.2701579 23.0365846,5.95631291 22.6495298,5.76278551 C21.6615728,5.26880701 20.4602267,5.66925571 19.9662482,6.6572127 L11.8203502,22.9490088 C11.6814947,23.2267196 11.6092045,23.5329458 11.6092045,23.843436 C11.6092045,24.9480055 12.504635,25.843436 13.6092045,25.843436 L29.9010006,25.843436 C30.2114908,25.843436 30.5177169,25.7711458 30.7954278,25.6322903 C31.7833848,25.1383118 32.1838335,23.9369658 31.689855,22.9490088 L23.543957,6.6572127 Z"/>
    </g>
    <g transform="rotate(135 379.32 193.014)">
      <path fill="#6FD350" d="M12.7116182,9.6823096 L17.4653797,19.6902286 C18.1762643,21.1868278 17.5393168,22.976347 16.0427176,23.6872316 C15.6405116,23.8782794 15.2008212,23.9773991 14.7555472,23.9773991 L5.24802414,23.9773991 C3.59116989,23.9773991 2.24802414,22.6342533 2.24802414,20.9773991 C2.24802414,20.532125 2.34714377,20.0924346 2.53819163,19.6902286 L7.29195316,9.6823096 C8.00283776,8.18571043 9.79235694,7.54876293 11.2889561,8.25964754 C11.912798,8.55597242 12.4152933,9.05846775 12.7116182,9.6823096 Z" opacity=".2"/>
      <path stroke="#6FD350" stroke-width="2" d="M18.1723017,6.57583251 C17.9747518,6.15993794 17.6397549,5.82494105 17.2238603,5.62739113 C16.2261275,5.15346806 15.0331148,5.57809973 14.5591917,6.57583251 L9.80543016,16.5837515 C9.67806493,16.8518889 9.61198517,17.1450158 9.61198517,17.4418651 C9.61198517,18.5464346 10.5074157,19.4418651 11.6119852,19.4418651 L21.1195082,19.4418651 C21.4163576,19.4418651 21.7094845,19.3757854 21.9776219,19.2484202 C22.9753546,18.7744971 23.3999863,17.5814843 22.9260632,16.5837515 L18.1723017,6.57583251 Z"/>
    </g>
    <g transform="rotate(-165 631.816 164.788)">
      <path fill="#6FD350" d="M19.9901167,11.1333402 L31.6360147,34.4251363 C32.3769825,35.9070718 31.7763094,37.7090909 30.2943739,38.4500587 C29.8778076,38.6583418 29.4184684,38.7667771 28.9527332,38.7667771 L5.66093708,38.7667771 C4.00408283,38.7667771 2.66093708,37.4236314 2.66093708,35.7667771 C2.66093708,35.3010418 2.76937236,34.8417026 2.97765551,34.4251363 L14.6235535,11.1333402 C15.3645213,9.65140475 17.1665404,9.05073171 18.6484759,9.79169946 C19.2290581,10.0819906 19.6998256,10.552758 19.9901167,11.1333402 Z" opacity=".2"/>
      <path stroke="#6FD350" stroke-width="2" d="M29.2032355,6.80169269 C29.0097081,6.41463789 28.6958631,6.1007929 28.3088083,5.9072655 C27.3208513,5.413287 26.1195052,5.8137357 25.6255267,6.80169269 L13.9796287,30.0934888 C13.8407733,30.3711996 13.7684831,30.6774258 13.7684831,30.987916 C13.7684831,32.0924855 14.6639136,32.987916 15.7684831,32.987916 L39.0602792,32.987916 C39.3707693,32.987916 39.6769955,32.9156258 39.9547063,32.7767703 C40.9426633,32.2827918 41.343112,31.0814458 40.8491335,30.0934888 L29.2032355,6.80169269 Z"/>
    </g>
    <g transform="rotate(-154 189.454 297.59)">
      <rect width="13.161" height="28.696" x=".539" y="3.725" fill="#01B2D0" opacity=".1" rx="3"/>
      <rect width="11.161" height="26.696" x="4.509" y="1.234" stroke="#01B2D0" stroke-width="2" rx="3"/>
    </g>
  </g>
</svg>
