<svg xmlns="http://www.w3.org/2000/svg" width="132" height="120" viewBox="0 0 132 120">
  <g fill="none" fill-rule="evenodd" transform="translate(28 18)">
    <g transform="translate(0 14)">
      <circle cx="26" cy="34" r="26" fill="#FFC111" fill-opacity=".2"/>
      <circle cx="34" cy="26" r="25.2" stroke="#FFC111" stroke-width="1.6"/>
    </g>
    <path fill="#FFC111" fill-rule="nonzero" d="M47.9143673,76.9229007 C49.3703839,76.4389166 50.7949128,75.8732533 52.1817412,75.2290903 C52.68263,74.9964342 53.2772856,75.2138798 53.5099417,75.7147687 C53.7425977,76.2156575 53.5251521,76.8103131 53.0242633,77.0429691 C51.4609426,77.7691104 49.8520244,78.4001991 48.2056177,78.932098 L48.9698376,84.2040867 C48.9884367,84.3323932 48.9769074,84.463268 48.9361625,84.5863466 C48.7912126,85.0241991 48.3187579,85.2616435 47.8809055,85.1166936 L34.7944574,80.7844596 C34.6229187,80.7276722 34.4744257,80.6167794 34.3712672,80.4684262 C34.1079552,80.0897548 34.2014724,79.5693245 34.5801438,79.3060124 L45.8977998,71.4361943 C46.0042429,71.3621784 46.126457,71.3139616 46.2547635,71.2953624 C46.7112142,71.229196 47.1348791,71.5455839 47.2010456,72.0020346 L47.9143673,76.9229007 Z M61.7179907,71.6359565 C61.2879274,71.9824591 60.6583964,71.9147198 60.3118938,71.4846566 C59.9653913,71.0545933 60.0331306,70.4250623 60.4631938,70.0785597 C61.9871005,68.8507459 63.4166129,67.5145931 64.739197,66.0819679 C65.1138253,65.6761698 65.7464859,65.6509018 66.1522839,66.0255301 C66.558082,66.4001585 66.58335,67.0328191 66.2087217,67.4386171 C64.8195338,68.9433877 63.3182446,70.3466296 61.7179907,71.6359565 Z M72.1701351,59.1064269 C71.9075332,59.5922856 71.300786,59.773271 70.8149273,59.5106691 C70.3290685,59.2480673 70.1480831,58.6413201 70.410685,58.1554613 C71.3394757,56.4370386 72.1354407,54.6522173 72.7909218,52.8143934 C72.9764532,52.2942045 73.5485526,52.0229109 74.0687415,52.2084423 C74.5889305,52.3939737 74.860224,52.9660731 74.6746926,53.486262 C73.9848497,55.420429 73.1472837,57.2985335 72.1701351,59.1064269 Z M76.8603012,43.3676405 C76.8144503,43.9180187 76.3311111,44.3270189 75.7807329,44.281168 C75.2303547,44.2353171 74.8213546,43.7519779 74.8672055,43.2015997 C74.9555714,42.1408853 75,41.0731243 75,40 C75,39.1559413 74.9725141,38.3151705 74.9177753,37.4785005 C74.8817194,36.9273939 75.2992504,36.4514047 75.850357,36.4153488 C76.4014635,36.3792929 76.8774527,36.7968239 76.9135087,37.3479304 C76.9710905,38.2280565 77,39.1123739 77,40 C77,41.1285611 76.9532665,42.2517167 76.8603012,43.3676405 Z M74.9448405,27.296681 C75.1195667,27.8205982 74.8364916,28.3869606 74.3125745,28.5616869 C73.7886573,28.7364132 73.2222949,28.453338 73.0475687,27.9294209 C72.4302087,26.0782657 71.6713111,24.277861 70.7782386,22.5415207 C70.5256305,22.0503918 70.7189897,21.4474738 71.2101186,21.1948657 C71.7012475,20.9422576 72.3041655,21.1356168 72.5567736,21.6267457 C73.4964366,23.4536689 74.2950693,25.3483408 74.9448405,27.296681 Z M66.7665836,13.1779169 C67.1330194,13.5911278 67.0951007,14.2231563 66.6818898,14.5895921 C66.2686789,14.9560279 65.6366503,14.9181092 65.2702145,14.5048983 C63.9764716,13.0460106 62.5736516,11.6815916 61.0741323,10.4237167 C60.6510061,10.0687764 60.5957305,9.43802881 60.9506708,9.01490258 C61.3056112,8.59177635 61.9363587,8.53650075 62.359485,8.89144108 C63.9342236,10.2124138 65.4075821,11.6454405 66.7665836,13.1779169 Z M53.6989817,3.27770673 C54.1956807,3.51917835 54.4025834,4.11758387 54.1611118,4.61428288 C53.9196402,5.11098188 53.3212346,5.31788456 52.8245356,5.07641295 C51.0711884,4.22401827 49.2544584,3.49823821 47.3873153,2.90591151 C46.8608853,2.73890852 46.5695123,2.17677009 46.7365153,1.65034018 C46.9035182,1.12391028 47.4656567,0.832537194 47.9920866,0.999540186 C49.9517531,1.62121872 51.8586034,2.38300164 53.6989817,3.27770673 Z M38.0182104,-0.895721828 C38.5691722,-0.857517974 38.9848446,-0.379904841 38.9466408,0.171056964 C38.9084369,0.722018769 38.4308238,1.13769122 37.879862,1.09948736 C36.928825,1.03354218 35.9724793,1.00027582 35.0119703,1.00000171 C34.4596856,0.999844095 34.0120982,0.552001092 34.0122558,-0.000283635735 C34.0124134,-0.552568363 34.4602564,-1.00015582 35.0125411,-0.99999821 C36.0190263,-0.999710975 37.0213251,-0.964846143 38.0182104,-0.895721828 Z"/>
  </g>
</svg>
