<svg xmlns="http://www.w3.org/2000/svg" width="383" height="340" viewBox="0 0 383 340">
  <g fill="none" fill-rule="evenodd" transform="translate(-28 -34)">
    <g transform="rotate(98 47.267 255.026)">
      <path fill="#6FD350" fill-opacity=".2" d="M80.8694725,24.9070628 L121.622124,106.107179 C122.365317,107.587999 121.767352,109.390919 120.286531,110.134112 C119.866644,110.344844 119.403134,110.454018 118.933335,110.452839 L37.8349479,110.249381 C36.1780988,110.245225 34.838327,108.898713 34.8424836,107.241864 C34.8436418,106.780202 34.9513326,106.325035 35.1571721,105.911799 L75.5029073,24.915141 C76.241639,23.4320896 78.0427501,22.8286992 79.5258015,23.5674309 C80.1068265,23.8568488 80.5783068,24.3269118 80.8694725,24.9070628 Z" transform="rotate(-135 78.406 65.005)"/>
      <path stroke="#6FD350" stroke-width="2" d="M66.800612,38.5969989 C66.6065015,38.2102315 66.2921813,37.8968562 65.9048314,37.703911 C64.9161304,37.2114232 63.7153897,37.6136834 63.2229019,38.6023843 L22.8771666,119.599042 C22.7399403,119.874533 22.6681465,120.177977 22.6673743,120.485752 C22.6646032,121.590318 23.5577845,122.487993 24.6623505,122.490764 L105.760737,122.694222 C106.073937,122.695008 106.382944,122.622225 106.662868,122.481737 C107.650082,121.986275 108.048726,120.784328 107.553263,119.797115 L66.800612,38.5969989 Z" transform="rotate(-135 65.23 78.246)"/>
    </g>
    <path fill="#6FD350" fill-rule="nonzero" d="M13.9045034,282.128598 C14.1250281,283.715404 14.3855234,285.293695 14.6855985,286.862375 C14.7893644,287.404825 14.4337413,287.928685 13.8912922,288.032451 C13.348843,288.136217 12.8249822,287.780594 12.7212163,287.238145 C12.4053451,285.586888 12.1324235,283.925237 11.9028883,282.254428 L6.67700978,282.582948 C6.54761764,282.591082 6.41810864,282.568979 6.2987391,282.518388 C5.8740817,282.338412 5.67572819,281.84826 5.85570414,281.423603 L11.2347899,268.731526 C11.3052996,268.565157 11.4278678,268.426145 11.5840971,268.335355 C11.9828723,268.103615 12.4940062,268.239023 12.7257465,268.637798 L19.6519564,280.556313 C19.7170977,280.668407 19.755246,280.794129 19.7633801,280.923521 C19.7923173,281.383834 19.4426183,281.780449 18.9823054,281.809386 L13.9045034,282.128598 Z M15.1437008,297.06137 C14.9833329,296.532881 15.281754,295.974452 15.810243,295.814084 C16.338732,295.653716 16.8971608,295.952137 17.0575286,296.480626 C17.6324982,298.375426 18.2668632,300.2499 18.9594911,302.101716 C19.1529696,302.619002 18.890472,303.19519 18.3731863,303.388669 C17.8559005,303.582147 17.2797123,303.31965 17.0862338,302.802364 C16.3788342,300.911054 15.7309366,298.996593 15.1437008,297.06137 Z M21.1282971,312.083929 C20.8813953,311.589907 21.0817259,310.989269 21.5757481,310.742367 C22.0697703,310.495466 22.6704079,310.695796 22.9173097,311.189818 C23.802618,312.961218 24.7434917,314.704027 25.7383583,316.415793 C26.0158757,316.893289 25.8537611,317.505349 25.376265,317.782866 C24.8987689,318.060383 24.2867095,317.898269 24.009192,317.420773 C22.9932347,315.672718 22.0324004,313.892936 21.1282971,312.083929 Z M29.5249725,325.863168 C29.1991988,325.417197 29.2966377,324.791575 29.7426085,324.465801 C30.1885792,324.140027 30.8142018,324.237466 31.1399755,324.683437 C32.3072738,326.28142 33.524426,327.842628 34.7894527,329.364677 C35.1424651,329.789413 35.0843217,330.419903 34.6595857,330.772915 C34.2348497,331.125928 33.60436,331.067784 33.2513476,330.643048 C31.9596772,329.088942 30.716879,327.494839 29.5249725,325.863168 Z M40.1372979,338.097943 C39.74187,337.712384 39.7338689,337.07927 40.1194272,336.683842 C40.5049854,336.288414 41.1380998,336.280413 41.5335278,336.665971 C42.9512197,338.048278 44.4117897,339.386021 45.9129444,340.677053 C46.3316731,341.037171 46.3791867,341.668551 46.019069,342.087279 C45.6589514,342.506008 45.0275716,342.553522 44.608843,342.193404 C43.0761028,340.875207 41.5848086,339.509324 40.1372979,338.097943 Z M52.5664053,348.348659 C52.1125958,348.033896 51.9998759,347.410846 52.3146384,346.957036 C52.6294008,346.503227 53.2524514,346.390507 53.7062609,346.705269 C55.3331274,347.833664 56.9949822,348.910793 58.6893815,349.934878 C59.1620429,350.220552 59.3136263,350.835304 59.0279524,351.307966 C58.7422785,351.780627 58.1275262,351.932211 57.6548647,351.646537 C55.9246233,350.600789 54.2276393,349.500891 52.5664053,348.348659 Z M66.5813566,356.420205 C66.0813081,356.185748 65.8660036,355.590314 66.1004605,355.090265 C66.3349173,354.590217 66.9303515,354.374912 67.4303999,354.609369 C69.2218843,355.449339 71.0400118,356.232835 72.8823715,356.958514 C73.3962313,357.160916 73.6487176,357.741561 73.4463155,358.255421 C73.2439133,358.769281 72.6632684,359.021767 72.1494087,358.819365 C70.267802,358.078226 68.4109628,357.278049 66.5813566,356.420205 Z M81.7619648,362.029376 C81.2295936,361.882409 80.9171618,361.331697 81.0641288,360.799325 C81.2110959,360.266954 81.7618083,359.954522 82.2941796,360.101489 C84.199706,360.627531 86.1236516,361.093806 88.0638025,361.499395 C88.604401,361.612407 88.9510282,362.142263 88.8380161,362.682861 C88.7250039,363.22346 88.1951478,363.570087 87.6545494,363.457075 C85.6730736,363.042847 83.7081209,362.566634 81.7619648,362.029376 Z M97.6868308,365.007113 C97.1373421,364.95161 96.7368875,364.461167 96.7923905,363.911678 C96.8478935,363.36219 97.3383362,362.961735 97.8878249,363.017238 C99.8521421,363.215651 101.827302,363.353209 103.811401,363.429348 C104.36328,363.450525 104.793498,363.91508 104.77232,364.466958 C104.751142,365.018837 104.286588,365.449054 103.734709,365.427877 C101.709082,365.350145 99.6924683,365.209699 97.6868308,365.007113 Z M113.874065,365.292804 C113.322951,365.328746 112.847048,364.911117 112.811105,364.360003 C112.775163,363.808889 113.192792,363.332986 113.743906,363.297043 C115.723996,363.167906 117.694053,362.977358 119.65212,362.726016 C120.19991,362.6557 120.700984,363.04277 120.771299,363.59056 C120.841615,364.138351 120.454545,364.639424 119.906755,364.70974 C117.90735,364.966388 115.895781,365.160952 113.874065,365.292804 Z M129.852614,362.897812 C129.315236,363.025263 128.776287,362.692951 128.648836,362.155573 C128.521386,361.618195 128.853697,361.079246 129.391075,360.951795 C131.320586,360.494171 133.232635,359.976093 135.124962,359.398546 C135.653192,359.237328 136.212101,359.53485 136.373319,360.06308 C136.534537,360.59131 136.237015,361.150219 135.708785,361.311437 C133.776091,361.901304 131.823262,362.430431 129.852614,362.897812 Z M145.218835,357.849837 C144.71056,358.065881 144.123384,357.828981 143.90734,357.320707 C143.691296,356.812432 143.928196,356.225255 144.436471,356.009211 C146.25922,355.234445 148.056413,354.402465 149.825622,353.514681 C150.319246,353.266983 150.920206,353.466344 151.167904,353.959967 C151.415603,354.453591 151.216241,355.054551 150.722618,355.302249 C148.915801,356.208904 147.080379,357.058582 145.218835,357.849837 Z M159.509424,350.29911 C159.044471,350.597166 158.42593,350.461869 158.127875,349.996916 C157.829819,349.531963 157.965116,348.913422 158.430069,348.615367 C160.097118,347.546714 161.73031,346.425909 163.327213,345.254791 C163.772571,344.92818 164.398376,345.024443 164.724987,345.469801 C165.051598,345.915159 164.955335,346.540963 164.509977,346.867575 C162.879374,348.063406 161.211696,349.207878 159.509424,350.29911 Z M172.367898,340.446053 C171.959112,340.81742 171.326675,340.787086 170.955308,340.3783 C170.583942,339.969515 170.614276,339.337077 171.023061,338.965711 C172.488163,337.63472 173.911446,336.258201 175.290662,334.838349 C175.675476,334.442197 176.308574,334.433006 176.704726,334.81782 C177.100878,335.202634 177.11007,335.835732 176.725255,336.231884 C175.317034,337.681597 173.863816,339.087066 172.367898,340.446053 Z M183.341842,328.674427 C183.000042,329.108237 182.371286,329.182826 181.937475,328.841026 C181.503665,328.499226 181.429076,327.87047 181.770876,327.43666 C182.995851,325.88193 184.171896,324.289279 185.297091,322.661114 C185.61108,322.206769 186.233938,322.092989 186.688283,322.406978 C187.142628,322.720967 187.256408,323.343825 186.942419,323.79817 C185.793482,325.46069 184.592636,327.086927 183.341842,328.674427 Z M192.258636,315.170469 C191.994017,315.655232 191.386523,315.833694 190.90176,315.569076 C190.416996,315.304457 190.238534,314.696963 190.503153,314.2122 C191.451502,312.474889 192.345061,310.707882 193.182328,308.913623 C193.415868,308.413146 194.010907,308.196752 194.511384,308.430293 C195.011861,308.663833 195.228256,309.258872 194.994715,309.759349 C194.139652,311.591744 193.227114,313.396283 192.258636,315.170469 Z M198.790769,300.357042 C198.611391,300.879385 198.042534,301.157413 197.520191,300.978035 C196.997848,300.798657 196.71982,300.229799 196.899198,299.707457 C197.5415,297.837095 198.124984,295.945375 198.648582,294.034601 C198.794541,293.501952 199.34466,293.188478 199.877309,293.334436 C200.409958,293.480395 200.723432,294.030515 200.577473,294.563163 C200.042705,296.514699 199.446773,298.446779 198.790769,300.357042 Z M202.738393,284.643182 C202.649533,285.188271 202.135616,285.558118 201.590527,285.469259 C201.045437,285.380399 200.67559,284.866482 200.764449,284.321393 C201.082265,282.371819 201.339357,280.408762 201.535041,278.434247 C201.589508,277.884655 202.079195,277.483277 202.628787,277.537744 C203.17838,277.592211 203.579758,278.081898 203.525291,278.631491 C203.325475,280.647704 203.062943,282.652296 202.738393,284.643182 Z"/>
    <g transform="rotate(30 -152.324 554.868)">
      <rect width="160" height="29" x=".566" y="10.226" fill="#01B2D0" fill-opacity=".2" rx="3"/>
      <rect width="158" height="27" x="7.726" y="1.896" stroke="#01B2D0" stroke-width="2" rx="3"/>
    </g>
    <path fill="#01B2D0" fill-rule="nonzero" d="M404.880805,47.1471908 L404.417045,48.0206577 C404.158056,48.5084516 403.552668,48.6939341 403.064874,48.4349445 C402.577081,48.1759549 402.391598,47.5705673 402.650588,47.0827735 L403.114347,46.2093065 L398.552571,43.7872744 C398.145207,43.5709883 397.990308,43.0654198 398.206594,42.6580557 C398.267391,42.5435472 398.354014,42.4447665 398.459603,42.3695363 L409.686389,34.3706208 C410.06202,34.1029893 410.583487,34.1905403 410.851118,34.5661713 C410.955969,34.7133334 411.010261,34.8905332 411.005844,35.0711733 L410.668905,48.8519515 C410.657631,49.3130351 410.27471,49.6776784 409.813627,49.6664049 C409.684018,49.663236 409.556927,49.6299343 409.442418,49.569137 L404.880805,47.1471908 Z M321.883229,203.468942 C321.624239,203.956736 321.018852,204.142218 320.531058,203.883229 C320.043264,203.624239 319.857782,203.018852 320.116771,202.531058 L322.930424,197.231685 C323.189414,196.743891 323.794801,196.558408 324.282595,196.817398 C324.770389,197.076387 324.955871,197.681775 324.696882,198.169569 L321.883229,203.468942 Z M329.386303,189.33728 C329.127314,189.825074 328.521926,190.010556 328.034132,189.751567 C327.546338,189.492577 327.360856,188.887189 327.619845,188.399396 L330.433498,183.100022 C330.692488,182.612228 331.297875,182.426746 331.785669,182.685736 C332.273463,182.944725 332.458946,183.550113 332.199956,184.037907 L329.386303,189.33728 Z M336.889377,175.205618 C336.630388,175.693412 336.025,175.878894 335.537206,175.619904 C335.049412,175.360915 334.86393,174.755527 335.12292,174.267733 L337.936572,168.96836 C338.195562,168.480566 338.80095,168.295084 339.288743,168.554073 C339.776537,168.813063 339.96202,169.418451 339.70303,169.906244 L336.889377,175.205618 Z M344.392452,161.073955 C344.133462,161.561749 343.528074,161.747232 343.040281,161.488242 C342.552487,161.229253 342.367004,160.623865 342.625994,160.136071 L345.439647,154.836698 C345.698636,154.348904 346.304024,154.163422 346.791818,154.422411 C347.279612,154.681401 347.465094,155.286788 347.206104,155.774582 L344.392452,161.073955 Z M351.895526,146.942293 C351.636536,147.430087 351.031149,147.61557 350.543355,147.35658 C350.055561,147.09759 349.870078,146.492203 350.129068,146.004409 L352.942721,140.705036 C353.20171,140.217242 353.807098,140.031759 354.294892,140.290749 C354.782686,140.549738 354.968168,141.155126 354.709179,141.64292 L351.895526,146.942293 Z M359.3986,132.810631 C359.13961,133.298425 358.534223,133.483907 358.046429,133.224918 C357.558635,132.965928 357.373153,132.360541 357.632142,131.872747 L360.445795,126.573373 C360.704785,126.08558 361.310172,125.900097 361.797966,126.159087 C362.28576,126.418076 362.471242,127.023464 362.212253,127.511258 L359.3986,132.810631 Z M366.901674,118.678969 C366.642685,119.166763 366.037297,119.352245 365.549503,119.093256 C365.061709,118.834266 364.876227,118.228878 365.135217,117.741085 L367.948869,112.441711 C368.207859,111.953917 368.813247,111.768435 369.30104,112.027424 C369.788834,112.286414 369.974317,112.891802 369.715327,113.379595 L366.901674,118.678969 Z M374.404749,104.547307 C374.145759,105.0351 373.540371,105.220583 373.052577,104.961593 C372.564784,104.702604 372.379301,104.097216 372.638291,103.609422 L375.451944,98.310049 C375.710933,97.8222552 376.316321,97.6367727 376.804115,97.8957622 C377.291908,98.1547518 377.477391,98.7601394 377.218401,99.2479333 L374.404749,104.547307 Z M381.907823,90.4156444 C381.648833,90.9034382 381.043446,91.0889207 380.555652,90.8299311 C380.067858,90.5709415 379.882375,89.965554 380.141365,89.4777601 L382.955018,84.1783868 C383.214007,83.6905929 383.819395,83.5051104 384.307189,83.7641 C384.794983,84.0230896 384.980465,84.6284772 384.721476,85.1162711 L381.907823,90.4156444 Z M389.410897,76.2839822 C389.151907,76.771776 388.54652,76.9572585 388.058726,76.6982689 C387.570932,76.4392793 387.38545,75.8338917 387.644439,75.3460979 L390.458092,70.0467246 C390.717082,69.5589307 391.322469,69.3734482 391.810263,69.6324378 C392.298057,69.8914274 392.483539,70.496815 392.22455,70.9846088 L389.410897,76.2839822 Z M396.913971,62.15232 C396.654982,62.6401138 396.049594,62.8255963 395.5618,62.5666067 C395.074006,62.3076171 394.888524,61.7022295 395.147513,61.2144357 L397.961166,55.9150623 C398.220156,55.4272685 398.825543,55.241786 399.313337,55.5007756 C399.801131,55.7597652 399.986614,56.3651528 399.727624,56.8529466 L396.913971,62.15232 Z"/>
    <g transform="translate(90 69.13)">
      <circle cx="43.5" cy="56.37" r="43.5" fill="#FFC111" fill-opacity=".2"/>
      <circle cx="55.5" cy="44.37" r="42.5" stroke="#FFC111" stroke-width="2"/>
    </g>
    <path fill="#FFC111" fill-rule="nonzero" d="M289.339499,26.7851587 C287.730033,26.946319 286.126023,27.1370383 284.528038,27.3571311 C283.980918,27.4324867 283.476302,27.0500463 283.400947,26.5029266 C283.325591,25.9558069 283.708031,25.451191 284.255151,25.3758354 C285.913377,25.1474455 287.577967,24.9502114 289.2483,24.7843338 L289.010791,19.5736146 C289.004888,19.4441015 289.02922,19.3149926 289.08186,19.1965125 C289.269127,18.7750194 289.762624,18.5851414 290.184117,18.7724081 L302.78162,24.3693984 C302.946749,24.4427644 303.083629,24.5677098 303.171713,24.7254804 C303.396547,25.1281896 303.252351,25.6369142 302.849642,25.8617487 L290.813548,32.5815567 C290.700348,32.6447568 290.573988,32.680733 290.444475,32.6866363 C289.983732,32.7076373 289.593201,32.3511559 289.5722,31.8904128 L289.339499,26.7851587 Z M274.329282,27.1309842 C274.869058,27.0141092 275.401379,27.3569386 275.518254,27.8967151 C275.635129,28.4364916 275.2923,28.9688128 274.752523,29.0856879 C272.811676,29.5059296 270.882784,29.9702426 268.967016,30.4781435 C268.433173,30.6196737 267.885676,30.3016418 267.744146,29.7677995 C267.602615,29.2339571 267.920647,28.6864595 268.45449,28.5449293 C270.399833,28.0291875 272.358494,27.5577087 274.329282,27.1309842 Z M258.804468,31.5041429 C259.325879,31.3220747 259.896162,31.5971665 260.07823,32.1185776 C260.260298,32.6399888 259.985207,33.2102715 259.463795,33.3923398 C257.58821,34.0472634 255.72883,34.7449552 253.88691,35.4847705 C253.37442,35.6906146 252.792094,35.4420285 252.58625,34.9295379 C252.380406,34.4170473 252.628992,33.8347219 253.141483,33.6288778 C255.011832,32.8776437 256.899919,32.1691802 258.804468,31.5041429 Z M243.954296,37.7331179 C244.449587,37.4887717 245.049181,37.6922027 245.293528,38.1874939 C245.537874,38.6827851 245.334443,39.2823797 244.839152,39.5267259 C243.059758,40.4045693 241.300901,41.3229426 239.563873,42.2810352 C239.080273,42.5477742 238.472003,42.3719738 238.205264,41.888374 C237.938525,41.4047742 238.114325,40.7965045 238.597925,40.5297654 C240.361642,39.5569528 242.147536,38.6244623 243.954296,37.7331179 Z M229.939001,45.7465247 C230.400851,45.443684 231.020756,45.572587 231.323597,46.0344376 C231.626437,46.4962882 231.497534,47.116193 231.035684,47.4190336 C229.37588,48.5073857 227.741016,49.6334552 226.132375,50.7962675 C225.684784,51.1198108 225.059655,51.0192498 224.736112,50.5716583 C224.412569,50.1240667 224.51313,49.4989384 224.960721,49.1753952 C226.593947,47.9948116 228.253808,46.851525 229.939001,45.7465247 Z M216.999053,55.4044412 C217.420794,55.047856 218.051752,55.100675 218.408337,55.5224159 C218.764922,55.9441568 218.712103,56.5751149 218.290362,56.9317001 C216.774363,58.2134894 215.287567,59.529591 213.831197,60.8788876 C213.426064,61.254235 212.79336,61.230089 212.418012,60.824956 C212.042665,60.419823 212.066811,59.7871186 212.471944,59.4117712 C213.9505,58.041919 215.45995,56.7057646 216.999053,55.4044412 Z M205.376156,66.5001854 C205.751924,66.0954429 206.384654,66.0719548 206.789396,66.4477233 C207.194139,66.8234918 207.217627,67.4562209 206.841858,67.8609634 C205.490751,69.3162489 204.172821,70.8020095 202.889188,72.3170206 C202.532168,72.7383938 201.901156,72.7905627 201.479783,72.433543 C201.05841,72.0765233 201.006241,71.4455111 201.36326,71.0241379 C202.666456,69.486039 204.004466,67.9776409 205.376156,66.5001854 Z M195.137653,78.9633001 C195.461725,78.5160913 196.086972,78.4162694 196.534181,78.7403416 C196.981389,79.0644137 197.081211,79.6896605 196.757139,80.1368692 C195.592113,81.7445659 194.463818,83.3785419 193.37323,85.0375123 C193.069848,85.4990077 192.449792,85.627184 191.988297,85.3238023 C191.526802,85.0204205 191.398625,84.4003651 191.702007,83.9388698 C192.809277,82.2545238 193.954823,80.5955661 195.137653,78.9633001 Z M186.483522,92.5764153 C186.750893,92.0931648 187.359392,91.91816 187.842643,92.1855312 C188.325893,92.4529024 188.500898,93.0614016 188.233527,93.5446521 C187.272833,95.2810233 186.351857,97.039285 185.471412,98.8181436 C185.226425,99.313118 184.626567,99.5157725 184.131593,99.2707852 C183.636618,99.0257978 183.433964,98.4259403 183.678951,97.930966 C184.572937,96.1247507 185.508069,94.3394626 186.483522,92.5764153 Z M179.543812,107.159953 C179.750123,106.647651 180.332675,106.399596 180.844978,106.605908 C181.35728,106.812219 181.605335,107.394771 181.399024,107.907074 C180.657874,109.747459 179.958794,111.605322 179.302428,113.479407 C179.119872,114.000648 178.549333,114.275206 178.028092,114.092651 C177.506851,113.910095 177.232292,113.339556 177.414848,112.818315 C178.08135,110.91529 178.791223,109.028744 179.543812,107.159953 Z M174.442019,122.482836 C174.583976,121.949106 175.131727,121.631512 175.665456,121.773469 C176.199186,121.915425 176.51678,122.463177 176.374824,122.996906 C175.865035,124.913611 175.398888,126.843486 174.976868,128.785359 C174.85958,129.325046 174.326997,129.667467 173.78731,129.550179 C173.247623,129.432891 172.905201,128.900307 173.022489,128.360621 C173.45102,126.388791 173.924361,124.429131 174.442019,122.482836 Z M171.255507,138.31589 C171.33115,137.76881 171.835968,137.386636 172.383048,137.46228 C172.930128,137.537924 173.312302,138.042741 173.236658,138.589821 C172.965225,140.552914 172.738125,142.525117 172.555705,144.505375 C172.505044,145.055331 172.018147,145.460089 171.46819,145.409428 C170.918234,145.358766 170.513476,144.871869 170.564137,144.321913 C170.749344,142.311413 170.979916,140.309045 171.255507,138.31589 Z M170.020914,154.251877 C170.030633,153.699678 170.486159,153.259911 171.038358,153.269631 C171.590557,153.27935 172.030324,153.734876 172.020604,154.287075 C172.006915,155.064754 172.000042,155.843292 172,156.622632 C171.99997,157.174917 171.552231,157.622608 170.999946,157.622578 C170.447661,157.622548 169.99997,157.174809 170,156.622524 C170.000043,155.831486 170.007019,155.041251 170.020914,154.251877 Z"/>
  </g>
</svg>
