<svg xmlns="http://www.w3.org/2000/svg" width="190" height="120" viewBox="0 0 190 120">
  <g fill="none" fill-rule="evenodd" transform="translate(10 26)">
    <rect width="100" height="60" y="8" fill="#01B2D0" fill-opacity=".2" rx="3"/>
    <path fill="#01B2D0" fill-rule="nonzero" d="M162.866736,31.2468584 L150.537149,37.4116516 C150.12462,37.6179161 149.622989,37.4507057 149.416725,37.0381766 C149.358744,36.9222163 149.328559,36.7943493 149.328559,36.6647017 L149.328559,24.3351154 C149.328559,23.8738939 149.702453,23.5 150.163674,23.5 C150.293322,23.5 150.421189,23.5301853 150.537149,23.5881655 L162.866736,29.7529586 C163.279265,29.9592232 163.446475,30.4608544 163.240211,30.8733835 C163.159402,31.0350012 163.028353,31.1660496 162.866736,31.2468584 Z M58,31.5 C57.4477153,31.5 57,31.0522847 57,30.5 C57,29.9477153 57.4477153,29.5 58,29.5 L64,29.5 C64.5522847,29.5 65,29.9477153 65,30.5 C65,31.0522847 64.5522847,31.5 64,31.5 L58,31.5 Z M74,31.5 C73.4477153,31.5 73,31.0522847 73,30.5 C73,29.9477153 73.4477153,29.5 74,29.5 L80,29.5 C80.5522847,29.5 81,29.9477153 81,30.5 C81,31.0522847 80.5522847,31.5 80,31.5 L74,31.5 Z M90,31.5 C89.4477153,31.5 89,31.0522847 89,30.5 C89,29.9477153 89.4477153,29.5 90,29.5 L96,29.5 C96.5522847,29.5 97,29.9477153 97,30.5 C97,31.0522847 96.5522847,31.5 96,31.5 L90,31.5 Z M106,31.5 C105.447715,31.5 105,31.0522847 105,30.5 C105,29.9477153 105.447715,29.5 106,29.5 L112,29.5 C112.552285,29.5 113,29.9477153 113,30.5 C113,31.0522847 112.552285,31.5 112,31.5 L106,31.5 Z M122,31.5 C121.447715,31.5 121,31.0522847 121,30.5 C121,29.9477153 121.447715,29.5 122,29.5 L128,29.5 C128.552285,29.5 129,29.9477153 129,30.5 C129,31.0522847 128.552285,31.5 128,31.5 L122,31.5 Z M138,31.5 C137.447715,31.5 137,31.0522847 137,30.5 C137,29.9477153 137.447715,29.5 138,29.5 L144,29.5 C144.552285,29.5 145,29.9477153 145,30.5 C145,31.0522847 144.552285,31.5 144,31.5 L138,31.5 Z"/>
    <rect width="98" height="58" x="9" y="1" stroke="#01B2D0" stroke-width="2" rx="3"/>
  </g>
</svg>
