<svg xmlns="http://www.w3.org/2000/svg" width="220" height="120" viewBox="0 0 220 120">
  <g fill="none" fill-rule="evenodd" transform="translate(9 27)">
    <path fill="#6FD350" fill-opacity=".2" d="M33.155251,13.0493298 L58.6881548,61.6037042 C59.4593077,63.0701589 58.8956542,64.8840982 57.4291996,65.655251 C56.998606,65.8816838 56.5194041,66 56.0329038,66 L4.96709624,66 C3.31024199,66 1.96709624,64.6568542 1.96709624,63 C1.96709624,62.5134996 2.0854124,62.0342977 2.31184521,61.6037042 L27.844749,13.0493298 C28.6159018,11.5828752 30.4298411,11.0192217 31.8962958,11.7903746 C32.4336749,12.0729619 32.8726638,12.5119507 33.155251,13.0493298 Z"/>
    <path stroke="#6FD350" stroke-width="2" d="M43.2701674,5.51476176 C43.0817758,5.15650904 42.7891166,4.86384979 42.4308639,4.67545828 C41.4532274,4.16135636 40.2439346,4.53712533 39.7298326,5.51476176 L14.1969289,54.0691361 C14.0459737,54.3561985 13.9670962,54.6756664 13.9670962,55 C13.9670962,56.1045695 14.8625267,57 15.9670962,57 L67.0329038,57 C67.3572373,57 67.6767053,56.9211226 67.9637676,56.7701674 C68.9414041,56.2560654 69.317173,55.0467726 68.8030711,54.0691361 L43.2701674,5.51476176 Z"/>
    <g transform="translate(130)">
      <path fill="#6FD350" fill-opacity=".2" d="M33.155251,13.0493298 L58.6881548,61.6037042 C59.4593077,63.0701589 58.8956542,64.8840982 57.4291996,65.655251 C56.998606,65.8816838 56.5194041,66 56.0329038,66 L4.96709624,66 C3.31024199,66 1.96709624,64.6568542 1.96709624,63 C1.96709624,62.5134996 2.0854124,62.0342977 2.31184521,61.6037042 L27.844749,13.0493298 C28.6159018,11.5828752 30.4298411,11.0192217 31.8962958,11.7903746 C32.4336749,12.0729619 32.8726638,12.5119507 33.155251,13.0493298 Z"/>
      <path stroke="#6FD350" stroke-width="2" d="M43.2701674,5.51476176 C43.0817758,5.15650904 42.7891166,4.86384979 42.4308639,4.67545828 C41.4532274,4.16135636 40.2439346,4.53712533 39.7298326,5.51476176 L14.1969289,54.0691361 C14.0459737,54.3561985 13.9670962,54.6756664 13.9670962,55 C13.9670962,56.1045695 14.8625267,57 15.9670962,57 L67.0329038,57 C67.3572373,57 67.6767053,56.9211226 67.9637676,56.7701674 C68.9414041,56.2560654 69.317173,55.0467726 68.8030711,54.0691361 L43.2701674,5.51476176 Z"/>
    </g>
    <path stroke="#6FD350" stroke-dasharray="6 10" stroke-linecap="round" stroke-linejoin="round" stroke-width="2" d="M47.2914987,35.5 L173,35.5"/>
  </g>
</svg>
