<svg xmlns="http://www.w3.org/2000/svg" width="1600" height="730" viewBox="0 0 1600 730">
  <g fill="none" fill-rule="evenodd">
    <g transform="rotate(-97 984.526 -256.474)">
      <rect width="11.9" height="12.188" x=".132" y=".562" fill="#01B2D0" opacity=".1" rx="3"/>
      <rect width="9.9" height="10.188" x="5.38" y="1.43" stroke="#01B2D0" stroke-width="2" rx="3"/>
    </g>
    <g transform="rotate(135 608.488 296.019)">
      <rect width="16.8" height="17.813" x=".187" y=".822" fill="#01B2D0" opacity=".1" rx="3"/>
      <rect width="14.8" height="15.813" x="7.183" y="1.628" stroke="#01B2D0" stroke-width="2" rx="3"/>
    </g>
    <g transform="rotate(78 -48.046 823.257)">
      <rect width="16.1" height="16.875" x=".179" y=".779" fill="#01B2D0" opacity=".1" rx="3"/>
      <rect width="14.1" height="14.875" x="6.926" y="1.595" stroke="#01B2D0" stroke-width="2" rx="3"/>
    </g>
    <g transform="rotate(-36 423.985 -837.085)">
      <rect width="14.7" height="15.938" x=".163" y=".735" fill="#01B2D0" opacity=".1" rx="3"/>
      <rect width="12.7" height="13.938" x="6.41" y="1.562" stroke="#01B2D0" stroke-width="2" rx="3"/>
    </g>
    <g transform="rotate(-1 29740.191 -77613.168)">
      <ellipse cx="15.005" cy="10.334" stroke="#FFC111" stroke-width="2" rx="9.759" ry="9.12"/>
      <ellipse cx="11.331" cy="11.3" fill="#FFC111" opacity=".2" rx="10.759" ry="10.12"/>
    </g>
    <g transform="rotate(-45 628.19 -636.862)">
      <ellipse cx="17.891" cy="12.213" stroke="#FFC111" stroke-width="2" rx="11.828" ry="10.96"/>
      <ellipse cx="13.51" cy="13.355" fill="#FFC111" opacity=".2" rx="12.828" ry="11.96"/>
    </g>
    <g transform="rotate(132 -101.172 370.613)">
      <ellipse cx="13.274" cy="9.394" stroke="#FFC111" stroke-width="2" rx="8.517" ry="8.2"/>
      <ellipse cx="10.024" cy="10.273" fill="#FFC111" opacity=".2" rx="9.517" ry="9.2"/>
    </g>
    <g transform="rotate(-138 153.152 -31.06)">
      <ellipse cx="16.737" cy="11.743" stroke="#FFC111" stroke-width="2" rx="11" ry="10.5"/>
      <ellipse cx="12.639" cy="12.841" fill="#FFC111" opacity=".2" rx="12" ry="11.5"/>
    </g>
    <g transform="rotate(136 721.195 414.93)">
      <path fill="#6FD350" d="M16.0108768,8.94046491 L23.4789914,22.0561301 C24.2988231,23.4959363 23.7962345,25.3277348 22.3564282,26.1475665 C21.9040899,26.4051298 21.3925191,26.5405667 20.8719916,26.5405667 L5.93576234,26.5405667 C4.27890809,26.5405667 2.93576234,25.1974209 2.93576234,23.5405667 C2.93576234,23.0200392 3.07119919,22.5084684 3.32876254,22.0561301 L10.7968772,8.94046491 C11.6167089,7.50065867 13.4485074,6.99807001 14.8883136,7.81790171 C15.3565153,8.08449774 15.7442808,8.47226317 16.0108768,8.94046491 Z" opacity=".2"/>
      <path stroke="#6FD350" stroke-width="2" d="M23.0921445,5.69806057 C22.9144138,5.38592608 22.6559035,5.12741579 22.343769,4.9496851 C21.3838982,4.40313064 20.1626992,4.73818975 19.6161447,5.69806057 L12.1480301,18.8137257 C11.9763212,19.1152846 11.88603,19.4563318 11.88603,19.8033501 C11.88603,20.9079196 12.7814605,21.8033501 13.88603,21.8033501 L28.8222593,21.8033501 C29.1692776,21.8033501 29.5103248,21.7130589 29.8118837,21.54135 C30.7717545,20.9947955 31.1068136,19.7735965 30.5602591,18.8137257 L23.0921445,5.69806057 Z"/>
    </g>
    <g transform="rotate(64 236.073 1067.692)">
      <path fill="#6FD350" d="M19.176846,10.1818674 L29.6648683,28.9585007 C30.4728353,30.4049983 29.9552039,32.232603 28.5087063,33.04057 C28.0615629,33.2903298 27.5579218,33.4214543 27.0457527,33.4214543 L6.0697081,33.4214543 C4.41285386,33.4214543 3.0697081,32.0783086 3.0697081,30.4214543 C3.0697081,29.9092852 3.20083258,29.4056441 3.45059246,28.9585007 L13.9386148,10.1818674 C14.7465817,8.73536977 16.5741864,8.21773839 18.020684,9.02570535 C18.5056854,9.29661151 18.9059399,9.69686597 19.176846,10.1818674 Z" opacity=".2"/>
      <path stroke="#6FD350" stroke-width="2" d="M28.1247263,5.96339406 C27.9441222,5.64005978 27.6772859,5.37322348 27.3539516,5.19261937 C26.3896199,4.65397473 25.1712168,4.99906231 24.6325721,5.96339406 L14.1445498,24.7400274 C13.9780433,25.038123 13.8906269,25.3738837 13.8906269,25.7153298 C13.8906269,26.8198993 14.7860574,27.7153298 15.8906269,27.7153298 L36.8666715,27.7153298 C37.2081176,27.7153298 37.5438783,27.6279135 37.8419739,27.4614069 C38.8063057,26.9227622 39.1513933,25.7043591 38.6127486,24.7400274 L28.1247263,5.96339406 Z"/>
    </g>
    <g transform="rotate(134 501.624 225.458)">
      <path fill="#6FD350" d="M15.6115855,8.7341235 L22.6880319,21.0642953 C23.5127518,22.5013072 23.016391,24.334803 21.5793791,25.1595229 C21.1249211,25.4203423 20.6100754,25.5575827 20.0860917,25.5575827 L5.93319889,25.5575827 C4.27634464,25.5575827 2.93319889,24.214437 2.93319889,22.5575827 C2.93319889,22.033599 3.07043928,21.5187534 3.33125871,21.0642953 L10.4077051,8.7341235 C11.232425,7.29711162 13.0659208,6.80075087 14.5029327,7.62547073 C14.9642254,7.89021261 15.3468436,8.27283082 15.6115855,8.7341235 Z" opacity=".2"/>
      <path stroke="#6FD350" stroke-width="2" d="M22.4607083,5.63308486 C22.2842137,5.32555641 22.0291349,5.0704776 21.7216065,4.89398301 C20.7635986,4.34416977 19.541268,4.67507694 18.9914547,5.63308486 L11.9150083,17.9632567 C11.7411287,18.2662287 11.6496351,18.6094591 11.6496351,18.9587816 C11.6496351,20.0633511 12.5450656,20.9587816 13.6496351,20.9587816 L27.802528,20.9587816 C28.1518504,20.9587816 28.4950808,20.867288 28.7980529,20.6934084 C29.7560608,20.1435951 30.086968,18.9212646 29.5371547,17.9632567 L22.4607083,5.63308486 Z"/>
    </g>
    <g transform="rotate(40 -235.704 177.351)">
      <path fill="#6FD350" d="M19.5561995,10.0468043 L30.356121,28.9321768 C31.1786262,30.3704575 30.6794416,32.2031865 29.241161,33.0256917 C28.7876618,33.285033 28.2743004,33.4214543 27.7518835,33.4214543 L6.15204061,33.4214543 C4.49518636,33.4214543 3.15204061,32.0783086 3.15204061,30.4214543 C3.15204061,29.8990374 3.28846194,29.3856761 3.54780318,28.9321768 L14.3477246,10.0468043 C15.1702299,8.60852372 17.0029589,8.10933914 18.4412395,8.93184437 C18.9056615,9.19743198 19.2906119,9.58238235 19.5561995,10.0468043 Z" opacity=".2"/>
      <path stroke="#6FD350" stroke-width="2" d="M28.7428706,5.83710563 C28.5658122,5.52749097 28.3091786,5.2708574 27.999564,5.09379899 C27.0407102,4.54546216 25.8188908,4.87825188 25.270554,5.83710563 L14.4706326,24.7224781 C14.2977384,25.0248109 14.2067908,25.3670518 14.2067908,25.7153298 C14.2067908,26.8198993 15.1022213,27.7153298 16.2067908,27.7153298 L37.8066338,27.7153298 C38.1549117,27.7153298 38.4971526,27.6243822 38.7994854,27.4514881 C39.7583392,26.9031512 40.0911289,25.6813319 39.5427921,24.7224781 L28.7428706,5.83710563 Z"/>
    </g>
  </g>
</svg>
