<svg xmlns="http://www.w3.org/2000/svg" width="1800" height="974" viewBox="0 0 1800 974">
  <g fill="none" fill-rule="evenodd">
    <g transform="rotate(-96 1198.373 -259.772)">
      <rect width="13.412" height="13.412" x="1.043" y="5.366" fill="#01B2D0" opacity=".1" rx="2"/>
      <rect width="11.412" height="11.412" x="6.513" y="1.896" stroke="#01B2D0" stroke-width="2" rx="2"/>
    </g>
    <g transform="rotate(166 783.335 379.892)">
      <rect width="12" height="12" x=".933" y="4.801" fill="#01B2D0" opacity=".1" rx="2"/>
      <rect width="10" height="10" x="5.933" y="1.801" stroke="#01B2D0" stroke-width="2" rx="2"/>
    </g>
    <g transform="rotate(147 294.736 588.329)">
      <rect width="14.118" height="14.118" x="1.098" y="5.649" fill="#01B2D0" opacity=".1" rx="2"/>
      <rect width="12.118" height="12.118" x="6.804" y="1.943" stroke="#01B2D0" stroke-width="2" rx="2"/>
    </g>
    <g transform="rotate(103 257.2 431.676)">
      <rect width="11.294" height="11.294" x=".878" y="4.519" fill="#01B2D0" opacity=".1" rx="2"/>
      <rect width="9.294" height="9.294" x="5.643" y="1.754" stroke="#01B2D0" stroke-width="2" rx="2"/>
    </g>
    <g transform="rotate(37 -1242.62 471.543)">
      <rect width="14.118" height="14.118" x="1.098" y="5.649" fill="#01B2D0" opacity=".1" rx="2"/>
      <rect width="12.118" height="12.118" x="6.804" y="1.943" stroke="#01B2D0" stroke-width="2" rx="2"/>
    </g>
    <g transform="rotate(146 187.26 127.458)">
      <rect width="9.882" height="9.882" x=".768" y="3.954" fill="#01B2D0" opacity=".1" rx="2"/>
      <rect width="7.882" height="7.882" x="5.063" y="1.66" stroke="#01B2D0" stroke-width="2" rx="2"/>
    </g>
    <g transform="rotate(-13 3839.987 -4884.768)">
      <path fill="#6FD350" d="M8.79026814,5.50106566 L12.4286142,12.0259748 C12.9665535,12.9907002 12.620575,14.2088506 11.6558495,14.7467899 C11.3580651,14.9128371 11.0227749,15 10.6818243,15 L3.4051322,15 C2.3005627,15 1.4051322,14.1045695 1.4051322,13 C1.4051322,12.6590494 1.49229511,12.3237593 1.65834233,12.0259748 L5.29668839,5.50106566 C5.83462766,4.53634025 7.05277808,4.19036173 8.01750348,4.72830101 C8.34183785,4.90915267 8.60941647,5.1767313 8.79026814,5.50106566 Z" opacity=".2"/>
      <path stroke="#6FD350" stroke-width="2" d="M11.8299167,3.61965722 C11.7394908,3.45749004 11.6057015,3.32370073 11.4435344,3.23327489 C10.9611716,2.96430526 10.3520964,3.13729452 10.0831268,3.61965722 L6.44478074,10.1445663 C6.36175713,10.2934586 6.31817568,10.4611037 6.31817568,10.6315789 C6.31817568,11.1838637 6.76589093,11.6315789 7.31817568,11.6315789 L14.5948678,11.6315789 C14.7653431,11.6315789 14.9329882,11.5879975 15.0818804,11.5049739 C15.5642431,11.2360042 15.7372324,10.626929 15.4682627,10.1445663 L11.8299167,3.61965722 Z"/>
    </g>
    <g transform="rotate(28 482.556 2251.525)">
      <path fill="#6FD350" d="M9.55551671,5.50376679 L13.9070178,12.9954739 C14.4618022,13.9506116 14.1372518,15.1746453 13.1821141,15.7294298 C12.877002,15.9066518 12.5304351,16 12.177588,16 L3.47458589,16 C2.37001639,16 1.47458589,15.1045695 1.47458589,14 C1.47458589,13.6471529 1.56793406,13.300586 1.74515613,12.9954739 L6.0966572,5.50376679 C6.65144165,4.54862911 7.87547539,4.22407869 8.83061307,4.77886314 C9.13112454,4.95341295 9.38096691,5.20325531 9.55551671,5.50376679 Z" opacity=".2"/>
      <path stroke="#6FD350" stroke-width="2" d="M13.0386279,3.47971405 C12.951353,3.32945832 12.8264318,3.20453713 12.6761761,3.11726223 C12.1986073,2.83987001 11.5865904,3.00214521 11.3091982,3.47971405 L6.9576971,10.9714212 C6.86908606,11.1239772 6.82241198,11.2972607 6.82241198,11.4736842 C6.82241198,12.025969 7.27012723,12.4736842 7.82241198,12.4736842 L16.5254141,12.4736842 C16.7018377,12.4736842 16.8751211,12.4270101 17.0276772,12.3383991 C17.505246,12.0610069 17.6675212,11.44899 17.390129,10.9714212 L13.0386279,3.47971405 Z"/>
    </g>
    <g transform="rotate(-88 420.728 165.474)">
      <path fill="#6FD350" d="M12.6972949,6.70883543 L20.2246071,20.0152621 C20.7684629,20.9766645 20.4299744,22.1969174 19.4685719,22.7407732 C19.1681894,22.9106965 18.8289479,23 18.483834,23 L3.42920951,23 C2.32464001,23 1.42920951,22.1045695 1.42920951,21 C1.42920951,20.6548861 1.51851297,20.3156446 1.68843635,20.0152621 L9.21574858,6.70883543 C9.75960432,5.74743296 10.9798572,5.40894446 11.9412597,5.9528002 C12.2572123,6.13153141 12.5185637,6.39288285 12.6972949,6.70883543 Z" opacity=".2"/>
      <path stroke="#6FD350" stroke-width="2" d="M17.9138648,3.56962545 C17.8244992,3.41164916 17.6938235,3.28097344 17.5358472,3.19160784 C17.055146,2.91967996 16.4450196,3.08892421 16.1730917,3.56962545 L8.64577945,16.8760521 C8.56081776,17.0262433 8.51616603,17.1958641 8.51616603,17.3684211 C8.51616603,17.9207058 8.96388128,18.3684211 9.51616603,18.3684211 L24.5707905,18.3684211 C24.7433474,18.3684211 24.9129682,18.3237693 25.0631595,18.2388076 C25.5438607,17.9668798 25.7131049,17.3567533 25.4411771,16.8760521 L17.9138648,3.56962545 Z"/>
    </g>
    <g transform="rotate(-175 104.783 153.605)">
      <path fill="#6FD350" d="M10.3477933,5.90424843 L15.5205759,15.012306 C16.0660643,15.9727831 15.7296494,17.1936093 14.7691724,17.7390976 C14.4680775,17.9100998 14.1277439,18 13.7814783,18 L3.43591297,18 C2.33134347,18 1.43591297,17.1045695 1.43591297,16 C1.43591297,15.6537344 1.52581314,15.3134008 1.69681536,15.012306 L6.86959804,5.90424843 C7.41508639,4.94377134 8.63591259,4.60735649 9.59638968,5.15284484 C9.9100321,5.33097328 10.1696648,5.59060601 10.3477933,5.90424843 Z" opacity=".2"/>
      <path stroke="#6FD350" stroke-width="2" d="M14.2608532,3.55599018 C14.1717889,3.39916897 14.0419726,3.26935261 13.8851514,3.18028839 C13.4049128,2.90754421 12.7944997,3.07575164 12.5217555,3.55599018 L7.34897286,12.6640477 C7.26347175,12.8145951 7.21852167,12.9847619 7.21852167,13.1578947 C7.21852167,13.7101795 7.66623692,14.1578947 8.21852167,14.1578947 L18.564087,14.1578947 C18.7372198,14.1578947 18.9073866,14.1129447 19.057934,14.0274435 C19.5381726,13.7546994 19.70638,13.1442863 19.4336358,12.6640477 L14.2608532,3.55599018 Z"/>
    </g>
    <g transform="rotate(-5 4247.24 -16498.779)">
      <circle cx="7.801" cy="4.776" r="3.588" stroke="#FFC111" stroke-width="2"/>
      <circle cx="4.742" cy="7.835" r="4.588" fill="#FFC111" opacity=".2"/>
    </g>
    <g transform="rotate(-124 735.125 -346.035)">
      <circle cx="8.401" cy="5.143" r="3.941" stroke="#FFC111" stroke-width="2"/>
      <circle cx="5.106" cy="8.438" r="4.941" fill="#FFC111" opacity=".2"/>
    </g>
    <g transform="rotate(64 12.306 886.815)">
      <circle cx="12.001" cy="7.348" r="6.059" stroke="#FFC111" stroke-width="2"/>
      <circle cx="7.295" cy="12.054" r="7.059" fill="#FFC111" opacity=".2"/>
    </g>
    <g transform="rotate(163 299.6 116.126)">
      <circle cx="10.201" cy="6.246" r="5" stroke="#FFC111" stroke-width="2"/>
      <circle cx="6.201" cy="10.246" r="6" fill="#FFC111" opacity=".2"/>
    </g>
  </g>
</svg>
