<svg xmlns="http://www.w3.org/2000/svg" width="687" height="800" viewBox="0 0 687 800">
  <g fill="none" fill-rule="evenodd" transform="translate(-5 -41)">
    <g transform="rotate(-121 145.859 -34.425)">
      <rect width="11" height="20" x=".722" y=".751" fill="#01B2D0" opacity=".1"/>
      <rect width="9" height="18" x="5.324" y="1.582" stroke="#01B2D0" stroke-width="2"/>
    </g>
    <g transform="rotate(19 306.674 1837.684)">
      <polygon fill="#6FD350" points="20.481 6.158 39.981 42.158 .981 42.158" opacity=".2"/>
      <path stroke="#6FD350" stroke-width="2" d="M32.122015,2.13388757 L14.3009604,35.0342962 L49.9430697,35.0342962 L32.122015,2.13388757 Z"/>
    </g>
    <g transform="rotate(-75 666.27 123.286)">
      <rect width="22" height="27" x=".657" y="1.244" fill="#01B2D0" opacity=".1"/>
      <rect width="20" height="25" x="9.643" y="1.14" stroke="#01B2D0" stroke-width="2"/>
    </g>
    <g transform="rotate(145 182.914 513.988)">
      <rect width="14" height="15" x=".155" y=".692" fill="#01B2D0" opacity=".1"/>
      <rect width="12" height="13" x="6.153" y="1.529" stroke="#01B2D0" stroke-width="2"/>
    </g>
    <g transform="rotate(-80 468.258 -249.85)">
      <rect width="15" height="19" x=".53" y="1.746" fill="#01B2D0" opacity=".1"/>
      <rect width="13" height="17" x="6.454" y="1.878" stroke="#01B2D0" stroke-width="2"/>
    </g>
    <g transform="rotate(136 167.45 409.384)">
      <circle cx="15.55" cy="12.85" r="11" stroke="#FFC111" stroke-width="2"/>
      <circle cx="12.077" cy="16.447" r="12" fill="#FFC111" opacity=".2"/>
    </g>
    <g transform="rotate(60 92.88 461.142)">
      <ellipse cx="16.737" cy="11.743" stroke="#FFC111" stroke-width="2" rx="11" ry="10.5"/>
      <ellipse cx="12.639" cy="12.841" fill="#FFC111" opacity=".2" rx="12" ry="11.5"/>
    </g>
    <g transform="rotate(60 -175.37 126.25)">
      <ellipse cx="16.737" cy="11.743" stroke="#FFC111" stroke-width="2" rx="11" ry="10.5"/>
      <ellipse cx="12.639" cy="12.841" fill="#FFC111" opacity=".2" rx="12" ry="11.5"/>
    </g>
    <g transform="rotate(120 160.284 555.207)">
      <polygon fill="#6FD350" points="13.521 2.92 27.021 27.92 .021 27.92" opacity=".2"/>
      <path stroke="#6FD350" stroke-width="2" d="M22.3156986,2.25652714 L10.4921844,24.1519238 L34.1392128,24.1519238 L22.3156986,2.25652714 Z"/>
    </g>
    <g transform="rotate(19 -927.984 2032.534)">
      <polygon fill="#6FD350" points="13.798 4.524 26.798 27.524 .798 27.524" opacity=".2"/>
      <path stroke="#6FD350" stroke-width="2" d="M21.9822077,2.68020246 L10.6961072,22.6479186 L33.2683081,22.6479186 L21.9822077,2.68020246 Z"/>
    </g>
    <g transform="rotate(28 -1212.727 543.852)">
      <polygon fill="#6FD350" points="16.001 5.665 32.001 36.665 .001 36.665" opacity=".2"/>
      <path stroke="#6FD350" stroke-width="2" d="M25.713829,2.68111194 L11.3552976,30.5007665 L40.0723604,30.5007665 L25.713829,2.68111194 Z"/>
    </g>
    <g transform="rotate(-157 114.926 95.968)">
      <polygon fill="#6FD350" points="12.704 5.269 25.204 30.269 .204 30.269" opacity=".2"/>
      <path stroke="#6FD350" stroke-width="2" d="M21.5180574,2.67759017 L10.6360913,24.4415222 L32.4000234,24.4415222 L21.5180574,2.67759017 Z"/>
    </g>
    <g transform="rotate(98 -1.94 417.664)">
      <polygon fill="#6FD350" fill-opacity=".2" points="78.178 19.544 123.809 110.465 33.003 110.237" transform="rotate(-135 78.406 65.005)"/>
      <path stroke="#6FD350" stroke-width="2" d="M65.0063715,35.0219545 L21.4407795,122.482681 L109.011354,122.702377 L65.0063715,35.0219545 Z" transform="rotate(-135 65.23 78.246)"/>
    </g>
    <path fill="#6FD350" fill-rule="nonzero" d="M118.904503,516.128598 C119.125028,517.715404 119.385523,519.293695 119.685599,520.862375 C119.789364,521.404825 119.433741,521.928685 118.891292,522.032451 C118.348843,522.136217 117.824982,521.780594 117.721216,521.238145 C117.405345,519.586888 117.132424,517.925237 116.902888,516.254428 L111.67701,516.582948 C111.547618,516.591082 111.418109,516.568979 111.298739,516.518388 C110.874082,516.338412 110.675728,515.84826 110.855704,515.423603 L116.23479,502.731526 C116.3053,502.565157 116.427868,502.426145 116.584097,502.335355 C116.982872,502.103615 117.494006,502.239023 117.725747,502.637798 L124.651956,514.556313 C124.717098,514.668407 124.755246,514.794129 124.76338,514.923521 C124.792317,515.383834 124.442618,515.780449 123.982305,515.809386 L118.904503,516.128598 Z M120.143701,531.06137 C119.983333,530.532881 120.281754,529.974452 120.810243,529.814084 C121.338732,529.653716 121.897161,529.952137 122.057529,530.480626 C122.632498,532.375426 123.266863,534.2499 123.959491,536.101716 C124.15297,536.619002 123.890472,537.19519 123.373186,537.388669 C122.855901,537.582147 122.279712,537.31965 122.086234,536.802364 C121.378834,534.911054 120.730937,532.996593 120.143701,531.06137 Z M126.128297,546.083929 C125.881395,545.589907 126.081726,544.989269 126.575748,544.742367 C127.06977,544.495466 127.670408,544.695796 127.91731,545.189818 C128.802618,546.961218 129.743492,548.704027 130.738358,550.415793 C131.015876,550.893289 130.853761,551.505349 130.376265,551.782866 C129.898769,552.060383 129.28671,551.898269 129.009192,551.420773 C127.993235,549.672718 127.0324,547.892936 126.128297,546.083929 Z M134.524973,559.863168 C134.199199,559.417197 134.296638,558.791575 134.742608,558.465801 C135.188579,558.140027 135.814202,558.237466 136.139975,558.683437 C137.307274,560.28142 138.524426,561.842628 139.789453,563.364677 C140.142465,563.789413 140.084322,564.419903 139.659586,564.772915 C139.23485,565.125928 138.60436,565.067784 138.251348,564.643048 C136.959677,563.088942 135.716879,561.494839 134.524973,559.863168 Z M145.137298,572.097943 C144.74187,571.712384 144.733869,571.07927 145.119427,570.683842 C145.504985,570.288414 146.1381,570.280413 146.533528,570.665971 C147.95122,572.048278 149.41179,573.386021 150.912944,574.677053 C151.331673,575.037171 151.379187,575.668551 151.019069,576.087279 C150.658951,576.506008 150.027572,576.553522 149.608843,576.193404 C148.076103,574.875207 146.584809,573.509324 145.137298,572.097943 Z M157.566405,582.348659 C157.112596,582.033896 156.999876,581.410846 157.314638,580.957036 C157.629401,580.503227 158.252451,580.390507 158.706261,580.705269 C160.333127,581.833664 161.994982,582.910793 163.689381,583.934878 C164.162043,584.220552 164.313626,584.835304 164.027952,585.307966 C163.742278,585.780627 163.127526,585.932211 162.654865,585.646537 C160.924623,584.600789 159.227639,583.500891 157.566405,582.348659 Z M171.581357,590.420205 C171.081308,590.185748 170.866004,589.590314 171.10046,589.090265 C171.334917,588.590217 171.930352,588.374912 172.4304,588.609369 C174.221884,589.449339 176.040012,590.232835 177.882372,590.958514 C178.396231,591.160916 178.648718,591.741561 178.446315,592.255421 C178.243913,592.769281 177.663268,593.021767 177.149409,592.819365 C175.267802,592.078226 173.410963,591.278049 171.581357,590.420205 Z M186.761965,596.029376 C186.229594,595.882409 185.917162,595.331697 186.064129,594.799325 C186.211096,594.266954 186.761808,593.954522 187.29418,594.101489 C189.199706,594.627531 191.123652,595.093806 193.063803,595.499395 C193.604401,595.612407 193.951028,596.142263 193.838016,596.682861 C193.725004,597.22346 193.195148,597.570087 192.654549,597.457075 C190.673074,597.042847 188.708121,596.566634 186.761965,596.029376 Z M202.686831,599.007113 C202.137342,598.95161 201.736888,598.461167 201.792391,597.911678 C201.847894,597.36219 202.338336,596.961735 202.887825,597.017238 C204.852142,597.215651 206.827302,597.353209 208.811401,597.429348 C209.36328,597.450525 209.793498,597.91508 209.77232,598.466958 C209.751142,599.018837 209.286588,599.449054 208.734709,599.427877 C206.709082,599.350145 204.692468,599.209699 202.686831,599.007113 Z M218.874065,599.292804 C218.322951,599.328746 217.847048,598.911117 217.811105,598.360003 C217.775163,597.808889 218.192792,597.332986 218.743906,597.297043 C220.723996,597.167906 222.694053,596.977358 224.65212,596.726016 C225.19991,596.6557 225.700984,597.04277 225.771299,597.59056 C225.841615,598.138351 225.454545,598.639424 224.906755,598.70974 C222.90735,598.966388 220.895781,599.160952 218.874065,599.292804 Z M234.852614,596.897812 C234.315236,597.025263 233.776287,596.692951 233.648836,596.155573 C233.521386,595.618195 233.853697,595.079246 234.391075,594.951795 C236.320586,594.494171 238.232635,593.976093 240.124962,593.398546 C240.653192,593.237328 241.212101,593.53485 241.373319,594.06308 C241.534537,594.59131 241.237015,595.150219 240.708785,595.311437 C238.776091,595.901304 236.823262,596.430431 234.852614,596.897812 Z M250.218835,591.849837 C249.71056,592.065881 249.123384,591.828981 248.90734,591.320707 C248.691296,590.812432 248.928196,590.225255 249.436471,590.009211 C251.25922,589.234445 253.056413,588.402465 254.825622,587.514681 C255.319246,587.266983 255.920206,587.466344 256.167904,587.959967 C256.415603,588.453591 256.216241,589.054551 255.722618,589.302249 C253.915801,590.208904 252.080379,591.058582 250.218835,591.849837 Z M264.509424,584.29911 C264.044471,584.597166 263.42593,584.461869 263.127875,583.996916 C262.829819,583.531963 262.965116,582.913422 263.430069,582.615367 C265.097118,581.546714 266.73031,580.425909 268.327213,579.254791 C268.772571,578.92818 269.398376,579.024443 269.724987,579.469801 C270.051598,579.915159 269.955335,580.540963 269.509977,580.867575 C267.879374,582.063406 266.211696,583.207878 264.509424,584.29911 Z M277.367898,574.446053 C276.959112,574.81742 276.326675,574.787086 275.955308,574.3783 C275.583942,573.969515 275.614276,573.337077 276.023061,572.965711 C277.488163,571.63472 278.911446,570.258201 280.290662,568.838349 C280.675476,568.442197 281.308574,568.433006 281.704726,568.81782 C282.100878,569.202634 282.11007,569.835732 281.725255,570.231884 C280.317034,571.681597 278.863816,573.087066 277.367898,574.446053 Z M288.341842,562.674427 C288.000042,563.108237 287.371286,563.182826 286.937475,562.841026 C286.503665,562.499226 286.429076,561.87047 286.770876,561.43666 C287.995851,559.88193 289.171896,558.289279 290.297091,556.661114 C290.61108,556.206769 291.233938,556.092989 291.688283,556.406978 C292.142628,556.720967 292.256408,557.343825 291.942419,557.79817 C290.793482,559.46069 289.592636,561.086927 288.341842,562.674427 Z M297.258636,549.170469 C296.994017,549.655232 296.386523,549.833694 295.90176,549.569076 C295.416996,549.304457 295.238534,548.696963 295.503153,548.2122 C296.451502,546.474889 297.345061,544.707882 298.182328,542.913623 C298.415868,542.413146 299.010907,542.196752 299.511384,542.430293 C300.011861,542.663833 300.228256,543.258872 299.994715,543.759349 C299.139652,545.591744 298.227114,547.396283 297.258636,549.170469 Z M303.790769,534.357042 C303.611391,534.879385 303.042534,535.157413 302.520191,534.978035 C301.997848,534.798657 301.71982,534.229799 301.899198,533.707457 C302.5415,531.837095 303.124984,529.945375 303.648582,528.034601 C303.794541,527.501952 304.34466,527.188478 304.877309,527.334436 C305.409958,527.480395 305.723432,528.030515 305.577473,528.563163 C305.042705,530.514699 304.446773,532.446779 303.790769,534.357042 Z M307.738393,518.643182 C307.649533,519.188271 307.135616,519.558118 306.590527,519.469259 C306.045437,519.380399 305.67559,518.866482 305.764449,518.321393 C306.082265,516.371819 306.339357,514.408762 306.535041,512.434247 C306.589508,511.884655 307.079195,511.483277 307.628787,511.537744 C308.17838,511.592211 308.579758,512.081898 308.525291,512.631491 C308.325475,514.647704 308.062943,516.652296 307.738393,518.643182 Z"/>
    <g transform="rotate(30 -530.974 847.274)">
      <rect width="160" height="29" x=".637" y="7.298" fill="#01B2D0" fill-opacity=".2"/>
      <rect width="158" height="27" x="18.726" y="1.896" stroke="#01B2D0" stroke-width="2"/>
    </g>
    <path fill="#01B2D0" fill-rule="nonzero" d="M509.880805,281.147191 L509.417045,282.020658 C509.158056,282.508452 508.552668,282.693934 508.064874,282.434944 C507.577081,282.175955 507.391598,281.570567 507.650588,281.082773 L508.114347,280.209306 L503.552571,277.787274 C503.145207,277.570988 502.990308,277.06542 503.206594,276.658056 C503.267391,276.543547 503.354014,276.444766 503.459603,276.369536 L514.686389,268.370621 C515.06202,268.102989 515.583487,268.19054 515.851118,268.566171 C515.955969,268.713333 516.010261,268.890533 516.005844,269.071173 L515.668905,282.851951 C515.657631,283.313035 515.27471,283.677678 514.813627,283.666405 C514.684018,283.663236 514.556927,283.629934 514.442418,283.569137 L509.880805,281.147191 Z M426.883229,437.468942 C426.624239,437.956736 426.018852,438.142218 425.531058,437.883229 C425.043264,437.624239 424.857782,437.018852 425.116771,436.531058 L427.930424,431.231685 C428.189414,430.743891 428.794801,430.558408 429.282595,430.817398 C429.770389,431.076387 429.955871,431.681775 429.696882,432.169569 L426.883229,437.468942 Z M434.386303,423.33728 C434.127314,423.825074 433.521926,424.010556 433.034132,423.751567 C432.546338,423.492577 432.360856,422.887189 432.619845,422.399396 L435.433498,417.100022 C435.692488,416.612228 436.297875,416.426746 436.785669,416.685736 C437.273463,416.944725 437.458946,417.550113 437.199956,418.037907 L434.386303,423.33728 Z M441.889377,409.205618 C441.630388,409.693412 441.025,409.878894 440.537206,409.619904 C440.049412,409.360915 439.86393,408.755527 440.12292,408.267733 L442.936572,402.96836 C443.195562,402.480566 443.80095,402.295084 444.288743,402.554073 C444.776537,402.813063 444.96202,403.418451 444.70303,403.906244 L441.889377,409.205618 Z M449.392452,395.073955 C449.133462,395.561749 448.528074,395.747232 448.040281,395.488242 C447.552487,395.229253 447.367004,394.623865 447.625994,394.136071 L450.439647,388.836698 C450.698636,388.348904 451.304024,388.163422 451.791818,388.422411 C452.279612,388.681401 452.465094,389.286788 452.206104,389.774582 L449.392452,395.073955 Z M456.895526,380.942293 C456.636536,381.430087 456.031149,381.61557 455.543355,381.35658 C455.055561,381.09759 454.870078,380.492203 455.129068,380.004409 L457.942721,374.705036 C458.20171,374.217242 458.807098,374.031759 459.294892,374.290749 C459.782686,374.549738 459.968168,375.155126 459.709179,375.64292 L456.895526,380.942293 Z M464.3986,366.810631 C464.13961,367.298425 463.534223,367.483907 463.046429,367.224918 C462.558635,366.965928 462.373153,366.360541 462.632142,365.872747 L465.445795,360.573373 C465.704785,360.08558 466.310172,359.900097 466.797966,360.159087 C467.28576,360.418076 467.471242,361.023464 467.212253,361.511258 L464.3986,366.810631 Z M471.901674,352.678969 C471.642685,353.166763 471.037297,353.352245 470.549503,353.093256 C470.061709,352.834266 469.876227,352.228878 470.135217,351.741085 L472.948869,346.441711 C473.207859,345.953917 473.813247,345.768435 474.30104,346.027424 C474.788834,346.286414 474.974317,346.891802 474.715327,347.379595 L471.901674,352.678969 Z M479.404749,338.547307 C479.145759,339.0351 478.540371,339.220583 478.052577,338.961593 C477.564784,338.702604 477.379301,338.097216 477.638291,337.609422 L480.451944,332.310049 C480.710933,331.822255 481.316321,331.636773 481.804115,331.895762 C482.291908,332.154752 482.477391,332.760139 482.218401,333.247933 L479.404749,338.547307 Z M486.907823,324.415644 C486.648833,324.903438 486.043446,325.088921 485.555652,324.829931 C485.067858,324.570942 484.882375,323.965554 485.141365,323.47776 L487.955018,318.178387 C488.214007,317.690593 488.819395,317.50511 489.307189,317.7641 C489.794983,318.02309 489.980465,318.628477 489.721476,319.116271 L486.907823,324.415644 Z M494.410897,310.283982 C494.151907,310.771776 493.54652,310.957259 493.058726,310.698269 C492.570932,310.439279 492.38545,309.833892 492.644439,309.346098 L495.458092,304.046725 C495.717082,303.558931 496.322469,303.373448 496.810263,303.632438 C497.298057,303.891427 497.483539,304.496815 497.22455,304.984609 L494.410897,310.283982 Z M501.913971,296.15232 C501.654982,296.640114 501.049594,296.825596 500.5618,296.566607 C500.074006,296.307617 499.888524,295.70223 500.147513,295.214436 L502.961166,289.915062 C503.220156,289.427268 503.825543,289.241786 504.313337,289.500776 C504.801131,289.759765 504.986614,290.365153 504.727624,290.852947 L501.913971,296.15232 Z"/>
    <g transform="translate(195 303.13)">
      <circle cx="43.5" cy="56.37" r="43.5" fill="#FFC111" fill-opacity=".2"/>
      <circle cx="55.5" cy="44.37" r="42.5" stroke="#FFC111" stroke-width="2"/>
    </g>
    <path fill="#FFC111" fill-rule="nonzero" d="M394.339499,260.785159 C392.730033,260.946319 391.126023,261.137038 389.528038,261.357131 C388.980918,261.432487 388.476302,261.050046 388.400947,260.502927 C388.325591,259.955807 388.708031,259.451191 389.255151,259.375835 C390.913377,259.147445 392.577967,258.950211 394.2483,258.784334 L394.010791,253.573615 C394.004888,253.444101 394.02922,253.314993 394.08186,253.196512 C394.269127,252.775019 394.762624,252.585141 395.184117,252.772408 L407.78162,258.369398 C407.946749,258.442764 408.083629,258.56771 408.171713,258.72548 C408.396547,259.12819 408.252351,259.636914 407.849642,259.861749 L395.813548,266.581557 C395.700348,266.644757 395.573988,266.680733 395.444475,266.686636 C394.983732,266.707637 394.593201,266.351156 394.5722,265.890413 L394.339499,260.785159 Z M379.329282,261.130984 C379.869058,261.014109 380.401379,261.356939 380.518254,261.896715 C380.635129,262.436492 380.2923,262.968813 379.752523,263.085688 C377.811676,263.50593 375.882784,263.970243 373.967016,264.478143 C373.433173,264.619674 372.885676,264.301642 372.744146,263.767799 C372.602615,263.233957 372.920647,262.686459 373.45449,262.544929 C375.399833,262.029187 377.358494,261.557709 379.329282,261.130984 Z M363.804468,265.504143 C364.325879,265.322075 364.896162,265.597166 365.07823,266.118578 C365.260298,266.639989 364.985207,267.210272 364.463795,267.39234 C362.58821,268.047263 360.72883,268.744955 358.88691,269.48477 C358.37442,269.690615 357.792094,269.442029 357.58625,268.929538 C357.380406,268.417047 357.628992,267.834722 358.141483,267.628878 C360.011832,266.877644 361.899919,266.16918 363.804468,265.504143 Z M348.954296,271.733118 C349.449587,271.488772 350.049181,271.692203 350.293528,272.187494 C350.537874,272.682785 350.334443,273.28238 349.839152,273.526726 C348.059758,274.404569 346.300901,275.322943 344.563873,276.281035 C344.080273,276.547774 343.472003,276.371974 343.205264,275.888374 C342.938525,275.404774 343.114325,274.796504 343.597925,274.529765 C345.361642,273.556953 347.147536,272.624462 348.954296,271.733118 Z M334.939001,279.746525 C335.400851,279.443684 336.020756,279.572587 336.323597,280.034438 C336.626437,280.496288 336.497534,281.116193 336.035684,281.419034 C334.37588,282.507386 332.741016,283.633455 331.132375,284.796268 C330.684784,285.119811 330.059655,285.01925 329.736112,284.571658 C329.412569,284.124067 329.51313,283.498938 329.960721,283.175395 C331.593947,281.994812 333.253808,280.851525 334.939001,279.746525 Z M321.999053,289.404441 C322.420794,289.047856 323.051752,289.100675 323.408337,289.522416 C323.764922,289.944157 323.712103,290.575115 323.290362,290.9317 C321.774363,292.213489 320.287567,293.529591 318.831197,294.878888 C318.426064,295.254235 317.79336,295.230089 317.418012,294.824956 C317.042665,294.419823 317.066811,293.787119 317.471944,293.411771 C318.9505,292.041919 320.45995,290.705765 321.999053,289.404441 Z M310.376156,300.500185 C310.751924,300.095443 311.384654,300.071955 311.789396,300.447723 C312.194139,300.823492 312.217627,301.456221 311.841858,301.860963 C310.490751,303.316249 309.172821,304.80201 307.889188,306.317021 C307.532168,306.738394 306.901156,306.790563 306.479783,306.433543 C306.05841,306.076523 306.006241,305.445511 306.36326,305.024138 C307.666456,303.486039 309.004466,301.977641 310.376156,300.500185 Z M300.137653,312.9633 C300.461725,312.516091 301.086972,312.416269 301.534181,312.740342 C301.981389,313.064414 302.081211,313.68966 301.757139,314.136869 C300.592113,315.744566 299.463818,317.378542 298.37323,319.037512 C298.069848,319.499008 297.449792,319.627184 296.988297,319.323802 C296.526802,319.02042 296.398625,318.400365 296.702007,317.93887 C297.809277,316.254524 298.954823,314.595566 300.137653,312.9633 Z M291.483522,326.576415 C291.750893,326.093165 292.359392,325.91816 292.842643,326.185531 C293.325893,326.452902 293.500898,327.061402 293.233527,327.544652 C292.272833,329.281023 291.351857,331.039285 290.471412,332.818144 C290.226425,333.313118 289.626567,333.515773 289.131593,333.270785 C288.636618,333.025798 288.433964,332.42594 288.678951,331.930966 C289.572937,330.124751 290.508069,328.339463 291.483522,326.576415 Z M284.543812,341.159953 C284.750123,340.647651 285.332675,340.399596 285.844978,340.605908 C286.35728,340.812219 286.605335,341.394771 286.399024,341.907074 C285.657874,343.747459 284.958794,345.605322 284.302428,347.479407 C284.119872,348.000648 283.549333,348.275206 283.028092,348.092651 C282.506851,347.910095 282.232292,347.339556 282.414848,346.818315 C283.08135,344.91529 283.791223,343.028744 284.543812,341.159953 Z M279.442019,356.482836 C279.583976,355.949106 280.131727,355.631512 280.665456,355.773469 C281.199186,355.915425 281.51678,356.463177 281.374824,356.996906 C280.865035,358.913611 280.398888,360.843486 279.976868,362.785359 C279.85958,363.325046 279.326997,363.667467 278.78731,363.550179 C278.247623,363.432891 277.905201,362.900307 278.022489,362.360621 C278.45102,360.388791 278.924361,358.429131 279.442019,356.482836 Z M276.255507,372.31589 C276.33115,371.76881 276.835968,371.386636 277.383048,371.46228 C277.930128,371.537924 278.312302,372.042741 278.236658,372.589821 C277.965225,374.552914 277.738125,376.525117 277.555705,378.505375 C277.505044,379.055331 277.018147,379.460089 276.46819,379.409428 C275.918234,379.358766 275.513476,378.871869 275.564137,378.321913 C275.749344,376.311413 275.979916,374.309045 276.255507,372.31589 Z M275.020914,388.251877 C275.030633,387.699678 275.486159,387.259911 276.038358,387.269631 C276.590557,387.27935 277.030324,387.734876 277.020604,388.287075 C277.006915,389.064754 277.000042,389.843292 277,390.622632 C276.99997,391.174917 276.552231,391.622608 275.999946,391.622578 C275.447661,391.622548 274.99997,391.174809 275,390.622524 C275.000043,389.831486 275.007019,389.041251 275.020914,388.251877 Z"/>
  </g>
</svg>
