<svg xmlns="http://www.w3.org/2000/svg" width="309" height="290" viewBox="0 0 309 290">
  <g fill="none" fill-rule="evenodd" transform="translate(-7 1)">
    <g transform="rotate(98 26.045 162.346)">
      <path fill="#6FD350" fill-opacity=".2" d="M80.4431933,25.0136509 L121.195845,106.213767 C121.939038,107.694587 121.341073,109.497507 119.860252,110.2407 C119.440365,110.451432 118.976855,110.560606 118.507055,110.559427 L37.4086686,110.355969 C35.7518196,110.351813 34.4120477,109.005301 34.4162044,107.348452 C34.4173626,106.88679 34.5250534,106.431623 34.7308928,106.018387 L75.0766281,25.021729 C75.8153598,23.5386776 77.6164709,22.9352873 79.0995223,23.674019 C79.6805472,23.9634369 80.1520275,24.4334999 80.4431933,25.0136509 Z" transform="rotate(-135 77.98 65.111)"/>
      <path stroke="#6FD350" stroke-width="2" d="M66.3743328,38.703587 C66.1802223,38.3168196 65.8659021,38.0034443 65.4785521,37.810499 C64.4898512,37.3180112 63.2891105,37.7202715 62.7966227,38.7089724 L22.4508874,119.70563 C22.3136611,119.981121 22.2418673,120.284565 22.2410951,120.592341 C22.238324,121.696907 23.1315052,122.594581 24.2360713,122.597352 L105.334458,122.80081 C105.647658,122.801596 105.956664,122.728813 106.236589,122.588325 C107.223803,122.092863 107.622446,120.890916 107.126984,119.903703 L66.3743328,38.703587 Z" transform="rotate(-135 64.805 78.353)"/>
      <path fill="#6FD350" fill-rule="nonzero" d="M44.6160687,170.064844 C45.9612813,169.905289 47.2793386,169.710996 48.5702522,169.481991 C49.1140467,169.385523 49.6330819,169.748153 49.7295498,170.291947 C49.8260177,170.835742 49.4633879,171.354777 48.9195935,171.451245 C47.5346494,171.696931 46.1203667,171.903659 44.6767589,172.071456 L44.8353037,177.313464 C44.849247,177.774475 44.4868273,178.159501 44.0258167,178.173444 C43.8962284,178.177364 43.7675072,178.151058 43.6498471,178.09661 L31.1395268,172.307373 C30.7209507,172.113674 30.5386518,171.617327 30.7323507,171.198751 C30.8082368,171.034764 30.9352635,170.899814 31.0943644,170.814156 L43.2319459,164.279442 C43.6380507,164.0608 44.1445077,164.212769 44.3631492,164.618874 C44.4246085,164.733029 44.4586456,164.859925 44.462565,164.989513 L44.6160687,170.064844 Z M80.2040326,68.8195513 C79.8480423,68.3973081 79.9017508,67.7664251 80.323994,67.4104348 C80.7462372,67.0544445 81.3771202,67.108153 81.7331105,67.5303962 C83.0628129,69.1075677 84.3018101,70.714112 85.4500131,72.3500175 C85.7672965,72.802068 85.6580462,73.4257364 85.2059957,73.7430198 C84.7539452,74.0603033 84.1302768,73.951053 83.8129934,73.4990025 C82.6989648,71.911787 81.4960075,70.3519738 80.2040326,68.8195513 Z M88.7946954,81.9782869 C88.5558442,81.4803225 88.765897,80.8830154 89.2638614,80.6441642 C89.7618259,80.4053131 90.3591329,80.6153659 90.5979841,81.1133303 C91.4835574,82.9596013 92.2662706,84.8386925 92.946044,86.7504803 C93.1310711,87.2708488 92.8592233,87.842685 92.3388547,88.0277122 C91.8184862,88.2127393 91.24665,87.9408914 91.0616229,87.4205229 C90.4054988,85.5752462 89.649883,83.7612088 88.7946954,81.9782869 Z M93.5167967,96.9274711 C93.4262594,96.3826579 93.7945227,95.8676045 94.3393359,95.7770672 C94.8841491,95.6865298 95.3992025,96.0547931 95.4897399,96.5996064 C95.8203737,98.5892123 96.0510085,100.609948 96.1816806,102.661688 C96.2167837,103.212856 95.7984303,103.688122 95.2472623,103.723225 C94.6960942,103.758328 94.2208276,103.339975 94.1857245,102.788807 C94.0593152,100.803999 93.8363272,98.8502621 93.5167967,96.9274711 Z M94.0397055,112.677904 C94.0889065,112.127815 94.5747269,111.721765 95.1248157,111.770966 C95.6749045,111.820167 96.0809544,112.305987 96.0317534,112.856076 C95.8543494,114.839532 95.5920766,116.849095 95.2449982,118.884737 C95.1521728,119.429165 94.6355768,119.795262 94.0911488,119.702436 C93.5467208,119.609611 93.1806244,119.093015 93.2734498,118.548587 C93.611681,116.564834 93.8670786,114.607949 94.0397055,112.677904 Z M91.0545003,128.136059 C91.2082813,127.605616 91.7629544,127.300271 92.2933975,127.454052 C92.8238406,127.607833 93.1291856,128.162506 92.9754046,128.692949 C92.4243116,130.593858 91.8049556,132.515806 91.1173695,134.458805 C90.933124,134.979451 90.3616967,135.252157 89.8410509,135.067912 C89.3204051,134.883666 89.0476988,134.312239 89.2319443,133.791593 C89.9067707,131.884651 90.5142784,129.999469 91.0545003,128.136059 Z M85.3204146,142.850299 C85.5761142,142.360773 86.1802393,142.171218 86.6697657,142.426918 C87.1592922,142.682618 87.3488463,143.286743 87.0931467,143.776269 C86.1314687,145.617363 85.1014397,147.370996 84.0030131,149.037039 C83.6990154,149.498129 83.0787894,149.625477 82.6176996,149.321479 C82.1566097,149.017481 82.0292615,148.397255 82.3332592,147.936166 C83.3940304,146.327237 84.3897645,144.631991 85.3204146,142.850299 Z M76.1647137,155.59306 C76.5523892,155.199708 77.1855375,155.195106 77.5788899,155.582782 C77.9722423,155.970457 77.9768442,156.603605 77.5891687,156.996958 C76.1462613,158.460994 74.6241689,159.822522 73.0230521,161.081346 C72.5888865,161.422694 71.9602082,161.347451 71.61886,160.913285 C71.2775118,160.47912 71.3527551,159.850441 71.7869208,159.509093 C73.3216194,158.302488 74.7808302,156.997208 76.1647137,155.59306 Z M63.5047881,164.710344 C64.0003178,164.466482 64.5997134,164.670499 64.8435756,165.166028 C65.0874378,165.661558 64.883421,166.260954 64.3878913,166.504816 C62.5826925,167.393198 60.7040774,168.184626 58.7522381,168.879127 C58.2319106,169.06427 57.6600142,168.792548 57.4748718,168.272221 C57.2897294,167.751893 57.5614507,167.179997 58.0817782,166.994855 C59.961606,166.325976 61.7692118,165.564463 63.5047881,164.710344 Z"/>
    </g>
    <g transform="rotate(30 34.456 468.566)">
      <rect width="78.836" height="60" y="9" fill="#01B2D0" fill-opacity=".2" rx="3"/>
      <rect width="76.836" height="58" x="12" y="1" stroke="#01B2D0" stroke-width="2" rx="3"/>
    </g>
    <path fill="#01B2D0" fill-rule="nonzero" d="M233.983467,226.136035 L245.013735,217.868232 C245.382791,217.591604 245.906221,217.666531 246.182849,218.035587 C246.260608,218.139327 246.313146,218.259747 246.336301,218.38731 L248.538437,230.518646 C248.620814,230.972451 248.319711,231.407113 247.865906,231.489489 C247.738343,231.512645 247.607141,231.505783 247.482689,231.469446 L234.250286,227.605914 C233.80755,227.476646 233.553434,227.012945 233.682702,226.570209 C233.733346,226.396758 233.838881,226.24441 233.983467,226.136035 Z M266.54417,98.8900668 C266.0526,98.6383189 265.858185,98.0357403 266.109933,97.54417 C266.361681,97.0525996 266.96426,96.8581852 267.45583,97.1099332 C269.290459,98.0495019 271.060002,99.0259772 272.764435,100.03939 C273.239148,100.321642 273.395168,100.935284 273.112916,101.409996 C272.830663,101.884709 272.217022,102.040729 271.742309,101.758477 C270.07441,100.766786 268.341705,99.8106387 266.54417,98.8900668 Z M279.928344,107.310476 C279.491821,106.972147 279.41222,106.344006 279.750549,105.907483 C280.088878,105.470961 280.71702,105.39136 281.153542,105.729689 C282.783632,106.9931 284.33414,108.301651 285.804987,109.655351 C286.211359,110.029357 286.237596,110.661978 285.86359,111.06835 C285.489584,111.474721 284.856963,111.500959 284.450592,111.126953 C283.021588,109.811764 281.514198,108.539602 279.928344,107.310476 Z M291.174039,118.352078 C290.831534,117.918825 290.9051,117.289948 291.338354,116.947443 C291.771608,116.604938 292.400484,116.678504 292.742989,117.111758 C294.012846,118.71807 295.192251,120.375238 296.281109,122.083175 C296.578003,122.548871 296.441163,123.167072 295.975467,123.463966 C295.509772,123.76086 294.891571,123.624019 294.594677,123.158324 C293.542265,121.507555 292.402084,119.905502 291.174039,118.352078 Z M299.140885,131.854567 C298.927722,131.345078 299.167942,130.759251 299.677432,130.546088 C300.186922,130.332925 300.772748,130.573145 300.985911,131.082635 C301.765322,132.945534 302.455291,134.857939 303.055819,136.819729 C303.217476,137.347825 302.920418,137.90698 302.392322,138.068637 C301.864226,138.230294 301.30507,137.933236 301.143414,137.40514 C300.562169,135.506345 299.89466,133.656195 299.140885,131.854567 Z M303.30031,147.093737 C303.220751,146.547213 303.599301,146.039672 304.145825,145.960113 C304.69235,145.880554 305.199891,146.259104 305.27945,146.805628 C305.5667,148.778867 305.776641,150.794522 305.909325,152.852547 C305.944858,153.403687 305.526875,153.87928 304.975734,153.914813 C304.424594,153.950345 303.949001,153.532363 303.913468,152.981222 C303.784195,150.976093 303.579792,149.013614 303.30031,147.093737 Z M303.964897,162.774489 C303.992625,162.222901 304.462253,161.798228 305.013841,161.825955 C305.565429,161.853682 305.990102,162.323311 305.962375,162.874899 C305.864765,164.816687 305.706548,166.791739 305.487746,168.800163 C305.479896,168.872008 305.479896,168.872008 305.473425,168.930645 C305.412702,169.479581 304.918476,169.875357 304.369539,169.814634 C303.820603,169.753911 303.424827,169.259685 303.48555,168.710748 C303.491835,168.653804 303.491835,168.653804 303.499522,168.583452 C303.714143,166.613401 303.869257,164.67708 303.964897,162.774489 Z M301.715763,178.40129 C301.855453,177.866963 302.401851,177.547046 302.936178,177.686735 C303.470505,177.826425 303.790422,178.372823 303.650733,178.90715 C303.128613,180.904313 302.518232,182.843757 301.81955,184.725362 C301.627301,185.243105 301.051737,185.50697 300.533994,185.314721 C300.01625,185.122471 299.752385,184.546908 299.944635,184.029164 C300.619974,182.210422 301.210362,180.334505 301.715763,178.40129 Z M295.701312,192.915194 C295.984248,192.440889 296.598114,192.285754 297.072419,192.56869 C297.546725,192.851626 297.70186,193.465491 297.418924,193.939797 C296.3737,195.691978 295.232786,197.38071 293.996286,199.005847 C293.661868,199.445373 293.034463,199.530581 292.594937,199.196163 C292.155411,198.861746 292.070203,198.23434 292.404621,197.794814 C293.595684,196.229394 294.694548,194.602903 295.701312,192.915194 Z M285.778038,205.024768 C286.185867,204.652352 286.818381,204.68106 287.190797,205.08889 C287.563213,205.496719 287.534504,206.129233 287.126675,206.501649 C285.645681,207.854042 284.077851,209.147986 282.423309,210.383474 C281.980787,210.713916 281.354175,210.623058 281.023732,210.180535 C280.69329,209.738013 280.784149,209.111401 281.226671,208.780958 C282.8289,207.584534 284.345982,206.332472 285.778038,205.024768 Z M272.84924,214.114026 C273.33469,213.850668 273.941718,214.030708 274.205076,214.516157 C274.468435,215.001606 274.288395,215.608634 273.802946,215.871993 C272.059458,216.817843 270.245513,217.71611 268.361149,218.566836 C267.857785,218.794088 267.265504,218.570255 267.038253,218.066891 C266.811001,217.563527 267.034834,216.971246 267.538198,216.743994 C269.378661,215.913088 271.148995,215.036417 272.84924,214.114026 Z M258.397664,220.30337 C258.921514,220.128442 259.487985,220.4113 259.662913,220.93515 C259.83784,221.459 259.554983,222.025471 259.031133,222.200399 C257.157463,222.826067 255.227916,223.414113 253.242493,223.964567 C252.710284,224.112121 252.159228,223.800296 252.011674,223.268088 C251.86412,222.735879 252.175945,222.184822 252.708154,222.037268 C254.660625,221.49595 256.557128,220.917974 258.397664,220.30337 Z"/>
    <g transform="translate(14 8.13)">
      <circle cx="43.5" cy="56.37" r="43.5" fill="#FFC111" fill-opacity=".2"/>
      <circle cx="55.5" cy="44.37" r="42.5" stroke="#FFC111" stroke-width="2"/>
    </g>
    <path fill="#FFC111" fill-rule="nonzero" d="M194.840129,31.2426147 L181.783761,26.8205523 C181.346915,26.6725969 181.112723,26.1985216 181.260678,25.7616756 C181.302268,25.6388799 181.371876,25.5274537 181.463991,25.4362214 L190.224188,16.7599522 C190.551887,16.4353929 191.080647,16.437938 191.405206,16.7656368 C191.496438,16.8577517 191.564971,16.9698428 191.605377,17.0930332 L195.901548,30.1913648 C196.045291,30.6296149 195.806546,31.1014137 195.368296,31.245157 C195.196601,31.3014717 195.011273,31.3005797 194.840129,31.2426147 Z M74.7112026,48.9091402 C74.5165224,49.4259749 73.9397257,49.6871327 73.422891,49.4924526 C72.9060563,49.2977724 72.6448985,48.7209757 72.8395787,48.204141 C73.5651811,46.27782 74.3249257,44.4082887 75.1188391,42.5955547 C75.3404026,42.0896614 75.9301228,41.8591664 76.4360162,42.0807299 C76.9419095,42.3022933 77.1724045,42.8920135 76.9508411,43.3979069 C76.1711285,45.178216 75.4245735,47.0152912 74.7112026,48.9091402 Z M81.37222,34.5314888 C81.0998107,35.0119174 80.489515,35.1805503 80.0090864,34.908141 C79.5286579,34.6357317 79.3600249,34.025436 79.6324342,33.5450074 C80.6503197,31.7498364 81.7106261,30.0250372 82.8133843,28.3706537 C83.1197052,27.9111039 83.7405661,27.7868874 84.2001158,28.0932083 C84.6596655,28.3995292 84.783882,29.02039 84.4775611,29.4799398 C83.4017318,31.093924 82.3666077,32.7777591 81.37222,34.5314888 Z M90.4970129,21.6507939 C90.1299954,22.0634882 89.497914,22.1005165 89.0852197,21.733499 C88.6725254,21.3664815 88.6354971,20.7344002 89.0025146,20.3217059 C90.3706878,18.783258 91.7895658,17.3291531 93.2591264,15.9594928 C93.6631416,15.5829424 94.295915,15.6052071 94.6724654,16.0092223 C95.0490157,16.4132375 95.0267511,17.0460109 94.6227359,17.4225612 C93.1991645,18.7493587 91.8239308,20.1587357 90.4970129,21.6507939 Z M102.342074,11.3450402 C101.880647,11.6485257 101.260563,11.5204887 100.957077,11.0590615 C100.653592,10.5976344 100.781629,9.97755021 101.243056,9.67406471 C102.944776,8.5548255 104.700524,7.52660929 106.510177,6.58948573 C107.000605,6.33551922 107.604056,6.527209 107.858023,7.01763683 C108.111989,7.50806466 107.920299,8.11151551 107.429871,8.36548202 C105.681763,9.27073432 103.985871,10.2638971 102.342074,11.3450402 Z M116.580958,4.5795128 C116.054799,4.74736763 115.49219,4.45690478 115.324335,3.93074587 C115.15648,3.40458696 115.446943,2.84197766 115.973102,2.67412283 C117.885478,2.06403808 119.847278,1.53839402 121.858406,1.09715836 C122.39786,0.978803722 122.931119,1.32017221 123.049474,1.85962622 C123.167829,2.39908022 122.82646,2.93233949 122.287006,3.05069413 C120.335955,3.47874915 118.433971,3.98836613 116.580958,4.5795128 Z M131.94905,1.64036539 C131.398271,1.68112016 130.918739,1.26766383 130.877984,0.716884843 C130.837229,0.166105855 131.250685,-0.313427 131.801464,-0.354181765 C133.843138,-0.505254922 135.872237,-0.563802614 137.888674,-0.52979068 C138.44088,-0.520476431 138.880981,-0.0652741648 138.871667,0.486932037 C138.862353,1.03913824 138.40715,1.47923912 137.854944,1.46992487 C135.899227,1.43693713 133.930625,1.49373925 131.94905,1.64036539 Z M147.663104,2.40680706 C147.119173,2.31111246 146.755805,1.79259342 146.8515,1.24866237 C146.947194,0.704731316 147.465714,0.341363878 148.009645,0.437058479 C150.004685,0.788048828 151.986337,1.23366052 153.954508,1.77385481 C154.487096,1.92003187 154.800345,2.47028023 154.654168,3.00286892 C154.507991,3.53545761 153.957743,3.84870613 153.425154,3.70252907 C151.51713,3.17884302 149.596479,2.7469486 147.663104,2.40680706 Z M162.701344,7.01556172 C162.196141,6.79242859 161.967479,6.20199551 162.190612,5.69679253 C162.413745,5.19158955 163.004178,4.96292676 163.509381,5.18605989 C165.341027,5.99504371 167.160179,6.88964165 168.966807,7.86979112 C169.452251,8.13315889 169.632279,8.74019076 169.368911,9.22563474 C169.105544,9.71107873 168.498512,9.89110706 168.013068,9.62773928 C166.253705,8.67323291 164.48314,7.80252793 162.701344,7.01556172 Z M176.424445,14.8904142 C175.97424,14.5705179 175.868604,13.9462273 176.1885,13.496022 C176.508396,13.0458167 177.132687,12.9401804 177.582892,13.2600767 C179.20261,14.410978 180.81177,15.6337336 182.410384,16.9283088 C182.839584,17.2758799 182.905758,17.9055774 182.558187,18.3347776 C182.210616,18.7639778 181.580918,18.8301512 181.151718,18.4825802 C179.585423,17.2141767 178.009661,16.0167997 176.424445,14.8904142 Z"/>
  </g>
</svg>
