<svg xmlns="http://www.w3.org/2000/svg" width="132" height="120" viewBox="0 0 132 120">
  <g fill="none" fill-rule="evenodd" transform="translate(20 6)">
    <circle cx="32" cy="60" r="32" fill="#FFC111" fill-opacity=".2"/>
    <circle cx="40" cy="52" r="31" stroke="#FFC111" stroke-width="2"/>
    <path fill="#FFC111" fill-rule="nonzero" d="M52.0126405,101.39032 C53.5235345,101.008544 55.0137247,100.560342 56.4795349,100.047349 C57.0008179,99.8649141 57.5712939,100.139605 57.7537286,100.660888 C57.9361632,101.182171 57.6614724,101.752647 57.1401893,101.935082 C55.5325534,102.49771 53.8967115,102.985261 52.2371917,103.395731 L52.8260953,108.655083 C52.8405221,108.783925 52.824753,108.914357 52.7800366,109.036049 C52.6209582,109.468969 52.1410491,109.690961 51.7081296,109.531882 L38.7691162,104.777379 C38.59951,104.715056 38.4546928,104.599404 38.3564015,104.447782 C38.1055129,104.060768 38.2158647,103.543645 38.6028791,103.292757 L50.1698902,95.7942483 C50.2786785,95.7237245 50.4023925,95.679498 50.5312349,95.6650712 C50.9895919,95.6137477 51.4027695,95.9437136 51.454093,96.4020706 L52.0126405,101.39032 Z M66.395764,97.6824859 C65.9177958,97.9591895 65.3060135,97.7960323 65.0293099,97.3180641 C64.7526063,96.840096 64.9157635,96.2283136 65.3937317,95.95161 C67.0952557,94.96657 68.7383394,93.8870229 70.3149876,92.7188078 C70.7587359,92.3900132 71.3850056,92.4832015 71.7138003,92.9269498 C72.0425949,93.3706981 71.9494065,93.9969678 71.5056583,94.3257625 C69.868551,95.5387747 68.1624905,96.6596991 66.395764,97.6824859 Z M79.0812454,87.517494 C78.707216,87.9238441 78.0745933,87.9500451 77.6682432,87.5760156 C77.2618931,87.2019862 77.2356921,86.5693635 77.6097215,86.1630134 C78.9409347,84.7167675 80.1871744,83.1972199 81.3417251,81.6121351 C81.6668879,81.1657187 82.2923764,81.0674231 82.7387928,81.3925858 C83.1852093,81.7177485 83.2835049,82.343237 82.9583421,82.7896535 C81.7587903,84.4365203 80.4640992,86.015145 79.0812454,87.517494 Z M88.1609415,73.9598293 C87.9283057,74.4607275 87.3336589,74.6781972 86.8327606,74.4455614 C86.3318624,74.2129256 86.1143927,73.6182788 86.3470285,73.1173806 C87.1735607,71.3377383 87.8950863,69.5114109 88.5074055,67.6462903 C88.6796745,67.1215601 89.244704,66.8358338 89.7694343,67.0081028 C90.2941645,67.1803717 90.5798908,67.7454013 90.4076218,68.2701315 C89.7707939,70.2099055 89.0204334,72.1092198 88.1609415,73.9598293 Z M92.6127422,58.3792874 C92.545724,58.9274908 92.0469883,59.3175685 91.4987849,59.2505503 C90.9505814,59.1835321 90.5605037,58.6847964 90.627522,58.1365929 C90.8645276,56.197907 90.9890888,54.2385397 90.9993143,52.2647656 C91.0021755,51.7124882 91.4522042,51.2670984 92.0044815,51.2699596 C92.5567588,51.2728208 93.0021486,51.7228494 92.9992875,52.2751268 C92.9886594,54.3266148 92.8591665,56.3635575 92.6127422,58.3792874 Z M92.0602133,42.1043315 C92.1645813,42.6466652 91.8095399,43.1709204 91.2672062,43.2752883 C90.7248726,43.3796562 90.2006174,43.0246148 90.0962495,42.4822812 C89.7246122,40.5511185 89.2400161,38.6483043 88.6456323,36.7812347 C88.4780966,36.2549741 88.7689006,35.692541 89.2951613,35.5250053 C89.8214219,35.3574697 90.3838549,35.6482737 90.5513906,36.1745343 C91.1696204,38.1165087 91.6736679,40.095701 92.0602133,42.1043315 Z M86.5060342,26.7799512 C86.7730226,27.2634134 86.597536,27.8717737 86.1140739,28.1387621 C85.6306117,28.4057505 85.0222514,28.2302639 84.755263,27.7468018 C83.8069615,26.0296192 82.7586025,24.3673322 81.6159641,22.7680148 C81.2949051,22.3186379 81.3989273,21.6940762 81.8483041,21.3730172 C82.297681,21.0519582 82.9222427,21.1559804 83.2433017,21.6053572 C84.4307505,23.2673945 85.520336,24.9950506 86.5060342,26.7799512 Z M76.5692587,13.9296492 C76.9695029,14.3102054 76.9854632,14.9431692 76.604907,15.3434134 C76.2243507,15.7436575 75.591387,15.7596178 75.1911428,15.3790616 C73.7694215,14.0272746 72.2704282,12.7555383 70.7018577,11.5706299 C70.2611762,11.2377362 70.1737969,10.6106296 70.5066906,10.169948 C70.8395843,9.7292665 71.4666909,9.64188719 71.9073725,9.9747809 C73.5361898,11.2052001 75.0928096,12.5258264 76.5692587,13.9296492 Z M63.2743967,4.64418507 C63.7694127,4.8890883 63.9721692,5.48891136 63.727266,5.98392737 C63.4823627,6.47894339 62.8825397,6.68169986 62.3875237,6.43679664 C60.6297759,5.56717205 58.8220398,4.79607999 56.9721588,4.12782663 C56.4527269,3.94018636 56.1837566,3.36699106 56.3713968,2.84755908 C56.5590371,2.32812711 57.1322324,2.05915679 57.6516644,2.24679706 C59.5723648,2.94063332 61.4493287,3.74125458 63.2743967,4.64418507 Z M47.7606364,-0.30592463 C48.3059729,-0.218594365 48.6772603,0.294283362 48.58993,0.839619836 C48.5025997,1.38495631 47.989722,1.7562437 47.4443855,1.66891344 C45.513338,1.35967519 43.5586425,1.15669228 41.5866527,1.06197705 C41.0350039,1.0354812 40.6092833,0.566802345 40.6357791,0.0151535305 C40.662275,-0.536495284 41.1309538,-0.962215877 41.6826027,-0.935720027 C43.7284455,-0.837457612 45.7566866,-0.626837449 47.7606364,-0.30592463 Z"/>
  </g>
</svg>
