<svg xmlns="http://www.w3.org/2000/svg" width="687" height="800" viewBox="0 0 687 800">
  <g fill="none" fill-rule="evenodd" transform="translate(-5 -41)">
    <g transform="rotate(-121 145.859 -34.425)">
      <rect width="11" height="20" x=".722" y=".751" fill="#01B2D0" opacity=".1"/>
      <rect width="9" height="18" x="5.324" y="1.582" stroke="#01B2D0" stroke-width="2"/>
    </g>
    <g transform="rotate(19 306.674 1837.684)">
      <polygon fill="#6FD350" points="20.481 6.158 39.981 42.158 .981 42.158" opacity=".2"/>
      <path stroke="#6FD350" stroke-width="2" d="M32.122015,2.13388757 L14.3009604,35.0342962 L49.9430697,35.0342962 L32.122015,2.13388757 Z"/>
    </g>
    <g transform="rotate(-75 666.27 123.286)">
      <rect width="22" height="27" x=".657" y="1.244" fill="#01B2D0" opacity=".1"/>
      <rect width="20" height="25" x="9.643" y="1.14" stroke="#01B2D0" stroke-width="2"/>
    </g>
    <g transform="rotate(145 182.914 513.988)">
      <rect width="14" height="15" x=".155" y=".692" fill="#01B2D0" opacity=".1"/>
      <rect width="12" height="13" x="6.153" y="1.529" stroke="#01B2D0" stroke-width="2"/>
    </g>
    <g transform="rotate(-80 468.258 -249.85)">
      <rect width="15" height="19" x=".53" y="1.746" fill="#01B2D0" opacity=".1"/>
      <rect width="13" height="17" x="6.454" y="1.878" stroke="#01B2D0" stroke-width="2"/>
    </g>
    <g transform="rotate(136 167.45 409.384)">
      <circle cx="15.55" cy="12.85" r="11" stroke="#FFC111" stroke-width="2"/>
      <circle cx="12.077" cy="16.447" r="12" fill="#FFC111" opacity=".2"/>
    </g>
    <g transform="rotate(60 92.88 461.142)">
      <ellipse cx="16.737" cy="11.743" stroke="#FFC111" stroke-width="2" rx="11" ry="10.5"/>
      <ellipse cx="12.639" cy="12.841" fill="#FFC111" opacity=".2" rx="12" ry="11.5"/>
    </g>
    <g transform="rotate(60 -175.37 126.25)">
      <ellipse cx="16.737" cy="11.743" stroke="#FFC111" stroke-width="2" rx="11" ry="10.5"/>
      <ellipse cx="12.639" cy="12.841" fill="#FFC111" opacity=".2" rx="12" ry="11.5"/>
    </g>
    <g transform="rotate(120 160.284 555.207)">
      <polygon fill="#6FD350" points="13.521 2.92 27.021 27.92 .021 27.92" opacity=".2"/>
      <path stroke="#6FD350" stroke-width="2" d="M22.3156986,2.25652714 L10.4921844,24.1519238 L34.1392128,24.1519238 L22.3156986,2.25652714 Z"/>
    </g>
    <g transform="rotate(19 -927.984 2032.534)">
      <polygon fill="#6FD350" points="13.798 4.524 26.798 27.524 .798 27.524" opacity=".2"/>
      <path stroke="#6FD350" stroke-width="2" d="M21.9822077,2.68020246 L10.6961072,22.6479186 L33.2683081,22.6479186 L21.9822077,2.68020246 Z"/>
    </g>
    <g transform="rotate(28 -1212.727 543.852)">
      <polygon fill="#6FD350" points="16.001 5.665 32.001 36.665 .001 36.665" opacity=".2"/>
      <path stroke="#6FD350" stroke-width="2" d="M25.713829,2.68111194 L11.3552976,30.5007665 L40.0723604,30.5007665 L25.713829,2.68111194 Z"/>
    </g>
    <g transform="rotate(-157 114.926 95.968)">
      <polygon fill="#6FD350" points="12.704 5.269 25.204 30.269 .204 30.269" opacity=".2"/>
      <path stroke="#6FD350" stroke-width="2" d="M21.5180574,2.67759017 L10.6360913,24.4415222 L32.4000234,24.4415222 L21.5180574,2.67759017 Z"/>
    </g>
    <g transform="translate(105 457)">
      <g transform="rotate(98 144.193 143.526)">
        <polygon fill="#6FD350" fill-opacity=".2" points="78.178 19.544 123.809 110.465 33.003 110.237" transform="rotate(-135 78.406 65.005)"/>
        <path stroke="#6FD350" stroke-width="2" d="M65.0063715,35.0219545 L21.4407795,122.482681 L109.011354,122.702377 L65.0063715,35.0219545 Z" transform="rotate(-135 65.23 78.246)"/>
      </g>
      <path fill="#6FD350" fill-rule="nonzero" d="M13.9045034,59.1285979 C14.1250281,60.7154039 14.3855234,62.2936953 14.6855985,63.8623755 C14.7893644,64.4048247 14.4337413,64.9286854 13.8912922,65.0324513 C13.348843,65.1362172 12.8249822,64.7805941 12.7212163,64.238145 C12.4053451,62.5868885 12.1324235,60.9252373 11.9028883,59.2544278 L6.67700978,59.5829482 C6.54761764,59.5910824 6.41810864,59.5689789 6.2987391,59.5183884 C5.8740817,59.3384124 5.67572819,58.8482603 5.85570414,58.4236029 L11.2347899,45.7315262 C11.3052996,45.5651569 11.4278678,45.4261447 11.5840971,45.3353551 C11.9828723,45.1036147 12.4940062,45.2390232 12.7257465,45.6377984 L19.6519564,57.5563131 C19.7170977,57.6684072 19.755246,57.7941285 19.7633801,57.9235207 C19.7923173,58.3838335 19.4426183,58.780449 18.9823054,58.8093862 L13.9045034,59.1285979 Z M15.1437008,74.0613697 C14.9833329,73.5328807 15.281754,72.9744519 15.810243,72.814084 C16.338732,72.6537161 16.8971608,72.9521373 17.0575286,73.4806262 C17.6324982,75.3754264 18.2668632,77.2499005 18.9594911,79.1017163 C19.1529696,79.6190021 18.890472,80.1951903 18.3731863,80.3886688 C17.8559005,80.5821473 17.2797123,80.3196497 17.0862338,79.8023639 C16.3788342,77.9110544 15.7309366,75.9965931 15.1437008,74.0613697 Z M21.1282971,89.0839291 C20.8813953,88.5899069 21.0817259,87.9892693 21.5757481,87.7423674 C22.0697703,87.4954656 22.6704079,87.6957962 22.9173097,88.1898184 C23.802618,89.9612184 24.7434917,91.7040275 25.7383583,93.415793 C26.0158757,93.8932891 25.8537611,94.5053485 25.376265,94.782866 C24.8987689,95.0603835 24.2867095,94.8982688 24.009192,94.4207727 C22.9932347,92.6727183 22.0324004,90.8929357 21.1282971,89.0839291 Z M29.5249725,102.863168 C29.1991988,102.417197 29.2966377,101.791575 29.7426085,101.465801 C30.1885792,101.140027 30.8142018,101.237466 31.1399755,101.683437 C32.3072738,103.28142 33.524426,104.842628 34.7894527,106.364677 C35.1424651,106.789413 35.0843217,107.419903 34.6595857,107.772915 C34.2348497,108.125928 33.60436,108.067784 33.2513476,107.643048 C31.9596772,106.088942 30.716879,104.494839 29.5249725,102.863168 Z M40.1372979,115.097943 C39.74187,114.712384 39.7338689,114.07927 40.1194272,113.683842 C40.5049854,113.288414 41.1380998,113.280413 41.5335278,113.665971 C42.9512197,115.048278 44.4117897,116.386021 45.9129444,117.677053 C46.3316731,118.037171 46.3791867,118.668551 46.019069,119.087279 C45.6589514,119.506008 45.0275716,119.553522 44.608843,119.193404 C43.0761028,117.875207 41.5848086,116.509324 40.1372979,115.097943 Z M52.5664053,125.348659 C52.1125958,125.033896 51.9998759,124.410846 52.3146384,123.957036 C52.6294008,123.503227 53.2524514,123.390507 53.7062609,123.705269 C55.3331274,124.833664 56.9949822,125.910793 58.6893815,126.934878 C59.1620429,127.220552 59.3136263,127.835304 59.0279524,128.307966 C58.7422785,128.780627 58.1275262,128.932211 57.6548647,128.646537 C55.9246233,127.600789 54.2276393,126.500891 52.5664053,125.348659 Z M66.5813566,133.420205 C66.0813081,133.185748 65.8660036,132.590314 66.1004605,132.090265 C66.3349173,131.590217 66.9303515,131.374912 67.4303999,131.609369 C69.2218843,132.449339 71.0400118,133.232835 72.8823715,133.958514 C73.3962313,134.160916 73.6487176,134.741561 73.4463155,135.255421 C73.2439133,135.769281 72.6632684,136.021767 72.1494087,135.819365 C70.267802,135.078226 68.4109628,134.278049 66.5813566,133.420205 Z M81.7619648,139.029376 C81.2295936,138.882409 80.9171618,138.331697 81.0641288,137.799325 C81.2110959,137.266954 81.7618083,136.954522 82.2941796,137.101489 C84.199706,137.627531 86.1236516,138.093806 88.0638025,138.499395 C88.604401,138.612407 88.9510282,139.142263 88.8380161,139.682861 C88.7250039,140.22346 88.1951478,140.570087 87.6545494,140.457075 C85.6730736,140.042847 83.7081209,139.566634 81.7619648,139.029376 Z M97.6868308,142.007113 C97.1373421,141.95161 96.7368875,141.461167 96.7923905,140.911678 C96.8478935,140.36219 97.3383362,139.961735 97.8878249,140.017238 C99.8521421,140.215651 101.827302,140.353209 103.811401,140.429348 C104.36328,140.450525 104.793498,140.91508 104.77232,141.466958 C104.751142,142.018837 104.286588,142.449054 103.734709,142.427877 C101.709082,142.350145 99.6924683,142.209699 97.6868308,142.007113 Z M113.874065,142.292804 C113.322951,142.328746 112.847048,141.911117 112.811105,141.360003 C112.775163,140.808889 113.192792,140.332986 113.743906,140.297043 C115.723996,140.167906 117.694053,139.977358 119.65212,139.726016 C120.19991,139.6557 120.700984,140.04277 120.771299,140.59056 C120.841615,141.138351 120.454545,141.639424 119.906755,141.70974 C117.90735,141.966388 115.895781,142.160952 113.874065,142.292804 Z M129.852614,139.897812 C129.315236,140.025263 128.776287,139.692951 128.648836,139.155573 C128.521386,138.618195 128.853697,138.079246 129.391075,137.951795 C131.320586,137.494171 133.232635,136.976093 135.124962,136.398546 C135.653192,136.237328 136.212101,136.53485 136.373319,137.06308 C136.534537,137.59131 136.237015,138.150219 135.708785,138.311437 C133.776091,138.901304 131.823262,139.430431 129.852614,139.897812 Z M145.218835,134.849837 C144.71056,135.065881 144.123384,134.828981 143.90734,134.320707 C143.691296,133.812432 143.928196,133.225255 144.436471,133.009211 C146.25922,132.234445 148.056413,131.402465 149.825622,130.514681 C150.319246,130.266983 150.920206,130.466344 151.167904,130.959967 C151.415603,131.453591 151.216241,132.054551 150.722618,132.302249 C148.915801,133.208904 147.080379,134.058582 145.218835,134.849837 Z M159.509424,127.29911 C159.044471,127.597166 158.42593,127.461869 158.127875,126.996916 C157.829819,126.531963 157.965116,125.913422 158.430069,125.615367 C160.097118,124.546714 161.73031,123.425909 163.327213,122.254791 C163.772571,121.92818 164.398376,122.024443 164.724987,122.469801 C165.051598,122.915159 164.955335,123.540963 164.509977,123.867575 C162.879374,125.063406 161.211696,126.207878 159.509424,127.29911 Z M172.367898,117.446053 C171.959112,117.81742 171.326675,117.787086 170.955308,117.3783 C170.583942,116.969515 170.614276,116.337077 171.023061,115.965711 C172.488163,114.63472 173.911446,113.258201 175.290662,111.838349 C175.675476,111.442197 176.308574,111.433006 176.704726,111.81782 C177.100878,112.202634 177.11007,112.835732 176.725255,113.231884 C175.317034,114.681597 173.863816,116.087066 172.367898,117.446053 Z M183.341842,105.674427 C183.000042,106.108237 182.371286,106.182826 181.937475,105.841026 C181.503665,105.499226 181.429076,104.87047 181.770876,104.43666 C182.995851,102.88193 184.171896,101.289279 185.297091,99.661114 C185.61108,99.2067692 186.233938,99.0929886 186.688283,99.4069778 C187.142628,99.720967 187.256408,100.343825 186.942419,100.79817 C185.793482,102.46069 184.592636,104.086927 183.341842,105.674427 Z M192.258636,92.1704686 C191.994017,92.6552318 191.386523,92.8336942 190.90176,92.5690755 C190.416996,92.3044568 190.238534,91.6969627 190.503153,91.2121995 C191.451502,89.4748886 192.345061,87.7078818 193.182328,85.9136231 C193.415868,85.4131462 194.010907,85.1967517 194.511384,85.4302925 C195.011861,85.6638334 195.228256,86.2588723 194.994715,86.7593492 C194.139652,88.5917439 193.227114,90.3962826 192.258636,92.1704686 Z M198.790769,77.3570419 C198.611391,77.8793847 198.042534,78.1574126 197.520191,77.9780345 C196.997848,77.7986565 196.71982,77.2297994 196.899198,76.7074567 C197.5415,74.8370947 198.124984,72.9453754 198.648582,71.0346006 C198.794541,70.501952 199.34466,70.1884777 199.877309,70.3344363 C200.409958,70.4803948 200.723432,71.0305146 200.577473,71.5631632 C200.042705,73.5146995 199.446773,75.446779 198.790769,77.3570419 Z M202.738393,61.6431815 C202.649533,62.1882709 202.135616,62.5581184 201.590527,62.4692589 C201.045437,62.3803995 200.67559,61.8664824 200.764449,61.321393 C201.082265,59.3718187 201.339357,57.4087619 201.535041,55.4342473 C201.589508,54.884655 202.079195,54.4832767 202.628787,54.5377439 C203.17838,54.5922111 203.579758,55.0818982 203.525291,55.6314905 C203.325475,57.6477036 203.062943,59.6522957 202.738393,61.6431815 Z"/>
    </g>
    <g transform="translate(334 269)">
      <g transform="rotate(30 -196.013 89.521)">
        <rect width="160" height="29" x=".637" y="7.298" fill="#01B2D0" fill-opacity=".2"/>
        <rect width="158" height="27" x="18.726" y="1.896" stroke="#01B2D0" stroke-width="2"/>
      </g>
      <path fill="#01B2D0" fill-rule="nonzero" d="M175.880805,12.1471908 L175.417045,13.0206577 C175.158056,13.5084516 174.552668,13.6939341 174.064874,13.4349445 C173.577081,13.1759549 173.391598,12.5705673 173.650588,12.0827735 L174.114347,11.2093065 L169.552571,8.78727444 C169.145207,8.57098826 168.990308,8.06541979 169.206594,7.65805565 C169.267391,7.54354718 169.354014,7.44476646 169.459603,7.3695363 L180.686389,-0.629379245 C181.06202,-0.897010678 181.583487,-0.809459712 181.851118,-0.433828689 C181.955969,-0.286666623 182.010261,-0.109466796 182.005844,0.0711733065 L181.668905,13.8519515 C181.657631,14.3130351 181.27471,14.6776784 180.813627,14.6664049 C180.684018,14.663236 180.556927,14.6299343 180.442418,14.569137 L175.880805,12.1471908 Z M92.8832289,168.468942 C92.6242393,168.956736 92.0188517,169.142218 91.5310579,168.883229 C91.043264,168.624239 90.8577815,168.018852 91.1167711,167.531058 L93.9304239,162.231685 C94.1894135,161.743891 94.7948011,161.558408 95.282595,161.817398 C95.7703888,162.076387 95.9558713,162.681775 95.6968817,163.169569 L92.8832289,168.468942 Z M100.386303,154.33728 C100.127314,154.825074 99.5219259,155.010556 99.0341321,154.751567 C98.5463382,154.492577 98.3608558,153.887189 98.6198453,153.399396 L101.433498,148.100022 C101.692488,147.612228 102.297875,147.426746 102.785669,147.685736 C103.273463,147.944725 103.458946,148.550113 103.199956,149.037907 L100.386303,154.33728 Z M107.889377,140.205618 C107.630388,140.693412 107.025,140.878894 106.537206,140.619904 C106.049412,140.360915 105.86393,139.755527 106.12292,139.267733 L108.936572,133.96836 C109.195562,133.480566 109.80095,133.295084 110.288743,133.554073 C110.776537,133.813063 110.96202,134.418451 110.70303,134.906244 L107.889377,140.205618 Z M115.392452,126.073955 C115.133462,126.561749 114.528074,126.747232 114.040281,126.488242 C113.552487,126.229253 113.367004,125.623865 113.625994,125.136071 L116.439647,119.836698 C116.698636,119.348904 117.304024,119.163422 117.791818,119.422411 C118.279612,119.681401 118.465094,120.286788 118.206104,120.774582 L115.392452,126.073955 Z M122.895526,111.942293 C122.636536,112.430087 122.031149,112.61557 121.543355,112.35658 C121.055561,112.09759 120.870078,111.492203 121.129068,111.004409 L123.942721,105.705036 C124.20171,105.217242 124.807098,105.031759 125.294892,105.290749 C125.782686,105.549738 125.968168,106.155126 125.709179,106.64292 L122.895526,111.942293 Z M130.3986,97.810631 C130.13961,98.2984249 129.534223,98.4839074 129.046429,98.2249178 C128.558635,97.9659282 128.373153,97.3605406 128.632142,96.8727468 L131.445795,91.5733734 C131.704785,91.0855796 132.310172,90.9000971 132.797966,91.1590867 C133.28576,91.4180763 133.471242,92.0234639 133.212253,92.5112577 L130.3986,97.810631 Z M137.901674,83.6789688 C137.642685,84.1667627 137.037297,84.3522452 136.549503,84.0932556 C136.061709,83.834266 135.876227,83.2288784 136.135217,82.7410845 L138.948869,77.4417112 C139.207859,76.9539174 139.813247,76.7684349 140.30104,77.0274245 C140.788834,77.2864141 140.974317,77.8918016 140.715327,78.3795955 L137.901674,83.6789688 Z M145.404749,69.5473066 C145.145759,70.0351005 144.540371,70.2205829 144.052577,69.9615934 C143.564784,69.7026038 143.379301,69.0972162 143.638291,68.6094223 L146.451944,63.310049 C146.710933,62.8222552 147.316321,62.6367727 147.804115,62.8957622 C148.291908,63.1547518 148.477391,63.7601394 148.218401,64.2479333 L145.404749,69.5473066 Z M152.907823,55.4156444 C152.648833,55.9034382 152.043446,56.0889207 151.555652,55.8299311 C151.067858,55.5709415 150.882375,54.965554 151.141365,54.4777601 L153.955018,49.1783868 C154.214007,48.6905929 154.819395,48.5051104 155.307189,48.7641 C155.794983,49.0230896 155.980465,49.6284772 155.721476,50.1162711 L152.907823,55.4156444 Z M160.410897,41.2839822 C160.151907,41.771776 159.54652,41.9572585 159.058726,41.6982689 C158.570932,41.4392793 158.38545,40.8338917 158.644439,40.3460979 L161.458092,35.0467246 C161.717082,34.5589307 162.322469,34.3734482 162.810263,34.6324378 C163.298057,34.8914274 163.483539,35.496815 163.22455,35.9846088 L160.410897,41.2839822 Z M167.913971,27.15232 C167.654982,27.6401138 167.049594,27.8255963 166.5618,27.5666067 C166.074006,27.3076171 165.888524,26.7022295 166.147513,26.2144357 L168.961166,20.9150623 C169.220156,20.4272685 169.825543,20.241786 170.313337,20.5007756 C170.801131,20.7597652 170.986614,21.3651528 170.727624,21.8529466 L167.913971,27.15232 Z"/>
    </g>
    <g transform="translate(195 234.13)">
      <path fill="#FFC111" fill-rule="nonzero" d="M199.339499,26.6552901 C197.730033,26.8164503 196.126023,27.0071696 194.528038,27.2272625 C193.980918,27.3026181 193.476302,26.9201777 193.400947,26.373058 C193.325591,25.8259382 193.708031,25.3213223 194.255151,25.2459667 C195.913377,25.0175768 197.577967,24.8203427 199.2483,24.6544651 L199.010791,19.4437459 C199.004888,19.3142328 199.02922,19.1851239 199.08186,19.0666438 C199.269127,18.6451507 199.762624,18.4552727 200.184117,18.6425394 L212.78162,24.2395297 C212.946749,24.3128957 213.083629,24.4378411 213.171713,24.5956117 C213.396547,24.9983209 213.252351,25.5070456 212.849642,25.73188 L200.813548,32.451688 C200.700348,32.5148881 200.573988,32.5508643 200.444475,32.5567676 C199.983732,32.5777687 199.593201,32.2212873 199.5722,31.7605442 L199.339499,26.6552901 Z M184.329282,27.0011156 C184.869058,26.8842405 185.401379,27.2270699 185.518254,27.7668464 C185.635129,28.3066229 185.2923,28.8389441 184.752523,28.9558192 C182.811676,29.3760609 180.882784,29.8403739 178.967016,30.3482748 C178.433173,30.489805 177.885676,30.1717731 177.744146,29.6379308 C177.602615,29.1040884 177.920647,28.5565908 178.45449,28.4150606 C180.399833,27.8993188 182.358494,27.42784 184.329282,27.0011156 Z M168.804468,31.3742742 C169.325879,31.192206 169.896162,31.4672978 170.07823,31.9887089 C170.260298,32.5101201 169.985207,33.0804028 169.463795,33.2624711 C167.58821,33.9173948 165.72883,34.6150865 163.88691,35.3549018 C163.37442,35.5607459 162.792094,35.3121598 162.58625,34.7996692 C162.380406,34.2871786 162.628992,33.7048532 163.141483,33.4990091 C165.011832,32.747775 166.899919,32.0393115 168.804468,31.3742742 Z M153.954296,37.6032492 C154.449587,37.358903 155.049181,37.562334 155.293528,38.0576252 C155.537874,38.5529164 155.334443,39.152511 154.839152,39.3968573 C153.059758,40.2747007 151.300901,41.193074 149.563873,42.1511665 C149.080273,42.4179055 148.472003,42.2421051 148.205264,41.7585053 C147.938525,41.2749056 148.114325,40.6666358 148.597925,40.3998968 C150.361642,39.4270841 152.147536,38.4945936 153.954296,37.6032492 Z M139.939001,45.616656 C140.400851,45.3138154 141.020756,45.4427184 141.323597,45.9045689 C141.626437,46.3664195 141.497534,46.9863243 141.035684,47.289165 C139.37588,48.377517 137.741016,49.5035865 136.132375,50.6663988 C135.684784,50.9899421 135.059655,50.8893811 134.736112,50.4417896 C134.412569,49.9941981 134.51313,49.3690698 134.960721,49.0455265 C136.593947,47.864943 138.253808,46.7216563 139.939001,45.616656 Z M126.999053,55.2745726 C127.420794,54.9179873 128.051752,54.9708064 128.408337,55.3925473 C128.764922,55.8142882 128.712103,56.4452462 128.290362,56.8018315 C126.774363,58.0836207 125.287567,59.3997224 123.831197,60.7490189 C123.426064,61.1243663 122.79336,61.1002203 122.418012,60.6950873 C122.042665,60.2899543 122.066811,59.6572499 122.471944,59.2819025 C123.9505,57.9120503 125.45995,56.5758959 126.999053,55.2745726 Z M115.376156,66.3703168 C115.751924,65.9655743 116.384654,65.9420862 116.789396,66.3178546 C117.194139,66.6936231 117.217627,67.3263523 116.841858,67.7310948 C115.490751,69.1863802 114.172821,70.6721408 112.889188,72.187152 C112.532168,72.6085252 111.901156,72.660694 111.479783,72.3036743 C111.05841,71.9466546 111.006241,71.3156425 111.36326,70.8942693 C112.666456,69.3561703 114.004466,67.8477722 115.376156,66.3703168 Z M105.137653,78.8334314 C105.461725,78.3862227 106.086972,78.2864007 106.534181,78.6104729 C106.981389,78.9345451 107.081211,79.5597918 106.757139,80.0070005 C105.592113,81.6146972 104.463818,83.2486733 103.37323,84.9076437 C103.069848,85.369139 102.449792,85.4973154 101.988297,85.1939336 C101.526802,84.8905518 101.398625,84.2704964 101.702007,83.8090011 C102.809277,82.1246551 103.954823,80.4656974 105.137653,78.8334314 Z M96.4835218,92.4465466 C96.750893,91.9632961 97.3593921,91.7882913 97.8426426,92.0556625 C98.3258932,92.3230337 98.500898,92.9315329 98.2335268,93.4147834 C97.2728333,95.1511546 96.3518573,96.9094163 95.4714121,98.6882749 C95.2264248,99.1832493 94.6265673,99.3859038 94.1315929,99.1409165 C93.6366185,98.8959292 93.4339639,98.2960717 93.6789512,97.8010973 C94.5729366,95.994882 95.508069,94.2095939 96.4835218,92.4465466 Z M89.5438117,107.030085 C89.7501233,106.517782 90.3326752,106.269727 90.8449778,106.476039 C91.3572804,106.68235 91.6053352,107.264902 91.3990236,107.777205 C90.657874,109.617591 89.9587937,111.475453 89.3024277,113.349538 C89.1198722,113.870779 88.5493325,114.145338 88.0280918,113.962782 C87.506851,113.780227 87.2322925,113.209687 87.414848,112.688446 C88.0813497,110.785421 88.7912229,108.898875 89.5438117,107.030085 Z M84.4420193,122.352967 C84.5839759,121.819238 85.1317273,121.501643 85.6654565,121.6436 C86.1991856,121.785556 86.51678,122.333308 86.3748235,122.867037 C85.8650353,124.783742 85.3988884,126.713617 84.9768682,128.65549 C84.85958,129.195177 84.3269965,129.537599 83.7873096,129.420311 C83.2476228,129.303022 82.905201,128.770439 83.0224892,128.230752 C83.4510196,126.258923 83.9243608,124.299263 84.4420193,122.352967 Z M81.2555066,138.186022 C81.3311504,137.638942 81.8359678,137.256767 82.3830477,137.332411 C82.9301277,137.408055 83.3123021,137.912872 83.2366582,138.459952 C82.9652246,140.423045 82.7381253,142.395248 82.5557051,144.375506 C82.5050435,144.925462 82.0181465,145.330221 81.4681903,145.279559 C80.9182341,145.228897 80.5134759,144.742 80.5641375,144.192044 C80.7493435,142.181544 80.9799162,140.179177 81.2555066,138.186022 Z M80.0209136,154.122008 C80.0306333,153.569809 80.4861586,153.130042 81.0383578,153.139762 C81.590557,153.149482 82.0303235,153.605007 82.0206038,154.157206 C82.0069152,154.934885 82.0000425,155.713423 82.0000002,156.492764 C81.9999702,157.045049 81.5522307,157.492739 80.9999459,157.49271 C80.4476612,157.49268 79.9999702,157.04494 80.0000002,156.492655 C80.0000431,155.701617 80.0070191,154.911382 80.0209136,154.122008 Z"/>
      <g transform="translate(0 69)">
        <circle cx="43.5" cy="56.37" r="43.5" fill="#FFC111" fill-opacity=".2"/>
        <circle cx="55.5" cy="44.37" r="42.5" stroke="#FFC111" stroke-width="2"/>
      </g>
    </g>
  </g>
</svg>
