<svg xmlns="http://www.w3.org/2000/svg" width="1800" height="730" viewBox="0 0 1800 730">
  <g fill="none" fill-rule="evenodd">
    <g transform="rotate(99 425.87 847.546)">
      <rect width="15.238" height="15.238" x=".889" y="4.573" fill="#01B2D0" opacity=".1" rx="2"/>
      <rect width="13.238" height="13.238" x="5.698" y="1.763" stroke="#01B2D0" stroke-width="2" rx="2"/>
    </g>
    <g transform="rotate(124 488.066 554.334)">
      <rect width="15.238" height="15.238" x=".889" y="4.573" fill="#01B2D0" opacity=".1" rx="2"/>
      <rect width="13.238" height="13.238" x="5.698" y="1.763" stroke="#01B2D0" stroke-width="2" rx="2"/>
    </g>
    <g transform="rotate(-49 987.242 -610.43)">
      <rect width="19.81" height="19.81" x="1.155" y="5.945" fill="#01B2D0" opacity=".1" rx="2"/>
      <rect width="17.81" height="17.81" x="7.108" y="1.992" stroke="#01B2D0" stroke-width="2" rx="2"/>
    </g>
    <g transform="rotate(57 337.14 684.898)">
      <rect width="19.048" height="19.048" x="1.111" y="5.716" fill="#01B2D0" opacity=".1" rx="2"/>
      <rect width="17.048" height="17.048" x="6.873" y="1.954" stroke="#01B2D0" stroke-width="2" rx="2"/>
    </g>
    <g transform="rotate(169 92.665 336.315)">
      <rect width="16.762" height="16.762" x=".978" y="5.03" fill="#01B2D0" opacity=".1" rx="2"/>
      <rect width="14.762" height="14.762" x="6.168" y="1.84" stroke="#01B2D0" stroke-width="2" rx="2"/>
    </g>
    <g transform="rotate(113 -56.75 182.574)">
      <rect width="13.714" height="13.714" x=".8" y="4.116" fill="#01B2D0" opacity=".1" rx="2"/>
      <rect width="11.714" height="11.714" x="5.228" y="1.687" stroke="#01B2D0" stroke-width="2" rx="2"/>
    </g>
    <g transform="rotate(-177 819.236 308.467)">
      <path fill="#6FD350" d="M12.5540395,6.48753246 L19.977937,20.0390914 C20.5086322,21.0078207 20.1535354,22.2233444 19.1848061,22.7540395 C18.8902375,22.9154119 18.559772,23 18.2238975,23 L3.3761025,23 C2.271533,23 1.3761025,22.1045695 1.3761025,21 C1.3761025,20.6641255 1.46069063,20.33366 1.62206298,20.0390914 L9.04596048,6.48753246 C9.57665565,5.51880318 10.7921793,5.16370638 11.7609086,5.69440155 C12.0955262,5.87771377 12.3707273,6.15291492 12.5540395,6.48753246 Z" opacity=".2"/>
      <path stroke="#6FD350" stroke-width="2" d="M17.0770198,3.68227248 C16.9853637,3.51496371 16.8477631,3.37736313 16.6804543,3.28570702 C16.1960897,3.02035944 15.5883278,3.19790784 15.3229802,3.68227248 L7.89908274,17.2338314 C7.81839656,17.3811157 7.7761025,17.5463485 7.7761025,17.7142857 C7.7761025,18.2665705 8.22381775,18.7142857 8.7761025,18.7142857 L23.6238975,18.7142857 C23.7918348,18.7142857 23.9570675,18.6719917 24.1043518,18.5913055 C24.5887164,18.3259579 24.7662648,17.718196 24.5009173,17.2338314 L17.0770198,3.68227248 Z"/>
    </g>
    <g transform="rotate(27 -106.095 3159.351)">
      <path fill="#6FD350" d="M10.1327104,5.43429362 L15.0712474,14.0011434 C15.6229006,14.9580929 15.2943431,16.1810572 14.3373935,16.7327104 C14.0336271,16.9078228 13.6891626,17 13.3385369,17 L3.46146308,17 C2.35689358,17 1.46146308,16.1045695 1.46146308,15 C1.46146308,14.6493743 1.55364023,14.3049098 1.72875263,14.0011434 L6.66728956,5.43429362 C7.21894283,4.47734407 8.44190705,4.14878652 9.39885661,4.70043979 C9.70378647,4.87622289 9.95692734,5.12936376 10.1327104,5.43429362 Z" opacity=".2"/>
      <path stroke="#6FD350" stroke-width="2" d="M13.4663552,3.5051505 C13.3784637,3.35268557 13.2518932,3.22611513 13.0994283,3.13822358 C12.6209535,2.86239695 12.0094714,3.02667572 11.7336448,3.5051505 L6.79510785,12.0720003 C6.70755165,12.2238835 6.66146308,12.3961157 6.66146308,12.5714286 C6.66146308,13.1237133 7.10917833,13.5714286 7.66146308,13.5714286 L17.5385369,13.5714286 C17.7138498,13.5714286 17.886082,13.52534 18.0379652,13.4377838 C18.51644,13.1619572 18.6807188,12.550475 18.4048921,12.0720003 L13.4663552,3.5051505 Z"/>
    </g>
    <g transform="rotate(130 692.485 510.216)">
      <path fill="#6FD350" d="M11.345012,5.97323577 L17.5327642,17.0227933 C18.0724606,17.9865368 17.7287025,19.2053157 16.7649589,19.745012 C16.4664002,19.9122049 16.1299375,20 15.7877522,20 L3.41224781,20 C2.30767831,20 1.41224781,19.1045695 1.41224781,18 C1.41224781,17.6578147 1.50004286,17.321352 1.66723577,17.0227933 L7.85498797,5.97323577 C8.39468435,5.00949224 9.6134632,4.6657341 10.5772067,5.20543048 C10.8990502,5.38566284 11.1647797,5.65139227 11.345012,5.97323577 Z" opacity=".2"/>
      <path stroke="#6FD350" stroke-width="2" d="M15.272506,3.60469628 C15.1823898,3.44377453 15.0495251,3.31090982 14.8886034,3.22079364 C14.4067316,2.95094545 13.7973422,3.12282452 13.527494,3.60469628 L7.33974179,14.6542538 C7.25614533,14.8035332 7.21224781,14.9717645 7.21224781,15.1428571 C7.21224781,15.6951419 7.65996306,16.1428571 8.21224781,16.1428571 L20.5877522,16.1428571 C20.7588449,16.1428571 20.9270762,16.0989596 21.0763556,16.0153632 C21.5582273,15.745515 21.7301064,15.1361255 21.4602582,14.6542538 L15.272506,3.60469628 Z"/>
    </g>
    <g transform="rotate(-142 902.399 -216.25)">
      <path fill="#6FD350" d="M13.745012,6.68752149 L22.3327642,22.0227933 C22.8724606,22.9865368 22.5287025,24.2053157 21.5649589,24.745012 C21.2664002,24.9122049 20.9299375,25 20.5877522,25 L3.41224781,25 C2.30767831,25 1.41224781,24.1045695 1.41224781,23 C1.41224781,22.6578147 1.50004286,22.321352 1.66723577,22.0227933 L10.254988,6.68752149 C10.7946843,5.72377795 12.0134632,5.38001981 12.9772067,5.91971619 C13.2990502,6.09994855 13.5647797,6.36567799 13.745012,6.68752149 Z" opacity=".2"/>
      <path stroke="#6FD350" stroke-width="2" d="M18.872506,3.60469628 C18.7823898,3.44377453 18.6495251,3.31090982 18.4886034,3.22079364 C18.0067316,2.95094545 17.3973422,3.12282452 17.127494,3.60469628 L8.53974179,18.9399681 C8.45614533,19.0892474 8.41224781,19.2574788 8.41224781,19.4285714 C8.41224781,19.9808562 8.85996306,20.4285714 9.41224781,20.4285714 L26.5877522,20.4285714 C26.7588449,20.4285714 26.9270762,20.3846739 27.0763556,20.3010774 C27.5582273,20.0312293 27.7301064,19.4218398 27.4602582,18.9399681 L18.872506,3.60469628 Z"/>
    </g>
    <g transform="rotate(161 633.194 118.232)">
      <path fill="#6FD350" d="M9.34934502,5.4424271 L13.5544416,13.0305713 C14.0898423,13.9967079 13.7406619,15.2139443 12.7745253,15.749345 C12.4778634,15.9137451 12.1442656,16 11.8050966,16 L3.39490342,16 C2.29033392,16 1.39490342,15.1045695 1.39490342,14 C1.39490342,13.6608309 1.4811583,13.3272332 1.6455584,13.0305713 L5.85065498,5.4424271 C6.38605567,4.47629053 7.60329212,4.1271101 8.5694287,4.66251078 C8.89736412,4.84424166 9.16761414,5.11449168 9.34934502,5.4424271 Z" opacity=".2"/>
      <path stroke="#6FD350" stroke-width="2" d="M12.2746725,3.64142717 C12.1838071,3.47745946 12.0486821,3.34233445 11.8847143,3.25146901 C11.4016461,2.98376866 10.7930278,3.15835888 10.5253275,3.64142717 L6.32023091,11.2295714 C6.23803086,11.3779023 6.19490342,11.5447012 6.19490342,11.7142857 C6.19490342,12.2665705 6.64261867,12.7142857 7.19490342,12.7142857 L15.6050966,12.7142857 C15.7746811,12.7142857 15.94148,12.6711583 16.0898109,12.5889582 C16.5728792,12.3212579 16.7474694,11.7126397 16.4797691,11.2295714 L12.2746725,3.64142717 Z"/>
    </g>
    <g transform="rotate(-72 811.427 -165.974)">
      <path fill="#6FD350" d="M12.1513102,6.31830962 L19.1642755,19.0341259 C19.697713,20.0013478 19.3460613,21.2178726 18.3788394,21.7513102 C18.083049,21.9144431 17.7507587,22 17.4129654,22 L3.38703465,22 C2.28246515,22 1.38703465,21.1045695 1.38703465,20 C1.38703465,19.6622066 1.47259157,19.3299164 1.6357245,19.0341259 L8.64868985,6.31830962 C9.18212737,5.35108773 10.3986522,4.99943602 11.3658741,5.53287355 C11.6965962,5.7152718 11.9689119,5.98758752 12.1513102,6.31830962 Z" opacity=".2"/>
      <path stroke="#6FD350" stroke-width="2" d="M16.4756551,3.65838952 C16.384456,3.49302847 16.2482981,3.35687061 16.082937,3.26567148 C15.5993261,2.99895272 14.9910637,3.17477857 14.7243449,3.65838952 L7.71137957,16.3742058 C7.62981311,16.522101 7.58703465,16.6882462 7.58703465,16.8571429 C7.58703465,17.4094276 8.0347499,17.8571429 8.58703465,17.8571429 L22.6129654,17.8571429 C22.781862,17.8571429 22.9480072,17.8143644 23.0959024,17.7327979 C23.5795133,17.4660792 23.7553392,16.8578168 23.4886204,16.3742058 L16.4756551,3.65838952 Z"/>
    </g>
    <g transform="rotate(-119 334.913 17.163)">
      <path fill="#6FD350" d="M9.34934502,5.4424271 L13.5544416,13.0305713 C14.0898423,13.9967079 13.7406619,15.2139443 12.7745253,15.749345 C12.4778634,15.9137451 12.1442656,16 11.8050966,16 L3.39490342,16 C2.29033392,16 1.39490342,15.1045695 1.39490342,14 C1.39490342,13.6608309 1.4811583,13.3272332 1.6455584,13.0305713 L5.85065498,5.4424271 C6.38605567,4.47629053 7.60329212,4.1271101 8.5694287,4.66251078 C8.89736412,4.84424166 9.16761414,5.11449168 9.34934502,5.4424271 Z" opacity=".2"/>
      <path stroke="#6FD350" stroke-width="2" d="M12.2746725,3.64142717 C12.1838071,3.47745946 12.0486821,3.34233445 11.8847143,3.25146901 C11.4016461,2.98376866 10.7930278,3.15835888 10.5253275,3.64142717 L6.32023091,11.2295714 C6.23803086,11.3779023 6.19490342,11.5447012 6.19490342,11.7142857 C6.19490342,12.2665705 6.64261867,12.7142857 7.19490342,12.7142857 L15.6050966,12.7142857 C15.7746811,12.7142857 15.94148,12.6711583 16.0898109,12.5889582 C16.5728792,12.3212579 16.7474694,11.7126397 16.4797691,11.2295714 L12.2746725,3.64142717 Z"/>
    </g>
    <g transform="rotate(151 34.284 93.067)">
      <path fill="#6FD350" d="M12.9389623,6.34664285 L20.7025081,20.0120678 C21.248128,20.9724702 20.9118803,22.1933424 19.951478,22.7389623 C19.6503258,22.9100516 19.3099042,23 18.9635458,23 L3.43645424,23 C2.33188474,23 1.43645424,22.1045695 1.43645424,21 C1.43645424,20.6536416 1.5264026,20.3132199 1.69749192,20.0120678 L9.46103768,6.34664285 C10.0066576,5.38624049 11.2275298,5.04999286 12.1879322,5.59561275 C12.5013885,5.77369229 12.7608828,6.03318653 12.9389623,6.34664285 Z" opacity=".2"/>
      <path stroke="#6FD350" stroke-width="2" d="M17.6694812,3.55489468 C17.5804414,3.39816651 17.4506943,3.26841939 17.2939661,3.17937962 C16.8137649,2.90656968 16.2033288,3.07469349 15.9305188,3.55489468 L8.16697308,17.2203196 C8.08142842,17.3708957 8.03645424,17.5411065 8.03645424,17.7142857 C8.03645424,18.2665705 8.48416949,18.7142857 9.03645424,18.7142857 L24.5635458,18.7142857 C24.736725,18.7142857 24.9069358,18.6693115 25.0575119,18.5837669 C25.537713,18.3109569 25.7058369,17.7005208 25.4330269,17.2203196 L17.6694812,3.55489468 Z"/>
    </g>
    <g transform="rotate(76 400.961 776.553)">
      <circle cx="11.62" cy="7.853" r="6.619" stroke="#FFC111" stroke-width="2"/>
      <circle cx="7.81" cy="11.663" r="7.619" fill="#FFC111" opacity=".2"/>
    </g>
    <g transform="rotate(155 165.666 297.55)">
      <circle cx="14.525" cy="9.816" r="8.524" stroke="#FFC111" stroke-width="2"/>
      <circle cx="9.763" cy="14.578" r="9.524" fill="#FFC111" opacity=".2"/>
    </g>
  </g>
</svg>
