<svg xmlns="http://www.w3.org/2000/svg" width="255" height="255" viewBox="0 0 255 255">
  <g fill="none" fill-rule="evenodd" stroke-width="30" transform="translate(-17.376 -17.376)">
    <circle cx="144.876" cy="144.876" r="112.403" stroke="#F15242" stroke-linecap="round"/>
    <path stroke="#6FD350" stroke-dasharray="670 706.5" d="M144.875536,257.27897 C206.954239,257.27897 257.27897,206.954239 257.27897,144.875536 C257.27897,82.7968343 206.954239,32.472103 144.875536,32.472103 C82.7968343,32.472103 32.472103,82.7968343 32.472103,144.875536 C32.472103,206.954239 82.7968343,257.27897 144.875536,257.27897 Z" transform="rotate(160 144.876 144.876)"/>
    <path stroke="#FFC111" stroke-dasharray="21.2 706.5" d="M144.875536,257.27897 C206.954239,257.27897 257.27897,206.954239 257.27897,144.875536 C257.27897,82.7968343 206.954239,32.472103 144.875536,32.472103 C82.7968343,32.472103 32.472103,82.7968343 32.472103,144.875536 C32.472103,206.954239 82.7968343,257.27897 144.875536,257.27897 Z" transform="rotate(170.5 144.876 144.876)"/>
  </g>
</svg>
