<svg width="30" height="31" viewBox="0 0 30 31" xmlns="http://www.w3.org/2000/svg"><g fill="none" fill-rule="evenodd"><path d="M27.55 1.104L1.553 13.416c-.584.276-.736 1-.308 1.467l5.964 6.518c-.001.02-.006.04-.006.06v5.114c0 .849 1.089 1.269 1.715.661l.127-.124a55.648 55.648 0 0 0 1.326-1.347c.073-.076.143-.152.212-.225l.207-.226 3.455 3.775c.475.52 1.357.401 1.662-.221L28.903 2.35c.399-.813-.507-1.647-1.353-1.246h0z" stroke="#FFC111" stroke-width="2"/><path d="M8.571 21.669a.954.954 0 0 1 .08-1.39l10.682-9.217c.422-.364.464-.324.098.087L9.989 21.725a.897.897 0 0 1-1.35.016l-.068-.072z" fill="#FFC111"/></g></svg>