<svg xmlns="http://www.w3.org/2000/svg" width="100" height="100" viewBox="0 0 100 100"><path fill="#43AE7A" fill-rule="evenodd" d="M56.28 58.362H27.41a2.4 2.4 0 01-2.41-2.39 2.4 2.4 0 012.41-2.39h28.87a2.4 2.4 0 012.41 2.39 2.4 2.4 0 01-2.41 2.39M50.09 73a23.49 23.49 0 01-6.903-1.032 2.386 2.386 0 01-1.589-2.99 2.415 2.415 0 013.015-1.575c1.767.542 3.61.818 5.477.818 8.177 0 15.276-5.204 17.667-12.948a2.41 2.41 0 013.01-1.585 2.386 2.386 0 011.598 2.984C69.351 66.44 60.4 73 50.09 73m22.456-26.883H43.675a2.4 2.4 0 01-2.41-2.39 2.4 2.4 0 012.41-2.39h28.87a2.4 2.4 0 012.41 2.39 2.4 2.4 0 01-2.41 2.39m-42.724.301c-.234 0-.471-.034-.706-.105a2.386 2.386 0 01-1.6-2.985C30.532 33.561 39.483 27 49.79 27c2.354 0 4.677.347 6.904 1.032a2.386 2.386 0 011.588 2.99 2.41 2.41 0 01-3.015 1.575 18.626 18.626 0 00-5.477-.818c-8.175 0-15.275 5.204-17.666 12.948a2.409 2.409 0 01-2.303 1.691m36.745-11.652a2.4 2.4 0 01-2.41 2.39 2.4 2.4 0 01-2.409-2.39 2.4 2.4 0 012.41-2.39 2.4 2.4 0 012.409 2.39M38.252 65.234a2.4 2.4 0 01-2.41 2.389 2.4 2.4 0 01-2.408-2.39 2.4 2.4 0 012.409-2.389 2.4 2.4 0 012.41 2.39"/></svg>