<svg xmlns="http://www.w3.org/2000/svg" width="100" height="100" viewBox="0 0 100 100"><path fill="#FC0" d="M72.992 45.766V28H28v24.067h30.926v3.151H28v17.766h44.992V48.917H42.066v-3.151h30.926zM50.484 68.37a2.217 2.217 0 0 1-2.214-2.214c0-1.22.994-2.214 2.214-2.214s2.213.994 2.213 2.214a2.207 2.207 0 0 1-2.213 2.214zm9.977-6.851H40.506l.954-3.151h18.097l.904 3.15zM50.484 32.62c1.22 0 2.213.994 2.213 2.214s-.993 2.213-2.213 2.213a2.217 2.217 0 0 1-2.214-2.213c0-1.228.994-2.214 2.214-2.214zm-9.016 9.994l-.954-3.15H60.47l-.896 3.15H41.468z"/></svg>