<svg xmlns="http://www.w3.org/2000/svg" xmlns:xlink="http://www.w3.org/1999/xlink" width="194" height="22" viewBox="0 0 194 22">
  <defs>
    <polygon id="capterra-a" points="80.5 11.25 76.092 13.568 76.934 8.659 73.367 5.182 78.296 4.466 80.5 0 82.704 4.466 87.633 5.182 84.066 8.659 84.908 13.568"/>
  </defs>
  <g fill="none" fill-rule="evenodd">
    <g transform="translate(106 4)">
      <polygon fill="#FFC111" points="7.5 11.25 3.092 13.568 3.934 8.659 .367 5.182 5.296 4.466 7.5 0 9.704 4.466 14.633 5.182 11.066 8.659 11.908 13.568"/>
      <polygon fill="#FFC111" points="25.5 11.25 21.092 13.568 21.934 8.659 18.367 5.182 23.296 4.466 25.5 0 27.704 4.466 32.633 5.182 29.066 8.659 29.908 13.568"/>
      <polygon fill="#FFC111" points="44.5 11.25 40.092 13.568 40.934 8.659 37.367 5.182 42.296 4.466 44.5 0 46.704 4.466 51.633 5.182 48.066 8.659 48.908 13.568"/>
      <polygon fill="#FFC111" points="62.5 11.25 58.092 13.568 58.934 8.659 55.367 5.182 60.296 4.466 62.5 0 64.704 4.466 69.633 5.182 66.066 8.659 66.908 13.568"/>
      <mask id="capterra-b" fill="#fff">
        <use xlink:href="#capterra-a"/>
      </mask>
      <use fill="#F1F1F1" xlink:href="#capterra-a"/>
      <rect width="7" height="14" x="73.5" fill="#FFC111" mask="url(#capterra-b)"/>
    </g>
    <g fill-rule="nonzero">
      <polygon fill="#FF9D28" points="0 7.697 8.893 7.699 14.3 7.7 14.3 2.2"/>
      <polygon fill="#68C5ED" points="14.3 2.466 14.3 20.9 20.9 0"/>
      <polygon fill="#044D80" points="14.3 7.701 8.8 7.7 14.3 20.9"/>
      <polygon fill="#E54747" points="0 7.7 9.9 11 8.565 7.702"/>
      <path fill="#044D80" d="M9.72822235,12.9545999 C9.65033594,13.0346889 9.52056881,13.1345986 9.33911698,13.2545978 C9.15733845,13.3747313 8.92080421,13.4947305 8.62899151,13.614864 C8.33717882,13.7347288 7.98028654,13.8379307 7.55896808,13.9249402 C7.13725757,14.0114121 6.65432259,14.0548833 6.10957507,14.0548833 C5.05889256,14.0548833 4.15091468,13.8814018 3.38577213,13.5348422 C2.62030287,13.1882825 1.98806382,12.7044561 1.48885894,12.0844381 C0.989458042,11.4642186 0.623156663,10.7308531 0.38969344,9.88373711 C0.156230217,9.03688982 0.0395312762,8.10672847 0.0395312762,7.09298428 C0.0395312762,6.07964322 0.165966019,5.14249423 0.418900846,4.28227638 C0.671770331,3.42199134 1.0511399,2.67874915 1.55694421,2.05160915 C2.06281387,1.42493948 2.69511826,0.934730195 3.45392274,0.581182877 C4.21266188,0.228038692 5.10423918,0.0510634667 6.12898133,0.0510634667 C6.63485099,0.0510634667 7.09204163,0.0978940407 7.50061861,0.191084867 C7.90919558,0.28447726 8.26576116,0.394599658 8.57070738,0.521183304 C8.87526156,0.648102894 9.12826173,0.781203851 9.32944652,0.921292441 C9.53036995,1.06131384 9.68274505,1.17828949 9.78670251,1.27134594 C9.90340145,1.37831047 10.0037652,1.50489411 10.088251,1.65143283 C10.1724755,1.79837467 10.2146857,1.95841832 10.2146857,2.13163098 C10.2146857,2.39857197 10.1173931,2.66517702 9.92287305,2.93184925 C9.72835304,3.19879024 9.51429608,3.44550741 9.28076751,3.67206795 C9.12512536,3.5120243 8.95007695,3.34888996 8.75555694,3.18199305 C8.56097158,3.01529771 8.34364757,2.868759 8.10378094,2.7418394 C7.86365294,2.61525576 7.59124651,2.50862718 7.28662699,2.4217521 C6.9817461,2.33514577 6.64131974,2.29167463 6.26528256,2.29167463 C5.60377076,2.29167463 5.04935278,2.42860535 4.60183259,2.7017949 C4.15437775,2.97532039 3.79441445,3.33195839 3.52207336,3.77211203 C3.24973227,4.21226568 3.05514691,4.71577834 2.93838263,5.28251563 C2.82168369,5.84952167 2.76333422,6.42627009 2.76333422,7.01302964 C2.76333422,7.64003526 2.82168369,8.24016537 2.93838263,8.81341997 C3.05508157,9.38694333 3.256005,9.89388261 3.54154496,10.3338347 C3.82662754,10.7739211 4.19965903,11.1274685 4.66018206,11.3940735 C5.12037839,11.6610817 5.69433332,11.7942498 6.3819815,11.7942498 C6.74488515,11.7942498 7.07903878,11.747688 7.38391966,11.6542956 C7.68847384,11.5610376 7.95780925,11.4475558 8.19127247,11.3139845 C8.4247357,11.1809507 8.62905685,11.0409965 8.80410526,10.8941219 C8.97921902,10.7473816 9.12512536,10.6208651 9.24188965,10.5139006 C9.31971072,10.6074274 9.41027328,10.7209092 9.51423074,10.8540774 C9.61873175,10.9886593 9.71614237,11.1289043 9.80604343,11.2742087 C9.89667133,11.4210834 9.9744924,11.5676893 10.0395067,11.7141608 C10.1042595,11.8611699 10.136734,11.994338 10.136734,12.1142028 C10.136734,12.2878186 10.1042595,12.4344245 10.0395067,12.5544236 C9.97442706,12.6744899 9.87073097,12.807994 9.72822235,12.9545999 L9.72822235,12.9545999 Z M19.7543341,11.4202771 C19.7543341,12.4803144 19.9041609,13.2518431 20.2044679,13.7348631 C19.9696325,13.8285915 19.7510017,13.8957802 19.5487715,13.9360263 C19.3463452,13.9763396 19.1344445,13.9963618 18.9126773,13.9963618 C18.4430065,13.9963618 18.0872904,13.9024319 17.8460516,13.7146393 C17.6044861,13.5269811 17.4511962,13.2586291 17.3861166,12.9095834 C17.0988778,13.2185174 16.7205537,13.4800161 16.2508829,13.6947514 C15.7811468,13.9090164 15.2067998,14.0166528 14.5284954,14.0166528 C14.176177,14.0166528 13.8239239,13.9663956 13.4716055,13.8664188 C13.1192218,13.7656356 12.7994431,13.6020981 12.5124657,13.3750001 C12.2252922,13.1474317 11.9905221,12.8431338 11.8078942,12.4619047 C11.6250049,12.0806756 11.5338542,11.615998 11.5338542,11.0677376 C11.5338542,10.3856372 11.6935475,9.83038922 12.0133915,9.40259831 C12.3330394,8.97440427 12.7342329,8.63678069 13.2171678,8.38925725 C13.6997761,8.14200257 14.221785,7.97181341 14.7829984,7.8779507 C15.3438852,7.78422236 15.8594906,7.72422279 16.3291614,7.69714571 C16.485849,7.68390952 16.6390082,7.67698908 16.7891617,7.67698908 L17.2099574,7.67698908 L17.2099574,7.3106759 C17.2099574,6.79493488 17.0760085,6.42855451 16.8086986,6.21160196 C16.5410621,5.99458223 16.1071328,5.88580361 15.5071069,5.88580361 C14.9459588,5.88580361 14.4468192,5.9798007 14.0098189,6.16752613 C13.5724919,6.3555875 13.1452275,6.57005406 12.7278295,6.8115977 C12.5449401,6.58355901 12.3980537,6.33207143 12.2874314,6.05686622 C12.1764825,5.78206415 12.1210734,5.57733996 12.1210734,5.4430296 C12.1210734,5.25530417 12.2219598,5.07416324 12.4244514,4.89960682 C12.6266163,4.72545352 12.9039887,4.5675599 13.2563071,4.42666505 C13.6086908,4.2857702 14.0129553,4.17195242 14.4698846,4.08453982 C14.9264218,3.99739599 15.4092915,3.95372328 15.9182321,3.95372328 C16.6228036,3.95372328 17.2197586,4.02763093 17.7090316,4.17511029 C18.19837,4.32292559 18.5962964,4.55089709 18.9030068,4.85936074 C19.2094559,5.16822753 19.4280867,5.5537567 19.558638,6.01662015 C19.6889278,6.47955079 19.7543995,7.0198157 19.7543995,7.63674301 L19.7543995,11.4202771 L19.7543341,11.4202771 Z M17.248966,9.08573606 L16.9750567,9.08573606 C16.883514,9.08573606 16.792102,9.09272369 16.7010167,9.10595988 C16.3746387,9.13296977 16.0516584,9.17314865 15.7322064,9.22656373 C15.4122971,9.28038193 15.128456,9.37431184 14.8808138,9.50842063 C14.6327796,9.64266379 14.4306147,9.81722022 14.2740578,10.0316196 C14.1174355,10.2464221 14.039157,10.5216273 14.039157,10.8568993 C14.039157,11.2326189 14.1434412,11.5510937 14.3522709,11.8127939 C14.5608392,12.0744942 14.9131576,12.2053107 15.4092261,12.2053107 C15.6569337,12.2053107 15.8918997,12.1719851 16.1138629,12.1045276 C16.3355648,12.0377419 16.531261,11.9504637 16.7010167,11.8430961 C16.8704458,11.7357284 17.0043948,11.6184168 17.1022755,11.4907582 C17.2000909,11.3634354 17.2490313,11.2461238 17.2490313,11.138689 L17.2490313,9.08573606 L17.248966,9.08573606 Z M24.627593,5.12092663 C24.8355733,4.866214 25.1609712,4.60773879 25.6031334,4.34603852 C26.045361,4.08440545 26.6046796,3.95358891 27.2811544,3.95358891 C27.7625866,3.95358891 28.2210187,4.03750768 28.6569082,4.20514367 C29.0923403,4.37304841 29.4794854,4.64482699 29.8176902,5.02027785 C30.1559603,5.39606465 30.4258185,5.89258968 30.6275913,6.50958417 C30.8291682,7.1269146 30.9300546,7.8851399 30.9300546,8.78378972 C30.9300546,9.83032203 30.8128329,10.6926227 30.5787816,11.3700199 C30.344469,12.0478203 30.0422671,12.5845242 29.6717185,12.9801988 C29.300974,13.3760079 28.8877578,13.6544382 28.4327234,13.8153553 C27.9773623,13.9763396 27.5220012,14.0569661 27.0669015,14.0569661 C26.6896228,14.0569661 26.3610231,14.0132934 26.0816252,13.9261496 C25.8017699,13.838737 25.5644516,13.7417836 25.3693435,13.6342815 C25.1742354,13.5270483 25.0247353,13.4198822 24.9207779,13.3122458 C24.8167551,13.2050125 24.7516101,13.1310376 24.7256698,13.0907244 L24.7256698,18.0381696 L22.0637447,18.0381696 L22.0637447,4.23531143 C22.1292164,4.22214243 22.2081482,4.20863748 22.3004097,4.19513254 C22.3794069,4.18196354 22.4714069,4.17181804 22.5766059,4.16489759 C22.6817395,4.15831309 22.8066714,4.15488647 22.9512055,4.15488647 C23.3848734,4.15488647 23.7530697,4.22879412 24.0554676,4.37627347 C24.3578002,4.52408877 24.5487265,4.77214972 24.627593,5.12092663 L24.627593,5.12092663 Z M28.1507118,8.84412524 C28.1507118,8.44166449 28.1182374,8.06621364 28.0534192,7.71716797 C27.9886009,7.36845824 27.8815724,7.0665119 27.7323337,6.81153051 C27.583095,6.55675069 27.3817795,6.35867819 27.12891,6.21771614 C26.8756485,6.07688848 26.5677619,6.00654183 26.2046622,6.00654183 C25.659784,6.00654183 25.2802838,6.11404387 25.0660962,6.32844324 C24.8521045,6.54324574 24.7450761,6.77820488 24.7450761,7.03291751 L24.7450761,11.2996733 C24.8487068,11.4071753 25.0333603,11.5344309 25.2994287,11.6820446 C25.5655624,11.8297927 25.873449,11.9032972 26.2239378,11.9032972 C26.885711,11.9032972 27.3722397,11.635214 27.6836547,11.0983757 C27.9950697,10.5618062 28.1507118,9.81023259 28.1507118,8.84412524 L28.1507118,8.84412524 Z M32.9845048,12.3059595 C32.8930275,12.0377419 32.8343513,11.7558179 32.8083456,11.4605904 C32.7820785,11.1655645 32.7692064,10.8704714 32.7692064,10.574908 L32.7692064,1.23654216 C32.860357,1.22337316 32.9582377,1.20986822 33.0627833,1.19629608 C33.1538032,1.18312708 33.2517493,1.17311596 33.3562948,1.16612833 C33.4606443,1.15954383 33.5649285,1.1561172 33.6694087,1.1561172 C33.8780423,1.1561172 34.0870027,1.17627383 34.2958324,1.21645272 C34.5043354,1.25676598 34.6936281,1.33725813 34.8635146,1.45792916 C35.0329437,1.57866739 35.1698983,1.74321269 35.2744438,1.95102756 C35.3787933,2.15917837 35.4310007,2.43095696 35.4310007,2.76609455 L35.4310007,4.19499816 L38.1712696,4.19499816 L38.1712696,6.22786165 L35.4310007,6.22786165 L35.4310007,10.5196788 C35.4310007,11.4556184 35.8028561,11.9234538 36.5466975,11.9234538 C36.7293255,11.9234538 36.9020216,11.8934205 37.065374,11.8328834 C37.2283997,11.7725479 37.3751554,11.7055607 37.505772,11.6317202 C37.6361272,11.5579469 37.7504085,11.4808142 37.8482893,11.4002549 C37.94617,11.3196955 38.0146473,11.2594272 38.0537212,11.2191811 C38.2494827,11.514543 38.3993095,11.7701963 38.5039204,11.9859394 C38.6082046,12.2019513 38.6604773,12.4046598 38.6604773,12.594065 C38.6604773,12.7703011 38.5921307,12.9431106 38.45498,13.112292 C38.3178294,13.2814733 38.1252696,13.4374856 37.8774967,13.5795899 C37.6295931,13.7216941 37.3296128,13.8367885 36.977229,13.924873 C36.624976,14.0129575 36.2398564,14.0570333 35.8224584,14.0570333 C35.0132107,14.0570333 34.3837813,13.8959146 33.9336475,13.5740132 C33.4835137,13.2518431 33.1669367,12.8291585 32.9845048,12.3059595 L32.9845048,12.3059595 Z M44.9128877,12.0442593 C45.2401152,12.0442593 45.5282035,12.007507 45.7772178,11.9335322 C46.0258402,11.8600276 46.2483914,11.76939 46.4448717,11.6620223 C46.6411559,11.5547891 46.8115651,11.4373431 46.9556419,11.3098188 C47.099588,11.1824289 47.230466,11.0650501 47.3486024,10.9574809 C47.505486,11.1586441 47.6690998,11.4171864 47.8394436,11.7322346 C48.0095915,12.0478203 48.0947961,12.3059595 48.0947961,12.5071227 C48.0947961,12.8024174 47.931509,13.0707693 47.6055884,13.3122458 C47.3315484,13.5270483 46.9430311,13.7115486 46.4410166,13.8656125 C45.9384793,14.0198107 45.3479278,14.0970778 44.6696887,14.0970778 C44.0560718,14.0970778 43.4527134,14.0166528 42.8592216,13.8556014 C42.265403,13.6946842 41.7367947,13.4128274 41.273854,13.0102322 C40.810456,12.6079059 40.4352683,12.0679097 40.1482908,11.3902438 C39.861248,10.7127122 39.7177593,9.85753348 39.7177593,8.82410298 C39.7177593,7.97873386 39.8450434,7.25114664 40.0992851,6.6404679 C40.3538534,6.0300579 40.692973,5.52352175 41.1173625,5.12099382 C41.5410985,4.71846589 42.0206358,4.42350718 42.5557782,4.23537862 C43.0906592,4.04772038 43.6388045,3.9536561 44.1999526,3.9536561 C44.9305951,3.9536561 45.550354,4.07130364 46.0592294,4.30585964 C46.5682354,4.54075158 46.9822357,4.85613568 47.302145,5.25181036 C47.6216622,5.64761941 47.8532306,6.10047174 47.9969153,6.61030014 C48.1402734,7.12033011 48.2122138,7.65683245 48.2122138,8.22034468 L48.2122138,8.5020672 C48.2122138,8.60970361 48.2088814,8.7234542 48.2024126,8.84419243 C48.1957478,8.96506503 48.1893444,9.08264538 48.182941,9.19639597 C48.1761456,9.31068407 48.1663444,9.40112016 48.1536683,9.46817455 L42.379619,9.46817455 C42.4319571,10.206176 42.6545084,10.8199455 43.0472728,11.3098188 C43.4397759,11.7996921 44.0617565,12.0442593 44.9128877,12.0442593 L44.9128877,12.0442593 Z M45.8047917,7.95864441 C45.8047917,7.31464003 45.6832575,6.79137388 45.4405159,6.38884595 C45.1977089,5.9863852 44.761166,5.78502045 44.1316059,5.78502045 C43.5932618,5.78502045 43.1635797,5.97630689 42.8421676,6.35867819 C42.5204287,6.74111668 42.3600167,7.27439396 42.3600167,7.95857722 L45.8047917,7.95857722 L45.8047917,7.95864441 Z M52.8444952,5.17178853 C52.922643,5.05205814 53.0269925,4.91902437 53.1576091,4.77241847 C53.2878989,4.62594695 53.4478536,4.49284599 53.6371463,4.3731156 C53.8261777,4.25331802 54.0350074,4.15327394 54.2635047,4.07345368 C54.4915446,3.99356623 54.7363118,3.9536561 54.997545,3.9536561 C55.1540365,3.9536561 55.3204599,3.96716104 55.4965538,3.99356623 C55.672713,4.02030736 55.8356734,4.0702958 55.9857615,4.14326281 C56.135719,4.21656576 56.2565998,4.31620671 56.3479464,4.44265598 C56.4390971,4.56910525 56.4849664,4.72538633 56.4849664,4.91156642 C56.4849664,5.2043079 56.413026,5.54052051 56.269668,5.92006988 C56.1259179,6.2999552 55.9826252,6.62387227 55.8391364,6.89208985 C55.6170425,6.70429723 55.3952753,6.56004294 55.1735735,6.45939416 C54.9516103,6.35881256 54.6906385,6.30842099 54.3906582,6.30842099 C53.9861324,6.30842099 53.6469475,6.42956234 53.3730382,6.67164349 C53.0988022,6.91379182 52.9618476,7.20310667 52.9618476,7.53952085 L52.9618476,14.0547489 L50.3001186,14.0547489 L50.3001186,4.23531143 C50.3651981,4.22214243 50.4434766,4.20863748 50.5348886,4.19513254 C50.6131671,4.18196354 50.7044484,4.17181804 50.8089285,4.16489759 C50.913278,4.15831309 51.0370992,4.15488647 51.1807839,4.15488647 C51.5982473,4.15488647 51.9603015,4.23813336 52.2670772,4.40429119 C52.573461,4.57024746 52.7662168,4.82623668 52.8444952,5.17178853 L52.8444952,5.17178853 Z M60.4124804,5.17178853 C60.4907588,5.05205814 60.595043,4.91902437 60.7256596,4.77241847 C60.8559494,4.62594695 61.0159041,4.49284599 61.2051968,4.3731156 C61.3942282,4.25331802 61.6029925,4.15327394 61.8314898,4.07345368 C62.0596604,3.99356623 62.304297,3.9536561 62.5654647,3.9536561 C62.7219563,3.9536561 62.8883144,3.96716104 63.0644736,3.99356623 C63.2405675,4.02030736 63.4036585,4.0702958 63.553812,4.14326281 C63.7037695,4.21656576 63.8243889,4.31620671 63.9160622,4.44265598 C64.0071475,4.56910525 64.0530169,4.72538633 64.0530169,4.91156642 C64.0530169,5.2043079 63.9810111,5.54052051 63.8377184,5.92006988 C63.6938377,6.2999552 63.5504796,6.62387227 63.4070562,6.89208985 C63.1851583,6.70429723 62.9631951,6.56004294 62.7415586,6.45939416 C62.5196607,6.35881256 62.258689,6.30842099 61.9587087,6.30842099 C61.5541828,6.30842099 61.2149326,6.42956234 60.940958,6.67164349 C60.666918,6.91379182 60.5299634,7.20310667 60.5299634,7.53952085 L60.5299634,14.0547489 L57.8681037,14.0547489 L57.8681037,4.23531143 C57.9332486,4.22214243 58.0115271,4.20863748 58.1030044,4.19513254 C58.1812829,4.18196354 58.2725642,4.17181804 58.376979,4.16489759 C58.4812632,4.15831309 58.6050843,4.15488647 58.748769,4.15488647 C59.1663631,4.15488647 59.5284173,4.23813336 59.834997,4.40429119 C60.1414461,4.57024746 60.3340712,4.82623668 60.4124804,5.17178853 Z M73.1151536,11.4202771 C73.1151536,12.4803144 73.265111,13.2518431 73.5653527,13.7348631 C73.330452,13.8285915 73.1118212,13.8957802 72.9097216,13.9360263 C72.7072953,13.9763396 72.4953293,13.9963618 72.2736274,13.9963618 C71.8037606,13.9963618 71.4481752,13.9024319 71.2069364,13.7146393 C70.9652402,13.5269811 70.812081,13.2586291 70.7468707,12.9095834 C70.4598279,13.2185174 70.0814385,13.4800161 69.6117024,13.6947514 C69.1420316,13.9090164 68.5676193,14.0166528 67.8893802,14.0166528 C67.5369964,14.0166528 67.1848087,13.9663956 66.8323596,13.8664188 C66.4801065,13.7656356 66.1601319,13.6020981 65.8733505,13.3750001 C65.586177,13.1474317 65.3513416,12.8431338 65.1687136,12.4619047 C64.9858896,12.0806756 64.8948044,11.615998 64.8948044,11.0677376 C64.8948044,10.3856372 65.0543016,9.83038922 65.3743416,9.40259831 C65.6938589,8.97440427 66.095183,8.63678069 66.5780526,8.38925725 C67.0605956,8.14200257 67.5825391,7.97181341 68.1438832,7.8779507 C68.7046393,7.78422236 69.2203101,7.72422279 69.6900462,7.69714571 C69.8466684,7.68390952 69.9998276,7.67698908 70.1501118,7.67698908 L70.5708422,7.67698908 L70.5708422,7.3106759 C70.5708422,6.79493488 70.4368279,6.42855451 70.1695181,6.21160196 C69.9018162,5.99458223 69.4680176,5.88580361 68.8679263,5.88580361 C68.3068436,5.88580361 67.8077694,5.9798007 67.3707037,6.16752613 C66.9333767,6.3555875 66.5061776,6.57005406 66.0886489,6.8115977 C65.9058903,6.58355901 65.7588731,6.33207143 65.6482509,6.05686622 C65.5373673,5.78206415 65.4819582,5.57733996 65.4819582,5.4430296 C65.4819582,5.25530417 65.5828446,5.07416324 65.7853362,4.89960682 C65.9875011,4.72545352 66.2648734,4.5675599 66.6171265,4.42666505 C66.9695103,4.2857702 67.3737748,4.17195242 67.8305733,4.08453982 C68.2872413,3.99739599 68.7701109,3.95372328 69.2789862,3.95372328 C69.9835577,3.95372328 70.580578,4.02763093 71.0699164,4.17511029 C71.5591241,4.32292559 71.9570505,4.55089709 72.2637609,4.85936074 C72.57021,5.16822753 72.7887755,5.5537567 72.9195227,6.01662015 C73.0496819,6.47955079 73.1151536,7.0198157 73.1151536,7.63674301 L73.1151536,11.4202771 L73.1151536,11.4202771 Z M70.6098508,9.08573606 L70.3358761,9.08573606 C70.2443988,9.08573606 70.1529868,9.09272369 70.0619015,9.10595988 C69.7356542,9.13296977 69.4125431,9.17314865 69.0930259,9.22656373 C68.7731166,9.28038193 68.4894062,9.37431184 68.2416333,9.50842063 C67.9936644,9.64266379 67.7914341,9.81722022 67.6348772,10.0316196 C67.4783203,10.2464221 67.3999765,10.5216273 67.3999765,10.8568993 C67.3999765,11.2326189 67.504326,11.5510937 67.7131557,11.8127939 C67.921724,12.0744942 68.2741731,12.2053107 68.7701109,12.2053107 C69.0178838,12.2053107 69.2527845,12.1719851 69.4747477,12.1045276 C69.6965149,12.0377419 69.8921457,11.9504637 70.0619015,11.8430961 C70.2311999,11.7357284 70.3653449,11.6184168 70.463095,11.4907582 C70.5609757,11.3634354 70.6099161,11.2461238 70.6099161,11.138689 L70.6099161,9.08573606 L70.6098508,9.08573606 Z" transform="translate(23.1 3.3)"/>
    </g>
  </g>
</svg>
