<svg xmlns="http://www.w3.org/2000/svg" width="472" height="480" viewBox="0 0 472 480">
  <g fill="none" fill-rule="evenodd" transform="translate(0 1)">
    <path stroke="#E1E1E1" stroke-dasharray="4 6" stroke-linecap="round" stroke-width="2" d="M152,0 L406,0 C410.418278,-8.11624501e-16 414,3.581722 414,8 L414,375 C414,379.418278 410.418278,383 406,383 L152,383 C147.581722,383 144,379.418278 144,375 L144,8 C144,3.581722 147.581722,8.11624501e-16 152,0 Z"/>
    <g transform="translate(202 90)">
      <path fill="#FFF" stroke="#1B2E5B" stroke-width="2" d="M262,1 C263.932997,1 265.682997,1.78350169 266.949747,3.05025253 C268.216498,4.31700338 269,6.06700338 269,8 L269,8 L269,210 C269,211.932997 268.216498,213.682997 266.949747,214.949747 C265.682997,216.216498 263.932997,217 262,217 L262,217 L8,217 C6.06700338,217 4.31700338,216.216498 3.05025253,214.949747 C1.78350169,213.682997 1,211.932997 1,210 L1,210 L1,8 C1,6.06700338 1.78350169,4.31700338 3.05025253,3.05025253 C4.31700338,1.78350169 6.06700338,1 8,1 L8,1 Z"/>
      <rect width="266" height="1" x="2" y="25" fill="#E1E1E1"/>
      <circle cx="14" cy="13" r="4" fill="#F15242"/>
      <circle cx="26" cy="13" r="4" fill="#FFC111"/>
      <circle cx="38" cy="13" r="4" fill="#6FD350"/>
      <g transform="translate(124 150)">
        <rect width="123" height="45" x=".5" y=".5" fill="#FFF" stroke="#E1E1E1" rx="4"/>
        <rect width="48" height="4" x="12" y="15" fill="#F1F1F1" rx="2"/>
        <rect width="96" height="4" x="12" y="27" fill="#F1F1F1" rx="2"/>
      </g>
      <g transform="translate(124 98)">
        <rect width="123" height="45" x=".5" y=".5" fill="#FFF" stroke="#E1E1E1" rx="4"/>
        <rect width="48" height="4" x="12" y="15" fill="#F1F1F1" rx="2"/>
        <rect width="96" height="4" x="12" y="27" fill="#F1F1F1" rx="2"/>
      </g>
      <g transform="translate(124 46)">
        <rect width="123" height="45" x=".5" y=".5" fill="#FFF" stroke="#E1E1E1" rx="4"/>
        <rect width="48" height="4" x="12" y="15" fill="#F1F1F1" rx="2"/>
        <rect width="96" height="4" x="12" y="27" fill="#F1F1F1" rx="2"/>
      </g>
    </g>
    <g transform="translate(27 36)">
      <path fill="#FFF" stroke="#1B2E5B" stroke-width="2" d="M182,1 C183.932997,1 185.682997,1.78350169 186.949747,3.05025253 C188.216498,4.31700338 189,6.06700338 189,8 L189,8 L189,144 C189,145.932997 188.216498,147.682997 186.949747,148.949747 C185.682997,150.216498 183.932997,151 182,151 L182,151 L8,151 C6.06700338,151 4.31700338,150.216498 3.05025253,148.949747 C1.78350169,147.682997 1,145.932997 1,144 L1,144 L1,8 C1,6.06700338 1.78350169,4.31700338 3.05025253,3.05025253 C4.31700338,1.78350169 6.06700338,1 8,1 L8,1 Z"/>
      <rect width="186" height="1" x="2" y="25" fill="#E1E1E1"/>
      <circle cx="14" cy="13" r="4" fill="#F15242"/>
      <circle cx="26" cy="13" r="4" fill="#FFC111"/>
      <circle cx="38" cy="13" r="4" fill="#6FD350"/>
      <g transform="translate(18 74)">
        <rect width="153" height="59" x=".5" y=".5" fill="#FFF" stroke="#E1E1E1" rx="4"/>
        <rect width="120" height="4" x="12" y="22" fill="#F1F1F1" rx="2"/>
        <rect width="64" height="4" x="12" y="34" fill="#F1F1F1" rx="2"/>
      </g>
      <rect width="153" height="27" x=".5" y=".5" fill="#FFF" stroke="#E1E1E1" rx="4" transform="translate(18 38)"/>
    </g>
    <g transform="translate(0 183)">
      <path fill="#FFF" stroke="#1B2E5B" stroke-width="2" d="M352,1 C353.932997,1 355.682997,1.78350169 356.949747,3.05025253 C358.216498,4.31700338 359,6.06700338 359,8 L359,8 L359,260 C359,261.932997 358.216498,263.682997 356.949747,264.949747 C355.682997,266.216498 353.932997,267 352,267 L352,267 L8,267 C6.06700338,267 4.31700338,266.216498 3.05025253,264.949747 C1.78350169,263.682997 1,261.932997 1,260 L1,260 L1,8 C1,6.06700338 1.78350169,4.31700338 3.05025253,3.05025253 C4.31700338,1.78350169 6.06700338,1 8,1 L8,1 Z"/>
      <rect width="356" height="1" x="2" y="25" fill="#E1E1E1"/>
      <circle cx="14" cy="13" r="4" fill="#F15242"/>
      <circle cx="26" cy="13" r="4" fill="#FFC111"/>
      <circle cx="38" cy="13" r="4" fill="#6FD350"/>
      <g transform="translate(132 50)">
        <rect width="97" height="59" x=".5" y=".5" fill="#FFF" stroke="#E1E1E1" rx="4"/>
        <path fill="#384254" fill-rule="nonzero" d="M18.74,45.992 L18.74,44.264 C19.412,44.248 20.052,44.132 20.66,43.916 C21.268,43.7 21.8,43.384 22.256,42.968 C22.712,42.552 23.072,42.048 23.336,41.456 C23.6,40.864 23.732,40.192 23.732,39.44 C23.732,38.656 23.588,37.984 23.3,37.424 C23.012,36.864 22.632,36.388 22.16,35.996 C21.688,35.604 21.152,35.28 20.552,35.024 C19.952,34.768 19.348,34.536 18.74,34.328 L18.74,34.328 L18.74,28.616 C19.3,28.632 19.864,28.76 20.432,29 C21,29.24 21.468,29.592 21.836,30.056 L21.836,30.056 L23.468,28.544 C22.86,27.936 22.128,27.484 21.272,27.188 C20.416,26.892 19.572,26.736 18.74,26.72 L18.74,26.72 L18.74,25.064 L17.516,25.064 L17.516,26.744 C16.876,26.776 16.264,26.908 15.68,27.14 C15.096,27.372 14.584,27.684 14.144,28.076 C13.704,28.468 13.352,28.944 13.088,29.504 C12.824,30.064 12.692,30.696 12.692,31.4 C12.692,32.152 12.828,32.792 13.1,33.32 C13.372,33.848 13.728,34.3 14.168,34.676 C14.608,35.052 15.12,35.364 15.704,35.612 C16.288,35.86 16.892,36.072 17.516,36.248 L17.516,36.248 L17.516,42.344 C17.228,42.344 16.92,42.3 16.592,42.212 C16.264,42.124 15.94,41.996 15.62,41.828 C15.3,41.66 14.988,41.456 14.684,41.216 C14.38,40.976 14.124,40.704 13.916,40.4 L13.916,40.4 L12.164,41.888 C12.836,42.624 13.628,43.196 14.54,43.604 C15.452,44.012 16.444,44.232 17.516,44.264 L17.516,44.264 L17.516,45.992 L18.74,45.992 Z M17.516,33.968 C16.764,33.744 16.152,33.428 15.68,33.02 C15.208,32.612 14.972,32.024 14.972,31.256 C14.972,30.456 15.22,29.828 15.716,29.372 C16.212,28.916 16.812,28.664 17.516,28.616 L17.516,28.616 L17.516,33.968 Z M18.74,42.344 L18.74,36.584 C19.508,36.84 20.148,37.192 20.66,37.64 C21.172,38.088 21.428,38.696 21.428,39.464 C21.428,39.944 21.352,40.36 21.2,40.712 C21.048,41.064 20.848,41.356 20.6,41.588 C20.352,41.82 20.068,42 19.748,42.128 C19.428,42.256 19.092,42.328 18.74,42.344 L18.74,42.344 Z M32.012,44.432 C32.86,44.432 33.644,44.292 34.364,44.012 C35.084,43.732 35.708,43.34 36.236,42.836 C36.764,42.332 37.18,41.72 37.484,41 C37.788,40.28 37.94,39.472 37.94,38.576 C37.94,37.76 37.796,37.02 37.508,36.356 C37.22,35.692 36.824,35.128 36.32,34.664 C35.816,34.2 35.216,33.844 34.52,33.596 C33.824,33.348 33.068,33.224 32.252,33.224 C31.9,33.224 31.528,33.248 31.136,33.296 C30.744,33.344 30.388,33.424 30.068,33.536 L30.068,33.536 L30.212,29.072 L37.22,29.072 L37.22,27.008 L28.052,27.008 L27.812,36.032 C28.34,35.76 28.94,35.536 29.612,35.36 C30.284,35.184 30.94,35.096 31.58,35.096 C32.108,35.096 32.612,35.168 33.092,35.312 C33.572,35.456 33.996,35.68 34.364,35.984 C34.732,36.288 35.024,36.676 35.24,37.148 C35.456,37.62 35.564,38.176 35.564,38.816 C35.564,39.36 35.472,39.856 35.288,40.304 C35.104,40.752 34.852,41.136 34.532,41.456 C34.212,41.776 33.836,42.024 33.404,42.2 C32.972,42.376 32.508,42.464 32.012,42.464 C31.244,42.464 30.568,42.256 29.984,41.84 C29.4,41.424 28.972,40.872 28.7,40.184 L28.7,40.184 L26.588,41.024 C27.052,42.064 27.74,42.892 28.652,43.508 C29.564,44.124 30.684,44.432 32.012,44.432 Z M52.268,44 L52.268,41.912 L43.94,41.912 L49.46,36.536 C49.828,36.168 50.18,35.796 50.516,35.42 C50.852,35.044 51.144,34.648 51.392,34.232 C51.64,33.816 51.836,33.376 51.98,32.912 C52.124,32.448 52.196,31.944 52.196,31.4 C52.196,30.616 52.048,29.92 51.752,29.312 C51.456,28.704 51.06,28.2 50.564,27.8 C50.068,27.4 49.496,27.096 48.848,26.888 C48.2,26.68 47.524,26.576 46.82,26.576 C46.1,26.576 45.424,26.688 44.792,26.912 C44.16,27.136 43.604,27.452 43.124,27.86 C42.644,28.268 42.248,28.748 41.936,29.3 C41.624,29.852 41.42,30.448 41.324,31.088 L41.324,31.088 L43.604,31.472 C43.748,30.608 44.1,29.9 44.66,29.348 C45.22,28.796 45.932,28.52 46.796,28.52 C47.212,28.52 47.604,28.588 47.972,28.724 C48.34,28.86 48.66,29.056 48.932,29.312 C49.204,29.568 49.42,29.876 49.58,30.236 C49.74,30.596 49.82,31 49.82,31.448 C49.82,32.168 49.636,32.816 49.268,33.392 C48.9,33.968 48.46,34.52 47.948,35.048 L47.948,35.048 L41.18,41.768 L41.18,44 L52.268,44 Z M57.14,44.144 C57.604,44.144 57.988,43.984 58.292,43.664 C58.596,43.344 58.748,42.976 58.748,42.56 C58.748,42.128 58.596,41.76 58.292,41.456 C57.988,41.152 57.604,41 57.14,41 C56.676,41 56.292,41.156 55.988,41.468 C55.684,41.78 55.532,42.152 55.532,42.584 C55.532,43 55.688,43.364 56,43.676 C56.312,43.988 56.692,44.144 57.14,44.144 Z M69.356,44 L69.356,27.008 L67.268,27.008 L62.444,30.92 L63.812,32.528 L67.028,29.84 L67.028,44 L69.356,44 Z M85.364,44 L85.364,40.184 L87.812,40.184 L87.812,38.192 L85.364,38.192 L85.364,27.008 L82.508,27.008 L75.284,38.072 L75.284,40.184 L83.108,40.184 L83.108,44 L85.364,44 Z M83.108,38.192 L77.684,38.192 L83.06,29.672 L83.108,29.672 L83.108,38.192 Z"/>
        <rect width="16" height="4" x="9" y="8" fill="#F1F1F1" rx="2"/>
      </g>
      <g transform="translate(26 50)">
        <rect width="97" height="59" x=".5" y=".5" fill="#FFF" stroke="#E1E1E1" rx="4"/>
        <path fill="#384254" fill-rule="nonzero" d="M32.264,44 L32.264,40.184 L34.712,40.184 L34.712,38.192 L32.264,38.192 L32.264,27.008 L29.408,27.008 L22.184,38.072 L22.184,40.184 L30.008,40.184 L30.008,44 L32.264,44 Z M30.008,38.192 L24.584,38.192 L29.96,29.672 L30.008,29.672 L30.008,38.192 Z M42.68,44 L47.12,36.992 C47.6,36.208 47.992,35.44 48.296,34.688 C48.6,33.936 48.752,33.096 48.752,32.168 C48.752,31.368 48.604,30.624 48.308,29.936 C48.012,29.248 47.604,28.656 47.084,28.16 C46.564,27.664 45.944,27.276 45.224,26.996 C44.504,26.716 43.728,26.576 42.896,26.576 C42.064,26.576 41.288,26.712 40.568,26.984 C39.848,27.256 39.224,27.64 38.696,28.136 C38.168,28.632 37.756,29.228 37.46,29.924 C37.164,30.62 37.016,31.392 37.016,32.24 C37.016,33.008 37.152,33.72 37.424,34.376 C37.696,35.032 38.072,35.596 38.552,36.068 C39.032,36.54 39.592,36.908 40.232,37.172 C40.872,37.436 41.568,37.568 42.32,37.568 C42.496,37.568 42.684,37.556 42.884,37.532 C43.084,37.508 43.28,37.48 43.472,37.448 C43.888,37.368 44.216,37.256 44.456,37.112 L44.456,37.112 L44.48,37.136 L39.92,44 L42.68,44 Z M42.872,35.72 C42.344,35.72 41.864,35.632 41.432,35.456 C41,35.28 40.632,35.032 40.328,34.712 C40.024,34.392 39.788,34.016 39.62,33.584 C39.452,33.152 39.368,32.68 39.368,32.168 C39.368,31.64 39.452,31.152 39.62,30.704 C39.788,30.256 40.028,29.872 40.34,29.552 C40.652,29.232 41.024,28.98 41.456,28.796 C41.888,28.612 42.368,28.52 42.896,28.52 C43.424,28.52 43.904,28.616 44.336,28.808 C44.768,29 45.14,29.26 45.452,29.588 C45.764,29.916 46.004,30.3 46.172,30.74 C46.34,31.18 46.424,31.648 46.424,32.144 C46.424,32.672 46.34,33.152 46.172,33.584 C46.004,34.016 45.764,34.392 45.452,34.712 C45.14,35.032 44.764,35.28 44.324,35.456 C43.884,35.632 43.4,35.72 42.872,35.72 Z M57.152,44.432 C58.16,44.432 59.028,44.2 59.756,43.736 C60.484,43.272 61.084,42.636 61.556,41.828 C62.028,41.02 62.376,40.076 62.6,38.996 C62.824,37.916 62.936,36.752 62.936,35.504 C62.936,34.272 62.824,33.112 62.6,32.024 C62.376,30.936 62.028,29.988 61.556,29.18 C61.084,28.372 60.484,27.736 59.756,27.272 C59.028,26.808 58.16,26.576 57.152,26.576 C56.144,26.576 55.272,26.808 54.536,27.272 C53.8,27.736 53.196,28.372 52.724,29.18 C52.252,29.988 51.904,30.936 51.68,32.024 C51.456,33.112 51.344,34.272 51.344,35.504 C51.344,36.752 51.456,37.916 51.68,38.996 C51.904,40.076 52.252,41.02 52.724,41.828 C53.196,42.636 53.8,43.272 54.536,43.736 C55.272,44.2 56.144,44.432 57.152,44.432 Z M57.152,42.464 C56.448,42.464 55.872,42.236 55.424,41.78 C54.976,41.324 54.628,40.752 54.38,40.064 C54.132,39.376 53.96,38.624 53.864,37.808 C53.768,36.992 53.72,36.224 53.72,35.504 C53.72,34.784 53.768,34.016 53.864,33.2 C53.96,32.384 54.132,31.628 54.38,30.932 C54.628,30.236 54.976,29.66 55.424,29.204 C55.872,28.748 56.448,28.52 57.152,28.52 C57.84,28.52 58.404,28.748 58.844,29.204 C59.284,29.66 59.632,30.236 59.888,30.932 C60.144,31.628 60.32,32.384 60.416,33.2 C60.512,34.016 60.56,34.784 60.56,35.504 C60.56,36.224 60.512,36.992 60.416,37.808 C60.32,38.624 60.144,39.376 59.888,40.064 C59.632,40.752 59.284,41.324 58.844,41.78 C58.404,42.236 57.84,42.464 57.152,42.464 Z M76.808,44 L76.808,41.912 L68.48,41.912 L74,36.536 C74.368,36.168 74.72,35.796 75.056,35.42 C75.392,35.044 75.684,34.648 75.932,34.232 C76.18,33.816 76.376,33.376 76.52,32.912 C76.664,32.448 76.736,31.944 76.736,31.4 C76.736,30.616 76.588,29.92 76.292,29.312 C75.996,28.704 75.6,28.2 75.104,27.8 C74.608,27.4 74.036,27.096 73.388,26.888 C72.74,26.68 72.064,26.576 71.36,26.576 C70.64,26.576 69.964,26.688 69.332,26.912 C68.7,27.136 68.144,27.452 67.664,27.86 C67.184,28.268 66.788,28.748 66.476,29.3 C66.164,29.852 65.96,30.448 65.864,31.088 L65.864,31.088 L68.144,31.472 C68.288,30.608 68.64,29.9 69.2,29.348 C69.76,28.796 70.472,28.52 71.336,28.52 C71.752,28.52 72.144,28.588 72.512,28.724 C72.88,28.86 73.2,29.056 73.472,29.312 C73.744,29.568 73.96,29.876 74.12,30.236 C74.28,30.596 74.36,31 74.36,31.448 C74.36,32.168 74.176,32.816 73.808,33.392 C73.44,33.968 73,34.52 72.488,35.048 L72.488,35.048 L65.72,41.768 L65.72,44 L76.808,44 Z"/>
        <rect width="16" height="4" x="8" y="8" fill="#F1F1F1" rx="2"/>
      </g>
      <g transform="translate(238 50)">
        <rect width="97" height="59" x=".5" y=".5" fill="#FFF" stroke="#E1E1E1" rx="4"/>
        <path fill="#384254" fill-rule="nonzero" d="M30.536,44 L30.536,27.008 L28.448,27.008 L23.624,30.92 L24.992,32.528 L28.208,29.84 L28.208,44 L30.536,44 Z M46.544,44 L46.544,40.184 L48.992,40.184 L48.992,38.192 L46.544,38.192 L46.544,27.008 L43.688,27.008 L36.464,38.072 L36.464,40.184 L44.288,40.184 L44.288,44 L46.544,44 Z M44.288,38.192 L38.864,38.192 L44.24,29.672 L44.288,29.672 L44.288,38.192 Z M56.96,44 L61.4,36.992 C61.88,36.208 62.272,35.44 62.576,34.688 C62.88,33.936 63.032,33.096 63.032,32.168 C63.032,31.368 62.884,30.624 62.588,29.936 C62.292,29.248 61.884,28.656 61.364,28.16 C60.844,27.664 60.224,27.276 59.504,26.996 C58.784,26.716 58.008,26.576 57.176,26.576 C56.344,26.576 55.568,26.712 54.848,26.984 C54.128,27.256 53.504,27.64 52.976,28.136 C52.448,28.632 52.036,29.228 51.74,29.924 C51.444,30.62 51.296,31.392 51.296,32.24 C51.296,33.008 51.432,33.72 51.704,34.376 C51.976,35.032 52.352,35.596 52.832,36.068 C53.312,36.54 53.872,36.908 54.512,37.172 C55.152,37.436 55.848,37.568 56.6,37.568 C56.776,37.568 56.964,37.556 57.164,37.532 C57.364,37.508 57.56,37.48 57.752,37.448 C58.168,37.368 58.496,37.256 58.736,37.112 L58.736,37.112 L58.76,37.136 L54.2,44 L56.96,44 Z M57.152,35.72 C56.624,35.72 56.144,35.632 55.712,35.456 C55.28,35.28 54.912,35.032 54.608,34.712 C54.304,34.392 54.068,34.016 53.9,33.584 C53.732,33.152 53.648,32.68 53.648,32.168 C53.648,31.64 53.732,31.152 53.9,30.704 C54.068,30.256 54.308,29.872 54.62,29.552 C54.932,29.232 55.304,28.98 55.736,28.796 C56.168,28.612 56.648,28.52 57.176,28.52 C57.704,28.52 58.184,28.616 58.616,28.808 C59.048,29 59.42,29.26 59.732,29.588 C60.044,29.916 60.284,30.3 60.452,30.74 C60.62,31.18 60.704,31.648 60.704,32.144 C60.704,32.672 60.62,33.152 60.452,33.584 C60.284,34.016 60.044,34.392 59.732,34.712 C59.42,35.032 59.044,35.28 58.604,35.456 C58.164,35.632 57.68,35.72 57.152,35.72 Z M73.376,44 L73.376,27.008 L71.288,27.008 L66.464,30.92 L67.832,32.528 L71.048,29.84 L71.048,44 L73.376,44 Z"/>
        <rect width="16" height="4" x="8" y="8" fill="#F1F1F1" rx="2"/>
      </g>
      <g transform="translate(26 118)">
        <rect width="151" height="125" x=".5" y=".5" fill="#FFF" stroke="#E1E1E1" rx="4"/>
        <rect width="32" height="46" x="9" y="71" fill="#FFC111" opacity=".5"/>
        <rect width="32" height="56" x="43" y="61" fill="#FFC111" opacity=".5"/>
        <rect width="32" height="72" x="77" y="45" fill="#FFC111" opacity=".5"/>
        <rect width="32" height="88" x="111" y="29" fill="#FFC111"/>
      </g>
      <rect width="151" height="125" x=".5" y=".5" fill="#FFF" stroke="#E1E1E1" rx="4" transform="translate(186 118)"/>
    </g>
    <g transform="translate(214 35)">
      <rect width="30" height="113.75" y="63.75" fill="#B7E9A7"/>
      <rect width="30" height="140" x="35" y="37.5" fill="#B7E9A7"/>
      <rect width="30" height="177.5" x="70" fill="#6FD350"/>
    </g>
    <g transform="translate(215 324)">
      <path fill="#6F0DFB" d="M84,0 L84,84 L0,84 C0,37.608081 37.608081,0 84,0 L84,0 Z"/>
      <path fill="#B482FD" d="M95.25,36 C127.972871,36 154.5,62.5271286 154.5,95.25 C154.5,127.972871 127.972871,154.5 95.25,154.5 C62.5271286,154.5 36,127.972871 36,95.25 L36,95.25 L95.25,95.25 Z"/>
    </g>
    <circle cx="414" cy="90" r="17" fill="#1B2E5B" stroke="#979797" stroke-opacity=".124" stroke-width="10"/>
    <circle cx="144" cy="36" r="17" fill="#1B2E5B" stroke="#979797" stroke-opacity=".124" stroke-width="10"/>
    <circle cx="414" cy="308" r="17" fill="#1B2E5B" stroke="#979797" stroke-opacity=".124" stroke-width="10"/>
  </g>
</svg>
