<svg xmlns="http://www.w3.org/2000/svg" xmlns:xlink="http://www.w3.org/1999/xlink" width="392" height="492" viewBox="0 0 392 492"><defs><filter id="a" width="150%" height="150%" x="-25%" y="-20.8%" filterUnits="objectBoundingBox"><feMorphology in="SourceAlpha" operator="dilate" radius="2" result="shadowSpreadOuter1"/><feOffset dy="2" in="shadowSpreadOuter1" result="shadowOffsetOuter1"/><feGaussianBlur in="shadowOffsetOuter1" result="shadowBlurOuter1" stdDeviation="3"/><feComposite in="shadowBlurOuter1" in2="SourceAlpha" operator="out" result="shadowBlurOuter1"/><feColorMatrix in="shadowBlurOuter1" values="0 0 0 0 0.207843137 0 0 0 0 0.258823529 0 0 0 0 0.329411765 0 0 0 0.101137908 0"/></filter><filter id="c" width="150%" height="150%" x="-25%" y="-20.8%" filterUnits="objectBoundingBox"><feMorphology in="SourceAlpha" operator="dilate" radius="2" result="shadowSpreadOuter1"/><feOffset dy="2" in="shadowSpreadOuter1" result="shadowOffsetOuter1"/><feGaussianBlur in="shadowOffsetOuter1" result="shadowBlurOuter1" stdDeviation="3"/><feComposite in="shadowBlurOuter1" in2="SourceAlpha" operator="out" result="shadowBlurOuter1"/><feColorMatrix in="shadowBlurOuter1" values="0 0 0 0 0.207843137 0 0 0 0 0.258823529 0 0 0 0 0.329411765 0 0 0 0.101137908 0"/></filter><filter id="e" width="150%" height="150%" x="-25%" y="-20.8%" filterUnits="objectBoundingBox"><feMorphology in="SourceAlpha" operator="dilate" radius="2" result="shadowSpreadOuter1"/><feOffset dy="2" in="shadowSpreadOuter1" result="shadowOffsetOuter1"/><feGaussianBlur in="shadowOffsetOuter1" result="shadowBlurOuter1" stdDeviation="3"/><feComposite in="shadowBlurOuter1" in2="SourceAlpha" operator="out" result="shadowBlurOuter1"/><feColorMatrix in="shadowBlurOuter1" values="0 0 0 0 0.207843137 0 0 0 0 0.258823529 0 0 0 0 0.329411765 0 0 0 0.101137908 0"/></filter><filter id="g" width="150%" height="150%" x="-25%" y="-20.8%" filterUnits="objectBoundingBox"><feMorphology in="SourceAlpha" operator="dilate" radius="2" result="shadowSpreadOuter1"/><feOffset dy="2" in="shadowSpreadOuter1" result="shadowOffsetOuter1"/><feGaussianBlur in="shadowOffsetOuter1" result="shadowBlurOuter1" stdDeviation="3"/><feComposite in="shadowBlurOuter1" in2="SourceAlpha" operator="out" result="shadowBlurOuter1"/><feColorMatrix in="shadowBlurOuter1" values="0 0 0 0 0.207843137 0 0 0 0 0.258823529 0 0 0 0 0.329411765 0 0 0 0.101137908 0"/></filter><filter id="i" width="150%" height="150%" x="-25%" y="-20.8%" filterUnits="objectBoundingBox"><feMorphology in="SourceAlpha" operator="dilate" radius="2" result="shadowSpreadOuter1"/><feOffset dy="2" in="shadowSpreadOuter1" result="shadowOffsetOuter1"/><feGaussianBlur in="shadowOffsetOuter1" result="shadowBlurOuter1" stdDeviation="3"/><feComposite in="shadowBlurOuter1" in2="SourceAlpha" operator="out" result="shadowBlurOuter1"/><feColorMatrix in="shadowBlurOuter1" values="0 0 0 0 0.207843137 0 0 0 0 0.258823529 0 0 0 0 0.329411765 0 0 0 0.101137908 0"/></filter><filter id="k" width="150%" height="150%" x="-25%" y="-20.8%" filterUnits="objectBoundingBox"><feMorphology in="SourceAlpha" operator="dilate" radius="2" result="shadowSpreadOuter1"/><feOffset dy="2" in="shadowSpreadOuter1" result="shadowOffsetOuter1"/><feGaussianBlur in="shadowOffsetOuter1" result="shadowBlurOuter1" stdDeviation="3"/><feComposite in="shadowBlurOuter1" in2="SourceAlpha" operator="out" result="shadowBlurOuter1"/><feColorMatrix in="shadowBlurOuter1" values="0 0 0 0 0.207843137 0 0 0 0 0.258823529 0 0 0 0 0.329411765 0 0 0 0.101137908 0"/></filter><filter id="m" width="150%" height="150%" x="-25%" y="-20.8%" filterUnits="objectBoundingBox"><feMorphology in="SourceAlpha" operator="dilate" radius="2" result="shadowSpreadOuter1"/><feOffset dy="2" in="shadowSpreadOuter1" result="shadowOffsetOuter1"/><feGaussianBlur in="shadowOffsetOuter1" result="shadowBlurOuter1" stdDeviation="3"/><feComposite in="shadowBlurOuter1" in2="SourceAlpha" operator="out" result="shadowBlurOuter1"/><feColorMatrix in="shadowBlurOuter1" values="0 0 0 0 0.207843137 0 0 0 0 0.258823529 0 0 0 0 0.329411765 0 0 0 0.101137908 0"/></filter><circle id="b" cx="24" cy="24" r="24"/><circle id="d" cx="24" cy="24" r="24"/><circle id="f" cx="24" cy="24" r="24"/><circle id="h" cx="24" cy="24" r="24"/><circle id="j" cx="24" cy="24" r="24"/><circle id="l" cx="24" cy="24" r="24"/><circle id="n" cx="24" cy="24" r="24"/></defs><g fill="none" fill-rule="evenodd"><path stroke="#1B2E5B" stroke-dasharray="2 8" stroke-linecap="round" stroke-linejoin="round" stroke-width="2" d="M113 93h204.5c19.606 0 35.5 15.894 35.5 35.5S337.106 164 317.5 164H223c-13.255 0-24 10.745-24 24v54h0"/><g transform="translate(16 234)"><path fill="#FFF" stroke="#1B2E5B" stroke-width="2" d="M368 1c1.933 0 3.683.784 4.95 2.05A6.978 6.978 0 01375 8h0v242a6.978 6.978 0 01-2.05 4.95A6.978 6.978 0 01368 257h0H8a6.978 6.978 0 01-4.95-2.05A6.978 6.978 0 011 250h0V8c0-1.933.784-3.683 2.05-4.95A6.978 6.978 0 018 1h0z"/><g transform="translate(136 40)"><rect width="103" height="59" x=".5" y=".5" fill="#FFF" stroke="#E1E1E1" rx="4"/><path fill="#384254" fill-rule="nonzero" d="M20.74 45.992v-1.728a6.134 6.134 0 001.92-.348 4.5 4.5 0 002.676-2.46c.264-.592.396-1.264.396-2.016 0-.784-.144-1.456-.432-2.016a4.523 4.523 0 00-1.14-1.428 6.477 6.477 0 00-1.608-.972c-.6-.256-1.204-.488-1.812-.696v-5.712c.56.016 1.124.144 1.692.384.568.24 1.036.592 1.404 1.056l1.632-1.512a5.684 5.684 0 00-2.196-1.356 8.203 8.203 0 00-2.532-.468v-1.656h-1.224v1.68a5.71 5.71 0 00-1.836.396 5.136 5.136 0 00-1.536.936 4.4 4.4 0 00-1.056 1.428c-.264.56-.396 1.192-.396 1.896 0 .752.136 1.392.408 1.92.272.528.628.98 1.068 1.356.44.376.952.688 1.536.936.584.248 1.188.46 1.812.636v6.096c-.288 0-.596-.044-.924-.132a4.72 4.72 0 01-.972-.384 6.051 6.051 0 01-.936-.612 3.7 3.7 0 01-.768-.816l-1.752 1.488a7.121 7.121 0 002.376 1.716 7.783 7.783 0 002.976.66v1.728h1.224zm-1.224-12.024c-.752-.224-1.364-.54-1.836-.948-.472-.408-.708-.996-.708-1.764 0-.8.248-1.428.744-1.884.496-.456 1.096-.708 1.8-.756v5.352zm1.224 8.376v-5.76c.768.256 1.408.608 1.92 1.056.512.448.768 1.056.768 1.824 0 .48-.076.896-.228 1.248a2.581 2.581 0 01-.6.876 2.707 2.707 0 01-.852.54c-.32.128-.656.2-1.008.216zm13.272 2.088c.848 0 1.632-.14 2.352-.42a5.636 5.636 0 001.872-1.176A5.413 5.413 0 0039.484 41c.304-.72.456-1.528.456-2.424 0-.816-.144-1.556-.432-2.22a4.938 4.938 0 00-1.188-1.692 5.198 5.198 0 00-1.8-1.068 6.71 6.71 0 00-2.268-.372c-.352 0-.724.024-1.116.072a5.113 5.113 0 00-1.068.24l.144-4.464h7.008v-2.064h-9.168l-.24 9.024a8.783 8.783 0 011.8-.672 7.751 7.751 0 011.968-.264c.528 0 1.032.072 1.512.216.48.144.904.368 1.272.672.368.304.66.692.876 1.164.216.472.324 1.028.324 1.668 0 .544-.092 1.04-.276 1.488a3.474 3.474 0 01-.756 1.152 3.38 3.38 0 01-1.128.744 3.654 3.654 0 01-1.392.264c-.768 0-1.444-.208-2.028-.624a3.62 3.62 0 01-1.284-1.656l-2.112.84a5.763 5.763 0 002.064 2.484c.912.616 2.032.924 3.36.924zM54.268 44v-2.088H45.94l5.52-5.376c.368-.368.72-.74 1.056-1.116.336-.376.628-.772.876-1.188.248-.416.444-.856.588-1.32.144-.464.216-.968.216-1.512 0-.784-.148-1.48-.444-2.088a4.365 4.365 0 00-1.188-1.512 5.27 5.27 0 00-1.716-.912 6.595 6.595 0 00-2.028-.312c-.72 0-1.396.112-2.028.336a5.262 5.262 0 00-1.668.948c-.48.408-.876.888-1.188 1.44a5.156 5.156 0 00-.612 1.788l2.28.384c.144-.864.496-1.572 1.056-2.124s1.272-.828 2.136-.828c.416 0 .808.068 1.176.204.368.136.688.332.96.588.272.256.488.564.648.924.16.36.24.764.24 1.212 0 .72-.184 1.368-.552 1.944a10.512 10.512 0 01-1.32 1.656l-6.768 6.72V44h11.088zm4.872.144c.464 0 .848-.16 1.152-.48.304-.32.456-.688.456-1.104 0-.432-.152-.8-.456-1.104-.304-.304-.688-.456-1.152-.456-.464 0-.848.156-1.152.468a1.544 1.544 0 00-.456 1.116c0 .416.156.78.468 1.092.312.312.692.468 1.14.468zM71.356 44V27.008h-2.088l-4.824 3.912 1.368 1.608 3.216-2.688V44h2.328zm16.008 0v-3.816h2.448v-1.992h-2.448V27.008h-2.856l-7.224 11.064v2.112h7.824V44h2.256zm-2.256-5.808h-5.424l5.376-8.52h.048v8.52z"/><rect width="16" height="4" x="9" y="8" fill="#F1F1F1" rx="2"/></g><circle cx="20" cy="20" r="8" fill="#F1F1F1"/><rect width="72" height="4" x="34" y="18" fill="#F1F1F1" rx="2"/><rect width="32" height="4" x="332" y="18" fill="#F1F1F1" rx="2"/><g transform="translate(24 40)"><rect width="103" height="59" x=".5" y=".5" fill="#FFF" stroke="#E1E1E1" rx="4"/><path fill="#384254" fill-rule="nonzero" d="M34.264 44v-3.816h2.448v-1.992h-2.448V27.008h-2.856l-7.224 11.064v2.112h7.824V44h2.256zm-2.256-5.808h-5.424l5.376-8.52h.048v8.52zM44.68 44l4.44-7.008c.48-.784.872-1.552 1.176-2.304.304-.752.456-1.592.456-2.52 0-.8-.148-1.544-.444-2.232a5.34 5.34 0 00-1.224-1.776 5.602 5.602 0 00-1.86-1.164 6.367 6.367 0 00-2.328-.42c-.832 0-1.608.136-2.328.408a5.58 5.58 0 00-1.872 1.152 5.227 5.227 0 00-1.236 1.788c-.296.696-.444 1.468-.444 2.316 0 .768.136 1.48.408 2.136a5.06 5.06 0 002.808 2.796 5.422 5.422 0 002.652.36c.2-.024.396-.052.588-.084.416-.08.744-.192.984-.336l.024.024L41.92 44h2.76zm.192-8.28a3.784 3.784 0 01-1.44-.264 3.13 3.13 0 01-1.104-.744 3.416 3.416 0 01-.708-1.128 3.874 3.874 0 01-.252-1.416c0-.528.084-1.016.252-1.464.168-.448.408-.832.72-1.152a3.4 3.4 0 011.116-.756 3.639 3.639 0 011.44-.276c.528 0 1.008.096 1.44.288.432.192.804.452 1.116.78.312.328.552.712.72 1.152.168.44.252.908.252 1.404 0 .528-.084 1.008-.252 1.44a3.227 3.227 0 01-1.848 1.872c-.44.176-.924.264-1.452.264zm14.28 8.712c1.008 0 1.876-.232 2.604-.696.728-.464 1.328-1.1 1.8-1.908.472-.808.82-1.752 1.044-2.832.224-1.08.336-2.244.336-3.492 0-1.232-.112-2.392-.336-3.48-.224-1.088-.572-2.036-1.044-2.844-.472-.808-1.072-1.444-1.8-1.908-.728-.464-1.596-.696-2.604-.696s-1.88.232-2.616.696c-.736.464-1.34 1.1-1.812 1.908-.472.808-.82 1.756-1.044 2.844a17.239 17.239 0 00-.336 3.48c0 1.248.112 2.412.336 3.492.224 1.08.572 2.024 1.044 2.832.472.808 1.076 1.444 1.812 1.908.736.464 1.608.696 2.616.696zm0-1.968c-.704 0-1.28-.228-1.728-.684-.448-.456-.796-1.028-1.044-1.716s-.42-1.44-.516-2.256a19.771 19.771 0 01-.144-2.304c0-.72.048-1.488.144-2.304a10.34 10.34 0 01.516-2.268c.248-.696.596-1.272 1.044-1.728.448-.456 1.024-.684 1.728-.684.688 0 1.252.228 1.692.684.44.456.788 1.032 1.044 1.728s.432 1.452.528 2.268c.096.816.144 1.584.144 2.304 0 .72-.048 1.488-.144 2.304a9.702 9.702 0 01-.528 2.256c-.256.688-.604 1.26-1.044 1.716-.44.456-1.004.684-1.692.684zM78.808 44v-2.088H70.48L76 36.536c.368-.368.72-.74 1.056-1.116.336-.376.628-.772.876-1.188.248-.416.444-.856.588-1.32.144-.464.216-.968.216-1.512 0-.784-.148-1.48-.444-2.088a4.365 4.365 0 00-1.188-1.512 5.27 5.27 0 00-1.716-.912 6.595 6.595 0 00-2.028-.312c-.72 0-1.396.112-2.028.336a5.262 5.262 0 00-1.668.948c-.48.408-.876.888-1.188 1.44a5.156 5.156 0 00-.612 1.788l2.28.384c.144-.864.496-1.572 1.056-2.124s1.272-.828 2.136-.828c.416 0 .808.068 1.176.204.368.136.688.332.96.588.272.256.488.564.648.924.16.36.24.764.24 1.212 0 .72-.184 1.368-.552 1.944a10.512 10.512 0 01-1.32 1.656l-6.768 6.72V44h11.088z"/><rect width="16" height="4" x="8" y="8" fill="#F1F1F1" rx="2"/></g><g transform="translate(248 40)"><rect width="103" height="59" x=".5" y=".5" fill="#FFF" stroke="#E1E1E1" rx="4"/><path fill="#384254" fill-rule="nonzero" d="M32.536 44V27.008h-2.088l-4.824 3.912 1.368 1.608 3.216-2.688V44h2.328zm16.008 0v-3.816h2.448v-1.992h-2.448V27.008h-2.856l-7.224 11.064v2.112h7.824V44h2.256zm-2.256-5.808h-5.424l5.376-8.52h.048v8.52zM58.96 44l4.44-7.008c.48-.784.872-1.552 1.176-2.304.304-.752.456-1.592.456-2.52 0-.8-.148-1.544-.444-2.232a5.34 5.34 0 00-1.224-1.776 5.602 5.602 0 00-1.86-1.164 6.367 6.367 0 00-2.328-.42c-.832 0-1.608.136-2.328.408a5.58 5.58 0 00-1.872 1.152 5.227 5.227 0 00-1.236 1.788c-.296.696-.444 1.468-.444 2.316 0 .768.136 1.48.408 2.136a5.06 5.06 0 002.808 2.796 5.422 5.422 0 002.652.36c.2-.024.396-.052.588-.084.416-.08.744-.192.984-.336l.024.024L56.2 44h2.76zm.192-8.28a3.784 3.784 0 01-1.44-.264 3.13 3.13 0 01-1.104-.744 3.416 3.416 0 01-.708-1.128 3.874 3.874 0 01-.252-1.416c0-.528.084-1.016.252-1.464.168-.448.408-.832.72-1.152a3.4 3.4 0 011.116-.756 3.639 3.639 0 011.44-.276c.528 0 1.008.096 1.44.288.432.192.804.452 1.116.78.312.328.552.712.72 1.152.168.44.252.908.252 1.404 0 .528-.084 1.008-.252 1.44a3.227 3.227 0 01-1.848 1.872c-.44.176-.924.264-1.452.264zM75.376 44V27.008h-2.088l-4.824 3.912 1.368 1.608 3.216-2.688V44h2.328z"/><rect width="16" height="4" x="8" y="8" fill="#F1F1F1" rx="2"/></g><g transform="translate(24 108)"><rect width="159" height="125" x=".5" y=".5" fill="#FFF" stroke="#E1E1E1" rx="4"/><rect width="32" height="46" x="10" y="72" fill="#FFC111" opacity=".5" rx="4"/><rect width="32" height="56" x="46" y="62" fill="#FFC111" opacity=".5" rx="4"/><rect width="32" height="72" x="82" y="46" fill="#FFC111" opacity=".5" rx="4"/><rect width="32" height="88" x="118" y="30" fill="#FFC111" rx="4"/></g><g transform="translate(192 108)"><rect width="159" height="125" x=".5" y=".5" fill="#FFF" stroke="#E1E1E1" rx="4"/><g fill="#6F0DFB"><path d="M116 65c0 19.882-16.118 36-36 36S44 84.882 44 65s16.118-36 36-36v36z" opacity=".5"/><path d="M88 21c19.882 0 36 16.118 36 36H88z"/></g></g></g><g transform="translate(0 218)"><path fill="#FFF" stroke="#1B2E5B" stroke-width="2" d="M368 1c1.933 0 3.683.784 4.95 2.05A6.978 6.978 0 01375 8h0v242a6.978 6.978 0 01-2.05 4.95A6.978 6.978 0 01368 257h0H8a6.978 6.978 0 01-4.95-2.05A6.978 6.978 0 011 250h0V8c0-1.933.784-3.683 2.05-4.95A6.978 6.978 0 018 1h0z"/><g transform="translate(136 40)"><rect width="103" height="59" x=".5" y=".5" fill="#FFF" stroke="#E1E1E1" rx="4"/><path fill="#384254" fill-rule="nonzero" d="M20.74 45.992v-1.728a6.134 6.134 0 001.92-.348 4.5 4.5 0 002.676-2.46c.264-.592.396-1.264.396-2.016 0-.784-.144-1.456-.432-2.016a4.523 4.523 0 00-1.14-1.428 6.477 6.477 0 00-1.608-.972c-.6-.256-1.204-.488-1.812-.696v-5.712c.56.016 1.124.144 1.692.384.568.24 1.036.592 1.404 1.056l1.632-1.512a5.684 5.684 0 00-2.196-1.356 8.203 8.203 0 00-2.532-.468v-1.656h-1.224v1.68a5.71 5.71 0 00-1.836.396 5.136 5.136 0 00-1.536.936 4.4 4.4 0 00-1.056 1.428c-.264.56-.396 1.192-.396 1.896 0 .752.136 1.392.408 1.92.272.528.628.98 1.068 1.356.44.376.952.688 1.536.936.584.248 1.188.46 1.812.636v6.096c-.288 0-.596-.044-.924-.132a4.72 4.72 0 01-.972-.384 6.051 6.051 0 01-.936-.612 3.7 3.7 0 01-.768-.816l-1.752 1.488a7.121 7.121 0 002.376 1.716 7.783 7.783 0 002.976.66v1.728h1.224zm-1.224-12.024c-.752-.224-1.364-.54-1.836-.948-.472-.408-.708-.996-.708-1.764 0-.8.248-1.428.744-1.884.496-.456 1.096-.708 1.8-.756v5.352zm1.224 8.376v-5.76c.768.256 1.408.608 1.92 1.056.512.448.768 1.056.768 1.824 0 .48-.076.896-.228 1.248a2.581 2.581 0 01-.6.876 2.707 2.707 0 01-.852.54c-.32.128-.656.2-1.008.216zm13.272 2.088c.848 0 1.632-.14 2.352-.42a5.636 5.636 0 001.872-1.176A5.413 5.413 0 0039.484 41c.304-.72.456-1.528.456-2.424 0-.816-.144-1.556-.432-2.22a4.938 4.938 0 00-1.188-1.692 5.198 5.198 0 00-1.8-1.068 6.71 6.71 0 00-2.268-.372c-.352 0-.724.024-1.116.072a5.113 5.113 0 00-1.068.24l.144-4.464h7.008v-2.064h-9.168l-.24 9.024a8.783 8.783 0 011.8-.672 7.751 7.751 0 011.968-.264c.528 0 1.032.072 1.512.216.48.144.904.368 1.272.672.368.304.66.692.876 1.164.216.472.324 1.028.324 1.668 0 .544-.092 1.04-.276 1.488a3.474 3.474 0 01-.756 1.152 3.38 3.38 0 01-1.128.744 3.654 3.654 0 01-1.392.264c-.768 0-1.444-.208-2.028-.624a3.62 3.62 0 01-1.284-1.656l-2.112.84a5.763 5.763 0 002.064 2.484c.912.616 2.032.924 3.36.924zM54.268 44v-2.088H45.94l5.52-5.376c.368-.368.72-.74 1.056-1.116.336-.376.628-.772.876-1.188.248-.416.444-.856.588-1.32.144-.464.216-.968.216-1.512 0-.784-.148-1.48-.444-2.088a4.365 4.365 0 00-1.188-1.512 5.27 5.27 0 00-1.716-.912 6.595 6.595 0 00-2.028-.312c-.72 0-1.396.112-2.028.336a5.262 5.262 0 00-1.668.948c-.48.408-.876.888-1.188 1.44a5.156 5.156 0 00-.612 1.788l2.28.384c.144-.864.496-1.572 1.056-2.124s1.272-.828 2.136-.828c.416 0 .808.068 1.176.204.368.136.688.332.96.588.272.256.488.564.648.924.16.36.24.764.24 1.212 0 .72-.184 1.368-.552 1.944a10.512 10.512 0 01-1.32 1.656l-6.768 6.72V44h11.088zm4.872.144c.464 0 .848-.16 1.152-.48.304-.32.456-.688.456-1.104 0-.432-.152-.8-.456-1.104-.304-.304-.688-.456-1.152-.456-.464 0-.848.156-1.152.468a1.544 1.544 0 00-.456 1.116c0 .416.156.78.468 1.092.312.312.692.468 1.14.468zM71.356 44V27.008h-2.088l-4.824 3.912 1.368 1.608 3.216-2.688V44h2.328zm16.008 0v-3.816h2.448v-1.992h-2.448V27.008h-2.856l-7.224 11.064v2.112h7.824V44h2.256zm-2.256-5.808h-5.424l5.376-8.52h.048v8.52z"/><rect width="16" height="4" x="9" y="8" fill="#F1F1F1" rx="2"/></g><circle cx="20" cy="20" r="8" fill="#F1F1F1"/><rect width="72" height="4" x="34" y="18" fill="#F1F1F1" rx="2"/><rect width="32" height="4" x="332" y="18" fill="#F1F1F1" rx="2"/><g transform="translate(24 40)"><rect width="103" height="59" x=".5" y=".5" fill="#FFF" stroke="#E1E1E1" rx="4"/><path fill="#384254" fill-rule="nonzero" d="M34.264 44v-3.816h2.448v-1.992h-2.448V27.008h-2.856l-7.224 11.064v2.112h7.824V44h2.256zm-2.256-5.808h-5.424l5.376-8.52h.048v8.52zM44.68 44l4.44-7.008c.48-.784.872-1.552 1.176-2.304.304-.752.456-1.592.456-2.52 0-.8-.148-1.544-.444-2.232a5.34 5.34 0 00-1.224-1.776 5.602 5.602 0 00-1.86-1.164 6.367 6.367 0 00-2.328-.42c-.832 0-1.608.136-2.328.408a5.58 5.58 0 00-1.872 1.152 5.227 5.227 0 00-1.236 1.788c-.296.696-.444 1.468-.444 2.316 0 .768.136 1.48.408 2.136a5.06 5.06 0 002.808 2.796 5.422 5.422 0 002.652.36c.2-.024.396-.052.588-.084.416-.08.744-.192.984-.336l.024.024L41.92 44h2.76zm.192-8.28a3.784 3.784 0 01-1.44-.264 3.13 3.13 0 01-1.104-.744 3.416 3.416 0 01-.708-1.128 3.874 3.874 0 01-.252-1.416c0-.528.084-1.016.252-1.464.168-.448.408-.832.72-1.152a3.4 3.4 0 011.116-.756 3.639 3.639 0 011.44-.276c.528 0 1.008.096 1.44.288.432.192.804.452 1.116.78.312.328.552.712.72 1.152.168.44.252.908.252 1.404 0 .528-.084 1.008-.252 1.44a3.227 3.227 0 01-1.848 1.872c-.44.176-.924.264-1.452.264zm14.28 8.712c1.008 0 1.876-.232 2.604-.696.728-.464 1.328-1.1 1.8-1.908.472-.808.82-1.752 1.044-2.832.224-1.08.336-2.244.336-3.492 0-1.232-.112-2.392-.336-3.48-.224-1.088-.572-2.036-1.044-2.844-.472-.808-1.072-1.444-1.8-1.908-.728-.464-1.596-.696-2.604-.696s-1.88.232-2.616.696c-.736.464-1.34 1.1-1.812 1.908-.472.808-.82 1.756-1.044 2.844a17.239 17.239 0 00-.336 3.48c0 1.248.112 2.412.336 3.492.224 1.08.572 2.024 1.044 2.832.472.808 1.076 1.444 1.812 1.908.736.464 1.608.696 2.616.696zm0-1.968c-.704 0-1.28-.228-1.728-.684-.448-.456-.796-1.028-1.044-1.716s-.42-1.44-.516-2.256a19.771 19.771 0 01-.144-2.304c0-.72.048-1.488.144-2.304a10.34 10.34 0 01.516-2.268c.248-.696.596-1.272 1.044-1.728.448-.456 1.024-.684 1.728-.684.688 0 1.252.228 1.692.684.44.456.788 1.032 1.044 1.728s.432 1.452.528 2.268c.096.816.144 1.584.144 2.304 0 .72-.048 1.488-.144 2.304a9.702 9.702 0 01-.528 2.256c-.256.688-.604 1.26-1.044 1.716-.44.456-1.004.684-1.692.684zM78.808 44v-2.088H70.48L76 36.536c.368-.368.72-.74 1.056-1.116.336-.376.628-.772.876-1.188.248-.416.444-.856.588-1.32.144-.464.216-.968.216-1.512 0-.784-.148-1.48-.444-2.088a4.365 4.365 0 00-1.188-1.512 5.27 5.27 0 00-1.716-.912 6.595 6.595 0 00-2.028-.312c-.72 0-1.396.112-2.028.336a5.262 5.262 0 00-1.668.948c-.48.408-.876.888-1.188 1.44a5.156 5.156 0 00-.612 1.788l2.28.384c.144-.864.496-1.572 1.056-2.124s1.272-.828 2.136-.828c.416 0 .808.068 1.176.204.368.136.688.332.96.588.272.256.488.564.648.924.16.36.24.764.24 1.212 0 .72-.184 1.368-.552 1.944a10.512 10.512 0 01-1.32 1.656l-6.768 6.72V44h11.088z"/><rect width="16" height="4" x="8" y="8" fill="#F1F1F1" rx="2"/></g><g transform="translate(248 40)"><rect width="103" height="59" x=".5" y=".5" fill="#FFF" stroke="#E1E1E1" rx="4"/><path fill="#384254" fill-rule="nonzero" d="M32.536 44V27.008h-2.088l-4.824 3.912 1.368 1.608 3.216-2.688V44h2.328zm16.008 0v-3.816h2.448v-1.992h-2.448V27.008h-2.856l-7.224 11.064v2.112h7.824V44h2.256zm-2.256-5.808h-5.424l5.376-8.52h.048v8.52zM58.96 44l4.44-7.008c.48-.784.872-1.552 1.176-2.304.304-.752.456-1.592.456-2.52 0-.8-.148-1.544-.444-2.232a5.34 5.34 0 00-1.224-1.776 5.602 5.602 0 00-1.86-1.164 6.367 6.367 0 00-2.328-.42c-.832 0-1.608.136-2.328.408a5.58 5.58 0 00-1.872 1.152 5.227 5.227 0 00-1.236 1.788c-.296.696-.444 1.468-.444 2.316 0 .768.136 1.48.408 2.136a5.06 5.06 0 002.808 2.796 5.422 5.422 0 002.652.36c.2-.024.396-.052.588-.084.416-.08.744-.192.984-.336l.024.024L56.2 44h2.76zm.192-8.28a3.784 3.784 0 01-1.44-.264 3.13 3.13 0 01-1.104-.744 3.416 3.416 0 01-.708-1.128 3.874 3.874 0 01-.252-1.416c0-.528.084-1.016.252-1.464.168-.448.408-.832.72-1.152a3.4 3.4 0 011.116-.756 3.639 3.639 0 011.44-.276c.528 0 1.008.096 1.44.288.432.192.804.452 1.116.78.312.328.552.712.72 1.152.168.44.252.908.252 1.404 0 .528-.084 1.008-.252 1.44a3.227 3.227 0 01-1.848 1.872c-.44.176-.924.264-1.452.264zM75.376 44V27.008h-2.088l-4.824 3.912 1.368 1.608 3.216-2.688V44h2.328z"/><rect width="16" height="4" x="8" y="8" fill="#F1F1F1" rx="2"/></g><g transform="translate(24 108)"><rect width="159" height="125" x=".5" y=".5" fill="#FFF" stroke="#E1E1E1" rx="4"/><rect width="32" height="46" x="10" y="72" fill="#FFC111" opacity=".5" rx="4"/><rect width="32" height="56" x="46" y="62" fill="#FFC111" opacity=".5" rx="4"/><rect width="32" height="72" x="82" y="46" fill="#FFC111" opacity=".5" rx="4"/><rect width="32" height="88" x="118" y="30" fill="#FFC111" rx="4"/></g><g transform="translate(192 108)"><rect width="159" height="125" x=".5" y=".5" fill="#FFF" stroke="#E1E1E1" rx="4"/><g fill="#6F0DFB"><path d="M116 65c0 19.882-16.118 36-36 36S44 84.882 44 65s16.118-36 36-36v36z" opacity=".5"/><path d="M88 21c19.882 0 36 16.118 36 36H88z"/></g></g></g><g transform="translate(125 6)"><use fill="#000" filter="url(#a)" xlink:href="#b"/><circle cx="24" cy="24" r="25" fill="#FFF" stroke="#1B2E5B" stroke-width="2"/><path fill="#1B2E5B" d="M32.088 14.49l-17.299 8.193a.613.613 0 00-.205.976l3.969 4.337c-.001.013-.004.026-.004.04v3.403c0 .565.724.844 1.14.44l.085-.082a37.026 37.026 0 00.883-.897 16.504 16.504 0 00.28-.3l2.298 2.512c.316.345.903.267 1.106-.147l8.647-17.646c.266-.54-.337-1.096-.9-.829zm-12.39 12.825a.42.42 0 01.024-.612l7.035-6.07c.183-.158.201-.14.039.041l-6.207 6.953a.401.401 0 01-.598 0l-.293-.312z"/></g><g transform="translate(125 134)"><use fill="#000" filter="url(#c)" xlink:href="#d"/><circle cx="24" cy="24" r="25" fill="#FFF" stroke="#1B2E5B" stroke-width="2"/><path fill="#1B2E5B" d="M32.101 16A2.897 2.897 0 0135 18.897v10.206c0 1.6-1.294 2.897-2.899 2.897H15.9a2.897 2.897 0 01-2.9-2.897V18.897c0-1.6 1.294-2.897 2.899-2.897H32.1zm-15.82 2.218a.753.753 0 00-1.061 0 .742.742 0 000 1.054l8.25 8.202a.753.753 0 001.06 0l8.25-8.202a.742.742 0 000-1.054.753.753 0 00-1.06 0L24 25.893z"/></g><g transform="translate(89 70)"><use fill="#000" filter="url(#e)" xlink:href="#f"/><circle cx="24" cy="24" r="25" fill="#FFF" stroke="#1B2E5B" stroke-width="2"/><path fill="#1B2E5B" d="M23.759 11.448a687.21 687.21 0 017.355 4.789l.372.248c1.375.917 2.14 1.455 2.298 1.614.517.523.837 1.24.837 2.027v10.161a2.886 2.886 0 01-2.885 2.885H15.78a2.893 2.893 0 01-2.884-2.885v-10.16c0-.803.328-1.53.857-2.053.348-.343 3.683-2.552 10.005-6.626zm8.985 8.69h-17.97a.427.427 0 00-.43.427v2.042c0 .236.149.541.347.694l8.493 6.533a.986.986 0 001.15 0l8.492-6.533a.987.987 0 00.346-.694v-2.042a.424.424 0 00-.428-.427z"/></g><g transform="translate(153 70)"><use fill="#000" filter="url(#g)" xlink:href="#h"/><circle cx="24" cy="24" r="25" fill="#FFF" stroke="#1B2E5B" stroke-width="2"/><path fill="#1B2E5B" d="M25.837 28.889c1.222 1.71 2.74 1.468 3.386-.522l3.97-12.239c.649-1.997-.3-2.77-2.13-1.719L20.21 20.643c-1.826 1.048-1.77 2.645.109 3.56l1.704.83-4.177 5.155c-.63.778-.52 1.935.246 2.584l-.094-.08c.766.65 1.897.547 2.528-.232l4.177-5.156 1.133 1.585z"/></g><g transform="translate(61 6)"><use fill="#000" filter="url(#i)" xlink:href="#j"/><circle cx="24" cy="24" r="25" fill="#FFF" stroke="#1B2E5B" stroke-width="2"/><path fill="#1B2E5B" d="M24.5 15C30.299 15 35 19.701 35 25.5S30.299 36 24.5 36 14 31.299 14 25.5a1.5 1.5 0 013 0 7.5 7.5 0 107.5-7.5v2.13c0 1.647-1.15 2.31-2.567 1.459l-5.583-3.35c-1.42-.852-1.417-2.23 0-3.08l5.583-3.35c1.42-.852 2.567-.197 2.567 1.46V15z"/></g><g transform="translate(25 70)"><use fill="#000" filter="url(#k)" xlink:href="#l"/><circle cx="24" cy="24" r="25" fill="#FFF" stroke="#1B2E5B" stroke-width="2"/><path fill="#1B2E5B" d="M33.585 15.895c.81 0 1.468.655 1.468 1.467v13.276a1.47 1.47 0 01-1.468 1.467h-19.17c-.81 0-1.468-.655-1.468-1.467V17.362c0-.81.662-1.467 1.468-1.467h19.17zm-2.953 8.842l-.143.007c-.752.07-1.331.7-1.331 1.465v1.477c0 .82.66 1.472 1.474 1.472l.142-.007a1.468 1.468 0 001.331-1.465v-1.477c0-.82-.66-1.472-1.473-1.472zm-9.58-5.895c-2.184 0-3.638 2.125-1.604 5.871.687 1.264-.742 1.563-2.188 1.897-1.196.275-1.35.839-1.365 1.792a.738.738 0 00.742.741h8.83c.41 0 .75-.332.743-.741-.014-.954-.168-1.517-1.364-1.793-1.478-.34-2.855-.64-2.188-1.896 2.029-3.825.538-5.87-1.605-5.87zm9.581 0h-2.95c-.82 0-1.472.66-1.472 1.472v1.477c0 .82.659 1.472 1.472 1.472h2.95c.819 0 1.472-.659 1.472-1.472v-1.477c0-.82-.659-1.472-1.472-1.472z"/></g><g transform="translate(61 136)"><use fill="#000" filter="url(#m)" xlink:href="#n"/><circle cx="24" cy="24" r="25" fill="#FFF" stroke="#1B2E5B" stroke-width="2"/><path fill="#1B2E5B" fill-rule="nonzero" d="M19.573 31.048a8.253 8.253 0 0011.475-11.475L19.573 31.048zm-2.121-2.121l11.475-11.475a8.253 8.253 0 00-11.475 11.475zm14.753 3.278c-4.393 4.393-11.517 4.393-15.91 0-4.393-4.393-4.393-11.517 0-15.91 4.393-4.393 11.517-4.393 15.91 0 4.393 4.393 4.393 11.517 0 15.91z"/></g></g></svg>