<svg xmlns="http://www.w3.org/2000/svg" xmlns:xlink="http://www.w3.org/1999/xlink" width="421" height="380" viewBox="0 0 421 380"><defs><filter id="a" width="105.5%" height="106.8%" x="-2.8%" y="-2.8%" filterUnits="objectBoundingBox"><feMorphology in="SourceAlpha" operator="dilate" radius="1" result="shadowSpreadOuter1"/><feOffset dy="2" in="shadowSpreadOuter1" result="shadowOffsetOuter1"/><feGaussianBlur in="shadowOffsetOuter1" result="shadowBlurOuter1" stdDeviation="3"/><feComposite in="shadowBlurOuter1" in2="SourceAlpha" operator="out" result="shadowBlurOuter1"/><feColorMatrix in="shadowBlurOuter1" values="0 0 0 0 0.207843137 0 0 0 0 0.258823529 0 0 0 0 0.329411765 0 0 0 0.101137908 0"/></filter><filter id="c" width="105.5%" height="210%" x="-2.8%" y="-45%" filterUnits="objectBoundingBox"><feMorphology in="SourceAlpha" operator="dilate" radius="1" result="shadowSpreadOuter1"/><feOffset dy="2" in="shadowSpreadOuter1" result="shadowOffsetOuter1"/><feGaussianBlur in="shadowOffsetOuter1" result="shadowBlurOuter1" stdDeviation="3"/><feComposite in="shadowBlurOuter1" in2="SourceAlpha" operator="out" result="shadowBlurOuter1"/><feColorMatrix in="shadowBlurOuter1" values="0 0 0 0 0.207843137 0 0 0 0 0.258823529 0 0 0 0 0.329411765 0 0 0 0.101137908 0"/></filter><filter id="e" width="102.8%" height="113.9%" x="-1.4%" y="-5.6%" filterUnits="objectBoundingBox"><feOffset dy="1" in="SourceAlpha" result="shadowOffsetOuter1"/><feGaussianBlur in="shadowOffsetOuter1" result="shadowBlurOuter1" stdDeviation="1.5"/><feComposite in="shadowBlurOuter1" in2="SourceAlpha" operator="out" result="shadowBlurOuter1"/><feColorMatrix in="shadowBlurOuter1" values="0 0 0 0 0.207843137 0 0 0 0 0.258823529 0 0 0 0 0.329411765 0 0 0 0.12 0"/></filter><filter id="g" width="102.8%" height="113.9%" x="-1.4%" y="-5.6%" filterUnits="objectBoundingBox"><feOffset dy="1" in="SourceAlpha" result="shadowOffsetOuter1"/><feGaussianBlur in="shadowOffsetOuter1" result="shadowBlurOuter1" stdDeviation="1.5"/><feComposite in="shadowBlurOuter1" in2="SourceAlpha" operator="out" result="shadowBlurOuter1"/><feColorMatrix in="shadowBlurOuter1" values="0 0 0 0 0.207843137 0 0 0 0 0.258823529 0 0 0 0 0.329411765 0 0 0 0.12 0"/></filter><filter id="i" width="195.7%" height="195.7%" x="-47.8%" y="-39.1%" filterUnits="objectBoundingBox"><feMorphology in="SourceAlpha" operator="dilate" radius="1" result="shadowSpreadOuter1"/><feOffset dy="2" in="shadowSpreadOuter1" result="shadowOffsetOuter1"/><feGaussianBlur in="shadowOffsetOuter1" result="shadowBlurOuter1" stdDeviation="3"/><feComposite in="shadowBlurOuter1" in2="SourceAlpha" operator="out" result="shadowBlurOuter1"/><feColorMatrix in="shadowBlurOuter1" values="0 0 0 0 0.207843137 0 0 0 0 0.258823529 0 0 0 0 0.329411765 0 0 0 0.101137908 0"/></filter><filter id="k" width="195.7%" height="195.7%" x="-47.8%" y="-39.1%" filterUnits="objectBoundingBox"><feMorphology in="SourceAlpha" operator="dilate" radius="1" result="shadowSpreadOuter1"/><feOffset dy="2" in="shadowSpreadOuter1" result="shadowOffsetOuter1"/><feGaussianBlur in="shadowOffsetOuter1" result="shadowBlurOuter1" stdDeviation="3"/><feComposite in="shadowBlurOuter1" in2="SourceAlpha" operator="out" result="shadowBlurOuter1"/><feColorMatrix in="shadowBlurOuter1" values="0 0 0 0 0.207843137 0 0 0 0 0.258823529 0 0 0 0 0.329411765 0 0 0 0.101137908 0"/></filter><rect id="b" width="400" height="324" x="10" y="12" rx="8"/><rect id="f" width="360" height="72" x="0" y="0" rx="8"/><rect id="h" width="360" height="72" x="0" y="0" rx="8"/><circle id="j" cx="11.5" cy="21.5" r="11.5"/><circle id="l" cx="11.5" cy="21.5" r="11.5"/><path id="d" d="M18 12h384a8 8 0 018 8v12H10V20a8 8 0 018-8z"/></defs><g fill="none" fill-rule="evenodd"><use fill="#000" filter="url(#a)" xlink:href="#b"/><rect width="401" height="325" x="9.5" y="11.5" fill="#FFF" stroke="#E1E1E1" rx="8"/><path fill="#FF4A00" d="M213 64.005c0 .892-.164 1.745-.46 2.534a7.195 7.195 0 01-2.535.461h-.01a7.194 7.194 0 01-2.534-.46 7.177 7.177 0 01-.46-2.535v-.01c0-.892.163-1.746.46-2.533a7.171 7.171 0 012.534-.462h.01a7.17 7.17 0 012.534.462 7.16 7.16 0 01.46 2.533v.01zM221.833 62h-7.004l4.952-4.953a12.094 12.094 0 00-2.829-2.828L212 59.172v-7.005a12.057 12.057 0 00-1.994-.167h-.012c-.68 0-1.345.058-1.994.167v7.005l-4.953-4.953c-.547.389-1.06.822-1.532 1.296l-.002.001c-.473.473-.906.985-1.295 1.531L205.172 62h-7.005S198 63.316 198 63.996v.008c0 .68.058 1.347.167 1.996h7.005l-4.954 4.953a12.085 12.085 0 002.829 2.829L208 68.828v7.005c.648.109 1.313.166 1.991.167h.017c.679 0 1.345-.058 1.992-.167v-7.005l4.953 4.954c.546-.39 1.059-.823 1.532-1.296l.001-.001c.473-.473.907-.986 1.295-1.532L214.828 66h7.005c.11-.648.166-1.313.167-1.991v-.018c0-.678-.058-1.343-.167-1.99z"/><use fill="#000" filter="url(#c)" xlink:href="#d"/><path fill="#FFF" stroke="#E1E1E1" d="M402 11.5a8.47 8.47 0 016.01 2.49A8.473 8.473 0 01410.5 20h0v12.5H9.5V20a8.47 8.47 0 012.49-6.01A8.473 8.473 0 0118 11.5h0z"/><g transform="translate(30 96)"><use fill="#000" filter="url(#e)" xlink:href="#f"/><rect width="359" height="71" x=".5" y=".5" fill="#FFF" stroke="#E1E1E1" stroke-linejoin="square" rx="8"/><rect width="150" height="8" x="66" y="44" fill="#F1F1F1" rx="4"/><rect width="100" height="8" x="228" y="44" fill="#F1F1F1" rx="4"/><rect width="40" height="40" fill="#6FD350" rx="8" transform="translate(16 16)"/><path fill="#707070" fill-rule="nonzero" d="M70.02 30l1.992-6.372h.024L74.028 30h1.464l2.484-8.496h-1.608l-1.68 6.24h-.024l-1.836-6.24h-1.56l-1.872 6.24h-.024l-1.644-6.24h-1.656L68.556 30h1.464zm10.356 0v-3.144c0-.192.028-.38.084-.564.056-.184.14-.35.252-.498.112-.148.252-.266.42-.354.168-.088.368-.132.6-.132.232 0 .418.048.558.144.14.096.248.218.324.366.076.148.126.312.15.492.024.18.036.354.036.522V30h1.44v-3.6c0-.296-.04-.584-.12-.864a2.112 2.112 0 00-.378-.744 1.904 1.904 0 00-.66-.522c-.268-.132-.59-.198-.966-.198-.216 0-.416.028-.6.084a1.94 1.94 0 00-.87.534c-.108.116-.19.234-.246.354h-.024v-4.116h-1.44V30h1.44zm8.304.168c1.08 0 1.904-.384 2.472-1.152l-.96-.768c-.16.232-.364.414-.612.546-.248.132-.552.198-.912.198-.208 0-.408-.036-.6-.108a1.821 1.821 0 01-.516-.294 1.426 1.426 0 01-.528-1.014h4.38c.008-.064.012-.128.012-.192v-.192c0-.52-.07-.974-.21-1.362a2.727 2.727 0 00-.582-.972 2.407 2.407 0 00-.882-.588 3.041 3.041 0 00-1.11-.198c-.432 0-.834.074-1.206.222a2.872 2.872 0 00-.966.624 2.882 2.882 0 00-.642.972c-.156.38-.234.802-.234 1.266 0 .472.078.894.234 1.266.156.372.372.686.648.942.276.256.602.454.978.594.376.14.788.21 1.236.21zm1.296-3.624h-2.952c.032-.408.198-.742.498-1.002s.666-.39 1.098-.39c.232 0 .434.038.606.114.172.076.314.178.426.306.112.128.194.276.246.444.052.168.078.344.078.528zM94.248 30v-3.168c0-.192.028-.382.084-.57.056-.188.138-.354.246-.498.108-.144.246-.262.414-.354.168-.092.368-.138.6-.138.232 0 .418.048.558.144.14.096.25.218.33.366.08.148.132.314.156.498.024.184.036.36.036.528V30h1.44v-3.6c0-.296-.04-.584-.12-.864a2.112 2.112 0 00-.378-.744 1.904 1.904 0 00-.66-.522c-.268-.132-.59-.198-.966-.198-.432 0-.806.11-1.122.33-.316.22-.538.474-.666.762h-.024v-.924h-1.368V30h1.44zm10.596.12c.16 0 .328-.014.504-.042.176-.028.328-.066.456-.114l-.048-1.128c-.088.04-.188.07-.3.09-.112.02-.216.03-.312.03-.32 0-.526-.084-.618-.252a1.313 1.313 0 01-.138-.636v-2.676h1.44V24.24h-1.44v-1.668h-1.416v1.668h-1.008v1.152h1.008v2.688c0 .28.026.542.078.786.052.244.148.46.288.648.14.188.33.336.57.444.24.108.552.162.936.162zm3.492-.12v-3.144c0-.192.028-.38.084-.564.056-.184.14-.35.252-.498.112-.148.252-.266.42-.354.168-.088.368-.132.6-.132.232 0 .418.048.558.144.14.096.248.218.324.366.076.148.126.312.15.492.024.18.036.354.036.522V30h1.44v-3.6c0-.296-.04-.584-.12-.864a2.112 2.112 0 00-.378-.744 1.904 1.904 0 00-.66-.522c-.268-.132-.59-.198-.966-.198-.216 0-.416.028-.6.084a1.94 1.94 0 00-.87.534c-.108.116-.19.234-.246.354h-.024v-4.116h-1.44V30h1.44zm6.276-6.852a.952.952 0 00.666-.246.8.8 0 00.27-.618.8.8 0 00-.27-.618.952.952 0 00-.666-.246.886.886 0 00-.654.258.83.83 0 00-.258.606.83.83 0 00.258.606c.172.172.39.258.654.258zm.732 6.852v-5.76h-1.44V30h1.44zm3.432.168c.312 0 .614-.034.906-.102.292-.068.548-.178.768-.33.22-.152.396-.35.528-.594s.198-.542.198-.894c0-.28-.056-.518-.168-.714a1.567 1.567 0 00-.438-.492 2.388 2.388 0 00-.6-.318 5.24 5.24 0 00-.654-.192 5.819 5.819 0 01-.93-.282c-.212-.092-.318-.25-.318-.474 0-.224.096-.384.288-.48.192-.096.404-.144.636-.144.264 0 .508.062.732.186.224.124.4.27.528.438l.936-.828a2.057 2.057 0 00-.942-.66 3.538 3.538 0 00-1.218-.216c-.288 0-.568.036-.84.108a2.345 2.345 0 00-.732.33 1.7 1.7 0 00-.522.57 1.647 1.647 0 00-.198.828c0 .272.048.5.144.684.096.184.224.338.384.462s.342.224.546.3c.204.076.414.138.63.186.44.104.77.208.99.312.22.104.33.276.33.516a.592.592 0 01-.084.324.621.621 0 01-.222.21c-.092.052-.192.09-.3.114a1.463 1.463 0 01-.318.036c-.312 0-.596-.068-.852-.204a1.894 1.894 0 01-.624-.516l-.948.888c.28.304.632.538 1.056.702.424.164.86.246 1.308.246zm8.112-.168v-3.144c0-.192.028-.38.084-.564.056-.184.14-.35.252-.498.112-.148.252-.266.42-.354.168-.088.368-.132.6-.132.232 0 .418.048.558.144.14.096.248.218.324.366.076.148.126.312.15.492.024.18.036.354.036.522V30h1.44v-3.6c0-.296-.04-.584-.12-.864a2.112 2.112 0 00-.378-.744 1.904 1.904 0 00-.66-.522c-.268-.132-.59-.198-.966-.198-.216 0-.416.028-.6.084a1.94 1.94 0 00-.87.534c-.108.116-.19.234-.246.354h-.024v-4.116h-1.44V30h1.44zm7.296.144a2.36 2.36 0 001.092-.246c.32-.164.552-.374.696-.63h.036V30h1.344v-3.504c0-.288-.038-.576-.114-.864a2.017 2.017 0 00-.402-.78 2.061 2.061 0 00-.786-.564c-.332-.144-.754-.216-1.266-.216-.44 0-.874.076-1.302.228a3.25 3.25 0 00-1.134.684l.744.876c.184-.184.416-.34.696-.468.28-.128.572-.192.876-.192.36 0 .67.086.93.258.26.172.39.438.39.798v.144c-.448 0-.906.022-1.374.066a5.31 5.31 0 00-1.278.27 2.366 2.366 0 00-.942.588c-.244.256-.366.6-.366 1.032 0 .336.07.618.21.846.14.228.316.412.528.552.212.14.444.24.696.3.252.06.494.09.726.09zm.288-1.092c-.12 0-.24-.012-.36-.036a1.044 1.044 0 01-.324-.12.613.613 0 01-.324-.564c0-.216.072-.386.216-.51.144-.124.324-.22.54-.288.216-.068.452-.112.708-.132.256-.02.5-.03.732-.03h.324v.204c0 .456-.128.816-.384 1.08-.256.264-.632.396-1.128.396zm6 3.828v-3.648h.024c.184.288.446.516.786.684.34.168.714.252 1.122.252.44 0 .834-.082 1.182-.246.348-.164.644-.384.888-.66s.432-.6.564-.972c.132-.372.198-.77.198-1.194a3.4 3.4 0 00-.204-1.188 2.9 2.9 0 00-.576-.96 2.692 2.692 0 00-2.016-.876 2.621 2.621 0 00-1.284.318c-.168.092-.31.196-.426.312-.116.116-.21.23-.282.342h-.036v-.804h-1.38v8.64h1.44zm1.644-3.912c-.264 0-.5-.054-.708-.162a1.734 1.734 0 01-.534-.426 1.857 1.857 0 01-.336-.594 2.027 2.027 0 010-1.338 1.814 1.814 0 01.87-1.032 1.47 1.47 0 01.708-.168c.28 0 .524.054.732.162.208.108.38.25.516.426s.238.374.306.594a2.244 2.244 0 010 1.338 1.85 1.85 0 01-.306.6 1.521 1.521 0 01-1.248.6zm5.952 3.912v-3.648h.024c.184.288.446.516.786.684.34.168.714.252 1.122.252.44 0 .834-.082 1.182-.246.348-.164.644-.384.888-.66s.432-.6.564-.972c.132-.372.198-.77.198-1.194a3.4 3.4 0 00-.204-1.188 2.9 2.9 0 00-.576-.96 2.692 2.692 0 00-2.016-.876 2.621 2.621 0 00-1.284.318c-.168.092-.31.196-.426.312-.116.116-.21.23-.282.342h-.036v-.804h-1.38v8.64h1.44zm1.644-3.912c-.264 0-.5-.054-.708-.162a1.734 1.734 0 01-.534-.426 1.857 1.857 0 01-.336-.594 2.027 2.027 0 010-1.338 1.814 1.814 0 01.87-1.032 1.47 1.47 0 01.708-.168c.28 0 .524.054.732.162.208.108.38.25.516.426s.238.374.306.594a2.244 2.244 0 010 1.338 1.85 1.85 0 01-.306.6 1.521 1.521 0 01-1.248.6zm7.272 1.2c1.08 0 1.904-.384 2.472-1.152l-.96-.768c-.16.232-.364.414-.612.546-.248.132-.552.198-.912.198-.208 0-.408-.036-.6-.108a1.821 1.821 0 01-.516-.294 1.426 1.426 0 01-.528-1.014h4.38c.008-.064.012-.128.012-.192v-.192c0-.52-.07-.974-.21-1.362a2.727 2.727 0 00-.582-.972 2.407 2.407 0 00-.882-.588 3.041 3.041 0 00-1.11-.198c-.432 0-.834.074-1.206.222a2.872 2.872 0 00-.966.624 2.882 2.882 0 00-.642.972c-.156.38-.234.802-.234 1.266 0 .472.078.894.234 1.266.156.372.372.686.648.942.276.256.602.454.978.594.376.14.788.21 1.236.21zm1.296-3.624h-2.952c.032-.408.198-.742.498-1.002s.666-.39 1.098-.39c.232 0 .434.038.606.114.172.076.314.178.426.306.112.128.194.276.246.444.052.168.078.344.078.528zM162.552 30v-3.168c0-.192.028-.382.084-.57.056-.188.138-.354.246-.498.108-.144.246-.262.414-.354.168-.092.368-.138.6-.138.232 0 .418.048.558.144.14.096.25.218.33.366.08.148.132.314.156.498.024.184.036.36.036.528V30h1.44v-3.6c0-.296-.04-.584-.12-.864a2.112 2.112 0 00-.378-.744 1.904 1.904 0 00-.66-.522c-.268-.132-.59-.198-.966-.198-.432 0-.806.11-1.122.33-.316.22-.538.474-.666.762h-.024v-.924h-1.368V30h1.44zm7.224.168c.312 0 .614-.034.906-.102.292-.068.548-.178.768-.33.22-.152.396-.35.528-.594s.198-.542.198-.894c0-.28-.056-.518-.168-.714a1.567 1.567 0 00-.438-.492 2.388 2.388 0 00-.6-.318 5.24 5.24 0 00-.654-.192 5.819 5.819 0 01-.93-.282c-.212-.092-.318-.25-.318-.474 0-.224.096-.384.288-.48.192-.096.404-.144.636-.144.264 0 .508.062.732.186.224.124.4.27.528.438l.936-.828a2.057 2.057 0 00-.942-.66 3.538 3.538 0 00-1.218-.216c-.288 0-.568.036-.84.108a2.345 2.345 0 00-.732.33 1.7 1.7 0 00-.522.57 1.647 1.647 0 00-.198.828c0 .272.048.5.144.684.096.184.224.338.384.462s.342.224.546.3c.204.076.414.138.63.186.44.104.77.208.99.312.22.104.33.276.33.516a.592.592 0 01-.084.324.621.621 0 01-.222.21c-.092.052-.192.09-.3.114a1.463 1.463 0 01-.318.036c-.312 0-.596-.068-.852-.204a1.894 1.894 0 01-.624-.516l-.948.888c.28.304.632.538 1.056.702.424.164.86.246 1.308.246z"/></g><g transform="translate(30 215)"><use fill="#000" filter="url(#g)" xlink:href="#h"/><rect width="359" height="71" x=".5" y=".5" fill="#FFF" stroke="#E1E1E1" stroke-linejoin="square" rx="8"/><rect width="150" height="8" x="178" y="44" fill="#F1F1F1" rx="4"/><rect width="100" height="8" x="66" y="44" fill="#F1F1F1" rx="4"/><rect width="40" height="40" fill="#01B2D0" rx="8" transform="translate(16 16)"/><path fill="#707070" fill-rule="nonzero" d="M69.948 30c.552 0 1.108-.082 1.668-.246a4.565 4.565 0 001.512-.762 3.93 3.93 0 001.092-1.32c.28-.536.42-1.176.42-1.92 0-.8-.14-1.47-.42-2.01a3.737 3.737 0 00-1.092-1.308 4.32 4.32 0 00-1.512-.714 6.677 6.677 0 00-1.668-.216h-3.012V30h3.012zm-.24-1.32h-1.26V22.8h1.26c.392 0 .784.04 1.176.12.392.08.746.228 1.062.444.316.216.574.516.774.9.2.384.3.88.3 1.488 0 .576-.1 1.052-.3 1.428a2.49 2.49 0 01-.774.894c-.316.22-.67.376-1.062.468a5.132 5.132 0 01-1.176.138zm9.12 1.488c.432 0 .84-.076 1.224-.228.384-.152.716-.362.996-.63s.502-.59.666-.966c.164-.376.246-.792.246-1.248 0-.456-.082-.87-.246-1.242a2.904 2.904 0 00-.666-.954 2.936 2.936 0 00-.996-.612 3.457 3.457 0 00-1.224-.216c-.432 0-.84.072-1.224.216a2.936 2.936 0 00-.996.612c-.28.264-.502.582-.666.954a3.046 3.046 0 00-.246 1.242c0 .456.082.872.246 1.248.164.376.386.698.666.966s.612.478.996.63c.384.152.792.228 1.224.228zm0-1.2c-.288 0-.536-.056-.744-.168a1.602 1.602 0 01-.516-.432 1.85 1.85 0 01-.306-.6 2.244 2.244 0 010-1.338c.068-.22.17-.418.306-.594.136-.176.308-.318.516-.426.208-.108.456-.162.744-.162s.536.054.744.162c.208.108.38.25.516.426s.238.374.306.594a2.244 2.244 0 010 1.338 1.85 1.85 0 01-.306.6c-.136.176-.308.32-.516.432a1.548 1.548 0 01-.744.168zm9.576 1.152c.16 0 .328-.014.504-.042.176-.028.328-.066.456-.114l-.048-1.128c-.088.04-.188.07-.3.09-.112.02-.216.03-.312.03-.32 0-.526-.084-.618-.252a1.313 1.313 0 01-.138-.636v-2.676h1.44V24.24h-1.44v-1.668h-1.416v1.668h-1.008v1.152h1.008v2.688c0 .28.026.542.078.786.052.244.148.46.288.648.14.188.33.336.57.444.24.108.552.162.936.162zm3.492-.12v-3.144c0-.192.028-.38.084-.564.056-.184.14-.35.252-.498.112-.148.252-.266.42-.354.168-.088.368-.132.6-.132.232 0 .418.048.558.144.14.096.248.218.324.366.076.148.126.312.15.492.024.18.036.354.036.522V30h1.44v-3.6c0-.296-.04-.584-.12-.864a2.112 2.112 0 00-.378-.744 1.904 1.904 0 00-.66-.522c-.268-.132-.59-.198-.966-.198-.216 0-.416.028-.6.084a1.94 1.94 0 00-.87.534c-.108.116-.19.234-.246.354h-.024v-4.116h-1.44V30h1.44zm6.276-6.852a.952.952 0 00.666-.246.8.8 0 00.27-.618.8.8 0 00-.27-.618.952.952 0 00-.666-.246.886.886 0 00-.654.258.83.83 0 00-.258.606.83.83 0 00.258.606c.172.172.39.258.654.258zM98.904 30v-5.76h-1.44V30h1.44zm3.432.168c.312 0 .614-.034.906-.102.292-.068.548-.178.768-.33.22-.152.396-.35.528-.594s.198-.542.198-.894c0-.28-.056-.518-.168-.714a1.567 1.567 0 00-.438-.492 2.388 2.388 0 00-.6-.318 5.24 5.24 0 00-.654-.192 5.819 5.819 0 01-.93-.282c-.212-.092-.318-.25-.318-.474 0-.224.096-.384.288-.48.192-.096.404-.144.636-.144.264 0 .508.062.732.186.224.124.4.27.528.438l.936-.828a2.057 2.057 0 00-.942-.66 3.538 3.538 0 00-1.218-.216c-.288 0-.568.036-.84.108a2.345 2.345 0 00-.732.33 1.7 1.7 0 00-.522.57 1.647 1.647 0 00-.198.828c0 .272.048.5.144.684.096.184.224.338.384.462s.342.224.546.3c.204.076.414.138.63.186.44.104.77.208.99.312.22.104.33.276.33.516a.592.592 0 01-.084.324.621.621 0 01-.222.21c-.092.052-.192.09-.3.114a1.463 1.463 0 01-.318.036c-.312 0-.596-.068-.852-.204a1.894 1.894 0 01-.624-.516l-.948.888c.28.304.632.538 1.056.702.424.164.86.246 1.308.246zm4.788-.096c.264 0 .49-.092.678-.276a.891.891 0 00.282-.66.845.845 0 00-.288-.648.963.963 0 00-.672-.264.935.935 0 00-.678.276.891.891 0 00.006 1.308c.088.08.19.144.306.192a.948.948 0 00.366.072zm3.996 0c.264 0 .49-.092.678-.276a.891.891 0 00.282-.66.845.845 0 00-.288-.648.963.963 0 00-.672-.264.935.935 0 00-.678.276.891.891 0 00.006 1.308c.088.08.19.144.306.192a.948.948 0 00.366.072zm3.996 0c.264 0 .49-.092.678-.276a.891.891 0 00.282-.66.845.845 0 00-.288-.648.963.963 0 00-.672-.264.935.935 0 00-.678.276.891.891 0 00.006 1.308c.088.08.19.144.306.192a.948.948 0 00.366.072z"/></g><g transform="translate(200 168)"><path fill="#979797" fill-rule="nonzero" d="M12 0v41.5h4l-4.5 9-4.5-9h4V0h1z"/><use fill="#000" filter="url(#i)" xlink:href="#j"/><circle cx="11.5" cy="21.5" r="12" fill="#FFF" stroke="#E1E1E1"/><path fill="#0C8DE8" d="M11.5 15a1.5 1.5 0 011.5 1.5V20h3.5a1.5 1.5 0 010 3H13v3.5a1.5 1.5 0 01-3 0V23H6.5a1.5 1.5 0 010-3H10v-3.5a1.5 1.5 0 011.5-1.5z"/></g><g transform="translate(200 287)"><path stroke="#979797" d="M11.5 0v23"/><use fill="#000" filter="url(#k)" xlink:href="#l"/><circle cx="11.5" cy="21.5" r="12" fill="#FFF" stroke="#E1E1E1"/><path fill="#0C8DE8" d="M11.5 15a1.5 1.5 0 011.5 1.5V20h3.5a1.5 1.5 0 010 3H13v3.5a1.5 1.5 0 01-3 0V23H6.5a1.5 1.5 0 010-3H10v-3.5a1.5 1.5 0 011.5-1.5z"/></g></g></svg>