<svg xmlns="http://www.w3.org/2000/svg" width="355" height="353" viewBox="0 0 355 353"><g fill="none" fill-rule="evenodd"><g transform="translate(195 193)"><circle cx="80" cy="80" r="80" fill="#0AA6D2" opacity=".2"/><circle cx="80" cy="80" r="60" fill="#0AA6D2"/><path fill="#FFF" d="M100.592 60.003a6.215 6.215 0 00-.203-.003H59.553l-.118.001-.116-.001C55.803 60 53 62.896 53 66.53c0 .814.15 1.596.427 2.317.129.405.298.804.509 1.19l20.418 36.517c.293.523.644.988 1.04 1.392A6.25 6.25 0 0080.029 110c1.538 0 2.953-.593 4.042-1.567a6.5 6.5 0 001.575-1.88l20.418-36.517a6.69 6.69 0 00.502-1.166c.28-.726.434-1.516.434-2.34 0-3.634-2.803-6.53-6.202-6.53-.069 0-.137.001-.206.003zM82.018 94.341l16.148-28.96a2.21 2.21 0 00.117-.182c.478-.947 1.405-1.572 2.515-1.572 1.462 0 2.692 1.273 2.692 2.903 0 .556-.178 1.103-.468 1.571a.165.165 0 00-.059.121l-17.785 31.802-3.16-5.683zM59.553 63.627h35.57l-3.159 5.684H59.553c-.056 0-.11-.002-.176 0-.04-.002-.094 0-.175 0-1.52 0-2.75-1.273-2.75-2.781 0-1.63 1.23-2.903 2.75-2.903.081 0 .134.002.175 0l.063.001h.113zm10.505 9.311h19.884L80 90.72l-9.942-17.782zm7.397 31.923c.004-.043-.016-.076-.059-.121L59.67 72.938h6.32l16.205 28.96a.83.83 0 00.117.242c.248.426.41.963.41 1.572 0 1.51-1.23 2.781-2.692 2.781a2.848 2.848 0 01-2.574-1.632z"/></g><circle cx="110" cy="110" r="110" fill="#FF4A00" opacity=".2"/><circle cx="110" cy="110" r="79" fill="#FF4A00"/><path fill="#FFF" d="M119 110.016a21.53 21.53 0 01-1.383 7.6 21.585 21.585 0 01-7.602 1.385h-.03a21.58 21.58 0 01-7.601-1.384 21.532 21.532 0 01-1.384-7.601v-.032a21.554 21.554 0 011.381-7.6 21.513 21.513 0 017.603-1.384h.03a21.49 21.49 0 017.603 1.385 21.519 21.519 0 011.383 7.6v.03zM145.5 104h-21.014l14.858-14.86a36.146 36.146 0 00-3.889-4.597v-.001a36.281 36.281 0 00-4.597-3.886l-14.86 14.86V74.5a36.17 36.17 0 00-5.98-.501h-.037a36.18 36.18 0 00-5.98.501v21.014l-14.86-14.86a35.95 35.95 0 00-4.595 3.889l-.008.005a36.226 36.226 0 00-3.883 4.592L95.515 104H74.501S74 107.946 74 109.987v.024c0 2.041.173 4.041.501 5.988h21.014l-14.86 14.86a36.256 36.256 0 008.486 8.485l14.86-14.86V145.5c1.944.326 3.938.498 5.973.5h.05a36.324 36.324 0 005.975-.5v-21.015l14.86 14.86a36.28 36.28 0 004.596-3.887l.003-.003a36.35 36.35 0 003.886-4.596L124.484 116H145.5c.327-1.943.498-3.937.5-5.973v-.052a36.221 36.221 0 00-.5-5.974z"/></g></svg>