<svg xmlns="http://www.w3.org/2000/svg" width="444" height="444" viewBox="0 0 444 444"><g fill="none" fill-rule="evenodd" transform="translate(2 2)"><circle cx="220" cy="220" r="220" stroke="#F1F1F1" stroke-width="2"/><path stroke="#E1E1E1" stroke-linecap="round" stroke-width="4" d="M277.168 44.055C179.996 12.48 75.628 65.66 44.055 162.832 12.48 260.004 65.66 364.372 162.832 395.945c97.172 31.574 201.54-21.605 233.113-118.777"/><circle cx="220" cy="220" r="150" stroke="#F1F1F1" stroke-width="2"/><path stroke="#E1E1E1" stroke-linecap="round" stroke-linejoin="round" stroke-width="4" d="M169.587 323.361c57.085 27.842 125.932 4.137 153.774-52.948s4.137-125.932-52.948-153.774-125.932-4.137-153.774 52.948"/><circle cx="220" cy="220" r="80" stroke="#F1F1F1" stroke-width="2"/><path stroke="#E1E1E1" stroke-linecap="round" stroke-linejoin="round" stroke-width="4" d="M262.548 205.35c-8.09-23.5-33.7-35.99-57.199-27.898-23.498 8.09-35.989 33.7-27.897 57.199 8.09 23.498 33.7 35.989 57.199 27.897"/></g></svg>