<svg xmlns="http://www.w3.org/2000/svg" xmlns:xlink="http://www.w3.org/1999/xlink" width="305" height="120" viewBox="0 0 305 120">
  <defs>
    <path id="vero-zapier-a" d="M33.0500494,0.0021896077 C33.0032262,0.000700674464 32.9561414,0 32.9090566,0 L32.9090566,0 L4.55039819,0 C4.52301924,0 4.49572749,0.000175168616 4.46843574,0.000700674464 L4.46843574,0.000700674464 C4.44157996,0.000175168616 4.41481137,0 4.3878684,0 L4.3878684,0 C1.94634657,0 0,1.95505692 0,4.40741755 L0,4.40741755 C0,4.95753459 0.104807301,5.48531763 0.296285532,5.97141054 L0.296285532,5.97141054 C0.385833866,6.24528667 0.503458699,6.51417049 0.650031971,6.77447106 L0.650031971,6.77447106 L14.8293612,31.4238484 C15.0326978,31.7769883 15.2765797,32.090978 15.5513283,32.363628 L15.5513283,32.363628 C16.3498518,33.2142468 17.4921816,33.75 18.7702726,33.75 L18.7702726,33.75 C19.8379643,33.75 20.8208161,33.3499149 21.5773121,32.6924195 L21.5773121,32.6924195 C22.0059583,32.3541689 22.3798465,31.9289471 22.6706388,31.4238484 L22.6706388,31.4238484 L36.849968,6.77447106 C36.9937511,6.51925038 37.1095448,6.25579678 37.1984828,5.98752605 L37.1984828,5.98752605 C37.3929257,5.49687875 37.5,4.96366549 37.5,4.40741755 L37.5,4.40741755 C37.5,1.95505692 35.5536534,0 33.1933965,0 L33.1933965,0 C33.1453526,0 33.0975702,0.000700674464 33.0500494,0.0021896077 L33.0500494,0.0021896077 Z M20.1516887,23.1801505 L31.3651107,3.63203367 C31.4053944,3.57676797 31.431727,3.53463992 31.4463756,3.50959081 L31.4463756,3.50959081 C31.7781492,2.87005019 32.4225135,2.44850691 33.1933965,2.44850691 L33.1933965,2.44850691 C34.2080742,2.44850691 35.0623147,3.30770898 35.0623147,4.40741755 L35.0623147,4.40741755 C35.0623147,4.78324181 34.9387607,5.15240967 34.7372551,5.46850144 L34.7372551,5.46850144 C34.7148462,5.48549279 34.7001976,5.51246876 34.6967099,5.55013001 L34.6967099,5.55013001 L22.3455793,27.0162556 L20.1516887,23.1801505 Z M4.55039819,2.44850691 L29.2523978,2.44850691 L27.0585072,6.28478719 L4.55039819,6.28478719 C4.51194559,6.28478719 4.47436494,6.28356101 4.42850084,6.28478719 L4.42850084,6.28478719 C4.40042434,6.28356101 4.36354124,6.28478719 4.30669069,6.28478719 L4.30669069,6.28478719 C3.25172935,6.28478719 2.39714003,5.42593547 2.39714003,4.40741755 L2.39714003,4.40741755 C2.39714003,3.30735864 3.25172935,2.44850691 4.30669069,2.44850691 L4.30669069,2.44850691 C4.36354124,2.44850691 4.40033715,2.44964551 4.42850084,2.44850691 L4.42850084,2.44850691 C4.44375981,2.44894484 4.45814683,2.44903242 4.4719235,2.44903242 L4.4719235,2.44903242 C4.49947684,2.44903242 4.52467593,2.44850691 4.55039819,2.44850691 L4.55039819,2.44850691 Z M11.8457536,8.7332941 L25.6543335,8.7332941 L18.7499564,20.7358477 L11.8457536,8.7332941 Z M16.9827065,30.2811359 C16.9854095,30.2523207 16.9718072,30.2297239 16.9419869,30.1995073 L16.9419869,30.1995073 L4.63157589,8.7332941 L9.01953148,8.7332941 L20.273586,28.281411 C20.2884962,28.334925 20.3129105,28.3819578 20.3547637,28.4446681 L20.3547637,28.4446681 C20.5272336,28.7322074 20.6391908,29.0943685 20.6391908,29.5056644 L20.6391908,29.5056644 C20.6391908,30.5242699 19.7853863,31.3830341 18.7702726,31.3830341 L18.7702726,31.3830341 C17.9688717,31.3830341 17.3022729,30.9254937 16.9827065,30.2811359 L16.9827065,30.2811359 Z"/>
    <linearGradient id="vero-zapier-b" x1="0%" x2="100%" y1="50%" y2="50%">
      <stop offset="0%" stop-color="#01B2D0"/>
      <stop offset="100%" stop-color="#FF8100"/>
    </linearGradient>
  </defs>
  <g fill="none" fill-rule="evenodd">
    <path fill="#01B2D0" d="M65.6568542,5.65685425 L114.343146,54.3431458 C117.46734,57.4673401 117.46734,62.5326599 114.343146,65.6568542 L65.6568542,114.343146 C62.5326599,117.46734 57.4673401,117.46734 54.3431458,114.343146 L5.65685425,65.6568542 C2.53265992,62.5326599 2.53265992,57.4673401 5.65685425,54.3431458 L54.3431458,5.65685425 C57.4673401,2.53265992 62.5326599,2.53265992 65.6568542,5.65685425 Z"/>
    <use fill="#FFF" transform="translate(40 47)" xlink:href="#vero-zapier-a"/>
    <g transform="translate(185)">
      <path fill="#FF4A00" d="M65.6568542,5.65685425 L114.343146,54.3431458 C117.46734,57.4673401 117.46734,62.5326599 114.343146,65.6568542 L65.6568542,114.343146 C62.5326599,117.46734 57.4673401,117.46734 54.3431458,114.343146 L5.65685425,65.6568542 C2.53265992,62.5326599 2.53265992,57.4673401 5.65685425,54.3431458 L54.3431458,5.65685425 C57.4673401,2.53265992 62.5326599,2.53265992 65.6568542,5.65685425 Z"/>
      <path fill="#FFF" d="M23.1561194,19.0073134 C23.155597,20.2427612 22.929403,21.4249254 22.5177612,22.5172388 C21.4259701,22.9288806 20.2427612,23.1550746 19.006791,23.1566418 L18.9926866,23.1566418 C17.7577612,23.1550746 16.5745522,22.929403 15.4827612,22.5177612 C15.0711194,21.4259701 14.844403,20.2427612 14.8438806,19.0073134 L14.8438806,18.9926866 C14.844403,17.7577612 15.070597,16.5745522 15.4817164,15.4832836 C16.5735075,15.0711194 17.7572388,14.844403 18.9926866,14.8438806 L19.006791,14.8438806 C20.2427612,14.844403 21.4259701,15.0711194 22.5177612,15.4832836 C22.929403,16.5745522 23.155597,17.7577612 23.1561194,18.9926866 L23.1561194,19.0073134 Z M35.3941045,16.2292537 L25.6897015,16.2292537 L32.5512687,9.36716418 C32.0121642,8.60970149 31.4108955,7.89925373 30.7552985,7.24365672 L30.7552985,7.24313433 C30.0997015,6.5880597 29.3892537,5.98783582 28.6323134,5.44873134 L21.7702239,12.3108209 L21.7702239,2.60641791 C20.8722388,2.45544776 19.9497015,2.37552239 19.0083582,2.375 L18.9911194,2.375 C18.0497761,2.37552239 17.1277612,2.45544776 16.2292537,2.60641791 L16.2292537,12.3108209 L9.36716418,5.44873134 C8.60970149,5.98783582 7.89977612,6.58858209 7.24522388,7.2441791 L7.24156716,7.24679104 C6.58701493,7.90134328 5.98731343,8.61074627 5.44820896,9.36716418 L12.3108209,16.2292537 L2.60641791,16.2292537 C2.60641791,16.2292537 2.375,18.0518657 2.375,18.9942537 L2.375,19.0057463 C2.375,19.9481343 2.45492537,20.8717164 2.60641791,21.7707463 L12.3108209,21.7707463 L5.44820896,28.6328358 C6.52746269,30.1472388 7.85276119,31.4730597 9.36716418,32.551791 L16.2292537,25.6891791 L16.2292537,35.3941045 C17.1272388,35.5445522 18.048209,35.6239552 18.9879851,35.625 L19.0114925,35.625 C19.951791,35.6239552 20.873806,35.5445522 21.7702239,35.3941045 L21.7702239,25.6891791 L28.6328358,32.551791 C29.3897761,32.0126866 30.0997015,31.4119403 30.7552985,30.7568657 L30.7568657,30.7552985 C31.4114179,30.0997015 32.0126866,29.3892537 32.5512687,28.6328358 L25.6886567,21.7707463 L35.3941045,21.7707463 C35.5450746,20.8732836 35.6239552,19.9523134 35.625,19.0120149 L35.625,18.9879851 C35.6239552,18.0476866 35.5450746,17.1267164 35.3941045,16.2292537 L35.3941045,16.2292537 Z" transform="translate(41 41)"/>
    </g>
    <g transform="translate(121 55)">
      <circle cx="58" cy="5" r="5" stroke="#FF4A00" stroke-width="2"/>
      <circle cx="5" cy="5" r="5" stroke="#01B2D0" stroke-width="2"/>
      <rect width="38" height="4" x="13" y="3" fill="url(#vero-zapier-b)" rx="2"/>
    </g>
  </g>
</svg>
