<svg xmlns="http://www.w3.org/2000/svg" xmlns:xlink="http://www.w3.org/1999/xlink" width="305" height="120" viewBox="0 0 305 120"><defs><linearGradient id="b" x1="0%" x2="100%" y1="50%" y2="50%"><stop offset="0%" stop-color="#01B2D0"/><stop offset="100%" stop-color="#FF8100"/></linearGradient><path id="a" d="M33.05.002A4.44 4.44 0 0032.91 0H4.387A4.375 4.375 0 000 4.407c0 .55.105 1.078.296 1.564.09.274.207.543.354.803l14.18 24.65c.203.353.447.667.721.94a4.397 4.397 0 003.22 1.386c1.067 0 2.05-.4 2.806-1.058a4.42 4.42 0 001.094-1.268L36.85 6.774c.144-.255.26-.518.348-.786a4.28 4.28 0 00.302-1.58C37.5 1.954 35.554 0 33.193 0c-.048 0-.095 0-.143.002zM20.152 23.18L31.365 3.632c.04-.055.067-.097.081-.122a1.943 1.943 0 011.747-1.061c1.015 0 1.87.859 1.87 1.958 0 .376-.124.745-.326 1.062a.11.11 0 00-.04.081L22.346 27.016l-2.194-3.836zM4.55 2.45h24.702L27.06 6.285H4.307c-1.055 0-1.91-.86-1.91-1.878 0-1.1.855-1.958 1.91-1.958h.243zm7.296 6.284h13.808L18.75 20.736 11.846 8.733zm5.137 21.548c.002-.029-.011-.051-.041-.081L4.632 8.733H9.02l11.254 19.548a.546.546 0 00.08.164c.173.287.285.65.285 1.06 0 1.02-.854 1.878-1.869 1.878a1.983 1.983 0 01-1.787-1.102z"/></defs><g fill="none" fill-rule="evenodd"><path fill="#01B2D0" d="M65.657 5.657l48.686 48.686a8 8 0 010 11.314l-48.686 48.686a8 8 0 01-11.314 0L5.657 65.657a8 8 0 010-11.314L54.343 5.657a8 8 0 0111.314 0z"/><use fill="#FFF" transform="translate(40 47)" xlink:href="#a"/><path fill="#FF4A00" d="M250.657 5.657l48.686 48.686a8 8 0 010 11.314l-48.686 48.686a8 8 0 01-11.314 0l-48.686-48.686a8 8 0 010-11.314l48.686-48.686a8 8 0 0111.314 0z"/><path fill="#FFF" d="M249.156 60.007a9.942 9.942 0 01-.638 3.51 9.968 9.968 0 01-3.511.64h-.014a9.966 9.966 0 01-3.51-.64 9.943 9.943 0 01-.64-3.51v-.014a9.969 9.969 0 01.639-3.51 9.935 9.935 0 013.51-.64h.015a9.939 9.939 0 013.51.64 9.937 9.937 0 01.64 3.51v.014zm12.238-2.778h-9.704l6.861-6.862a16.692 16.692 0 00-1.796-2.123 16.755 16.755 0 00-2.123-1.795l-6.862 6.862v-9.705c-.898-.15-1.82-.23-2.762-.231h-.017c-.941 0-1.863.08-2.762.231v9.705l-6.862-6.862a16.702 16.702 0 00-2.122 1.795l-.003.003a16.73 16.73 0 00-1.794 2.12l6.863 6.862h-9.705s-.231 1.823-.231 2.765v.012c0 .942.08 1.866.231 2.765h9.705l-6.863 6.862a16.743 16.743 0 003.92 3.919l6.861-6.863v9.705c.898.15 1.82.23 2.759.231h.023c.94-.001 1.863-.08 2.76-.23v-9.706l6.862 6.863c.757-.54 1.467-1.14 2.122-1.795l.002-.002a16.787 16.787 0 001.794-2.122l-6.862-6.862h9.705c.151-.898.23-1.819.231-2.759v-.024a16.84 16.84 0 00-.23-2.759z"/><g transform="translate(121 55)"><circle cx="58" cy="5" r="5" stroke="#FF4A00" stroke-width="2"/><circle cx="5" cy="5" r="5" stroke="#01B2D0" stroke-width="2"/><rect width="38" height="4" x="13" y="3" fill="url(#b)" rx="2"/></g></g></svg>