<svg xmlns="http://www.w3.org/2000/svg" xmlns:xlink="http://www.w3.org/1999/xlink" width="303" height="120" viewBox="0 0 303 120"><defs><linearGradient id="b" x1="100%" x2="0%" y1="50%" y2="50%"><stop offset="0%" stop-color="#52BD94"/><stop offset="100%" stop-color="#01B2D0"/></linearGradient><path id="a" d="M33.05.002A4.44 4.44 0 0032.91 0H4.387A4.375 4.375 0 000 4.407c0 .55.105 1.078.296 1.564.09.274.207.543.354.803l14.18 24.65c.203.353.447.667.721.94a4.397 4.397 0 003.22 1.386c1.067 0 2.05-.4 2.806-1.058a4.42 4.42 0 001.094-1.268L36.85 6.774c.144-.255.26-.518.348-.786a4.28 4.28 0 00.302-1.58C37.5 1.954 35.554 0 33.193 0c-.048 0-.095 0-.143.002zM20.152 23.18L31.365 3.632c.04-.055.067-.097.081-.122a1.943 1.943 0 011.747-1.061c1.015 0 1.87.859 1.87 1.958 0 .376-.124.745-.326 1.062a.11.11 0 00-.04.081L22.346 27.016l-2.194-3.836zM4.55 2.45h24.702L27.06 6.285H4.307c-1.055 0-1.91-.86-1.91-1.878 0-1.1.855-1.958 1.91-1.958h.243zm7.296 6.284h13.808L18.75 20.736 11.846 8.733zm5.137 21.548c.002-.029-.011-.051-.041-.081L4.632 8.733H9.02l11.254 19.548a.546.546 0 00.08.164c.173.287.285.65.285 1.06 0 1.02-.854 1.878-1.869 1.878a1.983 1.983 0 01-1.787-1.102z"/></defs><g fill="none" fill-rule="evenodd"><path fill="#01B2D0" d="M65.657 5.657l48.686 48.686a8 8 0 010 11.314l-48.686 48.686a8 8 0 01-11.314 0L5.657 65.657a8 8 0 010-11.314L54.343 5.657a8 8 0 0111.314 0z"/><use fill="#FFF" transform="translate(40 47)" xlink:href="#a"/><path fill="#52BD94" d="M248.657 5.657l48.686 48.686a8 8 0 010 11.314l-48.686 48.686a8 8 0 01-11.314 0l-48.686-48.686a8 8 0 010-11.314l48.686-48.686a8 8 0 0111.314 0z"/><g fill="#FFF" transform="translate(226 43)"><rect width="20.9" height="3.626" x="13.127" y="11.942" fill-rule="nonzero" rx=".674"/><rect width="20.9" height="3.626" x=".195" y="21.002" fill-rule="nonzero" rx=".674"/><path d="M2.705 14.423a.68.68 0 00.82-.461c2.239-7.029 9.466-11.191 16.668-9.6a.668.668 0 00.783-.487l.59-2.202a.678.678 0 00-.513-.835C11.947-1.215 2.793 4.078.03 12.994a.671.671 0 00.474.84l2.202.59zm28.82 7.723a.68.68 0 00-.821.462c-2.238 7.028-9.465 11.19-16.667 9.6a.669.669 0 00-.783.486l-.59 2.202a.678.678 0 00.513.835c9.106 2.053 18.26-3.24 21.024-12.156a.671.671 0 00-.474-.84l-2.202-.59z"/><circle cx="27.445" cy="5.973" r="1.988" fill-rule="nonzero"/><circle cx="6.784" cy="30.596" r="1.988" fill-rule="nonzero"/></g><g transform="translate(120 55)"><circle cx="58" cy="5" r="5" stroke="#52BD94" stroke-width="2"/><circle cx="5" cy="5" r="5" stroke="#01B2D0" stroke-width="2"/><rect width="38" height="4" x="13" y="3" fill="url(#b)" rx="2"/></g></g></svg>